<?xml version="1.0" encoding="utf-8" standalone="no"?>
<!DOCTYPE svg PUBLIC "-//W3C//DTD SVG 1.1//EN"
  "http://www.w3.org/Graphics/SVG/1.1/DTD/svg11.dtd">
<!-- Created with matplotlib (https://matplotlib.org/) -->
<svg height="163.071123pt" version="1.1" viewBox="0 0 567.217337 163.071123" width="567.217337pt" xmlns="http://www.w3.org/2000/svg" xmlns:xlink="http://www.w3.org/1999/xlink">
 <metadata>
  <rdf:RDF xmlns:cc="http://creativecommons.org/ns#" xmlns:dc="http://purl.org/dc/elements/1.1/" xmlns:rdf="http://www.w3.org/1999/02/22-rdf-syntax-ns#">
   <cc:Work>
    <dc:type rdf:resource="http://purl.org/dc/dcmitype/StillImage"/>
    <dc:date>2024-11-15T16:04:05.237162</dc:date>
    <dc:format>image/svg+xml</dc:format>
    <dc:creator>
     <cc:Agent>
      <dc:title>Matplotlib v3.3.4, https://matplotlib.org/</dc:title>
     </cc:Agent>
    </dc:creator>
   </cc:Work>
  </rdf:RDF>
 </metadata>
 <defs>
  <style type="text/css">*{stroke-linecap:butt;stroke-linejoin:round;}</style>
 </defs>
 <g id="figure_1">
  <g id="patch_1">
   <path d="M 0 163.071123 
L 567.217337 163.071123 
L 567.217337 0 
L 0 0 
z
" style="fill:#ffffff;"/>
  </g>
  <g id="axes_1">
   <g id="line2d_1">
    <path clip-path="url(#p859aa496f2)" d="M 72.71938 121.150124 
L 72.71938 121.92688 
L 73.496136 121.92688 
L 74.272892 121.92688 
L 74.272892 121.150124 
L 74.272892 121.92688 
L 74.272892 122.703636 
L 74.272892 123.480393 
L 75.049648 123.480393 
L 75.826404 124.257149 
L 76.60316 124.257149 
L 76.60316 123.480393 
L 75.826404 123.480393 
L 75.049648 122.703636 
L 74.272892 122.703636 
L 73.496136 122.703636 
L 72.71938 122.703636 
L 71.942623 122.703636 
L 71.942623 123.480393 
L 72.71938 123.480393 
L 72.71938 124.257149 
" style="fill:none;stroke:#c44e52;stroke-linecap:square;"/>
   </g>
   <g id="line2d_2">
    <path clip-path="url(#p859aa496f2)" d="M 100.6826 118.0431 
L 100.6826 117.266344 
L 99.905844 117.266344 
L 99.905844 118.0431 
L 99.129088 118.819856 
L 99.129088 119.596612 
L 99.905844 120.373368 
L 100.6826 119.596612 
L 100.6826 118.819856 
L 100.6826 118.0431 
L 99.905844 118.0431 
L 99.129088 118.819856 
L 99.129088 119.596612 
L 99.129088 120.373368 
L 99.905844 119.596612 
" style="fill:none;stroke:#c44e52;stroke-linecap:square;"/>
   </g>
   <g id="line2d_3">
    <path clip-path="url(#p859aa496f2)" d="M 136.413382 105.615002 
L 135.636626 105.615002 
L 134.85987 105.615002 
L 134.083114 105.615002 
L 134.083114 106.391758 
L 134.083114 107.168514 
L 134.85987 107.94527 
L 134.85987 107.168514 
L 134.85987 106.391758 
L 134.083114 106.391758 
L 133.306358 107.168514 
L 133.306358 107.94527 
L 134.083114 107.94527 
L 134.083114 107.168514 
L 134.85987 107.168514 
" style="fill:none;stroke:#c44e52;stroke-linecap:square;"/>
   </g>
   <g id="line2d_4">
    <path clip-path="url(#p859aa496f2)" d="M 120.87826 82.312318 
L 120.87826 81.535562 
L 120.87826 80.758805 
L 120.101503 80.758805 
L 120.101503 81.535562 
L 120.101503 82.312318 
L 120.87826 82.312318 
L 120.87826 81.535562 
L 120.87826 80.758805 
L 120.101503 80.758805 
" style="fill:none;stroke:#c44e52;stroke-linecap:square;"/>
   </g>
   <g id="line2d_5">
    <path clip-path="url(#p859aa496f2)" d="M 33.104817 149.113345 
L 32.328061 149.113345 
L 33.104817 149.113345 
L 33.104817 148.336589 
L 33.881573 148.336589 
L 34.658329 148.336589 
L 35.435085 148.336589 
L 36.211841 147.559833 
L 37.765354 147.559833 
L 38.54211 146.783076 
L 40.872378 146.00632 
L 42.42589 145.229564 
L 43.979403 144.452808 
L 46.309671 143.676052 
L 47.863183 142.899296 
L 50.193452 142.12254 
L 52.52372 140.569027 
L 55.630745 139.792271 
L 57.184257 138.238759 
L 60.291281 137.462003 
L 61.844794 136.685247 
L 64.175062 135.131735 
L 66.50533 133.578222 
L 68.835599 132.801466 
L 71.942623 130.471198 
L 76.60316 128.140929 
L 78.156672 126.587417 
L 81.263697 124.257149 
L 85.147478 121.92688 
L 88.254502 119.596612 
L 91.361527 117.266344 
L 94.468551 114.936075 
L 96.79882 113.382563 
L 101.459356 110.275538 
L 103.789625 108.722026 
L 108.450161 106.391758 
L 111.557186 104.061489 
L 118.547991 100.954465 
L 123.208528 97.84744 
L 129.422577 94.740416 
L 135.636626 90.856635 
L 141.073919 86.972855 
L 149.618236 82.312318 
L 155.055529 79.205293 
L 162.046334 76.098269 
L 166.706871 72.991244 
L 175.251189 69.107464 
L 180.688482 66.777195 
L 185.349018 64.446927 
L 187.679287 62.893414 
L 188.456043 62.116658 
L 189.232799 62.116658 
L 190.009555 62.116658 
" style="fill:none;stroke:#c44e52;stroke-linecap:square;"/>
   </g>
   <g id="line2d_6">
    <path clip-path="url(#p859aa496f2)" d="M 338.369976 42.697755 
L 338.369976 41.920999 
L 337.59322 41.920999 
L 337.59322 43.474511 
L 337.59322 44.251267 
L 338.369976 46.581536 
L 338.369976 48.135048 
L 339.146732 48.911804 
L 339.146732 48.135048 
L 339.146732 47.358292 
L 338.369976 44.251267 
L 339.146732 41.144243 
L 339.146732 38.813974 
L 339.923488 38.037218 
L 340.700244 38.037218 
L 341.477 39.590731 
L 342.253757 41.144243 
L 343.030513 42.697755 
L 343.030513 43.474511 
L 343.030513 42.697755 
L 343.807269 41.144243 
L 344.584025 39.590731 
L 345.360781 37.260462 
L 346.914293 36.483706 
L 347.691049 37.260462 
L 349.244562 40.367487 
L 350.021318 44.251267 
L 350.798074 47.358292 
L 351.57483 49.68856 
L 352.351586 49.68856 
" style="fill:none;stroke:#c44e52;stroke-linecap:square;"/>
   </g>
   <g id="line2d_7">
    <path clip-path="url(#p859aa496f2)" d="M 359.342391 38.813974 
L 359.342391 38.037218 
L 359.342391 38.813974 
L 360.119147 38.813974 
L 360.895904 38.813974 
L 361.67266 38.813974 
L 364.002928 38.037218 
L 364.779684 38.037218 
" style="fill:none;stroke:#c44e52;stroke-linecap:square;"/>
   </g>
   <g id="line2d_8">
    <path clip-path="url(#p859aa496f2)" d="M 360.119147 42.697755 
L 359.342391 44.251267 
L 360.119147 45.028024 
L 361.67266 45.80478 
L 364.002928 45.80478 
L 367.886709 45.028024 
L 368.663465 45.028024 
" style="fill:none;stroke:#c44e52;stroke-linecap:square;"/>
   </g>
   <g id="line2d_9">
    <path clip-path="url(#p859aa496f2)" d="M 388.082368 22.502096 
L 388.082368 21.72534 
L 388.082368 22.502096 
L 388.082368 23.278852 
L 388.082368 24.055608 
L 388.859124 27.939389 
L 389.63588 31.823169 
L 389.63588 35.70695 
L 390.412637 37.260462 
L 390.412637 38.037218 
" style="fill:none;stroke:#c44e52;stroke-linecap:square;"/>
   </g>
   <g id="line2d_10">
    <path clip-path="url(#p859aa496f2)" d="M 400.510466 38.813974 
L 400.510466 39.590731 
L 400.510466 40.367487 
L 401.287222 40.367487 
" style="fill:none;stroke:#c44e52;stroke-linecap:square;"/>
   </g>
   <g id="line2d_11">
    <path clip-path="url(#p859aa496f2)" d="M 410.608296 17.841559 
L 409.83154 17.841559 
L 409.054784 17.841559 
L 407.501271 17.841559 
L 407.501271 17.064803 
L 409.054784 17.064803 
L 410.608296 17.064803 
L 412.161808 17.841559 
L 412.938564 18.618315 
L 412.161808 20.171827 
L 411.385052 21.72534 
L 409.83154 23.278852 
L 409.83154 24.832364 
L 410.608296 24.832364 
L 412.161808 26.385876 
L 413.71532 27.939389 
L 416.045589 30.269657 
L 416.822345 32.599925 
L 417.599101 34.153438 
L 416.822345 34.930194 
L 415.268833 34.153438 
L 414.492077 33.376682 
" style="fill:none;stroke:#c44e52;stroke-linecap:square;"/>
   </g>
   <g id="line2d_12">
    <path clip-path="url(#p859aa496f2)" d="M 426.143419 14.734534 
L 426.920175 14.734534 
L 429.250443 14.734534 
L 431.580711 14.734534 
L 434.687736 15.511291 
L 436.241248 17.064803 
L 436.241248 20.171827 
L 435.464492 24.832364 
L 434.687736 28.716145 
L 433.91098 32.599925 
L 433.91098 34.930194 
L 433.91098 34.153438 
L 433.91098 33.376682 
" style="fill:none;stroke:#c44e52;stroke-linecap:square;"/>
   </g>
   <g id="line2d_13">
    <path clip-path="url(#p859aa496f2)" d="M 447.115834 16.288047 
L 446.339078 16.288047 
L 446.339078 15.511291 
L 447.115834 14.734534 
L 449.446102 13.957778 
L 450.999615 13.957778 
L 452.553127 13.957778 
L 452.553127 14.734534 
L 450.999615 17.064803 
L 448.669346 20.948583 
L 446.339078 24.832364 
L 446.339078 26.385876 
L 447.89259 27.939389 
L 452.553127 28.716145 
L 456.436908 27.939389 
L 458.767176 27.162633 
" style="fill:none;stroke:#c44e52;stroke-linecap:square;"/>
   </g>
   <g id="line2d_14">
    <path clip-path="url(#p859aa496f2)" d="M 343.807269 97.070684 
L 344.584025 96.293928 
L 344.584025 95.517172 
L 345.360781 96.293928 
L 345.360781 98.624196 
L 345.360781 102.507977 
L 346.137537 105.615002 
L 346.137537 110.275538 
L 346.914293 113.382563 
L 346.914293 114.159319 
" style="fill:none;stroke:#c44e52;stroke-linecap:square;"/>
   </g>
   <g id="line2d_15">
    <path clip-path="url(#p859aa496f2)" d="M 353.128342 108.722026 
L 353.905098 108.722026 
L 353.905098 109.498782 
L 354.681855 110.275538 
" style="fill:none;stroke:#c44e52;stroke-linecap:square;"/>
   </g>
   <g id="line2d_16">
    <path clip-path="url(#p859aa496f2)" d="M 360.895904 96.293928 
L 360.119147 96.293928 
L 360.119147 95.517172 
L 360.895904 95.517172 
L 361.67266 95.517172 
L 362.449416 95.517172 
L 363.226172 95.517172 
L 364.779684 95.517172 
L 365.55644 96.293928 
L 365.55644 97.070684 
L 364.002928 98.624196 
L 363.226172 99.400953 
L 363.226172 100.177709 
L 364.002928 100.177709 
L 364.002928 100.954465 
L 365.55644 101.731221 
L 367.109953 104.061489 
L 368.663465 106.391758 
L 368.663465 107.94527 
L 367.886709 109.498782 
L 366.333197 110.275538 
L 364.002928 109.498782 
L 364.002928 108.722026 
" style="fill:none;stroke:#c44e52;stroke-linecap:square;"/>
   </g>
   <g id="line2d_17">
    <path clip-path="url(#p859aa496f2)" d="M 373.324002 91.633391 
L 372.547246 91.633391 
L 372.547246 92.410147 
L 371.770489 92.410147 
L 372.547246 92.410147 
L 373.324002 92.410147 
L 376.431026 92.410147 
L 377.984538 93.186904 
L 379.538051 93.96366 
L 380.314807 94.740416 
L 380.314807 95.517172 
L 381.091563 97.070684 
L 381.091563 98.624196 
L 381.091563 100.177709 
L 381.091563 101.731221 
L 380.314807 104.061489 
L 379.538051 106.391758 
L 377.984538 108.722026 
L 377.207782 109.498782 
" style="fill:none;stroke:#c44e52;stroke-linecap:square;"/>
   </g>
   <g id="line2d_18">
    <path clip-path="url(#p859aa496f2)" d="M 389.63588 93.186904 
L 388.859124 93.186904 
L 388.082368 92.410147 
L 388.859124 92.410147 
L 390.412637 91.633391 
L 393.519661 90.856635 
L 395.849929 91.633391 
L 395.849929 93.186904 
L 395.849929 94.740416 
L 393.519661 97.84744 
L 391.189393 100.954465 
L 390.412637 103.284733 
L 391.189393 104.838245 
L 393.519661 105.615002 
L 396.626686 107.168514 
L 399.73371 107.168514 
L 401.287222 106.391758 
" style="fill:none;stroke:#c44e52;stroke-linecap:square;"/>
   </g>
   <g id="line2d_19">
    <path clip-path="url(#p859aa496f2)" d="M 419.929369 90.856635 
L 419.929369 91.633391 
L 420.706126 91.633391 
L 421.482882 91.633391 
L 424.589906 90.856635 
L 426.143419 90.079879 
L 426.920175 90.079879 
" style="fill:none;stroke:#c44e52;stroke-linecap:square;"/>
   </g>
   <g id="line2d_20">
    <path clip-path="url(#p859aa496f2)" d="M 421.482882 97.84744 
L 420.706126 98.624196 
L 420.706126 99.400953 
L 421.482882 99.400953 
L 423.81315 99.400953 
L 426.920175 99.400953 
L 429.250443 98.624196 
" style="fill:none;stroke:#c44e52;stroke-linecap:square;"/>
   </g>
   <g id="line2d_21">
    <path clip-path="url(#p859aa496f2)" d="M 457.213664 95.517172 
L 457.99042 95.517172 
L 458.767176 95.517172 
L 460.320688 94.740416 
L 461.8742 93.186904 
L 462.650957 91.633391 
L 463.427713 90.856635 
L 462.650957 90.079879 
L 461.8742 89.303123 
L 460.320688 90.079879 
L 458.767176 93.186904 
L 457.213664 97.070684 
L 457.213664 101.731221 
L 458.767176 104.838245 
L 461.8742 105.615002 
L 465.757981 104.838245 
L 468.865006 102.507977 
L 469.641762 100.954465 
" style="fill:none;stroke:#c44e52;stroke-linecap:square;"/>
   </g>
   <g id="line2d_22">
    <path clip-path="url(#p859aa496f2)" d="M 468.865006 74.544756 
L 468.865006 73.768 
L 468.865006 72.991244 
L 469.641762 72.991244 
L 470.418518 72.214488 
L 471.195274 72.214488 
L 471.97203 72.214488 
L 472.748786 72.214488 
L 472.748786 74.544756 
L 472.748786 76.098269 
L 472.748786 78.428537 
L 473.525542 79.205293 
L 475.079055 79.205293 
L 477.409323 79.982049 
L 478.962835 79.205293 
L 479.739591 79.205293 
" style="fill:none;stroke:#c44e52;stroke-linecap:square;"/>
   </g>
   <g id="line2d_23">
    <path clip-path="url(#p859aa496f2)" d="M 475.079055 76.098269 
L 474.302299 76.098269 
L 473.525542 76.098269 
L 471.97203 78.428537 
L 470.418518 79.982049 
L 468.865006 82.312318 
L 468.865006 83.089074 
L 468.865006 83.86583 
" style="fill:none;stroke:#c44e52;stroke-linecap:square;"/>
   </g>
   <g id="line2d_24">
    <path clip-path="url(#p859aa496f2)" d="M 485.953641 70.660976 
L 485.176884 69.88422 
L 484.400128 70.660976 
L 484.400128 71.437732 
L 484.400128 73.768 
L 485.176884 76.098269 
L 485.953641 79.205293 
L 486.730397 79.982049 
L 488.283909 80.758805 
L 489.837421 79.982049 
L 489.837421 79.205293 
" style="fill:none;stroke:#c44e52;stroke-linecap:square;"/>
   </g>
   <g id="line2d_25">
    <path clip-path="url(#p859aa496f2)" d="M 485.176884 74.544756 
L 484.400128 75.321513 
L 483.623372 75.321513 
L 484.400128 76.098269 
L 487.507153 75.321513 
L 490.614177 74.544756 
L 492.944446 74.544756 
" style="fill:none;stroke:#c44e52;stroke-linecap:square;"/>
   </g>
   <g id="line2d_26">
    <path clip-path="url(#p859aa496f2)" d="M 507.702812 93.96366 
L 507.702812 94.740416 
L 508.479568 95.517172 
L 509.256324 95.517172 
L 513.140105 94.740416 
L 516.24713 93.96366 
L 517.023886 93.186904 
" style="fill:none;stroke:#c44e52;stroke-linecap:square;"/>
   </g>
   <g id="line2d_27">
    <path clip-path="url(#p859aa496f2)" d="M 529.451984 79.982049 
L 529.451984 79.205293 
L 529.451984 79.982049 
L 530.22874 81.535562 
L 531.782252 86.196098 
L 532.559008 93.186904 
L 534.112521 99.400953 
L 534.889277 101.731221 
" style="fill:none;stroke:#c44e52;stroke-linecap:square;"/>
   </g>
  </g>
 </g>
 <defs>
  <clipPath id="p859aa496f2">
   <rect height="148.671123" width="552.817337" x="7.2" y="7.2"/>
  </clipPath>
 </defs>
</svg>
