<?xml version="1.0" encoding="utf-8" standalone="no"?>
<!DOCTYPE svg PUBLIC "-//W3C//DTD SVG 1.1//EN"
  "http://www.w3.org/Graphics/SVG/1.1/DTD/svg11.dtd">
<!-- Created with matplotlib (https://matplotlib.org/) -->
<svg height="85.839535pt" version="1.1" viewBox="0 0 567.217337 85.839535" width="567.217337pt" xmlns="http://www.w3.org/2000/svg" xmlns:xlink="http://www.w3.org/1999/xlink">
 <metadata>
  <rdf:RDF xmlns:cc="http://creativecommons.org/ns#" xmlns:dc="http://purl.org/dc/elements/1.1/" xmlns:rdf="http://www.w3.org/1999/02/22-rdf-syntax-ns#">
   <cc:Work>
    <dc:type rdf:resource="http://purl.org/dc/dcmitype/StillImage"/>
    <dc:date>2024-11-15T16:04:04.405701</dc:date>
    <dc:format>image/svg+xml</dc:format>
    <dc:creator>
     <cc:Agent>
      <dc:title>Matplotlib v3.3.4, https://matplotlib.org/</dc:title>
     </cc:Agent>
    </dc:creator>
   </cc:Work>
  </rdf:RDF>
 </metadata>
 <defs>
  <style type="text/css">*{stroke-linecap:butt;stroke-linejoin:round;}</style>
 </defs>
 <g id="figure_1">
  <g id="patch_1">
   <path d="M 0 85.839535 
L 567.217337 85.839535 
L 567.217337 -0 
L 0 -0 
z
" style="fill:#ffffff;"/>
  </g>
  <g id="axes_1">
   <g id="line2d_1">
    <path clip-path="url(#p8ee619d180)" d="M 32.328061 16.549469 
L 33.635679 16.549469 
L 34.071552 16.113597 
L 41.91726 16.113597 
L 43.224878 15.677724 
L 50.198841 15.677724 
L 51.070587 16.113597 
L 52.814077 16.113597 
L 54.121695 15.677724 
L 55.865186 15.677724 
L 57.172804 15.241851 
L 65.890258 15.241851 
L 67.197876 15.677724 
L 68.941367 15.677724 
L 69.37724 16.113597 
L 70.248985 16.113597 
L 70.684858 16.549469 
L 71.556603 16.985342 
L 71.992476 17.421215 
L 72.864221 17.857087 
L 73.300094 18.29296 
L 74.171839 18.728833 
L 74.607712 19.164705 
L 76.351203 20.036451 
L 76.787076 20.472324 
L 77.658821 20.472324 
L 78.530566 20.908196 
L 79.402312 21.779942 
L 80.274057 21.779942 
L 80.70993 22.215814 
L 81.581675 22.215814 
L 82.017548 22.651687 
L 82.889293 23.08756 
L 83.761039 23.08756 
L 84.632784 23.523432 
L 86.376275 23.523432 
L 87.24802 23.959305 
L 89.863256 23.959305 
L 90.735002 23.523432 
L 98.58071 23.523432 
L 99.452456 23.08756 
L 100.324201 23.08756 
L 103.37531 22.215814 
L 104.682928 22.215814 
L 107.298164 21.344069 
L 108.16991 20.908196 
L 109.041655 20.908196 
L 109.9134 20.472324 
L 111.656891 20.472324 
L 112.528636 20.036451 
L 114.272127 19.600578 
L 115.143873 19.164705 
L 115.579745 18.728833 
L 116.887363 18.29296 
L 117.323236 18.29296 
L 118.194981 17.857087 
L 118.630854 17.421215 
L 119.5026 17.421215 
L 119.938472 16.985342 
L 121.681963 16.113597 
L 122.989581 15.677724 
L 123.861326 15.241851 
L 124.297199 15.241851 
L 125.168945 14.805979 
L 134.322271 11.75487 
L 134.758144 11.75487 
L 135.194017 11.318997 
L 136.501635 11.318997 
L 137.37338 10.883124 
L 142.603852 10.883124 
L 144.783216 10.447252 
L 155.24416 10.447252 
L 156.551779 10.883124 
L 159.167015 10.883124 
L 161.346378 10.447252 
L 161.346378 10.447252 
" style="fill:none;stroke:#64b5cd;stroke-linecap:square;"/>
   </g>
   <g id="line2d_2">
    <path clip-path="url(#p8ee619d180)" d="M 159.167015 10.447252 
L 159.602887 10.447252 
L 160.03876 10.447252 
L 160.03876 10.883124 
L 160.474633 10.883124 
L 161.346378 10.883124 
L 161.782251 10.883124 
L 162.653996 10.883124 
L 163.525742 11.318997 
L 164.397487 11.318997 
L 165.269232 11.318997 
L 166.57685 11.75487 
L 168.320341 12.190742 
L 169.192087 12.626615 
L 170.935577 12.626615 
L 172.243195 13.062488 
L 173.114941 13.49836 
L 174.422559 13.934233 
L 175.294304 13.934233 
L 176.16605 13.934233 
L 177.909541 14.370106 
L 179.653031 14.805979 
L 180.960649 15.241851 
L 182.70414 15.677724 
L 184.011758 16.113597 
L 185.319376 16.113597 
L 186.626994 16.113597 
L 187.934612 16.113597 
L 188.806358 16.549469 
L 189.678103 16.549469 
L 190.549849 16.549469 
L 191.421594 16.549469 
L 192.293339 16.549469 
L 193.165085 16.985342 
L 194.03683 16.985342 
L 194.908576 16.985342 
L 196.216194 17.421215 
L 196.652066 17.421215 
L 197.959684 17.421215 
L 198.83143 17.421215 
L 199.703175 17.421215 
L 201.010793 17.421215 
L 201.882539 17.421215 
L 203.190157 17.421215 
L 204.061902 17.421215 
L 204.933648 17.421215 
L 206.241266 17.421215 
L 207.548884 17.421215 
L 208.856502 17.857087 
L 211.035865 17.857087 
L 212.779356 17.857087 
L 214.522847 17.857087 
L 216.70221 17.857087 
L 218.445701 17.857087 
L 219.753319 17.857087 
L 221.060937 18.29296 
L 222.368555 18.29296 
L 223.676173 18.29296 
L 224.983791 18.728833 
L 226.29141 18.728833 
L 226.727282 18.728833 
L 227.599028 18.728833 
L 228.470773 18.728833 
L 229.342518 19.164705 
L 230.650136 19.164705 
L 231.521882 19.164705 
L 232.393627 19.164705 
L 233.265373 19.600578 
L 234.137118 19.600578 
L 234.572991 19.600578 
L 235.444736 20.036451 
L 235.880609 20.472324 
L 236.752354 20.472324 
L 237.188227 20.908196 
L 238.059972 20.908196 
L 238.495845 21.344069 
L 239.36759 21.344069 
L 239.803463 21.779942 
L 241.111081 21.779942 
L 242.854572 22.215814 
L 243.726317 22.651687 
L 244.16219 22.651687 
" style="fill:none;stroke:#64b5cd;stroke-linecap:square;"/>
   </g>
   <g id="line2d_3">
    <path clip-path="url(#p8ee619d180)" d="M 241.982826 20.908196 
L 242.418699 20.908196 
L 242.418699 21.344069 
L 242.418699 21.779942 
L 242.854572 21.779942 
L 242.854572 22.215814 
L 242.854572 22.651687 
L 243.290445 22.651687 
L 243.290445 23.08756 
L 243.726317 23.523432 
L 244.16219 23.959305 
L 245.033935 24.395178 
L 245.905681 24.83105 
L 247.213299 25.266923 
L 248.520917 25.702796 
L 249.828535 25.702796 
L 250.70028 26.138669 
L 251.572026 26.138669 
L 252.443771 26.138669 
L 253.315517 26.574541 
L 254.187262 27.010414 
L 255.059007 27.010414 
L 256.366625 27.446287 
L 257.674243 27.446287 
L 258.110116 27.882159 
L 258.981862 27.882159 
L 259.853607 28.318032 
L 260.725352 28.318032 
L 262.03297 28.753905 
L 263.340588 28.753905 
L 264.212334 28.753905 
L 265.519952 28.753905 
L 267.263443 28.753905 
L 268.571061 29.189777 
L 269.878679 29.189777 
L 271.62217 29.189777 
L 272.929788 29.62565 
L 274.673279 29.62565 
L 276.416769 29.62565 
L 278.16026 29.62565 
L 279.467878 29.62565 
L 280.775496 29.62565 
L 282.083114 29.62565 
L 283.826605 29.62565 
L 285.570096 30.061523 
L 287.313587 30.061523 
L 289.057077 30.061523 
L 290.364695 30.497395 
L 291.672314 30.497395 
L 292.979932 30.497395 
L 294.28755 30.497395 
L 295.595168 30.497395 
L 296.902786 30.497395 
L 298.210404 30.497395 
L 299.082149 30.497395 
L 299.518022 30.497395 
L 300.82564 30.497395 
L 301.697386 30.497395 
L 302.569131 30.497395 
L 303.876749 30.497395 
L 304.748494 30.497395 
L 305.62024 30.497395 
L 306.927858 30.061523 
L 307.799603 30.061523 
L 309.107221 30.061523 
L 309.978967 30.061523 
L 310.850712 30.061523 
L 312.15833 29.62565 
L 313.030076 29.62565 
L 314.337694 29.62565 
L 315.209439 29.62565 
L 316.517057 29.189777 
L 317.824675 29.189777 
L 319.568166 29.189777 
L 320.875784 29.62565 
L 322.183402 29.62565 
L 323.49102 30.061523 
L 325.234511 30.061523 
L 327.413874 30.061523 
L 329.157365 29.62565 
" style="fill:none;stroke:#64b5cd;stroke-linecap:square;"/>
   </g>
   <g id="line2d_4">
    <path clip-path="url(#p8ee619d180)" d="M 323.926893 28.318032 
L 324.362766 28.318032 
L 324.798638 28.318032 
L 325.234511 28.318032 
L 325.670384 28.318032 
L 326.106256 28.318032 
L 326.542129 28.318032 
L 326.978002 27.882159 
L 327.413874 27.882159 
L 327.849747 27.882159 
L 328.721493 27.882159 
L 329.593238 27.882159 
L 330.464983 27.882159 
L 331.336729 27.882159 
L 332.208474 27.882159 
L 333.951965 27.882159 
L 335.695456 27.882159 
L 337.003074 27.882159 
L 338.746564 28.318032 
L 340.490055 28.318032 
L 341.361801 28.318032 
L 342.669419 28.318032 
L 343.105291 28.318032 
L 344.848782 28.318032 
L 346.1564 28.318032 
L 347.464018 28.318032 
L 348.771636 28.318032 
L 349.643382 28.318032 
L 350.951 28.753905 
L 352.258618 28.753905 
L 354.002109 28.753905 
L 355.309727 29.189777 
L 356.181472 29.189777 
L 357.053218 29.189777 
L 357.48909 29.62565 
L 358.360836 29.62565 
L 358.796708 30.061523 
L 359.668454 30.497395 
L 360.104326 30.497395 
L 360.976072 30.933268 
L 361.411945 31.369141 
L 362.28369 31.805014 
L 363.155435 32.240886 
L 364.027181 32.240886 
L 364.898926 32.676759 
L 366.206544 33.112632 
L 367.514162 33.548504 
L 368.82178 33.984377 
L 370.129398 33.984377 
L 371.872889 34.42025 
L 373.180507 34.42025 
L 374.488125 34.42025 
L 375.795743 34.856122 
L 377.539234 34.856122 
L 378.846852 34.856122 
L 380.590343 34.856122 
L 381.897961 34.856122 
L 383.641452 34.856122 
L 384.94907 34.856122 
L 386.692561 35.291995 
L 388.000179 35.727868 
L 389.74367 36.16374 
L 391.48716 36.599613 
L 393.230651 37.471359 
L 395.410015 37.907231 
L 396.717633 37.907231 
L 398.461124 37.907231 
L 400.204614 38.343104 
" style="fill:none;stroke:#64b5cd;stroke-linecap:square;"/>
   </g>
   <g id="line2d_5">
    <path clip-path="url(#p8ee619d180)" d="M 395.845887 36.599613 
L 396.28176 36.599613 
L 396.717633 36.599613 
L 397.153505 36.599613 
L 398.461124 36.599613 
L 400.204614 36.599613 
L 401.07636 37.035486 
L 402.81985 37.035486 
L 404.127469 37.471359 
L 405.870959 37.471359 
L 407.61445 37.471359 
L 408.922068 37.471359 
L 411.101432 37.471359 
L 413.280795 37.907231 
L 415.460159 37.907231 
L 417.639522 37.907231 
L 418.511267 37.907231 
L 420.254758 37.907231 
L 421.562376 38.343104 
L 423.305867 38.343104 
L 424.613485 38.343104 
L 426.792849 38.343104 
L 428.100467 38.343104 
L 429.843957 38.343104 
L 431.151576 38.343104 
L 431.587448 38.343104 
L 433.330939 38.343104 
L 434.638557 38.343104 
L 436.382048 38.778977 
L 437.253793 38.778977 
L 438.561411 39.214849 
L 440.304902 39.214849 
L 442.484266 39.650722 
L 444.227756 40.086595 
L 445.535374 40.522467 
L 447.278865 41.394213 
L 449.022356 42.265958 
L 450.765847 42.701831 
L 452.073465 43.573576 
L 453.816956 44.445322 
L 455.124574 45.75294 
L 456.432192 47.060558 
L 459.047428 49.239921 
L 462.098537 50.983412 
L 463.406155 51.855157 
" style="fill:none;stroke:#64b5cd;stroke-linecap:square;"/>
   </g>
   <g id="line2d_6">
    <path clip-path="url(#p8ee619d180)" d="M 461.226791 49.239921 
L 460.790919 49.675794 
L 460.355046 49.675794 
L 460.355046 50.111667 
L 460.790919 50.111667 
L 461.226791 50.547539 
L 461.662664 50.983412 
L 462.53441 51.855157 
L 463.406155 52.726903 
L 464.2779 53.162776 
L 466.021391 54.034521 
L 466.893136 54.470394 
L 467.764882 55.342139 
L 469.508373 55.778012 
L 470.815991 56.649757 
L 472.123609 57.521502 
L 473.8671 58.393248 
L 475.174718 59.264993 
L 476.918208 60.136739 
L 478.225826 60.572611 
L 479.097572 61.008484 
L 479.969317 61.880229 
L 482.148681 63.187848 
L 483.020426 63.62372 
L 484.328044 64.495466 
L 485.635662 65.367211 
L 487.379153 66.238956 
L 488.250898 66.674829 
L 489.994389 67.110702 
L 491.302007 67.546574 
L 492.173753 67.546574 
L 493.045498 67.982447 
L 493.917243 68.41832 
L 494.788989 69.290065 
L 495.660734 69.725938 
L 496.968352 70.597683 
L 498.27597 71.469429 
L 499.583588 71.905301 
L 500.455334 72.341174 
L 501.762952 72.341174 
L 502.634697 72.341174 
L 503.506443 72.341174 
L 504.814061 72.777047 
L 505.249933 72.777047 
L 506.557552 72.777047 
L 508.301042 73.212919 
L 509.60866 73.212919 
L 511.352151 73.212919 
L 512.223897 73.212919 
L 513.967387 73.648792 
L 514.40326 73.648792 
L 516.146751 73.648792 
L 517.018496 73.648792 
L 518.761987 74.084665 
L 520.94135 74.520538 
L 523.120714 74.95641 
L 525.300077 74.95641 
L 526.607695 74.95641 
L 528.787059 75.392283 
L 530.53055 75.392283 
L 532.709913 75.392283 
L 534.453404 74.95641 
L 534.889277 74.95641 
" style="fill:none;stroke:#64b5cd;stroke-linecap:square;"/>
   </g>
   <g id="line2d_7">
    <path clip-path="url(#p8ee619d180)" d="M 351.822745 56.649757 
L 352.258618 56.649757 
L 352.258618 56.213884 
L 352.694491 55.778012 
L 352.694491 55.342139 
L 352.694491 54.906266 
L 351.822745 55.342139 
L 350.079255 56.213884 
L 348.771636 57.521502 
L 347.464018 59.700866 
L 347.464018 61.444357 
L 348.335764 63.187848 
L 349.207509 64.059593 
L 350.951 64.931338 
L 353.130363 64.495466 
L 354.002109 64.059593 
" style="fill:none;stroke:#64b5cd;stroke-linecap:square;"/>
   </g>
   <g id="line2d_8">
    <path clip-path="url(#p8ee619d180)" d="M 357.48909 61.008484 
L 357.48909 60.572611 
L 357.053218 60.572611 
L 356.617345 60.572611 
L 356.181472 61.444357 
L 355.7456 62.316102 
L 355.7456 63.62372 
L 356.181472 64.495466 
L 357.48909 64.931338 
L 359.232581 64.931338 
L 360.104326 64.059593 
L 360.540199 62.316102 
L 360.104326 60.572611 
L 358.796708 60.136739 
L 357.48909 60.136739 
L 356.181472 60.572611 
L 356.181472 61.008484 
L 356.181472 61.444357 
L 356.617345 61.008484 
" style="fill:none;stroke:#64b5cd;stroke-linecap:square;"/>
   </g>
   <g id="line2d_9">
    <path clip-path="url(#p8ee619d180)" d="M 361.411945 60.136739 
L 361.847817 60.136739 
L 362.28369 60.136739 
L 362.719563 60.572611 
L 363.591308 61.008484 
L 364.463053 62.316102 
L 365.334799 63.187848 
L 365.770671 64.059593 
L 365.770671 64.495466 
L 365.770671 64.059593 
L 366.206544 63.187848 
L 366.642417 62.316102 
L 367.07829 61.444357 
L 367.514162 61.008484 
L 367.950035 61.008484 
" style="fill:none;stroke:#64b5cd;stroke-linecap:square;"/>
   </g>
   <g id="line2d_10">
    <path clip-path="url(#p8ee619d180)" d="M 372.308762 61.880229 
L 372.744635 61.880229 
L 372.308762 61.880229 
L 371.872889 61.880229 
L 371.001144 62.751975 
L 370.129398 63.62372 
L 369.257653 64.931338 
L 369.693526 65.803084 
L 370.565271 65.803084 
L 371.872889 65.367211 
L 372.744635 64.059593 
L 373.180507 62.751975 
L 373.61638 61.880229 
L 373.61638 61.444357 
L 373.61638 61.880229 
L 373.61638 62.316102 
L 373.61638 63.187848 
L 373.61638 65.367211 
L 373.61638 67.546574 
L 374.052253 68.854193 
L 374.488125 69.290065 
L 374.923998 68.854193 
" style="fill:none;stroke:#64b5cd;stroke-linecap:square;"/>
   </g>
   <g id="line2d_11">
    <path clip-path="url(#p8ee619d180)" d="M 378.41098 57.957375 
L 378.41098 57.521502 
L 378.41098 57.08563 
L 378.41098 57.521502 
L 378.41098 57.957375 
L 378.846852 58.829121 
L 378.846852 60.572611 
L 378.846852 63.187848 
L 379.718598 65.367211 
L 380.15447 66.674829 
L 380.15447 67.110702 
" style="fill:none;stroke:#64b5cd;stroke-linecap:square;"/>
   </g>
   <g id="line2d_12">
    <path clip-path="url(#p8ee619d180)" d="M 391.051288 67.546574 
L 391.051288 67.982447 
L 391.48716 68.41832 
L 391.48716 69.290065 
L 391.923033 70.161811 
L 391.48716 70.161811 
L 391.48716 69.725938 
L 391.48716 68.854193 
L 391.923033 67.546574 
L 392.794779 65.803084 
L 394.102397 64.495466 
L 395.410015 64.059593 
L 397.153505 64.059593 
" style="fill:none;stroke:#64b5cd;stroke-linecap:square;"/>
   </g>
   <g id="line2d_13">
    <path clip-path="url(#p8ee619d180)" d="M 399.332869 67.546574 
L 398.461124 68.41832 
L 398.461124 68.854193 
L 398.896996 68.854193 
L 400.204614 68.41832 
L 401.07636 67.982447 
L 401.948105 67.110702 
L 402.383978 66.238956 
L 401.948105 66.238956 
L 401.512232 66.238956 
L 400.204614 66.674829 
L 398.461124 68.41832 
L 398.025251 70.161811 
L 398.461124 71.469429 
L 400.204614 72.777047 
L 401.948105 73.212919 
L 403.691596 72.777047 
L 404.999214 72.341174 
" style="fill:none;stroke:#64b5cd;stroke-linecap:square;"/>
   </g>
   <g id="line2d_14">
    <path clip-path="url(#p8ee619d180)" d="M 407.61445 68.41832 
L 406.742705 68.41832 
L 406.306832 68.41832 
L 406.742705 68.854193 
L 407.178577 68.41832 
L 408.050323 67.982447 
L 408.922068 67.546574 
L 409.357941 66.674829 
L 408.922068 66.238956 
L 408.922068 65.803084 
L 407.61445 66.238956 
L 406.306832 67.546574 
L 404.999214 69.290065 
L 404.999214 71.033556 
L 405.870959 72.341174 
L 407.178577 72.777047 
L 408.050323 72.777047 
L 408.922068 72.777047 
" style="fill:none;stroke:#64b5cd;stroke-linecap:square;"/>
   </g>
   <g id="line2d_15">
    <path clip-path="url(#p8ee619d180)" d="M 412.40905 70.161811 
L 412.844922 70.161811 
L 412.844922 70.597683 
L 412.844922 71.033556 
L 413.280795 71.469429 
L 413.280795 72.341174 
L 413.716668 73.212919 
L 413.716668 73.648792 
L 413.716668 73.212919 
L 413.716668 72.341174 
L 412.40905 69.725938 
L 411.973177 67.110702 
L 411.537304 64.059593 
L 411.973177 61.880229 
L 412.40905 60.572611 
L 413.280795 59.264993 
L 414.152541 58.393248 
L 415.024286 58.393248 
L 415.896031 58.829121 
L 416.331904 59.264993 
" style="fill:none;stroke:#64b5cd;stroke-linecap:square;"/>
   </g>
   <g id="line2d_16">
    <path clip-path="url(#p8ee619d180)" d="M 411.101432 61.444357 
L 410.229686 62.316102 
L 409.793814 62.751975 
L 409.793814 63.187848 
L 411.101432 63.187848 
L 412.844922 63.187848 
L 414.588413 63.62372 
L 416.331904 63.62372 
" style="fill:none;stroke:#64b5cd;stroke-linecap:square;"/>
   </g>
  </g>
 </g>
 <defs>
  <clipPath id="p8ee619d180">
   <rect height="71.439535" width="552.817337" x="7.2" y="7.2"/>
  </clipPath>
 </defs>
</svg>
