<?xml version="1.0" encoding="utf-8" standalone="no"?>
<!DOCTYPE svg PUBLIC "-//W3C//DTD SVG 1.1//EN"
  "http://www.w3.org/Graphics/SVG/1.1/DTD/svg11.dtd">
<!-- Created with matplotlib (https://matplotlib.org/) -->
<svg height="286.2pt" version="1.1" viewBox="0 0 463.635121 286.2" width="463.635121pt" xmlns="http://www.w3.org/2000/svg" xmlns:xlink="http://www.w3.org/1999/xlink">
 <metadata>
  <rdf:RDF xmlns:cc="http://creativecommons.org/ns#" xmlns:dc="http://purl.org/dc/elements/1.1/" xmlns:rdf="http://www.w3.org/1999/02/22-rdf-syntax-ns#">
   <cc:Work>
    <dc:type rdf:resource="http://purl.org/dc/dcmitype/StillImage"/>
    <dc:date>2024-11-15T16:04:05.292150</dc:date>
    <dc:format>image/svg+xml</dc:format>
    <dc:creator>
     <cc:Agent>
      <dc:title>Matplotlib v3.3.4, https://matplotlib.org/</dc:title>
     </cc:Agent>
    </dc:creator>
   </cc:Work>
  </rdf:RDF>
 </metadata>
 <defs>
  <style type="text/css">*{stroke-linecap:butt;stroke-linejoin:round;}</style>
 </defs>
 <g id="figure_1">
  <g id="patch_1">
   <path d="M 0 286.2 
L 463.635121 286.2 
L 463.635121 0 
L 0 0 
z
" style="fill:#ffffff;"/>
  </g>
  <g id="axes_1">
   <g id="line2d_1">
    <path clip-path="url(#pa18490d28b)" d="M 60.410663 68.906483 
L 60.079442 68.906483 
L 60.079442 69.237704 
L 59.748221 69.568925 
L 59.748221 69.900146 
L 59.748221 70.231367 
L 59.748221 70.562588 
L 59.748221 70.893809 
L 59.748221 71.22503 
L 59.417 71.556252 
L 59.417 72.218694 
L 59.085779 73.212357 
L 59.085779 74.20602 
L 59.085779 75.862125 
L 58.754558 76.855788 
L 58.754558 78.843115 
L 58.423337 80.830441 
L 58.423337 83.48021 
L 58.754558 86.129978 
L 58.754558 88.779747 
L 59.417 92.423178 
L 60.079442 96.06661 
L 60.741884 99.710041 
L 61.404326 102.691031 
L 62.066768 106.665684 
L 62.72921 110.971557 
L 63.391652 115.608652 
L 63.391652 119.583305 
L 64.054095 124.882842 
L 64.385316 130.182379 
L 64.385316 136.144358 
L 64.716537 142.106337 
L 64.716537 147.737095 
L 64.716537 154.361516 
L 64.716537 161.648379 
L 64.385316 168.935243 
L 64.054095 175.228443 
L 63.722874 182.846527 
L 63.060431 191.127053 
L 62.397989 198.745138 
L 62.066768 204.707117 
L 61.735547 210.337875 
L 61.404326 214.97497 
L 61.404326 218.949622 
L 61.073105 221.599391 
L 61.073105 224.58038 
L 60.741884 226.567707 
" style="fill:none;stroke:#8c8c8c;stroke-linecap:square;"/>
   </g>
   <g id="line2d_2">
    <path clip-path="url(#pa18490d28b)" d="M 53.786242 68.244041 
L 54.117463 68.244041 
L 54.779905 67.581599 
L 55.442347 66.919157 
L 56.43601 65.925494 
L 57.760894 64.600609 
L 58.754558 63.275725 
L 59.085779 62.613283 
L 59.748221 62.282062 
L 60.079442 62.613283 
L 60.741884 63.606946 
L 61.073105 64.93183 
L 61.073105 65.925494 
L 61.404326 66.919157 
L 61.735547 67.581599 
" style="fill:none;stroke:#8c8c8c;stroke-linecap:square;"/>
   </g>
   <g id="line2d_3">
    <path clip-path="url(#pa18490d28b)" d="M 61.073105 227.230149 
L 61.404326 227.230149 
L 61.735547 227.230149 
L 62.066768 227.230149 
L 62.397989 227.230149 
L 62.72921 227.230149 
L 64.054095 227.230149 
L 64.716537 227.230149 
L 65.7102 226.898928 
L 67.035084 226.567707 
L 68.028747 226.567707 
L 69.684853 226.236485 
L 70.678516 225.905264 
L 72.334621 225.574043 
L 74.321947 225.574043 
L 76.640495 225.242822 
L 78.2966 225.242822 
L 80.946369 225.242822 
L 83.596137 224.911601 
L 85.914684 224.911601 
L 90.883 225.242822 
L 94.857653 225.242822 
L 100.488411 225.242822 
L 106.45039 225.574043 
L 111.418706 225.574043 
L 118.043127 225.574043 
L 124.998769 225.574043 
L 132.285632 225.242822 
L 138.578833 225.242822 
L 147.853022 225.242822 
L 154.146222 225.242822 
L 161.433086 225.242822 
L 169.382391 225.574043 
L 176.338033 225.574043 
L 185.281002 225.574043 
L 194.22397 225.242822 
L 203.49816 225.242822 
L 212.441128 224.911601 
L 221.715318 224.911601 
L 229.002181 224.911601 
L 238.607592 225.242822 
L 248.875445 225.574043 
L 256.493529 225.905264 
L 268.417487 226.236485 
L 276.698014 226.567707 
L 286.634645 227.230149 
L 294.915172 227.56137 
L 304.520583 227.892591 
L 313.13233 227.56137 
L 319.756751 227.56137 
L 324.725067 227.230149 
L 327.374835 227.230149 
L 330.024604 227.230149 
L 331.018267 227.230149 
L 332.01193 227.230149 
L 332.343151 227.230149 
" style="fill:none;stroke:#8c8c8c;stroke-linecap:square;"/>
   </g>
   <g id="line2d_4">
    <path clip-path="url(#pa18490d28b)" d="M 333.668036 222.593054 
L 333.336815 222.593054 
L 333.668036 222.593054 
L 333.999257 222.593054 
L 334.330478 222.593054 
L 334.99292 222.593054 
L 335.986583 222.593054 
L 336.980246 222.593054 
L 337.642688 223.255496 
L 337.642688 223.917938 
L 337.642688 224.58038 
L 336.980246 225.905264 
L 336.317804 227.230149 
L 335.655362 228.223812 
L 335.324141 229.217475 
L 334.99292 229.879917 
L 334.661699 230.211138 
" style="fill:none;stroke:#8c8c8c;stroke-linecap:square;"/>
   </g>
   <g id="line2d_5">
    <path clip-path="url(#pa18490d28b)" d="M 185.943444 245.778528 
L 185.943444 245.116086 
L 185.612223 245.116086 
L 185.612223 244.784865 
L 185.281002 244.784865 
L 185.612223 245.116086 
L 185.612223 247.434633 
L 185.943444 251.409286 
L 186.937107 257.702486 
L 187.599549 262.339581 
L 188.261991 265.983012 
L 188.593212 266.645455 
L 188.593212 266.314233 
L 188.593212 265.983012 
" style="fill:none;stroke:#8c8c8c;stroke-linecap:square;"/>
   </g>
   <g id="line2d_6">
    <path clip-path="url(#pa18490d28b)" d="M 184.949781 244.784865 
L 184.61856 244.784865 
L 184.287339 244.453644 
L 184.61856 244.453644 
L 185.612223 244.453644 
L 188.261991 244.784865 
L 190.580539 245.778528 
L 191.905423 247.765854 
L 192.236644 249.090738 
L 191.242981 251.409286 
L 189.918097 253.396612 
L 188.261991 254.721496 
L 187.268328 254.721496 
" style="fill:none;stroke:#8c8c8c;stroke-linecap:square;"/>
   </g>
   <g id="line2d_7">
    <path clip-path="url(#pa18490d28b)" d="M 36.893968 132.832147 
L 36.893968 132.500926 
L 36.893968 132.169705 
L 36.893968 131.838484 
L 36.562747 131.176042 
L 35.900305 130.844821 
L 34.57542 130.5136 
L 31.925652 131.176042 
L 28.944662 133.82581 
L 27.619778 138.131684 
L 28.28222 141.443895 
L 31.594431 144.424884 
L 36.231526 144.424884 
L 38.550073 143.762442 
" style="fill:none;stroke:#8c8c8c;stroke-linecap:square;"/>
   </g>
   <g id="line2d_8">
    <path clip-path="url(#pa18490d28b)" d="M 287.628309 187.483622 
L 287.628309 187.152401 
L 287.628309 186.82118 
L 287.628309 186.489959 
L 287.628309 186.158738 
L 287.297087 186.158738 
L 286.965866 186.489959 
L 286.634645 186.82118 
L 286.634645 187.152401 
L 286.634645 187.483622 
L 286.965866 187.814843 
L 286.965866 188.146064 
L 287.628309 188.146064 
L 287.95953 188.146064 
L 287.95953 187.814843 
L 288.290751 187.814843 
L 288.290751 187.483622 
L 287.95953 186.82118 
L 287.628309 186.489959 
L 286.965866 186.158738 
L 286.634645 186.158738 
L 286.303424 186.489959 
L 285.640982 187.152401 
L 285.640982 188.146064 
L 286.303424 188.477285 
L 286.634645 188.808506 
L 287.628309 188.808506 
L 288.290751 188.477285 
L 288.621972 188.146064 
L 288.953193 187.483622 
L 288.953193 187.152401 
L 288.621972 186.82118 
L 288.290751 186.489959 
L 287.628309 186.489959 
L 286.634645 186.82118 
L 286.303424 187.483622 
L 286.303424 187.814843 
L 286.303424 188.477285 
L 286.965866 188.808506 
L 287.628309 188.477285 
L 288.290751 188.146064 
L 288.621972 187.814843 
L 288.621972 187.152401 
L 287.95953 186.82118 
L 287.628309 186.489959 
L 286.965866 186.489959 
L 286.303424 186.82118 
L 285.640982 187.483622 
L 285.640982 187.814843 
L 286.303424 188.477285 
L 286.965866 188.477285 
L 287.628309 188.146064 
L 288.290751 187.814843 
L 288.621972 186.82118 
L 288.290751 186.158738 
L 287.95953 185.827516 
L 287.297087 185.827516 
L 286.634645 186.158738 
L 285.972203 186.82118 
L 285.972203 187.483622 
L 286.303424 187.814843 
L 286.634645 188.146064 
L 287.297087 187.814843 
L 287.95953 187.483622 
L 287.95953 186.82118 
L 287.95953 186.158738 
L 287.628309 185.827516 
L 286.965866 185.496295 
L 286.303424 185.827516 
L 285.640982 186.489959 
L 285.640982 187.152401 
L 285.640982 187.814843 
L 286.303424 188.477285 
L 286.965866 188.477285 
L 287.297087 188.477285 
L 287.628309 188.146064 
L 287.95953 187.483622 
L 287.95953 187.152401 
L 287.628309 186.82118 
L 287.297087 186.489959 
L 286.965866 186.489959 
L 286.303424 186.82118 
L 286.303424 187.152401 
L 285.972203 187.483622 
L 286.303424 187.483622 
L 286.303424 187.152401 
L 286.303424 186.82118 
" style="fill:none;stroke:#8c8c8c;stroke-linecap:square;"/>
   </g>
   <g id="line2d_9">
    <path clip-path="url(#pa18490d28b)" d="M 295.246393 184.171411 
L 294.915172 184.171411 
L 294.25273 184.171411 
L 293.921509 184.171411 
L 293.590288 184.171411 
L 293.590288 183.84019 
L 294.915172 182.846527 
L 297.233719 181.521643 
L 300.877151 180.196758 
L 304.520583 179.203095 
L 306.507909 179.203095 
L 308.164014 179.865537 
L 308.826456 180.859201 
L 309.488898 181.852864 
L 310.482562 182.515306 
L 312.138667 183.177748 
L 314.125993 182.846527 
L 316.444541 181.521643 
L 318.763088 180.196758 
L 320.419193 179.203095 
" style="fill:none;stroke:#8c8c8c;stroke-linecap:square;"/>
   </g>
   <g id="line2d_10">
    <path clip-path="url(#pa18490d28b)" d="M 337.973909 171.25379 
L 338.30513 171.25379 
L 337.973909 171.25379 
L 337.973909 171.585011 
L 337.642688 171.916232 
L 336.649025 172.578674 
L 335.655362 173.572337 
L 335.324141 174.234779 
L 335.324141 174.897222 
L 335.986583 175.228443 
L 336.980246 175.228443 
L 338.30513 175.559664 
L 339.298794 176.222106 
L 340.292457 177.878211 
L 340.292457 179.203095 
L 340.292457 180.859201 
L 339.630015 181.852864 
L 338.967573 182.184085 
L 338.30513 181.852864 
" style="fill:none;stroke:#8c8c8c;stroke-linecap:square;"/>
   </g>
   <g id="line2d_11">
    <path clip-path="url(#pa18490d28b)" d="M 341.948562 171.585011 
L 341.948562 171.916232 
L 341.948562 172.247453 
L 342.279783 172.909895 
L 342.611004 174.566 
L 343.604667 177.215769 
L 344.267109 179.534316 
L 344.929552 180.52798 
L 344.929552 181.190422 
" style="fill:none;stroke:#8c8c8c;stroke-linecap:square;"/>
   </g>
   <g id="line2d_12">
    <path clip-path="url(#pa18490d28b)" d="M 341.28612 177.215769 
L 340.954899 177.215769 
L 341.617341 177.215769 
L 343.273446 176.553327 
L 345.923215 176.222106 
L 347.57932 176.222106 
L 348.241762 176.222106 
" style="fill:none;stroke:#8c8c8c;stroke-linecap:square;"/>
   </g>
   <g id="line2d_13">
    <path clip-path="url(#pa18490d28b)" d="M 350.56031 175.228443 
L 349.897867 175.559664 
L 349.235425 175.890885 
L 348.904204 176.553327 
L 348.904204 177.215769 
L 348.904204 177.878211 
L 349.566646 177.878211 
L 350.229088 177.54699 
L 350.891531 176.884548 
L 351.222752 175.890885 
L 351.222752 175.559664 
L 351.222752 175.228443 
L 351.222752 175.559664 
L 351.222752 176.553327 
L 351.553973 177.878211 
L 352.216415 179.203095 
L 352.547636 179.865537 
L 352.878857 179.865537 
" style="fill:none;stroke:#8c8c8c;stroke-linecap:square;"/>
   </g>
   <g id="line2d_14">
    <path clip-path="url(#pa18490d28b)" d="M 353.541299 175.559664 
L 353.210078 175.228443 
L 353.541299 175.559664 
L 353.541299 176.222106 
L 354.203741 177.215769 
L 354.866183 178.871874 
L 355.197404 179.534316 
L 355.528625 180.196758 
L 355.528625 180.196758 
L 355.197404 179.534316 
L 355.197404 177.878211 
L 355.197404 176.222106 
L 355.859846 174.897222 
L 356.191068 173.903558 
L 356.522289 173.572337 
" style="fill:none;stroke:#8c8c8c;stroke-linecap:square;"/>
   </g>
   <g id="line2d_15">
    <path clip-path="url(#pa18490d28b)" d="M 358.840836 171.916232 
L 359.172057 171.916232 
L 359.172057 172.247453 
L 359.503278 172.578674 
L 360.16572 173.903558 
L 360.496941 175.559664 
L 361.490604 177.54699 
L 361.821825 178.871874 
L 362.153047 179.203095 
" style="fill:none;stroke:#8c8c8c;stroke-linecap:square;"/>
   </g>
   <g id="line2d_16">
    <path clip-path="url(#pa18490d28b)" d="M 360.16572 176.222106 
L 359.834499 176.222106 
L 360.16572 175.890885 
L 360.828162 175.228443 
L 361.821825 174.897222 
L 363.14671 174.234779 
L 363.477931 173.903558 
" style="fill:none;stroke:#8c8c8c;stroke-linecap:square;"/>
   </g>
   <g id="line2d_17">
    <path clip-path="url(#pa18490d28b)" d="M 366.127699 173.241116 
L 366.45892 174.234779 
L 366.790141 175.228443 
L 367.452583 176.884548 
L 367.783805 177.878211 
L 367.783805 178.209432 
L 367.783805 177.878211 
L 367.452583 177.215769 
" style="fill:none;stroke:#8c8c8c;stroke-linecap:square;"/>
   </g>
   <g id="line2d_18">
    <path clip-path="url(#pa18490d28b)" d="M 366.790141 174.897222 
L 366.45892 174.566 
L 366.127699 172.909895 
L 366.127699 171.916232 
L 366.127699 171.585011 
L 366.45892 171.585011 
" style="fill:none;stroke:#8c8c8c;stroke-linecap:square;"/>
   </g>
   <g id="line2d_19">
    <path clip-path="url(#pa18490d28b)" d="M 370.764794 174.234779 
L 370.764794 174.897222 
L 370.433573 176.222106 
L 370.433573 177.215769 
L 370.764794 178.209432 
L 370.764794 178.871874 
L 370.764794 177.878211 
L 371.427236 176.222106 
L 372.089678 174.897222 
L 372.75212 173.572337 
L 373.414563 173.572337 
L 374.077005 174.234779 
L 374.408226 175.890885 
L 374.739447 176.553327 
L 374.739447 177.215769 
" style="fill:none;stroke:#8c8c8c;stroke-linecap:square;"/>
   </g>
   <g id="line2d_20">
    <path clip-path="url(#pa18490d28b)" d="M 379.376542 174.897222 
L 379.707763 174.566 
L 379.707763 174.234779 
L 379.707763 173.903558 
L 379.376542 173.903558 
L 379.04532 173.903558 
L 378.051657 174.566 
L 377.057994 175.559664 
L 377.057994 176.222106 
L 377.720436 176.884548 
L 379.04532 176.884548 
L 380.038984 176.222106 
L 381.032647 175.228443 
L 381.032647 173.903558 
L 381.032647 173.572337 
L 380.701426 173.241116 
L 380.370205 173.903558 
L 380.701426 174.897222 
L 381.695089 177.215769 
L 382.357531 179.203095 
L 383.019973 181.190422 
L 383.019973 182.184085 
L 382.357531 182.846527 
L 381.032647 182.846527 
L 380.370205 182.846527 
" style="fill:none;stroke:#8c8c8c;stroke-linecap:square;"/>
   </g>
   <g id="line2d_21">
    <path clip-path="url(#pa18490d28b)" d="M 405.874226 178.540653 
L 406.205447 178.540653 
L 406.536668 178.540653 
L 407.19911 177.878211 
L 408.192774 177.215769 
L 408.523995 176.222106 
L 408.523995 174.897222 
L 407.530331 173.241116 
L 405.874226 172.578674 
L 404.880563 172.247453 
L 403.555679 172.909895 
L 402.893237 173.903558 
L 402.562016 175.890885 
L 403.224458 178.540653 
L 404.218121 181.190422 
L 405.211784 184.502632 
L 405.874226 186.158738 
L 406.536668 187.152401 
L 406.536668 186.82118 
L 406.536668 186.489959 
" style="fill:none;stroke:#8c8c8c;stroke-linecap:square;"/>
   </g>
   <g id="line2d_22">
    <path clip-path="url(#pa18490d28b)" d="M 412.829868 173.572337 
L 412.829868 173.903558 
L 412.498647 174.897222 
L 413.161089 176.553327 
L 414.485974 177.878211 
L 415.479637 178.209432 
L 415.810858 177.54699 
L 415.810858 176.553327 
L 414.817195 174.897222 
L 413.161089 173.903558 
L 412.498647 173.572337 
L 411.836205 173.572337 
L 411.836205 174.234779 
" style="fill:none;stroke:#8c8c8c;stroke-linecap:square;"/>
   </g>
   <g id="line2d_23">
    <path clip-path="url(#pa18490d28b)" d="M 418.460626 175.228443 
L 418.460626 175.890885 
L 418.791847 176.553327 
L 418.791847 177.878211 
L 419.123068 178.871874 
L 419.123068 179.203095 
L 419.123068 178.871874 
" style="fill:none;stroke:#8c8c8c;stroke-linecap:square;"/>
   </g>
   <g id="line2d_24">
    <path clip-path="url(#pa18490d28b)" d="M 417.466963 172.909895 
L 416.804521 171.585011 
L 416.4733 169.597685 
L 416.142079 168.604021 
" style="fill:none;stroke:#8c8c8c;stroke-linecap:square;"/>
   </g>
   <g id="line2d_25">
    <path clip-path="url(#pa18490d28b)" d="M 422.435279 174.566 
L 422.435279 175.228443 
L 422.435279 176.553327 
L 422.435279 177.878211 
L 422.435279 178.540653 
L 422.435279 177.878211 
L 422.435279 176.222106 
L 422.7665 174.897222 
L 423.428942 173.572337 
L 424.422605 173.241116 
L 424.753826 173.903558 
L 425.416269 175.228443 
L 425.74749 176.222106 
L 425.74749 177.54699 
L 426.078711 177.878211 
" style="fill:none;stroke:#8c8c8c;stroke-linecap:square;"/>
   </g>
   <g id="line2d_26">
    <path clip-path="url(#pa18490d28b)" d="M 428.066037 173.241116 
L 428.397258 172.578674 
L 428.728479 171.916232 
L 428.728479 171.585011 
L 429.0597 171.585011 
L 429.390921 172.247453 
L 429.722142 174.234779 
L 430.053363 176.222106 
L 431.047027 178.209432 
L 431.378248 179.203095 
L 431.378248 179.534316 
" style="fill:none;stroke:#8c8c8c;stroke-linecap:square;"/>
   </g>
   <g id="line2d_27">
    <path clip-path="url(#pa18490d28b)" d="M 431.047027 174.234779 
L 431.047027 174.566 
L 431.378248 174.566 
L 432.703132 174.566 
L 434.028016 174.566 
L 436.015342 173.903558 
" style="fill:none;stroke:#8c8c8c;stroke-linecap:square;"/>
   </g>
   <g id="line2d_28">
    <path clip-path="url(#pa18490d28b)" d="M 283.322435 185.165074 
L 282.991214 185.165074 
L 282.659993 185.165074 
L 282.659993 184.833853 
L 282.328772 184.833853 
L 281.997551 184.833853 
L 281.997551 184.502632 
L 281.66633 184.502632 
L 281.335108 184.502632 
L 281.003887 184.171411 
L 280.672666 184.171411 
L 280.341445 183.84019 
L 280.010224 183.84019 
L 280.010224 183.508969 
L 279.679003 183.177748 
L 279.347782 182.846527 
L 279.016561 182.846527 
L 278.68534 182.515306 
L 278.354119 182.184085 
L 277.691677 181.521643 
L 276.698014 180.859201 
L 276.035572 180.196758 
L 275.041908 179.203095 
L 274.048245 178.540653 
L 273.717024 177.215769 
L 273.054582 176.222106 
L 272.723361 175.559664 
L 272.39214 174.897222 
L 272.39214 174.566 
L 272.060919 174.566 
L 272.060919 174.234779 
L 271.729698 174.234779 
L 271.398477 173.903558 
L 271.067256 173.903558 
L 270.736035 173.903558 
L 270.404814 173.903558 
L 270.404814 173.572337 
L 270.073592 173.572337 
L 269.742371 173.572337 
L 268.417487 172.909895 
L 266.430161 172.578674 
L 263.11795 171.585011 
L 259.143298 170.922569 
L 255.168645 169.597685 
L 251.856434 168.604021 
L 247.881782 166.947916 
L 244.23835 165.291811 
L 241.25736 163.304485 
L 237.94515 161.648379 
L 234.96416 160.654716 
L 230.989508 158.998611 
L 228.67096 158.004948 
L 226.021192 157.011284 
L 224.365087 156.017621 
L 222.046539 155.023958 
L 219.396771 153.699074 
L 218.071886 152.705411 
L 216.08456 151.711748 
L 214.759676 150.718084 
L 213.103571 149.724421 
L 211.116244 148.399537 
L 209.128918 147.405874 
L 206.81037 146.08099 
L 205.154265 145.087326 
L 202.835718 143.431221 
L 200.185949 142.437558 
L 197.867402 141.112674 
L 195.548854 139.787789 
L 193.561528 138.794126 
L 190.91176 137.138021 
L 188.593212 135.813137 
L 185.943444 134.157031 
L 183.956117 133.163368 
L 181.63757 131.838484 
L 179.650244 130.5136 
L 177.331696 129.188716 
L 175.675591 128.195052 
L 173.025823 126.870168 
L 170.376054 125.545284 
L 168.057507 124.2204 
L 165.407738 122.895515 
L 163.089191 121.570631 
L 160.439422 119.914526 
L 157.789654 118.258421 
L 154.477443 116.602315 
L 151.165233 114.614989 
L 148.184243 113.290105 
L 146.196917 111.965221 
L 143.878369 110.971557 
L 140.89738 109.315452 
L 138.247612 107.659347 
L 135.266622 106.334463 
L 132.616854 105.009578 
L 130.629527 104.015915 
L 127.979759 102.691031 
L 125.32999 101.034926 
L 122.680222 99.710041 
L 120.692895 98.385157 
L 119.03679 97.391494 
L 117.380685 96.397831 
L 115.72458 95.404168 
L 114.399695 94.741726 
L 113.406032 94.079283 
L 112.74359 93.416841 
L 112.081148 93.08562 
L 111.749927 92.754399 
L 111.749927 92.423178 
L 111.418706 92.423178 
L 111.418706 92.091957 
L 111.418706 91.760736 
" style="fill:none;stroke:#8c8c8c;stroke-linecap:square;"/>
   </g>
   <g id="line2d_29">
    <path clip-path="url(#pa18490d28b)" d="M 113.074811 89.442189 
L 113.074811 89.77341 
L 112.74359 89.77341 
L 112.412369 90.104631 
L 111.749927 90.435852 
L 110.093822 91.429515 
L 109.100158 92.091957 
L 108.106495 93.08562 
L 107.444053 93.748062 
L 106.781611 94.410505 
L 107.444053 94.741726 
L 108.437716 95.072947 
L 110.093822 95.735389 
L 111.418706 96.397831 
L 112.412369 96.729052 
" style="fill:none;stroke:#8c8c8c;stroke-linecap:square;"/>
   </g>
   <g id="line2d_30">
    <path clip-path="url(#pa18490d28b)" d="M 109.100158 81.161662 
L 109.100158 81.492883 
L 109.100158 81.824104 
L 109.431379 81.824104 
L 109.100158 81.492883 
L 109.100158 81.161662 
L 108.768937 80.167999 
L 108.437716 78.180673 
L 108.106495 76.193346 
L 107.775274 74.20602 
L 107.775274 71.887473 
L 108.106495 70.231367 
L 108.768937 68.906483 
L 109.100158 68.575262 
L 109.762601 68.244041 
L 110.425043 67.91282 
L 111.418706 66.587936 
L 112.412369 63.938167 
L 112.74359 61.288399 
L 112.412369 57.976188 
L 112.412369 55.988862 
L 111.749927 54.332757 
L 111.749927 54.001535 
" style="fill:none;stroke:#8c8c8c;stroke-linecap:square;"/>
   </g>
   <g id="line2d_31">
    <path clip-path="url(#pa18490d28b)" d="M 117.711906 38.765367 
L 117.711906 38.434146 
L 117.711906 38.765367 
L 117.049464 38.765367 
L 116.718243 39.427809 
L 116.055801 41.083914 
L 116.055801 42.408798 
L 116.718243 44.064904 
L 117.711906 45.721009 
L 119.03679 46.383451 
L 120.361674 46.05223 
L 121.355338 45.389788 
L 121.686559 43.733683 
" style="fill:none;stroke:#8c8c8c;stroke-linecap:square;"/>
   </g>
   <g id="line2d_32">
    <path clip-path="url(#pa18490d28b)" d="M 119.699232 36.77804 
L 119.368011 36.446819 
L 119.368011 36.115598 
L 119.368011 36.446819 
L 119.699232 36.77804 
L 120.361674 38.434146 
L 121.024117 40.090251 
L 122.349001 42.408798 
L 123.011443 43.402462 
L 123.673885 43.733683 
" style="fill:none;stroke:#8c8c8c;stroke-linecap:square;"/>
   </g>
   <g id="line2d_33">
    <path clip-path="url(#pa18490d28b)" d="M 124.998769 40.421472 
L 124.667548 40.421472 
L 124.336327 40.421472 
L 124.336327 40.752693 
L 124.998769 41.746356 
L 125.992432 42.740019 
L 126.986096 43.071241 
L 127.648538 42.408798 
L 127.979759 41.746356 
L 127.648538 40.090251 
L 126.654874 38.765367 
L 125.992432 38.434146 
L 125.32999 38.765367 
L 124.667548 39.75903 
L 124.667548 40.421472 
" style="fill:none;stroke:#8c8c8c;stroke-linecap:square;"/>
   </g>
   <g id="line2d_34">
    <path clip-path="url(#pa18490d28b)" d="M 127.979759 38.434146 
L 128.31098 38.102925 
L 128.31098 37.771704 
L 127.979759 38.102925 
L 127.979759 38.765367 
L 127.979759 39.096588 
L 128.31098 39.096588 
L 129.304643 39.427809 
L 130.298306 39.427809 
L 131.291969 40.090251 
L 131.62319 40.752693 
L 131.954411 41.083914 
L 131.954411 41.415135 
" style="fill:none;stroke:#8c8c8c;stroke-linecap:square;"/>
   </g>
   <g id="line2d_35">
    <path clip-path="url(#pa18490d28b)" d="M 132.285632 39.75903 
L 132.285632 39.427809 
L 132.616854 39.096588 
L 132.616854 38.765367 
L 132.948075 38.434146 
L 133.610517 37.771704 
L 133.941738 36.77804 
L 133.941738 36.115598 
L 133.610517 35.453156 
L 132.948075 35.784377 
L 132.616854 36.77804 
L 132.285632 38.102925 
L 132.616854 39.096588 
L 133.610517 40.090251 
L 134.935401 40.421472 
L 135.929064 40.090251 
L 136.591506 39.75903 
" style="fill:none;stroke:#8c8c8c;stroke-linecap:square;"/>
   </g>
   <g id="line2d_36">
    <path clip-path="url(#pa18490d28b)" d="M 138.578833 36.77804 
L 138.578833 36.446819 
L 138.578833 36.115598 
L 138.247612 35.784377 
L 137.91639 35.453156 
L 137.585169 35.453156 
L 137.253948 35.121935 
L 136.591506 35.453156 
L 135.929064 36.446819 
L 136.260285 38.102925 
L 137.253948 39.096588 
L 138.247612 39.096588 
L 138.910054 38.434146 
L 138.910054 36.77804 
L 138.578833 34.790714 
L 137.253948 31.478504 
L 136.922727 29.491177 
L 136.260285 28.497514 
L 136.260285 28.828735 
L 136.260285 29.159956 
L 136.922727 30.153619 
L 137.91639 32.140946 
L 139.572496 34.790714 
L 140.89738 36.446819 
L 141.559822 37.109262 
" style="fill:none;stroke:#8c8c8c;stroke-linecap:square;"/>
   </g>
   <g id="line2d_37">
    <path clip-path="url(#pa18490d28b)" d="M 153.152559 28.166293 
L 152.821338 28.166293 
L 152.821338 27.835072 
L 152.821338 27.503851 
L 152.821338 27.17263 
L 152.490117 27.17263 
L 152.490117 27.503851 
L 151.827675 28.497514 
L 151.827675 28.828735 
L 151.827675 29.159956 
L 152.158896 29.159956 
L 153.152559 29.159956 
L 154.477443 29.159956 
L 155.471107 29.491177 
L 156.46477 30.153619 
L 156.795991 31.147282 
L 156.795991 32.472167 
L 156.133549 32.803388 
L 155.471107 32.472167 
L 154.808664 32.140946 
" style="fill:none;stroke:#8c8c8c;stroke-linecap:square;"/>
   </g>
   <g id="line2d_38">
    <path clip-path="url(#pa18490d28b)" d="M 157.458433 27.17263 
L 157.789654 27.17263 
L 158.120875 27.17263 
L 158.783317 27.835072 
L 159.445759 28.166293 
L 160.439422 28.497514 
L 161.101864 28.497514 
L 161.433086 28.166293 
L 161.764307 27.503851 
L 162.095528 26.510188 
L 162.095528 26.178967 
L 162.095528 26.510188 
L 162.426749 27.17263 
L 162.75797 28.497514 
L 163.751633 30.153619 
L 164.414075 31.478504 
L 164.745296 32.140946 
L 165.076517 31.809725 
" style="fill:none;stroke:#8c8c8c;stroke-linecap:square;"/>
   </g>
   <g id="line2d_39">
    <path clip-path="url(#pa18490d28b)" d="M 165.407738 25.847746 
L 165.076517 25.516524 
L 165.076517 25.185303 
L 164.745296 25.185303 
L 164.745296 25.185303 
L 164.082854 25.516524 
L 163.751633 25.847746 
L 163.420412 26.510188 
L 163.751633 26.510188 
L 164.082854 26.510188 
L 165.076517 26.841409 
L 166.07018 27.17263 
L 167.063844 27.835072 
L 167.726286 28.497514 
L 168.388728 29.822398 
L 168.057507 30.153619 
L 167.726286 30.48484 
L 167.726286 30.153619 
" style="fill:none;stroke:#8c8c8c;stroke-linecap:square;"/>
   </g>
   <g id="line2d_40">
    <path clip-path="url(#pa18490d28b)" d="M 168.388728 24.854082 
L 168.388728 24.19164 
L 168.388728 23.860419 
L 168.719949 23.860419 
L 168.719949 24.19164 
L 169.382391 24.522861 
L 170.376054 26.178967 
L 171.369717 27.17263 
L 172.36338 27.835072 
" style="fill:none;stroke:#8c8c8c;stroke-linecap:square;"/>
   </g>
   <g id="line2d_41">
    <path clip-path="url(#pa18490d28b)" d="M 169.713612 26.178967 
L 169.382391 26.178967 
L 169.713612 26.178967 
L 170.044833 26.178967 
L 170.707275 25.847746 
L 172.032159 25.516524 
L 173.025823 24.854082 
L 173.357044 24.522861 
" style="fill:none;stroke:#8c8c8c;stroke-linecap:square;"/>
   </g>
   <g id="line2d_42">
    <path clip-path="url(#pa18490d28b)" d="M 173.688265 23.860419 
L 174.019486 23.860419 
L 174.019486 23.529198 
L 174.350707 23.529198 
L 175.013149 22.866756 
L 175.013149 22.204314 
L 175.013149 21.873093 
L 175.013149 21.541872 
L 174.681928 21.541872 
L 174.350707 21.873093 
L 173.688265 22.866756 
L 173.688265 24.19164 
L 174.681928 25.516524 
L 176.006812 26.178967 
L 177.331696 26.178967 
L 177.994138 26.178967 
" style="fill:none;stroke:#8c8c8c;stroke-linecap:square;"/>
   </g>
   <g id="line2d_43">
    <path clip-path="url(#pa18490d28b)" d="M 179.650244 23.197977 
L 179.319023 23.197977 
L 179.319023 23.529198 
L 179.650244 23.529198 
L 179.650244 24.19164 
L 180.312686 24.854082 
L 180.643907 25.185303 
L 180.643907 24.854082 
L 180.312686 23.860419 
L 180.312686 22.535535 
L 180.643907 21.873093 
L 180.975128 21.541872 
L 181.63757 21.873093 
L 182.631233 22.866756 
L 183.293675 23.529198 
L 183.293675 24.19164 
L 183.624896 24.19164 
L 183.624896 23.860419 
L 183.624896 22.535535 
L 183.293675 20.87943 
L 183.624896 20.216988 
L 183.956117 19.554545 
L 184.61856 19.554545 
L 185.612223 20.216988 
L 186.274665 20.87943 
L 186.605886 21.541872 
L 187.268328 21.873093 
L 187.268328 22.204314 
" style="fill:none;stroke:#8c8c8c;stroke-linecap:square;"/>
   </g>
   <g id="line2d_44">
    <path clip-path="url(#pa18490d28b)" d="M 179.981465 71.22503 
L 180.312686 71.22503 
L 180.312686 70.893809 
L 180.312686 70.562588 
L 180.312686 70.231367 
L 179.981465 69.900146 
L 179.981465 70.231367 
L 179.650244 70.231367 
L 179.319023 70.562588 
L 179.319023 70.893809 
L 179.319023 71.22503 
L 179.319023 71.887473 
L 179.319023 72.218694 
L 179.650244 72.218694 
L 179.981465 72.218694 
L 180.643907 71.887473 
L 180.975128 71.22503 
L 181.306349 70.893809 
L 181.306349 70.562588 
L 181.306349 69.900146 
L 180.975128 69.568925 
L 180.643907 69.568925 
L 180.312686 69.568925 
L 179.650244 69.900146 
L 179.319023 70.231367 
L 178.656581 70.893809 
L 178.656581 71.556252 
L 178.987802 72.218694 
L 179.319023 72.218694 
L 179.981465 72.218694 
L 180.643907 71.887473 
L 180.975128 71.22503 
L 180.975128 70.893809 
L 180.975128 70.562588 
L 180.975128 70.231367 
L 180.643907 70.231367 
L 180.312686 70.231367 
L 179.650244 70.562588 
L 179.319023 70.893809 
L 179.319023 71.22503 
L 179.319023 71.556252 
L 179.650244 71.556252 
" style="fill:none;stroke:#8c8c8c;stroke-linecap:square;"/>
   </g>
   <g id="line2d_45">
    <path clip-path="url(#pa18490d28b)" d="M 181.63757 72.218694 
L 181.63757 72.549915 
L 181.63757 72.881136 
L 181.968791 72.881136 
L 181.968791 73.212357 
L 181.968791 73.543578 
L 181.968791 73.874799 
L 181.968791 74.20602 
L 181.968791 74.537241 
L 182.300012 74.868462 
L 182.300012 75.199683 
L 182.300012 75.530904 
L 182.631233 76.193346 
L 182.631233 76.855788 
L 182.962454 77.518231 
L 182.962454 78.180673 
L 183.293675 79.174336 
L 183.293675 80.167999 
L 183.624896 81.161662 
L 183.956117 81.824104 
L 183.956117 82.817767 
L 184.287339 83.811431 
L 184.287339 84.473873 
L 184.61856 85.136315 
L 184.949781 86.129978 
L 185.281002 87.454862 
L 185.281002 88.117304 
L 185.943444 89.110968 
L 186.274665 90.435852 
L 186.605886 91.760736 
L 186.605886 93.08562 
L 187.268328 94.079283 
L 187.268328 95.404168 
L 187.599549 96.729052 
L 188.261991 97.722715 
L 188.261991 98.716378 
L 188.593212 100.041262 
L 188.924433 101.366147 
L 189.586875 102.691031 
L 189.586875 104.015915 
L 189.918097 105.009578 
L 190.249318 106.665684 
L 190.580539 107.990568 
L 190.91176 108.984231 
L 191.242981 109.977894 
L 191.574202 111.302778 
L 191.905423 112.627663 
L 192.236644 113.952547 
L 192.567865 114.94621 
L 192.899086 115.939873 
L 192.899086 117.264757 
L 193.230307 118.258421 
L 193.561528 119.252084 
L 193.561528 120.576968 
L 193.892749 121.570631 
L 194.22397 122.564294 
L 194.22397 123.557958 
L 194.555191 124.551621 
L 194.555191 125.214063 
L 194.555191 126.207726 
L 194.886412 127.201389 
L 195.217633 127.863831 
L 195.217633 128.857495 
L 195.548854 129.519937 
L 195.880076 130.5136 
L 196.211297 131.176042 
L 196.211297 131.838484 
L 196.542518 133.163368 
L 196.873739 134.157031 
L 196.873739 135.481916 
L 197.20496 136.144358 
L 197.536181 136.8068 
L 197.536181 137.469242 
L 197.867402 138.131684 
L 197.867402 138.794126 
L 197.867402 139.125347 
L 197.867402 139.787789 
L 198.198623 140.11901 
" style="fill:none;stroke:#8c8c8c;stroke-linecap:square;"/>
   </g>
   <g id="line2d_46">
    <path clip-path="url(#pa18490d28b)" d="M 198.861065 141.775116 
L 198.529844 141.775116 
L 198.529844 141.443895 
L 198.198623 141.443895 
L 197.867402 141.443895 
L 197.536181 141.775116 
L 197.536181 142.106337 
L 197.867402 142.437558 
L 198.198623 142.106337 
L 198.198623 141.775116 
L 197.867402 141.112674 
L 197.867402 140.781453 
L 197.536181 140.781453 
L 197.20496 140.781453 
L 196.873739 141.112674 
L 197.20496 141.443895 
L 197.536181 142.106337 
L 198.198623 142.437558 
L 198.529844 142.106337 
L 198.861065 141.443895 
L 198.529844 140.781453 
L 197.867402 139.787789 
L 197.20496 139.456568 
L 196.873739 139.456568 
L 196.542518 139.787789 
L 196.542518 140.11901 
L 196.873739 140.450232 
L 197.20496 140.450232 
L 197.536181 140.11901 
L 197.536181 139.456568 
L 197.20496 138.794126 
L 196.873739 138.462905 
L 196.542518 138.462905 
L 196.211297 138.794126 
L 196.211297 139.125347 
L 196.211297 139.787789 
" style="fill:none;stroke:#8c8c8c;stroke-linecap:square;"/>
   </g>
   <g id="line2d_47">
    <path clip-path="url(#pa18490d28b)" d="M 200.848391 139.787789 
L 200.848391 139.456568 
L 201.179612 139.456568 
L 201.842055 138.794126 
L 202.835718 137.800463 
L 204.491823 136.144358 
L 205.816707 134.819474 
L 206.479149 134.488252 
L 207.141592 134.488252 
L 207.804034 134.819474 
L 208.797697 135.150695 
L 209.79136 135.481916 
L 211.116244 135.481916 
L 212.109907 134.488252 
L 213.766013 132.832147 
L 214.759676 132.169705 
L 215.422118 131.176042 
" style="fill:none;stroke:#8c8c8c;stroke-linecap:square;"/>
   </g>
   <g id="line2d_48">
    <path clip-path="url(#pa18490d28b)" d="M 226.021192 128.857495 
L 226.021192 129.188716 
L 226.352413 129.519937 
L 226.683634 129.519937 
L 227.014855 129.851158 
L 227.346076 129.519937 
L 227.677297 129.188716 
L 228.008518 128.526273 
L 228.008518 127.863831 
L 227.677297 126.870168 
L 227.014855 126.538947 
L 226.683634 126.538947 
L 226.021192 126.538947 
L 225.689971 127.201389 
L 225.689971 128.195052 
L 226.021192 129.851158 
L 226.352413 131.507263 
L 227.346076 133.494589 
L 227.677297 135.481916 
L 228.339739 136.475579 
" style="fill:none;stroke:#8c8c8c;stroke-linecap:square;"/>
   </g>
   <g id="line2d_49">
    <path clip-path="url(#pa18490d28b)" d="M 231.983171 126.870168 
L 231.983171 126.538947 
L 231.65195 126.538947 
L 231.320729 126.538947 
L 230.989508 126.870168 
L 230.658287 127.53261 
L 230.327066 128.195052 
L 230.327066 128.857495 
L 230.658287 128.857495 
L 231.320729 128.526273 
L 231.983171 127.863831 
L 231.983171 126.870168 
L 232.314392 125.876505 
L 232.314392 125.545284 
L 232.314392 125.876505 
L 232.314392 126.207726 
L 232.645613 126.538947 
L 232.976834 127.863831 
L 233.639276 128.526273 
L 234.301718 128.857495 
" style="fill:none;stroke:#8c8c8c;stroke-linecap:square;"/>
   </g>
   <g id="line2d_50">
    <path clip-path="url(#pa18490d28b)" d="M 234.96416 126.207726 
L 234.96416 125.876505 
L 235.295381 125.876505 
L 235.295381 126.207726 
L 235.626602 126.870168 
L 236.289045 127.53261 
L 236.951487 127.863831 
L 237.282708 128.195052 
L 237.282708 127.863831 
L 237.282708 127.53261 
L 236.951487 127.201389 
L 236.951487 126.538947 
L 237.282708 125.545284 
L 237.282708 124.882842 
" style="fill:none;stroke:#8c8c8c;stroke-linecap:square;"/>
   </g>
   <g id="line2d_51">
    <path clip-path="url(#pa18490d28b)" d="M 238.607592 121.901852 
L 238.607592 122.233073 
L 238.938813 122.564294 
L 239.601255 123.557958 
L 240.263697 124.882842 
L 241.25736 126.207726 
L 241.588582 127.201389 
" style="fill:none;stroke:#8c8c8c;stroke-linecap:square;"/>
   </g>
   <g id="line2d_52">
    <path clip-path="url(#pa18490d28b)" d="M 240.263697 125.876505 
L 239.932476 125.876505 
L 240.263697 125.876505 
L 240.263697 125.545284 
L 241.25736 125.214063 
L 241.588582 124.882842 
L 242.251024 124.2204 
" style="fill:none;stroke:#8c8c8c;stroke-linecap:square;"/>
   </g>
   <g id="line2d_53">
    <path clip-path="url(#pa18490d28b)" d="M 243.244687 123.889179 
L 243.575908 124.2204 
L 244.569571 124.882842 
L 244.900792 125.545284 
L 245.563234 126.207726 
L 245.894455 126.538947 
" style="fill:none;stroke:#8c8c8c;stroke-linecap:square;"/>
   </g>
   <g id="line2d_54">
    <path clip-path="url(#pa18490d28b)" d="M 244.23835 123.557958 
L 243.575908 122.564294 
L 243.244687 121.570631 
L 243.244687 121.23941 
L 243.575908 120.908189 
" style="fill:none;stroke:#8c8c8c;stroke-linecap:square;"/>
   </g>
   <g id="line2d_55">
    <path clip-path="url(#pa18490d28b)" d="M 250.200329 122.895515 
L 250.200329 123.226737 
L 250.53155 123.889179 
L 250.53155 124.882842 
L 250.862771 125.545284 
L 251.193992 125.545284 
L 251.193992 125.876505 
L 251.193992 125.545284 
L 250.53155 124.551621 
L 249.869108 123.557958 
L 248.875445 122.895515 
L 247.881782 122.895515 
L 247.550561 123.226737 
L 247.21934 124.2204 
L 247.550561 125.214063 
L 248.213003 125.545284 
L 249.206666 125.545284 
L 250.200329 124.882842 
L 250.53155 124.2204 
" style="fill:none;stroke:#8c8c8c;stroke-linecap:square;"/>
   </g>
   <g id="line2d_56">
    <path clip-path="url(#pa18490d28b)" d="M 252.518876 119.914526 
L 252.518876 119.583305 
L 252.518876 118.258421 
L 252.850097 117.595979 
L 252.850097 117.264757 
L 252.850097 117.595979 
L 253.181319 118.258421 
L 253.51254 119.914526 
L 254.174982 121.570631 
L 254.837424 122.564294 
L 254.837424 122.895515 
" style="fill:none;stroke:#8c8c8c;stroke-linecap:square;"/>
   </g>
   <g id="line2d_57">
    <path clip-path="url(#pa18490d28b)" d="M 265.436498 120.576968 
L 265.105277 120.576968 
L 264.774056 120.908189 
L 264.442835 121.23941 
L 264.442835 121.901852 
L 264.442835 122.564294 
L 264.774056 123.226737 
L 264.774056 123.557958 
L 264.774056 123.226737 
L 264.442835 123.226737 
L 264.442835 122.564294 
L 264.111613 121.23941 
L 264.442835 120.576968 
L 264.774056 119.914526 
L 265.436498 120.245747 
L 266.09894 120.908189 
L 266.761382 121.570631 
L 267.092603 121.901852 
L 267.423824 121.570631 
L 267.423824 121.23941 
L 267.423824 120.245747 
L 267.755045 119.252084 
L 268.086266 118.920863 
L 268.417487 119.252084 
L 268.748708 119.914526 
L 269.41115 120.576968 
L 269.742371 121.23941 
L 270.073592 121.23941 
L 270.404814 121.23941 
L 270.736035 121.23941 
L 271.398477 120.245747 
L 271.729698 119.583305 
L 272.060919 118.589642 
L 271.729698 117.595979 
L 271.398477 117.264757 
L 271.067256 117.264757 
L 270.404814 117.595979 
L 270.404814 118.920863 
L 270.736035 120.245747 
L 272.060919 121.901852 
L 272.723361 122.233073 
L 273.717024 122.233073 
L 274.048245 121.570631 
L 274.379466 120.908189 
" style="fill:none;stroke:#8c8c8c;stroke-linecap:square;"/>
   </g>
   <g id="line2d_58">
    <path clip-path="url(#pa18490d28b)" d="M 275.70435 113.952547 
L 275.70435 113.621326 
L 275.70435 113.952547 
L 276.035572 113.952547 
L 276.035572 115.277431 
L 276.698014 116.271094 
L 277.360456 117.9272 
L 277.691677 119.583305 
L 278.022898 119.914526 
" style="fill:none;stroke:#8c8c8c;stroke-linecap:square;"/>
   </g>
   <g id="line2d_59">
    <path clip-path="url(#pa18490d28b)" d="M 279.347782 113.952547 
L 279.347782 113.621326 
L 279.347782 113.290105 
L 279.347782 113.621326 
L 279.679003 113.952547 
L 280.341445 115.608652 
L 281.335108 117.9272 
L 281.997551 119.583305 
L 282.328772 120.576968 
" style="fill:none;stroke:#8c8c8c;stroke-linecap:square;"/>
   </g>
   <g id="line2d_60">
    <path clip-path="url(#pa18490d28b)" d="M 279.016561 116.602315 
L 278.68534 116.933536 
L 278.68534 117.264757 
L 279.347782 117.595979 
L 280.672666 117.595979 
L 281.66633 117.264757 
L 281.997551 117.264757 
" style="fill:none;stroke:#8c8c8c;stroke-linecap:square;"/>
   </g>
   <g id="line2d_61">
    <path clip-path="url(#pa18490d28b)" d="M 284.647319 115.608652 
L 284.647319 115.939873 
L 284.647319 116.602315 
L 285.309761 117.595979 
L 285.640982 118.920863 
L 285.640982 119.583305 
" style="fill:none;stroke:#8c8c8c;stroke-linecap:square;"/>
   </g>
   <g id="line2d_62">
    <path clip-path="url(#pa18490d28b)" d="M 283.984877 113.290105 
L 283.984877 112.958884 
L 283.322435 112.296442 
L 283.322435 111.965221 
" style="fill:none;stroke:#8c8c8c;stroke-linecap:square;"/>
   </g>
   <g id="line2d_63">
    <path clip-path="url(#pa18490d28b)" d="M 286.634645 114.614989 
L 286.965866 115.277431 
L 286.965866 116.602315 
L 287.628309 117.595979 
L 287.628309 117.9272 
L 287.95953 118.258421 
L 287.95953 117.9272 
L 288.290751 116.933536 
L 288.621972 116.271094 
L 288.953193 115.277431 
L 289.284414 115.277431 
L 289.615635 115.277431 
L 289.946856 115.939873 
L 290.278077 116.602315 
L 290.609298 117.595979 
L 290.940519 117.595979 
" style="fill:none;stroke:#8c8c8c;stroke-linecap:square;"/>
   </g>
   <g id="line2d_64">
    <path clip-path="url(#pa18490d28b)" d="M 294.915172 114.94621 
L 294.915172 114.283768 
L 294.583951 113.621326 
L 294.25273 113.290105 
L 293.921509 113.290105 
L 293.259067 113.952547 
L 293.259067 114.94621 
L 293.259067 115.608652 
L 293.921509 115.608652 
L 294.25273 115.608652 
L 294.583951 114.94621 
L 294.915172 114.283768 
L 295.246393 113.952547 
L 295.577614 113.952547 
L 295.908835 114.283768 
L 296.902498 115.277431 
L 297.896161 116.602315 
L 299.221046 118.920863 
L 299.552267 121.23941 
L 299.552267 122.895515 
L 298.558603 123.557958 
L 297.233719 123.557958 
L 296.240056 123.557958 
" style="fill:none;stroke:#8c8c8c;stroke-linecap:square;"/>
   </g>
   <g id="line2d_65">
    <path clip-path="url(#pa18490d28b)" d="M 181.63757 71.22503 
L 181.306349 71.22503 
L 180.975128 71.22503 
L 180.643907 71.22503 
L 180.643907 71.556252 
L 180.312686 71.556252 
L 180.312686 71.887473 
L 180.312686 72.218694 
L 180.643907 72.218694 
L 180.975128 71.556252 
L 180.975128 71.22503 
L 180.975128 70.562588 
L 180.643907 70.562588 
L 180.643907 70.231367 
L 179.981465 70.231367 
L 179.319023 70.562588 
L 178.987802 70.893809 
L 178.987802 71.22503 
L 178.987802 71.887473 
L 179.319023 72.549915 
L 179.981465 72.549915 
L 180.643907 72.218694 
L 180.975128 71.556252 
L 180.975128 70.562588 
L 180.975128 70.231367 
L 180.975128 69.900146 
L 180.643907 69.900146 
L 180.312686 69.900146 
L 179.981465 70.562588 
L 179.650244 71.22503 
L 179.650244 71.887473 
L 179.981465 72.218694 
L 180.643907 72.218694 
L 180.975128 71.887473 
L 181.306349 71.22503 
L 181.306349 70.893809 
L 180.975128 70.562588 
L 180.643907 70.231367 
L 180.643907 70.562588 
L 180.312686 70.562588 
L 179.981465 71.22503 
L 179.981465 71.887473 
L 180.312686 72.218694 
L 180.643907 72.218694 
L 180.643907 71.887473 
" style="fill:none;stroke:#8c8c8c;stroke-linecap:square;"/>
   </g>
   <g id="line2d_66">
    <path clip-path="url(#pa18490d28b)" d="M 197.867402 141.443895 
L 197.867402 141.112674 
L 197.867402 140.781453 
L 197.536181 140.781453 
L 197.536181 140.450232 
L 197.20496 140.450232 
L 197.20496 140.11901 
L 196.873739 140.11901 
L 196.542518 140.11901 
L 196.211297 140.450232 
L 195.880076 140.781453 
L 196.211297 141.112674 
L 196.542518 141.112674 
L 196.873739 141.112674 
L 197.536181 141.112674 
L 198.198623 141.112674 
L 198.529844 140.781453 
L 198.861065 140.450232 
L 198.861065 140.11901 
L 198.861065 139.787789 
L 198.861065 139.456568 
L 198.861065 139.125347 
L 198.529844 138.794126 
L 198.198623 138.462905 
L 197.536181 138.131684 
L 197.20496 138.131684 
L 196.542518 138.462905 
L 196.211297 138.794126 
L 195.880076 139.787789 
L 196.211297 140.450232 
L 196.211297 141.112674 
L 196.873739 141.775116 
L 197.867402 141.775116 
L 198.529844 141.775116 
L 198.861065 141.443895 
L 199.192286 141.112674 
L 199.523507 140.781453 
L 199.523507 140.450232 
L 199.523507 139.787789 
L 199.192286 139.787789 
L 199.192286 139.456568 
L 198.861065 139.125347 
L 198.529844 138.794126 
L 198.198623 138.794126 
L 197.867402 138.794126 
L 197.20496 139.125347 
L 196.542518 139.456568 
L 196.211297 140.11901 
L 196.211297 140.781453 
L 196.542518 141.443895 
L 196.873739 141.775116 
L 197.536181 141.775116 
L 198.198623 141.775116 
L 198.861065 141.443895 
L 198.861065 140.781453 
L 198.861065 140.450232 
L 198.861065 139.787789 
L 198.529844 139.456568 
L 198.198623 139.456568 
L 197.536181 139.456568 
L 196.873739 139.787789 
L 196.542518 140.11901 
L 196.211297 140.450232 
L 196.211297 140.781453 
L 196.542518 140.781453 
" style="fill:none;stroke:#8c8c8c;stroke-linecap:square;"/>
   </g>
  </g>
 </g>
 <defs>
  <clipPath id="pa18490d28b">
   <rect height="271.8" width="449.235121" x="7.2" y="7.2"/>
  </clipPath>
 </defs>
</svg>
