<?xml version="1.0" encoding="utf-8" standalone="no"?>
<!DOCTYPE svg PUBLIC "-//W3C//DTD SVG 1.1//EN"
  "http://www.w3.org/Graphics/SVG/1.1/DTD/svg11.dtd">
<!-- Created with matplotlib (https://matplotlib.org/) -->
<svg height="286.2pt" version="1.1" viewBox="0 0 449.783333 286.2" width="449.783333pt" xmlns="http://www.w3.org/2000/svg" xmlns:xlink="http://www.w3.org/1999/xlink">
 <metadata>
  <rdf:RDF xmlns:cc="http://creativecommons.org/ns#" xmlns:dc="http://purl.org/dc/elements/1.1/" xmlns:rdf="http://www.w3.org/1999/02/22-rdf-syntax-ns#">
   <cc:Work>
    <dc:type rdf:resource="http://purl.org/dc/dcmitype/StillImage"/>
    <dc:date>2024-11-15T16:04:13.818306</dc:date>
    <dc:format>image/svg+xml</dc:format>
    <dc:creator>
     <cc:Agent>
      <dc:title>Matplotlib v3.3.4, https://matplotlib.org/</dc:title>
     </cc:Agent>
    </dc:creator>
   </cc:Work>
  </rdf:RDF>
 </metadata>
 <defs>
  <style type="text/css">*{stroke-linecap:butt;stroke-linejoin:round;}</style>
 </defs>
 <g id="figure_1">
  <g id="patch_1">
   <path d="M -0 286.2 
L 449.783333 286.2 
L 449.783333 0 
L -0 0 
z
" style="fill:#ffffff;"/>
  </g>
  <g id="axes_1">
   <g id="line2d_1">
    <path clip-path="url(#p639121329f)" d="M 100.774242 116.789394 
L 100.774242 116.217424 
L 100.774242 115.645455 
L 100.774242 115.073485 
L 100.774242 114.501515 
L 101.346212 113.929545 
L 101.346212 112.785606 
L 101.346212 112.213636 
L 101.918182 111.069697 
L 101.918182 109.925758 
L 102.490152 108.209848 
L 102.490152 105.92197 
L 103.062121 105.35 
L 103.634091 103.062121 
L 103.634091 101.918182 
L 104.206061 100.202273 
L 104.206061 99.058333 
L 104.77803 97.914394 
L 105.35 96.198485 
L 105.35 95.054545 
L 105.92197 93.338636 
L 106.493939 92.194697 
L 106.493939 91.050758 
L 107.065909 88.762879 
L 107.637879 87.618939 
L 108.209848 86.475 
L 108.781818 84.759091 
L 109.353788 83.615152 
L 109.925758 81.899242 
L 109.925758 80.755303 
L 110.497727 79.039394 
L 111.069697 77.895455 
L 111.641667 76.751515 
L 112.213636 75.607576 
L 112.213636 75.035606 
L 112.785606 74.463636 
L 113.357576 73.891667 
L 113.929545 73.891667 
L 113.929545 73.319697 
L 114.501515 73.319697 
L 115.073485 73.319697 
L 115.645455 73.319697 
L 116.217424 73.319697 
L 117.361364 73.891667 
L 118.505303 73.891667 
L 119.077273 73.319697 
L 120.221212 73.319697 
L 121.365152 73.319697 
L 122.509091 72.747727 
L 123.65303 72.175758 
L 124.79697 71.603788 
L 126.512879 69.887879 
L 127.656818 68.743939 
L 129.372727 66.456061 
L 130.516667 65.312121 
L 131.660606 63.596212 
L 133.376515 60.736364 
L 133.948485 59.020455 
L 135.092424 57.876515 
L 135.664394 55.588636 
L 136.236364 53.872727 
L 136.808333 52.728788 
L 137.380303 51.584848 
L 137.380303 50.440909 
L 137.952273 49.29697 
L 137.952273 48.725 
L 137.952273 48.15303 
" style="fill:none;stroke:#8c8c8c;stroke-linecap:square;"/>
   </g>
   <g id="line2d_2">
    <path clip-path="url(#p639121329f)" d="M 146.531818 37.857576 
L 146.531818 38.429545 
L 146.531818 39.001515 
L 147.103788 39.573485 
L 147.103788 40.717424 
L 147.675758 41.289394 
L 148.247727 42.433333 
L 148.247727 43.577273 
L 148.247727 44.149242 
L 148.247727 44.721212 
L 148.819697 44.721212 
" style="fill:none;stroke:#8c8c8c;stroke-linecap:square;"/>
   </g>
   <g id="line2d_3">
    <path clip-path="url(#p639121329f)" d="M 145.387879 28.134091 
L 144.815909 26.990152 
L 144.815909 26.418182 
L 144.243939 26.418182 
" style="fill:none;stroke:#8c8c8c;stroke-linecap:square;"/>
   </g>
   <g id="line2d_4">
    <path clip-path="url(#p639121329f)" d="M 152.251515 34.997727 
L 152.251515 36.713636 
L 152.823485 37.857576 
L 152.823485 38.429545 
L 152.823485 39.001515 
L 152.823485 39.573485 
L 153.395455 40.145455 
L 153.395455 40.717424 
L 153.395455 40.145455 
L 153.395455 39.573485 
L 153.395455 39.001515 
L 153.967424 38.429545 
L 153.967424 37.285606 
L 153.967424 36.713636 
L 154.539394 36.141667 
L 154.539394 34.997727 
L 155.111364 34.997727 
L 155.111364 34.425758 
L 155.683333 34.425758 
L 155.683333 34.997727 
L 156.255303 35.569697 
L 156.255303 36.141667 
L 156.827273 36.713636 
L 156.827273 37.857576 
L 157.399242 39.001515 
L 157.399242 39.573485 
L 157.971212 40.717424 
L 157.971212 41.289394 
L 157.971212 41.861364 
L 158.543182 41.861364 
" style="fill:none;stroke:#8c8c8c;stroke-linecap:square;"/>
   </g>
   <g id="line2d_5">
    <path clip-path="url(#p639121329f)" d="M 160.259091 33.853788 
L 160.259091 33.281818 
L 160.259091 32.137879 
L 160.259091 31.565909 
L 160.259091 32.137879 
L 160.831061 32.137879 
L 160.831061 33.281818 
L 160.831061 34.425758 
L 161.40303 35.569697 
L 161.975 36.713636 
L 161.975 37.857576 
L 162.54697 39.573485 
L 162.54697 40.145455 
L 163.118939 40.717424 
L 163.118939 41.289394 
" style="fill:none;stroke:#8c8c8c;stroke-linecap:square;"/>
   </g>
   <g id="line2d_6">
    <path clip-path="url(#p639121329f)" d="M 160.831061 37.285606 
L 160.259091 37.285606 
L 160.831061 37.285606 
L 161.40303 37.285606 
L 161.975 37.285606 
L 162.54697 37.285606 
L 163.118939 37.285606 
L 163.690909 37.285606 
L 164.262879 37.285606 
" style="fill:none;stroke:#8c8c8c;stroke-linecap:square;"/>
   </g>
   <g id="line2d_7">
    <path clip-path="url(#p639121329f)" d="M 166.550758 36.141667 
L 167.122727 36.141667 
L 167.694697 36.141667 
L 168.266667 35.569697 
L 168.838636 35.569697 
L 169.410606 34.997727 
L 169.982576 34.997727 
L 169.982576 34.425758 
L 170.554545 33.853788 
L 171.126515 33.281818 
L 171.126515 32.709848 
L 171.126515 32.137879 
L 170.554545 32.137879 
L 169.982576 32.137879 
L 169.982576 32.709848 
L 169.410606 33.281818 
L 169.410606 34.425758 
L 168.838636 34.997727 
L 168.838636 35.569697 
L 169.410606 36.141667 
L 169.410606 36.713636 
L 169.982576 37.285606 
L 170.554545 37.857576 
L 171.126515 37.857576 
L 171.698485 37.857576 
L 172.270455 37.857576 
L 172.842424 37.285606 
L 173.414394 37.285606 
L 173.986364 36.713636 
L 174.558333 36.713636 
L 174.558333 36.141667 
L 175.130303 36.141667 
L 175.702273 36.141667 
L 176.274242 36.141667 
L 176.846212 36.713636 
L 177.418182 36.713636 
L 177.990152 37.285606 
L 178.562121 37.857576 
L 179.134091 37.857576 
L 179.706061 37.857576 
L 179.706061 37.285606 
L 179.706061 36.713636 
L 179.706061 36.141667 
L 179.706061 35.569697 
L 179.706061 34.997727 
L 179.706061 34.425758 
L 180.27803 33.853788 
L 180.27803 33.281818 
L 180.27803 32.709848 
L 180.85 32.137879 
L 181.42197 31.565909 
L 181.993939 31.565909 
" style="fill:none;stroke:#8c8c8c;stroke-linecap:square;"/>
   </g>
   <g id="line2d_8">
    <path clip-path="url(#p639121329f)" d="M 185.425758 30.42197 
L 185.425758 30.993939 
L 184.853788 30.993939 
L 184.281818 31.565909 
L 183.709848 32.137879 
L 183.709848 32.709848 
L 183.137879 33.281818 
L 183.137879 34.425758 
L 183.137879 34.997727 
L 183.137879 35.569697 
L 183.137879 36.141667 
L 183.709848 36.141667 
L 183.709848 36.713636 
L 184.281818 36.713636 
L 184.853788 36.141667 
L 184.853788 35.569697 
L 185.425758 35.569697 
L 185.425758 34.425758 
L 185.425758 33.853788 
L 185.425758 33.281818 
L 185.425758 32.709848 
L 185.425758 32.137879 
L 185.425758 31.565909 
L 185.425758 32.137879 
L 185.997727 32.137879 
L 186.569697 32.709848 
L 186.569697 33.281818 
L 187.141667 33.853788 
L 188.285606 34.997727 
L 188.857576 36.141667 
L 189.429545 36.713636 
L 190.001515 38.429545 
L 190.573485 39.001515 
L 190.573485 40.145455 
L 190.573485 41.289394 
L 190.573485 41.861364 
L 190.001515 43.005303 
L 189.429545 43.577273 
L 188.857576 44.149242 
L 187.713636 44.721212 
L 187.141667 45.293182 
L 185.997727 45.293182 
L 185.425758 45.293182 
L 184.853788 45.293182 
L 184.281818 44.721212 
" style="fill:none;stroke:#8c8c8c;stroke-linecap:square;"/>
   </g>
   <g id="line2d_9">
    <path clip-path="url(#p639121329f)" d="M 188.285606 24.130303 
L 188.285606 23.558333 
L 188.857576 23.558333 
L 189.429545 24.702273 
L 190.001515 25.846212 
L 190.573485 26.990152 
L 191.145455 29.27803 
L 191.717424 30.993939 
L 192.861364 32.709848 
L 193.433333 33.853788 
L 193.433333 34.425758 
L 194.005303 34.997727 
" style="fill:none;stroke:#8c8c8c;stroke-linecap:square;"/>
   </g>
   <g id="line2d_10">
    <path clip-path="url(#p639121329f)" d="M 198.581061 32.137879 
L 198.581061 31.565909 
L 198.581061 30.993939 
L 198.581061 30.42197 
L 198.581061 29.85 
L 198.009091 29.27803 
L 197.437121 29.27803 
L 196.865152 29.27803 
L 196.865152 29.85 
L 196.293182 30.42197 
L 195.721212 30.993939 
L 195.149242 31.565909 
L 195.149242 32.137879 
L 195.149242 32.709848 
L 195.721212 33.281818 
L 195.721212 33.853788 
L 196.293182 33.853788 
L 196.865152 33.853788 
L 197.437121 33.853788 
L 197.437121 33.281818 
L 198.009091 33.281818 
L 198.009091 32.709848 
L 198.581061 32.137879 
L 198.581061 31.565909 
L 198.581061 30.993939 
L 198.581061 30.42197 
L 198.581061 29.85 
L 199.15303 29.85 
L 199.15303 30.42197 
L 199.725 30.42197 
L 199.725 30.993939 
L 200.29697 31.565909 
L 200.868939 32.137879 
L 201.440909 32.709848 
L 201.440909 33.281818 
L 202.012879 33.281818 
L 202.584848 33.281818 
" style="fill:none;stroke:#8c8c8c;stroke-linecap:square;"/>
   </g>
   <g id="line2d_11">
    <path clip-path="url(#p639121329f)" d="M 207.732576 29.27803 
L 207.732576 28.134091 
L 207.732576 27.562121 
L 207.732576 26.990152 
L 207.732576 26.418182 
L 207.160606 26.418182 
L 206.588636 26.990152 
L 206.016667 26.990152 
L 206.016667 27.562121 
L 205.444697 27.562121 
L 204.872727 28.706061 
L 204.872727 29.85 
L 204.872727 30.42197 
L 204.872727 31.565909 
L 204.872727 32.137879 
L 206.016667 32.709848 
L 206.016667 33.281818 
L 207.160606 33.853788 
L 207.732576 33.853788 
L 208.304545 33.853788 
L 208.876515 33.281818 
L 209.448485 33.281818 
" style="fill:none;stroke:#8c8c8c;stroke-linecap:square;"/>
   </g>
   <g id="line2d_12">
    <path clip-path="url(#p639121329f)" d="M 212.880303 29.27803 
L 212.880303 28.706061 
L 213.452273 28.706061 
L 213.452273 29.27803 
L 214.024242 29.85 
L 214.024242 30.42197 
L 214.024242 30.993939 
L 214.596212 30.993939 
L 214.596212 31.565909 
L 214.596212 30.993939 
" style="fill:none;stroke:#8c8c8c;stroke-linecap:square;"/>
   </g>
   <g id="line2d_13">
    <path clip-path="url(#p639121329f)" d="M 214.024242 25.846212 
L 213.452273 22.986364 
L 213.452273 22.414394 
L 213.452273 21.270455 
L 213.452273 20.698485 
" style="fill:none;stroke:#8c8c8c;stroke-linecap:square;"/>
   </g>
   <g id="line2d_14">
    <path clip-path="url(#p639121329f)" d="M 216.312121 20.126515 
L 216.312121 20.698485 
L 216.884091 20.698485 
L 216.884091 21.270455 
L 217.456061 21.842424 
L 218.02803 22.414394 
L 218.6 22.986364 
L 219.17197 24.130303 
L 219.743939 25.274242 
L 220.315909 25.846212 
L 220.887879 26.990152 
L 221.459848 28.134091 
L 221.459848 28.706061 
L 222.031818 28.706061 
L 222.031818 29.27803 
L 222.603788 29.27803 
L 222.603788 28.706061 
L 222.031818 28.134091 
L 222.031818 27.562121 
L 221.459848 26.990152 
L 220.887879 26.418182 
L 220.315909 25.846212 
L 219.743939 25.846212 
L 219.17197 25.846212 
L 218.6 25.846212 
L 218.02803 26.418182 
L 217.456061 26.990152 
L 217.456061 27.562121 
L 217.456061 28.134091 
L 218.02803 28.706061 
L 218.6 29.27803 
L 219.17197 29.27803 
L 219.17197 28.706061 
L 219.743939 28.706061 
L 220.315909 28.134091 
L 220.887879 27.562121 
L 220.887879 26.990152 
L 220.887879 25.846212 
L 221.459848 24.702273 
L 221.459848 24.130303 
L 221.459848 22.986364 
L 221.459848 21.842424 
L 221.459848 21.270455 
L 220.887879 20.698485 
L 220.887879 20.126515 
L 220.887879 19.554545 
L 221.459848 19.554545 
L 221.459848 20.126515 
L 222.031818 20.698485 
L 222.031818 21.270455 
L 222.603788 22.414394 
L 223.175758 22.986364 
L 224.319697 24.702273 
L 224.891667 25.846212 
L 224.891667 26.418182 
L 226.035606 27.562121 
L 226.035606 28.134091 
L 226.607576 28.134091 
" style="fill:none;stroke:#8c8c8c;stroke-linecap:square;"/>
   </g>
   <g id="line2d_15">
    <path clip-path="url(#p639121329f)" d="M 231.755303 23.558333 
L 232.327273 22.986364 
L 232.327273 22.414394 
L 232.327273 21.842424 
L 231.755303 21.842424 
L 231.755303 21.270455 
L 231.183333 21.270455 
L 230.611364 21.270455 
L 230.611364 21.842424 
L 231.183333 21.842424 
L 231.183333 22.414394 
L 231.755303 22.986364 
L 232.327273 22.986364 
L 232.899242 23.558333 
L 233.471212 24.130303 
L 234.043182 24.702273 
L 234.615152 25.846212 
L 234.615152 26.990152 
L 234.615152 27.562121 
L 234.615152 28.134091 
L 234.615152 28.706061 
L 234.043182 29.27803 
" style="fill:none;stroke:#8c8c8c;stroke-linecap:square;"/>
   </g>
   <g id="line2d_16">
    <path clip-path="url(#p639121329f)" d="M 97.914394 248.342424 
L 97.914394 247.770455 
L 97.342424 247.198485 
L 97.342424 247.770455 
L 97.342424 248.342424 
L 97.342424 248.914394 
L 97.342424 250.058333 
L 97.914394 251.774242 
L 97.914394 252.346212 
L 98.486364 254.634091 
L 98.486364 256.35 
L 99.058333 258.637879 
L 99.630303 260.925758 
L 99.630303 262.069697 
L 100.202273 264.357576 
L 100.202273 264.929545 
L 100.202273 266.073485 
L 100.202273 266.645455 
L 99.630303 266.073485 
" style="fill:none;stroke:#8c8c8c;stroke-linecap:square;"/>
   </g>
   <g id="line2d_17">
    <path clip-path="url(#p639121329f)" d="M 91.622727 248.914394 
L 91.050758 248.914394 
L 91.050758 248.342424 
L 91.050758 247.770455 
L 91.622727 247.770455 
L 91.622727 247.198485 
L 92.194697 247.198485 
L 93.338636 246.626515 
L 95.054545 245.482576 
L 96.198485 244.338636 
L 97.914394 243.194697 
L 99.058333 242.622727 
L 99.630303 242.050758 
L 100.774242 241.478788 
L 101.346212 240.906818 
L 101.918182 240.906818 
L 101.918182 240.334848 
L 102.490152 240.906818 
L 103.062121 241.478788 
L 103.634091 242.050758 
L 103.634091 242.622727 
L 104.206061 243.194697 
L 104.206061 243.766667 
L 104.206061 244.338636 
L 104.77803 245.482576 
L 104.77803 246.054545 
L 104.77803 246.626515 
" style="fill:none;stroke:#8c8c8c;stroke-linecap:square;"/>
   </g>
   <g id="line2d_18">
    <path clip-path="url(#p639121329f)" d="M 188.285606 231.183333 
L 187.713636 230.611364 
L 187.713636 231.183333 
L 187.713636 231.755303 
L 187.713636 232.327273 
L 188.285606 232.899242 
L 188.285606 234.043182 
L 188.285606 236.331061 
L 188.285606 238.04697 
L 188.857576 240.334848 
L 188.857576 242.622727 
L 189.429545 246.626515 
L 189.429545 248.914394 
L 189.429545 251.202273 
L 189.429545 254.062121 
L 190.001515 255.206061 
L 190.001515 256.92197 
L 190.001515 258.637879 
L 190.573485 258.637879 
L 190.573485 259.781818 
L 190.573485 260.353788 
L 190.573485 260.925758 
L 190.573485 260.353788 
L 190.001515 260.353788 
L 190.001515 259.209848 
" style="fill:none;stroke:#8c8c8c;stroke-linecap:square;"/>
   </g>
   <g id="line2d_19">
    <path clip-path="url(#p639121329f)" d="M 183.709848 230.611364 
L 183.709848 230.039394 
L 184.281818 230.039394 
L 184.281818 229.467424 
L 184.853788 229.467424 
L 185.425758 228.895455 
L 185.997727 228.323485 
L 186.569697 227.751515 
L 187.141667 227.179545 
L 187.141667 226.607576 
L 187.713636 226.035606 
L 188.285606 226.035606 
L 188.285606 225.463636 
L 188.857576 225.463636 
L 189.429545 225.463636 
L 189.429545 226.035606 
L 190.001515 226.035606 
L 190.001515 226.607576 
L 190.573485 227.179545 
L 191.145455 227.751515 
L 191.717424 228.895455 
L 191.717424 229.467424 
L 192.289394 229.467424 
L 192.289394 230.039394 
" style="fill:none;stroke:#8c8c8c;stroke-linecap:square;"/>
   </g>
   <g id="line2d_20">
    <path clip-path="url(#p639121329f)" d="M 253.490152 232.899242 
L 253.490152 232.327273 
L 253.490152 231.755303 
L 253.490152 232.327273 
L 253.490152 232.899242 
L 253.490152 233.471212 
L 253.490152 234.043182 
L 253.490152 234.615152 
L 253.490152 235.759091 
L 253.490152 236.90303 
L 253.490152 238.04697 
L 253.490152 239.190909 
L 252.918182 240.334848 
L 252.918182 240.906818 
L 252.918182 242.050758 
L 252.918182 242.622727 
" style="fill:none;stroke:#8c8c8c;stroke-linecap:square;"/>
   </g>
   <g id="line2d_21">
    <path clip-path="url(#p639121329f)" d="M 250.058333 231.183333 
L 250.058333 230.611364 
L 250.630303 230.611364 
L 250.630303 230.039394 
L 251.202273 229.467424 
L 251.774242 228.895455 
L 251.774242 228.323485 
L 252.346212 228.323485 
L 252.346212 227.751515 
L 252.918182 227.751515 
L 253.490152 227.179545 
L 254.062121 227.179545 
L 254.634091 227.179545 
L 255.206061 227.179545 
L 255.206061 227.751515 
L 255.77803 227.751515 
L 256.35 228.323485 
L 256.92197 228.895455 
L 257.493939 229.467424 
L 257.493939 230.039394 
L 258.065909 230.039394 
" style="fill:none;stroke:#8c8c8c;stroke-linecap:square;"/>
   </g>
   <g id="line2d_22">
    <path clip-path="url(#p639121329f)" d="M 317.550758 232.899242 
L 317.550758 232.327273 
L 317.550758 231.755303 
L 317.550758 232.327273 
L 317.550758 232.899242 
L 317.550758 234.043182 
L 317.550758 234.615152 
L 317.550758 236.331061 
L 317.550758 237.475 
L 317.550758 239.190909 
L 317.550758 240.906818 
L 318.122727 242.622727 
L 318.122727 244.338636 
L 318.122727 246.054545 
L 318.122727 247.770455 
L 318.122727 248.914394 
L 318.122727 249.486364 
L 318.122727 250.058333 
L 317.550758 249.486364 
L 317.550758 248.914394 
" style="fill:none;stroke:#8c8c8c;stroke-linecap:square;"/>
   </g>
   <g id="line2d_23">
    <path clip-path="url(#p639121329f)" d="M 314.118939 231.755303 
L 314.118939 231.183333 
L 314.690909 230.611364 
L 314.690909 230.039394 
L 315.262879 230.039394 
L 315.834848 229.467424 
L 316.406818 228.895455 
L 316.406818 228.323485 
L 317.550758 227.751515 
L 317.550758 227.179545 
L 318.122727 227.179545 
L 318.694697 227.179545 
L 319.266667 227.179545 
L 319.838636 227.751515 
L 320.410606 228.323485 
L 320.410606 228.895455 
L 320.410606 229.467424 
L 320.982576 230.039394 
L 320.982576 231.183333 
L 320.982576 231.755303 
L 321.554545 232.327273 
L 321.554545 232.899242 
" style="fill:none;stroke:#8c8c8c;stroke-linecap:square;"/>
   </g>
   <g id="line2d_24">
    <path clip-path="url(#p639121329f)" d="M 43.005303 168.838636 
L 42.433333 168.838636 
L 41.861364 168.838636 
L 41.289394 168.838636 
L 40.717424 168.838636 
L 40.145455 168.838636 
L 39.573485 168.838636 
L 39.001515 168.838636 
L 38.429545 168.838636 
L 37.857576 169.410606 
L 37.285606 169.410606 
L 36.713636 169.410606 
L 36.141667 169.410606 
L 35.569697 169.982576 
L 34.997727 169.982576 
L 33.853788 170.554545 
L 32.709848 171.126515 
L 32.137879 171.126515 
L 31.565909 171.698485 
L 30.993939 172.270455 
L 29.85 172.842424 
L 29.27803 172.842424 
L 29.27803 173.414394 
L 28.706061 173.414394 
L 28.706061 173.986364 
L 28.134091 173.986364 
L 27.562121 174.558333 
L 27.562121 175.130303 
L 26.990152 175.702273 
L 26.990152 176.274242 
L 26.990152 176.846212 
L 26.990152 177.418182 
L 26.990152 177.990152 
L 27.562121 177.990152 
L 27.562121 178.562121 
L 28.134091 178.562121 
L 28.706061 178.562121 
L 29.85 179.134091 
L 30.42197 179.134091 
L 31.565909 179.134091 
L 32.709848 179.134091 
L 33.853788 179.134091 
L 34.997727 179.134091 
L 35.569697 179.134091 
L 36.713636 179.134091 
L 37.857576 179.134091 
L 39.001515 178.562121 
L 40.145455 178.562121 
L 41.289394 178.562121 
L 41.861364 178.562121 
L 43.005303 178.562121 
L 44.149242 177.990152 
L 44.721212 177.990152 
L 45.865152 177.990152 
L 47.009091 177.990152 
L 47.581061 177.990152 
L 48.15303 177.418182 
L 48.725 177.418182 
L 49.868939 177.418182 
L 50.440909 176.846212 
L 51.012879 176.846212 
L 51.584848 176.274242 
L 52.156818 176.274242 
L 52.728788 175.702273 
L 53.300758 175.702273 
L 53.872727 175.702273 
L 54.444697 175.130303 
L 55.016667 174.558333 
L 55.588636 174.558333 
L 55.588636 173.986364 
L 56.160606 173.414394 
L 56.160606 172.842424 
L 56.160606 172.270455 
L 56.732576 172.270455 
L 56.160606 171.698485 
L 56.160606 171.126515 
L 56.160606 170.554545 
L 55.588636 169.982576 
L 55.588636 169.410606 
L 55.016667 168.838636 
L 55.016667 168.266667 
L 54.444697 167.694697 
L 53.872727 167.122727 
L 53.300758 166.550758 
L 52.728788 166.550758 
L 51.584848 165.978788 
L 51.012879 165.978788 
L 49.29697 165.978788 
L 47.009091 165.978788 
L 45.293182 165.978788 
L 42.433333 165.978788 
L 39.001515 167.122727 
L 38.429545 167.122727 
L 35.569697 167.694697 
L 33.853788 168.266667 
L 31.565909 168.838636 
L 30.42197 169.410606 
L 29.85 169.410606 
L 28.706061 169.410606 
" style="fill:none;stroke:#8c8c8c;stroke-linecap:square;"/>
   </g>
   <g id="line2d_25">
    <path clip-path="url(#p639121329f)" d="M 352.440909 172.842424 
L 352.440909 172.270455 
" style="fill:none;stroke:#8c8c8c;stroke-linecap:square;"/>
   </g>
   <g id="line2d_26">
    <path clip-path="url(#p639121329f)" d="M 356.444697 170.554545 
L 357.016667 170.554545 
L 357.016667 169.982576 
L 357.588636 169.982576 
L 357.588636 169.410606 
L 358.160606 169.410606 
L 358.160606 168.838636 
L 357.588636 168.838636 
L 356.444697 169.410606 
L 355.872727 169.410606 
L 354.728788 169.410606 
L 353.584848 169.982576 
L 352.440909 170.554545 
L 350.725 170.554545 
L 349.009091 171.126515 
L 347.293182 171.698485 
L 346.149242 172.270455 
L 343.861364 172.842424 
L 342.717424 173.414394 
L 341.001515 173.986364 
L 339.857576 174.558333 
L 338.713636 175.130303 
L 338.141667 175.702273 
L 336.997727 175.702273 
L 336.425758 176.846212 
L 335.853788 176.846212 
L 335.281818 177.990152 
L 334.709848 178.562121 
L 334.137879 179.134091 
L 334.137879 179.706061 
L 334.137879 180.27803 
L 333.565909 180.85 
L 333.565909 181.42197 
L 333.565909 181.993939 
L 333.565909 182.565909 
L 334.137879 183.709848 
L 334.137879 184.281818 
L 334.709848 185.425758 
L 335.853788 185.425758 
L 336.997727 185.997727 
L 338.713636 186.569697 
L 339.857576 186.569697 
L 341.573485 186.569697 
L 344.433333 186.569697 
L 347.865152 185.425758 
L 349.581061 184.853788 
L 351.868939 184.281818 
L 353.584848 183.709848 
L 355.872727 182.565909 
L 358.160606 181.42197 
L 358.732576 180.85 
L 360.448485 179.706061 
L 361.020455 179.134091 
L 362.164394 177.990152 
L 363.308333 176.846212 
L 363.308333 176.274242 
L 363.880303 175.702273 
L 364.452273 175.130303 
L 364.452273 173.986364 
L 365.024242 173.414394 
L 365.024242 172.842424 
L 365.024242 172.270455 
L 364.452273 171.698485 
L 363.880303 171.126515 
L 363.308333 170.554545 
L 362.164394 170.554545 
L 360.448485 170.554545 
L 358.732576 169.982576 
L 355.872727 169.982576 
L 354.156818 170.554545 
L 351.868939 170.554545 
" style="fill:none;stroke:#8c8c8c;stroke-linecap:square;"/>
   </g>
   <g id="line2d_27">
    <path clip-path="url(#p639121329f)" d="M 373.603788 169.982576 
L 373.031818 169.982576 
L 373.031818 169.410606 
L 372.459848 169.410606 
" style="fill:none;stroke:#8c8c8c;stroke-linecap:square;"/>
   </g>
   <g id="line2d_28">
    <path clip-path="url(#p639121329f)" d="M 374.175758 171.698485 
L 374.175758 172.270455 
L 374.747727 172.270455 
L 375.319697 172.842424 
L 375.891667 172.842424 
L 376.463636 173.414394 
L 377.607576 173.414394 
L 378.179545 173.986364 
L 379.323485 173.986364 
L 379.895455 173.986364 
L 381.611364 174.558333 
L 383.327273 174.558333 
L 384.471212 174.558333 
L 385.615152 174.558333 
L 387.331061 173.986364 
L 389.618939 173.414394 
L 391.906818 172.842424 
L 393.622727 171.698485 
L 395.338636 171.126515 
L 397.054545 170.554545 
L 399.342424 169.410606 
L 400.486364 168.266667 
L 402.202273 166.550758 
L 403.346212 165.406818 
L 405.062121 163.690909 
L 406.206061 162.54697 
L 407.35 160.831061 
L 407.92197 158.543182 
L 409.637879 155.111364 
L 410.781818 151.107576 
L 411.925758 148.247727 
L 412.497727 145.959848 
L 413.069697 143.67197 
L 413.069697 140.812121 
L 413.641667 138.524242 
L 414.213636 135.664394 
L 414.213636 133.376515 
L 414.785606 131.088636 
L 415.357576 127.084848 
L 416.501515 123.081061 
L 417.073485 120.793182 
L 417.645455 118.505303 
L 418.217424 115.645455 
L 418.217424 113.929545 
L 418.789394 111.641667 
L 418.789394 111.069697 
L 418.217424 109.353788 
L 418.217424 107.637879 
L 418.217424 107.065909 
L 418.217424 105.92197 
L 418.217424 105.35 
L 417.645455 104.206061 
L 417.645455 103.634091 
L 417.645455 103.062121 
L 417.645455 102.490152 
L 417.645455 101.918182 
" style="fill:none;stroke:#8c8c8c;stroke-linecap:square;"/>
   </g>
   <g id="line2d_29">
    <path clip-path="url(#p639121329f)" d="M 406.206061 110.497727 
L 406.77803 110.497727 
L 407.35 109.925758 
L 408.493939 109.353788 
L 409.637879 108.209848 
L 410.209848 107.637879 
L 411.925758 105.35 
L 413.069697 104.206061 
L 414.213636 103.062121 
L 415.929545 101.346212 
L 417.073485 100.202273 
L 418.217424 99.058333 
L 418.789394 99.058333 
L 419.361364 98.486364 
L 419.933333 98.486364 
L 420.505303 97.914394 
L 421.077273 98.486364 
L 421.649242 99.058333 
L 421.649242 99.630303 
L 422.221212 100.202273 
L 422.221212 100.774242 
L 422.221212 101.346212 
L 422.221212 101.918182 
L 422.221212 102.490152 
L 422.793182 103.062121 
L 422.793182 103.634091 
L 422.793182 104.206061 
" style="fill:none;stroke:#8c8c8c;stroke-linecap:square;"/>
   </g>
  </g>
 </g>
 <defs>
  <clipPath id="p639121329f">
   <rect height="271.8" width="435.383333" x="7.2" y="7.2"/>
  </clipPath>
 </defs>
</svg>
