<?xml version="1.0" encoding="utf-8" standalone="no"?>
<!DOCTYPE svg PUBLIC "-//W3C//DTD SVG 1.1//EN"
  "http://www.w3.org/Graphics/SVG/1.1/DTD/svg11.dtd">
<!-- Created with matplotlib (https://matplotlib.org/) -->
<svg height="178.189987pt" version="1.1" viewBox="0 0 623.127273 178.189987" width="623.127273pt" xmlns="http://www.w3.org/2000/svg" xmlns:xlink="http://www.w3.org/1999/xlink">
 <metadata>
  <rdf:RDF xmlns:cc="http://creativecommons.org/ns#" xmlns:dc="http://purl.org/dc/elements/1.1/" xmlns:rdf="http://www.w3.org/1999/02/22-rdf-syntax-ns#">
   <cc:Work>
    <dc:type rdf:resource="http://purl.org/dc/dcmitype/StillImage"/>
    <dc:date>2024-11-15T16:04:09.020691</dc:date>
    <dc:format>image/svg+xml</dc:format>
    <dc:creator>
     <cc:Agent>
      <dc:title>Matplotlib v3.3.4, https://matplotlib.org/</dc:title>
     </cc:Agent>
    </dc:creator>
   </cc:Work>
  </rdf:RDF>
 </metadata>
 <defs>
  <style type="text/css">*{stroke-linecap:butt;stroke-linejoin:round;}</style>
 </defs>
 <g id="figure_1">
  <g id="patch_1">
   <path d="M 0 178.189987 
L 623.127273 178.189987 
L 623.127273 -0 
L 0 -0 
z
" style="fill:#ffffff;"/>
  </g>
  <g id="axes_1">
   <g id="line2d_1">
    <path clip-path="url(#pfa2f540dca)" d="M 34.869421 14.644999 
L 34.869421 14.644999 
L 34.869421 14.644999 
L 34.869421 14.644999 
" style="fill:none;stroke:#8c8c8c;stroke-linecap:square;"/>
   </g>
   <g id="line2d_2">
    <path clip-path="url(#pfa2f540dca)" d="M 215.312086 114.375521 
L 214.848223 114.375521 
L 214.848223 113.911658 
L 213.456635 113.911658 
L 212.992772 114.375521 
L 212.065046 114.375521 
L 212.065046 114.839384 
L 211.13732 114.839384 
L 211.13732 115.303247 
L 210.673457 115.303247 
L 210.209595 115.76711 
L 209.745732 115.76711 
L 209.745732 116.230973 
L 209.281869 116.230973 
L 209.281869 116.694836 
L 208.818006 116.694836 
L 208.818006 117.158698 
L 208.354143 117.158698 
L 208.354143 117.622561 
L 207.89028 117.622561 
L 207.89028 118.086424 
L 206.962554 119.01415 
L 206.962554 119.478013 
L 206.498691 119.941876 
L 206.498691 120.405739 
L 206.034829 120.869602 
L 206.034829 121.333464 
L 205.570966 121.797327 
L 205.570966 122.26119 
L 205.107103 122.725053 
L 205.107103 123.652779 
L 204.64324 123.652779 
L 204.64324 124.580505 
L 204.179377 125.044368 
L 204.179377 126.435956 
L 203.715514 126.899819 
L 203.715514 132.466174 
L 204.179377 132.930037 
L 204.179377 134.321625 
L 204.64324 134.785488 
L 204.64324 135.713214 
L 205.107103 135.713214 
L 205.107103 136.177077 
L 205.570966 136.64094 
L 205.570966 137.104803 
L 206.034829 137.568666 
L 206.034829 138.032529 
L 206.498691 138.032529 
L 206.498691 138.496391 
L 206.962554 138.496391 
L 206.962554 138.960254 
L 207.426417 138.960254 
L 207.426417 139.424117 
L 207.89028 139.424117 
L 207.89028 139.88798 
L 208.818006 139.88798 
L 208.818006 140.351843 
L 209.745732 140.351843 
L 209.745732 140.815706 
L 210.673457 140.815706 
L 210.673457 141.279569 
L 211.601183 141.279569 
L 211.601183 141.743432 
L 212.528909 141.743432 
L 212.528909 142.207295 
L 213.456635 142.207295 
L 213.456635 142.671158 
L 214.848223 142.671158 
L 215.312086 143.13502 
L 216.239812 143.13502 
L 216.239812 143.598883 
L 220.878441 143.598883 
L 221.342304 143.13502 
L 222.733893 143.13502 
L 223.197756 142.671158 
L 224.125481 142.671158 
L 224.589344 142.207295 
L 225.51707 142.207295 
L 225.980933 141.743432 
L 226.908659 141.743432 
L 226.908659 141.279569 
L 227.836384 141.279569 
L 227.836384 140.815706 
L 228.300247 140.815706 
L 228.76411 140.351843 
L 229.227973 140.351843 
L 229.227973 139.88798 
L 230.155699 139.88798 
L 230.155699 139.424117 
L 230.619562 139.424117 
L 233.402739 136.64094 
L 233.402739 136.177077 
L 233.866602 136.177077 
L 233.866602 135.713214 
L 234.330465 135.249351 
L 234.330465 134.785488 
L 234.794328 134.321625 
L 234.794328 133.857763 
L 235.258191 133.3939 
L 235.258191 132.466174 
L 235.722054 132.466174 
L 235.722054 131.074585 
L 236.185916 130.610722 
L 236.185916 129.219134 
L 236.649779 128.755271 
L 236.649779 125.508231 
L 236.185916 125.508231 
L 236.185916 123.652779 
L 235.722054 123.188916 
L 235.722054 122.725053 
L 235.258191 122.26119 
L 235.258191 121.797327 
L 234.794328 121.333464 
L 234.794328 120.869602 
L 234.330465 120.405739 
L 233.866602 120.405739 
L 233.866602 119.478013 
L 233.402739 119.478013 
L 231.083425 117.158698 
L 230.619562 117.158698 
L 230.619562 116.694836 
L 230.155699 116.694836 
L 229.691836 116.230973 
L 229.227973 116.230973 
L 229.227973 115.76711 
L 228.76411 115.76711 
L 228.300247 115.303247 
L 227.836384 115.303247 
L 227.372522 114.839384 
L 226.444796 114.839384 
L 226.444796 114.375521 
L 225.053207 114.375521 
L 224.589344 113.911658 
L 222.733893 113.911658 
L 222.27003 113.447795 
L 215.312086 113.447795 
L 215.312086 113.447795 
" style="fill:none;stroke:#8c8c8c;stroke-linecap:square;"/>
   </g>
   <g id="line2d_3">
    <path clip-path="url(#pfa2f540dca)" d="M 217.631401 114.375521 
L 217.631401 114.839384 
L 217.631401 115.303247 
L 217.631401 115.76711 
L 217.631401 116.230973 
L 217.631401 116.694836 
L 217.631401 117.158698 
L 218.095264 117.158698 
L 218.095264 117.622561 
L 218.095264 118.086424 
L 218.095264 118.550287 
L 218.095264 119.01415 
L 218.095264 119.478013 
L 218.095264 119.941876 
L 218.095264 120.405739 
L 218.095264 120.869602 
L 218.095264 121.333464 
L 218.095264 121.797327 
L 218.095264 122.26119 
L 218.095264 122.725053 
L 218.095264 123.188916 
L 218.095264 123.652779 
L 218.095264 124.116642 
L 218.095264 124.580505 
L 218.095264 125.044368 
L 218.095264 125.508231 
L 218.559127 125.972093 
L 218.559127 126.435956 
L 218.559127 126.899819 
L 218.559127 127.363682 
L 218.559127 127.827545 
L 218.559127 128.291408 
L 218.559127 128.755271 
L 218.559127 129.219134 
L 218.559127 129.682997 
L 218.559127 130.146859 
L 218.559127 130.610722 
L 218.559127 131.074585 
L 218.559127 131.538448 
L 218.559127 132.002311 
L 218.559127 132.466174 
L 218.559127 132.930037 
L 219.022989 133.3939 
L 219.022989 133.857763 
L 219.022989 134.321625 
L 219.022989 134.785488 
L 219.022989 135.249351 
L 219.022989 135.713214 
L 219.022989 136.177077 
L 219.022989 136.64094 
L 219.022989 137.104803 
L 219.022989 137.568666 
L 219.022989 138.032529 
L 219.022989 138.496391 
L 219.022989 138.960254 
L 219.022989 139.424117 
L 219.022989 139.88798 
L 219.022989 140.351843 
L 218.559127 140.815706 
L 218.559127 141.279569 
L 218.559127 141.743432 
L 218.559127 142.207295 
" style="fill:none;stroke:#8c8c8c;stroke-linecap:square;"/>
   </g>
   <g id="line2d_4">
    <path clip-path="url(#pfa2f540dca)" d="M 218.095264 118.550287 
L 218.559127 118.550287 
L 218.559127 118.086424 
L 219.022989 118.086424 
L 219.486852 118.086424 
L 219.950715 117.622561 
L 220.414578 117.158698 
L 220.878441 116.694836 
L 221.342304 116.694836 
L 221.806167 116.230973 
L 222.733893 115.303247 
L 223.197756 115.303247 
L 223.197756 114.839384 
L 223.661618 114.375521 
L 224.125481 114.375521 
L 224.125481 113.911658 
L 224.589344 113.911658 
" style="fill:none;stroke:#8c8c8c;stroke-linecap:square;"/>
   </g>
   <g id="line2d_5">
    <path clip-path="url(#pfa2f540dca)" d="M 218.559127 122.725053 
L 218.559127 123.188916 
L 219.022989 123.188916 
L 219.022989 122.725053 
L 219.486852 122.725053 
L 219.950715 122.26119 
L 220.414578 121.797327 
L 221.342304 121.333464 
L 222.27003 120.869602 
L 222.733893 119.941876 
L 223.661618 119.478013 
L 224.589344 119.01415 
L 225.51707 118.086424 
L 225.980933 118.086424 
L 226.444796 117.622561 
L 226.908659 117.158698 
L 227.372522 116.694836 
L 227.836384 116.694836 
L 227.836384 116.230973 
" style="fill:none;stroke:#8c8c8c;stroke-linecap:square;"/>
   </g>
   <g id="line2d_6">
    <path clip-path="url(#pfa2f540dca)" d="M 219.486852 127.363682 
L 219.486852 127.827545 
L 219.950715 127.363682 
L 220.414578 126.899819 
L 221.342304 126.435956 
L 222.27003 125.972093 
L 222.733893 125.508231 
L 223.197756 125.044368 
L 224.125481 124.116642 
L 225.053207 123.652779 
L 225.980933 122.725053 
L 226.908659 122.26119 
L 227.836384 121.797327 
L 228.76411 121.333464 
L 229.691836 120.405739 
L 230.155699 119.941876 
L 230.619562 119.478013 
L 231.083425 119.01415 
" style="fill:none;stroke:#8c8c8c;stroke-linecap:square;"/>
   </g>
   <g id="line2d_7">
    <path clip-path="url(#pfa2f540dca)" d="M 221.342304 131.538448 
L 220.878441 131.538448 
L 220.878441 132.002311 
L 221.342304 132.002311 
L 221.806167 131.538448 
L 222.27003 131.074585 
L 223.197756 130.610722 
L 224.125481 130.146859 
L 225.51707 129.219134 
L 226.444796 128.291408 
L 227.372522 127.827545 
L 228.300247 126.899819 
L 229.691836 125.972093 
L 230.619562 125.044368 
L 231.083425 124.580505 
L 231.547288 124.116642 
L 232.475013 123.652779 
L 232.938876 123.188916 
L 233.402739 123.188916 
L 233.402739 122.725053 
L 233.866602 122.725053 
L 233.866602 122.26119 
L 234.330465 122.26119 
" style="fill:none;stroke:#8c8c8c;stroke-linecap:square;"/>
   </g>
   <g id="line2d_8">
    <path clip-path="url(#pfa2f540dca)" d="M 221.342304 137.104803 
L 221.806167 137.104803 
L 222.27003 137.104803 
L 222.733893 137.104803 
L 223.197756 136.64094 
L 224.125481 136.177077 
L 225.053207 135.713214 
L 225.51707 135.249351 
L 226.444796 134.785488 
L 227.372522 134.321625 
L 228.300247 133.857763 
L 228.76411 133.3939 
L 229.691836 132.466174 
L 230.619562 132.002311 
L 231.083425 131.538448 
L 231.547288 131.074585 
L 232.01115 131.074585 
L 232.475013 130.610722 
L 232.938876 130.610722 
L 232.938876 130.146859 
" style="fill:none;stroke:#8c8c8c;stroke-linecap:square;"/>
   </g>
   <g id="line2d_9">
    <path clip-path="url(#pfa2f540dca)" d="M 220.414578 141.743432 
L 220.878441 141.743432 
L 221.342304 141.743432 
L 221.806167 141.279569 
L 222.27003 141.279569 
L 222.733893 141.279569 
L 223.661618 140.815706 
L 224.589344 140.351843 
L 225.053207 139.88798 
L 225.980933 139.424117 
L 226.444796 139.424117 
L 226.908659 138.960254 
L 227.372522 138.960254 
" style="fill:none;stroke:#8c8c8c;stroke-linecap:square;"/>
   </g>
   <g id="line2d_10">
    <path clip-path="url(#pfa2f540dca)" d="M 56.670977 95.357143 
L 56.207115 95.357143 
L 55.743252 95.821005 
L 55.279389 95.821005 
L 54.815526 96.284868 
L 54.351663 96.748731 
L 53.8878 97.212594 
L 53.423937 97.212594 
L 52.960074 97.212594 
L 52.960074 97.676457 
L 52.960074 98.14032 
L 53.423937 98.14032 
L 53.8878 98.604183 
L 54.351663 98.604183 
L 54.815526 99.068046 
L 55.743252 99.995771 
L 56.207115 100.459634 
L 56.670977 100.923497 
L 57.13484 101.38736 
L 57.13484 101.851223 
L 57.13484 102.315086 
L 57.13484 103.242812 
L 57.13484 103.706675 
L 56.670977 104.6344 
L 56.207115 104.6344 
L 55.279389 105.098263 
L 54.815526 105.098263 
L 53.8878 105.098263 
L 53.423937 104.6344 
L 52.960074 104.170538 
" style="fill:none;stroke:#8c8c8c;stroke-linecap:square;"/>
   </g>
   <g id="line2d_11">
    <path clip-path="url(#pfa2f540dca)" d="M 60.381881 99.068046 
L 60.381881 99.531909 
L 60.845743 99.531909 
L 60.845743 99.995771 
L 61.309606 100.459634 
L 61.309606 100.923497 
L 61.773469 101.38736 
L 62.701195 101.851223 
L 63.165058 101.851223 
L 63.628921 102.315086 
L 64.092784 102.315086 
L 64.556647 102.315086 
L 64.556647 101.851223 
L 65.020509 101.851223 
L 65.020509 101.38736 
L 65.020509 100.923497 
L 65.020509 100.459634 
L 65.020509 99.995771 
L 65.020509 99.531909 
" style="fill:none;stroke:#8c8c8c;stroke-linecap:square;"/>
   </g>
   <g id="line2d_12">
    <path clip-path="url(#pfa2f540dca)" d="M 67.339824 98.604183 
L 67.803687 99.531909 
L 67.803687 99.995771 
L 68.26755 99.995771 
L 68.26755 100.459634 
L 68.731413 100.459634 
L 68.731413 99.995771 
L 69.195275 99.531909 
L 69.195275 99.068046 
L 69.659138 98.604183 
L 70.123001 98.14032 
L 70.586864 97.676457 
L 71.050727 97.676457 
L 71.51459 97.212594 
L 71.978453 97.212594 
L 72.442316 97.212594 
L 72.906179 97.212594 
L 73.370041 97.212594 
L 73.833904 97.676457 
L 74.297767 98.14032 
L 74.76163 98.604183 
L 74.76163 99.068046 
L 75.225493 99.531909 
L 75.689356 99.995771 
L 75.689356 100.459634 
" style="fill:none;stroke:#8c8c8c;stroke-linecap:square;"/>
   </g>
   <g id="line2d_13">
    <path clip-path="url(#pfa2f540dca)" d="M 73.370041 133.857763 
L 73.833904 133.3939 
L 74.297767 133.3939 
L 74.76163 133.3939 
L 75.225493 133.3939 
L 75.689356 133.3939 
L 75.689356 132.930037 
L 76.153219 132.930037 
L 76.617082 132.930037 
L 77.080945 132.930037 
L 77.080945 132.466174 
L 77.544808 132.466174 
L 78.00867 132.466174 
L 78.936396 132.466174 
L 79.400259 132.466174 
L 80.327985 132.930037 
L 81.255711 132.930037 
L 82.183436 132.930037 
L 82.647299 132.930037 
L 83.111162 132.930037 
L 84.038888 132.930037 
L 84.502751 132.930037 
L 85.430477 132.466174 
L 85.89434 132.466174 
L 86.358202 132.002311 
L 86.822065 132.002311 
L 87.285928 132.002311 
L 87.749791 132.002311 
L 88.213654 132.002311 
L 88.677517 132.002311 
L 89.14138 132.002311 
L 89.605243 132.002311 
L 90.069106 132.002311 
L 90.532968 132.002311 
L 90.996831 132.002311 
L 91.460694 132.002311 
L 91.924557 132.002311 
L 92.38842 132.002311 
L 92.852283 132.466174 
L 93.316146 132.466174 
L 93.780009 132.466174 
L 94.243872 132.466174 
L 94.707735 132.466174 
L 95.171597 132.466174 
L 95.63546 132.466174 
L 96.099323 132.466174 
L 96.563186 132.466174 
L 96.563186 132.002311 
L 97.027049 132.002311 
L 97.490912 132.002311 
L 97.954775 132.002311 
L 98.418638 132.466174 
L 98.882501 132.466174 
L 99.346363 132.466174 
L 99.810226 132.466174 
L 100.274089 132.466174 
L 100.737952 132.466174 
L 101.201815 132.466174 
L 101.665678 132.466174 
L 102.129541 132.466174 
L 102.593404 132.466174 
L 103.057267 132.466174 
L 103.984992 132.002311 
L 104.448855 132.002311 
L 105.376581 131.538448 
L 106.304307 131.538448 
L 106.76817 131.538448 
L 107.695895 131.074585 
L 108.159758 131.074585 
L 108.623621 131.074585 
L 109.087484 131.074585 
L 109.551347 131.074585 
L 110.01521 131.074585 
" style="fill:none;stroke:#8c8c8c;stroke-linecap:square;"/>
   </g>
   <g id="line2d_14">
    <path clip-path="url(#pfa2f540dca)" d="M 111.406799 125.972093 
L 110.942936 125.972093 
L 110.942936 126.435956 
L 111.406799 126.435956 
L 111.870662 126.435956 
L 112.334524 126.899819 
L 112.798387 126.899819 
L 113.26225 127.363682 
L 113.726113 127.363682 
L 114.189976 127.363682 
L 114.653839 127.827545 
L 115.117702 128.291408 
L 115.581565 128.755271 
L 115.581565 129.219134 
L 116.045428 129.682997 
L 116.045428 130.146859 
L 116.045428 130.610722 
L 116.045428 131.074585 
L 116.045428 131.538448 
L 115.581565 132.466174 
L 115.581565 133.3939 
L 115.117702 133.857763 
L 114.653839 134.785488 
L 114.653839 135.249351 
L 114.653839 135.713214 
L 114.189976 136.177077 
L 114.189976 136.64094 
" style="fill:none;stroke:#8c8c8c;stroke-linecap:square;"/>
   </g>
   <g id="line2d_15">
    <path clip-path="url(#pfa2f540dca)" d="M 78.936396 149.629101 
L 79.400259 149.629101 
L 79.864122 149.629101 
L 80.327985 149.629101 
L 80.791848 149.629101 
L 81.255711 149.629101 
L 81.719574 149.629101 
L 82.183436 149.629101 
L 82.647299 149.629101 
L 83.111162 149.629101 
L 83.575025 149.629101 
L 84.038888 149.629101 
L 84.502751 149.165238 
L 84.966614 149.165238 
L 85.430477 149.165238 
L 85.89434 149.165238 
L 86.358202 149.165238 
L 86.358202 148.701375 
L 86.822065 148.701375 
L 87.285928 148.701375 
L 87.749791 148.237512 
L 88.213654 147.773649 
L 88.677517 147.773649 
L 89.14138 147.309786 
L 89.605243 147.309786 
L 90.069106 147.309786 
L 90.532968 146.845924 
L 90.996831 146.845924 
L 91.460694 146.845924 
L 91.924557 146.845924 
L 92.38842 146.845924 
L 92.852283 146.845924 
L 93.316146 146.845924 
L 93.780009 146.845924 
L 94.243872 146.845924 
L 94.707735 146.845924 
L 94.707735 147.309786 
L 95.171597 147.309786 
L 95.63546 147.309786 
L 96.099323 147.309786 
L 96.563186 147.773649 
L 97.027049 147.773649 
L 97.490912 147.773649 
L 97.954775 148.237512 
L 98.418638 148.237512 
L 98.882501 148.701375 
L 99.346363 149.165238 
L 99.810226 149.165238 
L 100.274089 149.629101 
L 100.737952 149.629101 
L 101.201815 149.629101 
L 101.665678 149.165238 
L 102.129541 149.165238 
L 102.593404 148.701375 
L 103.057267 148.701375 
L 103.521129 148.237512 
L 103.984992 148.237512 
L 104.448855 148.237512 
L 104.912718 148.237512 
L 105.376581 147.773649 
L 105.840444 147.773649 
L 106.304307 147.773649 
L 106.76817 147.773649 
L 107.232033 147.773649 
L 107.695895 147.773649 
L 108.159758 147.773649 
L 108.623621 147.309786 
L 109.087484 147.309786 
L 109.551347 147.309786 
L 110.01521 147.309786 
L 110.479073 146.845924 
L 110.942936 146.845924 
L 111.406799 146.845924 
L 111.870662 146.845924 
" style="fill:none;stroke:#8c8c8c;stroke-linecap:square;"/>
   </g>
   <g id="line2d_16">
    <path clip-path="url(#pfa2f540dca)" d="M 113.726113 143.598883 
L 113.726113 144.062746 
L 114.653839 144.062746 
L 114.653839 144.526609 
L 115.117702 144.526609 
L 115.581565 144.990472 
L 116.045428 145.454335 
L 116.045428 145.918198 
L 116.50929 145.918198 
L 116.50929 146.382061 
L 116.50929 146.845924 
L 116.50929 147.773649 
L 116.045428 148.701375 
L 116.045428 149.165238 
L 115.581565 150.092964 
L 115.117702 150.556827 
L 115.117702 151.02069 
" style="fill:none;stroke:#8c8c8c;stroke-linecap:square;"/>
   </g>
   <g id="line2d_17">
    <path clip-path="url(#pfa2f540dca)" d="M 77.544808 119.478013 
L 78.00867 119.478013 
L 78.472533 119.478013 
L 78.936396 119.478013 
L 79.864122 119.478013 
L 80.327985 119.01415 
L 81.255711 119.01415 
L 82.183436 119.01415 
L 82.647299 119.01415 
L 83.575025 119.01415 
L 84.502751 118.550287 
L 85.430477 118.550287 
L 85.89434 118.550287 
L 86.358202 118.550287 
L 87.285928 118.550287 
L 88.213654 118.550287 
L 88.677517 118.086424 
L 89.14138 118.086424 
L 89.605243 118.086424 
L 90.069106 118.086424 
L 90.532968 118.086424 
L 90.996831 118.086424 
L 91.460694 118.086424 
L 91.924557 118.086424 
L 92.852283 118.086424 
L 93.780009 117.622561 
L 94.243872 117.622561 
L 95.171597 117.622561 
L 95.171597 117.158698 
L 95.63546 117.158698 
L 96.099323 117.158698 
L 96.563186 117.158698 
L 97.027049 117.158698 
L 97.490912 117.158698 
L 97.954775 117.158698 
L 98.418638 117.158698 
L 98.882501 117.158698 
L 99.346363 117.158698 
L 99.810226 117.158698 
L 100.274089 117.158698 
L 100.737952 117.158698 
L 101.201815 117.158698 
L 101.665678 117.158698 
L 102.129541 117.158698 
L 102.593404 117.158698 
L 103.057267 117.158698 
L 103.521129 117.158698 
L 103.984992 117.158698 
L 104.448855 116.694836 
" style="fill:none;stroke:#8c8c8c;stroke-linecap:square;"/>
   </g>
   <g id="line2d_18">
    <path clip-path="url(#pfa2f540dca)" d="M 105.376581 113.447795 
L 105.376581 113.911658 
L 105.840444 113.911658 
L 106.304307 113.911658 
L 106.76817 113.911658 
L 106.76817 114.375521 
L 107.232033 114.375521 
L 107.232033 114.839384 
L 107.695895 114.839384 
L 107.695895 115.303247 
L 108.159758 115.303247 
L 108.159758 115.76711 
L 108.159758 116.230973 
L 107.695895 116.694836 
L 107.695895 117.158698 
L 107.695895 117.622561 
L 107.232033 117.622561 
L 107.232033 118.086424 
" style="fill:none;stroke:#8c8c8c;stroke-linecap:square;"/>
   </g>
   <g id="line2d_19">
    <path clip-path="url(#pfa2f540dca)" d="M 236.185916 107.417578 
L 235.722054 107.417578 
L 236.185916 107.417578 
L 236.649779 107.417578 
L 237.113642 107.417578 
L 237.577505 107.417578 
L 238.041368 107.417578 
L 238.505231 107.417578 
L 239.432957 107.417578 
L 241.752271 106.953715 
L 244.071586 106.953715 
L 246.854763 106.489852 
L 250.101803 105.562126 
L 254.740432 104.6344 
L 258.451335 104.170538 
L 263.089964 103.242812 
L 265.873142 102.778949 
L 268.656319 102.778949 
L 271.903359 102.315086 
L 273.758811 102.315086 
L 275.614262 101.851223 
L 277.469714 101.851223 
L 278.861303 101.851223 
L 280.716754 101.38736 
L 282.108343 101.38736 
L 283.499931 100.923497 
L 284.427657 100.923497 
L 285.819246 100.459634 
L 286.746972 99.995771 
L 287.210835 99.995771 
L 288.13856 99.995771 
L 288.602423 99.531909 
L 289.066286 99.531909 
L 289.530149 99.531909 
L 289.994012 99.531909 
L 290.457875 99.531909 
L 290.457875 99.068046 
" style="fill:none;stroke:#8c8c8c;stroke-linecap:square;"/>
   </g>
   <g id="line2d_20">
    <path clip-path="url(#pfa2f540dca)" d="M 234.330465 109.273029 
L 234.330465 109.736892 
L 234.330465 110.200755 
L 233.866602 111.128481 
L 233.866602 111.592344 
L 233.866602 112.056207 
L 233.402739 112.983932 
L 233.402739 113.447795 
L 233.402739 113.911658 
L 233.402739 114.375521 
L 233.402739 114.839384 
L 233.402739 115.303247 
" style="fill:none;stroke:#8c8c8c;stroke-linecap:square;"/>
   </g>
   <g id="line2d_21">
    <path clip-path="url(#pfa2f540dca)" d="M 229.227973 143.598883 
L 229.227973 143.13502 
L 229.227973 143.598883 
L 229.227973 144.062746 
L 229.227973 144.526609 
L 229.227973 144.990472 
L 229.227973 145.918198 
L 229.227973 147.309786 
L 229.227973 149.165238 
L 229.691836 151.02069 
L 229.691836 153.340004 
L 229.691836 155.195456 
L 229.691836 156.587044 
L 229.691836 157.978633 
L 229.691836 159.370222 
L 229.691836 160.76181 
L 229.691836 161.225673 
L 229.691836 161.689536 
L 229.691836 162.153399 
L 229.691836 162.617262 
L 229.227973 162.617262 
" style="fill:none;stroke:#8c8c8c;stroke-linecap:square;"/>
   </g>
   <g id="line2d_22">
    <path clip-path="url(#pfa2f540dca)" d="M 230.619562 163.081125 
L 230.155699 163.081125 
L 230.619562 163.081125 
L 231.083425 163.544988 
L 232.01115 163.544988 
L 233.402739 163.544988 
L 234.794328 163.544988 
L 238.041368 163.081125 
L 242.679997 162.617262 
L 245.463174 162.617262 
L 248.710215 162.153399 
L 251.957255 161.689536 
L 257.059747 161.225673 
L 262.626101 160.76181 
L 266.337004 160.297947 
L 270.51177 159.370222 
L 274.222674 158.906359 
L 278.861303 157.978633 
L 281.180617 157.51477 
L 283.963794 156.587044 
L 285.355383 156.587044 
L 286.746972 156.123181 
L 287.674697 156.123181 
L 288.13856 156.123181 
L 288.602423 156.123181 
L 288.13856 156.123181 
" style="fill:none;stroke:#8c8c8c;stroke-linecap:square;"/>
   </g>
   <g id="line2d_23">
    <path clip-path="url(#pfa2f540dca)" d="M 289.066286 102.778949 
L 289.066286 103.242812 
L 289.066286 103.706675 
L 289.066286 104.170538 
L 288.602423 105.098263 
L 288.602423 105.562126 
L 288.602423 106.953715 
L 288.13856 107.881441 
L 288.13856 108.809166 
L 288.13856 110.200755 
L 287.674697 111.592344 
L 287.674697 112.52007 
L 287.210835 114.375521 
L 286.746972 115.76711 
L 286.746972 116.694836 
L 286.283109 118.086424 
L 286.283109 119.941876 
L 285.819246 121.797327 
L 285.819246 123.652779 
L 285.819246 125.972093 
L 285.355383 127.363682 
L 285.355383 128.755271 
L 285.355383 130.146859 
L 285.355383 132.002311 
L 285.355383 133.3939 
L 285.355383 134.785488 
L 285.355383 136.177077 
L 285.355383 137.104803 
L 284.89152 138.960254 
L 284.89152 139.88798 
L 284.89152 140.815706 
L 284.427657 142.671158 
L 284.427657 143.598883 
L 284.427657 144.526609 
L 284.427657 145.454335 
L 284.427657 146.845924 
L 284.427657 147.309786 
L 284.427657 148.237512 
L 284.427657 148.701375 
L 284.427657 149.629101 
L 284.89152 150.556827 
L 284.89152 151.02069 
L 284.89152 151.948415 
L 284.89152 152.412278 
L 284.89152 152.876141 
L 284.89152 153.340004 
L 284.89152 153.803867 
L 284.89152 154.26773 
L 284.89152 154.731593 
L 284.89152 155.195456 
" style="fill:none;stroke:#8c8c8c;stroke-linecap:square;"/>
   </g>
   <g id="line2d_24">
    <path clip-path="url(#pfa2f540dca)" d="M 258.451335 117.622561 
L 258.915198 117.622561 
L 258.451335 117.622561 
L 258.451335 118.086424 
L 257.059747 118.086424 
L 257.059747 118.550287 
L 256.132021 118.550287 
L 255.668158 119.01415 
L 254.740432 119.01415 
L 254.276569 119.478013 
L 252.884981 119.478013 
L 252.884981 119.941876 
L 251.957255 119.941876 
L 251.957255 120.405739 
L 251.493392 120.405739 
L 251.493392 120.869602 
L 251.029529 120.869602 
L 250.565666 121.333464 
L 250.101803 121.333464 
L 250.101803 121.797327 
L 249.63794 121.797327 
L 249.63794 122.26119 
L 249.174077 122.26119 
L 249.174077 122.725053 
L 248.710215 122.725053 
L 248.710215 123.188916 
L 248.246352 123.652779 
L 248.246352 124.116642 
L 247.782489 124.116642 
L 247.782489 124.580505 
L 247.318626 124.580505 
L 247.318626 125.508231 
L 246.854763 125.508231 
L 246.854763 126.899819 
L 246.3909 126.899819 
L 246.3909 129.219134 
L 245.927037 129.219134 
L 245.927037 133.857763 
L 246.3909 133.857763 
L 246.3909 135.249351 
L 246.854763 135.713214 
L 246.854763 136.177077 
L 247.318626 136.177077 
L 247.318626 137.104803 
L 247.782489 137.104803 
L 247.782489 137.568666 
L 248.246352 138.032529 
L 248.246352 138.496391 
L 248.710215 138.496391 
L 248.710215 138.960254 
L 249.174077 138.960254 
L 250.101803 139.88798 
L 250.101803 140.351843 
L 250.565666 140.351843 
L 251.029529 140.815706 
L 251.493392 140.815706 
L 251.493392 141.279569 
L 252.421118 141.279569 
L 252.421118 141.743432 
L 253.812706 141.743432 
L 254.276569 142.207295 
L 259.379061 142.207295 
L 259.842924 141.743432 
L 261.698376 141.743432 
L 261.698376 141.279569 
L 262.626101 141.279569 
L 263.089964 140.815706 
L 263.553827 140.815706 
L 263.553827 140.351843 
L 264.481553 140.351843 
L 265.873142 138.960254 
L 266.337004 138.960254 
L 266.337004 138.496391 
L 266.800867 138.496391 
L 266.800867 138.032529 
L 267.26473 138.032529 
L 267.26473 137.568666 
L 267.728593 137.568666 
L 268.192456 137.104803 
L 268.192456 136.64094 
L 268.656319 136.64094 
L 268.656319 136.177077 
L 269.120182 136.177077 
L 269.120182 135.713214 
L 269.584045 135.713214 
L 269.584045 135.249351 
L 270.047908 134.785488 
L 270.047908 134.321625 
L 270.51177 134.321625 
L 270.51177 133.857763 
L 270.975633 133.3939 
L 270.975633 132.466174 
L 271.439496 132.466174 
L 271.439496 131.074585 
L 271.903359 130.610722 
L 271.903359 124.580505 
L 271.439496 124.580505 
L 271.439496 123.188916 
L 270.975633 123.188916 
L 270.975633 122.26119 
L 270.51177 122.26119 
L 270.51177 121.797327 
L 270.047908 121.333464 
L 270.047908 120.869602 
L 269.584045 120.869602 
L 269.584045 120.405739 
L 269.120182 120.405739 
L 269.120182 119.941876 
L 268.656319 119.941876 
L 268.656319 119.478013 
L 267.728593 119.478013 
L 267.26473 119.01415 
L 266.800867 119.01415 
L 266.337004 118.550287 
L 259.842924 118.550287 
L 259.842924 118.086424 
L 258.915198 118.086424 
L 258.915198 118.086424 
" style="fill:none;stroke:#8c8c8c;stroke-linecap:square;"/>
   </g>
   <g id="line2d_25">
    <path clip-path="url(#pfa2f540dca)" d="M 256.132021 119.478013 
L 256.132021 119.941876 
L 255.668158 120.405739 
L 255.668158 120.869602 
L 254.740432 121.333464 
L 254.276569 122.26119 
L 253.348843 123.188916 
L 252.884981 124.116642 
L 251.493392 125.972093 
L 250.565666 127.363682 
L 249.63794 128.291408 
L 248.246352 130.146859 
L 247.318626 131.074585 
L 246.854763 132.002311 
L 246.3909 132.466174 
L 245.927037 132.930037 
L 245.927037 133.3939 
" style="fill:none;stroke:#8c8c8c;stroke-linecap:square;"/>
   </g>
   <g id="line2d_26">
    <path clip-path="url(#pfa2f540dca)" d="M 262.162238 119.478013 
L 262.626101 119.478013 
L 262.626101 119.941876 
L 262.162238 119.941876 
L 262.162238 120.405739 
L 261.698376 120.869602 
L 261.234513 121.333464 
L 260.77065 121.797327 
L 259.842924 122.725053 
L 258.451335 124.580505 
L 257.523609 125.508231 
L 256.595884 126.899819 
L 255.668158 127.827545 
L 254.276569 129.682997 
L 253.348843 130.610722 
L 252.421118 131.538448 
L 251.957255 132.930037 
L 251.493392 133.857763 
L 251.029529 134.321625 
L 250.565666 134.785488 
L 250.565666 135.249351 
" style="fill:none;stroke:#8c8c8c;stroke-linecap:square;"/>
   </g>
   <g id="line2d_27">
    <path clip-path="url(#pfa2f540dca)" d="M 264.01769 121.333464 
L 264.481553 121.333464 
L 264.945416 121.333464 
L 264.945416 120.869602 
L 264.945416 121.333464 
L 264.481553 122.26119 
L 264.01769 122.725053 
L 263.553827 123.652779 
L 262.626101 124.580505 
L 261.698376 126.435956 
L 260.77065 127.827545 
L 259.379061 129.682997 
L 258.451335 130.610722 
L 257.523609 132.002311 
L 256.595884 133.3939 
L 256.132021 134.321625 
L 255.668158 134.785488 
L 255.204295 135.249351 
L 255.204295 135.713214 
L 254.740432 136.177077 
" style="fill:none;stroke:#8c8c8c;stroke-linecap:square;"/>
   </g>
   <g id="line2d_28">
    <path clip-path="url(#pfa2f540dca)" d="M 268.656319 122.725053 
L 268.656319 122.26119 
L 268.656319 122.725053 
L 268.656319 123.188916 
L 268.192456 123.652779 
L 267.728593 124.116642 
L 267.26473 125.044368 
L 266.800867 125.508231 
L 266.337004 126.899819 
L 265.409279 128.291408 
L 264.945416 129.219134 
L 263.553827 130.610722 
L 263.089964 131.538448 
L 261.698376 132.930037 
L 261.234513 133.857763 
L 260.306787 134.785488 
L 259.379061 135.713214 
L 258.915198 136.64094 
L 258.451335 137.104803 
L 257.987472 137.568666 
L 257.987472 138.032529 
L 257.523609 138.032529 
L 257.523609 138.496391 
L 257.059747 138.496391 
" style="fill:none;stroke:#8c8c8c;stroke-linecap:square;"/>
   </g>
   <g id="line2d_29">
    <path clip-path="url(#pfa2f540dca)" d="M 267.728593 129.219134 
L 267.728593 129.682997 
L 267.728593 130.146859 
L 267.26473 130.610722 
L 267.26473 131.074585 
L 266.800867 131.538448 
L 266.800867 132.002311 
L 266.337004 132.930037 
L 266.337004 133.3939 
L 265.873142 134.321625 
L 265.409279 134.785488 
L 264.945416 135.249351 
L 264.945416 135.713214 
L 264.01769 136.64094 
L 263.553827 137.568666 
L 263.089964 138.032529 
L 263.089964 138.960254 
L 262.162238 139.424117 
L 262.162238 139.88798 
L 261.698376 140.815706 
L 261.234513 140.815706 
L 261.234513 141.279569 
" style="fill:none;stroke:#8c8c8c;stroke-linecap:square;"/>
   </g>
   <g id="line2d_30">
    <path clip-path="url(#pfa2f540dca)" d="M 224.589344 114.375521 
L 225.053207 114.375521 
L 225.053207 114.839384 
" style="fill:none;stroke:#8c8c8c;stroke-linecap:square;"/>
   </g>
   <g id="line2d_31">
    <path clip-path="url(#pfa2f540dca)" d="M 226.444796 114.839384 
L 226.908659 114.839384 
L 226.908659 115.303247 
L 227.372522 115.303247 
" style="fill:none;stroke:#8c8c8c;stroke-linecap:square;"/>
   </g>
   <g id="line2d_32">
    <path clip-path="url(#pfa2f540dca)" d="M 232.938876 115.76711 
L 233.402739 115.76711 
L 233.866602 115.76711 
" style="fill:none;stroke:#8c8c8c;stroke-linecap:square;"/>
   </g>
   <g id="line2d_33">
    <path clip-path="url(#pfa2f540dca)" d="M 237.113642 115.76711 
L 237.577505 116.230973 
L 238.041368 116.230973 
" style="fill:none;stroke:#8c8c8c;stroke-linecap:square;"/>
   </g>
   <g id="line2d_34">
    <path clip-path="url(#pfa2f540dca)" d="M 244.999311 116.230973 
L 245.463174 116.230973 
L 245.927037 116.230973 
" style="fill:none;stroke:#8c8c8c;stroke-linecap:square;"/>
   </g>
   <g id="line2d_35">
    <path clip-path="url(#pfa2f540dca)" d="M 247.782489 115.76711 
L 247.782489 116.230973 
L 248.246352 116.230973 
" style="fill:none;stroke:#8c8c8c;stroke-linecap:square;"/>
   </g>
   <g id="line2d_36">
    <path clip-path="url(#pfa2f540dca)" d="M 238.505231 115.303247 
L 238.969094 115.303247 
" style="fill:none;stroke:#8c8c8c;stroke-linecap:square;"/>
   </g>
   <g id="line2d_37">
    <path clip-path="url(#pfa2f540dca)" d="M 241.752271 116.230973 
L 242.216134 116.230973 
L 242.679997 116.230973 
L 243.14386 116.230973 
L 243.607723 116.230973 
" style="fill:none;stroke:#8c8c8c;stroke-linecap:square;"/>
   </g>
   <g id="line2d_38">
    <path clip-path="url(#pfa2f540dca)" d="M 244.535449 116.230973 
L 244.999311 116.230973 
L 245.463174 116.694836 
L 245.927037 116.694836 
L 246.3909 116.694836 
" style="fill:none;stroke:#8c8c8c;stroke-linecap:square;"/>
   </g>
   <g id="line2d_39">
    <path clip-path="url(#pfa2f540dca)" d="M 253.812706 116.694836 
L 254.276569 116.694836 
L 254.740432 116.694836 
L 255.204295 116.694836 
L 255.668158 116.694836 
" style="fill:none;stroke:#8c8c8c;stroke-linecap:square;"/>
   </g>
   <g id="line2d_40">
    <path clip-path="url(#pfa2f540dca)" d="M 256.132021 116.694836 
L 256.595884 116.694836 
L 256.132021 116.694836 
" style="fill:none;stroke:#8c8c8c;stroke-linecap:square;"/>
   </g>
   <g id="line2d_41">
    <path clip-path="url(#pfa2f540dca)" d="M 229.227973 114.375521 
L 229.691836 114.375521 
L 230.155699 114.839384 
L 230.619562 114.839384 
L 231.083425 114.839384 
L 231.547288 114.839384 
L 232.01115 114.839384 
" style="fill:none;stroke:#8c8c8c;stroke-linecap:square;"/>
   </g>
   <g id="line2d_42">
    <path clip-path="url(#pfa2f540dca)" d="M 233.402739 114.839384 
L 233.866602 114.839384 
L 234.330465 114.839384 
L 234.794328 115.303247 
L 235.258191 115.303247 
L 235.722054 115.303247 
L 236.185916 115.303247 
L 236.649779 115.303247 
L 237.113642 115.303247 
L 237.577505 115.303247 
L 238.041368 115.303247 
L 238.505231 115.303247 
L 238.969094 115.303247 
L 239.432957 115.303247 
L 239.89682 115.303247 
L 240.360682 115.303247 
L 240.824545 115.303247 
L 240.824545 115.76711 
L 241.288408 115.76711 
L 241.752271 115.76711 
L 242.216134 115.76711 
L 242.679997 115.76711 
L 243.14386 115.76711 
L 243.607723 115.76711 
L 243.607723 116.230973 
L 244.071586 116.230973 
L 244.535449 116.230973 
L 244.999311 116.230973 
L 245.463174 116.230973 
L 245.463174 116.694836 
L 245.927037 116.694836 
L 246.3909 116.694836 
L 246.854763 116.694836 
L 247.318626 116.694836 
L 247.782489 116.694836 
L 248.246352 116.694836 
L 248.246352 116.230973 
L 248.710215 116.230973 
" style="fill:none;stroke:#8c8c8c;stroke-linecap:square;"/>
   </g>
   <g id="line2d_43">
    <path clip-path="url(#pfa2f540dca)" d="M 218.559127 144.062746 
L 219.022989 144.062746 
L 219.022989 143.598883 
L 219.486852 143.598883 
" style="fill:none;stroke:#8c8c8c;stroke-linecap:square;"/>
   </g>
   <g id="line2d_44">
    <path clip-path="url(#pfa2f540dca)" d="M 220.414578 143.598883 
L 220.878441 143.598883 
L 221.342304 143.598883 
L 221.806167 143.598883 
L 222.27003 143.598883 
L 222.733893 143.13502 
L 223.197756 143.13502 
L 223.661618 143.13502 
L 224.125481 143.13502 
L 224.589344 143.13502 
L 225.053207 143.13502 
L 225.51707 143.13502 
L 225.980933 143.13502 
L 226.444796 143.13502 
L 226.908659 143.13502 
L 227.372522 143.13502 
L 227.836384 143.13502 
" style="fill:none;stroke:#8c8c8c;stroke-linecap:square;"/>
   </g>
   <g id="line2d_45">
    <path clip-path="url(#pfa2f540dca)" d="M 234.794328 143.13502 
L 235.258191 143.13502 
L 235.722054 143.13502 
L 236.185916 143.13502 
L 236.185916 143.598883 
" style="fill:none;stroke:#8c8c8c;stroke-linecap:square;"/>
   </g>
   <g id="line2d_46">
    <path clip-path="url(#pfa2f540dca)" d="M 238.041368 143.598883 
L 238.505231 143.598883 
L 238.969094 143.598883 
L 239.432957 143.598883 
L 239.432957 143.13502 
L 239.89682 143.13502 
L 240.360682 143.13502 
L 240.824545 143.13502 
L 241.288408 143.13502 
L 241.752271 143.13502 
L 242.216134 143.13502 
L 242.679997 143.598883 
L 243.14386 143.598883 
L 243.607723 143.598883 
L 244.071586 144.062746 
L 244.535449 144.062746 
L 244.999311 144.062746 
L 245.463174 144.062746 
L 245.927037 144.062746 
L 246.3909 143.598883 
L 246.854763 143.598883 
L 247.318626 143.598883 
L 247.782489 143.598883 
L 248.246352 143.598883 
L 248.710215 143.598883 
L 248.710215 143.13502 
L 249.174077 143.13502 
L 249.63794 143.13502 
L 250.101803 143.13502 
L 250.565666 143.13502 
L 251.029529 143.13502 
L 251.493392 143.13502 
L 251.493392 142.671158 
L 251.957255 142.671158 
L 252.421118 142.671158 
L 252.884981 142.671158 
L 253.348843 142.671158 
L 253.812706 142.671158 
L 254.276569 142.207295 
L 254.740432 142.207295 
L 255.204295 142.207295 
L 255.668158 142.207295 
L 256.132021 141.743432 
L 256.595884 141.743432 
L 257.059747 141.743432 
L 257.523609 141.743432 
L 257.987472 141.743432 
L 258.451335 141.743432 
" style="fill:none;stroke:#8c8c8c;stroke-linecap:square;"/>
   </g>
   <g id="line2d_47">
    <path clip-path="url(#pfa2f540dca)" d="M 225.053207 143.13502 
L 225.51707 143.13502 
L 225.980933 143.13502 
L 226.444796 143.13502 
L 226.908659 143.13502 
L 227.372522 143.13502 
L 227.836384 143.13502 
L 228.300247 143.13502 
L 228.76411 143.13502 
L 229.227973 143.13502 
L 229.691836 143.13502 
L 230.155699 143.13502 
L 230.619562 143.13502 
L 231.083425 143.13502 
L 231.547288 143.13502 
L 232.01115 143.13502 
L 232.475013 143.13502 
L 232.938876 143.13502 
L 233.402739 143.13502 
L 233.866602 143.13502 
L 234.330465 143.13502 
L 234.794328 143.13502 
L 235.258191 143.13502 
L 235.722054 142.671158 
L 236.185916 142.671158 
L 236.649779 142.671158 
L 237.113642 142.671158 
L 237.577505 142.671158 
L 238.041368 142.671158 
L 238.505231 142.671158 
L 238.969094 142.671158 
L 239.432957 142.671158 
L 239.89682 142.671158 
L 240.360682 142.671158 
L 240.824545 142.671158 
" style="fill:none;stroke:#8c8c8c;stroke-linecap:square;"/>
   </g>
   <g id="line2d_48">
    <path clip-path="url(#pfa2f540dca)" d="M 342.410519 103.706675 
L 342.410519 103.242812 
L 341.946656 103.242812 
L 341.946656 102.778949 
L 341.482793 102.778949 
L 341.01893 102.778949 
L 340.555067 102.778949 
L 339.627341 102.778949 
L 339.163478 102.778949 
L 338.235753 103.242812 
L 337.308027 104.6344 
L 336.380301 105.562126 
L 335.916438 106.489852 
L 335.916438 107.881441 
L 335.916438 108.345304 
L 336.380301 109.273029 
L 336.844164 109.273029 
L 337.308027 109.273029 
L 338.699616 108.809166 
L 339.627341 107.881441 
L 340.555067 106.953715 
L 341.01893 106.025989 
L 341.482793 105.098263 
L 341.482793 104.170538 
L 341.482793 102.778949 
L 341.482793 102.315086 
L 341.01893 101.851223 
L 341.01893 101.38736 
L 341.01893 100.923497 
L 341.01893 100.459634 
L 341.01893 99.995771 
L 341.482793 99.995771 
L 341.946656 100.459634 
L 341.946656 100.923497 
L 342.410519 101.851223 
L 342.874382 103.242812 
L 343.338244 105.098263 
L 343.338244 106.025989 
L 343.802107 107.417578 
L 344.26597 108.809166 
L 344.26597 109.273029 
L 344.729833 110.200755 
L 345.193696 110.200755 
L 345.193696 110.664618 
L 345.657559 110.664618 
" style="fill:none;stroke:#8c8c8c;stroke-linecap:square;"/>
   </g>
   <g id="line2d_49">
    <path clip-path="url(#pfa2f540dca)" d="M 346.121422 104.170538 
L 346.121422 103.706675 
L 346.585285 103.706675 
L 347.049148 104.170538 
L 347.049148 104.6344 
L 347.51301 105.098263 
L 347.976873 105.562126 
L 348.440736 106.025989 
L 348.440736 106.489852 
L 348.440736 106.953715 
L 348.904599 106.953715 
L 348.904599 107.417578 
L 348.904599 106.953715 
L 348.904599 106.489852 
L 348.904599 105.562126 
L 348.904599 105.098263 
L 348.904599 103.706675 
L 349.368462 103.242812 
L 349.368462 102.778949 
L 349.832325 102.315086 
L 350.760051 101.38736 
L 351.687776 101.38736 
L 352.151639 100.923497 
L 353.079365 100.923497 
L 354.007091 100.459634 
L 354.470954 100.459634 
L 354.934817 100.459634 
" style="fill:none;stroke:#8c8c8c;stroke-linecap:square;"/>
   </g>
   <g id="line2d_50">
    <path clip-path="url(#pfa2f540dca)" d="M 356.326405 100.923497 
L 356.326405 101.38736 
L 356.790268 101.38736 
L 356.790268 101.851223 
L 356.790268 102.315086 
L 356.790268 102.778949 
L 357.254131 102.778949 
L 357.717994 103.242812 
L 358.64572 103.242812 
L 359.109583 102.778949 
L 359.573446 102.778949 
L 360.037309 102.315086 
L 360.501171 102.315086 
L 360.501171 101.851223 
L 360.501171 101.38736 
L 360.037309 100.923497 
L 359.573446 100.923497 
L 358.64572 101.38736 
L 358.181857 101.851223 
L 357.254131 102.778949 
L 356.790268 103.242812 
L 356.326405 104.6344 
L 356.326405 105.562126 
L 356.326405 106.489852 
L 356.790268 107.417578 
L 357.254131 107.881441 
L 358.181857 107.881441 
L 358.64572 108.345304 
L 359.573446 108.345304 
L 360.501171 107.881441 
L 361.428897 107.417578 
L 361.89276 107.417578 
L 362.820486 106.489852 
L 363.284349 106.025989 
L 364.212075 105.562126 
L 364.212075 105.098263 
L 364.675937 104.6344 
L 365.1398 104.6344 
L 365.1398 104.170538 
L 365.1398 103.706675 
L 365.1398 103.242812 
L 364.675937 103.242812 
L 364.212075 103.706675 
L 363.284349 104.170538 
L 362.820486 104.6344 
L 362.356623 105.562126 
L 362.356623 106.025989 
L 362.356623 106.489852 
L 362.820486 106.953715 
L 363.284349 106.953715 
L 363.748212 106.489852 
L 364.675937 106.025989 
L 365.1398 106.025989 
L 366.067526 105.098263 
L 366.531389 104.6344 
L 366.995252 104.170538 
L 367.459115 103.242812 
L 367.459115 102.778949 
L 367.922978 102.778949 
L 367.922978 103.242812 
L 367.922978 103.706675 
L 367.922978 104.6344 
L 367.922978 105.562126 
L 367.922978 106.489852 
L 368.386841 106.953715 
L 368.386841 107.881441 
L 368.386841 108.345304 
L 368.386841 109.273029 
L 368.386841 109.736892 
" style="fill:none;stroke:#8c8c8c;stroke-linecap:square;"/>
   </g>
   <g id="line2d_51">
    <path clip-path="url(#pfa2f540dca)" d="M 385.549768 105.098263 
L 385.085905 105.098263 
L 384.622042 105.098263 
L 384.622042 105.562126 
L 384.622042 106.025989 
L 384.622042 106.489852 
L 384.622042 107.417578 
L 385.085905 107.881441 
L 385.549768 108.809166 
L 386.477493 109.273029 
L 386.941356 109.273029 
L 387.869082 109.273029 
L 388.332945 108.809166 
L 388.796808 108.345304 
L 389.260671 107.417578 
L 389.260671 106.953715 
L 388.796808 106.025989 
L 388.332945 105.098263 
L 387.405219 104.6344 
L 386.477493 104.170538 
L 386.01363 104.170538 
L 385.085905 104.170538 
L 384.622042 104.170538 
L 384.158179 104.6344 
L 384.158179 105.098263 
L 384.158179 105.562126 
L 384.158179 106.025989 
" style="fill:none;stroke:#8c8c8c;stroke-linecap:square;"/>
   </g>
   <g id="line2d_52">
    <path clip-path="url(#pfa2f540dca)" d="M 394.363163 104.6344 
L 394.827025 104.6344 
L 394.827025 105.098263 
L 395.290888 105.098263 
L 395.290888 105.562126 
L 395.290888 105.098263 
L 395.290888 104.6344 
L 395.290888 104.170538 
L 394.827025 103.242812 
L 394.363163 101.851223 
L 394.363163 100.459634 
L 393.8993 98.604183 
L 393.8993 97.212594 
L 393.8993 96.284868 
L 393.8993 95.357143 
L 393.8993 94.429417 
L 394.363163 93.501691 
L 394.363163 93.037828 
L 394.827025 92.573965 
L 395.290888 92.110102 
L 395.754751 92.110102 
L 396.218614 92.110102 
L 396.682477 92.110102 
L 397.14634 92.110102 
L 397.14634 92.573965 
L 397.610203 92.573965 
L 397.610203 93.037828 
" style="fill:none;stroke:#8c8c8c;stroke-linecap:square;"/>
   </g>
   <g id="line2d_53">
    <path clip-path="url(#pfa2f540dca)" d="M 390.652259 99.531909 
L 390.188397 99.995771 
L 390.188397 100.459634 
L 390.188397 100.923497 
L 390.652259 100.923497 
L 391.116122 100.459634 
L 391.579985 100.459634 
L 392.971574 100.459634 
L 394.363163 99.995771 
L 395.290888 99.995771 
L 397.14634 99.531909 
L 398.074066 99.531909 
L 399.001791 99.531909 
" style="fill:none;stroke:#8c8c8c;stroke-linecap:square;"/>
   </g>
   <g id="line2d_54">
    <path clip-path="url(#pfa2f540dca)" d="M 421.26721 103.706675 
L 421.731073 103.242812 
L 421.26721 103.242812 
L 421.26721 102.778949 
L 420.803347 102.778949 
L 420.339484 102.778949 
L 419.875622 102.778949 
L 419.411759 102.778949 
L 418.484033 103.242812 
L 417.556307 103.706675 
L 416.628581 104.170538 
L 415.700856 105.562126 
L 415.236993 106.025989 
L 415.236993 106.489852 
L 415.700856 106.953715 
L 416.164718 107.417578 
L 416.628581 106.953715 
L 417.556307 106.953715 
L 418.947896 106.489852 
L 420.339484 105.098263 
L 421.26721 104.6344 
L 421.731073 104.170538 
L 422.194936 103.242812 
L 422.194936 102.778949 
L 422.194936 102.315086 
L 422.194936 102.778949 
L 422.658799 102.778949 
L 422.658799 103.706675 
L 422.658799 105.098263 
L 423.122662 105.562126 
L 423.122662 106.489852 
L 423.586525 106.953715 
L 423.586525 107.881441 
L 424.050388 108.345304 
" style="fill:none;stroke:#8c8c8c;stroke-linecap:square;"/>
   </g>
   <g id="line2d_55">
    <path clip-path="url(#pfa2f540dca)" d="M 452.809887 103.706675 
L 453.27375 103.242812 
L 453.27375 102.778949 
L 453.27375 102.315086 
L 452.809887 102.315086 
L 452.346024 101.851223 
L 451.882161 102.315086 
L 451.418298 102.315086 
L 450.954435 102.778949 
L 450.490572 102.778949 
L 450.02671 103.706675 
L 449.562847 104.6344 
L 449.098984 106.489852 
L 449.098984 107.417578 
L 449.098984 108.345304 
L 450.02671 109.736892 
L 450.490572 110.200755 
L 451.882161 110.664618 
L 452.809887 110.664618 
L 453.737613 110.664618 
L 455.129201 110.200755 
L 456.056927 109.736892 
L 456.056927 109.273029 
" style="fill:none;stroke:#8c8c8c;stroke-linecap:square;"/>
   </g>
   <g id="line2d_56">
    <path clip-path="url(#pfa2f540dca)" d="M 459.303967 104.6344 
L 459.303967 104.170538 
L 459.76783 104.170538 
L 460.231693 104.6344 
L 460.231693 105.098263 
L 460.231693 105.562126 
L 460.695556 106.025989 
L 460.695556 106.953715 
L 461.159419 107.417578 
L 461.159419 107.881441 
L 461.159419 108.345304 
" style="fill:none;stroke:#8c8c8c;stroke-linecap:square;"/>
   </g>
   <g id="line2d_57">
    <path clip-path="url(#pfa2f540dca)" d="M 460.695556 99.995771 
L 460.695556 98.604183 
L 460.695556 98.14032 
L 460.231693 98.14032 
" style="fill:none;stroke:#8c8c8c;stroke-linecap:square;"/>
   </g>
   <g id="line2d_58">
    <path clip-path="url(#pfa2f540dca)" d="M 464.870322 103.706675 
L 464.870322 104.170538 
L 465.334185 104.6344 
L 465.798048 105.562126 
L 466.261911 106.489852 
L 466.725774 106.953715 
L 467.189637 107.881441 
L 467.189637 108.345304 
L 467.653499 109.273029 
L 468.117362 109.273029 
L 468.117362 109.736892 
L 468.117362 109.273029 
L 468.117362 108.809166 
L 467.653499 108.345304 
L 467.653499 107.881441 
L 467.653499 106.489852 
L 467.653499 105.562126 
L 467.653499 105.098263 
L 468.117362 103.706675 
L 468.581225 103.242812 
L 469.508951 102.315086 
L 469.972814 102.315086 
" style="fill:none;stroke:#8c8c8c;stroke-linecap:square;"/>
   </g>
   <g id="line2d_59">
    <path clip-path="url(#pfa2f540dca)" d="M 477.858483 100.923497 
L 477.39462 100.923497 
L 476.466894 101.851223 
L 476.003031 102.315086 
L 475.075306 102.778949 
L 474.611443 103.706675 
L 474.14758 103.706675 
L 473.683717 104.6344 
L 473.683717 105.562126 
L 473.683717 106.489852 
L 473.683717 106.953715 
L 474.14758 107.417578 
L 474.611443 108.345304 
L 475.539169 108.809166 
L 476.003031 108.809166 
L 476.466894 108.809166 
L 476.930757 108.809166 
L 477.858483 108.345304 
L 478.322346 107.881441 
L 478.786209 106.953715 
" style="fill:none;stroke:#8c8c8c;stroke-linecap:square;"/>
   </g>
   <g id="line2d_60">
    <path clip-path="url(#pfa2f540dca)" d="M 481.105523 99.068046 
L 481.105523 98.14032 
L 481.569386 97.676457 
L 481.569386 98.14032 
L 481.569386 99.068046 
L 481.569386 99.531909 
L 481.569386 101.38736 
L 481.569386 102.315086 
L 482.033249 103.706675 
L 482.033249 105.562126 
L 482.497112 106.489852 
L 482.497112 107.417578 
L 482.960975 108.345304 
L 482.960975 108.809166 
" style="fill:none;stroke:#8c8c8c;stroke-linecap:square;"/>
   </g>
   <g id="line2d_61">
    <path clip-path="url(#pfa2f540dca)" d="M 485.744152 106.025989 
L 485.744152 105.562126 
L 486.208015 105.562126 
L 486.671878 105.098263 
L 487.135741 105.098263 
L 487.599604 104.6344 
L 488.991192 104.170538 
L 489.455055 103.706675 
L 490.382781 103.242812 
L 490.846644 102.315086 
L 491.310507 101.851223 
L 491.77437 101.38736 
L 491.77437 100.923497 
L 491.310507 100.923497 
L 491.310507 100.459634 
L 490.846644 100.459634 
L 490.382781 100.459634 
L 489.918918 100.923497 
L 488.991192 101.38736 
L 488.52733 102.315086 
L 488.063467 103.242812 
L 488.063467 104.170538 
L 488.063467 105.562126 
L 488.52733 106.489852 
L 489.455055 107.417578 
L 490.382781 107.881441 
L 491.310507 107.881441 
L 492.702096 107.881441 
L 493.629821 107.881441 
L 495.485273 106.953715 
L 496.412999 106.489852 
" style="fill:none;stroke:#8c8c8c;stroke-linecap:square;"/>
   </g>
   <g id="line2d_62">
    <path clip-path="url(#pfa2f540dca)" d="M 355.39868 128.755271 
L 355.862543 128.291408 
L 356.326405 127.827545 
L 356.326405 127.363682 
L 356.790268 127.363682 
L 356.790268 126.899819 
L 356.790268 127.363682 
L 357.254131 127.827545 
L 357.254131 129.219134 
L 357.254131 130.146859 
L 357.717994 132.002311 
L 357.717994 133.3939 
L 357.717994 134.785488 
L 358.181857 135.713214 
L 358.181857 136.177077 
L 358.181857 136.64094 
L 358.181857 137.104803 
L 358.181857 137.568666 
" style="fill:none;stroke:#8c8c8c;stroke-linecap:square;"/>
   </g>
   <g id="line2d_63">
    <path clip-path="url(#pfa2f540dca)" d="M 361.428897 127.363682 
L 361.89276 127.363682 
L 362.356623 127.363682 
L 362.356623 127.827545 
L 362.356623 128.291408 
L 362.820486 128.755271 
L 362.820486 129.682997 
L 362.820486 130.610722 
L 363.284349 132.466174 
L 363.284349 133.3939 
L 363.284349 134.321625 
L 363.284349 135.713214 
L 363.284349 137.104803 
L 363.284349 137.568666 
L 363.748212 138.032529 
L 363.748212 138.496391 
" style="fill:none;stroke:#8c8c8c;stroke-linecap:square;"/>
   </g>
   <g id="line2d_64">
    <path clip-path="url(#pfa2f540dca)" d="M 351.687776 127.363682 
L 351.223914 127.363682 
L 351.223914 126.899819 
L 351.687776 126.899819 
L 352.151639 126.435956 
L 352.615502 125.972093 
L 353.079365 125.508231 
L 354.007091 124.580505 
L 355.39868 123.188916 
L 356.326405 122.26119 
L 356.790268 121.797327 
L 356.790268 121.333464 
L 357.254131 121.333464 
L 357.717994 121.797327 
L 357.717994 122.26119 
L 357.717994 122.725053 
L 357.717994 123.188916 
L 358.181857 124.116642 
L 358.64572 124.580505 
L 359.109583 125.044368 
L 360.037309 125.508231 
L 360.965034 125.044368 
L 362.356623 124.580505 
L 363.284349 124.116642 
L 363.748212 123.652779 
L 364.675937 123.188916 
L 365.1398 122.725053 
L 365.603663 122.26119 
L 366.067526 121.797327 
L 366.531389 121.797327 
" style="fill:none;stroke:#8c8c8c;stroke-linecap:square;"/>
   </g>
   <g id="line2d_65">
    <path clip-path="url(#pfa2f540dca)" d="M 375.344784 132.002311 
L 375.344784 131.538448 
L 374.880921 131.538448 
L 374.880921 131.074585 
L 374.417058 131.074585 
L 374.417058 130.610722 
L 374.417058 130.146859 
L 374.417058 130.610722 
L 374.417058 131.538448 
L 374.880921 132.466174 
L 375.344784 132.930037 
L 375.808647 134.321625 
L 375.808647 134.785488 
L 376.27251 135.249351 
L 376.27251 135.713214 
L 376.27251 136.177077 
L 376.27251 135.713214 
L 376.27251 134.785488 
L 376.27251 133.857763 
L 376.736373 132.466174 
L 376.736373 131.074585 
L 377.200236 130.146859 
L 377.664098 128.755271 
L 378.127961 128.291408 
L 378.591824 127.827545 
L 379.055687 127.363682 
L 379.51955 127.363682 
" style="fill:none;stroke:#8c8c8c;stroke-linecap:square;"/>
   </g>
   <g id="line2d_66">
    <path clip-path="url(#pfa2f540dca)" d="M 383.694316 119.941876 
L 382.76659 119.941876 
L 382.302727 119.941876 
L 382.76659 119.941876 
L 383.230453 119.941876 
L 384.622042 119.941876 
L 385.549768 119.941876 
L 386.01363 119.941876 
L 386.941356 120.405739 
L 387.405219 120.405739 
L 387.869082 120.869602 
L 387.405219 121.333464 
L 387.405219 121.797327 
L 386.941356 122.725053 
L 386.01363 123.652779 
L 385.549768 125.044368 
L 385.085905 125.508231 
L 385.085905 126.435956 
L 385.549768 126.899819 
L 385.549768 127.363682 
L 386.477493 127.827545 
L 387.405219 127.827545 
L 388.332945 127.827545 
L 389.260671 127.827545 
L 390.188397 127.827545 
L 391.116122 127.827545 
L 391.579985 127.363682 
" style="fill:none;stroke:#8c8c8c;stroke-linecap:square;"/>
   </g>
   <g id="line2d_67">
    <path clip-path="url(#pfa2f540dca)" d="M 413.845404 129.219134 
L 413.381541 129.219134 
L 413.381541 128.755271 
L 412.917678 128.755271 
L 413.381541 128.755271 
L 413.845404 128.755271 
L 414.309267 128.755271 
L 414.77313 128.755271 
L 416.164718 128.755271 
L 416.628581 128.755271 
L 417.556307 128.755271 
L 418.484033 128.291408 
" style="fill:none;stroke:#8c8c8c;stroke-linecap:square;"/>
   </g>
   <g id="line2d_68">
    <path clip-path="url(#pfa2f540dca)" d="M 412.917678 134.785488 
L 412.917678 135.249351 
L 412.453815 135.249351 
L 412.917678 135.713214 
L 413.845404 135.713214 
L 414.309267 135.713214 
L 415.236993 135.713214 
L 416.628581 135.713214 
L 417.556307 135.713214 
L 418.947896 135.249351 
L 419.875622 135.249351 
" style="fill:none;stroke:#8c8c8c;stroke-linecap:square;"/>
   </g>
   <g id="line2d_69">
    <path clip-path="url(#pfa2f540dca)" d="M 437.966274 126.899819 
L 437.966274 126.435956 
L 437.966274 125.972093 
L 437.966274 125.508231 
L 438.430137 125.044368 
L 437.966274 125.044368 
L 437.966274 125.508231 
L 437.966274 125.972093 
L 437.966274 126.435956 
L 437.502411 127.363682 
L 437.038549 128.291408 
L 436.574686 129.682997 
L 436.110823 131.538448 
L 435.64696 132.466174 
L 435.183097 133.3939 
L 434.719234 134.321625 
L 434.719234 134.785488 
L 434.719234 135.249351 
L 434.719234 135.713214 
L 434.719234 134.785488 
L 435.183097 134.321625 
L 435.64696 133.3939 
L 435.64696 132.466174 
L 436.574686 130.146859 
L 436.574686 128.755271 
L 437.038549 127.363682 
L 437.502411 125.044368 
L 437.966274 124.116642 
L 438.430137 122.26119 
L 438.430137 121.333464 
L 438.894 120.869602 
L 439.357863 120.405739 
L 439.357863 119.941876 
L 439.821726 119.941876 
L 440.285589 120.869602 
L 440.749452 121.333464 
L 440.749452 122.725053 
L 441.213315 124.116642 
L 441.213315 125.508231 
L 441.677177 128.291408 
L 442.14104 130.610722 
L 442.14104 132.466174 
L 442.14104 133.857763 
L 442.14104 134.785488 
L 442.14104 136.177077 
L 442.604903 136.64094 
L 442.604903 137.568666 
" style="fill:none;stroke:#8c8c8c;stroke-linecap:square;"/>
   </g>
   <g id="line2d_70">
    <path clip-path="url(#pfa2f540dca)" d="M 435.64696 127.363682 
L 435.64696 127.827545 
L 436.110823 128.291408 
L 436.574686 128.755271 
L 437.502411 129.219134 
L 437.966274 129.682997 
L 439.357863 130.146859 
L 440.285589 130.146859 
L 440.749452 130.610722 
L 441.677177 131.074585 
L 442.604903 131.074585 
L 443.068766 131.538448 
L 443.532629 131.538448 
L 443.996492 131.538448 
" style="fill:none;stroke:#8c8c8c;stroke-linecap:square;"/>
   </g>
   <g id="line2d_71">
    <path clip-path="url(#pfa2f540dca)" d="M 450.02671 129.682997 
L 449.562847 129.682997 
L 450.02671 130.146859 
L 450.02671 131.074585 
L 450.02671 131.538448 
L 450.490572 132.002311 
L 450.490572 132.466174 
L 450.954435 133.3939 
L 450.954435 133.857763 
L 450.954435 134.321625 
L 450.954435 134.785488 
L 450.954435 134.321625 
L 450.954435 133.857763 
L 450.490572 132.930037 
L 450.954435 132.466174 
L 450.954435 130.610722 
L 451.418298 129.682997 
L 451.882161 128.755271 
L 451.882161 128.291408 
L 452.346024 127.827545 
L 453.27375 127.363682 
L 453.737613 127.363682 
L 454.201476 127.363682 
L 454.665338 127.363682 
" style="fill:none;stroke:#8c8c8c;stroke-linecap:square;"/>
   </g>
   <g id="line2d_72">
    <path clip-path="url(#pfa2f540dca)" d="M 458.840104 129.219134 
L 458.840104 129.682997 
L 458.840104 130.146859 
L 459.303967 130.610722 
L 459.76783 130.610722 
L 460.231693 131.074585 
L 460.695556 131.074585 
L 461.159419 130.610722 
L 461.623282 130.610722 
L 461.623282 130.146859 
L 462.087145 130.146859 
L 462.087145 129.682997 
L 461.623282 129.682997 
L 461.159419 129.682997 
L 460.695556 129.682997 
L 460.695556 130.146859 
L 460.231693 130.146859 
L 459.76783 130.610722 
L 459.303967 131.074585 
L 459.303967 132.002311 
L 459.303967 132.930037 
L 459.303967 133.3939 
L 459.303967 133.857763 
L 459.76783 134.321625 
L 460.695556 134.785488 
L 461.623282 135.249351 
L 462.087145 135.249351 
" style="fill:none;stroke:#8c8c8c;stroke-linecap:square;"/>
   </g>
   <g id="line2d_73">
    <path clip-path="url(#pfa2f540dca)" d="M 467.189637 132.002311 
L 467.653499 131.538448 
L 467.189637 131.538448 
L 467.189637 131.074585 
L 466.725774 131.074585 
L 466.261911 131.538448 
L 465.798048 131.538448 
L 464.870322 132.466174 
L 464.406459 132.930037 
L 463.942596 133.857763 
L 463.942596 134.321625 
L 463.942596 134.785488 
L 463.942596 135.249351 
L 464.406459 135.713214 
L 465.334185 135.713214 
L 465.798048 135.713214 
L 466.725774 135.249351 
L 467.653499 134.785488 
L 468.117362 133.857763 
L 468.581225 132.930037 
L 469.045088 132.466174 
L 469.045088 132.002311 
L 469.045088 131.074585 
L 469.045088 130.610722 
L 469.045088 130.146859 
L 469.045088 130.610722 
L 469.045088 131.074585 
L 469.045088 131.538448 
L 469.508951 132.002311 
L 469.508951 132.930037 
L 469.508951 133.857763 
L 469.972814 134.785488 
L 469.972814 135.249351 
L 470.436677 136.177077 
L 470.436677 136.64094 
L 470.90054 136.64094 
" style="fill:none;stroke:#8c8c8c;stroke-linecap:square;"/>
   </g>
   <g id="line2d_74">
    <path clip-path="url(#pfa2f540dca)" d="M 495.485273 131.074585 
L 495.02141 131.074585 
L 494.557547 131.074585 
L 494.557547 131.538448 
L 494.093684 131.538448 
L 493.629821 132.002311 
L 493.629821 132.466174 
L 493.629821 132.930037 
L 493.629821 133.3939 
L 493.629821 133.857763 
L 493.629821 134.321625 
L 494.093684 134.321625 
L 494.557547 134.785488 
L 495.02141 134.785488 
L 495.949136 134.785488 
L 496.412999 134.321625 
L 496.412999 133.857763 
L 496.876862 133.3939 
L 496.876862 132.466174 
L 496.412999 132.002311 
L 495.485273 131.074585 
L 495.02141 130.610722 
L 494.093684 130.610722 
L 493.629821 130.610722 
L 493.165958 130.610722 
L 492.702096 130.610722 
L 492.238233 131.074585 
L 492.238233 131.538448 
" style="fill:none;stroke:#8c8c8c;stroke-linecap:square;"/>
   </g>
   <g id="line2d_75">
    <path clip-path="url(#pfa2f540dca)" d="M 500.123902 130.610722 
L 500.587765 130.610722 
L 501.051628 130.610722 
L 501.51549 131.074585 
L 501.979353 131.074585 
L 501.979353 131.538448 
L 502.443216 131.538448 
L 502.443216 131.074585 
L 501.979353 130.610722 
L 501.51549 130.146859 
L 501.051628 128.755271 
L 500.123902 126.899819 
L 499.660039 125.508231 
L 499.196176 123.652779 
L 498.732313 121.797327 
L 498.732313 120.869602 
L 499.196176 119.941876 
L 499.196176 119.478013 
L 499.660039 119.01415 
L 500.123902 118.550287 
L 501.051628 118.550287 
L 501.51549 118.550287 
L 501.979353 118.550287 
L 502.443216 118.550287 
L 502.907079 119.01415 
L 502.907079 119.478013 
" style="fill:none;stroke:#8c8c8c;stroke-linecap:square;"/>
   </g>
   <g id="line2d_76">
    <path clip-path="url(#pfa2f540dca)" d="M 498.732313 125.972093 
L 498.732313 126.435956 
L 498.26845 126.899819 
L 497.804587 127.363682 
L 497.804587 127.827545 
L 497.804587 128.291408 
L 498.26845 128.291408 
L 498.732313 128.291408 
L 500.123902 128.291408 
L 501.979353 127.827545 
L 503.370942 127.827545 
L 504.762531 127.363682 
L 506.154119 127.363682 
" style="fill:none;stroke:#8c8c8c;stroke-linecap:square;"/>
   </g>
   <g id="line2d_77">
    <path clip-path="url(#pfa2f540dca)" d="M 525.172498 131.074585 
L 525.172498 130.610722 
L 525.172498 130.146859 
L 524.708635 130.146859 
L 524.244772 130.146859 
L 523.780909 130.146859 
L 523.317046 130.146859 
L 522.853184 130.610722 
L 522.389321 131.074585 
L 521.461595 131.538448 
L 520.997732 132.002311 
L 520.533869 132.466174 
L 520.533869 132.930037 
L 520.533869 133.3939 
L 520.997732 133.3939 
L 521.461595 133.3939 
L 521.925458 133.3939 
L 522.389321 132.930037 
L 522.853184 132.466174 
L 523.317046 132.002311 
L 523.780909 131.538448 
L 524.244772 131.074585 
L 524.708635 131.074585 
L 524.708635 130.610722 
L 525.172498 131.074585 
L 525.636361 131.538448 
L 526.100224 132.002311 
L 526.100224 132.466174 
L 526.564087 132.930037 
L 527.02795 133.3939 
L 527.02795 133.857763 
L 527.491812 134.321625 
L 527.491812 134.785488 
L 527.491812 135.249351 
" style="fill:none;stroke:#8c8c8c;stroke-linecap:square;"/>
   </g>
   <g id="line2d_78">
    <path clip-path="url(#pfa2f540dca)" d="M 553.004271 128.755271 
L 552.540409 128.755271 
L 552.076546 128.755271 
L 551.612683 128.755271 
L 551.14882 128.755271 
L 550.684957 128.755271 
L 550.221094 129.219134 
L 549.757231 129.219134 
L 549.293368 129.682997 
L 548.829505 130.610722 
L 548.829505 131.074585 
L 548.829505 132.002311 
L 549.293368 132.930037 
L 549.757231 133.3939 
L 550.221094 133.857763 
L 550.684957 134.321625 
L 551.612683 134.321625 
L 552.540409 134.321625 
L 553.004271 133.857763 
L 553.468134 133.3939 
" style="fill:none;stroke:#8c8c8c;stroke-linecap:square;"/>
   </g>
   <g id="line2d_79">
    <path clip-path="url(#pfa2f540dca)" d="M 556.715175 128.755271 
L 557.179037 128.755271 
L 557.179037 129.219134 
L 557.179037 129.682997 
L 557.179037 130.146859 
L 557.6429 131.074585 
L 557.6429 131.538448 
L 557.6429 132.002311 
L 557.6429 132.930037 
L 558.106763 132.930037 
L 558.106763 133.3939 
" style="fill:none;stroke:#8c8c8c;stroke-linecap:square;"/>
   </g>
   <g id="line2d_80">
    <path clip-path="url(#pfa2f540dca)" d="M 557.179037 126.435956 
L 557.179037 125.972093 
L 557.179037 124.116642 
L 556.715175 123.652779 
L 556.715175 123.188916 
L 557.179037 123.188916 
" style="fill:none;stroke:#8c8c8c;stroke-linecap:square;"/>
   </g>
   <g id="line2d_81">
    <path clip-path="url(#pfa2f540dca)" d="M 561.353804 128.291408 
L 561.353804 129.219134 
L 561.817666 129.682997 
L 561.817666 130.146859 
L 562.281529 131.074585 
L 562.281529 131.538448 
L 562.745392 131.538448 
L 562.745392 132.002311 
L 562.745392 132.466174 
L 562.745392 132.002311 
L 562.745392 131.538448 
L 562.745392 131.074585 
L 562.281529 130.610722 
L 562.281529 130.146859 
L 562.745392 129.219134 
L 562.745392 128.755271 
L 563.209255 128.291408 
L 563.673118 127.827545 
L 564.136981 127.363682 
L 565.064707 126.899819 
" style="fill:none;stroke:#8c8c8c;stroke-linecap:square;"/>
   </g>
   <g id="line2d_82">
    <path clip-path="url(#pfa2f540dca)" d="M 571.094924 125.044368 
L 570.631061 125.508231 
L 570.167198 126.435956 
L 569.703336 126.899819 
L 569.703336 127.363682 
L 569.239473 128.291408 
L 569.239473 128.755271 
L 569.703336 129.682997 
L 570.167198 130.146859 
L 570.167198 130.610722 
L 571.094924 131.074585 
L 571.558787 131.538448 
L 572.02265 131.538448 
L 572.486513 131.538448 
L 572.950376 131.538448 
" style="fill:none;stroke:#8c8c8c;stroke-linecap:square;"/>
   </g>
   <g id="line2d_83">
    <path clip-path="url(#pfa2f540dca)" d="M 575.733553 122.725053 
L 575.733553 122.26119 
L 575.733553 121.797327 
L 575.733553 122.26119 
L 575.733553 122.725053 
L 575.733553 123.188916 
L 575.733553 123.652779 
L 575.733553 125.508231 
L 575.733553 126.435956 
L 576.197416 127.827545 
L 576.197416 128.755271 
L 576.197416 129.682997 
L 576.661279 131.074585 
" style="fill:none;stroke:#8c8c8c;stroke-linecap:square;"/>
   </g>
   <g id="line2d_84">
    <path clip-path="url(#pfa2f540dca)" d="M 578.516731 131.538448 
L 578.980593 131.538448 
L 579.444456 131.538448 
L 579.444456 131.074585 
L 579.908319 131.074585 
L 580.372182 130.610722 
L 580.836045 130.146859 
L 581.299908 130.146859 
L 582.227634 129.219134 
L 583.155359 128.291408 
L 583.619222 127.827545 
L 584.083085 127.363682 
L 584.083085 126.899819 
L 584.083085 126.435956 
L 583.619222 126.435956 
L 583.155359 126.899819 
L 582.691497 127.363682 
L 582.227634 128.291408 
L 582.227634 129.219134 
L 582.227634 130.146859 
L 582.691497 131.074585 
L 583.155359 132.002311 
L 583.619222 132.466174 
L 584.546948 132.930037 
L 585.474674 133.3939 
L 586.866263 133.3939 
L 587.330125 133.3939 
L 588.257851 132.930037 
" style="fill:none;stroke:#8c8c8c;stroke-linecap:square;"/>
   </g>
   <g id="line2d_85">
    <path clip-path="url(#pfa2f540dca)" d="M 327.103043 123.652779 
L 327.103043 123.188916 
L 327.103043 122.725053 
L 327.103043 122.26119 
L 327.566906 122.26119 
L 327.566906 121.797327 
L 327.566906 121.333464 
L 328.030769 121.333464 
L 328.030769 121.797327 
L 328.030769 122.26119 
L 328.030769 122.725053 
L 328.030769 123.652779 
L 327.566906 125.044368 
L 327.566906 125.972093 
L 327.566906 127.363682 
L 327.566906 128.291408 
L 328.030769 129.219134 
L 328.494632 130.146859 
L 328.958495 130.610722 
L 329.886221 131.074585 
L 330.813946 131.074585 
L 331.741672 131.538448 
L 332.669398 131.538448 
L 333.133261 131.538448 
L 333.597124 131.538448 
L 333.597124 131.074585 
" style="fill:none;stroke:#8c8c8c;stroke-linecap:square;"/>
   </g>
   <g id="line2d_86">
    <path clip-path="url(#pfa2f540dca)" d="M 337.308027 122.26119 
L 337.308027 121.797327 
L 337.308027 121.333464 
L 336.844164 121.333464 
L 336.844164 121.797327 
L 336.380301 122.725053 
L 336.380301 123.652779 
L 335.916438 125.508231 
L 335.916438 126.899819 
L 335.452575 129.219134 
L 335.452575 132.466174 
L 334.988712 135.713214 
L 334.988712 137.568666 
L 334.988712 139.424117 
L 334.988712 140.815706 
L 335.452575 142.671158 
L 335.452575 143.598883 
L 335.452575 144.062746 
L 335.452575 144.526609 
L 335.452575 144.062746 
" style="fill:none;stroke:#8c8c8c;stroke-linecap:square;"/>
   </g>
  </g>
 </g>
 <defs>
  <clipPath id="pfa2f540dca">
   <rect height="163.789987" width="608.727273" x="7.2" y="7.2"/>
  </clipPath>
 </defs>
</svg>
