<?xml version="1.0" encoding="utf-8" standalone="no"?>
<!DOCTYPE svg PUBLIC "-//W3C//DTD SVG 1.1//EN"
  "http://www.w3.org/Graphics/SVG/1.1/DTD/svg11.dtd">
<!-- Created with matplotlib (https://matplotlib.org/) -->
<svg height="286.2pt" version="1.1" viewBox="0 0 441.912301 286.2" width="441.912301pt" xmlns="http://www.w3.org/2000/svg" xmlns:xlink="http://www.w3.org/1999/xlink">
 <metadata>
  <rdf:RDF xmlns:cc="http://creativecommons.org/ns#" xmlns:dc="http://purl.org/dc/elements/1.1/" xmlns:rdf="http://www.w3.org/1999/02/22-rdf-syntax-ns#">
   <cc:Work>
    <dc:type rdf:resource="http://purl.org/dc/dcmitype/StillImage"/>
    <dc:date>2024-11-15T16:04:10.946520</dc:date>
    <dc:format>image/svg+xml</dc:format>
    <dc:creator>
     <cc:Agent>
      <dc:title>Matplotlib v3.3.4, https://matplotlib.org/</dc:title>
     </cc:Agent>
    </dc:creator>
   </cc:Work>
  </rdf:RDF>
 </metadata>
 <defs>
  <style type="text/css">*{stroke-linecap:butt;stroke-linejoin:round;}</style>
 </defs>
 <g id="figure_1">
  <g id="patch_1">
   <path d="M 0 286.2 
L 441.912301 286.2 
L 441.912301 0 
L 0 0 
z
" style="fill:#ffffff;"/>
  </g>
  <g id="axes_1">
   <g id="line2d_1">
    <path clip-path="url(#p87ad74c7c6)" d="M 152.992079 57.828308 
L 152.710654 57.828308 
L 152.710654 58.109733 
L 152.42923 58.109733 
L 152.147805 58.109733 
L 151.86638 58.109733 
L 151.584955 58.391158 
L 151.022106 58.672582 
L 150.459257 58.954007 
L 149.896407 59.516856 
L 149.333558 60.361131 
L 149.333558 61.48683 
L 149.333558 62.331104 
L 149.896407 62.893953 
L 150.459257 63.175378 
L 151.303531 62.612528 
L 151.86638 62.049679 
L 152.42923 60.642555 
L 152.992079 58.672582 
L 153.273504 56.984034 
L 153.273504 55.014061 
L 153.554929 53.325513 
L 153.554929 52.481238 
L 153.554929 51.636964 
L 153.554929 51.074115 
L 153.273504 51.074115 
L 153.273504 51.355539 
L 153.273504 52.481238 
L 153.273504 54.451211 
L 153.273504 57.546883 
L 153.554929 59.516856 
L 153.836353 61.205405 
L 154.117778 62.049679 
L 154.399203 62.049679 
L 154.399203 61.768254 
" style="fill:none;stroke:#8c8c8c;stroke-linecap:square;"/>
   </g>
   <g id="line2d_2">
    <path clip-path="url(#p87ad74c7c6)" d="M 156.369176 56.702609 
L 156.087751 56.702609 
L 156.087751 56.984034 
L 156.087751 57.265459 
L 156.087751 57.546883 
L 156.087751 57.828308 
L 156.087751 58.109733 
L 156.087751 58.672582 
L 156.369176 59.516856 
L 156.369176 60.642555 
L 156.650601 61.768254 
L 156.932025 62.331104 
L 156.932025 62.612528 
L 156.932025 62.331104 
L 156.932025 62.049679 
L 156.932025 60.642555 
L 156.932025 58.672582 
L 157.21345 56.702609 
L 157.494875 55.014061 
L 157.776299 53.888362 
L 158.057724 53.325513 
L 158.339149 53.325513 
L 158.620574 53.606937 
L 158.901998 54.732636 
L 158.901998 55.858335 
L 159.183423 57.265459 
L 159.183423 58.109733 
L 159.183423 58.391158 
L 159.464848 57.546883 
L 159.746273 55.858335 
L 160.027697 54.169787 
L 160.590547 53.044088 
L 160.871971 52.481238 
L 161.153396 52.481238 
L 161.434821 52.481238 
L 161.716246 53.606937 
L 161.99767 55.57691 
L 162.279095 58.391158 
L 162.56052 60.92398 
L 162.841945 62.612528 
L 162.841945 63.456803 
L 162.56052 63.175378 
" style="fill:none;stroke:#8c8c8c;stroke-linecap:square;"/>
   </g>
   <g id="line2d_3">
    <path clip-path="url(#p87ad74c7c6)" d="M 150.177832 68.241023 
L 149.896407 68.522448 
L 149.896407 68.803872 
L 150.177832 68.803872 
L 151.303531 68.803872 
L 154.962052 68.241023 
L 158.339149 67.678174 
L 160.871971 67.396749 
L 162.56052 67.115324 
L 163.123369 66.833899 
L 163.686219 66.552475 
L 163.686219 66.27105 
" style="fill:none;stroke:#8c8c8c;stroke-linecap:square;"/>
   </g>
   <g id="line2d_4">
    <path clip-path="url(#p87ad74c7c6)" d="M 155.243477 76.965189 
L 155.243477 76.683765 
L 155.243477 76.40234 
L 155.243477 76.120915 
L 155.243477 75.839491 
L 154.962052 75.558066 
L 154.962052 75.276641 
L 154.399203 74.995216 
L 153.836353 75.558066 
L 153.273504 76.40234 
L 152.992079 77.809464 
L 152.992079 78.372313 
L 153.273504 78.653738 
L 153.836353 78.653738 
L 154.399203 77.809464 
L 154.962052 76.120915 
L 155.243477 74.150942 
L 155.806326 72.462394 
L 155.806326 71.336695 
L 155.806326 70.773846 
L 155.806326 70.492421 
L 155.806326 71.05527 
L 155.524902 72.180969 
L 155.243477 73.588093 
L 155.524902 75.558066 
L 155.806326 76.965189 
L 156.087751 78.090888 
L 156.369176 78.935163 
L 156.650601 79.216587 
L 157.21345 79.216587 
L 157.776299 78.935163 
L 158.339149 78.372313 
L 158.901998 77.528039 
" style="fill:none;stroke:#8c8c8c;stroke-linecap:square;"/>
   </g>
   <g id="line2d_5">
    <path clip-path="url(#p87ad74c7c6)" d="M 161.153396 72.462394 
L 161.153396 72.180969 
L 161.153396 71.899544 
L 160.871971 71.61812 
L 160.871971 71.899544 
L 160.871971 72.180969 
L 160.871971 73.306668 
L 160.590547 74.713792 
L 160.871971 76.40234 
L 161.153396 77.528039 
L 161.434821 77.809464 
L 161.716246 77.809464 
L 161.99767 77.246614 
L 162.279095 76.40234 
" style="fill:none;stroke:#8c8c8c;stroke-linecap:square;"/>
   </g>
   <g id="line2d_6">
    <path clip-path="url(#p87ad74c7c6)" d="M 160.590547 73.869517 
L 160.027697 74.150942 
L 159.183423 74.432367 
L 158.901998 74.713792 
L 159.464848 74.995216 
L 160.309122 74.713792 
L 161.716246 74.150942 
L 163.123369 73.588093 
L 163.404794 73.306668 
" style="fill:none;stroke:#8c8c8c;stroke-linecap:square;"/>
   </g>
   <g id="line2d_7">
    <path clip-path="url(#p87ad74c7c6)" d="M 176.631756 63.738227 
L 176.350331 63.738227 
L 176.350331 64.019652 
L 176.631756 64.019652 
L 177.194606 64.019652 
L 178.601729 63.738227 
" style="fill:none;stroke:#8c8c8c;stroke-linecap:square;"/>
   </g>
   <g id="line2d_8">
    <path clip-path="url(#p87ad74c7c6)" d="M 177.757455 67.678174 
L 177.47603 67.678174 
L 177.47603 67.959598 
L 177.47603 68.241023 
L 178.320304 67.959598 
L 179.446003 67.678174 
L 180.853127 67.115324 
L 181.415976 67.115324 
" style="fill:none;stroke:#8c8c8c;stroke-linecap:square;"/>
   </g>
   <g id="line2d_9">
    <path clip-path="url(#p87ad74c7c6)" d="M 194.080089 57.828308 
L 193.798664 58.109733 
L 194.080089 59.235432 
L 194.361514 60.92398 
L 194.924363 63.738227 
L 195.487213 66.552475 
L 195.768637 68.241023 
L 196.050062 69.085297 
L 196.050062 69.366722 
" style="fill:none;stroke:#8c8c8c;stroke-linecap:square;"/>
   </g>
   <g id="line2d_10">
    <path clip-path="url(#p87ad74c7c6)" d="M 192.672965 57.546883 
L 192.672965 57.828308 
L 192.95439 57.828308 
L 193.235815 57.828308 
L 194.642938 57.546883 
L 196.050062 57.265459 
L 197.73861 56.421185 
L 198.582885 56.13976 
L 198.864309 55.858335 
" style="fill:none;stroke:#8c8c8c;stroke-linecap:square;"/>
   </g>
   <g id="line2d_11">
    <path clip-path="url(#p87ad74c7c6)" d="M 193.51724 60.92398 
L 193.235815 60.92398 
L 193.51724 61.205405 
L 193.798664 61.48683 
L 194.361514 61.48683 
L 195.487213 61.205405 
L 196.050062 61.205405 
L 196.894336 60.92398 
L 197.457186 60.642555 
" style="fill:none;stroke:#8c8c8c;stroke-linecap:square;"/>
   </g>
   <g id="line2d_12">
    <path clip-path="url(#p87ad74c7c6)" d="M 200.552858 64.863926 
L 200.834282 65.145351 
L 200.834282 65.426776 
L 200.834282 65.7082 
L 200.834282 66.552475 
L 201.115707 67.115324 
L 201.115707 67.396749 
" style="fill:none;stroke:#8c8c8c;stroke-linecap:square;"/>
   </g>
   <g id="line2d_13">
    <path clip-path="url(#p87ad74c7c6)" d="M 200.834282 62.331104 
L 200.834282 62.049679 
L 200.834282 61.48683 
L 200.552858 61.205405 
L 200.834282 61.205405 
L 200.834282 60.92398 
" style="fill:none;stroke:#8c8c8c;stroke-linecap:square;"/>
   </g>
   <g id="line2d_14">
    <path clip-path="url(#p87ad74c7c6)" d="M 202.522831 64.301077 
L 202.522831 64.582502 
L 202.522831 65.145351 
L 202.522831 65.426776 
L 202.522831 65.7082 
L 202.804256 66.27105 
L 202.804256 66.552475 
L 202.804256 66.833899 
L 202.804256 67.115324 
L 203.08568 66.833899 
L 203.367105 66.552475 
L 203.64853 65.7082 
L 203.929954 64.863926 
L 204.492804 64.582502 
L 204.774229 64.301077 
L 205.337078 64.582502 
L 205.618503 65.145351 
L 206.181352 65.7082 
L 206.181352 66.552475 
L 206.462777 66.833899 
" style="fill:none;stroke:#8c8c8c;stroke-linecap:square;"/>
   </g>
   <g id="line2d_15">
    <path clip-path="url(#p87ad74c7c6)" d="M 222.222562 61.205405 
L 221.659712 61.768254 
L 221.378287 61.768254 
L 221.659712 61.768254 
L 222.503986 61.768254 
L 224.192535 61.205405 
L 225.881083 60.92398 
L 226.725357 60.361131 
L 227.288207 60.361131 
L 227.569631 60.079706 
" style="fill:none;stroke:#8c8c8c;stroke-linecap:square;"/>
   </g>
   <g id="line2d_16">
    <path clip-path="url(#p87ad74c7c6)" d="M 237.700922 51.074115 
L 237.419497 51.074115 
L 237.419497 51.355539 
L 237.700922 51.918389 
L 238.263771 53.888362 
L 238.263771 54.451211 
L 241.078018 62.612528 
L 241.078018 63.456803 
" style="fill:none;stroke:#8c8c8c;stroke-linecap:square;"/>
   </g>
   <g id="line2d_17">
    <path clip-path="url(#p87ad74c7c6)" d="M 243.892265 52.481238 
L 243.892265 52.762663 
L 243.610841 53.044088 
L 243.329416 53.606937 
L 242.766567 53.888362 
L 240.796593 55.295486 
L 239.670895 55.858335 
L 238.82662 56.421185 
L 238.263771 56.702609 
L 239.108045 57.265459 
L 240.515169 57.546883 
L 242.203717 58.672582 
L 243.047991 59.235432 
L 243.892265 60.361131 
L 244.455115 60.92398 
L 244.455115 61.205405 
L 244.73654 61.48683 
L 245.017964 61.48683 
" style="fill:none;stroke:#8c8c8c;stroke-linecap:square;"/>
   </g>
   <g id="line2d_18">
    <path clip-path="url(#p87ad74c7c6)" d="M 254.586405 57.828308 
L 256.274953 61.205405 
L 255.149255 58.391158 
L 254.86783 51.074115 
L 257.682077 56.702609 
L 257.400652 56.421185 
L 257.119228 55.57691 
L 256.837803 52.481238 
L 257.400652 49.385566 
L 257.682077 48.541292 
L 261.059174 52.762663 
L 261.622023 54.169787 
L 262.747722 57.546883 
L 263.310572 58.954007 
L 263.591996 59.235432 
L 263.591996 59.516856 
" style="fill:none;stroke:#8c8c8c;stroke-linecap:square;"/>
   </g>
   <g id="line2d_19">
    <path clip-path="url(#p87ad74c7c6)" d="M 27.195227 45.727045 
L 27.195227 46.00847 
L 26.913802 46.00847 
L 26.632377 46.289894 
L 26.632377 46.571319 
L 26.632377 46.852744 
L 26.632377 47.134169 
L 26.913802 47.134169 
L 27.195227 47.134169 
L 27.195227 46.852744 
L 27.195227 46.571319 
L 26.913802 46.571319 
L 26.632377 46.571319 
L 26.632377 46.852744 
L 26.913802 46.852744 
L 26.913802 46.571319 
L 27.195227 46.571319 
L 27.195227 46.289894 
L 27.195227 46.00847 
" style="fill:none;stroke:#8c8c8c;stroke-linecap:square;"/>
   </g>
   <g id="line2d_20">
    <path clip-path="url(#p87ad74c7c6)" d="M 36.200818 44.601346 
L 36.200818 44.319921 
L 35.919393 44.319921 
L 35.637969 44.319921 
L 35.356544 44.319921 
L 35.356544 44.601346 
L 35.075119 44.601346 
L 34.793694 44.882771 
L 33.94942 45.727045 
L 33.667995 46.571319 
L 33.386571 47.415593 
L 33.94942 47.978443 
L 34.51227 48.259867 
L 35.075119 48.541292 
L 36.482243 48.259867 
L 36.763667 47.978443 
" style="fill:none;stroke:#8c8c8c;stroke-linecap:square;"/>
   </g>
   <g id="line2d_21">
    <path clip-path="url(#p87ad74c7c6)" d="M 38.733641 44.038497 
L 38.733641 43.757072 
L 38.733641 43.475647 
L 38.733641 43.757072 
L 38.733641 44.038497 
L 38.733641 44.319921 
L 39.015065 44.601346 
L 39.015065 46.289894 
L 39.015065 47.415593 
L 39.015065 47.978443 
L 39.29649 47.978443 
L 39.29649 47.697018 
L 39.577915 47.134169 
L 39.859339 46.289894 
L 40.140764 45.727045 
L 40.422189 45.44562 
L 40.703614 45.44562 
L 41.266463 45.727045 
L 41.547888 46.571319 
L 41.547888 47.134169 
L 41.829312 47.978443 
L 41.829312 48.259867 
" style="fill:none;stroke:#8c8c8c;stroke-linecap:square;"/>
   </g>
   <g id="line2d_22">
    <path clip-path="url(#p87ad74c7c6)" d="M 44.64356 46.289894 
L 44.924984 46.289894 
L 44.924984 46.571319 
L 44.924984 46.852744 
L 44.924984 47.134169 
L 44.924984 46.571319 
L 44.362135 45.727045 
L 43.799286 45.44562 
L 43.236436 45.44562 
L 42.673587 45.44562 
L 42.392162 46.00847 
L 42.392162 46.571319 
L 42.955011 46.852744 
L 43.799286 46.852744 
L 44.362135 46.571319 
" style="fill:none;stroke:#8c8c8c;stroke-linecap:square;"/>
   </g>
   <g id="line2d_23">
    <path clip-path="url(#p87ad74c7c6)" d="M 46.613533 45.44562 
L 46.613533 45.164195 
L 46.894958 45.164195 
L 46.894958 45.44562 
L 46.894958 45.727045 
L 47.176382 46.289894 
L 47.176382 46.852744 
L 47.176382 47.134169 
L 47.176382 47.415593 
L 47.176382 47.134169 
L 47.176382 46.852744 
L 47.457807 46.289894 
L 47.457807 45.44562 
L 48.020656 45.164195 
L 48.302081 44.882771 
L 48.583506 45.44562 
L 48.864931 46.571319 
L 49.146355 47.697018 
L 49.42778 48.259867 
L 49.42778 48.541292 
" style="fill:none;stroke:#8c8c8c;stroke-linecap:square;"/>
   </g>
   <g id="line2d_24">
    <path clip-path="url(#p87ad74c7c6)" d="M 52.804877 46.571319 
L 52.804877 46.289894 
L 52.804877 46.00847 
L 52.523452 46.00847 
L 52.242027 46.00847 
L 51.960603 46.289894 
L 51.679178 46.571319 
L 51.679178 46.852744 
L 51.679178 47.415593 
L 52.242027 47.415593 
L 52.804877 47.415593 
L 53.086302 47.134169 
L 53.367726 46.289894 
L 53.086302 46.00847 
L 53.086302 45.727045 
L 53.086302 46.00847 
L 53.367726 46.00847 
L 53.649151 46.571319 
L 53.930576 47.134169 
L 54.212 47.978443 
L 54.212 48.822717 
L 53.930576 49.666991 
L 53.367726 50.229841 
L 52.523452 50.79269 
L 52.242027 50.79269 
L 51.960603 50.79269 
" style="fill:none;stroke:#8c8c8c;stroke-linecap:square;"/>
   </g>
   <g id="line2d_25">
    <path clip-path="url(#p87ad74c7c6)" d="M 55.337699 47.415593 
L 55.619124 47.134169 
L 55.900549 47.134169 
L 56.463398 46.852744 
L 57.026248 46.571319 
L 57.870522 45.727045 
L 58.151947 45.44562 
L 58.151947 44.882771 
L 57.870522 44.601346 
L 57.307672 44.882771 
L 56.744823 45.727045 
L 56.463398 46.571319 
L 57.026248 47.697018 
L 57.589097 48.259867 
L 58.433371 49.104142 
L 58.714796 49.385566 
" style="fill:none;stroke:#8c8c8c;stroke-linecap:square;"/>
   </g>
   <g id="line2d_26">
    <path clip-path="url(#p87ad74c7c6)" d="M 71.941758 43.194222 
L 71.660333 43.194222 
L 71.378909 43.194222 
L 71.097484 43.194222 
L 71.097484 43.475647 
L 70.816059 43.475647 
L 70.534634 43.757072 
L 70.534634 44.038497 
L 70.25321 44.038497 
L 70.25321 44.319921 
L 70.534634 44.601346 
L 70.816059 44.882771 
L 71.660333 45.164195 
L 72.223183 45.44562 
L 73.067457 46.289894 
L 73.067457 46.852744 
L 73.067457 47.415593 
L 72.786032 47.697018 
L 71.941758 48.259867 
L 71.378909 48.259867 
L 71.097484 48.259867 
" style="fill:none;stroke:#8c8c8c;stroke-linecap:square;"/>
   </g>
   <g id="line2d_27">
    <path clip-path="url(#p87ad74c7c6)" d="M 75.60028 44.038497 
L 75.318855 44.319921 
L 75.03743 44.319921 
L 75.03743 44.601346 
L 75.03743 45.164195 
L 75.03743 46.289894 
L 75.03743 46.852744 
L 75.318855 47.415593 
" style="fill:none;stroke:#8c8c8c;stroke-linecap:square;"/>
   </g>
   <g id="line2d_28">
    <path clip-path="url(#p87ad74c7c6)" d="M 74.193156 46.289894 
L 73.911731 46.289894 
L 73.911731 46.00847 
L 74.756005 46.00847 
L 75.60028 46.00847 
L 76.163129 46.00847 
L 76.725978 46.00847 
" style="fill:none;stroke:#8c8c8c;stroke-linecap:square;"/>
   </g>
   <g id="line2d_29">
    <path clip-path="url(#p87ad74c7c6)" d="M 77.851677 45.44562 
L 78.133102 45.44562 
L 78.414527 45.44562 
L 78.695952 45.44562 
L 79.258801 45.44562 
L 79.82165 45.164195 
L 79.82165 44.882771 
L 79.82165 44.601346 
L 79.82165 44.319921 
L 79.540226 44.319921 
L 78.977376 44.882771 
L 78.695952 45.727045 
L 78.695952 46.571319 
L 79.258801 46.852744 
L 79.540226 47.415593 
L 80.3845 47.415593 
L 80.947349 47.134169 
" style="fill:none;stroke:#8c8c8c;stroke-linecap:square;"/>
   </g>
   <g id="line2d_30">
    <path clip-path="url(#p87ad74c7c6)" d="M 84.887296 44.882771 
L 85.16872 44.882771 
L 84.887296 44.882771 
L 84.887296 45.164195 
L 84.887296 45.727045 
L 84.605871 46.289894 
L 84.887296 46.852744 
L 84.887296 47.134169 
L 84.887296 46.571319 
L 84.605871 45.44562 
L 84.324446 44.882771 
L 83.761597 44.319921 
L 83.198747 44.319921 
L 82.635898 44.601346 
L 82.354473 45.164195 
L 82.354473 45.727045 
L 82.917322 46.00847 
L 83.198747 46.289894 
L 83.761597 46.289894 
" style="fill:none;stroke:#8c8c8c;stroke-linecap:square;"/>
   </g>
   <g id="line2d_31">
    <path clip-path="url(#p87ad74c7c6)" d="M 87.420118 45.44562 
L 87.701543 45.44562 
L 87.982967 45.164195 
L 87.982967 44.882771 
L 87.701543 44.882771 
L 87.138693 44.882771 
L 86.575844 45.164195 
L 86.294419 45.727045 
L 86.012994 46.571319 
L 86.012994 46.852744 
L 86.294419 47.134169 
L 87.138693 46.852744 
L 87.701543 46.00847 
L 88.264392 44.882771 
L 88.545817 42.912798 
L 88.545817 41.505674 
L 88.545817 40.379975 
L 88.545817 40.09855 
L 88.545817 39.817126 
L 88.545817 40.09855 
L 88.827242 40.6614 
L 89.108666 42.349948 
L 89.108666 43.757072 
L 89.671516 45.727045 
L 89.952941 46.571319 
L 90.234365 46.852744 
" style="fill:none;stroke:#8c8c8c;stroke-linecap:square;"/>
   </g>
   <g id="line2d_32">
    <path clip-path="url(#p87ad74c7c6)" d="M 92.204338 44.882771 
L 91.922914 44.882771 
L 91.922914 45.164195 
L 91.922914 45.44562 
L 92.204338 45.727045 
L 92.767188 46.00847 
L 93.611462 46.00847 
L 94.455736 45.727045 
L 95.018586 45.164195 
L 95.581435 44.319921 
L 95.581435 44.038497 
L 95.581435 44.319921 
L 95.581435 44.601346 
L 95.581435 44.882771 
L 95.86286 46.00847 
L 96.144285 47.415593 
L 96.425709 48.259867 
L 96.707134 48.541292 
" style="fill:none;stroke:#8c8c8c;stroke-linecap:square;"/>
   </g>
   <g id="line2d_33">
    <path clip-path="url(#p87ad74c7c6)" d="M 67.720387 54.451211 
L 68.001812 54.451211 
L 68.001812 54.169787 
L 68.283237 54.169787 
L 68.001812 54.169787 
L 67.438963 54.451211 
L 66.876113 55.014061 
L 66.313264 55.295486 
L 66.031839 55.57691 
L 66.313264 55.57691 
L 66.594688 55.858335 
L 67.157538 55.858335 
L 68.283237 56.13976 
L 68.846086 56.421185 
L 69.69036 57.265459 
L 69.971785 57.828308 
L 69.69036 58.391158 
L 69.127511 58.954007 
L 68.564661 58.954007 
L 68.001812 58.672582 
L 67.720387 58.109733 
" style="fill:none;stroke:#8c8c8c;stroke-linecap:square;"/>
   </g>
   <g id="line2d_34">
    <path clip-path="url(#p87ad74c7c6)" d="M 71.097484 54.732636 
L 71.378909 54.732636 
L 71.378909 55.014061 
L 71.378909 55.295486 
L 71.660333 56.421185 
L 71.941758 57.265459 
L 72.223183 58.109733 
L 72.223183 58.391158 
" style="fill:none;stroke:#8c8c8c;stroke-linecap:square;"/>
   </g>
   <g id="line2d_35">
    <path clip-path="url(#p87ad74c7c6)" d="M 70.534634 56.702609 
L 70.534634 56.421185 
L 70.816059 56.421185 
L 71.378909 56.421185 
L 72.504608 56.13976 
L 73.911731 55.858335 
L 74.474581 55.858335 
" style="fill:none;stroke:#8c8c8c;stroke-linecap:square;"/>
   </g>
   <g id="line2d_36">
    <path clip-path="url(#p87ad74c7c6)" d="M 76.444554 55.295486 
L 76.444554 55.57691 
L 75.881704 55.57691 
L 75.60028 55.57691 
L 75.03743 56.13976 
L 74.756005 56.421185 
L 74.756005 56.984034 
L 75.03743 56.984034 
L 75.881704 56.984034 
L 76.725978 56.421185 
L 77.288828 55.57691 
L 77.851677 54.732636 
L 77.851677 54.451211 
L 77.851677 54.732636 
L 77.851677 55.014061 
L 77.851677 55.57691 
L 78.133102 56.13976 
L 78.695952 57.546883 
L 78.977376 57.828308 
L 79.258801 57.828308 
" style="fill:none;stroke:#8c8c8c;stroke-linecap:square;"/>
   </g>
   <g id="line2d_37">
    <path clip-path="url(#p87ad74c7c6)" d="M 80.3845 54.451211 
L 80.3845 54.169787 
L 80.103075 54.169787 
L 80.3845 54.451211 
L 80.3845 54.732636 
L 80.665925 55.57691 
L 80.947349 56.421185 
L 81.228774 57.265459 
L 81.510199 57.546883 
" style="fill:none;stroke:#8c8c8c;stroke-linecap:square;"/>
   </g>
   <g id="line2d_38">
    <path clip-path="url(#p87ad74c7c6)" d="M 80.103075 55.57691 
L 79.82165 55.57691 
L 80.665925 55.57691 
L 81.228774 55.295486 
L 82.073048 55.295486 
L 82.354473 55.014061 
" style="fill:none;stroke:#8c8c8c;stroke-linecap:square;"/>
   </g>
   <g id="line2d_39">
    <path clip-path="url(#p87ad74c7c6)" d="M 83.480172 54.732636 
L 83.761597 55.014061 
L 84.324446 55.014061 
L 84.605871 54.732636 
L 85.16872 54.169787 
L 85.450145 53.888362 
L 85.450145 53.325513 
L 85.16872 53.325513 
L 84.605871 53.606937 
L 84.043021 54.451211 
L 84.043021 55.57691 
L 84.605871 56.702609 
L 85.16872 57.546883 
L 86.012994 57.828308 
L 86.857269 57.546883 
" style="fill:none;stroke:#8c8c8c;stroke-linecap:square;"/>
   </g>
   <g id="line2d_40">
    <path clip-path="url(#p87ad74c7c6)" d="M 95.30001 55.014061 
L 95.30001 55.295486 
L 95.30001 55.57691 
L 95.30001 56.13976 
L 95.30001 56.702609 
L 95.581435 56.702609 
L 95.581435 56.984034 
L 95.581435 56.702609 
L 95.581435 56.421185 
L 95.581435 55.858335 
L 95.30001 54.732636 
L 95.581435 53.325513 
L 95.581435 52.481238 
L 95.86286 52.199814 
L 96.144285 52.481238 
L 96.707134 53.044088 
L 97.269983 53.888362 
L 97.832833 55.014061 
L 97.832833 55.57691 
L 98.114258 55.858335 
L 97.832833 55.858335 
L 97.832833 55.57691 
L 97.832833 54.451211 
L 97.832833 53.325513 
L 97.832833 52.481238 
L 98.114258 50.79269 
L 98.395682 49.948416 
L 98.958532 49.948416 
L 99.521381 50.229841 
L 100.084231 51.918389 
L 100.928505 54.169787 
L 101.491354 55.858335 
L 101.772779 56.702609 
L 101.772779 57.546883 
L 101.491354 57.546883 
L 101.20993 57.546883 
" style="fill:none;stroke:#8c8c8c;stroke-linecap:square;"/>
   </g>
   <g id="line2d_41">
    <path clip-path="url(#p87ad74c7c6)" d="M 150.177832 127.903065 
L 150.177832 128.18449 
L 150.177832 128.465914 
L 150.177832 128.747339 
L 149.896407 129.028764 
L 149.896407 129.310188 
L 149.896407 129.591613 
L 149.896407 129.873038 
L 149.896407 130.154463 
L 149.614982 130.435887 
L 149.614982 130.998737 
L 149.614982 131.280162 
L 149.614982 131.843011 
L 149.614982 132.124436 
L 149.614982 132.687285 
L 149.614982 132.96871 
L 149.614982 133.250135 
L 149.614982 134.094409 
L 149.896407 134.938683 
L 149.896407 136.064382 
L 150.177832 137.190081 
L 150.177832 138.31578 
L 150.459257 139.722903 
L 150.459257 140.848602 
L 150.740681 142.255726 
L 151.022106 143.662849 
L 151.303531 145.351398 
L 151.584955 147.321371 
L 152.147805 149.291344 
L 152.147805 150.698468 
L 152.42923 152.387016 
L 152.992079 153.79414 
L 153.273504 155.201263 
L 153.273504 156.889812 
L 153.836353 158.296935 
L 153.836353 159.985484 
L 154.117778 161.674032 
L 154.399203 163.644005 
L 154.680627 165.051129 
L 154.962052 167.302526 
L 155.243477 170.116774 
L 155.524902 173.49387 
L 155.806326 176.026693 
L 156.087751 179.40379 
L 156.650601 184.18801 
L 157.21345 187.002257 
L 157.776299 190.660779 
L 158.057724 194.3193 
L 158.620574 197.414972 
L 158.901998 201.354918 
L 159.183423 205.576289 
L 159.746273 210.079085 
L 160.027697 213.456181 
L 160.309122 217.677552 
L 160.871971 221.898923 
L 161.434821 224.994595 
L 161.99767 227.527418 
L 162.56052 228.653117 
L 162.841945 229.215966 
" style="fill:none;stroke:#8c8c8c;stroke-linecap:square;"/>
   </g>
   <g id="line2d_42">
    <path clip-path="url(#p87ad74c7c6)" d="M 163.686219 229.215966 
L 163.404794 229.215966 
L 163.123369 229.215966 
L 162.841945 229.215966 
L 162.56052 229.215966 
L 162.279095 229.215966 
L 162.279095 229.497391 
L 162.56052 229.778815 
L 162.841945 229.778815 
L 163.123369 229.778815 
L 164.249068 230.06024 
L 165.937616 230.06024 
L 168.470439 229.778815 
L 171.284686 229.497391 
L 175.224632 228.934541 
L 180.290277 228.090267 
L 184.511648 227.527418 
L 190.140143 226.683144 
L 196.331487 225.838869 
L 202.241406 224.994595 
L 207.307051 224.431746 
L 214.342669 223.868896 
L 219.12689 223.587472 
L 225.036809 223.306047 
L 230.946728 223.306047 
L 235.730948 223.024622 
L 241.922292 222.743197 
L 248.113636 222.461773 
L 254.586405 222.461773 
L 260.777749 222.180348 
L 267.250518 222.180348 
L 272.316163 221.898923 
L 278.788931 221.617498 
L 284.980275 221.336074 
L 289.764496 221.054649 
L 296.518689 220.773224 
L 300.458635 220.4918 
L 304.680006 219.92895 
L 307.212829 219.647525 
L 309.182802 219.366101 
L 309.745651 219.366101 
L 310.027076 219.366101 
" style="fill:none;stroke:#8c8c8c;stroke-linecap:square;"/>
   </g>
   <g id="line2d_43">
    <path clip-path="url(#p87ad74c7c6)" d="M 308.901377 215.14473 
L 308.619952 215.14473 
L 308.338528 215.426154 
L 308.338528 215.707579 
L 309.464227 215.989004 
L 311.4342 216.270429 
L 313.122748 216.551853 
L 314.248447 216.833278 
L 314.811296 217.396128 
L 314.529872 217.958977 
L 313.967022 219.647525 
L 313.404173 220.4918 
L 312.841323 221.617498 
L 312.278474 221.898923 
L 311.997049 222.461773 
L 311.715624 222.461773 
" style="fill:none;stroke:#8c8c8c;stroke-linecap:square;"/>
   </g>
   <g id="line2d_44">
    <path clip-path="url(#p87ad74c7c6)" d="M 145.675036 128.18449 
L 145.675036 128.465914 
L 145.675036 128.747339 
L 145.956461 128.747339 
L 146.237886 128.747339 
L 146.237886 128.465914 
L 147.08216 127.903065 
L 148.489283 126.495941 
L 149.896407 124.807393 
L 150.740681 123.963119 
L 151.303531 123.681694 
L 151.584955 123.681694 
L 151.86638 124.525968 
L 152.147805 125.651667 
L 152.147805 126.495941 
L 152.42923 127.058791 
L 152.710654 127.62164 
" style="fill:none;stroke:#8c8c8c;stroke-linecap:square;"/>
   </g>
   <g id="line2d_45">
    <path clip-path="url(#p87ad74c7c6)" d="M 334.792452 36.721454 
L 334.511027 36.721454 
L 334.511027 37.002878 
L 334.511027 37.284303 
L 334.792452 37.847153 
L 335.073877 38.691427 
L 335.918151 40.09855 
L 336.199575 40.942825 
L 336.762425 41.505674 
L 337.325274 41.505674 
L 337.606699 41.505674 
L 338.169549 41.224249 
L 338.169549 40.942825 
L 338.450973 40.942825 
" style="fill:none;stroke:#8c8c8c;stroke-linecap:square;"/>
   </g>
   <g id="line2d_46">
    <path clip-path="url(#p87ad74c7c6)" d="M 340.139522 36.721454 
L 339.858097 36.440029 
L 339.858097 36.158604 
L 339.576672 36.440029 
L 339.576672 36.721454 
L 339.295247 37.284303 
L 339.013823 38.691427 
L 338.732398 39.535701 
L 338.450973 40.6614 
L 338.169549 41.505674 
L 338.169549 41.787099 
L 338.169549 42.068524 
L 338.169549 42.349948 
L 338.169549 42.631373 
L 338.169549 42.912798 
L 338.169549 43.194222 
L 338.169549 43.475647 
L 338.450973 44.319921 
L 338.450973 45.44562 
L 338.732398 46.571319 
L 339.013823 47.134169 
L 339.013823 47.978443 
L 339.013823 48.259867 
L 339.013823 48.541292 
L 339.013823 48.822717 
L 339.013823 48.541292 
" style="fill:none;stroke:#8c8c8c;stroke-linecap:square;"/>
   </g>
   <g id="line2d_47">
    <path clip-path="url(#p87ad74c7c6)" d="M 322.409764 34.751481 
L 322.409764 34.470056 
L 322.409764 34.751481 
L 321.846914 35.87718 
L 321.56549 37.284303 
L 321.284065 40.379975 
L 321.56549 44.319921 
L 322.691189 47.697018 
L 324.098312 49.666991 
L 325.224011 50.511265 
L 326.068285 51.074115 
L 326.34971 51.074115 
" style="fill:none;stroke:#8c8c8c;stroke-linecap:square;"/>
   </g>
   <g id="line2d_48">
    <path clip-path="url(#p87ad74c7c6)" d="M 352.52221 39.254276 
L 352.803634 39.254276 
L 353.085059 39.254276 
L 353.929333 38.972852 
L 354.773607 38.691427 
L 355.617882 38.410002 
L 356.180731 38.128577 
" style="fill:none;stroke:#8c8c8c;stroke-linecap:square;"/>
   </g>
   <g id="line2d_49">
    <path clip-path="url(#p87ad74c7c6)" d="M 353.647908 44.038497 
L 353.647908 44.319921 
L 353.929333 44.319921 
L 354.210758 44.319921 
L 354.492183 44.319921 
L 355.617882 44.038497 
L 357.025005 43.475647 
L 358.150704 43.194222 
L 358.432129 43.194222 
" style="fill:none;stroke:#8c8c8c;stroke-linecap:square;"/>
   </g>
   <g id="line2d_50">
    <path clip-path="url(#p87ad74c7c6)" d="M 366.874871 31.937233 
L 366.874871 32.218658 
L 366.874871 32.500083 
L 367.156295 33.344357 
L 367.43772 34.751481 
L 368.000569 37.002878 
L 368.844844 39.254276 
L 369.407693 40.942825 
L 369.970543 42.349948 
L 370.251967 43.194222 
" style="fill:none;stroke:#8c8c8c;stroke-linecap:square;"/>
   </g>
   <g id="line2d_51">
    <path clip-path="url(#p87ad74c7c6)" d="M 369.407693 36.721454 
L 369.126268 37.002878 
L 368.844844 37.002878 
L 368.563419 37.002878 
L 368.844844 37.002878 
L 369.126268 37.002878 
L 370.251967 37.002878 
L 371.940516 37.284303 
L 373.066215 37.565728 
L 374.191913 38.128577 
L 374.473338 39.254276 
L 374.473338 40.379975 
L 373.910489 41.224249 
L 372.78479 42.068524 
L 371.940516 42.349948 
L 371.096241 42.631373 
L 370.814817 42.349948 
" style="fill:none;stroke:#8c8c8c;stroke-linecap:square;"/>
   </g>
   <g id="line2d_52">
    <path clip-path="url(#p87ad74c7c6)" d="M 380.383257 36.440029 
L 380.101833 36.440029 
L 380.383257 36.440029 
L 380.664682 36.440029 
L 380.946107 36.440029 
L 382.071806 36.158604 
L 383.478929 35.87718 
L 384.041779 35.595755 
L 384.604628 35.31433 
" style="fill:none;stroke:#8c8c8c;stroke-linecap:square;"/>
   </g>
   <g id="line2d_53">
    <path clip-path="url(#p87ad74c7c6)" d="M 393.61022 33.062932 
L 393.61022 33.344357 
L 393.891644 33.625782 
L 394.454494 34.470056 
L 394.735918 35.595755 
L 395.017343 36.158604 
L 395.017343 36.440029 
L 395.017343 36.158604 
L 395.017343 35.87718 
L 394.735918 35.032905 
L 394.173069 32.781508 
L 393.891644 31.374384 
L 393.891644 30.248685 
L 393.891644 29.685836 
L 394.173069 29.685836 
L 395.017343 30.248685 
L 395.580193 31.374384 
L 396.143042 32.500083 
L 396.424467 33.344357 
L 396.987316 33.625782 
L 396.987316 33.344357 
L 396.987316 33.062932 
L 397.268741 31.937233 
L 397.550166 30.53011 
L 397.83159 29.122986 
L 398.39444 28.278712 
L 398.957289 27.997287 
L 399.520139 28.560137 
L 400.364413 29.96726 
L 400.927262 31.374384 
L 401.208687 33.062932 
L 401.490112 34.470056 
L 401.771537 35.032905 
L 401.771537 35.31433 
" style="fill:none;stroke:#8c8c8c;stroke-linecap:square;"/>
   </g>
   <g id="line2d_54">
    <path clip-path="url(#p87ad74c7c6)" d="M 407.962881 28.560137 
L 407.962881 28.841561 
L 407.962881 29.122986 
L 407.681456 29.96726 
L 406.837182 31.374384 
L 406.555757 32.781508 
L 405.992907 33.907206 
L 405.711483 34.751481 
L 405.711483 35.032905 
" style="fill:none;stroke:#8c8c8c;stroke-linecap:square;"/>
   </g>
   <g id="line2d_55">
    <path clip-path="url(#p87ad74c7c6)" d="M 404.867209 29.96726 
L 405.148633 30.53011 
L 405.992907 31.374384 
L 407.118606 32.781508 
L 407.962881 33.625782 
L 408.807155 34.188631 
L 409.088579 34.751481 
" style="fill:none;stroke:#8c8c8c;stroke-linecap:square;"/>
   </g>
   <g id="line2d_56">
    <path clip-path="url(#p87ad74c7c6)" d="M 408.807155 19.83597 
L 408.807155 19.554545 
L 408.807155 19.83597 
L 409.088579 19.83597 
L 409.370004 19.83597 
L 410.214278 20.680244 
L 411.902827 22.650217 
L 413.30995 25.18304 
L 414.717074 29.685836 
L 415.279923 34.188631 
L 414.998499 36.721454 
L 413.591375 39.254276 
L 413.30995 39.535701 
" style="fill:none;stroke:#8c8c8c;stroke-linecap:square;"/>
   </g>
   <g id="line2d_57">
    <path clip-path="url(#p87ad74c7c6)" d="M 109.089822 162.799731 
L 109.089822 162.518306 
L 109.371247 162.518306 
L 109.371247 162.236881 
L 108.808397 162.518306 
L 107.964123 163.081156 
L 107.682698 164.206854 
L 107.119849 165.613978 
L 107.401274 167.021102 
L 107.964123 167.583951 
L 108.808397 167.302526 
L 109.371247 166.176828 
L 110.215521 164.206854 
L 110.496946 161.392607 
L 110.496946 158.57836 
L 110.496946 156.608387 
L 110.496946 155.764113 
L 110.496946 155.201263 
L 110.215521 155.201263 
L 110.215521 155.764113 
L 110.496946 157.452661 
L 110.77837 160.829758 
L 111.34122 164.488279 
L 112.185494 166.739677 
L 112.748343 168.146801 
L 112.748343 167.865376 
" style="fill:none;stroke:#8c8c8c;stroke-linecap:square;"/>
   </g>
   <g id="line2d_58">
    <path clip-path="url(#p87ad74c7c6)" d="M 113.029768 161.674032 
L 113.029768 161.392607 
L 113.029768 161.674032 
L 113.029768 161.955457 
L 113.029768 162.236881 
L 113.592618 163.644005 
L 114.155467 164.769704 
L 114.718316 165.895403 
L 114.999741 166.458252 
L 114.999741 166.176828 
L 114.718316 166.176828 
L 114.436892 164.769704 
L 113.874042 162.236881 
L 113.592618 159.985484 
L 113.592618 158.859785 
L 114.155467 158.01551 
L 114.436892 158.01551 
L 115.281166 158.859785 
L 115.844015 160.266908 
L 116.68829 161.955457 
L 116.68829 162.518306 
L 116.969714 162.799731 
L 116.68829 162.236881 
L 116.68829 161.674032 
L 116.68829 160.266908 
L 117.251139 159.422634 
L 117.532564 158.57836 
L 118.095413 158.296935 
L 119.221112 159.141209 
L 119.783961 160.548333 
L 120.90966 162.799731 
L 121.191085 164.769704 
L 121.47251 165.613978 
L 121.47251 166.458252 
" style="fill:none;stroke:#8c8c8c;stroke-linecap:square;"/>
   </g>
   <g id="line2d_59">
    <path clip-path="url(#p87ad74c7c6)" d="M 109.089822 174.619569 
L 109.089822 174.900994 
L 109.371247 174.900994 
L 110.77837 174.900994 
L 113.874042 174.05672 
L 118.658263 172.649596 
L 120.346811 171.805322 
L 121.191085 171.242473 
L 121.47251 170.961048 
" style="fill:none;stroke:#8c8c8c;stroke-linecap:square;"/>
   </g>
   <g id="line2d_60">
    <path clip-path="url(#p87ad74c7c6)" d="M 113.592618 189.53508 
L 113.592618 189.253655 
L 113.592618 188.97223 
L 113.592618 188.690806 
L 113.874042 188.409381 
L 113.874042 188.127956 
L 113.874042 187.846531 
L 113.874042 187.283682 
L 113.874042 187.002257 
L 113.592618 187.002257 
L 113.311193 187.002257 
L 112.748343 187.846531 
L 112.748343 188.690806 
L 113.029768 189.53508 
L 113.311193 189.816504 
L 113.592618 189.816504 
L 114.155467 188.127956 
L 114.155467 186.157983 
L 114.155467 183.343736 
L 113.874042 181.092338 
L 113.592618 178.84094 
L 113.592618 177.996666 
L 113.592618 177.433817 
L 113.592618 177.152392 
L 113.592618 177.433817 
L 113.592618 177.996666 
L 113.592618 179.122365 
L 113.874042 181.373763 
L 114.436892 183.906585 
L 115.562591 187.283682 
L 116.68829 188.690806 
L 117.532564 190.097929 
L 118.095413 190.660779 
L 118.376838 190.379354 
L 119.221112 189.816504 
L 119.502537 189.253655 
L 119.783961 188.690806 
" style="fill:none;stroke:#8c8c8c;stroke-linecap:square;"/>
   </g>
   <g id="line2d_61">
    <path clip-path="url(#p87ad74c7c6)" d="M 120.628236 182.499462 
L 120.346811 182.218037 
L 120.346811 181.936612 
L 120.065386 181.655187 
L 120.065386 181.936612 
L 120.065386 182.218037 
L 120.065386 183.062311 
L 120.628236 185.032284 
L 121.47251 187.846531 
L 122.598209 190.379354 
L 123.161058 191.505053 
L 123.442483 191.505053 
L 123.723908 191.223628 
" style="fill:none;stroke:#8c8c8c;stroke-linecap:square;"/>
   </g>
   <g id="line2d_62">
    <path clip-path="url(#p87ad74c7c6)" d="M 118.939687 185.876558 
L 118.658263 186.157983 
L 118.095413 186.720832 
L 118.376838 186.720832 
L 119.783961 186.157983 
L 121.47251 185.313709 
L 123.442483 183.906585 
L 124.568182 182.780886 
" style="fill:none;stroke:#8c8c8c;stroke-linecap:square;"/>
   </g>
   <g id="line2d_63">
    <path clip-path="url(#p87ad74c7c6)" d="M 236.575223 243.568627 
L 236.293798 243.850052 
L 236.293798 244.131476 
L 236.575223 244.694326 
L 236.856647 245.820025 
L 237.138072 246.945724 
L 237.419497 247.789998 
L 237.700922 248.352847 
L 237.700922 248.634272 
L 237.419497 248.634272 
L 237.138072 247.789998 
L 236.575223 246.664299 
L 236.012373 244.975751 
L 235.730948 243.005778 
L 236.012373 241.035805 
L 236.293798 239.628681 
L 236.575223 238.784407 
L 237.138072 238.502982 
L 237.700922 238.221557 
L 238.545196 239.065831 
L 239.108045 240.472955 
L 239.670895 242.442928 
L 240.233744 243.850052 
L 240.233744 244.694326 
L 240.233744 244.975751 
L 240.233744 245.257175 
L 240.233744 244.694326 
L 240.233744 243.568627 
L 240.233744 241.880079 
L 240.515169 239.347256 
L 241.078018 237.095858 
L 241.640868 235.40731 
L 241.922292 234.563036 
L 242.485142 234.000186 
L 243.329416 234.281611 
L 244.455115 235.970159 
L 245.862239 238.784407 
L 246.706513 241.880079 
L 247.832212 245.257175 
L 248.395061 247.227148 
L 248.395061 247.789998 
L 248.113636 247.227148 
" style="fill:none;stroke:#8c8c8c;stroke-linecap:square;"/>
   </g>
   <g id="line2d_64">
    <path clip-path="url(#p87ad74c7c6)" d="M 161.434821 229.497391 
L 161.153396 229.497391 
L 160.871971 229.497391 
L 160.871971 229.778815 
L 160.871971 230.06024 
L 161.153396 230.341665 
L 161.153396 230.62309 
L 161.716246 230.62309 
L 161.99767 230.62309 
L 161.99767 230.341665 
L 162.279095 230.341665 
L 162.279095 230.06024 
L 161.99767 229.778815 
L 161.716246 229.778815 
L 161.434821 229.778815 
L 161.153396 229.778815 
L 160.871971 230.06024 
L 160.590547 230.62309 
L 160.871971 231.185939 
L 161.434821 231.185939 
L 161.99767 231.185939 
L 162.56052 230.904514 
L 162.841945 230.62309 
L 162.841945 230.341665 
L 162.841945 230.06024 
L 162.56052 230.06024 
L 161.99767 230.06024 
L 161.716246 230.341665 
L 161.153396 230.904514 
L 161.153396 231.467364 
L 161.434821 232.030213 
L 161.99767 232.311638 
L 162.841945 232.030213 
L 163.123369 231.748789 
L 163.404794 231.185939 
L 163.404794 230.62309 
L 163.123369 230.06024 
L 162.56052 230.06024 
L 161.99767 230.06024 
L 161.716246 230.62309 
L 161.434821 230.904514 
L 161.434821 231.748789 
L 161.716246 232.030213 
L 162.279095 232.311638 
L 163.123369 232.311638 
L 163.404794 232.030213 
L 163.404794 231.467364 
L 163.123369 230.904514 
L 162.56052 230.341665 
L 161.99767 230.06024 
L 161.716246 230.341665 
L 161.434821 230.341665 
L 161.434821 230.62309 
L 161.153396 230.62309 
L 161.153396 230.904514 
L 161.434821 230.904514 
L 161.434821 230.62309 
L 161.153396 230.62309 
" style="fill:none;stroke:#8c8c8c;stroke-linecap:square;"/>
   </g>
   <g id="line2d_65">
    <path clip-path="url(#p87ad74c7c6)" d="M 256.837803 221.054649 
L 256.556378 221.054649 
L 256.274953 221.054649 
L 255.993529 221.336074 
L 255.993529 221.617498 
L 255.993529 221.898923 
L 255.993529 222.180348 
L 255.993529 222.461773 
L 256.274953 222.461773 
L 256.556378 222.743197 
L 256.556378 223.024622 
L 256.837803 223.024622 
L 257.119228 223.024622 
L 257.119228 222.743197 
L 257.119228 222.461773 
L 257.119228 222.180348 
L 256.837803 221.898923 
L 256.556378 221.336074 
L 256.274953 221.336074 
L 255.993529 221.336074 
L 255.712104 221.336074 
L 255.430679 221.617498 
L 255.430679 222.180348 
L 255.430679 222.461773 
L 255.712104 223.024622 
L 255.993529 223.587472 
L 256.274953 223.587472 
L 256.556378 223.587472 
L 256.837803 223.587472 
L 257.119228 223.024622 
L 257.119228 222.461773 
L 257.119228 221.617498 
L 256.837803 221.336074 
L 256.274953 220.773224 
L 255.712104 220.4918 
L 255.430679 220.773224 
L 255.149255 221.336074 
L 255.149255 221.617498 
L 255.430679 222.461773 
L 255.993529 223.024622 
L 256.556378 223.024622 
L 256.837803 223.024622 
L 256.837803 222.743197 
L 257.119228 222.461773 
L 257.119228 221.617498 
L 256.837803 221.054649 
L 256.837803 220.773224 
L 256.274953 220.4918 
L 255.993529 220.4918 
L 255.712104 220.773224 
L 255.430679 221.336074 
L 255.712104 222.180348 
L 255.993529 222.743197 
L 256.556378 223.306047 
L 256.837803 223.306047 
L 257.119228 223.306047 
L 257.400652 223.024622 
L 257.682077 222.461773 
L 257.682077 221.898923 
L 257.400652 221.336074 
L 256.837803 221.054649 
L 256.556378 220.773224 
L 255.993529 221.054649 
L 255.712104 221.617498 
L 255.712104 222.180348 
L 255.993529 222.743197 
L 256.274953 223.306047 
L 257.119228 223.587472 
L 257.400652 223.306047 
L 257.682077 223.024622 
L 257.682077 222.743197 
L 257.400652 222.461773 
" style="fill:none;stroke:#8c8c8c;stroke-linecap:square;"/>
   </g>
   <g id="line2d_66">
    <path clip-path="url(#p87ad74c7c6)" d="M 143.705063 230.341665 
L 143.705063 230.06024 
L 143.423638 230.06024 
L 143.142214 230.06024 
L 142.579364 230.06024 
L 142.29794 230.341665 
L 142.016515 230.62309 
L 141.453665 231.185939 
L 140.890816 232.030213 
L 140.609391 232.593063 
L 140.609391 233.437337 
L 140.890816 234.000186 
L 140.890816 234.844461 
L 141.453665 235.688735 
L 142.016515 236.251584 
L 143.142214 236.814434 
L 143.986488 237.377283 
L 144.830762 237.658708 
L 145.675036 237.658708 
L 146.237886 237.377283 
L 147.08216 237.095858 
L 147.363585 236.251584 
L 147.645009 235.688735 
L 147.926434 234.844461 
L 147.926434 234.000186 
L 147.926434 233.155912 
L 147.363585 232.030213 
L 146.800735 230.904514 
L 145.956461 230.06024 
L 145.112187 229.497391 
L 143.705063 229.215966 
L 142.860789 229.215966 
L 142.016515 229.215966 
L 141.453665 229.497391 
L 140.890816 230.06024 
L 140.327966 230.62309 
" style="fill:none;stroke:#8c8c8c;stroke-linecap:square;"/>
   </g>
   <g id="line2d_67">
    <path clip-path="url(#p87ad74c7c6)" d="M 150.459257 147.88422 
L 150.459257 148.165645 
L 150.459257 148.44707 
L 150.740681 148.728495 
L 151.022106 148.728495 
L 151.022106 148.44707 
L 151.022106 148.165645 
L 151.303531 148.165645 
L 151.303531 147.88422 
L 151.303531 147.602796 
L 151.022106 147.039946 
L 151.022106 146.758521 
L 150.740681 146.758521 
L 150.740681 147.039946 
L 150.740681 147.602796 
L 151.022106 147.88422 
L 151.303531 148.165645 
L 151.584955 148.165645 
L 151.86638 147.88422 
L 152.147805 147.602796 
L 152.147805 147.321371 
L 152.147805 146.758521 
L 151.86638 146.477097 
L 151.303531 146.195672 
L 151.022106 146.195672 
L 150.740681 146.195672 
L 150.459257 146.477097 
L 150.459257 146.758521 
L 150.459257 147.039946 
L 150.740681 147.602796 
L 151.303531 147.88422 
L 151.584955 147.88422 
L 151.86638 147.88422 
L 151.86638 147.321371 
L 151.86638 146.758521 
L 151.584955 146.477097 
L 151.303531 146.195672 
L 150.740681 146.477097 
L 150.459257 146.758521 
L 150.177832 147.321371 
L 150.459257 147.88422 
L 150.459257 148.165645 
L 151.022106 148.44707 
L 151.022106 148.728495 
L 151.303531 148.728495 
L 151.584955 148.728495 
" style="fill:none;stroke:#8c8c8c;stroke-linecap:square;"/>
   </g>
   <g id="line2d_68">
    <path clip-path="url(#p87ad74c7c6)" d="M 157.21345 151.824166 
L 157.776299 152.105591 
L 158.057724 152.105591 
L 158.339149 152.387016 
L 158.620574 152.668441 
L 158.901998 152.668441 
" style="fill:none;stroke:#8c8c8c;stroke-linecap:square;"/>
   </g>
   <g id="line2d_69">
    <path clip-path="url(#p87ad74c7c6)" d="M 150.740681 147.039946 
L 151.022106 147.039946 
L 151.022106 147.321371 
L 151.303531 147.602796 
L 151.584955 147.88422 
L 151.86638 147.88422 
L 152.147805 148.44707 
L 152.992079 148.728495 
L 153.273504 149.009919 
L 154.117778 149.572769 
L 154.399203 149.854193 
L 154.962052 149.854193 
L 155.243477 150.135618 
L 155.524902 150.417043 
L 155.806326 150.698468 
L 156.369176 150.698468 
L 156.650601 150.979892 
L 157.21345 151.261317 
L 157.494875 151.542742 
L 158.057724 151.542742 
L 158.339149 151.824166 
L 158.901998 152.105591 
L 159.183423 152.387016 
L 159.464848 152.668441 
L 159.746273 152.949865 
L 160.309122 152.949865 
L 160.590547 153.23129 
L 160.871971 153.512715 
L 161.153396 153.79414 
L 161.434821 153.79414 
L 161.716246 153.79414 
" style="fill:none;stroke:#8c8c8c;stroke-linecap:square;"/>
   </g>
   <g id="line2d_70">
    <path clip-path="url(#p87ad74c7c6)" d="M 167.90759 156.889812 
L 167.90759 157.171236 
L 168.189014 157.452661 
L 168.470439 157.452661 
L 168.470439 157.734086 
L 169.033288 158.296935 
L 169.596138 158.57836 
L 170.440412 159.141209 
L 171.284686 159.704059 
L 171.847536 160.266908 
L 172.410385 160.829758 
L 173.254659 161.392607 
L 173.817509 161.955457 
L 174.380358 162.518306 
L 174.943208 162.799731 
L 175.224632 163.081156 
L 175.506057 163.081156 
" style="fill:none;stroke:#8c8c8c;stroke-linecap:square;"/>
   </g>
   <g id="line2d_71">
    <path clip-path="url(#p87ad74c7c6)" d="M 180.571702 167.583951 
L 180.853127 167.583951 
L 180.853127 167.865376 
L 181.415976 168.146801 
L 182.260251 168.428225 
L 183.385949 169.272499 
L 184.230224 169.835349 
L 185.074498 170.398198 
L 186.200197 171.242473 
L 187.044471 171.805322 
L 187.888745 172.649596 
L 188.733019 173.212446 
L 189.014444 173.49387 
L 189.577293 174.05672 
" style="fill:none;stroke:#8c8c8c;stroke-linecap:square;"/>
   </g>
   <g id="line2d_72">
    <path clip-path="url(#p87ad74c7c6)" d="M 196.612912 178.84094 
L 196.612912 178.559515 
L 196.894336 178.559515 
L 196.894336 178.84094 
L 197.175761 178.84094 
L 197.457186 178.84094 
L 197.73861 179.122365 
L 198.30146 179.40379 
L 199.427159 179.966639 
L 199.990008 180.529489 
L 200.834282 181.092338 
L 201.959981 181.936612 
L 202.522831 182.218037 
L 202.804256 182.780886 
" style="fill:none;stroke:#8c8c8c;stroke-linecap:square;"/>
   </g>
   <g id="line2d_73">
    <path clip-path="url(#p87ad74c7c6)" d="M 208.9956 186.720832 
L 208.9956 187.002257 
L 209.558449 187.283682 
L 210.121298 187.846531 
L 210.965573 188.409381 
L 211.809847 188.97223 
L 212.654121 189.53508 
L 213.498395 190.379354 
L 214.342669 190.942203 
L 215.186943 191.505053 
L 215.468368 192.067902 
" style="fill:none;stroke:#8c8c8c;stroke-linecap:square;"/>
   </g>
   <g id="line2d_74">
    <path clip-path="url(#p87ad74c7c6)" d="M 223.629685 198.259246 
L 223.91111 198.540671 
L 224.192535 198.822096 
L 224.473959 199.10352 
L 224.755384 199.384945 
L 225.318234 199.947795 
L 226.162508 200.510644 
L 226.725357 201.354918 
L 227.569631 201.917768 
L 228.132481 202.762042 
L 228.413906 203.043467 
" style="fill:none;stroke:#8c8c8c;stroke-linecap:square;"/>
   </g>
   <g id="line2d_75">
    <path clip-path="url(#p87ad74c7c6)" d="M 235.730948 208.109112 
L 235.730948 207.827687 
L 236.012373 208.109112 
L 236.575223 208.390536 
L 237.419497 209.234811 
L 238.263771 209.79766 
L 239.108045 210.360509 
L 239.670895 210.923359 
L 240.233744 211.204784 
" style="fill:none;stroke:#8c8c8c;stroke-linecap:square;"/>
   </g>
   <g id="line2d_76">
    <path clip-path="url(#p87ad74c7c6)" d="M 251.772158 217.677552 
L 251.772158 217.958977 
L 251.772158 218.240402 
L 252.053583 218.240402 
L 252.335007 218.521826 
L 253.179281 219.366101 
L 253.742131 219.647525 
L 254.30498 220.210375 
L 254.586405 220.4918 
L 254.586405 220.773224 
L 254.86783 220.773224 
" style="fill:none;stroke:#8c8c8c;stroke-linecap:square;"/>
   </g>
   <g id="line2d_77">
    <path clip-path="url(#p87ad74c7c6)" d="M 256.556378 221.336074 
L 256.274953 221.054649 
L 255.993529 221.054649 
L 255.712104 221.054649 
L 255.712104 221.336074 
L 255.430679 221.336074 
L 255.430679 221.617498 
L 255.430679 221.898923 
L 255.712104 222.180348 
L 255.712104 222.461773 
L 255.993529 222.461773 
L 256.274953 222.180348 
L 256.556378 221.898923 
L 256.274953 221.617498 
L 255.993529 221.054649 
L 255.712104 221.054649 
L 255.430679 220.773224 
L 254.86783 221.054649 
L 254.586405 221.336074 
L 254.586405 222.180348 
L 254.86783 222.743197 
L 255.149255 223.306047 
L 255.712104 223.306047 
L 255.993529 223.306047 
L 256.274953 222.743197 
L 256.274953 222.180348 
L 255.993529 221.617498 
L 255.712104 221.054649 
L 255.430679 220.4918 
L 255.149255 220.4918 
L 254.86783 220.4918 
L 254.586405 221.054649 
L 254.586405 221.617498 
L 254.86783 222.180348 
L 255.149255 222.461773 
L 255.430679 222.461773 
L 255.993529 222.461773 
L 256.274953 222.180348 
L 256.274953 221.898923 
L 256.274953 221.336074 
L 255.993529 221.054649 
L 255.712104 220.773224 
L 255.430679 220.773224 
L 255.149255 221.054649 
L 254.86783 221.336074 
L 255.149255 221.898923 
L 255.149255 222.461773 
" style="fill:none;stroke:#8c8c8c;stroke-linecap:square;"/>
   </g>
   <g id="line2d_78">
    <path clip-path="url(#p87ad74c7c6)" d="M 210.402723 178.84094 
L 210.684148 178.84094 
L 210.965573 178.84094 
L 210.965573 178.559515 
L 211.246997 178.559515 
L 211.809847 177.996666 
L 212.654121 177.152392 
L 214.061245 175.745268 
L 215.468368 174.619569 
L 216.312642 174.05672 
L 217.156917 173.775295 
L 217.719766 174.05672 
L 218.282615 174.619569 
L 218.845465 175.463843 
L 219.689739 176.026693 
L 221.096863 176.308118 
L 222.785411 175.745268 
L 224.473959 174.338145 
L 225.036809 173.49387 
L 225.318234 173.212446 
" style="fill:none;stroke:#8c8c8c;stroke-linecap:square;"/>
   </g>
   <g id="line2d_79">
    <path clip-path="url(#p87ad74c7c6)" d="M 230.946728 170.116774 
L 230.946728 169.835349 
L 230.946728 169.553924 
L 230.665303 169.553924 
L 230.383879 169.835349 
L 230.102454 169.835349 
L 229.539604 170.398198 
L 228.976755 170.961048 
L 228.69533 171.523897 
L 228.413906 171.523897 
L 228.69533 171.805322 
L 229.25818 171.805322 
L 229.821029 172.086747 
L 230.946728 172.368171 
L 231.509578 172.931021 
L 232.072427 174.05672 
L 232.072427 174.900994 
L 231.791002 175.463843 
L 231.228153 175.745268 
L 230.665303 175.463843 
L 229.821029 174.619569 
" style="fill:none;stroke:#8c8c8c;stroke-linecap:square;"/>
   </g>
   <g id="line2d_80">
    <path clip-path="url(#p87ad74c7c6)" d="M 232.072427 168.146801 
L 232.072427 167.865376 
L 232.353852 167.865376 
L 232.353852 168.146801 
L 232.353852 168.428225 
L 232.916701 169.553924 
L 233.198126 170.961048 
L 233.479551 172.649596 
L 233.760975 173.775295 
L 234.0424 174.338145 
" style="fill:none;stroke:#8c8c8c;stroke-linecap:square;"/>
   </g>
   <g id="line2d_81">
    <path clip-path="url(#p87ad74c7c6)" d="M 235.168099 171.805322 
L 234.886674 172.368171 
L 234.886674 172.649596 
L 235.168099 173.212446 
L 235.730948 174.05672 
L 236.575223 174.338145 
L 237.419497 174.05672 
L 237.700922 173.775295 
L 237.982346 172.931021 
L 237.700922 172.086747 
L 237.138072 171.523897 
L 236.293798 171.523897 
L 235.449524 172.368171 
L 235.168099 172.649596 
L 235.168099 172.931021 
L 235.168099 173.212446 
" style="fill:none;stroke:#8c8c8c;stroke-linecap:square;"/>
   </g>
   <g id="line2d_82">
    <path clip-path="url(#p87ad74c7c6)" d="M 239.108045 172.368171 
L 239.108045 172.649596 
L 239.38947 172.649596 
L 239.38947 173.212446 
L 239.670895 173.212446 
L 240.233744 173.49387 
L 241.078018 173.212446 
L 241.359443 172.649596 
L 241.359443 172.086747 
L 241.078018 171.242473 
L 240.515169 170.679623 
L 240.233744 170.398198 
L 239.670895 170.679623 
L 239.38947 170.961048 
L 239.108045 171.805322 
L 239.108045 173.212446 
L 239.38947 174.619569 
L 239.670895 176.026693 
L 240.233744 176.589542 
L 240.233744 176.870967 
L 240.233744 177.152392 
" style="fill:none;stroke:#8c8c8c;stroke-linecap:square;"/>
   </g>
   <g id="line2d_83">
    <path clip-path="url(#p87ad74c7c6)" d="M 242.203717 171.805322 
L 242.203717 171.523897 
L 242.485142 171.523897 
L 242.485142 171.242473 
L 242.766567 170.961048 
L 243.329416 170.398198 
L 243.892265 170.116774 
L 243.892265 169.553924 
L 243.892265 169.272499 
L 243.610841 169.272499 
L 243.329416 169.553924 
L 242.766567 170.116774 
L 242.485142 171.242473 
L 242.766567 172.086747 
L 243.329416 172.649596 
L 244.17369 173.212446 
L 245.017964 173.212446 
L 245.580814 172.931021 
" style="fill:none;stroke:#8c8c8c;stroke-linecap:square;"/>
   </g>
   <g id="line2d_84">
    <path clip-path="url(#p87ad74c7c6)" d="M 252.897857 170.116774 
L 252.897857 169.835349 
L 252.897857 170.116774 
L 252.897857 170.398198 
L 253.179281 170.961048 
L 253.179281 171.523897 
L 253.460706 171.523897 
" style="fill:none;stroke:#8c8c8c;stroke-linecap:square;"/>
   </g>
   <g id="line2d_85">
    <path clip-path="url(#p87ad74c7c6)" d="M 252.897857 166.458252 
L 252.897857 166.176828 
L 253.179281 166.176828 
L 253.742131 166.458252 
" style="fill:none;stroke:#8c8c8c;stroke-linecap:square;"/>
   </g>
   <g id="line2d_86">
    <path clip-path="url(#p87ad74c7c6)" d="M 255.149255 167.021102 
L 255.149255 167.302526 
L 255.149255 167.583951 
L 254.86783 167.583951 
L 254.86783 167.865376 
L 254.86783 168.146801 
L 254.86783 168.428225 
L 255.430679 168.70965 
L 255.993529 169.272499 
L 256.556378 170.116774 
L 257.119228 170.961048 
L 257.119228 171.523897 
L 257.119228 172.086747 
" style="fill:none;stroke:#8c8c8c;stroke-linecap:square;"/>
   </g>
   <g id="line2d_87">
    <path clip-path="url(#p87ad74c7c6)" d="M 268.376217 162.236881 
L 268.094792 162.236881 
L 268.376217 162.236881 
L 268.376217 162.799731 
L 268.657641 163.644005 
L 268.939066 164.769704 
L 269.220491 166.458252 
L 269.501916 167.865376 
L 270.064765 169.272499 
L 270.064765 169.835349 
L 270.064765 169.553924 
" style="fill:none;stroke:#8c8c8c;stroke-linecap:square;"/>
   </g>
   <g id="line2d_88">
    <path clip-path="url(#p87ad74c7c6)" d="M 272.034738 162.799731 
L 272.316163 163.081156 
L 272.316163 163.36258 
L 272.034738 163.92543 
L 271.471889 164.488279 
L 270.909039 165.332553 
L 270.34619 165.613978 
L 270.064765 165.895403 
L 269.78334 166.176828 
L 270.064765 166.176828 
L 270.064765 166.458252 
L 271.190464 166.739677 
L 272.879012 167.583951 
L 274.567561 168.70965 
L 275.411835 169.553924 
L 275.974684 170.116774 
L 275.974684 169.835349 
L 275.974684 169.553924 
" style="fill:none;stroke:#8c8c8c;stroke-linecap:square;"/>
   </g>
   <g id="line2d_89">
    <path clip-path="url(#p87ad74c7c6)" d="M 256.837803 227.808842 
L 257.119228 227.808842 
L 257.400652 227.808842 
L 257.682077 228.090267 
L 258.244926 228.371692 
L 258.807776 228.934541 
L 259.370625 229.497391 
L 259.65205 230.06024 
L 259.933475 231.185939 
L 259.65205 232.874487 
L 259.65205 234.844461 
L 259.65205 235.970159 
L 260.496324 237.377283 
L 261.622023 238.221557 
L 262.466297 238.784407 
L 263.591996 239.065831 
L 264.154846 239.065831 
L 264.43627 239.065831 
L 264.717695 239.065831 
" style="fill:none;stroke:#8c8c8c;stroke-linecap:square;"/>
   </g>
   <g id="line2d_90">
    <path clip-path="url(#p87ad74c7c6)" d="M 254.586405 228.934541 
L 254.86783 228.934541 
L 255.149255 228.934541 
L 255.430679 228.653117 
L 255.993529 228.090267 
L 255.993529 227.527418 
L 256.556378 226.964568 
L 256.556378 226.683144 
L 256.837803 226.401719 
L 257.400652 226.401719 
L 257.963502 226.401719 
L 258.526351 226.683144 
L 259.089201 226.964568 
L 259.65205 227.245993 
L 259.933475 227.527418 
" style="fill:none;stroke:#8c8c8c;stroke-linecap:square;"/>
   </g>
   <g id="line2d_91">
    <path clip-path="url(#p87ad74c7c6)" d="M 270.064765 239.910106 
L 270.064765 239.628681 
L 270.064765 239.347256 
L 269.78334 239.347256 
L 269.501916 239.628681 
L 268.657641 240.19153 
L 268.094792 240.75438 
L 267.813367 241.317229 
L 267.813367 241.598654 
L 268.094792 241.598654 
L 268.376217 241.880079 
L 269.220491 242.161503 
L 270.064765 242.724353 
L 270.627614 243.287202 
L 270.909039 243.850052 
L 271.190464 244.694326 
L 270.627614 245.5386 
L 270.34619 245.820025 
L 270.064765 245.5386 
" style="fill:none;stroke:#8c8c8c;stroke-linecap:square;"/>
   </g>
   <g id="line2d_92">
    <path clip-path="url(#p87ad74c7c6)" d="M 271.471889 240.472955 
L 271.753313 240.472955 
L 272.034738 240.472955 
L 272.034738 240.75438 
L 272.316163 241.035805 
L 272.597587 242.161503 
L 273.160437 243.287202 
L 273.441862 243.850052 
" style="fill:none;stroke:#8c8c8c;stroke-linecap:square;"/>
   </g>
   <g id="line2d_93">
    <path clip-path="url(#p87ad74c7c6)" d="M 272.034738 243.005778 
L 271.753313 243.005778 
L 272.316163 242.724353 
L 273.441862 242.442928 
L 274.567561 241.880079 
L 275.13041 241.598654 
" style="fill:none;stroke:#8c8c8c;stroke-linecap:square;"/>
   </g>
   <g id="line2d_94">
    <path clip-path="url(#p87ad74c7c6)" d="M 275.974684 241.317229 
L 275.974684 241.598654 
L 275.693259 241.880079 
L 275.974684 241.880079 
L 276.256109 241.880079 
L 276.537534 241.880079 
L 277.100383 241.317229 
L 277.381808 241.035805 
L 277.381808 240.75438 
L 277.381808 240.472955 
L 276.818958 240.75438 
L 276.537534 241.035805 
L 275.974684 241.880079 
L 275.974684 243.005778 
L 276.256109 243.568627 
L 277.100383 244.131476 
L 277.663233 244.412901 
L 278.507507 244.131476 
L 278.788931 243.850052 
" style="fill:none;stroke:#8c8c8c;stroke-linecap:square;"/>
   </g>
   <g id="line2d_95">
    <path clip-path="url(#p87ad74c7c6)" d="M 280.758905 241.317229 
L 280.758905 241.598654 
L 280.758905 241.880079 
L 280.758905 242.161503 
L 280.758905 242.724353 
L 280.758905 243.005778 
L 281.040329 243.005778 
L 281.040329 242.724353 
L 281.040329 242.442928 
L 280.758905 242.161503 
L 280.196055 241.598654 
L 279.633206 241.317229 
L 279.070356 241.317229 
L 278.507507 241.880079 
L 278.226082 242.442928 
L 278.507507 243.287202 
L 279.070356 243.568627 
L 279.91463 243.287202 
" style="fill:none;stroke:#8c8c8c;stroke-linecap:square;"/>
   </g>
   <g id="line2d_96">
    <path clip-path="url(#p87ad74c7c6)" d="M 282.728878 241.598654 
L 282.728878 241.317229 
L 282.447453 241.317229 
L 282.166028 241.317229 
L 281.884603 241.598654 
L 281.884603 241.880079 
L 282.166028 241.880079 
L 282.447453 241.880079 
L 283.010302 241.880079 
L 283.573152 241.598654 
L 283.854577 240.75438 
L 283.854577 239.347256 
L 283.573152 237.658708 
L 283.573152 236.814434 
L 283.010302 236.251584 
L 283.010302 236.533009 
L 283.291727 236.814434 
L 283.291727 237.377283 
L 283.854577 239.065831 
L 284.136001 240.472955 
L 284.698851 241.880079 
L 284.698851 242.442928 
" style="fill:none;stroke:#8c8c8c;stroke-linecap:square;"/>
   </g>
   <g id="line2d_97">
    <path clip-path="url(#p87ad74c7c6)" d="M 292.578743 239.065831 
L 292.578743 238.784407 
" style="fill:none;stroke:#8c8c8c;stroke-linecap:square;"/>
   </g>
   <g id="line2d_98">
    <path clip-path="url(#p87ad74c7c6)" d="M 284.698851 239.910106 
L 284.980275 239.910106 
L 285.2617 240.19153 
L 285.543125 240.75438 
L 286.105974 241.317229 
L 286.668824 242.161503 
L 286.950248 242.724353 
L 287.231673 242.724353 
L 287.794523 242.442928 
L 287.794523 241.880079 
L 288.075947 241.598654 
" style="fill:none;stroke:#8c8c8c;stroke-linecap:square;"/>
   </g>
   <g id="line2d_99">
    <path clip-path="url(#p87ad74c7c6)" d="M 288.357372 240.19153 
L 288.357372 239.910106 
L 288.638797 239.910106 
L 288.638797 240.19153 
L 288.357372 240.472955 
L 288.357372 241.317229 
L 288.357372 243.287202 
L 288.357372 244.975751 
L 288.638797 246.664299 
L 288.920222 247.789998 
L 289.201646 248.071423 
L 289.201646 247.789998 
" style="fill:none;stroke:#8c8c8c;stroke-linecap:square;"/>
   </g>
   <g id="line2d_100">
    <path clip-path="url(#p87ad74c7c6)" d="M 292.860168 238.221557 
L 292.860168 237.940133 
L 293.141592 237.940133 
L 293.141592 237.940133 
L 292.860168 237.940133 
L 292.297318 238.502982 
L 291.734469 238.784407 
L 291.734469 239.065831 
L 291.734469 239.347256 
L 292.015894 239.347256 
L 292.578743 239.347256 
L 293.704442 239.628681 
L 294.830141 240.19153 
L 295.39299 240.472955 
L 295.674415 241.317229 
L 295.674415 241.880079 
L 295.39299 242.442928 
L 294.830141 242.724353 
L 294.548716 242.724353 
L 294.267291 242.442928 
" style="fill:none;stroke:#8c8c8c;stroke-linecap:square;"/>
   </g>
   <g id="line2d_101">
    <path clip-path="url(#p87ad74c7c6)" d="M 296.800114 237.940133 
L 297.081539 237.658708 
L 297.362963 237.658708 
L 297.362963 237.940133 
L 297.644388 238.502982 
L 298.207238 239.347256 
L 298.770087 240.472955 
L 299.051512 241.317229 
L 299.332936 241.598654 
" style="fill:none;stroke:#8c8c8c;stroke-linecap:square;"/>
   </g>
   <g id="line2d_102">
    <path clip-path="url(#p87ad74c7c6)" d="M 297.081539 239.910106 
L 297.081539 240.19153 
L 297.362963 240.19153 
L 298.207238 239.910106 
L 299.332936 239.910106 
L 300.177211 239.628681 
L 300.74006 239.628681 
" style="fill:none;stroke:#8c8c8c;stroke-linecap:square;"/>
   </g>
   <g id="line2d_103">
    <path clip-path="url(#p87ad74c7c6)" d="M 302.428608 238.784407 
L 302.147184 238.784407 
L 301.865759 238.784407 
L 301.584334 239.065831 
L 301.30291 239.065831 
L 301.30291 239.347256 
L 301.30291 239.628681 
L 301.30291 239.910106 
L 301.865759 239.910106 
L 302.428608 239.628681 
L 302.710033 239.347256 
L 302.991458 239.065831 
L 303.272883 238.784407 
L 303.272883 238.502982 
L 303.272883 238.784407 
L 303.272883 239.065831 
L 303.554307 239.910106 
L 303.835732 240.75438 
L 304.117157 241.317229 
L 304.398581 241.317229 
" style="fill:none;stroke:#8c8c8c;stroke-linecap:square;"/>
   </g>
   <g id="line2d_104">
    <path clip-path="url(#p87ad74c7c6)" d="M 305.52428 237.940133 
L 305.805705 237.658708 
L 306.08713 238.221557 
L 306.368555 238.502982 
L 306.931404 239.628681 
L 307.212829 240.19153 
" style="fill:none;stroke:#8c8c8c;stroke-linecap:square;"/>
   </g>
   <g id="line2d_105">
    <path clip-path="url(#p87ad74c7c6)" d="M 306.08713 239.065831 
L 306.368555 239.065831 
L 307.494253 239.065831 
L 308.057103 238.784407 
L 308.338528 238.502982 
" style="fill:none;stroke:#8c8c8c;stroke-linecap:square;"/>
   </g>
   <g id="line2d_106">
    <path clip-path="url(#p87ad74c7c6)" d="M 309.745651 237.658708 
L 309.745651 237.940133 
L 309.745651 238.221557 
L 310.308501 238.221557 
L 310.589925 237.940133 
L 310.87135 237.658708 
L 311.152775 237.377283 
L 311.152775 237.095858 
L 310.87135 237.095858 
L 310.308501 237.095858 
L 310.027076 237.658708 
L 310.027076 238.502982 
L 310.87135 239.910106 
L 311.715624 240.75438 
L 312.841323 241.035805 
L 313.122748 241.035805 
" style="fill:none;stroke:#8c8c8c;stroke-linecap:square;"/>
   </g>
   <g id="line2d_107">
    <path clip-path="url(#p87ad74c7c6)" d="M 321.56549 239.065831 
L 321.284065 238.784407 
L 321.284065 239.065831 
L 321.56549 239.628681 
L 321.56549 240.19153 
L 321.846914 240.19153 
L 321.846914 239.910106 
L 321.846914 239.628681 
L 321.846914 238.784407 
L 321.846914 238.221557 
L 321.846914 237.377283 
L 322.409764 236.814434 
L 322.691189 236.814434 
L 322.972613 237.095858 
L 323.254038 237.377283 
L 323.535463 237.658708 
L 323.535463 237.377283 
L 323.816888 237.095858 
L 323.816888 236.533009 
L 324.098312 235.970159 
L 324.379737 235.970159 
L 324.942586 236.533009 
L 325.505436 237.377283 
L 326.34971 238.502982 
L 326.631135 239.347256 
L 327.193984 239.628681 
L 327.193984 239.347256 
" style="fill:none;stroke:#8c8c8c;stroke-linecap:square;"/>
   </g>
   <g id="line2d_108">
    <path clip-path="url(#p87ad74c7c6)" d="M 329.726807 236.814434 
L 329.726807 236.533009 
L 329.726807 236.251584 
L 329.445382 236.251584 
L 329.163957 236.251584 
L 328.319683 236.533009 
L 327.756834 237.095858 
L 327.475409 237.658708 
L 327.475409 238.221557 
L 328.038258 238.221557 
L 328.601108 238.221557 
L 329.163957 237.940133 
L 329.726807 237.095858 
L 329.726807 236.533009 
L 330.008232 236.251584 
L 330.008232 235.970159 
L 330.008232 236.251584 
L 330.008232 236.533009 
L 330.289656 237.095858 
L 330.289656 237.940133 
L 330.571081 238.502982 
L 330.852506 239.065831 
L 331.415355 239.065831 
" style="fill:none;stroke:#8c8c8c;stroke-linecap:square;"/>
   </g>
   <g id="line2d_109">
    <path clip-path="url(#p87ad74c7c6)" d="M 333.666753 235.125885 
L 333.948178 234.844461 
L 333.666753 234.844461 
L 333.385328 234.844461 
L 333.103903 235.125885 
L 332.541054 235.40731 
L 332.259629 235.688735 
L 332.259629 236.251584 
L 332.822479 236.533009 
L 333.666753 237.095858 
L 334.511027 237.658708 
L 335.073877 238.221557 
L 335.073877 238.784407 
L 335.073877 239.065831 
L 334.792452 239.347256 
L 334.792452 239.628681 
" style="fill:none;stroke:#8c8c8c;stroke-linecap:square;"/>
   </g>
   <g id="line2d_110">
    <path clip-path="url(#p87ad74c7c6)" d="M 337.325274 235.125885 
L 337.325274 234.563036 
L 337.04385 234.281611 
L 336.762425 234.563036 
L 336.199575 234.563036 
L 335.355301 235.125885 
L 334.792452 235.688735 
L 335.073877 235.970159 
L 335.355301 236.251584 
L 336.199575 236.251584 
L 337.04385 236.533009 
L 337.606699 236.814434 
L 338.169549 237.377283 
L 338.450973 237.940133 
L 338.450973 238.784407 
L 338.169549 239.628681 
L 337.888124 239.910106 
" style="fill:none;stroke:#8c8c8c;stroke-linecap:square;"/>
   </g>
   <g id="line2d_111">
    <path clip-path="url(#p87ad74c7c6)" d="M 143.986488 148.44707 
L 144.267913 148.44707 
L 144.267913 148.728495 
L 144.267913 149.291344 
L 144.267913 149.572769 
L 144.267913 149.854193 
L 144.549337 150.135618 
L 144.549337 150.698468 
L 144.549337 151.261317 
L 144.830762 151.824166 
L 145.112187 152.668441 
L 145.112187 153.79414 
L 145.393612 154.356989 
L 145.393612 155.482688 
L 145.675036 156.326962 
L 145.675036 157.171236 
L 145.675036 157.734086 
L 145.675036 158.01551 
L 145.675036 158.296935 
L 145.675036 158.57836 
" style="fill:none;stroke:#8c8c8c;stroke-linecap:square;"/>
   </g>
   <g id="line2d_112">
    <path clip-path="url(#p87ad74c7c6)" d="M 143.142214 158.296935 
L 143.142214 158.01551 
L 143.142214 158.296935 
L 143.423638 158.296935 
L 143.705063 158.57836 
L 144.267913 159.422634 
L 144.549337 159.985484 
L 145.112187 160.829758 
L 145.393612 160.829758 
L 145.675036 160.829758 
L 146.237886 160.266908 
L 146.51931 159.141209 
L 147.08216 158.01551 
L 147.363585 157.171236 
L 147.363585 156.889812 
" style="fill:none;stroke:#8c8c8c;stroke-linecap:square;"/>
   </g>
   <g id="line2d_113">
    <path clip-path="url(#p87ad74c7c6)" d="M 143.705063 148.44707 
L 143.705063 148.165645 
L 143.423638 148.165645 
L 143.423638 147.88422 
L 143.423638 147.602796 
L 143.423638 147.321371 
L 143.423638 147.039946 
L 143.142214 146.477097 
L 143.142214 145.632823 
L 142.860789 145.069973 
L 142.579364 143.944274 
L 142.579364 143.1 
L 142.29794 142.255726 
L 142.29794 141.692876 
L 142.29794 141.130027 
L 142.29794 140.567177 
L 142.016515 140.285753 
L 142.016515 140.004328 
L 142.016515 139.722903 
L 141.73509 139.160054 
L 141.73509 138.878629 
" style="fill:none;stroke:#8c8c8c;stroke-linecap:square;"/>
   </g>
   <g id="line2d_114">
    <path clip-path="url(#p87ad74c7c6)" d="M 139.765117 140.004328 
L 139.765117 139.722903 
L 139.765117 139.441479 
L 139.765117 139.160054 
L 140.046542 138.878629 
L 140.046542 137.75293 
L 140.327966 137.190081 
L 140.327966 136.908656 
L 140.609391 136.627231 
L 140.609391 136.345807 
L 140.890816 136.345807 
L 141.172241 136.345807 
L 141.73509 136.908656 
L 142.016515 137.190081 
L 142.29794 137.471505 
L 142.579364 137.75293 
L 142.579364 138.034355 
" style="fill:none;stroke:#8c8c8c;stroke-linecap:square;"/>
   </g>
   <g id="line2d_115">
    <path clip-path="url(#p87ad74c7c6)" d="M 151.303531 148.44707 
L 151.303531 148.728495 
L 151.584955 148.728495 
L 151.584955 149.009919 
L 151.584955 149.291344 
L 151.86638 149.291344 
L 151.86638 149.572769 
L 152.147805 149.854193 
L 152.147805 150.135618 
L 152.42923 150.698468 
L 152.42923 150.979892 
L 152.710654 151.261317 
L 152.992079 151.824166 
L 152.992079 152.105591 
L 153.273504 152.387016 
" style="fill:none;stroke:#8c8c8c;stroke-linecap:square;"/>
   </g>
   <g id="line2d_116">
    <path clip-path="url(#p87ad74c7c6)" d="M 154.962052 154.356989 
L 154.962052 154.638414 
L 155.243477 154.638414 
L 155.243477 154.919838 
L 155.243477 155.201263 
L 155.524902 155.482688 
L 155.806326 155.764113 
L 156.087751 156.045537 
L 156.369176 156.326962 
L 156.650601 156.889812 
L 156.932025 156.889812 
" style="fill:none;stroke:#8c8c8c;stroke-linecap:square;"/>
   </g>
   <g id="line2d_117">
    <path clip-path="url(#p87ad74c7c6)" d="M 160.590547 162.236881 
L 160.590547 162.518306 
L 160.590547 162.799731 
L 160.871971 162.799731 
L 160.871971 163.081156 
L 161.153396 163.36258 
L 161.153396 163.644005 
L 161.716246 164.488279 
L 161.99767 165.051129 
L 162.279095 165.613978 
L 162.56052 165.895403 
" style="fill:none;stroke:#8c8c8c;stroke-linecap:square;"/>
   </g>
   <g id="line2d_118">
    <path clip-path="url(#p87ad74c7c6)" d="M 165.374767 169.272499 
L 165.656192 169.272499 
L 165.656192 169.553924 
L 165.656192 169.835349 
L 165.656192 170.116774 
L 165.937616 170.398198 
L 165.937616 170.679623 
L 166.219041 171.242473 
L 166.500466 172.086747 
L 166.781891 172.649596 
L 166.781891 173.212446 
L 167.063315 173.49387 
" style="fill:none;stroke:#8c8c8c;stroke-linecap:square;"/>
   </g>
   <g id="line2d_119">
    <path clip-path="url(#p87ad74c7c6)" d="M 170.721837 178.84094 
L 170.721837 179.122365 
L 170.721837 179.40379 
L 170.721837 179.685214 
L 171.003262 179.966639 
L 171.284686 180.248064 
L 171.284686 180.529489 
L 171.566111 180.810913 
L 171.847536 181.373763 
" style="fill:none;stroke:#8c8c8c;stroke-linecap:square;"/>
   </g>
   <g id="line2d_120">
    <path clip-path="url(#p87ad74c7c6)" d="M 175.506057 187.283682 
L 175.506057 187.565107 
L 175.787482 187.846531 
L 176.068907 188.127956 
L 176.068907 188.409381 
L 176.350331 188.690806 
L 176.350331 188.97223 
L 176.631756 189.253655 
" style="fill:none;stroke:#8c8c8c;stroke-linecap:square;"/>
   </g>
   <g id="line2d_121">
    <path clip-path="url(#p87ad74c7c6)" d="M 180.290277 195.726424 
L 180.290277 196.289273 
L 180.290277 196.570698 
L 180.571702 196.852123 
L 180.571702 197.133547 
L 180.853127 197.696397 
L 181.134552 197.977821 
L 181.134552 198.259246 
L 181.415976 198.822096 
" style="fill:none;stroke:#8c8c8c;stroke-linecap:square;"/>
   </g>
   <g id="line2d_122">
    <path clip-path="url(#p87ad74c7c6)" d="M 185.074498 206.139139 
L 185.355923 206.420563 
L 185.355923 206.983413 
L 185.355923 207.264837 
L 185.355923 207.827687 
L 185.637347 208.109112 
L 185.918772 208.953386 
L 186.200197 209.516235 
L 186.481621 209.79766 
L 186.763046 210.360509 
" style="fill:none;stroke:#8c8c8c;stroke-linecap:square;"/>
   </g>
   <g id="line2d_123">
    <path clip-path="url(#p87ad74c7c6)" d="M 189.295869 216.270429 
L 189.295869 216.551853 
L 189.577293 217.114703 
L 189.858718 217.677552 
L 190.140143 218.521826 
L 190.702992 219.084676 
L 190.984417 219.92895 
L 191.265842 220.4918 
L 191.547267 221.054649 
" style="fill:none;stroke:#8c8c8c;stroke-linecap:square;"/>
   </g>
   <g id="line2d_124">
    <path clip-path="url(#p87ad74c7c6)" d="M 192.391541 226.964568 
L 192.110116 226.964568 
L 192.110116 227.245993 
L 192.110116 227.527418 
L 192.110116 227.808842 
L 192.391541 228.090267 
L 192.672965 227.808842 
L 192.95439 227.527418 
L 192.95439 227.245993 
L 192.95439 226.964568 
L 192.95439 226.683144 
L 192.672965 226.683144 
L 192.672965 226.401719 
L 192.391541 226.401719 
L 192.110116 226.401719 
L 192.110116 226.683144 
L 191.828691 226.964568 
L 192.110116 227.527418 
L 192.110116 227.808842 
L 192.672965 228.090267 
L 192.95439 228.090267 
L 193.235815 227.808842 
L 193.51724 227.527418 
L 193.798664 227.245993 
L 193.51724 226.964568 
L 193.235815 226.401719 
L 192.672965 226.120294 
L 192.391541 226.120294 
L 191.828691 226.401719 
L 191.547267 226.683144 
L 191.547267 226.964568 
L 191.828691 227.808842 
L 192.110116 228.090267 
L 192.672965 228.090267 
L 192.95439 228.090267 
L 193.51724 226.964568 
L 193.51724 226.683144 
L 193.235815 226.120294 
L 192.95439 225.838869 
L 192.391541 225.838869 
L 192.110116 225.838869 
L 191.828691 225.838869 
L 191.828691 226.401719 
L 191.828691 226.683144 
L 192.110116 227.245993 
L 192.672965 227.527418 
L 193.51724 227.527418 
L 193.798664 227.245993 
L 193.798664 226.683144 
L 193.798664 226.401719 
L 193.235815 225.838869 
L 192.672965 225.27602 
L 192.391541 225.27602 
L 191.828691 225.557445 
L 191.828691 226.120294 
L 191.828691 226.683144 
L 191.828691 226.964568 
L 192.110116 226.964568 
L 191.828691 226.964568 
" style="fill:none;stroke:#8c8c8c;stroke-linecap:square;"/>
   </g>
   <g id="line2d_125">
    <path clip-path="url(#p87ad74c7c6)" d="M 228.132481 228.653117 
L 227.851056 228.653117 
L 227.851056 228.934541 
L 227.569631 228.934541 
L 227.288207 228.934541 
L 227.006782 228.934541 
L 226.725357 228.934541 
L 226.443932 228.934541 
L 226.162508 228.934541 
L 225.881083 228.934541 
L 225.318234 228.934541 
L 225.036809 228.934541 
L 224.473959 228.934541 
L 224.192535 228.934541 
L 223.629685 228.934541 
L 223.066836 228.934541 
L 222.503986 228.934541 
L 222.222562 228.934541 
L 221.659712 228.934541 
L 221.096863 228.934541 
L 220.534013 228.934541 
L 219.971164 228.934541 
L 219.689739 229.215966 
L 219.12689 229.215966 
L 218.845465 229.215966 
L 218.56404 229.497391 
L 218.001191 229.497391 
L 217.719766 229.497391 
L 217.438341 229.778815 
L 217.156917 229.778815 
L 216.594067 229.778815 
L 216.312642 230.06024 
L 216.031218 230.06024 
L 215.468368 230.341665 
L 215.186943 230.341665 
L 214.624094 230.62309 
L 214.061245 230.62309 
L 213.498395 230.904514 
L 213.21697 231.185939 
L 212.935546 231.185939 
L 212.372696 231.185939 
L 212.091271 231.467364 
L 211.528422 231.467364 
L 211.246997 231.467364 
L 210.684148 231.467364 
L 210.402723 231.467364 
L 210.121298 231.467364 
L 209.558449 231.467364 
L 209.277024 231.467364 
L 208.9956 231.467364 
L 208.43275 231.467364 
L 208.151325 231.467364 
L 207.869901 231.748789 
L 207.307051 231.748789 
L 207.025626 231.748789 
L 206.744202 231.748789 
L 206.181352 231.748789 
L 205.899928 231.748789 
L 205.618503 231.748789 
L 205.337078 231.748789 
L 205.337078 232.030213 
L 205.055653 232.030213 
L 204.774229 232.030213 
L 204.774229 232.311638 
L 205.055653 232.311638 
L 205.337078 232.593063 
L 206.181352 232.874487 
L 207.025626 233.437337 
L 207.869901 234.000186 
L 208.43275 234.000186 
L 208.9956 234.000186 
" style="fill:none;stroke:#8c8c8c;stroke-linecap:square;"/>
   </g>
   <g id="line2d_126">
    <path clip-path="url(#p87ad74c7c6)" d="M 186.200197 248.071423 
L 186.200197 248.352847 
L 186.200197 248.634272 
L 186.200197 249.197122 
L 186.200197 250.604245 
L 186.481621 252.292794 
L 186.763046 254.544191 
L 187.044471 255.66989 
L 187.044471 256.23274 
" style="fill:none;stroke:#8c8c8c;stroke-linecap:square;"/>
   </g>
   <g id="line2d_127">
    <path clip-path="url(#p87ad74c7c6)" d="M 188.451595 252.292794 
L 188.17017 252.292794 
L 188.17017 252.574218 
L 188.451595 253.418492 
L 188.733019 254.262767 
L 189.295869 255.107041 
L 189.858718 255.107041 
L 190.421568 254.544191 
L 190.702992 253.981342 
L 190.702992 252.855643 
L 190.140143 252.292794 
L 189.577293 251.448519 
L 189.014444 251.448519 
L 188.733019 251.729944 
L 188.733019 252.292794 
" style="fill:none;stroke:#8c8c8c;stroke-linecap:square;"/>
   </g>
   <g id="line2d_128">
    <path clip-path="url(#p87ad74c7c6)" d="M 190.702992 252.011369 
L 190.984417 251.729944 
L 190.984417 251.448519 
L 191.265842 251.448519 
L 191.265842 251.729944 
L 191.547267 252.011369 
L 192.110116 252.574218 
L 192.672965 253.137068 
L 192.95439 253.137068 
L 193.235815 253.137068 
L 193.235815 252.574218 
L 193.235815 252.292794 
L 193.235815 251.729944 
L 193.51724 251.729944 
L 193.798664 252.011369 
L 194.080089 252.292794 
L 194.924363 252.574218 
L 195.205788 252.574218 
L 195.205788 252.292794 
L 194.924363 252.011369 
L 194.642938 251.167095 
L 194.361514 250.88567 
L 194.361514 250.604245 
" style="fill:none;stroke:#8c8c8c;stroke-linecap:square;"/>
   </g>
   <g id="line2d_129">
    <path clip-path="url(#p87ad74c7c6)" d="M 196.050062 250.88567 
L 196.331487 250.88567 
L 196.331487 251.167095 
L 196.612912 251.167095 
L 196.612912 250.88567 
L 196.894336 250.88567 
L 197.175761 250.041396 
L 197.175761 249.478546 
L 196.894336 249.197122 
L 196.612912 249.197122 
L 196.050062 249.759971 
L 195.768637 250.604245 
L 195.768637 252.011369 
L 196.331487 252.855643 
L 196.894336 253.137068 
L 198.020035 253.137068 
L 198.582885 252.574218 
L 198.864309 252.011369 
L 198.864309 251.448519 
L 199.145734 250.88567 
L 199.427159 250.88567 
L 199.708584 250.88567 
L 199.708584 251.167095 
L 200.271433 251.448519 
L 200.834282 252.011369 
L 200.834282 252.292794 
L 200.834282 252.011369 
L 200.834282 251.448519 
L 200.834282 250.32282 
L 201.115707 249.197122 
L 201.678557 248.352847 
L 201.678557 247.789998 
" style="fill:none;stroke:#8c8c8c;stroke-linecap:square;"/>
   </g>
   <g id="line2d_130">
    <path clip-path="url(#p87ad74c7c6)" d="M 192.110116 259.328412 
L 192.110116 259.046987 
L 192.672965 259.891261 
L 192.95439 261.01696 
L 193.51724 262.424084 
L 194.080089 263.831207 
L 194.642938 264.394057 
L 194.642938 264.675481 
" style="fill:none;stroke:#8c8c8c;stroke-linecap:square;"/>
   </g>
   <g id="line2d_131">
    <path clip-path="url(#p87ad74c7c6)" d="M 191.828691 262.705508 
L 191.547267 262.705508 
L 191.828691 262.705508 
L 191.828691 262.424084 
L 192.672965 261.861234 
L 194.080089 261.01696 
L 194.924363 260.454111 
" style="fill:none;stroke:#8c8c8c;stroke-linecap:square;"/>
   </g>
   <g id="line2d_132">
    <path clip-path="url(#p87ad74c7c6)" d="M 196.331487 260.454111 
L 196.612912 260.735535 
L 196.612912 261.01696 
L 196.894336 261.01696 
L 197.457186 260.735535 
L 198.020035 260.172686 
L 198.020035 259.609836 
L 197.73861 259.328412 
L 197.457186 259.046987 
L 196.894336 259.328412 
L 196.612912 259.891261 
L 196.331487 260.735535 
L 196.612912 261.861234 
L 197.457186 262.705508 
L 198.020035 262.705508 
L 199.145734 262.424084 
L 199.708584 261.861234 
L 199.990008 261.298385 
L 199.990008 260.735535 
L 199.990008 260.454111 
L 200.271433 260.172686 
L 200.271433 260.454111 
L 200.552858 260.454111 
L 200.834282 261.01696 
L 201.115707 261.579809 
L 201.397132 261.861234 
L 201.397132 261.579809 
L 201.115707 261.579809 
L 201.115707 260.454111 
L 201.115707 259.609836 
L 201.397132 259.046987 
L 201.678557 258.765562 
L 201.959981 259.046987 
L 202.241406 259.328412 
L 202.522831 259.891261 
L 202.804256 260.172686 
L 202.804256 259.609836 
L 203.08568 259.046987 
L 203.367105 258.765562 
L 203.64853 258.484138 
L 203.929954 258.765562 
L 204.211379 259.046987 
L 204.774229 259.609836 
" style="fill:none;stroke:#8c8c8c;stroke-linecap:square;"/>
   </g>
   <g id="line2d_133">
    <path clip-path="url(#p87ad74c7c6)" d="M 205.337078 259.891261 
L 205.618503 259.891261 
L 205.899928 259.891261 
L 206.181352 259.891261 
L 206.462777 259.891261 
L 207.307051 259.609836 
L 207.588476 259.046987 
L 208.151325 258.484138 
L 208.151325 257.639863 
L 207.869901 256.795589 
L 207.307051 255.951315 
L 206.744202 255.951315 
L 206.462777 256.23274 
L 206.181352 257.358439 
L 206.462777 259.046987 
L 207.025626 261.298385 
L 207.869901 263.268358 
L 208.43275 264.394057 
L 208.714175 264.675481 
L 208.714175 264.956906 
L 208.714175 264.675481 
L 208.43275 264.675481 
" style="fill:none;stroke:#8c8c8c;stroke-linecap:square;"/>
   </g>
   <g id="line2d_134">
    <path clip-path="url(#p87ad74c7c6)" d="M 212.935546 260.454111 
L 212.654121 260.454111 
L 212.372696 260.454111 
L 212.372696 260.735535 
L 212.091271 260.735535 
" style="fill:none;stroke:#8c8c8c;stroke-linecap:square;"/>
   </g>
   <g id="line2d_135">
    <path clip-path="url(#p87ad74c7c6)" d="M 178.601729 240.19153 
L 178.320304 240.19153 
L 178.320304 240.472955 
L 178.601729 240.472955 
L 178.601729 240.75438 
L 178.601729 241.035805 
L 178.883154 241.317229 
L 179.164579 242.161503 
L 179.446003 243.005778 
L 179.727428 243.850052 
L 179.727428 244.412901 
L 179.727428 244.131476 
L 179.446003 243.568627 
L 179.164579 243.005778 
L 178.883154 241.880079 
L 178.883154 240.75438 
L 178.601729 239.910106 
L 178.601729 239.065831 
L 178.601729 238.784407 
L 178.883154 238.502982 
L 179.164579 238.502982 
L 179.446003 238.784407 
L 179.727428 239.628681 
L 180.290277 241.035805 
L 180.571702 241.598654 
L 180.853127 242.161503 
L 180.853127 242.442928 
L 180.853127 242.161503 
L 180.853127 241.880079 
L 180.571702 241.317229 
L 180.571702 239.910106 
L 180.571702 239.065831 
L 180.853127 238.221557 
L 181.134552 237.940133 
L 181.415976 237.940133 
L 181.697401 238.221557 
L 182.260251 238.784407 
L 183.104525 240.472955 
L 183.948799 242.161503 
L 184.511648 243.568627 
L 185.074498 244.412901 
L 185.074498 244.694326 
L 185.355923 244.694326 
" style="fill:none;stroke:#8c8c8c;stroke-linecap:square;"/>
   </g>
   <g id="line2d_136">
    <path clip-path="url(#p87ad74c7c6)" d="M 184.511648 235.970159 
L 184.230224 235.688735 
L 183.948799 235.688735 
L 183.948799 235.970159 
L 184.230224 235.970159 
L 184.230224 236.533009 
L 184.793073 237.377283 
L 185.074498 238.221557 
L 185.918772 239.347256 
L 186.481621 240.472955 
L 187.044471 241.035805 
L 187.325896 241.317229 
L 187.325896 241.035805 
" style="fill:none;stroke:#8c8c8c;stroke-linecap:square;"/>
   </g>
   <g id="line2d_137">
    <path clip-path="url(#p87ad74c7c6)" d="M 185.918772 242.161503 
L 185.637347 241.880079 
L 185.355923 241.880079 
L 185.637347 241.880079 
L 185.918772 241.880079 
L 185.918772 242.161503 
L 186.200197 242.442928 
L 186.763046 243.005778 
L 187.044471 243.005778 
L 187.325896 243.005778 
L 187.325896 242.724353 
L 187.325896 242.442928 
L 187.325896 241.598654 
L 187.325896 241.035805 
L 187.044471 240.472955 
L 187.044471 240.19153 
L 187.044471 239.910106 
" style="fill:none;stroke:#8c8c8c;stroke-linecap:square;"/>
   </g>
   <g id="line2d_138">
    <path clip-path="url(#p87ad74c7c6)" d="M 180.571702 250.604245 
L 180.571702 250.88567 
L 180.571702 251.167095 
L 180.290277 251.729944 
L 180.008853 252.574218 
L 179.727428 253.699917 
L 179.164579 255.388466 
L 179.164579 257.639863 
L 180.008853 260.735535 
L 181.697401 263.268358 
L 184.793073 265.519756 
L 187.325896 266.36403 
L 188.451595 266.645455 
" style="fill:none;stroke:#8c8c8c;stroke-linecap:square;"/>
   </g>
   <g id="line2d_139">
    <path clip-path="url(#p87ad74c7c6)" d="M 207.588476 246.382874 
L 207.588476 246.10145 
L 207.307051 246.10145 
L 207.307051 245.820025 
L 207.588476 245.820025 
L 208.43275 246.382874 
L 210.121298 247.508573 
L 211.528422 249.197122 
L 213.498395 251.448519 
L 215.186943 254.262767 
L 215.749793 256.795589 
L 215.749793 257.077014 
" style="fill:none;stroke:#8c8c8c;stroke-linecap:square;"/>
   </g>
  </g>
 </g>
 <defs>
  <clipPath id="p87ad74c7c6">
   <rect height="271.8" width="427.512301" x="7.2" y="7.2"/>
  </clipPath>
 </defs>
</svg>
