<?xml version="1.0" encoding="utf-8" standalone="no"?>
<!DOCTYPE svg PUBLIC "-//W3C//DTD SVG 1.1//EN"
  "http://www.w3.org/Graphics/SVG/1.1/DTD/svg11.dtd">
<!-- Created with matplotlib (https://matplotlib.org/) -->
<svg height="286.2pt" version="1.1" viewBox="0 0 507.721436 286.2" width="507.721436pt" xmlns="http://www.w3.org/2000/svg" xmlns:xlink="http://www.w3.org/1999/xlink">
 <metadata>
  <rdf:RDF xmlns:cc="http://creativecommons.org/ns#" xmlns:dc="http://purl.org/dc/elements/1.1/" xmlns:rdf="http://www.w3.org/1999/02/22-rdf-syntax-ns#">
   <cc:Work>
    <dc:type rdf:resource="http://purl.org/dc/dcmitype/StillImage"/>
    <dc:date>2024-11-15T16:04:09.593942</dc:date>
    <dc:format>image/svg+xml</dc:format>
    <dc:creator>
     <cc:Agent>
      <dc:title>Matplotlib v3.3.4, https://matplotlib.org/</dc:title>
     </cc:Agent>
    </dc:creator>
   </cc:Work>
  </rdf:RDF>
 </metadata>
 <defs>
  <style type="text/css">*{stroke-linecap:butt;stroke-linejoin:round;}</style>
 </defs>
 <g id="figure_1">
  <g id="patch_1">
   <path d="M 0 286.2 
L 507.721436 286.2 
L 507.721436 0 
L 0 0 
z
" style="fill:#ffffff;"/>
  </g>
  <g id="axes_1">
   <g id="line2d_1">
    <path clip-path="url(#pa586e86702)" d="M 117.81284 115.540894 
L 117.81284 115.272025 
L 117.81284 115.540894 
L 117.81284 115.809764 
L 117.81284 116.078633 
L 117.81284 116.347502 
L 117.81284 116.616372 
L 117.81284 116.885241 
L 117.81284 117.15411 
L 117.81284 117.42298 
L 118.081709 117.691849 
L 118.081709 117.960718 
L 118.081709 118.498457 
L 118.081709 119.036195 
L 118.350579 119.573934 
L 118.350579 120.111673 
L 118.350579 120.380542 
L 118.350579 121.18715 
L 118.350579 121.724889 
L 118.350579 122.531497 
L 118.619448 123.069235 
L 118.619448 123.606974 
L 118.619448 124.413582 
L 118.888317 124.951321 
L 118.888317 125.489059 
L 118.888317 126.026798 
L 118.888317 126.564537 
L 119.157187 127.371145 
L 119.157187 127.640014 
L 119.157187 128.177752 
L 119.157187 128.98436 
L 119.157187 129.522099 
L 119.157187 130.059838 
L 119.426056 130.328707 
L 119.426056 130.866446 
L 119.426056 131.404184 
L 119.426056 131.673054 
L 119.426056 132.210792 
L 119.426056 132.748531 
L 119.426056 133.28627 
L 119.426056 133.824008 
L 119.426056 134.361747 
L 119.694925 134.899486 
L 119.694925 135.706094 
L 119.694925 136.243832 
L 119.694925 137.05044 
L 119.694925 137.588179 
L 119.694925 137.857048 
L 119.694925 138.663656 
L 119.694925 138.932525 
L 119.694925 139.470264 
L 119.963795 140.008003 
L 119.963795 140.276872 
L 119.963795 140.814611 
L 119.963795 141.08348 
L 119.963795 141.621219 
L 119.963795 141.890088 
L 120.232664 142.427827 
L 120.232664 142.965565 
L 120.232664 143.234435 
L 120.232664 144.041043 
L 120.232664 144.578781 
L 119.963795 145.11652 
L 119.963795 145.923128 
L 119.963795 146.191997 
L 119.963795 146.729736 
L 120.232664 147.267475 
L 120.232664 147.536344 
L 120.232664 148.074083 
L 120.232664 148.342952 
L 120.232664 148.611821 
L 120.232664 149.418429 
L 119.963795 149.956168 
L 119.963795 150.493906 
L 119.963795 151.031645 
L 119.694925 151.569384 
L 119.694925 152.375992 
L 119.694925 152.91373 
L 119.426056 153.720338 
L 119.426056 154.258077 
L 119.157187 154.795816 
L 119.157187 155.602424 
L 119.157187 156.140162 
L 119.157187 156.677901 
L 119.157187 157.484509 
L 119.157187 158.022248 
L 119.157187 158.559986 
L 119.157187 159.097725 
L 119.157187 159.635463 
L 118.888317 160.442071 
L 118.888317 160.97981 
L 118.888317 161.786418 
L 118.888317 162.324157 
L 118.888317 162.861895 
L 118.888317 163.937373 
L 118.619448 164.475111 
L 118.619448 165.01285 
L 118.619448 165.281719 
L 118.619448 165.550589 
L 118.619448 165.819458 
L 118.350579 165.550589 
" style="fill:none;stroke:#8c8c8c;stroke-linecap:square;"/>
   </g>
   <g id="line2d_2">
    <path clip-path="url(#pa586e86702)" d="M 32.581264 110.432377 
L 32.581264 110.163508 
L 32.581264 109.894638 
L 32.581264 109.625769 
L 32.312395 109.625769 
L 32.312395 109.3569 
L 32.043526 109.3569 
L 31.774656 109.3569 
L 31.505787 109.3569 
L 30.968048 109.894638 
L 30.43031 110.432377 
L 30.16144 111.238985 
L 29.623702 112.583332 
L 29.623702 113.658809 
L 29.623702 115.003156 
L 29.623702 116.347502 
L 30.16144 117.15411 
L 30.699179 117.960718 
L 31.236918 118.229587 
L 31.505787 118.498457 
L 32.043526 118.498457 
L 32.850134 118.229587 
" style="fill:none;stroke:#8c8c8c;stroke-linecap:square;"/>
   </g>
   <g id="line2d_3">
    <path clip-path="url(#pa586e86702)" d="M 36.076565 113.12107 
L 36.076565 113.38994 
L 36.076565 114.196548 
L 36.076565 114.734286 
L 36.614304 115.272025 
L 36.883173 115.540894 
L 37.689781 115.809764 
L 37.958651 115.809764 
L 38.496389 115.809764 
L 39.034128 115.540894 
L 39.302997 115.272025 
L 39.571867 115.003156 
L 39.571867 114.734286 
L 39.571867 114.465417 
L 39.302997 114.196548 
L 39.034128 114.196548 
L 38.22752 113.927678 
L 37.958651 114.196548 
L 37.420912 114.196548 
L 36.883173 114.465417 
L 36.614304 114.465417 
L 36.345435 114.734286 
L 36.076565 114.734286 
L 36.076565 115.003156 
" style="fill:none;stroke:#8c8c8c;stroke-linecap:square;"/>
   </g>
   <g id="line2d_4">
    <path clip-path="url(#pa586e86702)" d="M 40.916213 112.852201 
L 41.185083 112.852201 
L 41.185083 113.12107 
L 41.453952 113.12107 
L 41.722821 113.38994 
L 41.722821 113.658809 
L 41.991691 113.927678 
L 42.26056 113.927678 
L 42.26056 114.196548 
L 42.529429 114.196548 
L 42.529429 113.927678 
L 42.529429 113.658809 
L 42.529429 113.12107 
L 42.529429 112.583332 
L 42.529429 111.776724 
L 42.798299 111.238985 
L 42.798299 110.970116 
L 43.067168 110.432377 
L 43.336037 110.432377 
L 43.604907 110.432377 
L 43.604907 110.701246 
L 43.873776 110.970116 
L 44.411514 111.776724 
L 44.411514 112.314462 
L 44.680384 112.852201 
L 45.218122 113.38994 
L 45.218122 113.658809 
L 45.486992 113.927678 
L 45.755861 113.927678 
" style="fill:none;stroke:#8c8c8c;stroke-linecap:square;"/>
   </g>
   <g id="line2d_5">
    <path clip-path="url(#pa586e86702)" d="M 46.2936 110.432377 
L 46.2936 110.701246 
L 46.2936 110.970116 
L 46.2936 111.238985 
L 46.2936 111.507854 
L 46.2936 111.776724 
L 46.2936 112.314462 
L 46.562469 112.583332 
L 46.562469 112.852201 
L 46.831338 113.38994 
L 47.100208 113.38994 
L 47.637946 113.658809 
L 47.906816 113.658809 
L 48.444554 113.658809 
L 48.982293 113.38994 
L 49.251162 113.12107 
L 49.788901 112.852201 
" style="fill:none;stroke:#8c8c8c;stroke-linecap:square;"/>
   </g>
   <g id="line2d_6">
    <path clip-path="url(#pa586e86702)" d="M 50.595509 109.3569 
L 50.32664 109.3569 
L 50.05777 109.625769 
L 50.05777 109.894638 
L 50.05777 110.163508 
L 50.32664 110.163508 
L 50.595509 110.163508 
L 50.864378 110.163508 
L 50.864378 109.894638 
L 51.133248 109.894638 
L 51.133248 109.625769 
L 51.133248 109.3569 
L 51.402117 109.3569 
L 51.133248 108.819161 
L 51.133248 108.550292 
L 50.864378 108.550292 
L 50.595509 108.550292 
L 50.595509 108.819161 
L 50.32664 108.819161 
L 50.32664 109.08803 
L 50.32664 109.3569 
L 50.32664 109.894638 
L 50.595509 110.432377 
L 50.864378 111.238985 
L 51.133248 111.507854 
L 51.670986 111.776724 
L 51.939856 111.776724 
L 52.477594 111.776724 
L 52.746464 111.776724 
L 53.015333 111.776724 
L 53.284202 111.507854 
" style="fill:none;stroke:#8c8c8c;stroke-linecap:square;"/>
   </g>
   <g id="line2d_7">
    <path clip-path="url(#pa586e86702)" d="M 54.359679 110.970116 
L 54.628549 110.701246 
L 54.897418 110.701246 
L 55.166287 110.970116 
L 55.166287 111.238985 
L 55.435157 111.238985 
L 55.435157 111.507854 
L 55.704026 111.238985 
L 55.704026 110.970116 
L 55.704026 110.701246 
L 55.704026 110.432377 
L 55.704026 110.163508 
L 55.704026 109.625769 
L 55.704026 109.3569 
L 55.704026 109.08803 
L 55.704026 108.819161 
L 55.972895 108.819161 
L 55.972895 108.550292 
L 56.241765 108.819161 
L 56.510634 108.819161 
L 56.779503 109.3569 
L 57.048373 109.625769 
L 57.317242 110.163508 
L 57.586111 110.701246 
L 57.854981 110.970116 
" style="fill:none;stroke:#8c8c8c;stroke-linecap:square;"/>
   </g>
   <g id="line2d_8">
    <path clip-path="url(#pa586e86702)" d="M 59.199327 107.205945 
L 59.199327 106.937076 
L 59.199327 106.130468 
L 59.199327 105.861599 
L 58.930458 105.861599 
L 59.199327 105.861599 
L 59.199327 106.130468 
L 59.468197 106.399337 
L 59.737066 107.205945 
L 60.274805 108.012553 
L 60.543674 108.281422 
L 61.081413 108.819161 
" style="fill:none;stroke:#8c8c8c;stroke-linecap:square;"/>
   </g>
   <g id="line2d_9">
    <path clip-path="url(#pa586e86702)" d="M 59.737066 109.08803 
L 59.468197 108.819161 
L 59.468197 108.550292 
L 59.468197 108.281422 
L 59.737066 107.743684 
L 59.737066 107.474815 
L 60.005935 107.205945 
L 60.274805 106.668207 
L 60.812543 106.399337 
L 61.081413 106.130468 
L 61.619151 105.861599 
L 61.888021 105.861599 
L 62.425759 105.861599 
" style="fill:none;stroke:#8c8c8c;stroke-linecap:square;"/>
   </g>
   <g id="line2d_10">
    <path clip-path="url(#pa586e86702)" d="M 64.038975 106.668207 
L 64.576714 107.205945 
L 64.845583 107.474815 
L 65.114452 107.474815 
L 65.114452 107.743684 
L 65.383322 107.743684 
L 65.383322 108.012553 
L 65.652191 108.012553 
L 65.652191 107.743684 
L 65.92106 107.474815 
L 65.92106 107.205945 
L 65.92106 106.668207 
L 65.92106 106.399337 
L 65.92106 106.130468 
L 65.92106 105.861599 
L 65.92106 105.592729 
L 66.18993 105.592729 
" style="fill:none;stroke:#8c8c8c;stroke-linecap:square;"/>
   </g>
   <g id="line2d_11">
    <path clip-path="url(#pa586e86702)" d="M 67.803146 104.786121 
L 67.803146 104.517252 
L 68.072015 104.517252 
L 67.803146 104.786121 
L 67.534276 105.32386 
L 67.534276 105.592729 
L 67.534276 105.861599 
L 67.534276 106.130468 
L 67.534276 106.668207 
L 67.803146 106.937076 
L 68.072015 106.937076 
L 68.340884 106.937076 
L 68.609754 106.937076 
L 68.609754 106.668207 
L 68.609754 106.399337 
L 68.609754 106.130468 
L 68.878623 105.861599 
L 68.609754 105.592729 
L 68.609754 105.054991 
L 68.609754 104.786121 
L 68.609754 104.517252 
L 68.609754 104.786121 
L 68.878623 105.32386 
L 69.147492 105.861599 
L 69.416362 106.130468 
L 69.9541 106.668207 
L 70.22297 106.937076 
L 70.491839 106.937076 
" style="fill:none;stroke:#8c8c8c;stroke-linecap:square;"/>
   </g>
   <g id="line2d_12">
    <path clip-path="url(#pa586e86702)" d="M 71.029578 103.172905 
L 70.760708 101.559689 
L 70.760708 101.29082 
L 71.029578 101.29082 
L 71.029578 101.559689 
L 71.029578 101.828559 
L 71.298447 102.097428 
L 71.567316 102.904036 
L 71.836186 103.172905 
L 72.373924 103.979513 
L 72.642794 104.517252 
L 72.911663 105.054991 
L 73.180532 105.32386 
" style="fill:none;stroke:#8c8c8c;stroke-linecap:square;"/>
   </g>
   <g id="line2d_13">
    <path clip-path="url(#pa586e86702)" d="M 71.836186 105.32386 
L 71.836186 105.054991 
L 71.567316 105.054991 
L 71.836186 104.786121 
L 71.836186 104.517252 
L 71.836186 104.248383 
L 72.105055 103.710644 
L 72.373924 103.441775 
L 72.642794 102.904036 
L 72.911663 102.635167 
L 73.180532 102.366297 
L 73.449402 102.366297 
L 73.449402 102.097428 
" style="fill:none;stroke:#8c8c8c;stroke-linecap:square;"/>
   </g>
   <g id="line2d_14">
    <path clip-path="url(#pa586e86702)" d="M 76.406964 103.979513 
L 76.944703 104.248383 
L 76.944703 104.517252 
L 77.213572 104.786121 
" style="fill:none;stroke:#8c8c8c;stroke-linecap:square;"/>
   </g>
   <g id="line2d_15">
    <path clip-path="url(#pa586e86702)" d="M 76.406964 101.828559 
L 76.138095 101.559689 
L 75.869225 100.484212 
L 75.600356 100.215343 
L 75.331487 99.946473 
" style="fill:none;stroke:#8c8c8c;stroke-linecap:square;"/>
   </g>
   <g id="line2d_16">
    <path clip-path="url(#pa586e86702)" d="M 77.751311 101.828559 
L 77.751311 102.097428 
L 78.02018 102.635167 
L 78.289049 103.172905 
L 78.557919 103.441775 
L 78.826788 103.979513 
L 79.095657 103.979513 
L 79.633396 104.248383 
L 79.902265 104.248383 
L 80.440004 103.979513 
L 80.708873 103.710644 
L 80.977743 103.441775 
L 80.977743 103.172905 
L 80.977743 102.635167 
L 80.708873 102.097428 
L 80.440004 102.097428 
L 80.171135 101.828559 
L 79.902265 101.828559 
L 79.364527 101.828559 
L 79.095657 101.828559 
L 78.826788 102.097428 
L 78.557919 102.366297 
L 78.289049 102.635167 
L 78.289049 102.904036 
L 78.289049 103.172905 
" style="fill:none;stroke:#8c8c8c;stroke-linecap:square;"/>
   </g>
   <g id="line2d_17">
    <path clip-path="url(#pa586e86702)" d="M 82.05322 101.559689 
L 82.05322 101.29082 
L 82.05322 101.021951 
L 82.322089 101.021951 
L 82.322089 101.29082 
L 82.590959 101.29082 
L 82.859828 101.828559 
L 82.859828 102.097428 
L 83.397567 102.635167 
L 83.935305 102.635167 
L 83.935305 102.366297 
L 84.204174 102.097428 
L 84.204174 101.828559 
L 84.473044 101.559689 
L 84.473044 101.021951 
L 84.741913 100.753081 
L 85.279652 100.215343 
L 85.548521 99.946473 
L 85.81739 99.946473 
L 86.08626 99.946473 
L 86.623998 99.946473 
L 87.161737 100.484212 
L 87.430606 100.753081 
L 87.699476 101.29082 
L 87.968345 101.828559 
L 87.968345 102.366297 
" style="fill:none;stroke:#8c8c8c;stroke-linecap:square;"/>
   </g>
   <g id="line2d_18">
    <path clip-path="url(#pa586e86702)" d="M 46.831338 129.25323 
L 46.562469 129.25323 
L 46.2936 129.25323 
L 46.2936 129.522099 
L 46.02473 129.522099 
L 46.02473 129.790968 
L 46.02473 130.328707 
L 46.02473 131.135315 
L 46.2936 131.404184 
L 46.562469 131.941923 
L 47.100208 132.479662 
L 47.369077 132.479662 
L 47.637946 132.479662 
L 47.906816 132.210792 
L 48.444554 131.673054 
L 48.444554 130.866446 
L 48.444554 130.328707 
L 48.175685 130.059838 
L 47.906816 129.522099 
L 47.637946 129.25323 
L 47.369077 128.98436 
L 47.100208 128.98436 
L 46.831338 128.98436 
L 46.831338 129.25323 
L 46.831338 129.522099 
L 46.831338 129.790968 
L 46.831338 130.059838 
" style="fill:none;stroke:#8c8c8c;stroke-linecap:square;"/>
   </g>
   <g id="line2d_19">
    <path clip-path="url(#pa586e86702)" d="M 51.939856 129.25323 
L 52.477594 128.98436 
L 52.746464 128.98436 
L 53.015333 128.98436 
L 53.284202 128.98436 
L 53.015333 128.715491 
L 52.746464 128.446622 
L 51.939856 127.908883 
L 50.864378 127.102275 
L 50.05777 126.564537 
L 49.251162 125.757929 
L 48.444554 124.951321 
L 47.637946 123.875843 
L 47.369077 122.800366 
L 47.100208 122.531497 
L 47.100208 121.993758 
L 47.369077 121.724889 
L 47.369077 121.18715 
L 47.637946 120.918281 
L 48.175685 120.918281 
L 48.713424 120.649411 
L 49.251162 120.918281 
L 49.520032 120.918281 
L 49.788901 121.18715 
" style="fill:none;stroke:#8c8c8c;stroke-linecap:square;"/>
   </g>
   <g id="line2d_20">
    <path clip-path="url(#pa586e86702)" d="M 49.520032 125.757929 
L 49.251162 126.026798 
L 49.251162 126.295667 
L 49.251162 126.564537 
L 49.520032 126.564537 
L 49.788901 126.564537 
L 49.788901 126.295667 
L 50.32664 126.295667 
L 51.133248 125.757929 
L 52.208725 125.489059 
L 53.015333 124.951321 
L 53.821941 124.682451 
" style="fill:none;stroke:#8c8c8c;stroke-linecap:square;"/>
   </g>
   <g id="line2d_21">
    <path clip-path="url(#pa586e86702)" d="M 67.803146 120.380542 
L 67.534276 120.380542 
L 66.996538 120.111673 
L 66.727668 120.111673 
L 66.458799 120.111673 
L 66.18993 120.111673 
L 65.92106 120.380542 
L 65.652191 120.649411 
L 65.383322 121.18715 
L 65.383322 121.993758 
L 65.383322 122.800366 
L 65.652191 123.338105 
L 66.18993 123.875843 
L 66.458799 124.144713 
L 66.727668 124.144713 
L 67.265407 124.144713 
L 67.265407 123.875843 
L 67.534276 123.338105 
L 67.803146 122.800366 
L 67.803146 121.993758 
L 67.534276 120.918281 
L 67.265407 119.842803 
L 66.727668 118.229587 
L 66.18993 117.15411 
L 65.92106 116.078633 
L 65.383322 115.272025 
L 65.383322 114.734286 
L 65.114452 114.465417 
L 65.383322 114.734286 
L 65.652191 115.272025 
L 66.18993 116.347502 
L 66.727668 117.42298 
L 67.265407 118.498457 
L 68.340884 120.111673 
L 68.878623 121.18715 
L 69.416362 121.724889 
L 70.22297 122.800366 
L 70.491839 123.069235 
L 70.760708 123.606974 
" style="fill:none;stroke:#8c8c8c;stroke-linecap:square;"/>
   </g>
   <g id="line2d_22">
    <path clip-path="url(#pa586e86702)" d="M 71.567316 118.767326 
L 71.567316 118.498457 
L 71.567316 118.229587 
L 71.836186 118.229587 
L 71.836186 118.498457 
L 72.105055 118.767326 
L 72.373924 119.305065 
L 73.180532 119.842803 
L 73.449402 120.380542 
L 73.718271 120.649411 
L 73.98714 121.18715 
" style="fill:none;stroke:#8c8c8c;stroke-linecap:square;"/>
   </g>
   <g id="line2d_23">
    <path clip-path="url(#pa586e86702)" d="M 71.298447 116.078633 
L 71.029578 115.540894 
L 70.760708 115.003156 
L 70.760708 114.734286 
L 70.491839 114.734286 
L 70.491839 114.465417 
L 70.491839 114.734286 
" style="fill:none;stroke:#8c8c8c;stroke-linecap:square;"/>
   </g>
   <g id="line2d_24">
    <path clip-path="url(#pa586e86702)" d="M 74.793748 115.272025 
L 74.793748 115.809764 
L 74.524879 116.347502 
L 74.256009 116.616372 
L 73.98714 116.885241 
L 73.98714 117.15411 
L 73.98714 117.691849 
L 74.256009 117.691849 
L 74.256009 117.960718 
L 74.524879 117.960718 
L 75.062617 117.691849 
L 75.869225 117.691849 
L 76.675833 117.691849 
L 76.944703 117.691849 
L 77.482441 117.691849 
L 78.02018 117.960718 
L 78.289049 118.498457 
L 78.557919 118.767326 
L 78.557919 119.036195 
L 78.557919 119.573934 
L 78.557919 120.111673 
L 78.289049 120.111673 
" style="fill:none;stroke:#8c8c8c;stroke-linecap:square;"/>
   </g>
   <g id="line2d_25">
    <path clip-path="url(#pa586e86702)" d="M 78.289049 115.809764 
L 78.557919 115.003156 
L 78.557919 114.734286 
L 78.557919 114.465417 
L 78.557919 114.734286 
L 78.557919 115.003156 
L 78.557919 115.272025 
L 78.557919 115.540894 
L 78.826788 115.809764 
L 79.095657 116.078633 
L 79.364527 116.078633 
L 79.633396 116.347502 
L 79.902265 116.347502 
L 80.171135 116.347502 
L 80.440004 116.347502 
L 80.708873 116.616372 
L 80.977743 116.616372 
L 81.246612 116.885241 
L 81.515481 117.15411 
L 81.515481 117.42298 
L 81.784351 117.691849 
L 81.784351 118.498457 
L 81.784351 118.767326 
L 81.784351 119.036195 
L 81.515481 119.305065 
" style="fill:none;stroke:#8c8c8c;stroke-linecap:square;"/>
   </g>
   <g id="line2d_26">
    <path clip-path="url(#pa586e86702)" d="M 83.666436 113.38994 
L 83.666436 112.852201 
L 83.666436 113.12107 
L 83.397567 113.38994 
L 83.397567 113.658809 
L 83.397567 113.927678 
L 83.666436 114.734286 
L 83.935305 115.003156 
L 84.473044 115.809764 
L 85.010782 116.078633 
L 85.279652 116.078633 
L 86.08626 116.347502 
L 86.355129 116.078633 
L 86.892868 115.809764 
L 87.161737 115.540894 
L 87.161737 115.003156 
L 87.161737 114.465417 
L 86.892868 113.927678 
L 86.623998 113.658809 
L 85.81739 112.852201 
L 85.279652 112.583332 
L 85.010782 112.583332 
L 84.473044 112.583332 
L 84.204174 112.583332 
L 83.935305 112.583332 
L 83.666436 112.852201 
" style="fill:none;stroke:#8c8c8c;stroke-linecap:square;"/>
   </g>
   <g id="line2d_27">
    <path clip-path="url(#pa586e86702)" d="M 84.741913 109.3569 
L 84.741913 108.281422 
L 84.741913 108.012553 
L 84.741913 107.743684 
L 85.010782 107.743684 
L 85.010782 108.012553 
L 85.548521 108.550292 
L 86.08626 109.08803 
L 86.623998 109.894638 
L 87.968345 111.238985 
L 88.774953 112.314462 
L 89.85043 113.38994 
L 90.388169 113.927678 
L 90.925908 114.465417 
L 91.194777 114.465417 
L 91.463646 114.734286 
" style="fill:none;stroke:#8c8c8c;stroke-linecap:square;"/>
   </g>
   <g id="line2d_28">
    <path clip-path="url(#pa586e86702)" d="M 92.001385 110.701246 
L 92.001385 110.432377 
L 92.001385 110.701246 
L 92.270254 110.970116 
L 92.539124 110.970116 
L 92.807993 111.238985 
L 93.076862 111.238985 
L 93.345732 111.238985 
L 93.614601 111.238985 
L 93.88347 110.970116 
L 93.88347 110.701246 
L 93.88347 110.432377 
L 93.614601 109.894638 
L 93.614601 109.3569 
L 93.076862 109.08803 
L 92.539124 108.550292 
L 92.270254 108.012553 
L 92.001385 107.743684 
L 91.732516 107.743684 
" style="fill:none;stroke:#8c8c8c;stroke-linecap:square;"/>
   </g>
   <g id="line2d_29">
    <path clip-path="url(#pa586e86702)" d="M 94.690078 108.550292 
L 94.958947 108.550292 
L 95.227817 108.550292 
L 95.496686 108.550292 
L 95.765555 108.550292 
L 96.034425 108.281422 
L 96.303294 108.281422 
L 96.572163 108.012553 
L 96.572163 107.474815 
L 96.841033 106.937076 
L 96.841033 106.668207 
L 96.841033 106.399337 
L 96.841033 106.130468 
L 96.841033 105.861599 
L 96.841033 105.592729 
L 96.572163 105.592729 
L 96.572163 105.861599 
L 96.572163 106.130468 
L 96.303294 106.399337 
L 96.303294 107.205945 
L 96.572163 108.281422 
L 96.572163 108.550292 
L 96.841033 109.625769 
L 97.378771 110.163508 
L 97.647641 110.970116 
L 98.185379 110.970116 
L 98.185379 111.238985 
" style="fill:none;stroke:#8c8c8c;stroke-linecap:square;"/>
   </g>
   <g id="line2d_30">
    <path clip-path="url(#pa586e86702)" d="M 101.94955 105.592729 
L 101.94955 104.786121 
L 101.680681 104.786121 
L 101.680681 104.517252 
L 101.411811 104.517252 
L 101.142942 104.517252 
L 100.874073 104.517252 
L 100.605203 104.786121 
L 100.336334 104.786121 
L 100.067465 105.32386 
L 100.067465 105.861599 
L 100.067465 106.130468 
L 100.336334 106.937076 
L 100.605203 107.474815 
L 101.411811 108.012553 
L 101.94955 108.281422 
L 102.487289 108.281422 
L 103.025027 108.012553 
L 103.293897 107.743684 
L 103.562766 107.205945 
L 103.562766 106.668207 
L 103.562766 106.130468 
L 103.025027 104.786121 
L 102.487289 103.441775 
L 101.94955 102.097428 
L 101.142942 101.021951 
L 100.605203 99.677604 
L 100.067465 98.870996 
L 100.067465 98.602127 
L 100.067465 98.333257 
L 100.067465 98.602127 
L 100.067465 98.870996 
L 100.336334 99.677604 
L 100.605203 100.753081 
L 101.142942 101.828559 
L 101.94955 103.979513 
L 102.756158 105.32386 
L 103.831635 107.205945 
L 104.100505 108.281422 
L 104.369374 108.819161 
" style="fill:none;stroke:#8c8c8c;stroke-linecap:square;"/>
   </g>
   <g id="line2d_31">
    <path clip-path="url(#pa586e86702)" d="M 57.048373 141.621219 
L 57.317242 141.08348 
L 57.586111 140.545741 
L 57.586111 140.276872 
L 57.854981 140.008003 
L 57.854981 139.739133 
L 57.854981 139.470264 
L 57.586111 139.470264 
L 57.317242 139.470264 
L 57.048373 140.008003 
L 56.779503 140.545741 
L 56.510634 141.352349 
L 55.972895 142.427827 
L 55.704026 142.965565 
L 55.704026 143.772173 
L 55.704026 144.041043 
L 55.704026 144.309912 
L 55.972895 144.309912 
L 56.241765 144.309912 
L 57.048373 143.772173 
L 57.586111 143.503304 
L 58.392719 143.234435 
L 59.737066 142.696696 
L 60.543674 142.696696 
L 61.350282 142.696696 
L 62.15689 142.965565 
L 62.694629 143.234435 
L 63.501237 144.041043 
L 63.770106 144.578781 
L 63.770106 145.11652 
L 63.770106 145.654259 
L 63.501237 146.729736 
L 62.963498 147.267475 
L 62.425759 147.536344 
L 61.888021 147.536344 
L 61.350282 147.536344 
L 61.081413 147.536344 
" style="fill:none;stroke:#8c8c8c;stroke-linecap:square;"/>
   </g>
   <g id="line2d_32">
    <path clip-path="url(#pa586e86702)" d="M 64.038975 141.352349 
L 64.576714 141.621219 
L 64.845583 141.890088 
L 65.383322 142.427827 
L 65.92106 142.965565 
L 65.92106 143.503304 
L 66.18993 143.772173 
L 66.458799 144.041043 
" style="fill:none;stroke:#8c8c8c;stroke-linecap:square;"/>
   </g>
   <g id="line2d_33">
    <path clip-path="url(#pa586e86702)" d="M 62.15689 138.125917 
L 62.15689 137.857048 
L 61.888021 137.31931 
L 61.619151 137.05044 
L 61.888021 137.05044 
" style="fill:none;stroke:#8c8c8c;stroke-linecap:square;"/>
   </g>
   <g id="line2d_34">
    <path clip-path="url(#pa586e86702)" d="M 68.072015 138.394787 
L 68.072015 138.663656 
L 67.803146 138.663656 
L 67.803146 138.932525 
L 67.534276 138.932525 
L 67.534276 139.201395 
L 67.534276 139.739133 
L 67.803146 140.276872 
L 68.072015 140.814611 
L 68.878623 141.621219 
L 69.9541 142.158957 
L 70.22297 142.158957 
L 71.029578 142.427827 
L 71.567316 142.158957 
L 72.373924 141.890088 
L 72.373924 141.352349 
L 72.642794 140.814611 
L 72.373924 140.008003 
L 72.105055 139.470264 
L 71.836186 138.932525 
L 71.029578 138.394787 
L 70.22297 138.125917 
L 69.416362 137.857048 
L 69.147492 137.857048 
L 68.609754 138.125917 
L 68.340884 138.125917 
L 68.072015 138.394787 
L 67.803146 138.663656 
L 67.803146 138.932525 
" style="fill:none;stroke:#8c8c8c;stroke-linecap:square;"/>
   </g>
   <g id="line2d_35">
    <path clip-path="url(#pa586e86702)" d="M 76.138095 137.588179 
L 75.869225 137.588179 
L 75.600356 137.31931 
L 75.331487 137.31931 
L 75.331487 137.05044 
L 75.331487 136.781571 
L 75.331487 136.512702 
L 75.600356 135.706094 
L 75.600356 135.437224 
L 76.138095 134.899486 
L 76.675833 134.630616 
L 76.944703 134.630616 
L 77.482441 134.630616 
L 77.751311 134.899486 
L 77.751311 135.168355 
L 78.02018 135.437224 
L 78.02018 136.243832 
L 78.289049 137.05044 
L 78.289049 137.588179 
L 78.557919 138.663656 
L 78.557919 139.201395 
L 78.826788 139.470264 
L 79.095657 139.739133 
L 79.364527 139.739133 
L 79.633396 139.739133 
L 79.902265 139.739133 
L 80.171135 139.739133 
L 80.440004 139.470264 
L 80.708873 139.201395 
" style="fill:none;stroke:#8c8c8c;stroke-linecap:square;"/>
   </g>
   <g id="line2d_36">
    <path clip-path="url(#pa586e86702)" d="M 48.713424 165.281719 
L 48.444554 165.281719 
L 48.444554 165.550589 
L 48.444554 165.819458 
L 48.444554 166.088327 
L 48.713424 166.626066 
L 48.982293 166.894935 
L 49.251162 167.701543 
L 49.520032 167.970413 
L 49.520032 168.239282 
L 49.788901 168.508151 
" style="fill:none;stroke:#8c8c8c;stroke-linecap:square;"/>
   </g>
   <g id="line2d_37">
    <path clip-path="url(#pa586e86702)" d="M 45.486992 159.366594 
L 45.486992 159.097725 
L 45.218122 159.097725 
L 45.218122 159.366594 
L 45.218122 159.635463 
L 45.218122 159.904333 
L 45.486992 159.904333 
L 45.486992 160.173202 
L 45.755861 160.173202 
" style="fill:none;stroke:#8c8c8c;stroke-linecap:square;"/>
   </g>
   <g id="line2d_38">
    <path clip-path="url(#pa586e86702)" d="M 53.284202 165.01285 
L 53.284202 165.281719 
L 53.553072 165.550589 
L 53.821941 165.819458 
L 54.09081 166.088327 
L 54.09081 166.357197 
L 54.628549 166.626066 
L 54.897418 167.163805 
L 54.897418 167.432674 
L 55.166287 167.432674 
L 55.166287 167.163805 
L 55.166287 166.894935 
L 54.897418 166.626066 
L 54.628549 166.088327 
L 54.359679 165.281719 
L 54.359679 164.743981 
L 54.09081 163.668503 
L 54.09081 162.593026 
L 54.359679 162.055287 
L 54.628549 161.517549 
L 54.897418 161.248679 
L 55.166287 161.248679 
L 55.704026 161.517549 
L 55.972895 161.786418 
L 56.779503 162.324157 
L 57.317242 163.130765 
L 57.854981 163.399634 
L 58.12385 163.668503 
L 58.12385 163.937373 
L 58.392719 163.937373 
" style="fill:none;stroke:#8c8c8c;stroke-linecap:square;"/>
   </g>
   <g id="line2d_39">
    <path clip-path="url(#pa586e86702)" d="M 62.963498 156.409032 
L 62.963498 156.677901 
L 63.232367 156.94677 
L 63.770106 157.21564 
L 64.576714 158.291117 
L 65.383322 159.097725 
L 66.727668 160.442071 
L 67.534276 161.248679 
L 68.072015 162.055287 
L 68.878623 162.861895 
L 68.878623 163.130765 
L 69.147492 163.399634 
L 68.878623 163.399634 
L 68.340884 163.130765 
L 67.803146 162.861895 
L 66.996538 162.055287 
L 65.92106 161.248679 
L 64.038975 159.366594 
L 62.963498 158.291117 
L 62.15689 156.409032 
L 61.619151 155.333554 
L 61.619151 154.258077 
L 61.619151 153.451469 
L 61.888021 152.91373 
L 62.15689 152.375992 
L 62.963498 152.107122 
L 63.232367 151.838253 
L 64.038975 151.838253 
L 64.307844 151.838253 
L 64.845583 152.107122 
L 65.383322 152.375992 
L 65.92106 153.1826 
L 65.92106 153.720338 
L 66.18993 154.258077 
L 66.18993 154.795816 
L 65.92106 155.871293 
L 65.92106 156.409032 
L 65.652191 156.94677 
L 65.652191 157.21564 
L 65.92106 157.21564 
L 66.18993 157.21564 
L 66.458799 157.21564 
L 66.996538 157.21564 
L 67.803146 157.21564 
L 68.340884 157.484509 
L 69.147492 157.753378 
L 69.9541 158.291117 
L 70.760708 159.097725 
L 71.298447 159.904333 
L 71.836186 160.442071 
L 72.373924 161.248679 
L 72.642794 162.055287 
L 72.911663 162.324157 
L 73.180532 162.861895 
L 73.180532 163.130765 
" style="fill:none;stroke:#8c8c8c;stroke-linecap:square;"/>
   </g>
   <g id="line2d_40">
    <path clip-path="url(#pa586e86702)" d="M 72.642794 155.602424 
L 72.911663 156.140162 
L 73.180532 156.409032 
L 73.449402 156.94677 
L 74.256009 157.753378 
L 74.524879 158.291117 
" style="fill:none;stroke:#8c8c8c;stroke-linecap:square;"/>
   </g>
   <g id="line2d_41">
    <path clip-path="url(#pa586e86702)" d="M 70.491839 152.91373 
L 70.22297 152.107122 
L 69.9541 151.838253 
L 70.22297 152.107122 
L 70.491839 152.375992 
L 70.760708 152.375992 
" style="fill:none;stroke:#8c8c8c;stroke-linecap:square;"/>
   </g>
   <g id="line2d_42">
    <path clip-path="url(#pa586e86702)" d="M 74.793748 155.064685 
L 75.600356 155.871293 
L 76.138095 156.409032 
L 76.675833 156.677901 
L 77.482441 157.484509 
L 78.289049 157.753378 
L 78.826788 158.022248 
L 79.364527 158.022248 
L 79.633396 157.753378 
L 79.902265 157.484509 
L 79.902265 156.94677 
L 79.902265 156.409032 
L 79.364527 155.333554 
L 78.826788 154.526946 
L 78.02018 153.451469 
L 77.751311 152.91373 
L 77.482441 152.644861 
L 76.944703 152.375992 
L 76.944703 152.107122 
" style="fill:none;stroke:#8c8c8c;stroke-linecap:square;"/>
   </g>
   <g id="line2d_43">
    <path clip-path="url(#pa586e86702)" d="M 79.633396 152.91373 
L 79.902265 153.1826 
L 80.171135 153.451469 
L 80.440004 153.451469 
L 80.708873 153.451469 
L 80.977743 153.1826 
L 81.246612 152.91373 
L 81.246612 152.644861 
L 81.515481 151.838253 
L 81.515481 151.300514 
L 81.515481 150.225037 
L 81.515481 149.418429 
L 81.515481 148.88069 
L 81.246612 148.342952 
L 80.977743 147.805213 
L 80.708873 147.805213 
L 80.440004 147.805213 
L 80.440004 148.074083 
L 80.440004 148.342952 
L 80.440004 148.611821 
L 80.440004 149.418429 
L 80.708873 150.493906 
L 81.515481 152.107122 
L 82.05322 152.91373 
L 82.859828 153.720338 
L 83.666436 154.258077 
L 84.741913 154.795816 
L 85.548521 155.064685 
L 86.623998 154.795816 
L 87.161737 154.526946 
L 87.430606 154.258077 
L 87.968345 153.451469 
L 87.968345 152.91373 
" style="fill:none;stroke:#8c8c8c;stroke-linecap:square;"/>
   </g>
   <g id="line2d_44">
    <path clip-path="url(#pa586e86702)" d="M 84.473044 148.074083 
L 84.204174 148.074083 
L 84.204174 147.805213 
L 84.204174 148.074083 
L 84.473044 148.074083 
L 84.473044 148.342952 
L 84.741913 148.342952 
L 85.279652 149.14956 
L 86.355129 149.687298 
L 86.892868 150.225037 
L 87.430606 150.762776 
L 88.237214 151.031645 
L 88.506084 151.031645 
L 88.506084 150.762776 
L 88.237214 150.493906 
L 87.968345 150.225037 
L 87.430606 149.14956 
L 86.892868 148.074083 
L 86.623998 147.536344 
L 86.355129 146.460867 
L 86.355129 145.654259 
L 86.623998 144.578781 
L 86.623998 144.041043 
L 86.892868 143.772173 
" style="fill:none;stroke:#8c8c8c;stroke-linecap:square;"/>
   </g>
   <g id="line2d_45">
    <path clip-path="url(#pa586e86702)" d="M 53.821941 181.951617 
L 53.553072 181.682748 
L 53.553072 181.413879 
L 53.284202 181.413879 
L 53.284202 180.87614 
L 53.015333 180.607271 
L 53.015333 180.338401 
L 53.284202 180.338401 
L 53.553072 180.607271 
L 53.821941 181.145009 
L 54.628549 181.951617 
L 55.435157 182.758225 
L 55.972895 183.564833 
L 56.779503 184.640311 
L 57.048373 185.178049 
L 57.586111 185.446919 
L 57.586111 185.715788 
L 57.854981 185.446919 
L 57.854981 185.178049 
L 57.586111 184.640311 
L 57.586111 183.833703 
L 57.586111 183.295964 
L 57.586111 183.027095 
L 57.586111 182.758225 
L 57.854981 182.489356 
L 58.12385 182.489356 
L 58.392719 182.489356 
L 58.930458 182.489356 
L 59.468197 182.758225 
L 60.005935 182.758225 
L 60.274805 183.027095 
L 60.543674 183.027095 
L 60.543674 182.758225 
L 60.543674 182.220487 
L 60.543674 181.682748 
L 60.274805 181.145009 
L 59.468197 179.800663 
L 58.930458 178.994055 
L 58.12385 177.918578 
L 57.854981 177.380839 
L 57.586111 176.8431 
L 57.317242 176.574231 
L 57.317242 176.305362 
" style="fill:none;stroke:#8c8c8c;stroke-linecap:square;"/>
   </g>
   <g id="line2d_46">
    <path clip-path="url(#pa586e86702)" d="M 62.694629 175.229884 
L 62.425759 175.229884 
L 62.15689 175.498754 
L 61.888021 175.498754 
L 61.350282 176.036492 
L 61.350282 176.305362 
L 61.081413 177.11197 
L 60.812543 177.649708 
L 60.812543 178.456316 
L 61.081413 179.531793 
L 61.350282 180.069532 
L 61.619151 180.87614 
L 62.15689 181.413879 
L 62.694629 181.413879 
L 62.963498 181.413879 
L 63.501237 181.145009 
L 63.770106 180.87614 
L 63.770106 180.069532 
L 63.770106 179.262924 
L 63.501237 178.456316 
L 62.963498 177.11197 
L 62.694629 176.305362 
L 62.15689 175.498754 
L 61.888021 174.961015 
L 61.888021 174.423276 
L 61.619151 174.154407 
L 61.888021 174.154407 
L 61.888021 174.423276 
L 62.15689 174.692146 
L 62.694629 175.498754 
L 63.232367 176.305362 
L 64.038975 177.649708 
L 64.576714 178.725185 
L 65.383322 179.800663 
L 66.18993 180.87614 
L 66.727668 181.145009 
L 66.996538 181.413879 
L 67.265407 181.682748 
L 67.534276 181.413879 
" style="fill:none;stroke:#8c8c8c;stroke-linecap:square;"/>
   </g>
   <g id="line2d_47">
    <path clip-path="url(#pa586e86702)" d="M 64.307844 173.07893 
L 64.038975 172.541191 
L 63.770106 172.541191 
L 64.038975 172.541191 
L 64.038975 172.81006 
L 64.307844 173.07893 
L 64.576714 173.616668 
L 65.652191 174.692146 
L 66.18993 175.498754 
L 67.265407 176.574231 
L 68.609754 178.187447 
L 69.416362 178.994055 
L 70.22297 179.800663 
L 70.760708 180.607271 
L 70.760708 180.87614 
" style="fill:none;stroke:#8c8c8c;stroke-linecap:square;"/>
   </g>
   <g id="line2d_48">
    <path clip-path="url(#pa586e86702)" d="M 65.92106 177.380839 
L 65.652191 177.380839 
L 65.652191 177.649708 
L 65.92106 177.380839 
L 66.18993 177.380839 
L 66.458799 177.380839 
L 67.265407 176.8431 
L 67.803146 176.574231 
L 68.340884 176.305362 
L 68.609754 175.767623 
L 68.878623 175.767623 
" style="fill:none;stroke:#8c8c8c;stroke-linecap:square;"/>
   </g>
   <g id="line2d_49">
    <path clip-path="url(#pa586e86702)" d="M 70.22297 172.81006 
L 70.22297 173.07893 
L 69.9541 173.347799 
L 70.22297 173.616668 
L 70.491839 173.616668 
L 70.760708 173.616668 
L 71.298447 173.07893 
L 71.567316 172.81006 
L 71.836186 172.541191 
L 71.836186 171.734583 
L 71.836186 171.196844 
L 71.836186 170.659106 
L 71.836186 170.390236 
L 71.567316 170.121367 
L 71.298447 169.852498 
L 71.029578 169.852498 
L 70.760708 169.852498 
L 70.760708 170.121367 
L 70.491839 170.659106 
L 70.491839 171.465714 
L 70.491839 172.272322 
L 70.760708 173.347799 
L 71.298447 174.154407 
L 71.836186 175.498754 
L 72.373924 176.305362 
L 73.180532 176.8431 
L 73.98714 177.649708 
L 74.793748 177.918578 
L 75.331487 177.918578 
L 75.869225 177.649708 
L 76.138095 177.11197 
L 76.138095 176.8431 
L 76.406964 176.036492 
L 76.138095 175.229884 
L 76.138095 174.423276 
L 75.869225 174.154407 
" style="fill:none;stroke:#8c8c8c;stroke-linecap:square;"/>
   </g>
   <g id="line2d_50">
    <path clip-path="url(#pa586e86702)" d="M 75.062617 172.003452 
L 74.793748 171.734583 
L 74.524879 171.196844 
L 74.256009 170.927975 
L 74.524879 171.196844 
L 74.793748 171.465714 
L 75.062617 171.734583 
L 75.062617 172.003452 
L 75.600356 172.541191 
L 76.406964 173.347799 
L 77.213572 174.154407 
L 77.751311 174.423276 
L 78.02018 174.692146 
L 78.289049 174.961015 
L 78.557919 175.229884 
L 78.826788 175.229884 
L 78.826788 175.498754 
L 78.826788 175.229884 
L 78.289049 174.961015 
L 78.289049 174.692146 
L 77.482441 174.154407 
L 76.944703 173.347799 
L 76.675833 172.81006 
L 76.406964 172.003452 
L 76.138095 170.927975 
L 76.138095 170.121367 
L 76.138095 169.04589 
L 76.406964 168.508151 
L 76.944703 167.701543 
" style="fill:none;stroke:#8c8c8c;stroke-linecap:square;"/>
   </g>
   <g id="line2d_51">
    <path clip-path="url(#pa586e86702)" d="M 242.299337 195.932822 
L 242.299337 195.663953 
L 242.568207 195.663953 
L 242.568207 195.395084 
L 242.299337 195.395084 
L 242.030468 195.395084 
L 241.761599 195.395084 
L 241.492729 195.395084 
L 241.22386 195.395084 
L 241.22386 195.663953 
L 240.954991 195.663953 
L 240.686121 195.663953 
L 240.417252 195.932822 
L 240.148383 195.932822 
L 240.148383 196.201692 
L 239.879513 196.201692 
L 239.341775 196.470561 
L 239.072905 196.73943 
L 238.535167 197.0083 
L 238.266297 197.277169 
L 237.997428 197.814908 
L 237.459689 198.083777 
L 237.19082 198.621515 
L 236.653081 199.159254 
L 236.384212 199.696993 
L 236.115343 200.234731 
L 235.846473 200.77247 
L 235.577604 201.310209 
L 235.577604 201.847947 
L 235.308735 202.923425 
L 235.308735 203.730033 
L 235.039865 204.267771 
L 235.039865 204.80551 
L 235.039865 205.343249 
L 235.308735 206.418726 
L 235.308735 207.225334 
L 235.577604 207.763073 
L 235.577604 208.300811 
L 235.846473 208.83855 
L 236.115343 209.645158 
L 236.115343 210.451766 
L 236.384212 210.989504 
L 236.653081 211.527243 
L 236.653081 212.064982 
L 236.921951 213.140459 
L 237.19082 213.947067 
L 237.19082 214.753675 
L 237.459689 215.829152 
L 237.728559 217.173499 
L 237.728559 217.980107 
L 237.997428 218.786715 
L 237.997428 219.593323 
L 237.997428 220.6688 
L 237.997428 222.013147 
L 237.728559 223.895232 
L 237.459689 224.970709 
L 237.19082 226.315056 
L 236.653081 227.928272 
L 235.846473 229.810357 
L 234.502127 231.423573 
L 233.964388 232.230181 
L 233.15778 232.76792 
L 232.620042 233.305658 
L 232.082303 233.305658 
L 231.813434 233.305658 
L 231.813434 232.76792 
L 231.813434 232.49905 
" style="fill:none;stroke:#8c8c8c;stroke-linecap:square;"/>
   </g>
   <g id="line2d_52">
    <path clip-path="url(#pa586e86702)" d="M 238.804036 194.857345 
L 238.535167 194.857345 
L 238.266297 194.857345 
L 238.535167 194.857345 
L 238.804036 194.857345 
L 239.072905 194.588476 
L 239.341775 194.588476 
L 239.879513 194.588476 
L 240.417252 194.588476 
L 240.954991 194.588476 
L 241.492729 194.857345 
L 241.761599 195.126214 
L 242.299337 195.395084 
L 242.568207 195.663953 
L 242.837076 195.932822 
L 243.105945 196.470561 
L 243.105945 196.73943 
L 243.374815 197.0083 
L 243.374815 197.277169 
L 243.374815 197.546038 
L 243.643684 197.814908 
L 243.643684 198.083777 
L 243.643684 198.621515 
L 243.643684 198.890385 
L 243.643684 199.159254 
L 243.643684 199.696993 
" style="fill:none;stroke:#8c8c8c;stroke-linecap:square;"/>
   </g>
   <g id="line2d_53">
    <path clip-path="url(#pa586e86702)" d="M 217.29449 236.53209 
L 217.29449 235.994352 
L 217.025621 235.725482 
L 217.025621 235.456613 
L 217.025621 235.725482 
L 217.025621 235.994352 
L 217.29449 236.263221 
L 217.29449 237.069829 
L 217.563359 238.145306 
L 218.101098 240.027391 
L 218.369967 241.371738 
L 218.638837 243.522693 
L 218.907706 244.59817 
L 219.176575 245.673647 
L 219.176575 246.480255 
L 219.445445 246.749125 
L 219.445445 247.017994 
L 219.445445 246.480255 
L 219.445445 245.673647 
L 219.445445 245.404778 
L 219.714314 244.329301 
L 219.983183 243.522693 
L 220.252053 242.447215 
L 220.520922 241.640607 
L 220.789791 241.371738 
L 221.058661 240.833999 
L 221.32753 240.833999 
L 221.865269 240.833999 
L 222.134138 241.102869 
L 222.403007 241.640607 
L 222.671877 242.447215 
L 222.940746 242.984954 
L 223.209615 243.791562 
L 223.478485 244.867039 
L 223.747354 245.404778 
L 223.747354 245.942517 
L 224.016223 246.211386 
" style="fill:none;stroke:#8c8c8c;stroke-linecap:square;"/>
   </g>
   <g id="line2d_54">
    <path clip-path="url(#pa586e86702)" d="M 225.0917 241.640607 
L 225.0917 241.909477 
L 225.36057 242.178346 
L 225.36057 242.716085 
L 225.36057 242.984954 
L 225.36057 243.791562 
L 225.629439 244.060431 
L 225.629439 244.329301 
L 225.898308 244.59817 
L 225.898308 244.867039 
" style="fill:none;stroke:#8c8c8c;stroke-linecap:square;"/>
   </g>
   <g id="line2d_55">
    <path clip-path="url(#pa586e86702)" d="M 224.822831 239.489653 
L 224.822831 239.220783 
L 224.553962 238.145306 
L 224.553962 238.414175 
" style="fill:none;stroke:#8c8c8c;stroke-linecap:square;"/>
   </g>
   <g id="line2d_56">
    <path clip-path="url(#pa586e86702)" d="M 227.511524 242.447215 
L 227.511524 242.716085 
L 227.511524 242.984954 
L 227.511524 243.253823 
L 227.242655 243.522693 
L 227.242655 243.791562 
L 227.242655 244.060431 
L 226.973786 244.329301 
L 226.973786 244.867039 
L 227.242655 245.135909 
L 227.242655 245.404778 
L 227.511524 245.673647 
L 227.780394 245.673647 
L 228.049263 245.673647 
L 228.318132 245.404778 
L 228.587002 245.404778 
L 228.587002 245.135909 
L 228.587002 244.59817 
L 228.587002 243.791562 
L 228.318132 243.522693 
L 228.318132 242.984954 
L 228.318132 242.716085 
L 228.049263 242.178346 
L 228.049263 241.909477 
L 227.780394 241.909477 
L 227.780394 241.640607 
L 228.049263 241.909477 
L 228.049263 242.178346 
L 228.318132 242.178346 
L 228.587002 242.716085 
L 228.855871 243.253823 
L 229.39361 243.791562 
L 229.662479 244.329301 
L 230.469087 245.404778 
L 231.006826 246.480255 
L 231.275695 247.286863 
L 231.275695 247.824602 
L 231.544564 248.63121 
L 231.544564 249.437818 
L 231.275695 249.975556 
L 230.737956 250.244426 
L 230.469087 250.244426 
L 229.931348 250.244426 
L 228.855871 249.437818 
" style="fill:none;stroke:#8c8c8c;stroke-linecap:square;"/>
   </g>
   <g id="line2d_57">
    <path clip-path="url(#pa586e86702)" d="M 226.973786 237.069829 
L 226.973786 236.80096 
L 227.242655 236.80096 
L 227.511524 237.069829 
L 227.780394 237.607568 
L 228.318132 238.145306 
L 229.12474 239.220783 
L 229.931348 240.027391 
L 230.737956 241.371738 
L 231.275695 241.909477 
L 231.813434 242.716085 
L 232.082303 243.253823 
L 232.351172 243.791562 
L 232.620042 244.060431 
L 232.620042 243.791562 
L 232.888911 243.791562 
L 232.888911 243.522693 
L 232.888911 243.253823 
L 233.15778 242.984954 
L 233.15778 242.716085 
L 233.42665 242.716085 
L 233.695519 242.447215 
L 233.964388 242.447215 
L 234.233257 242.447215 
L 234.502127 242.447215 
L 234.770996 242.716085 
L 235.039865 242.716085 
L 235.039865 242.984954 
L 235.308735 242.984954 
L 235.308735 243.253823 
L 235.308735 242.984954 
L 235.308735 242.716085 
L 235.308735 242.447215 
L 235.308735 242.178346 
L 235.577604 241.909477 
L 235.577604 242.178346 
L 235.846473 242.178346 
L 235.846473 242.447215 
L 236.115343 242.716085 
L 236.384212 242.984954 
L 236.653081 243.522693 
L 236.921951 243.791562 
L 237.19082 244.329301 
L 237.19082 244.59817 
" style="fill:none;stroke:#8c8c8c;stroke-linecap:square;"/>
   </g>
   <g id="line2d_58">
    <path clip-path="url(#pa586e86702)" d="M 240.148383 242.447215 
L 240.148383 242.178346 
L 240.417252 242.178346 
L 240.686121 242.178346 
L 240.954991 242.447215 
L 241.22386 242.716085 
L 241.492729 242.716085 
L 241.761599 243.253823 
L 242.030468 243.522693 
L 242.299337 243.791562 
L 242.299337 244.060431 
L 242.030468 244.060431 
L 241.761599 243.791562 
L 241.492729 243.522693 
L 241.492729 242.984954 
L 241.492729 242.447215 
L 241.761599 241.640607 
L 241.761599 241.371738 
L 242.030468 240.833999 
L 242.299337 240.56513 
L 242.568207 240.296261 
" style="fill:none;stroke:#8c8c8c;stroke-linecap:square;"/>
   </g>
   <g id="line2d_59">
    <path clip-path="url(#pa586e86702)" d="M 243.912553 240.027391 
L 244.181422 240.296261 
L 244.181422 240.56513 
L 244.181422 240.833999 
L 244.450292 241.371738 
L 244.719161 241.640607 
L 244.98803 242.178346 
L 245.525769 242.984954 
L 246.063508 243.253823 
L 246.332377 243.522693 
L 246.601246 243.522693 
L 247.138985 243.522693 
L 247.407854 242.984954 
L 247.676724 242.447215 
L 247.676724 241.909477 
L 247.676724 241.640607 
L 247.676724 240.833999 
L 247.407854 240.56513 
L 247.407854 240.027391 
L 247.138985 240.027391 
L 247.138985 239.758522 
" style="fill:none;stroke:#8c8c8c;stroke-linecap:square;"/>
   </g>
   <g id="line2d_60">
    <path clip-path="url(#pa586e86702)" d="M 247.676724 240.027391 
L 247.945593 240.027391 
L 247.945593 240.296261 
L 248.214462 240.296261 
L 248.214462 240.56513 
L 248.483332 240.833999 
L 248.752201 241.102869 
L 249.02107 241.909477 
L 249.28994 242.178346 
L 249.558809 242.447215 
L 249.558809 242.984954 
L 249.827678 242.984954 
L 249.558809 242.984954 
L 249.558809 242.716085 
L 249.558809 242.447215 
L 249.558809 242.178346 
L 249.558809 241.909477 
L 249.558809 241.102869 
L 249.558809 240.833999 
L 249.558809 240.296261 
L 249.827678 239.758522 
L 250.096548 239.220783 
L 250.365417 238.951914 
L 250.634286 238.951914 
L 250.903156 238.951914 
L 251.172025 239.220783 
L 251.440894 239.489653 
L 251.440894 240.027391 
L 251.709764 240.56513 
L 251.978633 241.102869 
L 252.247502 241.640607 
L 252.247502 241.909477 
" style="fill:none;stroke:#8c8c8c;stroke-linecap:square;"/>
   </g>
   <g id="line2d_61">
    <path clip-path="url(#pa586e86702)" d="M 253.860718 240.027391 
L 253.860718 239.758522 
L 253.591849 240.027391 
L 253.591849 240.296261 
L 253.591849 240.56513 
L 253.860718 241.102869 
L 254.129587 241.371738 
L 254.129587 241.640607 
L 254.667326 241.909477 
L 254.936195 241.909477 
L 255.205065 241.640607 
L 255.473934 241.371738 
L 255.742803 241.102869 
L 255.742803 240.56513 
L 255.742803 240.027391 
L 255.742803 239.758522 
L 255.473934 239.220783 
L 255.205065 239.220783 
L 254.936195 238.951914 
L 254.667326 238.951914 
L 254.398457 238.951914 
L 254.398457 239.220783 
L 254.129587 239.489653 
L 254.129587 239.758522 
" style="fill:none;stroke:#8c8c8c;stroke-linecap:square;"/>
   </g>
   <g id="line2d_62">
    <path clip-path="url(#pa586e86702)" d="M 257.08715 240.296261 
L 257.08715 240.027391 
L 257.356019 240.027391 
L 257.356019 240.296261 
L 257.624889 240.56513 
L 257.893758 240.833999 
L 258.162627 241.102869 
L 258.162627 241.371738 
L 258.431497 241.640607 
L 258.700366 241.640607 
L 258.700366 241.909477 
L 258.700366 241.640607 
L 258.431497 241.371738 
L 258.431497 241.102869 
L 257.893758 240.027391 
L 257.356019 239.220783 
L 256.818281 237.607568 
L 256.280542 236.53209 
L 256.011673 235.725482 
L 256.011673 234.650005 
L 256.011673 234.112266 
L 256.011673 233.305658 
L 256.280542 233.036789 
L 256.549411 232.76792 
L 256.818281 232.49905 
L 257.356019 232.230181 
L 257.624889 232.230181 
L 257.893758 232.230181 
L 258.162627 232.49905 
L 258.431497 232.49905 
" style="fill:none;stroke:#8c8c8c;stroke-linecap:square;"/>
   </g>
   <g id="line2d_63">
    <path clip-path="url(#pa586e86702)" d="M 255.473934 237.338698 
L 255.473934 237.607568 
L 255.742803 237.876437 
L 256.011673 237.876437 
L 256.280542 237.876437 
L 256.818281 237.876437 
L 257.356019 237.876437 
L 257.893758 237.876437 
L 258.162627 237.876437 
" style="fill:none;stroke:#8c8c8c;stroke-linecap:square;"/>
   </g>
   <g id="line2d_64">
    <path clip-path="url(#pa586e86702)" d="M 262.195667 240.296261 
L 262.464537 240.56513 
L 262.464537 240.833999 
L 262.464537 241.102869 
L 262.733406 241.102869 
L 262.464537 240.833999 
L 262.464537 240.56513 
L 262.195667 239.758522 
L 261.926798 238.951914 
L 261.657929 237.607568 
L 261.389059 236.80096 
L 261.12019 236.263221 
L 261.12019 235.187744 
L 260.851321 234.650005 
L 260.851321 234.112266 
L 261.12019 233.574528 
L 261.12019 233.305658 
L 261.389059 232.76792 
L 261.389059 232.49905 
L 261.657929 232.49905 
L 261.926798 232.230181 
L 262.195667 232.49905 
L 262.195667 232.76792 
" style="fill:none;stroke:#8c8c8c;stroke-linecap:square;"/>
   </g>
   <g id="line2d_65">
    <path clip-path="url(#pa586e86702)" d="M 261.389059 235.994352 
L 261.12019 236.53209 
L 261.12019 236.80096 
L 261.12019 237.069829 
L 261.389059 236.80096 
L 261.926798 236.80096 
L 262.464537 236.53209 
L 263.271145 235.994352 
L 263.808883 235.994352 
L 264.077752 235.725482 
L 264.346622 235.456613 
L 264.615491 235.456613 
" style="fill:none;stroke:#8c8c8c;stroke-linecap:square;"/>
   </g>
   <g id="line2d_66">
    <path clip-path="url(#pa586e86702)" d="M 232.620042 255.621812 
L 232.620042 254.815204 
L 232.620042 254.546335 
L 232.351172 254.546335 
L 232.082303 254.546335 
L 232.082303 254.815204 
L 231.275695 255.084074 
L 230.737956 255.890682 
L 230.200218 256.42842 
L 229.662479 257.772767 
L 229.662479 258.848244 
L 229.662479 260.192591 
L 229.931348 261.268068 
L 230.737956 261.805807 
L 231.813434 262.612415 
L 232.888911 262.881284 
L 233.964388 262.881284 
L 235.308735 262.343545 
L 236.115343 261.805807 
L 236.921951 260.730329 
L 237.19082 260.46146 
" style="fill:none;stroke:#8c8c8c;stroke-linecap:square;"/>
   </g>
   <g id="line2d_67">
    <path clip-path="url(#pa586e86702)" d="M 236.384212 256.42842 
L 236.115343 256.69729 
L 235.846473 256.69729 
L 235.846473 256.966159 
L 236.115343 256.966159 
L 236.384212 256.966159 
L 236.384212 256.69729 
L 236.921951 256.42842 
L 237.19082 256.42842 
L 237.19082 256.159551 
L 237.459689 256.159551 
L 237.728559 256.42842 
L 237.728559 256.69729 
L 237.728559 256.966159 
L 237.728559 257.235028 
L 237.728559 258.041636 
L 237.997428 259.385983 
L 238.266297 260.730329 
L 238.266297 261.268068 
L 238.804036 262.343545 
L 238.804036 262.881284 
L 239.072905 263.419023 
L 239.341775 263.419023 
L 239.341775 263.419023 
L 239.341775 262.881284 
" style="fill:none;stroke:#8c8c8c;stroke-linecap:square;"/>
   </g>
   <g id="line2d_68">
    <path clip-path="url(#pa586e86702)" d="M 241.492729 258.310505 
L 241.492729 258.041636 
L 241.492729 257.772767 
L 241.22386 257.503898 
L 240.954991 257.503898 
L 240.686121 257.235028 
L 240.686121 257.503898 
L 240.417252 257.503898 
L 239.879513 258.041636 
L 239.610644 258.848244 
L 239.610644 259.385983 
L 239.610644 260.192591 
L 239.879513 260.730329 
L 240.148383 261.268068 
L 240.686121 261.536937 
L 241.22386 261.536937 
L 241.492729 261.268068 
L 242.030468 260.730329 
L 242.030468 260.192591 
L 242.299337 259.654852 
L 242.299337 259.117113 
L 242.299337 258.310505 
L 242.030468 257.772767 
L 242.030468 257.503898 
L 242.299337 257.235028 
L 242.568207 257.235028 
L 242.837076 257.772767 
L 243.105945 258.041636 
L 243.643684 259.117113 
L 244.181422 259.923721 
L 244.450292 260.46146 
L 244.98803 261.536937 
L 245.2569 261.805807 
L 245.525769 262.343545 
L 245.794638 262.343545 
" style="fill:none;stroke:#8c8c8c;stroke-linecap:square;"/>
   </g>
   <g id="line2d_69">
    <path clip-path="url(#pa586e86702)" d="M 245.525769 258.041636 
L 245.525769 257.772767 
L 245.525769 258.041636 
L 246.063508 259.385983 
L 246.332377 260.192591 
L 246.601246 260.730329 
L 246.601246 260.999199 
L 246.870116 260.999199 
L 246.870116 260.730329 
L 246.870116 260.46146 
L 246.870116 260.192591 
L 246.870116 259.923721 
L 246.870116 259.385983 
L 246.870116 258.579375 
L 246.870116 258.041636 
L 247.138985 257.503898 
L 247.407854 257.235028 
L 247.676724 256.69729 
L 247.945593 256.69729 
L 248.214462 256.42842 
L 248.483332 256.69729 
L 248.752201 256.69729 
L 249.02107 257.503898 
L 249.558809 258.310505 
L 249.827678 258.848244 
L 250.096548 259.385983 
L 250.365417 259.654852 
L 250.365417 259.923721 
L 250.634286 259.923721 
" style="fill:none;stroke:#8c8c8c;stroke-linecap:square;"/>
   </g>
   <g id="line2d_70">
    <path clip-path="url(#pa586e86702)" d="M 251.440894 258.310505 
L 251.440894 258.041636 
L 251.440894 257.772767 
L 251.440894 257.235028 
L 251.440894 256.966159 
L 251.440894 256.69729 
L 251.440894 256.42842 
L 251.172025 256.69729 
L 251.172025 256.966159 
L 251.172025 257.235028 
L 251.172025 257.772767 
L 251.440894 258.579375 
L 251.440894 258.848244 
L 251.709764 259.117113 
L 251.978633 259.117113 
L 252.247502 259.117113 
L 252.516372 258.848244 
L 252.516372 258.579375 
L 252.516372 258.310505 
L 252.516372 257.772767 
L 252.516372 257.235028 
L 252.247502 256.966159 
L 251.978633 256.42842 
L 251.709764 256.159551 
L 251.440894 256.159551 
L 251.709764 256.42842 
L 252.247502 256.966159 
L 252.785241 257.235028 
L 253.32298 257.772767 
L 254.398457 258.579375 
L 255.205065 259.117113 
L 256.011673 259.923721 
L 256.549411 260.46146 
L 256.818281 260.999199 
L 257.08715 261.805807 
L 257.08715 262.343545 
L 256.818281 262.881284 
L 256.011673 263.419023 
L 255.205065 263.419023 
L 254.129587 263.419023 
L 253.32298 263.150153 
L 252.785241 262.881284 
L 252.516372 262.881284 
" style="fill:none;stroke:#8c8c8c;stroke-linecap:square;"/>
   </g>
   <g id="line2d_71">
    <path clip-path="url(#pa586e86702)" d="M 253.860718 256.966159 
L 254.129587 256.69729 
L 254.398457 256.69729 
L 254.667326 256.42842 
L 254.936195 256.42842 
L 255.205065 256.42842 
L 255.742803 256.159551 
L 256.280542 255.621812 
L 256.818281 255.084074 
L 257.08715 254.815204 
L 257.08715 254.546335 
L 257.356019 254.008596 
L 257.356019 253.470858 
L 257.08715 253.201988 
L 256.818281 252.933119 
L 256.549411 252.933119 
L 256.280542 252.933119 
L 256.011673 253.201988 
L 255.742803 253.739727 
L 255.742803 254.277466 
L 255.742803 254.815204 
L 256.011673 255.890682 
L 256.280542 256.69729 
L 256.818281 257.503898 
L 257.624889 258.041636 
L 258.431497 258.579375 
L 259.506974 258.848244 
L 260.044713 258.848244 
L 260.582451 258.579375 
L 260.851321 258.310505 
L 261.12019 258.041636 
L 261.389059 257.772767 
" style="fill:none;stroke:#8c8c8c;stroke-linecap:square;"/>
   </g>
   <g id="line2d_72">
    <path clip-path="url(#pa586e86702)" d="M 262.464537 253.470858 
L 262.464537 253.201988 
L 262.464537 252.933119 
L 262.195667 252.66425 
L 261.926798 252.39538 
L 261.657929 252.39538 
L 261.389059 252.39538 
L 261.12019 252.39538 
L 260.851321 252.39538 
L 260.851321 252.66425 
L 260.582451 252.66425 
L 260.582451 252.933119 
L 260.313582 253.201988 
L 260.313582 253.470858 
L 260.582451 253.470858 
L 260.582451 253.739727 
L 260.851321 253.739727 
L 261.12019 253.739727 
L 261.657929 253.739727 
L 262.464537 254.008596 
L 263.002275 254.277466 
L 263.808883 254.546335 
L 264.346622 255.084074 
L 264.88436 255.352943 
L 265.422099 255.890682 
L 265.422099 256.42842 
L 265.422099 256.69729 
L 265.15323 257.235028 
L 264.88436 257.503898 
L 264.346622 257.772767 
" style="fill:none;stroke:#8c8c8c;stroke-linecap:square;"/>
   </g>
   <g id="line2d_73">
    <path clip-path="url(#pa586e86702)" d="M 268.379662 260.192591 
L 268.379662 259.923721 
L 268.648531 259.385983 
L 269.18627 258.310505 
L 269.18627 257.772767 
L 269.992878 255.621812 
L 271.068355 253.470858 
L 271.606094 252.126511 
L 272.143832 250.782164 
L 272.412702 249.706687 
L 272.95044 248.63121 
L 273.21931 248.093471 
L 273.488179 247.824602 
L 273.488179 247.555733 
L 273.757048 247.555733 
L 273.757048 247.286863 
" style="fill:none;stroke:#8c8c8c;stroke-linecap:square;"/>
   </g>
   <g id="line2d_74">
    <path clip-path="url(#pa586e86702)" d="M 275.639133 253.470858 
L 275.639133 253.739727 
L 275.639133 254.008596 
L 275.639133 254.277466 
L 275.639133 254.546335 
L 275.639133 254.815204 
L 275.639133 255.084074 
L 275.908003 255.352943 
L 275.908003 255.621812 
L 276.176872 256.159551 
L 276.445741 256.42842 
L 276.445741 256.69729 
L 276.714611 256.69729 
L 276.714611 256.42842 
L 276.714611 256.159551 
L 276.714611 255.621812 
L 276.714611 254.815204 
L 276.714611 254.008596 
L 276.445741 253.201988 
L 276.445741 251.588772 
L 276.445741 250.513295 
L 276.445741 249.706687 
L 276.445741 249.437818 
L 276.445741 248.900079 
L 276.714611 248.63121 
L 276.714611 248.36234 
L 276.98348 248.36234 
L 277.252349 248.36234 
L 277.521219 248.63121 
L 278.058957 249.168948 
L 278.327827 249.706687 
L 279.134435 250.782164 
L 279.672173 251.319903 
L 280.209912 252.126511 
L 280.478781 252.933119 
L 281.01652 253.739727 
L 281.554259 254.546335 
L 281.554259 254.815204 
L 281.823128 254.815204 
L 281.823128 255.084074 
L 281.285389 254.815204 
" style="fill:none;stroke:#8c8c8c;stroke-linecap:square;"/>
   </g>
   <g id="line2d_75">
    <path clip-path="url(#pa586e86702)" d="M 276.98348 253.739727 
L 276.714611 253.470858 
L 276.98348 253.470858 
L 276.98348 253.201988 
L 277.521219 253.201988 
L 277.790088 252.933119 
L 278.596696 252.66425 
L 279.134435 252.66425 
L 279.941043 252.39538 
L 280.209912 252.126511 
L 280.747651 251.857642 
L 281.01652 251.857642 
" style="fill:none;stroke:#8c8c8c;stroke-linecap:square;"/>
   </g>
   <g id="line2d_76">
    <path clip-path="url(#pa586e86702)" d="M 282.629736 250.782164 
L 282.898605 251.051034 
L 282.898605 251.319903 
L 283.167475 251.588772 
L 283.167475 252.126511 
L 283.436344 252.66425 
L 283.705213 253.201988 
L 283.974083 253.739727 
L 284.242952 254.008596 
L 284.242952 254.277466 
L 284.511821 254.277466 
L 284.511821 254.008596 
L 284.511821 253.739727 
L 284.511821 253.470858 
L 284.242952 252.39538 
L 284.242952 251.857642 
L 284.511821 251.051034 
L 284.511821 250.244426 
L 284.78069 249.975556 
L 284.78069 249.437818 
L 285.04956 249.437818 
L 285.318429 249.437818 
L 285.587298 249.975556 
L 285.856168 250.244426 
L 286.125037 250.782164 
L 286.393906 251.319903 
L 286.393906 251.857642 
L 286.662776 252.126511 
L 286.662776 252.39538 
L 286.662776 252.66425 
L 286.662776 252.39538 
L 286.662776 252.126511 
L 286.662776 251.857642 
L 286.662776 251.319903 
L 286.662776 250.782164 
L 286.931645 249.975556 
L 286.931645 249.706687 
L 287.200514 249.168948 
L 287.469384 249.168948 
L 287.469384 248.900079 
L 288.007122 248.900079 
L 288.275992 249.168948 
L 288.544861 249.437818 
L 289.0826 250.244426 
L 289.351469 251.051034 
L 289.889208 251.857642 
L 289.889208 252.39538 
L 290.158077 252.933119 
L 290.426946 253.201988 
" style="fill:none;stroke:#8c8c8c;stroke-linecap:square;"/>
   </g>
   <g id="line2d_77">
    <path clip-path="url(#pa586e86702)" d="M 290.964685 250.782164 
L 291.233554 250.782164 
L 291.233554 251.051034 
L 291.502424 251.319903 
L 291.771293 251.588772 
L 291.771293 251.857642 
L 292.040162 252.126511 
L 292.309032 252.39538 
L 292.577901 252.39538 
L 292.577901 252.126511 
L 292.577901 251.857642 
L 292.309032 251.319903 
L 292.040162 250.513295 
L 291.771293 249.975556 
L 291.502424 249.706687 
L 290.964685 249.168948 
L 290.695816 248.900079 
L 290.426946 248.63121 
L 290.158077 248.900079 
L 289.889208 248.900079 
L 289.620338 249.437818 
L 289.351469 249.975556 
L 289.351469 250.513295 
L 289.351469 251.319903 
L 289.351469 251.857642 
L 289.620338 252.39538 
L 289.889208 252.66425 
L 290.158077 252.933119 
L 290.426946 252.933119 
L 290.695816 252.933119 
L 291.233554 252.66425 
L 291.233554 252.126511 
L 291.502424 251.857642 
" style="fill:none;stroke:#8c8c8c;stroke-linecap:square;"/>
   </g>
   <g id="line2d_78">
    <path clip-path="url(#pa586e86702)" d="M 294.728855 247.555733 
L 294.459986 247.824602 
L 294.191117 247.824602 
L 293.922248 247.824602 
L 293.922248 248.093471 
L 293.922248 247.824602 
L 294.191117 247.824602 
L 294.728855 247.824602 
L 294.997725 247.555733 
L 295.804333 247.286863 
L 296.342071 247.286863 
L 296.610941 247.286863 
L 297.148679 247.286863 
L 297.417549 247.286863 
L 297.417549 247.555733 
L 297.417549 247.824602 
L 297.148679 248.093471 
L 297.148679 248.36234 
L 296.87981 249.168948 
L 296.87981 249.975556 
L 296.87981 251.051034 
L 296.87981 251.588772 
L 296.87981 252.126511 
L 297.148679 252.66425 
L 297.417549 252.933119 
L 297.686418 252.933119 
L 297.955287 252.933119 
L 297.955287 252.66425 
L 298.224157 252.39538 
" style="fill:none;stroke:#8c8c8c;stroke-linecap:square;"/>
   </g>
   <g id="line2d_79">
    <path clip-path="url(#pa586e86702)" d="M 300.91285 247.017994 
L 300.91285 247.286863 
L 300.91285 247.555733 
L 300.91285 247.824602 
L 300.91285 248.093471 
L 300.91285 248.63121 
L 300.91285 248.900079 
L 301.181719 249.168948 
L 301.450589 249.437818 
L 301.988327 249.706687 
L 302.257197 249.706687 
L 302.526066 249.706687 
L 302.794935 249.437818 
L 303.063805 249.168948 
L 303.063805 248.36234 
L 303.063805 248.093471 
L 302.794935 247.555733 
L 302.526066 246.749125 
L 302.257197 246.480255 
L 301.719458 246.211386 
L 301.450589 246.211386 
L 301.181719 246.480255 
L 300.91285 246.480255 
L 300.643981 247.017994 
L 300.643981 247.555733 
L 300.643981 248.093471 
L 300.643981 248.36234 
L 300.91285 248.900079 
L 300.91285 249.168948 
" style="fill:none;stroke:#8c8c8c;stroke-linecap:square;"/>
   </g>
   <g id="line2d_80">
    <path clip-path="url(#pa586e86702)" d="M 303.063805 248.36234 
L 303.063805 248.093471 
L 303.601543 247.824602 
L 303.870413 247.824602 
L 304.139282 247.824602 
L 304.408151 247.824602 
L 304.408151 248.093471 
L 304.67702 248.36234 
L 304.94589 248.900079 
L 304.94589 249.168948 
L 305.214759 249.437818 
L 305.214759 249.706687 
L 305.214759 249.975556 
L 305.214759 249.706687 
L 305.214759 249.437818 
L 304.94589 249.168948 
L 304.94589 248.900079 
L 304.94589 248.36234 
L 305.214759 247.824602 
L 305.214759 247.555733 
L 305.752498 247.017994 
L 306.021367 247.017994 
L 306.559106 246.749125 
L 306.827975 246.749125 
L 307.365714 246.749125 
L 307.903452 247.017994 
L 308.172322 247.286863 
L 308.71006 248.093471 
L 308.97893 248.36234 
L 309.247799 248.63121 
L 309.247799 248.900079 
L 309.247799 249.168948 
" style="fill:none;stroke:#8c8c8c;stroke-linecap:square;"/>
   </g>
   <g id="line2d_81">
    <path clip-path="url(#pa586e86702)" d="M 223.209615 251.319903 
L 222.940746 251.319903 
L 222.671877 251.588772 
L 222.403007 252.126511 
L 222.403007 252.39538 
L 222.134138 252.933119 
L 221.865269 253.470858 
L 221.865269 254.546335 
L 221.596399 255.352943 
L 221.865269 257.235028 
L 222.134138 258.848244 
L 222.403007 260.730329 
L 223.209615 263.150153 
L 223.747354 264.4945 
L 224.822831 265.838847 
L 225.629439 266.376585 
L 226.436047 266.645455 
L 227.511524 266.645455 
L 228.855871 266.376585 
" style="fill:none;stroke:#8c8c8c;stroke-linecap:square;"/>
   </g>
   <g id="line2d_82">
    <path clip-path="url(#pa586e86702)" d="M 306.827975 238.414175 
L 307.096844 238.414175 
L 307.365714 238.414175 
L 307.634583 238.683045 
L 308.71006 239.220783 
L 309.516668 239.758522 
L 310.323276 240.56513 
L 311.667623 241.909477 
L 312.474231 242.984954 
L 313.549708 244.59817 
L 313.818578 245.673647 
L 314.087447 247.017994 
L 314.356316 248.900079 
L 314.087447 250.244426 
L 313.818578 251.857642 
L 313.549708 252.66425 
L 313.280839 253.470858 
L 312.7431 254.008596 
" style="fill:none;stroke:#8c8c8c;stroke-linecap:square;"/>
   </g>
   <g id="line2d_83">
    <path clip-path="url(#pa586e86702)" d="M 134.751607 197.814908 
L 134.751607 197.546038 
L 134.751607 197.814908 
L 135.020477 197.814908 
L 135.289346 198.083777 
L 135.558215 198.352646 
L 135.827085 198.890385 
L 136.633693 199.428123 
L 136.902562 200.234731 
L 137.440301 201.041339 
L 137.978039 201.847947 
L 138.784647 203.730033 
L 139.322386 205.612118 
L 139.591255 206.956465 
L 139.591255 208.300811 
L 139.591255 209.376288 
L 139.322386 211.527243 
L 139.322386 212.87159 
L 138.784647 215.022544 
L 138.515778 216.366891 
L 137.978039 218.248976 
L 137.70917 219.324453 
L 137.70917 220.131061 
L 137.440301 220.937669 
L 137.440301 222.013147 
L 137.440301 222.819755 
L 137.440301 223.357493 
L 137.70917 224.164101 
L 137.70917 224.970709 
L 137.978039 226.315056 
L 138.246909 228.197141 
L 138.515778 229.272618 
L 138.515778 230.616965 
L 138.784647 232.49905 
L 138.784647 233.843397 
L 139.053517 235.187744 
L 139.053517 237.069829 
L 139.053517 238.145306 
L 139.053517 239.489653 
L 139.053517 239.758522 
L 139.053517 240.027391 
L 138.784647 240.027391 
" style="fill:none;stroke:#8c8c8c;stroke-linecap:square;"/>
   </g>
   <g id="line2d_84">
    <path clip-path="url(#pa586e86702)" d="M 132.062914 199.696993 
L 132.331784 199.696993 
L 132.600653 199.428123 
L 133.138392 198.890385 
L 133.407261 198.352646 
L 133.945 197.814908 
L 134.482738 197.546038 
L 135.020477 197.0083 
L 135.558215 197.0083 
L 135.827085 197.0083 
L 136.095954 197.0083 
L 136.364823 197.0083 
L 136.633693 197.277169 
L 136.902562 197.546038 
L 137.171431 197.814908 
L 137.440301 198.083777 
L 137.70917 198.083777 
" style="fill:none;stroke:#8c8c8c;stroke-linecap:square;"/>
   </g>
   <g id="line2d_85">
    <path clip-path="url(#pa586e86702)" d="M 229.12474 239.758522 
L 229.39361 240.027391 
L 229.39361 240.296261 
L 229.662479 240.296261 
L 229.662479 240.56513 
L 229.931348 240.833999 
L 230.200218 241.102869 
L 230.200218 241.371738 
L 230.469087 241.371738 
L 230.469087 241.640607 
L 230.737956 241.640607 
L 230.737956 241.909477 
L 231.006826 242.178346 
L 231.275695 242.447215 
L 231.275695 242.716085 
L 231.544564 242.716085 
L 231.544564 242.984954 
L 231.813434 243.253823 
L 231.813434 243.522693 
L 232.082303 243.522693 
L 232.082303 243.791562 
L 232.082303 244.060431 
L 232.082303 243.791562 
L 231.813434 243.791562 
L 231.813434 243.522693 
L 231.813434 243.253823 
L 231.813434 242.984954 
L 231.544564 242.984954 
L 231.544564 242.447215 
L 231.544564 242.178346 
L 231.544564 241.640607 
L 231.544564 241.371738 
L 231.544564 241.102869 
L 231.544564 240.833999 
L 231.813434 240.56513 
L 232.082303 240.296261 
L 232.620042 240.56513 
L 232.888911 240.56513 
L 233.15778 240.833999 
L 233.695519 241.371738 
L 233.964388 241.909477 
L 234.233257 242.178346 
L 234.770996 242.984954 
L 235.039865 243.522693 
L 235.308735 244.060431 
L 235.846473 244.59817 
L 236.115343 245.135909 
L 236.115343 245.404778 
" style="fill:none;stroke:#8c8c8c;stroke-linecap:square;"/>
   </g>
   <g id="line2d_86">
    <path clip-path="url(#pa586e86702)" d="M 123.727965 249.437818 
L 123.459096 249.437818 
L 123.459096 249.168948 
L 123.190227 249.168948 
L 122.921357 249.168948 
L 122.921357 249.437818 
L 122.652488 249.706687 
L 122.383619 249.975556 
L 122.114749 250.244426 
L 122.114749 251.051034 
L 121.84588 251.588772 
L 121.84588 252.39538 
L 121.577011 253.201988 
L 121.84588 254.546335 
L 122.114749 256.159551 
L 122.383619 257.235028 
L 122.921357 258.310505 
L 123.190227 259.385983 
L 123.996835 260.46146 
L 124.534573 260.730329 
L 125.341181 260.999199 
L 125.87892 260.999199 
L 126.147789 260.999199 
L 126.416658 260.730329 
" style="fill:none;stroke:#8c8c8c;stroke-linecap:square;"/>
   </g>
   <g id="line2d_87">
    <path clip-path="url(#pa586e86702)" d="M 128.567613 254.008596 
L 128.298744 253.739727 
L 128.298744 253.470858 
L 128.029874 253.470858 
L 127.761005 253.470858 
L 127.492136 253.739727 
L 127.223266 253.739727 
L 126.954397 254.277466 
L 126.685528 254.546335 
L 126.416658 254.546335 
L 126.416658 254.815204 
L 126.147789 255.084074 
L 126.416658 255.352943 
L 126.954397 255.084074 
L 127.223266 254.815204 
L 127.761005 254.815204 
L 128.298744 254.546335 
L 128.836482 254.546335 
L 129.374221 254.546335 
L 129.64309 254.815204 
L 130.180829 255.084074 
L 130.180829 255.621812 
L 130.449698 256.42842 
L 130.718568 256.966159 
L 130.718568 257.772767 
L 130.718568 258.310505 
L 130.449698 258.848244 
L 130.449698 259.117113 
L 130.180829 259.385983 
L 129.91196 259.385983 
" style="fill:none;stroke:#8c8c8c;stroke-linecap:square;"/>
   </g>
   <g id="line2d_88">
    <path clip-path="url(#pa586e86702)" d="M 130.449698 252.66425 
L 130.718568 252.39538 
L 130.718568 252.126511 
L 130.987437 252.126511 
L 130.987437 252.39538 
L 131.256306 252.66425 
L 131.794045 253.470858 
L 132.331784 254.008596 
L 132.600653 254.546335 
L 133.407261 255.621812 
L 133.945 256.42842 
L 134.482738 257.235028 
L 134.751607 257.772767 
L 135.020477 258.310505 
L 135.020477 258.579375 
L 135.289346 258.579375 
" style="fill:none;stroke:#8c8c8c;stroke-linecap:square;"/>
   </g>
   <g id="line2d_89">
    <path clip-path="url(#pa586e86702)" d="M 131.794045 256.159551 
L 131.525176 256.159551 
L 131.525176 255.890682 
L 131.525176 255.621812 
L 131.794045 255.352943 
L 132.062914 255.084074 
L 132.600653 254.546335 
L 133.138392 254.277466 
L 133.67613 253.739727 
L 133.945 253.739727 
L 134.213869 253.470858 
L 134.751607 253.470858 
L 135.020477 253.470858 
" style="fill:none;stroke:#8c8c8c;stroke-linecap:square;"/>
   </g>
   <g id="line2d_90">
    <path clip-path="url(#pa586e86702)" d="M 136.095954 254.546335 
L 136.364823 255.084074 
L 136.633693 255.352943 
L 136.902562 255.621812 
L 137.171431 255.890682 
L 137.440301 255.890682 
L 137.70917 256.159551 
L 137.978039 256.159551 
L 137.978039 255.890682 
L 137.70917 255.621812 
L 137.70917 255.084074 
L 137.70917 254.815204 
L 137.978039 254.546335 
L 137.978039 254.277466 
L 137.978039 254.008596 
L 138.246909 253.470858 
L 138.515778 253.201988 
L 138.784647 252.933119 
L 139.053517 252.933119 
L 139.053517 252.66425 
L 139.322386 252.66425 
L 139.591255 252.66425 
L 139.860125 252.66425 
L 140.128994 252.66425 
L 140.397863 252.39538 
L 140.397863 252.126511 
L 140.666733 252.126511 
L 140.666733 251.857642 
L 140.666733 251.588772 
L 140.666733 251.857642 
L 140.397863 252.126511 
L 140.397863 252.66425 
L 140.128994 253.201988 
L 140.128994 254.008596 
L 140.397863 254.546335 
L 140.397863 255.084074 
L 140.935602 255.890682 
L 141.204471 256.159551 
L 141.74221 256.42842 
L 142.011079 256.42842 
L 142.279949 256.42842 
L 142.817687 256.159551 
" style="fill:none;stroke:#8c8c8c;stroke-linecap:square;"/>
   </g>
   <g id="line2d_91">
    <path clip-path="url(#pa586e86702)" d="M 145.50638 252.933119 
L 145.50638 252.66425 
L 145.50638 252.39538 
L 145.237511 252.39538 
L 145.237511 252.126511 
L 144.968642 252.126511 
L 144.699772 252.126511 
L 144.430903 252.126511 
L 144.162034 252.39538 
L 144.162034 252.66425 
L 143.893165 253.201988 
L 143.893165 253.739727 
L 143.893165 254.277466 
L 143.893165 254.815204 
L 144.162034 255.084074 
L 144.430903 255.352943 
L 144.699772 255.621812 
L 144.699772 255.352943 
L 144.968642 255.352943 
L 145.237511 255.084074 
L 145.237511 254.546335 
L 145.237511 254.277466 
L 145.237511 253.739727 
L 145.237511 253.201988 
L 145.237511 252.66425 
L 144.968642 252.126511 
L 144.968642 251.857642 
L 144.968642 251.588772 
L 145.237511 251.857642 
L 145.50638 252.126511 
L 145.77525 252.39538 
L 146.044119 252.933119 
L 146.312988 253.739727 
L 146.850727 254.277466 
L 147.119596 255.084074 
L 147.388466 255.084074 
L 147.657335 255.352943 
" style="fill:none;stroke:#8c8c8c;stroke-linecap:square;"/>
   </g>
   <g id="line2d_92">
    <path clip-path="url(#pa586e86702)" d="M 148.195074 252.39538 
L 148.195074 252.126511 
L 148.195074 252.39538 
L 148.195074 252.66425 
L 148.463943 252.933119 
L 148.463943 253.201988 
L 148.732812 253.739727 
L 148.732812 254.008596 
L 149.001682 254.546335 
L 149.270551 254.815204 
L 149.270551 255.084074 
L 149.53942 255.084074 
L 149.270551 255.084074 
L 149.270551 254.815204 
L 149.270551 254.546335 
L 149.270551 254.008596 
L 149.001682 253.470858 
L 149.001682 252.933119 
L 149.270551 252.66425 
L 149.270551 252.39538 
L 149.270551 252.126511 
L 149.53942 252.126511 
L 149.53942 251.857642 
L 149.80829 252.126511 
L 150.077159 252.39538 
L 150.346028 252.66425 
L 150.614898 252.933119 
L 150.883767 253.739727 
L 151.152636 254.008596 
L 151.421506 254.277466 
L 151.421506 254.546335 
L 151.421506 254.277466 
L 151.152636 254.008596 
L 151.152636 253.739727 
L 151.152636 253.470858 
L 150.883767 252.933119 
L 150.883767 252.39538 
L 150.883767 252.126511 
L 150.883767 251.857642 
L 150.883767 251.319903 
L 151.152636 251.051034 
L 151.152636 250.782164 
L 151.421506 250.782164 
L 151.690375 250.782164 
L 151.690375 251.051034 
L 151.959244 251.051034 
L 152.228114 251.319903 
L 152.765852 251.857642 
L 153.034722 252.126511 
L 153.57246 252.66425 
L 153.84133 253.201988 
L 154.110199 253.470858 
L 154.379068 253.739727 
L 154.110199 253.739727 
" style="fill:none;stroke:#8c8c8c;stroke-linecap:square;"/>
   </g>
   <g id="line2d_93">
    <path clip-path="url(#pa586e86702)" d="M 152.228114 242.984954 
L 151.959244 242.984954 
L 152.228114 242.984954 
L 152.765852 243.253823 
L 153.034722 243.253823 
L 153.84133 243.791562 
L 154.647937 244.329301 
L 155.723415 245.404778 
L 155.992284 245.942517 
L 157.067761 247.286863 
L 157.6055 248.36234 
L 158.412108 250.244426 
L 158.680977 251.319903 
L 158.680977 252.933119 
L 158.680977 254.008596 
L 158.680977 254.815204 
L 158.412108 255.621812 
" style="fill:none;stroke:#8c8c8c;stroke-linecap:square;"/>
   </g>
   <g id="line2d_94">
    <path clip-path="url(#pa586e86702)" d="M 141.473341 98.333257 
L 141.473341 98.064388 
" style="fill:none;stroke:#8c8c8c;stroke-linecap:square;"/>
   </g>
   <g id="line2d_95">
    <path clip-path="url(#pa586e86702)" d="M 134.751607 143.234435 
L 134.751607 142.965565 
L 134.482738 142.965565 
L 134.482738 143.234435 
L 134.751607 143.234435 
L 135.020477 143.234435 
L 135.020477 142.965565 
L 135.289346 142.965565 
L 135.289346 142.696696 
L 135.289346 142.427827 
L 135.020477 142.427827 
L 134.751607 142.427827 
L 134.482738 142.427827 
L 134.482738 142.696696 
L 134.213869 142.696696 
L 134.213869 142.965565 
L 134.213869 143.234435 
L 134.213869 143.503304 
L 134.482738 143.772173 
L 134.751607 143.772173 
L 135.020477 143.772173 
L 135.020477 143.503304 
L 135.289346 143.503304 
L 135.289346 143.234435 
L 135.020477 143.234435 
L 135.020477 142.965565 
L 134.751607 142.965565 
L 134.482738 142.965565 
L 134.213869 142.965565 
L 133.945 142.965565 
L 133.945 143.234435 
L 133.67613 143.234435 
L 133.407261 143.503304 
L 133.407261 143.772173 
L 133.67613 143.772173 
L 133.945 143.772173 
L 134.482738 143.772173 
L 134.751607 143.772173 
L 135.020477 143.772173 
" style="fill:none;stroke:#8c8c8c;stroke-linecap:square;"/>
   </g>
   <g id="line2d_96">
    <path clip-path="url(#pa586e86702)" d="M 170.511228 141.890088 
L 170.780097 141.890088 
L 170.780097 141.621219 
L 170.511228 141.621219 
L 170.511228 141.890088 
L 170.511228 142.158957 
L 170.511228 142.427827 
L 170.511228 142.696696 
L 170.780097 142.965565 
L 170.780097 143.234435 
L 171.048966 143.234435 
L 171.317836 143.503304 
L 171.586705 143.503304 
L 171.855574 143.503304 
L 171.855574 143.234435 
L 172.124444 142.965565 
L 172.124444 142.696696 
L 172.124444 142.427827 
L 172.124444 142.158957 
L 171.855574 141.890088 
L 171.586705 141.890088 
L 171.317836 141.890088 
L 171.317836 142.158957 
L 171.048966 142.158957 
L 170.780097 142.427827 
L 170.780097 142.965565 
L 170.511228 143.234435 
L 170.511228 143.503304 
L 170.780097 143.772173 
L 170.780097 144.041043 
L 171.048966 144.041043 
L 171.048966 143.772173 
L 171.048966 143.503304 
L 170.780097 143.503304 
L 170.780097 143.234435 
L 170.511228 143.234435 
" style="fill:none;stroke:#8c8c8c;stroke-linecap:square;"/>
   </g>
   <g id="line2d_97">
    <path clip-path="url(#pa586e86702)" d="M 260.582451 176.036492 
L 260.582451 175.767623 
L 260.851321 175.767623 
L 261.12019 175.767623 
L 261.389059 175.767623 
L 261.389059 176.036492 
L 261.657929 176.036492 
L 261.926798 176.036492 
L 262.195667 176.036492 
L 262.464537 176.036492 
L 262.733406 176.036492 
L 263.002275 176.036492 
L 263.271145 176.036492 
L 263.540014 176.036492 
L 263.808883 176.036492 
L 264.077752 176.036492 
L 264.346622 176.036492 
L 264.346622 176.305362 
L 264.615491 176.305362 
L 264.88436 176.305362 
L 265.15323 176.305362 
L 265.422099 176.305362 
L 265.690968 176.305362 
L 265.959838 176.305362 
L 266.228707 176.305362 
L 266.497576 176.305362 
L 266.766446 176.305362 
L 267.035315 176.305362 
L 267.304184 176.305362 
L 267.573054 176.305362 
L 267.841923 176.305362 
L 268.110792 176.305362 
L 268.379662 176.305362 
L 268.648531 176.305362 
L 268.9174 176.305362 
L 269.18627 176.305362 
L 269.455139 176.305362 
L 269.724008 176.305362 
L 269.992878 176.305362 
L 270.261747 176.305362 
L 270.530616 176.305362 
L 270.799486 176.305362 
L 271.068355 176.305362 
L 271.337224 176.305362 
L 271.606094 176.305362 
L 271.874963 176.305362 
L 272.143832 176.305362 
L 272.412702 176.305362 
L 272.681571 176.305362 
L 272.95044 176.305362 
L 273.21931 176.305362 
L 273.488179 176.305362 
L 273.757048 176.305362 
L 274.025917 176.305362 
L 274.294787 176.305362 
L 274.563656 176.305362 
L 274.832525 176.305362 
L 275.101395 176.305362 
L 275.370264 176.305362 
L 275.639133 176.305362 
L 275.908003 176.305362 
L 276.176872 176.305362 
L 276.445741 176.305362 
L 276.714611 176.305362 
L 276.98348 176.305362 
L 277.252349 176.305362 
L 277.521219 176.305362 
L 277.790088 176.305362 
L 278.058957 176.305362 
L 278.058957 176.036492 
L 278.327827 176.036492 
L 278.596696 176.036492 
L 278.865565 176.036492 
L 279.134435 176.036492 
L 279.403304 176.036492 
L 279.672173 176.036492 
L 279.941043 176.036492 
L 280.209912 176.036492 
L 280.478781 176.036492 
L 280.747651 176.305362 
L 281.01652 176.305362 
L 281.285389 176.305362 
L 281.554259 176.305362 
L 281.554259 176.574231 
L 281.823128 176.574231 
L 282.091997 176.574231 
L 282.360867 176.574231 
" style="fill:none;stroke:#8c8c8c;stroke-linecap:square;"/>
   </g>
   <g id="line2d_98">
    <path clip-path="url(#pa586e86702)" d="M 286.393906 142.427827 
L 289.620338 142.427827 
L 290.158077 142.158957 
L 294.997725 142.158957 
L 296.073202 142.427827 
L 302.526066 142.427827 
L 302.794935 142.158957 
L 304.139282 142.158957 
L 304.67702 142.427827 
L 309.247799 142.427827 
L 309.785538 142.158957 
L 319.195964 142.158957 
L 319.464833 142.427827 
L 324.84222 142.427827 
L 325.379958 142.696696 
L 328.068652 142.696696 
L 328.60639 142.965565 
L 333.714908 142.965565 
L 333.983777 142.696696 
L 343.394203 142.696696 
L 343.663073 142.427827 
L 343.931942 142.427827 
L 343.931942 142.427827 
" style="fill:none;stroke:#8c8c8c;stroke-linecap:square;"/>
   </g>
   <g id="line2d_99">
    <path clip-path="url(#pa586e86702)" d="M 378.884954 106.668207 
L 378.616085 106.668207 
L 378.347215 106.668207 
L 378.616085 106.668207 
L 378.884954 106.668207 
L 379.153823 106.937076 
L 379.422693 106.937076 
L 379.960431 106.937076 
L 380.229301 106.937076 
L 380.49817 106.937076 
L 381.035909 106.937076 
L 381.573647 107.205945 
L 382.111386 107.205945 
L 382.380255 107.205945 
L 382.917994 107.205945 
L 383.455733 107.474815 
L 384.26234 107.474815 
L 384.53121 107.474815 
L 385.068948 107.474815 
L 385.606687 107.474815 
L 386.413295 107.474815 
L 386.951034 107.474815 
L 387.757642 107.205945 
L 388.29538 107.205945 
L 389.101988 107.205945 
L 389.370858 107.205945 
L 389.908596 107.205945 
L 390.446335 107.205945 
L 390.984074 106.937076 
L 391.521812 106.937076 
L 392.059551 106.937076 
L 392.59729 106.937076 
L 392.866159 106.937076 
L 393.403898 106.937076 
L 394.210505 106.937076 
L 394.479375 106.937076 
L 394.748244 106.937076 
L 395.285983 106.937076 
L 395.823721 106.668207 
L 396.36146 106.668207 
L 396.630329 106.668207 
L 397.436937 106.668207 
L 397.974676 106.668207 
L 398.512415 106.668207 
L 399.050153 106.668207 
L 399.587892 106.668207 
L 400.3945 106.399337 
L 400.932239 106.399337 
L 401.469977 106.399337 
L 401.738847 106.399337 
L 402.276585 106.399337 
L 402.814324 106.399337 
L 403.352063 106.130468 
L 403.620932 106.130468 
L 404.15867 106.130468 
L 404.42754 106.130468 
L 404.696409 106.130468 
L 405.234148 106.130468 
L 405.771886 106.130468 
L 406.309625 106.130468 
L 406.578494 106.130468 
L 406.847364 106.130468 
L 407.385102 106.130468 
L 407.922841 106.130468 
L 408.19171 106.130468 
L 408.46058 106.130468 
L 408.729449 106.130468 
L 408.998318 106.130468 
L 409.267188 106.130468 
L 409.536057 106.130468 
L 409.804926 106.130468 
L 410.073796 106.130468 
L 410.342665 106.130468 
L 410.611534 106.130468 
" style="fill:none;stroke:#8c8c8c;stroke-linecap:square;"/>
   </g>
   <g id="line2d_100">
    <path clip-path="url(#pa586e86702)" d="M 423.248393 70.639717 
L 423.248393 70.908586 
L 423.248393 70.639717 
L 423.517262 70.639717 
L 423.786131 70.101978 
L 424.055 69.29537 
L 424.32387 68.488762 
L 425.130478 66.337808 
L 425.937086 64.993461 
L 427.012563 62.842507 
L 427.550302 62.035899 
L 428.35691 60.153813 
L 428.894648 58.809467 
L 429.163518 58.002859 
L 429.432387 56.927382 
L 429.432387 56.389643 
L 429.701256 55.583035 
L 429.970126 55.045296 
L 429.970126 54.776427 
L 429.970126 54.507558 
L 430.238995 54.238688 
L 430.238995 53.969819 
L 429.970126 53.969819 
L 429.970126 53.70095 
" style="fill:none;stroke:#8c8c8c;stroke-linecap:square;"/>
   </g>
   <g id="line2d_101">
    <path clip-path="url(#pa586e86702)" d="M 421.366307 66.068939 
L 421.635177 65.5312 
L 421.904046 65.262331 
L 421.904046 65.5312 
L 421.635177 65.800069 
L 421.635177 66.337808 
L 421.635177 67.144416 
L 421.904046 67.951024 
L 421.904046 68.757632 
L 422.172915 69.56424 
L 422.710654 70.639717 
L 423.248393 71.446325 
L 423.517262 71.984064 
L 424.32387 72.521802 
L 424.861608 72.521802 
L 425.399347 72.521802 
L 426.474824 72.252933 
L 427.012563 71.984064 
L 427.819171 71.715194 
L 428.625779 70.908586 
L 428.894648 70.101978 
" style="fill:none;stroke:#8c8c8c;stroke-linecap:square;"/>
   </g>
   <g id="line2d_102">
    <path clip-path="url(#pa586e86702)" d="M 434.809773 45.63487 
L 435.078643 45.097131 
L 435.078643 44.828262 
L 435.078643 45.097131 
L 435.078643 45.366001 
L 435.078643 45.63487 
L 435.347512 46.441478 
L 435.347512 46.979217 
L 435.616381 48.054694 
L 435.616381 49.39904 
L 435.885251 50.743387 
L 436.15412 51.281126 
L 436.15412 52.087734 
L 436.422989 52.625472 
L 436.422989 53.163211 
" style="fill:none;stroke:#8c8c8c;stroke-linecap:square;"/>
   </g>
   <g id="line2d_103">
    <path clip-path="url(#pa586e86702)" d="M 433.734296 49.936779 
L 433.465427 49.66791 
L 433.196558 49.66791 
L 433.465427 49.66791 
L 433.734296 49.66791 
L 434.809773 49.39904 
L 435.616381 49.130171 
L 436.422989 49.130171 
L 437.498467 48.861302 
L 438.842813 48.323563 
L 439.918291 48.054694 
" style="fill:none;stroke:#8c8c8c;stroke-linecap:square;"/>
   </g>
   <g id="line2d_104">
    <path clip-path="url(#pa586e86702)" d="M 442.069245 48.054694 
L 442.069245 48.323563 
L 441.800376 48.861302 
L 441.800376 49.130171 
L 441.531507 49.66791 
L 441.531507 50.205648 
L 441.531507 50.743387 
L 441.531507 51.012256 
L 441.800376 51.281126 
L 441.800376 51.818864 
L 441.800376 52.087734 
L 441.800376 52.356603 
L 442.069245 52.087734 
L 442.069245 51.818864 
L 442.338115 51.281126 
L 442.606984 50.743387 
L 442.875853 49.66791 
L 443.144723 49.130171 
L 443.413592 48.323563 
L 443.95133 47.785825 
L 444.2202 47.248086 
L 444.757938 46.710347 
L 445.026808 46.441478 
L 445.295677 46.172609 
" style="fill:none;stroke:#8c8c8c;stroke-linecap:square;"/>
   </g>
   <g id="line2d_105">
    <path clip-path="url(#pa586e86702)" d="M 446.102285 46.979217 
L 446.102285 47.248086 
L 445.833416 48.323563 
L 445.564546 48.861302 
L 445.295677 49.66791 
L 445.026808 50.205648 
L 445.026808 50.743387 
L 445.026808 51.012256 
L 445.295677 51.281126 
L 445.564546 51.281126 
L 446.102285 51.281126 
L 446.640024 51.281126 
L 447.177762 51.012256 
L 447.715501 50.474518 
L 448.25324 49.936779 
L 448.522109 49.39904 
L 448.522109 49.130171 
L 448.790978 48.861302 
L 448.522109 48.323563 
L 448.25324 48.054694 
L 447.98437 48.054694 
L 447.715501 48.054694 
L 447.177762 48.054694 
L 446.640024 48.323563 
L 446.371154 48.592432 
L 446.102285 48.861302 
L 445.564546 49.66791 
L 445.564546 50.205648 
" style="fill:none;stroke:#8c8c8c;stroke-linecap:square;"/>
   </g>
   <g id="line2d_106">
    <path clip-path="url(#pa586e86702)" d="M 451.210802 49.39904 
L 451.210802 49.66791 
L 451.210802 49.936779 
L 451.748541 50.205648 
L 452.01741 50.205648 
L 452.555149 49.936779 
L 452.824018 49.936779 
L 453.361757 49.936779 
L 453.630626 49.66791 
L 453.899495 49.39904 
L 454.168365 48.861302 
L 454.168365 48.592432 
L 454.437234 48.054694 
L 454.168365 47.785825 
L 454.168365 47.248086 
L 453.899495 46.979217 
L 453.630626 46.710347 
L 453.361757 46.441478 
L 453.092888 46.172609 
L 452.555149 46.441478 
L 452.28628 46.441478 
L 452.01741 46.710347 
L 451.479672 47.248086 
L 451.210802 47.785825 
L 451.210802 48.323563 
L 451.210802 49.130171 
L 451.210802 50.474518 
L 451.210802 51.549995 
L 451.479672 52.625472 
L 451.748541 53.43208 
L 452.01741 54.238688 
L 452.28628 55.314166 
L 452.555149 55.851904 
L 452.824018 56.389643 
L 453.092888 56.658512 
L 453.361757 56.658512 
L 453.361757 56.389643 
" style="fill:none;stroke:#8c8c8c;stroke-linecap:square;"/>
   </g>
   <g id="line2d_107">
    <path clip-path="url(#pa586e86702)" d="M 459.545751 46.979217 
L 459.276882 47.248086 
L 459.276882 47.516955 
L 459.276882 47.785825 
L 459.276882 48.054694 
L 459.276882 48.323563 
L 459.545751 48.861302 
L 459.545751 49.39904 
L 459.545751 49.66791 
L 459.545751 49.936779 
L 459.545751 50.205648 
L 459.814621 50.205648 
" style="fill:none;stroke:#8c8c8c;stroke-linecap:square;"/>
   </g>
   <g id="line2d_108">
    <path clip-path="url(#pa586e86702)" d="M 461.158967 43.752785 
L 461.158967 43.483915 
L 461.158967 42.946177 
L 460.890098 42.946177 
L 460.890098 42.677307 
" style="fill:none;stroke:#8c8c8c;stroke-linecap:square;"/>
   </g>
   <g id="line2d_109">
    <path clip-path="url(#pa586e86702)" d="M 464.11653 45.903739 
L 463.847661 45.903739 
L 463.309922 46.172609 
L 463.041053 46.172609 
L 462.772183 46.441478 
L 462.503314 46.441478 
L 462.234445 46.710347 
L 461.965575 46.979217 
L 461.696706 47.248086 
L 461.696706 47.785825 
L 461.696706 48.323563 
L 461.696706 49.130171 
L 461.965575 49.39904 
L 462.234445 49.936779 
L 462.503314 50.474518 
L 462.772183 50.474518 
L 463.309922 50.743387 
L 463.847661 50.743387 
L 464.11653 50.743387 
L 464.654268 50.474518 
L 464.654268 50.205648 
" style="fill:none;stroke:#8c8c8c;stroke-linecap:square;"/>
   </g>
   <g id="line2d_110">
    <path clip-path="url(#pa586e86702)" d="M 470.031655 46.710347 
L 470.031655 46.441478 
L 469.762786 46.441478 
L 469.762786 46.172609 
L 469.493916 45.903739 
L 469.225047 45.903739 
L 468.956178 45.903739 
L 468.687308 45.903739 
L 468.418439 45.903739 
L 468.14957 46.172609 
L 467.611831 46.441478 
L 467.074092 46.979217 
L 466.805223 47.248086 
L 466.805223 47.785825 
L 466.536354 48.323563 
L 466.805223 48.861302 
L 466.805223 49.130171 
L 467.074092 49.39904 
L 467.611831 49.39904 
L 467.8807 49.39904 
L 468.418439 49.130171 
L 468.687308 48.861302 
L 468.956178 48.592432 
L 469.493916 48.054694 
L 469.493916 47.516955 
L 469.762786 46.710347 
L 470.031655 46.441478 
L 470.031655 46.172609 
L 470.031655 45.903739 
L 470.031655 46.172609 
L 470.031655 46.441478 
L 470.031655 46.710347 
L 470.031655 46.979217 
L 470.031655 48.054694 
L 470.031655 48.323563 
L 470.300524 49.130171 
L 470.569394 49.936779 
L 470.838263 50.205648 
L 470.838263 50.474518 
L 471.376002 50.474518 
" style="fill:none;stroke:#8c8c8c;stroke-linecap:square;"/>
   </g>
   <g id="line2d_111">
    <path clip-path="url(#pa586e86702)" d="M 476.215649 38.644267 
L 476.215649 38.375398 
L 475.94678 38.106529 
L 475.94678 38.375398 
L 476.215649 38.375398 
L 476.215649 38.644267 
L 476.215649 38.913137 
L 476.484519 39.988614 
L 476.753388 41.064091 
L 477.022257 42.677307 
L 477.022257 45.63487 
L 477.291127 47.516955 
L 477.559996 50.205648 
L 477.559996 51.818864 
L 477.828865 53.163211 
L 478.097735 54.507558 
" style="fill:none;stroke:#8c8c8c;stroke-linecap:square;"/>
   </g>
   <g id="line2d_112">
    <path clip-path="url(#pa586e86702)" d="M 253.05411 70.908586 
L 253.05411 70.639717 
L 252.785241 70.639717 
L 252.785241 70.101978 
L 252.247502 69.29537 
L 251.172025 67.682155 
L 250.096548 66.337808 
L 249.02107 64.186853 
L 247.407854 62.035899 
L 245.2569 58.809467 
L 243.643684 56.658512 
L 241.761599 54.238688 
L 240.954991 53.163211 
L 240.148383 52.356603 
L 239.341775 52.087734 
L 238.804036 52.087734 
L 238.535167 52.087734 
L 238.535167 52.356603 
L 238.535167 52.625472 
L 238.804036 52.625472 
L 238.804036 52.894342 
" style="fill:none;stroke:#8c8c8c;stroke-linecap:square;"/>
   </g>
   <g id="line2d_113">
    <path clip-path="url(#pa586e86702)" d="M 249.827678 70.908586 
L 249.28994 70.639717 
L 249.02107 70.370848 
L 249.28994 70.370848 
L 249.558809 70.639717 
L 249.827678 70.908586 
L 250.903156 71.715194 
L 251.440894 71.984064 
L 251.978633 72.252933 
L 252.516372 72.521802 
L 253.32298 72.790672 
L 253.860718 72.252933 
L 254.129587 71.715194 
L 254.129587 70.908586 
L 254.398457 69.29537 
L 254.667326 68.219893 
L 254.936195 66.606677 
L 254.936195 66.068939 
L 254.936195 65.262331 
L 254.936195 64.993461 
L 254.936195 64.724592 
" style="fill:none;stroke:#8c8c8c;stroke-linecap:square;"/>
   </g>
   <g id="line2d_114">
    <path clip-path="url(#pa586e86702)" d="M 228.587002 38.644267 
L 228.587002 38.375398 
L 228.318132 38.375398 
L 228.318132 38.106529 
L 228.318132 38.375398 
L 228.587002 38.375398 
L 228.587002 38.644267 
L 229.12474 39.182006 
L 229.931348 39.988614 
L 230.469087 40.795222 
L 231.006826 41.60183 
L 231.813434 42.946177 
L 232.082303 43.483915 
L 232.351172 44.290523 
L 232.620042 44.559393 
L 232.620042 44.828262 
" style="fill:none;stroke:#8c8c8c;stroke-linecap:square;"/>
   </g>
   <g id="line2d_115">
    <path clip-path="url(#pa586e86702)" d="M 228.318132 38.913137 
L 228.049263 38.913137 
L 227.780394 38.375398 
L 227.780394 38.106529 
L 227.780394 37.83766 
L 227.780394 37.56879 
L 228.049263 37.031052 
L 228.587002 36.762182 
L 229.39361 36.224444 
L 230.469087 35.417836 
L 231.275695 35.148966 
L 231.813434 35.148966 
L 232.351172 35.148966 
L 232.351172 35.417836 
L 232.351172 35.955574 
L 232.351172 36.224444 
L 232.082303 37.031052 
L 231.813434 37.56879 
L 231.275695 38.375398 
L 230.737956 38.913137 
L 230.737956 39.182006 
L 230.737956 39.450875 
L 231.006826 39.450875 
L 231.275695 39.719745 
L 231.813434 39.719745 
L 232.620042 39.719745 
L 233.695519 39.450875 
L 234.233257 39.450875 
L 235.308735 39.450875 
L 235.577604 39.719745 
L 235.846473 39.988614 
L 236.115343 40.257483 
L 236.384212 41.064091 
L 236.115343 41.60183 
L 235.846473 42.408438 
L 235.577604 42.946177 
L 234.770996 44.021654 
L 234.233257 44.290523 
L 233.964388 44.559393 
L 233.695519 44.559393 
L 233.42665 44.559393 
" style="fill:none;stroke:#8c8c8c;stroke-linecap:square;"/>
   </g>
   <g id="line2d_116">
    <path clip-path="url(#pa586e86702)" d="M 237.728559 38.913137 
L 237.459689 38.913137 
L 237.459689 39.182006 
L 237.19082 39.450875 
L 237.19082 39.719745 
L 237.19082 39.988614 
L 236.921951 40.257483 
L 236.921951 40.526353 
L 237.19082 41.064091 
L 237.459689 41.332961 
L 237.997428 41.60183 
L 238.535167 41.60183 
L 239.341775 41.332961 
L 239.879513 40.795222 
L 240.148383 40.526353 
L 240.417252 39.988614 
L 240.417252 39.450875 
L 240.148383 38.913137 
L 239.879513 38.644267 
L 239.341775 38.375398 
L 238.804036 38.106529 
L 237.728559 37.83766 
L 237.19082 37.56879 
L 236.921951 37.56879 
L 236.653081 37.56879 
L 236.653081 37.83766 
" style="fill:none;stroke:#8c8c8c;stroke-linecap:square;"/>
   </g>
   <g id="line2d_117">
    <path clip-path="url(#pa586e86702)" d="M 240.417252 37.83766 
L 240.686121 37.83766 
L 240.954991 38.106529 
L 241.22386 38.106529 
L 241.492729 38.375398 
L 241.761599 38.375398 
L 242.030468 38.644267 
L 242.299337 38.644267 
L 242.568207 38.644267 
L 242.299337 38.375398 
L 242.299337 38.106529 
L 242.299337 37.83766 
L 242.030468 37.56879 
L 242.030468 37.031052 
L 242.030468 36.762182 
L 242.030468 36.224444 
L 242.299337 35.686705 
L 242.568207 35.417836 
L 242.837076 35.148966 
L 242.837076 34.880097 
L 243.105945 34.611228 
L 243.374815 34.342358 
L 243.643684 34.342358 
L 243.912553 34.342358 
L 244.181422 34.342358 
L 244.181422 34.611228 
L 244.450292 34.611228 
L 244.450292 34.880097 
L 244.719161 34.880097 
L 244.719161 34.611228 
L 244.98803 34.611228 
L 244.98803 34.342358 
L 245.2569 34.342358 
L 245.2569 34.073489 
L 245.525769 33.80462 
L 245.525769 33.53575 
L 245.525769 33.266881 
L 245.2569 33.266881 
L 244.98803 33.80462 
L 244.719161 34.073489 
L 244.450292 34.880097 
L 244.450292 35.417836 
L 244.450292 36.224444 
L 244.450292 37.031052 
L 244.98803 37.56879 
L 245.2569 38.106529 
L 245.525769 38.106529 
L 246.063508 38.375398 
L 246.601246 38.106529 
L 247.138985 37.83766 
" style="fill:none;stroke:#8c8c8c;stroke-linecap:square;"/>
   </g>
   <g id="line2d_118">
    <path clip-path="url(#pa586e86702)" d="M 249.02107 35.417836 
L 249.28994 34.880097 
L 249.558809 34.611228 
L 249.558809 34.342358 
L 249.558809 34.073489 
L 249.28994 34.073489 
L 249.02107 34.073489 
L 248.752201 34.073489 
L 248.483332 34.342358 
L 248.483332 34.611228 
L 248.214462 35.148966 
L 247.945593 35.686705 
L 247.945593 35.955574 
L 248.214462 36.224444 
L 248.483332 36.493313 
L 248.752201 36.493313 
L 249.02107 36.224444 
L 249.28994 35.955574 
L 249.558809 35.686705 
L 249.827678 35.417836 
L 249.827678 34.611228 
L 250.096548 34.342358 
L 250.096548 33.80462 
L 250.096548 33.266881 
L 250.096548 32.998012 
L 250.096548 32.729142 
L 250.096548 32.460273 
L 250.096548 32.729142 
L 250.365417 32.998012 
L 250.634286 33.266881 
L 250.903156 33.80462 
L 251.440894 34.342358 
L 251.709764 34.880097 
L 251.978633 35.148966 
L 252.247502 35.148966 
L 252.516372 35.148966 
L 252.516372 34.880097 
" style="fill:none;stroke:#8c8c8c;stroke-linecap:square;"/>
   </g>
   <g id="line2d_119">
    <path clip-path="url(#pa586e86702)" d="M 251.172025 26.276279 
L 251.172025 25.469671 
L 251.440894 25.73854 
L 251.440894 26.007409 
L 251.709764 26.276279 
L 251.978633 26.814017 
L 252.785241 27.889495 
L 253.05411 28.696102 
L 253.591849 29.77158 
L 254.129587 30.847057 
L 254.936195 32.460273 
L 255.205065 33.53575 
L 255.742803 34.342358 
L 256.280542 34.880097 
L 256.280542 35.148966 
" style="fill:none;stroke:#8c8c8c;stroke-linecap:square;"/>
   </g>
   <g id="line2d_120">
    <path clip-path="url(#pa586e86702)" d="M 258.969235 41.60183 
L 258.969235 41.332961 
L 258.969235 41.064091 
L 258.969235 40.795222 
L 259.238105 39.988614 
L 259.238105 38.913137 
L 259.775843 36.493313 
L 260.044713 33.266881 
L 260.044713 30.847057 
L 260.313582 28.427233 
L 260.313582 24.931932 
L 260.313582 23.318716 
L 260.044713 21.436631 
L 260.044713 20.898892 
L 260.044713 20.361153 
L 260.044713 19.823415 
L 259.775843 19.554545 
L 259.506974 19.823415 
L 259.506974 20.361153 
L 259.506974 20.898892 
" style="fill:none;stroke:#8c8c8c;stroke-linecap:square;"/>
   </g>
   <g id="line2d_121">
    <path clip-path="url(#pa586e86702)" d="M 266.766446 33.53575 
L 266.497576 32.998012 
L 266.228707 32.998012 
L 265.959838 32.729142 
L 265.690968 32.460273 
L 265.422099 32.191404 
L 265.15323 31.922534 
L 264.88436 31.922534 
L 264.346622 31.922534 
L 264.077752 32.191404 
L 263.540014 32.998012 
L 263.540014 33.53575 
L 263.271145 34.073489 
L 263.540014 35.148966 
L 263.808883 35.686705 
L 264.346622 36.493313 
L 264.88436 37.031052 
L 265.422099 37.299921 
L 266.497576 37.299921 
L 267.035315 37.031052 
L 267.573054 36.762182 
L 267.841923 36.762182 
" style="fill:none;stroke:#8c8c8c;stroke-linecap:square;"/>
   </g>
   <g id="line2d_122">
    <path clip-path="url(#pa586e86702)" d="M 268.9174 31.922534 
L 268.648531 31.653665 
L 268.379662 31.384796 
L 268.110792 31.384796 
L 268.110792 31.653665 
L 267.841923 31.922534 
L 267.841923 32.191404 
L 267.841923 32.998012 
L 268.110792 33.80462 
L 268.379662 34.342358 
L 268.9174 34.880097 
L 269.455139 35.148966 
L 270.261747 35.686705 
L 270.799486 35.686705 
L 271.337224 35.686705 
L 271.606094 35.686705 
L 271.874963 35.148966 
L 271.874963 34.880097 
L 271.874963 34.073489 
L 271.606094 33.80462 
L 271.337224 33.266881 
L 271.068355 32.998012 
L 270.799486 32.729142 
L 270.530616 32.729142 
L 270.261747 32.729142 
L 269.992878 32.998012 
L 269.455139 32.998012 
L 269.455139 33.266881 
L 269.18627 33.266881 
L 269.18627 33.53575 
" style="fill:none;stroke:#8c8c8c;stroke-linecap:square;"/>
   </g>
   <g id="line2d_123">
    <path clip-path="url(#pa586e86702)" d="M 269.992878 27.620625 
L 269.992878 27.351756 
L 269.992878 27.082887 
L 270.261747 27.351756 
L 270.799486 27.889495 
L 271.606094 28.696102 
L 271.874963 29.233841 
L 272.412702 29.77158 
L 272.95044 30.578188 
L 273.757048 31.653665 
L 274.294787 32.460273 
L 274.832525 33.53575 
L 275.101395 33.80462 
" style="fill:none;stroke:#8c8c8c;stroke-linecap:square;"/>
   </g>
   <g id="line2d_124">
    <path clip-path="url(#pa586e86702)" d="M 278.327827 31.115926 
L 278.327827 30.040449 
L 278.327827 29.77158 
L 278.058957 29.50271 
L 277.790088 29.233841 
L 277.521219 28.964972 
L 277.252349 28.964972 
L 276.98348 28.964972 
L 276.714611 28.964972 
L 276.714611 29.233841 
L 276.445741 29.77158 
L 276.445741 30.309318 
L 276.714611 30.847057 
L 276.98348 31.384796 
L 277.521219 31.922534 
L 278.058957 32.191404 
L 278.327827 32.191404 
L 278.865565 31.922534 
L 279.134435 31.922534 
L 279.134435 31.384796 
L 279.403304 30.847057 
L 279.134435 30.309318 
L 278.865565 29.233841 
L 278.596696 28.696102 
L 277.790088 27.351756 
L 276.98348 25.73854 
L 276.714611 24.663063 
L 276.445741 23.856455 
L 276.176872 23.049847 
L 275.908003 22.780977 
L 275.908003 22.512108 
L 276.176872 22.512108 
L 276.176872 22.780977 
L 276.445741 23.049847 
L 276.98348 23.587585 
L 277.521219 24.394193 
L 278.058957 25.200801 
L 279.134435 26.545148 
L 280.209912 28.158364 
L 280.747651 28.964972 
L 281.554259 30.040449 
L 282.091997 30.847057 
L 282.898605 31.922534 
L 283.436344 32.729142 
L 283.436344 32.998012 
" style="fill:none;stroke:#8c8c8c;stroke-linecap:square;"/>
   </g>
  </g>
 </g>
 <defs>
  <clipPath id="pa586e86702">
   <rect height="271.8" width="493.321436" x="7.2" y="7.2"/>
  </clipPath>
 </defs>
</svg>
