<?xml version="1.0" encoding="utf-8" standalone="no"?>
<!DOCTYPE svg PUBLIC "-//W3C//DTD SVG 1.1//EN"
  "http://www.w3.org/Graphics/SVG/1.1/DTD/svg11.dtd">
<!-- Created with matplotlib (https://matplotlib.org/) -->
<svg height="237.382985pt" version="1.1" viewBox="0 0 623.127273 237.382985" width="623.127273pt" xmlns="http://www.w3.org/2000/svg" xmlns:xlink="http://www.w3.org/1999/xlink">
 <metadata>
  <rdf:RDF xmlns:cc="http://creativecommons.org/ns#" xmlns:dc="http://purl.org/dc/elements/1.1/" xmlns:rdf="http://www.w3.org/1999/02/22-rdf-syntax-ns#">
   <cc:Work>
    <dc:type rdf:resource="http://purl.org/dc/dcmitype/StillImage"/>
    <dc:date>2024-11-15T16:04:07.077847</dc:date>
    <dc:format>image/svg+xml</dc:format>
    <dc:creator>
     <cc:Agent>
      <dc:title>Matplotlib v3.3.4, https://matplotlib.org/</dc:title>
     </cc:Agent>
    </dc:creator>
   </cc:Work>
  </rdf:RDF>
 </metadata>
 <defs>
  <style type="text/css">*{stroke-linecap:butt;stroke-linejoin:round;}</style>
 </defs>
 <g id="figure_1">
  <g id="patch_1">
   <path d="M 0 237.382985 
L 623.127273 237.382985 
L 623.127273 0 
L 0 0 
z
" style="fill:#ffffff;"/>
  </g>
  <g id="axes_1">
   <g id="line2d_1">
    <path clip-path="url(#pf151706984)" d="M 439.553206 220.047395 
L 439.923118 220.047395 
L 439.923118 219.677483 
L 440.29303 219.307571 
L 441.032855 219.307571 
L 441.032855 219.677483 
L 444.362063 219.677483 
L 444.362063 219.307571 
L 446.211623 219.307571 
L 446.211623 218.937659 
L 448.431096 218.937659 
L 448.801008 218.567746 
L 450.280656 218.567746 
L 450.650568 218.197834 
L 451.760304 218.197834 
L 452.130216 217.827922 
L 453.239952 217.827922 
L 453.239952 217.45801 
L 454.349688 217.45801 
L 454.7196 217.088098 
L 455.459425 217.088098 
L 455.829337 216.718186 
L 456.199249 216.718186 
L 456.939073 216.348274 
L 457.308985 216.348274 
L 457.308985 215.978362 
L 458.048809 215.978362 
L 458.418721 215.60845 
L 459.158545 215.60845 
L 459.528457 215.238538 
L 460.268281 215.238538 
L 460.638193 214.868626 
L 461.378017 214.498714 
L 461.747929 214.498714 
L 462.117842 214.128802 
L 462.487754 214.128802 
L 463.227578 213.75889 
L 463.59749 213.75889 
L 463.59749 213.388978 
L 464.337314 213.388978 
L 464.337314 213.019066 
L 465.077138 213.019066 
L 465.077138 212.649154 
L 465.816962 212.649154 
L 465.816962 212.279242 
L 466.556786 212.279242 
L 466.556786 211.90933 
L 467.29661 211.90933 
L 467.29661 211.539418 
L 467.666522 211.539418 
L 468.036434 211.169505 
L 468.406346 211.169505 
L 468.776258 210.799593 
L 469.516083 210.799593 
L 469.885995 210.429681 
L 470.625819 210.429681 
L 470.625819 210.059769 
L 471.365643 210.059769 
L 471.735555 209.689857 
L 472.475379 209.689857 
L 472.475379 209.319945 
L 473.215203 209.319945 
L 473.215203 208.950033 
L 473.955027 208.950033 
L 474.324939 208.580121 
L 475.064763 208.580121 
L 475.064763 208.210209 
L 475.804587 208.210209 
L 476.174499 207.840297 
L 476.914324 207.840297 
L 476.914324 207.470385 
L 478.02406 207.470385 
L 478.02406 207.100473 
L 478.763884 207.100473 
L 479.133796 206.730561 
L 479.503708 206.730561 
L 479.87362 206.360649 
L 480.243532 206.360649 
L 480.613444 205.990737 
L 481.353268 205.990737 
L 481.72318 205.620825 
L 482.093092 205.620825 
L 482.463004 205.250913 
L 483.202828 205.250913 
L 483.202828 204.881001 
L 483.942653 204.881001 
L 484.312565 204.511089 
L 484.682477 204.511089 
L 485.052389 204.141176 
L 485.792213 204.141176 
L 485.792213 203.771264 
L 486.532037 203.771264 
L 486.901949 203.401352 
L 487.641773 203.401352 
L 488.011685 203.03144 
L 488.381597 203.03144 
L 488.751509 202.661528 
L 489.491333 202.661528 
L 489.491333 202.291616 
L 490.60107 202.291616 
L 490.60107 201.921704 
L 491.340894 201.921704 
L 491.710806 201.551792 
L 492.45063 201.551792 
L 492.45063 201.18188 
L 493.190454 201.18188 
L 493.560366 200.811968 
L 493.930278 200.811968 
L 494.30019 200.442056 
L 494.670102 200.442056 
L 495.409926 199.702232 
L 495.779838 199.702232 
L 496.14975 199.33232 
L 496.519662 199.33232 
L 496.519662 198.962408 
L 496.889574 198.962408 
L 497.259486 198.592496 
L 497.629399 198.592496 
L 498.369223 197.852672 
L 498.739135 197.852672 
L 498.739135 197.48276 
L 499.478959 197.48276 
L 499.478959 197.112847 
L 500.218783 197.112847 
L 500.218783 196.742935 
L 500.958607 196.742935 
L 501.328519 196.373023 
L 501.698431 196.373023 
L 501.698431 196.003111 
L 502.808167 196.003111 
L 502.808167 195.633199 
L 506.507288 195.633199 
L 506.8772 196.003111 
L 507.986936 196.003111 
L 508.356848 196.373023 
L 508.72676 196.373023 
L 509.096672 196.742935 
L 509.836496 196.742935 
L 509.836496 197.112847 
L 510.57632 197.112847 
L 510.946232 197.48276 
L 511.686056 197.48276 
L 511.686056 197.852672 
L 512.425881 197.852672 
L 512.425881 198.222584 
L 513.165705 198.222584 
L 513.165705 198.592496 
L 513.905529 198.592496 
L 514.275441 198.962408 
L 514.645353 198.962408 
L 515.015265 199.33232 
L 515.755089 199.33232 
L 515.755089 199.702232 
L 516.494913 199.702232 
L 516.864825 200.072144 
L 517.974561 200.072144 
L 517.974561 200.442056 
L 519.45421 200.442056 
L 519.824122 200.811968 
L 521.673682 200.811968 
L 521.673682 201.18188 
L 523.523242 201.18188 
L 523.893154 201.551792 
L 525.372802 201.551792 
L 525.742714 201.921704 
L 526.852451 201.921704 
L 526.852451 202.291616 
L 528.702011 202.291616 
L 528.702011 202.661528 
L 530.551571 202.661528 
L 530.551571 203.03144 
L 533.140955 203.03144 
L 533.140955 203.401352 
L 534.620604 203.401352 
L 534.620604 203.771264 
L 536.100252 203.771264 
L 536.100252 204.141176 
L 537.209988 204.141176 
L 537.5799 204.511089 
L 539.059548 204.511089 
L 539.059548 204.881001 
L 541.279021 204.881001 
L 541.279021 205.250913 
L 543.498493 205.250913 
L 543.868405 205.620825 
L 544.978141 205.620825 
L 544.978141 205.990737 
L 546.087877 205.990737 
L 546.087877 206.360649 
L 547.197613 206.360649 
L 547.567526 206.730561 
L 547.937438 206.730561 
L 548.30735 207.100473 
L 549.417086 207.100473 
L 549.417086 207.470385 
L 550.15691 207.470385 
L 550.526822 207.840297 
L 551.266646 207.840297 
L 551.266646 208.210209 
L 552.376382 208.210209 
L 552.376382 208.580121 
L 553.116206 208.580121 
L 553.486118 208.950033 
L 554.225942 208.950033 
L 554.595855 209.319945 
L 555.335679 209.319945 
L 555.335679 209.689857 
L 556.075503 209.689857 
L 556.445415 210.059769 
L 556.815327 210.059769 
L 556.815327 210.429681 
L 557.555151 210.429681 
L 557.925063 210.799593 
L 558.294975 210.799593 
L 558.664887 211.169505 
L 559.404711 211.169505 
L 559.404711 211.539418 
L 560.514447 211.539418 
L 560.514447 211.90933 
L 561.624183 211.90933 
L 561.624183 212.279242 
L 563.473744 212.279242 
L 563.843656 212.649154 
L 568.2826 212.649154 
L 568.2826 213.019066 
L 573.461369 213.019066 
L 573.461369 213.388978 
L 577.16049 213.388978 
L 577.16049 213.75889 
L 578.640138 213.75889 
L 578.640138 214.128802 
L 579.749874 214.128802 
L 579.749874 214.498714 
L 580.85961 214.498714 
L 580.85961 214.868626 
L 581.969346 214.868626 
L 581.969346 215.238538 
L 582.70917 215.238538 
L 582.70917 215.60845 
L 583.448995 215.60845 
L 584.188819 216.348274 
L 584.558731 216.348274 
L 584.928643 216.718186 
L 585.668467 216.718186 
L 586.038379 217.088098 
L 586.778203 217.088098 
L 586.778203 217.45801 
L 588.257851 217.45801 
L 588.257851 217.45801 
" style="fill:none;stroke:#8c8c8c;stroke-linecap:square;"/>
   </g>
   <g id="line2d_2">
    <path clip-path="url(#pf151706984)" d="M 100.343855 124.979997 
L 100.713767 124.979997 
L 101.083679 124.979997 
L 101.083679 125.349909 
L 101.453591 125.349909 
L 101.453591 124.979997 
L 101.823503 124.979997 
L 101.453591 124.979997 
L 101.453591 124.610085 
L 101.453591 124.240173 
L 101.083679 123.870261 
L 101.083679 123.500349 
L 100.713767 123.500349 
L 100.343855 122.760525 
L 100.343855 122.390613 
L 99.604031 121.650789 
L 99.234119 121.280877 
L 99.234119 120.910965 
L 98.494294 120.171141 
L 98.124382 119.431317 
L 97.384558 118.691492 
L 97.014646 117.951668 
L 96.644734 117.211844 
L 96.274822 116.47202 
L 95.90491 116.102108 
L 95.534998 115.362284 
L 95.165086 114.992372 
L 94.425262 114.252548 
L 94.05535 113.512724 
L 93.685438 112.7729 
L 92.945614 112.402988 
L 92.575702 111.663163 
L 91.835877 110.923339 
L 91.465965 110.183515 
L 90.726141 109.443691 
L 90.356229 109.073779 
L 89.986317 108.333955 
L 89.246493 107.964043 
L 88.876581 107.594131 
L 88.506669 107.224219 
L 88.136757 107.224219 
L 87.396933 106.484395 
L 87.027021 106.484395 
L 86.657109 106.114483 
L 86.287197 105.744571 
L 85.917285 105.744571 
L 85.547373 105.374659 
L 85.177461 105.374659 
L 84.807549 105.374659 
L 84.807549 105.004747 
L 84.437636 105.004747 
L 84.067724 105.004747 
L 84.067724 104.634834 
L 83.3279 104.264922 
L 82.588076 103.89501 
L 81.848252 103.155186 
L 79.998692 102.04545 
L 78.519044 100.935714 
L 76.669483 99.456066 
L 75.559747 98.716242 
L 74.450011 97.606506 
L 73.710187 96.866681 
L 72.600451 95.756945 
L 71.860627 95.387033 
L 71.120803 95.017121 
L 70.750891 94.647209 
L 70.011066 94.277297 
L 69.271242 93.907385 
L 68.531418 93.537473 
L 68.161506 93.537473 
L 67.791594 93.167561 
L 67.421682 92.797649 
L 67.05177 92.797649 
L 66.681858 92.427737 
" style="fill:none;stroke:#8c8c8c;stroke-linecap:square;"/>
   </g>
   <g id="line2d_3">
    <path clip-path="url(#pf151706984)" d="M 117.359809 116.47202 
L 117.359809 116.102108 
L 116.989897 115.732196 
L 116.989897 115.362284 
L 116.619985 115.362284 
L 116.619985 114.992372 
L 116.619985 114.62246 
L 116.619985 114.252548 
L 116.619985 113.882636 
L 116.619985 113.512724 
L 116.619985 113.142812 
L 116.989897 112.033076 
L 117.359809 110.923339 
L 117.359809 109.813603 
L 117.729721 108.703867 
L 118.469545 107.224219 
L 118.839457 105.374659 
L 119.579281 103.525098 
L 119.949193 102.415362 
L 119.949193 101.675538 
L 120.689018 100.565802 
L 120.689018 100.19589 
L 121.05893 99.456066 
L 121.05893 98.716242 
L 121.428842 98.34633 
L 121.428842 97.976418 
L 121.798754 97.976418 
L 122.168666 97.976418 
L 122.538578 97.976418 
L 122.90849 97.976418 
L 123.648314 97.606506 
L 124.018226 97.606506 
L 124.75805 97.606506 
L 125.127962 97.606506 
L 125.497874 97.236593 
L 126.237698 96.496769 
L 126.977522 96.126857 
L 127.347434 95.756945 
L 127.717347 95.017121 
L 128.457171 94.277297 
L 128.827083 93.167561 
L 129.196995 92.427737 
L 129.566907 91.687913 
L 129.936819 90.948089 
L 130.306731 89.46844 
L 130.676643 88.358704 
L 131.046555 87.248968 
L 131.046555 86.139232 
L 131.416467 85.029496 
L 131.416467 83.91976 
L 131.786379 82.810023 
L 131.786379 81.700287 
L 132.156291 79.850727 
L 132.896115 77.631255 
L 132.896115 76.151606 
L 133.266027 74.671958 
L 133.635939 73.19231 
L 133.635939 71.34275 
L 134.005851 69.863102 
L 134.005851 69.123278 
L 134.005851 68.013541 
L 134.375763 67.273717 
L 134.375763 66.533893 
L 134.375763 65.424157 
L 134.375763 65.054245 
L 134.375763 64.684333 
L 134.375763 64.314421 
L 134.375763 63.944509 
L 134.375763 63.574597 
L 134.375763 63.204685 
L 134.005851 63.204685 
" style="fill:none;stroke:#8c8c8c;stroke-linecap:square;"/>
   </g>
   <g id="line2d_4">
    <path clip-path="url(#pf151706984)" d="M 139.924444 56.546268 
L 139.924444 56.176356 
L 139.924444 55.806444 
L 139.554532 55.806444 
L 139.924444 55.806444 
L 139.924444 56.176356 
L 140.664268 56.91618 
L 141.03418 57.656004 
L 141.404092 58.025916 
L 141.774005 58.76574 
L 142.143917 59.135652 
L 142.143917 59.505564 
L 142.513829 59.875476 
L 142.513829 59.505564 
L 142.143917 59.135652 
L 142.143917 58.395828 
L 141.774005 57.656004 
L 141.774005 56.91618 
L 141.774005 55.806444 
L 141.774005 55.06662 
L 142.143917 54.326795 
L 142.513829 53.217059 
L 142.883741 52.847147 
L 143.623565 52.107323 
L 143.993477 51.737411 
L 144.363389 51.367499 
L 144.733301 50.997587 
" style="fill:none;stroke:#8c8c8c;stroke-linecap:square;"/>
   </g>
   <g id="line2d_5">
    <path clip-path="url(#pf151706984)" d="M 145.843037 51.367499 
L 145.843037 51.737411 
L 145.843037 52.107323 
L 146.212949 52.107323 
L 146.582861 52.107323 
L 146.952773 52.107323 
L 147.322685 52.107323 
L 148.062509 52.107323 
L 148.802333 51.737411 
L 149.172246 50.997587 
L 149.542158 50.997587 
L 149.542158 50.627675 
L 149.542158 50.257763 
L 149.542158 49.887851 
L 149.172246 49.887851 
L 148.802333 49.887851 
L 148.432421 50.257763 
L 148.062509 50.257763 
L 147.322685 50.997587 
L 146.952773 51.737411 
L 146.582861 52.847147 
L 146.582861 53.586971 
L 146.952773 53.956883 
L 147.322685 55.06662 
L 148.062509 55.436532 
L 148.802333 55.806444 
L 149.91207 55.806444 
L 150.651894 56.176356 
L 151.391718 55.806444 
L 151.76163 55.806444 
L 152.501454 55.436532 
L 152.871366 55.436532 
L 153.241278 55.06662 
L 153.241278 54.696707 
" style="fill:none;stroke:#8c8c8c;stroke-linecap:square;"/>
   </g>
   <g id="line2d_6">
    <path clip-path="url(#pf151706984)" d="M 155.830662 49.887851 
L 155.830662 49.517939 
L 155.830662 49.148027 
L 155.46075 49.148027 
L 155.090838 49.148027 
L 154.720926 49.148027 
L 154.351014 49.517939 
L 153.981102 49.887851 
L 153.61119 50.257763 
L 153.241278 50.627675 
L 153.241278 50.997587 
L 152.871366 51.737411 
L 152.871366 52.477235 
L 153.241278 53.217059 
L 153.61119 53.586971 
L 153.981102 53.586971 
L 154.351014 53.586971 
L 154.720926 53.586971 
L 155.46075 53.217059 
L 155.830662 52.847147 
L 156.200575 52.107323 
L 156.200575 51.737411 
L 156.570487 50.627675 
L 156.200575 49.517939 
L 156.200575 48.778115 
L 155.830662 48.038291 
L 155.46075 46.558642 
L 155.090838 45.818818 
L 155.090838 45.078994 
L 154.720926 44.33917 
L 154.720926 43.969258 
L 154.351014 43.599346 
L 154.351014 43.229434 
L 154.351014 43.599346 
L 154.720926 43.599346 
L 154.720926 43.969258 
L 155.090838 45.078994 
L 155.46075 45.818818 
L 156.200575 46.928554 
L 156.570487 48.038291 
L 156.940399 48.778115 
L 157.680223 49.887851 
L 158.050135 50.257763 
L 158.420047 50.627675 
L 158.789959 51.367499 
L 158.789959 51.737411 
" style="fill:none;stroke:#8c8c8c;stroke-linecap:square;"/>
   </g>
   <g id="line2d_7">
    <path clip-path="url(#pf151706984)" d="M 170.627145 36.940929 
L 170.627145 36.571017 
L 170.257233 36.571017 
L 170.257233 36.201105 
L 170.257233 36.571017 
L 169.88732 36.571017 
L 169.88732 36.940929 
L 169.517408 36.940929 
L 169.517408 37.310841 
L 169.517408 38.050665 
L 169.517408 39.530313 
L 169.517408 40.640049 
L 170.257233 42.48961 
L 170.627145 43.599346 
L 171.366969 44.33917 
L 172.106793 45.448906 
L 172.846617 45.818818 
L 173.586441 46.18873 
L 174.696177 46.18873 
L 175.066089 45.818818 
L 175.805913 45.448906 
" style="fill:none;stroke:#8c8c8c;stroke-linecap:square;"/>
   </g>
   <g id="line2d_8">
    <path clip-path="url(#pf151706984)" d="M 175.436001 36.201105 
L 175.436001 35.461281 
L 175.066089 35.461281 
L 175.436001 35.461281 
L 175.436001 35.831193 
L 176.175825 36.201105 
L 176.545737 36.940929 
L 176.915649 38.050665 
L 177.655474 39.160401 
L 178.025386 40.640049 
L 178.395298 41.379874 
L 179.135122 42.119698 
L 179.505034 43.229434 
L 179.874946 43.599346 
L 180.244858 43.969258 
" style="fill:none;stroke:#8c8c8c;stroke-linecap:square;"/>
   </g>
   <g id="line2d_9">
    <path clip-path="url(#pf151706984)" d="M 181.724506 40.640049 
L 181.724506 40.270137 
L 181.724506 40.640049 
L 182.094418 41.009962 
L 182.094418 41.379874 
L 182.46433 41.379874 
L 183.204154 42.119698 
L 183.943978 42.119698 
L 184.683803 42.119698 
L 185.053715 42.119698 
L 185.423627 42.119698 
L 185.793539 41.749786 
L 186.163451 41.009962 
L 186.163451 40.640049 
L 185.793539 40.270137 
L 185.423627 39.530313 
L 185.053715 39.160401 
L 184.31389 38.790489 
L 183.574066 38.790489 
L 183.204154 38.790489 
L 182.46433 39.160401 
L 182.094418 39.530313 
L 182.094418 39.900225 
L 181.724506 40.270137 
L 182.094418 40.640049 
" style="fill:none;stroke:#8c8c8c;stroke-linecap:square;"/>
   </g>
   <g id="line2d_10">
    <path clip-path="url(#pf151706984)" d="M 188.382923 36.940929 
L 188.752835 36.940929 
L 188.752835 37.310841 
L 189.122747 37.680753 
L 189.122747 38.050665 
L 189.492659 38.420577 
L 189.492659 38.790489 
L 189.862571 38.790489 
L 189.862571 39.160401 
L 189.862571 38.790489 
L 189.862571 38.420577 
L 189.862571 38.050665 
L 189.862571 37.310841 
L 190.232483 36.940929 
L 190.232483 36.571017 
L 190.232483 35.831193 
L 190.602395 35.461281 
L 190.602395 35.091369 
L 190.972307 35.091369 
L 191.342219 35.091369 
L 191.712132 35.461281 
L 191.712132 35.831193 
L 192.082044 36.201105 
L 192.082044 36.571017 
L 192.451956 37.680753 
L 192.821868 38.420577 
L 193.19178 39.160401 
L 193.561692 39.530313 
" style="fill:none;stroke:#8c8c8c;stroke-linecap:square;"/>
   </g>
   <g id="line2d_11">
    <path clip-path="url(#pf151706984)" d="M 197.260812 34.721457 
L 197.260812 33.981633 
L 197.260812 33.611721 
L 196.8909 33.241808 
L 196.8909 33.611721 
L 196.520988 33.611721 
L 196.520988 33.981633 
L 196.520988 34.351545 
L 196.520988 34.721457 
L 196.8909 35.091369 
L 196.8909 35.461281 
L 197.260812 35.831193 
L 197.630724 35.831193 
L 198.000636 35.831193 
L 198.000636 35.461281 
L 198.000636 35.091369 
L 198.000636 34.721457 
L 197.630724 34.721457 
L 197.260812 34.351545 
L 197.260812 33.981633 
L 196.8909 33.981633 
L 196.8909 33.611721 
L 197.260812 33.981633 
L 197.630724 33.981633 
L 198.000636 34.351545 
L 198.740461 34.721457 
L 199.480285 35.091369 
L 200.590021 35.831193 
L 201.329845 36.571017 
L 202.069669 37.310841 
L 202.439581 38.050665 
L 202.809493 38.420577 
L 203.179405 39.530313 
L 203.179405 40.270137 
L 202.809493 41.009962 
L 202.809493 41.379874 
L 202.439581 41.749786 
L 202.069669 42.119698 
L 201.699757 42.119698 
L 201.329845 42.119698 
" style="fill:none;stroke:#8c8c8c;stroke-linecap:square;"/>
   </g>
   <g id="line2d_12">
    <path clip-path="url(#pf151706984)" d="M 202.809493 34.351545 
L 202.809493 33.981633 
L 202.809493 33.611721 
L 203.179405 33.611721 
L 203.179405 33.241808 
L 203.549317 33.241808 
L 203.919229 32.871896 
L 204.289141 32.501984 
L 204.659053 32.132072 
L 205.028965 31.76216 
L 205.028965 31.392248 
L 205.028965 31.022336 
L 204.659053 30.652424 
L 204.289141 30.652424 
L 203.919229 30.282512 
L 203.549317 30.652424 
L 203.179405 30.652424 
L 202.809493 31.022336 
L 202.809493 31.392248 
L 202.809493 31.76216 
L 202.809493 32.132072 
L 202.809493 32.501984 
L 203.549317 33.241808 
L 204.289141 33.241808 
L 204.659053 33.611721 
L 205.768789 33.611721 
L 206.138702 33.611721 
L 206.878526 33.241808 
L 207.248438 33.241808 
L 207.61835 32.871896 
L 207.988262 32.501984 
L 208.358174 32.132072 
L 208.358174 31.76216 
L 208.358174 31.392248 
L 208.358174 31.022336 
L 208.728086 31.022336 
L 209.097998 31.022336 
L 209.46791 31.022336 
L 210.207734 31.392248 
L 210.577646 31.392248 
L 210.577646 31.76216 
L 210.947558 31.76216 
L 211.31747 32.132072 
L 211.687382 32.132072 
L 211.31747 32.132072 
L 210.947558 31.76216 
L 210.577646 31.392248 
L 210.577646 30.652424 
L 210.207734 29.9126 
L 210.207734 29.172776 
L 210.207734 28.432952 
L 210.577646 27.693128 
" style="fill:none;stroke:#8c8c8c;stroke-linecap:square;"/>
   </g>
   <g id="line2d_13">
    <path clip-path="url(#pf151706984)" d="M 215.386503 17.33559 
L 215.756415 17.33559 
L 216.126327 17.705502 
L 216.496239 17.705502 
L 216.866151 18.075414 
L 217.605975 18.445326 
L 219.085623 19.555063 
L 220.565272 21.404623 
L 221.305096 22.884271 
L 222.04492 24.363919 
L 222.784744 26.213479 
L 223.154656 28.432952 
L 223.154656 30.282512 
L 222.784744 31.392248 
" style="fill:none;stroke:#8c8c8c;stroke-linecap:square;"/>
   </g>
   <g id="line2d_14">
    <path clip-path="url(#pf151706984)" d="M 35.239334 79.110903 
L 35.239334 78.740991 
L 34.869421 78.740991 
L 34.869421 78.371079 
L 35.239334 78.740991 
L 35.609246 79.110903 
L 35.979158 79.480815 
L 36.34907 80.220639 
L 37.828718 82.070199 
L 38.568542 83.549848 
L 39.308366 84.659584 
L 40.04819 86.509144 
L 40.418102 87.61888 
L 41.157926 88.728616 
L 41.157926 89.098528 
L 41.527838 89.46844 
L 41.157926 89.46844 
L 41.157926 89.098528 
L 41.157926 88.728616 
L 41.157926 88.358704 
L 41.157926 87.61888 
L 41.527838 86.879056 
L 42.267663 86.509144 
L 42.637575 86.139232 
L 43.747311 85.399408 
L 44.487135 85.399408 
L 45.226959 85.399408 
L 45.596871 85.399408 
L 45.966783 85.399408 
L 46.336695 85.76932 
L 46.336695 86.139232 
L 45.966783 86.509144 
L 45.966783 87.248968 
L 45.226959 87.61888 
L 44.117223 88.728616 
L 43.377399 89.46844 
L 42.267663 89.838352 
L 41.527838 89.838352 
L 40.788014 90.208264 
L 40.418102 89.838352 
" style="fill:none;stroke:#8c8c8c;stroke-linecap:square;"/>
   </g>
   <g id="line2d_15">
    <path clip-path="url(#pf151706984)" d="M 42.637575 77.261343 
L 42.267663 76.891431 
L 42.637575 77.261343 
L 42.637575 77.631255 
L 43.377399 78.371079 
L 44.117223 79.110903 
L 44.857047 79.850727 
L 46.336695 80.960463 
L 47.076519 82.070199 
L 48.556167 83.179935 
L 48.926079 83.91976 
L 49.665904 84.659584 
L 50.405728 85.76932 
L 50.77564 86.139232 
L 51.145552 86.139232 
L 51.145552 86.509144 
" style="fill:none;stroke:#8c8c8c;stroke-linecap:square;"/>
   </g>
   <g id="line2d_16">
    <path clip-path="url(#pf151706984)" d="M 50.77564 83.179935 
L 50.77564 82.810023 
L 51.145552 82.810023 
L 51.515464 82.810023 
L 51.885376 82.810023 
L 52.255288 82.810023 
L 52.6252 82.810023 
L 52.995112 82.440111 
L 53.365024 82.440111 
L 53.734936 82.070199 
L 53.734936 81.700287 
L 53.734936 81.330375 
L 53.365024 80.590551 
L 52.995112 80.220639 
L 52.6252 79.480815 
L 52.255288 79.110903 
L 51.885376 78.740991 
L 51.515464 78.740991 
" style="fill:none;stroke:#8c8c8c;stroke-linecap:square;"/>
   </g>
   <g id="line2d_17">
    <path clip-path="url(#pf151706984)" d="M 54.47476 77.261343 
L 54.844672 77.261343 
L 55.214584 77.261343 
L 55.584496 77.261343 
L 55.954408 77.261343 
L 56.324321 77.261343 
L 56.324321 76.891431 
L 56.694233 76.891431 
L 57.434057 76.521519 
L 57.434057 76.151606 
L 57.803969 75.781694 
L 57.434057 75.781694 
L 57.064145 75.781694 
L 57.064145 76.151606 
L 56.694233 76.521519 
L 56.324321 77.261343 
L 56.324321 78.001167 
L 56.324321 78.740991 
L 56.324321 79.480815 
L 57.064145 80.220639 
L 57.434057 80.960463 
L 58.543793 81.330375 
L 59.283617 81.700287 
L 60.023441 81.700287 
L 60.763265 81.700287 
L 61.503089 81.330375 
" style="fill:none;stroke:#8c8c8c;stroke-linecap:square;"/>
   </g>
   <g id="line2d_18">
    <path clip-path="url(#pf151706984)" d="M 64.462386 68.013541 
L 64.092474 67.643629 
L 64.092474 67.273717 
L 63.722562 66.903805 
L 63.352649 66.903805 
L 63.352649 67.273717 
L 62.982737 68.013541 
L 62.982737 68.753365 
L 62.982737 69.863102 
L 63.722562 71.712662 
L 64.092474 72.822398 
L 64.832298 73.932134 
L 65.572122 74.671958 
L 67.05177 75.781694 
L 67.791594 76.151606 
L 69.271242 76.521519 
L 70.011066 76.521519 
L 70.750891 76.151606 
L 71.120803 76.151606 
L 71.120803 75.781694 
" style="fill:none;stroke:#8c8c8c;stroke-linecap:square;"/>
   </g>
   <g id="line2d_19">
    <path clip-path="url(#pf151706984)" d="M 71.490715 67.643629 
L 71.120803 67.273717 
L 71.120803 67.643629 
L 70.750891 67.643629 
L 70.750891 68.013541 
L 70.380978 68.013541 
L 70.380978 68.383453 
L 70.011066 68.753365 
L 70.011066 69.123278 
L 70.011066 69.49319 
L 70.011066 69.863102 
L 70.380978 69.863102 
L 70.750891 70.233014 
L 71.120803 70.233014 
L 71.490715 70.233014 
L 71.860627 70.233014 
L 72.230539 70.233014 
L 73.340275 70.602926 
L 73.710187 70.602926 
L 74.450011 70.972838 
L 74.819923 71.34275 
L 75.189835 71.712662 
L 75.189835 72.452486 
L 74.819923 73.19231 
L 74.450011 73.562222 
L 74.080099 73.932134 
L 73.710187 74.302046 
L 73.340275 74.302046 
" style="fill:none;stroke:#8c8c8c;stroke-linecap:square;"/>
   </g>
   <g id="line2d_20">
    <path clip-path="url(#pf151706984)" d="M 71.120803 63.944509 
L 71.120803 63.574597 
L 71.490715 63.574597 
L 71.860627 63.944509 
L 72.600451 64.314421 
L 72.970363 64.684333 
L 73.710187 65.424157 
L 74.819923 66.163981 
L 75.189835 66.903805 
L 75.929659 67.273717 
L 76.669483 68.013541 
L 77.039395 68.383453 
L 77.039395 68.753365 
L 77.409307 68.753365 
L 77.039395 68.383453 
L 77.039395 68.013541 
L 77.039395 67.643629 
L 77.039395 67.273717 
L 77.039395 66.903805 
L 77.039395 66.163981 
L 77.409307 65.794069 
L 77.409307 65.424157 
L 77.77922 65.054245 
L 78.149132 65.054245 
L 78.519044 65.054245 
L 78.888956 65.054245 
L 79.62878 65.424157 
L 79.998692 65.424157 
L 80.368604 65.794069 
L 80.738516 66.163981 
L 81.108428 66.533893 
" style="fill:none;stroke:#8c8c8c;stroke-linecap:square;"/>
   </g>
   <g id="line2d_21">
    <path clip-path="url(#pf151706984)" d="M 82.218164 63.944509 
L 81.848252 63.944509 
L 81.848252 64.314421 
L 81.848252 64.684333 
L 82.218164 64.684333 
L 82.588076 65.054245 
L 83.3279 65.054245 
L 84.067724 65.054245 
L 84.437636 65.054245 
L 85.177461 65.054245 
L 85.547373 65.054245 
L 85.917285 64.684333 
L 85.917285 64.314421 
L 85.547373 63.944509 
L 85.547373 63.574597 
L 84.807549 63.574597 
L 84.067724 63.204685 
L 82.957988 62.834773 
L 82.218164 62.834773 
L 81.848252 62.834773 
L 81.47834 62.834773 
L 81.108428 62.834773 
" style="fill:none;stroke:#8c8c8c;stroke-linecap:square;"/>
   </g>
   <g id="line2d_22">
    <path clip-path="url(#pf151706984)" d="M 84.437636 61.355124 
L 84.807549 61.355124 
L 84.807549 61.725036 
L 85.177461 61.725036 
L 85.547373 61.725036 
L 85.917285 61.725036 
L 86.287197 62.094949 
L 86.657109 62.094949 
L 87.027021 62.094949 
L 86.657109 61.725036 
L 86.657109 61.355124 
L 86.657109 60.985212 
L 86.287197 60.6153 
L 86.287197 59.875476 
L 86.287197 59.505564 
L 86.287197 59.135652 
L 86.287197 58.76574 
L 86.287197 58.025916 
L 86.657109 57.656004 
" style="fill:none;stroke:#8c8c8c;stroke-linecap:square;"/>
   </g>
   <g id="line2d_23">
    <path clip-path="url(#pf151706984)" d="M 87.766845 55.806444 
L 88.136757 55.806444 
L 88.506669 56.176356 
L 88.876581 56.546268 
L 89.616405 57.286092 
L 89.986317 58.025916 
L 90.356229 58.395828 
L 91.096053 59.135652 
L 91.835877 59.505564 
L 92.20579 59.875476 
L 92.20579 60.245388 
L 92.575702 60.245388 
" style="fill:none;stroke:#8c8c8c;stroke-linecap:square;"/>
   </g>
   <g id="line2d_24">
    <path clip-path="url(#pf151706984)" d="M 91.465965 59.505564 
L 91.096053 59.505564 
L 90.726141 59.505564 
L 90.356229 59.505564 
L 90.726141 59.505564 
L 90.726141 59.135652 
L 91.096053 59.135652 
L 91.465965 58.76574 
L 91.835877 58.395828 
L 92.20579 58.395828 
L 92.575702 58.025916 
L 92.945614 58.025916 
L 93.315526 57.656004 
" style="fill:none;stroke:#8c8c8c;stroke-linecap:square;"/>
   </g>
   <g id="line2d_25">
    <path clip-path="url(#pf151706984)" d="M 93.685438 57.656004 
L 94.05535 57.656004 
L 94.425262 57.656004 
L 94.425262 57.286092 
L 94.795174 57.286092 
L 95.165086 56.91618 
L 95.534998 56.546268 
L 95.90491 56.176356 
L 95.90491 55.806444 
L 96.274822 55.436532 
L 96.274822 55.06662 
L 96.274822 54.696707 
L 95.90491 54.696707 
L 95.90491 55.06662 
L 95.534998 55.806444 
L 95.165086 56.176356 
L 95.165086 56.91618 
L 95.534998 57.656004 
L 95.534998 58.395828 
L 95.90491 58.76574 
L 96.274822 59.135652 
L 97.014646 59.505564 
L 97.384558 59.505564 
L 97.75447 59.505564 
L 98.494294 59.135652 
L 98.494294 58.76574 
" style="fill:none;stroke:#8c8c8c;stroke-linecap:square;"/>
   </g>
   <g id="line2d_26">
    <path clip-path="url(#pf151706984)" d="M 100.713767 52.107323 
L 100.713767 52.477235 
L 101.083679 52.477235 
L 101.453591 52.847147 
L 102.193415 53.586971 
L 102.563327 53.956883 
L 102.933239 54.326795 
L 103.673063 54.696707 
L 104.042975 55.06662 
L 104.042975 55.436532 
L 104.412887 55.436532 
L 104.042975 55.436532 
L 103.673063 55.06662 
L 103.303151 54.696707 
L 102.933239 54.326795 
L 102.933239 53.956883 
L 102.563327 53.217059 
L 102.563327 52.847147 
L 102.563327 52.107323 
L 102.933239 51.737411 
L 102.933239 51.367499 
L 103.303151 50.997587 
" style="fill:none;stroke:#8c8c8c;stroke-linecap:square;"/>
   </g>
   <g id="line2d_27">
    <path clip-path="url(#pf151706984)" d="M 103.303151 41.749786 
L 102.933239 41.379874 
L 102.563327 41.379874 
L 102.193415 41.379874 
L 102.193415 41.749786 
L 102.563327 42.119698 
L 103.673063 42.48961 
L 104.412887 43.229434 
L 105.522623 43.969258 
L 107.372184 45.078994 
L 108.851832 46.18873 
L 109.961568 47.298466 
L 111.441216 48.778115 
L 112.18104 49.887851 
L 112.920864 51.737411 
L 113.290777 52.847147 
L 112.920864 53.956883 
L 112.550952 55.06662 
" style="fill:none;stroke:#8c8c8c;stroke-linecap:square;"/>
   </g>
  </g>
 </g>
 <defs>
  <clipPath id="pf151706984">
   <rect height="222.982985" width="608.727273" x="7.2" y="7.2"/>
  </clipPath>
 </defs>
</svg>
