<?xml version="1.0" encoding="utf-8" standalone="no"?>
<!DOCTYPE svg PUBLIC "-//W3C//DTD SVG 1.1//EN"
  "http://www.w3.org/Graphics/SVG/1.1/DTD/svg11.dtd">
<!-- Created with matplotlib (https://matplotlib.org/) -->
<svg height="286.2pt" version="1.1" viewBox="0 0 377.984314 286.2" width="377.984314pt" xmlns="http://www.w3.org/2000/svg" xmlns:xlink="http://www.w3.org/1999/xlink">
 <metadata>
  <rdf:RDF xmlns:cc="http://creativecommons.org/ns#" xmlns:dc="http://purl.org/dc/elements/1.1/" xmlns:rdf="http://www.w3.org/1999/02/22-rdf-syntax-ns#">
   <cc:Work>
    <dc:type rdf:resource="http://purl.org/dc/dcmitype/StillImage"/>
    <dc:date>2024-11-15T16:04:07.485567</dc:date>
    <dc:format>image/svg+xml</dc:format>
    <dc:creator>
     <cc:Agent>
      <dc:title>Matplotlib v3.3.4, https://matplotlib.org/</dc:title>
     </cc:Agent>
    </dc:creator>
   </cc:Work>
  </rdf:RDF>
 </metadata>
 <defs>
  <style type="text/css">*{stroke-linecap:butt;stroke-linejoin:round;}</style>
 </defs>
 <g id="figure_1">
  <g id="patch_1">
   <path d="M 0 286.2 
L 377.984314 286.2 
L 377.984314 0 
L 0 0 
z
" style="fill:#ffffff;"/>
  </g>
  <g id="axes_1">
   <g id="line2d_1">
    <path clip-path="url(#pa63df68d81)" d="M 49.027807 69.618717 
L 49.027807 69.080392 
L 48.489483 69.618717 
L 48.489483 70.157041 
L 47.951159 70.695365 
L 47.951159 71.23369 
L 47.951159 71.772014 
L 47.412834 73.386988 
L 47.412834 75.001961 
L 47.412834 76.07861 
L 46.87451 77.693583 
L 46.87451 80.385205 
L 46.336185 82.538503 
L 46.336185 83.615152 
L 46.336185 84.6918 
L 46.336185 85.230125 
L 46.336185 85.768449 
L 46.336185 86.306774 
L 46.87451 86.306774 
L 46.87451 85.768449 
L 46.87451 84.6918 
L 47.412834 83.076827 
L 47.412834 80.923529 
L 47.412834 77.693583 
L 47.412834 75.540285 
L 47.412834 73.386988 
L 47.951159 71.772014 
L 47.951159 69.618717 
L 47.951159 68.003743 
L 47.951159 67.465419 
L 48.489483 66.927094 
L 48.489483 66.38877 
L 48.489483 65.850446 
L 49.027807 65.850446 
L 49.566132 65.850446 
L 49.566132 66.38877 
L 50.104456 66.927094 
L 50.642781 68.003743 
L 52.257754 70.695365 
L 53.334403 73.386988 
L 53.872727 75.540285 
L 54.949376 77.155258 
L 55.487701 79.308556 
L 56.564349 81.461854 
L 57.102674 83.076827 
L 57.640998 84.6918 
L 58.179323 85.768449 
L 58.717647 87.383422 
L 59.255971 87.921747 
L 59.255971 88.460071 
" style="fill:none;stroke:#8c8c8c;stroke-linecap:square;"/>
   </g>
   <g id="line2d_2">
    <path clip-path="url(#pa63df68d81)" d="M 47.412834 79.308556 
L 46.87451 79.308556 
L 47.412834 79.846881 
L 47.951159 79.846881 
L 48.489483 79.846881 
L 49.566132 79.846881 
L 50.642781 79.846881 
L 52.796078 79.308556 
L 55.487701 78.231907 
L 57.102674 77.155258 
L 58.179323 77.155258 
" style="fill:none;stroke:#8c8c8c;stroke-linecap:square;"/>
   </g>
   <g id="line2d_3">
    <path clip-path="url(#pa63df68d81)" d="M 80.788948 63.158824 
L 80.788948 62.620499 
L 80.250624 62.082175 
L 80.250624 61.54385 
L 80.250624 62.082175 
L 80.788948 62.620499 
L 80.788948 63.158824 
L 81.327273 65.312121 
L 82.403922 67.465419 
L 83.48057 70.695365 
L 84.557219 73.386988 
L 84.557219 74.463636 
L 85.633868 76.616934 
L 86.172193 77.693583 
L 86.710517 78.770232 
L 86.710517 79.308556 
L 86.710517 79.846881 
L 87.248841 79.846881 
L 87.248841 79.308556 
L 87.248841 78.770232 
L 87.248841 77.155258 
L 87.787166 76.07861 
L 88.32549 74.463636 
L 89.402139 73.386988 
L 89.940463 72.848663 
L 91.017112 71.772014 
L 91.555437 71.772014 
L 92.093761 71.23369 
L 93.17041 71.772014 
L 93.708734 71.772014 
L 94.247059 72.310339 
L 94.785383 73.386988 
L 95.323708 73.925312 
L 95.323708 75.001961 
L 95.323708 76.07861 
L 94.785383 77.693583 
L 94.785383 78.770232 
L 93.708734 79.308556 
L 92.632086 80.923529 
L 91.555437 81.461854 
L 91.017112 82.000178 
L 89.940463 82.000178 
L 89.402139 82.538503 
L 88.32549 82.000178 
L 88.32549 81.461854 
L 87.787166 80.923529 
L 87.248841 80.385205 
" style="fill:none;stroke:#8c8c8c;stroke-linecap:square;"/>
   </g>
   <g id="line2d_4">
    <path clip-path="url(#pa63df68d81)" d="M 91.017112 59.928877 
L 91.555437 59.390553 
L 92.093761 59.390553 
L 92.093761 59.928877 
L 92.632086 61.005526 
L 93.17041 61.54385 
L 94.247059 62.620499 
L 94.785383 64.235472 
L 96.400357 66.927094 
L 97.477005 68.542068 
L 98.553654 71.23369 
L 99.630303 72.848663 
L 100.168627 73.925312 
L 101.245276 75.540285 
L 101.783601 76.616934 
L 102.86025 77.693583 
L 103.398574 78.231907 
L 103.398574 78.770232 
L 103.936898 78.770232 
" style="fill:none;stroke:#8c8c8c;stroke-linecap:square;"/>
   </g>
   <g id="line2d_5">
    <path clip-path="url(#pa63df68d81)" d="M 105.013547 72.310339 
L 105.013547 71.772014 
L 104.475223 71.23369 
L 104.475223 71.772014 
L 104.475223 72.310339 
L 105.013547 72.310339 
L 105.013547 72.848663 
L 105.551872 73.925312 
L 106.090196 74.463636 
L 106.62852 75.001961 
L 107.166845 76.07861 
L 108.243494 76.616934 
L 108.781818 76.616934 
L 109.320143 76.616934 
L 109.858467 76.616934 
L 110.935116 76.07861 
L 111.47344 75.540285 
L 111.47344 74.463636 
L 112.011765 72.848663 
L 111.47344 71.772014 
L 111.47344 70.695365 
L 110.935116 69.080392 
L 110.935116 68.542068 
L 110.935116 68.003743 
L 110.396791 67.465419 
" style="fill:none;stroke:#8c8c8c;stroke-linecap:square;"/>
   </g>
   <g id="line2d_6">
    <path clip-path="url(#pa63df68d81)" d="M 112.550089 68.542068 
L 113.088414 69.080392 
L 113.626738 69.080392 
L 114.165062 69.618717 
L 114.703387 69.618717 
L 115.241711 69.080392 
L 115.780036 69.080392 
L 116.31836 68.542068 
L 117.395009 68.003743 
L 117.933333 67.465419 
L 118.471658 66.927094 
L 118.471658 66.38877 
L 118.471658 65.850446 
L 118.471658 65.312121 
L 118.471658 64.773797 
L 117.933333 64.773797 
L 117.395009 64.773797 
L 116.856684 64.773797 
L 116.856684 65.312121 
L 116.31836 65.850446 
L 115.780036 66.38877 
L 115.241711 68.003743 
L 114.703387 69.618717 
L 115.241711 70.695365 
L 115.780036 71.772014 
L 116.31836 72.848663 
L 117.933333 73.925312 
L 119.009982 75.001961 
L 120.086631 75.540285 
L 121.16328 75.540285 
L 122.239929 76.07861 
L 123.854902 75.540285 
L 124.931551 75.540285 
L 126.546524 74.463636 
" style="fill:none;stroke:#8c8c8c;stroke-linecap:square;"/>
   </g>
   <g id="line2d_7">
    <path clip-path="url(#pa63df68d81)" d="M 157.76934 66.38877 
L 157.76934 66.927094 
L 158.307665 66.927094 
L 158.845989 67.465419 
L 159.384314 66.927094 
L 159.922638 66.927094 
L 160.460963 66.927094 
L 160.999287 66.38877 
L 161.537611 66.38877 
L 162.075936 65.850446 
L 162.61426 65.312121 
L 162.61426 64.773797 
L 162.61426 63.697148 
L 162.61426 62.620499 
L 162.075936 61.54385 
L 162.075936 61.005526 
L 161.537611 60.467201 
L 160.999287 59.928877 
L 160.460963 59.390553 
L 159.922638 59.390553 
L 159.384314 58.852228 
L 158.845989 58.852228 
L 158.307665 59.390553 
L 157.76934 59.390553 
L 157.231016 59.928877 
L 156.692692 61.005526 
L 156.692692 63.158824 
L 156.692692 64.235472 
L 156.692692 66.38877 
L 157.231016 68.003743 
L 158.307665 71.772014 
L 158.845989 73.925312 
L 159.922638 76.07861 
L 160.999287 79.308556 
L 161.537611 80.923529 
L 162.61426 83.076827 
L 163.152585 84.6918 
L 163.152585 85.768449 
L 163.690909 86.845098 
L 164.229234 87.383422 
L 164.229234 87.921747 
L 163.690909 87.921747 
L 163.690909 87.383422 
L 162.61426 86.306774 
" style="fill:none;stroke:#8c8c8c;stroke-linecap:square;"/>
   </g>
   <g id="line2d_8">
    <path clip-path="url(#pa63df68d81)" d="M 168.535829 49.162389 
L 168.535829 48.624064 
L 169.074153 48.624064 
L 169.074153 49.162389 
L 169.074153 49.700713 
L 169.612478 49.700713 
L 169.612478 50.777362 
L 170.150802 51.854011 
L 171.227451 54.007308 
L 172.3041 56.160606 
L 172.842424 59.390553 
L 173.919073 61.54385 
L 173.919073 63.158824 
L 174.457398 65.312121 
L 175.534046 67.465419 
L 175.534046 68.542068 
L 176.072371 69.618717 
L 176.072371 70.157041 
L 176.610695 70.157041 
" style="fill:none;stroke:#8c8c8c;stroke-linecap:square;"/>
   </g>
   <g id="line2d_9">
    <path clip-path="url(#pa63df68d81)" d="M 184.147237 61.005526 
L 184.685561 61.005526 
L 184.685561 60.467201 
L 185.223886 60.467201 
L 185.223886 59.928877 
L 185.223886 59.390553 
L 185.223886 58.852228 
L 184.685561 58.852228 
L 184.685561 58.313904 
L 184.147237 57.775579 
L 183.608913 57.775579 
L 182.532264 58.313904 
L 181.993939 58.313904 
L 181.455615 59.390553 
L 180.917291 59.928877 
L 180.917291 60.467201 
L 180.917291 62.082175 
L 181.455615 63.158824 
L 181.993939 63.697148 
L 182.532264 64.235472 
L 183.608913 64.773797 
L 184.147237 64.773797 
L 184.685561 64.773797 
L 185.223886 63.697148 
L 185.76221 63.158824 
L 186.300535 62.082175 
L 186.300535 61.54385 
L 186.838859 59.928877 
L 186.838859 59.390553 
L 186.838859 58.852228 
L 186.838859 57.775579 
L 186.838859 57.237255 
L 186.838859 57.775579 
L 187.377184 58.852228 
L 187.377184 60.467201 
L 187.915508 62.620499 
L 188.453832 63.697148 
L 188.992157 64.773797 
L 188.992157 66.38877 
L 189.530481 66.927094 
L 189.530481 67.465419 
L 190.068806 68.003743 
" style="fill:none;stroke:#8c8c8c;stroke-linecap:square;"/>
   </g>
   <g id="line2d_10">
    <path clip-path="url(#pa63df68d81)" d="M 197.605348 60.467201 
L 197.067023 60.467201 
L 196.528699 59.928877 
L 195.990374 59.928877 
L 195.45205 59.928877 
L 195.45205 60.467201 
L 195.990374 61.005526 
L 196.528699 61.54385 
L 196.528699 62.620499 
L 197.067023 63.697148 
L 197.605348 64.773797 
L 198.143672 65.312121 
L 198.143672 65.850446 
L 198.681996 65.850446 
L 198.681996 65.312121 
L 198.681996 64.773797 
L 198.143672 64.235472 
L 198.143672 63.697148 
L 198.143672 62.620499 
L 198.143672 60.467201 
L 198.143672 58.852228 
L 198.681996 57.237255 
L 198.681996 56.160606 
L 199.220321 55.622282 
L 200.29697 55.083957 
L 201.373619 54.545633 
L 201.373619 55.083957 
L 202.450267 55.083957 
L 203.526916 56.160606 
L 204.603565 57.237255 
L 205.141889 58.313904 
L 205.680214 59.390553 
L 206.756863 61.005526 
L 206.756863 62.082175 
L 207.295187 62.620499 
L 207.833512 63.158824 
L 207.833512 63.697148 
" style="fill:none;stroke:#8c8c8c;stroke-linecap:square;"/>
   </g>
   <g id="line2d_11">
    <path clip-path="url(#pa63df68d81)" d="M 209.448485 59.390553 
L 209.986809 59.390553 
L 209.986809 58.852228 
L 210.525134 58.852228 
L 211.063458 58.852228 
L 211.601783 58.313904 
L 212.678431 58.313904 
L 213.216756 57.775579 
L 214.831729 56.69893 
L 215.370053 56.160606 
L 215.908378 55.622282 
L 216.446702 54.545633 
L 216.446702 54.007308 
L 216.446702 53.468984 
L 215.908378 52.93066 
L 215.370053 52.93066 
L 214.831729 52.93066 
L 214.293405 52.93066 
L 213.216756 53.468984 
L 212.678431 54.007308 
L 212.140107 55.083957 
L 211.601783 56.160606 
L 211.601783 57.775579 
L 211.601783 58.313904 
L 212.140107 59.928877 
L 212.678431 60.467201 
L 213.216756 61.54385 
L 214.293405 62.082175 
L 214.831729 62.082175 
L 216.446702 62.082175 
L 216.985027 62.082175 
L 218.061676 61.54385 
L 218.6 61.54385 
" style="fill:none;stroke:#8c8c8c;stroke-linecap:square;"/>
   </g>
   <g id="line2d_12">
    <path clip-path="url(#pa63df68d81)" d="M 227.751515 49.162389 
L 228.28984 48.624064 
L 228.28984 48.08574 
L 227.751515 47.547415 
L 228.28984 47.009091 
L 228.28984 47.547415 
L 228.28984 48.08574 
L 228.828164 48.624064 
L 229.366488 49.700713 
L 229.904813 50.777362 
L 230.443137 52.392335 
L 230.981462 55.083957 
L 231.519786 56.69893 
L 232.596435 58.313904 
L 232.596435 59.390553 
L 233.134759 60.467201 
L 233.134759 61.005526 
" style="fill:none;stroke:#8c8c8c;stroke-linecap:square;"/>
   </g>
   <g id="line2d_13">
    <path clip-path="url(#pa63df68d81)" d="M 226.136542 52.392335 
L 225.598217 52.93066 
L 225.598217 53.468984 
L 225.598217 54.007308 
L 225.598217 54.545633 
L 226.136542 54.545633 
L 226.674866 54.545633 
L 227.213191 54.545633 
L 228.828164 54.545633 
L 229.904813 54.545633 
L 232.058111 54.007308 
L 233.134759 53.468984 
L 233.673084 52.93066 
L 234.211408 52.93066 
" style="fill:none;stroke:#8c8c8c;stroke-linecap:square;"/>
   </g>
   <g id="line2d_14">
    <path clip-path="url(#pa63df68d81)" d="M 65.715865 55.622282 
L 66.254189 55.622282 
L 66.254189 55.083957 
L 66.792513 55.083957 
L 66.792513 54.545633 
L 67.330838 54.545633 
L 67.330838 54.007308 
L 67.330838 54.545633 
L 66.792513 54.545633 
L 66.792513 55.083957 
L 66.792513 55.622282 
L 66.254189 56.160606 
L 66.254189 56.69893 
L 65.715865 57.775579 
L 65.17754 57.775579 
" style="fill:none;stroke:#8c8c8c;stroke-linecap:square;"/>
   </g>
   <g id="line2d_15">
    <path clip-path="url(#pa63df68d81)" d="M 59.794296 50.239037 
L 60.33262 50.239037 
L 60.33262 50.777362 
L 60.33262 51.315686 
L 60.870945 51.854011 
L 60.870945 52.392335 
L 60.870945 53.468984 
L 60.870945 54.545633 
L 60.33262 55.622282 
L 60.33262 56.160606 
L 60.33262 56.69893 
L 60.33262 57.237255 
L 60.33262 57.775579 
" style="fill:none;stroke:#8c8c8c;stroke-linecap:square;"/>
   </g>
   <g id="line2d_16">
    <path clip-path="url(#pa63df68d81)" d="M 228.828164 27.091087 
L 228.28984 26.552763 
L 228.828164 26.552763 
L 229.366488 27.629412 
L 229.904813 28.167736 
L 230.443137 28.706061 
L 230.443137 29.782709 
L 230.981462 30.321034 
L 230.981462 30.859358 
" style="fill:none;stroke:#8c8c8c;stroke-linecap:square;"/>
   </g>
   <g id="line2d_17">
    <path clip-path="url(#pa63df68d81)" d="M 230.443137 20.09287 
L 230.981462 19.554545 
L 231.519786 20.09287 
L 232.058111 20.631194 
L 233.134759 21.707843 
L 233.673084 22.784492 
L 234.211408 23.322816 
L 234.749733 24.399465 
L 234.749733 24.93779 
" style="fill:none;stroke:#8c8c8c;stroke-linecap:square;"/>
   </g>
   <g id="line2d_18">
    <path clip-path="url(#pa63df68d81)" d="M 28.57148 134.755971 
L 28.57148 135.294296 
L 29.109804 135.294296 
L 29.648128 135.294296 
L 29.648128 134.755971 
L 30.186453 134.755971 
L 31.263102 134.755971 
L 32.878075 134.217647 
L 33.954724 133.679323 
L 35.569697 133.140998 
L 37.18467 132.602674 
L 38.261319 132.064349 
L 39.337968 131.526025 
L 40.414617 131.526025 
L 40.952941 130.987701 
L 41.491266 130.987701 
L 42.02959 130.987701 
L 42.567914 131.526025 
L 42.567914 132.064349 
L 43.106239 133.140998 
L 43.106239 134.217647 
L 43.106239 135.294296 
L 43.106239 136.909269 
L 43.106239 139.600891 
L 42.567914 143.369162 
L 42.567914 144.984135 
L 42.567914 147.137433 
L 42.02959 149.290731 
L 42.02959 150.36738 
L 42.02959 151.444029 
L 42.02959 151.982353 
" style="fill:none;stroke:#8c8c8c;stroke-linecap:square;"/>
   </g>
   <g id="line2d_19">
    <path clip-path="url(#pa63df68d81)" d="M 50.104456 130.449376 
L 50.642781 130.987701 
L 50.642781 131.526025 
L 50.642781 132.064349 
L 51.181105 132.602674 
L 51.71943 134.217647 
L 51.71943 135.294296 
L 52.796078 137.985918 
L 53.334403 139.600891 
L 53.334403 141.215865 
L 53.872727 143.369162 
L 54.411052 144.445811 
L 54.949376 144.984135 
L 54.949376 145.52246 
L 54.949376 146.060784 
" style="fill:none;stroke:#8c8c8c;stroke-linecap:square;"/>
   </g>
   <g id="line2d_20">
    <path clip-path="url(#pa63df68d81)" d="M 58.179323 129.372727 
L 58.179323 128.834403 
L 58.179323 128.296078 
L 58.179323 128.834403 
L 58.717647 128.834403 
L 58.717647 129.372727 
L 59.255971 129.911052 
L 59.794296 130.449376 
L 60.33262 130.987701 
L 60.870945 130.987701 
L 61.409269 130.987701 
L 61.947594 130.987701 
L 62.485918 130.449376 
L 63.024242 129.911052 
L 63.024242 129.372727 
L 63.024242 128.834403 
L 63.024242 128.296078 
L 62.485918 127.757754 
L 61.947594 127.21943 
L 61.409269 127.21943 
L 60.870945 127.21943 
L 60.33262 127.21943 
L 59.794296 127.21943 
" style="fill:none;stroke:#8c8c8c;stroke-linecap:square;"/>
   </g>
   <g id="line2d_21">
    <path clip-path="url(#pa63df68d81)" d="M 69.484135 138.524242 
L 70.02246 138.524242 
L 70.02246 139.062567 
L 70.02246 139.600891 
L 70.560784 140.139216 
L 70.560784 140.67754 
L 70.560784 141.215865 
L 71.099109 141.215865 
L 71.099109 141.754189 
L 72.175758 142.292513 
L 72.714082 142.292513 
L 73.252406 142.292513 
L 73.790731 141.754189 
L 73.790731 141.215865 
L 74.329055 140.67754 
L 74.329055 139.600891 
L 74.329055 139.062567 
L 73.790731 138.524242 
L 73.252406 137.985918 
L 72.714082 137.985918 
L 72.175758 137.447594 
L 71.099109 137.985918 
L 70.560784 137.985918 
L 70.02246 137.985918 
L 69.484135 138.524242 
" style="fill:none;stroke:#8c8c8c;stroke-linecap:square;"/>
   </g>
   <g id="line2d_22">
    <path clip-path="url(#pa63df68d81)" d="M 63.024242 142.830838 
L 63.562567 142.292513 
L 63.562567 141.754189 
L 64.100891 141.215865 
L 65.17754 139.600891 
L 66.254189 137.447594 
L 68.945811 134.217647 
L 70.560784 131.526025 
L 72.175758 129.372727 
L 73.790731 126.142781 
L 74.86738 125.066132 
L 76.482353 123.451159 
L 77.020677 122.37451 
L 77.020677 121.836185 
L 77.559002 121.297861 
" style="fill:none;stroke:#8c8c8c;stroke-linecap:square;"/>
   </g>
   <g id="line2d_23">
    <path clip-path="url(#pa63df68d81)" d="M 108.243494 125.066132 
L 107.705169 125.066132 
L 107.705169 125.604456 
L 107.166845 125.604456 
L 106.62852 126.142781 
L 106.090196 127.21943 
L 105.551872 127.757754 
L 105.013547 128.834403 
L 105.013547 129.372727 
L 105.013547 129.911052 
L 105.013547 130.449376 
L 105.551872 130.449376 
L 106.090196 130.987701 
L 106.62852 130.987701 
L 107.166845 130.987701 
L 107.705169 130.987701 
L 108.781818 131.526025 
L 109.320143 131.526025 
L 109.320143 132.064349 
L 109.858467 133.140998 
L 109.858467 134.217647 
L 109.858467 135.294296 
L 109.858467 136.370945 
L 109.320143 137.447594 
L 108.781818 138.524242 
L 108.243494 138.524242 
L 107.166845 139.062567 
L 106.62852 138.524242 
L 106.090196 138.524242 
" style="fill:none;stroke:#8c8c8c;stroke-linecap:square;"/>
   </g>
   <g id="line2d_24">
    <path clip-path="url(#pa63df68d81)" d="M 112.550089 130.449376 
L 113.088414 130.449376 
L 113.626738 130.987701 
L 114.165062 131.526025 
L 114.703387 132.064349 
L 115.780036 132.602674 
L 116.856684 132.602674 
L 117.933333 133.140998 
L 119.009982 132.602674 
L 120.086631 132.064349 
L 121.16328 131.526025 
L 121.701604 130.987701 
L 121.701604 129.911052 
L 121.701604 129.372727 
L 121.701604 128.296078 
L 120.624955 127.21943 
L 120.086631 126.681105 
L 119.548307 126.142781 
L 119.009982 125.604456 
L 118.471658 125.604456 
L 117.933333 125.604456 
L 117.933333 125.066132 
" style="fill:none;stroke:#8c8c8c;stroke-linecap:square;"/>
   </g>
   <g id="line2d_25">
    <path clip-path="url(#pa63df68d81)" d="M 128.161497 127.757754 
L 128.161497 128.296078 
L 128.699822 128.296078 
L 128.699822 128.834403 
L 129.238146 128.834403 
L 129.238146 129.372727 
L 129.776471 129.372727 
L 130.314795 129.372727 
L 130.314795 128.834403 
L 130.314795 127.757754 
L 129.776471 126.142781 
L 129.238146 125.604456 
L 129.238146 125.066132 
L 129.238146 123.451159 
L 129.238146 122.912834 
L 129.238146 122.37451 
L 129.238146 121.836185 
L 129.238146 121.297861 
" style="fill:none;stroke:#8c8c8c;stroke-linecap:square;"/>
   </g>
   <g id="line2d_26">
    <path clip-path="url(#pa63df68d81)" d="M 137.313012 123.989483 
L 137.313012 124.527807 
L 137.851337 124.527807 
L 137.851337 125.066132 
L 138.389661 125.066132 
L 138.389661 125.604456 
L 138.389661 126.142781 
L 138.927986 126.142781 
L 138.927986 126.681105 
L 139.46631 126.681105 
L 139.46631 126.142781 
L 138.927986 125.604456 
L 138.927986 125.066132 
L 138.389661 124.527807 
L 137.851337 123.451159 
L 136.774688 120.759537 
L 136.236364 119.144563 
L 135.698039 116.452941 
L 135.159715 114.837968 
L 135.159715 113.761319 
L 135.159715 112.68467 
L 135.159715 111.608021 
L 135.698039 111.069697 
L 136.236364 110.531373 
L 136.774688 110.531373 
L 137.313012 110.531373 
L 137.851337 110.531373 
L 138.389661 110.531373 
" style="fill:none;stroke:#8c8c8c;stroke-linecap:square;"/>
   </g>
   <g id="line2d_27">
    <path clip-path="url(#pa63df68d81)" d="M 134.083066 120.759537 
L 134.083066 121.297861 
L 134.62139 121.836185 
L 135.159715 121.836185 
L 136.236364 121.836185 
L 137.313012 121.836185 
L 138.389661 121.297861 
L 139.46631 121.297861 
L 140.542959 121.297861 
L 141.619608 120.759537 
" style="fill:none;stroke:#8c8c8c;stroke-linecap:square;"/>
   </g>
   <g id="line2d_28">
    <path clip-path="url(#pa63df68d81)" d="M 148.617825 119.682888 
L 148.079501 119.682888 
L 147.541176 119.682888 
L 147.002852 120.221212 
L 146.464528 120.759537 
L 146.464528 121.836185 
L 146.464528 122.37451 
L 146.464528 122.912834 
L 147.002852 122.912834 
L 147.541176 122.912834 
L 148.079501 123.451159 
L 148.617825 122.912834 
L 149.15615 122.912834 
L 149.694474 122.37451 
L 150.232799 121.836185 
L 150.232799 121.297861 
L 150.771123 120.221212 
L 150.771123 119.682888 
L 150.771123 119.144563 
L 150.771123 118.606239 
L 150.771123 119.144563 
L 151.309447 119.682888 
L 151.847772 120.221212 
L 151.847772 121.297861 
L 152.386096 121.836185 
L 152.924421 122.37451 
L 152.924421 122.912834 
L 153.462745 123.451159 
L 154.00107 123.989483 
" style="fill:none;stroke:#8c8c8c;stroke-linecap:square;"/>
   </g>
   <g id="line2d_29">
    <path clip-path="url(#pa63df68d81)" d="M 159.384314 117.52959 
L 159.384314 116.991266 
L 159.384314 116.452941 
L 159.384314 115.914617 
L 158.845989 115.914617 
L 158.307665 116.452941 
L 157.76934 117.52959 
L 157.76934 118.606239 
L 157.231016 119.682888 
L 157.231016 120.221212 
L 157.76934 121.836185 
L 158.307665 122.37451 
L 158.845989 122.912834 
L 159.384314 123.451159 
L 159.922638 123.451159 
L 160.999287 123.451159 
L 161.537611 123.451159 
" style="fill:none;stroke:#8c8c8c;stroke-linecap:square;"/>
   </g>
   <g id="line2d_30">
    <path clip-path="url(#pa63df68d81)" d="M 168.535829 115.914617 
L 168.535829 116.452941 
L 167.997504 116.452941 
L 167.45918 116.452941 
L 167.997504 116.452941 
L 168.535829 116.452941 
L 169.612478 116.452941 
L 170.689127 115.914617 
L 171.765775 115.376292 
L 172.3041 114.837968 
L 172.842424 113.761319 
L 173.380749 113.222995 
L 173.919073 112.68467 
L 173.380749 111.608021 
L 173.380749 111.069697 
L 172.842424 110.531373 
L 172.3041 109.993048 
L 171.765775 109.993048 
L 170.689127 109.993048 
L 169.612478 110.531373 
L 169.074153 111.608021 
L 168.535829 112.146346 
L 168.535829 113.761319 
L 168.535829 114.837968 
L 169.074153 116.452941 
L 169.612478 116.991266 
L 170.150802 117.52959 
L 171.227451 118.606239 
L 171.765775 119.144563 
L 172.842424 119.144563 
L 174.457398 119.144563 
L 174.995722 119.144563 
" style="fill:none;stroke:#8c8c8c;stroke-linecap:square;"/>
   </g>
   <g id="line2d_31">
    <path clip-path="url(#pa63df68d81)" d="M 199.758645 109.993048 
L 199.758645 109.454724 
L 199.758645 108.916399 
L 200.29697 108.916399 
L 200.29697 109.454724 
L 200.835294 109.993048 
L 200.835294 110.531373 
L 201.373619 111.069697 
L 201.373619 112.146346 
L 201.911943 112.68467 
L 201.911943 113.222995 
L 201.911943 112.68467 
" style="fill:none;stroke:#8c8c8c;stroke-linecap:square;"/>
   </g>
   <g id="line2d_32">
    <path clip-path="url(#pa63df68d81)" d="M 198.143672 100.841533 
L 198.143672 100.303209 
L 198.143672 100.841533 
L 198.681996 101.379857 
" style="fill:none;stroke:#8c8c8c;stroke-linecap:square;"/>
   </g>
   <g id="line2d_33">
    <path clip-path="url(#pa63df68d81)" d="M 206.218538 104.609804 
L 206.756863 104.609804 
L 206.756863 105.148128 
L 206.218538 105.686453 
L 206.218538 106.224777 
L 205.680214 106.763102 
L 206.218538 106.763102 
L 206.218538 107.301426 
L 206.756863 107.301426 
L 207.295187 107.301426 
L 208.371836 107.301426 
L 209.448485 107.83975 
L 210.525134 107.83975 
L 210.525134 108.378075 
L 211.601783 108.916399 
L 211.601783 109.454724 
L 212.140107 110.531373 
L 212.140107 111.069697 
L 212.140107 111.608021 
L 211.601783 112.68467 
" style="fill:none;stroke:#8c8c8c;stroke-linecap:square;"/>
   </g>
   <g id="line2d_34">
    <path clip-path="url(#pa63df68d81)" d="M 225.598217 93.304991 
L 225.598217 92.766667 
L 225.598217 93.304991 
L 225.598217 93.843316 
L 225.598217 94.38164 
L 226.136542 96.534938 
L 226.674866 98.149911 
L 227.213191 99.764884 
L 228.28984 101.918182 
L 228.828164 102.994831 
L 229.366488 104.609804 
L 230.443137 105.686453 
L 230.981462 106.224777 
L 230.981462 106.763102 
" style="fill:none;stroke:#8c8c8c;stroke-linecap:square;"/>
   </g>
   <g id="line2d_35">
    <path clip-path="url(#pa63df68d81)" d="M 236.364706 100.303209 
L 236.90303 101.379857 
L 236.90303 101.918182 
L 237.441355 102.456506 
L 237.441355 102.994831 
L 237.441355 103.533155 
L 237.979679 104.07148 
L 238.518004 104.07148 
" style="fill:none;stroke:#8c8c8c;stroke-linecap:square;"/>
   </g>
   <g id="line2d_36">
    <path clip-path="url(#pa63df68d81)" d="M 236.90303 95.458289 
L 236.90303 94.919964 
L 236.90303 94.38164 
L 236.364706 94.38164 
" style="fill:none;stroke:#8c8c8c;stroke-linecap:square;"/>
   </g>
   <g id="line2d_37">
    <path clip-path="url(#pa63df68d81)" d="M 246.59287 97.073262 
L 246.054545 97.073262 
L 245.516221 97.073262 
L 244.977897 97.073262 
L 244.439572 97.611586 
L 243.901248 97.611586 
L 243.362923 98.149911 
L 243.362923 98.688235 
L 242.824599 99.22656 
L 242.824599 99.764884 
L 242.824599 100.303209 
L 242.824599 100.841533 
L 243.362923 101.379857 
L 243.901248 101.379857 
L 244.439572 101.379857 
L 244.977897 101.379857 
L 245.516221 100.841533 
L 246.054545 100.303209 
L 246.59287 99.22656 
L 247.131194 98.149911 
L 247.131194 97.611586 
L 247.131194 97.073262 
L 246.59287 97.073262 
L 246.59287 96.534938 
L 247.131194 97.073262 
L 247.131194 97.611586 
L 247.131194 98.149911 
L 247.669519 98.149911 
L 247.669519 99.764884 
L 248.207843 100.303209 
L 248.746168 101.379857 
L 249.284492 102.994831 
L 249.822816 104.07148 
L 250.361141 105.148128 
L 250.899465 105.686453 
L 250.899465 106.224777 
L 251.43779 106.224777 
" style="fill:none;stroke:#8c8c8c;stroke-linecap:square;"/>
   </g>
   <g id="line2d_38">
    <path clip-path="url(#pa63df68d81)" d="M 253.052763 94.919964 
L 253.052763 94.38164 
L 253.052763 94.919964 
L 253.052763 95.458289 
L 253.052763 95.996613 
L 253.591087 95.996613 
L 254.129412 96.534938 
L 255.206061 97.611586 
L 255.744385 98.149911 
L 256.821034 98.688235 
L 257.359358 98.688235 
L 257.897683 98.688235 
L 258.436007 98.688235 
L 258.974332 98.149911 
L 258.974332 97.611586 
L 258.974332 97.073262 
L 258.974332 96.534938 
L 258.974332 94.919964 
L 258.436007 94.38164 
L 258.436007 93.304991 
L 257.897683 92.766667 
L 257.359358 91.690018 
" style="fill:none;stroke:#8c8c8c;stroke-linecap:square;"/>
   </g>
   <g id="line2d_39">
    <path clip-path="url(#pa63df68d81)" d="M 261.665954 92.228342 
L 262.204278 93.304991 
L 262.742602 93.843316 
L 262.742602 94.919964 
L 263.280927 95.458289 
L 263.280927 95.996613 
L 263.819251 95.996613 
L 263.819251 96.534938 
" style="fill:none;stroke:#8c8c8c;stroke-linecap:square;"/>
   </g>
   <g id="line2d_40">
    <path clip-path="url(#pa63df68d81)" d="M 262.204278 90.075045 
L 261.665954 88.460071 
L 261.127629 87.921747 
L 261.127629 87.383422 
" style="fill:none;stroke:#8c8c8c;stroke-linecap:square;"/>
   </g>
   <g id="line2d_41">
    <path clip-path="url(#pa63df68d81)" d="M 268.664171 87.921747 
L 269.202496 87.921747 
L 269.202496 88.460071 
L 268.664171 88.998396 
L 268.125847 89.53672 
L 268.125847 90.075045 
L 267.587522 90.613369 
L 267.587522 91.690018 
L 267.049198 92.766667 
L 267.587522 93.304991 
L 267.587522 93.843316 
L 268.125847 94.38164 
L 269.202496 94.919964 
L 270.279144 94.919964 
L 270.817469 94.919964 
L 271.894118 94.919964 
L 272.970766 94.38164 
L 274.047415 93.843316 
L 274.58574 93.304991 
L 275.124064 90.613369 
L 275.124064 90.075045 
L 275.124064 87.383422 
L 274.58574 85.230125 
L 274.047415 82.538503 
L 273.509091 81.461854 
L 272.970766 80.385205 
L 272.970766 79.846881 
L 272.970766 78.770232 
L 272.432442 78.770232 
L 272.970766 79.308556 
L 272.970766 79.846881 
L 272.970766 80.385205 
L 273.509091 81.461854 
L 274.047415 83.076827 
L 274.047415 84.6918 
L 275.124064 87.383422 
L 275.662389 89.53672 
L 276.200713 91.151693 
L 276.739037 93.304991 
L 277.277362 94.38164 
L 277.815686 95.458289 
" style="fill:none;stroke:#8c8c8c;stroke-linecap:square;"/>
   </g>
   <g id="line2d_42">
    <path clip-path="url(#pa63df68d81)" d="M 290.735472 83.076827 
L 290.735472 82.538503 
L 290.735472 82.000178 
L 290.735472 82.538503 
L 291.273797 83.076827 
L 291.812121 83.615152 
L 291.812121 84.153476 
L 292.88877 85.230125 
L 293.427094 85.768449 
L 294.503743 86.845098 
L 295.042068 86.845098 
L 296.118717 87.383422 
L 296.657041 86.845098 
L 297.195365 86.845098 
L 297.73369 86.306774 
L 297.73369 85.768449 
L 298.272014 85.768449 
L 298.272014 85.230125 
L 298.810339 85.230125 
L 298.810339 85.768449 
L 299.348663 85.768449 
L 299.886988 86.306774 
L 300.963636 86.845098 
L 302.040285 87.383422 
L 303.116934 87.383422 
L 304.731907 87.383422 
L 305.270232 87.383422 
L 306.346881 86.845098 
L 306.885205 85.768449 
L 307.423529 84.6918 
L 306.885205 83.615152 
L 306.346881 82.538503 
L 305.270232 81.461854 
L 304.193583 79.846881 
L 303.655258 79.308556 
L 303.116934 79.308556 
L 302.57861 79.308556 
L 302.57861 78.770232 
L 302.57861 79.308556 
" style="fill:none;stroke:#8c8c8c;stroke-linecap:square;"/>
   </g>
   <g id="line2d_43">
    <path clip-path="url(#pa63df68d81)" d="M 314.960071 79.846881 
L 314.960071 79.308556 
L 314.421747 79.308556 
L 313.883422 79.308556 
L 313.345098 79.308556 
L 312.806774 79.308556 
L 312.268449 79.308556 
L 311.730125 79.846881 
L 311.1918 80.385205 
L 310.653476 80.923529 
L 310.653476 81.461854 
L 310.653476 82.000178 
L 310.653476 82.538503 
L 311.1918 83.076827 
L 311.730125 83.615152 
L 312.268449 83.615152 
L 313.345098 83.615152 
L 313.883422 83.076827 
L 314.960071 82.538503 
L 316.03672 81.461854 
L 316.03672 80.923529 
L 316.03672 80.385205 
L 316.575045 79.308556 
L 316.03672 78.770232 
L 316.03672 78.231907 
L 316.03672 77.693583 
L 316.03672 77.155258 
L 316.03672 77.693583 
L 316.03672 78.231907 
L 316.03672 79.308556 
L 316.575045 80.923529 
L 316.575045 82.538503 
L 316.575045 83.076827 
L 317.113369 84.153476 
L 317.651693 85.768449 
L 317.651693 86.306774 
L 318.190018 86.306774 
" style="fill:none;stroke:#8c8c8c;stroke-linecap:square;"/>
   </g>
   <g id="line2d_44">
    <path clip-path="url(#pa63df68d81)" d="M 321.419964 73.925312 
L 321.419964 73.386988 
L 321.419964 72.848663 
L 321.419964 73.386988 
L 321.958289 73.386988 
L 321.958289 73.925312 
L 322.496613 75.001961 
L 323.034938 76.07861 
L 323.573262 77.155258 
L 324.649911 78.770232 
L 325.188235 79.846881 
L 326.264884 82.000178 
L 326.803209 82.538503 
L 326.803209 83.615152 
L 327.341533 84.153476 
" style="fill:none;stroke:#8c8c8c;stroke-linecap:square;"/>
   </g>
   <g id="line2d_45">
    <path clip-path="url(#pa63df68d81)" d="M 320.88164 77.693583 
L 320.343316 77.693583 
L 320.88164 77.693583 
L 321.419964 78.231907 
L 322.496613 78.231907 
L 323.573262 78.231907 
L 324.649911 78.231907 
L 325.72656 77.693583 
L 326.803209 77.693583 
L 328.418182 77.693583 
" style="fill:none;stroke:#8c8c8c;stroke-linecap:square;"/>
   </g>
   <g id="line2d_46">
    <path clip-path="url(#pa63df68d81)" d="M 334.33975 74.463636 
L 333.801426 74.463636 
L 334.33975 74.463636 
L 334.878075 75.001961 
L 335.954724 74.463636 
L 336.493048 74.463636 
L 337.569697 74.463636 
L 338.108021 73.925312 
L 338.646346 73.925312 
L 339.18467 73.386988 
L 339.722995 72.848663 
L 339.722995 72.310339 
L 339.18467 72.310339 
L 339.18467 71.772014 
L 338.646346 71.23369 
L 338.108021 71.23369 
L 337.031373 71.772014 
L 336.493048 71.772014 
L 335.954724 72.848663 
L 335.416399 73.386988 
L 334.878075 73.925312 
L 334.878075 74.463636 
L 334.878075 76.07861 
L 335.954724 77.155258 
L 336.493048 77.693583 
L 337.031373 78.231907 
L 338.108021 78.770232 
L 339.18467 78.770232 
L 340.261319 79.308556 
L 340.799643 78.770232 
L 341.337968 78.770232 
L 342.414617 78.231907 
L 342.414617 77.693583 
" style="fill:none;stroke:#8c8c8c;stroke-linecap:square;"/>
   </g>
   <g id="line2d_47">
    <path clip-path="url(#pa63df68d81)" d="M 344.02959 75.001961 
L 344.02959 74.463636 
L 344.567914 74.463636 
L 345.106239 74.463636 
L 345.106239 75.001961 
L 345.644563 75.001961 
L 346.182888 75.540285 
L 346.182888 76.07861 
L 347.259537 76.616934 
L 347.797861 76.616934 
L 347.797861 77.155258 
L 348.336185 77.155258 
L 348.336185 77.693583 
L 348.336185 77.155258 
L 348.336185 76.616934 
L 348.336185 75.540285 
L 347.797861 75.001961 
L 347.797861 73.386988 
L 347.797861 72.310339 
L 347.797861 71.772014 
L 348.336185 70.695365 
L 348.87451 69.618717 
L 349.951159 68.003743 
L 351.027807 67.465419 
L 352.642781 66.38877 
L 354.257754 65.850446 
" style="fill:none;stroke:#8c8c8c;stroke-linecap:square;"/>
   </g>
   <g id="line2d_48">
    <path clip-path="url(#pa63df68d81)" d="M 42.567914 175.668627 
L 43.106239 175.668627 
L 43.106239 175.130303 
L 43.106239 174.591979 
L 43.106239 175.130303 
L 43.644563 175.130303 
L 43.644563 175.668627 
L 44.182888 176.745276 
L 44.721212 178.898574 
L 45.259537 179.975223 
L 46.336185 182.12852 
L 47.412834 183.205169 
L 48.489483 184.281818 
L 49.566132 184.820143 
L 50.104456 184.820143 
L 51.181105 184.820143 
L 52.257754 184.281818 
L 52.796078 183.743494 
L 53.334403 183.205169 
L 53.872727 182.12852 
L 53.872727 181.590196 
L 54.411052 180.513547 
L 54.411052 179.436898 
L 53.872727 178.36025 
L 53.872727 177.821925 
L 53.872727 177.283601 
L 53.872727 176.745276 
L 53.334403 175.668627 
L 52.796078 174.591979 
L 52.796078 174.053654 
L 52.257754 173.51533 
L 52.257754 172.977005 
L 51.71943 171.900357 
L 51.71943 171.362032 
L 51.181105 171.362032 
L 51.181105 170.823708 
L 50.642781 170.823708 
L 50.642781 170.285383 
" style="fill:none;stroke:#8c8c8c;stroke-linecap:square;"/>
   </g>
   <g id="line2d_49">
    <path clip-path="url(#pa63df68d81)" d="M 57.102674 174.053654 
L 57.102674 173.51533 
L 57.640998 173.51533 
L 57.640998 174.053654 
L 58.179323 174.591979 
L 58.717647 175.130303 
L 59.255971 176.206952 
L 59.794296 177.283601 
L 60.33262 178.36025 
L 60.33262 178.898574 
L 60.33262 179.436898 
L 60.870945 179.436898 
L 60.33262 179.436898 
L 60.33262 178.898574 
L 60.33262 178.36025 
L 60.33262 177.821925 
L 59.794296 176.745276 
L 59.794296 175.668627 
L 59.794296 175.130303 
L 59.794296 174.053654 
L 59.794296 173.51533 
L 59.794296 172.977005 
L 59.794296 172.438681 
L 60.33262 172.438681 
L 60.33262 171.900357 
L 60.870945 171.900357 
L 61.409269 171.900357 
L 61.947594 171.900357 
L 62.485918 172.438681 
L 63.024242 172.977005 
L 64.100891 173.51533 
L 64.639216 175.130303 
L 65.17754 175.668627 
L 65.715865 176.745276 
L 66.792513 177.821925 
L 67.330838 178.36025 
L 67.869162 178.898574 
" style="fill:none;stroke:#8c8c8c;stroke-linecap:square;"/>
   </g>
   <g id="line2d_50">
    <path clip-path="url(#pa63df68d81)" d="M 70.02246 172.977005 
L 70.560784 172.977005 
L 70.560784 173.51533 
L 71.099109 173.51533 
L 71.099109 174.053654 
L 71.637433 174.591979 
L 72.175758 175.668627 
L 72.714082 176.206952 
L 73.252406 176.745276 
L 73.790731 177.283601 
" style="fill:none;stroke:#8c8c8c;stroke-linecap:square;"/>
   </g>
   <g id="line2d_51">
    <path clip-path="url(#pa63df68d81)" d="M 70.560784 169.208734 
L 70.02246 168.132086 
L 70.02246 167.593761 
L 69.484135 167.055437 
L 69.484135 166.517112 
L 68.945811 166.517112 
L 69.484135 166.517112 
" style="fill:none;stroke:#8c8c8c;stroke-linecap:square;"/>
   </g>
   <g id="line2d_52">
    <path clip-path="url(#pa63df68d81)" d="M 73.790731 170.285383 
L 74.329055 170.285383 
L 74.329055 170.823708 
L 74.86738 170.823708 
L 75.405704 171.362032 
L 75.944029 171.900357 
L 77.020677 172.977005 
L 77.559002 174.053654 
L 78.635651 174.591979 
L 79.712299 175.668627 
L 80.788948 176.206952 
L 81.327273 176.745276 
L 81.865597 177.283601 
L 82.403922 177.283601 
L 82.403922 176.745276 
L 82.403922 176.206952 
L 82.403922 175.668627 
L 82.403922 174.591979 
L 82.403922 173.51533 
L 81.865597 171.900357 
L 81.327273 170.823708 
L 81.327273 169.747059 
L 80.788948 169.208734 
L 80.788948 168.67041 
L 80.250624 168.132086 
L 80.250624 167.593761 
" style="fill:none;stroke:#8c8c8c;stroke-linecap:square;"/>
   </g>
   <g id="line2d_53">
    <path clip-path="url(#pa63df68d81)" d="M 81.865597 168.132086 
L 82.403922 168.132086 
L 82.403922 168.67041 
L 82.942246 168.67041 
L 82.942246 169.208734 
L 83.48057 169.208734 
L 83.48057 169.747059 
L 84.018895 169.747059 
L 84.557219 169.747059 
L 85.095544 169.747059 
L 85.095544 169.208734 
L 86.172193 169.208734 
L 86.172193 168.67041 
L 86.710517 168.132086 
L 87.248841 167.593761 
L 87.248841 167.055437 
L 87.248841 166.517112 
L 87.248841 165.978788 
L 87.248841 165.440463 
L 86.710517 165.440463 
L 86.710517 164.902139 
L 86.172193 164.902139 
L 85.633868 164.902139 
L 85.633868 165.440463 
L 85.633868 165.978788 
L 85.095544 167.055437 
L 85.633868 168.132086 
L 85.633868 169.208734 
L 86.710517 170.823708 
L 87.248841 172.438681 
L 88.32549 172.977005 
L 88.863815 173.51533 
L 89.940463 174.053654 
L 91.017112 174.053654 
L 91.555437 174.053654 
L 92.632086 173.51533 
L 93.17041 172.977005 
L 93.708734 172.438681 
L 93.708734 171.362032 
L 93.708734 170.823708 
L 93.708734 169.747059 
" style="fill:none;stroke:#8c8c8c;stroke-linecap:square;"/>
   </g>
   <g id="line2d_54">
    <path clip-path="url(#pa63df68d81)" d="M 93.708734 168.67041 
L 93.708734 167.593761 
L 93.708734 167.055437 
L 93.708734 166.517112 
L 93.708734 167.055437 
L 94.247059 167.593761 
L 94.785383 167.593761 
L 95.323708 168.67041 
L 95.862032 169.208734 
L 96.400357 169.747059 
L 96.938681 170.285383 
L 97.477005 170.823708 
L 98.01533 170.823708 
L 98.553654 170.823708 
L 98.553654 170.285383 
L 98.01533 169.747059 
L 98.01533 169.208734 
L 97.477005 168.132086 
L 97.477005 167.593761 
L 97.477005 166.517112 
L 96.938681 165.978788 
L 97.477005 164.902139 
L 97.477005 164.363815 
L 97.477005 163.82549 
L 98.01533 163.82549 
L 98.553654 163.287166 
L 99.091979 162.748841 
" style="fill:none;stroke:#8c8c8c;stroke-linecap:square;"/>
   </g>
   <g id="line2d_55">
    <path clip-path="url(#pa63df68d81)" d="M 103.398574 161.133868 
L 103.398574 160.595544 
L 103.936898 160.595544 
L 104.475223 160.057219 
L 105.013547 160.057219 
L 104.475223 159.518895 
L 103.936898 159.518895 
L 103.936898 160.057219 
L 103.398574 160.057219 
L 102.86025 160.595544 
L 102.321925 161.133868 
L 101.783601 161.672193 
L 101.783601 162.748841 
L 101.783601 163.287166 
L 102.321925 163.287166 
L 102.86025 163.287166 
L 103.398574 163.82549 
L 104.475223 163.82549 
L 105.013547 163.82549 
L 106.090196 164.363815 
L 106.62852 164.363815 
L 107.705169 164.902139 
L 108.243494 165.440463 
L 108.781818 165.978788 
L 109.320143 167.055437 
L 109.320143 167.593761 
L 109.320143 168.132086 
L 109.320143 168.67041 
L 108.781818 168.67041 
" style="fill:none;stroke:#8c8c8c;stroke-linecap:square;"/>
   </g>
   <g id="line2d_56">
    <path clip-path="url(#pa63df68d81)" d="M 114.165062 161.133868 
L 114.703387 160.595544 
L 114.703387 160.057219 
L 114.165062 160.057219 
L 114.165062 160.595544 
L 113.626738 160.595544 
L 113.626738 161.133868 
L 113.088414 161.672193 
L 112.550089 162.748841 
L 112.550089 163.287166 
L 112.550089 163.82549 
L 112.550089 164.363815 
L 113.088414 165.440463 
L 113.626738 165.440463 
L 114.165062 165.978788 
L 114.703387 165.440463 
L 115.241711 165.440463 
L 115.780036 164.902139 
L 116.31836 164.363815 
L 116.31836 163.287166 
L 116.856684 162.210517 
L 116.856684 161.672193 
L 116.31836 160.057219 
L 116.31836 159.518895 
L 116.31836 158.98057 
L 116.31836 158.442246 
L 116.31836 157.903922 
L 116.31836 158.442246 
L 116.856684 158.98057 
L 117.395009 160.057219 
L 118.471658 161.672193 
L 118.471658 162.210517 
L 119.548307 163.82549 
L 119.548307 164.363815 
L 120.086631 165.440463 
L 120.624955 165.978788 
L 121.16328 165.978788 
L 121.16328 165.440463 
L 121.16328 164.902139 
" style="fill:none;stroke:#8c8c8c;stroke-linecap:square;"/>
   </g>
   <g id="line2d_57">
    <path clip-path="url(#pa63df68d81)" d="M 122.239929 151.982353 
L 122.239929 151.444029 
L 122.778253 151.444029 
L 122.778253 150.905704 
L 123.316578 150.905704 
L 123.316578 151.444029 
L 123.854902 151.444029 
L 124.393226 152.520677 
L 124.931551 153.059002 
L 126.0082 154.135651 
L 127.084848 156.288948 
L 127.623173 157.903922 
L 128.161497 160.057219 
L 128.699822 161.133868 
L 129.238146 162.210517 
L 129.238146 162.748841 
L 129.238146 163.287166 
L 129.238146 163.82549 
" style="fill:none;stroke:#8c8c8c;stroke-linecap:square;"/>
   </g>
   <g id="line2d_58">
    <path clip-path="url(#pa63df68d81)" d="M 163.152585 148.214082 
L 164.767558 147.675758 
L 165.305882 147.137433 
L 165.844207 147.137433 
L 165.305882 147.137433 
L 164.767558 147.675758 
L 164.229234 147.675758 
L 163.690909 148.752406 
L 163.152585 149.290731 
L 162.61426 149.829055 
L 162.075936 150.36738 
L 162.075936 150.905704 
L 162.075936 151.444029 
L 162.61426 151.444029 
L 163.152585 151.982353 
L 164.229234 151.982353 
L 165.844207 152.520677 
L 166.920856 152.520677 
L 168.535829 153.059002 
L 169.612478 153.059002 
L 170.689127 153.597326 
L 171.227451 154.135651 
L 171.765775 155.212299 
L 172.3041 156.288948 
L 172.3041 156.827273 
L 171.765775 157.903922 
L 171.227451 158.98057 
L 170.150802 159.518895 
L 168.535829 159.518895 
L 167.45918 159.518895 
L 165.844207 158.98057 
L 164.767558 158.442246 
L 164.229234 157.903922 
" style="fill:none;stroke:#8c8c8c;stroke-linecap:square;"/>
   </g>
   <g id="line2d_59">
    <path clip-path="url(#pa63df68d81)" d="M 173.919073 151.444029 
L 174.457398 150.905704 
L 174.995722 150.905704 
L 175.534046 150.905704 
L 175.534046 151.444029 
L 176.072371 151.982353 
L 176.610695 152.520677 
L 177.14902 152.520677 
L 177.687344 153.059002 
L 179.302317 153.059002 
L 180.378966 153.059002 
L 181.455615 153.059002 
L 182.532264 152.520677 
L 183.070588 151.982353 
L 183.608913 151.444029 
L 183.608913 150.905704 
L 183.070588 150.36738 
L 182.532264 149.829055 
L 181.455615 149.290731 
L 180.917291 149.290731 
L 179.302317 149.290731 
L 178.763993 149.829055 
L 177.687344 150.36738 
L 177.14902 150.36738 
L 176.610695 150.905704 
L 176.610695 151.444029 
" style="fill:none;stroke:#8c8c8c;stroke-linecap:square;"/>
   </g>
   <g id="line2d_60">
    <path clip-path="url(#pa63df68d81)" d="M 180.378966 140.67754 
L 180.917291 140.139216 
L 180.917291 139.600891 
L 181.455615 139.600891 
L 181.455615 140.139216 
L 181.993939 140.139216 
L 181.993939 140.67754 
L 183.070588 141.754189 
L 183.608913 143.369162 
L 184.685561 144.445811 
L 185.76221 146.060784 
L 187.377184 148.214082 
L 188.453832 149.829055 
L 188.992157 150.905704 
L 189.530481 151.444029 
L 190.068806 151.982353 
" style="fill:none;stroke:#8c8c8c;stroke-linecap:square;"/>
   </g>
   <g id="line2d_61">
    <path clip-path="url(#pa63df68d81)" d="M 188.453832 143.907487 
L 188.992157 143.907487 
L 188.992157 144.445811 
L 189.530481 144.445811 
L 190.068806 145.52246 
L 191.145455 146.060784 
L 191.683779 146.599109 
L 193.298752 147.675758 
L 194.375401 148.214082 
L 195.45205 149.290731 
L 195.990374 149.290731 
L 196.528699 149.290731 
L 197.067023 149.290731 
L 197.605348 149.290731 
L 198.143672 148.752406 
L 198.143672 147.675758 
L 198.143672 147.137433 
L 197.605348 146.060784 
L 197.067023 144.984135 
L 196.528699 143.907487 
L 195.990374 142.830838 
L 195.45205 142.292513 
L 195.45205 141.754189 
L 194.913725 141.754189 
" style="fill:none;stroke:#8c8c8c;stroke-linecap:square;"/>
   </g>
   <g id="line2d_62">
    <path clip-path="url(#pa63df68d81)" d="M 201.373619 143.369162 
L 201.911943 143.907487 
L 202.450267 143.907487 
L 202.988592 143.907487 
L 203.526916 143.369162 
L 204.603565 142.292513 
L 204.603565 141.215865 
L 205.141889 140.67754 
L 205.680214 139.600891 
L 205.141889 138.524242 
L 205.141889 137.985918 
L 204.603565 137.447594 
L 204.065241 136.909269 
L 203.526916 136.909269 
L 202.988592 136.909269 
L 202.450267 136.909269 
L 201.373619 137.985918 
L 201.373619 138.524242 
L 200.835294 140.139216 
L 200.835294 141.215865 
L 201.373619 142.292513 
L 201.911943 143.369162 
L 202.988592 144.984135 
L 204.065241 146.060784 
L 205.141889 146.599109 
L 206.218538 147.137433 
L 207.295187 147.137433 
L 208.371836 147.675758 
L 208.91016 147.137433 
L 209.448485 146.599109 
" style="fill:none;stroke:#8c8c8c;stroke-linecap:square;"/>
   </g>
   <g id="line2d_63">
    <path clip-path="url(#pa63df68d81)" d="M 212.678431 140.139216 
L 212.678431 139.600891 
L 212.678431 140.139216 
L 213.216756 140.67754 
L 213.216756 141.215865 
L 213.75508 141.754189 
L 213.75508 142.292513 
L 214.293405 142.830838 
L 214.293405 143.369162 
L 214.831729 143.369162 
L 214.831729 142.292513 
L 214.831729 141.215865 
L 214.831729 140.139216 
L 214.831729 139.062567 
L 214.831729 137.985918 
L 215.370053 136.909269 
L 215.908378 135.83262 
L 215.908378 135.294296 
L 216.446702 135.294296 
L 216.985027 134.755971 
L 217.523351 134.755971 
L 218.061676 134.755971 
L 218.061676 135.294296 
L 218.6 135.83262 
L 219.138324 136.909269 
L 219.676649 137.985918 
L 220.214973 139.062567 
L 220.753298 140.139216 
L 220.753298 141.215865 
L 221.291622 141.754189 
L 221.291622 142.292513 
L 221.829947 142.292513 
L 222.368271 142.292513 
" style="fill:none;stroke:#8c8c8c;stroke-linecap:square;"/>
   </g>
   <g id="line2d_64">
    <path clip-path="url(#pa63df68d81)" d="M 228.828164 127.21943 
L 229.366488 126.681105 
L 229.366488 126.142781 
L 229.366488 125.604456 
L 229.904813 125.604456 
L 229.904813 126.142781 
L 230.443137 126.142781 
L 230.443137 126.681105 
L 230.981462 127.21943 
L 231.519786 128.834403 
L 232.596435 129.911052 
L 233.134759 132.064349 
L 233.673084 133.679323 
L 234.211408 135.294296 
L 234.749733 136.909269 
L 234.749733 137.447594 
L 235.288057 138.524242 
L 235.288057 139.062567 
" style="fill:none;stroke:#8c8c8c;stroke-linecap:square;"/>
   </g>
   <g id="line2d_65">
    <path clip-path="url(#pa63df68d81)" d="M 229.904813 132.602674 
L 229.366488 132.602674 
L 229.904813 132.602674 
L 230.443137 132.602674 
L 230.981462 132.064349 
L 231.519786 132.064349 
L 232.596435 131.526025 
L 234.211408 130.987701 
L 235.288057 130.987701 
L 235.826381 130.449376 
" style="fill:none;stroke:#8c8c8c;stroke-linecap:square;"/>
   </g>
   <g id="line2d_66">
    <path clip-path="url(#pa63df68d81)" d="M 239.056328 119.144563 
L 239.594652 118.606239 
L 240.132977 118.606239 
L 240.132977 119.144563 
L 240.671301 119.144563 
L 240.671301 119.682888 
L 241.209626 120.221212 
L 241.74795 120.759537 
L 241.74795 121.297861 
L 242.286275 121.836185 
L 242.824599 122.37451 
" style="fill:none;stroke:#8c8c8c;stroke-linecap:square;"/>
   </g>
   <g id="line2d_67">
    <path clip-path="url(#pa63df68d81)" d="M 243.901248 118.606239 
L 244.439572 118.606239 
L 244.977897 118.606239 
L 245.516221 118.606239 
L 246.054545 118.606239 
L 246.59287 118.606239 
L 246.59287 119.144563 
L 247.131194 119.144563 
L 247.669519 119.144563 
L 247.669519 119.682888 
" style="fill:none;stroke:#8c8c8c;stroke-linecap:square;"/>
   </g>
   <g id="line2d_68">
    <path clip-path="url(#pa63df68d81)" d="M 30.186453 170.285383 
L 30.186453 169.747059 
L 30.186453 170.285383 
L 30.186453 170.823708 
L 29.648128 171.362032 
L 29.648128 172.438681 
L 29.648128 172.977005 
L 29.648128 173.51533 
L 29.648128 174.053654 
" style="fill:none;stroke:#8c8c8c;stroke-linecap:square;"/>
   </g>
   <g id="line2d_69">
    <path clip-path="url(#pa63df68d81)" d="M 26.418182 168.132086 
L 25.879857 168.132086 
L 25.341533 168.132086 
L 24.803209 168.132086 
L 24.803209 168.67041 
L 24.264884 169.208734 
L 24.264884 169.747059 
L 23.72656 170.285383 
L 23.72656 170.823708 
L 23.72656 171.362032 
" style="fill:none;stroke:#8c8c8c;stroke-linecap:square;"/>
   </g>
   <g id="line2d_70">
    <path clip-path="url(#pa63df68d81)" d="M 49.566132 210.659715 
L 49.027807 210.659715 
L 48.489483 210.659715 
L 47.951159 210.659715 
L 47.951159 211.198039 
L 47.412834 211.198039 
L 46.336185 211.736364 
L 45.797861 212.274688 
L 44.182888 213.351337 
L 43.106239 214.96631 
L 42.02959 215.504635 
L 40.952941 216.581283 
L 40.414617 217.657932 
L 39.876292 218.734581 
L 39.876292 219.272906 
L 39.876292 220.349554 
L 40.414617 220.887879 
L 40.952941 221.426203 
L 42.02959 221.964528 
L 43.644563 222.502852 
L 44.182888 222.502852 
L 45.797861 221.964528 
L 46.87451 221.426203 
L 48.489483 220.887879 
L 49.027807 219.81123 
L 50.104456 219.272906 
L 50.642781 218.196257 
L 50.642781 217.657932 
L 50.642781 217.119608 
L 50.642781 216.581283 
L 50.642781 216.042959 
L 50.642781 215.504635 
L 50.642781 214.96631 
L 50.104456 214.427986 
L 50.104456 214.96631 
L 50.104456 215.504635 
L 50.104456 216.042959 
L 50.104456 217.657932 
L 50.104456 218.734581 
L 50.104456 220.887879 
L 50.104456 222.502852 
L 50.104456 224.117825 
L 50.104456 226.809447 
L 50.104456 228.424421 
L 50.642781 230.039394 
L 50.642781 231.116043 
L 50.642781 231.654367 
L 50.642781 232.192692 
L 50.642781 232.731016 
" style="fill:none;stroke:#8c8c8c;stroke-linecap:square;"/>
   </g>
   <g id="line2d_71">
    <path clip-path="url(#pa63df68d81)" d="M 59.255971 209.583066 
L 58.717647 209.583066 
L 58.717647 210.12139 
L 58.717647 210.659715 
L 58.179323 211.198039 
L 58.179323 212.274688 
L 57.640998 213.351337 
L 57.640998 214.96631 
L 57.640998 216.042959 
L 57.102674 217.119608 
L 57.102674 219.272906 
L 57.102674 220.887879 
L 57.640998 223.041176 
L 57.640998 224.117825 
L 58.179323 225.194474 
L 58.717647 226.271123 
L 59.255971 227.347772 
L 60.33262 228.424421 
L 60.870945 228.962745 
L 61.409269 228.962745 
L 61.947594 228.962745 
L 63.024242 228.962745 
L 63.562567 228.962745 
L 64.100891 228.424421 
L 64.639216 227.886096 
L 64.639216 227.347772 
L 64.639216 226.809447 
L 64.639216 226.271123 
L 64.639216 225.732799 
L 64.100891 225.194474 
L 63.024242 225.194474 
L 62.485918 225.194474 
L 61.409269 225.194474 
L 60.33262 225.194474 
L 59.255971 225.194474 
L 58.717647 225.732799 
L 58.179323 225.732799 
L 57.640998 225.732799 
" style="fill:none;stroke:#8c8c8c;stroke-linecap:square;"/>
   </g>
   <g id="line2d_72">
    <path clip-path="url(#pa63df68d81)" d="M 71.637433 228.424421 
L 72.175758 228.424421 
L 72.175758 228.962745 
L 72.175758 229.50107 
L 72.175758 230.039394 
L 72.175758 230.577718 
L 72.175758 231.116043 
" style="fill:none;stroke:#8c8c8c;stroke-linecap:square;"/>
   </g>
   <g id="line2d_73">
    <path clip-path="url(#pa63df68d81)" d="M 85.633868 212.813012 
L 85.095544 212.813012 
L 85.095544 212.274688 
L 84.557219 212.813012 
L 83.48057 212.813012 
L 82.942246 213.351337 
L 82.403922 213.351337 
L 81.865597 213.889661 
L 80.788948 214.427986 
L 80.250624 215.504635 
L 80.250624 216.042959 
L 80.250624 216.581283 
L 80.788948 216.581283 
L 81.327273 217.119608 
L 81.865597 217.119608 
L 82.942246 217.119608 
L 84.018895 217.657932 
L 85.095544 218.196257 
L 86.710517 218.734581 
L 86.710517 219.272906 
L 87.787166 219.81123 
L 88.863815 220.887879 
L 88.863815 221.426203 
L 89.402139 222.502852 
L 89.402139 223.579501 
L 88.863815 224.65615 
L 88.32549 225.732799 
L 87.248841 226.809447 
L 86.710517 227.347772 
L 85.633868 227.347772 
L 84.018895 227.347772 
L 82.403922 226.271123 
L 81.865597 225.732799 
" style="fill:none;stroke:#8c8c8c;stroke-linecap:square;"/>
   </g>
   <g id="line2d_74">
    <path clip-path="url(#pa63df68d81)" d="M 80.788948 212.813012 
L 81.327273 212.813012 
L 81.327273 212.274688 
L 81.865597 212.274688 
L 82.403922 212.274688 
L 83.48057 211.736364 
L 85.095544 211.198039 
L 86.710517 210.659715 
L 88.32549 210.12139 
L 91.017112 209.044742 
L 93.17041 207.968093 
L 94.247059 207.429768 
L 95.323708 207.429768 
L 95.323708 206.891444 
L 95.862032 206.891444 
" style="fill:none;stroke:#8c8c8c;stroke-linecap:square;"/>
   </g>
   <g id="line2d_75">
    <path clip-path="url(#pa63df68d81)" d="M 112.550089 209.583066 
L 112.550089 209.044742 
L 112.011765 209.044742 
L 111.47344 209.044742 
L 110.935116 209.044742 
L 110.935116 209.583066 
L 110.396791 210.12139 
L 110.396791 210.659715 
L 110.396791 211.198039 
L 110.396791 212.274688 
L 110.935116 212.813012 
L 111.47344 212.813012 
L 112.550089 213.351337 
L 113.088414 213.351337 
L 113.626738 213.351337 
L 114.165062 213.351337 
L 114.165062 212.813012 
L 114.703387 212.274688 
L 114.703387 211.736364 
L 114.165062 211.736364 
L 113.626738 211.198039 
L 113.088414 211.198039 
" style="fill:none;stroke:#8c8c8c;stroke-linecap:square;"/>
   </g>
   <g id="line2d_76">
    <path clip-path="url(#pa63df68d81)" d="M 121.701604 226.809447 
L 121.701604 226.271123 
L 122.239929 226.271123 
L 122.778253 225.732799 
L 122.778253 225.194474 
L 123.316578 224.65615 
L 123.316578 224.117825 
L 123.854902 223.579501 
L 123.854902 223.041176 
L 123.316578 222.502852 
L 123.316578 221.964528 
L 122.778253 221.964528 
L 122.239929 221.426203 
L 121.16328 221.964528 
L 120.624955 222.502852 
L 120.086631 223.041176 
L 119.548307 223.579501 
L 119.548307 224.65615 
L 119.548307 225.194474 
L 119.548307 225.732799 
L 119.548307 226.271123 
L 120.086631 226.271123 
L 120.624955 226.271123 
L 121.16328 225.732799 
L 121.16328 225.194474 
L 121.16328 224.65615 
L 121.16328 224.117825 
" style="fill:none;stroke:#8c8c8c;stroke-linecap:square;"/>
   </g>
   <g id="line2d_77">
    <path clip-path="url(#pa63df68d81)" d="M 106.090196 230.039394 
L 105.551872 230.577718 
L 105.013547 230.577718 
L 105.551872 230.577718 
L 106.090196 230.039394 
L 106.62852 230.039394 
L 107.705169 228.962745 
L 109.858467 227.347772 
L 114.165062 223.579501 
L 118.471658 220.887879 
L 122.778253 217.657932 
L 127.084848 214.96631 
L 132.468093 210.659715 
L 136.774688 207.968093 
L 138.389661 206.353119 
L 139.46631 205.276471 
L 140.004635 204.738146 
L 139.46631 204.738146 
L 138.927986 205.276471 
L 138.389661 205.276471 
" style="fill:none;stroke:#8c8c8c;stroke-linecap:square;"/>
   </g>
   <g id="line2d_78">
    <path clip-path="url(#pa63df68d81)" d="M 155.616043 217.119608 
L 155.616043 216.581283 
L 155.077718 216.581283 
L 154.539394 216.581283 
L 154.00107 216.581283 
L 154.00107 217.119608 
L 153.462745 217.657932 
L 153.462745 218.196257 
L 153.462745 218.734581 
L 153.462745 219.272906 
L 153.462745 219.81123 
L 154.00107 220.349554 
L 155.077718 220.887879 
L 155.616043 220.887879 
L 156.692692 220.887879 
L 157.231016 220.349554 
L 158.307665 219.272906 
L 158.307665 218.196257 
L 158.307665 217.119608 
L 158.307665 216.581283 
L 157.76934 215.504635 
L 156.692692 214.96631 
L 156.154367 214.427986 
L 155.616043 214.427986 
L 155.077718 214.427986 
L 154.539394 214.427986 
L 154.539394 214.96631 
L 154.00107 214.96631 
L 154.00107 215.504635 
" style="fill:none;stroke:#8c8c8c;stroke-linecap:square;"/>
   </g>
   <g id="line2d_79">
    <path clip-path="url(#pa63df68d81)" d="M 164.229234 216.042959 
L 164.767558 216.042959 
L 164.767558 216.581283 
L 165.305882 216.581283 
L 164.767558 216.042959 
L 164.767558 215.504635 
L 164.229234 214.96631 
L 163.690909 213.889661 
L 162.61426 212.274688 
L 161.537611 210.659715 
L 160.999287 207.968093 
L 160.460963 206.353119 
L 160.460963 204.738146 
L 160.999287 203.123173 
L 161.537611 201.5082 
L 162.075936 199.893226 
L 162.61426 199.354902 
L 163.152585 198.816578 
L 163.690909 198.278253 
L 164.229234 198.278253 
L 164.229234 198.816578 
" style="fill:none;stroke:#8c8c8c;stroke-linecap:square;"/>
   </g>
   <g id="line2d_80">
    <path clip-path="url(#pa63df68d81)" d="M 158.307665 207.429768 
L 157.76934 207.968093 
L 157.231016 209.583066 
L 156.692692 209.583066 
L 156.692692 210.12139 
L 157.231016 210.659715 
L 157.76934 210.659715 
L 158.307665 210.12139 
L 159.384314 210.12139 
L 160.460963 210.12139 
L 162.61426 209.044742 
L 164.229234 209.044742 
L 165.844207 208.506417 
L 166.382531 207.968093 
" style="fill:none;stroke:#8c8c8c;stroke-linecap:square;"/>
   </g>
   <g id="line2d_81">
    <path clip-path="url(#pa63df68d81)" d="M 185.223886 209.583066 
L 184.685561 209.044742 
L 184.147237 208.506417 
L 183.608913 207.968093 
L 183.608913 207.429768 
L 183.608913 207.968093 
L 184.147237 208.506417 
L 184.147237 209.044742 
L 184.685561 209.583066 
L 185.223886 211.198039 
L 185.76221 211.736364 
L 185.76221 212.274688 
L 186.838859 213.351337 
L 187.377184 213.351337 
L 187.915508 213.351337 
L 187.915508 212.813012 
L 187.915508 212.274688 
L 187.915508 211.736364 
L 188.453832 211.736364 
L 188.453832 211.198039 
L 188.992157 211.198039 
L 190.068806 211.198039 
L 190.60713 211.736364 
L 191.145455 211.736364 
L 191.683779 211.736364 
L 192.222103 211.736364 
L 192.760428 211.198039 
L 193.298752 211.198039 
L 193.837077 210.12139 
L 193.837077 209.044742 
L 193.837077 207.429768 
L 193.298752 206.353119 
L 192.760428 205.276471 
L 192.760428 204.738146 
L 192.222103 203.661497 
L 191.683779 203.661497 
" style="fill:none;stroke:#8c8c8c;stroke-linecap:square;"/>
   </g>
   <g id="line2d_82">
    <path clip-path="url(#pa63df68d81)" d="M 200.29697 205.814795 
L 200.835294 205.814795 
L 200.29697 205.276471 
L 199.758645 205.276471 
L 199.220321 205.276471 
L 198.681996 205.814795 
L 197.605348 205.814795 
L 197.067023 206.891444 
L 196.528699 207.429768 
L 196.528699 207.968093 
L 195.990374 209.044742 
L 196.528699 209.583066 
L 197.067023 210.12139 
L 197.605348 210.659715 
L 198.681996 210.659715 
L 199.758645 210.12139 
L 200.29697 209.583066 
L 201.373619 208.506417 
L 201.911943 207.968093 
L 201.911943 206.891444 
L 201.911943 205.814795 
L 202.450267 204.738146 
L 202.450267 204.199822 
L 202.450267 203.661497 
L 202.450267 204.199822 
L 202.450267 204.738146 
L 202.450267 205.276471 
L 202.450267 206.891444 
L 202.988592 207.968093 
L 202.988592 209.044742 
L 202.988592 210.659715 
L 203.526916 211.736364 
L 204.065241 212.813012 
L 204.603565 213.351337 
" style="fill:none;stroke:#8c8c8c;stroke-linecap:square;"/>
   </g>
   <g id="line2d_83">
    <path clip-path="url(#pa63df68d81)" d="M 207.833512 200.969875 
L 207.833512 200.431551 
L 207.833512 200.969875 
L 207.833512 201.5082 
L 207.833512 202.046524 
L 207.833512 203.123173 
L 208.371836 204.199822 
L 208.91016 206.353119 
L 209.448485 208.506417 
L 209.448485 209.583066 
L 209.986809 210.659715 
L 209.986809 211.736364 
L 210.525134 211.736364 
L 210.525134 212.274688 
" style="fill:none;stroke:#8c8c8c;stroke-linecap:square;"/>
   </g>
   <g id="line2d_84">
    <path clip-path="url(#pa63df68d81)" d="M 205.680214 209.044742 
L 205.680214 208.506417 
L 205.680214 207.968093 
L 206.218538 207.429768 
L 206.756863 207.429768 
L 207.295187 207.429768 
L 207.833512 206.891444 
L 208.91016 206.891444 
L 209.986809 206.891444 
L 210.525134 206.353119 
L 211.601783 206.353119 
L 212.140107 206.353119 
" style="fill:none;stroke:#8c8c8c;stroke-linecap:square;"/>
   </g>
   <g id="line2d_85">
    <path clip-path="url(#pa63df68d81)" d="M 218.061676 205.276471 
L 218.6 205.276471 
L 218.6 205.814795 
L 218.6 205.276471 
L 219.138324 205.276471 
L 219.676649 205.276471 
L 220.214973 204.738146 
L 220.753298 204.738146 
L 221.291622 204.199822 
L 222.368271 203.661497 
L 223.44492 202.584848 
L 223.983244 202.046524 
L 223.983244 201.5082 
L 223.983244 200.969875 
L 223.44492 200.969875 
L 222.906595 200.969875 
L 222.368271 200.969875 
L 221.291622 201.5082 
L 220.753298 202.046524 
L 219.138324 203.123173 
L 218.6 203.661497 
L 218.061676 204.738146 
L 217.523351 206.353119 
L 217.523351 206.891444 
L 218.6 207.968093 
L 219.138324 209.044742 
L 219.676649 209.583066 
L 220.753298 210.12139 
L 222.368271 210.659715 
L 223.44492 210.659715 
L 224.521569 210.659715 
L 225.598217 210.12139 
L 226.674866 209.044742 
" style="fill:none;stroke:#8c8c8c;stroke-linecap:square;"/>
   </g>
   <g id="line2d_86">
    <path clip-path="url(#pa63df68d81)" d="M 229.904813 205.276471 
L 229.904813 204.738146 
L 229.904813 204.199822 
L 229.904813 203.661497 
L 229.904813 204.199822 
L 229.904813 204.738146 
L 229.904813 205.276471 
L 229.904813 205.814795 
L 230.443137 206.353119 
L 230.443137 206.891444 
L 230.981462 207.968093 
L 230.981462 208.506417 
L 231.519786 209.044742 
L 232.058111 209.044742 
L 232.058111 208.506417 
L 232.596435 207.429768 
L 233.673084 206.891444 
L 234.211408 205.814795 
L 236.364706 203.661497 
L 238.518004 202.584848 
L 240.671301 200.969875 
L 242.286275 199.893226 
L 242.824599 199.893226 
" style="fill:none;stroke:#8c8c8c;stroke-linecap:square;"/>
   </g>
   <g id="line2d_87">
    <path clip-path="url(#pa63df68d81)" d="M 65.715865 257.493939 
L 65.715865 256.955615 
L 66.254189 256.955615 
L 66.792513 257.493939 
L 66.792513 258.570588 
L 66.792513 259.108913 
L 67.330838 260.723886 
L 67.330838 262.338859 
L 67.330838 263.415508 
L 67.869162 264.492157 
L 67.869162 265.568806 
L 68.407487 266.10713 
" style="fill:none;stroke:#8c8c8c;stroke-linecap:square;"/>
   </g>
   <g id="line2d_88">
    <path clip-path="url(#pa63df68d81)" d="M 66.792513 250.495722 
L 66.792513 249.419073 
L 66.254189 248.880749 
L 66.254189 249.419073 
" style="fill:none;stroke:#8c8c8c;stroke-linecap:square;"/>
   </g>
   <g id="line2d_89">
    <path clip-path="url(#pa63df68d81)" d="M 73.790731 254.802317 
L 74.329055 254.802317 
L 74.329055 255.340642 
L 74.329055 255.878966 
L 73.790731 255.878966 
L 73.790731 256.417291 
L 73.252406 256.417291 
L 72.714082 256.955615 
L 72.175758 258.032264 
L 71.099109 258.570588 
L 71.099109 259.108913 
L 71.099109 259.647237 
L 71.099109 260.185561 
L 71.637433 260.185561 
L 72.175758 260.185561 
L 73.252406 260.185561 
L 74.329055 260.723886 
L 75.405704 260.723886 
L 75.944029 260.723886 
L 77.020677 261.26221 
L 77.020677 261.800535 
L 77.559002 262.338859 
L 77.559002 262.877184 
L 77.559002 263.953832 
L 77.559002 265.030481 
L 77.559002 265.568806 
L 77.020677 266.10713 
L 76.482353 266.10713 
L 75.944029 266.645455 
" style="fill:none;stroke:#8c8c8c;stroke-linecap:square;"/>
   </g>
   <g id="line2d_90">
    <path clip-path="url(#pa63df68d81)" d="M 100.168627 256.417291 
L 100.706952 256.417291 
L 100.706952 256.955615 
L 100.706952 257.493939 
L 101.245276 258.032264 
L 101.245276 258.570588 
L 101.245276 259.108913 
L 101.245276 259.647237 
" style="fill:none;stroke:#8c8c8c;stroke-linecap:square;"/>
   </g>
   <g id="line2d_91">
    <path clip-path="url(#pa63df68d81)" d="M 99.630303 251.572371 
L 99.630303 250.495722 
L 99.630303 249.957398 
L 99.091979 249.419073 
L 99.091979 248.880749 
L 99.091979 248.342424 
L 99.630303 248.342424 
" style="fill:none;stroke:#8c8c8c;stroke-linecap:square;"/>
   </g>
   <g id="line2d_92">
    <path clip-path="url(#pa63df68d81)" d="M 105.013547 256.417291 
L 105.013547 256.955615 
L 105.551872 256.955615 
L 105.551872 257.493939 
L 105.551872 258.032264 
L 106.090196 258.032264 
L 106.090196 258.570588 
L 106.62852 259.108913 
L 106.62852 259.647237 
L 107.166845 260.185561 
L 107.705169 260.185561 
L 107.705169 259.647237 
L 107.705169 259.108913 
L 107.705169 258.032264 
L 108.243494 256.955615 
L 108.781818 255.340642 
L 109.320143 254.802317 
L 109.320143 253.725668 
L 110.396791 253.187344 
L 110.935116 253.187344 
L 111.47344 253.187344 
L 112.011765 253.725668 
L 113.088414 254.263993 
L 113.626738 254.802317 
L 113.626738 255.878966 
L 114.165062 256.955615 
L 114.703387 258.032264 
L 114.703387 258.570588 
L 114.703387 259.108913 
" style="fill:none;stroke:#8c8c8c;stroke-linecap:square;"/>
   </g>
   <g id="line2d_93">
    <path clip-path="url(#pa63df68d81)" d="M 148.079501 250.495722 
L 148.079501 249.957398 
L 147.541176 249.957398 
L 147.002852 249.957398 
L 146.464528 250.495722 
L 145.926203 251.034046 
L 145.926203 251.572371 
L 145.387879 252.64902 
L 145.926203 253.187344 
L 146.464528 254.263993 
L 147.541176 254.802317 
L 148.617825 255.340642 
L 149.694474 255.340642 
L 151.309447 254.802317 
L 152.386096 254.263993 
L 152.924421 253.187344 
L 152.924421 252.64902 
L 152.924421 252.110695 
L 152.386096 250.495722 
L 151.309447 249.419073 
L 150.771123 248.880749 
L 149.694474 248.880749 
L 148.617825 248.342424 
L 147.541176 248.342424 
L 147.002852 248.342424 
L 146.464528 248.342424 
L 146.464528 248.880749 
L 145.926203 248.880749 
L 146.464528 248.880749 
" style="fill:none;stroke:#8c8c8c;stroke-linecap:square;"/>
   </g>
   <g id="line2d_94">
    <path clip-path="url(#pa63df68d81)" d="M 160.460963 245.650802 
L 160.999287 245.650802 
L 160.999287 245.112478 
L 160.460963 245.112478 
L 159.922638 245.112478 
L 159.384314 245.112478 
L 158.845989 245.650802 
L 158.307665 246.189127 
L 157.76934 246.727451 
L 157.231016 248.342424 
L 157.231016 248.880749 
L 157.231016 249.957398 
L 157.76934 251.572371 
L 158.307665 252.110695 
L 159.384314 252.64902 
L 160.460963 252.64902 
L 160.999287 252.64902 
L 161.537611 252.64902 
" style="fill:none;stroke:#8c8c8c;stroke-linecap:square;"/>
   </g>
   <g id="line2d_95">
    <path clip-path="url(#pa63df68d81)" d="M 165.844207 248.880749 
L 165.305882 248.880749 
L 165.305882 249.419073 
L 165.844207 249.419073 
L 167.45918 248.342424 
L 167.997504 248.342424 
L 169.074153 247.265775 
L 169.612478 246.727451 
L 169.612478 246.189127 
L 170.150802 245.650802 
L 170.150802 245.112478 
L 169.612478 244.574153 
L 169.074153 244.574153 
L 168.535829 244.035829 
L 167.997504 244.035829 
L 167.45918 244.574153 
L 166.382531 244.574153 
L 165.844207 245.112478 
L 165.305882 245.650802 
L 165.305882 246.189127 
L 164.767558 247.8041 
L 164.229234 248.342424 
L 164.767558 249.419073 
L 164.767558 251.034046 
L 165.844207 252.110695 
L 166.920856 252.64902 
L 167.997504 252.64902 
L 168.535829 253.187344 
L 170.150802 252.64902 
L 171.765775 252.110695 
L 172.3041 252.110695 
" style="fill:none;stroke:#8c8c8c;stroke-linecap:square;"/>
   </g>
   <g id="line2d_96">
    <path clip-path="url(#pa63df68d81)" d="M 178.763993 246.189127 
L 178.763993 245.650802 
L 179.302317 245.650802 
L 179.302317 245.112478 
L 179.840642 245.112478 
L 179.840642 245.650802 
L 180.378966 245.650802 
L 180.378966 246.727451 
L 180.917291 247.265775 
L 180.917291 247.8041 
L 181.455615 247.8041 
L 181.455615 248.342424 
L 181.455615 247.8041 
L 181.455615 247.265775 
L 180.378966 246.727451 
L 179.840642 245.650802 
L 178.763993 245.112478 
L 177.687344 244.035829 
L 176.072371 243.497504 
L 174.995722 243.497504 
L 174.457398 243.497504 
L 173.919073 244.035829 
L 173.380749 244.574153 
L 172.842424 245.112478 
L 172.842424 246.189127 
L 173.380749 246.727451 
L 173.380749 247.8041 
L 174.457398 248.342424 
L 175.534046 249.419073 
L 176.610695 249.419073 
L 177.14902 249.419073 
L 178.225668 248.880749 
L 179.840642 247.8041 
" style="fill:none;stroke:#8c8c8c;stroke-linecap:square;"/>
   </g>
   <g id="line2d_97">
    <path clip-path="url(#pa63df68d81)" d="M 183.070588 244.035829 
L 183.608913 243.497504 
L 183.608913 244.035829 
L 184.147237 244.035829 
L 184.147237 244.574153 
L 184.685561 244.574153 
L 185.223886 245.650802 
L 185.223886 246.727451 
L 185.76221 247.265775 
L 185.76221 248.342424 
L 186.300535 248.880749 
L 186.300535 249.419073 
L 186.300535 249.957398 
L 186.300535 249.419073 
L 186.300535 248.880749 
L 186.300535 248.342424 
L 186.300535 247.8041 
L 186.300535 247.265775 
L 186.300535 246.189127 
L 186.838859 245.112478 
L 187.377184 244.574153 
L 187.377184 244.035829 
L 187.915508 243.497504 
L 188.453832 242.95918 
L 188.992157 242.95918 
L 189.530481 242.95918 
L 190.068806 243.497504 
L 190.068806 244.035829 
L 191.145455 244.574153 
L 191.683779 245.650802 
L 191.683779 246.189127 
L 192.222103 246.727451 
L 192.222103 247.265775 
" style="fill:none;stroke:#8c8c8c;stroke-linecap:square;"/>
   </g>
   <g id="line2d_98">
    <path clip-path="url(#pa63df68d81)" d="M 203.526916 241.344207 
L 202.988592 240.805882 
L 202.450267 240.805882 
L 202.450267 240.267558 
L 201.373619 240.267558 
L 200.835294 240.267558 
L 199.758645 240.267558 
L 199.220321 240.805882 
L 198.681996 240.805882 
L 197.605348 241.344207 
L 197.067023 241.882531 
L 196.528699 242.420856 
L 196.528699 242.95918 
L 197.067023 242.95918 
L 197.605348 242.95918 
L 198.143672 243.497504 
L 199.758645 243.497504 
L 201.911943 243.497504 
L 202.988592 244.035829 
L 204.065241 244.574153 
L 205.141889 245.112478 
L 206.218538 245.650802 
L 206.756863 247.265775 
L 207.295187 247.8041 
L 206.756863 248.880749 
L 206.218538 249.419073 
L 205.680214 249.957398 
L 205.141889 249.957398 
" style="fill:none;stroke:#8c8c8c;stroke-linecap:square;"/>
   </g>
  </g>
 </g>
 <defs>
  <clipPath id="pa63df68d81">
   <rect height="271.8" width="363.584314" x="7.2" y="7.2"/>
  </clipPath>
 </defs>
</svg>
