<?xml version="1.0" encoding="utf-8" standalone="no"?>
<!DOCTYPE svg PUBLIC "-//W3C//DTD SVG 1.1//EN"
  "http://www.w3.org/Graphics/SVG/1.1/DTD/svg11.dtd">
<!-- Created with matplotlib (https://matplotlib.org/) -->
<svg height="286.2pt" version="1.1" viewBox="0 0 456.316643 286.2" width="456.316643pt" xmlns="http://www.w3.org/2000/svg" xmlns:xlink="http://www.w3.org/1999/xlink">
 <metadata>
  <rdf:RDF xmlns:cc="http://creativecommons.org/ns#" xmlns:dc="http://purl.org/dc/elements/1.1/" xmlns:rdf="http://www.w3.org/1999/02/22-rdf-syntax-ns#">
   <cc:Work>
    <dc:type rdf:resource="http://purl.org/dc/dcmitype/StillImage"/>
    <dc:date>2024-11-15T16:04:13.888230</dc:date>
    <dc:format>image/svg+xml</dc:format>
    <dc:creator>
     <cc:Agent>
      <dc:title>Matplotlib v3.3.4, https://matplotlib.org/</dc:title>
     </cc:Agent>
    </dc:creator>
   </cc:Work>
  </rdf:RDF>
 </metadata>
 <defs>
  <style type="text/css">*{stroke-linecap:butt;stroke-linejoin:round;}</style>
 </defs>
 <g id="figure_1">
  <g id="patch_1">
   <path d="M 0 286.2 
L 456.316643 286.2 
L 456.316643 0 
L 0 0 
z
" style="fill:#ffffff;"/>
  </g>
  <g id="axes_1">
   <g id="line2d_1">
    <path clip-path="url(#p6b47c1f349)" d="M 27.28712 59.623342 
L 27.28712 59.271861 
L 31.504888 59.271861 
L 31.856369 58.92038 
L 33.613772 58.92038 
L 33.613772 58.5689 
L 41.346347 58.5689 
L 41.346347 58.92038 
L 44.509673 58.92038 
L 44.509673 59.271861 
L 45.564115 59.271861 
L 45.564115 59.623342 
L 46.970038 59.623342 
L 47.321518 59.974822 
L 49.430402 59.974822 
L 49.430402 60.326303 
L 50.836325 60.326303 
L 50.836325 60.677784 
L 52.242248 60.677784 
L 52.242248 61.029264 
L 53.64817 61.029264 
L 53.64817 61.380745 
L 54.702612 61.380745 
L 55.054093 61.732226 
L 55.757054 61.732226 
L 56.108535 62.083706 
L 56.811496 62.083706 
L 56.811496 62.435187 
L 57.514458 62.435187 
L 57.514458 62.786668 
L 58.217419 62.786668 
L 58.217419 63.138148 
L 58.92038 63.138148 
L 58.92038 63.489629 
L 59.623342 63.489629 
L 59.623342 63.84111 
L 59.974822 63.84111 
L 60.326303 64.19259 
L 60.677784 64.19259 
L 60.677784 64.544071 
L 61.380745 64.544071 
L 61.380745 64.895552 
L 62.083706 64.895552 
L 62.083706 65.247032 
L 62.786668 65.247032 
L 62.786668 65.598513 
L 63.138148 65.598513 
L 63.489629 65.949994 
L 63.84111 65.949994 
L 64.19259 66.301474 
L 64.544071 66.301474 
L 64.544071 66.652955 
L 64.895552 66.652955 
L 65.247032 67.004436 
L 65.949994 67.004436 
L 65.949994 67.355916 
L 66.652955 67.355916 
L 66.652955 67.707397 
L 67.355916 67.707397 
L 67.707397 68.058878 
L 68.058878 68.058878 
L 68.410358 68.410358 
L 68.761839 68.410358 
L 69.11332 68.761839 
L 69.4648 68.761839 
L 69.4648 69.11332 
L 69.816281 69.11332 
L 70.167762 69.4648 
L 70.519242 69.4648 
L 70.870723 69.816281 
L 71.222204 69.816281 
L 71.222204 70.167762 
L 71.573684 70.167762 
L 71.573684 70.519242 
L 71.925165 70.519242 
L 74.034049 72.628126 
L 74.38553 72.628126 
L 74.38553 72.979607 
L 74.73701 72.979607 
L 74.73701 73.331088 
L 75.088491 73.331088 
L 75.088491 73.682568 
L 75.439972 73.682568 
L 75.791452 74.38553 
L 76.494414 75.088491 
L 76.494414 75.439972 
L 76.845894 75.439972 
L 77.197375 76.142933 
L 77.548856 76.142933 
L 77.900336 76.494414 
L 77.900336 76.845894 
L 79.306259 78.251817 
L 79.306259 78.603298 
L 80.00922 79.306259 
L 80.712182 79.65774 
L 80.712182 80.00922 
L 82.118104 81.415143 
L 82.469585 82.118104 
L 83.172546 82.469585 
L 84.578469 83.875508 
L 84.578469 84.226988 
L 84.578469 84.226988 
" style="fill:none;stroke:#8c8c8c;stroke-linecap:square;"/>
   </g>
   <g id="line2d_2">
    <path clip-path="url(#p6b47c1f349)" d="M 53.999651 61.380745 
L 54.351132 61.380745 
L 54.702612 61.380745 
L 55.054093 61.380745 
L 55.405574 61.380745 
L 55.757054 61.380745 
L 55.757054 61.732226 
L 56.108535 61.732226 
L 56.460016 61.732226 
L 56.811496 61.732226 
L 57.162977 61.732226 
L 57.514458 61.380745 
L 57.865938 61.380745 
L 58.217419 61.380745 
L 58.5689 61.029264 
L 58.92038 61.029264 
L 59.271861 61.029264 
L 59.271861 60.677784 
L 59.623342 60.677784 
L 59.974822 60.677784 
L 60.326303 60.677784 
L 60.326303 60.326303 
L 60.677784 60.326303 
L 61.029264 60.326303 
L 61.029264 59.974822 
L 61.380745 59.974822 
L 61.732226 59.974822 
L 61.732226 59.623342 
L 62.083706 59.623342 
L 62.435187 59.623342 
L 62.786668 59.271861 
L 63.138148 59.271861 
L 63.138148 58.92038 
L 63.489629 58.92038 
L 63.84111 58.92038 
L 63.84111 58.5689 
L 64.19259 58.5689 
L 64.544071 58.217419 
L 64.895552 58.217419 
L 65.247032 57.865938 
L 65.598513 57.865938 
L 65.949994 57.514458 
L 66.301474 57.514458 
L 66.301474 57.162977 
L 66.652955 57.162977 
" style="fill:none;stroke:#8c8c8c;stroke-linecap:square;"/>
   </g>
   <g id="line2d_3">
    <path clip-path="url(#p6b47c1f349)" d="M 66.301474 56.460016 
L 66.652955 56.460016 
L 67.004436 56.460016 
L 67.355916 56.460016 
L 67.355916 56.811496 
L 67.707397 56.811496 
L 68.058878 56.811496 
L 68.410358 56.811496 
L 68.410358 57.162977 
L 68.761839 57.162977 
L 69.11332 57.162977 
L 69.11332 57.514458 
L 69.4648 57.514458 
L 69.4648 57.865938 
L 69.816281 57.865938 
L 69.816281 58.217419 
L 70.167762 58.217419 
L 70.167762 58.5689 
L 70.519242 58.5689 
L 70.519242 58.92038 
L 70.870723 58.92038 
L 70.870723 59.271861 
L 71.222204 59.271861 
L 71.222204 59.623342 
L 71.573684 59.623342 
L 71.925165 59.623342 
L 71.925165 59.974822 
" style="fill:none;stroke:#8c8c8c;stroke-linecap:square;"/>
   </g>
   <g id="line2d_4">
    <path clip-path="url(#p6b47c1f349)" d="M 71.925165 59.623342 
L 72.276646 59.623342 
L 72.276646 59.974822 
L 72.628126 59.974822 
L 72.979607 59.974822 
L 72.979607 60.326303 
L 73.331088 60.326303 
L 73.682568 60.326303 
L 74.034049 60.326303 
L 74.034049 60.677784 
L 74.38553 60.677784 
L 74.73701 60.677784 
L 75.088491 60.677784 
L 75.088491 61.029264 
L 75.439972 61.029264 
L 75.791452 61.029264 
L 75.791452 61.380745 
L 76.142933 61.380745 
L 76.494414 61.380745 
L 76.845894 61.380745 
L 77.197375 61.380745 
L 77.197375 61.732226 
L 77.548856 61.732226 
L 77.900336 61.732226 
L 78.251817 61.732226 
L 78.603298 61.732226 
L 78.954778 61.732226 
L 79.306259 61.732226 
L 79.65774 61.732226 
L 80.00922 61.732226 
L 80.360701 61.732226 
L 80.712182 61.732226 
L 81.063662 61.732226 
L 81.415143 61.732226 
L 81.766624 61.732226 
L 82.118104 61.732226 
L 82.469585 61.732226 
L 82.821066 61.732226 
L 83.172546 61.732226 
L 83.524027 61.732226 
L 83.875508 61.732226 
L 84.226988 61.732226 
L 84.578469 61.732226 
L 84.92995 61.732226 
L 84.92995 61.380745 
L 85.28143 61.380745 
L 85.632911 61.380745 
L 85.984392 61.380745 
L 86.335872 61.380745 
L 86.687353 61.380745 
L 87.038834 61.380745 
L 87.390314 61.380745 
L 87.741795 61.380745 
L 88.093276 61.380745 
L 88.444756 61.380745 
L 88.796237 61.380745 
L 89.147718 61.380745 
L 89.499198 61.380745 
L 89.850679 61.380745 
L 90.20216 61.380745 
L 90.55364 61.380745 
L 90.905121 61.380745 
L 91.256602 61.380745 
L 91.608082 61.380745 
L 91.959563 61.380745 
L 92.311044 61.380745 
L 92.662524 61.380745 
L 93.014005 61.380745 
L 93.365486 61.380745 
L 93.716966 61.380745 
L 94.068447 61.380745 
L 94.419928 61.380745 
L 94.771408 61.380745 
L 95.122889 61.380745 
L 95.47437 61.380745 
L 95.82585 61.380745 
L 96.177331 61.380745 
L 96.528812 61.380745 
L 96.880292 61.380745 
L 97.231773 61.380745 
L 97.583254 61.380745 
L 97.934734 61.380745 
L 98.286215 61.380745 
L 98.637696 61.380745 
L 98.989176 61.380745 
L 99.340657 61.380745 
L 99.692138 61.380745 
L 100.043618 61.380745 
L 100.395099 61.380745 
L 100.74658 61.380745 
L 100.74658 61.029264 
L 101.09806 61.029264 
L 101.449541 61.029264 
L 101.801022 61.029264 
L 102.152502 61.029264 
L 102.503983 61.029264 
L 102.855464 61.029264 
L 103.206944 61.029264 
L 103.558425 60.677784 
L 104.261386 60.677784 
L 104.964348 60.677784 
L 105.315828 60.677784 
" style="fill:none;stroke:#8c8c8c;stroke-linecap:square;"/>
   </g>
   <g id="line2d_5">
    <path clip-path="url(#p6b47c1f349)" d="M 29.747485 55.405574 
L 30.098965 55.405574 
L 30.450446 55.405574 
L 30.801927 55.405574 
L 31.153407 55.405574 
L 31.153407 55.054093 
L 31.504888 55.054093 
L 31.856369 55.054093 
L 32.207849 55.054093 
L 32.55933 55.054093 
L 32.910811 55.054093 
" style="fill:none;stroke:#8c8c8c;stroke-linecap:square;"/>
   </g>
   <g id="line2d_6">
    <path clip-path="url(#p6b47c1f349)" d="M 34.316733 55.054093 
L 34.668214 55.054093 
L 35.019695 55.054093 
L 35.371175 55.054093 
" style="fill:none;stroke:#8c8c8c;stroke-linecap:square;"/>
   </g>
   <g id="line2d_7">
    <path clip-path="url(#p6b47c1f349)" d="M 36.777098 55.054093 
L 37.128579 55.054093 
L 37.480059 55.054093 
L 37.83154 55.054093 
L 37.83154 55.405574 
L 38.183021 55.405574 
" style="fill:none;stroke:#8c8c8c;stroke-linecap:square;"/>
   </g>
   <g id="line2d_8">
    <path clip-path="url(#p6b47c1f349)" d="M 40.291905 55.054093 
L 40.643385 55.054093 
L 40.994866 55.054093 
" style="fill:none;stroke:#8c8c8c;stroke-linecap:square;"/>
   </g>
   <g id="line2d_9">
    <path clip-path="url(#p6b47c1f349)" d="M 42.752269 55.405574 
L 43.10375 55.405574 
L 43.455231 55.757054 
" style="fill:none;stroke:#8c8c8c;stroke-linecap:square;"/>
   </g>
   <g id="line2d_10">
    <path clip-path="url(#p6b47c1f349)" d="M 45.564115 55.757054 
L 45.915595 55.757054 
L 46.267076 55.757054 
L 46.618557 55.757054 
L 46.970038 55.757054 
L 47.321518 55.757054 
L 47.321518 56.108535 
L 47.672999 56.108535 
L 47.672999 55.757054 
" style="fill:none;stroke:#8c8c8c;stroke-linecap:square;"/>
   </g>
   <g id="line2d_11">
    <path clip-path="url(#p6b47c1f349)" d="M 48.37596 55.757054 
L 48.727441 55.757054 
L 49.078922 55.757054 
L 49.430402 55.757054 
" style="fill:none;stroke:#8c8c8c;stroke-linecap:square;"/>
   </g>
   <g id="line2d_12">
    <path clip-path="url(#p6b47c1f349)" d="M 51.890767 55.405574 
L 52.242248 55.405574 
L 52.593728 55.405574 
L 52.945209 55.054093 
" style="fill:none;stroke:#8c8c8c;stroke-linecap:square;"/>
   </g>
   <g id="line2d_13">
    <path clip-path="url(#p6b47c1f349)" d="M 55.054093 54.702612 
L 55.405574 54.702612 
L 55.405574 55.054093 
" style="fill:none;stroke:#8c8c8c;stroke-linecap:square;"/>
   </g>
   <g id="line2d_14">
    <path clip-path="url(#p6b47c1f349)" d="M 56.460016 55.405574 
L 56.811496 55.757054 
L 57.162977 55.757054 
" style="fill:none;stroke:#8c8c8c;stroke-linecap:square;"/>
   </g>
   <g id="line2d_15">
    <path clip-path="url(#p6b47c1f349)" d="M 58.92038 55.757054 
L 59.271861 55.757054 
L 59.623342 55.405574 
" style="fill:none;stroke:#8c8c8c;stroke-linecap:square;"/>
   </g>
   <g id="line2d_16">
    <path clip-path="url(#p6b47c1f349)" d="M 61.732226 55.054093 
L 62.083706 55.054093 
L 62.435187 55.054093 
L 62.435187 55.405574 
L 62.786668 55.405574 
L 63.138148 55.405574 
" style="fill:none;stroke:#8c8c8c;stroke-linecap:square;"/>
   </g>
   <g id="line2d_17">
    <path clip-path="url(#p6b47c1f349)" d="M 65.247032 55.405574 
L 65.598513 55.405574 
L 65.949994 55.405574 
" style="fill:none;stroke:#8c8c8c;stroke-linecap:square;"/>
   </g>
   <g id="line2d_18">
    <path clip-path="url(#p6b47c1f349)" d="M 69.4648 55.054093 
L 69.816281 55.054093 
L 70.167762 55.054093 
" style="fill:none;stroke:#8c8c8c;stroke-linecap:square;"/>
   </g>
   <g id="line2d_19">
    <path clip-path="url(#p6b47c1f349)" d="M 72.276646 55.405574 
L 72.628126 55.405574 
" style="fill:none;stroke:#8c8c8c;stroke-linecap:square;"/>
   </g>
   <g id="line2d_20">
    <path clip-path="url(#p6b47c1f349)" d="M 82.469585 53.999651 
L 82.821066 53.999651 
L 83.172546 53.999651 
" style="fill:none;stroke:#8c8c8c;stroke-linecap:square;"/>
   </g>
   <g id="line2d_21">
    <path clip-path="url(#p6b47c1f349)" d="M 75.088491 53.999651 
L 75.439972 53.999651 
L 75.791452 53.999651 
L 76.142933 53.999651 
L 76.494414 53.999651 
L 76.494414 54.351132 
L 76.845894 54.351132 
L 77.197375 54.351132 
" style="fill:none;stroke:#8c8c8c;stroke-linecap:square;"/>
   </g>
   <g id="line2d_22">
    <path clip-path="url(#p6b47c1f349)" d="M 78.251817 54.351132 
L 78.603298 54.351132 
L 78.954778 54.351132 
L 79.306259 54.351132 
L 79.65774 54.351132 
L 80.00922 54.351132 
L 80.360701 54.351132 
L 80.360701 53.999651 
L 80.712182 53.999651 
L 81.063662 53.999651 
" style="fill:none;stroke:#8c8c8c;stroke-linecap:square;"/>
   </g>
   <g id="line2d_23">
    <path clip-path="url(#p6b47c1f349)" d="M 81.766624 53.999651 
L 82.118104 53.999651 
L 82.469585 53.999651 
L 82.821066 53.999651 
" style="fill:none;stroke:#8c8c8c;stroke-linecap:square;"/>
   </g>
   <g id="line2d_24">
    <path clip-path="url(#p6b47c1f349)" d="M 85.984392 54.702612 
L 86.335872 54.702612 
L 86.687353 54.702612 
" style="fill:none;stroke:#8c8c8c;stroke-linecap:square;"/>
   </g>
   <g id="line2d_25">
    <path clip-path="url(#p6b47c1f349)" d="M 87.741795 54.702612 
L 88.093276 54.702612 
L 88.444756 54.702612 
L 88.796237 54.702612 
L 89.147718 54.702612 
" style="fill:none;stroke:#8c8c8c;stroke-linecap:square;"/>
   </g>
   <g id="line2d_26">
    <path clip-path="url(#p6b47c1f349)" d="M 90.905121 54.351132 
L 91.256602 54.351132 
L 91.608082 54.351132 
L 91.608082 54.702612 
L 91.959563 54.702612 
L 92.311044 54.702612 
" style="fill:none;stroke:#8c8c8c;stroke-linecap:square;"/>
   </g>
   <g id="line2d_27">
    <path clip-path="url(#p6b47c1f349)" d="M 93.365486 54.702612 
L 93.716966 54.702612 
L 94.068447 54.702612 
L 94.419928 54.702612 
" style="fill:none;stroke:#8c8c8c;stroke-linecap:square;"/>
   </g>
   <g id="line2d_28">
    <path clip-path="url(#p6b47c1f349)" d="M 95.47437 54.351132 
L 95.82585 54.351132 
L 96.177331 54.351132 
L 96.528812 54.351132 
" style="fill:none;stroke:#8c8c8c;stroke-linecap:square;"/>
   </g>
   <g id="line2d_29">
    <path clip-path="url(#p6b47c1f349)" d="M 99.692138 53.999651 
L 100.043618 53.999651 
L 100.395099 53.999651 
" style="fill:none;stroke:#8c8c8c;stroke-linecap:square;"/>
   </g>
   <g id="line2d_30">
    <path clip-path="url(#p6b47c1f349)" d="M 102.855464 53.999651 
L 103.206944 53.999651 
L 103.558425 53.999651 
" style="fill:none;stroke:#8c8c8c;stroke-linecap:square;"/>
   </g>
   <g id="line2d_31">
    <path clip-path="url(#p6b47c1f349)" d="M 236.769598 19.554545 
L 236.418117 19.554545 
L 236.418117 20.257507 
L 236.769598 20.257507 
L 236.769598 20.960468 
L 237.121078 20.960468 
L 237.121078 22.01491 
L 237.472559 22.366391 
L 237.472559 22.717871 
L 237.82404 23.420833 
L 237.82404 24.475275 
L 238.17552 24.826755 
L 238.17552 25.178236 
L 238.527001 25.529717 
L 238.527001 26.232678 
L 238.878482 26.232678 
L 238.878482 27.28712 
L 239.229962 27.28712 
L 239.229962 27.990081 
L 239.581443 28.693043 
L 239.581443 29.044523 
L 239.932924 29.396004 
L 239.932924 29.747485 
L 240.284405 30.098965 
L 240.284405 30.450446 
L 240.635885 30.801927 
L 240.987366 31.504888 
L 240.987366 31.856369 
L 241.690327 32.55933 
L 241.690327 32.910811 
L 242.041808 33.262291 
L 242.041808 33.613772 
L 242.393289 33.613772 
L 242.393289 34.316733 
L 242.744769 34.316733 
L 242.744769 34.668214 
L 243.09625 35.019695 
L 243.09625 36.074137 
L 243.447731 36.425617 
L 243.447731 37.480059 
L 243.799211 37.480059 
L 243.799211 38.534501 
L 244.150692 38.885982 
L 244.150692 39.940424 
L 244.502173 40.291905 
L 244.502173 41.697827 
L 244.853653 42.049308 
L 244.853653 43.455231 
L 245.205134 44.158192 
L 245.205134 45.212634 
L 245.556615 45.915595 
L 245.556615 47.321518 
L 245.908095 48.02448 
L 245.908095 49.078922 
L 246.259576 50.133364 
L 246.259576 51.187806 
L 246.611057 51.890767 
L 246.611057 53.999651 
L 246.962537 54.702612 
L 246.962537 55.757054 
L 247.314018 56.460016 
L 247.314018 56.811496 
L 247.665499 57.865938 
L 248.016979 58.217419 
L 248.016979 58.92038 
L 248.36846 59.623342 
L 248.36846 59.974822 
L 248.719941 60.677784 
L 248.719941 61.029264 
L 249.071421 61.380745 
L 249.071421 63.138148 
L 249.422902 63.138148 
L 249.422902 66.301474 
L 249.071421 67.004436 
L 249.071421 67.707397 
L 248.719941 68.058878 
L 248.719941 69.11332 
L 248.36846 69.4648 
L 248.36846 70.519242 
L 248.719941 70.870723 
L 248.719941 71.573684 
L 249.071421 71.573684 
L 249.071421 72.276646 
L 249.774383 72.979607 
L 249.774383 73.331088 
L 250.125863 73.682568 
L 250.125863 74.034049 
L 250.828825 74.73701 
L 250.828825 75.088491 
L 251.180305 75.088491 
L 251.180305 75.439972 
L 251.531786 75.439972 
L 251.531786 75.791452 
L 252.234747 76.494414 
L 252.234747 76.845894 
L 252.586228 76.845894 
L 252.586228 77.197375 
L 252.937709 77.197375 
L 253.992151 78.251817 
L 254.343631 78.954778 
L 254.695112 79.306259 
L 255.046593 80.00922 
L 255.749554 80.712182 
L 255.749554 81.063662 
L 256.452515 81.766624 
L 256.452515 82.118104 
L 257.155477 82.821066 
L 257.155477 83.524027 
L 257.858438 84.226988 
L 257.858438 84.578469 
L 258.209919 84.92995 
L 258.561399 85.984392 
L 258.561399 86.335872 
L 258.91288 86.687353 
L 259.615841 88.093276 
L 259.615841 88.444756 
L 260.318803 89.147718 
L 260.318803 89.499198 
L 261.021764 90.20216 
L 261.373245 90.905121 
L 261.373245 91.256602 
L 262.427687 92.311044 
L 262.779167 93.014005 
L 263.482129 93.716966 
L 263.482129 94.068447 
L 264.18509 94.771408 
L 264.536571 95.47437 
L 265.239532 96.177331 
L 265.239532 96.528812 
L 265.942493 96.880292 
L 266.293974 97.231773 
L 266.645455 97.231773 
L 266.996935 97.583254 
L 268.051377 97.583254 
L 268.051377 97.934734 
L 269.4573 97.934734 
L 269.808781 98.286215 
L 271.214703 98.286215 
L 271.214703 98.637696 
L 272.269145 98.637696 
L 272.269145 98.989176 
L 272.620626 98.989176 
L 274.72951 100.043618 
L 275.080991 100.043618 
L 275.783952 100.395099 
L 276.838394 100.74658 
L 278.244317 101.449541 
L 280.00172 101.449541 
L 280.353201 101.801022 
L 281.407643 101.801022 
L 281.759123 101.449541 
L 282.813565 101.449541 
L 282.813565 101.09806 
L 283.165046 101.09806 
L 283.516527 100.74658 
L 283.868007 100.74658 
L 283.868007 100.395099 
L 284.219488 100.043618 
L 284.570969 99.340657 
L 284.922449 98.989176 
L 285.27393 98.286215 
L 285.625411 97.934734 
L 285.625411 97.583254 
L 287.031333 96.177331 
L 287.382814 96.177331 
L 287.382814 95.82585 
L 288.437256 95.82585 
L 288.788737 96.177331 
L 289.140217 96.177331 
L 289.491698 96.528812 
L 289.843179 96.528812 
L 289.843179 96.880292 
L 290.54614 96.880292 
L 290.54614 97.231773 
L 291.249101 97.583254 
L 293.709466 100.043618 
L 294.060947 100.74658 
L 294.412427 101.09806 
L 295.115389 102.503983 
L 296.169831 103.558425 
L 296.521311 104.261386 
L 296.872792 104.261386 
L 297.927234 105.315828 
L 299.333157 106.01879 
L 299.684637 106.37027 
L 301.09056 107.073232 
L 301.793521 107.776193 
L 302.145002 107.776193 
L 302.496483 108.127674 
L 302.847963 108.830635 
L 303.199444 109.182116 
L 303.550925 109.182116 
L 305.308328 110.939519 
L 305.308328 111.291 
L 305.659809 111.64248 
L 306.36277 111.993961 
L 306.36277 112.345442 
L 307.768693 113.751364 
L 308.120173 113.751364 
L 308.120173 114.102845 
L 308.823135 114.102845 
L 308.823135 114.454326 
L 309.174615 114.454326 
L 309.526096 114.805806 
L 310.229057 114.805806 
L 310.229057 115.157287 
L 312.689422 115.157287 
L 313.392383 114.805806 
L 317.258671 114.805806 
L 317.961632 114.454326 
L 319.016074 114.454326 
L 319.719035 114.102845 
L 320.773477 114.102845 
L 321.476439 113.751364 
L 322.1794 113.751364 
L 323.233842 113.399884 
L 324.639765 113.399884 
L 324.991245 113.048403 
L 326.045687 113.048403 
L 326.397168 112.696922 
L 326.748649 112.696922 
L 327.100129 112.345442 
L 327.45161 112.345442 
L 329.209013 110.588038 
L 329.209013 110.236558 
L 329.911975 109.533596 
L 330.614936 109.182116 
L 330.966417 108.830635 
L 331.669378 108.479154 
L 332.372339 107.776193 
L 333.075301 107.424712 
L 333.426781 107.073232 
L 334.832704 106.37027 
L 335.184185 106.37027 
L 336.238627 106.01879 
L 336.590107 105.667309 
L 337.293069 105.667309 
L 339.401953 104.612867 
L 339.753433 104.261386 
L 340.456395 104.261386 
L 341.159356 103.558425 
L 341.510837 103.558425 
L 341.862317 103.206944 
L 342.213798 103.206944 
L 342.213798 102.503983 
L 342.565279 102.503983 
L 342.565279 101.09806 
L 342.916759 100.74658 
L 342.916759 100.395099 
L 343.26824 100.043618 
L 343.26824 99.692138 
L 343.619721 98.989176 
L 345.377124 97.231773 
L 346.080085 96.880292 
L 346.783047 96.177331 
L 347.837489 95.82585 
L 348.188969 95.47437 
L 349.594892 94.771408 
L 350.297853 94.771408 
L 350.649334 94.419928 
L 352.758218 94.419928 
L 352.758218 94.771408 
L 353.109699 94.771408 
L 353.461179 94.419928 
L 354.515621 94.419928 
L 355.218583 93.716966 
L 355.570063 93.716966 
L 356.273025 93.365486 
L 357.327467 92.311044 
L 357.678947 91.608082 
L 358.381909 91.256602 
L 358.381909 90.905121 
L 359.08487 90.20216 
L 359.436351 89.499198 
L 360.139312 89.147718 
L 360.842273 88.444756 
L 360.842273 88.093276 
L 362.951157 85.984392 
L 362.951157 85.632911 
L 363.302638 85.632911 
L 364.005599 84.92995 
L 364.35708 84.226988 
L 366.465964 82.118104 
L 366.465964 81.766624 
L 367.871887 80.360701 
L 368.223367 79.65774 
L 368.574848 79.306259 
L 368.574848 78.954778 
L 368.926329 78.251817 
L 368.926329 77.548856 
L 369.277809 77.548856 
L 369.277809 75.439972 
L 369.62929 75.088491 
L 369.62929 74.38553 
L 369.980771 73.682568 
L 370.683732 73.331088 
L 370.683732 72.979607 
L 372.441135 71.222204 
L 373.144097 70.870723 
L 373.495577 70.519242 
L 374.198539 70.167762 
L 374.550019 69.816281 
L 374.9015 69.816281 
L 376.307423 69.11332 
L 376.658903 68.761839 
L 377.361865 68.761839 
L 377.361865 68.410358 
L 378.064826 68.058878 
L 378.416307 67.707397 
L 378.767787 67.707397 
L 379.119268 67.355916 
L 379.119268 67.004436 
L 379.470749 67.004436 
L 379.470749 66.301474 
L 379.822229 66.301474 
L 379.822229 64.544071 
L 380.17371 64.544071 
L 380.17371 63.489629 
L 380.525191 63.489629 
L 380.525191 63.138148 
L 380.876671 62.786668 
L 380.876671 62.083706 
L 381.228152 62.083706 
L 381.228152 61.732226 
L 382.634075 60.326303 
L 383.337036 59.974822 
L 383.688517 59.623342 
L 384.391478 59.271861 
L 385.094439 58.5689 
L 385.797401 58.5689 
L 385.797401 58.217419 
L 386.148881 58.217419 
L 386.148881 57.865938 
L 386.851843 57.865938 
L 387.203323 57.514458 
L 387.554804 57.514458 
L 387.906285 57.162977 
L 388.257765 57.162977 
L 388.960727 56.811496 
L 389.663688 56.108535 
L 390.015169 56.108535 
L 390.71813 55.405574 
L 391.069611 55.405574 
L 391.421091 55.054093 
L 391.772572 55.054093 
L 391.772572 54.702612 
L 392.475533 54.702612 
L 392.475533 54.351132 
L 392.827014 54.351132 
L 393.178495 53.999651 
L 393.881456 53.999651 
L 394.232937 53.64817 
L 395.287379 53.64817 
L 395.287379 53.29669 
L 398.802185 53.29669 
L 399.153666 52.945209 
L 400.911069 52.945209 
L 401.26255 52.593728 
L 404.074395 52.593728 
L 404.425876 52.242248 
L 406.53476 52.242248 
L 406.53476 51.890767 
L 409.346605 51.890767 
L 409.698086 51.539286 
L 414.267335 51.539286 
L 414.970296 51.187806 
L 417.07918 51.187806 
L 418.133622 50.836325 
L 419.539545 50.836325 
L 420.242506 50.484844 
L 421.999909 50.484844 
L 422.35139 50.133364 
L 423.757313 50.133364 
L 424.108793 49.781883 
L 424.811755 49.781883 
L 425.514716 49.430402 
L 426.569158 49.430402 
L 426.920639 49.078922 
L 427.272119 49.078922 
L 427.6236 48.727441 
L 428.326561 48.727441 
L 428.326561 48.37596 
L 428.678042 48.37596 
L 428.678042 48.02448 
L 429.029523 48.02448 
L 429.029523 48.02448 
" style="fill:none;stroke:#8c8c8c;stroke-linecap:square;"/>
   </g>
   <g id="line2d_32">
    <path clip-path="url(#p6b47c1f349)" d="M 259.615841 61.380745 
L 259.967322 61.380745 
L 260.318803 61.380745 
L 260.670283 61.380745 
L 261.021764 61.380745 
L 261.724725 61.029264 
L 262.076206 60.677784 
L 262.779167 60.326303 
L 264.18509 59.974822 
L 265.239532 59.271861 
L 267.699897 58.217419 
L 269.4573 57.162977 
L 271.566184 56.108535 
L 273.675068 54.702612 
L 277.189875 52.593728 
L 280.353201 50.484844 
L 282.110604 49.430402 
L 283.868007 48.37596 
L 285.625411 47.321518 
L 286.679853 46.970038 
L 287.382814 46.618557 
L 287.382814 46.267076 
L 287.382814 46.267076 
" style="fill:none;stroke:#8c8c8c;stroke-linecap:square;"/>
   </g>
   <g id="line2d_33">
    <path clip-path="url(#p6b47c1f349)" d="M 264.18509 73.331088 
L 264.18509 73.682568 
L 264.18509 74.38553 
L 263.833609 74.73701 
L 264.18509 74.73701 
L 264.18509 75.088491 
L 264.536571 75.088491 
L 264.888051 74.73701 
L 265.942493 74.38553 
L 267.699897 73.682568 
L 270.863223 71.925165 
L 274.026549 69.816281 
L 278.595797 67.004436 
L 282.813565 64.19259 
L 285.625411 62.786668 
L 288.085775 61.380745 
L 290.54614 60.326303 
L 293.006505 58.5689 
L 294.412427 57.865938 
L 295.466869 57.162977 
L 296.521311 56.811496 
L 296.521311 56.460016 
L 296.872792 56.460016 
L 296.521311 56.460016 
L 296.169831 56.811496 
L 295.466869 57.162977 
" style="fill:none;stroke:#8c8c8c;stroke-linecap:square;"/>
   </g>
   <g id="line2d_34">
    <path clip-path="url(#p6b47c1f349)" d="M 273.675068 76.845894 
L 273.323587 77.197375 
L 273.323587 78.603298 
L 273.323587 78.954778 
L 273.675068 79.306259 
L 274.72951 79.306259 
L 275.080991 78.954778 
L 276.838394 78.251817 
L 278.947278 77.548856 
L 281.759123 76.142933 
L 286.679853 73.331088 
L 289.843179 71.222204 
L 292.655024 69.11332 
L 296.872792 65.949994 
L 299.684637 64.19259 
L 302.847963 62.083706 
L 304.956847 60.677784 
L 306.36277 59.623342 
L 308.471654 58.217419 
L 309.174615 57.865938 
L 309.877577 57.514458 
L 310.229057 57.162977 
L 309.877577 57.514458 
L 309.526096 57.514458 
L 309.526096 57.865938 
" style="fill:none;stroke:#8c8c8c;stroke-linecap:square;"/>
   </g>
   <g id="line2d_35">
    <path clip-path="url(#p6b47c1f349)" d="M 289.140217 82.118104 
L 289.491698 82.469585 
L 290.54614 82.469585 
L 291.600582 82.469585 
L 292.655024 81.766624 
L 295.466869 80.360701 
L 297.927234 78.954778 
L 302.496483 76.142933 
L 305.659809 74.38553 
L 308.471654 72.276646 
L 312.337941 69.816281 
L 314.798306 68.410358 
L 317.258671 66.652955 
L 320.070516 64.895552 
L 321.827919 63.84111 
L 323.585323 62.786668 
L 323.936803 62.435187 
L 324.639765 62.435187 
L 324.639765 62.083706 
L 324.639765 62.435187 
L 324.288284 62.435187 
" style="fill:none;stroke:#8c8c8c;stroke-linecap:square;"/>
   </g>
   <g id="line2d_36">
    <path clip-path="url(#p6b47c1f349)" d="M 307.768693 93.014005 
L 308.120173 93.014005 
L 308.823135 93.365486 
L 309.174615 93.365486 
L 309.877577 93.014005 
L 310.932019 92.311044 
L 313.040903 90.20216 
L 316.90719 87.038834 
L 319.719035 84.578469 
L 322.530881 82.118104 
L 325.694207 80.00922 
L 330.263455 77.197375 
L 333.426781 75.439972 
L 337.644549 72.979607 
L 340.104914 71.573684 
L 342.213798 70.519242 
L 344.322682 69.11332 
L 345.377124 68.410358 
L 346.080085 68.058878 
L 346.431566 68.058878 
L 346.080085 68.058878 
L 345.728605 68.410358 
" style="fill:none;stroke:#8c8c8c;stroke-linecap:square;"/>
   </g>
   <g id="line2d_37">
    <path clip-path="url(#p6b47c1f349)" d="M 322.1794 88.796237 
L 321.476439 90.20216 
L 321.476439 91.608082 
L 321.476439 92.311044 
L 321.827919 93.014005 
L 322.1794 93.365486 
L 322.530881 93.716966 
L 323.233842 93.716966 
L 324.288284 93.365486 
L 325.342726 93.014005 
L 328.154571 91.608082 
L 331.669378 89.499198 
L 334.481223 87.741795 
L 337.293069 85.984392 
L 339.401953 83.875508 
L 342.565279 81.063662 
L 344.674163 79.306259 
L 346.783047 77.197375 
L 348.188969 75.791452 
L 349.243411 75.088491 
L 350.297853 74.034049 
L 350.649334 73.682568 
L 350.649334 73.331088 
" style="fill:none;stroke:#8c8c8c;stroke-linecap:square;"/>
   </g>
   <g id="line2d_38">
    <path clip-path="url(#p6b47c1f349)" d="M 342.213798 83.524027 
L 342.213798 83.875508 
L 342.565279 83.875508 
L 342.916759 83.875508 
L 343.971201 82.821066 
L 345.377124 81.766624 
L 347.134527 80.360701 
L 349.946373 78.251817 
L 353.81266 75.088491 
L 357.678947 72.276646 
L 360.139312 70.167762 
L 362.599677 68.058878 
L 364.708561 65.949994 
L 367.520406 63.138148 
L 368.574848 61.380745 
" style="fill:none;stroke:#8c8c8c;stroke-linecap:square;"/>
   </g>
   <g id="line2d_39">
    <path clip-path="url(#p6b47c1f349)" d="M 375.252981 54.351132 
L 375.252981 53.999651 
L 375.604461 53.999651 
L 375.604461 53.64817 
L 376.307423 53.64817 
L 377.361865 53.29669 
L 380.17371 51.890767 
L 382.634075 50.836325 
L 385.797401 49.781883 
L 389.663688 48.02448 
L 391.772572 46.970038 
L 394.232937 45.564115 
L 394.935898 45.212634 
L 395.638859 44.509673 
L 395.99034 44.158192 
L 396.341821 43.806711 
L 395.99034 43.455231 
L 395.638859 43.455231 
L 394.935898 43.455231 
L 394.232937 43.455231 
" style="fill:none;stroke:#8c8c8c;stroke-linecap:square;"/>
   </g>
   <g id="line2d_40">
    <path clip-path="url(#p6b47c1f349)" d="M 355.218583 60.326303 
L 354.867102 60.677784 
L 352.758218 62.083706 
L 352.055257 62.435187 
L 351.703776 62.786668 
L 352.055257 62.786668 
L 352.406737 62.786668 
L 352.758218 62.435187 
L 354.164141 62.083706 
L 355.218583 61.380745 
L 356.975986 60.326303 
L 360.139312 58.92038 
L 362.248196 57.514458 
L 365.411522 55.405574 
L 367.168925 54.351132 
L 368.223367 53.64817 
L 368.926329 52.945209 
L 369.277809 52.593728 
L 368.926329 52.242248 
L 368.574848 52.242248 
" style="fill:none;stroke:#8c8c8c;stroke-linecap:square;"/>
   </g>
   <g id="line2d_41">
    <path clip-path="url(#p6b47c1f349)" d="M 322.530881 69.4648 
L 322.882361 69.4648 
L 323.585323 69.11332 
L 324.991245 68.058878 
L 326.397168 67.004436 
L 328.154571 65.949994 
L 332.372339 63.489629 
L 335.184185 62.083706 
L 339.050472 59.974822 
L 341.510837 58.5689 
L 343.619721 57.514458 
L 345.728605 56.108535 
L 346.431566 55.405574 
L 347.134527 55.054093 
L 347.134527 54.702612 
" style="fill:none;stroke:#8c8c8c;stroke-linecap:square;"/>
   </g>
   <g id="line2d_42">
    <path clip-path="url(#p6b47c1f349)" d="M 320.070516 61.380745 
L 320.773477 61.380745 
L 321.124958 61.029264 
L 321.827919 60.677784 
L 323.233842 60.326303 
L 326.045687 58.92038 
L 328.154571 57.865938 
L 331.669378 55.757054 
L 333.778262 54.351132 
L 335.535665 53.29669 
L 336.941588 52.242248 
L 337.293069 51.890767 
L 337.293069 51.539286 
L 336.941588 51.187806 
" style="fill:none;stroke:#8c8c8c;stroke-linecap:square;"/>
   </g>
   <g id="line2d_43">
    <path clip-path="url(#p6b47c1f349)" d="M 310.229057 60.326303 
L 308.471654 61.029264 
L 307.768693 61.380745 
L 307.417212 61.732226 
L 307.768693 61.380745 
L 308.823135 61.029264 
L 309.877577 60.326303 
L 313.040903 58.92038 
L 315.852748 57.162977 
L 319.016074 55.405574 
L 323.585323 52.945209 
L 326.045687 51.539286 
L 327.803091 50.484844 
L 329.560494 49.430402 
L 329.911975 49.078922 
" style="fill:none;stroke:#8c8c8c;stroke-linecap:square;"/>
   </g>
   <g id="line2d_44">
    <path clip-path="url(#p6b47c1f349)" d="M 248.719941 33.965253 
L 248.719941 32.55933 
L 248.36846 32.207849 
L 248.36846 31.856369 
L 248.719941 31.856369 
L 248.719941 31.504888 
L 249.422902 31.153407 
L 249.774383 30.801927 
L 250.477344 30.450446 
L 250.828825 30.450446 
L 251.180305 30.098965 
L 251.531786 30.098965 
L 251.180305 30.098965 
L 250.828825 30.450446 
L 250.477344 30.450446 
L 249.774383 30.801927 
L 249.071421 31.504888 
L 246.962537 32.910811 
L 245.908095 33.965253 
L 246.259576 34.316733 
L 246.611057 34.316733 
L 246.962537 33.965253 
L 248.719941 33.613772 
L 251.180305 33.262291 
L 251.883267 32.910811 
L 254.343631 32.55933 
L 258.209919 31.504888 
L 259.264361 31.153407 
L 260.670283 31.153407 
L 260.318803 31.504888 
L 258.91288 32.207849 
L 255.749554 34.316733 
L 252.937709 37.128579 
L 251.883267 37.83154 
L 251.531786 38.534501 
L 251.180305 38.885982 
L 251.180305 39.237463 
L 251.531786 39.588943 
L 251.883267 39.588943 
L 253.992151 38.885982 
L 255.398073 38.534501 
L 256.803996 37.83154 
L 259.264361 37.128579 
L 262.076206 36.074137 
L 263.482129 36.074137 
L 263.482129 37.128579 
L 263.130648 37.480059 
L 262.779167 38.534501 
L 259.615841 42.752269 
L 258.561399 43.455231 
L 257.858438 44.861153 
L 257.155477 45.564115 
L 256.803996 46.267076 
L 256.803996 46.618557 
L 257.155477 46.970038 
L 258.561399 46.970038 
L 261.724725 46.267076 
L 264.536571 45.212634 
L 271.917665 43.10375 
L 273.323587 42.400789 
L 274.72951 42.049308 
L 275.783952 42.049308 
L 275.783952 42.400789 
L 275.432471 42.752269 
L 275.080991 43.455231 
L 272.972107 45.564115 
L 270.511742 47.672999 
L 267.348416 51.187806 
L 265.239532 52.945209 
L 263.482129 55.054093 
L 262.076206 56.460016 
L 260.670283 58.217419 
L 260.670283 59.271861 
L 261.021764 59.623342 
L 262.427687 59.623342 
L 264.536571 59.271861 
L 267.699897 58.217419 
L 270.511742 57.162977 
L 273.323587 55.757054 
L 278.947278 52.593728 
L 281.056162 51.539286 
L 285.27393 48.727441 
L 285.625411 48.727441 
L 284.219488 50.133364 
L 281.056162 53.999651 
L 279.650239 56.108535 
L 276.838394 59.271861 
L 273.675068 64.544071 
L 272.972107 66.652955 
L 272.972107 67.355916 
L 273.323587 68.410358 
L 274.026549 69.11332 
L 275.432471 69.11332 
L 276.838394 68.761839 
L 278.947278 68.058878 
L 285.976891 64.19259 
L 289.491698 62.083706 
L 291.600582 60.677784 
L 293.357985 59.271861 
L 295.466869 57.865938 
L 296.169831 57.162977 
L 296.872792 56.811496 
L 297.224273 56.460016 
L 296.872792 56.811496 
L 296.872792 57.162977 
L 295.115389 58.92038 
L 288.788737 66.652955 
L 287.734295 68.761839 
L 286.328372 72.628126 
L 286.679853 73.682568 
L 287.031333 74.38553 
L 287.734295 74.73701 
L 289.491698 74.73701 
L 290.897621 74.38553 
L 293.006505 73.331088 
L 294.763908 72.628126 
L 300.739079 69.11332 
L 302.496483 67.707397 
L 303.902405 67.004436 
L 304.956847 67.004436 
L 304.956847 67.355916 
L 304.605367 68.058878 
L 304.253886 69.11332 
L 302.496483 70.870723 
L 301.09056 72.628126 
L 298.278715 75.439972 
L 296.169831 77.900336 
L 292.303543 83.524027 
L 291.600582 85.28143 
L 291.249101 86.687353 
L 291.600582 87.390314 
L 292.303543 87.390314 
L 293.709466 87.038834 
L 295.115389 86.335872 
L 297.927234 84.578469 
L 308.120173 77.197375 
L 309.526096 76.142933 
L 311.63498 75.088491 
L 312.337941 74.38553 
L 313.040903 74.034049 
L 313.392383 73.682568 
L 312.689422 74.38553 
L 312.337941 75.088491 
L 311.283499 75.791452 
L 309.526096 77.900336 
L 306.36277 82.469585 
L 305.659809 84.226988 
L 304.956847 85.632911 
L 304.605367 86.687353 
L 304.605367 87.390314 
L 305.308328 88.093276 
L 307.768693 88.093276 
L 309.526096 87.741795 
L 321.827919 82.821066 
L 323.585323 82.469585 
L 323.936803 82.469585 
L 323.936803 82.821066 
L 323.585323 83.524027 
L 321.827919 85.984392 
L 320.421997 87.390314 
L 317.610151 89.850679 
L 315.501267 91.959563 
L 313.392383 94.419928 
L 312.337941 95.82585 
L 311.986461 97.583254 
L 312.337941 97.934734 
L 313.040903 98.286215 
L 317.258671 96.880292 
L 320.070516 95.47437 
L 325.342726 93.365486 
L 328.857533 91.608082 
L 332.020859 89.850679 
L 336.590107 87.741795 
L 339.050472 86.335872 
L 341.862317 85.28143 
L 343.619721 84.226988 
L 343.619721 84.578469 
L 343.26824 84.578469 
L 340.456395 86.335872 
L 338.698991 87.038834 
L 335.535665 88.796237 
L 331.317897 92.311044 
L 331.317897 92.662524 
L 332.72382 91.959563 
L 332.72382 91.608082 
L 332.72382 91.608082 
" style="fill:none;stroke:#8c8c8c;stroke-linecap:square;"/>
   </g>
   <g id="line2d_45">
    <path clip-path="url(#p6b47c1f349)" d="M 65.949994 52.242248 
L 65.949994 52.593728 
L 65.598513 52.945209 
L 65.598513 52.593728 
L 65.598513 52.242248 
L 65.598513 51.890767 
L 65.598513 51.539286 
L 65.598513 51.187806 
L 65.598513 50.836325 
L 65.598513 50.484844 
L 65.598513 50.133364 
L 65.598513 49.781883 
L 65.598513 49.430402 
L 65.598513 49.078922 
L 65.598513 48.727441 
L 65.598513 48.37596 
L 65.598513 48.02448 
L 65.598513 47.672999 
L 65.598513 47.321518 
L 65.598513 46.970038 
L 65.598513 46.618557 
L 65.598513 46.267076 
L 65.598513 45.915595 
L 65.247032 45.212634 
L 65.247032 44.509673 
L 65.247032 43.806711 
L 65.247032 43.455231 
L 65.247032 42.752269 
L 65.247032 42.049308 
L 65.247032 41.346347 
L 65.247032 40.643385 
L 65.247032 40.291905 
L 65.247032 39.940424 
L 65.247032 39.237463 
L 64.895552 38.534501 
L 64.895552 38.183021 
L 64.895552 37.83154 
L 64.895552 37.480059 
L 64.895552 37.128579 
L 64.895552 36.777098 
L 64.895552 36.425617 
L 64.895552 36.074137 
L 64.895552 35.722656 
L 64.544071 35.722656 
L 64.544071 35.371175 
" style="fill:none;stroke:#8c8c8c;stroke-linecap:square;"/>
   </g>
   <g id="line2d_46">
    <path clip-path="url(#p6b47c1f349)" d="M 62.083706 37.83154 
L 62.083706 37.480059 
L 62.435187 37.480059 
L 62.435187 37.128579 
L 62.786668 36.777098 
L 63.138148 36.425617 
L 63.138148 35.722656 
L 63.489629 35.371175 
L 63.84111 35.019695 
L 64.19259 34.668214 
L 64.544071 33.965253 
L 64.895552 33.613772 
L 64.895552 33.262291 
L 65.247032 33.262291 
L 65.247032 32.910811 
L 65.598513 32.910811 
L 65.598513 33.262291 
L 65.949994 33.262291 
L 65.949994 33.613772 
L 66.301474 33.613772 
" style="fill:none;stroke:#8c8c8c;stroke-linecap:square;"/>
   </g>
   <g id="line2d_47">
    <path clip-path="url(#p6b47c1f349)" d="M 32.207849 208.651144 
L 32.207849 209.002625 
L 32.207849 208.651144 
L 32.55933 208.651144 
L 32.910811 208.651144 
L 32.910811 208.299664 
L 33.262291 208.299664 
L 33.613772 207.948183 
L 33.965253 207.596702 
L 33.965253 207.245222 
L 34.316733 206.893741 
L 34.668214 206.54226 
L 35.019695 206.54226 
L 35.371175 205.839299 
L 35.371175 205.487818 
L 35.722656 205.136338 
L 36.074137 204.784857 
L 36.425617 204.433376 
L 36.777098 204.081896 
L 37.128579 203.730415 
L 37.480059 203.378934 
L 37.83154 203.027454 
L 37.83154 202.675973 
L 38.183021 202.324492 
L 38.885982 201.621531 
L 38.885982 201.27005 
L 39.237463 200.91857 
L 39.588943 200.567089 
L 39.940424 200.215608 
L 40.291905 199.864128 
L 40.643385 199.161166 
L 40.994866 198.809686 
L 41.346347 198.458205 
L 41.346347 198.106724 
L 42.049308 197.755244 
L 42.400789 197.403763 
L 42.752269 197.052282 
L 43.10375 196.349321 
L 43.455231 195.99784 
L 43.806711 195.64636 
L 44.158192 194.943398 
L 44.861153 194.591918 
L 45.212634 193.888956 
L 45.564115 193.537476 
L 46.267076 193.185995 
L 46.618557 192.483034 
L 47.321518 191.780072 
L 48.02448 191.077111 
L 48.37596 190.72563 
L 48.727441 190.022669 
L 49.430402 189.319708 
L 50.133364 188.968227 
L 50.836325 188.265266 
L 51.187806 187.562304 
L 51.539286 187.210824 
L 52.593728 186.156382 
L 52.945209 185.804901 
L 53.64817 185.10194 
L 54.351132 184.398978 
L 54.702612 184.047498 
L 55.405574 183.344536 
L 55.757054 182.993056 
L 56.108535 182.290094 
L 56.811496 181.938614 
L 57.162977 181.587133 
L 57.865938 180.884172 
L 58.217419 180.18121 
L 58.5689 179.82973 
L 59.271861 179.126768 
L 59.623342 178.775288 
L 59.974822 178.423807 
L 60.326303 177.720846 
L 60.677784 177.369365 
L 61.029264 176.666404 
L 61.380745 176.314923 
L 62.083706 175.611962 
L 62.435187 175.260481 
L 62.435187 174.909 
L 63.138148 174.206039 
L 63.489629 173.854558 
L 63.84111 173.503078 
L 64.19259 172.800116 
L 64.544071 172.448636 
L 64.895552 172.097155 
L 64.895552 171.745674 
L 65.247032 171.745674 
L 65.247032 171.394194 
" style="fill:none;stroke:#8c8c8c;stroke-linecap:square;"/>
   </g>
   <g id="line2d_48">
    <path clip-path="url(#p6b47c1f349)" d="M 67.004436 171.042713 
L 67.355916 171.394194 
L 67.707397 171.394194 
L 67.707397 171.745674 
L 68.058878 171.745674 
L 68.058878 172.097155 
L 68.410358 172.097155 
L 68.410358 172.448636 
L 68.761839 172.448636 
L 68.761839 172.800116 
L 69.11332 172.800116 
L 69.4648 173.151597 
L 69.816281 173.503078 
L 70.167762 173.854558 
L 70.519242 174.206039 
L 70.870723 174.909 
L 71.222204 175.260481 
L 71.573684 175.611962 
L 71.925165 175.963442 
L 72.276646 176.314923 
L 72.628126 176.666404 
L 72.979607 177.017884 
L 73.331088 177.369365 
L 73.682568 178.072326 
L 74.034049 178.423807 
L 74.38553 178.775288 
L 74.73701 179.126768 
L 75.088491 179.478249 
L 75.439972 180.18121 
L 75.791452 180.532691 
L 76.142933 180.884172 
L 76.142933 181.235652 
L 76.845894 181.587133 
L 76.845894 181.938614 
L 77.197375 182.290094 
L 77.548856 182.993056 
L 77.900336 183.344536 
L 78.251817 184.047498 
L 78.603298 184.398978 
L 78.954778 184.750459 
L 79.306259 185.10194 
L 79.65774 185.804901 
L 80.360701 186.507862 
L 80.712182 186.859343 
L 80.712182 187.210824 
L 81.415143 187.913785 
L 81.766624 188.265266 
L 82.118104 188.968227 
L 82.469585 189.319708 
L 82.821066 189.671188 
L 83.172546 190.022669 
L 83.524027 190.37415 
L 83.875508 191.077111 
L 84.226988 191.428592 
L 84.578469 192.131553 
L 84.578469 192.483034 
L 84.92995 192.834514 
L 85.28143 193.185995 
L 85.632911 193.537476 
L 85.984392 194.240437 
L 86.335872 194.591918 
L 86.687353 195.294879 
L 87.038834 195.64636 
L 87.038834 195.99784 
L 87.390314 196.349321 
L 87.741795 197.052282 
L 88.093276 197.403763 
L 88.444756 197.755244 
L 88.796237 198.458205 
L 89.147718 198.809686 
L 89.499198 199.512647 
L 89.850679 200.215608 
L 90.20216 200.91857 
L 90.55364 201.27005 
L 90.905121 201.973012 
L 91.256602 202.675973 
L 91.608082 203.027454 
L 91.959563 203.730415 
L 92.311044 204.081896 
L 92.662524 204.784857 
L 93.014005 205.136338 
L 93.365486 205.487818 
L 93.716966 206.19078 
L 94.068447 206.893741 
L 94.771408 207.596702 
L 95.122889 207.948183 
L 95.47437 208.299664 
L 95.82585 209.002625 
L 96.177331 209.354106 
L 96.880292 210.057067 
L 97.231773 210.408548 
L 97.583254 211.111509 
L 97.934734 211.46299 
L 98.637696 211.81447 
L 98.989176 212.165951 
L 98.989176 212.517432 
L 99.340657 212.517432 
L 99.340657 212.868912 
" style="fill:none;stroke:#8c8c8c;stroke-linecap:square;"/>
   </g>
   <g id="line2d_49">
    <path clip-path="url(#p6b47c1f349)" d="M 30.801927 193.185995 
L 31.153407 193.185995 
L 31.153407 193.537476 
L 31.504888 193.537476 
L 31.856369 193.537476 
L 32.207849 193.537476 
L 32.55933 193.537476 
L 32.55933 193.888956 
L 32.910811 193.888956 
L 33.262291 193.888956 
L 33.613772 193.888956 
L 33.965253 193.888956 
L 34.316733 193.888956 
L 34.668214 193.888956 
L 35.019695 193.888956 
L 35.371175 193.888956 
L 35.722656 193.888956 
L 36.074137 193.888956 
L 36.425617 193.888956 
L 36.777098 193.888956 
L 37.128579 193.888956 
L 37.128579 194.240437 
L 37.480059 194.240437 
L 37.83154 194.240437 
L 38.183021 194.240437 
L 38.183021 194.591918 
L 38.534501 194.591918 
L 38.885982 194.591918 
L 39.237463 194.591918 
L 39.588943 194.591918 
L 39.940424 194.591918 
L 40.291905 194.591918 
L 40.291905 194.943398 
L 40.643385 194.943398 
L 40.994866 194.943398 
" style="fill:none;stroke:#8c8c8c;stroke-linecap:square;"/>
   </g>
   <g id="line2d_50">
    <path clip-path="url(#p6b47c1f349)" d="M 43.455231 195.64636 
L 43.455231 195.99784 
L 43.806711 195.99784 
L 44.158192 195.99784 
" style="fill:none;stroke:#8c8c8c;stroke-linecap:square;"/>
   </g>
   <g id="line2d_51">
    <path clip-path="url(#p6b47c1f349)" d="M 46.267076 195.64636 
L 46.618557 195.64636 
L 46.970038 195.64636 
L 47.321518 195.64636 
L 47.672999 195.64636 
L 48.02448 195.64636 
" style="fill:none;stroke:#8c8c8c;stroke-linecap:square;"/>
   </g>
   <g id="line2d_52">
    <path clip-path="url(#p6b47c1f349)" d="M 49.781883 195.64636 
L 50.133364 195.64636 
L 50.484844 195.64636 
L 50.836325 195.64636 
L 51.187806 195.64636 
L 51.539286 195.64636 
L 51.539286 195.99784 
L 51.890767 195.99784 
L 52.242248 195.99784 
" style="fill:none;stroke:#8c8c8c;stroke-linecap:square;"/>
   </g>
   <g id="line2d_53">
    <path clip-path="url(#p6b47c1f349)" d="M 53.64817 195.64636 
L 53.999651 195.294879 
L 54.351132 195.294879 
L 54.702612 195.294879 
L 55.054093 195.294879 
L 55.405574 195.294879 
L 55.757054 195.294879 
" style="fill:none;stroke:#8c8c8c;stroke-linecap:square;"/>
   </g>
   <g id="line2d_54">
    <path clip-path="url(#p6b47c1f349)" d="M 58.92038 194.591918 
L 59.271861 194.591918 
L 59.623342 194.591918 
L 59.974822 194.591918 
L 59.974822 194.943398 
L 60.326303 194.943398 
L 60.677784 194.943398 
L 61.029264 194.943398 
" style="fill:none;stroke:#8c8c8c;stroke-linecap:square;"/>
   </g>
   <g id="line2d_55">
    <path clip-path="url(#p6b47c1f349)" d="M 62.786668 195.294879 
L 63.138148 195.294879 
L 63.489629 195.294879 
" style="fill:none;stroke:#8c8c8c;stroke-linecap:square;"/>
   </g>
   <g id="line2d_56">
    <path clip-path="url(#p6b47c1f349)" d="M 72.979607 194.943398 
L 73.331088 194.943398 
L 73.682568 194.943398 
L 73.682568 195.294879 
L 74.034049 195.294879 
" style="fill:none;stroke:#8c8c8c;stroke-linecap:square;"/>
   </g>
   <g id="line2d_57">
    <path clip-path="url(#p6b47c1f349)" d="M 76.494414 194.943398 
L 76.845894 194.943398 
" style="fill:none;stroke:#8c8c8c;stroke-linecap:square;"/>
   </g>
   <g id="line2d_58">
    <path clip-path="url(#p6b47c1f349)" d="M 68.761839 195.64636 
L 68.410358 195.64636 
L 68.410358 195.99784 
L 68.761839 195.99784 
L 69.11332 195.99784 
L 69.4648 195.99784 
L 69.816281 195.99784 
L 70.167762 195.99784 
L 70.519242 195.99784 
L 70.870723 195.99784 
L 71.573684 195.99784 
L 71.925165 195.99784 
L 72.628126 195.99784 
L 72.979607 195.99784 
L 73.331088 195.99784 
L 73.682568 195.99784 
L 74.034049 195.99784 
L 74.38553 195.99784 
L 74.73701 195.99784 
" style="fill:none;stroke:#8c8c8c;stroke-linecap:square;"/>
   </g>
   <g id="line2d_59">
    <path clip-path="url(#p6b47c1f349)" d="M 78.251817 195.294879 
L 78.603298 195.294879 
L 78.954778 195.294879 
L 79.306259 195.294879 
L 79.65774 195.294879 
L 80.00922 195.294879 
L 80.360701 195.294879 
L 80.712182 195.294879 
L 81.063662 195.294879 
L 81.415143 195.294879 
L 81.766624 195.294879 
L 82.118104 195.294879 
L 82.469585 195.294879 
L 82.821066 195.294879 
L 83.172546 195.294879 
L 83.524027 195.294879 
L 83.875508 195.294879 
L 83.875508 195.64636 
L 84.226988 195.64636 
L 84.578469 195.64636 
L 84.92995 195.64636 
L 85.28143 195.64636 
L 85.632911 195.64636 
L 85.984392 195.64636 
L 86.335872 195.64636 
L 86.687353 195.64636 
L 87.038834 195.64636 
L 87.038834 195.99784 
L 87.390314 195.99784 
L 87.741795 195.99784 
L 88.093276 195.99784 
L 88.444756 195.99784 
L 88.796237 195.99784 
L 89.147718 195.99784 
L 89.499198 195.99784 
L 89.850679 195.99784 
L 90.20216 195.99784 
L 90.55364 195.99784 
L 90.905121 195.99784 
L 91.256602 195.99784 
L 91.608082 195.99784 
L 91.959563 195.99784 
L 92.311044 195.99784 
L 92.662524 195.64636 
L 93.014005 195.64636 
L 93.365486 195.64636 
L 93.716966 195.64636 
L 94.068447 195.64636 
L 94.419928 195.64636 
L 94.771408 195.64636 
L 95.122889 195.64636 
L 95.47437 195.64636 
L 95.82585 195.64636 
L 96.177331 195.64636 
L 96.528812 195.64636 
L 96.880292 195.64636 
L 97.231773 195.64636 
L 97.583254 195.294879 
L 97.934734 195.294879 
L 98.286215 195.294879 
L 98.637696 195.294879 
L 98.989176 195.294879 
L 99.340657 195.294879 
L 99.692138 194.943398 
L 100.043618 194.943398 
L 100.395099 194.943398 
L 100.74658 194.943398 
L 101.09806 194.943398 
L 101.449541 194.943398 
L 101.801022 194.943398 
L 102.152502 194.943398 
L 102.503983 194.943398 
L 102.503983 194.591918 
L 102.855464 194.591918 
L 103.206944 194.591918 
L 103.558425 194.591918 
L 103.909906 194.591918 
L 104.261386 194.591918 
L 104.612867 194.591918 
L 104.964348 194.240437 
L 105.315828 194.240437 
L 105.667309 194.240437 
L 106.01879 194.240437 
L 106.37027 194.240437 
L 106.37027 194.591918 
L 106.721751 194.591918 
L 107.073232 194.591918 
L 107.424712 194.591918 
L 107.776193 194.591918 
L 108.127674 194.591918 
L 108.479154 194.591918 
L 108.830635 194.591918 
L 109.182116 194.591918 
L 109.533596 194.591918 
L 109.885077 194.591918 
" style="fill:none;stroke:#8c8c8c;stroke-linecap:square;"/>
   </g>
   <g id="line2d_60">
    <path clip-path="url(#p6b47c1f349)" d="M 38.183021 195.64636 
L 37.83154 195.64636 
L 37.480059 195.64636 
L 37.128579 195.64636 
L 36.777098 195.64636 
L 36.425617 195.64636 
L 36.074137 195.64636 
L 35.722656 195.64636 
L 35.371175 195.64636 
L 35.019695 195.64636 
L 34.668214 195.64636 
L 34.316733 195.64636 
L 33.965253 195.64636 
L 33.613772 195.64636 
L 33.613772 195.99784 
L 33.262291 195.99784 
L 32.910811 195.99784 
L 32.55933 195.99784 
L 32.55933 196.349321 
L 32.207849 196.349321 
L 31.856369 196.349321 
L 31.504888 196.349321 
L 31.504888 196.700802 
L 31.153407 196.700802 
L 31.153407 197.052282 
L 31.153407 197.403763 
L 31.153407 197.755244 
L 31.504888 197.755244 
L 31.504888 198.106724 
L 31.504888 198.458205 
L 31.504888 198.809686 
L 31.504888 199.161166 
L 31.856369 199.512647 
L 31.856369 199.864128 
L 31.856369 200.215608 
L 31.856369 200.567089 
L 32.207849 200.91857 
L 32.207849 201.27005 
L 32.207849 201.621531 
L 32.207849 201.973012 
L 32.55933 202.324492 
L 32.55933 202.675973 
L 32.55933 203.378934 
L 32.910811 203.730415 
L 32.910811 204.081896 
L 33.262291 204.784857 
L 33.262291 205.136338 
L 33.262291 205.487818 
L 33.262291 205.839299 
L 33.262291 206.19078 
L 33.613772 206.19078 
L 33.613772 206.54226 
L 33.262291 206.54226 
L 33.262291 206.893741 
L 33.262291 207.245222 
L 32.910811 207.245222 
" style="fill:none;stroke:#8c8c8c;stroke-linecap:square;"/>
   </g>
   <g id="line2d_61">
    <path clip-path="url(#p6b47c1f349)" d="M 92.311044 195.294879 
L 92.662524 195.294879 
L 92.662524 195.64636 
L 93.014005 195.64636 
L 93.365486 195.64636 
L 93.716966 195.64636 
L 94.068447 195.64636 
L 94.419928 195.64636 
L 94.771408 195.64636 
L 95.122889 195.64636 
L 95.47437 195.64636 
L 95.82585 195.64636 
L 95.82585 195.99784 
L 96.177331 195.99784 
L 96.528812 195.99784 
L 96.880292 195.99784 
L 97.231773 195.99784 
L 97.583254 195.99784 
L 97.934734 195.99784 
L 98.286215 195.99784 
L 98.637696 195.99784 
L 98.989176 195.99784 
L 99.340657 195.99784 
L 99.340657 196.349321 
L 99.692138 196.349321 
L 99.340657 196.349321 
L 99.340657 196.700802 
L 99.340657 197.052282 
L 98.989176 197.052282 
L 98.989176 197.403763 
L 98.989176 197.755244 
L 98.637696 198.106724 
L 98.637696 198.458205 
L 98.637696 198.809686 
L 98.286215 199.512647 
L 97.934734 200.215608 
L 97.934734 200.567089 
L 97.934734 201.27005 
L 97.583254 201.621531 
L 97.583254 202.324492 
L 97.583254 202.675973 
L 97.583254 203.378934 
L 97.583254 203.730415 
L 97.583254 204.081896 
L 97.583254 204.784857 
L 97.583254 205.487818 
L 97.583254 205.839299 
L 97.583254 206.19078 
L 97.583254 206.893741 
L 97.583254 207.245222 
L 97.583254 207.948183 
L 97.583254 208.299664 
L 97.583254 209.002625 
L 97.934734 209.354106 
L 97.934734 209.705586 
L 97.934734 210.057067 
L 97.583254 210.408548 
" style="fill:none;stroke:#8c8c8c;stroke-linecap:square;"/>
   </g>
   <g id="line2d_62">
    <path clip-path="url(#p6b47c1f349)" d="M 67.707397 163.310138 
L 67.707397 162.958658 
L 67.707397 161.904216 
L 67.707397 161.552735 
L 67.707397 160.849774 
L 67.707397 159.795332 
L 67.707397 158.74089 
L 67.707397 157.686448 
L 67.355916 156.280525 
L 67.355916 154.874602 
L 67.355916 153.82016 
L 67.004436 152.414238 
L 67.004436 151.711276 
L 66.652955 151.008315 
L 66.652955 150.305354 
L 66.652955 149.953873 
L 66.652955 149.602392 
L 66.652955 149.250912 
L 66.301474 148.899431 
L 66.301474 148.54795 
" style="fill:none;stroke:#8c8c8c;stroke-linecap:square;"/>
   </g>
   <g id="line2d_63">
    <path clip-path="url(#p6b47c1f349)" d="M 64.895552 146.790547 
L 64.895552 146.439066 
L 64.895552 146.087586 
L 65.247032 146.087586 
L 65.247032 145.736105 
L 65.598513 145.033144 
L 65.949994 144.681663 
L 66.301474 143.978702 
L 66.652955 143.27574 
L 66.652955 142.92426 
L 67.355916 142.572779 
L 67.355916 141.869818 
L 67.707397 141.869818 
L 67.707397 141.518337 
L 68.058878 141.518337 
L 68.410358 141.518337 
L 68.410358 141.869818 
L 68.761839 141.869818 
L 68.761839 142.221298 
L 69.11332 142.221298 
L 69.11332 142.572779 
L 69.4648 142.92426 
L 69.4648 143.27574 
" style="fill:none;stroke:#8c8c8c;stroke-linecap:square;"/>
   </g>
   <g id="line2d_64">
    <path clip-path="url(#p6b47c1f349)" d="M 34.668214 264.888051 
L 34.316733 264.888051 
L 34.668214 264.888051 
L 34.668214 264.536571 
L 35.019695 264.536571 
L 35.371175 264.18509 
L 35.722656 263.833609 
L 36.425617 263.130648 
L 36.777098 262.427687 
L 37.480059 261.724725 
L 38.183021 260.318803 
L 38.885982 259.615841 
L 39.940424 258.561399 
L 40.291905 257.858438 
L 40.994866 257.155477 
L 41.697827 256.452515 
L 42.400789 255.398073 
L 42.400789 255.046593 
L 43.10375 254.343631 
L 43.806711 253.64067 
L 44.861153 252.234747 
L 45.915595 250.828825 
L 46.618557 249.422902 
L 47.672999 248.36846 
L 48.37596 247.314018 
L 49.781883 245.556615 
L 50.484844 244.853653 
L 51.187806 243.799211 
L 52.242248 243.09625 
L 52.593728 242.393289 
L 53.29669 242.041808 
L 53.999651 241.338847 
L 54.351132 240.987366 
L 54.702612 240.987366 
L 55.054093 240.284405 
L 55.757054 239.932924 
L 56.108535 239.229962 
L 56.460016 238.878482 
L 57.162977 238.17552 
L 57.865938 237.82404 
L 58.217419 237.121078 
L 58.5689 236.418117 
L 58.92038 236.066636 
L 59.623342 235.363675 
L 59.974822 235.012194 
L 60.326303 234.309233 
L 60.677784 233.606272 
L 61.029264 233.254791 
L 61.380745 232.55183 
L 61.732226 232.200349 
L 61.732226 231.848868 
L 62.083706 231.145907 
L 62.435187 230.794426 
L 62.786668 230.091465 
L 63.138148 229.739984 
L 63.489629 229.388504 
L 63.489629 229.037023 
" style="fill:none;stroke:#8c8c8c;stroke-linecap:square;"/>
   </g>
   <g id="line2d_65">
    <path clip-path="url(#p6b47c1f349)" d="M 63.84111 229.037023 
L 63.84111 229.388504 
L 63.84111 229.739984 
L 64.19259 229.739984 
L 64.544071 230.442946 
L 64.895552 230.794426 
L 65.598513 231.497388 
L 65.949994 231.848868 
L 66.301474 232.200349 
L 67.004436 233.254791 
L 68.058878 233.957752 
L 68.410358 234.660714 
L 69.11332 235.363675 
L 69.4648 236.066636 
L 70.167762 236.769598 
L 70.870723 237.472559 
L 71.222204 238.17552 
L 71.925165 238.878482 
L 72.628126 239.581443 
L 73.331088 240.284405 
L 73.682568 240.987366 
L 74.034049 241.690327 
L 74.73701 242.393289 
L 75.439972 243.09625 
L 76.142933 244.150692 
L 76.494414 244.502173 
L 76.845894 245.205134 
L 77.900336 246.259576 
L 78.603298 247.314018 
L 78.954778 248.016979 
L 79.306259 248.36846 
L 80.00922 249.071421 
L 80.712182 250.125863 
L 81.415143 250.828825 
L 82.118104 251.531786 
L 82.469585 252.234747 
L 83.172546 252.586228 
L 83.875508 253.64067 
L 84.578469 253.992151 
L 84.92995 254.695112 
L 85.632911 255.398073 
L 85.984392 256.101035 
L 86.687353 256.803996 
L 87.038834 257.155477 
L 87.390314 257.506957 
L 87.741795 258.561399 
L 88.093276 258.91288 
L 88.796237 259.615841 
L 89.147718 260.318803 
L 89.499198 260.670283 
L 90.20216 261.724725 
L 90.55364 262.076206 
L 91.256602 263.130648 
L 91.959563 263.833609 
L 92.311044 264.536571 
L 93.014005 265.239532 
L 93.365486 265.591013 
L 93.716966 265.942493 
L 93.716966 266.293974 
L 94.068447 266.293974 
L 94.068447 266.645455 
" style="fill:none;stroke:#8c8c8c;stroke-linecap:square;"/>
   </g>
   <g id="line2d_66">
    <path clip-path="url(#p6b47c1f349)" d="M 50.836325 242.041808 
L 50.836325 242.393289 
L 50.484844 242.393289 
L 50.133364 242.393289 
L 49.781883 242.744769 
L 49.430402 242.744769 
L 49.078922 242.744769 
L 48.727441 242.744769 
L 48.37596 243.09625 
L 48.02448 243.09625 
L 47.672999 243.09625 
L 47.321518 243.447731 
L 46.970038 243.447731 
L 46.267076 243.799211 
L 45.915595 243.799211 
L 45.564115 244.150692 
L 44.861153 244.502173 
L 44.509673 244.853653 
L 44.158192 244.853653 
L 43.806711 245.205134 
L 43.455231 245.205134 
L 43.10375 245.205134 
L 42.752269 245.205134 
" style="fill:none;stroke:#8c8c8c;stroke-linecap:square;"/>
   </g>
   <g id="line2d_67">
    <path clip-path="url(#p6b47c1f349)" d="M 42.400789 244.853653 
L 42.400789 245.205134 
L 42.400789 245.556615 
L 42.400789 245.908095 
L 42.400789 246.611057 
L 42.752269 247.314018 
L 42.752269 248.016979 
L 42.752269 248.719941 
L 42.752269 249.774383 
L 42.752269 250.125863 
L 42.752269 251.180305 
L 43.10375 251.531786 
L 43.10375 251.883267 
L 43.10375 252.234747 
L 43.10375 252.586228 
" style="fill:none;stroke:#8c8c8c;stroke-linecap:square;"/>
   </g>
   <g id="line2d_68">
    <path clip-path="url(#p6b47c1f349)" d="M 72.276646 239.229962 
L 72.276646 238.878482 
L 72.628126 238.878482 
L 72.979607 239.229962 
L 73.682568 239.229962 
L 74.034049 239.581443 
L 74.38553 239.581443 
L 74.73701 239.581443 
L 75.791452 239.581443 
L 76.494414 239.581443 
L 76.845894 239.932924 
L 77.548856 239.932924 
L 78.251817 239.932924 
L 78.603298 239.932924 
L 79.306259 239.932924 
L 80.00922 239.932924 
L 80.360701 239.932924 
L 80.712182 239.932924 
L 81.063662 239.932924 
L 81.415143 239.932924 
" style="fill:none;stroke:#8c8c8c;stroke-linecap:square;"/>
   </g>
   <g id="line2d_69">
    <path clip-path="url(#p6b47c1f349)" d="M 81.063662 240.635885 
L 80.712182 240.987366 
L 81.063662 240.987366 
L 81.063662 241.338847 
L 81.063662 241.690327 
L 81.063662 242.041808 
L 81.415143 242.744769 
L 81.415143 244.150692 
L 81.415143 244.853653 
L 81.766624 245.908095 
L 81.766624 246.962537 
L 81.766624 248.016979 
L 82.118104 248.36846 
L 82.118104 248.719941 
L 81.766624 248.719941 
" style="fill:none;stroke:#8c8c8c;stroke-linecap:square;"/>
   </g>
   <g id="line2d_70">
    <path clip-path="url(#p6b47c1f349)" d="M 27.990081 253.992151 
L 28.341562 253.992151 
L 28.693043 253.992151 
L 29.044523 253.992151 
L 29.396004 253.992151 
L 29.747485 253.992151 
L 30.098965 253.992151 
L 30.450446 253.992151 
L 30.801927 253.992151 
L 31.153407 253.992151 
L 31.504888 253.992151 
L 31.856369 253.992151 
L 32.207849 253.992151 
L 32.55933 253.992151 
L 32.910811 253.992151 
L 33.262291 253.992151 
L 33.613772 253.992151 
L 33.965253 253.992151 
L 34.316733 253.992151 
L 34.668214 253.992151 
L 35.019695 253.992151 
L 35.371175 253.992151 
L 35.722656 253.992151 
L 36.074137 253.992151 
L 36.425617 253.992151 
L 36.777098 253.992151 
" style="fill:none;stroke:#8c8c8c;stroke-linecap:square;"/>
   </g>
   <g id="line2d_71">
    <path clip-path="url(#p6b47c1f349)" d="M 38.183021 253.64067 
L 38.534501 253.64067 
L 38.885982 253.64067 
L 39.237463 253.64067 
L 39.588943 253.64067 
L 39.940424 253.64067 
L 40.291905 253.64067 
L 40.643385 253.64067 
L 40.994866 253.64067 
L 41.346347 253.64067 
L 41.697827 253.992151 
L 42.049308 253.992151 
" style="fill:none;stroke:#8c8c8c;stroke-linecap:square;"/>
   </g>
   <g id="line2d_72">
    <path clip-path="url(#p6b47c1f349)" d="M 83.875508 250.477344 
L 83.875508 250.125863 
L 84.226988 250.125863 
L 84.226988 250.477344 
L 84.92995 250.477344 
L 85.28143 250.477344 
" style="fill:none;stroke:#8c8c8c;stroke-linecap:square;"/>
   </g>
   <g id="line2d_73">
    <path clip-path="url(#p6b47c1f349)" d="M 87.038834 250.477344 
L 87.390314 250.125863 
L 87.741795 250.125863 
L 88.093276 250.125863 
L 88.444756 250.125863 
L 88.796237 250.125863 
L 89.147718 250.125863 
L 89.499198 250.125863 
L 89.850679 250.125863 
L 90.20216 250.125863 
L 90.55364 250.125863 
L 90.905121 250.125863 
L 91.256602 250.125863 
L 91.608082 250.125863 
L 91.959563 250.125863 
L 92.311044 250.125863 
L 92.662524 250.125863 
L 92.662524 249.774383 
L 93.014005 249.774383 
" style="fill:none;stroke:#8c8c8c;stroke-linecap:square;"/>
   </g>
   <g id="line2d_74">
    <path clip-path="url(#p6b47c1f349)" d="M 94.068447 249.774383 
L 94.419928 249.774383 
L 94.771408 249.774383 
L 94.771408 250.125863 
L 95.122889 250.125863 
L 95.47437 250.125863 
L 95.82585 250.125863 
L 96.177331 250.125863 
L 96.528812 250.125863 
" style="fill:none;stroke:#8c8c8c;stroke-linecap:square;"/>
   </g>
   <g id="line2d_75">
    <path clip-path="url(#p6b47c1f349)" d="M 97.934734 250.125863 
L 98.286215 250.125863 
L 98.637696 250.125863 
L 98.989176 250.125863 
L 99.340657 250.125863 
L 99.692138 250.125863 
L 100.043618 250.125863 
L 100.395099 250.125863 
L 100.74658 249.774383 
L 101.09806 249.774383 
L 101.449541 249.774383 
L 101.801022 249.774383 
L 102.152502 249.774383 
L 102.503983 249.774383 
" style="fill:none;stroke:#8c8c8c;stroke-linecap:square;"/>
   </g>
   <g id="line2d_76">
    <path clip-path="url(#p6b47c1f349)" d="M 94.068447 249.774383 
L 94.068447 250.125863 
L 94.068447 250.477344 
L 94.068447 250.828825 
L 94.068447 251.180305 
L 94.068447 251.531786 
L 94.068447 251.883267 
L 94.068447 252.234747 
L 94.068447 252.586228 
L 94.068447 252.937709 
L 94.068447 253.289189 
L 94.068447 253.992151 
L 94.419928 254.343631 
L 94.419928 255.046593 
L 94.419928 255.749554 
L 94.771408 256.101035 
L 94.771408 256.803996 
L 94.771408 257.506957 
L 95.122889 258.209919 
L 95.122889 258.91288 
L 95.47437 259.615841 
L 95.47437 260.670283 
L 95.82585 261.373245 
L 95.82585 261.724725 
L 95.82585 262.076206 
L 96.177331 262.427687 
L 96.177331 262.779167 
L 96.177331 263.130648 
" style="fill:none;stroke:#8c8c8c;stroke-linecap:square;"/>
   </g>
   <g id="line2d_77">
    <path clip-path="url(#p6b47c1f349)" d="M 91.959563 250.125863 
L 91.959563 250.477344 
L 92.311044 250.477344 
L 91.959563 250.828825 
L 91.608082 250.828825 
L 91.608082 251.180305 
L 91.256602 251.180305 
L 90.905121 251.180305 
L 90.55364 251.180305 
L 90.20216 251.180305 
L 89.499198 251.531786 
L 88.796237 251.531786 
L 88.444756 251.531786 
L 87.741795 251.531786 
L 87.038834 251.883267 
L 86.687353 251.883267 
L 85.984392 251.883267 
L 85.28143 251.883267 
L 84.92995 251.883267 
L 84.226988 251.883267 
L 83.524027 251.883267 
L 83.172546 251.883267 
L 82.821066 251.883267 
L 82.469585 251.883267 
L 82.118104 251.883267 
L 81.766624 252.234747 
L 81.415143 252.234747 
L 81.063662 252.234747 
L 81.063662 252.586228 
L 80.712182 252.586228 
" style="fill:none;stroke:#8c8c8c;stroke-linecap:square;"/>
   </g>
   <g id="line2d_78">
    <path clip-path="url(#p6b47c1f349)" d="M 40.291905 254.343631 
L 39.940424 254.343631 
L 39.588943 254.343631 
L 39.588943 254.695112 
L 39.237463 254.695112 
L 38.885982 254.695112 
L 38.534501 254.695112 
L 38.183021 254.695112 
L 37.83154 254.695112 
L 37.480059 255.046593 
L 37.128579 255.046593 
L 36.425617 255.046593 
L 35.722656 255.046593 
L 35.371175 255.398073 
L 35.019695 255.398073 
L 34.668214 255.398073 
L 34.316733 255.398073 
L 33.965253 255.398073 
L 33.613772 255.398073 
L 33.613772 255.749554 
L 33.262291 255.749554 
L 32.910811 255.749554 
L 32.55933 255.749554 
L 32.207849 255.749554 
L 32.55933 256.101035 
L 32.55933 256.452515 
L 32.55933 256.803996 
L 32.910811 257.155477 
L 32.910811 257.506957 
L 32.910811 257.858438 
L 33.262291 258.209919 
L 33.262291 258.91288 
L 33.613772 259.615841 
L 33.965253 260.318803 
L 33.965253 260.670283 
L 34.316733 261.373245 
L 34.316733 261.724725 
L 34.316733 262.427687 
L 34.668214 262.779167 
L 34.668214 263.130648 
L 34.668214 263.482129 
L 34.668214 263.833609 
L 35.019695 263.833609 
L 35.019695 264.18509 
L 35.371175 264.18509 
" style="fill:none;stroke:#8c8c8c;stroke-linecap:square;"/>
   </g>
   <g id="line2d_79">
    <path clip-path="url(#p6b47c1f349)" d="M 47.321518 239.229962 
L 47.321518 239.581443 
L 47.672999 239.581443 
L 47.672999 239.229962 
L 48.02448 239.229962 
L 48.02448 238.878482 
L 48.37596 238.878482 
L 48.37596 238.527001 
L 48.727441 238.17552 
L 49.078922 237.82404 
L 49.430402 237.472559 
L 49.781883 237.121078 
L 50.133364 237.121078 
L 50.133364 236.769598 
L 50.484844 236.418117 
L 50.836325 236.066636 
L 51.187806 235.715156 
L 51.539286 235.715156 
L 51.539286 235.363675 
L 51.539286 235.012194 
" style="fill:none;stroke:#8c8c8c;stroke-linecap:square;"/>
   </g>
   <g id="line2d_80">
    <path clip-path="url(#p6b47c1f349)" d="M 50.133364 232.90331 
L 50.133364 233.254791 
L 49.781883 233.254791 
L 50.133364 233.254791 
L 50.484844 233.254791 
L 50.836325 233.254791 
L 51.187806 233.606272 
L 51.539286 233.606272 
L 51.890767 233.606272 
L 52.242248 233.957752 
L 52.593728 234.309233 
L 52.945209 234.660714 
L 52.945209 235.012194 
L 52.945209 235.363675 
" style="fill:none;stroke:#8c8c8c;stroke-linecap:square;"/>
   </g>
   <g id="line2d_81">
    <path clip-path="url(#p6b47c1f349)" d="M 291.600582 191.428592 
L 291.952063 191.428592 
L 291.952063 191.780072 
L 292.303543 191.780072 
L 292.303543 192.131553 
L 292.655024 192.131553 
L 293.006505 192.131553 
L 293.357985 192.131553 
L 293.357985 192.483034 
L 293.709466 192.483034 
L 293.709466 192.834514 
L 294.060947 192.834514 
L 294.060947 193.185995 
L 294.412427 193.185995 
L 294.763908 193.185995 
L 294.763908 193.537476 
L 294.763908 193.888956 
L 295.115389 193.888956 
L 295.115389 194.240437 
L 295.466869 194.240437 
L 295.466869 194.591918 
L 295.81835 194.591918 
L 295.81835 194.943398 
L 296.169831 194.943398 
L 296.169831 195.294879 
L 296.521311 195.294879 
L 296.521311 195.64636 
L 296.872792 195.64636 
L 296.872792 195.99784 
L 297.224273 195.99784 
L 297.224273 196.349321 
L 297.575753 196.349321 
L 297.575753 196.700802 
L 297.927234 196.700802 
L 297.927234 197.052282 
L 298.278715 197.052282 
L 298.278715 197.403763 
L 298.630195 197.403763 
L 298.981676 197.755244 
L 299.333157 197.755244 
L 299.333157 198.106724 
L 299.684637 198.458205 
L 300.036118 198.458205 
L 300.036118 198.809686 
L 300.387599 199.161166 
L 300.387599 199.512647 
L 300.739079 199.512647 
L 300.739079 199.864128 
L 301.09056 200.215608 
L 301.09056 200.567089 
L 301.442041 200.567089 
L 301.442041 200.91857 
L 301.442041 201.27005 
L 301.793521 201.27005 
L 301.793521 201.621531 
L 301.793521 201.973012 
L 302.145002 201.973012 
L 302.145002 202.324492 
L 302.496483 202.675973 
L 302.496483 203.027454 
L 302.847963 203.027454 
L 302.847963 203.378934 
L 303.199444 203.730415 
L 303.199444 204.081896 
L 303.550925 204.081896 
L 303.550925 204.433376 
L 303.902405 204.433376 
L 303.902405 204.784857 
L 304.253886 204.784857 
L 304.253886 205.136338 
L 304.605367 205.136338 
L 304.605367 205.487818 
L 304.956847 205.839299 
L 305.308328 205.839299 
L 305.308328 206.19078 
L 305.659809 206.19078 
L 306.011289 206.54226 
L 306.36277 206.893741 
L 306.714251 206.893741 
L 306.714251 207.245222 
L 307.065731 207.245222 
L 307.065731 207.596702 
L 307.417212 207.596702 
L 307.417212 207.948183 
L 307.768693 207.948183 
L 307.768693 208.299664 
L 308.120173 208.299664 
L 308.120173 208.651144 
L 308.471654 208.651144 
L 308.823135 209.002625 
L 309.174615 209.002625 
L 309.174615 209.354106 
L 309.526096 209.354106 
L 309.526096 209.705586 
" style="fill:none;stroke:#8c8c8c;stroke-linecap:square;"/>
   </g>
   <g id="line2d_82">
    <path clip-path="url(#p6b47c1f349)" d="M 310.580538 210.760028 
L 310.932019 210.760028 
L 310.932019 211.111509 
" style="fill:none;stroke:#8c8c8c;stroke-linecap:square;"/>
   </g>
   <g id="line2d_83">
    <path clip-path="url(#p6b47c1f349)" d="M 321.827919 226.576658 
L 322.1794 226.928139 
L 322.1794 227.27962 
L 322.530881 227.27962 
" style="fill:none;stroke:#8c8c8c;stroke-linecap:square;"/>
   </g>
   <g id="line2d_84">
    <path clip-path="url(#p6b47c1f349)" d="M 77.900336 236.418117 
L 77.900336 236.769598 
L 77.900336 236.418117 
L 78.251817 236.418117 
L 78.251817 236.066636 
L 78.251817 235.715156 
L 78.603298 235.363675 
L 78.954778 235.012194 
L 79.306259 233.957752 
L 79.306259 233.606272 
L 80.00922 232.55183 
L 80.00922 231.848868 
L 80.712182 230.794426 
L 81.063662 230.091465 
L 81.766624 228.685542 
L 82.118104 227.982581 
L 82.469585 227.27962 
L 82.821066 226.576658 
L 83.172546 226.225178 
L 83.172546 225.873697 
L 83.524027 225.522216 
L 83.875508 225.170736 
L 83.524027 225.170736 
" style="fill:none;stroke:#8c8c8c;stroke-linecap:square;"/>
   </g>
   <g id="line2d_85">
    <path clip-path="url(#p6b47c1f349)" d="M 77.197375 235.012194 
L 77.197375 234.660714 
L 77.197375 234.309233 
L 77.197375 234.660714 
L 77.197375 235.012194 
L 77.197375 235.363675 
L 77.197375 235.715156 
L 77.197375 236.066636 
L 77.197375 236.418117 
L 77.548856 236.418117 
L 77.548856 236.769598 
L 77.548856 237.121078 
L 77.900336 237.121078 
L 78.251817 237.121078 
L 78.603298 237.121078 
L 78.954778 237.121078 
L 79.65774 237.121078 
L 80.360701 236.769598 
L 81.415143 236.769598 
" style="fill:none;stroke:#8c8c8c;stroke-linecap:square;"/>
   </g>
  </g>
 </g>
 <defs>
  <clipPath id="p6b47c1f349">
   <rect height="271.8" width="441.916643" x="7.2" y="7.2"/>
  </clipPath>
 </defs>
</svg>
