<?xml version="1.0" encoding="utf-8" standalone="no"?>
<!DOCTYPE svg PUBLIC "-//W3C//DTD SVG 1.1//EN"
  "http://www.w3.org/Graphics/SVG/1.1/DTD/svg11.dtd">
<!-- Created with matplotlib (https://matplotlib.org/) -->
<svg height="286.2pt" version="1.1" viewBox="0 0 199.804176 286.2" width="199.804176pt" xmlns="http://www.w3.org/2000/svg" xmlns:xlink="http://www.w3.org/1999/xlink">
 <metadata>
  <rdf:RDF xmlns:cc="http://creativecommons.org/ns#" xmlns:dc="http://purl.org/dc/elements/1.1/" xmlns:rdf="http://www.w3.org/1999/02/22-rdf-syntax-ns#">
   <cc:Work>
    <dc:type rdf:resource="http://purl.org/dc/dcmitype/StillImage"/>
    <dc:date>2024-11-15T16:04:14.046038</dc:date>
    <dc:format>image/svg+xml</dc:format>
    <dc:creator>
     <cc:Agent>
      <dc:title>Matplotlib v3.3.4, https://matplotlib.org/</dc:title>
     </cc:Agent>
    </dc:creator>
   </cc:Work>
  </rdf:RDF>
 </metadata>
 <defs>
  <style type="text/css">*{stroke-linecap:butt;stroke-linejoin:round;}</style>
 </defs>
 <g id="figure_1">
  <g id="patch_1">
   <path d="M 0 286.2 
L 199.804176 286.2 
L 199.804176 0 
L 0 0 
z
" style="fill:#ffffff;"/>
  </g>
  <g id="axes_1">
   <g id="line2d_1">
    <path clip-path="url(#p7201b583e8)" d="M 46.585488 61.40521 
L 46.585488 60.831913 
L 46.585488 60.258616 
L 46.585488 60.831913 
L 46.585488 61.40521 
L 46.585488 61.978507 
L 46.585488 62.551803 
L 46.585488 63.1251 
L 46.585488 63.698397 
L 46.585488 64.271694 
L 46.585488 64.844991 
L 46.585488 65.418287 
L 46.585488 65.991584 
L 46.585488 66.564881 
L 46.585488 67.138178 
L 46.585488 67.711474 
L 46.585488 68.284771 
L 46.585488 68.858068 
L 46.585488 69.431365 
L 46.585488 70.004661 
L 46.585488 70.577958 
L 46.585488 71.151255 
L 46.585488 71.724552 
L 47.158785 71.724552 
L 47.158785 71.151255 
" style="fill:none;stroke:#8c8c8c;stroke-linecap:square;"/>
   </g>
   <g id="line2d_2">
    <path clip-path="url(#p7201b583e8)" d="M 47.158785 63.698397 
L 47.158785 63.1251 
L 47.158785 62.551803 
L 47.158785 61.978507 
L 47.158785 61.40521 
L 47.158785 61.978507 
L 47.158785 62.551803 
L 47.158785 63.1251 
L 47.158785 63.698397 
L 47.158785 64.271694 
L 47.158785 64.844991 
L 47.158785 65.418287 
L 47.158785 65.991584 
L 47.158785 66.564881 
L 47.158785 67.138178 
L 47.158785 67.711474 
L 47.158785 68.284771 
L 47.158785 68.858068 
L 47.158785 69.431365 
L 47.158785 70.004661 
L 47.158785 70.577958 
L 47.158785 71.151255 
L 47.158785 71.724552 
L 47.732082 71.724552 
L 47.732082 72.297849 
" style="fill:none;stroke:#8c8c8c;stroke-linecap:square;"/>
   </g>
   <g id="line2d_3">
    <path clip-path="url(#p7201b583e8)" d="M 48.878675 60.831913 
L 48.305379 60.831913 
L 48.305379 61.40521 
L 48.878675 61.40521 
L 48.878675 60.831913 
L 49.451972 60.831913 
L 50.025269 60.258616 
L 50.598566 60.258616 
L 51.171862 59.68532 
L 51.745159 59.112023 
L 52.318456 59.112023 
L 52.318456 58.538726 
L 52.891753 58.538726 
L 52.891753 57.965429 
L 53.46505 57.965429 
" style="fill:none;stroke:#8c8c8c;stroke-linecap:square;"/>
   </g>
   <g id="line2d_4">
    <path clip-path="url(#p7201b583e8)" d="M 61.491204 60.831913 
L 61.491204 61.40521 
L 62.064501 61.40521 
L 62.064501 61.978507 
L 62.637798 61.978507 
L 62.637798 62.551803 
L 63.211095 62.551803 
L 63.784391 62.551803 
L 64.357688 62.551803 
L 65.504282 62.551803 
L 66.077579 63.1251 
L 66.650875 63.1251 
L 67.224172 63.1251 
L 67.797469 63.1251 
L 68.370766 63.1251 
L 68.944062 63.1251 
L 69.517359 63.1251 
L 69.517359 63.698397 
L 70.090656 63.698397 
L 70.663953 63.698397 
L 71.23725 63.698397 
L 71.810546 63.698397 
L 72.383843 63.698397 
L 72.95714 63.698397 
L 73.530437 63.698397 
L 74.103733 63.698397 
" style="fill:none;stroke:#8c8c8c;stroke-linecap:square;"/>
   </g>
   <g id="line2d_5">
    <path clip-path="url(#p7201b583e8)" d="M 75.250327 62.551803 
L 75.250327 61.978507 
L 74.67703 61.978507 
L 74.67703 62.551803 
L 74.103733 63.1251 
L 74.103733 63.698397 
L 73.530437 63.698397 
L 73.530437 64.271694 
L 73.530437 64.844991 
L 72.95714 65.418287 
L 72.383843 65.991584 
L 71.810546 67.138178 
L 71.810546 67.711474 
L 71.23725 68.284771 
L 70.663953 69.431365 
L 70.090656 70.004661 
L 69.517359 70.577958 
L 69.517359 71.151255 
L 68.944062 71.151255 
L 68.944062 71.724552 
" style="fill:none;stroke:#8c8c8c;stroke-linecap:square;"/>
   </g>
   <g id="line2d_6">
    <path clip-path="url(#p7201b583e8)" d="M 141.752753 36.753449 
L 142.326049 36.753449 
L 142.326049 37.326745 
L 142.899346 37.326745 
L 142.899346 37.900042 
L 143.472643 37.900042 
L 143.472643 38.473339 
L 144.619236 38.473339 
L 145.192533 39.046636 
L 150.925501 39.046636 
L 151.498798 38.473339 
L 154.365282 38.473339 
L 154.365282 37.900042 
L 156.085172 37.900042 
L 156.085172 37.326745 
L 157.805062 37.326745 
L 157.805062 36.753449 
L 159.524953 36.753449 
L 159.524953 36.180152 
L 161.244843 36.180152 
L 161.244843 35.606855 
L 162.391436 35.606855 
L 162.964733 35.033558 
L 164.111327 35.033558 
L 164.111327 34.460262 
L 165.25792 34.460262 
L 165.25792 33.886965 
L 166.404514 33.886965 
L 166.404514 33.313668 
L 166.977811 33.313668 
L 167.551107 32.740371 
L 168.124404 32.740371 
L 168.124404 32.167074 
L 169.270998 32.167074 
L 169.270998 31.593778 
L 169.844294 31.593778 
L 170.417591 31.020481 
L 170.990888 31.020481 
L 170.990888 30.447184 
L 171.564185 30.447184 
L 171.564185 29.873887 
L 172.137482 29.873887 
L 172.710778 29.300591 
L 173.284075 29.300591 
L 173.284075 28.727294 
L 173.857372 28.727294 
L 174.430669 28.153997 
L 175.003965 28.153997 
L 175.003965 27.5807 
L 175.577262 27.5807 
L 175.577262 27.007404 
L 176.150559 27.007404 
L 176.150559 26.434107 
L 176.723856 26.434107 
L 176.723856 25.86081 
L 177.297152 25.86081 
L 177.297152 25.287513 
L 177.870449 25.287513 
L 177.870449 24.714216 
L 178.443746 24.714216 
L 178.443746 24.14092 
L 179.017043 24.14092 
L 179.017043 23.567623 
L 179.59034 23.567623 
L 179.59034 22.994326 
L 180.163636 22.994326 
L 180.163636 22.421029 
L 180.736933 22.421029 
L 180.736933 21.847733 
L 181.883527 20.701139 
L 181.883527 20.127842 
L 182.456823 20.127842 
L 182.456823 19.554545 
L 183.603417 19.554545 
L 183.603417 20.127842 
L 184.176714 20.127842 
L 184.176714 25.86081 
L 183.603417 25.86081 
L 183.603417 27.5807 
L 183.03012 28.153997 
L 183.03012 28.727294 
L 182.456823 28.727294 
L 182.456823 29.300591 
L 181.883527 29.873887 
L 181.883527 30.447184 
L 181.31023 30.447184 
L 181.31023 31.020481 
L 180.736933 31.020481 
L 180.736933 31.593778 
L 180.163636 31.593778 
L 179.59034 32.167074 
L 179.59034 32.740371 
L 179.017043 32.740371 
L 177.297152 34.460262 
L 176.723856 34.460262 
L 176.723856 35.033558 
L 176.150559 35.033558 
L 176.150559 35.606855 
L 175.577262 35.606855 
L 175.577262 36.180152 
L 175.003965 36.180152 
L 175.003965 36.753449 
L 174.430669 36.753449 
L 174.430669 37.326745 
L 173.857372 37.326745 
L 173.284075 37.900042 
L 173.284075 38.473339 
L 172.710778 38.473339 
L 172.710778 39.046636 
L 172.137482 39.046636 
L 171.564185 39.619933 
L 171.564185 40.193229 
L 170.990888 40.193229 
L 170.990888 40.766526 
L 170.417591 40.766526 
L 170.417591 41.339823 
L 169.844294 41.91312 
L 169.270998 41.91312 
L 169.270998 42.486416 
L 168.124404 43.63301 
L 168.124404 44.206307 
L 167.551107 44.206307 
L 166.977811 44.779603 
L 166.977811 45.3529 
L 164.684623 47.646087 
L 164.111327 47.646087 
L 164.111327 48.219384 
L 163.53803 48.792681 
L 162.964733 48.792681 
L 162.964733 49.365978 
L 162.391436 49.365978 
L 161.244843 50.512571 
L 160.671546 50.512571 
L 160.098249 51.085868 
L 159.524953 51.085868 
L 158.951656 51.659165 
L 158.378359 51.659165 
L 157.805062 52.232462 
L 156.658469 52.232462 
L 156.085172 52.805758 
L 154.365282 52.805758 
L 153.791985 53.379055 
L 152.072094 53.379055 
L 151.498798 53.952352 
L 149.205611 53.952352 
L 148.632314 54.525649 
L 146.339127 54.525649 
L 145.76583 55.098945 
L 141.752753 55.098945 
L 141.752753 54.525649 
L 139.459565 54.525649 
L 139.459565 53.952352 
L 138.312972 53.952352 
L 138.312972 53.379055 
L 137.739675 53.379055 
L 137.739675 52.805758 
L 137.166378 52.805758 
L 137.166378 52.232462 
L 136.593082 52.232462 
L 136.593082 51.659165 
L 136.019785 51.659165 
L 136.019785 50.512571 
L 135.446488 49.939274 
L 135.446488 48.219384 
L 136.019785 47.646087 
L 136.019785 45.926197 
L 137.739675 44.206307 
L 137.739675 43.059713 
L 138.886269 41.91312 
L 139.459565 40.766526 
L 140.032862 40.766526 
L 143.472643 37.326745 
L 143.472643 36.753449 
L 144.04594 36.753449 
L 144.04594 36.180152 
L 144.619236 36.180152 
L 144.619236 35.606855 
L 144.619236 35.606855 
" style="fill:none;stroke:#8c8c8c;stroke-linecap:square;"/>
   </g>
   <g id="line2d_7">
    <path clip-path="url(#p7201b583e8)" d="M 20.787134 243.140287 
L 25.946804 243.140287 
L 26.520101 243.713584 
L 29.386585 243.713584 
L 29.386585 244.28688 
L 31.679772 244.28688 
L 31.679772 244.860177 
L 33.972959 244.860177 
L 33.972959 245.433474 
L 38.559333 245.433474 
L 38.559333 246.006771 
L 46.585488 246.006771 
L 47.158785 246.580067 
L 49.451972 246.580067 
L 49.451972 247.153364 
L 54.038346 247.153364 
L 54.038346 247.726661 
L 66.650875 247.726661 
L 66.650875 248.299958 
L 68.944062 248.299958 
L 68.944062 248.873255 
L 70.663953 248.873255 
L 71.23725 249.446551 
L 71.810546 249.446551 
L 72.383843 250.019848 
L 73.530437 250.019848 
L 74.103733 250.593145 
L 74.67703 250.593145 
L 75.250327 251.166442 
L 75.823624 251.166442 
L 76.39692 251.739738 
L 76.970217 251.739738 
L 76.970217 252.313035 
L 77.543514 252.313035 
L 77.543514 252.886332 
L 78.116811 252.886332 
L 78.690108 253.459629 
L 78.690108 255.179519 
L 78.116811 255.752816 
L 78.116811 256.326113 
L 77.543514 256.326113 
L 77.543514 256.899409 
L 76.970217 256.899409 
L 76.970217 257.472706 
L 75.823624 258.6193 
L 75.823624 259.192596 
L 75.250327 259.192596 
L 75.250327 259.765893 
L 74.103733 260.912487 
L 74.103733 261.485784 
L 73.530437 262.05908 
L 73.530437 262.632377 
L 72.95714 262.632377 
L 72.95714 263.205674 
L 72.383843 263.778971 
L 72.383843 264.352267 
L 71.810546 264.352267 
L 71.810546 264.925564 
L 71.23725 264.925564 
L 71.23725 265.498861 
L 70.663953 266.072158 
L 70.090656 266.072158 
L 70.090656 266.645455 
L 66.077579 266.645455 
L 65.504282 266.072158 
L 63.211095 266.072158 
L 63.211095 265.498861 
L 60.917908 265.498861 
L 60.917908 264.925564 
L 56.90483 264.925564 
L 56.90483 264.352267 
L 55.18494 264.352267 
L 55.18494 263.778971 
L 54.038346 263.778971 
L 54.038346 263.205674 
L 52.891753 263.205674 
L 52.318456 262.632377 
L 51.745159 262.632377 
L 51.171862 262.05908 
L 50.598566 262.05908 
L 50.598566 261.485784 
L 49.451972 261.485784 
L 49.451972 260.912487 
L 48.305379 260.912487 
L 47.732082 260.33919 
L 46.012192 260.33919 
L 45.438895 259.765893 
L 43.145708 259.765893 
L 42.572411 259.192596 
L 40.852521 259.192596 
L 40.852521 258.6193 
L 39.705927 258.6193 
L 39.13263 258.046003 
L 37.41274 258.046003 
L 36.839443 257.472706 
L 35.69285 257.472706 
L 35.69285 256.899409 
L 32.826366 256.899409 
L 32.826366 256.326113 
L 31.106475 256.326113 
L 30.533179 255.752816 
L 29.386585 255.752816 
L 28.813288 255.179519 
L 27.666695 255.179519 
L 27.666695 254.606222 
L 27.093398 254.606222 
L 26.520101 254.032926 
L 25.946804 254.032926 
L 25.946804 253.459629 
L 24.800211 253.459629 
L 24.226914 252.886332 
L 23.653617 252.886332 
L 23.653617 252.313035 
L 22.507024 252.313035 
L 22.507024 251.739738 
L 21.36043 251.739738 
L 21.36043 251.166442 
L 20.787134 251.166442 
L 20.787134 250.593145 
L 20.213837 250.593145 
L 19.64054 250.019848 
L 19.067243 250.019848 
L 19.067243 249.446551 
L 18.493946 249.446551 
L 17.92065 248.873255 
L 17.347353 248.873255 
L 17.347353 248.299958 
L 16.774056 248.299958 
L 16.774056 247.726661 
L 16.200759 247.153364 
L 16.200759 246.580067 
L 15.627463 246.580067 
L 15.627463 245.433474 
L 16.200759 244.860177 
L 16.200759 244.28688 
L 16.774056 244.28688 
L 17.347353 243.713584 
L 18.493946 243.713584 
L 19.067243 244.28688 
L 23.653617 244.28688 
L 23.653617 244.860177 
L 25.373508 244.860177 
L 25.373508 244.860177 
" style="fill:none;stroke:#8c8c8c;stroke-linecap:square;"/>
   </g>
  </g>
 </g>
 <defs>
  <clipPath id="p7201b583e8">
   <rect height="271.8" width="185.404176" x="7.2" y="7.2"/>
  </clipPath>
 </defs>
</svg>
