<?xml version="1.0" encoding="utf-8" standalone="no"?>
<!DOCTYPE svg PUBLIC "-//W3C//DTD SVG 1.1//EN"
  "http://www.w3.org/Graphics/SVG/1.1/DTD/svg11.dtd">
<!-- Created with matplotlib (https://matplotlib.org/) -->
<svg height="286.2pt" version="1.1" viewBox="0 0 563.560289 286.2" width="563.560289pt" xmlns="http://www.w3.org/2000/svg" xmlns:xlink="http://www.w3.org/1999/xlink">
 <metadata>
  <rdf:RDF xmlns:cc="http://creativecommons.org/ns#" xmlns:dc="http://purl.org/dc/elements/1.1/" xmlns:rdf="http://www.w3.org/1999/02/22-rdf-syntax-ns#">
   <cc:Work>
    <dc:type rdf:resource="http://purl.org/dc/dcmitype/StillImage"/>
    <dc:date>2024-11-15T16:04:13.775725</dc:date>
    <dc:format>image/svg+xml</dc:format>
    <dc:creator>
     <cc:Agent>
      <dc:title>Matplotlib v3.3.4, https://matplotlib.org/</dc:title>
     </cc:Agent>
    </dc:creator>
   </cc:Work>
  </rdf:RDF>
 </metadata>
 <defs>
  <style type="text/css">*{stroke-linecap:butt;stroke-linejoin:round;}</style>
 </defs>
 <g id="figure_1">
  <g id="patch_1">
   <path d="M 0 286.2 
L 563.560289 286.2 
L 563.560289 0 
L 0 0 
z
" style="fill:#ffffff;"/>
  </g>
  <g id="axes_1">
   <g id="line2d_1">
    <path clip-path="url(#p0f0d5fffa9)" d="M 105.010535 92.700591 
L 105.010535 92.403249 
L 105.010535 92.105907 
L 105.307877 92.105907 
L 105.307877 91.808566 
L 105.307877 91.511224 
L 105.307877 91.213883 
L 105.605218 90.916541 
L 105.605218 90.619199 
L 105.605218 90.321858 
L 105.605218 90.024516 
L 105.90256 89.727174 
L 105.90256 89.132491 
L 105.90256 88.537808 
L 106.199902 87.645783 
L 106.199902 87.348441 
L 106.199902 86.753758 
L 106.497243 85.861733 
L 106.497243 85.564391 
L 106.497243 84.672366 
L 106.497243 84.375025 
L 106.794585 83.780341 
L 106.794585 83.185658 
L 106.794585 82.590975 
L 107.091926 82.293633 
L 107.091926 81.401608 
L 107.091926 80.806925 
L 107.389268 80.212242 
L 107.389268 79.617558 
L 107.68661 78.725533 
L 107.983951 78.13085 
L 107.983951 77.833508 
L 108.281293 76.941483 
L 108.281293 76.3468 
L 108.578635 76.049458 
L 108.578635 75.157434 
L 108.875976 74.56275 
L 109.173318 73.670725 
L 109.173318 73.373384 
L 109.47066 72.7787 
L 109.768001 71.886675 
L 110.065343 71.291992 
L 110.065343 70.697309 
L 110.362685 70.399967 
L 110.660026 70.102626 
L 110.660026 69.507942 
L 110.957368 69.210601 
L 111.25471 68.913259 
L 111.552051 68.615917 
L 111.552051 68.318576 
L 111.849393 68.021234 
L 112.146734 67.723892 
L 112.444076 67.426551 
L 112.741418 67.129209 
L 113.038759 66.831867 
L 113.336101 66.831867 
L 113.633443 66.534526 
L 113.930784 66.237184 
L 114.228126 65.939842 
L 114.525468 65.939842 
L 114.822809 65.642501 
L 115.120151 65.642501 
L 115.417493 65.642501 
L 116.012176 65.345159 
L 116.309518 65.345159 
L 116.606859 65.345159 
L 116.904201 65.047818 
L 117.201543 65.047818 
L 117.498884 65.047818 
L 117.796226 64.750476 
L 118.390909 64.750476 
L 118.688251 64.750476 
L 119.282934 64.453134 
L 119.580276 64.453134 
L 120.174959 64.155793 
L 120.472301 64.155793 
L 120.769642 63.858451 
L 121.364326 63.561109 
L 121.661667 63.561109 
L 122.256351 63.263768 
L 122.553692 62.966426 
L 122.851034 62.966426 
L 123.445717 62.669084 
L 123.743059 62.371743 
L 124.0404 62.371743 
L 124.0404 62.074401 
L 124.337742 61.777059 
L 124.635084 61.479718 
L 124.932425 61.182376 
L 124.932425 60.885034 
L 125.229767 60.290351 
L 125.527109 59.695668 
L 125.82445 59.100985 
L 125.82445 58.506301 
L 126.121792 57.316935 
L 126.121792 56.722251 
L 126.419134 56.127568 
L 126.419134 55.235543 
L 126.419134 54.64086 
L 126.419134 53.748835 
L 126.419134 52.85681 
L 126.419134 51.964785 
L 126.419134 50.775418 
L 126.419134 50.180735 
L 126.419134 49.586052 
L 126.419134 48.694027 
L 126.419134 48.099344 
L 126.121792 47.50466 
L 126.121792 46.909977 
L 126.121792 46.315294 
L 126.121792 46.017952 
L 126.121792 45.72061 
L 125.82445 45.423269 
L 125.82445 45.125927 
L 125.82445 44.828585 
L 125.82445 44.531244 
L 125.527109 44.531244 
" style="fill:none;stroke:#8c8c8c;stroke-linecap:square;"/>
   </g>
   <g id="line2d_2">
    <path clip-path="url(#p0f0d5fffa9)" d="M 133.257991 42.449852 
L 133.257991 42.747194 
L 133.257991 43.044536 
L 133.555333 43.341877 
L 133.555333 43.936561 
L 133.852675 44.233902 
L 133.852675 45.125927 
L 134.150016 46.017952 
L 134.150016 46.315294 
L 134.447358 46.612635 
L 134.447358 46.909977 
" style="fill:none;stroke:#8c8c8c;stroke-linecap:square;"/>
   </g>
   <g id="line2d_3">
    <path clip-path="url(#p0f0d5fffa9)" d="M 130.581917 37.097703 
L 130.581917 36.800361 
L 130.581917 36.503019 
L 130.879258 36.503019 
L 130.879258 36.800361 
" style="fill:none;stroke:#8c8c8c;stroke-linecap:square;"/>
   </g>
   <g id="line2d_4">
    <path clip-path="url(#p0f0d5fffa9)" d="M 135.934066 42.449852 
L 136.231408 42.449852 
L 136.231408 42.747194 
L 136.52875 43.341877 
L 136.52875 43.639219 
L 136.826091 43.936561 
L 136.826091 44.233902 
L 136.826091 44.531244 
L 137.123433 44.531244 
L 137.123433 44.828585 
L 136.826091 44.531244 
L 136.826091 44.233902 
L 136.826091 43.936561 
L 136.826091 43.639219 
L 136.826091 43.341877 
L 136.826091 42.747194 
L 136.826091 42.152511 
L 136.826091 41.855169 
L 136.826091 41.260486 
L 137.123433 40.963144 
L 137.123433 40.665802 
L 137.123433 40.368461 
L 137.420775 40.071119 
L 137.420775 39.773777 
L 137.718116 39.773777 
L 138.015458 39.773777 
L 138.312799 39.773777 
L 138.312799 40.071119 
L 138.610141 40.368461 
L 138.907483 40.963144 
L 138.907483 41.260486 
L 139.204824 41.557827 
L 139.502166 42.152511 
L 139.502166 42.449852 
L 139.502166 43.044536 
L 139.799508 43.341877 
L 139.799508 43.639219 
L 140.096849 43.936561 
L 140.096849 44.233902 
" style="fill:none;stroke:#8c8c8c;stroke-linecap:square;"/>
   </g>
   <g id="line2d_5">
    <path clip-path="url(#p0f0d5fffa9)" d="M 140.394191 39.476436 
L 140.394191 39.179094 
L 140.394191 38.881753 
L 140.394191 38.584411 
L 140.394191 38.287069 
L 140.394191 38.584411 
L 140.691533 38.881753 
L 140.691533 39.179094 
L 140.691533 39.476436 
L 140.988874 39.773777 
L 141.583558 40.665802 
L 141.880899 41.557827 
L 142.178241 42.152511 
L 142.475583 42.747194 
L 142.772924 43.639219 
L 143.070266 43.936561 
L 143.367607 44.531244 
L 143.367607 44.828585 
" style="fill:none;stroke:#8c8c8c;stroke-linecap:square;"/>
   </g>
   <g id="line2d_6">
    <path clip-path="url(#p0f0d5fffa9)" d="M 140.988874 41.855169 
L 140.691533 41.855169 
L 140.988874 41.855169 
L 140.988874 41.557827 
L 141.286216 41.557827 
L 141.583558 41.557827 
L 142.178241 41.557827 
L 142.772924 41.557827 
L 143.070266 41.260486 
L 143.367607 41.260486 
L 143.664949 41.260486 
" style="fill:none;stroke:#8c8c8c;stroke-linecap:square;"/>
   </g>
   <g id="line2d_7">
    <path clip-path="url(#p0f0d5fffa9)" d="M 145.151657 40.665802 
L 145.448999 40.665802 
L 145.448999 40.963144 
L 145.746341 40.963144 
L 146.341024 40.963144 
L 146.341024 40.665802 
L 146.935707 40.665802 
L 147.233049 40.368461 
L 147.530391 40.071119 
L 147.827732 40.071119 
L 147.827732 39.773777 
L 148.125074 39.476436 
L 148.125074 39.179094 
L 148.125074 38.881753 
L 148.125074 38.584411 
L 148.125074 38.287069 
L 147.827732 38.287069 
L 147.530391 38.287069 
L 146.935707 38.287069 
L 146.935707 38.584411 
L 146.638366 38.881753 
L 146.341024 39.476436 
L 146.341024 40.071119 
L 146.341024 40.368461 
L 146.638366 40.963144 
L 146.638366 41.557827 
L 146.935707 42.152511 
L 147.530391 42.449852 
L 147.827732 42.747194 
L 148.125074 42.747194 
L 148.422415 42.747194 
L 148.719757 42.747194 
L 149.31444 42.747194 
L 149.31444 42.449852 
L 149.611782 42.449852 
L 149.909124 42.152511 
L 149.909124 41.855169 
L 149.909124 41.557827 
L 150.206465 41.260486 
L 150.206465 40.963144 
L 150.206465 40.665802 
L 150.206465 40.368461 
L 150.503807 40.368461 
L 150.503807 40.665802 
L 150.503807 40.963144 
L 150.801149 40.963144 
L 150.801149 41.260486 
L 151.09849 41.557827 
L 151.09849 41.855169 
L 151.395832 41.855169 
L 151.395832 42.152511 
L 151.395832 42.449852 
L 151.395832 42.152511 
L 151.395832 41.855169 
L 151.395832 41.557827 
L 151.09849 41.557827 
L 151.09849 40.963144 
L 151.09849 40.665802 
L 151.09849 40.071119 
L 151.09849 39.773777 
L 151.395832 39.476436 
L 151.395832 38.881753 
L 151.693174 38.584411 
L 151.990515 38.287069 
L 152.287857 38.287069 
" style="fill:none;stroke:#8c8c8c;stroke-linecap:square;"/>
   </g>
   <g id="line2d_8">
    <path clip-path="url(#p0f0d5fffa9)" d="M 155.261273 37.989728 
L 155.558615 37.989728 
L 155.558615 38.287069 
L 155.558615 38.584411 
L 154.963932 39.476436 
L 154.66659 40.071119 
L 154.66659 40.368461 
L 154.66659 40.665802 
L 154.66659 40.963144 
L 154.66659 41.260486 
L 154.963932 41.557827 
L 155.261273 41.557827 
L 155.558615 41.557827 
L 155.855957 41.260486 
L 156.153298 40.963144 
L 156.153298 40.665802 
L 156.153298 40.368461 
L 156.153298 40.071119 
L 156.153298 39.476436 
L 156.153298 39.179094 
L 156.153298 38.881753 
L 155.855957 38.881753 
L 155.855957 38.584411 
L 155.855957 38.881753 
L 156.153298 38.881753 
L 156.45064 39.179094 
L 156.747982 39.179094 
L 157.045323 39.476436 
L 157.640007 40.071119 
L 157.937348 40.368461 
L 158.532032 40.665802 
L 159.126715 41.260486 
L 159.424056 41.557827 
L 159.721398 42.152511 
L 159.721398 43.044536 
L 160.01874 43.639219 
L 159.721398 44.531244 
L 159.424056 45.125927 
L 159.126715 45.72061 
L 158.23469 46.612635 
L 157.640007 46.909977 
L 156.45064 47.207319 
L 155.855957 46.909977 
L 154.963932 46.909977 
L 154.369248 46.612635 
" style="fill:none;stroke:#8c8c8c;stroke-linecap:square;"/>
   </g>
   <g id="line2d_9">
    <path clip-path="url(#p0f0d5fffa9)" d="M 157.045323 33.232261 
L 157.045323 33.529603 
L 157.045323 33.826945 
L 157.342665 33.826945 
L 157.342665 34.124286 
L 157.640007 34.718969 
L 157.937348 35.313653 
L 158.829373 36.503019 
L 159.126715 37.097703 
L 159.721398 37.692386 
L 160.316081 38.584411 
L 160.613423 39.179094 
L 161.208106 39.773777 
L 161.208106 40.071119 
L 161.505448 40.071119 
" style="fill:none;stroke:#8c8c8c;stroke-linecap:square;"/>
   </g>
   <g id="line2d_10">
    <path clip-path="url(#p0f0d5fffa9)" d="M 163.884181 37.692386 
L 163.884181 37.395044 
L 164.181523 37.097703 
L 163.884181 36.800361 
L 163.58684 36.503019 
L 163.58684 36.800361 
L 163.289498 36.800361 
L 162.992156 37.097703 
L 162.694815 37.097703 
L 162.397473 37.692386 
L 162.397473 37.989728 
L 162.397473 38.584411 
L 162.397473 38.881753 
L 162.397473 39.179094 
L 162.694815 39.476436 
L 162.992156 39.476436 
L 163.289498 39.476436 
L 163.289498 39.179094 
L 163.884181 38.881753 
L 163.884181 38.584411 
L 164.181523 37.989728 
L 164.478864 37.692386 
L 164.478864 37.097703 
L 164.776206 36.800361 
L 164.776206 36.205678 
L 164.776206 35.908336 
L 164.776206 36.205678 
L 164.776206 36.503019 
L 165.073548 36.800361 
L 165.073548 37.097703 
L 165.073548 37.692386 
L 165.370889 37.989728 
L 165.370889 38.584411 
L 165.668231 38.881753 
L 165.668231 39.179094 
L 165.965573 39.476436 
" style="fill:none;stroke:#8c8c8c;stroke-linecap:square;"/>
   </g>
   <g id="line2d_11">
    <path clip-path="url(#p0f0d5fffa9)" d="M 168.938989 35.908336 
L 168.938989 35.610994 
L 168.938989 35.313653 
L 168.641648 35.313653 
L 168.344306 35.610994 
L 168.046964 35.610994 
L 167.749623 36.205678 
L 167.749623 36.503019 
L 167.452281 36.800361 
L 167.452281 37.395044 
L 167.452281 37.692386 
L 167.452281 38.287069 
L 167.749623 38.584411 
L 168.046964 38.881753 
L 168.641648 39.179094 
L 168.938989 39.476436 
L 169.533672 39.476436 
L 169.831014 39.179094 
L 170.425697 39.179094 
L 170.723039 38.584411 
" style="fill:none;stroke:#8c8c8c;stroke-linecap:square;"/>
   </g>
   <g id="line2d_12">
    <path clip-path="url(#p0f0d5fffa9)" d="M 171.912406 35.016311 
L 172.209747 35.016311 
L 172.209747 35.313653 
L 172.507089 35.610994 
L 172.507089 35.908336 
L 172.507089 36.205678 
L 172.804431 36.800361 
L 173.101772 37.395044 
L 173.101772 37.692386 
L 173.399114 37.989728 
L 173.399114 38.287069 
L 173.399114 37.989728 
" style="fill:none;stroke:#8c8c8c;stroke-linecap:square;"/>
   </g>
   <g id="line2d_13">
    <path clip-path="url(#p0f0d5fffa9)" d="M 171.615064 33.529603 
L 171.615064 33.232261 
L 171.615064 32.340236 
L 171.615064 32.042895 
L 171.317722 31.745553 
L 171.317722 31.448211 
L 171.317722 31.15087 
" style="fill:none;stroke:#8c8c8c;stroke-linecap:square;"/>
   </g>
   <g id="line2d_14">
    <path clip-path="url(#p0f0d5fffa9)" d="M 175.777847 33.826945 
L 175.777847 34.124286 
L 175.777847 34.421628 
L 175.480505 34.421628 
L 175.480505 34.718969 
L 175.183164 35.016311 
L 174.885822 35.610994 
L 174.58848 35.908336 
L 174.58848 36.205678 
L 174.291139 36.503019 
L 174.291139 36.800361 
L 174.291139 37.097703 
L 174.58848 37.395044 
L 174.885822 37.395044 
L 174.885822 37.692386 
L 175.480505 37.395044 
L 175.777847 37.097703 
L 176.075189 36.800361 
L 176.669872 36.503019 
L 176.967214 35.610994 
L 176.967214 35.016311 
L 177.264555 34.421628 
L 177.264555 33.826945 
L 177.264555 33.529603 
L 176.967214 32.93492 
L 176.967214 32.637578 
L 176.967214 32.93492 
L 177.561897 34.421628 
L 177.859239 35.610994 
L 178.15658 36.205678 
L 178.453922 36.800361 
L 179.048605 37.692386 
L 179.345947 37.989728 
L 179.345947 38.287069 
L 179.643288 38.287069 
L 179.643288 37.989728 
" style="fill:none;stroke:#8c8c8c;stroke-linecap:square;"/>
   </g>
   <g id="line2d_15">
    <path clip-path="url(#p0f0d5fffa9)" d="M 179.048605 29.664161 
L 179.048605 29.069478 
L 179.048605 28.772137 
L 179.048605 28.474795 
L 179.048605 28.772137 
L 179.345947 29.069478 
L 179.345947 29.36682 
L 179.94063 30.258845 
L 180.237972 31.15087 
L 180.832655 32.042895 
L 181.129997 32.93492 
L 182.022022 34.421628 
L 182.616705 35.610994 
L 182.914047 36.205678 
L 183.211388 36.800361 
L 183.50873 37.395044 
L 183.50873 37.989728 
" style="fill:none;stroke:#8c8c8c;stroke-linecap:square;"/>
   </g>
   <g id="line2d_16">
    <path clip-path="url(#p0f0d5fffa9)" d="M 96.090286 175.956252 
L 96.387627 175.956252 
L 96.387627 175.65891 
L 96.684969 175.65891 
L 96.684969 177.740302 
L 96.98231 177.740302 
L 96.98231 178.334985 
L 97.279652 178.334985 
L 97.279652 178.632327 
L 97.576994 178.632327 
L 97.576994 178.929669 
L 97.874335 179.22701 
L 98.171677 179.821693 
L 98.469019 179.821693 
L 98.76636 180.119035 
L 98.76636 180.416377 
L 99.361044 180.713718 
L 99.361044 181.01106 
L 99.955727 181.308402 
L 99.955727 181.605743 
L 100.253069 181.903085 
L 100.55041 182.497768 
L 100.847752 182.497768 
L 101.145094 182.79511 
L 101.739777 183.984477 
L 102.33446 184.57916 
L 102.631802 185.173843 
L 102.929143 185.471185 
L 102.929143 186.065868 
L 103.226485 186.660551 
L 103.523827 186.957893 
L 103.523827 187.255235 
L 103.821168 187.849918 
L 104.11851 188.14726 
L 104.11851 188.741943 
L 104.415852 189.039285 
L 104.415852 190.228651 
L 104.713193 190.823334 
L 104.713193 192.904726 
L 105.010535 194.094093 
L 105.010535 201.527634 
L 104.713193 202.419659 
L 104.713193 205.690417 
L 104.415852 206.2851 
L 104.415852 211.339908 
L 104.713193 211.934591 
L 104.713193 213.123958 
L 105.010535 213.718641 
L 105.010535 214.610666 
L 105.307877 215.20535 
L 105.307877 215.800033 
L 105.605218 216.394716 
L 107.389268 221.746866 
L 107.983951 222.638891 
L 107.983951 223.233574 
L 108.281293 223.828257 
L 109.173318 225.314966 
L 110.065343 227.099015 
L 110.362685 227.99104 
L 110.957368 228.585724 
L 111.552051 229.77509 
L 112.146734 230.667115 
L 113.038759 232.451165 
L 113.336101 233.34319 
L 113.930784 234.235215 
L 114.525468 235.424582 
L 116.012176 239.587365 
L 116.606859 241.074073 
L 116.904201 242.560781 
L 116.904201 243.155464 
L 117.796226 246.723564 
L 117.796226 248.507614 
L 117.498884 248.804956 
L 117.498884 248.804956 
" style="fill:none;stroke:#8c8c8c;stroke-linecap:square;"/>
   </g>
   <g id="line2d_17">
    <path clip-path="url(#p0f0d5fffa9)" d="M 107.091926 260.995963 
L 107.389268 260.995963 
L 107.68661 260.995963 
L 107.68661 260.698622 
L 107.983951 260.698622 
L 107.983951 260.40128 
L 108.281293 260.40128 
L 108.578635 260.103938 
L 108.875976 259.806597 
L 109.173318 259.806597 
L 109.47066 259.806597 
L 109.47066 260.103938 
L 109.768001 260.103938 
L 109.768001 260.40128 
L 110.065343 260.698622 
L 110.362685 260.698622 
L 110.660026 260.995963 
L 110.957368 261.293305 
L 111.25471 261.887988 
L 111.849393 262.18533 
L 112.146734 262.482671 
L 112.444076 262.482671 
L 112.741418 262.780013 
L 113.336101 262.780013 
L 113.633443 262.780013 
L 113.930784 262.482671 
L 114.228126 262.482671 
L 114.525468 262.482671 
L 114.822809 262.18533 
" style="fill:none;stroke:#8c8c8c;stroke-linecap:square;"/>
   </g>
   <g id="line2d_18">
    <path clip-path="url(#p0f0d5fffa9)" d="M 117.201543 258.61723 
L 117.201543 258.319888 
L 117.498884 258.319888 
L 117.498884 258.022547 
L 117.796226 258.022547 
L 118.093567 257.725205 
L 118.390909 257.427863 
L 118.688251 257.427863 
L 118.985592 257.427863 
L 119.282934 257.725205 
L 119.282934 258.022547 
L 119.282934 258.319888 
L 119.282934 258.914572 
L 119.282934 259.806597 
L 118.985592 260.698622 
L 118.985592 261.293305 
L 118.688251 262.482671 
L 118.688251 263.077355 
L 118.688251 263.96938 
L 118.688251 264.564063 
L 118.985592 264.861405 
L 119.282934 265.158746 
L 119.580276 265.456088 
L 119.877617 265.75343 
L 120.472301 265.75343 
L 120.769642 265.75343 
L 121.364326 265.75343 
L 121.959009 265.456088 
L 122.256351 265.456088 
L 122.553692 265.158746 
L 122.553692 264.861405 
L 122.851034 264.564063 
" style="fill:none;stroke:#8c8c8c;stroke-linecap:square;"/>
   </g>
   <g id="line2d_19">
    <path clip-path="url(#p0f0d5fffa9)" d="M 124.0404 260.40128 
L 124.0404 260.103938 
L 124.0404 259.509255 
L 123.743059 259.509255 
L 123.743059 259.211913 
L 123.445717 259.211913 
L 123.148375 259.211913 
L 123.148375 259.509255 
L 122.851034 259.509255 
L 122.851034 259.806597 
L 122.851034 260.103938 
L 122.851034 260.40128 
L 122.851034 260.995963 
L 122.851034 261.590647 
L 123.445717 262.18533 
L 123.743059 262.482671 
L 124.0404 262.780013 
L 124.635084 262.780013 
L 125.229767 263.077355 
L 125.527109 262.780013 
L 126.121792 262.482671 
L 126.419134 261.887988 
L 126.419134 261.293305 
L 126.419134 260.40128 
L 126.419134 259.806597 
L 126.419134 259.509255 
L 125.82445 258.61723 
L 125.527109 258.319888 
L 125.229767 258.022547 
L 124.932425 258.022547 
L 124.635084 258.022547 
L 124.337742 258.022547 
L 124.0404 258.319888 
L 123.743059 258.319888 
L 123.445717 258.61723 
L 123.148375 259.211913 
" style="fill:none;stroke:#8c8c8c;stroke-linecap:square;"/>
   </g>
   <g id="line2d_20">
    <path clip-path="url(#p0f0d5fffa9)" d="M 129.689892 256.83318 
L 129.689892 256.535839 
L 129.39255 256.535839 
L 129.39255 256.83318 
L 129.689892 256.83318 
L 129.689892 257.130522 
L 129.689892 257.427863 
L 129.987233 258.022547 
L 130.284575 258.319888 
L 130.581917 259.211913 
L 130.879258 260.103938 
L 131.1766 260.995963 
L 131.1766 261.590647 
L 131.473942 262.18533 
L 131.473942 262.780013 
L 131.771283 263.077355 
L 131.771283 263.374696 
" style="fill:none;stroke:#8c8c8c;stroke-linecap:square;"/>
   </g>
   <g id="line2d_21">
    <path clip-path="url(#p0f0d5fffa9)" d="M 133.852675 257.725205 
L 133.852675 257.427863 
L 133.852675 257.725205 
L 133.555333 258.022547 
L 133.555333 258.319888 
L 133.555333 258.61723 
L 133.257991 259.211913 
L 132.96065 259.806597 
L 132.96065 260.103938 
L 132.365967 260.698622 
L 132.068625 260.995963 
L 131.771283 261.293305 
L 131.771283 260.995963 
L 132.068625 260.995963 
L 132.365967 260.698622 
L 132.663308 260.698622 
L 132.96065 260.698622 
L 133.257991 260.698622 
L 133.555333 260.698622 
L 134.150016 260.995963 
L 134.447358 261.293305 
L 135.042041 261.590647 
L 135.339383 262.18533 
L 135.636725 262.482671 
L 135.934066 262.780013 
L 136.231408 262.780013 
L 136.231408 263.077355 
L 136.231408 262.780013 
" style="fill:none;stroke:#8c8c8c;stroke-linecap:square;"/>
   </g>
   <g id="line2d_22">
    <path clip-path="url(#p0f0d5fffa9)" d="M 136.826091 260.698622 
L 137.123433 260.995963 
L 137.123433 261.293305 
L 137.420775 261.590647 
L 137.718116 261.887988 
L 138.312799 262.18533 
L 138.610141 262.18533 
L 138.907483 262.18533 
L 139.204824 261.887988 
L 139.502166 261.590647 
L 140.096849 260.995963 
L 140.096849 260.698622 
L 140.096849 260.103938 
L 140.394191 259.509255 
L 140.394191 259.211913 
L 140.096849 258.914572 
L 140.096849 258.61723 
L 140.096849 258.319888 
L 140.096849 258.61723 
L 140.394191 258.914572 
L 140.394191 259.211913 
L 140.394191 259.806597 
L 140.691533 260.40128 
L 140.691533 260.995963 
L 140.988874 261.887988 
L 141.286216 262.482671 
L 141.583558 263.672038 
L 141.880899 263.96938 
L 142.178241 264.861405 
L 142.178241 265.158746 
L 142.475583 265.456088 
L 142.475583 265.75343 
L 142.475583 266.050771 
L 142.475583 265.75343 
" style="fill:none;stroke:#8c8c8c;stroke-linecap:square;"/>
   </g>
   <g id="line2d_23">
    <path clip-path="url(#p0f0d5fffa9)" d="M 143.962291 258.61723 
L 143.962291 258.319888 
L 143.664949 258.319888 
L 143.664949 258.022547 
L 143.664949 258.319888 
L 143.367607 258.319888 
L 143.070266 258.319888 
L 143.070266 258.61723 
L 142.772924 259.211913 
L 142.475583 259.806597 
L 142.178241 260.103938 
L 142.178241 260.995963 
L 142.178241 261.293305 
L 142.475583 261.590647 
L 142.772924 261.887988 
L 143.070266 262.18533 
L 143.367607 261.887988 
L 143.664949 261.590647 
L 143.962291 261.293305 
L 144.259632 260.698622 
L 144.556974 260.103938 
L 144.556974 259.509255 
L 144.556974 259.211913 
L 144.854316 258.914572 
L 144.854316 258.61723 
L 144.854316 258.319888 
L 145.151657 258.319888 
L 145.448999 258.61723 
L 145.448999 258.914572 
L 145.746341 259.509255 
L 146.043682 260.103938 
L 146.341024 260.40128 
L 146.638366 260.995963 
L 146.638366 261.293305 
L 146.935707 261.590647 
L 146.935707 261.887988 
" style="fill:none;stroke:#8c8c8c;stroke-linecap:square;"/>
   </g>
   <g id="line2d_24">
    <path clip-path="url(#p0f0d5fffa9)" d="M 156.45064 254.751789 
L 156.45064 254.454447 
L 156.45064 254.157105 
L 156.45064 253.859764 
L 156.45064 253.562422 
L 156.45064 253.26508 
L 156.45064 253.562422 
L 156.45064 253.859764 
L 156.45064 254.157105 
L 156.45064 254.454447 
L 156.45064 255.04913 
L 156.45064 255.941155 
L 156.45064 256.535839 
L 156.45064 257.130522 
L 156.45064 258.022547 
L 156.45064 258.319888 
L 156.45064 258.914572 
L 156.45064 259.509255 
L 156.45064 259.806597 
L 156.747982 260.103938 
L 157.045323 260.40128 
L 157.342665 260.698622 
L 157.937348 260.698622 
L 158.532032 260.698622 
L 159.126715 260.698622 
L 160.01874 260.698622 
L 160.613423 260.698622 
L 161.208106 260.698622 
L 161.80279 260.698622 
L 162.100131 260.698622 
L 162.397473 260.698622 
L 162.992156 260.698622 
L 163.289498 260.698622 
L 163.58684 260.698622 
L 163.884181 260.698622 
" style="fill:none;stroke:#8c8c8c;stroke-linecap:square;"/>
   </g>
   <g id="line2d_25">
    <path clip-path="url(#p0f0d5fffa9)" d="M 165.965573 258.61723 
L 165.965573 258.319888 
L 165.668231 258.319888 
L 165.370889 258.319888 
L 165.073548 258.319888 
L 164.776206 258.319888 
L 164.478864 258.319888 
L 164.181523 258.61723 
L 164.181523 258.914572 
L 163.884181 258.914572 
L 163.884181 259.211913 
L 164.181523 259.211913 
L 164.478864 259.211913 
L 164.478864 258.914572 
L 164.776206 258.914572 
L 165.073548 258.61723 
L 165.073548 258.022547 
L 165.370889 257.725205 
L 165.370889 257.427863 
L 165.370889 257.130522 
L 165.370889 256.83318 
L 165.370889 256.535839 
L 165.668231 256.535839 
L 165.965573 256.83318 
L 165.965573 257.130522 
L 166.262914 257.725205 
L 166.262914 258.022547 
L 166.560256 258.61723 
L 166.857598 259.211913 
L 167.154939 259.806597 
L 167.154939 260.103938 
L 167.452281 260.40128 
L 167.452281 260.698622 
L 167.749623 260.995963 
" style="fill:none;stroke:#8c8c8c;stroke-linecap:square;"/>
   </g>
   <g id="line2d_26">
    <path clip-path="url(#p0f0d5fffa9)" d="M 170.128356 256.83318 
L 169.831014 256.535839 
L 169.533672 256.535839 
L 169.236331 256.535839 
L 169.236331 256.83318 
L 169.236331 257.130522 
L 168.938989 257.130522 
L 168.938989 257.427863 
L 168.938989 257.725205 
L 168.938989 258.022547 
L 168.938989 258.319888 
L 169.236331 258.319888 
L 169.533672 258.319888 
L 169.831014 258.319888 
L 170.128356 258.319888 
L 170.425697 258.319888 
L 171.020381 258.319888 
L 171.615064 258.319888 
L 171.912406 258.61723 
L 172.209747 258.61723 
L 172.209747 258.914572 
L 172.507089 259.211913 
L 172.804431 259.509255 
L 172.804431 259.806597 
L 172.507089 259.806597 
L 172.507089 260.40128 
L 172.209747 260.40128 
L 171.912406 260.40128 
L 171.615064 260.698622 
" style="fill:none;stroke:#8c8c8c;stroke-linecap:square;"/>
   </g>
   <g id="line2d_27">
    <path clip-path="url(#p0f0d5fffa9)" d="M 171.615064 257.130522 
L 171.912406 256.83318 
L 171.912406 256.535839 
L 172.209747 256.535839 
L 172.507089 256.83318 
L 172.804431 256.83318 
L 173.101772 257.427863 
L 173.399114 257.725205 
L 173.993797 258.61723 
L 174.58848 259.509255 
L 174.885822 260.103938 
L 175.183164 260.698622 
L 175.480505 260.995963 
L 175.777847 261.293305 
L 175.777847 261.590647 
" style="fill:none;stroke:#8c8c8c;stroke-linecap:square;"/>
   </g>
   <g id="line2d_28">
    <path clip-path="url(#p0f0d5fffa9)" d="M 172.804431 259.806597 
L 172.507089 259.509255 
L 172.507089 259.211913 
L 172.804431 259.211913 
L 173.101772 258.914572 
L 173.399114 258.914572 
L 173.993797 258.61723 
L 174.291139 258.61723 
L 175.183164 258.319888 
L 175.480505 258.319888 
L 176.075189 258.022547 
L 176.669872 258.022547 
L 176.669872 257.725205 
" style="fill:none;stroke:#8c8c8c;stroke-linecap:square;"/>
   </g>
   <g id="line2d_29">
    <path clip-path="url(#p0f0d5fffa9)" d="M 188.563538 257.427863 
L 188.86088 257.130522 
L 189.158221 257.130522 
L 189.158221 256.83318 
L 188.86088 256.83318 
L 188.86088 257.130522 
L 188.563538 257.130522 
L 188.266196 257.130522 
L 187.968855 257.427863 
L 187.671513 257.725205 
L 187.07683 258.61723 
L 187.07683 259.211913 
L 186.779488 260.103938 
L 186.779488 260.698622 
L 187.07683 260.995963 
L 187.671513 261.293305 
L 187.968855 261.293305 
L 188.563538 261.293305 
L 189.158221 260.995963 
L 189.455563 260.698622 
L 189.752904 260.103938 
L 190.050246 259.806597 
L 190.050246 259.211913 
L 190.050246 258.914572 
L 190.050246 258.61723 
L 190.050246 258.022547 
L 190.050246 257.725205 
L 190.050246 257.427863 
L 190.050246 257.725205 
L 190.347588 257.725205 
L 190.644929 258.022547 
L 190.942271 258.319888 
L 191.239613 258.61723 
L 191.834296 259.509255 
L 192.131638 260.103938 
L 192.428979 260.995963 
L 193.023663 261.887988 
L 193.321004 262.780013 
L 193.321004 263.374696 
L 193.023663 264.564063 
L 192.726321 265.158746 
L 192.131638 265.75343 
L 191.834296 266.348113 
L 191.239613 266.348113 
L 190.347588 266.645455 
L 189.455563 266.645455 
L 188.86088 266.050771 
L 188.266196 265.75343 
L 187.968855 265.158746 
L 187.968855 264.861405 
" style="fill:none;stroke:#8c8c8c;stroke-linecap:square;"/>
   </g>
   <g id="line2d_30">
    <path clip-path="url(#p0f0d5fffa9)" d="M 192.131638 253.859764 
L 192.428979 253.859764 
L 192.428979 254.157105 
L 192.428979 254.454447 
L 192.726321 254.751789 
L 193.023663 255.04913 
L 193.321004 255.941155 
L 193.618346 256.535839 
L 194.213029 257.725205 
L 194.510371 258.61723 
L 194.807713 259.211913 
L 195.105054 260.40128 
L 195.402396 260.995963 
L 195.699737 261.293305 
L 195.699737 261.590647 
L 195.997079 261.887988 
" style="fill:none;stroke:#8c8c8c;stroke-linecap:square;"/>
   </g>
   <g id="line2d_31">
    <path clip-path="url(#p0f0d5fffa9)" d="M 198.970496 258.319888 
L 198.970496 258.022547 
L 198.970496 257.725205 
L 198.970496 257.427863 
L 198.673154 257.427863 
L 198.375812 257.130522 
L 198.078471 257.130522 
L 197.781129 257.427863 
L 197.483787 257.427863 
L 197.186446 257.427863 
L 196.889104 258.022547 
L 196.591762 258.319888 
L 196.294421 258.61723 
L 196.294421 259.211913 
L 196.294421 259.806597 
L 196.294421 260.103938 
L 196.591762 260.40128 
L 197.186446 260.698622 
L 197.483787 260.698622 
L 198.078471 260.40128 
L 198.673154 260.103938 
L 198.673154 259.806597 
L 198.970496 259.211913 
L 199.267837 258.914572 
L 199.565179 258.319888 
L 199.565179 258.022547 
L 199.565179 257.427863 
L 199.862521 257.130522 
L 199.862521 256.83318 
L 199.862521 257.130522 
L 200.159862 257.427863 
L 200.159862 257.725205 
L 200.159862 258.022547 
L 200.457204 258.914572 
L 200.754545 259.509255 
L 200.754545 260.103938 
L 201.051887 260.698622 
L 201.349229 260.995963 
" style="fill:none;stroke:#8c8c8c;stroke-linecap:square;"/>
   </g>
   <g id="line2d_32">
    <path clip-path="url(#p0f0d5fffa9)" d="M 204.322645 256.535839 
L 204.025304 256.535839 
L 204.025304 256.83318 
L 203.727962 256.83318 
L 203.43062 256.83318 
L 203.43062 257.130522 
L 203.133279 257.427863 
L 202.835937 257.427863 
L 202.835937 258.022547 
L 202.538595 258.319888 
L 202.241254 258.914572 
L 202.241254 259.509255 
L 202.538595 260.103938 
L 202.538595 260.698622 
L 202.835937 260.995963 
L 203.133279 261.293305 
L 203.727962 261.590647 
L 204.025304 261.590647 
L 204.322645 261.590647 
L 204.322645 261.293305 
L 204.619987 260.698622 
" style="fill:none;stroke:#8c8c8c;stroke-linecap:square;"/>
   </g>
   <g id="line2d_33">
    <path clip-path="url(#p0f0d5fffa9)" d="M 206.106695 257.725205 
L 206.404037 257.725205 
L 206.404037 258.022547 
L 206.404037 258.319888 
L 206.701378 258.914572 
L 206.701378 259.211913 
L 206.99872 259.509255 
L 206.99872 259.806597 
L 206.99872 260.103938 
" style="fill:none;stroke:#8c8c8c;stroke-linecap:square;"/>
   </g>
   <g id="line2d_34">
    <path clip-path="url(#p0f0d5fffa9)" d="M 205.809353 254.454447 
L 205.809353 254.157105 
L 205.809353 253.859764 
" style="fill:none;stroke:#8c8c8c;stroke-linecap:square;"/>
   </g>
   <g id="line2d_35">
    <path clip-path="url(#p0f0d5fffa9)" d="M 209.972137 255.643814 
L 209.972137 255.941155 
L 209.674795 255.941155 
L 209.674795 256.238497 
L 209.377453 256.238497 
L 209.377453 256.535839 
L 209.080112 256.535839 
L 209.080112 257.130522 
L 208.78277 257.427863 
L 208.485428 258.022547 
L 208.485428 258.61723 
L 208.188087 259.509255 
L 208.188087 259.806597 
L 208.188087 260.40128 
L 208.485428 260.698622 
L 208.78277 260.995963 
L 209.080112 260.995963 
L 209.377453 260.995963 
L 209.377453 260.698622 
L 209.674795 260.40128 
L 209.972137 259.806597 
L 209.972137 259.211913 
L 209.972137 258.61723 
L 209.972137 258.319888 
L 209.972137 257.725205 
L 209.972137 257.130522 
L 209.972137 256.83318 
L 209.972137 256.535839 
L 209.972137 256.83318 
L 209.972137 257.130522 
L 209.972137 257.427863 
L 210.269478 258.022547 
L 210.269478 258.61723 
L 210.56682 259.211913 
L 210.864161 260.103938 
L 210.864161 260.698622 
L 211.161503 260.995963 
L 211.458845 261.590647 
L 211.756186 261.887988 
" style="fill:none;stroke:#8c8c8c;stroke-linecap:square;"/>
   </g>
   <g id="line2d_36">
    <path clip-path="url(#p0f0d5fffa9)" d="M 215.621628 248.804956 
L 215.621628 249.102297 
L 215.621628 249.399639 
L 215.621628 249.696981 
L 215.621628 249.994322 
L 215.621628 250.291664 
L 215.918969 250.886347 
L 216.216311 252.075714 
L 216.513653 252.967739 
L 216.810994 254.157105 
L 217.703019 255.941155 
L 218.000361 257.130522 
L 218.595044 258.61723 
L 218.892386 260.103938 
L 219.189728 260.995963 
L 219.189728 261.590647 
L 219.189728 261.887988 
" style="fill:none;stroke:#8c8c8c;stroke-linecap:square;"/>
   </g>
   <g id="line2d_37">
    <path clip-path="url(#p0f0d5fffa9)" d="M 226.325927 258.61723 
L 226.325927 258.319888 
L 226.028585 258.319888 
L 226.325927 258.319888 
L 226.325927 258.61723 
L 226.325927 258.914572 
L 226.623269 259.211913 
L 226.623269 259.509255 
L 226.92061 260.103938 
L 227.217952 260.698622 
L 227.515294 260.995963 
L 227.515294 261.293305 
L 227.812635 261.293305 
L 227.812635 261.590647 
L 227.812635 261.293305 
L 227.515294 260.995963 
L 227.515294 260.698622 
L 227.217952 260.103938 
L 226.92061 259.509255 
L 226.623269 258.61723 
L 226.028585 257.725205 
L 225.731244 256.535839 
L 225.433902 255.643814 
L 225.433902 255.346472 
L 225.433902 254.751789 
L 225.433902 254.454447 
L 225.731244 254.454447 
L 226.028585 254.454447 
L 226.325927 254.751789 
L 226.623269 255.04913 
L 226.92061 255.346472 
L 227.217952 255.941155 
L 227.515294 256.238497 
L 227.812635 256.535839 
L 227.812635 256.83318 
L 228.109977 257.130522 
L 228.109977 256.83318 
L 228.109977 256.535839 
L 227.812635 256.535839 
L 227.812635 255.941155 
L 227.812635 255.346472 
L 227.812635 255.04913 
L 228.109977 254.454447 
L 228.109977 253.859764 
L 228.407319 253.562422 
L 228.407319 253.26508 
L 228.70466 253.26508 
L 229.002002 253.26508 
L 229.299344 253.26508 
L 229.596685 253.26508 
L 230.191369 253.859764 
L 230.48871 254.454447 
L 230.786052 255.346472 
L 231.380735 256.238497 
L 231.678077 257.130522 
L 231.975418 258.319888 
L 232.27276 259.211913 
L 232.570102 260.103938 
L 232.570102 260.40128 
L 232.867443 260.995963 
L 232.867443 260.698622 
" style="fill:none;stroke:#8c8c8c;stroke-linecap:square;"/>
   </g>
   <g id="line2d_38">
    <path clip-path="url(#p0f0d5fffa9)" d="M 235.84086 256.238497 
L 235.84086 257.130522 
L 236.138202 257.427863 
L 236.138202 257.725205 
L 236.138202 258.319888 
L 236.435543 259.211913 
L 236.435543 259.509255 
L 236.435543 259.806597 
L 236.435543 260.40128 
L 236.732885 260.698622 
L 236.732885 260.995963 
L 236.732885 260.698622 
L 236.435543 259.806597 
L 236.435543 259.509255 
L 236.138202 259.211913 
L 235.84086 258.61723 
L 235.543518 258.61723 
L 235.246177 258.022547 
L 234.948835 258.022547 
L 234.651493 258.022547 
L 234.354152 258.022547 
L 234.05681 258.022547 
L 234.05681 258.319888 
L 233.759468 258.319888 
L 233.759468 258.914572 
L 233.462127 259.211913 
L 233.759468 259.509255 
L 233.759468 260.103938 
L 234.05681 260.40128 
L 234.354152 260.698622 
L 234.948835 260.995963 
L 235.246177 260.995963 
L 235.84086 260.698622 
L 236.138202 260.40128 
" style="fill:none;stroke:#8c8c8c;stroke-linecap:square;"/>
   </g>
   <g id="line2d_39">
    <path clip-path="url(#p0f0d5fffa9)" d="M 239.706301 256.83318 
L 239.706301 257.130522 
L 240.003643 257.130522 
L 240.003643 257.725205 
L 239.706301 257.725205 
L 239.706301 258.319888 
L 239.706301 258.61723 
L 239.706301 259.211913 
L 239.706301 259.509255 
L 239.706301 260.40128 
L 239.706301 260.698622 
L 239.40896 260.995963 
L 239.40896 261.293305 
L 239.40896 261.590647 
L 239.111618 261.590647 
" style="fill:none;stroke:#8c8c8c;stroke-linecap:square;"/>
   </g>
   <g id="line2d_40">
    <path clip-path="url(#p0f0d5fffa9)" d="M 237.922251 257.725205 
L 237.922251 257.427863 
L 238.219593 257.427863 
L 238.516935 257.725205 
L 239.111618 258.022547 
L 239.40896 258.61723 
L 240.003643 259.211913 
L 240.300985 259.509255 
L 240.598326 260.103938 
L 241.19301 260.995963 
L 241.19301 261.293305 
L 241.490351 261.590647 
L 241.787693 261.887988 
" style="fill:none;stroke:#8c8c8c;stroke-linecap:square;"/>
   </g>
   <g id="line2d_41">
    <path clip-path="url(#p0f0d5fffa9)" d="M 242.679718 259.509255 
L 242.977059 259.509255 
L 242.977059 259.806597 
L 243.274401 259.806597 
L 243.274401 260.103938 
" style="fill:none;stroke:#8c8c8c;stroke-linecap:square;"/>
   </g>
   <g id="line2d_42">
    <path clip-path="url(#p0f0d5fffa9)" d="M 242.977059 257.427863 
L 242.679718 256.83318 
L 242.679718 256.535839 
L 242.679718 256.238497 
L 242.679718 255.941155 
" style="fill:none;stroke:#8c8c8c;stroke-linecap:square;"/>
   </g>
   <g id="line2d_43">
    <path clip-path="url(#p0f0d5fffa9)" d="M 245.058451 259.806597 
L 245.058451 260.103938 
L 245.058451 260.40128 
L 245.355793 260.40128 
L 245.355793 260.995963 
L 245.355793 261.293305 
L 245.653134 261.887988 
L 245.950476 262.18533 
L 245.950476 262.482671 
L 245.950476 262.780013 
L 245.950476 262.482671 
L 245.950476 261.887988 
L 245.653134 261.590647 
L 245.653134 260.995963 
L 245.653134 260.698622 
L 245.355793 259.806597 
L 245.653134 259.211913 
L 245.653134 258.914572 
L 245.653134 258.61723 
L 245.950476 258.61723 
L 246.247818 258.61723 
L 246.545159 258.914572 
L 246.545159 259.509255 
L 246.842501 259.806597 
L 247.139842 260.103938 
L 247.139842 260.40128 
L 247.437184 260.698622 
L 247.437184 260.995963 
L 247.437184 260.698622 
L 247.437184 260.40128 
L 247.437184 260.103938 
L 247.437184 259.806597 
L 247.437184 259.509255 
L 247.734526 258.914572 
L 247.734526 258.61723 
L 247.734526 258.319888 
L 248.031867 257.725205 
L 248.329209 257.725205 
L 248.329209 257.427863 
L 248.329209 257.725205 
L 248.626551 257.725205 
L 248.626551 258.022547 
L 248.923892 258.61723 
L 249.221234 259.211913 
L 249.221234 259.509255 
L 249.518576 260.103938 
L 249.815917 260.698622 
L 249.815917 260.995963 
L 250.113259 260.995963 
" style="fill:none;stroke:#8c8c8c;stroke-linecap:square;"/>
   </g>
   <g id="line2d_44">
    <path clip-path="url(#p0f0d5fffa9)" d="M 250.707942 259.211913 
L 251.005284 259.211913 
L 251.302626 259.211913 
L 251.302626 259.509255 
L 251.599967 259.806597 
L 251.897309 259.806597 
L 252.19465 259.806597 
L 252.19465 260.103938 
L 252.789334 260.103938 
L 253.086675 259.806597 
L 253.384017 259.806597 
L 253.384017 259.509255 
L 253.681359 259.211913 
L 253.681359 258.914572 
L 253.9787 258.319888 
L 253.681359 258.022547 
L 253.681359 257.725205 
L 253.384017 257.130522 
L 253.384017 256.83318 
L 253.086675 256.535839 
" style="fill:none;stroke:#8c8c8c;stroke-linecap:square;"/>
   </g>
   <g id="line2d_45">
    <path clip-path="url(#p0f0d5fffa9)" d="M 254.276042 256.535839 
L 254.573384 256.83318 
L 254.573384 257.130522 
L 254.870725 257.130522 
L 254.870725 257.427863 
L 255.168067 257.725205 
L 255.168067 258.022547 
L 255.465409 258.61723 
L 255.76275 259.211913 
L 256.060092 259.806597 
L 256.357434 260.103938 
L 256.357434 260.40128 
L 256.654775 260.40128 
L 256.654775 260.103938 
L 256.654775 259.806597 
L 256.654775 259.509255 
L 256.654775 259.211913 
L 256.654775 258.914572 
L 256.654775 258.61723 
L 256.654775 258.022547 
L 256.952117 257.725205 
L 256.952117 257.427863 
L 257.249458 257.427863 
L 257.5468 257.725205 
L 257.5468 258.022547 
L 257.844142 258.319888 
L 257.844142 258.61723 
L 258.141483 258.914572 
L 258.141483 259.211913 
L 258.141483 259.509255 
L 258.438825 259.509255 
L 258.438825 259.211913 
L 258.438825 258.914572 
L 258.438825 258.61723 
L 258.438825 258.319888 
L 258.438825 258.022547 
L 258.736167 257.725205 
L 258.736167 257.427863 
L 258.736167 257.130522 
L 259.033508 256.83318 
L 259.33085 256.535839 
L 259.628192 256.535839 
L 259.628192 256.238497 
L 259.925533 256.535839 
L 260.222875 256.535839 
L 260.520217 256.83318 
L 260.817558 257.130522 
L 261.1149 257.427863 
L 261.1149 257.725205 
L 261.412242 258.319888 
L 261.709583 258.914572 
L 261.709583 259.211913 
L 262.006925 259.509255 
L 262.006925 259.806597 
" style="fill:none;stroke:#8c8c8c;stroke-linecap:square;"/>
   </g>
   <g id="line2d_46">
    <path clip-path="url(#p0f0d5fffa9)" d="M 51.489038 141.761963 
L 51.489038 141.464621 
L 51.489038 141.167279 
L 51.489038 140.869938 
L 51.78638 140.869938 
L 52.083722 140.869938 
L 52.083722 141.167279 
L 52.381063 141.167279 
L 52.678405 141.167279 
L 52.975747 141.464621 
L 53.57043 141.761963 
L 53.867772 142.059304 
L 54.759797 142.356646 
L 55.35448 142.653988 
L 55.949163 142.951329 
L 57.13853 143.546012 
L 57.733213 144.140696 
L 58.625238 144.438037 
L 59.517263 145.032721 
L 60.111946 145.330062 
L 61.301313 145.924746 
L 61.598654 146.222087 
L 62.193338 146.222087 
L 63.085363 146.519429 
L 63.382704 146.816771 
L 63.680046 147.114112 
L 63.977388 147.114112 
L 64.274729 147.114112 
L 64.274729 146.816771 
" style="fill:none;stroke:#8c8c8c;stroke-linecap:square;"/>
   </g>
   <g id="line2d_47">
    <path clip-path="url(#p0f0d5fffa9)" d="M 62.193338 142.059304 
L 61.895996 142.059304 
L 61.895996 142.356646 
L 61.895996 142.653988 
L 62.193338 142.653988 
L 62.490679 142.653988 
L 62.788021 142.951329 
L 63.085363 142.951329 
L 63.382704 143.248671 
L 63.680046 143.248671 
L 64.274729 143.546012 
L 64.572071 143.843354 
L 64.869413 143.843354 
L 65.166754 144.438037 
L 65.464096 144.438037 
L 65.761437 144.735379 
L 65.761437 145.032721 
L 66.058779 145.330062 
L 66.058779 145.924746 
L 66.058779 146.519429 
L 66.058779 147.411454 
L 66.058779 148.006137 
L 66.058779 148.60082 
L 66.058779 149.492845 
L 66.058779 150.087529 
L 66.058779 150.682212 
L 65.761437 150.979554 
L 65.761437 151.276895 
L 65.464096 151.276895 
" style="fill:none;stroke:#8c8c8c;stroke-linecap:square;"/>
   </g>
   <g id="line2d_48">
    <path clip-path="url(#p0f0d5fffa9)" d="M 32.161831 123.624122 
L 32.161831 123.32678 
L 32.161831 123.624122 
L 32.756515 124.218805 
L 32.756515 124.516147 
L 33.351198 124.813489 
L 33.945881 125.705514 
L 34.540564 126.597539 
L 35.432589 127.489564 
L 35.729931 128.084247 
L 36.324614 128.67893 
L 36.621956 129.273613 
L 36.919298 129.570955 
L 37.216639 129.868297 
" style="fill:none;stroke:#8c8c8c;stroke-linecap:square;"/>
   </g>
   <g id="line2d_49">
    <path clip-path="url(#p0f0d5fffa9)" d="M 33.64854 125.705514 
L 33.945881 125.705514 
L 33.945881 125.408172 
L 34.243223 125.11083 
L 34.540564 125.11083 
L 34.837906 124.813489 
L 35.432589 124.516147 
L 36.027273 124.218805 
L 36.324614 124.218805 
L 36.621956 124.218805 
L 37.216639 124.218805 
L 37.513981 124.516147 
L 37.811323 124.813489 
L 38.108664 125.11083 
L 38.108664 125.408172 
L 38.108664 126.002855 
L 38.108664 126.597539 
L 38.108664 127.192222 
L 37.811323 127.489564 
L 37.811323 128.084247 
L 37.513981 128.381588 
L 37.513981 128.67893 
L 37.216639 128.67893 
" style="fill:none;stroke:#8c8c8c;stroke-linecap:square;"/>
   </g>
   <g id="line2d_50">
    <path clip-path="url(#p0f0d5fffa9)" d="M 38.108664 125.705514 
L 38.406006 125.705514 
L 38.406006 125.408172 
L 38.703348 125.408172 
L 39.000689 125.408172 
L 39.000689 125.11083 
L 39.298031 125.11083 
L 39.298031 124.813489 
L 39.595372 124.516147 
L 39.892714 123.921464 
L 39.892714 123.624122 
L 39.892714 123.32678 
L 39.595372 122.732097 
L 39.298031 122.434755 
L 39.298031 122.137414 
L 39.000689 122.137414 
L 38.703348 121.840072 
L 38.406006 122.137414 
L 38.406006 122.732097 
L 38.406006 123.32678 
L 38.703348 123.624122 
L 39.000689 124.516147 
L 39.595372 125.11083 
L 40.190056 125.705514 
L 40.487397 126.002855 
L 41.082081 126.300197 
L 41.379422 126.300197 
L 41.974106 126.300197 
L 42.271447 126.002855 
L 42.271447 125.705514 
" style="fill:none;stroke:#8c8c8c;stroke-linecap:square;"/>
   </g>
   <g id="line2d_51">
    <path clip-path="url(#p0f0d5fffa9)" d="M 41.676764 121.840072 
L 41.379422 121.542731 
L 41.676764 121.542731 
L 41.676764 121.840072 
L 42.271447 122.137414 
L 42.568789 122.434755 
L 42.866131 123.029439 
L 43.460814 123.624122 
L 43.758156 124.218805 
L 44.055497 124.516147 
L 44.352839 124.813489 
L 44.352839 125.11083 
L 44.650181 125.11083 
L 44.352839 125.11083 
L 44.055497 124.813489 
L 44.055497 124.516147 
L 43.758156 124.516147 
L 43.460814 124.218805 
L 42.866131 123.624122 
L 42.568789 122.732097 
L 42.271447 122.434755 
L 42.271447 121.840072 
L 41.974106 121.245389 
L 41.974106 120.948047 
L 41.974106 120.650706 
L 42.271447 120.650706 
L 42.271447 120.353364 
L 42.568789 120.353364 
L 42.866131 120.353364 
L 43.163472 120.353364 
L 43.460814 120.650706 
L 44.055497 120.948047 
L 44.352839 121.245389 
L 44.947522 121.542731 
L 45.542205 122.137414 
L 45.839547 122.434755 
L 46.136889 122.732097 
L 46.43423 123.029439 
L 46.731572 123.32678 
" style="fill:none;stroke:#8c8c8c;stroke-linecap:square;"/>
   </g>
   <g id="line2d_52">
    <path clip-path="url(#p0f0d5fffa9)" d="M 44.055497 117.974631 
L 44.352839 118.271972 
L 45.244864 118.866656 
L 45.839547 119.461339 
L 46.731572 120.056022 
L 47.028914 120.650706 
L 47.920939 121.542731 
L 48.21828 121.840072 
L 48.515622 122.137414 
L 49.110305 122.732097 
L 49.407647 122.732097 
L 49.407647 123.029439 
" style="fill:none;stroke:#8c8c8c;stroke-linecap:square;"/>
   </g>
   <g id="line2d_53">
    <path clip-path="url(#p0f0d5fffa9)" d="M 46.136889 121.245389 
L 45.839547 120.948047 
L 45.839547 120.650706 
L 46.136889 120.650706 
L 46.43423 120.353364 
L 47.028914 120.056022 
L 47.623597 119.758681 
L 47.920939 119.461339 
L 48.515622 119.163997 
L 48.812964 118.866656 
L 49.110305 118.866656 
" style="fill:none;stroke:#8c8c8c;stroke-linecap:square;"/>
   </g>
   <g id="line2d_54">
    <path clip-path="url(#p0f0d5fffa9)" d="M 46.43423 113.811848 
L 46.136889 113.514506 
L 46.136889 113.217164 
L 46.43423 113.514506 
L 47.623597 114.406531 
L 47.920939 114.703873 
L 48.812964 115.595898 
L 49.407647 116.190581 
L 50.00233 116.785264 
L 50.597013 117.379947 
L 51.489038 117.974631 
L 51.78638 118.569314 
L 52.381063 118.866656 
L 52.381063 119.163997 
L 52.678405 119.461339 
L 52.678405 119.163997 
L 52.381063 118.866656 
L 52.083722 118.569314 
L 52.083722 118.271972 
L 51.78638 117.677289 
L 51.78638 117.379947 
L 51.489038 116.785264 
L 51.489038 116.487923 
L 51.489038 116.190581 
L 51.489038 115.893239 
L 51.489038 115.595898 
L 51.78638 115.595898 
L 52.083722 115.595898 
L 52.381063 115.893239 
L 52.678405 115.893239 
L 53.273088 116.487923 
L 53.57043 116.785264 
L 53.867772 117.082606 
L 54.462455 117.379947 
L 54.462455 117.677289 
L 54.759797 117.974631 
" style="fill:none;stroke:#8c8c8c;stroke-linecap:square;"/>
   </g>
   <g id="line2d_55">
    <path clip-path="url(#p0f0d5fffa9)" d="M 53.273088 115.001214 
L 53.57043 115.001214 
L 53.57043 114.703873 
L 53.867772 115.001214 
L 54.165113 115.001214 
L 54.462455 115.298556 
L 54.759797 115.298556 
L 55.057138 115.595898 
L 55.35448 115.893239 
L 55.651821 115.893239 
L 55.949163 116.190581 
L 56.246505 116.190581 
L 56.543846 116.487923 
" style="fill:none;stroke:#8c8c8c;stroke-linecap:square;"/>
   </g>
   <g id="line2d_56">
    <path clip-path="url(#p0f0d5fffa9)" d="M 53.273088 112.325139 
L 52.975747 111.730456 
L 52.975747 111.433115 
L 52.678405 111.135773 
L 52.975747 111.135773 
" style="fill:none;stroke:#8c8c8c;stroke-linecap:square;"/>
   </g>
   <g id="line2d_57">
    <path clip-path="url(#p0f0d5fffa9)" d="M 55.057138 111.135773 
L 55.057138 111.433115 
L 55.057138 112.027798 
L 55.35448 112.622481 
L 55.35448 113.217164 
L 55.651821 113.514506 
L 55.949163 114.109189 
L 56.543846 114.406531 
L 57.13853 114.703873 
L 57.435871 115.001214 
L 58.327896 115.001214 
L 58.625238 114.703873 
L 59.219921 114.703873 
L 59.814605 114.406531 
L 60.409288 114.406531 
L 60.409288 114.109189 
L 60.706629 113.811848 
" style="fill:none;stroke:#8c8c8c;stroke-linecap:square;"/>
   </g>
   <g id="line2d_58">
    <path clip-path="url(#p0f0d5fffa9)" d="M 64.869413 147.411454 
L 64.869413 147.708796 
L 64.869413 148.006137 
L 64.869413 148.303479 
L 64.869413 148.60082 
L 64.869413 148.898162 
L 64.869413 149.195504 
L 64.869413 149.492845 
L 64.572071 149.492845 
L 64.572071 149.790187 
L 64.274729 149.790187 
L 64.274729 150.087529 
L 63.977388 150.087529 
L 63.680046 150.38487 
L 63.382704 150.38487 
L 63.382704 150.682212 
L 63.085363 150.682212 
L 63.085363 150.979554 
L 62.788021 150.979554 
L 62.490679 150.979554 
L 62.490679 151.276895 
L 62.193338 151.276895 
L 62.193338 151.574237 
L 61.895996 151.574237 
L 61.598654 151.574237 
L 61.598654 151.871579 
L 61.301313 151.871579 
L 61.301313 151.574237 
" style="fill:none;stroke:#8c8c8c;stroke-linecap:square;"/>
   </g>
   <g id="line2d_59">
    <path clip-path="url(#p0f0d5fffa9)" d="M 61.895996 142.059304 
L 61.598654 142.059304 
L 61.598654 142.356646 
L 61.598654 142.653988 
L 61.598654 142.951329 
L 61.598654 143.248671 
L 61.598654 143.546012 
L 61.598654 143.843354 
L 61.598654 144.140696 
L 61.301313 144.735379 
L 61.301313 145.032721 
L 61.301313 145.627404 
L 61.003971 146.519429 
L 61.003971 146.816771 
L 61.003971 147.411454 
L 60.706629 147.708796 
L 60.706629 148.006137 
L 60.706629 148.303479 
L 60.706629 148.60082 
L 60.706629 148.898162 
L 60.706629 149.195504 
L 60.409288 149.492845 
L 60.409288 149.790187 
L 60.409288 150.087529 
L 60.409288 150.38487 
L 60.409288 150.682212 
" style="fill:none;stroke:#8c8c8c;stroke-linecap:square;"/>
   </g>
   <g id="line2d_60">
    <path clip-path="url(#p0f0d5fffa9)" d="M 51.489038 129.570955 
L 51.489038 129.868297 
L 51.78638 129.868297 
L 52.083722 129.868297 
L 52.083722 130.165638 
L 52.381063 130.165638 
L 52.678405 130.46298 
L 52.975747 130.760322 
L 53.273088 131.057663 
L 53.867772 131.652347 
L 54.165113 131.949688 
L 54.462455 132.544372 
L 54.759797 132.841713 
L 55.35448 133.436396 
L 56.246505 134.03108 
L 56.841188 134.923105 
L 57.13853 135.220446 
L 58.030555 136.112471 
L 58.625238 136.707155 
L 59.219921 137.301838 
L 59.517263 137.896521 
L 60.111946 138.491204 
L 60.706629 139.085888 
L 61.003971 139.383229 
L 61.301313 139.977913 
L 61.895996 140.572596 
L 61.895996 140.869938 
L 62.193338 141.167279 
L 62.193338 141.464621 
L 62.490679 141.464621 
L 62.490679 141.761963 
" style="fill:none;stroke:#8c8c8c;stroke-linecap:square;"/>
   </g>
   <g id="line2d_61">
    <path clip-path="url(#p0f0d5fffa9)" d="M 56.543846 141.167279 
L 56.246505 141.167279 
L 56.246505 140.869938 
L 56.246505 140.572596 
L 56.543846 140.572596 
L 57.13853 140.572596 
L 57.435871 140.869938 
L 58.030555 140.869938 
L 58.625238 141.167279 
L 59.517263 141.464621 
L 59.814605 141.761963 
L 60.409288 142.059304 
L 61.003971 142.059304 
L 61.301313 142.356646 
L 61.598654 142.356646 
" style="fill:none;stroke:#8c8c8c;stroke-linecap:square;"/>
   </g>
   <g id="line2d_62">
    <path clip-path="url(#p0f0d5fffa9)" d="M 61.895996 141.761963 
L 61.895996 142.059304 
L 61.895996 141.761963 
L 61.895996 141.464621 
L 61.895996 140.869938 
L 61.895996 140.275254 
L 61.301313 139.085888 
L 61.301313 138.491204 
L 61.003971 137.59918 
L 60.706629 136.409813 
L 60.409288 135.81513 
L 60.409288 135.517788 
L 60.111946 135.220446 
L 60.111946 134.923105 
L 60.111946 134.625763 
L 59.814605 134.328421 
" style="fill:none;stroke:#8c8c8c;stroke-linecap:square;"/>
   </g>
   <g id="line2d_63">
    <path clip-path="url(#p0f0d5fffa9)" d="M 432.086347 37.989728 
L 432.086347 37.692386 
L 431.789006 37.692386 
L 431.491664 37.989728 
L 431.491664 38.287069 
L 431.194322 38.287069 
L 431.194322 38.584411 
L 431.194322 38.881753 
L 431.491664 39.179094 
L 431.789006 39.179094 
L 432.086347 38.881753 
L 432.383689 38.881753 
L 432.383689 38.584411 
L 432.681031 38.584411 
L 432.681031 38.287069 
L 432.978372 38.287069 
L 432.978372 37.989728 
L 432.681031 37.989728 
L 432.681031 37.692386 
L 432.383689 37.692386 
L 432.086347 37.692386 
L 431.789006 37.692386 
L 431.789006 37.989728 
L 431.491664 38.287069 
L 431.491664 38.584411 
L 431.789006 38.584411 
L 432.086347 38.584411 
L 432.383689 38.584411 
L 432.383689 38.287069 
L 432.086347 38.287069 
L 432.086347 37.989728 
L 431.789006 37.989728 
L 431.491664 38.287069 
L 431.194322 38.287069 
L 431.194322 38.584411 
L 430.896981 38.881753 
L 431.194322 38.881753 
L 431.194322 39.179094 
L 431.491664 39.179094 
L 431.491664 38.881753 
L 431.789006 38.881753 
L 431.789006 38.584411 
L 431.789006 38.287069 
L 431.491664 38.287069 
L 431.194322 38.287069 
L 431.194322 38.584411 
L 431.491664 38.584411 
L 431.491664 38.881753 
L 431.789006 38.881753 
L 432.086347 38.881753 
L 432.383689 38.881753 
L 432.383689 38.584411 
L 432.681031 38.584411 
L 432.681031 38.287069 
L 432.681031 37.989728 
L 432.681031 37.692386 
L 432.383689 37.692386 
L 432.086347 37.692386 
L 432.086347 37.989728 
L 431.789006 38.287069 
L 431.789006 38.584411 
L 432.086347 38.584411 
L 432.383689 38.584411 
L 432.383689 38.287069 
L 432.383689 37.989728 
L 432.086347 37.989728 
L 431.789006 37.989728 
L 431.789006 38.287069 
L 431.491664 38.287069 
L 431.491664 38.584411 
L 431.491664 38.881753 
L 431.491664 39.179094 
L 431.789006 39.179094 
L 432.086347 39.179094 
L 432.086347 38.881753 
L 432.383689 38.881753 
L 432.383689 38.584411 
L 432.383689 38.287069 
L 432.383689 37.989728 
L 432.086347 37.989728 
L 431.789006 38.287069 
L 431.491664 38.287069 
L 431.491664 38.584411 
L 431.491664 38.881753 
L 431.491664 39.179094 
L 431.789006 39.179094 
L 432.086347 39.179094 
L 432.383689 39.179094 
L 432.383689 38.881753 
L 432.383689 38.584411 
L 432.086347 38.584411 
L 431.789006 38.584411 
L 431.789006 38.881753 
L 431.789006 39.179094 
L 432.086347 39.179094 
L 432.086347 38.881753 
L 432.086347 38.584411 
L 432.086347 38.287069 
L 432.086347 37.989728 
L 431.789006 38.287069 
L 431.789006 38.584411 
L 431.789006 38.881753 
L 432.086347 38.881753 
L 432.383689 38.584411 
L 432.383689 38.287069 
L 432.086347 38.287069 
L 431.789006 38.287069 
" style="fill:none;stroke:#8c8c8c;stroke-linecap:square;"/>
   </g>
   <g id="line2d_64">
    <path clip-path="url(#p0f0d5fffa9)" d="M 441.303938 26.393403 
L 441.303938 26.096062 
L 439.222547 26.096062 
L 438.627863 26.393403 
L 436.843814 26.393403 
L 436.24913 26.690745 
L 435.357105 26.690745 
L 434.762422 26.988087 
L 433.573055 26.988087 
L 431.491664 27.58277 
L 430.599639 27.58277 
L 429.410272 27.880112 
L 427.328881 28.177453 
L 423.463439 29.069478 
L 421.976731 29.36682 
L 421.084706 29.36682 
L 419.300656 29.961503 
L 416.624582 30.556186 
L 416.029898 30.853528 
L 413.651165 31.448211 
L 412.461798 32.042895 
L 410.97509 32.637578 
L 410.083065 33.232261 
L 408.299015 33.826945 
L 405.325599 35.313653 
L 403.838891 36.205678 
L 402.649524 36.800361 
L 401.757499 37.097703 
L 400.568133 37.692386 
L 399.973449 38.287069 
L 398.189399 39.179094 
L 396.108008 40.665802 
L 395.513325 41.260486 
L 394.918641 41.557827 
L 394.6213 41.855169 
L 394.323958 42.449852 
L 394.026616 42.747194 
L 394.026616 43.341877 
L 393.729275 43.639219 
L 393.729275 45.72061 
L 394.026616 46.017952 
L 394.323958 46.612635 
L 394.6213 47.50466 
L 394.918641 47.802002 
L 396.108008 48.396685 
L 397.000033 48.991369 
L 398.784083 49.883394 
L 399.676108 49.883394 
L 402.352182 50.775418 
L 404.433574 50.775418 
L 405.028257 51.07276 
L 414.54319 51.07276 
L 416.029898 50.775418 
L 419.89534 50.775418 
L 421.382048 50.478077 
L 424.058123 50.478077 
L 426.139514 50.180735 
L 429.410272 50.180735 
L 430.599639 49.883394 
L 433.573055 49.883394 
L 434.762422 49.586052 
L 435.654447 49.586052 
L 437.438497 49.28871 
L 438.330522 49.28871 
L 440.114572 48.991369 
L 441.303938 48.991369 
L 442.195963 48.694027 
L 443.682671 48.396685 
L 444.872038 48.396685 
L 447.250771 47.50466 
L 448.440138 47.207319 
L 449.926846 46.612635 
L 450.818871 46.017952 
L 454.981654 44.233902 
L 456.765704 43.341877 
L 457.657729 43.044536 
L 458.549754 42.449852 
L 460.036462 41.855169 
L 462.415195 40.665802 
L 463.009879 40.071119 
L 465.388612 38.881753 
L 467.767345 36.503019 
L 467.767345 36.205678 
L 468.362028 35.610994 
L 468.362028 35.313653 
L 468.65937 34.718969 
L 468.65937 34.124286 
L 468.956712 33.826945 
L 468.956712 33.232261 
L 468.65937 32.93492 
L 468.65937 32.340236 
L 468.362028 32.042895 
L 468.064687 31.448211 
L 467.767345 31.15087 
L 466.280637 30.258845 
L 465.388612 29.961503 
L 464.199245 29.36682 
L 463.604562 29.36682 
L 460.333804 28.474795 
L 459.441779 28.474795 
L 458.549754 28.177453 
L 456.171021 28.177453 
L 454.981654 27.880112 
L 448.440138 27.880112 
L 446.656088 27.58277 
L 438.925205 27.58277 
L 438.925205 27.58277 
" style="fill:none;stroke:#8c8c8c;stroke-linecap:square;"/>
   </g>
   <g id="line2d_65">
    <path clip-path="url(#p0f0d5fffa9)" d="M 431.491664 27.880112 
L 430.896981 27.880112 
L 430.896981 27.58277 
L 430.302297 27.58277 
L 430.004956 27.880112 
L 428.815589 27.880112 
L 428.518247 28.177453 
L 427.328881 28.177453 
L 427.031539 28.474795 
L 426.436856 28.474795 
L 426.436856 28.772137 
L 425.247489 28.772137 
L 424.950148 29.069478 
L 424.355464 29.069478 
L 423.760781 29.36682 
L 422.571415 29.36682 
L 422.274073 29.664161 
L 421.382048 29.664161 
L 420.787365 29.961503 
L 420.490023 29.961503 
L 419.89534 30.258845 
L 419.300656 30.258845 
L 418.705973 30.556186 
L 418.408631 30.556186 
L 417.219265 31.15087 
L 416.921923 31.15087 
L 416.32724 31.448211 
L 415.732557 31.448211 
L 415.137873 32.042895 
L 414.840532 32.042895 
L 414.54319 32.340236 
L 413.948507 32.637578 
L 413.651165 32.93492 
L 413.353823 32.93492 
L 412.75914 33.232261 
L 412.461798 33.529603 
L 412.164457 33.529603 
L 411.569774 34.124286 
L 411.272432 34.124286 
L 410.380407 35.016311 
L 410.083065 35.016311 
L 409.19104 35.908336 
L 408.596357 36.205678 
L 407.704332 37.097703 
L 407.40699 37.097703 
L 407.40699 37.395044 
L 407.109649 37.395044 
L 407.109649 37.989728 
L 406.812307 37.989728 
L 406.812307 38.584411 
L 406.514966 38.584411 
L 406.514966 39.179094 
L 406.217624 39.476436 
L 406.217624 41.260486 
L 406.514966 41.557827 
L 406.514966 42.152511 
L 406.812307 42.152511 
L 406.812307 42.747194 
L 407.704332 43.639219 
L 408.001674 44.233902 
L 408.299015 44.233902 
L 409.19104 45.125927 
L 409.785724 45.423269 
L 410.083065 45.423269 
L 410.677749 45.72061 
L 410.97509 46.017952 
L 411.569774 46.017952 
L 411.867115 46.315294 
L 412.461798 46.315294 
L 412.75914 46.612635 
L 413.948507 46.612635 
L 414.245848 46.909977 
L 415.435215 46.909977 
L 416.029898 47.207319 
L 416.624582 47.207319 
L 417.219265 47.50466 
L 420.490023 47.50466 
L 421.084706 47.802002 
L 424.058123 47.802002 
L 424.652806 48.099344 
L 432.086347 48.099344 
L 432.681031 47.802002 
L 433.870397 47.802002 
L 434.762422 47.50466 
L 435.654447 47.50466 
L 436.24913 47.207319 
L 436.546472 47.207319 
L 437.141155 46.909977 
L 437.438497 46.909977 
L 438.03318 46.612635 
L 438.627863 46.612635 
L 439.222547 46.315294 
L 439.81723 46.315294 
L 440.114572 46.017952 
L 440.709255 45.72061 
L 441.303938 45.72061 
L 442.493305 45.125927 
L 442.790647 45.125927 
L 443.087988 44.828585 
L 444.277355 44.233902 
L 444.574696 44.233902 
L 444.872038 43.936561 
L 445.16938 43.936561 
L 446.358746 43.341877 
L 446.95343 42.747194 
L 447.250771 42.747194 
L 447.845455 42.449852 
L 448.440138 41.855169 
L 449.034821 41.557827 
L 449.629504 40.963144 
L 450.224188 40.665802 
L 450.224188 40.368461 
L 450.521529 40.368461 
L 451.413554 39.476436 
L 451.413554 39.179094 
L 451.710896 38.881753 
L 451.710896 37.989728 
L 452.008238 37.989728 
L 452.008238 36.503019 
L 452.305579 36.205678 
L 452.305579 33.232261 
L 452.008238 32.637578 
L 452.008238 32.340236 
L 451.710896 32.042895 
L 451.710896 31.745553 
L 451.413554 31.448211 
L 451.413554 31.15087 
L 451.116213 30.556186 
L 450.818871 30.258845 
L 450.818871 29.961503 
L 450.224188 29.36682 
L 449.629504 29.069478 
L 449.332163 28.772137 
L 448.440138 28.474795 
L 447.845455 28.474795 
L 446.656088 28.177453 
L 446.061405 27.880112 
L 444.277355 27.880112 
L 443.38533 27.58277 
L 439.222547 27.58277 
L 437.735839 27.880112 
L 436.843814 27.880112 
L 435.654447 28.177453 
L 433.870397 28.177453 
L 419.003315 31.15087 
L 417.219265 31.15087 
L 417.219265 31.15087 
" style="fill:none;stroke:#8c8c8c;stroke-linecap:square;"/>
   </g>
   <g id="line2d_66">
    <path clip-path="url(#p0f0d5fffa9)" d="M 398.189399 44.233902 
L 397.892058 44.233902 
L 397.594716 44.233902 
L 397.892058 44.233902 
L 398.189399 44.233902 
L 398.486741 44.233902 
L 399.378766 44.233902 
L 399.973449 43.936561 
L 400.270791 43.936561 
L 401.162816 43.639219 
L 401.460158 43.639219 
L 401.757499 43.639219 
L 402.352182 43.639219 
L 402.649524 43.639219 
" style="fill:none;stroke:#8c8c8c;stroke-linecap:square;"/>
   </g>
   <g id="line2d_67">
    <path clip-path="url(#p0f0d5fffa9)" d="M 402.352182 42.152511 
L 402.649524 42.152511 
L 402.649524 41.855169 
L 402.946866 41.855169 
L 403.244207 41.855169 
L 403.244207 42.152511 
L 403.541549 42.152511 
L 403.838891 42.152511 
L 403.838891 42.449852 
L 403.838891 42.747194 
L 403.541549 42.747194 
L 403.244207 43.044536 
L 403.244207 43.341877 
L 402.946866 43.639219 
" style="fill:none;stroke:#8c8c8c;stroke-linecap:square;"/>
   </g>
   <g id="line2d_68">
    <path clip-path="url(#p0f0d5fffa9)" d="M 397.297374 43.639219 
L 397.297374 43.341877 
L 397.000033 43.341877 
L 397.000033 43.639219 
L 396.702691 43.639219 
L 396.702691 43.936561 
L 396.40535 43.936561 
L 396.40535 44.233902 
L 396.40535 44.531244 
L 396.40535 44.828585 
L 396.40535 45.125927 
L 396.702691 45.423269 
L 396.702691 45.72061 
L 397.297374 45.72061 
L 397.297374 46.017952 
" style="fill:none;stroke:#8c8c8c;stroke-linecap:square;"/>
   </g>
   <g id="line2d_69">
    <path clip-path="url(#p0f0d5fffa9)" d="M 521.586183 34.124286 
L 521.586183 33.826945 
L 521.883525 33.826945 
L 521.883525 33.529603 
L 521.883525 33.232261 
L 521.883525 32.93492 
L 521.586183 32.93492 
L 521.288841 32.637578 
L 520.9915 32.340236 
L 520.694158 32.340236 
L 520.099475 32.042895 
L 519.504792 32.042895 
L 518.018083 32.042895 
L 516.828717 32.042895 
L 515.044667 32.340236 
L 513.557959 32.637578 
L 511.773909 33.232261 
L 509.692517 33.826945 
L 508.503151 34.421628 
L 507.313784 35.016311 
L 506.719101 35.313653 
L 506.124417 35.610994 
L 505.827076 36.205678 
L 505.827076 36.503019 
L 505.827076 37.097703 
L 506.124417 37.395044 
L 506.719101 37.692386 
L 507.611126 38.287069 
L 508.800492 38.881753 
L 510.287201 39.476436 
L 511.476567 39.773777 
L 512.963275 40.071119 
L 515.63935 40.368461 
L 518.018083 40.368461 
L 519.802133 40.368461 
L 521.586183 40.368461 
L 523.072891 40.071119 
L 525.451625 39.773777 
L 526.640991 39.476436 
L 527.830358 39.179094 
L 529.019724 38.584411 
L 529.911749 37.989728 
L 530.506433 36.800361 
L 531.101116 36.205678 
L 531.398457 35.313653 
L 531.398457 34.124286 
L 531.101116 33.232261 
L 530.506433 32.340236 
L 529.614408 31.448211 
L 528.425041 31.15087 
L 526.343649 30.556186 
L 524.262258 30.258845 
L 522.77555 30.258845 
L 520.694158 30.556186 
L 519.802133 30.556186 
L 519.504792 30.556186 
" style="fill:none;stroke:#8c8c8c;stroke-linecap:square;"/>
   </g>
   <g id="line2d_70">
    <path clip-path="url(#p0f0d5fffa9)" d="M 520.396817 25.204037 
L 520.396817 24.906695 
L 520.099475 24.906695 
L 519.504792 25.204037 
L 518.910108 25.204037 
L 518.315425 25.501378 
L 517.4234 26.096062 
L 516.828717 26.690745 
L 516.234033 27.58277 
L 515.044667 29.069478 
L 514.449984 30.556186 
L 513.260617 33.232261 
L 512.665934 35.016311 
L 512.07125 36.800361 
L 511.476567 39.179094 
L 511.179225 40.665802 
L 510.881884 41.855169 
L 510.584542 43.341877 
L 510.584542 44.233902 
L 510.881884 45.125927 
L 510.881884 45.72061 
L 511.179225 46.315294 
L 511.476567 47.207319 
L 511.773909 47.50466 
L 512.665934 48.099344 
L 513.260617 48.099344 
L 513.8553 48.396685 
L 514.747325 48.396685 
L 515.63935 48.099344 
L 516.531375 47.802002 
L 518.018083 46.909977 
L 518.910108 46.017952 
L 520.396817 44.531244 
L 521.288841 43.341877 
L 522.478208 41.557827 
L 522.478208 40.963144 
L 523.072891 38.881753 
L 523.370233 37.395044 
L 523.370233 35.313653 
L 523.370233 34.124286 
L 523.072891 32.93492 
L 522.77555 31.15087 
L 522.478208 30.258845 
L 521.883525 29.36682 
L 521.586183 28.474795 
L 521.288841 27.880112 
L 520.9915 26.988087 
L 520.694158 26.690745 
L 520.396817 26.096062 
L 520.396817 25.79872 
L 520.099475 25.79872 
" style="fill:none;stroke:#8c8c8c;stroke-linecap:square;"/>
   </g>
   <g id="line2d_71">
    <path clip-path="url(#p0f0d5fffa9)" d="M 510.584542 30.258845 
L 510.584542 29.961503 
L 510.287201 29.961503 
L 509.989859 29.664161 
L 509.395176 29.664161 
L 509.097834 29.961503 
L 507.908467 29.961503 
L 507.611126 30.258845 
L 507.016442 30.258845 
L 506.421759 30.853528 
L 506.124417 30.853528 
L 505.529734 31.15087 
L 505.232393 31.15087 
L 504.935051 31.448211 
L 504.340368 31.745553 
L 504.043026 32.042895 
L 503.448343 32.340236 
L 503.151001 32.637578 
L 502.853659 32.637578 
L 502.258976 32.93492 
L 502.258976 33.232261 
L 501.366951 34.124286 
L 501.366951 34.421628 
L 500.772268 35.016311 
L 500.772268 35.610994 
L 500.474926 35.908336 
L 500.474926 36.205678 
L 500.177585 36.503019 
L 500.177585 37.395044 
L 499.880243 37.395044 
L 499.880243 40.071119 
L 500.177585 40.368461 
L 500.177585 40.665802 
L 500.474926 40.963144 
L 500.474926 41.260486 
L 500.772268 41.855169 
L 500.772268 42.152511 
L 501.069609 42.152511 
L 501.961634 43.044536 
L 501.961634 43.341877 
L 502.258976 43.639219 
L 502.556318 43.639219 
L 503.151001 44.233902 
L 503.448343 44.233902 
L 503.745684 44.531244 
L 504.043026 44.531244 
L 504.637709 44.828585 
L 504.637709 45.125927 
L 505.232393 45.125927 
L 505.529734 45.423269 
L 506.421759 45.423269 
L 506.421759 45.72061 
L 510.287201 45.72061 
L 510.584542 45.423269 
L 511.476567 45.423269 
L 511.773909 45.125927 
L 512.368592 45.125927 
L 513.557959 44.531244 
L 513.8553 44.531244 
L 514.449984 43.936561 
L 515.044667 43.639219 
L 515.63935 43.044536 
L 515.936692 43.044536 
L 516.531375 42.449852 
L 516.531375 42.152511 
L 516.828717 42.152511 
L 516.828717 41.855169 
L 517.126058 41.557827 
L 517.126058 41.260486 
L 517.4234 40.963144 
L 517.4234 40.368461 
L 517.720742 40.368461 
L 517.720742 37.692386 
L 517.4234 37.692386 
L 517.4234 36.205678 
L 517.126058 35.610994 
L 517.126058 35.313653 
L 516.828717 34.718969 
L 516.828717 33.826945 
L 516.531375 33.529603 
L 516.531375 32.340236 
L 516.234033 32.340236 
L 516.234033 31.448211 
L 515.936692 31.448211 
L 515.936692 31.15087 
L 515.63935 30.853528 
L 515.63935 30.556186 
L 514.747325 29.664161 
L 514.152642 29.36682 
L 514.152642 29.069478 
L 513.557959 28.772137 
L 513.260617 28.772137 
L 512.963275 28.474795 
L 511.179225 28.474795 
L 507.611126 29.664161 
L 507.313784 29.961503 
L 506.719101 29.961503 
L 506.421759 30.258845 
L 506.421759 30.258845 
" style="fill:none;stroke:#8c8c8c;stroke-linecap:square;"/>
   </g>
   <g id="line2d_72">
    <path clip-path="url(#p0f0d5fffa9)" d="M 517.720742 21.338595 
L 517.720742 21.933279 
L 517.4234 21.933279 
L 517.4234 22.23062 
L 517.4234 22.527962 
L 517.126058 22.527962 
L 517.126058 22.825304 
L 517.126058 23.122645 
L 516.828717 23.122645 
L 516.828717 23.419987 
L 516.828717 23.717329 
L 516.531375 24.01467 
L 516.234033 24.312012 
L 516.234033 24.609353 
L 515.936692 25.204037 
L 515.63935 25.501378 
L 515.342009 25.79872 
L 515.342009 26.096062 
L 515.044667 26.393403 
L 514.747325 26.690745 
L 514.449984 26.988087 
L 514.449984 27.285428 
L 514.152642 27.880112 
L 513.8553 28.177453 
L 513.557959 28.474795 
L 513.260617 28.772137 
L 512.963275 29.069478 
L 512.665934 29.664161 
L 512.368592 29.961503 
L 512.07125 30.556186 
L 511.773909 30.853528 
L 511.773909 31.15087 
L 511.179225 31.448211 
L 511.179225 31.745553 
L 510.881884 32.042895 
L 510.584542 32.637578 
L 510.287201 32.93492 
L 509.989859 33.232261 
L 509.989859 33.529603 
L 509.692517 33.826945 
L 509.395176 34.124286 
L 509.097834 34.421628 
L 509.097834 34.718969 
L 508.800492 35.016311 
L 508.800492 35.313653 
L 508.503151 35.610994 
L 508.205809 35.908336 
L 507.908467 36.205678 
L 507.908467 36.503019 
L 507.611126 36.800361 
L 507.313784 37.097703 
L 507.313784 37.395044 
L 507.016442 37.395044 
L 507.016442 37.692386 
L 506.719101 37.989728 
L 506.719101 38.287069 
L 506.421759 38.287069 
L 506.421759 38.584411 
L 506.124417 38.881753 
L 505.827076 39.179094 
L 505.827076 39.476436 
L 505.529734 39.773777 
L 505.232393 40.071119 
L 504.935051 40.368461 
L 504.637709 40.665802 
L 504.340368 40.963144 
L 504.043026 41.260486 
L 504.043026 41.557827 
L 503.745684 41.855169 
L 503.448343 42.152511 
L 503.151001 42.449852 
L 502.853659 42.747194 
L 502.853659 43.044536 
L 502.556318 43.044536 
L 502.258976 43.639219 
L 502.258976 43.936561 
L 501.961634 43.936561 
L 501.664293 44.531244 
L 501.664293 44.828585 
L 501.366951 45.125927 
L 501.069609 45.423269 
L 501.069609 45.72061 
L 500.772268 46.017952 
L 500.474926 46.315294 
L 500.177585 46.612635 
L 500.177585 46.909977 
L 499.880243 46.909977 
L 499.582901 47.50466 
L 499.582901 47.802002 
L 499.28556 47.802002 
L 499.28556 48.099344 
L 498.988218 48.099344 
L 498.988218 48.396685 
L 498.690876 48.694027 
L 498.393535 48.991369 
L 498.393535 49.28871 
L 498.096193 49.28871 
L 498.096193 49.586052 
L 497.798851 49.883394 
L 497.798851 50.180735 
L 497.50151 50.180735 
" style="fill:none;stroke:#8c8c8c;stroke-linecap:square;"/>
   </g>
   <g id="line2d_73">
    <path clip-path="url(#p0f0d5fffa9)" d="M 516.531375 20.149229 
L 516.234033 20.149229 
L 515.936692 20.149229 
L 515.936692 19.851887 
L 515.63935 19.851887 
L 515.342009 19.851887 
L 515.044667 19.851887 
L 514.747325 19.851887 
L 514.449984 19.851887 
L 514.152642 19.851887 
L 513.8553 19.851887 
L 513.557959 19.851887 
L 513.260617 19.851887 
L 513.260617 20.149229 
L 512.963275 20.149229 
L 512.665934 20.149229 
L 512.665934 20.44657 
L 512.368592 20.44657 
L 512.07125 20.44657 
L 512.07125 20.743912 
L 511.773909 20.743912 
L 511.773909 21.041254 
L 511.476567 21.338595 
L 511.476567 21.635937 
L 511.476567 21.933279 
L 511.476567 22.23062 
L 511.773909 22.23062 
L 511.773909 22.527962 
L 512.07125 22.527962 
L 512.368592 22.825304 
L 512.665934 22.825304 
L 512.665934 23.122645 
L 512.963275 23.122645 
L 513.260617 23.122645 
L 513.557959 23.122645 
L 513.8553 23.122645 
L 514.152642 23.122645 
L 514.449984 23.122645 
L 514.449984 22.825304 
L 514.747325 22.825304 
L 515.044667 22.825304 
L 515.342009 22.825304 
L 515.63935 22.825304 
L 515.63935 22.527962 
L 515.936692 22.527962 
L 516.234033 22.527962 
L 516.234033 22.23062 
L 516.531375 22.23062 
L 516.828717 22.23062 
L 516.828717 21.933279 
L 517.126058 21.933279 
L 517.126058 21.635937 
L 517.4234 21.635937 
L 517.4234 21.338595 
L 517.720742 21.338595 
L 517.720742 21.041254 
L 518.018083 21.041254 
L 518.018083 20.743912 
L 518.018083 20.44657 
L 518.315425 20.44657 
L 518.315425 20.149229 
L 518.018083 19.851887 
L 517.720742 19.851887 
L 517.4234 19.554545 
L 517.126058 19.554545 
L 516.828717 19.554545 
" style="fill:none;stroke:#8c8c8c;stroke-linecap:square;"/>
   </g>
   <g id="line2d_74">
    <path clip-path="url(#p0f0d5fffa9)" d="M 99.063702 162.278536 
L 99.063702 161.981195 
L 99.063702 161.683853 
L 99.063702 161.386511 
L 99.063702 161.08917 
L 99.063702 160.791828 
L 99.063702 160.494486 
L 99.063702 160.197145 
L 99.063702 159.899803 
L 99.063702 159.602461 
L 99.063702 159.30512 
L 99.063702 159.007778 
L 99.063702 158.710436 
L 99.063702 158.413095 
L 99.063702 158.115753 
L 99.063702 157.818412 
L 98.76636 157.818412 
L 98.76636 157.52107 
L 98.76636 157.223728 
L 98.469019 157.223728 
L 98.469019 156.926387 
L 98.171677 156.926387 
L 97.874335 156.926387 
L 97.874335 157.223728 
L 97.576994 157.223728 
L 97.576994 157.52107 
L 97.576994 157.818412 
L 97.576994 158.115753 
L 97.576994 158.413095 
L 97.279652 158.413095 
L 97.279652 158.710436 
L 97.279652 159.007778 
L 97.279652 159.30512 
L 97.279652 159.602461 
L 97.279652 159.899803 
L 97.279652 160.197145 
L 97.279652 160.494486 
L 97.279652 160.791828 
L 97.279652 161.08917 
L 97.279652 161.386511 
L 97.279652 161.683853 
L 97.279652 161.981195 
L 97.279652 162.278536 
L 97.279652 162.575878 
L 97.279652 162.87322 
L 97.279652 163.170561 
L 97.279652 163.467903 
L 97.279652 163.765245 
L 97.279652 164.062586 
L 97.279652 164.359928 
L 97.279652 164.657269 
L 97.279652 164.954611 
L 97.279652 165.251953 
L 97.279652 165.549294 
L 97.279652 165.846636 
L 97.279652 166.143978 
L 97.279652 166.441319 
L 97.279652 166.738661 
L 97.279652 167.036003 
L 96.98231 167.630686 
L 96.98231 167.928028 
L 96.98231 168.522711 
L 96.98231 169.117394 
L 96.98231 169.414736 
L 96.98231 170.009419 
L 96.98231 170.306761 
L 96.98231 170.901444 
L 96.98231 171.198786 
L 96.98231 171.496127 
" style="fill:none;stroke:#8c8c8c;stroke-linecap:square;"/>
   </g>
   <g id="line2d_75">
    <path clip-path="url(#p0f0d5fffa9)" d="M 98.76636 157.223728 
L 98.76636 157.52107 
L 99.063702 157.52107 
L 99.063702 157.223728 
L 99.063702 156.926387 
L 99.063702 156.629045 
L 99.361044 156.629045 
L 99.361044 156.331703 
L 99.361044 156.034362 
L 99.361044 155.73702 
L 99.361044 155.439678 
L 99.361044 155.142337 
L 99.361044 154.844995 
L 99.361044 154.547653 
L 99.361044 154.250312 
L 99.361044 153.95297 
L 99.361044 153.655628 
L 99.361044 153.358287 
L 99.361044 153.060945 
L 99.361044 152.763604 
L 99.361044 152.466262 
L 99.361044 152.16892 
L 99.361044 151.871579 
L 99.361044 151.574237 
L 99.361044 151.276895 
L 99.361044 150.979554 
L 99.361044 150.682212 
L 99.361044 150.38487 
L 99.361044 150.087529 
L 99.361044 149.790187 
L 99.361044 149.492845 
L 99.361044 149.195504 
L 99.361044 148.898162 
L 99.361044 148.60082 
L 99.361044 148.303479 
L 99.361044 148.006137 
L 99.361044 147.708796 
L 99.361044 147.411454 
L 99.658385 147.114112 
L 99.658385 146.816771 
L 99.658385 146.519429 
L 99.658385 146.222087 
L 99.658385 145.924746 
L 99.658385 145.627404 
L 99.955727 145.330062 
L 99.955727 145.032721 
L 99.955727 144.735379 
L 99.955727 144.438037 
L 100.253069 144.140696 
L 100.253069 143.843354 
L 100.253069 143.546012 
L 100.55041 143.248671 
L 100.55041 142.951329 
L 100.55041 142.653988 
L 100.847752 142.653988 
L 100.847752 142.356646 
L 100.847752 142.059304 
L 101.145094 142.059304 
L 101.145094 141.761963 
L 101.145094 141.464621 
L 101.442435 141.167279 
L 101.442435 140.869938 
L 101.442435 140.572596 
L 101.739777 140.572596 
L 101.739777 140.275254 
L 102.037118 140.275254 
L 102.037118 140.572596 
L 102.037118 140.869938 
L 102.33446 141.167279 
L 102.33446 141.464621 
L 102.33446 141.761963 
L 102.631802 142.059304 
L 102.631802 142.356646 
L 102.631802 142.653988 
L 102.631802 142.951329 
L 102.631802 143.546012 
L 102.929143 143.843354 
L 102.929143 144.140696 
L 102.929143 144.735379 
L 102.929143 145.330062 
L 102.929143 145.627404 
L 103.226485 146.222087 
L 103.226485 147.114112 
L 103.226485 147.411454 
L 103.226485 148.006137 
L 103.226485 148.303479 
L 103.226485 148.898162 
L 103.226485 149.492845 
L 103.226485 149.790187 
L 103.226485 150.087529 
" style="fill:none;stroke:#8c8c8c;stroke-linecap:square;"/>
   </g>
   <g id="line2d_76">
    <path clip-path="url(#p0f0d5fffa9)" d="M 103.821168 123.32678 
L 104.11851 123.32678 
L 104.415852 123.32678 
L 104.415852 123.029439 
L 104.415852 122.732097 
L 104.415852 122.434755 
L 104.415852 122.137414 
L 104.11851 121.840072 
L 103.821168 121.840072 
L 103.821168 122.137414 
L 103.523827 122.434755 
L 103.523827 122.732097 
L 103.523827 123.029439 
L 103.523827 123.32678 
L 103.523827 123.624122 
L 103.523827 123.921464 
L 103.821168 124.218805 
L 103.821168 124.516147 
L 104.11851 124.516147 
L 104.415852 124.516147 
L 104.713193 124.516147 
L 104.713193 124.218805 
L 105.010535 124.218805 
L 105.010535 123.921464 
L 105.307877 123.624122 
L 105.307877 123.029439 
L 105.307877 122.732097 
L 105.307877 122.434755 
L 105.307877 122.137414 
L 105.307877 121.840072 
L 105.010535 121.840072 
L 105.010535 121.542731 
L 104.713193 121.542731 
L 104.415852 121.840072 
L 104.11851 122.137414 
L 104.11851 122.434755 
" style="fill:none;stroke:#8c8c8c;stroke-linecap:square;"/>
   </g>
   <g id="line2d_77">
    <path clip-path="url(#p0f0d5fffa9)" d="M 120.769642 122.434755 
L 120.769642 122.137414 
L 120.472301 122.137414 
L 120.174959 122.137414 
L 119.877617 122.137414 
L 119.877617 122.434755 
L 119.877617 122.732097 
L 119.580276 123.029439 
L 119.580276 123.32678 
L 119.580276 123.624122 
L 119.580276 123.921464 
L 119.877617 123.921464 
L 119.877617 124.218805 
L 120.174959 124.218805 
L 120.472301 124.218805 
L 120.769642 124.218805 
L 120.769642 123.921464 
L 121.066984 123.921464 
L 121.066984 123.624122 
L 121.066984 123.32678 
L 121.364326 123.32678 
L 121.364326 123.029439 
L 121.364326 122.732097 
L 121.066984 122.434755 
L 121.066984 122.732097 
L 120.769642 122.732097 
L 120.472301 122.732097 
L 120.472301 123.029439 
L 120.174959 123.029439 
L 120.174959 122.732097 
" style="fill:none;stroke:#8c8c8c;stroke-linecap:square;"/>
   </g>
   <g id="line2d_78">
    <path clip-path="url(#p0f0d5fffa9)" d="M 126.121792 122.434755 
L 125.82445 122.434755 
L 125.82445 122.732097 
L 125.82445 123.029439 
L 126.121792 123.029439 
L 126.121792 123.32678 
L 126.419134 123.32678 
L 126.716475 123.32678 
L 127.013817 123.32678 
L 127.013817 123.029439 
L 127.311159 122.732097 
L 127.311159 122.434755 
L 127.311159 122.137414 
L 127.311159 121.840072 
L 127.013817 121.840072 
L 126.716475 121.840072 
L 126.419134 122.137414 
L 126.121792 122.137414 
L 126.121792 122.434755 
L 125.82445 122.732097 
L 125.82445 123.029439 
L 125.527109 123.029439 
" style="fill:none;stroke:#8c8c8c;stroke-linecap:square;"/>
   </g>
   <g id="line2d_79">
    <path clip-path="url(#p0f0d5fffa9)" d="M 149.909124 131.949688 
L 149.909124 131.652347 
L 149.611782 131.652347 
L 149.611782 131.949688 
L 149.611782 132.24703 
L 149.909124 132.24703 
L 150.206465 132.24703 
L 150.206465 131.949688 
L 150.206465 131.652347 
L 150.206465 131.355005 
L 149.909124 131.355005 
" style="fill:none;stroke:#8c8c8c;stroke-linecap:square;"/>
   </g>
   <g id="line2d_80">
    <path clip-path="url(#p0f0d5fffa9)" d="M 156.747982 131.355005 
L 156.45064 131.355005 
L 156.45064 131.652347 
L 156.153298 131.652347 
L 156.153298 131.949688 
L 156.45064 131.949688 
L 156.747982 131.949688 
L 156.747982 131.652347 
L 156.747982 131.355005 
L 156.45064 131.355005 
L 156.45064 131.057663 
" style="fill:none;stroke:#8c8c8c;stroke-linecap:square;"/>
   </g>
   <g id="line2d_81">
    <path clip-path="url(#p0f0d5fffa9)" d="M 162.992156 128.67893 
L 162.694815 128.67893 
L 162.694815 128.976272 
L 162.694815 129.273613 
L 162.694815 129.570955 
L 162.992156 129.570955 
L 162.992156 129.273613 
L 162.694815 129.273613 
" style="fill:none;stroke:#8c8c8c;stroke-linecap:square;"/>
   </g>
   <g id="line2d_82">
    <path clip-path="url(#p0f0d5fffa9)" d="M 171.020381 126.300197 
L 170.723039 126.300197 
L 170.425697 126.597539 
L 170.425697 126.89488 
L 170.723039 126.89488 
L 170.723039 126.597539 
L 170.723039 126.300197 
" style="fill:none;stroke:#8c8c8c;stroke-linecap:square;"/>
   </g>
   <g id="line2d_83">
    <path clip-path="url(#p0f0d5fffa9)" d="M 179.94063 123.624122 
L 179.94063 123.32678 
L 179.94063 123.029439 
" style="fill:none;stroke:#8c8c8c;stroke-linecap:square;"/>
   </g>
  </g>
 </g>
 <defs>
  <clipPath id="p0f0d5fffa9">
   <rect height="271.8" width="549.160289" x="7.2" y="7.2"/>
  </clipPath>
 </defs>
</svg>
