<?xml version="1.0" encoding="utf-8" standalone="no"?>
<!DOCTYPE svg PUBLIC "-//W3C//DTD SVG 1.1//EN"
  "http://www.w3.org/Graphics/SVG/1.1/DTD/svg11.dtd">
<!-- Created with matplotlib (https://matplotlib.org/) -->
<svg height="286.2pt" version="1.1" viewBox="0 0 519.932773 286.2" width="519.932773pt" xmlns="http://www.w3.org/2000/svg" xmlns:xlink="http://www.w3.org/1999/xlink">
 <metadata>
  <rdf:RDF xmlns:cc="http://creativecommons.org/ns#" xmlns:dc="http://purl.org/dc/elements/1.1/" xmlns:rdf="http://www.w3.org/1999/02/22-rdf-syntax-ns#">
   <cc:Work>
    <dc:type rdf:resource="http://purl.org/dc/dcmitype/StillImage"/>
    <dc:date>2024-11-15T16:04:13.970015</dc:date>
    <dc:format>image/svg+xml</dc:format>
    <dc:creator>
     <cc:Agent>
      <dc:title>Matplotlib v3.3.4, https://matplotlib.org/</dc:title>
     </cc:Agent>
    </dc:creator>
   </cc:Work>
  </rdf:RDF>
 </metadata>
 <defs>
  <style type="text/css">*{stroke-linecap:butt;stroke-linejoin:round;}</style>
 </defs>
 <g id="figure_1">
  <g id="patch_1">
   <path d="M 0 286.2 
L 519.932773 286.2 
L 519.932773 0 
L 0 0 
z
" style="fill:#ffffff;"/>
  </g>
  <g id="axes_1">
   <g id="line2d_1">
    <path clip-path="url(#p30420ddb6e)" d="M 30.178762 224.425439 
L 30.178762 225.117571 
L 30.178762 224.425439 
L 30.870894 224.425439 
L 30.870894 223.733308 
L 31.563025 223.733308 
L 31.563025 223.041176 
L 32.255157 223.041176 
L 32.255157 222.349045 
L 32.947288 221.656914 
L 33.639419 220.964782 
L 35.023682 219.580519 
L 35.715814 218.888388 
L 37.100076 217.504125 
L 38.484339 216.119862 
L 39.868602 214.7356 
L 40.560733 213.351337 
L 42.637128 210.582811 
L 44.02139 208.506417 
L 46.097785 205.737892 
L 47.482047 203.661497 
L 48.86631 201.585103 
L 51.634836 198.816578 
L 53.019099 196.740183 
L 54.403361 194.663789 
L 57.171887 191.895264 
L 58.55615 190.511001 
L 60.632544 188.434607 
L 62.016807 187.050344 
L 63.40107 185.666081 
L 65.477464 183.589687 
L 67.553858 181.513293 
L 69.630252 179.436898 
L 71.014515 177.360504 
L 73.090909 175.28411 
L 75.859435 171.823453 
L 77.243697 169.747059 
L 79.320092 167.670665 
L 82.088617 164.210008 
L 84.165011 162.825745 
L 86.933537 160.057219 
L 88.3178 158.672956 
L 90.394194 156.596562 
L 92.470588 154.520168 
L 93.854851 153.135905 
L 95.931245 151.059511 
L 98.007639 149.675248 
L 99.391902 148.290985 
L 101.468296 146.214591 
L 102.160428 144.830328 
L 104.236822 142.061803 
L 105.621085 140.67754 
L 107.005348 138.601146 
L 109.081742 136.524752 
L 110.466005 135.140489 
L 111.850267 133.064095 
L 113.926662 130.987701 
L 115.310924 128.911306 
L 118.07945 126.834912 
L 120.155844 124.758518 
L 122.232238 122.682124 
L 124.308633 121.297861 
L 127.077158 117.837204 
L 129.845684 115.068678 
L 131.229947 112.992284 
L 132.614209 111.608021 
L 134.690604 108.839496 
L 136.074866 106.763102 
L 138.151261 103.994576 
L 139.535523 102.610313 
L 140.919786 100.533919 
L 142.304049 98.457525 
L 143.688312 97.073262 
L 145.072574 94.996868 
L 146.456837 92.920474 
L 147.148969 91.536211 
L 148.533231 90.151948 
L 149.917494 88.767685 
L 150.609626 87.383422 
L 151.993888 85.307028 
L 152.68602 84.614897 
L 154.070283 82.538503 
L 154.762414 80.462108 
L 155.454545 80.462108 
L 155.454545 79.769977 
" style="fill:none;stroke:#8c8c8c;stroke-linecap:square;"/>
   </g>
   <g id="line2d_2">
    <path clip-path="url(#p30420ddb6e)" d="M 160.991597 74.925057 
L 161.683728 74.925057 
L 161.683728 75.617189 
L 162.375859 75.617189 
L 162.375859 76.30932 
L 163.067991 76.30932 
L 163.760122 77.693583 
L 165.144385 79.077846 
L 165.836516 79.769977 
L 166.528648 80.462108 
L 167.220779 81.846371 
L 168.605042 83.230634 
L 169.989305 85.307028 
L 170.681436 86.691291 
L 171.373568 88.767685 
L 172.75783 91.536211 
L 174.142093 92.920474 
L 174.834225 94.996868 
L 175.526356 96.381131 
L 176.910619 98.457525 
L 178.294882 101.22605 
L 179.679144 102.610313 
L 180.371276 104.686707 
L 181.755539 106.763102 
L 183.139801 108.147364 
L 183.831933 110.223759 
L 185.216196 112.300153 
L 185.908327 113.684416 
L 187.29259 115.76081 
L 188.676853 117.837204 
L 190.061115 119.913598 
L 191.445378 122.682124 
L 193.521772 125.450649 
L 194.213904 126.834912 
L 195.598167 128.911306 
L 196.982429 131.679832 
L 197.674561 133.064095 
L 198.366692 135.140489 
L 199.750955 137.216883 
L 201.135218 139.985409 
L 201.827349 141.369672 
L 201.827349 142.061803 
L 202.519481 144.138197 
L 203.903743 146.214591 
L 204.595875 147.598854 
L 205.288006 149.675248 
L 205.980138 151.059511 
L 207.3644 153.828037 
L 208.056532 155.212299 
L 209.440794 157.980825 
L 210.132926 160.057219 
L 212.20932 162.825745 
L 212.901451 164.902139 
L 214.285714 166.978533 
L 215.669977 169.054927 
L 217.746371 171.823453 
L 219.130634 174.591979 
L 220.514897 176.668373 
L 221.207028 178.052636 
L 223.283422 180.12903 
L 223.975554 181.513293 
L 225.359817 184.281818 
L 226.744079 185.666081 
L 227.436211 187.050344 
L 228.820474 189.126738 
L 230.204736 190.511001 
L 230.896868 192.587395 
L 232.973262 194.663789 
L 233.665393 196.740183 
L 235.049656 198.816578 
L 235.741788 200.20084 
L 237.12605 201.585103 
L 237.818182 202.969366 
L 239.202445 205.04576 
L 240.586707 207.122154 
L 241.278839 207.814286 
L 241.97097 209.198549 
L 242.663102 209.89068 
L 243.355233 211.967074 
L 244.739496 213.351337 
L 245.431627 214.043468 
L 246.123759 215.427731 
L 246.81589 216.119862 
L 247.508021 217.504125 
L 248.200153 218.888388 
L 248.892284 220.272651 
L 249.584416 220.964782 
L 250.968678 222.349045 
L 251.66081 223.041176 
L 252.352941 224.425439 
L 253.045073 225.809702 
L 253.737204 226.501833 
L 255.121467 228.578228 
L 255.813598 229.270359 
L 256.50573 229.96249 
L 257.197861 231.346753 
L 257.889992 232.038885 
L 257.889992 232.731016 
" style="fill:none;stroke:#8c8c8c;stroke-linecap:square;"/>
   </g>
   <g id="line2d_3">
    <path clip-path="url(#p30420ddb6e)" d="M 67.553858 124.758518 
L 68.245989 124.758518 
L 68.938121 124.758518 
" style="fill:none;stroke:#8c8c8c;stroke-linecap:square;"/>
   </g>
   <g id="line2d_4">
    <path clip-path="url(#p30420ddb6e)" d="M 72.398778 124.066387 
L 73.090909 124.066387 
L 73.78304 124.066387 
" style="fill:none;stroke:#8c8c8c;stroke-linecap:square;"/>
   </g>
   <g id="line2d_5">
    <path clip-path="url(#p30420ddb6e)" d="M 76.551566 124.066387 
L 77.243697 124.758518 
L 77.935829 124.758518 
" style="fill:none;stroke:#8c8c8c;stroke-linecap:square;"/>
   </g>
   <g id="line2d_6">
    <path clip-path="url(#p30420ddb6e)" d="M 80.704354 124.066387 
L 81.396486 124.066387 
L 82.088617 124.066387 
" style="fill:none;stroke:#8c8c8c;stroke-linecap:square;"/>
   </g>
   <g id="line2d_7">
    <path clip-path="url(#p30420ddb6e)" d="M 85.549274 124.066387 
L 86.241406 124.066387 
L 86.933537 124.066387 
L 87.625668 124.066387 
" style="fill:none;stroke:#8c8c8c;stroke-linecap:square;"/>
   </g>
   <g id="line2d_8">
    <path clip-path="url(#p30420ddb6e)" d="M 91.086325 124.758518 
L 91.778457 124.758518 
L 92.470588 124.758518 
" style="fill:none;stroke:#8c8c8c;stroke-linecap:square;"/>
   </g>
   <g id="line2d_9">
    <path clip-path="url(#p30420ddb6e)" d="M 103.544691 124.066387 
L 104.236822 124.066387 
L 104.928953 124.066387 
L 104.928953 124.758518 
L 105.621085 124.758518 
" style="fill:none;stroke:#8c8c8c;stroke-linecap:square;"/>
   </g>
   <g id="line2d_10">
    <path clip-path="url(#p30420ddb6e)" d="M 96.623377 124.066387 
L 95.931245 124.066387 
L 95.239114 124.066387 
L 95.931245 124.066387 
" style="fill:none;stroke:#8c8c8c;stroke-linecap:square;"/>
   </g>
   <g id="line2d_11">
    <path clip-path="url(#p30420ddb6e)" d="M 100.084034 121.989992 
L 100.776165 121.989992 
L 101.468296 121.989992 
L 102.160428 122.682124 
" style="fill:none;stroke:#8c8c8c;stroke-linecap:square;"/>
   </g>
   <g id="line2d_12">
    <path clip-path="url(#p30420ddb6e)" d="M 107.005348 122.682124 
L 107.697479 122.682124 
L 108.38961 122.682124 
L 109.081742 122.682124 
" style="fill:none;stroke:#8c8c8c;stroke-linecap:square;"/>
   </g>
   <g id="line2d_13">
    <path clip-path="url(#p30420ddb6e)" d="M 111.850267 123.374255 
L 112.542399 123.374255 
L 113.23453 123.374255 
L 113.23453 123.374255 
L 113.926662 123.374255 
L 114.618793 123.374255 
L 115.310924 123.374255 
L 116.003056 123.374255 
L 116.695187 123.374255 
L 117.387319 123.374255 
L 118.07945 123.374255 
" style="fill:none;stroke:#8c8c8c;stroke-linecap:square;"/>
   </g>
   <g id="line2d_14">
    <path clip-path="url(#p30420ddb6e)" d="M 194.906035 123.374255 
L 194.906035 124.066387 
L 195.598167 124.066387 
L 195.598167 124.758518 
" style="fill:none;stroke:#8c8c8c;stroke-linecap:square;"/>
   </g>
   <g id="line2d_15">
    <path clip-path="url(#p30420ddb6e)" d="M 199.058824 124.758518 
L 199.750955 124.758518 
L 200.443086 124.758518 
L 201.135218 124.758518 
L 201.827349 124.758518 
" style="fill:none;stroke:#8c8c8c;stroke-linecap:square;"/>
   </g>
   <g id="line2d_16">
    <path clip-path="url(#p30420ddb6e)" d="M 203.903743 124.066387 
L 204.595875 124.066387 
L 205.288006 124.066387 
L 205.980138 124.066387 
L 206.672269 124.066387 
L 207.3644 124.066387 
L 208.056532 124.066387 
L 208.748663 124.066387 
L 209.440794 124.066387 
L 210.132926 124.066387 
L 210.825057 124.066387 
L 211.517189 124.066387 
" style="fill:none;stroke:#8c8c8c;stroke-linecap:square;"/>
   </g>
   <g id="line2d_17">
    <path clip-path="url(#p30420ddb6e)" d="M 215.669977 124.066387 
L 216.362108 124.066387 
" style="fill:none;stroke:#8c8c8c;stroke-linecap:square;"/>
   </g>
   <g id="line2d_18">
    <path clip-path="url(#p30420ddb6e)" d="M 218.438503 124.066387 
L 219.130634 124.066387 
L 219.822765 124.066387 
" style="fill:none;stroke:#8c8c8c;stroke-linecap:square;"/>
   </g>
   <g id="line2d_19">
    <path clip-path="url(#p30420ddb6e)" d="M 222.591291 124.066387 
L 223.283422 124.066387 
L 223.975554 124.066387 
L 223.975554 124.758518 
" style="fill:none;stroke:#8c8c8c;stroke-linecap:square;"/>
   </g>
   <g id="line2d_20">
    <path clip-path="url(#p30420ddb6e)" d="M 235.741788 124.066387 
L 236.433919 124.066387 
L 237.12605 124.066387 
L 237.12605 124.758518 
L 237.818182 124.758518 
" style="fill:none;stroke:#8c8c8c;stroke-linecap:square;"/>
   </g>
   <g id="line2d_21">
    <path clip-path="url(#p30420ddb6e)" d="M 241.278839 124.066387 
L 241.97097 124.758518 
L 242.663102 124.758518 
" style="fill:none;stroke:#8c8c8c;stroke-linecap:square;"/>
   </g>
   <g id="line2d_22">
    <path clip-path="url(#p30420ddb6e)" d="M 253.045073 124.066387 
L 253.737204 124.066387 
L 254.429335 124.066387 
L 255.121467 124.066387 
L 255.813598 124.758518 
L 256.50573 124.758518 
L 257.197861 124.758518 
" style="fill:none;stroke:#8c8c8c;stroke-linecap:square;"/>
   </g>
   <g id="line2d_23">
    <path clip-path="url(#p30420ddb6e)" d="M 259.966387 124.758518 
L 260.658518 124.758518 
L 261.350649 124.758518 
L 262.042781 124.758518 
L 262.042781 125.450649 
L 262.734912 125.450649 
L 263.427044 125.450649 
L 264.119175 125.450649 
L 264.811306 125.450649 
L 265.503438 125.450649 
" style="fill:none;stroke:#8c8c8c;stroke-linecap:square;"/>
   </g>
   <g id="line2d_24">
    <path clip-path="url(#p30420ddb6e)" d="M 226.744079 121.989992 
L 226.744079 122.682124 
L 227.436211 122.682124 
L 228.128342 123.374255 
" style="fill:none;stroke:#8c8c8c;stroke-linecap:square;"/>
   </g>
   <g id="line2d_25">
    <path clip-path="url(#p30420ddb6e)" d="M 248.200153 121.989992 
L 248.200153 122.682124 
L 248.892284 122.682124 
" style="fill:none;stroke:#8c8c8c;stroke-linecap:square;"/>
   </g>
   <g id="line2d_26">
    <path clip-path="url(#p30420ddb6e)" d="M 243.355233 124.066387 
L 244.047364 124.066387 
L 244.739496 124.066387 
L 245.431627 124.066387 
" style="fill:none;stroke:#8c8c8c;stroke-linecap:square;"/>
   </g>
   <g id="line2d_27">
    <path clip-path="url(#p30420ddb6e)" d="M 298.725745 114.376547 
L 299.417876 114.376547 
L 298.725745 114.376547 
L 298.725745 115.068678 
L 298.033613 115.068678 
L 297.341482 115.068678 
L 297.341482 115.76081 
L 296.649351 115.76081 
L 295.265088 117.145073 
L 294.572956 117.837204 
L 293.880825 118.529335 
L 293.188694 119.221467 
L 292.496562 119.913598 
L 292.496562 121.297861 
L 291.804431 121.989992 
L 291.804431 122.682124 
L 292.496562 122.682124 
L 292.496562 123.374255 
L 293.188694 123.374255 
L 293.880825 123.374255 
L 294.572956 123.374255 
L 295.265088 124.066387 
L 295.957219 124.066387 
L 297.341482 124.066387 
L 298.033613 124.066387 
L 298.725745 124.758518 
L 300.110008 125.450649 
L 300.802139 125.450649 
L 301.49427 126.834912 
L 302.186402 127.527044 
L 302.186402 128.219175 
L 302.186402 129.603438 
L 302.186402 130.295569 
L 301.49427 130.987701 
L 300.802139 131.679832 
L 300.110008 131.679832 
L 298.725745 131.679832 
L 297.341482 131.679832 
L 296.649351 130.987701 
" style="fill:none;stroke:#8c8c8c;stroke-linecap:square;"/>
   </g>
   <g id="line2d_28">
    <path clip-path="url(#p30420ddb6e)" d="M 305.647059 113.684416 
L 305.647059 114.376547 
L 306.33919 115.068678 
L 306.33919 115.76081 
L 306.33919 116.452941 
L 306.33919 117.837204 
L 307.031322 119.913598 
L 307.031322 120.60573 
L 307.031322 121.989992 
L 307.031322 124.066387 
L 307.723453 124.758518 
L 307.723453 126.142781 
L 308.415584 127.527044 
L 308.415584 128.219175 
L 309.799847 128.911306 
L 310.491979 128.911306 
L 311.876241 128.911306 
L 313.260504 128.911306 
L 315.336898 128.911306 
L 318.105424 128.219175 
L 318.797555 128.219175 
" style="fill:none;stroke:#8c8c8c;stroke-linecap:square;"/>
   </g>
   <g id="line2d_29">
    <path clip-path="url(#p30420ddb6e)" d="M 91.778457 126.834912 
L 91.778457 126.142781 
L 91.086325 126.142781 
L 90.394194 126.142781 
" style="fill:none;stroke:#8c8c8c;stroke-linecap:square;"/>
   </g>
   <g id="line2d_30">
    <path clip-path="url(#p30420ddb6e)" d="M 89.009931 128.219175 
L 89.009931 128.911306 
L 89.009931 129.603438 
L 89.702063 129.603438 
L 89.702063 130.295569 
L 89.702063 130.987701 
" style="fill:none;stroke:#8c8c8c;stroke-linecap:square;"/>
   </g>
   <g id="line2d_31">
    <path clip-path="url(#p30420ddb6e)" d="M 89.009931 136.524752 
L 89.009931 137.216883 
L 89.009931 137.909015 
L 89.702063 137.909015 
L 89.702063 138.601146 
L 89.702063 139.293277 
L 89.702063 139.985409 
L 89.702063 140.67754 
L 89.702063 141.369672 
" style="fill:none;stroke:#8c8c8c;stroke-linecap:square;"/>
   </g>
   <g id="line2d_32">
    <path clip-path="url(#p30420ddb6e)" d="M 89.702063 146.906723 
L 90.394194 148.290985 
L 90.394194 148.983117 
L 90.394194 149.675248 
L 90.394194 150.36738 
L 90.394194 151.059511 
L 90.394194 151.751642 
L 90.394194 152.443774 
" style="fill:none;stroke:#8c8c8c;stroke-linecap:square;"/>
   </g>
   <g id="line2d_33">
    <path clip-path="url(#p30420ddb6e)" d="M 91.086325 124.758518 
L 91.086325 125.450649 
L 91.086325 126.142781 
L 91.086325 126.834912 
L 91.086325 127.527044 
L 91.086325 128.219175 
L 91.086325 128.911306 
L 91.086325 129.603438 
L 91.086325 130.295569 
L 91.086325 131.679832 
L 91.086325 132.371963 
L 91.086325 133.756226 
L 91.086325 134.448358 
L 91.086325 136.524752 
L 91.086325 138.601146 
L 90.394194 139.293277 
L 90.394194 140.67754 
L 90.394194 142.061803 
L 90.394194 143.446066 
L 90.394194 144.830328 
L 90.394194 145.52246 
L 90.394194 146.214591 
L 90.394194 147.598854 
L 90.394194 148.290985 
L 90.394194 148.983117 
L 90.394194 149.675248 
L 90.394194 150.36738 
L 90.394194 151.059511 
L 90.394194 151.751642 
L 90.394194 152.443774 
" style="fill:none;stroke:#8c8c8c;stroke-linecap:square;"/>
   </g>
   <g id="line2d_34">
    <path clip-path="url(#p30420ddb6e)" d="M 89.009931 125.450649 
L 89.702063 125.450649 
L 90.394194 125.450649 
L 91.086325 125.450649 
L 91.086325 126.142781 
L 91.778457 126.142781 
L 92.470588 126.142781 
L 93.16272 126.142781 
L 93.854851 126.142781 
L 94.546982 126.142781 
L 95.239114 126.142781 
L 95.931245 126.142781 
L 96.623377 126.142781 
L 97.315508 126.142781 
L 98.007639 126.142781 
L 98.699771 126.142781 
L 99.391902 126.142781 
L 100.084034 126.142781 
L 100.776165 126.142781 
L 101.468296 126.142781 
L 102.160428 126.142781 
L 102.852559 126.142781 
L 103.544691 126.142781 
L 104.236822 126.142781 
L 104.928953 126.142781 
L 105.621085 126.142781 
L 106.313216 126.142781 
L 107.005348 126.142781 
L 107.697479 126.142781 
L 108.38961 126.142781 
L 109.081742 126.142781 
L 109.773873 126.142781 
L 110.466005 126.142781 
L 110.466005 126.834912 
L 111.158136 126.834912 
L 111.850267 126.834912 
L 112.542399 126.834912 
L 113.23453 126.834912 
L 113.926662 126.834912 
L 113.926662 126.142781 
L 114.618793 126.142781 
" style="fill:none;stroke:#8c8c8c;stroke-linecap:square;"/>
   </g>
   <g id="line2d_35">
    <path clip-path="url(#p30420ddb6e)" d="M 90.394194 128.911306 
L 91.086325 128.911306 
L 91.778457 128.911306 
L 91.778457 129.603438 
L 91.086325 129.603438 
L 91.086325 130.295569 
L 91.086325 131.679832 
L 90.394194 133.064095 
L 90.394194 133.756226 
L 89.702063 135.140489 
L 89.009931 136.524752 
L 89.009931 137.216883 
L 89.009931 137.909015 
L 88.3178 137.909015 
L 88.3178 138.601146 
" style="fill:none;stroke:#8c8c8c;stroke-linecap:square;"/>
   </g>
   <g id="line2d_36">
    <path clip-path="url(#p30420ddb6e)" d="M 98.699771 126.142781 
L 99.391902 126.142781 
L 99.391902 126.834912 
L 98.699771 128.219175 
L 98.699771 128.911306 
L 98.007639 130.295569 
L 98.007639 130.987701 
L 98.007639 132.371963 
L 97.315508 133.756226 
L 96.623377 135.83262 
L 95.931245 136.524752 
L 95.239114 137.909015 
L 95.239114 138.601146 
L 94.546982 139.985409 
L 93.854851 141.369672 
L 93.854851 142.061803 
L 93.16272 142.061803 
" style="fill:none;stroke:#8c8c8c;stroke-linecap:square;"/>
   </g>
   <g id="line2d_37">
    <path clip-path="url(#p30420ddb6e)" d="M 100.776165 129.603438 
L 101.468296 129.603438 
L 101.468296 130.295569 
L 101.468296 130.987701 
L 100.776165 131.679832 
L 100.776165 132.371963 
L 99.391902 135.140489 
L 98.699771 136.524752 
L 97.315508 139.293277 
L 96.623377 141.369672 
L 95.931245 142.753934 
L 95.239114 144.830328 
L 94.546982 145.52246 
L 94.546982 146.214591 
L 94.546982 146.906723 
L 93.854851 146.906723 
" style="fill:none;stroke:#8c8c8c;stroke-linecap:square;"/>
   </g>
   <g id="line2d_38">
    <path clip-path="url(#p30420ddb6e)" d="M 106.313216 128.911306 
L 106.313216 129.603438 
L 106.313216 130.295569 
L 106.313216 130.987701 
L 105.621085 132.371963 
L 104.928953 133.756226 
L 104.928953 135.140489 
L 104.236822 136.524752 
L 103.544691 138.601146 
L 103.544691 139.293277 
L 103.544691 139.985409 
L 102.852559 140.67754 
" style="fill:none;stroke:#8c8c8c;stroke-linecap:square;"/>
   </g>
   <g id="line2d_39">
    <path clip-path="url(#p30420ddb6e)" d="M 108.38961 132.371963 
L 108.38961 131.679832 
L 109.081742 130.987701 
L 109.773873 130.987701 
L 109.081742 132.371963 
L 109.081742 133.064095 
L 109.081742 134.448358 
L 109.081742 135.140489 
L 108.38961 136.524752 
L 108.38961 137.216883 
L 108.38961 138.601146 
" style="fill:none;stroke:#8c8c8c;stroke-linecap:square;"/>
   </g>
   <g id="line2d_40">
    <path clip-path="url(#p30420ddb6e)" d="M 203.211612 124.066387 
L 202.519481 124.066387 
L 202.519481 124.758518 
L 201.827349 124.758518 
L 201.135218 124.758518 
L 200.443086 124.758518 
L 199.750955 124.758518 
L 199.750955 125.450649 
L 199.058824 125.450649 
L 198.366692 125.450649 
L 197.674561 125.450649 
L 196.982429 125.450649 
L 196.290298 125.450649 
L 196.982429 125.450649 
L 197.674561 125.450649 
L 198.366692 125.450649 
L 199.058824 125.450649 
L 199.750955 125.450649 
L 200.443086 125.450649 
L 201.135218 125.450649 
L 201.827349 125.450649 
L 202.519481 125.450649 
L 203.211612 125.450649 
L 203.903743 125.450649 
L 204.595875 125.450649 
L 205.288006 125.450649 
L 205.980138 124.758518 
L 207.3644 124.758518 
L 208.056532 124.758518 
L 208.748663 124.758518 
L 209.440794 124.758518 
L 210.132926 124.758518 
L 210.825057 124.758518 
L 211.517189 124.758518 
L 212.20932 124.758518 
" style="fill:none;stroke:#8c8c8c;stroke-linecap:square;"/>
   </g>
   <g id="line2d_41">
    <path clip-path="url(#p30420ddb6e)" d="M 214.285714 125.450649 
L 214.285714 126.142781 
L 214.285714 126.834912 
L 214.285714 127.527044 
L 214.285714 128.219175 
L 214.285714 128.911306 
L 214.285714 129.603438 
L 213.593583 130.295569 
L 213.593583 130.987701 
L 213.593583 131.679832 
L 213.593583 132.371963 
L 213.593583 133.756226 
L 213.593583 134.448358 
L 213.593583 135.140489 
L 212.901451 136.524752 
L 212.901451 137.909015 
L 212.901451 138.601146 
L 212.901451 139.985409 
L 212.20932 140.67754 
L 212.20932 142.061803 
L 212.20932 142.753934 
L 212.20932 143.446066 
L 212.20932 144.138197 
L 212.20932 144.830328 
L 212.20932 145.52246 
L 212.20932 146.214591 
L 212.20932 146.906723 
L 212.20932 147.598854 
L 212.20932 148.290985 
L 212.20932 148.983117 
L 212.20932 149.675248 
L 211.517189 150.36738 
L 211.517189 151.059511 
L 211.517189 151.751642 
L 211.517189 152.443774 
" style="fill:none;stroke:#8c8c8c;stroke-linecap:square;"/>
   </g>
   <g id="line2d_42">
    <path clip-path="url(#p30420ddb6e)" d="M 199.750955 127.527044 
L 199.750955 128.219175 
L 199.750955 128.911306 
L 199.750955 129.603438 
L 199.750955 130.295569 
L 199.750955 130.987701 
L 200.443086 131.679832 
L 200.443086 133.064095 
L 201.135218 135.140489 
L 201.827349 136.524752 
L 201.827349 137.216883 
L 202.519481 138.601146 
L 203.211612 139.985409 
L 203.211612 140.67754 
L 203.903743 141.369672 
L 203.903743 142.061803 
" style="fill:none;stroke:#8c8c8c;stroke-linecap:square;"/>
   </g>
   <g id="line2d_43">
    <path clip-path="url(#p30420ddb6e)" d="M 201.827349 130.295569 
L 201.827349 129.603438 
L 202.519481 129.603438 
L 203.211612 130.987701 
L 203.211612 131.679832 
L 203.903743 132.371963 
L 205.288006 134.448358 
L 205.980138 136.524752 
L 207.3644 139.293277 
L 208.056532 140.67754 
L 208.056532 142.061803 
L 208.748663 143.446066 
L 209.440794 144.138197 
L 209.440794 144.138197 
" style="fill:none;stroke:#8c8c8c;stroke-linecap:square;"/>
   </g>
   <g id="line2d_44">
    <path clip-path="url(#p30420ddb6e)" d="M 205.980138 130.987701 
L 205.980138 130.295569 
L 205.980138 129.603438 
L 206.672269 129.603438 
L 207.3644 129.603438 
L 207.3644 130.295569 
L 208.056532 130.987701 
L 208.056532 131.679832 
L 208.748663 133.756226 
L 209.440794 135.140489 
L 210.132926 137.216883 
L 210.132926 138.601146 
L 210.825057 139.293277 
L 210.825057 140.67754 
L 210.825057 141.369672 
L 210.825057 140.67754 
" style="fill:none;stroke:#8c8c8c;stroke-linecap:square;"/>
   </g>
   <g id="line2d_45">
    <path clip-path="url(#p30420ddb6e)" d="M 209.440794 130.295569 
L 209.440794 128.911306 
L 209.440794 128.219175 
L 210.132926 128.219175 
L 210.132926 128.911306 
L 210.825057 129.603438 
L 210.825057 130.295569 
L 211.517189 130.987701 
L 211.517189 133.064095 
L 212.20932 134.448358 
L 212.20932 135.83262 
L 212.20932 137.216883 
L 212.20932 138.601146 
L 212.20932 139.293277 
L 212.20932 140.67754 
L 212.20932 141.369672 
L 211.517189 142.061803 
" style="fill:none;stroke:#8c8c8c;stroke-linecap:square;"/>
   </g>
   <g id="line2d_46">
    <path clip-path="url(#p30420ddb6e)" d="M 208.056532 148.290985 
L 208.748663 148.290985 
L 208.748663 147.598854 
L 208.748663 148.290985 
L 208.748663 148.983117 
L 208.748663 149.675248 
L 208.748663 150.36738 
L 208.748663 151.059511 
L 208.748663 151.751642 
L 208.748663 152.443774 
L 208.748663 153.135905 
L 208.748663 153.828037 
L 208.056532 153.828037 
L 208.056532 154.520168 
" style="fill:none;stroke:#8c8c8c;stroke-linecap:square;"/>
   </g>
   <g id="line2d_47">
    <path clip-path="url(#p30420ddb6e)" d="M 205.288006 144.830328 
L 205.288006 144.138197 
L 205.288006 143.446066 
L 205.980138 142.753934 
L 205.980138 143.446066 
L 205.980138 144.138197 
L 206.672269 144.830328 
L 206.672269 145.52246 
L 206.672269 146.214591 
L 206.672269 146.906723 
L 207.3644 146.906723 
L 207.3644 147.598854 
L 207.3644 146.906723 
L 207.3644 146.214591 
L 208.056532 145.52246 
L 208.056532 144.830328 
L 208.748663 144.830328 
L 208.748663 145.52246 
L 208.748663 146.214591 
L 208.748663 146.906723 
L 208.748663 147.598854 
L 208.748663 148.290985 
L 208.748663 148.983117 
" style="fill:none;stroke:#8c8c8c;stroke-linecap:square;"/>
   </g>
   <g id="line2d_48">
    <path clip-path="url(#p30420ddb6e)" d="M 214.977846 128.219175 
L 214.977846 128.911306 
L 214.977846 129.603438 
L 214.977846 130.295569 
L 214.977846 130.987701 
L 214.977846 131.679832 
L 214.977846 132.371963 
L 214.977846 133.064095 
L 214.977846 133.756226 
L 214.977846 134.448358 
L 214.977846 135.140489 
L 214.285714 135.140489 
L 214.285714 135.83262 
L 214.285714 136.524752 
L 214.285714 137.909015 
L 214.285714 138.601146 
L 214.285714 139.293277 
L 214.285714 139.985409 
L 214.285714 140.67754 
L 214.285714 141.369672 
L 214.285714 142.061803 
L 214.285714 142.753934 
L 214.285714 144.138197 
L 214.285714 144.830328 
L 214.285714 146.906723 
L 214.285714 147.598854 
L 214.285714 148.290985 
L 213.593583 149.675248 
L 213.593583 150.36738 
L 213.593583 151.059511 
L 213.593583 151.751642 
L 213.593583 152.443774 
L 213.593583 153.135905 
L 213.593583 153.828037 
L 213.593583 154.520168 
L 213.593583 155.212299 
L 213.593583 155.904431 
L 213.593583 156.596562 
L 213.593583 157.288694 
L 213.593583 157.980825 
L 213.593583 158.672956 
L 213.593583 159.365088 
L 213.593583 160.057219 
L 213.593583 160.749351 
L 213.593583 161.441482 
L 213.593583 162.133613 
L 213.593583 162.825745 
L 213.593583 163.517876 
L 213.593583 164.210008 
L 213.593583 164.902139 
L 213.593583 165.59427 
L 213.593583 166.286402 
L 213.593583 166.978533 
" style="fill:none;stroke:#8c8c8c;stroke-linecap:square;"/>
   </g>
   <g id="line2d_49">
    <path clip-path="url(#p30420ddb6e)" d="M 209.440794 153.135905 
L 210.132926 153.135905 
L 210.132926 153.828037 
L 210.132926 154.520168 
L 210.132926 153.828037 
L 210.132926 153.135905 
L 209.440794 153.135905 
L 209.440794 152.443774 
L 209.440794 151.751642 
L 209.440794 151.059511 
L 209.440794 150.36738 
L 208.748663 150.36738 
L 208.748663 149.675248 
" style="fill:none;stroke:#8c8c8c;stroke-linecap:square;"/>
   </g>
   <g id="line2d_50">
    <path clip-path="url(#p30420ddb6e)" d="M 210.825057 126.142781 
L 210.825057 126.834912 
L 210.132926 127.527044 
L 209.440794 127.527044 
L 209.440794 128.219175 
L 208.748663 128.219175 
L 208.056532 128.219175 
L 207.3644 128.219175 
L 206.672269 127.527044 
L 205.980138 127.527044 
L 205.288006 127.527044 
L 205.288006 126.834912 
L 204.595875 126.834912 
L 203.903743 126.834912 
L 203.211612 126.834912 
L 202.519481 126.834912 
L 201.827349 126.834912 
L 201.135218 127.527044 
L 200.443086 127.527044 
L 200.443086 128.219175 
" style="fill:none;stroke:#8c8c8c;stroke-linecap:square;"/>
   </g>
   <g id="line2d_51">
    <path clip-path="url(#p30420ddb6e)" d="M 305.647059 140.67754 
L 305.647059 139.985409 
L 305.647059 140.67754 
L 305.647059 141.369672 
L 305.647059 142.061803 
L 305.647059 143.446066 
L 304.954927 145.52246 
L 304.954927 147.598854 
L 304.954927 149.675248 
L 304.954927 152.443774 
L 304.954927 155.904431 
L 304.954927 160.057219 
L 304.954927 162.825745 
L 304.954927 167.670665 
L 304.954927 169.054927 
L 304.954927 172.515584 
L 304.954927 175.976241 
L 305.647059 178.052636 
L 305.647059 179.436898 
L 305.647059 180.821161 
L 305.647059 181.513293 
L 304.954927 182.897555 
L 304.262796 182.897555 
" style="fill:none;stroke:#8c8c8c;stroke-linecap:square;"/>
   </g>
   <g id="line2d_52">
    <path clip-path="url(#p30420ddb6e)" d="M 298.725745 171.131322 
L 298.725745 171.823453 
L 299.417876 172.515584 
L 300.110008 174.591979 
L 300.802139 175.976241 
L 301.49427 178.052636 
L 302.878533 180.821161 
L 303.570665 182.897555 
L 304.262796 184.281818 
L 305.647059 186.358212 
L 306.33919 187.742475 
L 307.723453 189.126738 
L 309.107716 189.126738 
L 311.18411 189.126738 
L 313.260504 188.434607 
L 315.336898 187.050344 
L 318.105424 184.97395 
L 320.87395 182.897555 
" style="fill:none;stroke:#8c8c8c;stroke-linecap:square;"/>
   </g>
   <g id="line2d_53">
    <path clip-path="url(#p30420ddb6e)" d="M 258.582124 229.96249 
L 258.582124 229.270359 
L 258.582124 229.96249 
L 259.274255 229.96249 
" style="fill:none;stroke:#8c8c8c;stroke-linecap:square;"/>
   </g>
   <g id="line2d_54">
    <path clip-path="url(#p30420ddb6e)" d="M 262.042781 229.96249 
L 262.042781 229.270359 
L 262.734912 229.270359 
L 263.427044 229.270359 
L 264.119175 229.96249 
L 264.811306 229.96249 
L 265.503438 229.96249 
" style="fill:none;stroke:#8c8c8c;stroke-linecap:square;"/>
   </g>
   <g id="line2d_55">
    <path clip-path="url(#p30420ddb6e)" d="M 269.656226 229.96249 
L 270.348358 229.96249 
L 271.040489 229.96249 
" style="fill:none;stroke:#8c8c8c;stroke-linecap:square;"/>
   </g>
   <g id="line2d_56">
    <path clip-path="url(#p30420ddb6e)" d="M 273.116883 229.96249 
L 273.809015 229.96249 
L 274.501146 229.96249 
L 275.193277 229.96249 
L 275.885409 229.96249 
" style="fill:none;stroke:#8c8c8c;stroke-linecap:square;"/>
   </g>
   <g id="line2d_57">
    <path clip-path="url(#p30420ddb6e)" d="M 279.346066 229.270359 
L 280.038197 229.270359 
L 280.730328 229.270359 
L 281.42246 229.270359 
L 282.114591 229.270359 
" style="fill:none;stroke:#8c8c8c;stroke-linecap:square;"/>
   </g>
   <g id="line2d_58">
    <path clip-path="url(#p30420ddb6e)" d="M 296.649351 228.578228 
L 297.341482 228.578228 
L 298.033613 228.578228 
L 298.725745 228.578228 
L 299.417876 228.578228 
L 300.110008 228.578228 
" style="fill:none;stroke:#8c8c8c;stroke-linecap:square;"/>
   </g>
   <g id="line2d_59">
    <path clip-path="url(#p30420ddb6e)" d="M 286.26738 227.193965 
L 285.575248 227.886096 
L 284.883117 227.886096 
L 285.575248 227.886096 
" style="fill:none;stroke:#8c8c8c;stroke-linecap:square;"/>
   </g>
   <g id="line2d_60">
    <path clip-path="url(#p30420ddb6e)" d="M 293.188694 226.501833 
L 293.880825 226.501833 
L 293.880825 227.193965 
L 294.572956 227.193965 
L 295.265088 227.193965 
L 295.957219 227.193965 
L 296.649351 227.193965 
L 297.341482 227.193965 
" style="fill:none;stroke:#8c8c8c;stroke-linecap:square;"/>
   </g>
   <g id="line2d_61">
    <path clip-path="url(#p30420ddb6e)" d="M 301.49427 226.501833 
L 302.186402 226.501833 
L 302.878533 226.501833 
L 303.570665 226.501833 
L 304.262796 226.501833 
L 304.954927 226.501833 
" style="fill:none;stroke:#8c8c8c;stroke-linecap:square;"/>
   </g>
   <g id="line2d_62">
    <path clip-path="url(#p30420ddb6e)" d="M 306.33919 226.501833 
L 307.031322 226.501833 
L 307.723453 226.501833 
L 308.415584 226.501833 
L 309.107716 226.501833 
L 309.799847 226.501833 
L 310.491979 225.809702 
L 311.18411 225.809702 
L 311.876241 225.809702 
L 312.568373 225.809702 
L 313.260504 225.809702 
L 313.952636 225.809702 
L 314.644767 225.809702 
L 315.336898 225.809702 
L 315.336898 225.117571 
L 316.02903 225.117571 
L 316.721161 225.117571 
L 317.413293 225.117571 
" style="fill:none;stroke:#8c8c8c;stroke-linecap:square;"/>
   </g>
   <g id="line2d_63">
    <path clip-path="url(#p30420ddb6e)" d="M 259.274255 231.346753 
L 259.274255 232.038885 
L 259.966387 232.038885 
L 260.658518 232.038885 
L 261.350649 232.038885 
L 262.042781 232.038885 
L 262.734912 232.038885 
L 263.427044 232.038885 
L 264.811306 232.731016 
L 265.503438 232.731016 
L 266.195569 232.731016 
L 266.887701 232.731016 
L 267.579832 232.731016 
L 268.271963 232.731016 
L 268.964095 232.731016 
L 269.656226 232.731016 
L 270.348358 232.731016 
L 271.040489 232.731016 
L 271.73262 232.731016 
L 272.424752 232.731016 
L 273.116883 232.731016 
L 273.809015 232.038885 
L 274.501146 232.038885 
L 275.193277 232.038885 
L 275.885409 232.038885 
L 276.57754 232.038885 
L 277.269672 232.038885 
L 277.961803 232.038885 
L 278.653934 232.038885 
L 279.346066 232.038885 
L 280.038197 232.038885 
L 280.730328 232.038885 
" style="fill:none;stroke:#8c8c8c;stroke-linecap:square;"/>
   </g>
   <g id="line2d_64">
    <path clip-path="url(#p30420ddb6e)" d="M 284.883117 232.731016 
L 284.190985 233.423147 
L 284.190985 234.115279 
L 283.498854 234.115279 
L 283.498854 234.80741 
L 282.806723 235.499542 
L 282.114591 236.883804 
L 282.114591 237.575936 
L 281.42246 238.268067 
L 280.730328 238.960199 
L 280.730328 240.344461 
L 280.038197 241.036593 
L 280.038197 241.728724 
L 279.346066 242.420856 
L 279.346066 243.112987 
L 279.346066 243.805118 
L 279.346066 244.49725 
L 279.346066 245.189381 
L 278.653934 245.881513 
L 278.653934 246.573644 
L 278.653934 247.265775 
L 278.653934 247.957907 
L 278.653934 248.650038 
" style="fill:none;stroke:#8c8c8c;stroke-linecap:square;"/>
   </g>
   <g id="line2d_65">
    <path clip-path="url(#p30420ddb6e)" d="M 257.197861 233.423147 
L 257.197861 234.115279 
L 257.889992 234.80741 
L 258.582124 235.499542 
L 259.274255 236.191673 
L 259.966387 236.883804 
L 260.658518 237.575936 
L 261.350649 238.268067 
L 262.042781 238.960199 
L 262.734912 239.65233 
L 263.427044 240.344461 
L 264.811306 241.728724 
L 265.503438 242.420856 
L 266.195569 243.805118 
L 266.887701 244.49725 
L 267.579832 245.881513 
L 268.964095 246.573644 
L 270.348358 249.34217 
L 271.040489 249.34217 
L 271.040489 250.034301 
L 271.73262 250.726432 
L 272.424752 252.110695 
L 272.424752 252.802827 
L 273.116883 254.187089 
L 273.809015 254.879221 
L 274.501146 256.263484 
L 274.501146 256.955615 
L 275.193277 258.339878 
L 275.885409 259.724141 
L 276.57754 261.108403 
L 276.57754 261.800535 
L 277.269672 263.184798 
L 277.961803 264.56906 
L 277.961803 265.261192 
L 278.653934 265.953323 
L 278.653934 266.645455 
L 278.653934 265.953323 
" style="fill:none;stroke:#8c8c8c;stroke-linecap:square;"/>
   </g>
   <g id="line2d_66">
    <path clip-path="url(#p30420ddb6e)" d="M 275.885409 246.573644 
L 275.885409 247.265775 
L 275.885409 247.957907 
L 275.885409 248.650038 
L 275.885409 249.34217 
L 275.885409 250.726432 
L 275.885409 251.418564 
L 275.885409 252.110695 
L 275.885409 252.802827 
L 275.885409 253.494958 
L 275.885409 254.187089 
" style="fill:none;stroke:#8c8c8c;stroke-linecap:square;"/>
   </g>
   <g id="line2d_67">
    <path clip-path="url(#p30420ddb6e)" d="M 277.269672 238.960199 
L 276.57754 238.960199 
L 276.57754 239.65233 
L 276.57754 240.344461 
L 275.885409 241.036593 
L 275.885409 241.728724 
L 275.193277 241.728724 
L 275.193277 242.420856 
L 275.193277 243.112987 
L 275.193277 243.805118 
L 275.193277 244.49725 
L 274.501146 244.49725 
L 274.501146 245.189381 
L 274.501146 245.881513 
L 274.501146 246.573644 
L 273.809015 247.265775 
L 273.809015 246.573644 
L 273.809015 245.881513 
L 273.809015 245.189381 
L 273.809015 244.49725 
L 273.809015 243.805118 
L 273.809015 243.112987 
L 274.501146 242.420856 
L 274.501146 241.728724 
L 274.501146 241.036593 
L 273.809015 241.036593 
L 273.809015 241.728724 
L 273.809015 242.420856 
L 273.116883 243.112987 
L 273.116883 243.805118 
L 273.116883 244.49725 
L 272.424752 245.189381 
L 272.424752 245.881513 
L 272.424752 246.573644 
L 271.73262 246.573644 
L 271.73262 245.881513 
L 271.040489 245.189381 
L 271.040489 244.49725 
L 271.040489 243.805118 
L 270.348358 243.112987 
L 270.348358 242.420856 
L 270.348358 241.728724 
L 270.348358 241.036593 
L 270.348358 240.344461 
L 269.656226 240.344461 
" style="fill:none;stroke:#8c8c8c;stroke-linecap:square;"/>
   </g>
   <g id="line2d_68">
    <path clip-path="url(#p30420ddb6e)" d="M 254.429335 234.115279 
L 253.737204 233.423147 
L 253.045073 233.423147 
L 253.737204 233.423147 
L 254.429335 233.423147 
L 255.121467 233.423147 
L 255.813598 233.423147 
L 256.50573 233.423147 
L 257.197861 233.423147 
L 257.889992 233.423147 
L 258.582124 234.115279 
L 259.966387 234.115279 
L 260.658518 234.115279 
L 262.042781 234.80741 
L 262.734912 234.80741 
L 263.427044 235.499542 
L 264.119175 235.499542 
L 264.811306 235.499542 
L 264.811306 236.191673 
L 265.503438 236.883804 
L 265.503438 237.575936 
L 266.195569 237.575936 
L 266.195569 236.883804 
L 266.887701 236.883804 
L 266.887701 236.191673 
L 267.579832 236.191673 
L 268.271963 236.191673 
L 268.964095 236.883804 
L 269.656226 237.575936 
L 270.348358 238.268067 
L 271.040489 238.960199 
L 271.040489 239.65233 
L 271.73262 240.344461 
L 271.73262 241.036593 
L 271.73262 240.344461 
L 272.424752 240.344461 
L 272.424752 239.65233 
L 273.116883 239.65233 
L 273.116883 240.344461 
L 273.116883 241.036593 
L 273.116883 241.728724 
L 272.424752 242.420856 
L 272.424752 243.112987 
L 272.424752 243.805118 
L 273.116883 243.805118 
L 273.809015 243.805118 
L 273.809015 243.112987 
L 274.501146 242.420856 
L 274.501146 241.728724 
L 275.193277 241.036593 
L 275.193277 240.344461 
L 275.193277 239.65233 
L 275.885409 238.960199 
L 275.885409 238.268067 
L 275.885409 237.575936 
L 276.57754 236.883804 
L 276.57754 236.191673 
L 276.57754 235.499542 
L 276.57754 234.80741 
L 275.885409 234.80741 
L 275.885409 235.499542 
L 275.885409 236.191673 
L 275.193277 237.575936 
L 274.501146 238.268067 
L 273.809015 239.65233 
L 273.809015 241.036593 
L 273.809015 241.728724 
L 273.116883 242.420856 
L 273.116883 243.112987 
L 273.809015 243.112987 
L 274.501146 243.112987 
L 275.193277 242.420856 
L 275.193277 241.728724 
L 276.57754 241.036593 
L 276.57754 240.344461 
L 277.269672 240.344461 
L 277.269672 239.65233 
L 277.961803 239.65233 
L 278.653934 238.960199 
L 278.653934 239.65233 
L 279.346066 239.65233 
L 279.346066 240.344461 
" style="fill:none;stroke:#8c8c8c;stroke-linecap:square;"/>
   </g>
   <g id="line2d_69">
    <path clip-path="url(#p30420ddb6e)" d="M 338.869366 178.744767 
L 338.869366 179.436898 
L 339.561497 179.436898 
L 339.561497 178.744767 
L 339.561497 178.052636 
L 339.561497 177.360504 
L 339.561497 176.668373 
L 339.561497 175.976241 
L 339.561497 174.591979 
L 339.561497 173.207716 
L 339.561497 171.823453 
L 338.869366 171.131322 
L 338.869366 169.054927 
L 338.869366 168.362796 
L 338.869366 166.978533 
L 338.869366 165.59427 
L 338.869366 164.902139 
L 338.869366 163.517876 
L 338.869366 162.133613 
L 338.869366 160.749351 
L 338.177235 159.365088 
L 338.177235 157.980825 
L 338.177235 157.288694 
L 338.177235 155.212299 
L 338.177235 154.520168 
L 338.177235 152.443774 
L 338.177235 151.059511 
L 338.177235 150.36738 
L 338.177235 148.290985 
L 338.177235 146.906723 
L 338.177235 144.830328 
L 338.177235 143.446066 
L 337.485103 142.061803 
L 337.485103 139.293277 
L 337.485103 137.909015 
L 337.485103 136.524752 
L 337.485103 135.140489 
L 337.485103 133.756226 
L 337.485103 131.679832 
L 337.485103 130.295569 
L 337.485103 128.911306 
L 337.485103 128.219175 
L 337.485103 126.834912 
L 337.485103 125.450649 
L 337.485103 124.758518 
L 337.485103 124.066387 
L 337.485103 123.374255 
L 337.485103 122.682124 
L 337.485103 121.989992 
" style="fill:none;stroke:#8c8c8c;stroke-linecap:square;"/>
   </g>
   <g id="line2d_70">
    <path clip-path="url(#p30420ddb6e)" d="M 331.948052 126.834912 
L 332.640183 126.142781 
L 332.640183 125.450649 
L 333.332315 125.450649 
L 333.332315 124.066387 
L 334.024446 122.682124 
L 334.716578 121.989992 
L 334.716578 121.297861 
L 336.10084 119.913598 
L 336.10084 119.221467 
L 336.792972 118.529335 
L 337.485103 118.529335 
L 338.177235 118.529335 
L 338.869366 118.529335 
L 339.561497 118.529335 
L 339.561497 119.221467 
L 339.561497 119.913598 
L 340.253629 119.913598 
L 340.253629 120.60573 
L 340.253629 121.989992 
L 340.94576 122.682124 
L 340.94576 123.374255 
L 340.94576 124.066387 
L 340.94576 124.758518 
" style="fill:none;stroke:#8c8c8c;stroke-linecap:square;"/>
   </g>
   <g id="line2d_71">
    <path clip-path="url(#p30420ddb6e)" d="M 160.991597 63.158824 
L 160.991597 61.082429 
L 160.991597 59.698167 
L 160.991597 59.006035 
L 160.991597 58.313904 
L 160.991597 56.929641 
L 160.991597 55.545378 
L 160.991597 53.468984 
L 160.991597 51.39259 
L 160.991597 49.316196 
L 160.991597 47.239801 
L 160.991597 43.779144 
L 160.991597 41.010619 
L 160.991597 38.934225 
L 160.991597 36.85783 
L 160.991597 35.473568 
L 160.991597 33.397173 
L 160.991597 32.705042 
L 160.991597 31.320779 
L 160.991597 30.628648 
L 160.991597 29.936516 
" style="fill:none;stroke:#8c8c8c;stroke-linecap:square;"/>
   </g>
   <g id="line2d_72">
    <path clip-path="url(#p30420ddb6e)" d="M 154.762414 29.936516 
L 154.070283 29.936516 
L 154.762414 29.244385 
L 154.762414 28.552254 
L 155.454545 27.167991 
L 156.146677 25.783728 
L 156.838808 25.091597 
L 157.53094 23.015202 
L 158.915202 22.323071 
L 159.607334 21.63094 
L 160.299465 20.938808 
L 160.991597 20.246677 
L 161.683728 20.246677 
L 162.375859 20.246677 
L 163.067991 20.246677 
L 163.760122 20.246677 
L 163.760122 20.938808 
L 164.452254 20.938808 
L 164.452254 21.63094 
L 165.144385 22.323071 
L 165.144385 23.015202 
" style="fill:none;stroke:#8c8c8c;stroke-linecap:square;"/>
   </g>
   <g id="line2d_73">
    <path clip-path="url(#p30420ddb6e)" d="M 214.285714 138.601146 
L 214.977846 138.601146 
L 215.669977 138.601146 
L 215.669977 139.293277 
L 216.362108 139.293277 
L 217.05424 139.293277 
L 217.05424 138.601146 
L 217.746371 138.601146 
L 218.438503 138.601146 
L 219.130634 138.601146 
L 219.822765 138.601146 
L 220.514897 138.601146 
L 221.207028 138.601146 
L 221.89916 138.601146 
L 222.591291 138.601146 
L 223.283422 137.909015 
L 223.975554 137.909015 
L 224.667685 137.909015 
L 225.359817 137.909015 
L 226.051948 137.909015 
L 226.051948 138.601146 
L 226.744079 138.601146 
L 227.436211 138.601146 
L 228.128342 138.601146 
L 228.820474 138.601146 
L 229.512605 139.293277 
L 230.204736 139.293277 
L 230.896868 139.293277 
L 231.588999 139.293277 
" style="fill:none;stroke:#8c8c8c;stroke-linecap:square;"/>
   </g>
   <g id="line2d_74">
    <path clip-path="url(#p30420ddb6e)" d="M 232.281131 139.985409 
L 231.588999 139.985409 
L 230.896868 139.985409 
L 230.896868 139.293277 
L 231.588999 139.293277 
L 232.281131 139.293277 
L 232.973262 138.601146 
L 233.665393 138.601146 
L 233.665393 139.293277 
L 234.357525 139.293277 
L 234.357525 139.985409 
L 234.357525 140.67754 
L 234.357525 141.369672 
L 234.357525 142.061803 
L 234.357525 142.753934 
L 235.049656 142.753934 
L 235.049656 143.446066 
L 235.049656 144.138197 
L 235.049656 144.830328 
L 235.049656 145.52246 
L 235.049656 146.214591 
L 235.049656 146.906723 
L 235.049656 147.598854 
L 235.049656 148.290985 
L 234.357525 148.290985 
L 234.357525 148.983117 
L 234.357525 149.675248 
L 234.357525 150.36738 
L 234.357525 151.059511 
L 234.357525 151.751642 
L 234.357525 152.443774 
L 234.357525 153.135905 
L 234.357525 153.828037 
L 234.357525 154.520168 
L 233.665393 155.212299 
L 233.665393 155.904431 
L 233.665393 156.596562 
L 233.665393 157.288694 
L 233.665393 159.365088 
L 233.665393 160.057219 
L 233.665393 161.441482 
L 233.665393 162.133613 
L 233.665393 162.825745 
L 233.665393 163.517876 
L 233.665393 164.210008 
L 233.665393 164.902139 
L 233.665393 165.59427 
L 233.665393 166.286402 
L 233.665393 166.978533 
L 233.665393 167.670665 
L 233.665393 168.362796 
L 233.665393 169.054927 
L 233.665393 169.747059 
L 233.665393 171.131322 
L 233.665393 171.823453 
L 233.665393 172.515584 
L 233.665393 173.899847 
L 233.665393 174.591979 
L 233.665393 175.28411 
L 233.665393 175.976241 
L 233.665393 176.668373 
L 233.665393 177.360504 
L 233.665393 178.052636 
L 233.665393 178.744767 
L 234.357525 179.436898 
L 234.357525 180.12903 
L 234.357525 180.821161 
L 234.357525 181.513293 
L 233.665393 182.205424 
L 233.665393 182.897555 
L 233.665393 183.589687 
L 233.665393 184.281818 
L 233.665393 184.97395 
L 233.665393 185.666081 
L 232.973262 186.358212 
L 232.973262 187.050344 
L 232.973262 187.742475 
L 232.973262 188.434607 
L 232.281131 188.434607 
" style="fill:none;stroke:#8c8c8c;stroke-linecap:square;"/>
   </g>
   <g id="line2d_75">
    <path clip-path="url(#p30420ddb6e)" d="M 232.973262 153.828037 
L 232.281131 153.828037 
L 232.281131 154.520168 
L 232.973262 154.520168 
L 233.665393 154.520168 
L 233.665393 153.828037 
L 234.357525 153.828037 
L 235.049656 153.828037 
L 235.741788 153.828037 
L 236.433919 153.828037 
L 237.12605 153.828037 
L 237.818182 153.828037 
L 238.510313 153.135905 
L 239.202445 153.135905 
L 239.894576 153.135905 
L 240.586707 153.135905 
L 241.278839 153.135905 
L 241.97097 153.135905 
L 242.663102 153.135905 
L 243.355233 153.135905 
" style="fill:none;stroke:#8c8c8c;stroke-linecap:square;"/>
   </g>
   <g id="line2d_76">
    <path clip-path="url(#p30420ddb6e)" d="M 244.739496 154.520168 
L 244.739496 155.212299 
L 244.739496 155.904431 
L 244.739496 156.596562 
L 244.739496 157.288694 
L 245.431627 157.980825 
L 245.431627 158.672956 
L 245.431627 160.057219 
L 245.431627 161.441482 
L 245.431627 162.133613 
L 245.431627 163.517876 
L 246.123759 164.902139 
L 246.123759 166.286402 
L 246.123759 167.670665 
L 246.123759 169.054927 
L 246.123759 169.747059 
L 246.123759 171.823453 
L 246.123759 172.515584 
L 246.123759 174.591979 
L 246.123759 175.28411 
L 246.123759 176.668373 
L 246.81589 178.052636 
L 246.81589 179.436898 
L 246.81589 180.821161 
L 246.81589 181.513293 
L 246.81589 183.589687 
L 246.81589 184.281818 
L 247.508021 186.358212 
L 247.508021 187.050344 
L 247.508021 188.434607 
L 248.200153 189.818869 
L 248.200153 191.203132 
L 248.200153 191.895264 
L 248.892284 193.279526 
L 248.892284 194.663789 
L 249.584416 196.740183 
L 249.584416 197.432315 
L 249.584416 198.816578 
L 249.584416 200.20084 
L 249.584416 201.585103 
L 249.584416 202.277235 
L 249.584416 202.969366 
" style="fill:none;stroke:#8c8c8c;stroke-linecap:square;"/>
   </g>
   <g id="line2d_77">
    <path clip-path="url(#p30420ddb6e)" d="M 248.200153 171.131322 
L 247.508021 171.131322 
L 248.200153 171.131322 
L 248.892284 171.131322 
L 249.584416 171.823453 
L 250.276547 171.823453 
L 250.968678 171.131322 
L 251.66081 171.131322 
L 252.352941 171.131322 
L 253.045073 171.131322 
L 253.737204 171.131322 
L 255.121467 171.131322 
L 255.813598 171.131322 
L 256.50573 170.43919 
L 257.197861 170.43919 
L 257.889992 170.43919 
L 258.582124 170.43919 
L 259.274255 170.43919 
L 259.274255 169.747059 
L 259.966387 169.747059 
L 260.658518 169.747059 
" style="fill:none;stroke:#8c8c8c;stroke-linecap:square;"/>
   </g>
   <g id="line2d_78">
    <path clip-path="url(#p30420ddb6e)" d="M 262.042781 175.28411 
L 262.042781 175.976241 
L 262.042781 176.668373 
L 262.042781 177.360504 
L 262.042781 178.052636 
L 262.042781 178.744767 
L 262.042781 180.12903 
L 262.734912 181.513293 
L 262.734912 183.589687 
L 262.734912 184.97395 
L 262.734912 186.358212 
L 262.734912 188.434607 
L 262.734912 190.511001 
L 262.734912 193.279526 
L 262.734912 194.663789 
L 262.042781 196.740183 
L 262.042781 199.508709 
L 262.042781 200.892972 
L 262.042781 202.969366 
L 262.042781 205.04576 
L 262.042781 206.430023 
L 262.042781 207.814286 
L 262.042781 208.506417 
L 262.042781 209.198549 
L 262.042781 209.89068 
L 262.042781 210.582811 
L 262.734912 211.274943 
L 262.734912 211.967074 
L 262.734912 212.659206 
L 262.734912 213.351337 
L 262.734912 214.043468 
" style="fill:none;stroke:#8c8c8c;stroke-linecap:square;"/>
   </g>
   <g id="line2d_79">
    <path clip-path="url(#p30420ddb6e)" d="M 263.427044 196.740183 
L 262.734912 196.740183 
L 262.042781 196.740183 
L 262.734912 196.740183 
L 263.427044 196.740183 
L 264.119175 196.740183 
L 264.811306 196.740183 
L 265.503438 196.740183 
L 266.195569 196.740183 
L 266.887701 196.740183 
L 267.579832 196.740183 
L 268.271963 197.432315 
L 268.271963 198.124446 
L 268.271963 198.816578 
L 268.964095 198.816578 
L 268.964095 199.508709 
L 268.964095 200.20084 
L 268.964095 200.892972 
L 268.964095 201.585103 
L 268.964095 202.277235 
L 268.964095 203.661497 
L 268.964095 205.737892 
L 269.656226 207.814286 
L 269.656226 209.89068 
L 269.656226 211.967074 
L 269.656226 213.351337 
L 270.348358 215.427731 
L 270.348358 216.811994 
L 270.348358 218.196257 
L 270.348358 219.580519 
L 270.348358 220.272651 
L 270.348358 220.964782 
L 270.348358 221.656914 
L 270.348358 222.349045 
" style="fill:none;stroke:#8c8c8c;stroke-linecap:square;"/>
   </g>
   <g id="line2d_80">
    <path clip-path="url(#p30420ddb6e)" d="M 214.285714 156.596562 
L 213.593583 156.596562 
L 212.901451 156.596562 
L 212.901451 155.904431 
L 212.901451 155.212299 
L 213.593583 155.212299 
L 214.285714 153.828037 
L 214.977846 153.135905 
" style="fill:none;stroke:#8c8c8c;stroke-linecap:square;"/>
   </g>
   <g id="line2d_81">
    <path clip-path="url(#p30420ddb6e)" d="M 217.746371 149.675248 
L 219.130634 147.598854 
L 219.130634 146.906723 
L 219.822765 146.906723 
L 219.130634 146.906723 
" style="fill:none;stroke:#8c8c8c;stroke-linecap:square;"/>
   </g>
   <g id="line2d_82">
    <path clip-path="url(#p30420ddb6e)" d="M 223.975554 141.369672 
L 223.975554 140.67754 
L 224.667685 140.67754 
L 224.667685 141.369672 
L 223.975554 142.753934 
L 223.283422 144.830328 
L 222.591291 146.214591 
L 221.89916 147.598854 
L 219.822765 150.36738 
L 219.130634 152.443774 
L 217.05424 154.520168 
L 216.362108 156.596562 
L 215.669977 157.980825 
L 214.977846 159.365088 
L 214.285714 160.749351 
L 214.285714 161.441482 
L 214.285714 162.133613 
" style="fill:none;stroke:#8c8c8c;stroke-linecap:square;"/>
   </g>
   <g id="line2d_83">
    <path clip-path="url(#p30420ddb6e)" d="M 227.436211 144.830328 
L 227.436211 145.52246 
L 226.744079 146.214591 
L 226.051948 147.598854 
L 226.051948 148.983117 
L 224.667685 151.059511 
L 224.667685 152.443774 
L 223.975554 153.828037 
L 223.283422 155.904431 
L 222.591291 157.980825 
L 221.89916 159.365088 
L 221.89916 160.749351 
L 221.89916 162.825745 
L 221.89916 163.517876 
L 221.89916 164.210008 
L 221.89916 164.902139 
" style="fill:none;stroke:#8c8c8c;stroke-linecap:square;"/>
   </g>
   <g id="line2d_84">
    <path clip-path="url(#p30420ddb6e)" d="M 228.820474 153.135905 
L 228.820474 152.443774 
L 228.820474 153.135905 
L 228.820474 153.828037 
L 228.128342 155.212299 
L 227.436211 156.596562 
L 227.436211 157.980825 
L 226.744079 160.749351 
L 226.051948 162.133613 
L 226.051948 164.902139 
L 225.359817 167.670665 
L 224.667685 169.054927 
L 224.667685 171.131322 
L 223.975554 172.515584 
L 223.975554 173.207716 
" style="fill:none;stroke:#8c8c8c;stroke-linecap:square;"/>
   </g>
   <g id="line2d_85">
    <path clip-path="url(#p30420ddb6e)" d="M 239.202445 160.749351 
L 239.202445 160.057219 
L 239.202445 160.749351 
L 239.202445 161.441482 
L 238.510313 162.133613 
L 238.510313 164.210008 
L 237.818182 166.286402 
L 237.12605 169.054927 
L 237.12605 170.43919 
L 236.433919 173.207716 
L 236.433919 174.591979 
L 235.741788 175.28411 
L 235.741788 176.668373 
L 235.741788 177.360504 
L 235.049656 178.052636 
" style="fill:none;stroke:#8c8c8c;stroke-linecap:square;"/>
   </g>
   <g id="line2d_86">
    <path clip-path="url(#p30420ddb6e)" d="M 241.278839 169.747059 
L 241.278839 170.43919 
L 240.586707 171.131322 
L 240.586707 171.823453 
L 240.586707 172.515584 
L 240.586707 173.207716 
L 240.586707 173.899847 
L 239.894576 174.591979 
L 239.894576 175.976241 
L 239.894576 177.360504 
L 239.202445 178.744767 
L 239.202445 180.12903 
L 239.202445 180.821161 
L 238.510313 182.205424 
L 238.510313 182.897555 
L 238.510313 183.589687 
" style="fill:none;stroke:#8c8c8c;stroke-linecap:square;"/>
   </g>
   <g id="line2d_87">
    <path clip-path="url(#p30420ddb6e)" d="M 243.355233 178.744767 
L 243.355233 178.052636 
L 243.355233 178.744767 
L 242.663102 180.12903 
L 242.663102 180.821161 
L 241.97097 182.205424 
L 241.97097 182.897555 
L 241.97097 184.281818 
L 241.278839 184.97395 
L 241.278839 185.666081 
L 241.278839 186.358212 
L 241.278839 187.050344 
" style="fill:none;stroke:#8c8c8c;stroke-linecap:square;"/>
   </g>
   <g id="line2d_88">
    <path clip-path="url(#p30420ddb6e)" d="M 256.50573 175.976241 
L 256.50573 176.668373 
L 256.50573 177.360504 
L 255.813598 178.052636 
L 255.813598 179.436898 
L 254.429335 181.513293 
L 254.429335 182.205424 
L 253.045073 184.281818 
L 253.045073 185.666081 
L 252.352941 186.358212 
L 252.352941 188.434607 
L 252.352941 189.126738 
L 252.352941 189.818869 
L 253.045073 190.511001 
" style="fill:none;stroke:#8c8c8c;stroke-linecap:square;"/>
   </g>
   <g id="line2d_89">
    <path clip-path="url(#p30420ddb6e)" d="M 258.582124 185.666081 
L 258.582124 186.358212 
L 257.889992 187.050344 
L 257.889992 187.742475 
L 257.197861 189.126738 
L 257.197861 189.818869 
L 256.50573 191.203132 
L 256.50573 192.587395 
L 256.50573 193.279526 
L 256.50573 194.663789 
L 256.50573 195.355921 
" style="fill:none;stroke:#8c8c8c;stroke-linecap:square;"/>
   </g>
   <g id="line2d_90">
    <path clip-path="url(#p30420ddb6e)" d="M 267.579832 207.814286 
L 267.579832 208.506417 
L 266.887701 208.506417 
L 266.887701 209.198549 
L 266.195569 209.198549 
L 265.503438 210.582811 
L 264.811306 211.967074 
L 264.119175 212.659206 
L 264.119175 214.043468 
L 263.427044 215.427731 
L 263.427044 216.119862 
L 263.427044 216.811994 
L 262.734912 217.504125 
L 262.734912 218.196257 
L 262.042781 218.196257 
" style="fill:none;stroke:#8c8c8c;stroke-linecap:square;"/>
   </g>
   <g id="line2d_91">
    <path clip-path="url(#p30420ddb6e)" d="M 366.554622 38.242093 
L 367.246753 38.242093 
L 367.246753 38.934225 
L 367.938885 39.626356 
L 367.938885 40.318487 
L 367.938885 41.010619 
L 367.938885 41.70275 
L 368.631016 41.70275 
L 368.631016 42.394882 
L 368.631016 43.087013 
L 369.323147 43.087013 
L 369.323147 43.779144 
L 370.015279 43.779144 
L 370.015279 44.471276 
L 370.015279 45.163407 
L 370.70741 45.855539 
L 370.70741 46.54767 
L 371.399542 46.54767 
L 371.399542 47.239801 
L 372.091673 47.239801 
L 372.091673 47.931933 
L 372.783804 47.931933 
L 372.783804 48.624064 
L 373.475936 48.624064 
L 373.475936 49.316196 
L 374.168067 50.008327 
L 374.168067 50.700458 
L 374.860199 50.700458 
L 374.860199 51.39259 
L 375.55233 51.39259 
L 376.244461 51.39259 
L 376.244461 52.084721 
L 376.936593 52.084721 
L 377.628724 52.084721 
L 378.320856 52.084721 
L 379.012987 52.084721 
L 379.012987 52.776853 
L 379.705118 52.776853 
L 380.39725 52.776853 
L 381.089381 52.776853 
L 381.781513 52.776853 
L 382.473644 52.776853 
L 383.165775 52.776853 
L 383.165775 53.468984 
L 383.857907 53.468984 
L 384.550038 53.468984 
L 385.24217 54.161115 
L 385.934301 54.161115 
L 385.934301 54.853247 
L 386.626432 54.853247 
L 387.318564 54.853247 
L 387.318564 55.545378 
L 388.010695 55.545378 
L 388.010695 56.23751 
L 388.702827 56.23751 
L 388.702827 56.929641 
L 389.394958 56.929641 
L 390.087089 57.621772 
L 390.087089 58.313904 
L 390.779221 58.313904 
L 390.779221 59.006035 
L 391.471352 59.006035 
L 392.163484 59.698167 
L 392.163484 60.390298 
L 392.855615 60.390298 
L 392.855615 61.082429 
L 393.547746 61.774561 
L 393.547746 62.466692 
L 394.239878 62.466692 
L 394.239878 63.158824 
L 394.932009 63.158824 
L 394.932009 63.850955 
L 395.624141 63.850955 
L 395.624141 64.543086 
L 396.316272 64.543086 
L 396.316272 65.235218 
L 397.008403 65.235218 
L 397.008403 65.927349 
L 397.700535 65.927349 
L 397.700535 66.619481 
L 398.392666 66.619481 
L 398.392666 67.311612 
L 399.084798 67.311612 
L 399.776929 68.003743 
L 400.46906 68.695875 
L 401.161192 68.695875 
L 401.161192 69.388006 
L 401.853323 69.388006 
L 402.545455 70.080138 
L 403.237586 70.772269 
L 403.929717 71.4644 
L 403.929717 72.156532 
L 404.621849 72.156532 
L 404.621849 72.848663 
L 405.31398 72.848663 
L 405.31398 73.540794 
L 406.006112 73.540794 
L 406.698243 73.540794 
L 406.698243 74.232926 
L 407.390374 74.232926 
L 407.390374 74.925057 
L 408.082506 74.925057 
L 408.082506 75.617189 
L 408.774637 75.617189 
L 409.466769 76.30932 
L 410.1589 77.001451 
L 410.851031 77.693583 
L 411.543163 78.385714 
L 412.235294 79.077846 
L 412.235294 79.769977 
L 412.927426 79.769977 
" style="fill:none;stroke:#8c8c8c;stroke-linecap:square;"/>
   </g>
   <g id="line2d_92">
    <path clip-path="url(#p30420ddb6e)" d="M 389.394958 31.320779 
L 390.087089 31.320779 
L 390.087089 32.012911 
L 390.779221 32.012911 
L 390.779221 32.705042 
L 391.471352 32.705042 
L 392.163484 32.705042 
L 392.163484 33.397173 
L 392.855615 33.397173 
L 393.547746 33.397173 
L 393.547746 34.089305 
L 394.239878 34.089305 
L 394.932009 34.089305 
L 394.932009 34.781436 
L 395.624141 34.781436 
L 396.316272 34.781436 
L 396.316272 35.473568 
L 397.008403 35.473568 
L 397.700535 35.473568 
L 397.700535 36.165699 
L 398.392666 36.165699 
L 399.084798 36.165699 
L 399.084798 36.85783 
L 399.776929 36.85783 
L 400.46906 37.549962 
L 401.161192 37.549962 
L 401.853323 38.242093 
L 402.545455 38.242093 
L 402.545455 38.934225 
L 403.237586 38.934225 
L 403.929717 39.626356 
L 404.621849 39.626356 
L 404.621849 40.318487 
L 405.31398 40.318487 
L 406.006112 41.010619 
L 406.006112 41.70275 
L 406.698243 41.70275 
L 407.390374 42.394882 
L 408.082506 43.087013 
L 408.774637 43.779144 
L 408.774637 44.471276 
L 409.466769 44.471276 
L 409.466769 45.163407 
L 410.1589 45.163407 
L 410.1589 45.855539 
L 410.851031 45.855539 
L 410.851031 46.54767 
L 411.543163 47.239801 
L 412.235294 47.239801 
L 412.235294 47.931933 
L 412.927426 48.624064 
L 413.619557 49.316196 
L 413.619557 50.008327 
L 414.311688 50.700458 
L 414.311688 51.39259 
L 415.00382 51.39259 
L 415.00382 52.084721 
L 415.695951 52.084721 
L 415.695951 52.776853 
L 416.388083 53.468984 
L 416.388083 54.161115 
L 417.080214 54.161115 
L 417.080214 54.853247 
L 417.772345 54.853247 
L 417.772345 55.545378 
L 418.464477 56.23751 
L 418.464477 56.929641 
L 419.156608 56.929641 
L 419.156608 57.621772 
L 419.848739 57.621772 
L 419.848739 58.313904 
L 420.540871 58.313904 
L 420.540871 59.006035 
L 421.233002 59.698167 
L 421.925134 60.390298 
L 422.617265 60.390298 
L 423.309396 61.774561 
L 424.001528 61.774561 
L 424.693659 62.466692 
L 426.077922 63.158824 
L 426.770053 63.850955 
L 427.462185 64.543086 
L 428.154316 65.235218 
L 428.846448 65.235218 
L 429.538579 65.927349 
L 430.23071 65.927349 
L 430.922842 66.619481 
" style="fill:none;stroke:#8c8c8c;stroke-linecap:square;"/>
   </g>
   <g id="line2d_93">
    <path clip-path="url(#p30420ddb6e)" d="M 395.624141 19.554545 
L 395.624141 20.246677 
L 396.316272 20.246677 
L 396.316272 20.938808 
L 397.008403 21.63094 
L 397.008403 22.323071 
L 397.700535 22.323071 
L 397.700535 23.015202 
L 397.700535 23.707334 
L 398.392666 24.399465 
L 398.392666 25.091597 
L 399.084798 25.783728 
L 399.084798 26.475859 
L 399.776929 26.475859 
L 399.776929 27.167991 
L 400.46906 27.167991 
L 400.46906 27.860122 
L 401.161192 28.552254 
L 401.853323 29.244385 
L 402.545455 29.936516 
L 403.237586 30.628648 
L 403.929717 30.628648 
L 404.621849 31.320779 
L 405.31398 31.320779 
L 405.31398 32.012911 
L 406.006112 32.012911 
L 406.698243 32.705042 
L 407.390374 33.397173 
L 408.082506 33.397173 
L 408.774637 33.397173 
L 408.774637 34.089305 
L 409.466769 34.089305 
L 409.466769 34.781436 
L 410.1589 34.781436 
L 410.851031 34.781436 
L 410.851031 35.473568 
L 411.543163 35.473568 
L 412.235294 35.473568 
L 412.235294 36.165699 
L 412.927426 36.165699 
L 413.619557 36.165699 
L 413.619557 36.85783 
L 414.311688 36.85783 
L 414.311688 37.549962 
L 415.00382 37.549962 
L 415.695951 38.242093 
L 416.388083 38.934225 
L 417.080214 39.626356 
L 417.772345 40.318487 
L 418.464477 41.010619 
L 419.156608 41.70275 
L 419.848739 41.70275 
L 419.848739 42.394882 
L 420.540871 42.394882 
" style="fill:none;stroke:#8c8c8c;stroke-linecap:square;"/>
   </g>
   <g id="line2d_94">
    <path clip-path="url(#p30420ddb6e)" d="M 434.383499 36.165699 
L 435.07563 36.85783 
L 435.07563 37.549962 
L 435.767762 37.549962 
L 435.767762 38.242093 
L 436.459893 38.242093 
L 436.459893 38.934225 
L 437.152024 38.934225 
L 437.152024 39.626356 
L 437.844156 39.626356 
L 438.536287 40.318487 
L 439.228419 41.010619 
L 439.92055 41.70275 
L 440.612681 41.70275 
L 440.612681 42.394882 
L 441.304813 42.394882 
L 441.304813 43.087013 
L 441.996944 43.087013 
L 442.689076 43.087013 
L 443.381207 43.779144 
L 444.073338 43.779144 
L 444.073338 44.471276 
L 444.76547 44.471276 
L 445.457601 44.471276 
L 446.149733 45.163407 
L 446.841864 45.163407 
L 446.841864 45.855539 
L 447.533995 45.855539 
L 448.226127 45.855539 
L 448.918258 46.54767 
L 449.61039 46.54767 
L 449.61039 47.239801 
L 450.302521 47.239801 
L 450.994652 47.239801 
L 450.994652 47.931933 
L 451.686784 47.931933 
L 452.378915 47.931933 
L 453.071047 47.931933 
L 453.071047 48.624064 
L 453.763178 48.624064 
L 454.455309 48.624064 
L 455.147441 48.624064 
L 455.147441 49.316196 
L 455.839572 49.316196 
L 456.531704 49.316196 
L 457.223835 49.316196 
L 457.223835 50.008327 
L 457.915966 50.008327 
L 458.608098 50.700458 
L 459.300229 50.700458 
L 459.992361 50.700458 
L 459.992361 51.39259 
L 460.684492 51.39259 
L 461.376623 51.39259 
L 461.376623 52.084721 
L 462.068755 52.084721 
L 462.760886 52.776853 
L 463.453018 52.776853 
L 464.145149 53.468984 
L 464.83728 53.468984 
L 465.529412 54.161115 
L 466.221543 54.161115 
L 466.221543 54.853247 
L 466.913675 54.853247 
L 467.605806 55.545378 
L 468.297937 55.545378 
L 468.990069 56.23751 
L 469.6822 56.23751 
L 469.6822 56.929641 
L 470.374332 56.929641 
L 471.066463 57.621772 
L 471.758594 57.621772 
L 472.450726 58.313904 
L 473.142857 58.313904 
L 473.142857 59.006035 
L 473.834989 59.006035 
L 474.52712 59.006035 
L 474.52712 59.698167 
L 475.219251 59.698167 
L 475.911383 59.698167 
L 475.911383 60.390298 
L 476.603514 60.390298 
L 477.295646 61.082429 
L 477.987777 61.082429 
L 478.679908 61.082429 
L 478.679908 61.774561 
L 479.37204 61.774561 
L 480.064171 61.774561 
L 480.756303 62.466692 
L 481.448434 62.466692 
L 482.140565 63.158824 
L 482.832697 63.158824 
L 483.524828 63.158824 
L 483.524828 63.850955 
L 484.21696 63.850955 
L 484.909091 64.543086 
L 485.601222 64.543086 
L 485.601222 65.235218 
L 486.293354 65.235218 
L 486.985485 65.235218 
L 486.985485 65.927349 
L 487.677617 65.927349 
L 487.677617 66.619481 
L 488.369748 66.619481 
L 489.061879 66.619481 
L 489.061879 67.311612 
L 489.754011 67.311612 
L 489.754011 68.003743 
" style="fill:none;stroke:#8c8c8c;stroke-linecap:square;"/>
   </g>
  </g>
 </g>
 <defs>
  <clipPath id="p30420ddb6e">
   <rect height="271.8" width="505.532773" x="7.2" y="7.2"/>
  </clipPath>
 </defs>
</svg>
