<?xml version="1.0" encoding="utf-8" standalone="no"?>
<!DOCTYPE svg PUBLIC "-//W3C//DTD SVG 1.1//EN"
  "http://www.w3.org/Graphics/SVG/1.1/DTD/svg11.dtd">
<!-- Created with matplotlib (https://matplotlib.org/) -->
<svg height="286.2pt" version="1.1" viewBox="0 0 456.185668 286.2" width="456.185668pt" xmlns="http://www.w3.org/2000/svg" xmlns:xlink="http://www.w3.org/1999/xlink">
 <metadata>
  <rdf:RDF xmlns:cc="http://creativecommons.org/ns#" xmlns:dc="http://purl.org/dc/elements/1.1/" xmlns:rdf="http://www.w3.org/1999/02/22-rdf-syntax-ns#">
   <cc:Work>
    <dc:type rdf:resource="http://purl.org/dc/dcmitype/StillImage"/>
    <dc:date>2024-11-15T16:04:09.498627</dc:date>
    <dc:format>image/svg+xml</dc:format>
    <dc:creator>
     <cc:Agent>
      <dc:title>Matplotlib v3.3.4, https://matplotlib.org/</dc:title>
     </cc:Agent>
    </dc:creator>
   </cc:Work>
  </rdf:RDF>
 </metadata>
 <defs>
  <style type="text/css">*{stroke-linecap:butt;stroke-linejoin:round;}</style>
 </defs>
 <g id="figure_1">
  <g id="patch_1">
   <path d="M 0 286.2 
L 456.185668 286.2 
L 456.185668 0 
L 0 0 
z
" style="fill:#ffffff;"/>
  </g>
  <g id="axes_1">
   <g id="line2d_1">
    <path clip-path="url(#p10a8af257d)" d="M 250.628813 242.902191 
L 250.226384 242.902191 
L 250.226384 243.304619 
L 250.226384 243.707048 
L 250.226384 244.109476 
L 250.628813 244.109476 
L 250.628813 243.707048 
L 250.628813 243.304619 
L 250.628813 242.902191 
L 250.226384 242.902191 
L 250.226384 243.304619 
L 250.226384 243.707048 
L 250.226384 244.109476 
L 250.628813 244.109476 
L 251.031241 244.109476 
L 251.031241 243.707048 
L 251.031241 243.304619 
L 251.031241 242.902191 
L 250.628813 242.902191 
L 250.628813 242.499763 
L 250.226384 242.902191 
L 249.823956 243.304619 
L 249.823956 243.707048 
L 249.823956 244.109476 
L 250.226384 244.109476 
L 250.628813 244.109476 
L 250.628813 243.707048 
L 251.031241 243.707048 
L 251.031241 243.304619 
L 251.031241 242.902191 
L 251.031241 242.499763 
L 251.031241 242.097335 
L 250.628813 242.097335 
L 250.226384 242.499763 
L 250.226384 242.902191 
L 250.226384 243.304619 
L 249.823956 243.304619 
L 249.823956 243.707048 
L 250.226384 243.707048 
L 250.226384 244.109476 
L 250.628813 244.109476 
L 251.031241 243.707048 
L 251.031241 243.304619 
L 250.628813 242.902191 
L 250.226384 242.902191 
L 249.823956 242.902191 
L 249.421528 243.304619 
L 249.0191 243.707048 
L 249.0191 244.109476 
L 249.0191 244.511904 
L 249.421528 244.511904 
L 249.823956 244.511904 
L 249.823956 244.109476 
L 249.823956 243.707048 
L 249.823956 243.304619 
L 249.823956 243.707048 
" style="fill:none;stroke:#8c8c8c;stroke-linecap:square;"/>
   </g>
   <g id="line2d_2">
    <path clip-path="url(#p10a8af257d)" d="M 251.433669 265.035742 
L 251.031241 265.035742 
L 251.031241 265.43817 
L 251.031241 265.840598 
L 251.031241 265.43817 
L 251.031241 265.035742 
L 250.628813 265.035742 
L 250.226384 265.035742 
L 250.226384 265.43817 
L 249.823956 265.43817 
L 249.823956 265.840598 
L 250.226384 265.840598 
L 250.226384 266.243026 
L 250.628813 266.243026 
L 251.031241 266.243026 
L 251.433669 265.840598 
L 251.433669 265.43817 
L 251.031241 265.43817 
L 251.031241 265.840598 
L 251.031241 266.243026 
L 251.031241 266.645455 
L 251.433669 266.645455 
L 251.836097 266.645455 
L 251.836097 266.243026 
L 251.433669 265.840598 
L 251.031241 265.840598 
L 250.628813 265.840598 
" style="fill:none;stroke:#8c8c8c;stroke-linecap:square;"/>
   </g>
   <g id="line2d_3">
    <path clip-path="url(#p10a8af257d)" d="M 27.683595 251.755611 
L 27.683595 251.353183 
L 27.683595 251.755611 
L 27.281167 251.755611 
L 27.281167 252.15804 
L 27.281167 252.560468 
L 27.683595 252.962896 
L 27.683595 252.560468 
L 27.683595 252.962896 
L 27.281167 252.962896 
" style="fill:none;stroke:#8c8c8c;stroke-linecap:square;"/>
   </g>
   <g id="line2d_4">
    <path clip-path="url(#p10a8af257d)" d="M 216.824845 19.956974 
L 216.824845 19.554545 
L 216.422416 19.554545 
L 216.422416 19.956974 
L 216.422416 21.164258 
L 216.824845 22.371543 
L 216.824845 23.578827 
L 217.227273 24.786112 
L 217.227273 27.603109 
L 217.227273 29.61525 
L 217.629701 32.834676 
L 217.629701 34.444389 
L 217.629701 36.054101 
L 217.629701 38.066242 
L 217.629701 38.871099 
L 217.629701 39.675955 
L 217.629701 40.078383 
L 217.629701 40.480811 
L 217.629701 40.078383 
" style="fill:none;stroke:#8c8c8c;stroke-linecap:square;"/>
   </g>
   <g id="line2d_5">
    <path clip-path="url(#p10a8af257d)" d="M 223.666124 25.590968 
L 223.666124 25.993397 
L 223.666124 26.395825 
L 223.263696 26.395825 
L 223.263696 26.798253 
L 222.861267 26.798253 
L 222.056411 27.603109 
L 221.653983 28.005537 
L 220.446698 28.407966 
L 219.641842 28.810394 
L 219.239414 29.212822 
L 218.434557 29.61525 
L 218.032129 29.61525 
L 218.032129 30.017678 
L 217.629701 30.017678 
L 217.629701 30.420107 
L 217.227273 30.420107 
L 217.227273 30.822535 
L 217.629701 30.822535 
L 217.629701 31.224963 
L 218.032129 31.627391 
L 218.434557 32.029819 
L 218.434557 32.432248 
L 219.641842 33.237104 
L 220.04427 34.444389 
L 221.251555 35.651673 
L 222.056411 36.456529 
L 222.458839 37.261386 
L 223.263696 38.46867 
L 223.666124 38.871099 
L 224.068552 39.273527 
L 224.068552 39.675955 
L 224.47098 40.078383 
L 224.873408 40.078383 
" style="fill:none;stroke:#8c8c8c;stroke-linecap:square;"/>
   </g>
   <g id="line2d_6">
    <path clip-path="url(#p10a8af257d)" d="M 230.507403 34.846817 
L 230.507403 34.444389 
L 230.507403 34.04196 
L 230.507403 33.639532 
L 230.104975 33.639532 
L 229.702547 33.639532 
L 229.300118 33.639532 
L 228.89769 34.04196 
L 228.092834 34.444389 
L 227.287977 34.846817 
L 226.483121 35.651673 
L 226.080693 36.858958 
L 226.080693 37.261386 
L 226.080693 37.663814 
L 226.080693 38.066242 
L 226.885549 38.46867 
L 227.690406 38.871099 
L 228.092834 38.871099 
L 228.89769 38.46867 
L 229.702547 38.46867 
L 230.909831 37.663814 
L 231.312259 36.858958 
L 231.714688 36.054101 
L 232.519544 35.249245 
L 232.921972 34.444389 
L 232.921972 33.639532 
L 233.3244 33.237104 
L 233.3244 32.834676 
L 232.921972 33.237104 
L 232.921972 33.639532 
L 232.921972 34.04196 
L 232.921972 34.846817 
L 232.921972 35.651673 
L 232.921972 37.261386 
L 232.921972 38.066242 
L 232.921972 38.871099 
L 232.921972 39.675955 
L 233.3244 40.078383 
L 233.3244 40.480811 
L 233.726829 40.480811 
L 233.726829 40.078383 
" style="fill:none;stroke:#8c8c8c;stroke-linecap:square;"/>
   </g>
   <g id="line2d_7">
    <path clip-path="url(#p10a8af257d)" d="M 238.153539 32.029819 
L 237.75111 32.029819 
L 237.348682 32.029819 
L 237.348682 32.432248 
L 236.946254 32.834676 
L 236.946254 33.237104 
L 236.141398 33.639532 
L 236.141398 34.04196 
L 235.738969 34.444389 
L 235.738969 35.249245 
L 235.738969 35.651673 
L 236.141398 35.651673 
L 236.543826 35.651673 
L 236.946254 35.651673 
L 237.348682 35.651673 
L 238.153539 35.651673 
L 238.958395 36.054101 
L 239.360823 36.054101 
L 240.16568 36.456529 
L 240.568108 36.858958 
L 240.970536 37.261386 
L 241.372964 37.261386 
L 241.372964 38.066242 
L 241.775392 38.871099 
L 241.372964 39.273527 
L 241.372964 39.675955 
L 240.970536 40.480811 
L 240.568108 41.285668 
L 239.763251 41.688096 
L 239.360823 42.090524 
L 238.958395 42.090524 
L 238.153539 42.090524 
L 237.75111 41.688096 
" style="fill:none;stroke:#8c8c8c;stroke-linecap:square;"/>
   </g>
   <g id="line2d_8">
    <path clip-path="url(#p10a8af257d)" d="M 242.982677 31.627391 
L 242.982677 31.224963 
L 243.385105 31.224963 
L 243.385105 31.627391 
L 243.385105 32.029819 
L 243.385105 32.432248 
L 243.385105 32.834676 
L 243.787533 33.237104 
L 243.787533 34.04196 
L 244.189962 35.249245 
L 244.59239 36.054101 
L 244.994818 36.858958 
L 245.397246 38.066242 
L 245.799674 38.46867 
L 246.202102 39.273527 
L 246.202102 39.675955 
L 246.604531 40.078383 
" style="fill:none;stroke:#8c8c8c;stroke-linecap:square;"/>
   </g>
   <g id="line2d_9">
    <path clip-path="url(#p10a8af257d)" d="M 242.580249 36.456529 
L 242.177821 36.054101 
L 242.580249 35.651673 
L 243.385105 35.249245 
L 244.189962 35.249245 
L 244.59239 34.846817 
L 245.799674 34.444389 
L 246.604531 34.444389 
L 247.409387 34.444389 
L 248.214243 34.04196 
L 249.0191 34.04196 
L 249.421528 34.04196 
L 250.226384 34.04196 
" style="fill:none;stroke:#8c8c8c;stroke-linecap:square;"/>
   </g>
   <g id="line2d_10">
    <path clip-path="url(#p10a8af257d)" d="M 253.44581 34.04196 
L 253.44581 34.444389 
L 253.44581 34.846817 
L 253.44581 35.249245 
L 253.44581 35.651673 
L 253.44581 36.054101 
L 253.44581 36.456529 
L 253.44581 37.261386 
L 253.44581 38.066242 
L 253.44581 38.46867 
L 253.848238 39.273527 
L 253.848238 39.675955 
L 253.848238 40.480811 
" style="fill:none;stroke:#8c8c8c;stroke-linecap:square;"/>
   </g>
   <g id="line2d_11">
    <path clip-path="url(#p10a8af257d)" d="M 253.043382 30.420107 
L 253.043382 29.61525 
L 252.640954 29.212822 
L 252.640954 28.810394 
L 252.640954 28.810394 
L 252.640954 28.810394 
" style="fill:none;stroke:#8c8c8c;stroke-linecap:square;"/>
   </g>
   <g id="line2d_12">
    <path clip-path="url(#p10a8af257d)" d="M 257.067664 35.249245 
L 257.067664 35.651673 
L 257.067664 36.054101 
L 257.067664 36.456529 
L 257.067664 36.858958 
L 257.067664 37.663814 
L 257.067664 38.066242 
L 257.470092 39.273527 
L 257.470092 39.675955 
L 257.470092 40.480811 
L 257.470092 40.88324 
L 257.87252 40.88324 
L 257.87252 40.480811 
L 257.87252 39.675955 
L 257.87252 38.46867 
L 258.274948 37.663814 
L 258.274948 36.456529 
L 258.677376 35.651673 
L 259.079805 34.846817 
L 259.482233 34.444389 
L 259.884661 34.04196 
L 260.287089 34.04196 
L 260.689517 34.04196 
L 261.091946 34.444389 
L 261.494374 34.846817 
L 261.896802 35.651673 
L 261.896802 36.456529 
L 262.29923 36.858958 
L 262.29923 38.066242 
L 262.701658 38.46867 
L 262.701658 39.273527 
L 262.701658 39.675955 
L 263.104086 39.675955 
L 263.104086 40.078383 
" style="fill:none;stroke:#8c8c8c;stroke-linecap:square;"/>
   </g>
   <g id="line2d_13">
    <path clip-path="url(#p10a8af257d)" d="M 270.750222 34.846817 
L 270.750222 34.444389 
L 270.750222 34.04196 
L 270.347794 34.04196 
L 269.945366 34.04196 
L 269.542938 34.04196 
L 269.140509 34.04196 
L 268.738081 34.04196 
L 268.738081 34.444389 
L 268.335653 34.846817 
L 267.933225 34.846817 
L 267.933225 35.651673 
L 267.530797 36.456529 
L 267.933225 37.261386 
L 267.933225 37.663814 
L 268.335653 38.46867 
L 268.738081 38.871099 
L 269.140509 39.273527 
L 269.542938 39.675955 
L 269.945366 39.675955 
L 270.347794 39.273527 
L 270.750222 38.871099 
L 271.15265 38.46867 
L 271.15265 38.066242 
L 271.15265 37.261386 
L 271.15265 36.456529 
L 271.15265 35.249245 
L 270.750222 34.846817 
L 270.750222 34.04196 
L 270.750222 33.639532 
L 270.750222 34.04196 
L 271.15265 34.04196 
L 271.15265 34.846817 
L 271.555078 35.249245 
L 272.359935 36.054101 
L 272.762363 36.858958 
L 273.164791 38.066242 
L 273.969648 39.273527 
L 274.372076 40.078383 
L 275.176932 41.688096 
L 275.176932 42.895381 
L 275.176932 44.102665 
L 275.176932 45.712378 
L 274.774504 47.322091 
L 274.372076 48.529375 
L 273.567219 50.541516 
L 272.762363 51.346373 
L 271.15265 52.151229 
L 270.347794 52.553657 
L 269.140509 52.151229 
L 268.738081 52.151229 
" style="fill:none;stroke:#8c8c8c;stroke-linecap:square;"/>
   </g>
   <g id="line2d_14">
    <path clip-path="url(#p10a8af257d)" d="M 292.481344 35.651673 
L 292.883773 35.651673 
L 292.883773 35.249245 
L 293.688629 34.846817 
L 294.091057 34.444389 
L 294.091057 34.04196 
L 294.895914 33.639532 
L 295.298342 32.834676 
L 295.70077 32.432248 
L 295.70077 31.627391 
L 296.103198 31.627391 
L 296.103198 31.224963 
L 296.103198 30.822535 
L 295.70077 30.822535 
L 294.895914 30.822535 
L 294.493485 31.224963 
L 294.091057 31.627391 
L 293.286201 32.029819 
L 292.883773 32.834676 
L 292.481344 33.639532 
L 292.078916 34.444389 
L 292.078916 35.249245 
L 292.481344 36.858958 
L 292.481344 37.663814 
L 293.286201 38.46867 
L 293.688629 39.273527 
L 294.493485 39.675955 
L 295.298342 39.675955 
L 295.70077 40.078383 
L 296.505626 39.675955 
L 297.310483 39.273527 
L 297.712911 39.273527 
L 298.115339 38.46867 
L 298.517767 38.066242 
" style="fill:none;stroke:#8c8c8c;stroke-linecap:square;"/>
   </g>
   <g id="line2d_15">
    <path clip-path="url(#p10a8af257d)" d="M 302.542049 29.212822 
L 302.542049 28.810394 
L 302.542049 28.407966 
L 302.542049 28.810394 
L 302.944477 28.810394 
L 302.944477 29.212822 
L 302.944477 29.61525 
L 303.346906 30.822535 
L 303.749334 32.029819 
L 303.749334 33.639532 
L 304.151762 34.444389 
L 304.151762 35.651673 
L 304.55419 36.858958 
L 304.956618 37.663814 
L 304.956618 38.066242 
L 305.359046 38.46867 
L 305.359046 38.871099 
" style="fill:none;stroke:#8c8c8c;stroke-linecap:square;"/>
   </g>
   <g id="line2d_16">
    <path clip-path="url(#p10a8af257d)" d="M 302.542049 33.237104 
L 302.139621 33.237104 
L 302.139621 33.639532 
L 302.542049 34.04196 
L 303.346906 34.04196 
L 304.151762 34.04196 
L 305.761475 34.04196 
L 306.968759 33.639532 
L 308.176044 33.639532 
L 309.383328 33.237104 
L 310.188185 33.237104 
L 310.590613 32.834676 
" style="fill:none;stroke:#8c8c8c;stroke-linecap:square;"/>
   </g>
   <g id="line2d_17">
    <path clip-path="url(#p10a8af257d)" d="M 328.699882 33.237104 
L 328.297453 33.237104 
L 327.895025 33.237104 
L 327.492597 32.834676 
L 326.687741 33.237104 
L 326.285312 33.237104 
L 325.078028 33.639532 
L 324.6756 33.639532 
L 323.870743 34.444389 
L 323.065887 34.846817 
L 323.065887 35.249245 
L 323.065887 35.651673 
L 323.065887 36.054101 
L 323.468315 36.054101 
L 323.870743 36.054101 
L 324.6756 36.054101 
L 325.078028 35.651673 
L 325.882884 35.249245 
L 326.285312 34.846817 
L 327.090169 34.04196 
L 327.492597 33.639532 
L 327.895025 33.237104 
L 327.895025 32.834676 
L 327.895025 32.432248 
L 328.297453 32.432248 
L 328.297453 32.834676 
L 328.297453 33.639532 
L 328.699882 34.444389 
L 328.699882 34.846817 
L 328.699882 35.651673 
L 329.10231 36.456529 
L 329.10231 36.858958 
L 329.504738 37.261386 
L 329.504738 38.066242 
L 329.907166 38.066242 
L 329.907166 38.46867 
L 330.309594 38.46867 
" style="fill:none;stroke:#8c8c8c;stroke-linecap:square;"/>
   </g>
   <g id="line2d_18">
    <path clip-path="url(#p10a8af257d)" d="M 333.126592 26.798253 
L 333.126592 26.395825 
L 333.52902 26.798253 
L 333.52902 27.200681 
L 333.52902 27.603109 
L 333.52902 28.005537 
L 333.931448 28.810394 
L 333.931448 30.017678 
L 334.333876 30.822535 
L 334.333876 32.029819 
L 334.736304 32.834676 
L 334.736304 34.04196 
L 335.138733 34.846817 
L 335.541161 35.249245 
L 335.541161 35.651673 
" style="fill:none;stroke:#8c8c8c;stroke-linecap:square;"/>
   </g>
   <g id="line2d_19">
    <path clip-path="url(#p10a8af257d)" d="M 343.992153 38.871099 
L 343.992153 39.273527 
L 344.394581 39.273527 
L 344.394581 39.675955 
L 344.394581 40.078383 
" style="fill:none;stroke:#8c8c8c;stroke-linecap:square;"/>
   </g>
   <g id="line2d_20">
    <path clip-path="url(#p10a8af257d)" d="M 215.215132 175.696683 
L 215.61756 175.696683 
L 216.019988 176.099112 
L 216.422416 176.099112 
L 216.422416 176.50154 
L 217.227273 176.50154 
L 217.227273 176.903968 
L 217.629701 176.903968 
L 217.629701 177.306396 
L 218.032129 177.306396 
L 218.032129 177.708824 
L 218.836985 177.708824 
L 218.836985 178.111253 
L 219.641842 178.111253 
L 219.641842 178.513681 
L 220.04427 178.513681 
L 220.446698 178.916109 
L 220.849126 178.916109 
L 220.849126 179.318537 
L 221.653983 179.318537 
L 221.653983 179.720965 
L 222.056411 179.720965 
L 222.861267 180.525822 
L 223.263696 180.525822 
L 223.263696 180.92825 
L 223.666124 180.92825 
L 224.873408 182.135534 
L 224.873408 182.537963 
L 225.275837 182.537963 
L 225.275837 182.940391 
L 225.678265 182.940391 
L 225.678265 183.342819 
L 226.080693 183.745247 
L 226.080693 184.147675 
L 226.483121 184.147675 
L 226.483121 184.550104 
L 226.885549 184.550104 
L 226.885549 184.952532 
L 227.287977 184.952532 
L 227.287977 185.35496 
L 227.690406 185.757388 
L 227.690406 186.159816 
L 228.092834 186.159816 
L 228.092834 186.562245 
L 228.495262 186.562245 
L 228.495262 187.367101 
L 228.89769 187.367101 
L 228.89769 187.769529 
L 229.300118 187.769529 
L 229.300118 188.171957 
L 229.702547 188.574386 
L 229.702547 188.976814 
L 230.104975 188.976814 
L 230.104975 189.379242 
L 230.507403 189.379242 
L 230.507403 189.78167 
L 230.909831 190.184098 
L 230.909831 190.586527 
L 231.312259 190.586527 
L 231.312259 190.988955 
L 232.117116 191.793811 
L 232.117116 192.196239 
L 232.519544 192.598667 
L 232.519544 193.001096 
L 232.921972 193.001096 
L 232.921972 193.805952 
L 233.3244 193.805952 
L 233.3244 194.610808 
L 233.726829 195.013237 
L 233.726829 195.415665 
L 234.129257 195.415665 
L 234.129257 195.818093 
L 234.934113 196.622949 
L 234.934113 197.025378 
L 235.336541 197.427806 
L 235.336541 197.830234 
L 235.738969 197.830234 
L 235.738969 198.63509 
L 236.141398 199.037519 
L 236.141398 199.439947 
L 236.543826 199.439947 
L 236.543826 200.244803 
L 236.946254 200.244803 
L 236.946254 201.049659 
L 237.348682 201.049659 
L 237.348682 201.854516 
L 237.75111 201.854516 
L 237.75111 202.659372 
L 238.153539 202.659372 
L 238.153539 203.464229 
L 238.555967 203.464229 
L 238.555967 204.269085 
L 238.958395 204.269085 
L 238.958395 204.671513 
L 239.360823 204.671513 
L 239.360823 205.073941 
L 239.763251 205.47637 
L 239.763251 205.878798 
L 240.16568 205.878798 
L 240.16568 206.281226 
L 240.568108 206.683654 
L 240.568108 207.086082 
L 240.970536 207.488511 
L 240.970536 207.890939 
L 241.372964 207.890939 
L 241.372964 208.695795 
L 241.775392 208.695795 
L 241.775392 209.500651 
L 242.177821 209.500651 
L 242.177821 209.90308 
L 242.580249 209.90308 
L 242.580249 210.707936 
L 242.982677 210.707936 
L 242.982677 211.110364 
L 243.385105 211.110364 
L 243.385105 211.915221 
L 243.787533 212.317649 
L 243.787533 212.720077 
L 244.189962 212.720077 
L 244.189962 213.524933 
L 244.59239 213.524933 
L 244.59239 214.32979 
L 244.994818 214.32979 
L 244.994818 215.134646 
L 245.397246 215.134646 
L 245.397246 215.939503 
L 245.799674 215.939503 
L 245.799674 216.744359 
L 246.202102 217.146787 
L 246.202102 217.951643 
L 246.604531 217.951643 
L 246.604531 219.158928 
L 247.006959 219.158928 
L 247.006959 220.366213 
L 247.409387 220.366213 
L 247.409387 221.573497 
L 247.811815 221.573497 
L 247.811815 222.780782 
L 248.214243 222.780782 
L 248.214243 223.988066 
L 248.214243 223.988066 
" style="fill:none;stroke:#8c8c8c;stroke-linecap:square;"/>
   </g>
   <g id="line2d_21">
    <path clip-path="url(#p10a8af257d)" d="M 247.409387 246.926473 
L 247.409387 247.328901 
L 247.006959 247.328901 
L 247.006959 247.73133 
L 247.006959 248.133758 
L 246.604531 248.133758 
L 246.604531 248.536186 
L 246.604531 248.938614 
L 246.202102 248.938614 
L 246.202102 249.341042 
L 245.799674 249.341042 
L 245.799674 249.743471 
L 245.397246 250.145899 
L 244.994818 250.548327 
L 244.994818 250.950755 
L 244.59239 250.950755 
L 244.59239 251.353183 
L 244.189962 251.353183 
L 244.189962 251.755611 
L 243.787533 251.755611 
L 243.787533 252.15804 
L 243.385105 252.15804 
L 243.385105 252.560468 
L 242.982677 252.560468 
L 242.982677 252.962896 
L 242.580249 252.962896 
L 242.580249 253.365324 
L 242.177821 253.365324 
L 241.775392 253.365324 
L 241.775392 253.767752 
L 241.372964 253.767752 
L 241.372964 254.170181 
L 240.970536 254.170181 
L 240.970536 254.572609 
L 240.568108 254.572609 
L 240.568108 254.975037 
L 240.16568 254.975037 
L 240.16568 255.377465 
L 239.763251 255.377465 
L 239.763251 255.779893 
L 239.360823 255.779893 
L 239.360823 256.182322 
L 238.958395 256.182322 
L 238.555967 256.58475 
L 238.153539 256.58475 
L 238.153539 256.987178 
L 237.75111 256.987178 
L 237.348682 256.987178 
L 237.348682 257.389606 
L 236.946254 257.389606 
L 236.543826 257.389606 
L 236.141398 257.792034 
L 235.738969 257.792034 
L 235.336541 257.792034 
L 234.934113 257.792034 
L 234.934113 258.194463 
L 234.531685 258.194463 
L 234.129257 258.194463 
L 233.726829 258.194463 
L 233.3244 258.596891 
L 232.921972 258.596891 
L 232.519544 258.596891 
L 232.117116 258.596891 
L 231.714688 258.999319 
L 231.312259 258.999319 
L 230.909831 258.999319 
L 230.507403 259.401747 
L 230.104975 259.401747 
L 229.702547 259.804175 
L 229.300118 259.804175 
L 228.89769 259.804175 
L 228.495262 260.206603 
L 228.092834 260.206603 
L 227.690406 260.206603 
L 227.287977 260.206603 
L 227.287977 260.609032 
L 226.885549 260.609032 
L 226.483121 260.609032 
L 226.080693 260.609032 
L 226.080693 261.01146 
L 225.678265 261.01146 
L 225.275837 261.01146 
L 225.275837 261.413888 
L 224.873408 261.413888 
L 224.47098 261.413888 
L 224.068552 261.816316 
L 223.666124 261.816316 
L 223.666124 262.218744 
L 223.263696 262.218744 
L 222.861267 262.218744 
L 222.861267 262.621173 
L 222.458839 262.621173 
L 222.056411 262.621173 
L 222.056411 263.023601 
L 221.653983 263.023601 
L 221.251555 263.426029 
L 220.849126 263.828457 
L 220.446698 263.828457 
L 220.04427 264.230885 
L 219.641842 264.633314 
L 219.239414 265.035742 
L 218.836985 265.43817 
L 218.434557 265.43817 
L 218.434557 265.840598 
L 218.032129 265.840598 
L 217.629701 265.840598 
" style="fill:none;stroke:#8c8c8c;stroke-linecap:square;"/>
   </g>
   <g id="line2d_22">
    <path clip-path="url(#p10a8af257d)" d="M 130.705212 177.306396 
L 133.924637 177.306396 
L 133.924637 177.708824 
L 135.53435 177.708824 
L 135.936778 178.111253 
L 136.741635 178.111253 
L 137.144063 178.513681 
L 137.948919 178.513681 
L 137.948919 178.916109 
L 139.156204 178.916109 
L 139.96106 179.318537 
L 140.363488 179.318537 
L 140.363488 179.720965 
L 141.168345 179.720965 
L 141.570773 180.123394 
L 142.778057 180.123394 
L 142.778057 180.525822 
L 143.985342 180.525822 
L 145.595055 181.330678 
L 145.997483 181.330678 
L 146.399911 181.733106 
L 146.802339 181.733106 
L 147.204768 182.135534 
L 147.607196 182.135534 
L 148.009624 182.537963 
L 148.81448 182.537963 
L 148.81448 182.940391 
L 149.619337 182.940391 
L 149.619337 183.342819 
L 150.021765 183.342819 
L 150.826621 183.745247 
L 151.229049 183.745247 
L 151.631478 184.147675 
L 152.033906 184.147675 
L 152.436334 184.550104 
L 152.838762 184.550104 
L 153.24119 184.952532 
L 153.643619 184.952532 
L 154.046047 185.35496 
L 154.448475 185.35496 
L 154.448475 185.757388 
L 154.850903 185.757388 
L 155.65576 186.562245 
L 156.058188 186.562245 
L 156.460616 186.964673 
L 156.460616 187.367101 
L 157.265472 187.769529 
L 157.667901 188.171957 
L 157.667901 188.574386 
L 158.070329 188.574386 
L 158.875185 189.379242 
L 158.875185 189.78167 
L 159.277613 190.184098 
L 159.680041 190.184098 
L 159.680041 190.586527 
L 160.08247 190.586527 
L 160.08247 190.988955 
L 160.484898 190.988955 
L 160.484898 191.391383 
L 161.289754 192.196239 
L 161.289754 192.598667 
L 161.692182 192.598667 
L 161.692182 193.001096 
L 162.899467 194.20838 
L 162.899467 194.610808 
L 163.301895 195.013237 
L 163.704323 195.013237 
L 163.704323 195.415665 
L 165.716464 197.427806 
L 166.118893 197.427806 
L 166.118893 197.830234 
L 166.521321 197.830234 
L 167.326177 198.63509 
L 167.728605 198.63509 
L 167.728605 199.037519 
L 168.131033 199.037519 
L 168.93589 199.842375 
L 169.338318 199.842375 
L 169.338318 200.244803 
L 170.143174 200.647231 
L 171.350459 201.854516 
L 172.155315 202.256944 
L 172.557744 202.659372 
L 172.557744 203.0618 
L 173.3626 203.866657 
L 173.765028 203.866657 
L 174.167456 204.269085 
L 174.569885 204.269085 
L 174.569885 204.671513 
L 175.374741 205.47637 
L 175.374741 205.878798 
L 175.777169 205.878798 
L 175.777169 206.281226 
L 176.582025 206.683654 
L 176.582025 207.086082 
L 178.191738 208.695795 
L 178.191738 209.098223 
L 179.801451 210.707936 
L 179.801451 211.110364 
L 180.606307 211.915221 
L 180.606307 212.317649 
L 181.411164 213.122505 
L 181.411164 213.524933 
L 181.813592 213.927362 
L 182.21602 214.732218 
L 183.020877 215.537074 
L 183.020877 216.341931 
L 183.423305 216.744359 
L 183.825733 217.549215 
L 184.228161 217.951643 
L 184.228161 218.354072 
L 185.033017 219.158928 
L 185.033017 219.963784 
L 185.837874 220.768641 
L 185.837874 221.171069 
L 186.240302 221.975925 
L 186.64273 222.378354 
L 187.447587 223.988066 
L 187.850015 224.390495 
L 187.850015 225.195351 
L 188.654871 226.000207 
L 189.057299 226.805064 
L 189.459728 227.207492 
L 189.459728 227.60992 
L 189.862156 228.012348 
L 189.862156 228.414776 
L 190.264584 228.817205 
L 190.264584 229.219633 
L 191.06944 230.024489 
L 191.06944 230.426917 
L 191.874297 231.231774 
L 191.874297 231.634202 
L 192.276725 232.03663 
L 192.276725 232.439058 
L 192.679153 232.439058 
L 192.679153 233.243915 
L 193.081581 233.243915 
L 193.081581 233.646343 
L 193.484009 233.646343 
L 193.484009 234.451199 
L 193.886438 234.451199 
L 193.886438 234.853627 
L 194.288866 234.853627 
L 194.288866 235.256056 
L 195.49615 236.46334 
L 195.49615 236.865768 
L 195.898579 236.865768 
L 195.898579 237.268197 
L 196.301007 237.670625 
L 196.301007 238.073053 
L 196.703435 238.073053 
L 196.703435 238.475481 
L 197.508291 239.280338 
L 197.508291 240.085194 
L 197.91072 240.085194 
L 197.91072 240.487622 
L 198.313148 240.89005 
L 198.313148 241.292479 
L 198.715576 241.694907 
L 198.715576 242.499763 
L 199.118004 242.902191 
L 199.118004 243.304619 
L 199.520432 243.304619 
L 199.520432 244.109476 
L 199.922861 244.109476 
L 199.922861 244.914332 
L 200.325289 245.31676 
L 200.325289 246.121617 
L 200.727717 246.121617 
L 200.727717 246.926473 
L 201.130145 247.328901 
L 201.130145 247.73133 
L 201.532573 248.133758 
L 201.532573 248.938614 
L 201.935001 249.341042 
L 201.935001 249.743471 
L 202.33743 249.743471 
L 202.33743 250.548327 
L 202.739858 250.548327 
L 202.739858 250.950755 
L 203.142286 251.353183 
L 203.142286 251.755611 
L 203.544714 251.755611 
L 203.544714 252.560468 
L 203.947142 252.962896 
L 203.947142 253.365324 
L 204.349571 253.767752 
L 204.349571 254.572609 
L 204.751999 254.572609 
L 204.751999 255.377465 
L 205.154427 255.377465 
L 205.154427 256.182322 
L 205.556855 256.182322 
L 205.959283 256.58475 
L 205.959283 256.987178 
L 206.361712 256.987178 
L 206.361712 257.389606 
L 206.76414 257.389606 
L 206.76414 257.792034 
L 207.166568 257.792034 
L 207.166568 258.194463 
L 207.568996 258.194463 
L 207.568996 258.596891 
L 208.373853 258.596891 
L 208.373853 258.999319 
L 209.178709 258.999319 
L 209.178709 259.401747 
L 209.983565 259.401747 
L 209.983565 259.804175 
L 210.788422 259.804175 
L 210.788422 260.206603 
L 211.593278 260.206603 
L 211.593278 260.609032 
L 212.398134 260.609032 
L 212.398134 261.01146 
L 212.398134 261.01146 
" style="fill:none;stroke:#8c8c8c;stroke-linecap:square;"/>
   </g>
   <g id="line2d_23">
    <path clip-path="url(#p10a8af257d)" d="M 130.705212 135.453864 
L 130.705212 135.051436 
L 131.10764 135.051436 
L 131.10764 134.649008 
L 133.522209 134.649008 
L 133.522209 135.051436 
L 135.53435 135.051436 
L 135.936778 135.453864 
L 136.741635 135.453864 
L 137.144063 135.856293 
L 138.351347 135.856293 
L 138.351347 136.258721 
L 140.363488 136.258721 
L 140.765916 136.661149 
L 142.375629 136.661149 
L 142.778057 137.063577 
L 144.38777 137.063577 
L 144.38777 137.466005 
L 146.802339 137.466005 
L 146.802339 137.868434 
L 148.412052 137.868434 
L 148.81448 138.270862 
L 150.021765 138.270862 
L 150.021765 138.67329 
L 151.229049 138.67329 
L 151.631478 139.075718 
L 152.436334 139.075718 
L 152.436334 139.478146 
L 153.643619 139.478146 
L 153.643619 139.880574 
L 154.850903 139.880574 
L 155.253331 140.283003 
L 155.65576 140.283003 
L 156.058188 140.685431 
L 157.265472 140.685431 
L 157.265472 141.087859 
L 158.472757 141.087859 
L 158.875185 141.490287 
L 160.08247 141.490287 
L 160.484898 141.892715 
L 162.094611 141.892715 
L 162.094611 142.295144 
L 163.301895 142.295144 
L 163.704323 142.697572 
L 164.911608 142.697572 
L 164.911608 143.1 
L 166.118893 143.1 
L 166.118893 143.502428 
L 166.923749 143.502428 
L 167.326177 143.904856 
L 168.131033 143.904856 
L 168.533462 144.307285 
L 169.338318 144.307285 
L 169.740746 144.709713 
L 170.545603 144.709713 
L 170.545603 145.112141 
L 171.752887 145.112141 
L 171.752887 145.514569 
L 172.960172 145.514569 
L 172.960172 145.916997 
L 174.167456 145.916997 
L 174.167456 146.319426 
L 174.972313 146.319426 
L 174.972313 146.721854 
L 176.179597 146.721854 
L 176.582025 147.124282 
L 176.984454 147.124282 
L 176.984454 147.52671 
L 177.78931 147.52671 
L 177.78931 147.929138 
L 178.594166 147.929138 
L 178.594166 148.331566 
L 179.399023 148.331566 
L 179.801451 148.733995 
L 180.203879 148.733995 
L 180.606307 149.136423 
L 181.008736 149.136423 
L 181.411164 149.538851 
L 181.813592 149.538851 
L 182.618448 150.343707 
L 183.020877 150.343707 
L 183.423305 150.746136 
L 183.825733 150.746136 
L 184.228161 151.148564 
L 184.630589 151.148564 
L 184.630589 151.550992 
L 185.435446 151.550992 
L 185.435446 151.95342 
L 185.837874 151.95342 
L 186.240302 152.355848 
L 187.045158 152.758277 
L 187.850015 153.563133 
L 188.252443 153.563133 
L 188.252443 153.965561 
L 189.057299 153.965561 
L 189.057299 154.367989 
L 189.459728 154.367989 
L 189.862156 154.770418 
L 190.264584 154.770418 
L 190.264584 155.172846 
L 190.667012 155.172846 
L 191.06944 155.575274 
L 191.471869 155.575274 
L 191.471869 155.977702 
L 191.874297 155.977702 
L 191.874297 156.38013 
L 192.276725 156.38013 
L 192.679153 156.782558 
L 193.081581 156.782558 
L 193.081581 157.184987 
L 193.886438 157.184987 
L 193.886438 157.587415 
L 194.288866 157.587415 
L 194.691294 157.989843 
L 195.093722 157.989843 
L 195.093722 158.392271 
L 195.49615 158.392271 
L 195.49615 158.794699 
L 195.898579 158.794699 
L 195.898579 159.197128 
L 196.301007 159.197128 
L 196.301007 159.599556 
L 197.105863 159.599556 
L 197.105863 160.001984 
L 197.508291 160.001984 
L 197.508291 160.404412 
L 197.91072 160.404412 
L 197.91072 160.80684 
L 198.313148 161.209269 
L 198.313148 161.611697 
L 198.715576 161.611697 
L 199.520432 162.416553 
L 199.922861 162.416553 
L 199.922861 162.818981 
L 200.325289 162.818981 
L 200.325289 163.22141 
L 200.727717 163.22141 
L 201.532573 164.026266 
L 201.935001 164.026266 
L 201.935001 164.428694 
L 202.739858 164.428694 
L 202.739858 164.831122 
L 203.142286 164.831122 
L 203.142286 165.23355 
L 203.544714 165.23355 
L 203.544714 165.635979 
L 203.947142 165.635979 
L 203.947142 166.038407 
L 204.349571 166.038407 
L 204.349571 166.440835 
L 204.751999 166.440835 
L 205.154427 166.843263 
L 205.154427 167.245691 
L 205.556855 167.245691 
L 205.556855 167.64812 
L 205.959283 167.64812 
L 205.959283 168.050548 
L 206.361712 168.050548 
L 206.361712 168.452976 
L 206.76414 168.452976 
L 206.76414 168.855404 
L 207.166568 168.855404 
L 207.166568 169.257832 
L 207.971424 170.062689 
L 207.971424 170.465117 
L 208.373853 170.465117 
L 208.373853 170.867545 
L 208.776281 170.867545 
L 208.776281 171.269973 
L 209.581137 171.269973 
L 209.581137 171.672402 
L 210.385993 171.672402 
L 210.788422 172.07483 
L 211.593278 172.07483 
L 211.593278 172.477258 
L 212.398134 172.477258 
L 212.398134 172.879686 
L 212.800563 172.879686 
L 212.800563 172.879686 
" style="fill:none;stroke:#8c8c8c;stroke-linecap:square;"/>
   </g>
   <g id="line2d_24">
    <path clip-path="url(#p10a8af257d)" d="M 30.098164 71.065354 
L 30.500592 71.065354 
L 30.500592 70.662926 
L 31.305449 70.662926 
L 31.707877 71.065354 
L 33.31759 71.065354 
L 33.31759 71.467782 
L 35.732159 71.467782 
L 36.134587 71.87021 
L 37.341871 71.87021 
L 38.146728 72.272638 
L 38.951584 72.272638 
L 39.354012 72.675067 
L 40.963725 72.675067 
L 41.366153 73.077495 
L 42.573438 73.077495 
L 42.975866 73.479923 
L 43.780723 73.479923 
L 44.183151 73.882351 
L 44.988007 73.882351 
L 45.390435 74.284779 
L 46.59772 74.284779 
L 46.59772 74.687208 
L 47.402576 74.687208 
L 47.805004 75.089636 
L 49.012289 75.089636 
L 49.012289 75.492064 
L 50.219574 75.492064 
L 50.622002 75.894492 
L 51.426858 75.894492 
L 52.231715 76.29692 
L 53.036571 76.29692 
L 53.438999 76.699349 
L 54.646284 76.699349 
L 55.048712 77.101777 
L 55.853568 77.101777 
L 56.255996 77.504205 
L 57.463281 77.504205 
L 57.865709 77.906633 
L 58.670566 77.906633 
L 58.670566 78.309061 
L 59.87785 78.309061 
L 60.280278 78.711489 
L 61.085135 78.711489 
L 61.487563 79.113918 
L 62.292419 79.113918 
L 62.694847 79.516346 
L 63.499704 79.516346 
L 63.902132 79.918774 
L 64.706988 79.918774 
L 65.109417 80.321202 
L 65.914273 80.321202 
L 66.316701 80.72363 
L 66.719129 80.72363 
L 67.523986 81.126059 
L 67.926414 81.126059 
L 68.73127 81.930915 
L 69.133699 81.930915 
L 69.938555 82.333343 
L 70.340983 82.735771 
L 70.743411 82.735771 
L 70.743411 83.1382 
L 71.548268 83.1382 
L 71.950696 83.540628 
L 72.353124 83.540628 
L 73.560409 84.747912 
L 73.962837 84.747912 
L 74.365265 85.150341 
L 74.767693 85.150341 
L 75.170121 85.552769 
L 75.57255 85.552769 
L 75.57255 85.955197 
L 76.377406 85.955197 
L 76.779834 86.357625 
L 77.182262 86.357625 
L 77.182262 86.760053 
L 77.987119 86.760053 
L 77.987119 87.162481 
L 78.791975 87.162481 
L 79.194403 87.56491 
L 79.596832 87.56491 
L 79.99926 87.967338 
L 80.401688 87.967338 
L 80.804116 88.369766 
L 81.206544 88.369766 
L 81.608972 88.772194 
L 82.011401 88.772194 
L 82.011401 89.174622 
L 82.816257 89.174622 
L 83.218685 89.577051 
L 83.621113 89.577051 
L 83.621113 89.979479 
L 84.023542 89.979479 
L 84.42597 90.381907 
L 84.828398 90.381907 
L 84.828398 90.784335 
L 85.230826 90.784335 
L 85.230826 91.186763 
L 85.633254 91.186763 
L 86.035683 91.589192 
L 86.438111 91.589192 
L 86.438111 91.99162 
L 86.840539 91.99162 
L 86.840539 92.394048 
L 87.242967 92.394048 
L 87.645395 92.796476 
L 88.047824 92.796476 
L 88.85268 93.601333 
L 89.255108 93.601333 
L 89.657536 94.003761 
L 90.059964 94.003761 
L 91.669677 95.613473 
L 92.072105 95.613473 
L 92.876962 96.015902 
L 93.27939 96.41833 
L 93.681818 96.41833 
L 93.681818 96.820758 
L 94.486675 96.820758 
L 95.291531 97.625614 
L 95.693959 97.625614 
L 96.901244 98.832899 
L 97.7061 99.235327 
L 98.108528 99.637755 
L 98.510956 99.637755 
L 99.315813 100.040184 
L 100.523097 101.247468 
L 100.523097 101.649896 
L 101.327954 102.454753 
L 101.730382 102.454753 
L 102.13281 103.259609 
L 102.13281 103.662037 
L 102.535238 103.662037 
L 102.937667 104.064466 
L 102.937667 104.466894 
L 103.340095 104.869322 
L 103.340095 105.27175 
L 103.742523 105.674178 
L 104.144951 105.674178 
L 104.144951 106.479035 
L 104.547379 106.479035 
L 104.547379 106.881463 
L 104.949808 107.283891 
L 104.949808 107.686319 
L 105.754664 108.491176 
L 105.754664 108.893604 
L 106.55952 109.69846 
L 106.961948 110.503317 
L 106.961948 110.905745 
L 107.364377 110.905745 
L 107.364377 111.710601 
L 107.766805 111.710601 
L 107.766805 112.515458 
L 108.169233 112.515458 
L 108.571661 112.917886 
L 108.571661 113.722742 
L 108.974089 113.722742 
L 108.974089 114.12517 
L 109.376518 114.527598 
L 109.376518 114.930027 
L 109.778946 114.930027 
L 109.778946 115.332455 
L 110.181374 115.332455 
L 110.181374 115.734883 
L 111.791087 117.344596 
L 111.791087 117.747024 
L 112.193515 117.747024 
L 112.595943 118.149452 
L 112.595943 118.55188 
L 113.4008 119.356737 
L 113.4008 119.759165 
L 113.803228 119.759165 
L 113.803228 120.161593 
L 114.608084 120.96645 
L 114.608084 121.368878 
L 115.010512 121.368878 
L 115.010512 121.771306 
L 115.815369 122.576162 
L 115.815369 122.97859 
L 116.217797 122.97859 
L 116.217797 123.381019 
L 116.620225 123.381019 
L 116.620225 123.783447 
L 117.022653 123.783447 
L 117.022653 124.185875 
L 117.425081 124.185875 
L 117.425081 124.588303 
L 117.82751 124.588303 
L 117.82751 124.990731 
L 118.632366 124.990731 
L 118.632366 125.39316 
L 119.034794 125.39316 
L 119.437222 125.795588 
L 119.839651 125.795588 
L 119.839651 126.198016 
L 120.242079 126.198016 
L 120.242079 126.600444 
L 120.644507 126.600444 
L 120.644507 127.002872 
L 121.046935 127.002872 
L 121.046935 127.405301 
L 121.449363 127.807729 
L 121.449363 128.210157 
L 121.851792 128.210157 
L 121.851792 128.612585 
L 122.25422 128.612585 
L 122.25422 129.015013 
L 122.656648 129.417442 
L 122.656648 129.81987 
L 123.059076 129.81987 
L 123.059076 130.624726 
L 123.461504 130.624726 
L 123.461504 131.027154 
L 123.863932 131.027154 
L 123.863932 131.429582 
L 124.266361 131.429582 
L 124.668789 131.832011 
L 125.071217 131.832011 
L 125.071217 132.234439 
L 125.473645 132.234439 
L 125.473645 132.636867 
L 125.876073 132.636867 
L 125.876073 132.636867 
" style="fill:none;stroke:#8c8c8c;stroke-linecap:square;"/>
   </g>
   <g id="line2d_25">
    <path clip-path="url(#p10a8af257d)" d="M 29.695736 149.941279 
L 30.90302 149.941279 
L 30.90302 149.538851 
L 34.927302 149.538851 
L 35.329731 149.136423 
L 38.549156 149.136423 
L 38.549156 149.538851 
L 42.975866 149.538851 
L 43.378294 149.941279 
L 45.792863 149.941279 
L 46.195292 150.343707 
L 49.012289 150.343707 
L 49.414717 150.746136 
L 51.02443 150.746136 
L 51.829286 151.148564 
L 52.634143 151.148564 
L 53.036571 151.550992 
L 55.048712 151.550992 
L 55.45114 151.95342 
L 57.865709 151.95342 
L 58.268137 152.355848 
L 61.889991 152.355848 
L 61.889991 152.758277 
L 63.499704 152.758277 
L 64.30456 153.160705 
L 65.511845 153.160705 
L 66.316701 153.563133 
L 67.523986 153.563133 
L 67.926414 153.965561 
L 68.73127 153.965561 
L 69.133699 154.367989 
L 70.340983 154.367989 
L 70.743411 154.770418 
L 72.353124 154.770418 
L 72.755552 155.172846 
L 73.962837 155.172846 
L 74.365265 155.575274 
L 75.170121 155.575274 
L 75.974978 155.977702 
L 76.779834 155.977702 
L 77.182262 156.38013 
L 77.987119 156.38013 
L 78.791975 156.782558 
L 79.194403 156.782558 
L 79.99926 157.184987 
L 80.804116 157.184987 
L 80.804116 157.587415 
L 82.413829 157.587415 
L 82.816257 157.989843 
L 84.023542 157.989843 
L 84.023542 158.392271 
L 85.230826 158.392271 
L 85.633254 158.794699 
L 86.840539 158.794699 
L 87.242967 159.197128 
L 88.450252 159.197128 
L 88.85268 159.599556 
L 90.462393 159.599556 
L 90.462393 160.001984 
L 92.072105 160.001984 
L 92.876962 160.404412 
L 94.084246 160.404412 
L 94.084246 160.80684 
L 95.291531 160.80684 
L 95.693959 161.209269 
L 96.498816 161.209269 
L 96.498816 161.611697 
L 97.303672 161.611697 
L 97.7061 162.014125 
L 98.108528 162.014125 
L 98.108528 162.416553 
L 98.913385 162.416553 
L 99.315813 162.818981 
L 100.120669 162.818981 
L 100.120669 163.22141 
L 101.327954 163.22141 
L 101.327954 163.623838 
L 102.535238 163.623838 
L 102.535238 164.026266 
L 103.742523 164.026266 
L 103.742523 164.428694 
L 104.547379 164.428694 
L 104.949808 164.831122 
L 105.754664 164.831122 
L 105.754664 165.23355 
L 106.55952 165.23355 
L 106.55952 165.635979 
L 107.364377 165.635979 
L 107.364377 166.038407 
L 107.766805 166.038407 
L 108.169233 166.440835 
L 108.974089 166.440835 
L 109.376518 166.843263 
L 110.583802 166.843263 
L 111.388659 167.64812 
L 111.791087 167.64812 
L 112.193515 168.050548 
L 112.595943 168.050548 
L 112.998371 168.452976 
L 113.4008 168.452976 
L 113.4008 168.855404 
L 113.803228 168.855404 
L 113.803228 169.257832 
L 114.205656 169.257832 
L 114.205656 169.660261 
L 114.608084 169.660261 
L 114.608084 170.062689 
L 115.010512 170.062689 
L 116.217797 171.269973 
L 116.620225 171.269973 
L 116.620225 171.672402 
L 117.022653 172.07483 
L 117.022653 172.477258 
L 120.242079 175.696683 
L 120.644507 175.696683 
L 120.644507 176.099112 
L 121.449363 176.099112 
L 121.449363 176.50154 
L 121.449363 176.50154 
" style="fill:none;stroke:#8c8c8c;stroke-linecap:square;"/>
   </g>
   <g id="line2d_26">
    <path clip-path="url(#p10a8af257d)" d="M 118.229938 172.879686 
L 118.632366 172.879686 
L 118.632366 173.282114 
L 119.034794 173.282114 
L 119.034794 173.684542 
L 119.437222 173.684542 
L 119.437222 174.086971 
L 119.839651 174.086971 
L 120.242079 174.489399 
L 120.644507 174.489399 
L 121.046935 174.489399 
L 121.449363 174.891827 
L 121.851792 174.891827 
L 121.851792 175.294255 
L 122.25422 175.294255 
L 122.656648 175.294255 
L 122.656648 175.696683 
L 123.059076 175.696683 
L 123.461504 175.696683 
L 123.863932 175.696683 
L 123.863932 176.099112 
L 124.266361 176.099112 
L 124.668789 176.099112 
L 125.071217 176.099112 
" style="fill:none;stroke:#8c8c8c;stroke-linecap:square;"/>
   </g>
   <g id="line2d_27">
    <path clip-path="url(#p10a8af257d)" d="M 250.628813 138.270862 
L 250.628813 137.868434 
L 251.031241 137.868434 
L 251.031241 137.063577 
L 250.628813 137.063577 
L 250.628813 136.661149 
L 249.823956 136.661149 
L 249.421528 136.258721 
L 248.616672 136.258721 
L 247.811815 135.856293 
L 247.409387 135.856293 
L 246.202102 135.453864 
L 244.994818 135.453864 
L 243.385105 135.051436 
L 225.678265 135.051436 
L 224.47098 134.649008 
L 222.056411 134.649008 
L 218.836985 133.844152 
L 217.227273 133.844152 
L 216.019988 133.441723 
L 215.61756 133.039295 
L 214.812704 133.039295 
L 214.007847 132.636867 
L 213.605419 132.234439 
L 212.800563 132.234439 
L 212.398134 131.832011 
L 211.995706 131.832011 
L 211.593278 131.429582 
L 210.385993 131.027154 
L 209.581137 131.027154 
L 208.776281 130.624726 
L 207.166568 130.624726 
L 205.556855 130.222298 
L 198.313148 130.222298 
L 196.703435 130.624726 
L 191.06944 130.624726 
L 190.264584 131.027154 
L 187.850015 131.027154 
L 187.045158 131.429582 
L 185.033017 131.429582 
L 184.630589 131.832011 
L 183.423305 131.832011 
L 182.618448 132.234439 
L 181.411164 132.234439 
L 180.606307 132.636867 
L 180.203879 132.636867 
L 179.399023 133.039295 
L 178.996595 133.039295 
L 178.191738 133.441723 
L 177.386882 133.441723 
L 176.984454 133.844152 
L 175.777169 134.24658 
L 174.972313 134.24658 
L 173.3626 135.051436 
L 172.960172 135.453864 
L 172.155315 135.453864 
L 171.350459 136.258721 
L 170.545603 136.661149 
L 168.533462 138.67329 
L 168.533462 139.075718 
L 167.728605 139.880574 
L 167.728605 141.892715 
L 170.143174 144.307285 
L 170.948031 144.307285 
L 171.752887 144.709713 
L 172.155315 145.112141 
L 173.3626 145.112141 
L 174.167456 145.514569 
L 174.972313 145.514569 
L 175.777169 145.916997 
L 177.386882 145.916997 
L 178.191738 146.319426 
L 179.399023 146.319426 
L 180.203879 146.721854 
L 181.008736 146.721854 
L 181.411164 147.124282 
L 183.825733 147.929138 
L 184.630589 147.929138 
L 185.435446 148.331566 
L 186.240302 148.331566 
L 188.654871 149.136423 
L 189.057299 149.136423 
L 189.862156 149.538851 
L 190.264584 149.538851 
L 192.679153 150.343707 
L 193.081581 150.746136 
L 193.886438 150.746136 
L 195.093722 151.148564 
L 195.49615 151.550992 
L 196.301007 151.95342 
L 201.532573 157.184987 
L 201.532573 157.989843 
L 202.33743 158.392271 
L 203.142286 159.197128 
L 203.544714 160.001984 
L 203.947142 160.404412 
L 204.349571 160.404412 
L 204.751999 161.209269 
L 205.154427 161.209269 
L 205.154427 161.611697 
L 205.959283 162.416553 
L 205.959283 162.818981 
L 206.361712 162.818981 
L 206.361712 163.22141 
L 206.76414 163.22141 
L 206.76414 163.623838 
L 207.166568 164.026266 
L 207.166568 164.428694 
L 207.568996 164.428694 
L 207.568996 165.23355 
L 208.373853 165.23355 
L 208.373853 165.635979 
L 208.776281 165.635979 
L 208.776281 166.038407 
L 209.178709 166.038407 
L 209.581137 166.440835 
L 209.983565 166.440835 
L 210.788422 166.843263 
L 211.19085 166.843263 
L 211.995706 167.245691 
L 212.398134 167.64812 
L 213.605419 167.64812 
L 214.410275 168.050548 
L 217.629701 168.050548 
L 218.434557 168.452976 
L 230.507403 168.452976 
L 230.909831 168.050548 
L 233.726829 168.050548 
L 234.129257 167.64812 
L 235.738969 167.64812 
L 236.141398 167.245691 
L 236.946254 167.245691 
L 237.75111 166.843263 
L 238.555967 166.843263 
L 238.958395 166.440835 
L 239.763251 166.440835 
L 240.568108 166.038407 
L 240.970536 165.635979 
L 241.775392 165.23355 
L 242.177821 164.831122 
L 244.59239 163.623838 
L 244.994818 163.623838 
L 245.799674 162.818981 
L 246.202102 162.818981 
L 247.006959 162.416553 
L 247.409387 162.014125 
L 248.214243 161.611697 
L 248.616672 161.611697 
L 249.421528 160.80684 
L 249.823956 160.80684 
L 250.226384 160.404412 
L 251.031241 160.001984 
L 251.836097 159.197128 
L 252.640954 158.794699 
L 255.055523 156.38013 
L 255.860379 155.172846 
L 256.262807 154.770418 
L 256.665235 153.965561 
L 257.067664 153.563133 
L 257.470092 152.758277 
L 257.470092 152.355848 
L 257.87252 151.550992 
L 257.87252 151.148564 
L 258.274948 150.746136 
L 258.274948 149.136423 
L 258.677376 148.733995 
L 258.677376 145.916997 
L 258.274948 145.916997 
L 258.274948 144.307285 
L 257.87252 143.502428 
L 257.87252 143.1 
L 257.470092 142.697572 
L 257.067664 141.892715 
L 256.262807 141.087859 
L 255.860379 140.283003 
L 255.860379 139.880574 
L 255.457951 139.478146 
L 255.055523 138.67329 
L 255.055523 138.270862 
L 254.653094 138.270862 
L 254.250666 137.466005 
L 254.250666 137.063577 
L 253.848238 137.063577 
L 252.640954 135.856293 
L 252.238525 135.856293 
L 251.836097 135.453864 
L 251.433669 135.453864 
L 251.433669 135.051436 
L 251.031241 135.051436 
L 251.031241 135.051436 
" style="fill:none;stroke:#8c8c8c;stroke-linecap:square;"/>
   </g>
   <g id="line2d_28">
    <path clip-path="url(#p10a8af257d)" d="M 260.689517 141.490287 
L 260.689517 141.892715 
L 261.091946 141.892715 
L 261.494374 141.892715 
L 262.29923 141.892715 
L 263.908943 141.490287 
L 265.518656 140.685431 
L 268.738081 139.478146 
L 271.555078 138.67329 
L 274.372076 137.466005 
L 277.591501 136.258721 
L 282.42064 134.24658 
L 286.84735 133.039295 
L 289.664347 132.234439 
L 292.078916 131.429582 
L 296.103198 130.222298 
L 298.517767 129.81987 
L 300.529908 129.015013 
L 302.542049 128.612585 
L 305.761475 127.807729 
L 308.176044 127.002872 
L 310.188185 126.198016 
L 312.200326 125.39316 
L 313.005182 125.39316 
L 315.017323 124.588303 
L 317.029464 123.783447 
L 318.639177 123.381019 
L 319.846461 122.576162 
L 321.456174 121.771306 
L 322.261031 121.368878 
L 323.468315 120.564021 
L 324.273171 120.564021 
L 325.078028 120.161593 
L 325.480456 119.759165 
L 326.285312 119.356737 
L 326.687741 119.356737 
L 327.090169 119.356737 
L 327.090169 118.954309 
" style="fill:none;stroke:#8c8c8c;stroke-linecap:square;"/>
   </g>
   <g id="line2d_29">
    <path clip-path="url(#p10a8af257d)" d="M 344.797009 104.869322 
L 344.394581 104.869322 
L 344.394581 105.27175 
L 343.589725 105.27175 
L 343.187296 105.674178 
L 342.38244 106.076606 
L 341.577584 106.479035 
L 341.175155 106.881463 
L 340.370299 107.686319 
L 339.967871 108.088747 
L 339.967871 108.491176 
L 339.967871 109.296032 
L 339.967871 109.69846 
L 339.967871 110.100888 
L 340.370299 110.100888 
L 340.772727 110.100888 
L 341.175155 110.503317 
L 341.980012 110.503317 
L 343.187296 110.905745 
L 343.992153 111.308173 
L 344.797009 111.710601 
L 345.601866 112.113029 
L 346.004294 112.917886 
L 346.406722 113.320314 
L 346.80915 114.12517 
L 347.211578 114.527598 
L 346.80915 115.734883 
L 346.80915 116.137311 
L 346.406722 116.942168 
L 346.004294 117.344596 
L 345.601866 117.747024 
L 344.797009 117.344596 
L 344.394581 116.942168 
L 343.992153 116.539739 
" style="fill:none;stroke:#8c8c8c;stroke-linecap:square;"/>
   </g>
   <g id="line2d_30">
    <path clip-path="url(#p10a8af257d)" d="M 349.626147 109.69846 
L 350.028576 109.69846 
L 350.431004 110.100888 
L 350.833432 110.503317 
L 350.833432 110.905745 
L 351.23586 111.308173 
L 351.638288 112.113029 
L 352.443145 113.320314 
L 352.443145 113.722742 
L 352.845573 114.527598 
L 353.248001 114.930027 
L 353.248001 115.332455 
L 353.248001 114.930027 
L 353.248001 114.527598 
L 353.248001 114.12517 
L 352.845573 112.917886 
L 352.845573 111.710601 
L 352.845573 110.503317 
L 352.845573 109.69846 
L 352.845573 109.296032 
L 352.845573 108.491176 
L 353.248001 108.491176 
L 353.650429 108.491176 
L 354.052858 108.491176 
L 354.455286 108.893604 
L 354.857714 109.296032 
L 355.66257 110.503317 
L 355.66257 110.905745 
L 356.467427 111.710601 
L 356.467427 112.515458 
L 357.272283 113.320314 
L 357.272283 113.722742 
L 357.674711 114.12517 
L 358.077139 114.12517 
" style="fill:none;stroke:#8c8c8c;stroke-linecap:square;"/>
   </g>
   <g id="line2d_31">
    <path clip-path="url(#p10a8af257d)" d="M 361.698993 108.088747 
L 361.296565 108.088747 
L 360.894137 108.088747 
L 360.491709 108.491176 
L 360.491709 108.893604 
L 360.08928 109.69846 
L 360.08928 110.905745 
L 360.491709 111.710601 
L 361.296565 112.917886 
L 362.101421 113.320314 
L 362.50385 114.12517 
L 363.711134 114.527598 
L 364.515991 114.527598 
L 364.918419 114.527598 
L 365.723275 114.12517 
L 366.125703 113.722742 
L 366.125703 112.917886 
L 366.125703 112.113029 
L 365.723275 111.710601 
L 364.918419 110.503317 
L 364.515991 109.69846 
L 363.308706 108.893604 
L 362.906278 108.491176 
L 362.50385 108.491176 
L 361.698993 108.491176 
L 361.296565 108.491176 
L 360.894137 108.893604 
L 360.491709 108.893604 
L 360.491709 109.296032 
" style="fill:none;stroke:#8c8c8c;stroke-linecap:square;"/>
   </g>
   <g id="line2d_32">
    <path clip-path="url(#p10a8af257d)" d="M 367.332988 108.893604 
L 367.332988 108.491176 
L 367.332988 108.893604 
L 367.735416 108.893604 
L 368.137844 109.296032 
L 368.137844 109.69846 
L 368.942701 110.503317 
L 369.747557 110.905745 
L 370.552413 111.710601 
L 370.954842 111.710601 
L 371.35727 112.113029 
L 371.759698 112.113029 
L 372.162126 112.113029 
L 372.564554 111.710601 
L 372.564554 111.308173 
L 372.564554 110.905745 
L 372.966983 110.905745 
L 373.369411 110.905745 
L 373.369411 111.308173 
L 373.771839 111.308173 
L 374.174267 111.710601 
L 374.576695 111.710601 
L 375.381552 111.710601 
L 375.78398 111.710601 
L 376.186408 111.308173 
L 376.588836 110.905745 
L 376.991264 110.503317 
L 376.991264 109.296032 
L 376.588836 108.491176 
L 376.588836 107.686319 
L 375.78398 106.479035 
L 375.381552 105.674178 
L 374.979123 105.27175 
L 374.979123 104.869322 
L 374.979123 104.466894 
" style="fill:none;stroke:#8c8c8c;stroke-linecap:square;"/>
   </g>
   <g id="line2d_33">
    <path clip-path="url(#p10a8af257d)" d="M 377.796121 100.040184 
L 377.796121 99.637755 
L 377.393693 99.235327 
L 377.796121 99.235327 
L 377.796121 99.637755 
L 378.198549 100.040184 
L 378.600977 101.247468 
L 379.405834 102.454753 
L 380.21069 104.466894 
L 380.613118 105.27175 
L 381.015546 106.479035 
L 381.417975 107.283891 
L 381.820403 108.088747 
L 382.222831 108.088747 
L 382.222831 108.491176 
L 382.625259 108.491176 
L 382.625259 108.088747 
L 383.027687 108.088747 
L 383.430115 107.686319 
L 384.234972 107.283891 
L 385.039828 106.881463 
L 385.844685 106.881463 
L 386.649541 106.479035 
L 387.856826 106.076606 
L 388.259254 106.076606 
L 388.661682 106.076606 
L 388.259254 106.479035 
L 387.454397 106.881463 
L 386.649541 107.283891 
L 385.844685 107.686319 
L 384.234972 108.088747 
L 383.430115 108.088747 
L 382.625259 108.491176 
L 382.625259 108.088747 
L 382.222831 108.088747 
" style="fill:none;stroke:#8c8c8c;stroke-linecap:square;"/>
   </g>
   <g id="line2d_34">
    <path clip-path="url(#p10a8af257d)" d="M 392.283536 103.662037 
L 391.881107 103.662037 
L 391.478679 103.662037 
L 391.076251 103.662037 
L 390.673823 103.662037 
L 390.271395 104.064466 
L 389.466538 104.064466 
L 389.466538 104.466894 
L 389.06411 105.27175 
L 389.06411 105.674178 
L 389.06411 106.479035 
L 389.466538 107.283891 
L 389.868967 107.686319 
L 390.271395 108.088747 
L 391.076251 108.088747 
L 391.881107 108.088747 
L 392.283536 107.686319 
L 393.088392 106.881463 
L 393.088392 106.479035 
L 393.49082 105.674178 
L 393.49082 104.869322 
L 393.49082 104.064466 
L 393.49082 103.259609 
L 393.49082 102.454753 
L 393.49082 102.052325 
L 393.49082 101.649896 
L 393.49082 102.052325 
L 393.49082 102.454753 
L 393.49082 102.857181 
L 393.893248 103.662037 
L 393.893248 105.27175 
L 394.295677 106.076606 
L 394.698105 107.283891 
L 395.100533 108.088747 
L 395.100533 108.491176 
L 395.502961 108.893604 
L 395.502961 109.296032 
L 395.905389 109.296032 
L 395.905389 108.893604 
" style="fill:none;stroke:#8c8c8c;stroke-linecap:square;"/>
   </g>
   <g id="line2d_35">
    <path clip-path="url(#p10a8af257d)" d="M 396.710246 94.003761 
L 396.710246 93.601333 
L 396.710246 94.003761 
L 397.112674 94.406189 
L 397.515102 95.211045 
L 397.91753 96.41833 
L 398.722387 98.028043 
L 399.929671 100.442612 
L 400.332099 102.052325 
L 401.136956 103.662037 
L 401.539384 105.27175 
L 402.34424 106.479035 
L 402.746669 107.686319 
L 403.149097 108.088747 
L 403.149097 108.491176 
L 403.551525 108.491176 
L 403.551525 108.088747 
" style="fill:none;stroke:#8c8c8c;stroke-linecap:square;"/>
   </g>
   <g id="line2d_36">
    <path clip-path="url(#p10a8af257d)" d="M 403.551525 91.99162 
L 403.551525 91.589192 
L 403.953953 91.186763 
L 404.356381 91.589192 
L 404.356381 91.99162 
L 404.75881 93.198904 
L 405.563666 95.211045 
L 406.368522 96.820758 
L 407.173379 98.832899 
L 407.575807 100.442612 
L 408.380663 102.857181 
" style="fill:none;stroke:#8c8c8c;stroke-linecap:square;"/>
   </g>
   <g id="line2d_37">
    <path clip-path="url(#p10a8af257d)" d="M 372.564554 127.002872 
L 372.162126 127.405301 
L 372.162126 128.612585 
L 372.162126 129.015013 
L 372.162126 130.624726 
L 372.162126 131.832011 
L 372.564554 134.24658 
L 372.966983 135.856293 
L 373.771839 137.466005 
L 374.174267 139.478146 
L 374.979123 140.283003 
L 375.78398 141.087859 
L 376.588836 141.490287 
L 377.393693 141.087859 
L 379.003405 140.685431 
L 379.808262 139.880574 
L 380.613118 139.075718 
L 381.417975 137.868434 
L 381.820403 136.661149 
L 382.222831 135.856293 
" style="fill:none;stroke:#8c8c8c;stroke-linecap:square;"/>
   </g>
   <g id="line2d_38">
    <path clip-path="url(#p10a8af257d)" d="M 379.808262 134.24658 
L 379.003405 134.24658 
L 378.600977 134.24658 
L 378.600977 134.649008 
L 378.600977 134.24658 
L 379.003405 134.24658 
L 379.405834 133.844152 
L 379.808262 133.441723 
L 380.21069 133.441723 
L 381.015546 133.039295 
L 382.222831 132.234439 
" style="fill:none;stroke:#8c8c8c;stroke-linecap:square;"/>
   </g>
   <g id="line2d_39">
    <path clip-path="url(#p10a8af257d)" d="M 376.588836 127.002872 
L 375.78398 127.002872 
L 374.979123 126.600444 
L 375.381552 126.600444 
L 377.393693 127.002872 
L 377.796121 127.002872 
L 379.003405 127.002872 
" style="fill:none;stroke:#8c8c8c;stroke-linecap:square;"/>
   </g>
   <g id="line2d_40">
    <path clip-path="url(#p10a8af257d)" d="M 389.868967 128.210157 
L 389.466538 128.210157 
L 389.06411 128.210157 
L 388.661682 128.210157 
L 387.856826 128.210157 
L 387.454397 128.210157 
L 387.051969 128.612585 
L 386.247113 129.015013 
L 385.442256 129.81987 
L 385.442256 130.222298 
L 385.039828 131.027154 
L 385.039828 131.832011 
L 385.442256 133.039295 
L 385.442256 133.844152 
L 386.247113 134.24658 
L 386.649541 134.649008 
L 387.454397 134.649008 
L 387.856826 134.649008 
L 388.259254 134.649008 
L 388.661682 134.24658 
L 389.06411 133.441723 
L 389.06411 133.039295 
L 388.661682 131.832011 
L 388.661682 131.429582 
L 388.259254 130.624726 
L 388.259254 130.222298 
L 388.259254 129.417442 
L 388.259254 129.015013 
L 387.856826 129.015013 
L 388.259254 129.015013 
L 388.661682 129.417442 
L 388.661682 129.81987 
L 389.06411 129.81987 
L 389.466538 130.624726 
L 390.271395 131.832011 
L 390.673823 132.636867 
L 391.478679 133.441723 
L 392.283536 134.24658 
L 392.685964 134.649008 
L 393.088392 135.051436 
L 393.088392 134.649008 
" style="fill:none;stroke:#8c8c8c;stroke-linecap:square;"/>
   </g>
   <g id="line2d_41">
    <path clip-path="url(#p10a8af257d)" d="M 393.088392 129.015013 
L 393.49082 129.015013 
L 393.49082 129.417442 
L 393.893248 129.81987 
L 394.295677 130.222298 
L 394.698105 130.624726 
L 395.502961 131.429582 
L 396.307818 131.832011 
L 396.710246 132.234439 
L 397.112674 132.636867 
L 397.112674 133.039295 
L 396.710246 132.636867 
L 396.307818 132.234439 
L 395.905389 131.832011 
L 395.100533 130.624726 
L 394.698105 130.222298 
L 394.295677 129.015013 
L 394.295677 128.612585 
L 394.295677 127.807729 
L 394.295677 127.405301 
L 394.698105 127.002872 
L 394.698105 126.600444 
L 395.100533 126.198016 
" style="fill:none;stroke:#8c8c8c;stroke-linecap:square;"/>
   </g>
   <g id="line2d_42">
    <path clip-path="url(#p10a8af257d)" d="M 400.734528 122.97859 
L 401.136956 122.97859 
L 401.136956 123.381019 
L 401.539384 123.783447 
L 401.539384 124.185875 
L 401.941812 124.990731 
L 402.746669 125.795588 
L 403.551525 127.405301 
L 403.953953 128.210157 
L 404.75881 129.417442 
L 405.563666 130.624726 
L 405.966094 131.429582 
L 405.966094 131.832011 
" style="fill:none;stroke:#8c8c8c;stroke-linecap:square;"/>
   </g>
   <g id="line2d_43">
    <path clip-path="url(#p10a8af257d)" d="M 401.941812 129.015013 
L 401.539384 129.015013 
L 401.539384 128.612585 
L 401.941812 128.612585 
L 401.941812 128.210157 
L 402.34424 128.210157 
L 402.746669 127.807729 
L 403.551525 127.807729 
L 403.953953 127.405301 
L 404.75881 127.405301 
L 405.563666 127.002872 
L 405.966094 126.600444 
" style="fill:none;stroke:#8c8c8c;stroke-linecap:square;"/>
   </g>
   <g id="line2d_44">
    <path clip-path="url(#p10a8af257d)" d="M 410.392804 118.149452 
L 409.990376 118.149452 
L 410.392804 118.149452 
L 410.392804 118.55188 
L 410.392804 118.954309 
L 410.795232 119.759165 
L 411.197661 120.96645 
L 411.197661 121.771306 
L 411.600089 122.97859 
L 412.002517 123.783447 
L 412.404945 124.588303 
L 412.404945 125.39316 
L 412.807373 125.795588 
L 413.209802 126.198016 
L 413.209802 126.600444 
L 413.209802 126.198016 
L 413.61223 126.198016 
L 413.61223 125.795588 
L 414.014658 125.39316 
L 414.014658 124.990731 
L 414.417086 124.185875 
L 414.819514 123.783447 
L 415.221943 122.97859 
L 415.624371 122.576162 
L 416.429227 122.173734 
L 417.234084 121.771306 
L 417.636512 121.771306 
L 418.441368 122.173734 
L 418.843796 122.576162 
L 419.648653 122.97859 
L 420.051081 123.381019 
L 420.453509 124.185875 
L 420.453509 124.588303 
L 420.855937 124.588303 
" style="fill:none;stroke:#8c8c8c;stroke-linecap:square;"/>
   </g>
   <g id="line2d_45">
    <path clip-path="url(#p10a8af257d)" d="M 424.477791 109.69846 
L 424.880219 109.69846 
L 425.282647 109.69846 
L 425.685076 110.503317 
L 426.087504 110.905745 
L 426.087504 111.308173 
" style="fill:none;stroke:#8c8c8c;stroke-linecap:square;"/>
   </g>
   <g id="line2d_46">
    <path clip-path="url(#p10a8af257d)" d="M 427.697216 107.283891 
L 428.099645 107.283891 
L 428.502073 107.283891 
L 428.502073 107.686319 
L 428.502073 108.088747 
L 428.904501 108.088747 
L 428.904501 108.491176 
" style="fill:none;stroke:#8c8c8c;stroke-linecap:square;"/>
   </g>
   <g id="line2d_47">
    <path clip-path="url(#p10a8af257d)" d="M 334.333876 102.857181 
L 334.333876 103.259609 
L 333.931448 103.259609 
L 333.931448 103.662037 
L 333.931448 104.064466 
L 333.931448 104.466894 
L 333.931448 105.27175 
L 333.931448 105.674178 
L 333.931448 106.076606 
" style="fill:none;stroke:#8c8c8c;stroke-linecap:square;"/>
   </g>
   <g id="line2d_48">
    <path clip-path="url(#p10a8af257d)" d="M 331.919307 102.454753 
L 331.919307 102.052325 
L 331.516879 102.052325 
L 331.516879 102.454753 
L 331.114451 102.857181 
L 330.712023 103.259609 
L 330.309594 104.064466 
L 330.309594 104.869322 
L 330.309594 105.27175 
L 330.309594 106.076606 
L 330.309594 106.479035 
" style="fill:none;stroke:#8c8c8c;stroke-linecap:square;"/>
   </g>
  </g>
 </g>
 <defs>
  <clipPath id="p10a8af257d">
   <rect height="271.8" width="441.785668" x="7.2" y="7.2"/>
  </clipPath>
 </defs>
</svg>
