<?xml version="1.0" encoding="utf-8" standalone="no"?>
<!DOCTYPE svg PUBLIC "-//W3C//DTD SVG 1.1//EN"
  "http://www.w3.org/Graphics/SVG/1.1/DTD/svg11.dtd">
<!-- Created with matplotlib (https://matplotlib.org/) -->
<svg height="286.2pt" version="1.1" viewBox="0 0 374.066379 286.2" width="374.066379pt" xmlns="http://www.w3.org/2000/svg" xmlns:xlink="http://www.w3.org/1999/xlink">
 <metadata>
  <rdf:RDF xmlns:cc="http://creativecommons.org/ns#" xmlns:dc="http://purl.org/dc/elements/1.1/" xmlns:rdf="http://www.w3.org/1999/02/22-rdf-syntax-ns#">
   <cc:Work>
    <dc:type rdf:resource="http://purl.org/dc/dcmitype/StillImage"/>
    <dc:date>2024-11-15T16:04:09.650365</dc:date>
    <dc:format>image/svg+xml</dc:format>
    <dc:creator>
     <cc:Agent>
      <dc:title>Matplotlib v3.3.4, https://matplotlib.org/</dc:title>
     </cc:Agent>
    </dc:creator>
   </cc:Work>
  </rdf:RDF>
 </metadata>
 <defs>
  <style type="text/css">*{stroke-linecap:butt;stroke-linejoin:round;}</style>
 </defs>
 <g id="figure_1">
  <g id="patch_1">
   <path d="M 0 286.2 
L 374.066379 286.2 
L 374.066379 0 
L 0 0 
z
" style="fill:#ffffff;"/>
  </g>
  <g id="axes_1">
   <g id="line2d_1">
    <path clip-path="url(#pf1af5472d4)" d="M 26.388597 241.084326 
L 26.388597 240.72931 
L 26.388597 240.374295 
L 26.033582 240.374295 
L 26.033582 240.72931 
L 25.678566 241.084326 
L 25.32355 241.439342 
L 25.32355 241.794357 
L 25.32355 242.149373 
L 24.968534 242.504389 
L 24.613519 243.21442 
L 24.613519 243.924451 
L 24.258503 244.279467 
L 24.258503 244.989498 
L 23.903487 245.69953 
L 23.903487 246.409561 
L 23.903487 246.764577 
L 23.548472 247.474608 
L 23.548472 248.184639 
L 23.548472 248.539655 
L 23.548472 248.894671 
L 23.903487 249.604702 
L 23.903487 250.314734 
L 23.903487 251.024765 
L 24.258503 251.734796 
L 24.258503 252.089812 
L 24.613519 252.799843 
L 24.613519 253.86489 
L 24.968534 254.929937 
L 25.32355 255.639969 
L 25.32355 256.35 
L 25.678566 257.415047 
L 25.678566 257.770063 
L 25.678566 258.480094 
L 26.033582 258.83511 
L 26.033582 259.190125 
L 26.388597 259.545141 
L 26.388597 259.900157 
L 26.388597 260.255172 
L 26.388597 260.610188 
L 26.388597 260.965204 
L 26.388597 261.320219 
L 26.743613 261.675235 
L 26.743613 262.030251 
" style="fill:none;stroke:#8c8c8c;stroke-linecap:square;"/>
   </g>
   <g id="line2d_2">
    <path clip-path="url(#pf1af5472d4)" d="M 121.887813 240.019279 
L 121.887813 240.374295 
L 121.887813 240.72931 
L 121.887813 241.084326 
L 121.887813 241.439342 
L 121.887813 241.794357 
L 121.887813 242.149373 
L 121.887813 242.504389 
L 121.887813 242.859404 
L 121.887813 243.21442 
L 121.887813 243.924451 
L 121.887813 244.279467 
L 121.887813 244.634483 
L 121.887813 244.989498 
L 121.887813 245.344514 
L 121.887813 245.69953 
L 121.887813 246.054545 
L 121.887813 246.409561 
L 121.887813 246.764577 
L 121.887813 247.119592 
L 121.887813 247.474608 
L 121.887813 247.829624 
L 121.887813 248.184639 
L 121.887813 248.539655 
L 121.887813 248.894671 
L 121.887813 249.249687 
L 121.887813 249.604702 
L 121.887813 249.959718 
L 121.887813 250.314734 
L 121.887813 251.024765 
L 121.887813 251.379781 
L 121.887813 251.734796 
L 121.887813 252.089812 
L 121.532798 252.799843 
L 121.532798 253.154859 
L 121.532798 253.86489 
L 121.177782 254.574922 
L 121.177782 255.284953 
L 121.177782 255.994984 
L 120.822766 256.35 
L 120.822766 257.060031 
L 120.467751 257.770063 
L 120.112735 258.125078 
L 120.112735 258.480094 
L 119.757719 259.190125 
L 119.402704 259.545141 
L 119.047688 260.255172 
L 118.692672 260.610188 
L 118.337657 260.965204 
L 118.337657 261.320219 
L 117.982641 261.675235 
L 117.627625 262.385266 
L 117.27261 262.740282 
L 116.917594 263.095298 
L 116.562578 263.805329 
L 116.207563 264.160345 
L 115.852547 264.515361 
L 115.497531 265.225392 
L 115.142516 265.580408 
L 115.142516 265.935423 
L 114.7875 265.935423 
L 114.7875 266.290439 
L 114.432484 266.290439 
L 114.432484 266.645455 
L 114.077469 266.645455 
" style="fill:none;stroke:#8c8c8c;stroke-linecap:square;"/>
   </g>
   <g id="line2d_3">
    <path clip-path="url(#pf1af5472d4)" d="M 125.792986 189.252038 
L 126.148002 189.252038 
L 126.148002 188.897022 
L 126.148002 188.542006 
L 126.503017 188.542006 
L 126.858033 188.542006 
L 127.213049 188.542006 
L 127.213049 188.186991 
L 127.568064 188.186991 
L 127.92308 188.186991 
L 128.633111 188.186991 
L 128.988127 188.186991 
L 129.698158 188.186991 
L 130.053174 188.186991 
L 130.40819 188.186991 
L 131.118221 188.186991 
L 131.473237 188.186991 
L 131.828252 188.186991 
L 132.183268 188.186991 
L 132.538284 188.186991 
L 132.893299 188.186991 
L 133.248315 188.186991 
L 133.603331 188.186991 
L 133.958346 188.186991 
L 134.313362 188.186991 
L 134.668378 188.186991 
L 135.023393 188.186991 
L 135.378409 188.186991 
L 136.08844 188.186991 
L 136.443456 188.186991 
L 136.798472 188.186991 
L 137.153487 188.186991 
L 137.508503 188.186991 
L 137.863519 188.186991 
L 138.218534 188.186991 
L 138.928566 188.186991 
L 139.283582 188.186991 
L 139.638597 188.186991 
L 139.993613 188.186991 
L 140.348629 188.186991 
L 140.703644 188.186991 
L 141.05866 188.186991 
L 141.413676 188.186991 
L 141.768691 188.186991 
L 142.123707 188.186991 
L 142.478723 188.186991 
L 142.833738 188.186991 
L 143.188754 188.186991 
L 143.898785 188.186991 
L 144.253801 188.186991 
L 144.608817 188.186991 
L 144.963832 188.186991 
L 145.318848 188.186991 
L 145.673864 188.186991 
L 146.028879 188.186991 
L 146.383895 188.542006 
L 146.738911 188.542006 
L 147.093926 188.542006 
L 147.448942 188.542006 
L 147.803958 188.542006 
L 148.158973 188.542006 
L 148.513989 188.542006 
L 148.513989 188.897022 
L 148.869005 188.897022 
L 149.22402 188.897022 
L 149.579036 188.897022 
L 150.289067 189.252038 
L 150.644083 189.252038 
L 150.999099 189.607053 
L 151.70913 189.962069 
L 152.064146 189.962069 
L 152.419161 190.317085 
L 152.774177 190.317085 
L 152.774177 190.6721 
L 153.129193 190.6721 
L 153.129193 191.027116 
L 153.484208 191.027116 
L 153.839224 191.382132 
L 153.839224 191.737147 
L 154.19424 191.737147 
L 154.549255 192.092163 
L 154.904271 192.447179 
L 155.259287 192.447179 
L 155.259287 192.802194 
L 155.614303 192.802194 
L 155.614303 193.15721 
L 155.969318 193.15721 
L 156.324334 193.15721 
L 156.324334 193.512226 
L 156.67935 193.512226 
L 157.034365 193.512226 
L 157.034365 193.867241 
L 157.389381 193.867241 
L 157.744397 193.867241 
L 158.099412 193.867241 
L 158.099412 194.222257 
" style="fill:none;stroke:#8c8c8c;stroke-linecap:square;"/>
   </g>
   <g id="line2d_4">
    <path clip-path="url(#pf1af5472d4)" d="M 131.473237 231.498903 
L 131.473237 231.853918 
L 131.828252 231.853918 
L 132.183268 231.853918 
L 132.538284 231.853918 
L 132.893299 231.853918 
L 133.248315 231.853918 
L 133.603331 231.853918 
L 133.958346 231.853918 
L 134.668378 231.498903 
L 135.378409 231.498903 
L 135.733425 231.498903 
L 136.08844 231.498903 
L 137.153487 231.498903 
L 137.508503 231.143887 
L 138.57355 231.143887 
L 139.283582 230.788871 
L 139.638597 230.788871 
L 140.703644 230.433856 
L 141.413676 230.07884 
L 142.123707 229.723824 
L 142.833738 229.723824 
L 143.898785 229.368809 
L 144.253801 229.368809 
L 144.963832 229.013793 
L 146.028879 229.013793 
L 146.738911 228.658777 
L 147.093926 228.658777 
L 148.158973 228.658777 
L 148.513989 228.303762 
L 149.22402 228.303762 
L 149.934052 228.303762 
L 150.644083 228.303762 
L 151.354114 228.303762 
L 152.064146 228.303762 
L 152.419161 228.303762 
L 153.129193 228.303762 
L 153.484208 227.948746 
L 154.19424 227.948746 
L 154.549255 227.948746 
L 154.904271 227.948746 
L 155.614303 227.59373 
L 155.969318 227.59373 
L 156.324334 227.238715 
L 157.034365 227.238715 
L 157.389381 227.238715 
L 157.744397 226.883699 
L 158.099412 226.528683 
L 158.809444 226.528683 
L 159.164459 226.173668 
L 159.519475 226.173668 
L 160.229506 225.818652 
L 160.584522 225.818652 
L 160.939538 225.463636 
L 161.294553 225.463636 
L 161.649569 225.108621 
L 162.004585 224.753605 
L 162.3596 224.753605 
L 162.3596 224.398589 
L 162.714616 224.043574 
L 163.069632 224.043574 
L 163.424647 223.688558 
L 163.424647 223.333542 
L 163.779663 222.978527 
L 163.779663 222.623511 
L 164.134679 222.268495 
L 164.489694 221.91348 
L 164.489694 221.558464 
L 164.84471 221.558464 
L 164.84471 221.203448 
L 164.84471 220.848433 
L 165.199726 220.848433 
L 165.199726 220.493417 
L 165.199726 220.138401 
L 165.554741 220.138401 
L 165.554741 219.783386 
L 165.554741 219.42837 
L 165.909757 219.42837 
L 165.909757 219.073354 
L 165.909757 218.718339 
L 166.264773 218.718339 
L 166.264773 218.363323 
L 166.264773 218.008307 
L 166.619788 217.653292 
L 166.619788 217.298276 
L 166.619788 216.94326 
L 166.974804 216.588245 
L 166.974804 216.233229 
L 166.974804 215.878213 
L 167.32982 215.523197 
L 167.32982 215.168182 
L 167.32982 214.813166 
L 167.32982 214.103135 
L 167.684835 213.393103 
L 167.684835 213.038088 
L 167.684835 211.973041 
L 168.039851 211.618025 
L 168.039851 210.907994 
L 168.039851 210.197962 
L 168.039851 209.842947 
L 168.394867 209.487931 
L 168.394867 209.132915 
L 168.394867 208.7779 
L 168.394867 208.422884 
L 168.394867 208.067868 
L 168.394867 207.712853 
L 168.394867 207.357837 
L 168.394867 207.002821 
L 168.039851 206.29279 
L 168.039851 205.937774 
L 167.684835 205.227743 
L 167.684835 204.872727 
L 167.32982 204.517712 
L 167.32982 203.80768 
L 166.974804 203.097649 
L 166.619788 202.742633 
L 166.619788 202.387618 
L 166.264773 202.032602 
L 165.909757 201.322571 
L 165.909757 200.967555 
L 165.554741 200.257524 
L 165.554741 199.902508 
L 165.199726 199.547492 
L 165.199726 199.192476 
L 164.84471 198.837461 
L 164.84471 198.482445 
L 164.489694 198.127429 
" style="fill:none;stroke:#8c8c8c;stroke-linecap:square;"/>
   </g>
   <g id="line2d_5">
    <path clip-path="url(#pf1af5472d4)" d="M 141.768691 170.081191 
L 142.478723 170.081191 
L 142.833738 170.436207 
L 143.54377 170.436207 
L 143.898785 170.791223 
L 145.318848 170.791223 
L 145.673864 171.146238 
L 149.579036 171.146238 
L 149.934052 171.501254 
L 154.904271 171.501254 
L 155.614303 171.85627 
L 157.744397 171.85627 
L 158.809444 172.211285 
L 159.164459 172.211285 
L 159.874491 172.566301 
L 161.294553 172.566301 
L 162.004585 172.921317 
L 162.714616 172.921317 
L 163.424647 173.276332 
L 163.779663 173.276332 
L 164.489694 173.631348 
L 164.84471 173.986364 
L 165.199726 173.986364 
L 165.909757 174.341379 
L 166.264773 174.341379 
L 166.974804 174.696395 
L 167.32982 175.051411 
L 167.684835 175.051411 
L 168.394867 175.406426 
L 169.104898 176.116458 
L 169.814929 176.471473 
L 170.169945 176.826489 
L 170.524961 176.826489 
L 171.234992 177.53652 
L 171.945024 177.891536 
L 174.430133 180.376646 
L 175.140165 180.731661 
L 176.560227 182.151724 
L 177.270259 182.50674 
L 177.625274 182.50674 
L 177.98029 183.216771 
L 178.335306 183.216771 
L 179.400353 184.281818 
L 179.755368 184.281818 
L 180.110384 184.99185 
L 180.4654 184.99185 
L 181.885462 186.411912 
L 182.595494 186.766928 
L 182.950509 187.121944 
L 183.305525 187.831975 
L 184.015556 188.542006 
L 184.725588 188.897022 
L 184.725588 189.252038 
L 185.435619 189.962069 
L 185.790635 189.962069 
L 185.790635 190.317085 
L 186.14565 191.027116 
L 186.855682 191.737147 
L 187.210697 192.447179 
L 187.565713 192.802194 
L 187.920729 193.512226 
L 188.275745 193.867241 
L 188.275745 194.222257 
L 188.63076 194.577273 
L 188.985776 195.287304 
L 189.340792 195.64232 
L 189.340792 196.352351 
L 189.695807 196.352351 
L 189.695807 197.062382 
L 190.050823 197.417398 
L 190.050823 198.127429 
L 190.405839 198.127429 
L 190.405839 199.547492 
L 190.760854 199.902508 
L 190.760854 200.967555 
L 191.11587 201.322571 
L 191.11587 207.357837 
L 190.760854 208.067868 
L 190.760854 209.487931 
L 190.405839 209.842947 
L 190.405839 210.907994 
L 190.050823 211.263009 
L 190.050823 211.618025 
L 189.340792 212.328056 
L 189.340792 212.683072 
L 187.920729 214.103135 
L 187.565713 214.103135 
L 187.210697 214.45815 
L 186.855682 214.45815 
L 186.14565 215.168182 
L 185.790635 215.168182 
L 185.435619 215.523197 
L 184.725588 215.523197 
L 184.370572 215.878213 
L 184.015556 215.878213 
L 182.950509 216.233229 
L 182.240478 216.233229 
L 181.175431 216.588245 
L 180.4654 216.588245 
L 179.755368 216.94326 
L 178.690321 216.94326 
L 178.335306 217.298276 
L 175.140165 217.298276 
L 174.430133 217.653292 
L 173.720102 217.653292 
L 173.010071 218.008307 
L 172.300039 218.008307 
L 171.590008 218.363323 
L 171.234992 218.363323 
L 171.234992 218.363323 
" style="fill:none;stroke:#8c8c8c;stroke-linecap:square;"/>
   </g>
   <g id="line2d_6">
    <path clip-path="url(#pf1af5472d4)" d="M 25.32355 145.940125 
L 25.32355 145.58511 
L 24.968534 145.58511 
L 24.968534 142.744984 
L 25.32355 142.389969 
L 25.32355 141.324922 
L 25.678566 140.969906 
L 25.678566 139.549843 
L 26.033582 139.194828 
L 26.033582 138.839812 
L 26.388597 138.484796 
L 26.388597 137.419749 
L 26.743613 137.064734 
L 27.453644 135.644671 
L 27.453644 135.289655 
L 27.80866 134.934639 
L 28.163676 134.224608 
L 28.163676 133.514577 
L 28.518691 133.159561 
L 28.518691 132.44953 
L 29.228723 131.739498 
L 29.228723 131.384483 
L 29.583738 130.674451 
L 29.938754 130.319436 
L 29.938754 129.96442 
L 30.29377 129.96442 
L 30.29377 129.609404 
L 32.778879 127.124295 
L 33.133895 127.124295 
L 33.133895 126.769279 
L 33.488911 126.414263 
L 33.843926 126.414263 
L 33.843926 126.059248 
L 34.198942 126.059248 
L 34.198942 125.704232 
L 34.553958 125.704232 
L 34.908973 125.349216 
L 34.908973 124.994201 
L 35.263989 124.994201 
L 36.684052 123.574138 
L 36.684052 123.219122 
L 37.039067 123.219122 
L 37.394083 122.864107 
L 37.394083 122.509091 
L 37.749099 122.509091 
L 37.749099 122.154075 
L 38.104114 122.154075 
L 38.814146 121.444044 
L 39.524177 121.089028 
L 39.879193 120.734013 
L 40.234208 120.023981 
L 40.94424 120.023981 
L 42.719318 118.248903 
L 43.074334 118.248903 
L 43.784365 117.893887 
L 44.139381 117.538871 
L 44.849412 117.183856 
L 45.559444 116.473824 
L 47.689538 115.408777 
L 48.044553 115.408777 
L 48.399569 115.053762 
L 49.1096 114.698746 
L 49.464616 114.698746 
L 50.174647 113.988715 
L 50.529663 113.988715 
L 50.884679 113.633699 
L 51.59471 113.633699 
L 51.59471 113.278683 
L 52.659757 113.278683 
L 52.659757 112.923668 
L 53.369788 112.923668 
L 53.724804 112.568652 
L 55.144867 112.568652 
L 55.144867 112.213636 
L 56.209914 112.213636 
L 56.564929 111.858621 
L 57.274961 111.858621 
L 57.629976 111.503605 
L 58.340008 111.503605 
L 58.695024 111.148589 
L 59.405055 111.148589 
L 59.760071 110.793574 
L 60.470102 110.793574 
L 60.825118 110.438558 
L 61.890165 110.438558 
L 62.24518 110.083542 
L 62.955212 110.083542 
L 63.310227 109.728527 
L 64.020259 109.728527 
L 64.020259 109.373511 
L 65.795337 109.373511 
L 65.795337 109.018495 
L 69.345494 109.018495 
L 69.700509 108.66348 
L 78.220886 108.66348 
L 78.575901 109.018495 
L 80.35098 109.018495 
L 80.705995 109.373511 
L 81.416027 109.373511 
L 81.416027 109.728527 
L 81.771042 109.728527 
L 82.481074 110.083542 
L 82.836089 110.083542 
L 83.546121 110.438558 
L 84.256152 111.148589 
L 84.611168 111.148589 
L 84.966183 111.503605 
L 85.321199 111.503605 
L 85.321199 111.858621 
L 86.386246 111.858621 
L 86.386246 112.213636 
L 87.096277 112.213636 
L 87.451293 112.568652 
L 88.871356 112.568652 
L 88.871356 112.923668 
L 90.646434 112.923668 
L 91.00145 113.278683 
L 91.711481 113.278683 
L 92.066497 113.633699 
L 93.131544 113.633699 
L 93.48656 113.988715 
L 93.841575 113.988715 
L 95.261638 114.698746 
L 95.616654 114.698746 
L 97.036716 115.408777 
L 97.391732 115.763793 
L 97.746748 115.763793 
L 98.456779 116.473824 
L 99.876842 117.183856 
L 101.296904 118.603918 
L 102.006936 118.958934 
L 105.557092 122.509091 
L 105.912108 123.219122 
L 106.622139 123.574138 
L 107.687187 124.639185 
L 107.687187 124.994201 
L 108.397218 125.704232 
L 108.397218 126.059248 
L 109.817281 127.47931 
L 110.172296 128.189342 
L 110.527312 128.544357 
L 111.592359 130.674451 
L 111.947375 131.029467 
L 112.30239 131.739498 
L 112.657406 132.094514 
L 113.722453 134.224608 
L 114.077469 134.579624 
L 114.077469 134.934639 
L 114.432484 135.289655 
L 114.432484 135.999687 
L 114.7875 136.354702 
L 114.7875 136.709718 
L 115.142516 137.419749 
L 115.142516 138.484796 
L 115.497531 138.839812 
L 115.852547 139.904859 
L 115.852547 140.61489 
L 116.207563 140.969906 
L 116.562578 141.679937 
L 116.562578 142.389969 
L 116.917594 142.744984 
L 116.917594 143.810031 
L 117.27261 144.165047 
L 117.27261 145.230094 
L 117.627625 145.58511 
L 117.627625 149.490282 
L 117.627625 149.490282 
" style="fill:none;stroke:#8c8c8c;stroke-linecap:square;"/>
   </g>
   <g id="line2d_7">
    <path clip-path="url(#pf1af5472d4)" d="M 115.497531 151.265361 
L 115.497531 150.910345 
L 115.852547 150.910345 
L 115.852547 150.555329 
L 116.207563 150.555329 
L 116.562578 150.555329 
L 116.917594 150.200313 
L 117.27261 150.200313 
L 117.627625 150.200313 
L 117.982641 150.200313 
L 118.692672 150.555329 
L 119.402704 150.555329 
L 119.757719 150.555329 
L 120.822766 150.910345 
L 121.532798 150.910345 
L 121.887813 150.910345 
L 122.597845 151.265361 
L 122.952861 151.265361 
L 123.662892 151.265361 
L 124.372923 151.265361 
L 125.082955 151.620376 
L 125.43797 151.620376 
L 126.148002 151.620376 
L 126.858033 151.975392 
L 127.568064 151.975392 
L 127.92308 152.330408 
L 128.633111 152.685423 
L 129.343143 152.685423 
L 129.698158 153.040439 
L 130.40819 153.040439 
L 130.763205 153.395455 
L 131.118221 153.395455 
L 131.473237 153.395455 
L 132.183268 153.75047 
L 132.538284 153.75047 
L 132.893299 154.105486 
L 133.248315 154.460502 
L 133.958346 154.460502 
L 134.313362 154.815517 
L 134.668378 155.170533 
L 135.023393 155.525549 
L 135.733425 155.880564 
L 136.08844 156.23558 
L 136.443456 156.590596 
L 136.798472 156.945611 
L 137.153487 157.655643 
L 137.508503 158.010658 
L 137.863519 158.72069 
L 138.218534 159.075705 
L 138.57355 159.785737 
L 138.57355 160.140752 
L 138.928566 160.850784 
L 138.928566 161.205799 
L 138.928566 161.560815 
L 139.283582 162.270846 
L 139.283582 162.625862 
L 139.283582 163.335893 
L 139.283582 163.690909 
L 139.638597 164.40094 
L 139.638597 164.755956 
L 139.283582 165.465987 
" style="fill:none;stroke:#8c8c8c;stroke-linecap:square;"/>
   </g>
   <g id="line2d_8">
    <path clip-path="url(#pf1af5472d4)" d="M 95.261638 112.568652 
L 95.616654 112.213636 
L 96.681701 111.148589 
L 96.681701 110.793574 
L 97.746748 109.373511 
L 98.456779 108.308464 
L 99.876842 106.17837 
L 100.586873 104.758307 
L 101.65192 103.338245 
L 103.071983 100.853135 
L 104.13703 98.723041 
L 105.202077 97.302978 
L 105.912108 95.882915 
L 106.977155 94.462853 
L 108.397218 91.622727 
L 109.817281 89.847649 
L 111.592359 87.717555 
L 114.077469 84.522414 
L 115.852547 82.747335 
L 118.692672 80.262226 
L 120.112735 78.487147 
L 121.887813 76.712069 
L 124.372923 74.226959 
L 126.503017 72.096865 
L 128.278096 71.031818 
L 130.40819 69.25674 
L 131.828252 68.546708 
L 132.893299 67.836677 
L 134.313362 67.481661 
L 135.023393 67.126646 
L 135.733425 67.126646 
L 136.443456 66.77163 
L 137.508503 66.77163 
L 138.218534 66.77163 
L 139.283582 67.126646 
L 139.993613 67.126646 
L 141.05866 67.126646 
L 142.833738 67.126646 
L 144.253801 67.481661 
L 145.673864 67.126646 
L 148.158973 67.126646 
L 149.934052 66.77163 
L 152.774177 65.706583 
L 154.549255 64.996552 
L 156.324334 63.931505 
L 158.809444 62.156426 
L 160.584522 60.736364 
L 163.779663 57.896238 
L 165.909757 55.056113 
L 166.619788 53.991066 
L 168.394867 51.505956 
L 169.459914 49.730878 
L 170.524961 47.955799 
L 170.879976 47.245768 
L 170.879976 46.535737 
L 170.879976 45.825705 
" style="fill:none;stroke:#8c8c8c;stroke-linecap:square;"/>
   </g>
   <g id="line2d_9">
    <path clip-path="url(#pf1af5472d4)" d="M 175.850196 37.660345 
L 175.850196 38.015361 
L 176.205212 38.370376 
L 176.205212 39.080408 
L 176.915243 40.50047 
L 177.270259 41.565517 
L 177.98029 42.98558 
L 178.690321 44.760658 
L 179.045337 46.180721 
L 179.755368 47.600784 
L 180.4654 48.310815 
L 180.820415 49.020846 
L 181.175431 49.730878 
L 181.175431 50.085893 
L 181.530447 50.085893 
" style="fill:none;stroke:#8c8c8c;stroke-linecap:square;"/>
   </g>
   <g id="line2d_10">
    <path clip-path="url(#pf1af5472d4)" d="M 174.430133 37.305329 
L 174.430133 36.950313 
L 174.785149 36.950313 
L 175.140165 36.950313 
L 175.49518 36.595298 
L 176.560227 36.240282 
L 177.270259 36.240282 
L 178.335306 36.240282 
L 179.400353 35.885266 
L 180.110384 35.885266 
L 180.820415 35.885266 
L 181.530447 36.240282 
L 181.885462 36.595298 
L 181.530447 36.950313 
L 181.530447 37.305329 
L 180.820415 38.015361 
L 180.110384 38.725392 
L 179.755368 39.435423 
L 179.045337 40.50047 
L 178.335306 40.855486 
L 177.98029 41.210502 
" style="fill:none;stroke:#8c8c8c;stroke-linecap:square;"/>
   </g>
   <g id="line2d_11">
    <path clip-path="url(#pf1af5472d4)" d="M 188.63076 42.98558 
L 188.63076 43.340596 
L 188.985776 44.405643 
L 188.985776 44.760658 
L 188.985776 45.115674 
L 188.985776 45.47069 
L 188.985776 45.825705 
L 188.985776 46.180721 
L 188.985776 46.535737 
" style="fill:none;stroke:#8c8c8c;stroke-linecap:square;"/>
   </g>
   <g id="line2d_12">
    <path clip-path="url(#pf1af5472d4)" d="M 186.14565 37.305329 
L 186.14565 36.950313 
" style="fill:none;stroke:#8c8c8c;stroke-linecap:square;"/>
   </g>
   <g id="line2d_13">
    <path clip-path="url(#pf1af5472d4)" d="M 187.920729 34.820219 
L 188.275745 34.820219 
L 188.63076 35.175235 
L 188.985776 35.175235 
L 189.340792 35.530251 
L 189.695807 35.885266 
L 190.050823 36.240282 
L 190.760854 37.305329 
L 191.470886 38.370376 
L 192.180917 39.435423 
L 192.535933 40.50047 
L 192.890948 42.275549 
L 192.890948 42.630564 
L 193.245964 44.050627 
L 193.60098 45.115674 
L 193.60098 45.47069 
" style="fill:none;stroke:#8c8c8c;stroke-linecap:square;"/>
   </g>
   <g id="line2d_14">
    <path clip-path="url(#pf1af5472d4)" d="M 193.245964 33.400157 
L 193.60098 33.755172 
L 193.60098 34.110188 
L 193.60098 34.465204 
L 193.955995 35.175235 
L 194.311011 35.885266 
L 194.666027 36.950313 
L 195.376058 38.370376 
L 195.731074 39.790439 
L 196.441105 40.855486 
L 197.151136 42.630564 
L 197.506152 43.340596 
L 197.861168 44.050627 
L 198.571199 44.760658 
L 198.571199 45.115674 
" style="fill:none;stroke:#8c8c8c;stroke-linecap:square;"/>
   </g>
   <g id="line2d_15">
    <path clip-path="url(#pf1af5472d4)" d="M 201.76634 40.145455 
L 201.76634 39.790439 
L 201.411324 39.790439 
L 201.056309 39.790439 
L 200.701293 39.790439 
L 200.346277 40.145455 
L 199.991262 40.145455 
L 199.991262 40.50047 
L 199.991262 40.855486 
L 199.991262 41.565517 
L 200.701293 42.275549 
L 201.056309 42.630564 
L 201.411324 42.98558 
L 202.121356 42.98558 
L 202.831387 42.98558 
L 203.541418 42.630564 
L 203.896434 42.275549 
L 204.25145 41.920533 
L 204.25145 41.210502 
L 204.25145 40.50047 
L 203.896434 39.790439 
L 203.186403 39.435423 
L 202.831387 39.080408 
L 202.121356 39.080408 
L 201.056309 39.080408 
L 200.346277 39.080408 
L 199.991262 39.435423 
L 199.636246 39.435423 
" style="fill:none;stroke:#8c8c8c;stroke-linecap:square;"/>
   </g>
   <g id="line2d_16">
    <path clip-path="url(#pf1af5472d4)" d="M 207.091575 38.725392 
L 206.73656 38.725392 
L 206.73656 38.370376 
L 206.73656 38.725392 
L 206.73656 39.080408 
L 207.091575 39.080408 
L 207.091575 39.435423 
L 207.801607 40.145455 
L 208.511638 40.855486 
L 209.221669 41.210502 
L 209.576685 41.565517 
L 210.286716 41.565517 
L 210.641732 41.565517 
L 210.996748 41.565517 
L 211.351763 41.210502 
L 211.351763 40.855486 
L 211.706779 40.50047 
L 211.706779 40.145455 
L 211.706779 39.790439 
L 212.061795 39.435423 
L 212.41681 39.435423 
L 212.771826 39.435423 
L 213.126842 39.080408 
L 213.481857 39.080408 
L 213.481857 38.725392 
L 213.836873 38.015361 
L 214.191889 37.660345 
L 214.191889 36.595298 
L 213.836873 35.885266 
L 213.481857 35.175235 
L 213.126842 34.465204 
L 212.771826 34.110188 
L 212.061795 33.755172 
" style="fill:none;stroke:#8c8c8c;stroke-linecap:square;"/>
   </g>
   <g id="line2d_17">
    <path clip-path="url(#pf1af5472d4)" d="M 226.972453 28.429937 
L 226.617437 28.429937 
L 226.972453 28.784953 
L 226.972453 29.494984 
L 226.972453 29.85 
L 227.682484 31.270063 
L 228.0375 31.980094 
L 228.392516 33.400157 
L 228.747531 34.465204 
L 229.102547 35.175235 
L 229.457563 35.885266 
L 229.812578 36.240282 
L 230.167594 36.595298 
" style="fill:none;stroke:#8c8c8c;stroke-linecap:square;"/>
   </g>
   <g id="line2d_18">
    <path clip-path="url(#pf1af5472d4)" d="M 226.262422 28.429937 
L 226.262422 28.074922 
L 226.262422 27.719906 
L 225.907406 27.009875 
L 226.262422 26.654859 
L 226.262422 26.299843 
L 226.617437 25.944828 
L 227.327469 25.589812 
L 227.682484 25.234796 
L 228.747531 24.879781 
L 229.457563 24.879781 
L 230.167594 25.234796 
L 230.877625 25.589812 
L 231.587657 25.944828 
L 231.942672 27.009875 
L 231.942672 27.719906 
L 231.587657 28.429937 
L 231.587657 29.494984 
L 231.232641 29.85 
L 230.877625 30.560031 
L 230.877625 30.915047 
L 231.232641 30.915047 
L 231.587657 30.915047 
L 231.942672 30.915047 
L 232.652704 31.270063 
L 233.362735 31.270063 
L 234.072766 31.270063 
L 234.427782 31.625078 
L 235.137813 31.980094 
L 235.137813 32.33511 
L 235.137813 33.400157 
L 234.782798 33.755172 
L 234.427782 34.465204 
L 233.362735 35.175235 
L 232.652704 35.885266 
L 231.587657 36.240282 
L 231.232641 36.595298 
L 230.52261 36.595298 
" style="fill:none;stroke:#8c8c8c;stroke-linecap:square;"/>
   </g>
   <g id="line2d_19">
    <path clip-path="url(#pf1af5472d4)" d="M 238.332955 30.915047 
L 238.68797 30.560031 
L 238.332955 30.560031 
L 237.267908 30.915047 
L 236.912892 30.915047 
L 236.557876 31.270063 
L 236.202861 31.980094 
L 236.202861 32.33511 
L 236.202861 32.690125 
L 236.202861 33.045141 
L 236.912892 33.045141 
L 237.622923 33.045141 
L 238.332955 32.690125 
L 238.68797 32.33511 
L 239.398002 31.980094 
L 239.753017 31.625078 
L 240.108033 30.915047 
L 240.463049 30.560031 
L 240.463049 30.205016 
L 240.463049 29.85 
L 240.818064 30.205016 
L 240.818064 30.915047 
L 240.818064 31.270063 
L 240.818064 31.980094 
L 241.17308 32.690125 
L 241.528096 33.045141 
L 241.883111 33.400157 
L 242.238127 33.755172 
L 242.593143 33.755172 
L 242.948158 33.400157 
" style="fill:none;stroke:#8c8c8c;stroke-linecap:square;"/>
   </g>
   <g id="line2d_20">
    <path clip-path="url(#pf1af5472d4)" d="M 245.788284 25.944828 
L 245.788284 25.589812 
L 245.433268 25.589812 
L 245.078252 25.944828 
L 244.723237 25.944828 
L 244.723237 26.299843 
L 244.013205 26.654859 
L 243.65819 27.009875 
L 243.303174 27.719906 
L 243.303174 28.074922 
L 242.948158 28.429937 
L 243.303174 28.784953 
L 243.303174 29.139969 
L 243.65819 29.139969 
L 244.368221 29.494984 
L 245.078252 29.494984 
L 245.433268 29.494984 
L 246.143299 29.494984 
L 246.498315 29.85 
L 246.853331 30.205016 
L 246.853331 30.560031 
L 246.853331 31.270063 
L 246.853331 31.625078 
L 246.498315 31.980094 
L 246.498315 32.690125 
L 246.143299 33.045141 
L 245.788284 33.045141 
" style="fill:none;stroke:#8c8c8c;stroke-linecap:square;"/>
   </g>
   <g id="line2d_21">
    <path clip-path="url(#pf1af5472d4)" d="M 251.113519 27.009875 
L 251.468534 27.009875 
L 251.113519 27.009875 
L 250.758503 27.009875 
L 250.403487 27.009875 
L 250.048472 27.36489 
L 249.693456 27.719906 
L 249.33844 28.074922 
L 249.33844 28.784953 
L 249.33844 29.139969 
L 249.33844 29.494984 
L 250.048472 30.205016 
L 250.403487 30.205016 
L 251.113519 30.560031 
L 251.82355 30.205016 
L 252.178566 30.205016 
L 252.888597 29.85 
L 253.243613 29.139969 
L 253.598629 28.429937 
L 253.598629 28.074922 
L 253.598629 27.36489 
L 253.598629 27.009875 
L 253.243613 26.654859 
L 253.243613 26.299843 
L 253.243613 26.654859 
L 252.888597 26.654859 
L 252.888597 27.009875 
L 252.888597 27.36489 
L 252.888597 27.719906 
L 253.243613 28.429937 
L 253.243613 29.139969 
L 253.598629 29.85 
L 253.953644 30.205016 
L 253.953644 30.560031 
L 254.30866 30.915047 
L 254.663676 31.270063 
" style="fill:none;stroke:#8c8c8c;stroke-linecap:square;"/>
   </g>
   <g id="line2d_22">
    <path clip-path="url(#pf1af5472d4)" d="M 256.083738 19.554545 
L 256.438754 19.554545 
L 256.438754 19.909561 
L 256.79377 19.909561 
L 256.79377 20.264577 
L 257.148785 20.974608 
L 257.503801 21.329624 
L 257.858817 22.039655 
L 258.213832 23.459718 
L 258.923864 24.879781 
L 259.278879 25.944828 
L 259.633895 27.719906 
L 259.988911 29.139969 
L 260.698942 30.205016 
L 260.698942 30.915047 
L 261.053958 31.625078 
L 261.053958 31.980094 
" style="fill:none;stroke:#8c8c8c;stroke-linecap:square;"/>
   </g>
   <g id="line2d_23">
    <path clip-path="url(#pf1af5472d4)" d="M 264.604114 21.329624 
L 264.249099 20.974608 
L 264.249099 21.329624 
L 264.249099 21.684639 
L 264.249099 22.039655 
L 264.604114 23.814734 
L 265.314146 25.234796 
L 266.024177 27.36489 
L 266.379193 28.429937 
L 267.089224 29.494984 
L 267.799255 30.915047 
L 268.154271 31.270063 
L 268.509287 31.625078 
" style="fill:none;stroke:#8c8c8c;stroke-linecap:square;"/>
   </g>
   <g id="line2d_24">
    <path clip-path="url(#pf1af5472d4)" d="M 262.119005 26.654859 
L 261.763989 26.654859 
L 262.119005 26.654859 
L 262.47402 26.654859 
L 262.47402 26.299843 
L 263.184052 26.299843 
L 263.894083 25.944828 
L 265.669161 25.234796 
L 266.024177 25.234796 
L 267.089224 24.879781 
L 268.154271 24.524765 
L 268.509287 24.169749 
" style="fill:none;stroke:#8c8c8c;stroke-linecap:square;"/>
   </g>
   <g id="line2d_25">
    <path clip-path="url(#pf1af5472d4)" d="M 265.314146 81.327273 
L 265.314146 80.972257 
L 264.95913 80.972257 
L 264.604114 80.972257 
L 264.249099 80.972257 
L 263.894083 80.972257 
L 263.539067 80.972257 
L 263.539067 81.327273 
L 263.184052 81.682288 
L 262.829036 82.037304 
L 262.829036 82.747335 
L 262.47402 83.457367 
L 262.829036 84.522414 
L 263.184052 85.587461 
L 263.539067 86.297492 
L 263.894083 86.652508 
L 264.95913 87.007524 
L 266.734208 87.007524 
L 267.44424 86.297492 
L 268.509287 85.587461 
L 269.219318 84.522414 
L 269.574334 83.102351 
L 269.574334 82.037304 
L 269.219318 81.327273 
L 268.864303 80.972257 
L 268.154271 80.617241 
L 266.734208 80.617241 
L 265.669161 80.617241 
L 264.604114 80.972257 
L 263.894083 81.327273 
L 263.539067 81.682288 
L 263.184052 81.682288 
L 263.184052 82.037304 
" style="fill:none;stroke:#8c8c8c;stroke-linecap:square;"/>
   </g>
   <g id="line2d_26">
    <path clip-path="url(#pf1af5472d4)" d="M 271.704428 72.096865 
L 271.704428 72.451881 
L 271.349412 72.451881 
L 271.349412 72.806897 
L 271.349412 73.161912 
L 271.349412 73.871944 
L 271.704428 74.936991 
L 271.704428 76.002038 
L 272.059444 76.712069 
L 272.414459 78.487147 
L 272.414459 79.552194 
L 272.769475 80.617241 
L 273.124491 81.327273 
L 273.479506 82.39232 
L 273.834522 83.102351 
L 273.834522 83.457367 
L 273.834522 83.812382 
" style="fill:none;stroke:#8c8c8c;stroke-linecap:square;"/>
   </g>
   <g id="line2d_27">
    <path clip-path="url(#pf1af5472d4)" d="M 279.514773 79.90721 
L 279.514773 79.552194 
L 279.514773 79.197179 
L 279.514773 78.842163 
L 279.159757 78.842163 
L 278.804741 78.487147 
L 278.449726 78.487147 
L 278.09471 78.487147 
L 277.739694 78.842163 
L 277.384679 78.842163 
L 277.029663 79.197179 
L 277.029663 79.552194 
L 276.674647 80.617241 
L 276.674647 80.972257 
L 276.674647 81.682288 
L 277.029663 82.037304 
L 277.739694 82.39232 
L 278.449726 82.39232 
L 279.159757 82.39232 
L 279.869788 82.037304 
L 280.57982 81.327273 
L 280.934835 80.617241 
L 281.289851 79.552194 
L 281.289851 78.487147 
L 281.289851 77.4221 
L 280.934835 76.357053 
L 280.224804 74.936991 
L 279.869788 73.871944 
L 279.514773 73.161912 
L 279.514773 72.806897 
L 279.159757 72.096865 
L 278.804741 72.451881 
L 278.804741 73.516928 
L 278.804741 74.936991 
L 278.804741 76.002038 
L 279.159757 77.777116 
L 279.514773 78.487147 
L 280.224804 80.262226 
L 280.934835 81.327273 
L 281.289851 82.037304 
L 281.999882 82.39232 
L 282.354898 82.39232 
" style="fill:none;stroke:#8c8c8c;stroke-linecap:square;"/>
   </g>
   <g id="line2d_28">
    <path clip-path="url(#pf1af5472d4)" d="M 284.129976 79.197179 
L 284.484992 79.197179 
L 284.840008 79.197179 
L 285.195024 79.197179 
L 285.550039 78.842163 
L 286.615086 78.132132 
L 286.970102 77.777116 
L 287.680133 77.4221 
L 288.035149 76.712069 
L 288.035149 76.002038 
L 288.035149 75.647022 
L 288.035149 75.292006 
L 287.680133 74.936991 
L 287.325118 74.936991 
L 286.970102 74.936991 
L 286.615086 74.936991 
L 285.905055 75.647022 
L 285.195024 76.357053 
L 284.840008 77.4221 
L 284.484992 78.487147 
L 284.484992 79.197179 
L 284.840008 79.90721 
L 285.550039 80.617241 
L 286.260071 81.327273 
L 286.970102 81.327273 
L 287.680133 81.327273 
L 288.035149 80.972257 
" style="fill:none;stroke:#8c8c8c;stroke-linecap:square;"/>
   </g>
   <g id="line2d_29">
    <path clip-path="url(#pf1af5472d4)" d="M 292.650353 75.647022 
L 292.650353 75.292006 
L 292.650353 74.581975 
L 292.650353 74.226959 
L 292.295337 73.871944 
L 291.940321 73.871944 
L 291.23029 74.226959 
L 290.875274 74.226959 
L 290.165243 74.581975 
L 289.810227 74.936991 
L 289.810227 75.292006 
L 289.810227 75.647022 
L 290.165243 75.647022 
L 290.875274 76.002038 
L 291.940321 76.002038 
L 293.005368 76.002038 
L 294.070415 76.002038 
L 295.490478 76.357053 
L 296.200509 76.357053 
L 296.910541 76.712069 
L 297.620572 77.067085 
L 297.620572 77.777116 
L 297.620572 78.487147 
L 297.265556 78.842163 
L 296.910541 79.552194 
L 296.200509 80.262226 
L 295.845494 80.617241 
L 294.780447 80.972257 
L 294.425431 80.617241 
" style="fill:none;stroke:#8c8c8c;stroke-linecap:square;"/>
   </g>
   <g id="line2d_30">
    <path clip-path="url(#pf1af5472d4)" d="M 299.040635 70.676803 
L 299.750666 70.321787 
L 299.750666 70.676803 
L 300.105682 70.676803 
L 300.105682 71.031818 
L 300.460697 71.74185 
L 300.815713 73.161912 
L 301.170729 74.226959 
L 301.88076 74.936991 
L 302.590792 76.357053 
L 302.945807 77.4221 
L 303.655839 78.132132 
L 304.010854 78.842163 
L 304.36587 79.197179 
L 304.36587 79.552194 
" style="fill:none;stroke:#8c8c8c;stroke-linecap:square;"/>
   </g>
   <g id="line2d_31">
    <path clip-path="url(#pf1af5472d4)" d="M 301.170729 76.712069 
L 301.170729 76.357053 
L 301.525745 76.357053 
L 301.525745 76.002038 
L 301.88076 75.647022 
L 302.235776 75.292006 
L 302.945807 74.936991 
L 304.010854 74.581975 
L 305.430917 73.871944 
L 307.561011 73.161912 
" style="fill:none;stroke:#8c8c8c;stroke-linecap:square;"/>
   </g>
   <g id="line2d_32">
    <path clip-path="url(#pf1af5472d4)" d="M 317.50145 65.706583 
L 317.50145 65.351567 
L 317.50145 65.706583 
L 317.50145 66.061599 
L 317.856466 66.416614 
L 318.211481 67.481661 
L 318.566497 68.546708 
L 319.276528 69.611755 
L 319.98656 71.386834 
L 320.696591 73.161912 
L 321.051607 73.871944 
L 321.406622 74.581975 
L 321.761638 74.581975 
L 322.116654 74.936991 
L 322.116654 74.581975 
" style="fill:none;stroke:#8c8c8c;stroke-linecap:square;"/>
   </g>
   <g id="line2d_33">
    <path clip-path="url(#pf1af5472d4)" d="M 317.856466 64.641536 
L 317.856466 64.28652 
L 318.211481 64.28652 
L 318.566497 64.28652 
L 318.921513 64.28652 
L 319.98656 64.28652 
L 320.696591 64.28652 
L 321.406622 64.28652 
L 322.471669 64.641536 
L 322.826685 64.641536 
L 323.181701 64.996552 
L 323.181701 65.351567 
L 322.826685 65.706583 
L 322.116654 66.416614 
L 321.406622 67.126646 
L 320.341575 67.836677 
L 319.98656 67.836677 
L 319.276528 68.191693 
L 318.921513 68.546708 
" style="fill:none;stroke:#8c8c8c;stroke-linecap:square;"/>
   </g>
   <g id="line2d_34">
    <path clip-path="url(#pf1af5472d4)" d="M 329.216967 71.74185 
L 329.571983 72.451881 
L 329.571983 72.806897 
L 329.571983 73.161912 
L 329.926998 73.516928 
L 329.926998 73.871944 
L 329.926998 74.226959 
" style="fill:none;stroke:#8c8c8c;stroke-linecap:square;"/>
   </g>
   <g id="line2d_35">
    <path clip-path="url(#pf1af5472d4)" d="M 330.992045 61.801411 
L 330.992045 62.156426 
L 331.347061 62.156426 
L 331.347061 62.866458 
L 331.702077 63.221473 
L 332.412108 64.28652 
L 333.122139 65.351567 
L 333.477155 66.416614 
L 334.542202 67.481661 
L 334.897218 68.546708 
L 335.252234 69.25674 
L 335.607249 70.676803 
L 335.962265 71.031818 
L 335.962265 71.74185 
L 336.317281 72.451881 
L 336.317281 72.806897 
L 336.672296 73.161912 
" style="fill:none;stroke:#8c8c8c;stroke-linecap:square;"/>
   </g>
   <g id="line2d_36">
    <path clip-path="url(#pf1af5472d4)" d="M 332.057092 61.091379 
L 331.702077 61.091379 
L 332.057092 61.091379 
L 332.412108 61.091379 
L 332.767124 61.091379 
L 333.122139 61.091379 
L 333.832171 61.446395 
L 334.542202 61.801411 
L 334.897218 62.156426 
L 335.252234 62.511442 
L 335.252234 63.221473 
L 335.252234 63.576489 
L 334.897218 64.28652 
L 334.542202 64.641536 
L 334.187187 64.996552 
L 333.832171 65.351567 
L 333.832171 65.706583 
L 334.187187 65.706583 
L 335.252234 65.706583 
L 335.962265 65.706583 
L 336.672296 66.061599 
L 337.737343 66.416614 
L 338.447375 66.77163 
L 339.512422 67.126646 
L 340.222453 67.836677 
L 340.222453 68.191693 
L 340.577469 68.901724 
L 340.222453 69.25674 
L 339.867437 69.966771 
L 339.157406 70.676803 
L 338.80239 70.676803 
L 338.447375 71.031818 
L 337.737343 71.031818 
L 337.382328 71.031818 
" style="fill:none;stroke:#8c8c8c;stroke-linecap:square;"/>
   </g>
   <g id="line2d_37">
    <path clip-path="url(#pf1af5472d4)" d="M 344.482641 70.676803 
L 344.482641 71.386834 
L 344.482641 71.74185 
L 344.127625 71.74185 
L 344.127625 72.096865 
L 343.77261 72.096865 
" style="fill:none;stroke:#8c8c8c;stroke-linecap:square;"/>
   </g>
   <g id="line2d_38">
    <path clip-path="url(#pf1af5472d4)" d="M 286.260071 106.533386 
L 286.615086 106.17837 
L 286.970102 105.823354 
L 286.970102 105.468339 
L 287.680133 104.403292 
L 288.390165 103.69326 
L 289.100196 102.273197 
L 289.810227 101.20815 
L 290.165243 100.853135 
L 290.520259 100.143103 
L 290.875274 99.788088 
L 290.875274 100.143103 
L 290.875274 100.498119 
L 290.875274 100.853135 
L 290.875274 101.20815 
L 290.875274 102.273197 
L 290.875274 103.338245 
L 291.23029 104.048276 
L 291.23029 104.758307 
L 291.585306 105.823354 
L 291.940321 106.17837 
L 292.295337 106.533386 
L 293.005368 106.888401 
L 293.7154 106.888401 
L 295.135462 106.533386 
L 295.845494 106.17837 
L 297.265556 104.758307 
L 298.330603 104.048276 
L 299.040635 102.983229 
L 300.105682 101.918182 
L 300.460697 101.20815 
L 300.815713 100.498119 
L 301.170729 100.143103 
L 301.525745 99.788088 
" style="fill:none;stroke:#8c8c8c;stroke-linecap:square;"/>
   </g>
   <g id="line2d_39">
    <path clip-path="url(#pf1af5472d4)" d="M 309.336089 93.04279 
L 309.336089 92.687774 
L 308.981074 92.687774 
L 308.981074 93.04279 
L 308.981074 93.397806 
L 308.981074 93.752821 
L 309.336089 94.462853 
L 310.046121 95.5279 
L 310.401136 96.237931 
L 311.466183 96.947962 
L 311.821199 97.302978 
L 312.886246 98.013009 
L 313.596277 98.013009 
L 314.306309 98.013009 
L 314.661324 97.657994 
L 315.01634 96.947962 
L 315.371356 96.592947 
" style="fill:none;stroke:#8c8c8c;stroke-linecap:square;"/>
   </g>
   <g id="line2d_40">
    <path clip-path="url(#pf1af5472d4)" d="M 315.726371 89.492633 
L 315.371356 89.492633 
L 315.371356 89.847649 
L 315.01634 90.202665 
L 315.371356 90.912696 
L 315.371356 91.622727 
L 316.081387 93.04279 
L 316.436403 94.107837 
L 317.146434 95.5279 
L 317.856466 97.302978 
L 318.921513 100.143103 
L 319.98656 102.983229 
L 320.696591 104.403292 
L 321.051607 105.468339 
L 321.406622 106.17837 
L 321.761638 106.888401 
L 321.761638 107.243417 
L 321.761638 106.888401 
L 321.406622 106.888401 
L 321.406622 106.533386 
" style="fill:none;stroke:#8c8c8c;stroke-linecap:square;"/>
   </g>
   <g id="line2d_41">
    <path clip-path="url(#pf1af5472d4)" d="M 329.571983 89.492633 
L 329.571983 89.137618 
L 329.571983 88.782602 
L 329.216967 89.137618 
L 328.861951 89.137618 
L 328.861951 89.492633 
L 328.506936 90.202665 
L 328.15192 91.267712 
L 328.15192 92.687774 
L 328.15192 93.752821 
L 328.15192 95.172884 
L 328.861951 97.302978 
L 329.571983 98.368025 
L 330.63703 100.143103 
L 331.347061 100.853135 
L 332.412108 101.563166 
L 333.832171 101.563166 
L 334.542202 101.20815 
L 335.607249 100.498119 
L 335.962265 99.788088 
L 335.962265 99.078056 
L 336.317281 98.013009 
" style="fill:none;stroke:#8c8c8c;stroke-linecap:square;"/>
   </g>
   <g id="line2d_42">
    <path clip-path="url(#pf1af5472d4)" d="M 333.477155 94.107837 
L 333.122139 94.462853 
L 332.767124 94.462853 
L 332.412108 94.817868 
L 332.412108 95.172884 
L 332.767124 95.172884 
L 333.122139 95.172884 
L 333.832171 95.172884 
L 334.542202 94.817868 
L 335.252234 94.462853 
L 336.317281 94.107837 
L 336.672296 93.752821 
L 337.027312 93.397806 
L 337.382328 93.397806 
L 337.382328 93.04279 
L 337.382328 93.397806 
L 337.737343 93.397806 
L 337.737343 93.752821 
L 337.737343 94.107837 
L 338.092359 95.172884 
L 338.092359 95.5279 
L 338.447375 96.237931 
L 338.80239 97.657994 
L 338.80239 98.368025 
L 339.157406 99.433072 
L 339.512422 100.143103 
L 339.512422 100.853135 
L 339.867437 101.563166 
L 339.867437 101.918182 
L 340.222453 101.918182 
L 339.867437 101.563166 
L 339.867437 101.20815 
" style="fill:none;stroke:#8c8c8c;stroke-linecap:square;"/>
   </g>
   <g id="line2d_43">
    <path clip-path="url(#pf1af5472d4)" d="M 345.192672 92.687774 
L 345.192672 92.332759 
L 344.837657 92.332759 
L 344.482641 92.332759 
L 344.127625 92.332759 
L 343.77261 92.687774 
L 343.417594 93.397806 
L 342.707563 94.107837 
L 342.707563 94.817868 
L 342.707563 95.172884 
L 342.707563 95.5279 
L 342.707563 96.237931 
L 343.062578 96.237931 
L 343.417594 96.237931 
L 343.77261 96.237931 
L 344.127625 95.882915 
L 344.837657 95.172884 
L 345.192672 94.817868 
L 345.547688 94.107837 
L 345.547688 93.752821 
L 345.547688 93.397806 
L 345.902704 93.04279 
L 345.902704 92.687774 
L 346.257719 92.687774 
L 346.257719 93.04279 
L 346.612735 93.397806 
L 346.612735 93.752821 
L 347.322766 94.462853 
L 348.032798 95.5279 
L 348.387813 96.237931 
L 349.097845 96.947962 
L 349.807876 98.013009 
L 350.162892 98.368025 
L 350.517908 98.723041 
L 350.517908 98.368025 
L 350.162892 98.013009 
L 349.807876 97.657994 
" style="fill:none;stroke:#8c8c8c;stroke-linecap:square;"/>
   </g>
  </g>
 </g>
 <defs>
  <clipPath id="pf1af5472d4">
   <rect height="271.8" width="359.666379" x="7.2" y="7.2"/>
  </clipPath>
 </defs>
</svg>
