<?xml version="1.0" encoding="utf-8" standalone="no"?>
<!DOCTYPE svg PUBLIC "-//W3C//DTD SVG 1.1//EN"
  "http://www.w3.org/Graphics/SVG/1.1/DTD/svg11.dtd">
<!-- Created with matplotlib (https://matplotlib.org/) -->
<svg height="286.2pt" version="1.1" viewBox="0 0 526.564057 286.2" width="526.564057pt" xmlns="http://www.w3.org/2000/svg" xmlns:xlink="http://www.w3.org/1999/xlink">
 <metadata>
  <rdf:RDF xmlns:cc="http://creativecommons.org/ns#" xmlns:dc="http://purl.org/dc/elements/1.1/" xmlns:rdf="http://www.w3.org/1999/02/22-rdf-syntax-ns#">
   <cc:Work>
    <dc:type rdf:resource="http://purl.org/dc/dcmitype/StillImage"/>
    <dc:date>2024-11-15T16:04:14.021963</dc:date>
    <dc:format>image/svg+xml</dc:format>
    <dc:creator>
     <cc:Agent>
      <dc:title>Matplotlib v3.3.4, https://matplotlib.org/</dc:title>
     </cc:Agent>
    </dc:creator>
   </cc:Work>
  </rdf:RDF>
 </metadata>
 <defs>
  <style type="text/css">*{stroke-linecap:butt;stroke-linejoin:round;}</style>
 </defs>
 <g id="figure_1">
  <g id="patch_1">
   <path d="M 0 286.2 
L 526.564057 286.2 
L 526.564057 0 
L 0 0 
z
" style="fill:#ffffff;"/>
  </g>
  <g id="axes_1">
   <g id="line2d_1">
    <path clip-path="url(#peeeac937f3)" d="M 399.357894 84.624749 
L 400.237221 85.504076 
L 400.237221 85.94374 
L 400.676885 85.94374 
L 401.116548 86.383403 
L 401.556212 86.383403 
L 401.556212 86.823067 
L 401.995875 86.823067 
L 401.995875 87.262731 
L 402.435539 87.702394 
L 402.435539 88.142058 
L 402.875202 88.142058 
L 402.875202 88.581721 
L 403.314866 88.581721 
L 403.314866 89.021385 
L 403.754529 89.021385 
L 403.754529 89.900712 
L 404.194193 89.900712 
L 404.194193 90.340375 
L 405.07352 91.219702 
L 405.07352 91.659366 
L 405.513183 91.659366 
L 405.513183 92.099029 
L 405.952847 92.538693 
L 405.952847 92.978357 
L 406.392511 92.978357 
L 406.392511 93.41802 
L 406.832174 93.857684 
L 406.832174 94.297347 
L 407.271838 94.297347 
L 407.271838 94.737011 
L 407.711501 94.737011 
L 407.711501 95.176674 
L 408.151165 95.176674 
L 408.151165 95.616338 
L 412.987464 100.452637 
L 413.427127 100.452637 
L 413.427127 100.8923 
L 413.866791 100.8923 
L 413.866791 101.331964 
L 414.306454 101.771627 
L 414.746118 101.771627 
L 414.746118 102.211291 
L 415.185781 102.211291 
L 415.185781 102.650954 
L 415.625445 103.090618 
L 416.065108 103.090618 
L 416.065108 103.530281 
L 416.944435 103.969945 
L 416.944435 104.409609 
L 417.823763 104.849272 
L 417.823763 105.288936 
L 420.02208 107.487253 
L 420.02208 107.926917 
L 420.901407 108.806244 
L 421.341071 108.806244 
L 421.341071 109.245907 
L 422.660061 110.564898 
L 422.660061 111.004562 
L 423.099725 111.004562 
L 423.099725 111.444225 
L 424.858379 113.202879 
L 424.858379 113.642543 
L 425.298043 113.642543 
L 425.298043 114.082206 
L 425.737706 114.082206 
L 425.737706 114.52187 
L 426.617033 115.401197 
L 426.617033 115.840861 
L 427.056697 116.280524 
L 427.056697 116.720188 
L 427.49636 116.720188 
L 427.49636 117.159851 
L 427.936024 117.159851 
L 427.936024 117.599515 
L 428.375687 118.039178 
L 428.375687 118.478842 
L 428.815351 118.478842 
L 428.815351 119.358169 
L 429.255015 119.358169 
L 429.255015 119.797832 
L 429.694678 120.237496 
L 429.694678 120.677159 
L 430.574005 121.556487 
L 430.574005 122.435814 
L 431.453332 123.315141 
L 431.453332 123.754804 
L 431.892996 124.194468 
L 432.332659 125.073795 
L 432.772323 125.073795 
L 432.772323 125.513458 
L 434.091313 126.832449 
L 434.091313 127.272113 
L 436.289631 129.47043 
L 436.729295 129.47043 
L 436.729295 129.910094 
L 437.608622 130.789421 
L 438.048285 130.789421 
L 438.487949 131.668748 
L 438.927612 131.668748 
L 439.80694 132.548075 
L 439.80694 132.987739 
L 440.246603 132.987739 
L 441.565594 134.306729 
L 442.005257 134.306729 
L 442.005257 134.746393 
L 442.444921 134.746393 
L 442.444921 135.186056 
L 442.884584 135.186056 
L 442.884584 135.62572 
L 443.324248 136.065383 
L 443.763911 136.065383 
L 443.763911 136.505047 
L 444.203575 136.505047 
L 444.203575 136.94471 
L 444.643238 136.94471 
L 444.643238 137.384374 
L 445.082902 137.384374 
L 445.082902 137.824038 
L 445.522566 137.824038 
L 445.522566 138.263701 
L 445.962229 138.703365 
L 445.962229 139.143028 
L 446.401893 139.143028 
L 446.401893 139.582692 
L 446.841556 140.462019 
L 447.28122 140.462019 
L 447.28122 140.901682 
L 447.720883 141.341346 
L 447.720883 142.220673 
L 448.160547 142.220673 
L 448.160547 142.660336 
L 448.60021 143.1 
L 448.60021 143.539664 
L 449.039874 143.979327 
L 449.039874 144.418991 
L 449.479537 144.418991 
L 449.479537 145.298318 
L 449.919201 145.737981 
L 449.919201 146.177645 
L 450.358864 147.056972 
L 450.798528 147.496635 
L 450.798528 147.936299 
L 451.238192 147.936299 
L 451.238192 148.815626 
L 451.677855 148.815626 
L 451.677855 149.694953 
L 452.117519 149.694953 
L 452.117519 150.134617 
L 452.557182 150.57428 
L 452.557182 151.013944 
L 452.996846 151.453607 
L 452.996846 151.893271 
L 453.436509 151.893271 
L 453.436509 152.772598 
L 453.876173 152.772598 
L 453.876173 153.651925 
L 454.315836 153.651925 
L 454.315836 154.531252 
L 454.7555 154.531252 
L 454.7555 154.970916 
L 455.195163 155.410579 
L 455.195163 155.850243 
L 455.634827 155.850243 
L 455.634827 156.72957 
L 456.07449 156.72957 
L 456.07449 157.169233 
L 456.514154 157.169233 
L 456.514154 158.04856 
L 456.953818 158.04856 
L 456.953818 158.488224 
L 457.393481 158.488224 
L 457.393481 158.927887 
L 458.272808 159.807214 
L 458.272808 160.246878 
L 458.712472 160.246878 
L 458.712472 160.686542 
L 460.031462 162.005532 
L 460.031462 162.445196 
L 460.471126 162.445196 
L 460.471126 162.884859 
L 460.910789 162.884859 
L 460.910789 163.324523 
L 461.350453 163.764186 
L 461.790116 163.764186 
L 461.790116 164.20385 
L 463.548771 165.962504 
L 463.548771 166.402168 
L 463.988434 166.402168 
L 463.988434 166.841831 
L 464.428098 166.841831 
L 464.428098 167.281495 
L 464.867761 167.281495 
L 464.867761 167.721158 
L 465.307425 168.160822 
L 465.747088 168.160822 
L 465.747088 168.600485 
L 467.945406 170.798803 
L 467.945406 171.238467 
L 468.38507 171.67813 
L 468.824733 171.67813 
L 468.824733 172.117794 
L 469.264397 172.557457 
L 469.264397 172.997121 
L 469.70406 172.997121 
L 469.70406 173.876448 
L 470.143724 173.876448 
L 470.143724 174.316111 
L 470.583387 174.316111 
L 470.583387 174.755775 
L 471.023051 175.195438 
L 471.023051 175.635102 
L 471.462714 175.635102 
L 471.462714 176.074765 
L 472.342041 176.954093 
L 472.342041 177.393756 
L 472.781705 177.393756 
L 472.781705 177.83342 
L 473.221368 177.83342 
L 473.221368 178.273083 
L 473.661032 178.273083 
L 473.661032 178.712747 
L 474.100696 178.712747 
L 474.100696 179.15241 
L 474.540359 179.592074 
L 474.540359 180.031737 
L 474.980023 180.031737 
L 474.980023 180.471401 
L 475.419686 180.471401 
L 475.419686 180.911064 
L 475.85935 180.911064 
L 475.85935 181.350728 
L 476.299013 181.790391 
L 476.738677 181.790391 
L 476.738677 182.230055 
L 477.17834 182.230055 
L 477.17834 182.669719 
L 477.618004 183.109382 
L 478.057667 183.109382 
L 478.936995 183.988709 
L 479.376658 183.988709 
L 480.255985 184.868036 
L 481.135312 185.3077 
L 482.014639 186.187027 
L 482.454303 186.187027 
L 483.33363 186.62669 
L 485.092284 188.385345 
L 485.971611 188.825008 
L 486.411275 188.825008 
L 486.411275 189.264672 
L 487.290602 189.704335 
L 487.290602 190.143999 
L 487.730265 190.583662 
L 487.730265 190.583662 
" style="fill:none;stroke:#8c8c8c;stroke-linecap:square;"/>
   </g>
   <g id="line2d_2">
    <path clip-path="url(#peeeac937f3)" d="M 477.618004 188.385345 
L 478.057667 188.385345 
L 478.057667 187.945681 
L 477.618004 188.385345 
L 477.17834 188.825008 
L 476.299013 189.704335 
L 475.419686 190.583662 
L 474.100696 191.902653 
L 473.221368 192.78198 
L 471.462714 194.980298 
L 470.143724 196.299288 
L 468.824733 198.057942 
L 467.505742 199.376933 
L 465.747088 202.014914 
L 464.428098 203.333905 
L 463.109107 205.092559 
L 462.669444 205.971886 
L 461.790116 207.290877 
L 461.790116 208.170204 
L 461.350453 208.609867 
L 461.350453 209.928858 
L 461.350453 210.368522 
L 461.790116 211.687512 
L 462.22978 213.006503 
L 462.22978 213.88583 
L 462.669444 215.644484 
L 463.109107 216.963475 
L 463.109107 218.282465 
L 463.109107 220.480783 
L 463.109107 221.799774 
L 462.669444 223.558428 
L 462.22978 224.877418 
L 461.350453 226.196409 
L 459.591799 227.955063 
L 457.833145 229.274054 
L 454.7555 230.593044 
L 452.557182 231.472371 
L 450.358864 231.912035 
L 447.28122 232.351698 
L 445.522566 232.791362 
L 444.203575 232.791362 
L 442.444921 232.791362 
L 442.005257 233.231026 
" style="fill:none;stroke:#8c8c8c;stroke-linecap:square;"/>
   </g>
   <g id="line2d_3">
    <path clip-path="url(#peeeac937f3)" d="M 412.987464 247.300259 
L 412.987464 246.860595 
L 412.5478 246.860595 
L 412.5478 247.300259 
L 412.5478 247.739922 
L 412.5478 248.179586 
L 412.108137 249.498577 
L 412.108137 251.257231 
L 411.668473 252.576221 
L 411.668473 254.334875 
L 411.668473 255.653866 
L 411.668473 256.533193 
L 411.668473 257.41252 
L 411.668473 257.852184 
L 411.668473 258.291847 
" style="fill:none;stroke:#8c8c8c;stroke-linecap:square;"/>
   </g>
   <g id="line2d_4">
    <path clip-path="url(#peeeac937f3)" d="M 414.746118 249.058913 
L 415.185781 249.058913 
L 415.185781 248.619249 
L 415.625445 248.619249 
L 416.504772 248.179586 
L 417.823763 247.739922 
L 419.582417 247.739922 
L 420.901407 247.739922 
L 421.780734 247.739922 
L 422.660061 247.739922 
L 423.099725 248.179586 
L 423.539389 248.619249 
L 423.539389 249.93824 
L 422.660061 251.257231 
L 422.220398 252.576221 
L 420.02208 255.214203 
L 418.70309 256.972857 
L 417.823763 258.291847 
L 416.504772 260.050501 
L 416.065108 260.929829 
L 416.504772 261.369492 
L 416.944435 261.369492 
L 417.384099 261.809156 
L 418.70309 261.809156 
L 420.461744 261.369492 
L 421.341071 261.369492 
L 422.660061 261.369492 
L 423.979052 260.929829 
L 424.418716 260.490165 
L 425.298043 260.490165 
L 425.737706 260.050501 
L 426.17737 260.050501 
" style="fill:none;stroke:#8c8c8c;stroke-linecap:square;"/>
   </g>
   <g id="line2d_5">
    <path clip-path="url(#peeeac937f3)" d="M 431.013669 251.257231 
L 431.013669 250.817567 
L 431.013669 249.93824 
L 431.013669 249.498577 
L 430.574005 249.058913 
L 430.574005 248.619249 
L 430.134342 248.179586 
L 429.694678 248.179586 
L 429.255015 248.179586 
L 429.255015 248.619249 
L 428.815351 248.619249 
L 428.375687 249.058913 
L 427.936024 249.93824 
L 427.49636 250.377904 
L 427.49636 250.817567 
L 427.49636 251.257231 
L 427.936024 251.257231 
L 428.375687 251.696894 
L 429.255015 251.696894 
L 429.694678 252.136558 
L 430.574005 252.136558 
L 431.013669 252.576221 
L 431.892996 253.015885 
L 432.772323 253.455548 
L 433.65165 254.774539 
L 434.091313 255.653866 
L 434.530977 256.533193 
L 434.530977 257.41252 
L 434.530977 258.291847 
L 434.530977 259.610838 
L 434.091313 259.610838 
L 433.65165 260.490165 
L 432.772323 260.929829 
L 431.892996 260.929829 
L 431.013669 260.490165 
L 429.255015 259.610838 
L 428.815351 259.171174 
" style="fill:none;stroke:#8c8c8c;stroke-linecap:square;"/>
   </g>
   <g id="line2d_6">
    <path clip-path="url(#peeeac937f3)" d="M 427.936024 247.739922 
L 427.936024 247.300259 
L 428.375687 247.300259 
L 428.815351 247.300259 
L 429.255015 247.300259 
L 429.694678 247.300259 
L 431.013669 247.300259 
L 431.892996 247.300259 
L 433.65165 247.300259 
L 434.970641 247.300259 
L 435.849968 246.860595 
L 436.729295 246.860595 
L 437.168958 246.860595 
L 438.048285 246.860595 
L 438.048285 246.420932 
" style="fill:none;stroke:#8c8c8c;stroke-linecap:square;"/>
   </g>
   <g id="line2d_7">
    <path clip-path="url(#peeeac937f3)" d="M 447.720883 249.498577 
L 447.28122 249.058913 
L 446.841556 249.058913 
L 446.841556 249.498577 
L 446.841556 250.377904 
L 446.841556 251.257231 
L 446.841556 253.015885 
L 446.841556 254.334875 
L 446.841556 256.09353 
L 446.841556 257.41252 
L 446.841556 258.291847 
L 446.841556 259.171174 
L 446.841556 260.050501 
L 446.841556 260.490165 
L 446.401893 260.490165 
" style="fill:none;stroke:#8c8c8c;stroke-linecap:square;"/>
   </g>
   <g id="line2d_8">
    <path clip-path="url(#peeeac937f3)" d="M 449.919201 252.576221 
L 450.358864 252.576221 
L 450.358864 252.136558 
L 450.358864 252.576221 
L 449.919201 252.576221 
L 449.919201 253.015885 
L 449.479537 253.455548 
L 449.479537 253.895212 
L 449.039874 254.334875 
L 449.039874 254.774539 
L 448.60021 255.214203 
L 447.720883 256.09353 
L 447.28122 256.972857 
L 447.28122 257.41252 
L 446.841556 257.41252 
L 446.841556 257.852184 
L 446.841556 258.291847 
L 446.841556 258.731511 
L 446.841556 259.171174 
L 447.28122 259.610838 
L 447.720883 260.050501 
L 448.60021 260.490165 
L 449.039874 260.929829 
L 450.358864 261.369492 
L 450.798528 261.809156 
L 451.238192 262.248819 
L 452.117519 262.688483 
L 452.557182 263.128146 
L 452.996846 263.128146 
L 453.436509 263.128146 
" style="fill:none;stroke:#8c8c8c;stroke-linecap:square;"/>
   </g>
   <g id="line2d_9">
    <path clip-path="url(#peeeac937f3)" d="M 456.07449 259.610838 
L 455.634827 259.610838 
L 455.634827 260.050501 
L 455.634827 260.490165 
L 456.07449 260.929829 
L 456.07449 261.369492 
L 456.514154 261.809156 
L 456.953818 262.248819 
L 457.833145 262.688483 
L 458.272808 263.128146 
L 458.712472 263.128146 
L 459.152135 262.688483 
L 459.591799 262.688483 
L 460.031462 262.248819 
L 460.471126 261.369492 
L 460.910789 260.929829 
L 461.350453 260.490165 
L 461.350453 260.050501 
L 461.790116 260.050501 
L 461.790116 259.610838 
L 462.22978 259.610838 
L 462.22978 260.050501 
L 462.669444 260.050501 
L 462.669444 260.490165 
L 463.109107 261.369492 
L 463.109107 262.248819 
L 463.109107 263.128146 
L 463.109107 264.447137 
L 463.109107 265.326464 
L 463.109107 265.766127 
L 463.109107 266.205791 
L 462.669444 266.645455 
L 462.22978 266.645455 
" style="fill:none;stroke:#8c8c8c;stroke-linecap:square;"/>
   </g>
   <g id="line2d_10">
    <path clip-path="url(#peeeac937f3)" d="M 446.401893 258.291847 
L 446.401893 258.731511 
L 446.401893 259.171174 
L 446.401893 259.610838 
L 445.962229 259.610838 
L 445.962229 260.050501 
L 445.962229 260.929829 
L 445.962229 261.369492 
L 445.962229 262.248819 
L 445.962229 262.688483 
L 445.962229 263.128146 
L 445.962229 263.56781 
" style="fill:none;stroke:#8c8c8c;stroke-linecap:square;"/>
   </g>
   <g id="line2d_11">
    <path clip-path="url(#peeeac937f3)" d="M 471.023051 259.171174 
L 471.023051 258.731511 
L 471.023051 258.291847 
L 471.023051 257.852184 
L 470.583387 257.852184 
L 470.583387 257.41252 
L 470.143724 257.41252 
L 469.70406 256.972857 
L 469.264397 256.972857 
L 469.264397 257.41252 
L 468.824733 257.41252 
L 468.38507 257.852184 
L 468.38507 258.291847 
L 467.945406 258.731511 
L 467.945406 259.171174 
L 467.945406 259.610838 
L 468.38507 260.050501 
L 468.824733 260.050501 
L 469.264397 260.050501 
L 469.264397 259.610838 
L 469.70406 259.610838 
L 469.70406 259.171174 
L 470.143724 258.291847 
L 470.143724 257.852184 
L 470.583387 257.41252 
L 470.583387 256.533193 
L 470.583387 256.972857 
L 471.023051 257.41252 
L 471.023051 257.852184 
L 471.023051 258.291847 
L 471.023051 259.171174 
L 471.023051 260.050501 
L 471.023051 260.490165 
L 471.023051 260.929829 
L 471.023051 261.369492 
" style="fill:none;stroke:#8c8c8c;stroke-linecap:square;"/>
   </g>
   <g id="line2d_12">
    <path clip-path="url(#peeeac937f3)" d="M 402.435539 104.849272 
L 402.435539 105.288936 
L 402.875202 105.728599 
L 402.875202 106.607926 
L 403.314866 106.607926 
L 403.314866 107.487253 
L 403.754529 107.487253 
L 403.754529 108.36658 
L 404.194193 108.36658 
L 404.194193 109.245907 
L 404.633856 109.245907 
L 404.633856 110.125235 
L 405.07352 110.125235 
L 405.07352 111.004562 
L 405.513183 111.004562 
L 405.513183 111.883889 
L 405.952847 112.323552 
L 405.952847 112.763216 
L 406.392511 112.763216 
L 406.392511 113.202879 
L 406.832174 113.642543 
L 406.832174 114.082206 
L 407.271838 114.082206 
L 407.271838 114.52187 
L 407.711501 114.961533 
L 407.711501 115.401197 
L 408.151165 115.401197 
L 408.151165 115.840861 
L 408.590828 116.280524 
L 408.590828 116.720188 
L 409.030492 116.720188 
L 409.030492 117.159851 
L 409.909819 118.039178 
L 410.349482 118.918505 
L 410.789146 119.358169 
L 411.228809 119.358169 
L 411.668473 120.237496 
L 413.427127 121.99615 
L 413.427127 122.435814 
L 413.866791 122.435814 
L 416.065108 124.634131 
L 416.065108 125.073795 
L 416.504772 125.073795 
L 416.944435 125.513458 
L 416.944435 125.953122 
L 417.384099 125.953122 
L 417.384099 126.392786 
L 417.823763 126.392786 
L 417.823763 126.832449 
L 418.263426 126.832449 
L 420.02208 128.591103 
L 420.461744 128.591103 
L 420.461744 129.030767 
L 420.901407 129.030767 
L 420.901407 129.47043 
L 421.341071 129.47043 
L 421.341071 129.910094 
L 421.780734 130.349757 
L 422.220398 130.349757 
L 422.220398 130.789421 
L 422.660061 131.229084 
L 422.660061 131.668748 
L 423.099725 131.668748 
L 423.099725 132.108412 
L 423.539389 132.548075 
L 423.979052 132.548075 
L 423.979052 132.987739 
L 424.858379 133.867066 
L 424.858379 134.306729 
L 425.737706 134.746393 
L 425.737706 135.186056 
L 427.056697 136.505047 
L 427.49636 137.384374 
L 427.936024 137.824038 
L 427.936024 138.263701 
L 428.815351 139.143028 
L 428.815351 139.582692 
L 429.255015 140.462019 
L 430.134342 141.341346 
L 431.013669 143.1 
L 431.892996 143.979327 
L 432.332659 144.858654 
L 432.772323 145.298318 
L 433.211986 146.177645 
L 433.211986 146.617308 
L 434.970641 148.375962 
L 434.970641 148.815626 
L 435.849968 149.694953 
L 436.289631 149.694953 
L 436.289631 150.134617 
L 438.487949 152.332934 
L 438.927612 152.332934 
L 438.927612 152.772598 
L 439.80694 153.651925 
L 440.246603 153.651925 
L 440.686267 154.091588 
L 440.686267 154.531252 
L 441.12593 154.970916 
L 441.565594 154.970916 
L 441.565594 155.410579 
L 442.005257 155.410579 
L 442.884584 156.289906 
L 443.324248 156.289906 
L 446.401893 159.367551 
L 446.401893 159.807214 
L 446.841556 160.686542 
L 448.160547 162.005532 
L 449.479537 164.643513 
L 449.919201 165.083177 
L 450.798528 166.841831 
L 450.798528 167.281495 
L 450.798528 167.281495 
" style="fill:none;stroke:#8c8c8c;stroke-linecap:square;"/>
   </g>
   <g id="line2d_13">
    <path clip-path="url(#peeeac937f3)" d="M 409.909819 134.746393 
L 410.349482 135.186056 
L 410.789146 135.62572 
L 411.228809 136.065383 
L 411.668473 136.505047 
L 411.668473 136.94471 
L 412.108137 136.94471 
L 412.108137 137.384374 
L 412.5478 137.384374 
L 412.987464 137.824038 
L 413.427127 138.263701 
L 413.866791 138.703365 
L 413.866791 139.143028 
L 414.746118 139.582692 
L 415.185781 140.462019 
L 415.625445 140.901682 
L 416.065108 141.341346 
L 416.065108 141.781009 
L 416.504772 142.220673 
L 416.944435 142.660336 
L 417.384099 143.1 
L 417.823763 143.979327 
L 418.263426 144.418991 
L 418.70309 144.858654 
L 418.70309 145.298318 
L 419.142753 145.737981 
L 419.582417 146.177645 
L 419.582417 146.617308 
L 420.02208 146.617308 
L 420.461744 147.496635 
L 420.461744 147.936299 
L 420.901407 148.375962 
L 421.341071 148.815626 
L 421.780734 149.25529 
L 422.220398 150.134617 
L 422.660061 150.134617 
L 423.099725 150.57428 
L 423.099725 151.013944 
L 423.539389 151.453607 
L 423.979052 151.453607 
L 424.418716 151.893271 
L 424.418716 152.332934 
L 424.858379 152.332934 
L 424.858379 152.772598 
L 425.298043 152.772598 
L 425.298043 153.212261 
L 425.737706 153.212261 
L 425.737706 153.651925 
L 425.737706 154.091588 
L 426.17737 154.091588 
L 426.17737 154.531252 
L 426.617033 154.531252 
L 426.617033 154.970916 
L 427.056697 155.410579 
L 427.056697 155.850243 
L 427.49636 155.850243 
L 427.49636 156.289906 
L 427.49636 156.72957 
L 427.936024 157.169233 
L 427.936024 157.608897 
L 428.375687 158.04856 
L 428.375687 158.488224 
L 428.815351 158.927887 
L 428.815351 159.367551 
L 428.815351 159.807214 
L 429.255015 159.807214 
L 429.255015 160.246878 
L 429.255015 160.686542 
L 429.694678 161.126205 
L 429.694678 161.565869 
L 430.134342 162.005532 
L 430.134342 162.445196 
L 430.574005 162.445196 
L 430.574005 162.884859 
L 430.574005 163.324523 
L 431.013669 163.764186 
L 431.453332 163.764186 
L 431.453332 164.20385 
L 432.332659 165.083177 
L 432.332659 165.522841 
L 432.772323 165.522841 
L 433.211986 165.962504 
L 434.091313 166.841831 
L 434.530977 167.281495 
L 434.970641 167.721158 
L 435.410304 168.160822 
L 435.849968 168.160822 
L 436.289631 169.040149 
L 436.729295 169.040149 
L 437.168958 169.479812 
L 438.048285 170.359139 
L 438.487949 170.798803 
L 439.367276 171.238467 
L 439.80694 172.117794 
L 441.12593 172.997121 
L 441.565594 173.436784 
" style="fill:none;stroke:#8c8c8c;stroke-linecap:square;"/>
   </g>
   <g id="line2d_14">
    <path clip-path="url(#peeeac937f3)" d="M 56.859997 97.814655 
L 56.859997 97.374992 
L 58.618651 97.374992 
L 58.618651 96.935328 
L 66.092931 96.935328 
L 66.532595 97.374992 
L 66.972258 97.374992 
L 66.972258 97.814655 
L 67.411922 97.814655 
L 67.411922 98.254319 
L 67.851585 98.254319 
L 67.851585 98.693983 
L 68.291249 98.693983 
L 68.291249 99.133646 
L 69.170576 100.012973 
L 69.170576 100.452637 
L 70.049903 101.331964 
L 70.049903 101.771627 
L 70.489566 101.771627 
L 70.489566 103.090618 
L 70.92923 103.090618 
L 70.92923 103.530281 
L 71.368894 103.969945 
L 71.368894 105.288936 
L 71.808557 105.288936 
L 71.808557 107.04759 
L 72.248221 107.487253 
L 72.248221 108.806244 
L 72.687884 109.245907 
L 72.687884 110.564898 
L 73.127548 111.004562 
L 73.127548 112.763216 
L 73.567211 113.202879 
L 73.567211 114.52187 
L 74.006875 114.961533 
L 74.006875 116.280524 
L 74.446538 117.159851 
L 74.446538 118.039178 
L 74.886202 118.478842 
L 74.886202 118.918505 
L 75.325865 119.358169 
L 75.325865 120.237496 
L 75.765529 120.677159 
L 75.765529 121.99615 
L 76.205192 122.435814 
L 76.205192 123.315141 
L 76.644856 124.194468 
L 76.644856 125.073795 
L 77.08452 125.953122 
L 77.08452 127.272113 
L 77.524183 127.711776 
L 77.524183 128.591103 
L 77.963847 129.47043 
L 77.963847 130.789421 
L 78.40351 131.229084 
L 78.40351 134.746393 
L 78.843174 135.186056 
L 78.843174 139.582692 
L 79.282837 140.022355 
L 79.282837 144.418991 
L 79.722501 144.858654 
L 79.722501 147.056972 
L 80.162164 147.496635 
L 80.162164 149.25529 
L 80.601828 149.694953 
L 80.601828 150.57428 
L 81.041491 150.57428 
L 81.041491 151.453607 
L 81.481155 151.453607 
L 81.481155 152.332934 
L 81.920819 152.332934 
L 81.920819 152.772598 
L 82.800146 153.651925 
L 82.800146 154.091588 
L 83.239809 154.091588 
L 83.679473 154.970916 
L 84.119136 154.970916 
L 84.5588 155.410579 
L 84.998463 155.410579 
L 84.998463 155.850243 
L 85.438127 155.850243 
L 85.438127 156.289906 
L 86.317454 156.289906 
L 86.317454 156.72957 
L 87.196781 156.72957 
L 87.196781 157.169233 
L 87.636445 157.169233 
L 88.076108 157.608897 
L 88.955435 157.608897 
L 88.955435 158.04856 
L 89.834762 158.04856 
L 90.274426 158.488224 
L 93.352071 158.488224 
L 93.352071 158.04856 
L 94.231398 158.04856 
L 94.231398 157.608897 
L 94.671061 157.608897 
L 94.671061 157.169233 
L 95.110725 157.169233 
L 95.110725 156.72957 
L 95.550388 156.72957 
L 95.550388 156.289906 
L 95.990052 156.289906 
L 95.990052 155.850243 
L 96.869379 154.970916 
L 96.869379 154.531252 
L 97.309042 154.531252 
L 97.309042 154.091588 
L 97.748706 154.091588 
L 97.748706 153.651925 
L 99.50736 151.893271 
L 99.50736 151.453607 
L 99.947024 151.453607 
L 100.826351 150.57428 
L 100.826351 150.134617 
L 101.266014 149.694953 
L 101.705678 149.694953 
L 102.145341 149.25529 
L 102.585005 148.375962 
L 103.464332 147.496635 
L 103.464332 147.056972 
L 103.903995 146.617308 
L 104.343659 145.737981 
L 105.66265 144.418991 
L 105.66265 143.979327 
L 106.102313 143.1 
L 107.421304 141.781009 
L 107.421304 141.341346 
L 107.860967 140.901682 
L 107.860967 140.462019 
L 108.300631 140.462019 
L 108.300631 140.022355 
L 109.179958 139.143028 
L 109.179958 138.703365 
L 109.619621 138.703365 
L 110.059285 138.263701 
L 110.059285 137.384374 
L 110.498949 136.94471 
L 110.938612 136.94471 
L 110.938612 136.505047 
L 111.378276 136.065383 
L 111.378276 135.62572 
L 111.817939 135.62572 
L 111.817939 134.746393 
L 112.257603 134.746393 
L 112.257603 133.867066 
L 113.13693 132.987739 
L 113.13693 132.548075 
L 113.576593 132.108412 
L 113.576593 131.229084 
L 114.016257 131.229084 
L 114.016257 130.789421 
L 114.45592 130.349757 
L 114.45592 129.47043 
L 114.895584 129.030767 
L 115.335247 128.15144 
L 115.335247 127.272113 
L 116.214575 126.392786 
L 116.214575 125.513458 
L 116.654238 125.073795 
L 116.654238 124.194468 
L 117.093902 123.754804 
L 117.093902 122.875477 
L 117.973229 121.99615 
L 117.973229 121.556487 
L 118.412892 121.116823 
L 118.412892 120.677159 
L 118.852556 120.237496 
L 118.852556 119.797832 
L 119.292219 119.797832 
L 119.292219 119.358169 
L 119.731883 118.918505 
L 119.731883 118.478842 
L 120.171546 118.478842 
L 120.171546 118.039178 
L 120.61121 118.039178 
L 120.61121 117.599515 
L 121.050874 117.599515 
L 121.050874 117.159851 
L 122.369864 117.159851 
L 122.369864 117.599515 
L 122.809528 117.599515 
L 122.809528 119.797832 
L 123.249191 119.797832 
L 123.249191 121.116823 
L 123.688855 121.556487 
L 123.688855 121.99615 
L 124.568182 122.875477 
L 124.568182 123.315141 
L 125.007845 123.315141 
L 125.007845 123.754804 
L 125.887172 123.754804 
L 125.887172 124.194468 
L 126.326836 124.194468 
L 126.7665 124.634131 
L 127.645827 124.634131 
L 128.08549 124.194468 
L 128.525154 124.194468 
L 128.525154 123.754804 
L 128.964817 123.315141 
L 128.964817 122.875477 
L 129.404481 122.435814 
L 129.404481 121.99615 
L 129.844144 121.556487 
L 129.844144 121.116823 
L 130.283808 120.237496 
L 130.283808 119.797832 
L 130.723471 119.358169 
L 130.723471 118.039178 
L 131.163135 117.599515 
L 131.163135 114.961533 
L 131.602798 114.961533 
L 131.602798 111.883889 
L 132.042462 111.444225 
L 132.042462 110.125235 
L 132.482126 110.125235 
L 132.482126 109.245907 
L 132.921789 108.806244 
L 132.921789 108.36658 
L 133.801116 108.36658 
L 133.801116 107.926917 
L 135.55977 107.926917 
L 135.55977 108.36658 
L 135.999434 108.36658 
L 135.999434 108.806244 
L 136.439097 109.245907 
L 136.439097 110.564898 
L 136.878761 110.564898 
L 136.878761 111.883889 
L 137.318424 111.883889 
L 137.318424 112.763216 
L 137.758088 112.763216 
L 137.758088 113.202879 
L 138.197752 113.202879 
L 138.197752 113.642543 
L 139.077079 114.52187 
L 139.077079 114.961533 
L 139.516742 114.961533 
L 139.956406 115.401197 
L 140.396069 115.401197 
L 140.396069 115.840861 
L 140.835733 115.840861 
L 141.275396 116.280524 
L 142.154723 116.280524 
L 142.594387 116.720188 
L 143.03405 116.720188 
L 143.03405 116.280524 
L 143.913378 116.280524 
L 144.353041 115.840861 
L 144.792705 115.840861 
L 145.232368 115.401197 
L 145.232368 114.961533 
L 145.672032 114.961533 
L 146.111695 114.52187 
L 146.551359 113.642543 
L 146.991022 113.202879 
L 146.991022 112.763216 
L 147.430686 112.323552 
L 147.430686 111.883889 
L 147.870349 111.444225 
L 147.870349 110.564898 
L 148.310013 110.125235 
L 148.310013 108.806244 
L 148.749676 108.36658 
L 148.749676 99.133646 
L 149.18934 98.693983 
L 149.18934 97.374992 
L 149.629004 96.935328 
L 149.629004 96.056001 
L 150.068667 96.056001 
L 150.068667 95.176674 
L 150.508331 95.176674 
L 150.508331 94.737011 
L 150.947994 94.297347 
L 150.947994 93.857684 
L 151.387658 93.41802 
L 151.387658 92.978357 
L 151.827321 92.978357 
L 151.827321 92.538693 
L 152.266985 92.538693 
L 152.266985 91.659366 
L 152.706648 91.659366 
L 152.706648 91.219702 
L 153.146312 91.219702 
L 153.146312 90.780039 
L 153.585975 90.340375 
L 154.025639 90.340375 
L 154.025639 89.900712 
L 154.465302 89.900712 
L 154.465302 89.461048 
L 154.904966 89.461048 
L 154.904966 89.021385 
L 157.982611 85.94374 
L 158.422274 85.94374 
L 158.422274 85.504076 
L 158.861938 85.504076 
L 158.861938 85.064413 
L 159.301601 85.064413 
L 159.741265 84.624749 
L 160.180929 84.624749 
L 160.620592 84.185086 
L 161.939583 84.185086 
L 161.939583 83.745422 
L 169.413863 83.745422 
L 169.853526 84.185086 
L 178.646797 84.185086 
L 179.086461 84.624749 
L 179.965788 84.624749 
L 180.405451 85.064413 
L 180.405451 85.504076 
L 180.845115 85.504076 
L 180.845115 86.823067 
L 181.284778 87.702394 
L 181.284778 89.021385 
L 181.724442 89.900712 
L 181.724442 93.41802 
L 182.164105 94.297347 
L 182.164105 100.012973 
L 182.603769 101.331964 
L 182.603769 102.650954 
L 183.043433 103.969945 
L 183.483096 104.849272 
L 183.483096 106.168263 
L 183.92276 107.487253 
L 183.92276 108.36658 
L 184.362423 108.806244 
L 184.362423 109.685571 
L 184.802087 111.004562 
L 185.24175 111.883889 
L 185.24175 112.763216 
L 185.681414 113.642543 
L 185.681414 114.961533 
L 186.121077 115.840861 
L 186.121077 117.599515 
L 186.560741 118.478842 
L 187.000404 119.797832 
L 187.879731 122.875477 
L 188.319395 123.754804 
L 188.759059 125.953122 
L 189.198722 126.832449 
L 190.078049 129.910094 
L 190.517713 130.789421 
L 191.39704 133.427402 
L 191.836703 135.186056 
L 192.276367 136.065383 
L 192.276367 137.384374 
L 192.71603 138.263701 
L 193.595357 139.582692 
L 194.035021 141.341346 
L 194.914348 143.1 
L 195.354012 144.418991 
L 195.793675 145.298318 
L 196.233339 146.617308 
L 196.233339 147.056972 
L 199.750647 154.091588 
L 200.190311 154.531252 
L 200.190311 154.970916 
L 201.069638 155.850243 
L 201.509301 156.72957 
L 202.388628 157.608897 
L 202.828292 158.488224 
L 204.147282 159.807214 
L 205.02661 160.246878 
L 206.3456 160.686542 
L 212.940553 160.686542 
L 214.259544 160.246878 
L 216.457862 160.246878 
L 219.535506 159.367551 
L 222.173488 159.367551 
L 226.570123 158.927887 
L 232.725412 158.927887 
L 234.484067 159.367551 
L 237.122048 160.686542 
L 237.122048 160.686542 
" style="fill:none;stroke:#8c8c8c;stroke-linecap:square;"/>
   </g>
   <g id="line2d_15">
    <path clip-path="url(#peeeac937f3)" d="M 34.87682 127.711776 
L 34.437156 127.272113 
L 34.437156 127.711776 
L 33.997493 127.711776 
L 33.557829 127.711776 
L 33.557829 128.15144 
L 33.118166 128.591103 
L 33.118166 129.030767 
L 32.678502 129.47043 
L 32.678502 129.910094 
L 32.678502 130.349757 
L 32.678502 130.789421 
L 32.678502 131.229084 
L 33.118166 131.668748 
L 33.557829 132.108412 
L 33.997493 132.108412 
L 34.437156 132.108412 
L 34.87682 131.668748 
L 34.87682 131.229084 
L 35.316483 130.789421 
L 35.756147 129.910094 
L 35.756147 129.47043 
L 36.19581 128.591103 
L 36.19581 127.711776 
L 36.19581 127.272113 
L 35.756147 126.392786 
L 35.756147 125.073795 
L 35.316483 124.194468 
L 34.87682 123.315141 
L 33.997493 121.556487 
L 33.118166 120.677159 
L 32.678502 120.237496 
L 31.799175 119.358169 
L 31.359511 118.918505 
L 30.919848 118.039178 
L 30.480184 118.039178 
L 30.480184 117.599515 
L 30.480184 117.159851 
L 30.480184 116.720188 
L 30.480184 116.280524 
L 30.919848 116.280524 
" style="fill:none;stroke:#8c8c8c;stroke-linecap:square;"/>
   </g>
   <g id="line2d_16">
    <path clip-path="url(#peeeac937f3)" d="M 34.87682 116.720188 
L 34.87682 117.159851 
L 35.316483 117.159851 
L 35.316483 117.599515 
L 35.756147 118.039178 
L 35.756147 118.478842 
L 36.19581 118.918505 
L 36.19581 119.358169 
L 36.635474 119.358169 
L 36.635474 119.797832 
L 36.635474 120.237496 
" style="fill:none;stroke:#8c8c8c;stroke-linecap:square;"/>
   </g>
   <g id="line2d_17">
    <path clip-path="url(#peeeac937f3)" d="M 36.635474 116.720188 
L 36.635474 116.280524 
L 36.635474 115.840861 
L 36.635474 115.401197 
L 36.635474 115.840861 
L 37.075137 115.840861 
L 37.075137 116.280524 
L 37.514801 116.280524 
L 37.954465 116.280524 
L 38.394128 116.720188 
L 38.833792 116.720188 
L 38.833792 116.280524 
L 39.273455 116.280524 
L 39.273455 115.840861 
L 39.273455 115.401197 
L 39.273455 114.961533 
L 39.273455 114.52187 
L 38.833792 114.52187 
L 38.833792 114.082206 
L 38.394128 114.082206 
L 37.954465 114.082206 
" style="fill:none;stroke:#8c8c8c;stroke-linecap:square;"/>
   </g>
   <g id="line2d_18">
    <path clip-path="url(#peeeac937f3)" d="M 39.273455 116.720188 
L 39.273455 117.159851 
L 39.273455 117.599515 
L 39.713119 118.039178 
L 39.713119 118.478842 
L 40.152782 118.478842 
L 40.592446 118.918505 
L 41.032109 118.918505 
L 41.471773 118.918505 
L 41.471773 118.478842 
L 41.911436 118.478842 
L 41.911436 118.039178 
L 41.911436 117.599515 
L 41.911436 117.159851 
L 41.471773 116.720188 
L 41.032109 116.280524 
L 40.592446 116.280524 
" style="fill:none;stroke:#8c8c8c;stroke-linecap:square;"/>
   </g>
   <g id="line2d_19">
    <path clip-path="url(#peeeac937f3)" d="M 46.308072 118.478842 
L 46.747735 118.918505 
L 46.308072 118.918505 
L 46.308072 119.358169 
L 46.308072 119.797832 
L 46.308072 120.677159 
L 46.308072 121.556487 
L 46.308072 121.99615 
L 46.308072 122.875477 
L 46.747735 124.194468 
L 47.187399 125.073795 
L 47.627062 125.513458 
L 48.50639 126.392786 
L 48.946053 126.832449 
L 49.82538 127.272113 
L 50.265044 127.272113 
L 50.704707 126.832449 
L 51.584034 126.392786 
L 52.023698 125.953122 
L 52.023698 125.513458 
L 52.463361 124.194468 
L 52.463361 123.754804 
L 52.023698 122.435814 
L 51.584034 121.99615 
L 51.144371 121.116823 
L 51.144371 120.677159 
L 50.704707 120.237496 
L 50.265044 120.237496 
L 49.82538 119.797832 
L 49.385717 119.797832 
L 48.50639 120.237496 
L 48.066726 120.237496 
L 47.187399 120.677159 
L 46.747735 120.677159 
L 46.308072 120.677159 
" style="fill:none;stroke:#8c8c8c;stroke-linecap:square;"/>
   </g>
   <g id="line2d_20">
    <path clip-path="url(#peeeac937f3)" d="M 65.213604 85.94374 
L 64.77394 85.94374 
L 65.213604 85.94374 
L 65.213604 85.504076 
L 65.653268 84.624749 
L 66.532595 83.305759 
L 67.851585 81.107441 
L 68.730912 80.228114 
L 70.049903 77.150469 
L 70.92923 74.952151 
L 72.248221 73.193497 
L 73.567211 70.115852 
L 74.446538 68.357198 
L 75.325865 66.158881 
L 75.765529 64.83989 
L 76.205192 63.081236 
L 76.644856 62.641572 
L 77.08452 61.762245 
L 77.08452 61.322582 
L 77.08452 60.882918 
" style="fill:none;stroke:#8c8c8c;stroke-linecap:square;"/>
   </g>
   <g id="line2d_21">
    <path clip-path="url(#peeeac937f3)" d="M 64.77394 79.78845 
L 64.77394 79.348787 
L 64.77394 79.78845 
L 65.213604 79.78845 
L 65.213604 80.228114 
L 65.213604 80.667777 
L 65.213604 81.547104 
L 65.213604 82.426432 
L 65.653268 83.305759 
L 65.653268 84.185086 
L 66.092931 85.504076 
L 66.532595 86.383403 
L 66.972258 86.823067 
L 67.411922 87.262731 
L 67.851585 87.262731 
L 68.730912 86.823067 
L 69.170576 86.383403 
L 70.049903 85.504076 
L 70.489566 84.624749 
" style="fill:none;stroke:#8c8c8c;stroke-linecap:square;"/>
   </g>
   <g id="line2d_22">
    <path clip-path="url(#peeeac937f3)" d="M 77.524183 53.408638 
L 77.524183 52.968974 
L 77.524183 52.529311 
L 77.524183 52.089647 
L 77.524183 52.529311 
L 77.524183 52.968974 
L 77.963847 53.848302 
L 77.963847 55.167292 
L 78.40351 56.046619 
L 78.843174 57.36561 
L 79.282837 59.124264 
L 79.722501 60.003591 
L 80.162164 60.882918 
L 80.601828 61.322582 
L 80.601828 61.762245 
L 81.041491 62.201909 
" style="fill:none;stroke:#8c8c8c;stroke-linecap:square;"/>
   </g>
   <g id="line2d_23">
    <path clip-path="url(#peeeac937f3)" d="M 76.205192 58.244937 
L 76.644856 58.244937 
L 77.08452 58.244937 
L 77.08452 57.805273 
L 77.963847 57.805273 
L 79.282837 56.925946 
L 80.601828 56.486283 
L 81.481155 56.046619 
L 82.360482 56.046619 
" style="fill:none;stroke:#8c8c8c;stroke-linecap:square;"/>
   </g>
   <g id="line2d_24">
    <path clip-path="url(#peeeac937f3)" d="M 86.757117 52.968974 
L 86.317454 52.968974 
L 85.87779 52.968974 
L 85.87779 53.408638 
L 85.438127 53.408638 
L 84.998463 54.287965 
L 84.5588 54.727629 
L 84.5588 55.606956 
L 84.5588 56.486283 
L 84.5588 56.925946 
L 84.998463 57.36561 
L 85.438127 57.805273 
L 85.87779 57.805273 
L 86.757117 57.36561 
L 87.196781 57.36561 
L 87.636445 56.925946 
L 88.076108 56.046619 
L 88.076108 55.606956 
L 88.076108 55.167292 
L 88.076108 54.727629 
L 88.076108 54.287965 
L 88.076108 53.408638 
L 87.636445 53.408638 
L 87.196781 52.968974 
L 87.196781 53.408638 
L 86.757117 53.408638 
" style="fill:none;stroke:#8c8c8c;stroke-linecap:square;"/>
   </g>
   <g id="line2d_25">
    <path clip-path="url(#peeeac937f3)" d="M 91.593416 52.968974 
L 91.593416 52.529311 
L 91.153753 52.529311 
L 90.714089 52.529311 
L 90.714089 52.968974 
L 90.274426 52.968974 
L 90.274426 53.408638 
L 89.834762 53.848302 
L 89.834762 55.167292 
L 89.834762 56.046619 
L 89.834762 56.925946 
L 90.274426 57.36561 
L 90.714089 57.805273 
L 91.153753 58.244937 
L 91.593416 58.244937 
L 92.03308 58.244937 
L 92.472743 57.805273 
L 92.912407 57.36561 
L 92.912407 56.046619 
L 93.352071 55.167292 
L 93.352071 54.287965 
L 92.912407 52.529311 
L 92.472743 50.770657 
L 92.03308 49.89133 
L 91.593416 48.572339 
L 91.153753 47.693012 
L 91.153753 46.813685 
L 90.714089 45.934358 
L 90.714089 45.494694 
L 90.274426 45.494694 
L 90.714089 45.494694 
L 90.714089 45.934358 
L 91.153753 46.374021 
L 91.593416 47.253348 
L 92.472743 48.572339 
L 92.912407 49.89133 
L 93.791734 51.649984 
L 94.671061 53.408638 
L 95.110725 54.287965 
L 95.550388 54.727629 
L 95.990052 55.167292 
L 96.429715 55.606956 
" style="fill:none;stroke:#8c8c8c;stroke-linecap:square;"/>
   </g>
   <g id="line2d_26">
    <path clip-path="url(#peeeac937f3)" d="M 99.50736 48.132676 
L 99.50736 48.572339 
L 99.947024 48.572339 
L 99.947024 49.012003 
L 99.947024 49.451666 
L 99.947024 49.89133 
L 99.947024 50.330993 
L 100.386687 50.770657 
L 100.826351 51.649984 
L 100.826351 52.089647 
L 100.826351 52.529311 
L 101.266014 52.968974 
L 101.266014 53.408638 
L 101.705678 53.408638 
L 101.705678 52.968974 
L 101.266014 52.529311 
L 101.266014 52.089647 
L 101.266014 51.649984 
L 100.826351 51.21032 
L 100.386687 50.770657 
L 99.947024 50.330993 
L 99.50736 49.451666 
L 99.067697 49.451666 
L 98.628033 49.451666 
L 98.188369 49.451666 
L 97.748706 49.89133 
L 97.309042 50.330993 
L 96.869379 51.21032 
L 96.869379 51.649984 
L 96.869379 52.529311 
L 96.869379 53.408638 
L 97.309042 53.408638 
L 97.748706 53.848302 
" style="fill:none;stroke:#8c8c8c;stroke-linecap:square;"/>
   </g>
   <g id="line2d_27">
    <path clip-path="url(#peeeac937f3)" d="M 102.585005 49.89133 
L 102.585005 49.451666 
L 103.024668 49.89133 
L 103.024668 50.330993 
L 103.024668 50.770657 
L 103.464332 51.21032 
L 103.903995 51.21032 
L 104.343659 51.649984 
L 104.783323 51.21032 
L 105.222986 51.21032 
L 105.66265 50.770657 
L 105.66265 50.330993 
L 106.102313 50.330993 
L 106.102313 49.89133 
L 106.102313 49.451666 
L 106.102313 49.012003 
L 106.541977 49.012003 
L 106.541977 49.451666 
L 106.98164 49.89133 
L 107.421304 50.770657 
L 107.860967 51.649984 
L 108.300631 52.529311 
L 109.179958 54.287965 
L 109.619621 55.606956 
L 110.059285 56.046619 
L 110.498949 56.925946 
L 110.498949 57.36561 
L 110.938612 57.805273 
" style="fill:none;stroke:#8c8c8c;stroke-linecap:square;"/>
   </g>
   <g id="line2d_28">
    <path clip-path="url(#peeeac937f3)" d="M 173.810498 66.158881 
L 173.370835 66.158881 
L 173.370835 66.598544 
L 173.810498 66.158881 
L 174.250162 65.719217 
L 174.689825 65.279554 
L 175.569152 63.960563 
L 177.327807 61.762245 
L 178.646797 60.003591 
L 180.845115 56.925946 
L 182.164105 54.727629 
L 183.92276 52.089647 
L 184.362423 51.21032 
L 185.681414 49.012003 
L 187.000404 47.693012 
L 187.440068 46.813685 
L 187.879731 46.374021 
L 188.319395 45.494694 
L 188.319395 45.055031 
L 187.879731 45.055031 
" style="fill:none;stroke:#8c8c8c;stroke-linecap:square;"/>
   </g>
   <g id="line2d_29">
    <path clip-path="url(#peeeac937f3)" d="M 172.931171 60.443255 
L 172.931171 60.882918 
L 172.931171 61.762245 
L 172.931171 64.400226 
L 172.931171 65.719217 
L 173.370835 67.038208 
L 173.810498 67.917535 
L 175.129489 68.357198 
L 176.008816 68.796862 
L 177.327807 68.796862 
L 179.086461 67.917535 
L 180.405451 67.477871 
L 181.284778 66.598544 
L 181.724442 66.158881 
" style="fill:none;stroke:#8c8c8c;stroke-linecap:square;"/>
   </g>
   <g id="line2d_30">
    <path clip-path="url(#peeeac937f3)" d="M 178.646797 28.78748 
L 178.646797 28.347816 
L 178.646797 28.78748 
L 179.086461 29.227143 
L 179.526124 30.546134 
L 179.526124 31.425461 
L 180.405451 32.744452 
L 180.845115 34.063442 
L 180.845115 34.503106 
L 181.284778 35.822096 
L 181.724442 36.26176 
L 182.164105 36.701423 
L 182.164105 37.141087 
" style="fill:none;stroke:#8c8c8c;stroke-linecap:square;"/>
   </g>
   <g id="line2d_31">
    <path clip-path="url(#peeeac937f3)" d="M 181.284778 30.10647 
L 181.284778 29.227143 
L 181.724442 28.78748 
L 182.164105 28.347816 
L 183.043433 27.468489 
L 183.483096 27.468489 
L 183.92276 27.028826 
L 184.802087 26.589162 
L 185.24175 26.589162 
L 185.681414 26.589162 
L 186.121077 26.589162 
L 186.121077 27.028826 
L 186.121077 27.468489 
L 186.121077 28.347816 
L 185.681414 29.666807 
L 184.802087 31.425461 
L 184.802087 31.865125 
L 184.362423 33.623779 
L 184.362423 34.503106 
L 184.802087 35.382433 
L 185.24175 35.822096 
L 185.681414 35.822096 
L 187.000404 36.26176 
L 187.879731 35.822096 
L 189.198722 35.822096 
L 189.638386 35.382433 
L 190.517713 34.942769 
L 191.39704 34.063442 
L 191.39704 33.623779 
L 191.836703 33.184115 
" style="fill:none;stroke:#8c8c8c;stroke-linecap:square;"/>
   </g>
   <g id="line2d_32">
    <path clip-path="url(#peeeac937f3)" d="M 194.035021 24.830508 
L 194.035021 24.390844 
L 193.595357 24.390844 
L 193.155694 24.390844 
L 193.155694 24.830508 
L 192.71603 24.830508 
L 191.836703 25.270171 
L 191.39704 25.709835 
L 191.39704 26.149499 
L 190.957376 26.589162 
L 190.957376 27.028826 
L 190.957376 27.468489 
L 191.39704 27.908153 
L 191.836703 27.908153 
L 192.71603 27.908153 
L 193.595357 27.908153 
L 194.474685 27.908153 
L 195.354012 27.908153 
L 196.233339 28.347816 
L 197.112666 28.347816 
L 197.552329 28.78748 
L 197.991993 29.227143 
L 198.431656 29.666807 
L 198.87132 30.10647 
L 198.87132 30.546134 
L 198.87132 31.425461 
L 198.431656 31.865125 
L 197.552329 31.865125 
L 197.112666 32.304788 
L 196.233339 31.865125 
L 195.793675 31.865125 
" style="fill:none;stroke:#8c8c8c;stroke-linecap:square;"/>
   </g>
   <g id="line2d_33">
    <path clip-path="url(#peeeac937f3)" d="M 190.517713 26.149499 
L 191.39704 25.709835 
L 191.39704 25.270171 
L 192.276367 24.830508 
L 193.595357 24.390844 
L 194.474685 23.951181 
L 195.793675 23.511517 
L 196.233339 23.071854 
L 197.112666 22.63219 
L 197.991993 22.192527 
L 198.431656 22.192527 
L 198.87132 21.752863 
L 199.310984 21.752863 
" style="fill:none;stroke:#8c8c8c;stroke-linecap:square;"/>
   </g>
   <g id="line2d_34">
    <path clip-path="url(#peeeac937f3)" d="M 201.069638 19.554545 
L 201.069638 19.994209 
L 201.069638 20.433873 
L 201.069638 20.873536 
L 201.509301 20.873536 
L 201.509301 21.752863 
L 201.948965 22.63219 
L 202.388628 23.951181 
L 203.267955 25.270171 
L 203.707619 27.028826 
L 204.147282 27.908153 
L 204.586946 28.78748 
L 204.586946 29.666807 
L 205.02661 30.546134 
L 205.02661 30.985797 
" style="fill:none;stroke:#8c8c8c;stroke-linecap:square;"/>
   </g>
   <g id="line2d_35">
    <path clip-path="url(#peeeac937f3)" d="M 205.905937 24.390844 
L 205.905937 23.951181 
L 205.466273 23.951181 
L 205.466273 24.390844 
L 205.02661 24.830508 
L 204.586946 25.270171 
L 204.586946 25.709835 
L 204.147282 25.709835 
L 204.147282 26.589162 
L 204.147282 27.028826 
L 204.586946 27.028826 
L 204.586946 27.468489 
L 205.02661 27.468489 
L 205.466273 27.468489 
L 205.905937 27.908153 
L 206.785264 27.908153 
L 207.224927 27.908153 
L 208.104254 28.347816 
L 208.543918 28.347816 
L 208.983581 28.347816 
L 209.423245 28.347816 
" style="fill:none;stroke:#8c8c8c;stroke-linecap:square;"/>
   </g>
   <g id="line2d_36">
    <path clip-path="url(#peeeac937f3)" d="M 210.742236 27.028826 
L 211.181899 27.028826 
L 211.621563 27.468489 
L 212.061226 27.468489 
L 212.50089 27.908153 
L 212.940553 27.908153 
L 213.380217 27.908153 
L 213.81988 27.468489 
L 214.259544 27.468489 
L 214.259544 27.028826 
L 214.699207 26.589162 
L 214.699207 26.149499 
L 215.138871 25.709835 
L 215.138871 25.270171 
L 215.138871 24.830508 
L 215.578534 25.270171 
L 215.578534 25.709835 
L 215.578534 26.149499 
L 216.018198 27.468489 
L 216.457862 28.78748 
L 216.897525 30.10647 
L 217.776852 32.304788 
L 218.656179 34.503106 
L 219.095843 35.382433 
L 219.535506 36.26176 
L 219.97517 37.141087 
L 219.97517 37.580751 
L 220.414833 37.580751 
L 219.97517 37.580751 
L 219.535506 37.141087 
" style="fill:none;stroke:#8c8c8c;stroke-linecap:square;"/>
   </g>
   <g id="line2d_37">
    <path clip-path="url(#peeeac937f3)" d="M 184.362423 82.426432 
L 184.362423 82.866095 
L 184.802087 82.866095 
L 185.24175 82.866095 
L 185.681414 82.426432 
L 186.121077 82.426432 
L 187.440068 81.986768 
L 187.879731 81.547104 
L 189.638386 80.667777 
L 191.39704 79.78845 
L 192.71603 78.909123 
L 194.035021 78.029796 
L 195.793675 76.710806 
L 198.87132 74.952151 
L 201.069638 73.193497 
L 203.707619 71.434843 
L 208.543918 68.357198 
L 212.940553 65.719217 
L 216.018198 64.400226 
L 220.414833 62.201909 
L 221.733824 61.322582 
L 226.130459 59.124264 
L 229.208104 57.36561 
L 232.285749 55.606956 
L 236.682384 53.408638 
L 239.320366 52.089647 
L 243.277337 49.89133 
L 245.915319 48.572339 
L 249.872291 46.813685 
L 252.510272 45.934358 
L 254.708589 45.055031 
L 258.225898 43.73604 
L 260.424215 42.856713 
L 262.18287 42.417049 
L 265.260514 41.537722 
L 267.458832 40.658395 
L 270.536477 40.218732 
L 272.734795 39.779068 
L 275.372776 39.339405 
L 277.13143 38.899741 
L 278.890084 38.899741 
L 280.209075 38.899741 
L 282.407392 38.899741 
L 284.166047 38.899741 
L 285.485037 38.899741 
L 286.364364 39.339405 
L 287.683355 39.339405 
L 289.442009 39.779068 
L 290.761 39.779068 
L 292.959317 39.779068 
L 294.278308 39.779068 
L 295.597299 39.779068 
L 297.795616 39.779068 
L 299.114607 39.779068 
L 301.752588 39.339405 
L 303.071579 39.339405 
L 304.390569 38.899741 
L 307.028551 38.020414 
L 308.787205 37.580751 
L 311.425186 36.701423 
L 312.744177 36.26176 
L 314.502831 35.382433 
L 317.140812 34.063442 
L 318.459803 33.623779 
L 319.778793 32.744452 
L 321.977111 31.425461 
L 323.296102 30.546134 
L 325.494419 29.227143 
L 326.81341 27.908153 
L 328.132401 27.028826 
L 329.891055 25.709835 
L 331.210045 24.830508 
L 332.968699 23.951181 
L 333.408363 23.071854 
L 334.28769 22.63219 
L 334.727354 22.192527 
L 335.167017 21.752863 
L 335.167017 21.3132 
L 335.606681 21.3132 
" style="fill:none;stroke:#8c8c8c;stroke-linecap:square;"/>
   </g>
   <g id="line2d_38">
    <path clip-path="url(#peeeac937f3)" d="M 237.122048 159.807214 
L 237.561711 159.807214 
L 237.561711 159.367551 
" style="fill:none;stroke:#8c8c8c;stroke-linecap:square;"/>
   </g>
   <g id="line2d_39">
    <path clip-path="url(#peeeac937f3)" d="M 238.001375 158.927887 
L 238.001375 159.367551 
L 238.001375 159.807214 
" style="fill:none;stroke:#8c8c8c;stroke-linecap:square;"/>
   </g>
   <g id="line2d_40">
    <path clip-path="url(#peeeac937f3)" d="M 430.574005 79.78845 
L 431.013669 80.667777 
L 431.013669 81.107441 
L 431.453332 81.107441 
L 431.453332 81.547104 
L 431.892996 81.547104 
L 431.892996 81.986768 
L 432.332659 82.426432 
L 432.772323 82.866095 
L 433.211986 83.305759 
L 433.65165 83.745422 
L 434.091313 84.185086 
L 434.530977 85.064413 
L 434.970641 85.504076 
L 435.410304 85.94374 
L 435.849968 86.823067 
L 436.729295 87.702394 
L 436.729295 88.142058 
L 437.168958 88.581721 
L 437.608622 89.021385 
L 438.487949 89.900712 
L 438.487949 90.340375 
L 439.367276 91.219702 
L 439.80694 91.659366 
L 440.246603 92.099029 
L 440.686267 92.538693 
L 441.12593 92.978357 
L 441.12593 93.41802 
L 441.565594 93.857684 
L 442.005257 94.297347 
L 442.444921 95.176674 
L 442.884584 95.616338 
L 442.884584 96.056001 
L 443.324248 96.495665 
L 443.763911 97.374992 
L 444.203575 97.814655 
L 444.203575 98.254319 
L 444.643238 98.693983 
L 445.082902 99.57331 
L 445.522566 100.012973 
L 445.522566 100.452637 
L 445.962229 100.452637 
L 445.962229 100.8923 
L 446.401893 100.8923 
L 446.401893 101.331964 
L 446.841556 101.771627 
L 447.28122 102.211291 
L 447.28122 102.650954 
L 448.160547 103.530281 
L 448.160547 103.969945 
L 448.60021 104.409609 
L 449.039874 104.849272 
L 449.479537 105.728599 
L 449.919201 106.168263 
L 449.919201 106.607926 
L 450.358864 107.04759 
L 450.798528 107.926917 
L 451.238192 108.36658 
L 451.238192 108.806244 
L 451.677855 109.245907 
L 451.677855 109.685571 
L 452.117519 110.125235 
L 452.117519 110.564898 
L 452.557182 110.564898 
L 452.557182 111.004562 
L 452.996846 111.444225 
L 452.996846 111.883889 
L 453.436509 112.323552 
L 453.436509 112.763216 
L 453.876173 113.202879 
L 454.315836 113.642543 
L 454.315836 114.082206 
L 454.7555 114.082206 
L 454.7555 114.52187 
L 455.195163 114.52187 
L 455.195163 114.961533 
L 455.634827 115.401197 
L 456.07449 115.840861 
L 456.514154 115.840861 
L 456.953818 116.720188 
L 457.393481 117.159851 
L 457.833145 117.599515 
L 458.272808 118.039178 
L 458.712472 118.478842 
L 459.152135 119.358169 
L 459.591799 119.797832 
L 460.031462 120.237496 
L 460.471126 120.677159 
L 460.910789 121.116823 
L 461.350453 121.99615 
L 461.790116 122.435814 
L 462.22978 122.875477 
L 462.22978 123.315141 
L 462.669444 123.754804 
L 463.109107 124.194468 
L 463.109107 124.634131 
L 463.548771 125.073795 
L 463.988434 125.953122 
L 463.988434 126.392786 
L 464.428098 127.272113 
L 464.867761 127.711776 
L 465.307425 128.15144 
L 465.747088 129.030767 
L 466.186752 129.47043 
L 466.186752 130.349757 
L 467.066079 131.229084 
L 467.505742 131.668748 
L 467.945406 132.548075 
L 468.38507 133.427402 
L 468.824733 133.867066 
L 469.264397 134.746393 
L 469.70406 135.62572 
L 470.143724 136.065383 
L 470.143724 136.94471 
L 470.583387 137.384374 
L 471.023051 138.703365 
L 471.023051 139.143028 
L 471.462714 140.462019 
L 471.902378 141.781009 
L 471.902378 142.220673 
L 472.342041 143.1 
L 472.342041 143.979327 
L 472.781705 144.418991 
L 472.781705 145.298318 
L 472.781705 145.737981 
L 473.221368 145.737981 
" style="fill:none;stroke:#8c8c8c;stroke-linecap:square;"/>
   </g>
   <g id="line2d_41">
    <path clip-path="url(#peeeac937f3)" d="M 463.109107 76.710806 
L 463.109107 77.150469 
L 463.548771 77.590133 
L 463.988434 78.029796 
L 464.428098 78.46946 
L 464.428098 78.909123 
L 464.867761 79.348787 
L 465.307425 80.228114 
L 466.186752 81.107441 
L 466.626415 81.547104 
L 467.066079 81.986768 
L 467.505742 82.426432 
L 467.945406 82.866095 
L 468.38507 83.745422 
L 469.264397 84.185086 
L 469.70406 84.624749 
L 470.143724 85.504076 
L 470.583387 85.94374 
L 471.023051 86.383403 
L 471.462714 87.262731 
L 472.342041 88.142058 
L 472.781705 89.021385 
L 473.221368 89.461048 
L 473.661032 90.780039 
L 474.100696 91.219702 
L 474.540359 92.099029 
L 474.980023 92.978357 
L 474.980023 93.41802 
L 475.419686 94.297347 
L 475.85935 95.176674 
L 476.299013 96.056001 
L 476.738677 96.495665 
L 477.17834 97.374992 
L 477.618004 98.254319 
L 478.057667 98.693983 
L 478.497331 99.57331 
L 478.936995 100.452637 
L 479.376658 100.8923 
L 479.816322 101.331964 
L 480.255985 102.211291 
L 480.695649 102.650954 
L 480.695649 103.530281 
L 481.135312 103.969945 
L 481.574976 104.849272 
L 482.014639 105.728599 
L 482.014639 106.607926 
L 482.454303 107.04759 
L 482.454303 107.926917 
L 482.893966 108.36658 
L 483.33363 109.245907 
L 483.33363 109.685571 
L 483.773293 110.125235 
L 484.212957 110.564898 
L 485.092284 111.883889 
L 485.531948 112.323552 
L 485.971611 112.763216 
L 486.411275 113.642543 
L 486.850938 114.082206 
L 487.290602 114.52187 
L 487.290602 115.401197 
L 488.169929 116.280524 
L 488.609592 117.599515 
L 489.049256 118.039178 
L 489.488919 118.918505 
L 489.928583 119.797832 
L 490.368247 121.116823 
L 491.247574 122.435814 
L 491.247574 122.875477 
L 491.687237 123.754804 
L 492.126901 125.073795 
L 492.566564 125.513458 
L 493.006228 126.392786 
L 493.445891 126.832449 
L 493.885555 127.711776 
L 494.325218 128.591103 
L 494.764882 129.47043 
L 495.204545 129.910094 
L 495.204545 130.349757 
L 495.644209 131.229084 
L 496.083873 132.108412 
" style="fill:none;stroke:#8c8c8c;stroke-linecap:square;"/>
   </g>
   <g id="line2d_42">
    <path clip-path="url(#peeeac937f3)" d="M 401.556212 103.090618 
L 401.116548 103.090618 
L 401.116548 103.530281 
L 400.676885 103.530281 
L 400.676885 103.969945 
L 400.237221 104.409609 
L 400.237221 104.849272 
L 399.797557 104.849272 
L 399.797557 105.288936 
L 399.797557 104.849272 
L 400.237221 104.849272 
L 400.237221 104.409609 
L 400.676885 103.969945 
L 400.676885 103.530281 
L 401.116548 103.090618 
L 401.556212 102.650954 
L 401.556212 102.211291 
L 401.995875 101.771627 
L 401.995875 101.331964 
L 401.556212 101.771627 
L 401.116548 102.211291 
L 401.116548 102.650954 
L 400.676885 103.090618 
L 400.237221 103.969945 
L 399.797557 104.409609 
L 399.797557 104.849272 
L 399.357894 105.288936 
L 398.91823 105.728599 
L 398.91823 106.168263 
L 398.91823 106.607926 
L 398.478567 106.607926 
L 398.91823 106.168263 
L 398.91823 105.728599 
L 399.357894 105.288936 
L 399.357894 104.849272 
L 399.797557 104.409609 
L 399.797557 103.969945 
L 400.237221 103.530281 
L 400.237221 103.090618 
L 400.676885 103.090618 
L 400.676885 102.650954 
L 400.237221 102.650954 
L 400.237221 103.090618 
L 400.237221 103.530281 
L 400.237221 103.090618 
L 400.676885 103.090618 
L 400.676885 102.650954 
L 401.116548 102.650954 
L 401.116548 102.211291 
L 401.116548 102.650954 
L 400.676885 102.650954 
L 400.237221 103.090618 
L 399.797557 103.969945 
L 399.357894 104.409609 
L 398.91823 104.849272 
L 398.91823 105.288936 
L 398.91823 105.728599 
L 398.478567 105.728599 
L 398.91823 105.728599 
L 398.91823 105.288936 
L 399.357894 105.288936 
L 399.357894 104.849272 
L 399.797557 104.409609 
L 400.237221 103.969945 
L 400.237221 103.530281 
L 400.237221 103.090618 
L 400.676885 103.090618 
L 400.676885 102.650954 
L 400.676885 103.090618 
L 400.237221 103.530281 
L 399.797557 103.969945 
L 399.797557 104.409609 
L 399.357894 104.409609 
" style="fill:none;stroke:#8c8c8c;stroke-linecap:square;"/>
   </g>
   <g id="line2d_43">
    <path clip-path="url(#peeeac937f3)" d="M 372.538418 168.600485 
L 372.098754 168.600485 
L 370.3401 169.919476 
L 368.581446 171.238467 
L 367.702119 171.67813 
L 365.503801 172.997121 
L 364.184811 174.316111 
L 361.107166 176.074765 
L 359.348512 177.393756 
L 357.589858 178.273083 
L 355.39154 180.031737 
L 354.072549 181.350728 
L 351.874232 183.109382 
L 350.555241 184.428373 
L 349.23625 185.747363 
L 347.037933 187.945681 
L 345.279279 189.264672 
L 343.960288 190.583662 
L 342.641297 192.342316 
L 340.44298 194.540634 
L 339.123989 195.859625 
L 337.365335 198.057942 
L 336.486008 198.937269 
L 335.606681 199.816597 
L 334.727354 201.135587 
L 334.28769 201.575251 
L 333.408363 202.014914 
L 332.968699 202.014914 
L 332.529036 202.014914 
L 332.529036 201.575251 
L 332.089372 201.575251 
L 332.089372 201.135587 
L 331.649709 201.135587 
" style="fill:none;stroke:#8c8c8c;stroke-linecap:square;"/>
   </g>
   <g id="line2d_44">
    <path clip-path="url(#peeeac937f3)" d="M 333.408363 187.066354 
L 333.848027 186.62669 
L 334.28769 186.62669 
L 334.28769 187.066354 
L 334.28769 187.506017 
L 334.28769 188.385345 
L 333.848027 188.825008 
L 333.408363 190.583662 
L 332.529036 191.462989 
L 332.089372 192.78198 
L 331.210045 194.980298 
L 330.770382 196.738952 
L 330.330718 198.937269 
L 330.330718 200.695924 
L 330.330718 202.014914 
L 330.770382 203.773568 
L 331.649709 205.092559 
L 332.529036 205.971886 
L 333.848027 206.41155 
L 335.167017 206.41155 
L 337.365335 205.971886 
L 339.123989 205.092559 
" style="fill:none;stroke:#8c8c8c;stroke-linecap:square;"/>
   </g>
  </g>
 </g>
 <defs>
  <clipPath id="peeeac937f3">
   <rect height="271.8" width="512.164057" x="7.2" y="7.2"/>
  </clipPath>
 </defs>
</svg>
