<?xml version="1.0" encoding="utf-8" standalone="no"?>
<!DOCTYPE svg PUBLIC "-//W3C//DTD SVG 1.1//EN"
  "http://www.w3.org/Graphics/SVG/1.1/DTD/svg11.dtd">
<!-- Created with matplotlib (https://matplotlib.org/) -->
<svg height="281.616085pt" version="1.1" viewBox="0 0 623.127273 281.616085" width="623.127273pt" xmlns="http://www.w3.org/2000/svg" xmlns:xlink="http://www.w3.org/1999/xlink">
 <metadata>
  <rdf:RDF xmlns:cc="http://creativecommons.org/ns#" xmlns:dc="http://purl.org/dc/elements/1.1/" xmlns:rdf="http://www.w3.org/1999/02/22-rdf-syntax-ns#">
   <cc:Work>
    <dc:type rdf:resource="http://purl.org/dc/dcmitype/StillImage"/>
    <dc:date>2024-11-15T16:04:13.485880</dc:date>
    <dc:format>image/svg+xml</dc:format>
    <dc:creator>
     <cc:Agent>
      <dc:title>Matplotlib v3.3.4, https://matplotlib.org/</dc:title>
     </cc:Agent>
    </dc:creator>
   </cc:Work>
  </rdf:RDF>
 </metadata>
 <defs>
  <style type="text/css">*{stroke-linecap:butt;stroke-linejoin:round;}</style>
 </defs>
 <g id="figure_1">
  <g id="patch_1">
   <path d="M 0 281.616085 
L 623.127273 281.616085 
L 623.127273 0 
L 0 0 
z
" style="fill:#ffffff;"/>
  </g>
  <g id="axes_1">
   <g id="line2d_1">
    <path clip-path="url(#p95f9319df5)" d="M 362.499254 81.289867 
L 361.37979 81.289867 
L 361.37979 81.663022 
L 360.260326 81.663022 
L 360.260326 82.036176 
L 359.514016 82.036176 
L 359.514016 82.409331 
L 358.767707 82.409331 
L 358.394552 82.782486 
L 358.021397 82.782486 
L 357.648243 83.155641 
L 357.275088 83.155641 
L 357.275088 83.528795 
L 356.901933 83.528795 
L 356.901933 83.90195 
L 356.528778 84.275105 
L 356.528778 84.648259 
L 356.155624 84.648259 
L 356.155624 85.394569 
L 355.782469 85.394569 
L 355.782469 86.887188 
L 355.409314 86.887188 
L 355.409314 92.111353 
L 355.782469 92.111353 
L 355.782469 92.857663 
L 356.155624 92.857663 
L 356.155624 93.230818 
L 356.528778 93.230818 
L 356.528778 93.603972 
L 356.901933 93.603972 
L 356.901933 93.977127 
L 357.648243 93.977127 
L 357.648243 94.350282 
L 358.767707 94.350282 
L 358.767707 94.723436 
L 360.63348 94.723436 
L 360.63348 95.096591 
L 361.752944 95.096591 
L 362.126099 94.723436 
L 363.618718 94.723436 
L 363.618718 94.350282 
L 364.365027 94.350282 
L 364.365027 93.977127 
L 365.111337 93.977127 
L 365.484491 93.603972 
L 365.857646 93.603972 
L 365.857646 93.230818 
L 366.230801 93.230818 
L 366.230801 92.857663 
L 366.603956 92.857663 
L 366.603956 92.484508 
L 366.97711 92.484508 
L 366.97711 92.111353 
L 367.350265 92.111353 
L 367.350265 91.365044 
L 367.72342 91.365044 
L 367.72342 90.618735 
L 368.096574 90.618735 
L 368.096574 87.633497 
L 367.72342 87.260342 
L 367.72342 86.140878 
L 367.350265 85.767723 
L 367.350265 85.394569 
L 366.97711 85.021414 
L 366.97711 84.648259 
L 366.603956 84.648259 
L 366.603956 84.275105 
L 366.230801 83.90195 
L 366.230801 83.528795 
L 365.857646 83.528795 
L 365.857646 83.155641 
L 365.484491 83.155641 
L 365.484491 82.782486 
L 365.111337 82.782486 
L 365.111337 82.409331 
L 364.365027 82.409331 
L 364.365027 82.036176 
L 363.245563 82.036176 
L 362.872409 81.663022 
L 362.499254 81.663022 
L 362.499254 81.289867 
L 362.499254 81.289867 
" style="fill:none;stroke:#8c8c8c;stroke-linecap:square;"/>
   </g>
   <g id="line2d_2">
    <path clip-path="url(#p95f9319df5)" d="M 397.575796 77.55832 
L 397.575796 78.677784 
L 397.948951 78.677784 
L 397.948951 80.170403 
L 398.322106 80.543558 
L 398.322106 83.155641 
L 397.948951 83.528795 
L 397.948951 84.648259 
L 397.575796 85.021414 
L 397.575796 85.394569 
L 397.202642 85.767723 
L 396.829487 85.767723 
L 396.829487 86.140878 
L 396.456332 86.140878 
L 396.456332 86.514033 
L 396.083177 86.514033 
L 396.083177 86.887188 
L 395.710023 86.887188 
L 395.710023 87.260342 
L 395.336868 87.260342 
L 395.336868 87.633497 
L 394.963713 87.633497 
L 394.590559 88.006652 
L 394.217404 88.006652 
L 394.217404 88.379806 
L 393.844249 88.379806 
L 393.844249 88.752961 
L 393.471094 88.752961 
L 393.471094 89.126116 
L 393.09794 89.499271 
L 393.09794 89.872425 
L 392.724785 89.872425 
L 392.724785 90.618735 
L 392.35163 90.618735 
L 392.35163 90.991889 
L 391.978476 90.991889 
L 391.978476 91.365044 
L 391.605321 91.738199 
L 391.605321 92.111353 
L 391.232166 92.111353 
L 391.232166 93.230818 
L 390.859011 93.230818 
L 390.859011 96.58921 
L 390.485857 96.58921 
L 390.485857 99.201293 
L 390.112702 99.201293 
L 390.112702 99.947602 
L 387.873774 99.947602 
L 387.873774 99.574448 
L 387.127464 99.574448 
L 387.127464 99.201293 
L 386.75431 99.201293 
L 386.75431 98.828138 
L 386.008 98.828138 
L 386.008 98.454983 
L 385.634846 98.454983 
L 385.634846 98.081829 
L 385.261691 98.081829 
L 385.261691 97.335519 
L 384.888536 97.335519 
L 384.888536 96.216055 
L 384.515381 96.216055 
L 384.515381 86.140878 
L 384.888536 85.767723 
L 384.888536 85.394569 
L 385.261691 85.021414 
L 385.261691 84.648259 
L 385.634846 84.648259 
L 385.634846 84.275105 
L 386.008 84.275105 
L 386.008 83.90195 
L 386.381155 83.90195 
L 386.381155 83.528795 
L 386.75431 83.528795 
L 386.75431 83.155641 
L 387.127464 83.155641 
L 387.127464 82.782486 
L 387.500619 82.782486 
L 387.873774 82.409331 
L 388.246929 82.409331 
L 388.246929 82.036176 
L 388.620083 82.036176 
L 389.366393 81.289867 
L 389.739547 81.289867 
L 389.739547 80.916712 
L 390.112702 80.916712 
L 390.485857 80.543558 
L 390.859011 80.543558 
L 390.859011 80.170403 
L 391.605321 80.170403 
L 391.605321 79.797248 
L 391.978476 79.797248 
L 392.724785 79.050939 
L 393.09794 79.050939 
L 393.09794 78.677784 
L 393.471094 78.677784 
L 393.844249 78.304629 
L 394.217404 78.304629 
L 394.217404 77.931475 
L 396.456332 77.931475 
L 396.083177 77.931475 
" style="fill:none;stroke:#8c8c8c;stroke-linecap:square;"/>
   </g>
   <g id="line2d_3">
    <path clip-path="url(#p95f9319df5)" d="M 396.829487 85.767723 
L 396.829487 86.887188 
L 397.202642 86.887188 
L 397.202642 88.006652 
L 397.575796 88.006652 
L 397.575796 89.126116 
L 397.948951 89.126116 
L 397.948951 89.872425 
L 398.322106 89.872425 
L 398.322106 90.24558 
L 398.69526 90.24558 
L 398.69526 90.618735 
L 399.44157 91.365044 
L 399.44157 91.738199 
L 399.814724 91.738199 
L 399.814724 92.111353 
L 400.187879 92.111353 
L 400.187879 92.484508 
L 400.561034 92.484508 
L 400.561034 92.857663 
L 400.934189 92.857663 
L 400.934189 93.230818 
L 401.307343 93.230818 
L 401.680498 93.603972 
L 402.053653 93.603972 
L 402.426807 93.977127 
L 403.173117 93.977127 
L 403.173117 94.350282 
L 405.7852 94.350282 
L 405.7852 93.977127 
L 406.158354 93.977127 
L 406.904664 93.230818 
L 406.904664 92.857663 
L 407.277819 92.484508 
L 407.277819 91.738199 
L 407.650973 91.738199 
L 407.650973 90.618735 
L 408.024128 90.618735 
L 408.024128 89.126116 
L 408.397283 88.752961 
L 408.397283 87.633497 
L 408.770437 87.633497 
L 408.770437 86.514033 
L 409.143592 86.140878 
L 409.143592 84.275105 
L 409.516747 84.275105 
L 409.516747 82.409331 
L 409.143592 82.036176 
L 409.143592 80.170403 
L 408.770437 80.170403 
L 408.770437 79.424093 
L 408.397283 79.424093 
L 408.397283 78.677784 
L 408.024128 78.677784 
L 408.024128 77.931475 
L 407.650973 77.931475 
L 407.650973 77.185165 
L 407.277819 77.185165 
L 407.277819 76.81201 
L 406.904664 76.438856 
L 406.904664 76.065701 
L 406.531509 76.065701 
L 406.531509 75.692546 
L 406.158354 75.692546 
L 406.158354 75.319392 
L 405.7852 75.319392 
L 405.7852 74.946237 
L 404.665736 73.826773 
L 404.665736 73.453618 
L 404.292581 73.453618 
L 404.292581 73.080463 
L 403.919426 73.080463 
L 403.919426 72.334154 
L 403.546272 72.334154 
L 403.546272 71.587845 
L 403.173117 71.21469 
L 403.173117 70.46838 
L 402.799962 70.095226 
L 402.799962 68.229452 
L 402.426807 68.229452 
L 402.426807 67.483143 
L 402.053653 67.483143 
L 402.053653 67.109988 
L 401.680498 67.109988 
L 401.680498 66.736833 
L 400.934189 66.736833 
L 400.934189 67.109988 
L 400.561034 67.109988 
L 400.561034 67.483143 
L 400.187879 67.483143 
L 400.187879 68.229452 
L 399.814724 68.602607 
L 399.814724 69.722071 
L 399.44157 69.722071 
L 399.44157 73.453618 
L 399.068415 73.826773 
L 399.068415 74.946237 
L 398.69526 75.319392 
L 398.69526 76.438856 
L 398.322106 76.81201 
L 398.322106 77.931475 
L 397.948951 77.931475 
L 397.948951 78.304629 
L 397.948951 78.304629 
" style="fill:none;stroke:#8c8c8c;stroke-linecap:square;"/>
   </g>
   <g id="line2d_4">
    <path clip-path="url(#p95f9319df5)" d="M 381.530144 240.253772 
L 380.41068 240.253772 
L 380.41068 240.626927 
L 377.425442 240.626927 
L 377.052287 240.253772 
L 376.679133 240.253772 
L 376.679133 239.880617 
L 375.932823 239.880617 
L 375.559669 239.507463 
L 374.440204 239.507463 
L 374.06705 239.134308 
L 369.962348 239.134308 
L 369.962348 239.507463 
L 369.216039 239.507463 
L 369.216039 239.880617 
L 368.842884 239.880617 
L 368.842884 240.253772 
L 368.469729 240.253772 
L 368.469729 241.000081 
L 368.096574 241.000081 
L 368.096574 244.358474 
L 368.469729 244.731628 
L 368.469729 251.821568 
L 368.842884 252.194723 
L 368.842884 252.941032 
L 369.216039 252.941032 
L 369.216039 253.314187 
L 369.589193 253.687341 
L 369.589193 254.060496 
L 369.962348 254.060496 
L 369.962348 254.433651 
L 370.335503 254.433651 
L 370.335503 254.806806 
L 370.708657 255.17996 
L 371.081812 255.17996 
L 371.081812 255.553115 
L 371.454967 255.553115 
L 371.454967 255.92627 
L 371.828121 255.92627 
L 371.828121 256.299424 
L 372.201276 256.299424 
L 372.201276 256.672579 
L 372.574431 256.672579 
L 372.947586 257.045734 
L 373.32074 257.045734 
L 373.32074 257.418888 
L 373.693895 257.418888 
L 373.693895 257.792043 
L 374.440204 257.792043 
L 374.440204 258.165198 
L 375.186514 258.165198 
L 375.186514 258.538353 
L 375.932823 258.538353 
L 375.932823 258.911507 
L 376.679133 258.911507 
L 377.052287 259.284662 
L 377.425442 259.284662 
L 377.425442 259.657817 
L 378.171751 259.657817 
L 378.171751 260.030971 
L 378.918061 260.030971 
L 378.918061 260.404126 
L 380.037525 260.404126 
L 380.037525 260.777281 
L 380.41068 260.777281 
L 380.783834 261.150436 
L 381.156989 261.150436 
L 381.530144 261.52359 
L 381.903299 261.52359 
L 381.903299 261.896745 
L 383.022763 261.896745 
L 383.022763 262.2699 
L 384.515381 262.2699 
L 384.515381 261.896745 
L 385.261691 261.896745 
L 385.634846 261.52359 
L 386.381155 261.52359 
L 386.381155 261.150436 
L 387.127464 261.150436 
L 387.127464 260.777281 
L 387.500619 260.777281 
L 387.500619 260.404126 
L 387.873774 260.404126 
L 387.873774 260.030971 
L 388.246929 260.030971 
L 388.246929 259.657817 
L 388.620083 259.657817 
L 388.620083 259.284662 
L 388.993238 259.284662 
L 388.993238 258.911507 
L 389.366393 258.538353 
L 389.366393 257.792043 
L 389.739547 257.792043 
L 389.739547 253.314187 
L 389.366393 252.941032 
L 389.366393 250.702104 
L 388.993238 250.702104 
L 388.993238 248.83633 
L 388.620083 248.83633 
L 388.620083 247.716866 
L 388.246929 247.716866 
L 388.246929 246.970557 
L 387.873774 246.597402 
L 387.873774 246.224247 
L 387.500619 246.224247 
L 387.500619 245.851093 
L 387.127464 245.477938 
L 387.127464 245.104783 
L 386.75431 245.104783 
L 386.75431 244.731628 
L 386.381155 244.731628 
L 386.381155 244.358474 
L 386.008 244.358474 
L 386.008 243.985319 
L 385.634846 243.985319 
L 385.634846 243.612164 
L 385.261691 243.612164 
L 384.515381 242.865855 
L 384.142227 242.865855 
L 384.142227 242.4927 
L 383.769072 242.4927 
L 383.769072 242.119545 
L 383.395917 242.119545 
L 383.395917 241.746391 
L 383.022763 241.373236 
L 383.022763 241.000081 
L 382.649608 241.000081 
L 382.649608 240.626927 
L 382.649608 240.626927 
" style="fill:none;stroke:#8c8c8c;stroke-linecap:square;"/>
   </g>
   <g id="line2d_5">
    <path clip-path="url(#p95f9319df5)" d="M 391.232166 258.538353 
L 391.605321 258.538353 
L 391.978476 258.538353 
L 391.978476 258.165198 
L 392.35163 258.165198 
L 392.724785 257.792043 
L 393.09794 257.792043 
L 393.471094 257.792043 
L 393.471094 257.418888 
L 393.844249 257.418888 
L 394.217404 257.418888 
L 394.590559 257.418888 
L 394.590559 257.045734 
L 394.963713 257.045734 
L 395.336868 257.045734 
L 395.710023 256.672579 
L 396.083177 256.672579 
L 396.456332 256.672579 
L 396.456332 256.299424 
L 396.829487 256.299424 
L 397.202642 256.299424 
L 397.202642 255.92627 
L 397.575796 255.92627 
L 397.948951 255.92627 
L 397.948951 255.553115 
L 398.322106 255.553115 
L 398.322106 255.17996 
L 398.69526 255.17996 
L 398.69526 254.806806 
L 399.068415 254.806806 
L 399.068415 254.433651 
L 399.44157 254.433651 
L 399.814724 254.060496 
L 399.814724 253.687341 
L 400.187879 253.687341 
L 400.187879 253.314187 
L 400.561034 253.314187 
L 400.561034 252.941032 
L 400.934189 252.941032 
L 400.934189 252.567877 
L 401.307343 252.194723 
L 401.307343 251.821568 
L 401.680498 251.821568 
L 401.680498 251.448413 
L 402.053653 251.448413 
L 402.053653 251.075258 
L 402.426807 250.702104 
L 402.426807 250.328949 
L 402.799962 250.328949 
L 402.799962 249.955794 
L 403.173117 249.955794 
L 403.173117 249.58264 
L 403.173117 249.209485 
L 403.546272 248.83633 
L 403.546272 248.463175 
L 403.919426 248.090021 
L 403.919426 247.716866 
L 403.919426 247.343711 
L 403.919426 246.970557 
L 404.292581 246.597402 
L 404.292581 246.224247 
L 404.292581 245.851093 
L 403.919426 245.851093 
L 403.919426 245.477938 
L 403.919426 245.104783 
L 403.919426 244.731628 
L 403.546272 244.358474 
L 403.546272 243.985319 
L 403.173117 243.985319 
L 403.173117 243.612164 
L 402.799962 243.612164 
L 402.799962 243.23901 
L 402.426807 243.23901 
L 402.426807 242.865855 
L 402.053653 242.865855 
L 401.680498 242.4927 
L 401.307343 242.4927 
L 400.934189 242.119545 
L 400.561034 242.119545 
L 400.187879 242.119545 
L 400.187879 241.746391 
L 399.814724 241.746391 
L 399.44157 241.746391 
L 399.068415 241.746391 
L 398.69526 241.746391 
L 398.322106 241.746391 
L 397.948951 241.746391 
L 397.575796 241.746391 
L 397.202642 241.746391 
L 396.829487 241.746391 
L 396.456332 241.746391 
L 396.083177 241.746391 
L 395.710023 241.746391 
L 395.336868 241.746391 
L 394.963713 241.746391 
L 394.590559 241.746391 
L 394.217404 241.746391 
L 393.844249 241.746391 
L 393.471094 241.746391 
L 393.09794 241.746391 
L 392.724785 241.746391 
L 392.35163 242.119545 
L 391.605321 242.119545 
L 391.232166 242.119545 
L 390.859011 242.119545 
L 390.112702 242.119545 
L 388.993238 242.119545 
L 388.246929 242.4927 
L 387.500619 242.4927 
L 387.127464 242.4927 
L 386.381155 242.4927 
L 386.008 242.4927 
L 385.634846 242.4927 
L 385.261691 242.4927 
L 385.261691 242.119545 
L 384.888536 242.119545 
L 384.888536 241.746391 
L 384.515381 241.746391 
L 384.515381 241.373236 
L 384.515381 241.000081 
L 384.142227 241.000081 
" style="fill:none;stroke:#8c8c8c;stroke-linecap:square;"/>
   </g>
   <g id="line2d_6">
    <path clip-path="url(#p95f9319df5)" d="M 404.292581 242.4927 
L 404.665736 242.4927 
L 404.665736 242.119545 
L 404.665736 241.746391 
L 404.665736 241.373236 
L 405.03889 241.373236 
L 405.03889 241.000081 
L 405.03889 240.626927 
L 404.665736 240.253772 
L 404.665736 239.880617 
L 404.665736 239.507463 
L 404.665736 239.134308 
L 404.665736 238.761153 
L 404.292581 238.387998 
L 404.292581 238.014844 
L 403.919426 237.268534 
L 403.919426 236.89538 
L 403.546272 236.522225 
L 403.546272 236.14907 
L 403.173117 236.14907 
L 402.799962 235.775915 
L 402.799962 235.402761 
L 402.426807 235.029606 
L 402.426807 234.656451 
L 402.053653 234.283297 
L 401.680498 233.910142 
L 401.680498 233.536987 
L 401.307343 233.163833 
L 401.307343 232.790678 
L 400.934189 232.417523 
L 400.934189 231.671214 
L 400.561034 231.671214 
L 400.561034 231.298059 
L 400.561034 230.924904 
L 400.187879 230.55175 
L 400.187879 230.178595 
L 399.814724 229.80544 
L 399.814724 229.432285 
L 399.814724 229.059131 
L 399.814724 228.685976 
L 399.44157 228.685976 
L 399.44157 228.312821 
L 399.44157 227.939667 
L 399.44157 227.566512 
L 399.068415 227.566512 
L 399.068415 227.193357 
L 398.69526 226.820203 
L 398.322106 226.447048 
L 397.948951 226.073893 
L 397.575796 226.073893 
L 397.202642 225.700738 
L 396.829487 225.700738 
L 396.456332 225.700738 
L 396.083177 225.700738 
L 395.710023 225.700738 
L 395.336868 225.700738 
L 394.963713 225.700738 
L 394.963713 226.073893 
L 394.590559 226.073893 
L 394.217404 226.447048 
L 393.844249 226.447048 
L 393.844249 226.820203 
L 393.471094 226.820203 
L 393.09794 227.193357 
L 392.724785 227.193357 
L 392.724785 227.566512 
L 392.35163 227.939667 
L 391.978476 227.939667 
L 391.605321 228.312821 
L 391.605321 228.685976 
L 391.232166 229.059131 
L 390.859011 229.432285 
L 390.485857 229.80544 
L 390.485857 230.178595 
L 390.112702 230.178595 
L 390.112702 230.55175 
L 389.739547 231.298059 
L 389.366393 231.671214 
L 389.366393 232.044368 
L 388.993238 232.417523 
L 388.620083 232.790678 
L 388.246929 233.163833 
L 388.246929 233.536987 
L 387.873774 234.283297 
L 387.500619 234.656451 
L 387.127464 235.029606 
L 387.127464 235.402761 
L 386.75431 235.402761 
L 386.75431 235.775915 
L 386.381155 236.522225 
L 386.381155 236.89538 
L 386.008 237.268534 
L 386.008 237.641689 
L 386.008 238.014844 
L 385.634846 238.014844 
L 385.634846 238.387998 
L 385.634846 238.761153 
L 385.261691 238.761153 
" style="fill:none;stroke:#8c8c8c;stroke-linecap:square;"/>
   </g>
   <g id="line2d_7">
    <path clip-path="url(#p95f9319df5)" d="M 446.832217 22.704578 
L 447.205372 22.704578 
L 447.578527 22.704578 
L 447.578527 22.331423 
L 447.951682 22.331423 
L 448.324836 22.331423 
L 448.697991 22.331423 
L 449.071146 22.331423 
L 449.4443 22.331423 
L 449.817455 22.331423 
L 450.936919 22.331423 
L 451.310074 22.331423 
L 452.056383 22.331423 
L 453.175847 22.704578 
L 453.922157 22.704578 
L 454.668466 22.704578 
L 455.414776 22.704578 
L 456.161085 22.704578 
L 456.907395 22.704578 
L 457.653704 22.704578 
L 459.146323 22.704578 
L 460.265787 22.331423 
L 461.012096 22.331423 
L 462.504715 21.958269 
L 463.997334 21.585114 
L 465.116798 21.585114 
L 465.863108 21.585114 
L 466.609417 21.585114 
L 467.728881 21.585114 
L 468.47519 21.585114 
L 468.848345 21.585114 
L 469.967809 21.585114 
L 470.714119 21.585114 
L 471.833583 21.585114 
L 472.579892 21.211959 
L 472.953047 21.211959 
L 474.445666 21.211959 
L 475.191975 21.211959 
L 476.311439 21.211959 
L 477.057749 21.211959 
L 477.804058 21.211959 
L 479.296677 21.211959 
L 480.042986 21.211959 
L 481.535605 21.211959 
L 482.655069 21.211959 
L 483.774533 21.211959 
L 485.640307 21.211959 
L 487.879235 21.211959 
L 488.25239 21.211959 
L 490.118163 21.211959 
L 491.237628 21.211959 
L 493.103401 21.211959 
L 493.84971 21.211959 
L 494.969175 21.211959 
L 496.088639 21.585114 
L 496.834948 21.585114 
L 498.327567 21.585114 
L 499.073876 21.585114 
L 500.193341 21.585114 
L 500.93965 21.585114 
L 502.059114 21.585114 
L 503.178578 21.585114 
L 503.924888 21.585114 
L 505.044352 21.585114 
L 506.163816 21.585114 
L 507.28328 21.958269 
L 508.402744 21.958269 
L 509.895363 21.958269 
L 511.014827 21.958269 
L 512.507446 21.958269 
L 514.000065 21.958269 
L 515.119529 21.958269 
L 516.985302 21.958269 
L 518.477921 21.958269 
L 520.343695 21.958269 
L 521.836313 21.958269 
L 522.955778 21.958269 
L 525.194706 21.958269 
L 526.31417 21.958269 
L 528.553098 22.331423 
L 529.672562 22.331423 
L 530.792026 22.331423 
L 532.6578 22.331423 
L 534.150419 22.331423 
L 535.269883 22.331423 
L 537.135656 22.331423 
L 538.255121 22.704578 
L 540.120894 22.704578 
L 541.240358 22.704578 
L 542.359822 22.704578 
L 543.479286 23.077733 
L 545.34506 23.077733 
L 547.210834 23.077733 
L 548.330298 23.450887 
L 549.822916 23.450887 
L 551.68869 23.450887 
L 553.181309 23.450887 
L 555.420237 23.450887 
L 556.912856 23.450887 
L 559.151784 23.450887 
L 560.644403 23.450887 
L 562.510176 23.450887 
L 564.002795 23.450887 
L 566.614878 23.077733 
L 568.480652 23.077733 
L 571.092735 23.077733 
L 572.958508 23.077733 
L 575.943746 22.704578 
L 578.182674 22.704578 
L 580.048448 22.704578 
L 582.287376 22.704578 
L 583.779995 22.331423 
L 585.272614 22.331423 
L 586.392078 22.331423 
L 587.511542 22.331423 
L 588.257851 21.958269 
" style="fill:none;stroke:#8c8c8c;stroke-linecap:square;"/>
   </g>
   <g id="line2d_8">
    <path clip-path="url(#p95f9319df5)" d="M 525.941015 21.211959 
L 526.31417 21.211959 
L 526.687325 21.211959 
L 526.687325 20.838805 
L 526.31417 20.838805 
L 525.941015 20.838805 
L 525.567861 20.838805 
L 525.194706 20.838805 
L 524.821551 20.838805 
L 524.448396 20.838805 
L 524.075242 21.211959 
L 524.075242 21.585114 
L 524.448396 21.585114 
L 524.821551 21.585114 
L 524.821551 21.211959 
L 524.448396 21.211959 
L 524.075242 21.211959 
" style="fill:none;stroke:#8c8c8c;stroke-linecap:square;"/>
   </g>
   <g id="line2d_9">
    <path clip-path="url(#p95f9319df5)" d="M 569.973271 21.585114 
L 569.600116 21.585114 
L 569.600116 21.958269 
L 569.973271 21.958269 
L 570.346425 21.958269 
L 569.973271 21.958269 
" style="fill:none;stroke:#8c8c8c;stroke-linecap:square;"/>
   </g>
   <g id="line2d_10">
    <path clip-path="url(#p95f9319df5)" d="M 475.938285 19.346186 
L 475.938285 19.71934 
L 476.311439 19.71934 
L 476.684594 19.71934 
L 477.057749 19.71934 
L 477.430903 19.71934 
L 477.057749 19.346186 
" style="fill:none;stroke:#8c8c8c;stroke-linecap:square;"/>
   </g>
   <g id="line2d_11">
    <path clip-path="url(#p95f9319df5)" d="M 449.071146 105.918078 
L 448.697991 105.918078 
L 448.697991 105.544923 
L 448.324836 105.918078 
L 448.324836 106.291232 
L 448.324836 106.664387 
L 448.324836 107.410696 
L 448.324836 108.157006 
L 448.324836 109.27647 
L 448.324836 111.142243 
L 448.697991 113.008017 
L 448.697991 116.366409 
L 449.071146 118.978492 
L 449.4443 121.96373 
L 449.817455 126.441586 
L 450.19061 129.426824 
L 450.563765 133.904681 
L 450.936919 136.516764 
L 450.936919 138.755692 
L 451.310074 142.114084 
L 451.683229 143.979858 
L 452.056383 146.965095 
L 452.056383 148.830869 
L 452.056383 151.069797 
L 452.429538 152.935571 
L 452.429538 155.547654 
L 452.802693 157.413427 
L 452.802693 159.652355 
L 453.175847 161.144974 
L 453.175847 162.637593 
L 453.549002 164.503367 
L 453.549002 165.622831 
L 453.549002 166.36914 
L 453.549002 167.861759 
L 453.549002 168.234914 
L 453.549002 168.981223 
L 453.922157 168.981223 
L 453.922157 169.354378 
L 453.549002 169.354378 
" style="fill:none;stroke:#8c8c8c;stroke-linecap:square;"/>
   </g>
   <g id="line2d_12">
    <path clip-path="url(#p95f9319df5)" d="M 444.966444 98.828138 
L 444.966444 99.201293 
L 445.339599 99.201293 
L 445.712753 98.828138 
L 446.085908 98.828138 
L 446.459063 98.454983 
L 447.205372 98.454983 
L 447.951682 98.081829 
L 448.697991 97.708674 
L 449.817455 97.708674 
L 450.563765 97.335519 
L 451.683229 96.962365 
L 453.922157 96.58921 
L 455.78793 96.216055 
L 458.773168 95.469746 
L 461.385251 94.723436 
L 463.997334 94.350282 
L 468.102036 93.603972 
L 470.714119 92.857663 
L 475.56513 92.111353 
L 478.923522 91.365044 
L 482.281915 90.618735 
L 487.132926 89.872425 
L 490.491318 89.126116 
L 495.715484 88.006652 
L 499.073876 87.260342 
L 502.805423 86.887188 
L 508.029589 85.767723 
L 511.387982 85.394569 
L 514.746374 84.648259 
L 519.97054 83.90195 
L 523.328932 83.528795 
L 528.179943 83.155641 
L 531.165181 82.409331 
L 534.523574 82.036176 
L 537.508811 81.663022 
L 541.986668 81.289867 
L 545.718215 80.543558 
L 548.330298 80.543558 
L 551.315535 80.170403 
L 552.434999 79.797248 
L 555.047082 79.797248 
L 557.659165 79.424093 
L 559.151784 79.424093 
L 560.644403 79.050939 
L 562.510176 79.050939 
L 563.256486 79.050939 
L 564.002795 79.050939 
L 564.749105 79.050939 
L 565.122259 79.050939 
" style="fill:none;stroke:#8c8c8c;stroke-linecap:square;"/>
   </g>
   <g id="line2d_13">
    <path clip-path="url(#p95f9319df5)" d="M 454.295312 168.234914 
L 453.922157 168.234914 
L 453.922157 167.861759 
L 453.922157 168.234914 
L 454.295312 168.234914 
L 454.295312 168.608068 
L 454.295312 169.354378 
L 454.668466 170.100687 
L 455.041621 170.846997 
L 455.414776 171.966461 
L 455.414776 172.71277 
L 455.78793 174.205389 
L 456.161085 174.951698 
L 456.53424 176.071162 
L 456.53424 176.817472 
L 456.907395 178.310091 
L 456.907395 179.429555 
L 457.280549 180.922174 
L 457.280549 181.668483 
L 457.653704 182.787947 
L 457.653704 184.280566 
L 458.026859 185.026875 
L 458.026859 185.773185 
L 458.026859 186.519494 
L 458.400013 187.638958 
L 458.400013 188.758422 
L 458.773168 189.131577 
L 458.773168 189.877887 
L 458.773168 190.251041 
L 459.146323 190.997351 
L 459.519477 191.74366 
L 459.519477 192.116815 
L 459.519477 192.48997 
L 459.892632 192.863124 
L 459.892632 193.236279 
L 460.265787 193.236279 
L 460.265787 193.609434 
L 460.265787 193.982588 
L 460.638942 193.982588 
L 460.638942 194.355743 
L 461.012096 194.355743 
L 461.012096 193.982588 
L 461.385251 193.982588 
L 462.13156 193.982588 
L 462.504715 193.609434 
L 463.997334 193.236279 
L 465.116798 193.236279 
L 468.102036 192.863124 
L 470.340964 192.48997 
L 472.953047 192.116815 
L 477.804058 191.370505 
L 481.535605 190.997351 
L 487.879235 190.251041 
L 491.983937 189.877887 
L 496.088639 189.131577 
L 502.432269 188.385268 
L 506.910125 188.012113 
L 511.387982 187.265804 
L 517.731612 186.519494 
L 521.836313 185.773185 
L 528.179943 185.026875 
L 532.284645 184.653721 
L 538.255121 183.907411 
L 539.747739 183.534257 
L 545.34506 183.161102 
L 549.822916 182.787947 
L 552.434999 182.414792 
L 554.673928 182.041638 
L 557.659165 181.668483 
L 559.524939 181.668483 
L 561.390712 181.295328 
L 562.883331 180.922174 
L 563.629641 180.922174 
L 565.122259 180.549019 
L 565.868569 180.549019 
L 566.241724 180.175864 
L 566.988033 180.175864 
L 567.734342 179.802709 
L 568.107497 179.802709 
L 568.853807 179.429555 
L 569.226961 179.429555 
L 569.600116 179.0564 
L 569.973271 179.0564 
L 570.346425 179.0564 
L 570.71958 179.0564 
L 570.71958 178.683245 
L 571.092735 178.683245 
L 571.465889 178.683245 
L 571.465889 178.310091 
L 571.839044 178.310091 
L 571.839044 177.936936 
L 572.212199 177.936936 
" style="fill:none;stroke:#8c8c8c;stroke-linecap:square;"/>
   </g>
   <g id="line2d_14">
    <path clip-path="url(#p95f9319df5)" d="M 564.002795 79.797248 
L 563.629641 80.543558 
L 563.629641 80.916712 
L 563.256486 81.663022 
L 563.256486 82.409331 
L 562.883331 83.155641 
L 562.883331 83.90195 
L 562.883331 84.648259 
L 562.883331 86.140878 
L 563.256486 86.887188 
L 563.629641 88.379806 
L 564.002795 90.24558 
L 564.37595 91.738199 
L 564.749105 94.350282 
L 565.122259 96.58921 
L 565.122259 97.708674 
L 565.495414 100.320757 
L 565.495414 103.305995 
L 565.868569 105.171768 
L 566.241724 108.157006 
L 566.614878 108.903315 
L 566.988033 111.515398 
L 567.734342 114.127481 
L 568.107497 115.993255 
L 568.480652 118.232183 
L 568.853807 120.471111 
L 569.226961 123.456349 
L 569.600116 125.322122 
L 569.973271 127.934205 
L 569.973271 129.426824 
L 570.346425 130.919443 
L 570.346425 132.785216 
L 570.346425 133.904681 
L 570.71958 135.770454 
L 570.71958 136.516764 
L 571.092735 138.009382 
L 571.465889 139.128846 
L 571.465889 139.875156 
L 571.839044 141.740929 
L 571.839044 142.114084 
L 572.212199 142.860394 
L 572.585354 144.353012 
L 572.585354 145.099322 
L 572.585354 145.845631 
L 572.958508 146.965095 
L 572.958508 148.084559 
L 573.331663 148.457714 
L 573.331663 149.950333 
L 573.704818 150.696642 
L 573.704818 151.816107 
L 574.077972 152.562416 
L 574.077972 152.935571 
L 574.077972 154.055035 
L 574.451127 154.428189 
L 574.451127 155.174499 
L 574.451127 155.547654 
L 574.824282 156.293963 
L 574.824282 157.413427 
L 574.824282 158.159737 
L 575.197437 158.532891 
L 575.197437 159.279201 
L 575.197437 160.02551 
L 575.570591 161.144974 
L 575.570591 161.518129 
L 575.570591 162.264438 
L 575.570591 163.010748 
L 575.943746 163.383902 
L 575.943746 164.130212 
L 575.943746 164.503367 
L 576.316901 165.249676 
L 576.316901 165.995985 
L 576.316901 166.36914 
L 576.316901 166.742295 
L 576.690055 167.488604 
L 576.690055 167.861759 
L 576.690055 168.234914 
L 576.690055 168.608068 
L 576.690055 168.981223 
L 577.06321 168.981223 
L 577.06321 169.354378 
L 577.06321 169.727532 
L 577.06321 170.100687 
L 577.06321 170.473842 
L 577.436365 170.846997 
L 577.436365 171.220151 
L 577.436365 171.593306 
L 577.436365 171.966461 
L 577.809519 171.966461 
L 577.809519 172.339615 
L 577.809519 172.71277 
L 577.809519 173.085925 
L 577.809519 173.459079 
L 577.809519 173.832234 
L 577.436365 174.205389 
L 577.436365 174.578544 
L 577.06321 174.951698 
L 577.06321 175.324853 
L 576.690055 175.324853 
L 576.690055 175.698008 
L 576.316901 176.071162 
L 576.316901 176.444317 
L 575.943746 176.444317 
L 575.943746 176.817472 
L 575.570591 176.817472 
L 575.197437 176.817472 
L 574.824282 176.817472 
L 574.451127 176.817472 
L 574.077972 177.190627 
L 573.331663 177.190627 
L 572.585354 177.190627 
L 571.839044 177.190627 
L 571.465889 177.190627 
L 571.092735 177.190627 
L 570.71958 177.190627 
L 570.71958 177.563781 
" style="fill:none;stroke:#8c8c8c;stroke-linecap:square;"/>
   </g>
   <g id="line2d_15">
    <path clip-path="url(#p95f9319df5)" d="M 497.954412 150.696642 
L 497.954412 150.323488 
L 497.581258 150.323488 
L 497.208103 149.950333 
L 496.834948 149.950333 
L 496.461793 149.950333 
L 496.088639 149.950333 
L 495.715484 149.950333 
L 495.715484 150.323488 
L 495.342329 150.323488 
L 494.59602 150.696642 
L 494.222865 151.442952 
L 493.84971 151.816107 
L 493.84971 152.562416 
L 493.84971 152.935571 
L 493.84971 153.68188 
L 494.222865 154.055035 
L 494.59602 154.428189 
L 495.342329 154.801344 
L 495.715484 154.801344 
L 496.834948 155.174499 
L 497.208103 154.801344 
L 497.581258 154.801344 
L 498.327567 154.428189 
L 498.700722 154.055035 
L 499.073876 153.68188 
L 499.073876 152.935571 
L 499.073876 152.189261 
L 498.700722 151.816107 
L 498.700722 151.442952 
L 498.327567 151.069797 
L 497.581258 150.696642 
L 497.208103 150.323488 
L 496.461793 150.323488 
L 496.088639 150.323488 
L 495.715484 150.323488 
L 495.342329 150.696642 
" style="fill:none;stroke:#8c8c8c;stroke-linecap:square;"/>
   </g>
   <g id="line2d_16">
    <path clip-path="url(#p95f9319df5)" d="M 536.389347 111.888553 
L 536.016192 111.888553 
L 535.643038 111.888553 
L 535.269883 111.888553 
L 535.269883 112.261708 
L 534.896728 112.261708 
L 534.896728 112.634862 
L 534.896728 113.381172 
L 534.896728 113.754326 
L 534.896728 114.127481 
L 534.896728 114.500636 
L 535.269883 114.873791 
L 535.269883 115.246945 
L 536.016192 115.6201 
L 536.389347 115.6201 
L 536.762502 115.6201 
L 537.135656 115.246945 
L 537.508811 114.873791 
L 537.881966 114.500636 
L 537.881966 114.127481 
L 538.255121 113.754326 
L 538.255121 113.381172 
L 537.881966 113.008017 
L 537.881966 112.634862 
L 537.508811 112.634862 
L 537.135656 112.261708 
L 536.762502 111.888553 
L 536.389347 111.888553 
L 535.269883 111.888553 
L 534.896728 111.888553 
L 534.523574 111.888553 
" style="fill:none;stroke:#8c8c8c;stroke-linecap:square;"/>
   </g>
   <g id="line2d_17">
    <path clip-path="url(#p95f9319df5)" d="M 472.206738 114.500636 
L 472.206738 114.127481 
L 471.833583 114.127481 
L 471.833583 113.754326 
L 471.460428 113.754326 
L 471.087273 113.754326 
L 470.714119 113.754326 
L 470.340964 113.754326 
L 469.967809 113.754326 
L 469.967809 114.127481 
L 469.594655 114.127481 
L 469.594655 114.500636 
L 469.2215 114.873791 
L 469.2215 115.6201 
L 469.594655 115.993255 
L 469.967809 116.366409 
L 470.340964 116.739564 
L 471.087273 117.112719 
L 471.833583 117.112719 
L 472.206738 117.112719 
L 473.326202 116.739564 
L 473.699356 116.739564 
L 474.072511 116.366409 
L 474.445666 115.6201 
L 474.81882 115.246945 
L 474.81882 114.873791 
L 474.445666 114.127481 
L 474.072511 113.754326 
L 473.699356 113.754326 
L 473.326202 113.381172 
L 472.953047 113.381172 
L 472.206738 113.381172 
L 471.087273 113.754326 
L 470.714119 114.127481 
" style="fill:none;stroke:#8c8c8c;stroke-linecap:square;"/>
   </g>
   <g id="line2d_18">
    <path clip-path="url(#p95f9319df5)" d="M 556.166546 164.130212 
L 555.793392 163.757057 
L 555.793392 163.383902 
L 555.420237 163.383902 
L 555.420237 163.010748 
L 555.047082 163.010748 
L 554.673928 163.010748 
L 554.300773 163.010748 
L 553.927618 163.383902 
L 553.554464 163.757057 
L 553.181309 164.130212 
L 553.181309 164.503367 
L 552.808154 165.249676 
L 552.808154 165.622831 
L 552.808154 165.995985 
L 553.181309 166.36914 
L 553.554464 166.742295 
L 553.927618 166.742295 
L 554.300773 166.742295 
L 555.047082 166.36914 
L 555.420237 165.995985 
L 555.793392 165.622831 
L 556.166546 165.249676 
L 556.166546 164.503367 
L 556.539701 163.757057 
L 556.539701 163.383902 
L 556.166546 163.010748 
L 556.166546 162.637593 
L 555.793392 162.264438 
L 555.420237 162.264438 
L 555.047082 161.891284 
L 554.673928 161.891284 
L 554.300773 161.891284 
L 553.927618 161.891284 
" style="fill:none;stroke:#8c8c8c;stroke-linecap:square;"/>
   </g>
   <g id="line2d_19">
    <path clip-path="url(#p95f9319df5)" d="M 474.445666 177.563781 
L 474.445666 177.190627 
L 474.072511 177.190627 
L 474.072511 176.817472 
L 473.699356 176.817472 
L 473.326202 176.444317 
L 472.953047 176.444317 
L 472.579892 176.444317 
L 472.206738 176.817472 
L 471.833583 176.817472 
L 471.460428 177.190627 
L 471.087273 177.563781 
L 471.087273 177.936936 
L 471.087273 178.310091 
L 471.087273 179.0564 
L 471.087273 179.429555 
L 471.087273 180.549019 
L 471.460428 180.922174 
L 471.833583 181.295328 
L 472.579892 182.041638 
L 472.953047 182.041638 
L 473.699356 182.041638 
L 474.445666 181.668483 
L 474.81882 181.668483 
L 475.191975 180.922174 
L 475.56513 180.549019 
L 475.56513 179.429555 
L 475.56513 179.0564 
L 475.191975 178.683245 
L 475.191975 178.310091 
L 474.445666 177.563781 
L 474.072511 177.190627 
L 473.699356 177.190627 
L 473.326202 176.817472 
L 472.953047 176.817472 
L 472.579892 176.817472 
" style="fill:none;stroke:#8c8c8c;stroke-linecap:square;"/>
   </g>
   <g id="line2d_20">
    <path clip-path="url(#p95f9319df5)" d="M 497.208103 149.204024 
L 497.208103 148.830869 
L 497.581258 148.830869 
L 497.581258 148.457714 
L 497.954412 148.457714 
L 498.327567 148.457714 
L 497.954412 148.084559 
L 497.581258 148.084559 
L 497.581258 147.711405 
L 497.581258 147.33825 
L 497.581258 146.965095 
L 497.581258 146.591941 
L 497.581258 146.218786 
L 497.954412 146.218786 
L 497.954412 145.845631 
L 497.954412 145.472476 
L 497.954412 145.099322 
L 497.954412 144.726167 
" style="fill:none;stroke:#8c8c8c;stroke-linecap:square;"/>
   </g>
   <g id="line2d_21">
    <path clip-path="url(#p95f9319df5)" d="M 493.103401 149.950333 
L 492.730246 149.950333 
L 492.730246 149.577178 
L 492.357092 149.577178 
L 492.357092 149.204024 
L 492.357092 148.830869 
L 491.983937 148.830869 
L 491.983937 148.457714 
L 491.610782 148.457714 
L 491.237628 148.830869 
L 491.237628 148.457714 
L 490.864473 148.457714 
L 490.864473 148.084559 
L 490.491318 148.084559 
L 490.118163 148.084559 
L 490.118163 148.457714 
" style="fill:none;stroke:#8c8c8c;stroke-linecap:square;"/>
   </g>
   <g id="line2d_22">
    <path clip-path="url(#p95f9319df5)" d="M 493.476556 154.428189 
L 493.103401 154.428189 
L 492.730246 154.428189 
L 492.357092 154.428189 
L 492.357092 154.801344 
L 491.983937 154.801344 
L 491.983937 155.174499 
L 492.357092 155.174499 
L 492.357092 155.547654 
L 492.357092 155.920808 
L 492.357092 156.293963 
L 492.357092 156.667118 
L 492.357092 157.040272 
L 492.357092 157.413427 
L 491.983937 157.413427 
L 491.983937 157.786582 
L 491.983937 158.159737 
L 491.610782 158.159737 
" style="fill:none;stroke:#8c8c8c;stroke-linecap:square;"/>
   </g>
   <g id="line2d_23">
    <path clip-path="url(#p95f9319df5)" d="M 497.581258 155.174499 
L 497.581258 154.801344 
L 497.954412 154.801344 
L 497.954412 155.174499 
L 497.954412 155.547654 
L 497.954412 155.920808 
L 497.954412 156.293963 
L 498.327567 156.293963 
L 498.700722 156.293963 
L 499.073876 156.293963 
L 499.073876 156.667118 
L 499.447031 156.667118 
L 499.820186 156.667118 
L 499.820186 157.040272 
" style="fill:none;stroke:#8c8c8c;stroke-linecap:square;"/>
   </g>
   <g id="line2d_24">
    <path clip-path="url(#p95f9319df5)" d="M 499.447031 151.442952 
L 499.447031 151.069797 
L 499.820186 151.069797 
L 499.820186 150.696642 
L 500.193341 150.696642 
L 500.193341 151.069797 
L 500.566495 151.069797 
L 500.93965 151.069797 
L 501.312805 151.069797 
L 501.685959 151.069797 
L 502.059114 151.069797 
L 502.432269 151.069797 
L 502.805423 151.069797 
" style="fill:none;stroke:#8c8c8c;stroke-linecap:square;"/>
   </g>
   <g id="line2d_25">
    <path clip-path="url(#p95f9319df5)" d="M 501.312805 145.845631 
L 502.059114 145.472476 
L 502.805423 144.726167 
L 503.551733 144.726167 
L 503.551733 144.353012 
L 505.044352 144.353012 
L 505.417506 143.979858 
L 509.522208 143.979858 
L 509.895363 144.353012 
L 510.641672 144.353012 
L 511.761136 145.472476 
L 512.507446 145.845631 
L 512.880601 146.591941 
L 513.62691 147.33825 
L 514.373219 147.711405 
L 514.746374 148.457714 
L 516.612148 149.577178 
L 517.358457 149.950333 
L 518.477921 150.323488 
L 519.224231 150.696642 
L 520.343695 151.069797 
L 522.955778 151.069797 
L 523.702087 150.696642 
L 524.448396 150.696642 
L 525.941015 149.950333 
L 528.179943 148.457714 
L 530.045717 146.591941 
L 530.418872 145.845631 
L 531.165181 145.472476 
L 531.911491 143.979858 
L 532.6578 143.233548 
L 532.6578 142.860394 
L 533.030955 142.487239 
L 533.030955 141.367775 
L 533.404109 140.99462 
L 533.030955 139.875156 
L 533.030955 139.128846 
L 532.284645 137.636228 
L 531.538336 136.889918 
L 531.165181 136.143609 
L 529.672562 135.397299 
L 528.553098 134.277835 
L 527.433634 133.904681 
L 526.687325 133.158371 
L 522.582623 130.173134 
L 521.836313 129.799979 
L 521.090004 129.053669 
L 518.104766 127.561051 
L 515.865838 126.814741 
L 514.746374 126.814741 
L 514.000065 126.441586 
L 511.014827 126.441586 
L 509.522208 126.814741 
L 508.775899 126.814741 
L 507.656435 127.187896 
L 506.910125 127.187896 
L 505.790661 127.561051 
L 502.059114 127.561051 
L 500.566495 126.814741 
L 499.820186 126.068432 
L 497.208103 124.202658 
L 496.461793 123.083194 
L 495.715484 122.710039 
L 495.342329 121.590575 
L 494.59602 120.844266 
L 494.59602 119.351647 
L 494.969175 118.232183 
L 499.820186 113.381172 
L 504.298042 110.395934 
L 505.044352 109.649625 
L 506.163816 109.27647 
L 507.656435 108.530161 
L 508.402744 108.530161 
L 509.149053 108.157006 
L 509.895363 108.157006 
L 510.641672 107.783851 
L 512.507446 107.783851 
L 513.253755 108.157006 
L 514.373219 108.157006 
L 515.119529 108.530161 
L 515.865838 108.157006 
L 516.612148 108.157006 
L 517.358457 107.783851 
L 517.731612 107.410696 
L 518.851076 106.664387 
L 519.597385 105.918078 
L 519.97054 105.171768 
L 520.716849 104.425459 
L 521.090004 103.679149 
L 522.582623 101.440221 
L 524.448396 99.574448 
L 526.687325 98.454983 
L 527.060479 98.454983 
L 528.179943 98.081829 
L 530.045717 98.081829 
L 530.792026 97.708674 
L 531.538336 97.708674 
L 532.284645 98.081829 
L 535.643038 98.081829 
L 536.762502 98.454983 
L 539.747739 98.454983 
L 540.867204 98.828138 
L 541.240358 99.201293 
L 541.986668 99.201293 
L 542.732977 99.574448 
L 543.106132 99.947602 
L 543.852441 100.320757 
L 544.225596 100.693912 
L 544.598751 101.440221 
L 544.971905 101.813376 
L 544.971905 103.679149 
L 543.852441 105.918078 
L 543.852441 106.291232 
L 543.479286 107.037542 
L 543.479286 110.395934 
L 544.225596 111.888553 
L 544.598751 112.261708 
L 545.34506 113.754326 
L 546.091369 114.500636 
L 546.091369 114.873791 
L 546.464524 115.993255 
L 546.464524 116.366409 
L 546.837679 117.485874 
L 546.837679 118.232183 
L 546.464524 119.724802 
L 546.464524 120.471111 
L 545.34506 122.336885 
L 544.598751 123.829504 
L 543.106132 126.068432 
L 542.732977 127.187896 
L 542.732977 127.934205 
L 541.986668 129.426824 
L 541.986668 131.665752 
L 542.359822 132.038907 
L 542.359822 132.785216 
L 542.732977 133.158371 
L 542.732977 133.904681 
L 543.106132 134.65099 
L 543.106132 135.024145 
L 543.479286 135.770454 
L 543.479286 136.516764 
L 543.852441 137.263073 
L 543.852441 142.114084 
L 544.225596 142.487239 
L 544.225596 143.606703 
L 544.598751 143.979858 
L 544.598751 147.711405 
L 544.225596 148.457714 
L 543.852441 149.950333 
L 543.479286 150.696642 
L 542.732977 151.816107 
L 542.359822 152.935571 
L 538.628275 156.667118 
L 538.255121 157.413427 
L 536.389347 158.906046 
L 533.404109 160.771819 
L 532.284645 161.144974 
L 531.165181 161.891284 
L 529.672562 162.264438 
L 528.926253 163.010748 
L 527.433634 163.383902 
L 527.060479 163.757057 
L 525.567861 164.503367 
L 522.582623 164.503367 
L 521.836313 164.130212 
L 521.463159 163.757057 
L 520.343695 163.383902 
L 519.97054 163.383902 
L 518.851076 163.010748 
L 516.985302 163.010748 
L 516.238993 163.383902 
L 515.119529 163.757057 
L 514.373219 164.503367 
L 513.62691 164.876521 
L 511.761136 166.742295 
L 511.014827 167.861759 
L 510.268518 168.608068 
L 509.522208 170.100687 
L 509.149053 170.473842 
L 508.775899 171.220151 
L 508.775899 171.966461 
L 508.402744 172.339615 
L 508.029589 173.085925 
L 507.656435 173.459079 
L 507.656435 173.832234 
L 506.910125 174.205389 
L 506.536971 174.578544 
L 505.790661 174.578544 
L 505.417506 174.951698 
L 502.432269 174.951698 
L 500.93965 175.324853 
L 499.447031 175.324853 
L 499.073876 174.951698 
L 496.461793 174.951698 
L 494.59602 174.578544 
L 492.357092 173.832234 
L 489.745009 173.085925 
L 487.879235 172.339615 
L 486.386616 171.593306 
L 485.267152 170.846997 
L 478.923522 164.503367 
L 478.550368 163.757057 
L 477.804058 163.010748 
L 477.804058 162.637593 
L 477.430903 162.264438 
L 477.430903 160.398665 
L 477.804058 159.652355 
L 477.804058 153.308725 
L 478.177213 152.935571 
L 480.042986 150.323488 
L 480.789296 149.577178 
L 481.16245 148.830869 
L 482.281915 147.711405 
L 482.655069 146.965095 
L 483.028224 146.591941 
L 483.028224 146.218786 
L 483.401379 145.845631 
L 483.401379 144.726167 
L 483.774533 144.726167 
L 483.774533 142.487239 
L 483.401379 142.114084 
L 483.401379 141.740929 
L 483.028224 140.99462 
L 483.028224 140.621465 
L 482.281915 139.875156 
L 481.90876 139.128846 
L 481.16245 138.755692 
L 480.789296 138.382537 
L 480.042986 138.009382 
L 478.923522 137.263073 
L 474.445666 135.770454 
L 474.072511 135.397299 
L 473.326202 135.024145 
L 472.953047 134.65099 
L 472.579892 134.65099 
L 472.579892 134.277835 
L 472.206738 134.277835 
L 472.206738 133.904681 
L 471.460428 133.904681 
L 471.460428 133.531526 
L 469.967809 133.531526 
L 468.848345 133.158371 
L 467.355726 133.158371 
L 466.609417 132.785216 
L 465.863108 132.785216 
L 465.489953 132.412062 
L 465.116798 132.412062 
L 465.116798 131.292598 
L 465.489953 131.292598 
L 465.863108 130.173134 
L 466.609417 129.426824 
L 466.982572 128.680515 
L 466.982572 128.30736 
L 467.355726 127.561051 
L 467.355726 126.441586 
L 466.609417 126.441586 
L 466.609417 126.068432 
L 465.489953 126.068432 
L 465.116798 125.695277 
L 463.997334 125.695277 
L 462.87787 125.322122 
L 462.504715 125.322122 
L 461.758406 124.948968 
L 461.758406 123.456349 
L 461.758406 123.456349 
" style="fill:none;stroke:#8c8c8c;stroke-linecap:square;"/>
   </g>
   <g id="line2d_26">
    <path clip-path="url(#p95f9319df5)" d="M 458.400013 127.934205 
L 458.773168 127.934205 
L 458.773168 127.561051 
L 458.773168 127.187896 
L 458.400013 127.187896 
L 458.400013 126.814741 
L 458.400013 126.441586 
L 458.773168 126.068432 
L 458.773168 125.695277 
L 458.773168 125.322122 
L 458.773168 124.948968 
L 459.146323 124.202658 
L 459.519477 123.829504 
L 459.892632 123.083194 
L 460.265787 123.083194 
L 460.638942 122.710039 
L 461.385251 122.336885 
L 461.758406 122.336885 
L 462.13156 122.336885 
L 462.87787 122.336885 
L 463.251025 122.336885 
L 463.624179 122.710039 
" style="fill:none;stroke:#8c8c8c;stroke-linecap:square;"/>
   </g>
   <g id="line2d_27">
    <path clip-path="url(#p95f9319df5)" d="M 42.332516 37.257612 
L 42.70567 36.884457 
L 42.70567 36.511302 
L 42.70567 36.138147 
L 42.70567 35.764993 
L 42.70567 35.391838 
L 42.70567 35.018683 
L 42.332516 35.018683 
L 41.959361 35.018683 
L 41.586206 35.018683 
L 40.839897 35.391838 
L 40.093587 35.764993 
L 39.347278 36.511302 
L 38.227814 38.003921 
L 37.10835 39.123385 
L 35.988886 41.362313 
L 35.242576 42.854932 
L 35.242576 43.974396 
L 34.869421 45.467015 
L 35.242576 46.959634 
L 35.988886 48.452253 
L 36.735195 49.198562 
L 37.481504 49.944872 
L 38.227814 50.318026 
L 39.347278 51.064336 
L 40.466742 51.064336 
L 41.586206 51.064336 
L 42.332516 51.064336 
L 43.078825 50.691181 
L 43.825134 50.318026 
" style="fill:none;stroke:#8c8c8c;stroke-linecap:square;"/>
   </g>
   <g id="line2d_28">
    <path clip-path="url(#p95f9319df5)" d="M 53.900312 41.735468 
L 53.527157 41.735468 
L 53.154002 41.735468 
L 53.154002 41.362313 
L 52.780847 41.362313 
L 52.407693 41.362313 
L 52.034538 41.362313 
L 51.661383 41.362313 
L 51.288229 41.735468 
L 50.168764 42.108623 
L 49.422455 42.481778 
L 48.676146 43.228087 
L 48.302991 43.601242 
L 47.556682 44.720706 
L 47.556682 45.467015 
L 47.556682 46.213325 
L 47.556682 46.586479 
L 47.929836 46.959634 
L 48.676146 47.332789 
L 49.422455 47.332789 
L 50.541919 46.586479 
L 50.915074 46.213325 
L 52.034538 45.09386 
L 52.780847 43.974396 
L 53.154002 42.854932 
L 53.527157 42.108623 
L 53.900312 41.362313 
L 53.900312 40.989159 
L 53.900312 40.616004 
L 53.900312 40.989159 
L 54.273466 40.989159 
L 54.273466 41.735468 
L 54.646621 42.854932 
L 54.646621 43.601242 
L 55.019776 45.09386 
L 55.39293 45.84017 
L 55.766085 46.959634 
L 56.13924 47.332789 
L 56.512394 48.079098 
L 56.512394 48.452253 
L 56.885549 48.452253 
" style="fill:none;stroke:#8c8c8c;stroke-linecap:square;"/>
   </g>
   <g id="line2d_29">
    <path clip-path="url(#p95f9319df5)" d="M 64.348643 33.15291 
L 64.348643 32.779755 
L 63.975489 32.779755 
L 63.602334 32.779755 
L 63.229179 32.779755 
L 62.856024 33.15291 
L 62.856024 33.899219 
L 62.48287 35.018683 
L 62.109715 35.764993 
L 62.109715 36.884457 
L 62.48287 39.123385 
L 62.856024 40.616004 
L 63.975489 42.854932 
L 64.721798 44.347551 
L 65.841262 45.467015 
L 67.333881 46.586479 
L 68.08019 46.959634 
L 69.572809 46.959634 
L 70.319119 46.586479 
L 71.065428 46.213325 
L 72.184892 45.09386 
L 72.558047 43.974396 
L 73.304356 42.854932 
L 73.677511 42.108623 
" style="fill:none;stroke:#8c8c8c;stroke-linecap:square;"/>
   </g>
   <g id="line2d_30">
    <path clip-path="url(#p95f9319df5)" d="M 75.543284 34.645529 
L 75.543284 34.272374 
L 75.17013 33.899219 
L 74.796975 33.899219 
L 74.42382 33.899219 
L 74.050666 33.899219 
L 73.304356 34.272374 
L 72.931202 34.645529 
L 72.558047 35.391838 
L 72.558047 36.138147 
L 72.558047 36.884457 
L 72.558047 37.630766 
L 73.304356 39.123385 
L 74.42382 40.616004 
L 74.796975 41.362313 
L 75.916439 42.108623 
L 76.662749 42.108623 
L 77.409058 42.108623 
L 78.528522 41.735468 
L 79.274832 40.989159 
L 79.647986 39.869695 
L 80.394296 38.377076 
L 80.76745 37.257612 
L 80.76745 36.138147 
L 80.394296 34.645529 
L 79.647986 33.15291 
L 78.901677 32.4066 
L 78.155367 31.660291 
L 77.409058 31.287136 
L 76.289594 31.287136 
L 75.543284 31.287136 
L 74.42382 31.660291 
L 73.677511 32.4066 
L 73.304356 33.15291 
L 72.558047 33.899219 
L 72.184892 34.645529 
" style="fill:none;stroke:#8c8c8c;stroke-linecap:square;"/>
   </g>
   <g id="line2d_31">
    <path clip-path="url(#p95f9319df5)" d="M 87.85739 35.391838 
L 87.484235 35.391838 
L 87.11108 35.391838 
L 87.484235 35.391838 
L 87.85739 35.391838 
L 88.603699 35.018683 
L 89.723163 34.645529 
L 90.469473 34.272374 
L 91.215782 34.272374 
L 91.962092 33.899219 
L 92.335246 34.272374 
L 92.335246 34.645529 
L 91.962092 35.018683 
L 91.962092 35.391838 
L 91.588937 35.764993 
L 90.842627 36.511302 
L 90.469473 37.257612 
L 89.723163 38.377076 
L 89.350009 39.123385 
L 89.350009 39.869695 
L 89.723163 39.869695 
L 90.469473 40.242849 
L 90.842627 40.616004 
L 91.588937 40.616004 
L 93.081556 40.616004 
L 94.20102 40.616004 
L 94.947329 40.989159 
L 96.066793 41.362313 
L 96.813103 41.735468 
L 97.186257 42.108623 
L 97.559412 43.228087 
L 97.559412 43.974396 
L 96.813103 45.09386 
L 96.066793 45.84017 
L 94.947329 46.586479 
L 93.081556 47.705943 
L 91.588937 48.079098 
L 88.976854 48.825408 
L 87.85739 48.825408 
L 87.11108 48.825408 
" style="fill:none;stroke:#8c8c8c;stroke-linecap:square;"/>
   </g>
   <g id="line2d_32">
    <path clip-path="url(#p95f9319df5)" d="M 40.466742 90.618735 
L 40.466742 90.24558 
L 40.466742 89.499271 
L 40.466742 89.126116 
L 40.466742 88.752961 
L 40.093587 88.752961 
L 40.093587 88.379806 
L 40.093587 88.006652 
L 40.466742 88.006652 
L 40.466742 88.752961 
L 40.839897 89.499271 
L 41.213051 90.618735 
L 41.959361 92.484508 
L 42.332516 93.230818 
L 43.078825 95.842901 
L 43.825134 97.335519 
L 44.571444 99.947602 
L 45.317753 101.440221 
L 45.690908 102.559685 
L 46.437217 104.052304 
L 46.810372 104.798613 
L 47.556682 105.918078 
L 47.929836 106.291232 
L 48.302991 106.291232 
L 47.929836 106.291232 
" style="fill:none;stroke:#8c8c8c;stroke-linecap:square;"/>
   </g>
   <g id="line2d_33">
    <path clip-path="url(#p95f9319df5)" d="M 46.810372 87.633497 
L 46.810372 87.260342 
L 46.810372 86.887188 
L 46.810372 87.260342 
L 47.183527 87.633497 
L 47.183527 88.379806 
L 47.929836 89.126116 
L 48.302991 90.24558 
L 49.422455 92.111353 
L 50.168764 93.603972 
L 51.288229 95.842901 
L 52.034538 96.962365 
L 52.780847 98.828138 
L 53.154002 99.574448 
L 53.900312 100.320757 
L 54.273466 101.067066 
L 54.646621 101.813376 
L 55.019776 102.559685 
" style="fill:none;stroke:#8c8c8c;stroke-linecap:square;"/>
   </g>
   <g id="line2d_34">
    <path clip-path="url(#p95f9319df5)" d="M 44.571444 98.828138 
L 44.198289 99.201293 
L 43.825134 99.201293 
L 43.825134 99.574448 
L 43.825134 99.201293 
L 44.571444 98.828138 
L 45.690908 98.454983 
L 47.929836 97.335519 
L 49.79561 96.58921 
L 51.661383 95.842901 
L 53.154002 95.096591 
L 55.019776 94.723436 
L 55.39293 94.350282 
" style="fill:none;stroke:#8c8c8c;stroke-linecap:square;"/>
   </g>
   <g id="line2d_35">
    <path clip-path="url(#p95f9319df5)" d="M 62.109715 83.528795 
L 62.109715 83.155641 
L 62.109715 82.782486 
L 62.109715 82.409331 
L 61.73656 82.409331 
L 61.73656 82.036176 
L 61.363406 82.036176 
L 60.990251 82.036176 
L 60.617096 82.409331 
L 60.243942 83.155641 
L 59.870787 83.90195 
L 59.497632 84.648259 
L 59.497632 86.887188 
L 59.870787 88.752961 
L 60.990251 92.111353 
L 62.109715 93.977127 
L 63.229179 95.842901 
L 65.468107 97.335519 
L 67.333881 98.081829 
L 68.453345 98.454983 
L 69.572809 98.454983 
L 70.319119 98.081829 
L 71.065428 97.708674 
L 71.811737 97.335519 
L 71.811737 96.962365 
" style="fill:none;stroke:#8c8c8c;stroke-linecap:square;"/>
   </g>
   <g id="line2d_36">
    <path clip-path="url(#p95f9319df5)" d="M 75.17013 83.90195 
L 75.17013 83.155641 
L 74.796975 83.155641 
L 74.42382 83.155641 
L 74.050666 83.155641 
L 73.677511 83.155641 
L 73.304356 83.528795 
L 72.558047 84.275105 
L 72.184892 85.021414 
L 72.184892 85.767723 
L 72.184892 86.514033 
L 72.184892 87.260342 
L 72.558047 89.126116 
L 73.304356 90.618735 
L 74.050666 91.365044 
L 74.796975 92.111353 
L 75.543284 92.857663 
L 77.035903 92.857663 
L 78.155367 92.484508 
L 79.274832 92.111353 
L 80.021141 90.991889 
L 80.76745 89.126116 
L 81.140605 88.006652 
L 81.140605 86.514033 
L 80.76745 84.648259 
L 80.021141 83.528795 
L 78.528522 82.036176 
L 77.409058 80.916712 
L 75.916439 80.543558 
L 74.796975 79.797248 
L 73.304356 79.797248 
L 72.184892 80.170403 
L 71.811737 80.543558 
L 71.438583 80.916712 
L 71.065428 81.663022 
L 71.065428 82.036176 
" style="fill:none;stroke:#8c8c8c;stroke-linecap:square;"/>
   </g>
   <g id="line2d_37">
    <path clip-path="url(#p95f9319df5)" d="M 90.469473 83.90195 
L 90.096318 84.275105 
L 90.096318 83.90195 
L 90.469473 83.528795 
L 91.215782 82.782486 
L 91.962092 82.409331 
L 92.708401 82.036176 
L 93.827865 81.663022 
L 94.574175 81.663022 
L 95.320484 82.036176 
L 95.693639 82.409331 
L 96.066793 82.782486 
L 96.066793 83.528795 
L 95.693639 84.275105 
L 95.693639 85.394569 
L 94.947329 86.514033 
L 94.574175 87.260342 
L 94.20102 88.006652 
L 94.20102 88.379806 
L 94.574175 88.752961 
L 94.947329 88.752961 
L 95.693639 88.752961 
L 96.813103 88.752961 
L 97.932567 88.379806 
L 99.052031 88.379806 
L 100.54465 88.752961 
L 100.917805 89.126116 
L 101.664114 89.872425 
L 101.664114 90.618735 
L 101.290959 91.365044 
L 100.171495 92.857663 
L 99.425186 93.603972 
L 98.305722 94.723436 
L 96.066793 95.469746 
L 94.574175 95.842901 
L 92.335246 95.842901 
L 91.215782 95.469746 
L 90.096318 95.096591 
L 89.350009 94.350282 
" style="fill:none;stroke:#8c8c8c;stroke-linecap:square;"/>
   </g>
   <g id="line2d_38">
    <path clip-path="url(#p95f9319df5)" d="M 95.320484 68.975762 
L 94.947329 69.348916 
L 94.574175 69.348916 
L 94.574175 69.722071 
L 94.574175 70.095226 
L 94.947329 70.095226 
L 95.320484 70.095226 
L 95.320484 69.722071 
L 96.066793 69.348916 
L 97.559412 68.602607 
L 98.678876 68.229452 
L 99.79834 67.483143 
L 100.917805 66.736833 
L 101.290959 66.736833 
L 102.037269 66.363679 
" style="fill:none;stroke:#8c8c8c;stroke-linecap:square;"/>
   </g>
  </g>
 </g>
 <defs>
  <clipPath id="p95f9319df5">
   <rect height="267.216085" width="608.727273" x="7.2" y="7.2"/>
  </clipPath>
 </defs>
</svg>
