<?xml version="1.0" encoding="utf-8" standalone="no"?>
<!DOCTYPE svg PUBLIC "-//W3C//DTD SVG 1.1//EN"
  "http://www.w3.org/Graphics/SVG/1.1/DTD/svg11.dtd">
<!-- Created with matplotlib (https://matplotlib.org/) -->
<svg height="286.2pt" version="1.1" viewBox="0 0 224.568917 286.2" width="224.568917pt" xmlns="http://www.w3.org/2000/svg" xmlns:xlink="http://www.w3.org/1999/xlink">
 <metadata>
  <rdf:RDF xmlns:cc="http://creativecommons.org/ns#" xmlns:dc="http://purl.org/dc/elements/1.1/" xmlns:rdf="http://www.w3.org/1999/02/22-rdf-syntax-ns#">
   <cc:Work>
    <dc:type rdf:resource="http://purl.org/dc/dcmitype/StillImage"/>
    <dc:date>2024-11-15T16:04:14.744923</dc:date>
    <dc:format>image/svg+xml</dc:format>
    <dc:creator>
     <cc:Agent>
      <dc:title>Matplotlib v3.3.4, https://matplotlib.org/</dc:title>
     </cc:Agent>
    </dc:creator>
   </cc:Work>
  </rdf:RDF>
 </metadata>
 <defs>
  <style type="text/css">*{stroke-linecap:butt;stroke-linejoin:round;}</style>
 </defs>
 <g id="figure_1">
  <g id="patch_1">
   <path d="M 0 286.2 
L 224.568917 286.2 
L 224.568917 0 
L 0 0 
z
" style="fill:#ffffff;"/>
  </g>
  <g id="axes_1">
   <g id="line2d_1">
    <path clip-path="url(#p21d4de72e1)" d="M 16.753133 82.822409 
L 17.067898 82.822409 
L 17.067898 82.507643 
L 17.382664 82.507643 
L 17.382664 82.192878 
L 18.012195 82.192878 
L 18.641726 81.248581 
L 19.900787 80.61905 
L 21.159849 79.359988 
L 22.733677 78.100926 
L 23.677973 77.15663 
L 25.251801 75.897568 
L 25.881332 75.268037 
L 26.196097 74.638506 
L 26.196097 74.323741 
L 26.510863 74.323741 
L 26.510863 74.008975 
" style="fill:none;stroke:#c44e52;stroke-linecap:square;"/>
   </g>
   <g id="line2d_2">
    <path clip-path="url(#p21d4de72e1)" d="M 34.38 71.176086 
L 34.38 71.490851 
L 34.38 71.805617 
L 34.38 72.120382 
L 34.38 72.435148 
L 34.38 73.064679 
L 34.38 73.69421 
L 34.38 74.323741 
L 34.38 74.638506 
L 34.38 75.268037 
" style="fill:none;stroke:#c44e52;stroke-linecap:square;"/>
   </g>
   <g id="line2d_3">
    <path clip-path="url(#p21d4de72e1)" d="M 34.38 67.084134 
L 34.38 66.769369 
L 34.065235 66.769369 
" style="fill:none;stroke:#c44e52;stroke-linecap:square;"/>
   </g>
   <g id="line2d_4">
    <path clip-path="url(#p21d4de72e1)" d="M 36.583358 70.86132 
L 36.898124 71.176086 
L 36.898124 71.490851 
L 36.898124 71.805617 
L 36.898124 72.120382 
L 37.212889 72.435148 
L 37.212889 73.064679 
L 37.212889 73.69421 
L 37.527655 74.008975 
L 37.527655 73.69421 
L 37.84242 73.69421 
L 37.84242 72.749913 
L 38.157186 71.805617 
L 38.471951 70.86132 
L 38.471951 70.231789 
L 38.786717 70.231789 
L 38.786717 69.917024 
L 39.101482 69.917024 
L 39.416248 70.231789 
L 39.731013 71.176086 
L 40.045779 72.435148 
L 40.045779 73.69421 
L 40.360544 74.323741 
L 40.360544 74.638506 
L 40.360544 74.953272 
" style="fill:none;stroke:#c44e52;stroke-linecap:square;"/>
   </g>
   <g id="line2d_5">
    <path clip-path="url(#p21d4de72e1)" d="M 42.563903 70.546555 
L 42.563903 70.86132 
L 42.878668 70.86132 
L 42.878668 71.176086 
L 43.193434 71.805617 
L 43.508199 72.120382 
L 43.508199 72.435148 
L 43.508199 72.749913 
L 43.822965 72.749913 
L 43.508199 72.120382 
L 43.193434 71.176086 
L 42.563903 69.287493 
L 42.563903 68.028431 
L 42.563903 66.769369 
L 42.878668 65.825072 
L 43.822965 64.56601 
L 44.452496 64.251245 
L 45.396792 64.251245 
L 45.711558 64.251245 
" style="fill:none;stroke:#c44e52;stroke-linecap:square;"/>
   </g>
   <g id="line2d_6">
    <path clip-path="url(#p21d4de72e1)" d="M 41.619606 69.602258 
L 41.619606 69.917024 
L 41.934372 69.917024 
L 42.563903 69.917024 
L 43.822965 69.602258 
L 45.396792 69.287493 
L 46.655854 68.972727 
L 46.97062 68.972727 
" style="fill:none;stroke:#c44e52;stroke-linecap:square;"/>
   </g>
   <g id="line2d_7">
    <path clip-path="url(#p21d4de72e1)" d="M 47.285385 68.972727 
L 47.285385 69.287493 
L 47.285385 69.917024 
L 47.600151 70.546555 
L 47.600151 71.490851 
L 47.914916 72.120382 
L 48.229682 72.435148 
L 48.544447 72.435148 
L 48.544447 72.120382 
L 48.859213 71.490851 
L 48.859213 70.546555 
L 49.173978 69.917024 
L 49.488743 69.602258 
L 49.803509 69.287493 
L 50.118274 69.287493 
" style="fill:none;stroke:#c44e52;stroke-linecap:square;"/>
   </g>
   <g id="line2d_8">
    <path clip-path="url(#p21d4de72e1)" d="M 52.636398 68.972727 
L 52.951164 68.972727 
L 53.265929 68.972727 
L 52.951164 68.972727 
L 52.951164 69.287493 
L 52.636398 69.287493 
L 52.321633 69.917024 
L 51.692102 70.546555 
L 51.377336 71.176086 
L 51.692102 71.805617 
L 52.321633 71.805617 
L 52.951164 71.805617 
L 53.580695 71.805617 
L 53.89546 71.176086 
L 53.89546 70.546555 
L 53.89546 69.917024 
L 53.89546 69.602258 
L 53.89546 69.287493 
L 54.210226 69.287493 
L 54.210226 69.602258 
L 54.210226 70.231789 
L 54.524991 70.86132 
L 55.154522 71.805617 
L 55.469288 72.120382 
L 55.469288 72.435148 
" style="fill:none;stroke:#c44e52;stroke-linecap:square;"/>
   </g>
   <g id="line2d_9">
    <path clip-path="url(#p21d4de72e1)" d="M 57.357881 70.546555 
L 57.357881 70.231789 
L 57.357881 69.917024 
L 57.357881 70.231789 
L 57.672646 70.86132 
L 57.987412 71.176086 
L 57.987412 71.490851 
L 58.302177 71.805617 
L 58.302177 71.490851 
L 58.302177 71.176086 
L 57.987412 70.86132 
L 58.302177 70.231789 
L 58.302177 69.287493 
L 58.931708 68.657962 
L 59.561239 68.028431 
L 59.876005 68.028431 
" style="fill:none;stroke:#c44e52;stroke-linecap:square;"/>
   </g>
   <g id="line2d_10">
    <path clip-path="url(#p21d4de72e1)" d="M 62.708894 68.343196 
L 63.02366 68.343196 
L 63.338425 68.343196 
L 63.653191 68.343196 
L 63.967956 68.028431 
L 63.967956 67.713665 
L 63.653191 67.713665 
L 63.02366 67.713665 
L 62.394129 68.343196 
L 61.764598 68.972727 
L 61.764598 70.231789 
L 62.394129 70.86132 
L 63.02366 71.490851 
L 63.967956 71.805617 
L 64.282721 71.805617 
" style="fill:none;stroke:#c44e52;stroke-linecap:square;"/>
   </g>
   <g id="line2d_11">
    <path clip-path="url(#p21d4de72e1)" d="M 69.318969 68.657962 
L 69.318969 68.343196 
L 69.633735 68.028431 
L 69.633735 67.713665 
L 69.318969 67.3989 
L 69.318969 67.084134 
L 69.004204 67.084134 
L 68.374673 67.084134 
L 67.430376 67.713665 
L 66.800845 68.657962 
L 66.48608 69.287493 
L 67.115611 69.917024 
L 67.430376 70.231789 
L 68.059907 69.917024 
L 68.689438 68.972727 
L 69.004204 68.028431 
L 69.318969 66.139838 
L 69.633735 63.936479 
L 69.318969 62.362652 
L 69.318969 61.418356 
L 69.318969 60.474059 
L 69.318969 60.159294 
L 69.318969 59.844528 
L 69.004204 59.844528 
L 69.004204 60.474059 
L 69.318969 62.992183 
L 69.633735 65.195541 
L 70.578031 67.3989 
L 71.207562 69.287493 
L 71.522328 69.917024 
L 71.837093 70.546555 
" style="fill:none;stroke:#c44e52;stroke-linecap:square;"/>
   </g>
   <g id="line2d_12">
    <path clip-path="url(#p21d4de72e1)" d="M 20.215553 265.701158 
L 20.215553 266.015924 
L 20.530318 266.015924 
L 20.845084 266.015924 
L 21.159849 266.015924 
L 21.474615 266.015924 
L 21.78938 266.015924 
L 22.104146 266.015924 
L 22.104146 266.330689 
L 22.418911 266.330689 
L 22.733677 266.330689 
L 23.048442 266.330689 
L 23.363208 266.330689 
L 23.677973 266.330689 
L 23.992739 266.330689 
L 23.992739 266.015924 
L 24.307504 266.015924 
L 24.307504 265.701158 
L 24.62227 265.701158 
" style="fill:none;stroke:#8c8c8c;stroke-linecap:square;"/>
   </g>
   <g id="line2d_13">
    <path clip-path="url(#p21d4de72e1)" d="M 20.530318 266.330689 
L 21.159849 266.330689 
L 21.474615 266.645455 
L 21.474615 266.330689 
L 22.418911 266.330689 
L 22.418911 266.015924 
L 22.733677 266.015924 
L 22.733677 265.701158 
L 23.048442 265.701158 
L 23.048442 265.386393 
L 23.363208 265.386393 
L 23.363208 265.071627 
L 23.677973 265.071627 
L 23.992739 264.756862 
L 23.992739 264.442096 
L 24.307504 264.442096 
L 24.307504 264.127331 
L 24.62227 264.127331 
L 24.62227 263.4978 
L 24.937035 263.4978 
L 24.937035 262.553503 
L 25.251801 262.238738 
L 25.251801 261.294441 
L 25.566566 260.979676 
L 25.566566 260.035379 
L 25.881332 259.720614 
L 25.881332 257.517255 
L 26.196097 256.887724 
L 26.196097 249.962884 
L 26.510863 249.648118 
L 26.510863 247.759525 
L 26.825628 247.44476 
L 26.825628 244.297105 
L 27.140394 243.982339 
L 27.140394 233.595078 
L 27.455159 233.280313 
L 27.455159 230.762189 
L 27.769925 230.447423 
L 27.769925 228.55883 
L 28.08469 228.244065 
L 28.08469 226.670237 
L 28.399456 226.670237 
L 28.399456 225.725941 
L 29.028987 225.725941 
L 29.028987 226.040706 
L 29.343752 226.040706 
L 29.343752 226.355472 
L 29.658518 226.355472 
L 29.658518 226.670237 
L 29.973283 226.670237 
L 30.288049 226.985003 
L 30.288049 227.614534 
L 30.602814 227.614534 
L 30.602814 246.185698 
L 30.91758 246.815229 
L 30.91758 251.851477 
L 31.232345 252.166242 
L 31.232345 254.684366 
L 31.547111 254.999131 
L 31.547111 257.20249 
L 31.861876 257.517255 
L 31.861876 264.442096 
L 32.176642 264.756862 
L 32.176642 265.701158 
L 32.806173 265.701158 
L 32.806173 265.386393 
L 33.120938 265.386393 
L 33.120938 265.071627 
L 33.435704 265.071627 
L 33.750469 264.756862 
L 33.750469 264.442096 
L 34.065235 264.442096 
L 34.065235 264.127331 
L 34.694765 264.127331 
L 35.009531 264.442096 
L 35.324296 264.442096 
L 35.324296 264.756862 
L 35.953827 264.756862 
L 35.953827 265.071627 
L 36.268593 265.071627 
L 36.583358 265.386393 
L 36.898124 265.386393 
L 37.212889 265.701158 
L 37.84242 265.701158 
L 37.84242 265.701158 
" style="fill:none;stroke:#55a868;stroke-linecap:square;"/>
   </g>
   <g id="line2d_14">
    <path clip-path="url(#p21d4de72e1)" d="M 23.992739 136.332542 
L 23.992739 136.017776 
L 23.677973 136.017776 
L 23.677973 135.07348 
L 23.992739 135.07348 
L 23.992739 129.407701 
L 23.677973 128.77817 
L 23.677973 124.056688 
L 23.363208 123.427157 
L 23.363208 119.335206 
L 23.048442 118.076144 
L 23.048442 114.613723 
L 22.733677 113.984192 
L 22.733677 103.596931 
L 23.048442 102.9674 
L 23.048442 98.875449 
L 23.363208 97.616387 
L 23.363208 96.042559 
L 23.677973 94.783497 
L 23.677973 88.488188 
L 23.992739 87.858657 
L 23.992739 80.304285 
L 24.307504 79.674754 
L 24.307504 79.045223 
L 23.992739 78.730457 
L 23.992739 77.15663 
L 23.677973 76.527099 
L 23.677973 75.268037 
L 23.363208 74.638506 
L 23.363208 73.379444 
L 23.048442 72.749913 
L 23.048442 72.120382 
L 22.733677 71.805617 
L 22.733677 71.176086 
L 22.104146 70.231789 
L 22.104146 69.602258 
L 21.78938 68.972727 
L 21.78938 68.028431 
L 21.474615 67.713665 
L 21.474615 66.769369 
L 21.78938 66.454603 
L 21.78938 65.195541 
L 22.104146 64.880776 
L 22.104146 63.936479 
L 22.418911 63.306948 
L 22.418911 62.992183 
L 22.733677 62.677417 
L 22.733677 61.418356 
L 23.048442 60.788825 
L 23.048442 59.529763 
L 23.363208 59.214997 
L 23.363208 58.585466 
L 23.677973 58.270701 
L 23.677973 57.011639 
L 23.992739 56.696873 
L 23.992739 56.067342 
L 24.307504 55.752577 
L 24.307504 55.437811 
L 24.62227 55.123046 
L 24.62227 54.80828 
L 24.937035 54.80828 
L 24.937035 54.493515 
L 25.251801 54.493515 
L 25.566566 54.178749 
L 25.881332 54.178749 
L 25.881332 53.863984 
L 26.196097 53.863984 
L 26.196097 54.493515 
L 26.510863 54.493515 
L 26.510863 61.10359 
L 26.825628 61.733121 
L 26.825628 64.880776 
L 27.140394 66.139838 
L 27.140394 67.084134 
L 27.455159 68.028431 
L 27.455159 72.120382 
L 27.769925 73.064679 
L 27.769925 74.323741 
L 28.08469 75.268037 
L 28.08469 77.15663 
L 28.399456 77.786161 
L 30.288049 83.45194 
L 30.288049 84.396236 
L 30.602814 85.025767 
L 30.91758 86.284829 
L 30.91758 86.91436 
L 31.232345 87.858657 
L 31.232345 93.524435 
L 31.547111 94.468732 
L 31.547111 95.413028 
L 32.176642 97.301621 
L 32.176642 98.245918 
L 32.491407 99.190214 
L 32.176642 100.449276 
L 32.176642 102.337869 
L 31.861876 103.596931 
L 31.861876 105.170759 
L 31.547111 105.80029 
L 31.547111 107.688882 
L 31.232345 108.318413 
L 31.232345 110.521772 
L 30.91758 111.780834 
L 30.91758 125.000984 
L 30.602814 125.630515 
L 30.602814 129.092936 
L 30.288049 130.351998 
L 30.288049 132.870122 
L 29.973283 133.499653 
L 29.973283 133.814418 
L 29.658518 134.443949 
L 29.658518 135.703011 
L 29.658518 135.703011 
" style="fill:none;stroke:#55a868;stroke-linecap:square;"/>
   </g>
   <g id="line2d_15">
    <path clip-path="url(#p21d4de72e1)" d="M 24.937035 136.647307 
L 24.62227 136.647307 
L 24.937035 136.017776 
L 25.881332 134.758715 
L 27.140394 132.870122 
L 28.399456 130.666763 
L 29.028987 129.722467 
L 29.028987 129.092936 
L 28.714221 129.092936 
L 28.399456 130.037232 
L 27.455159 131.296294 
L 27.140394 131.61106 
" style="fill:none;stroke:#55a868;stroke-linecap:square;"/>
   </g>
   <g id="line2d_16">
    <path clip-path="url(#p21d4de72e1)" d="M 25.881332 133.814418 
L 25.566566 133.814418 
L 25.566566 134.129184 
L 25.881332 133.184887 
L 27.140394 131.296294 
L 27.769925 129.407701 
L 28.399456 127.833874 
L 28.399456 126.889577 
L 28.399456 126.574812 
L 28.08469 126.889577 
L 27.455159 127.833874 
L 27.140394 128.148639 
" style="fill:none;stroke:#55a868;stroke-linecap:square;"/>
   </g>
   <g id="line2d_17">
    <path clip-path="url(#p21d4de72e1)" d="M 25.251801 131.296294 
L 25.566566 131.296294 
L 25.881332 130.351998 
L 26.510863 128.77817 
L 27.769925 126.260046 
L 28.399456 124.371453 
L 29.028987 123.112391 
L 29.028987 122.48286 
L 28.714221 122.48286 
L 28.08469 123.112391 
" style="fill:none;stroke:#55a868;stroke-linecap:square;"/>
   </g>
   <g id="line2d_18">
    <path clip-path="url(#p21d4de72e1)" d="M 25.566566 126.574812 
L 25.566566 126.260046 
L 25.881332 125.945281 
L 26.196097 125.000984 
L 26.825628 122.797626 
L 27.455159 120.909033 
L 27.455159 119.964737 
L 27.455159 119.649971 
L 27.140394 119.649971 
L 26.510863 120.279502 
L 25.566566 121.538564 
L 24.937035 122.48286 
L 24.307504 123.112391 
L 24.62227 122.168095 
L 25.881332 119.964737 
L 26.825628 116.817082 
L 27.140394 114.928489 
L 27.455159 113.354661 
L 27.455159 112.72513 
L 27.140394 112.72513 
L 26.510863 113.669427 
L 25.566566 114.928489 
L 24.307504 116.817082 
L 23.992739 117.446613 
L 23.677973 117.761378 
L 23.992739 117.761378 
L 24.307504 115.872785 
L 25.251801 113.669427 
L 26.510863 110.521772 
L 27.140394 108.318413 
L 27.455159 107.059351 
L 27.455159 106.42982 
L 27.140394 106.744586 
L 26.196097 107.374117 
L 25.251801 108.318413 
L 24.937035 108.947944 
" style="fill:none;stroke:#55a868;stroke-linecap:square;"/>
   </g>
   <g id="line2d_19">
    <path clip-path="url(#p21d4de72e1)" d="M 23.992739 110.836537 
L 24.307504 109.577475 
L 25.881332 106.744586 
L 26.825628 104.541228 
L 27.455159 102.337869 
L 27.455159 101.708338 
L 27.455159 101.393573 
L 26.825628 101.708338 
L 25.881332 102.652635 
" style="fill:none;stroke:#55a868;stroke-linecap:square;"/>
   </g>
   <g id="line2d_20">
    <path clip-path="url(#p21d4de72e1)" d="M 23.677973 106.744586 
L 23.992739 106.744586 
L 23.992739 106.42982 
L 24.937035 104.855993 
L 26.510863 101.708338 
L 27.769925 99.190214 
L 28.714221 97.301621 
L 28.714221 96.67209 
L 28.399456 96.357325 
L 27.455159 96.986856 
L 26.825628 97.931152 
L 26.196097 98.245918 
" style="fill:none;stroke:#55a868;stroke-linecap:square;"/>
   </g>
   <g id="line2d_21">
    <path clip-path="url(#p21d4de72e1)" d="M 24.307504 102.023104 
L 23.992739 102.023104 
L 24.307504 101.708338 
L 24.62227 100.449276 
L 25.566566 98.875449 
L 27.140394 96.042559 
L 27.769925 94.783497 
L 28.399456 93.524435 
L 28.399456 92.894904 
L 28.08469 92.894904 
L 27.769925 92.894904 
L 26.825628 93.20967 
L 26.196097 93.839201 
" style="fill:none;stroke:#55a868;stroke-linecap:square;"/>
   </g>
   <g id="line2d_22">
    <path clip-path="url(#p21d4de72e1)" d="M 24.937035 95.098263 
L 24.62227 95.098263 
L 25.251801 93.839201 
L 25.881332 92.580139 
L 26.825628 90.691546 
L 27.140394 89.432484 
L 27.455159 88.802953 
L 27.140394 88.488188 
L 26.196097 88.802953 
L 25.251801 89.74725 
L 23.992739 91.006312 
L 23.992739 91.321077 
" style="fill:none;stroke:#55a868;stroke-linecap:square;"/>
   </g>
   <g id="line2d_23">
    <path clip-path="url(#p21d4de72e1)" d="M 23.363208 91.950608 
L 23.048442 92.580139 
L 23.048442 92.580139 
L 23.363208 91.950608 
L 24.62227 90.062015 
L 25.881332 87.543891 
L 26.825628 85.970064 
L 27.140394 85.025767 
L 27.455159 84.396236 
L 27.140394 84.081471 
L 26.825628 84.081471 
L 25.881332 84.396236 
" style="fill:none;stroke:#55a868;stroke-linecap:square;"/>
   </g>
   <g id="line2d_24">
    <path clip-path="url(#p21d4de72e1)" d="M 23.048442 86.91436 
L 22.733677 86.91436 
L 23.048442 86.284829 
L 23.677973 85.340533 
L 24.62227 83.45194 
L 25.251801 81.878112 
L 25.881332 80.304285 
L 26.196097 79.674754 
L 25.881332 79.045223 
L 25.566566 79.045223 
L 24.937035 79.045223 
" style="fill:none;stroke:#55a868;stroke-linecap:square;"/>
   </g>
   <g id="line2d_25">
    <path clip-path="url(#p21d4de72e1)" d="M 23.677973 80.304285 
L 23.363208 80.304285 
L 23.677973 79.674754 
L 23.992739 78.730457 
L 24.937035 77.15663 
L 25.566566 75.582803 
L 25.566566 74.953272 
L 25.566566 74.638506 
L 25.251801 74.638506 
L 24.62227 74.953272 
L 24.307504 74.953272 
" style="fill:none;stroke:#55a868;stroke-linecap:square;"/>
   </g>
   <g id="line2d_26">
    <path clip-path="url(#p21d4de72e1)" d="M 22.733677 76.527099 
L 22.733677 75.897568 
L 23.363208 74.638506 
L 23.992739 73.379444 
L 24.62227 71.805617 
L 24.937035 70.86132 
L 24.937035 70.546555 
L 24.937035 70.231789 
" style="fill:none;stroke:#55a868;stroke-linecap:square;"/>
   </g>
   <g id="line2d_27">
    <path clip-path="url(#p21d4de72e1)" d="M 23.048442 70.546555 
L 22.733677 70.231789 
L 23.048442 69.917024 
L 23.363208 68.972727 
L 23.992739 68.028431 
L 24.62227 67.084134 
L 24.937035 66.454603 
L 25.251801 65.825072 
L 25.251801 65.510307 
L 24.937035 65.510307 
L 23.992739 65.825072 
L 23.677973 66.139838 
" style="fill:none;stroke:#55a868;stroke-linecap:square;"/>
   </g>
   <g id="line2d_28">
    <path clip-path="url(#p21d4de72e1)" d="M 21.78938 67.3989 
L 22.104146 67.084134 
L 22.733677 65.510307 
L 23.677973 63.621714 
L 24.307504 61.418356 
L 24.307504 60.159294 
L 24.62227 59.529763 
L 24.307504 59.214997 
" style="fill:none;stroke:#55a868;stroke-linecap:square;"/>
   </g>
   <g id="line2d_29">
    <path clip-path="url(#p21d4de72e1)" d="M 116.533793 106.42982 
L 116.219027 106.42982 
L 115.904262 106.42982 
L 115.589496 106.42982 
L 115.589496 106.115055 
L 115.274731 106.115055 
L 115.274731 105.80029 
L 115.589496 105.80029 
L 115.904262 105.80029 
L 116.219027 105.485524 
L 117.478089 105.485524 
L 119.051917 105.170759 
L 120.625744 104.855993 
L 122.829102 104.226462 
L 125.032461 103.911697 
L 127.86535 103.596931 
L 129.753943 103.282166 
L 133.531129 102.9674 
L 136.364019 102.9674 
L 140.141204 102.9674 
L 144.862687 102.9674 
L 148.639873 102.9674 
L 153.990886 102.9674 
L 160.286196 102.9674 
L 166.896271 102.9674 
L 172.876815 102.9674 
L 182.005014 102.9674 
L 187.356028 102.9674 
L 193.021807 103.282166 
L 197.113758 103.282166 
L 199.631882 103.596931 
L 202.150006 103.911697 
L 203.723833 104.226462 
L 204.982895 104.541228 
L 205.612426 104.855993 
L 206.241957 105.170759 
L 206.556723 105.170759 
L 206.871488 105.170759 
L 207.186254 105.485524 
L 207.186254 105.80029 
L 207.501019 105.80029 
L 207.815785 105.80029 
L 207.815785 105.485524 
" style="fill:none;stroke:#8c8c8c;stroke-linecap:square;"/>
   </g>
   <g id="line2d_30">
    <path clip-path="url(#p21d4de72e1)" d="M 150.843231 102.337869 
L 150.843231 102.652635 
L 150.843231 102.337869 
L 150.843231 102.023104 
L 150.843231 101.708338 
L 150.843231 101.393573 
L 150.843231 101.078807 
L 150.843231 100.764042 
L 150.843231 100.449276 
L 150.528466 99.819745 
L 150.528466 99.50498 
L 150.528466 98.875449 
L 150.2137 98.560683 
L 150.2137 97.931152 
L 149.898935 97.301621 
L 149.898935 96.986856 
L 149.898935 96.357325 
L 149.898935 96.042559 
L 149.584169 95.413028 
L 149.584169 95.098263 
L 149.584169 94.468732 
L 149.269404 94.153966 
L 149.269404 93.524435 
L 149.269404 92.894904 
L 149.269404 92.580139 
L 148.954638 92.265373 
L 148.954638 91.635843 
L 148.954638 91.006312 
L 148.954638 90.691546 
L 148.954638 90.376781 
L 148.954638 89.74725 
L 148.639873 89.432484 
L 148.639873 89.117719 
L 148.639873 88.802953 
L 148.639873 88.488188 
L 148.639873 88.173422 
L 148.325107 87.858657 
L 148.325107 87.229126 
L 148.325107 86.91436 
L 148.325107 86.599595 
L 148.325107 86.284829 
L 148.325107 85.970064 
" style="fill:none;stroke:#c44e52;stroke-linecap:square;"/>
   </g>
   <g id="line2d_31">
    <path clip-path="url(#p21d4de72e1)" d="M 144.547921 85.655298 
L 144.862687 85.655298 
L 144.862687 85.340533 
L 145.492218 85.025767 
L 146.121749 84.396236 
L 147.066045 83.766705 
L 147.695576 83.137174 
L 148.325107 82.507643 
L 148.325107 82.192878 
L 148.639873 82.192878 
L 148.954638 82.192878 
L 149.269404 82.822409 
L 149.898935 83.766705 
L 150.528466 84.396236 
L 150.528466 84.711002 
L 150.843231 85.025767 
" style="fill:none;stroke:#c44e52;stroke-linecap:square;"/>
   </g>
   <g id="line2d_32">
    <path clip-path="url(#p21d4de72e1)" d="M 158.397603 89.117719 
L 158.397603 89.432484 
L 158.082837 89.432484 
L 158.082837 89.117719 
L 158.397603 89.117719 
L 158.397603 88.802953 
L 159.027134 88.802953 
L 159.97143 88.488188 
L 160.915727 88.173422 
L 161.230492 88.488188 
L 161.230492 88.802953 
L 160.600961 89.74725 
L 159.656665 91.006312 
L 158.712368 91.950608 
L 158.397603 92.580139 
L 158.712368 93.20967 
L 159.341899 93.524435 
L 160.600961 93.524435 
L 161.545258 93.524435 
L 162.174789 93.20967 
L 162.80432 92.894904 
" style="fill:none;stroke:#c44e52;stroke-linecap:square;"/>
   </g>
   <g id="line2d_33">
    <path clip-path="url(#p21d4de72e1)" d="M 165.951975 88.173422 
L 165.951975 87.858657 
L 165.951975 87.543891 
L 165.637209 87.543891 
L 165.007678 87.543891 
L 164.692913 87.543891 
L 164.063382 87.858657 
L 163.748616 87.858657 
L 163.433851 88.173422 
L 163.119085 88.488188 
L 163.433851 88.802953 
L 163.748616 89.117719 
L 164.692913 89.432484 
L 165.951975 90.062015 
L 166.581506 90.376781 
L 167.211036 91.321077 
L 167.211036 92.265373 
L 167.211036 93.20967 
L 166.896271 93.839201 
L 166.26674 93.839201 
L 165.637209 93.20967 
L 165.007678 91.950608 
" style="fill:none;stroke:#c44e52;stroke-linecap:square;"/>
   </g>
   <g id="line2d_34">
    <path clip-path="url(#p21d4de72e1)" d="M 165.637209 86.284829 
L 165.007678 86.284829 
L 165.007678 86.599595 
L 165.322444 86.599595 
L 165.951975 86.599595 
L 166.896271 86.284829 
L 167.840567 86.284829 
L 168.155333 85.970064 
L 168.470098 85.970064 
" style="fill:none;stroke:#c44e52;stroke-linecap:square;"/>
   </g>
   <g id="line2d_35">
    <path clip-path="url(#p21d4de72e1)" d="M 170.673457 85.970064 
L 170.988222 85.970064 
L 170.988222 86.284829 
L 170.988222 86.599595 
L 170.673457 86.599595 
L 170.043926 87.543891 
L 169.414395 88.173422 
L 169.414395 88.802953 
L 169.414395 89.432484 
L 169.72916 89.74725 
L 170.358691 90.062015 
L 171.302988 90.376781 
L 172.247284 91.006312 
L 172.56205 91.635843 
L 172.876815 92.580139 
L 172.876815 93.20967 
L 172.56205 93.839201 
L 171.932519 94.153966 
L 170.988222 93.524435 
L 170.358691 92.265373 
" style="fill:none;stroke:#c44e52;stroke-linecap:square;"/>
   </g>
   <g id="line2d_36">
    <path clip-path="url(#p21d4de72e1)" d="M 168.784864 86.91436 
L 168.784864 86.599595 
L 169.099629 86.284829 
L 169.72916 85.970064 
L 170.988222 85.970064 
L 171.932519 85.655298 
L 172.56205 85.970064 
L 173.191581 85.655298 
" style="fill:none;stroke:#c44e52;stroke-linecap:square;"/>
   </g>
   <g id="line2d_37">
    <path clip-path="url(#p21d4de72e1)" d="M 181.060718 85.655298 
L 181.060718 85.340533 
L 180.745953 85.340533 
L 180.745953 84.711002 
L 180.745953 85.025767 
L 180.745953 85.970064 
L 181.060718 87.229126 
L 181.060718 89.117719 
L 181.375483 91.006312 
L 181.375483 92.265373 
L 181.690249 93.20967 
L 181.690249 93.524435 
" style="fill:none;stroke:#c44e52;stroke-linecap:square;"/>
   </g>
   <g id="line2d_38">
    <path clip-path="url(#p21d4de72e1)" d="M 184.837904 85.970064 
L 184.837904 86.284829 
L 184.523138 86.91436 
L 183.893607 87.858657 
L 182.949311 88.488188 
L 182.005014 89.117719 
L 181.690249 89.432484 
L 181.375483 89.432484 
L 181.060718 89.74725 
L 181.375483 89.74725 
L 181.690249 90.062015 
L 182.634545 90.376781 
L 183.893607 91.321077 
L 184.837904 92.265373 
L 185.7822 93.20967 
L 186.096966 93.524435 
L 186.411731 93.524435 
L 186.726497 93.524435 
" style="fill:none;stroke:#c44e52;stroke-linecap:square;"/>
   </g>
   <g id="line2d_39">
    <path clip-path="url(#p21d4de72e1)" d="M 103.628408 54.493515 
L 103.313642 54.493515 
L 103.313642 54.80828 
L 102.998877 54.80828 
L 102.998877 55.123046 
L 102.684111 55.437811 
L 102.684111 56.067342 
L 102.05458 56.696873 
L 102.05458 57.011639 
L 101.425049 59.529763 
L 101.425049 61.10359 
L 101.739815 61.733121 
L 102.05458 62.677417 
L 103.313642 63.936479 
L 104.257939 63.936479 
L 106.146532 63.306948 
L 108.664655 62.047887 
L 111.81231 60.788825 
L 112.756607 60.788825 
L 113.071372 61.10359 
L 115.904262 65.195541 
L 117.478089 65.825072 
L 120.625744 66.454603 
L 122.514337 66.454603 
L 124.717695 66.139838 
L 126.921054 66.139838 
L 131.013005 65.510307 
L 137.308315 65.510307 
L 140.141204 66.139838 
L 145.177452 66.139838 
L 146.436514 65.825072 
L 147.695576 65.825072 
L 148.639873 65.510307 
L 150.843231 66.139838 
L 152.102293 66.139838 
L 154.305651 65.510307 
L 155.564713 65.510307 
L 156.823775 65.195541 
L 157.453306 65.195541 
L 159.027134 65.510307 
L 159.97143 65.825072 
L 161.545258 65.825072 
L 167.525802 63.936479 
L 170.043926 63.306948 
L 171.617753 63.306948 
L 174.135877 62.677417 
L 176.339236 62.677417 
L 177.598298 62.992183 
L 178.227829 62.992183 
L 179.172125 63.306948 
L 180.745953 63.306948 
L 182.31978 63.621714 
L 183.893607 63.306948 
L 185.467435 63.306948 
L 186.726497 62.992183 
L 189.874152 62.992183 
L 192.392276 61.733121 
L 194.280869 61.10359 
L 195.225165 61.10359 
L 196.169461 60.474059 
L 197.428523 60.159294 
L 198.37282 60.159294 
L 199.631882 59.844528 
L 200.261413 59.844528 
L 200.576178 59.529763 
L 202.150006 59.529763 
L 202.779537 59.214997 
L 203.409068 58.585466 
L 203.723833 57.955935 
L 204.353364 57.011639 
L 204.982895 56.382108 
L 205.297661 55.123046 
L 205.612426 54.493515 
L 205.612426 53.549218 
L 204.982895 52.290156 
L 204.66813 51.975391 
L 204.038599 51.660625 
L 203.409068 51.660625 
L 202.779537 51.34586 
L 199.002351 50.086798 
L 197.743289 49.457267 
L 196.798992 48.51297 
L 195.854696 47.883439 
L 193.651338 47.253909 
L 191.762745 47.883439 
L 190.503683 48.51297 
L 188.929855 49.142501 
L 188.300324 49.142501 
L 186.411731 48.827736 
L 183.893607 48.198205 
L 179.172125 46.624378 
L 176.968767 46.309612 
L 174.765408 46.309612 
L 173.821112 45.994847 
L 172.876815 45.994847 
L 170.988222 45.680081 
L 168.784864 45.994847 
L 158.397603 45.994847 
L 147.695576 47.568674 
L 141.085501 49.142501 
L 138.567377 50.086798 
L 137.62308 50.401563 
L 137.308315 50.716329 
L 136.99355 50.716329 
L 136.364019 51.031094 
L 135.419722 51.031094 
L 134.16066 50.716329 
L 132.586833 50.086798 
L 131.327771 50.086798 
L 129.753943 49.457267 
L 128.494881 49.457267 
L 126.921054 48.827736 
L 125.032461 48.51297 
L 122.514337 47.568674 
L 120.310979 46.939143 
L 119.366682 46.624378 
L 117.478089 46.624378 
L 116.533793 46.309612 
L 115.274731 46.309612 
L 114.015669 46.624378 
L 112.127076 46.939143 
L 110.553248 47.568674 
L 107.720359 49.772032 
L 107.405594 50.401563 
L 107.405594 50.716329 
L 107.090828 51.031094 
L 107.090828 51.660625 
L 106.776063 51.660625 
L 106.461297 51.975391 
L 106.146532 51.975391 
L 103.628408 54.493515 
L 103.313642 54.493515 
L 103.313642 54.80828 
L 102.684111 54.80828 
L 102.369346 55.123046 
L 101.739815 55.123046 
L 101.739815 55.437811 
L 101.739815 55.437811 
" style="fill:none;stroke:#55a868;stroke-linecap:square;"/>
   </g>
   <g id="line2d_40">
    <path clip-path="url(#p21d4de72e1)" d="M 123.458633 57.955935 
L 123.458633 58.270701 
L 123.458633 58.585466 
L 123.458633 58.900232 
L 123.458633 59.214997 
L 123.458633 59.529763 
L 123.458633 60.474059 
L 123.458633 61.733121 
L 123.458633 62.677417 
L 123.458633 63.621714 
L 123.458633 64.880776 
L 123.458633 65.510307 
L 123.458633 66.454603 
L 123.458633 67.3989 
L 123.458633 68.028431 
L 123.458633 68.657962 
L 123.773399 69.287493 
L 123.773399 69.917024 
L 123.773399 70.546555 
L 123.773399 71.176086 
L 123.773399 71.805617 
L 123.773399 72.435148 
L 124.088164 72.749913 
L 124.088164 73.379444 
L 124.088164 73.69421 
L 124.088164 73.379444 
" style="fill:none;stroke:#8c8c8c;stroke-linecap:square;"/>
   </g>
   <g id="line2d_41">
    <path clip-path="url(#p21d4de72e1)" d="M 121.255275 72.435148 
L 121.255275 72.749913 
L 121.255275 73.064679 
L 121.255275 73.379444 
L 121.570041 74.323741 
L 121.884806 75.268037 
L 122.514337 75.897568 
L 122.829102 76.212334 
L 123.458633 76.527099 
L 124.40293 76.212334 
L 124.717695 75.582803 
L 125.347226 74.638506 
L 125.347226 74.008975 
L 125.661992 73.69421 
L 125.661992 73.379444 
L 125.661992 73.064679 
" style="fill:none;stroke:#8c8c8c;stroke-linecap:square;"/>
   </g>
   <g id="line2d_42">
    <path clip-path="url(#p21d4de72e1)" d="M 122.514337 57.326404 
L 122.199572 57.326404 
L 122.199572 57.011639 
L 122.199572 56.696873 
L 122.199572 56.067342 
L 122.199572 55.123046 
L 122.199572 53.863984 
L 122.199572 50.716329 
L 121.884806 47.883439 
L 121.570041 44.421019 
L 121.570041 41.902895 
L 121.570041 40.329068 
L 121.570041 38.440475 
L 121.570041 37.496178 
L 121.570041 36.551882 
L 121.570041 35.922351 
L 121.570041 35.29282 
L 121.570041 34.978054 
L 121.570041 34.663289 
L 121.570041 34.348523 
" style="fill:none;stroke:#8c8c8c;stroke-linecap:square;"/>
   </g>
   <g id="line2d_43">
    <path clip-path="url(#p21d4de72e1)" d="M 117.792855 34.033758 
L 117.792855 34.348523 
L 117.478089 34.348523 
L 117.478089 34.663289 
L 117.792855 34.663289 
L 118.422386 34.663289 
L 119.051917 34.033758 
L 119.996213 33.404227 
L 120.625744 32.459931 
L 121.255275 31.8304 
L 121.570041 31.515634 
L 122.199572 31.200869 
L 122.514337 31.200869 
L 122.514337 31.515634 
L 122.829102 32.459931 
L 123.143868 33.404227 
L 123.458633 34.348523 
L 123.773399 35.29282 
L 123.773399 35.607585 
L 124.088164 35.922351 
" style="fill:none;stroke:#8c8c8c;stroke-linecap:square;"/>
   </g>
   <g id="line2d_44">
    <path clip-path="url(#p21d4de72e1)" d="M 121.884806 56.696873 
L 121.570041 56.382108 
L 121.255275 56.696873 
L 120.94051 56.696873 
L 120.625744 57.011639 
L 120.625744 57.326404 
L 120.625744 57.64117 
L 120.94051 57.955935 
L 121.570041 58.270701 
L 121.884806 57.955935 
L 122.199572 57.955935 
L 122.514337 57.64117 
L 122.199572 57.326404 
L 121.884806 57.326404 
L 121.570041 57.326404 
L 121.255275 57.64117 
L 121.570041 58.270701 
L 122.199572 58.585466 
L 122.829102 58.585466 
L 123.458633 58.585466 
L 123.773399 57.955935 
L 123.458633 57.64117 
L 123.143868 57.326404 
L 122.514337 57.326404 
L 122.199572 57.326404 
L 121.884806 57.326404 
" style="fill:none;stroke:#8c8c8c;stroke-linecap:square;"/>
   </g>
   <g id="line2d_45">
    <path clip-path="url(#p21d4de72e1)" d="M 128.809647 54.178749 
L 128.809647 53.863984 
L 129.124412 53.549218 
L 128.809647 53.549218 
L 128.180116 53.549218 
L 127.550585 54.493515 
L 126.606288 55.437811 
L 126.606288 56.382108 
L 126.921054 57.955935 
L 127.550585 58.900232 
L 128.809647 59.529763 
L 129.753943 59.529763 
L 130.383474 58.900232 
L 131.013005 58.270701 
" style="fill:none;stroke:#8c8c8c;stroke-linecap:square;"/>
   </g>
   <g id="line2d_46">
    <path clip-path="url(#p21d4de72e1)" d="M 131.957302 56.696873 
L 131.957302 56.382108 
L 131.957302 56.067342 
L 131.642536 56.067342 
L 131.327771 56.382108 
L 131.013005 57.011639 
L 131.327771 57.955935 
L 131.957302 58.900232 
L 133.216364 59.214997 
L 134.16066 58.900232 
L 134.790191 57.955935 
L 135.104957 56.696873 
L 135.104957 55.123046 
L 134.790191 54.493515 
L 134.16066 54.178749 
L 133.216364 54.80828 
L 132.586833 55.123046 
L 132.586833 55.752577 
L 132.586833 56.382108 
L 132.586833 56.696873 
" style="fill:none;stroke:#8c8c8c;stroke-linecap:square;"/>
   </g>
   <g id="line2d_47">
    <path clip-path="url(#p21d4de72e1)" d="M 137.62308 57.011639 
L 137.937846 56.696873 
L 138.252611 56.696873 
L 138.567377 56.696873 
L 138.882142 56.696873 
L 139.196908 57.011639 
L 139.511673 57.326404 
L 139.196908 57.64117 
L 138.882142 58.270701 
L 138.567377 58.585466 
L 138.252611 58.900232 
L 137.937846 59.214997 
L 137.937846 59.529763 
L 138.252611 59.844528 
L 138.882142 59.844528 
L 139.511673 60.159294 
L 140.141204 60.159294 
L 141.085501 59.844528 
" style="fill:none;stroke:#8c8c8c;stroke-linecap:square;"/>
   </g>
   <g id="line2d_48">
    <path clip-path="url(#p21d4de72e1)" d="M 148.010342 56.382108 
L 148.010342 56.067342 
L 147.695576 56.067342 
L 147.380811 56.067342 
L 146.75128 56.067342 
L 146.121749 56.067342 
L 145.492218 56.382108 
L 145.177452 57.011639 
L 145.177452 57.326404 
L 145.492218 57.64117 
L 146.436514 57.64117 
L 147.380811 57.64117 
L 147.695576 57.011639 
L 148.325107 56.696873 
L 148.639873 56.067342 
L 148.639873 55.752577 
L 148.639873 55.437811 
L 148.639873 55.752577 
L 148.639873 56.067342 
L 148.954638 56.382108 
L 149.269404 57.64117 
L 149.584169 58.585466 
L 149.898935 59.214997 
L 150.2137 59.214997 
L 150.528466 58.585466 
" style="fill:none;stroke:#8c8c8c;stroke-linecap:square;"/>
   </g>
   <g id="line2d_49">
    <path clip-path="url(#p21d4de72e1)" d="M 150.843231 53.234453 
L 150.843231 52.919687 
L 150.843231 53.234453 
L 150.843231 53.863984 
L 150.843231 54.80828 
L 151.157997 56.067342 
L 151.472762 56.696873 
L 151.472762 57.011639 
L 151.787528 57.011639 
L 152.102293 57.011639 
L 152.417058 56.696873 
L 153.046589 56.696873 
L 153.67612 56.696873 
L 153.990886 56.696873 
L 154.305651 56.696873 
L 154.620417 57.011639 
L 154.620417 57.326404 
L 154.305651 57.955935 
L 153.990886 58.585466 
L 153.361355 58.585466 
L 152.731824 58.270701 
L 152.731824 57.955935 
L 152.731824 57.326404 
L 152.731824 57.011639 
" style="fill:none;stroke:#8c8c8c;stroke-linecap:square;"/>
   </g>
   <g id="line2d_50">
    <path clip-path="url(#p21d4de72e1)" d="M 159.656665 56.067342 
L 159.656665 55.752577 
L 159.341899 55.752577 
L 159.027134 55.752577 
L 158.712368 55.752577 
L 158.397603 55.752577 
L 158.082837 56.067342 
L 157.768072 56.067342 
L 157.453306 56.067342 
L 157.138541 56.067342 
L 156.823775 56.382108 
L 156.50901 56.382108 
L 156.194244 56.696873 
L 156.50901 56.696873 
L 156.50901 57.011639 
L 157.138541 57.011639 
L 157.453306 57.326404 
L 158.082837 57.955935 
L 158.082837 58.270701 
L 158.397603 58.270701 
L 158.397603 58.585466 
L 158.082837 58.900232 
L 157.768072 58.900232 
L 157.453306 58.900232 
" style="fill:none;stroke:#8c8c8c;stroke-linecap:square;"/>
   </g>
   <g id="line2d_51">
    <path clip-path="url(#p21d4de72e1)" d="M 158.397603 58.270701 
L 158.712368 57.955935 
L 159.027134 57.64117 
L 159.341899 57.326404 
L 159.656665 57.326404 
L 159.97143 57.326404 
L 159.97143 57.64117 
L 160.286196 58.270701 
L 160.600961 58.585466 
L 160.915727 58.585466 
L 161.230492 58.585466 
L 161.230492 58.270701 
L 161.230492 57.64117 
L 160.915727 57.011639 
L 160.915727 56.696873 
L 160.600961 56.696873 
" style="fill:none;stroke:#8c8c8c;stroke-linecap:square;"/>
   </g>
   <g id="line2d_52">
    <path clip-path="url(#p21d4de72e1)" d="M 162.80432 57.011639 
L 162.489554 56.696873 
L 162.489554 57.011639 
L 162.489554 57.326404 
L 162.80432 57.326404 
L 162.80432 57.64117 
L 162.80432 57.326404 
L 163.119085 57.011639 
L 163.748616 56.696873 
L 164.063382 56.067342 
L 164.378147 55.752577 
" style="fill:none;stroke:#8c8c8c;stroke-linecap:square;"/>
   </g>
   <g id="line2d_53">
    <path clip-path="url(#p21d4de72e1)" d="M 166.581506 53.234453 
L 166.581506 52.919687 
L 166.581506 52.604922 
L 166.26674 52.604922 
L 166.26674 52.919687 
L 166.26674 53.234453 
L 166.581506 53.863984 
L 166.581506 55.123046 
L 166.896271 56.382108 
L 167.211036 57.326404 
L 167.211036 57.64117 
L 167.211036 57.326404 
L 167.211036 57.011639 
L 167.525802 57.011639 
L 167.525802 56.382108 
L 167.840567 56.382108 
L 168.155333 56.067342 
L 168.470098 56.382108 
L 169.099629 56.382108 
L 169.099629 56.696873 
L 169.414395 57.011639 
L 169.099629 57.326404 
L 168.784864 57.64117 
L 168.155333 57.64117 
L 167.840567 57.64117 
" style="fill:none;stroke:#8c8c8c;stroke-linecap:square;"/>
   </g>
   <g id="line2d_54">
    <path clip-path="url(#p21d4de72e1)" d="M 170.988222 55.437811 
L 171.302988 55.123046 
L 171.617753 55.123046 
L 171.302988 55.123046 
L 170.988222 55.123046 
L 170.358691 55.437811 
L 170.043926 55.437811 
L 170.043926 55.752577 
L 170.043926 56.067342 
L 170.358691 56.382108 
L 170.358691 56.696873 
L 170.673457 57.011639 
L 170.988222 57.326404 
L 170.988222 57.955935 
L 170.988222 58.585466 
L 170.673457 59.214997 
L 170.673457 59.529763 
" style="fill:none;stroke:#8c8c8c;stroke-linecap:square;"/>
   </g>
   <g id="line2d_55">
    <path clip-path="url(#p21d4de72e1)" d="M 113.700903 23.961262 
L 113.386138 23.646497 
L 113.071372 23.646497 
L 113.071372 23.331731 
L 113.386138 23.331731 
L 113.386138 23.016966 
L 113.700903 22.7022 
L 114.015669 22.387435 
L 114.959965 22.387435 
L 115.589496 23.016966 
L 115.904262 23.646497 
L 115.589496 24.276028 
L 115.274731 25.220324 
L 114.959965 25.849855 
L 114.6452 26.794152 
L 114.330434 27.108917 
L 114.015669 27.738448 
L 114.330434 28.367979 
L 115.274731 28.99751 
L 116.219027 28.99751 
L 117.163324 28.99751 
L 118.10762 28.682745 
L 118.422386 28.367979 
" style="fill:none;stroke:#8c8c8c;stroke-linecap:square;"/>
   </g>
   <g id="line2d_56">
    <path clip-path="url(#p21d4de72e1)" d="M 119.051917 21.443138 
L 119.051917 21.128373 
L 119.051917 20.813607 
L 118.737151 21.128373 
L 118.422386 21.443138 
L 117.792855 22.387435 
L 117.478089 23.331731 
L 117.163324 23.961262 
L 117.163324 24.276028 
L 117.792855 24.590793 
L 118.737151 24.905559 
L 120.310979 25.220324 
L 121.255275 25.53509 
L 122.514337 26.479386 
L 123.143868 27.423683 
L 123.458633 28.053214 
L 123.143868 28.682745 
L 122.199572 28.99751 
L 120.310979 28.367979 
L 119.051917 27.423683 
L 118.737151 26.794152 
" style="fill:none;stroke:#8c8c8c;stroke-linecap:square;"/>
   </g>
   <g id="line2d_57">
    <path clip-path="url(#p21d4de72e1)" d="M 117.163324 21.757904 
L 117.163324 21.443138 
L 117.163324 21.128373 
L 117.478089 21.128373 
L 117.478089 20.813607 
L 118.10762 20.813607 
L 119.366682 20.813607 
L 119.996213 20.498842 
L 120.94051 20.498842 
" style="fill:none;stroke:#8c8c8c;stroke-linecap:square;"/>
   </g>
   <g id="line2d_58">
    <path clip-path="url(#p21d4de72e1)" d="M 124.088164 19.554545 
L 124.40293 19.554545 
L 124.40293 19.869311 
L 123.773399 20.498842 
L 123.458633 21.128373 
L 122.829102 22.072669 
L 122.514337 22.7022 
L 122.514337 23.016966 
L 122.829102 23.331731 
L 124.088164 23.646497 
L 125.347226 23.961262 
L 126.921054 24.905559 
L 127.86535 25.849855 
L 128.809647 26.794152 
L 128.809647 27.423683 
L 128.809647 28.053214 
L 128.180116 28.053214 
L 126.606288 27.738448 
L 125.032461 26.794152 
L 124.717695 26.164621 
" style="fill:none;stroke:#8c8c8c;stroke-linecap:square;"/>
   </g>
   <g id="line2d_59">
    <path clip-path="url(#p21d4de72e1)" d="M 123.773399 20.498842 
L 123.458633 20.184076 
L 123.773399 20.184076 
L 124.40293 19.869311 
L 125.347226 19.869311 
L 126.291523 19.554545 
L 127.235819 19.554545 
" style="fill:none;stroke:#8c8c8c;stroke-linecap:square;"/>
   </g>
   <g id="line2d_60">
    <path clip-path="url(#p21d4de72e1)" d="M 131.013005 20.184076 
L 131.013005 20.498842 
L 131.013005 20.813607 
L 131.013005 21.128373 
L 131.327771 22.387435 
L 131.642536 24.276028 
L 132.272067 26.479386 
L 132.586833 27.738448 
L 133.216364 28.99751 
L 133.216364 29.312276 
L 133.216364 29.312276 
" style="fill:none;stroke:#8c8c8c;stroke-linecap:square;"/>
   </g>
   <g id="line2d_61">
    <path clip-path="url(#p21d4de72e1)" d="M 134.475426 22.7022 
L 134.475426 22.387435 
L 134.16066 22.387435 
L 134.16066 22.7022 
L 133.845895 22.7022 
L 133.216364 23.331731 
L 132.586833 23.961262 
L 131.957302 24.590793 
L 131.957302 24.905559 
L 131.642536 24.905559 
L 131.642536 25.220324 
L 131.642536 25.53509 
L 131.957302 25.53509 
L 132.901598 26.164621 
L 134.475426 26.794152 
L 136.049253 27.738448 
L 136.678784 28.053214 
L 137.308315 28.367979 
L 137.62308 28.367979 
L 137.308315 28.053214 
L 137.308315 27.738448 
" style="fill:none;stroke:#8c8c8c;stroke-linecap:square;"/>
   </g>
   <g id="line2d_62">
    <path clip-path="url(#p21d4de72e1)" d="M 98.277394 89.117719 
L 98.277394 89.432484 
L 98.59216 89.74725 
L 99.536456 90.062015 
L 100.795518 90.691546 
L 102.684111 91.006312 
L 103.943173 91.321077 
L 104.572704 91.321077 
L 104.88747 91.635843 
L 104.88747 91.950608 
L 104.88747 92.265373 
L 104.572704 92.894904 
L 103.943173 93.524435 
L 103.313642 94.153966 
L 102.684111 95.098263 
L 101.739815 96.67209 
L 101.110284 97.616387 
L 100.795518 97.931152 
L 100.795518 97.616387 
" style="fill:none;stroke:#8c8c8c;stroke-linecap:square;"/>
   </g>
   <g id="line2d_63">
    <path clip-path="url(#p21d4de72e1)" d="M 108.035124 89.432484 
L 108.035124 89.117719 
L 107.720359 89.117719 
L 108.035124 89.117719 
L 108.035124 88.802953 
L 108.34989 88.802953 
L 108.664655 88.488188 
L 109.608952 88.488188 
L 109.923717 88.802953 
L 109.923717 89.432484 
L 108.979421 91.006312 
L 107.720359 92.265373 
L 107.090828 93.20967 
L 106.776063 94.153966 
L 107.090828 94.783497 
L 107.720359 95.413028 
L 109.294186 95.727794 
L 110.238483 95.727794 
L 111.497545 95.413028 
L 112.127076 94.783497 
L 112.127076 94.468732 
" style="fill:none;stroke:#8c8c8c;stroke-linecap:square;"/>
   </g>
   <g id="line2d_64">
    <path clip-path="url(#p21d4de72e1)" d="M 113.700903 87.858657 
L 113.700903 87.543891 
L 113.700903 87.229126 
L 113.700903 86.91436 
L 113.386138 86.91436 
L 112.756607 87.229126 
L 112.441841 87.543891 
L 111.81231 87.858657 
L 111.81231 88.488188 
L 112.127076 88.802953 
L 113.071372 89.117719 
L 114.015669 89.74725 
L 115.274731 90.376781 
L 115.904262 91.006312 
L 116.219027 91.950608 
L 116.219027 92.894904 
L 115.904262 93.524435 
L 115.274731 94.153966 
L 114.959965 94.468732 
L 114.6452 94.468732 
" style="fill:none;stroke:#8c8c8c;stroke-linecap:square;"/>
   </g>
   <g id="line2d_65">
    <path clip-path="url(#p21d4de72e1)" d="M 112.441841 87.229126 
L 112.441841 86.91436 
L 112.441841 86.599595 
L 112.756607 86.599595 
L 113.071372 86.599595 
L 113.700903 86.599595 
L 114.6452 86.284829 
L 115.589496 85.970064 
" style="fill:none;stroke:#8c8c8c;stroke-linecap:square;"/>
   </g>
   <g id="line2d_66">
    <path clip-path="url(#p21d4de72e1)" d="M 119.681448 85.655298 
L 119.996213 85.655298 
L 119.996213 85.970064 
L 119.681448 86.284829 
L 119.366682 86.599595 
L 118.737151 87.229126 
L 118.10762 87.858657 
L 117.478089 88.173422 
L 117.478089 88.802953 
L 117.478089 89.432484 
L 118.422386 90.062015 
L 119.681448 91.006312 
L 120.625744 91.635843 
L 121.884806 92.580139 
L 122.514337 93.524435 
L 122.829102 94.468732 
L 122.829102 94.783497 
L 122.514337 95.098263 
L 121.255275 95.098263 
L 119.996213 94.468732 
" style="fill:none;stroke:#8c8c8c;stroke-linecap:square;"/>
   </g>
   <g id="line2d_67">
    <path clip-path="url(#p21d4de72e1)" d="M 117.478089 86.91436 
L 117.163324 86.599595 
L 117.163324 86.284829 
L 117.478089 86.284829 
L 117.792855 86.284829 
L 118.422386 86.284829 
L 119.681448 86.284829 
L 120.94051 86.284829 
L 122.199572 85.970064 
L 122.514337 85.970064 
" style="fill:none;stroke:#8c8c8c;stroke-linecap:square;"/>
   </g>
   <g id="line2d_68">
    <path clip-path="url(#p21d4de72e1)" d="M 126.921054 86.91436 
L 126.921054 86.599595 
L 126.606288 86.599595 
L 126.606288 86.91436 
L 126.606288 87.229126 
L 126.921054 87.858657 
L 126.921054 89.74725 
L 127.550585 91.635843 
L 128.180116 92.894904 
L 128.809647 93.839201 
L 129.439178 94.468732 
" style="fill:none;stroke:#8c8c8c;stroke-linecap:square;"/>
   </g>
   <g id="line2d_69">
    <path clip-path="url(#p21d4de72e1)" d="M 131.642536 86.599595 
L 131.957302 86.599595 
L 131.327771 87.229126 
L 130.383474 88.173422 
L 129.124412 89.432484 
L 128.494881 90.062015 
L 128.180116 90.376781 
L 128.180116 90.376781 
L 128.180116 90.691546 
L 129.124412 91.006312 
L 130.068709 91.635843 
L 131.327771 92.580139 
L 133.216364 93.524435 
L 134.790191 94.468732 
L 135.734488 94.783497 
L 136.049253 95.098263 
" style="fill:none;stroke:#8c8c8c;stroke-linecap:square;"/>
   </g>
  </g>
 </g>
 <defs>
  <clipPath id="p21d4de72e1">
   <rect height="271.8" width="210.168917" x="7.2" y="7.2"/>
  </clipPath>
 </defs>
</svg>
