<?xml version="1.0" encoding="utf-8" standalone="no"?>
<!DOCTYPE svg PUBLIC "-//W3C//DTD SVG 1.1//EN"
  "http://www.w3.org/Graphics/SVG/1.1/DTD/svg11.dtd">
<!-- Created with matplotlib (https://matplotlib.org/) -->
<svg height="218.652487pt" version="1.1" viewBox="0 0 567.217337 218.652487" width="567.217337pt" xmlns="http://www.w3.org/2000/svg" xmlns:xlink="http://www.w3.org/1999/xlink">
 <metadata>
  <rdf:RDF xmlns:cc="http://creativecommons.org/ns#" xmlns:dc="http://purl.org/dc/elements/1.1/" xmlns:rdf="http://www.w3.org/1999/02/22-rdf-syntax-ns#">
   <cc:Work>
    <dc:type rdf:resource="http://purl.org/dc/dcmitype/StillImage"/>
    <dc:date>2024-11-15T16:04:19.623593</dc:date>
    <dc:format>image/svg+xml</dc:format>
    <dc:creator>
     <cc:Agent>
      <dc:title>Matplotlib v3.3.4, https://matplotlib.org/</dc:title>
     </cc:Agent>
    </dc:creator>
   </cc:Work>
  </rdf:RDF>
 </metadata>
 <defs>
  <style type="text/css">*{stroke-linecap:butt;stroke-linejoin:round;}</style>
 </defs>
 <g id="figure_1">
  <g id="patch_1">
   <path d="M 0 218.652487 
L 567.217337 218.652487 
L 567.217337 0 
L 0 0 
z
" style="fill:#ffffff;"/>
  </g>
  <g id="axes_1">
   <g id="line2d_1">
    <path clip-path="url(#pca89b6a697)" d="M 190.766629 25.960903 
L 190.766629 26.25705 
L 190.766629 26.553197 
L 190.766629 26.849344 
L 190.470482 27.145491 
L 190.470482 27.441638 
L 190.470482 27.737785 
L 190.470482 28.922372 
L 190.470482 29.810813 
L 190.470482 31.587694 
L 190.470482 32.772281 
L 190.766629 33.956869 
L 190.766629 34.549162 
L 190.766629 34.845309 
L 190.766629 35.141456 
L 190.766629 35.437603 
L 190.470482 35.437603 
" style="fill:none;stroke:#8c8c8c;stroke-linecap:square;"/>
   </g>
   <g id="line2d_2">
    <path clip-path="url(#pca89b6a697)" d="M 187.212867 29.218519 
L 186.91672 29.218519 
L 186.620573 29.218519 
L 186.620573 28.922372 
L 186.91672 29.218519 
L 187.509014 29.218519 
L 188.693601 29.218519 
L 189.582042 29.218519 
L 191.062776 29.218519 
L 191.65507 29.218519 
L 192.54351 29.218519 
L 193.135804 29.218519 
L 193.431951 29.218519 
L 193.728098 29.218519 
L 194.320391 29.218519 
" style="fill:none;stroke:#8c8c8c;stroke-linecap:square;"/>
   </g>
   <g id="line2d_3">
    <path clip-path="url(#pca89b6a697)" d="M 291.752707 28.626225 
L 291.45656 28.626225 
L 291.752707 28.626225 
L 291.752707 28.330078 
L 292.048854 28.330078 
L 292.937295 28.626225 
L 294.121882 28.626225 
L 295.010323 28.626225 
L 295.602616 28.922372 
L 296.491057 28.922372 
L 297.083351 28.922372 
L 297.379498 28.922372 
L 297.675644 28.922372 
" style="fill:none;stroke:#8c8c8c;stroke-linecap:square;"/>
   </g>
   <g id="line2d_4">
    <path clip-path="url(#pca89b6a697)" d="M 279.610686 24.480169 
L 279.610686 24.776316 
L 279.610686 25.072463 
L 279.314539 25.36861 
L 279.314539 25.960903 
L 279.314539 26.849344 
L 279.314539 27.737785 
L 279.314539 28.626225 
L 279.314539 30.403106 
L 279.610686 31.883841 
L 279.610686 33.660722 
L 279.610686 34.549162 
L 279.610686 34.845309 
L 279.610686 35.141456 
L 279.610686 35.437603 
" style="fill:none;stroke:#8c8c8c;stroke-linecap:square;"/>
   </g>
   <g id="line2d_5">
    <path clip-path="url(#pca89b6a697)" d="M 277.537658 34.549162 
L 277.537658 34.253015 
L 277.537658 33.956869 
L 277.537658 33.660722 
L 277.833805 33.660722 
L 277.833805 33.956869 
L 277.833805 34.253015 
L 277.833805 34.549162 
L 278.129952 35.437603 
L 278.426099 36.326043 
L 278.722246 36.918337 
L 278.722246 37.214484 
L 279.018392 37.510631 
L 279.314539 37.510631 
L 279.610686 37.806778 
L 279.906833 37.510631 
L 280.499127 37.214484 
L 281.09142 36.326043 
L 281.387567 35.73375 
L 281.387567 35.437603 
L 281.683714 35.437603 
" style="fill:none;stroke:#8c8c8c;stroke-linecap:square;"/>
   </g>
   <g id="line2d_6">
    <path clip-path="url(#pca89b6a697)" d="M 171.81323 44.025862 
L 165.890293 44.025862 
L 165.594146 44.322008 
L 164.113412 44.322008 
L 164.113412 44.618155 
L 163.521118 44.618155 
L 163.521118 44.914302 
L 163.224971 45.210449 
L 163.224971 46.691183 
L 162.928825 47.283477 
L 162.928825 49.060358 
L 163.224971 49.948799 
L 163.224971 51.72568 
L 163.521118 52.317974 
L 163.521118 54.391002 
L 163.817265 55.575589 
L 163.817265 58.833204 
L 164.113412 59.721645 
L 164.113412 69.198344 
L 163.817265 70.679079 
L 163.817265 82.228806 
L 163.521118 82.8211 
L 163.224971 84.005687 
L 163.224971 85.782568 
L 162.928825 86.671009 
L 162.928825 91.705506 
L 163.224971 92.001652 
L 163.224971 92.890093 
L 163.817265 94.963121 
L 163.817265 105.920555 
L 163.224971 109.474317 
L 163.224971 119.247163 
L 162.928825 121.024044 
L 162.928825 134.054506 
L 163.224971 135.53524 
L 163.224971 139.089003 
L 163.521118 139.977443 
L 163.521118 142.346618 
L 163.817265 143.531205 
L 163.817265 147.381115 
L 164.113412 148.565702 
L 164.113412 152.119464 
L 164.409559 152.119464 
L 164.409559 153.600199 
L 164.113412 153.896345 
L 164.113412 154.784786 
L 164.409559 154.784786 
L 164.409559 155.080933 
L 167.667174 155.080933 
L 168.555615 154.784786 
L 170.92479 154.784786 
L 171.220937 154.488639 
L 172.405524 154.488639 
L 172.405524 154.784786 
L 172.997818 154.784786 
L 172.997818 154.784786 
" style="fill:none;stroke:#8c8c8c;stroke-linecap:square;"/>
   </g>
   <g id="line2d_7">
    <path clip-path="url(#pca89b6a697)" d="M 120.875971 80.155778 
L 120.875971 80.451925 
L 121.172118 80.451925 
L 121.172118 80.748072 
L 121.172118 81.044219 
L 121.468265 81.932659 
L 121.764412 82.8211 
L 122.060558 84.005687 
L 122.060558 84.597981 
L 122.356705 84.894128 
L 122.356705 85.190275 
L 122.060558 84.894128 
" style="fill:none;stroke:#8c8c8c;stroke-linecap:square;"/>
   </g>
   <g id="line2d_8">
    <path clip-path="url(#pca89b6a697)" d="M 120.579824 74.528988 
L 120.875971 74.528988 
" style="fill:none;stroke:#8c8c8c;stroke-linecap:square;"/>
   </g>
   <g id="line2d_9">
    <path clip-path="url(#pca89b6a697)" d="M 125.022027 77.490456 
L 125.022027 77.786603 
L 124.72588 78.08275 
L 124.429733 78.971191 
L 124.429733 80.155778 
L 124.429733 81.340366 
L 125.318174 82.524953 
L 125.910468 83.117247 
L 126.798908 83.117247 
L 127.391202 82.8211 
" style="fill:none;stroke:#8c8c8c;stroke-linecap:square;"/>
   </g>
   <g id="line2d_10">
    <path clip-path="url(#pca89b6a697)" d="M 127.983496 79.563484 
L 127.983496 79.859631 
L 128.279642 79.563484 
L 128.575789 79.563484 
L 128.871936 79.267338 
L 129.168083 78.675044 
L 129.46423 78.08275 
L 129.46423 77.490456 
L 129.168083 77.490456 
L 128.575789 77.490456 
L 127.983496 78.08275 
L 127.391202 79.267338 
L 127.687349 81.044219 
L 128.279642 82.228806 
L 129.46423 83.413394 
L 130.648817 83.70954 
L 131.537258 83.413394 
L 131.833405 82.524953 
" style="fill:none;stroke:#8c8c8c;stroke-linecap:square;"/>
   </g>
   <g id="line2d_11">
    <path clip-path="url(#pca89b6a697)" d="M 131.537258 75.417428 
L 131.241111 75.417428 
L 131.241111 75.121282 
L 131.241111 75.417428 
L 131.241111 76.009722 
L 131.537258 77.19431 
L 132.129552 78.675044 
L 132.425698 79.563484 
L 133.017992 80.451925 
L 133.017992 80.748072 
L 133.017992 80.451925 
L 133.017992 80.155778 
L 133.017992 79.267338 
L 133.314139 78.675044 
L 133.610286 78.08275 
L 133.906433 78.08275 
L 134.20258 78.08275 
L 134.794873 78.675044 
L 135.09102 79.859631 
L 135.387167 80.451925 
L 135.387167 80.748072 
L 135.683314 80.748072 
" style="fill:none;stroke:#8c8c8c;stroke-linecap:square;"/>
   </g>
   <g id="line2d_12">
    <path clip-path="url(#pca89b6a697)" d="M 136.867901 78.08275 
L 136.867901 77.786603 
L 136.571754 77.786603 
L 136.275608 77.786603 
L 136.275608 78.08275 
L 136.275608 78.378897 
L 136.571754 79.267338 
L 137.164048 79.859631 
L 137.756342 80.155778 
L 138.644782 80.155778 
L 139.237076 79.859631 
L 139.237076 78.675044 
L 138.644782 77.490456 
L 138.052489 76.898163 
L 137.460195 76.602016 
L 137.164048 76.602016 
L 136.867901 76.898163 
L 136.867901 77.19431 
L 137.164048 77.19431 
" style="fill:none;stroke:#8c8c8c;stroke-linecap:square;"/>
   </g>
   <g id="line2d_13">
    <path clip-path="url(#pca89b6a697)" d="M 138.940929 76.898163 
L 139.237076 76.898163 
L 139.533223 77.19431 
L 140.125517 77.786603 
L 140.71781 78.08275 
L 141.606251 78.378897 
L 141.902398 78.378897 
L 142.198545 78.08275 
L 142.198545 77.19431 
L 142.198545 76.305869 
L 141.902398 75.713575 
L 141.902398 75.121282 
" style="fill:none;stroke:#8c8c8c;stroke-linecap:square;"/>
   </g>
   <g id="line2d_14">
    <path clip-path="url(#pca89b6a697)" d="M 143.975426 73.048254 
L 144.271573 72.752107 
L 143.975426 72.752107 
L 143.975426 73.048254 
L 143.679279 73.3444 
L 143.383132 73.640547 
L 143.383132 74.232841 
L 143.383132 74.528988 
L 143.679279 74.528988 
L 144.271573 75.121282 
L 145.45616 75.417428 
L 146.344601 76.009722 
L 146.936894 76.602016 
L 147.233041 77.19431 
L 147.529188 78.08275 
L 147.233041 78.378897 
" style="fill:none;stroke:#8c8c8c;stroke-linecap:square;"/>
   </g>
   <g id="line2d_15">
    <path clip-path="url(#pca89b6a697)" d="M 148.417629 76.009722 
L 148.417629 75.713575 
L 148.713775 75.417428 
L 148.713775 75.121282 
L 149.009922 75.121282 
L 149.306069 74.825135 
L 149.602216 74.528988 
L 149.602216 73.936694 
L 149.602216 73.048254 
L 149.602216 72.45596 
L 149.009922 72.159813 
L 148.417629 72.159813 
L 147.825335 72.45596 
L 147.529188 73.3444 
L 147.825335 74.232841 
L 148.121482 75.121282 
L 149.009922 76.009722 
L 149.898363 76.602016 
L 150.786803 76.602016 
L 151.379097 76.602016 
L 151.675244 76.305869 
" style="fill:none;stroke:#8c8c8c;stroke-linecap:square;"/>
   </g>
   <g id="line2d_16">
    <path clip-path="url(#pca89b6a697)" d="M 141.013957 160.411576 
L 141.013957 160.115429 
L 140.71781 160.411576 
L 140.71781 160.707723 
L 140.71781 161.596164 
L 140.71781 162.780751 
L 140.71781 164.853779 
L 141.013957 167.519101 
L 141.013957 169.888276 
L 141.310104 172.849744 
L 141.606251 174.330479 
L 141.606251 175.515066 
L 141.606251 176.10736 
L 141.606251 176.403507 
L 141.310104 176.403507 
" style="fill:none;stroke:#8c8c8c;stroke-linecap:square;"/>
   </g>
   <g id="line2d_17">
    <path clip-path="url(#pca89b6a697)" d="M 138.052489 177.291947 
L 138.052489 176.9958 
L 138.348636 176.9958 
L 138.644782 177.588094 
L 138.940929 177.884241 
L 139.533223 178.772681 
L 140.421664 179.364975 
L 141.013957 179.364975 
L 141.902398 179.068828 
L 143.086985 177.884241 
L 143.975426 176.699653 
L 144.567719 175.811213 
L 144.863866 175.515066 
" style="fill:none;stroke:#8c8c8c;stroke-linecap:square;"/>
   </g>
   <g id="line2d_18">
    <path clip-path="url(#pca89b6a697)" d="M 121.468265 192.987731 
L 121.764412 192.987731 
L 122.060558 192.691584 
L 122.060558 192.395437 
L 122.356705 192.395437 
L 122.356705 192.09929 
L 122.356705 191.803143 
L 121.764412 191.803143 
L 121.172118 192.09929 
L 120.579824 192.691584 
L 119.98753 193.580024 
L 119.98753 194.764612 
L 120.283677 195.060759 
L 120.875971 195.356905 
L 121.764412 195.060759 
L 122.060558 194.468465 
L 122.356705 193.876171 
L 122.356705 193.283877 
L 122.356705 192.987731 
L 122.356705 192.691584 
L 122.356705 192.987731 
L 122.652852 193.283877 
L 123.245146 194.172318 
L 124.133586 196.245346 
L 125.022027 198.318374 
L 125.614321 200.095255 
L 125.910468 201.279843 
L 125.614321 201.872136 
L 124.429733 202.168283 
L 122.948999 201.872136 
L 121.764412 200.983696 
L 121.172118 200.095255 
L 121.172118 199.799108 
" style="fill:none;stroke:#8c8c8c;stroke-linecap:square;"/>
   </g>
   <g id="line2d_19">
    <path clip-path="url(#pca89b6a697)" d="M 125.318174 194.172318 
L 125.318174 193.876171 
L 125.614321 193.876171 
L 125.910468 193.876171 
L 126.206614 193.876171 
L 126.502761 194.172318 
L 127.391202 195.060759 
L 127.983496 195.356905 
L 128.279642 195.653052 
L 127.983496 195.356905 
L 127.983496 195.060759 
L 127.687349 194.468465 
L 127.391202 193.580024 
L 127.687349 192.395437 
L 127.983496 192.09929 
L 128.575789 191.506996 
L 129.168083 191.210849 
" style="fill:none;stroke:#8c8c8c;stroke-linecap:square;"/>
   </g>
   <g id="line2d_20">
    <path clip-path="url(#pca89b6a697)" d="M 130.056524 191.803143 
L 130.056524 192.09929 
L 130.35267 192.09929 
L 130.648817 192.09929 
L 130.944964 192.09929 
L 131.537258 191.803143 
L 131.833405 191.506996 
L 131.833405 191.210849 
L 131.537258 190.914703 
L 131.241111 190.914703 
L 130.35267 191.803143 
L 130.056524 192.395437 
L 130.056524 193.283877 
L 130.944964 194.172318 
L 131.537258 194.764612 
L 132.425698 194.764612 
L 133.314139 194.468465 
L 133.610286 193.876171 
" style="fill:none;stroke:#8c8c8c;stroke-linecap:square;"/>
   </g>
   <g id="line2d_21">
    <path clip-path="url(#pca89b6a697)" d="M 134.20258 192.395437 
L 134.20258 192.09929 
L 133.906433 192.09929 
L 133.906433 191.803143 
L 134.20258 191.803143 
L 134.20258 191.506996 
L 134.498726 191.210849 
L 134.794873 190.914703 
L 134.794873 190.618556 
L 134.794873 190.322409 
L 134.498726 190.322409 
L 133.906433 190.618556 
L 133.314139 191.506996 
L 133.314139 192.691584 
L 134.20258 193.876171 
L 135.09102 194.764612 
L 136.275608 195.060759 
L 136.867901 194.764612 
L 137.164048 193.876171 
L 137.460195 193.876171 
" style="fill:none;stroke:#8c8c8c;stroke-linecap:square;"/>
   </g>
   <g id="line2d_22">
    <path clip-path="url(#pca89b6a697)" d="M 137.756342 192.09929 
L 137.756342 191.506996 
L 137.460195 191.506996 
L 137.460195 191.803143 
L 137.460195 192.09929 
L 137.756342 192.395437 
L 137.756342 192.987731 
L 138.052489 193.283877 
L 138.052489 193.580024 
L 138.348636 193.283877 
L 138.348636 192.691584 
L 138.644782 191.803143 
L 138.940929 190.914703 
L 139.533223 190.322409 
L 140.125517 190.322409 
L 140.71781 190.618556 
L 141.310104 191.506996 
L 141.902398 192.691584 
L 142.198545 193.283877 
L 142.494691 193.580024 
" style="fill:none;stroke:#8c8c8c;stroke-linecap:square;"/>
   </g>
   <g id="line2d_23">
    <path clip-path="url(#pca89b6a697)" d="M 143.383132 184.103325 
L 143.086985 184.103325 
L 142.790838 184.103325 
L 142.790838 184.399472 
L 143.086985 184.695619 
L 143.679279 185.880206 
L 144.271573 187.657087 
L 145.160013 190.322409 
L 145.752307 191.506996 
L 146.344601 192.395437 
L 146.344601 192.691584 
L 146.344601 192.395437 
L 146.640747 191.803143 
L 146.936894 190.914703 
L 147.529188 190.618556 
L 148.121482 190.322409 
L 148.713775 190.618556 
L 149.306069 191.210849 
L 149.602216 192.09929 
L 149.898363 192.395437 
" style="fill:none;stroke:#8c8c8c;stroke-linecap:square;"/>
   </g>
   <g id="line2d_24">
    <path clip-path="url(#pca89b6a697)" d="M 151.379097 190.026262 
L 151.379097 189.730115 
L 151.08295 189.730115 
L 151.08295 190.026262 
L 150.786803 190.322409 
L 151.08295 190.618556 
L 151.675244 190.914703 
L 151.971391 191.210849 
L 152.563685 190.914703 
L 152.859831 190.618556 
L 152.859831 190.026262 
L 152.563685 189.137821 
L 151.971391 188.841675 
L 151.675244 188.545528 
L 151.379097 188.841675 
" style="fill:none;stroke:#8c8c8c;stroke-linecap:square;"/>
   </g>
   <g id="line2d_25">
    <path clip-path="url(#pca89b6a697)" d="M 154.340566 189.137821 
L 154.636713 189.137821 
L 154.636713 189.433968 
L 155.229006 189.730115 
L 156.117447 190.322409 
L 156.709741 190.618556 
L 157.005887 190.618556 
L 157.598181 190.322409 
L 157.598181 189.433968 
L 157.302034 188.249381 
L 157.005887 187.36094 
L 157.005887 186.768647 
L 157.005887 186.4725 
" style="fill:none;stroke:#8c8c8c;stroke-linecap:square;"/>
   </g>
   <g id="line2d_26">
    <path clip-path="url(#pca89b6a697)" d="M 158.486622 185.584059 
L 158.782769 185.287912 
L 159.078915 185.287912 
L 159.375062 185.287912 
L 159.078915 185.584059 
L 158.782769 186.176353 
L 158.782769 187.064793 
L 159.078915 187.36094 
L 159.671209 187.657087 
L 160.263503 187.953234 
L 160.855797 188.249381 
L 161.44809 188.249381 
L 161.744237 188.841675 
L 161.744237 189.433968 
L 161.744237 190.026262 
L 161.744237 190.322409 
" style="fill:none;stroke:#8c8c8c;stroke-linecap:square;"/>
   </g>
   <g id="line2d_27">
    <path clip-path="url(#pca89b6a697)" d="M 164.705706 186.176353 
L 164.705706 185.584059 
L 165.001853 185.287912 
L 165.001853 184.991765 
L 165.001853 184.399472 
L 164.705706 184.399472 
L 164.113412 184.695619 
L 163.817265 185.287912 
L 163.817265 185.880206 
L 164.113412 186.768647 
L 165.001853 187.657087 
L 165.890293 188.545528 
L 167.074881 188.841675 
L 167.963321 188.841675 
" style="fill:none;stroke:#8c8c8c;stroke-linecap:square;"/>
   </g>
   <g id="line2d_28">
    <path clip-path="url(#pca89b6a697)" d="M 33.216501 49.060358 
L 33.216501 48.764211 
L 32.920355 48.764211 
L 32.920355 49.060358 
L 32.920355 49.356505 
L 32.624208 49.356505 
L 32.624208 49.652652 
L 32.920355 49.948799 
L 33.216501 50.244946 
L 33.216501 50.541092 
L 33.808795 50.837239 
L 34.401089 50.837239 
L 34.993383 50.541092 
L 35.585676 50.244946 
L 36.17797 49.948799 
L 36.474117 49.948799 
L 36.474117 49.652652 
L 36.770264 49.356505 
L 36.770264 49.060358 
L 36.770264 48.764211 
L 36.474117 48.468064 
L 36.474117 48.171918 
L 36.17797 47.875771 
L 35.585676 47.283477 
L 34.697236 46.691183 
L 34.401089 46.395036 
L 33.512648 45.802743 
L 32.920355 45.506596 
L 32.624208 44.914302 
L 32.328061 44.618155 
L 32.328061 44.322008 
L 32.328061 44.025862 
L 32.920355 43.137421 
L 33.808795 42.545127 
L 34.697236 41.952834 
L 34.993383 41.656687 
L 35.289529 41.656687 
L 35.585676 41.656687 
" style="fill:none;stroke:#8c8c8c;stroke-linecap:square;"/>
   </g>
   <g id="line2d_29">
    <path clip-path="url(#pca89b6a697)" d="M 38.843292 37.806778 
L 38.843292 37.510631 
L 38.843292 37.806778 
L 38.843292 38.102924 
L 38.843292 38.399071 
L 39.139438 39.583659 
L 39.139438 40.472099 
L 39.435585 41.36054 
L 39.435585 41.952834 
" style="fill:none;stroke:#8c8c8c;stroke-linecap:square;"/>
   </g>
   <g id="line2d_30">
    <path clip-path="url(#pca89b6a697)" d="M 41.212466 38.102924 
L 41.212466 37.806778 
L 41.212466 37.510631 
L 40.91632 37.806778 
L 40.91632 38.399071 
L 40.91632 38.991365 
L 41.508613 39.583659 
L 41.80476 39.879806 
L 42.693201 39.879806 
L 43.285494 39.583659 
L 43.877788 38.991365 
L 44.173935 38.399071 
L 43.877788 37.806778 
L 43.581641 37.214484 
L 43.285494 37.214484 
L 42.693201 37.214484 
L 42.693201 37.510631 
" style="fill:none;stroke:#8c8c8c;stroke-linecap:square;"/>
   </g>
   <g id="line2d_31">
    <path clip-path="url(#pca89b6a697)" d="M 43.285494 39.879806 
L 43.285494 40.175952 
L 42.989348 40.175952 
L 42.989348 40.472099 
L 42.693201 40.768246 
L 42.693201 41.064393 
L 42.693201 41.656687 
L 42.989348 42.24898 
L 43.581641 43.433568 
L 44.470082 44.025862 
L 45.358522 44.322008 
L 46.246963 43.729715 
L 46.839257 43.137421 
L 47.135404 41.952834 
L 46.839257 41.36054 
L 46.839257 40.768246 
L 46.246963 40.472099 
L 45.654669 40.175952 
L 45.062376 40.175952 
L 44.766229 40.175952 
L 44.470082 40.175952 
" style="fill:none;stroke:#8c8c8c;stroke-linecap:square;"/>
   </g>
   <g id="line2d_32">
    <path clip-path="url(#pca89b6a697)" d="M 53.946781 40.175952 
L 54.242928 39.879806 
L 54.242928 39.583659 
L 54.242928 39.287512 
L 53.946781 39.583659 
L 53.650634 39.583659 
L 53.354488 39.879806 
L 53.058341 40.175952 
L 52.466047 40.768246 
L 52.1699 41.36054 
L 51.873753 42.24898 
L 51.873753 43.729715 
L 52.1699 44.618155 
L 52.762194 45.802743 
L 53.650634 46.691183 
L 54.539075 47.283477 
L 55.427516 47.579624 
L 56.90825 47.283477 
L 57.79669 46.691183 
L 58.685131 45.802743 
L 59.277425 44.618155 
L 59.869718 43.433568 
L 59.869718 42.24898 
L 59.277425 40.768246 
L 58.685131 39.879806 
L 57.79669 39.287512 
L 56.90825 38.991365 
L 55.723662 39.287512 
L 54.835222 39.583659 
L 53.946781 39.879806 
L 53.650634 40.175952 
" style="fill:none;stroke:#8c8c8c;stroke-linecap:square;"/>
   </g>
   <g id="line2d_33">
    <path clip-path="url(#pca89b6a697)" d="M 68.16183 43.433568 
L 68.16183 43.137421 
L 68.16183 43.433568 
L 68.16183 43.729715 
L 68.16183 44.322008 
L 68.754124 44.914302 
L 69.050271 45.210449 
L 69.642565 44.914302 
L 69.938712 44.618155 
L 69.938712 43.729715 
L 69.642565 43.137421 
L 69.050271 42.545127 
L 68.457977 42.545127 
" style="fill:none;stroke:#8c8c8c;stroke-linecap:square;"/>
   </g>
   <g id="line2d_34">
    <path clip-path="url(#pca89b6a697)" d="M 72.307886 43.729715 
L 72.604033 43.729715 
L 72.90018 44.025862 
L 73.196327 44.025862 
L 73.492474 44.322008 
L 73.788621 44.322008 
L 73.788621 44.025862 
L 73.492474 43.729715 
L 73.492474 43.433568 
L 73.196327 42.841274 
L 72.307886 41.952834 
L 71.715593 40.768246 
L 71.419446 40.472099 
L 71.123299 40.175952 
L 71.123299 39.879806 
L 71.419446 39.583659 
L 71.715593 39.287512 
L 72.307886 38.991365 
" style="fill:none;stroke:#8c8c8c;stroke-linecap:square;"/>
   </g>
   <g id="line2d_35">
    <path clip-path="url(#pca89b6a697)" d="M 70.827152 40.472099 
L 70.531005 40.768246 
L 70.531005 41.064393 
L 70.827152 41.36054 
L 71.419446 41.064393 
L 72.604033 41.064393 
L 73.196327 40.768246 
L 73.788621 40.768246 
" style="fill:none;stroke:#8c8c8c;stroke-linecap:square;"/>
   </g>
   <g id="line2d_36">
    <path clip-path="url(#pca89b6a697)" d="M 82.969173 42.841274 
L 82.673026 42.841274 
L 82.969173 43.137421 
L 83.26532 43.137421 
L 83.26532 42.841274 
L 83.561467 42.841274 
L 83.857614 42.545127 
L 83.857614 41.952834 
L 83.561467 40.768246 
L 83.26532 39.879806 
L 82.37688 38.399071 
L 81.784586 37.806778 
L 81.488439 37.214484 
L 81.192292 36.918337 
L 81.192292 36.62219 
L 81.488439 36.029897 
L 82.080733 35.437603 
L 82.673026 34.845309 
L 83.26532 34.549162 
" style="fill:none;stroke:#8c8c8c;stroke-linecap:square;"/>
   </g>
   <g id="line2d_37">
    <path clip-path="url(#pca89b6a697)" d="M 80.896145 38.102924 
L 80.896145 38.399071 
L 80.896145 38.695218 
L 81.192292 38.991365 
L 82.080733 39.287512 
L 83.26532 39.287512 
L 84.449908 38.991365 
L 85.634495 38.991365 
" style="fill:none;stroke:#8c8c8c;stroke-linecap:square;"/>
   </g>
   <g id="line2d_38">
    <path clip-path="url(#pca89b6a697)" d="M 87.707523 38.399071 
L 87.411376 38.695218 
L 87.115229 38.991365 
L 86.819082 39.583659 
L 86.819082 40.175952 
L 87.115229 40.768246 
L 87.707523 41.064393 
L 88.299817 41.36054 
L 88.89211 41.064393 
L 89.188257 40.472099 
L 89.188257 39.583659 
L 88.89211 38.695218 
L 88.595964 38.399071 
L 88.00367 38.695218 
L 88.299817 38.695218 
" style="fill:none;stroke:#8c8c8c;stroke-linecap:square;"/>
   </g>
   <g id="line2d_39">
    <path clip-path="url(#pca89b6a697)" d="M 90.668992 38.695218 
L 91.261285 38.991365 
L 91.853579 39.583659 
L 92.445873 40.175952 
L 93.038166 40.768246 
L 93.334313 41.064393 
L 93.038166 40.472099 
L 93.038166 39.879806 
L 93.038166 39.287512 
L 93.334313 38.991365 
L 93.63046 38.399071 
" style="fill:none;stroke:#8c8c8c;stroke-linecap:square;"/>
   </g>
   <g id="line2d_40">
    <path clip-path="url(#pca89b6a697)" d="M 96.295782 38.102924 
L 95.999635 38.399071 
L 95.703488 38.399071 
L 95.407341 38.991365 
L 95.407341 39.583659 
L 95.407341 40.175952 
L 95.999635 40.472099 
L 96.591929 40.472099 
L 97.184222 40.175952 
L 97.480369 39.583659 
L 97.776516 38.695218 
L 97.776516 38.399071 
L 97.776516 38.102924 
L 97.776516 38.102924 
L 97.480369 38.102924 
L 97.776516 38.695218 
L 98.072663 39.287512 
L 98.664957 40.175952 
L 98.961104 40.768246 
L 99.553397 41.064393 
L 99.849544 41.064393 
" style="fill:none;stroke:#8c8c8c;stroke-linecap:square;"/>
   </g>
   <g id="line2d_41">
    <path clip-path="url(#pca89b6a697)" d="M 100.441838 39.879806 
L 100.441838 39.583659 
L 100.441838 39.287512 
L 100.737985 39.287512 
L 100.737985 39.583659 
L 101.034132 39.879806 
L 101.034132 40.175952 
L 101.922572 41.064393 
L 102.218719 41.656687 
L 102.514866 41.656687 
L 102.514866 41.36054 
L 102.811013 41.064393 
L 102.811013 39.879806 
L 103.10716 39.287512 
L 103.10716 38.991365 
L 103.403306 38.695218 
L 103.699453 38.991365 
L 103.9956 39.583659 
L 104.291747 39.879806 
L 104.587894 40.175952 
L 104.587894 39.879806 
L 104.884041 39.879806 
L 104.884041 39.583659 
L 105.180188 38.991365 
L 105.476334 38.399071 
L 105.772481 38.399071 
L 105.772481 38.102924 
L 106.068628 38.399071 
L 106.068628 38.991365 
L 106.660922 39.583659 
L 106.957069 39.583659 
L 107.253216 39.583659 
" style="fill:none;stroke:#8c8c8c;stroke-linecap:square;"/>
   </g>
   <g id="line2d_42">
    <path clip-path="url(#pca89b6a697)" d="M 109.030097 38.102924 
L 109.030097 37.510631 
L 109.326244 37.510631 
L 109.326244 37.214484 
L 109.326244 36.918337 
L 109.030097 36.62219 
L 108.73395 36.62219 
L 108.437803 36.62219 
L 108.141656 36.918337 
L 108.141656 37.214484 
L 108.437803 37.510631 
L 108.73395 37.806778 
L 109.030097 38.399071 
L 109.62239 38.991365 
L 109.918537 39.879806 
L 110.214684 40.472099 
L 109.918537 41.064393 
" style="fill:none;stroke:#8c8c8c;stroke-linecap:square;"/>
   </g>
   <g id="line2d_43">
    <path clip-path="url(#pca89b6a697)" d="M 119.98753 39.879806 
L 119.691384 40.175952 
L 119.691384 40.472099 
L 119.691384 40.175952 
L 119.98753 40.175952 
L 120.875971 39.583659 
L 122.060558 38.399071 
L 123.245146 36.918337 
L 125.022027 34.845309 
L 125.910468 33.364575 
L 126.502761 32.476134 
L 127.095055 31.587694 
L 127.095055 31.291547 
L 127.391202 30.9954 
L 127.687349 30.699253 
L 127.983496 30.699253 
L 127.983496 30.403106 
" style="fill:none;stroke:#8c8c8c;stroke-linecap:square;"/>
   </g>
   <g id="line2d_44">
    <path clip-path="url(#pca89b6a697)" d="M 125.022027 30.699253 
L 124.72588 30.403106 
L 125.022027 30.403106 
L 125.318174 29.810813 
L 125.910468 29.218519 
L 126.502761 28.922372 
L 127.095055 28.922372 
L 127.391202 28.922372 
L 127.983496 28.922372 
L 128.279642 29.218519 
L 128.575789 29.514666 
L 128.575789 30.106959 
L 128.871936 30.699253 
L 129.168083 31.587694 
L 129.168083 32.179987 
L 129.46423 32.476134 
" style="fill:none;stroke:#8c8c8c;stroke-linecap:square;"/>
   </g>
   <g id="line2d_45">
    <path clip-path="url(#pca89b6a697)" d="M 45.950816 55.575589 
L 45.950816 55.279442 
L 45.654669 55.279442 
L 45.654669 55.575589 
L 45.654669 55.871736 
L 45.654669 56.167883 
L 45.950816 57.056323 
L 45.950816 58.240911 
L 45.950816 60.313939 
L 46.246963 61.498526 
L 46.246963 62.97926 
L 46.54311 63.867701 
L 46.54311 64.163848 
L 46.54311 64.756142 
L 46.54311 65.052288 
L 46.839257 65.348435 
L 47.135404 65.348435 
L 48.319991 65.348435 
L 49.800725 65.052288 
L 50.985313 65.052288 
L 51.873753 65.052288 
L 52.762194 65.052288 
L 53.058341 65.052288 
L 53.354488 65.052288 
L 53.650634 64.756142 
" style="fill:none;stroke:#8c8c8c;stroke-linecap:square;"/>
   </g>
   <g id="line2d_46">
    <path clip-path="url(#pca89b6a697)" d="M 52.762194 62.386967 
L 53.058341 62.386967 
L 53.354488 62.386967 
L 53.650634 62.386967 
L 54.539075 62.386967 
L 55.427516 62.683114 
L 56.019809 62.683114 
L 56.612103 62.97926 
L 56.90825 63.275407 
L 56.90825 63.867701 
L 56.90825 64.459995 
L 56.612103 65.052288 
L 56.019809 65.644582 
L 55.723662 66.236876 
L 55.723662 66.533023 
L 55.427516 66.533023 
L 55.427516 66.82917 
" style="fill:none;stroke:#8c8c8c;stroke-linecap:square;"/>
   </g>
   <g id="line2d_47">
    <path clip-path="url(#pca89b6a697)" d="M 66.384949 62.683114 
L 66.681096 62.683114 
L 66.977243 63.275407 
L 67.569537 64.459995 
L 67.865684 65.348435 
L 68.16183 65.940729 
L 68.16183 66.236876 
L 68.16183 65.644582 
" style="fill:none;stroke:#8c8c8c;stroke-linecap:square;"/>
   </g>
   <g id="line2d_48">
    <path clip-path="url(#pca89b6a697)" d="M 66.384949 60.017792 
L 66.088802 59.721645 
L 66.088802 59.425498 
L 66.384949 59.129351 
" style="fill:none;stroke:#8c8c8c;stroke-linecap:square;"/>
   </g>
   <g id="line2d_49">
    <path clip-path="url(#pca89b6a697)" d="M 70.827152 60.313939 
L 71.123299 60.313939 
L 70.827152 60.313939 
L 70.531005 60.610086 
L 69.938712 61.794673 
L 69.938712 62.683114 
L 70.234858 64.163848 
L 71.123299 65.052288 
L 72.307886 65.348435 
L 73.492474 65.052288 
L 74.084768 64.459995 
L 74.380914 64.163848 
" style="fill:none;stroke:#8c8c8c;stroke-linecap:square;"/>
   </g>
   <g id="line2d_50">
    <path clip-path="url(#pca89b6a697)" d="M 74.973208 62.683114 
L 74.677061 62.683114 
L 74.677061 62.97926 
L 74.973208 62.97926 
L 75.565502 62.97926 
L 76.157796 62.683114 
L 76.750089 62.09082 
L 77.046236 61.202379 
L 76.750089 60.610086 
L 76.453942 60.313939 
L 75.861649 60.313939 
L 74.973208 60.906232 
L 74.677061 61.794673 
L 74.973208 63.275407 
L 75.861649 64.163848 
L 77.046236 64.756142 
L 77.934677 65.052288 
L 78.823117 64.756142 
L 79.415411 64.459995 
" style="fill:none;stroke:#8c8c8c;stroke-linecap:square;"/>
   </g>
   <g id="line2d_51">
    <path clip-path="url(#pca89b6a697)" d="M 46.54311 75.121282 
L 46.54311 74.825135 
L 46.54311 74.528988 
L 46.839257 74.528988 
L 46.839257 74.825135 
L 46.839257 75.121282 
L 46.839257 75.417428 
L 46.839257 75.713575 
L 46.839257 76.009722 
L 46.839257 76.305869 
L 46.839257 76.898163 
L 46.839257 77.490456 
L 46.839257 77.786603 
L 46.839257 78.378897 
L 46.839257 78.675044 
L 46.839257 79.267338 
L 46.54311 79.563484 
L 46.54311 80.155778 
L 46.54311 80.748072 
L 46.54311 81.340366 
L 46.54311 81.932659 
L 46.54311 82.228806 
L 46.54311 82.8211 
L 46.54311 83.413394 
L 46.54311 83.70954 
L 46.54311 84.301834 
L 46.54311 84.597981 
L 46.54311 84.894128 
L 46.54311 85.190275 
L 46.54311 85.486422 
L 46.54311 85.782568 
L 46.839257 85.782568 
L 46.839257 86.078715 
L 47.135404 86.078715 
L 47.43155 86.078715 
L 47.727697 86.078715 
L 48.023844 86.078715 
L 48.319991 86.078715 
L 48.912285 86.078715 
L 49.504578 86.078715 
L 49.800725 86.374862 
L 50.393019 86.374862 
L 50.985313 86.374862 
L 51.577606 86.374862 
L 52.1699 86.374862 
L 52.466047 86.374862 
L 53.058341 86.374862 
L 53.354488 86.374862 
L 53.650634 86.374862 
L 53.946781 86.078715 
" style="fill:none;stroke:#8c8c8c;stroke-linecap:square;"/>
   </g>
   <g id="line2d_52">
    <path clip-path="url(#pca89b6a697)" d="M 54.242928 85.486422 
L 53.946781 85.486422 
L 54.242928 85.486422 
L 54.242928 85.782568 
L 54.539075 85.782568 
L 54.835222 86.078715 
L 55.131369 86.078715 
L 55.427516 86.078715 
L 55.723662 86.078715 
L 56.019809 86.374862 
L 56.315956 86.374862 
L 56.612103 86.374862 
L 56.90825 86.374862 
L 56.90825 86.078715 
L 57.204397 86.078715 
L 57.500544 86.078715 
L 57.204397 86.078715 
L 56.90825 86.078715 
L 56.612103 86.078715 
L 56.315956 86.078715 
L 56.019809 86.078715 
L 55.723662 86.078715 
L 55.427516 86.374862 
L 55.131369 86.374862 
L 54.835222 86.374862 
L 54.539075 86.671009 
L 54.242928 86.671009 
L 53.946781 86.671009 
L 53.650634 86.374862 
L 53.650634 86.078715 
" style="fill:none;stroke:#8c8c8c;stroke-linecap:square;"/>
   </g>
   <g id="line2d_53">
    <path clip-path="url(#pca89b6a697)" d="M 56.019809 83.413394 
L 55.723662 83.117247 
L 55.427516 82.8211 
L 55.131369 82.8211 
L 55.131369 82.524953 
L 55.427516 82.524953 
L 55.427516 82.8211 
L 55.723662 82.8211 
L 56.019809 83.413394 
L 56.612103 83.70954 
L 57.204397 84.301834 
L 57.500544 84.894128 
L 58.092837 85.486422 
L 58.388984 85.782568 
L 58.685131 85.782568 
L 58.685131 86.078715 
L 58.981278 86.078715 
L 58.981278 86.374862 
L 59.277425 86.374862 
L 59.277425 86.671009 
L 58.981278 86.671009 
L 58.981278 86.967156 
L 58.388984 87.55945 
L 58.092837 88.151743 
L 57.79669 88.44789 
L 57.500544 88.44789 
L 57.204397 88.744037 
L 56.90825 88.744037 
" style="fill:none;stroke:#8c8c8c;stroke-linecap:square;"/>
   </g>
   <g id="line2d_54">
    <path clip-path="url(#pca89b6a697)" d="M 56.315956 88.151743 
L 56.315956 88.44789 
L 56.612103 88.44789 
L 56.90825 88.44789 
L 56.90825 88.151743 
L 57.204397 88.151743 
L 57.204397 88.44789 
L 56.90825 88.44789 
L 56.90825 88.744037 
L 56.612103 89.336331 
L 56.019809 89.632478 
L 56.019809 90.224771 
L 55.723662 90.224771 
L 55.723662 90.520918 
L 56.315956 89.928624 
L 56.90825 89.336331 
L 57.79669 88.44789 
L 58.388984 87.855596 
L 58.685131 87.263303 
L 58.388984 87.55945 
L 58.092837 87.855596 
L 58.092837 88.151743 
L 57.79669 88.44789 
L 57.500544 88.744037 
L 57.204397 88.744037 
L 57.204397 89.040184 
L 56.90825 89.040184 
" style="fill:none;stroke:#8c8c8c;stroke-linecap:square;"/>
   </g>
   <g id="line2d_55">
    <path clip-path="url(#pca89b6a697)" d="M 83.561467 58.833204 
L 83.561467 58.537058 
L 83.561467 58.833204 
L 83.857614 59.129351 
L 84.153761 59.425498 
L 84.449908 60.017792 
L 84.746054 60.906232 
L 85.338348 62.09082 
L 85.634495 62.683114 
L 86.226789 63.571554 
L 86.522936 63.867701 
L 86.819082 63.867701 
L 87.115229 64.163848 
L 87.411376 63.867701 
L 87.707523 62.97926 
L 87.707523 61.202379 
L 87.707523 60.017792 
L 87.411376 58.833204 
L 87.411376 57.648617 
L 87.115229 57.056323 
L 87.115229 57.35247 
" style="fill:none;stroke:#8c8c8c;stroke-linecap:square;"/>
   </g>
   <g id="line2d_56">
    <path clip-path="url(#pca89b6a697)" d="M 89.188257 60.610086 
L 89.484404 60.610086 
L 89.484404 60.906232 
L 89.484404 61.498526 
L 89.780551 62.09082 
L 90.076698 62.97926 
L 90.372845 63.275407 
L 90.668992 63.275407 
L 91.261285 62.97926 
L 91.557432 62.09082 
L 91.557432 60.610086 
L 91.261285 59.721645 
L 90.965138 59.129351 
L 90.668992 58.833204 
L 90.372845 59.129351 
L 89.780551 59.425498 
L 89.484404 60.017792 
L 89.484404 60.610086 
" style="fill:none;stroke:#8c8c8c;stroke-linecap:square;"/>
   </g>
   <g id="line2d_57">
    <path clip-path="url(#pca89b6a697)" d="M 92.149726 55.575589 
L 92.149726 55.279442 
L 92.149726 54.983295 
L 92.445873 54.983295 
L 92.445873 55.279442 
L 92.445873 55.575589 
L 92.445873 56.46403 
L 92.74202 57.648617 
L 93.63046 59.721645 
L 94.222754 61.498526 
L 94.815048 62.683114 
L 95.111194 63.275407 
L 95.407341 63.275407 
" style="fill:none;stroke:#8c8c8c;stroke-linecap:square;"/>
   </g>
   <g id="line2d_58">
    <path clip-path="url(#pca89b6a697)" d="M 95.703488 60.906232 
L 95.703488 60.610086 
L 95.407341 60.313939 
L 95.407341 60.610086 
L 95.703488 60.610086 
L 95.703488 60.906232 
L 95.999635 61.498526 
L 96.591929 62.09082 
L 96.888076 62.386967 
L 97.480369 62.09082 
L 97.480369 61.498526 
L 97.480369 60.610086 
L 97.480369 59.721645 
L 97.184222 58.833204 
L 97.184222 58.537058 
" style="fill:none;stroke:#8c8c8c;stroke-linecap:square;"/>
   </g>
   <g id="line2d_59">
    <path clip-path="url(#pca89b6a697)" d="M 98.664957 58.833204 
L 98.664957 59.129351 
L 98.961104 59.425498 
L 98.961104 59.721645 
L 99.553397 60.610086 
L 99.849544 61.202379 
L 100.441838 61.794673 
L 100.441838 62.386967 
L 100.737985 62.386967 
L 100.737985 61.794673 
L 100.737985 61.202379 
L 100.441838 60.610086 
L 100.441838 59.721645 
L 100.737985 59.129351 
L 100.737985 58.833204 
L 100.737985 58.833204 
L 101.330278 59.129351 
L 101.626425 59.721645 
L 102.514866 60.906232 
L 102.811013 61.498526 
L 103.10716 62.09082 
L 103.403306 62.09082 
L 103.403306 61.498526 
L 103.403306 60.610086 
L 103.10716 59.721645 
L 103.10716 59.425498 
L 103.403306 59.129351 
L 103.699453 59.129351 
L 103.699453 59.425498 
L 104.291747 60.017792 
L 104.884041 60.906232 
L 105.180188 61.202379 
L 105.772481 61.498526 
L 106.068628 61.202379 
L 106.364775 61.202379 
L 106.660922 60.906232 
L 106.660922 60.610086 
L 106.957069 60.313939 
L 107.253216 59.721645 
L 107.549362 58.537058 
L 107.549362 57.944764 
L 107.549362 57.35247 
L 106.957069 57.056323 
L 106.364775 57.648617 
L 106.068628 58.537058 
L 105.772481 59.721645 
L 106.068628 60.906232 
L 106.660922 61.498526 
L 107.845509 61.794673 
L 108.437803 61.794673 
L 109.030097 61.498526 
L 109.326244 61.202379 
" style="fill:none;stroke:#8c8c8c;stroke-linecap:square;"/>
   </g>
   <g id="line2d_60">
    <path clip-path="url(#pca89b6a697)" d="M 117.618356 60.906232 
L 117.914502 60.906232 
L 117.914502 60.610086 
L 118.210649 60.313939 
L 118.802943 59.721645 
L 119.395237 59.129351 
L 120.283677 58.537058 
L 121.468265 57.648617 
L 122.356705 56.760176 
L 123.245146 56.167883 
L 124.133586 55.575589 
L 124.429733 55.279442 
L 124.72588 55.279442 
L 124.72588 54.983295 
L 125.022027 54.983295 
L 125.022027 54.687148 
" style="fill:none;stroke:#8c8c8c;stroke-linecap:square;"/>
   </g>
   <g id="line2d_61">
    <path clip-path="url(#pca89b6a697)" d="M 124.133586 52.317974 
L 124.429733 52.317974 
L 124.72588 52.317974 
L 125.022027 52.021827 
L 125.910468 52.021827 
L 126.502761 52.021827 
L 127.095055 51.72568 
L 127.391202 51.72568 
L 127.687349 51.72568 
L 127.983496 52.021827 
L 128.279642 52.021827 
L 128.279642 52.317974 
L 128.279642 52.61412 
L 128.279642 53.502561 
L 128.279642 54.094855 
L 128.279642 54.687148 
L 128.279642 54.983295 
L 127.983496 55.279442 
" style="fill:none;stroke:#8c8c8c;stroke-linecap:square;"/>
   </g>
   <g id="line2d_62">
    <path clip-path="url(#pca89b6a697)" d="M 67.27339 80.155778 
L 67.27339 79.859631 
L 67.27339 79.563484 
L 67.27339 79.267338 
L 67.27339 79.563484 
L 67.27339 80.451925 
L 67.27339 81.932659 
L 67.27339 84.005687 
L 67.27339 86.078715 
L 67.865684 87.55945 
L 67.865684 88.151743 
L 68.16183 88.151743 
" style="fill:none;stroke:#8c8c8c;stroke-linecap:square;"/>
   </g>
   <g id="line2d_63">
    <path clip-path="url(#pca89b6a697)" d="M 69.642565 84.894128 
L 69.642565 85.190275 
L 69.642565 85.486422 
L 69.642565 85.782568 
L 69.642565 86.078715 
L 69.938712 86.967156 
L 70.827152 87.55945 
L 71.715593 87.55945 
L 72.604033 87.55945 
L 73.196327 86.967156 
L 73.196327 85.782568 
L 72.90018 84.894128 
L 72.01174 84.005687 
L 71.123299 83.70954 
L 70.531005 83.70954 
L 69.938712 84.005687 
L 69.938712 84.301834 
L 69.938712 84.597981 
" style="fill:none;stroke:#8c8c8c;stroke-linecap:square;"/>
   </g>
   <g id="line2d_64">
    <path clip-path="url(#pca89b6a697)" d="M 73.196327 84.894128 
L 73.492474 84.597981 
L 73.492474 84.301834 
L 73.788621 84.301834 
L 74.084768 84.597981 
L 74.380914 85.190275 
L 74.677061 85.782568 
L 75.269355 85.782568 
L 75.565502 85.486422 
L 75.861649 84.894128 
L 76.157796 84.301834 
L 76.157796 84.005687 
L 76.453942 84.005687 
L 76.750089 84.597981 
L 77.046236 85.190275 
L 77.342383 85.486422 
L 77.934677 85.782568 
L 77.934677 85.486422 
L 78.230824 85.190275 
L 78.230824 84.301834 
L 78.52697 83.70954 
L 78.52697 83.117247 
" style="fill:none;stroke:#8c8c8c;stroke-linecap:square;"/>
   </g>
   <g id="line2d_65">
    <path clip-path="url(#pca89b6a697)" d="M 79.415411 83.413394 
L 79.711558 83.70954 
L 80.007705 83.70954 
L 80.599998 83.413394 
L 81.192292 83.117247 
L 81.488439 82.524953 
L 81.488439 81.636512 
L 81.488439 81.340366 
L 80.896145 81.044219 
L 80.599998 81.340366 
L 80.303852 82.228806 
L 80.303852 83.70954 
L 80.599998 84.597981 
L 81.192292 85.190275 
L 82.37688 85.486422 
L 82.969173 85.486422 
L 83.561467 85.190275 
" style="fill:none;stroke:#8c8c8c;stroke-linecap:square;"/>
   </g>
   <g id="line2d_66">
    <path clip-path="url(#pca89b6a697)" d="M 84.449908 83.413394 
L 84.449908 83.70954 
L 84.449908 84.005687 
L 84.746054 84.005687 
L 84.746054 84.894128 
L 85.338348 85.190275 
L 85.338348 85.486422 
L 85.634495 85.486422 
L 85.634495 85.190275 
L 85.930642 84.301834 
L 86.522936 83.413394 
L 87.115229 82.228806 
L 87.707523 81.340366 
" style="fill:none;stroke:#8c8c8c;stroke-linecap:square;"/>
   </g>
   <g id="line2d_67">
    <path clip-path="url(#pca89b6a697)" d="M 78.52697 90.817065 
L 78.52697 90.520918 
L 78.230824 90.520918 
L 78.52697 90.817065 
L 78.52697 91.705506 
L 78.52697 93.18624 
L 79.119264 94.963121 
L 79.415411 95.851562 
L 79.415411 96.443855 
" style="fill:none;stroke:#8c8c8c;stroke-linecap:square;"/>
   </g>
   <g id="line2d_68">
    <path clip-path="url(#pca89b6a697)" d="M 76.453942 93.482387 
L 76.750089 93.482387 
L 77.342383 93.18624 
L 78.52697 93.18624 
L 79.711558 93.18624 
L 80.599998 93.18624 
" style="fill:none;stroke:#8c8c8c;stroke-linecap:square;"/>
   </g>
   <g id="line2d_69">
    <path clip-path="url(#pca89b6a697)" d="M 81.488439 93.18624 
L 81.488439 93.482387 
L 82.080733 93.482387 
L 82.673026 93.18624 
L 83.26532 92.890093 
L 83.857614 92.001652 
L 83.857614 91.705506 
L 83.857614 91.409359 
L 83.561467 91.113212 
L 82.969173 91.705506 
L 82.37688 92.593946 
L 82.37688 94.07468 
L 82.37688 95.259268 
L 82.969173 95.851562 
L 83.857614 96.147708 
L 84.746054 95.555415 
L 85.338348 94.666974 
L 85.634495 94.07468 
" style="fill:none;stroke:#8c8c8c;stroke-linecap:square;"/>
   </g>
   <g id="line2d_70">
    <path clip-path="url(#pca89b6a697)" d="M 86.226789 93.18624 
L 86.226789 92.890093 
L 86.226789 92.593946 
L 86.522936 92.593946 
L 86.522936 93.18624 
L 86.819082 93.482387 
L 87.411376 94.370827 
L 87.411376 94.666974 
L 87.411376 94.963121 
L 87.411376 94.666974 
L 87.411376 94.370827 
L 87.411376 93.778534 
L 87.411376 93.18624 
L 87.411376 92.593946 
L 87.707523 92.297799 
L 88.00367 92.297799 
L 88.299817 92.593946 
L 88.595964 93.18624 
L 88.595964 93.482387 
L 88.89211 93.482387 
L 88.89211 93.18624 
L 88.89211 92.890093 
L 89.188257 92.890093 
L 89.188257 92.593946 
L 89.484404 92.593946 
L 89.780551 92.593946 
L 90.372845 92.890093 
L 90.668992 93.482387 
L 90.668992 93.778534 
L 90.965138 93.778534 
L 91.261285 93.482387 
L 91.557432 93.482387 
L 91.557432 93.18624 
L 91.853579 93.18624 
L 92.149726 93.18624 
L 92.445873 93.18624 
L 92.74202 93.18624 
L 93.926607 92.890093 
L 94.518901 92.593946 
L 95.111194 91.705506 
L 95.407341 91.113212 
L 95.407341 90.520918 
L 95.111194 89.928624 
L 94.815048 89.928624 
L 94.222754 89.928624 
L 93.63046 90.520918 
L 93.038166 92.001652 
L 92.74202 93.778534 
L 93.038166 95.555415 
L 93.63046 97.036149 
L 93.926607 98.220736 
L 94.222754 98.81303 
L 94.518901 99.405324 
L 94.222754 99.405324 
" style="fill:none;stroke:#8c8c8c;stroke-linecap:square;"/>
   </g>
   <g id="line2d_71">
    <path clip-path="url(#pca89b6a697)" d="M 98.664957 92.001652 
L 98.664957 92.297799 
L 98.961104 92.297799 
L 98.961104 92.593946 
L 98.961104 92.297799 
" style="fill:none;stroke:#8c8c8c;stroke-linecap:square;"/>
   </g>
   <g id="line2d_72">
    <path clip-path="url(#pca89b6a697)" d="M 397.477135 30.403106 
L 397.477135 30.699253 
L 397.180988 30.699253 
L 397.180988 30.9954 
L 397.180988 31.291547 
L 397.477135 32.179987 
L 398.069429 33.068428 
L 398.365576 34.253015 
L 398.661723 34.549162 
L 398.957869 34.845309 
L 398.957869 34.549162 
L 398.365576 33.956869 
L 398.365576 33.068428 
L 398.069429 32.179987 
L 398.069429 31.291547 
L 398.365576 30.9954 
L 398.957869 30.403106 
L 399.550163 30.403106 
L 400.438604 30.403106 
" style="fill:none;stroke:#8c8c8c;stroke-linecap:square;"/>
   </g>
   <g id="line2d_73">
    <path clip-path="url(#pca89b6a697)" d="M 401.919338 31.883841 
L 401.919338 32.179987 
L 402.215485 32.179987 
L 402.807779 31.883841 
L 403.400072 31.587694 
L 403.992366 30.9954 
L 404.288513 30.699253 
L 404.288513 30.106959 
L 403.992366 30.106959 
L 403.696219 30.106959 
L 403.103925 30.699253 
L 402.215485 31.883841 
L 401.919338 33.068428 
L 401.919338 33.956869 
L 402.511632 34.253015 
L 403.400072 34.845309 
L 404.288513 34.845309 
L 405.176953 34.253015 
L 405.769247 33.956869 
" style="fill:none;stroke:#8c8c8c;stroke-linecap:square;"/>
   </g>
   <g id="line2d_74">
    <path clip-path="url(#pca89b6a697)" d="M 407.842275 31.883841 
L 407.842275 31.587694 
L 407.842275 31.291547 
L 407.842275 30.9954 
L 407.546128 30.9954 
L 407.249981 30.9954 
L 406.657688 31.587694 
L 406.065394 32.179987 
L 405.4731 33.068428 
L 405.176953 33.660722 
L 405.4731 34.253015 
L 406.065394 34.845309 
L 407.249981 35.141456 
L 408.138422 34.845309 
L 409.026863 34.253015 
L 409.619156 33.956869 
" style="fill:none;stroke:#8c8c8c;stroke-linecap:square;"/>
   </g>
   <g id="line2d_75">
    <path clip-path="url(#pca89b6a697)" d="M 410.507597 32.772281 
L 410.507597 32.476134 
L 410.803744 31.883841 
L 410.803744 31.587694 
L 410.507597 31.587694 
L 410.507597 31.291547 
L 409.915303 31.291547 
L 409.323009 31.587694 
L 408.730716 32.179987 
L 408.434569 32.772281 
L 408.730716 33.364575 
L 409.026863 33.364575 
L 409.915303 33.364575 
L 410.507597 33.068428 
L 411.099891 32.476134 
L 411.396037 31.587694 
L 411.692184 31.291547 
L 411.692184 31.883841 
L 411.988331 32.476134 
L 412.284478 33.364575 
L 412.580625 34.253015 
L 412.580625 34.549162 
L 412.876772 34.549162 
L 412.876772 34.253015 
" style="fill:none;stroke:#8c8c8c;stroke-linecap:square;"/>
   </g>
   <g id="line2d_76">
    <path clip-path="url(#pca89b6a697)" d="M 414.653653 27.737785 
L 414.653653 27.441638 
L 414.653653 26.849344 
L 414.9498 26.553197 
L 414.9498 26.25705 
L 414.9498 26.553197 
L 414.9498 26.849344 
L 415.245947 28.033931 
L 415.245947 29.514666 
L 415.542093 31.291547 
L 415.83824 33.068428 
L 416.134387 34.253015 
L 416.430534 35.141456 
" style="fill:none;stroke:#8c8c8c;stroke-linecap:square;"/>
   </g>
   <g id="line2d_77">
    <path clip-path="url(#pca89b6a697)" d="M 417.911268 27.145491 
L 417.911268 26.849344 
L 417.911268 26.25705 
L 417.911268 25.960903 
L 417.615121 25.960903 
L 417.615121 26.553197 
L 417.911268 27.737785 
L 417.911268 29.514666 
L 418.207415 30.9954 
L 418.503562 32.772281 
L 418.503562 33.956869 
" style="fill:none;stroke:#8c8c8c;stroke-linecap:square;"/>
   </g>
   <g id="line2d_78">
    <path clip-path="url(#pca89b6a697)" d="M 410.507597 50.244946 
L 410.507597 49.948799 
L 410.21145 49.948799 
L 409.915303 49.948799 
L 409.323009 49.948799 
L 408.434569 49.948799 
L 407.842275 50.541092 
L 406.953835 51.72568 
L 406.657688 52.910267 
L 407.249981 53.502561 
L 407.546128 53.798708 
L 408.434569 53.502561 
L 409.619156 52.317974 
L 410.21145 51.133386 
L 410.803744 49.060358 
L 411.099891 47.875771 
L 411.099891 46.395036 
L 411.396037 45.802743 
L 411.099891 45.506596 
L 411.099891 45.802743 
L 410.803744 46.691183 
L 410.803744 48.171918 
L 411.396037 49.652652 
L 412.284478 52.021827 
L 412.876772 53.206414 
L 413.469065 54.391002 
L 413.765212 54.391002 
L 413.765212 53.798708 
" style="fill:none;stroke:#8c8c8c;stroke-linecap:square;"/>
   </g>
   <g id="line2d_79">
    <path clip-path="url(#pca89b6a697)" d="M 415.245947 47.875771 
L 415.245947 48.171918 
L 415.542093 48.468064 
L 415.542093 48.764211 
L 415.542093 49.948799 
L 415.83824 51.133386 
L 415.83824 52.021827 
L 416.134387 52.317974 
L 416.134387 52.021827 
L 415.83824 51.72568 
L 415.83824 51.133386 
L 415.542093 49.652652 
L 415.542093 48.468064 
L 415.83824 47.283477 
L 416.134387 46.98733 
L 416.430534 46.98733 
L 416.726681 47.579624 
L 417.318975 48.764211 
L 417.615121 50.244946 
L 417.911268 51.133386 
L 418.207415 51.429533 
L 418.207415 51.133386 
L 418.503562 50.837239 
L 418.503562 49.948799 
L 418.799709 48.764211 
L 419.392003 47.875771 
L 419.984296 47.579624 
L 420.57659 47.875771 
L 421.168884 48.764211 
L 421.465031 50.244946 
L 421.761177 51.133386 
L 421.761177 52.317974 
L 421.761177 52.61412 
" style="fill:none;stroke:#8c8c8c;stroke-linecap:square;"/>
   </g>
   <g id="line2d_80">
    <path clip-path="url(#pca89b6a697)" d="M 409.619156 59.129351 
L 409.323009 59.129351 
L 408.730716 59.129351 
L 408.434569 59.425498 
L 408.730716 59.425498 
L 409.915303 59.129351 
L 412.580625 58.537058 
L 415.542093 58.240911 
L 417.318975 58.240911 
L 418.503562 57.944764 
L 419.095856 57.944764 
L 419.392003 57.648617 
" style="fill:none;stroke:#8c8c8c;stroke-linecap:square;"/>
   </g>
   <g id="line2d_81">
    <path clip-path="url(#pca89b6a697)" d="M 412.876772 65.644582 
L 412.876772 65.348435 
L 412.876772 65.052288 
L 412.876772 64.756142 
L 412.580625 64.756142 
L 412.284478 64.756142 
L 411.988331 65.052288 
L 411.396037 65.644582 
L 410.803744 66.236876 
L 410.803744 66.82917 
L 411.099891 67.125316 
L 411.692184 67.125316 
L 412.580625 66.533023 
L 413.172919 65.644582 
L 413.469065 64.459995 
L 413.765212 63.571554 
L 413.765212 62.683114 
L 413.765212 62.386967 
L 413.765212 62.09082 
L 413.765212 62.386967 
L 413.765212 62.683114 
L 413.765212 62.97926 
L 413.469065 63.867701 
L 413.469065 65.644582 
L 413.765212 66.82917 
L 414.357506 68.309904 
L 415.245947 69.198344 
L 416.134387 69.494491 
L 416.726681 68.902198 
L 417.318975 68.309904 
L 417.318975 68.013757 
" style="fill:none;stroke:#8c8c8c;stroke-linecap:square;"/>
   </g>
   <g id="line2d_82">
    <path clip-path="url(#pca89b6a697)" d="M 418.799709 62.683114 
L 418.799709 62.386967 
L 418.799709 62.386967 
L 418.503562 62.386967 
L 418.503562 62.97926 
L 418.207415 63.867701 
L 418.207415 65.052288 
L 418.503562 65.940729 
L 419.095856 66.82917 
L 419.688149 67.125316 
L 420.280443 66.82917 
L 420.57659 66.533023 
L 420.872737 65.940729 
" style="fill:none;stroke:#8c8c8c;stroke-linecap:square;"/>
   </g>
   <g id="line2d_83">
    <path clip-path="url(#pca89b6a697)" d="M 418.503562 63.867701 
L 417.911268 64.163848 
L 417.318975 64.459995 
L 417.318975 65.052288 
L 417.911268 65.052288 
L 418.799709 64.756142 
L 419.984296 64.459995 
L 420.872737 63.867701 
" style="fill:none;stroke:#8c8c8c;stroke-linecap:square;"/>
   </g>
   <g id="line2d_84">
    <path clip-path="url(#pca89b6a697)" d="M 431.830171 53.798708 
L 431.534024 53.798708 
L 431.237877 53.798708 
L 431.534024 53.798708 
L 431.830171 53.798708 
L 432.718611 53.798708 
L 433.903199 53.502561 
L 435.087786 53.206414 
L 436.272373 52.910267 
" style="fill:none;stroke:#8c8c8c;stroke-linecap:square;"/>
   </g>
   <g id="line2d_85">
    <path clip-path="url(#pca89b6a697)" d="M 432.718611 57.648617 
L 432.422464 57.944764 
L 432.422464 58.240911 
L 432.422464 58.537058 
L 432.718611 58.537058 
L 433.310905 58.537058 
L 435.087786 58.240911 
L 436.56852 57.648617 
L 438.345401 56.760176 
" style="fill:none;stroke:#8c8c8c;stroke-linecap:square;"/>
   </g>
   <g id="line2d_86">
    <path clip-path="url(#pca89b6a697)" d="M 450.191276 51.133386 
L 450.191276 50.837239 
L 450.191276 51.133386 
L 450.191276 51.429533 
L 450.191276 52.910267 
L 450.191276 54.094855 
L 450.783569 56.167883 
L 451.375863 57.944764 
L 451.968157 58.537058 
L 452.264304 59.129351 
L 452.264304 58.833204 
L 451.968157 58.537058 
" style="fill:none;stroke:#8c8c8c;stroke-linecap:square;"/>
   </g>
   <g id="line2d_87">
    <path clip-path="url(#pca89b6a697)" d="M 449.006688 51.429533 
L 449.302835 51.429533 
L 449.598982 51.133386 
L 450.783569 51.133386 
L 451.968157 50.837239 
L 452.856597 50.541092 
L 453.745038 50.244946 
L 454.337332 49.948799 
" style="fill:none;stroke:#8c8c8c;stroke-linecap:square;"/>
   </g>
   <g id="line2d_88">
    <path clip-path="url(#pca89b6a697)" d="M 449.895129 53.206414 
L 449.895129 53.502561 
L 449.598982 53.798708 
L 449.302835 54.094855 
L 449.598982 54.391002 
L 450.191276 54.391002 
L 451.375863 54.391002 
L 452.56045 53.798708 
L 453.745038 53.502561 
L 454.041185 53.502561 
" style="fill:none;stroke:#8c8c8c;stroke-linecap:square;"/>
   </g>
   <g id="line2d_89">
    <path clip-path="url(#pca89b6a697)" d="M 456.41036 53.798708 
L 456.41036 54.094855 
L 456.41036 54.391002 
L 456.706506 54.983295 
L 456.706506 56.167883 
L 457.002653 57.35247 
L 457.2988 57.944764 
L 457.2988 58.537058 
" style="fill:none;stroke:#8c8c8c;stroke-linecap:square;"/>
   </g>
   <g id="line2d_90">
    <path clip-path="url(#pca89b6a697)" d="M 458.187241 53.206414 
L 457.891094 53.206414 
L 457.891094 52.910267 
L 457.594947 52.910267 
L 457.891094 52.910267 
" style="fill:none;stroke:#8c8c8c;stroke-linecap:square;"/>
   </g>
   <g id="line2d_91">
    <path clip-path="url(#pca89b6a697)" d="M 459.667975 54.687148 
L 459.667975 54.983295 
L 460.260269 56.167883 
L 460.260269 56.760176 
L 460.556416 57.056323 
L 460.852562 57.056323 
L 460.852562 56.760176 
L 461.148709 55.871736 
L 461.148709 55.279442 
L 461.741003 54.687148 
L 462.03715 54.391002 
L 462.629444 54.687148 
L 463.221737 55.279442 
L 463.814031 56.46403 
L 464.406325 57.056323 
L 464.702472 57.35247 
" style="fill:none;stroke:#8c8c8c;stroke-linecap:square;"/>
   </g>
   <g id="line2d_92">
    <path clip-path="url(#pca89b6a697)" d="M 474.475318 53.206414 
L 474.179171 53.206414 
L 474.179171 53.502561 
L 474.475318 53.502561 
L 474.771465 53.502561 
L 475.659905 53.206414 
L 476.548346 52.910267 
L 477.732933 52.61412 
L 478.621374 52.317974 
L 478.917521 52.021827 
" style="fill:none;stroke:#8c8c8c;stroke-linecap:square;"/>
   </g>
   <g id="line2d_93">
    <path clip-path="url(#pca89b6a697)" d="M 485.136605 47.283477 
L 485.136605 46.98733 
L 484.840458 46.98733 
L 484.840458 47.283477 
L 484.840458 47.875771 
L 485.136605 49.356505 
L 485.728898 51.133386 
L 486.025045 52.61412 
L 486.617339 53.798708 
L 486.913486 54.391002 
L 486.913486 54.687148 
" style="fill:none;stroke:#8c8c8c;stroke-linecap:square;"/>
   </g>
   <g id="line2d_94">
    <path clip-path="url(#pca89b6a697)" d="M 488.39422 47.579624 
L 488.098073 48.171918 
L 487.801926 48.764211 
L 487.209633 49.652652 
L 486.617339 50.244946 
L 486.321192 50.541092 
L 486.025045 50.837239 
L 486.025045 51.133386 
L 486.321192 51.429533 
L 486.913486 51.429533 
L 488.098073 52.021827 
L 489.282661 53.206414 
L 490.467248 54.094855 
L 491.651836 54.983295 
L 492.540276 55.871736 
L 492.836423 55.871736 
L 492.836423 55.575589 
" style="fill:none;stroke:#8c8c8c;stroke-linecap:square;"/>
   </g>
   <g id="line2d_95">
    <path clip-path="url(#pca89b6a697)" d="M 499.055507 52.021827 
L 499.055507 51.72568 
L 498.75936 51.72568 
L 498.75936 51.429533 
L 498.75936 51.72568 
L 499.055507 51.72568 
L 499.055507 52.021827 
L 499.055507 52.317974 
L 499.351654 52.61412 
L 499.351654 53.206414 
L 499.647801 53.502561 
L 499.647801 53.798708 
L 499.943948 53.798708 
L 499.647801 53.502561 
L 499.351654 52.021827 
L 498.75936 50.541092 
L 498.463213 49.060358 
L 498.167066 47.875771 
L 498.463213 46.98733 
L 498.463213 46.395036 
L 498.75936 45.802743 
L 499.055507 45.802743 
L 499.647801 46.395036 
L 500.240094 47.283477 
L 500.536241 48.764211 
L 500.832388 49.948799 
L 501.128535 50.541092 
L 501.128535 50.837239 
L 501.128535 50.541092 
L 501.128535 50.244946 
L 501.128535 49.356505 
L 501.128535 48.171918 
L 501.424682 46.395036 
L 501.720829 44.914302 
L 502.016976 43.433568 
L 502.016976 42.841274 
L 502.313122 42.545127 
L 502.609269 42.841274 
L 503.201563 43.729715 
L 504.090004 45.802743 
L 504.978444 48.171918 
L 506.163032 51.133386 
L 507.051472 52.61412 
L 507.347619 53.798708 
L 507.643766 53.502561 
L 507.347619 53.502561 
" style="fill:none;stroke:#8c8c8c;stroke-linecap:square;"/>
   </g>
   <g id="line2d_96">
    <path clip-path="url(#pca89b6a697)" d="M 501.720829 35.141456 
L 501.424682 35.141456 
L 501.424682 35.437603 
L 501.424682 35.141456 
L 501.424682 34.845309 
L 501.424682 33.956869 
L 501.424682 32.476134 
L 501.424682 30.9954 
L 501.720829 29.218519 
L 501.720829 28.330078 
L 501.720829 27.441638 
" style="fill:none;stroke:#8c8c8c;stroke-linecap:square;"/>
   </g>
   <g id="line2d_97">
    <path clip-path="url(#pca89b6a697)" d="M 499.055507 36.326043 
L 499.055507 36.029897 
L 499.055507 35.73375 
L 499.055507 35.437603 
L 499.055507 35.141456 
L 499.351654 35.437603 
L 499.351654 35.73375 
L 499.647801 36.029897 
L 500.240094 36.918337 
L 500.536241 37.214484 
L 500.832388 37.510631 
L 501.128535 37.510631 
L 501.720829 37.510631 
L 502.609269 36.326043 
L 503.201563 35.73375 
L 503.49771 34.845309 
L 503.793857 34.549162 
" style="fill:none;stroke:#8c8c8c;stroke-linecap:square;"/>
   </g>
   <g id="line2d_98">
    <path clip-path="url(#pca89b6a697)" d="M 504.978444 24.480169 
L 504.682297 24.480169 
L 504.38615 24.480169 
L 504.38615 24.776316 
L 504.682297 24.776316 
L 504.682297 25.072463 
L 504.978444 25.960903 
L 505.274591 26.25705 
L 505.274591 26.849344 
L 505.274591 26.25705 
L 505.274591 25.072463 
L 504.978444 23.887875 
L 504.978444 22.999435 
L 505.274591 22.407141 
L 505.274591 22.110994 
L 505.274591 21.814847 
L 505.570738 22.110994 
L 505.866885 22.407141 
L 506.459178 23.295582 
L 506.755325 24.184022 
L 507.051472 24.480169 
L 507.051472 24.776316 
L 507.051472 24.480169 
L 507.347619 24.480169 
L 507.347619 23.887875 
L 507.643766 23.591729 
L 507.643766 23.295582 
L 507.939913 23.295582 
L 508.23606 23.591729 
L 508.532206 23.887875 
L 509.1245 24.480169 
L 509.420647 25.36861 
L 510.012941 25.664757 
L 510.012941 25.960903 
" style="fill:none;stroke:#8c8c8c;stroke-linecap:square;"/>
   </g>
   <g id="line2d_99">
    <path clip-path="url(#pca89b6a697)" d="M 512.085969 23.591729 
L 512.085969 23.295582 
L 512.085969 22.999435 
L 512.085969 22.703288 
L 511.789822 22.703288 
L 511.493675 22.703288 
L 510.901381 22.999435 
L 510.605234 23.591729 
L 510.605234 24.184022 
L 510.605234 24.480169 
L 511.197528 24.480169 
L 511.789822 24.184022 
L 512.382116 23.295582 
L 512.382116 22.703288 
L 512.382116 22.110994 
L 512.382116 21.814847 
L 512.085969 21.814847 
L 512.085969 22.110994 
L 512.085969 22.999435 
L 512.382116 24.184022 
L 512.678262 25.072463 
L 512.974409 25.36861 
L 513.270556 25.36861 
L 513.566703 25.36861 
" style="fill:none;stroke:#8c8c8c;stroke-linecap:square;"/>
   </g>
   <g id="line2d_100">
    <path clip-path="url(#pca89b6a697)" d="M 515.639731 22.110994 
L 515.639731 21.814847 
L 515.639731 21.518701 
L 515.639731 21.222554 
L 515.343584 21.222554 
L 515.047437 21.222554 
L 514.75129 21.518701 
L 514.455144 21.814847 
L 514.158997 22.407141 
L 514.158997 22.703288 
L 514.455144 22.703288 
L 514.75129 22.999435 
L 515.639731 23.591729 
L 515.935878 23.887875 
L 516.232025 24.480169 
L 516.232025 24.776316 
L 516.232025 25.072463 
" style="fill:none;stroke:#8c8c8c;stroke-linecap:square;"/>
   </g>
   <g id="line2d_101">
    <path clip-path="url(#pca89b6a697)" d="M 518.6012 20.037966 
L 518.6012 19.741819 
L 518.305053 19.741819 
L 518.008906 20.037966 
L 517.712759 20.63026 
L 517.416612 20.926407 
L 517.416612 21.518701 
L 517.712759 22.110994 
L 518.305053 22.703288 
L 518.6012 22.999435 
L 519.193493 23.591729 
L 519.48964 24.184022 
L 519.48964 24.480169 
" style="fill:none;stroke:#8c8c8c;stroke-linecap:square;"/>
   </g>
   <g id="line2d_102">
    <path clip-path="url(#pca89b6a697)" d="M 528.374046 22.407141 
L 528.077899 22.407141 
L 527.781752 22.703288 
L 527.485605 22.703288 
L 527.485605 22.999435 
L 527.485605 23.887875 
L 527.781752 24.184022 
L 528.374046 24.480169 
L 528.670193 24.480169 
L 528.670193 24.184022 
L 528.670193 23.295582 
L 528.670193 22.703288 
L 528.374046 22.407141 
L 528.077899 22.407141 
" style="fill:none;stroke:#8c8c8c;stroke-linecap:square;"/>
   </g>
   <g id="line2d_103">
    <path clip-path="url(#pca89b6a697)" d="M 531.335514 22.703288 
L 531.631661 22.703288 
L 531.927808 22.703288 
L 531.927808 22.407141 
L 531.631661 22.110994 
L 531.039368 20.63026 
L 530.743221 19.445673 
L 530.447074 18.557232 
L 530.150927 18.261085 
L 529.85478 17.668791 
L 529.85478 17.372645 
L 530.150927 17.076498 
L 530.743221 16.780351 
L 531.039368 16.484204 
" style="fill:none;stroke:#8c8c8c;stroke-linecap:square;"/>
   </g>
   <g id="line2d_104">
    <path clip-path="url(#pca89b6a697)" d="M 530.150927 18.853379 
L 529.85478 19.149526 
L 529.558633 19.445673 
L 529.558633 19.741819 
L 529.558633 20.037966 
L 530.447074 19.741819 
L 531.631661 19.445673 
L 532.223955 19.149526 
" style="fill:none;stroke:#8c8c8c;stroke-linecap:square;"/>
   </g>
   <g id="line2d_105">
    <path clip-path="url(#pca89b6a697)" d="M 520.674228 29.810813 
L 520.674228 29.514666 
L 520.674228 29.218519 
L 520.378081 28.922372 
L 520.081934 28.922372 
L 519.785787 28.922372 
L 519.785787 29.218519 
L 519.193493 29.514666 
L 518.6012 30.106959 
L 518.305053 30.9954 
L 518.305053 32.179987 
L 518.6012 33.068428 
L 519.193493 33.660722 
L 520.378081 33.956869 
L 521.266521 33.956869 
L 522.154962 33.364575 
" style="fill:none;stroke:#8c8c8c;stroke-linecap:square;"/>
   </g>
   <g id="line2d_106">
    <path clip-path="url(#pca89b6a697)" d="M 524.22799 30.403106 
L 524.22799 30.106959 
L 523.931843 30.106959 
L 523.635696 30.106959 
L 523.339549 30.699253 
L 523.339549 31.587694 
L 523.931843 32.772281 
L 524.820284 33.660722 
L 525.708724 33.956869 
L 526.597165 33.660722 
L 526.893312 32.772281 
L 526.893312 31.291547 
L 526.597165 30.403106 
L 526.004871 29.810813 
L 525.708724 29.810813 
L 525.11643 30.106959 
L 524.820284 30.403106 
" style="fill:none;stroke:#8c8c8c;stroke-linecap:square;"/>
   </g>
   <g id="line2d_107">
    <path clip-path="url(#pca89b6a697)" d="M 528.077899 32.179987 
L 528.077899 31.883841 
L 528.374046 31.883841 
L 528.374046 31.587694 
L 528.96634 31.587694 
L 529.558633 31.291547 
L 529.558633 30.9954 
L 529.85478 30.9954 
L 529.85478 31.291547 
L 529.85478 31.883841 
L 529.262486 33.068428 
L 528.96634 33.660722 
L 528.670193 34.253015 
L 528.670193 34.549162 
L 529.262486 34.845309 
L 529.85478 34.845309 
L 530.743221 34.549162 
L 531.631661 34.253015 
L 532.223955 33.956869 
L 532.520102 33.956869 
" style="fill:none;stroke:#8c8c8c;stroke-linecap:square;"/>
   </g>
   <g id="line2d_108">
    <path clip-path="url(#pca89b6a697)" d="M 411.099891 90.224771 
L 411.099891 91.409359 
L 411.099891 93.18624 
L 411.099891 95.259268 
L 411.396037 97.036149 
L 411.396037 98.220736 
L 411.396037 99.997618 
L 411.396037 101.182205 
L 411.692184 102.662939 
L 411.692184 104.43982 
L 411.988331 106.216702 
L 412.284478 107.993583 
L 412.284478 109.474317 
L 412.580625 110.955051 
L 412.580625 111.547345 
L 412.580625 111.843492 
" style="fill:none;stroke:#8c8c8c;stroke-linecap:square;"/>
   </g>
   <g id="line2d_109">
    <path clip-path="url(#pca89b6a697)" d="M 412.876772 110.362758 
L 412.580625 110.362758 
L 412.580625 110.658904 
L 412.580625 110.955051 
L 412.580625 111.251198 
L 412.580625 111.547345 
L 412.580625 111.843492 
L 412.580625 112.139639 
L 412.580625 112.435786 
L 412.580625 113.028079 
L 412.580625 114.212667 
L 412.876772 115.397254 
L 412.876772 116.877988 
L 412.876772 118.65487 
L 412.876772 120.431751 
L 412.876772 122.504779 
L 413.172919 123.985513 
L 413.172919 125.1701 
L 413.172919 126.058541 
L 413.172919 126.650835 
" style="fill:none;stroke:#8c8c8c;stroke-linecap:square;"/>
   </g>
   <g id="line2d_110">
    <path clip-path="url(#pca89b6a697)" d="M 398.069429 117.470282 
L 400.734751 117.470282 
L 403.992366 117.174135 
L 409.026863 117.174135 
L 415.245947 117.174135 
L 422.649618 117.174135 
L 429.757143 117.174135 
L 438.937695 117.766429 
L 449.302835 118.062576 
L 460.260269 118.951016 
L 471.513849 119.839457 
L 479.509814 120.727898 
L 488.690367 121.616338 
L 496.094038 122.208632 
L 499.943948 122.800926 
" style="fill:none;stroke:#8c8c8c;stroke-linecap:square;"/>
   </g>
   <g id="line2d_111">
    <path clip-path="url(#pca89b6a697)" d="M 494.909451 118.358723 
L 495.205598 118.358723 
L 495.205598 118.65487 
L 495.501745 118.65487 
L 495.797892 118.951016 
L 496.094038 119.247163 
L 497.574773 119.54331 
L 499.055507 120.135604 
L 500.832388 120.727898 
L 502.016976 121.320191 
L 502.016976 121.616338 
L 501.424682 122.504779 
L 499.943948 123.689366 
L 498.463213 124.873954 
L 497.574773 126.058541 
L 497.278626 126.946982 
L 497.278626 127.243128 
" style="fill:none;stroke:#8c8c8c;stroke-linecap:square;"/>
   </g>
   <g id="line2d_112">
    <path clip-path="url(#pca89b6a697)" d="M 404.58466 90.224771 
L 405.176953 90.224771 
L 406.065394 89.928624 
L 406.657688 89.632478 
L 408.138422 88.744037 
L 409.915303 87.55945 
L 411.099891 86.671009 
L 411.988331 85.782568 
L 412.284478 85.782568 
L 412.580625 86.078715 
L 412.580625 86.671009 
L 412.580625 87.55945 
L 412.580625 88.44789 
L 412.580625 88.744037 
L 412.876772 88.744037 
" style="fill:none;stroke:#8c8c8c;stroke-linecap:square;"/>
   </g>
   <g id="line2d_113">
    <path clip-path="url(#pca89b6a697)" d="M 412.580625 102.366792 
L 412.580625 102.070646 
L 412.284478 102.366792 
L 412.580625 102.366792 
L 412.876772 102.366792 
L 412.876772 102.070646 
L 412.580625 102.070646 
L 412.284478 102.070646 
L 412.284478 102.366792 
L 412.284478 102.662939 
L 412.580625 102.662939 
L 412.876772 102.662939 
L 412.876772 102.366792 
L 412.580625 102.366792 
L 412.580625 102.070646 
L 412.876772 102.070646 
L 413.172919 102.070646 
" style="fill:none;stroke:#8c8c8c;stroke-linecap:square;"/>
   </g>
   <g id="line2d_114">
    <path clip-path="url(#pca89b6a697)" d="M 416.726681 101.774499 
L 417.022828 101.774499 
L 417.318975 101.774499 
L 417.615121 101.774499 
" style="fill:none;stroke:#8c8c8c;stroke-linecap:square;"/>
   </g>
   <g id="line2d_115">
    <path clip-path="url(#pca89b6a697)" d="M 418.799709 101.774499 
L 419.095856 101.774499 
L 419.392003 101.774499 
L 419.688149 101.774499 
L 419.984296 101.774499 
" style="fill:none;stroke:#8c8c8c;stroke-linecap:square;"/>
   </g>
   <g id="line2d_116">
    <path clip-path="url(#pca89b6a697)" d="M 420.57659 101.774499 
L 420.872737 101.774499 
" style="fill:none;stroke:#8c8c8c;stroke-linecap:square;"/>
   </g>
   <g id="line2d_117">
    <path clip-path="url(#pca89b6a697)" d="M 422.353471 101.774499 
L 422.649618 101.774499 
L 422.945765 101.774499 
L 423.241912 102.070646 
L 423.538059 102.070646 
" style="fill:none;stroke:#8c8c8c;stroke-linecap:square;"/>
   </g>
   <g id="line2d_118">
    <path clip-path="url(#pca89b6a697)" d="M 425.018793 102.070646 
L 425.31494 102.070646 
L 425.611087 102.070646 
L 425.611087 102.366792 
L 425.907233 102.366792 
" style="fill:none;stroke:#8c8c8c;stroke-linecap:square;"/>
   </g>
   <g id="line2d_119">
    <path clip-path="url(#pca89b6a697)" d="M 427.091821 102.070646 
L 427.387968 102.070646 
L 427.684115 102.070646 
L 427.980261 102.070646 
L 428.276408 102.070646 
" style="fill:none;stroke:#8c8c8c;stroke-linecap:square;"/>
   </g>
   <g id="line2d_120">
    <path clip-path="url(#pca89b6a697)" d="M 433.014758 101.774499 
L 432.718611 101.774499 
L 432.422464 101.774499 
L 432.126317 101.774499 
L 431.830171 101.774499 
L 431.534024 101.774499 
L 431.534024 102.070646 
L 430.94173 102.070646 
L 430.645583 102.366792 
L 430.349436 102.366792 
L 430.349436 102.662939 
L 430.645583 102.662939 
L 430.645583 102.366792 
L 430.94173 102.366792 
L 430.94173 102.070646 
L 430.94173 101.774499 
L 430.645583 101.774499 
L 430.053289 102.070646 
L 429.757143 102.070646 
L 429.757143 102.366792 
L 430.053289 102.366792 
L 430.645583 102.366792 
L 430.94173 102.070646 
L 431.534024 101.774499 
L 431.534024 101.478352 
L 430.94173 101.478352 
L 430.94173 101.774499 
L 430.94173 102.070646 
L 431.237877 102.366792 
L 431.830171 102.662939 
L 432.422464 102.366792 
L 432.718611 102.070646 
L 432.422464 101.774499 
L 432.126317 101.478352 
L 431.830171 101.182205 
L 431.534024 101.182205 
L 431.237877 101.182205 
L 431.237877 101.478352 
L 431.534024 101.774499 
L 431.534024 102.070646 
L 431.237877 102.366792 
L 431.237877 102.662939 
L 430.94173 102.662939 
L 430.94173 102.959086 
L 431.237877 102.959086 
L 431.534024 102.959086 
L 431.534024 102.662939 
L 431.237877 102.366792 
L 430.94173 102.070646 
L 430.645583 102.070646 
" style="fill:none;stroke:#8c8c8c;stroke-linecap:square;"/>
   </g>
   <g id="line2d_121">
    <path clip-path="url(#pca89b6a697)" d="M 430.053289 78.971191 
L 429.757143 78.971191 
L 429.460996 78.971191 
L 429.164849 78.971191 
L 428.868702 79.267338 
L 428.868702 79.563484 
L 428.868702 79.859631 
L 429.164849 80.155778 
L 429.460996 80.451925 
L 429.757143 80.155778 
L 430.053289 79.859631 
L 430.053289 79.563484 
L 429.757143 79.267338 
L 429.757143 78.971191 
L 429.460996 78.971191 
L 429.164849 78.971191 
L 429.164849 79.267338 
L 429.164849 79.859631 
L 429.164849 80.155778 
L 429.460996 80.155778 
L 429.757143 80.155778 
L 429.757143 79.859631 
L 429.757143 79.563484 
L 429.757143 79.267338 
L 429.460996 79.267338 
L 429.164849 79.267338 
L 429.164849 79.563484 
L 429.460996 79.563484 
L 429.757143 79.859631 
L 429.757143 79.563484 
L 430.053289 79.563484 
L 430.053289 79.267338 
L 430.053289 78.971191 
" style="fill:none;stroke:#8c8c8c;stroke-linecap:square;"/>
   </g>
   <g id="line2d_122">
    <path clip-path="url(#pca89b6a697)" d="M 430.349436 79.859631 
L 430.349436 80.451925 
L 430.053289 80.451925 
L 430.053289 81.044219 
L 430.349436 81.044219 
L 430.349436 81.932659 
L 430.645583 81.932659 
L 430.645583 82.8211 
L 430.94173 83.117247 
L 430.94173 83.413394 
L 431.237877 83.70954 
L 431.237877 84.005687 
L 431.534024 84.301834 
L 431.534024 84.597981 
L 431.830171 84.894128 
L 431.830171 85.486422 
L 432.126317 85.782568 
L 432.126317 86.078715 
L 432.718611 86.671009 
L 432.718611 86.967156 
L 433.014758 87.263303 
L 433.014758 87.855596 
L 433.607052 88.44789 
L 433.607052 88.744037 
L 433.903199 89.040184 
L 433.903199 89.336331 
L 434.199345 89.632478 
L 434.199345 89.928624 
L 434.791639 90.520918 
L 434.791639 90.817065 
L 435.383933 91.409359 
L 435.68008 91.409359 
L 435.976227 91.705506 
L 435.976227 92.001652 
L 436.864667 92.890093 
L 436.864667 93.18624 
L 437.160814 93.482387 
L 437.160814 93.778534 
L 437.753108 94.370827 
L 437.753108 94.666974 
L 438.049255 94.963121 
L 438.049255 95.259268 
L 438.641548 95.851562 
L 438.641548 96.147708 
L 438.937695 96.147708 
L 438.937695 96.740002 
L 440.122283 97.92459 
L 440.122283 98.220736 
L 440.714576 98.516883 
L 441.010723 98.516883 
L 441.30687 98.81303 
L 441.899164 99.109177 
L 442.491457 99.701471 
L 443.083751 99.701471 
L 443.676045 100.293764 
L 444.564485 100.293764 
L 444.860632 100.589911 
L 445.156779 100.589911 
L 445.749073 100.886058 
L 446.341367 100.886058 
L 446.93366 101.182205 
L 448.118248 101.182205 
L 448.710541 101.478352 
L 450.191276 101.478352 
L 451.375863 101.774499 
L 451.968157 101.774499 
L 452.56045 102.070646 
L 455.521919 102.070646 
L 456.114213 102.366792 
L 457.594947 102.366792 
L 458.187241 102.662939 
L 459.371828 102.662939 
L 460.260269 102.959086 
L 464.110178 102.959086 
L 465.294765 103.255233 
L 470.033115 103.255233 
L 470.625409 103.55138 
L 482.471283 103.55138 
L 483.063577 103.255233 
L 486.913486 103.255233 
L 486.913486 103.255233 
" style="fill:none;stroke:#8c8c8c;stroke-linecap:square;"/>
   </g>
   <g id="line2d_123">
    <path clip-path="url(#pca89b6a697)" d="M 489.578808 102.366792 
L 489.282661 102.366792 
L 489.282661 102.070646 
L 488.986514 102.070646 
L 488.986514 102.366792 
L 488.690367 102.366792 
L 488.39422 102.366792 
L 488.098073 102.366792 
L 488.098073 102.662939 
L 487.801926 102.662939 
L 487.801926 102.959086 
L 487.801926 103.255233 
L 487.801926 103.55138 
L 488.098073 103.55138 
L 488.39422 103.55138 
L 488.690367 103.55138 
L 488.690367 103.255233 
L 488.690367 102.959086 
L 488.690367 102.662939 
L 488.39422 102.662939 
L 488.098073 102.662939 
L 488.098073 102.959086 
L 488.39422 103.255233 
L 488.690367 103.255233 
L 488.986514 103.255233 
L 489.282661 102.959086 
L 489.578808 102.959086 
L 489.578808 102.662939 
L 489.282661 102.662939 
L 488.986514 102.662939 
" style="fill:none;stroke:#8c8c8c;stroke-linecap:square;"/>
   </g>
   <g id="line2d_124">
    <path clip-path="url(#pca89b6a697)" d="M 410.507597 102.366792 
L 410.803744 102.366792 
L 411.099891 102.366792 
L 411.099891 102.070646 
L 411.396037 102.070646 
L 411.396037 101.774499 
L 411.396037 101.478352 
L 411.099891 101.478352 
L 410.803744 101.774499 
L 410.803744 102.070646 
L 411.099891 102.366792 
L 411.396037 102.662939 
L 411.692184 102.662939 
L 412.284478 102.662939 
L 412.284478 102.366792 
L 412.284478 102.070646 
L 412.284478 101.774499 
L 411.988331 101.774499 
L 411.692184 101.774499 
L 411.396037 101.774499 
" style="fill:none;stroke:#8c8c8c;stroke-linecap:square;"/>
   </g>
   <g id="line2d_125">
    <path clip-path="url(#pca89b6a697)" d="M 433.607052 118.65487 
L 433.607052 118.358723 
L 433.310905 118.65487 
L 433.310905 119.54331 
L 433.014758 121.024044 
L 433.014758 122.208632 
L 433.014758 123.393219 
L 433.014758 123.985513 
L 433.310905 124.28166 
" style="fill:none;stroke:#8c8c8c;stroke-linecap:square;"/>
   </g>
   <g id="line2d_126">
    <path clip-path="url(#pca89b6a697)" d="M 460.556416 118.65487 
L 460.556416 118.358723 
L 460.556416 118.951016 
L 460.556416 119.839457 
L 460.556416 121.024044 
L 460.556416 122.208632 
L 460.260269 123.393219 
" style="fill:none;stroke:#8c8c8c;stroke-linecap:square;"/>
   </g>
   <g id="line2d_127">
    <path clip-path="url(#pca89b6a697)" d="M 437.160814 131.981478 
L 437.160814 132.277625 
L 437.160814 132.573772 
L 437.456961 132.869919 
L 437.753108 133.758359 
L 437.753108 134.350653 
L 437.753108 134.6468 
L 438.049255 134.6468 
L 437.753108 134.6468 
L 437.753108 134.350653 
L 437.456961 133.758359 
L 437.456961 132.869919 
L 437.753108 131.981478 
L 438.049255 131.093038 
L 438.641548 130.796891 
L 439.233842 130.500744 
L 439.529989 130.204597 
" style="fill:none;stroke:#8c8c8c;stroke-linecap:square;"/>
   </g>
   <g id="line2d_128">
    <path clip-path="url(#pca89b6a697)" d="M 440.418429 131.981478 
L 440.418429 132.277625 
L 440.714576 132.277625 
L 441.010723 132.277625 
L 441.603017 131.981478 
L 441.899164 131.685331 
L 442.195311 131.093038 
L 442.195311 130.796891 
L 441.899164 130.500744 
L 441.30687 130.500744 
L 440.714576 130.796891 
L 440.122283 131.981478 
L 440.122283 133.462212 
L 440.714576 134.350653 
L 441.603017 134.942947 
L 442.195311 135.239094 
L 443.083751 135.239094 
" style="fill:none;stroke:#8c8c8c;stroke-linecap:square;"/>
   </g>
   <g id="line2d_129">
    <path clip-path="url(#pca89b6a697)" d="M 445.156779 132.277625 
L 445.156779 131.981478 
L 444.860632 131.981478 
L 444.268339 131.981478 
L 443.972192 132.277625 
L 443.379898 132.573772 
L 443.379898 132.869919 
L 443.676045 132.869919 
L 443.972192 133.166066 
L 444.564485 133.462212 
L 445.156779 134.054506 
L 445.156779 134.6468 
L 445.452926 135.53524 
L 445.156779 135.831387 
L 445.156779 136.127534 
" style="fill:none;stroke:#8c8c8c;stroke-linecap:square;"/>
   </g>
   <g id="line2d_130">
    <path clip-path="url(#pca89b6a697)" d="M 446.341367 136.127534 
L 446.637513 136.127534 
L 446.93366 136.127534 
L 447.229807 136.127534 
L 447.525954 135.831387 
L 448.414395 135.831387 
L 449.006688 135.53524 
L 449.302835 134.942947 
L 449.598982 134.054506 
L 449.302835 133.462212 
L 449.006688 132.869919 
L 448.118248 132.573772 
L 447.525954 132.573772 
L 447.229807 132.869919 
L 446.93366 133.758359 
L 446.637513 134.350653 
L 446.637513 135.831387 
L 446.93366 137.015975 
L 447.229807 138.496709 
L 447.525954 139.089003 
L 447.822101 139.38515 
L 447.822101 139.681296 
" style="fill:none;stroke:#8c8c8c;stroke-linecap:square;"/>
   </g>
   <g id="line2d_131">
    <path clip-path="url(#pca89b6a697)" d="M 450.487422 135.239094 
L 450.487422 134.942947 
L 450.487422 134.6468 
L 450.191276 134.6468 
L 450.191276 134.942947 
L 450.487422 135.239094 
L 451.079716 136.127534 
L 451.375863 136.423681 
L 452.264304 136.423681 
L 452.856597 136.127534 
L 453.152744 135.53524 
L 453.152744 134.350653 
L 452.56045 134.054506 
L 451.968157 133.758359 
L 451.375863 133.758359 
L 450.783569 134.054506 
L 450.783569 134.350653 
" style="fill:none;stroke:#8c8c8c;stroke-linecap:square;"/>
   </g>
   <g id="line2d_132">
    <path clip-path="url(#pca89b6a697)" d="M 453.448891 134.942947 
L 453.745038 134.942947 
L 454.041185 134.942947 
L 454.041185 135.239094 
L 454.041185 135.53524 
L 454.337332 135.831387 
L 454.337332 136.423681 
L 454.633478 136.719828 
L 454.929625 136.423681 
L 454.929625 136.127534 
L 455.225772 135.53524 
L 455.521919 134.350653 
L 456.114213 133.462212 
L 456.41036 133.462212 
L 456.41036 133.758359 
L 456.706506 134.054506 
L 457.002653 134.942947 
L 457.2988 135.53524 
L 457.2988 135.831387 
L 457.594947 136.127534 
" style="fill:none;stroke:#8c8c8c;stroke-linecap:square;"/>
   </g>
   <g id="line2d_133">
    <path clip-path="url(#pca89b6a697)" d="M 459.371828 134.054506 
L 459.667975 134.054506 
L 459.667975 133.462212 
L 459.667975 133.166066 
L 459.667975 132.869919 
L 459.667975 132.573772 
L 459.667975 132.277625 
L 459.371828 132.277625 
L 459.075681 132.277625 
L 459.075681 132.573772 
L 459.075681 132.869919 
L 459.371828 133.166066 
L 459.964122 133.758359 
L 460.260269 134.054506 
L 460.556416 134.6468 
L 460.556416 134.942947 
L 460.556416 135.239094 
L 460.556416 135.53524 
" style="fill:none;stroke:#8c8c8c;stroke-linecap:square;"/>
   </g>
   <g id="line2d_134">
    <path clip-path="url(#pca89b6a697)" d="M 464.110178 133.462212 
L 463.814031 133.462212 
L 464.110178 133.462212 
L 464.406325 133.758359 
L 464.702472 133.758359 
L 465.294765 133.462212 
L 466.183206 133.166066 
L 466.183206 132.869919 
L 466.183206 132.277625 
L 465.887059 131.981478 
L 464.702472 132.277625 
L 463.814031 133.166066 
L 463.221737 134.350653 
L 463.221737 135.239094 
L 463.814031 136.423681 
L 464.702472 137.015975 
L 464.998618 137.312122 
" style="fill:none;stroke:#8c8c8c;stroke-linecap:square;"/>
   </g>
   <g id="line2d_135">
    <path clip-path="url(#pca89b6a697)" d="M 444.860632 142.050471 
L 444.860632 142.346618 
L 444.860632 142.642765 
L 444.860632 143.235059 
L 444.860632 144.715793 
L 445.156779 146.196527 
L 445.156779 147.084968 
L 445.452926 147.677261 
" style="fill:none;stroke:#8c8c8c;stroke-linecap:square;"/>
   </g>
   <g id="line2d_136">
    <path clip-path="url(#pca89b6a697)" d="M 443.083751 145.90038 
L 442.787604 145.604233 
L 443.083751 145.604233 
L 443.379898 145.604233 
L 444.268339 145.604233 
L 445.452926 145.604233 
L 446.341367 145.604233 
L 446.93366 145.604233 
" style="fill:none;stroke:#8c8c8c;stroke-linecap:square;"/>
   </g>
   <g id="line2d_137">
    <path clip-path="url(#pca89b6a697)" d="M 448.118248 145.604233 
L 448.118248 146.196527 
L 448.414395 146.788821 
L 448.710541 147.381115 
L 449.006688 147.677261 
" style="fill:none;stroke:#8c8c8c;stroke-linecap:square;"/>
   </g>
   <g id="line2d_138">
    <path clip-path="url(#pca89b6a697)" d="M 449.302835 144.123499 
L 449.598982 143.827352 
L 449.598982 143.531205 
" style="fill:none;stroke:#8c8c8c;stroke-linecap:square;"/>
   </g>
   <g id="line2d_139">
    <path clip-path="url(#pca89b6a697)" d="M 450.783569 144.715793 
L 450.783569 145.01194 
L 451.079716 145.604233 
L 451.079716 146.492674 
L 451.375863 147.084968 
L 451.375863 147.381115 
L 451.67201 147.381115 
L 451.968157 147.381115 
L 451.968157 146.788821 
L 452.56045 145.90038 
L 453.152744 145.308087 
L 453.448891 145.01194 
L 453.745038 145.308087 
L 454.041185 145.604233 
L 454.337332 146.196527 
L 454.337332 146.492674 
L 454.633478 146.788821 
L 454.633478 146.492674 
L 454.929625 146.492674 
L 454.929625 146.196527 
L 455.225772 145.604233 
L 455.521919 145.308087 
L 455.818066 145.01194 
L 456.114213 145.01194 
L 456.41036 145.308087 
L 457.002653 145.90038 
L 457.2988 146.196527 
L 457.594947 146.492674 
L 457.891094 146.492674 
L 458.187241 146.492674 
L 458.483388 146.196527 
L 458.779534 146.196527 
L 459.075681 146.196527 
L 459.371828 145.90038 
L 459.667975 145.604233 
L 460.260269 145.01194 
L 460.556416 144.123499 
L 460.852562 143.531205 
L 460.556416 143.235059 
L 460.260269 142.938912 
L 459.371828 143.235059 
L 459.075681 143.827352 
L 458.483388 145.01194 
L 459.075681 146.196527 
L 459.667975 146.788821 
L 460.556416 147.084968 
L 461.444856 147.084968 
" style="fill:none;stroke:#8c8c8c;stroke-linecap:square;"/>
   </g>
   <g id="line2d_140">
    <path clip-path="url(#pca89b6a697)" d="M 439.529989 160.115429 
L 439.529989 160.411576 
L 439.826136 160.411576 
L 439.826136 160.707723 
L 440.122283 160.707723 
L 440.418429 160.707723 
L 440.714576 160.707723 
L 441.30687 160.115429 
L 441.899164 159.819283 
L 442.491457 159.226989 
L 442.787604 159.226989 
L 442.787604 159.523136 
L 443.083751 160.115429 
L 443.379898 160.707723 
L 443.676045 161.300017 
L 443.972192 161.596164 
L 444.564485 161.892311 
L 445.156779 161.596164 
L 446.04522 161.00387 
L 446.341367 160.707723 
L 446.93366 160.115429 
" style="fill:none;stroke:#8c8c8c;stroke-linecap:square;"/>
   </g>
   <g id="line2d_141">
    <path clip-path="url(#pca89b6a697)" d="M 450.783569 155.080933 
L 450.487422 155.37708 
L 450.487422 155.969373 
L 450.487422 157.153961 
L 450.487422 159.226989 
L 450.487422 161.300017 
L 450.783569 163.076898 
L 451.079716 163.965339 
L 451.079716 164.557632 
" style="fill:none;stroke:#8c8c8c;stroke-linecap:square;"/>
   </g>
   <g id="line2d_142">
    <path clip-path="url(#pca89b6a697)" d="M 454.929625 161.596164 
L 454.929625 161.300017 
L 454.929625 161.596164 
L 454.929625 161.892311 
L 454.929625 162.188457 
L 455.225772 163.373045 
L 455.521919 163.965339 
L 455.521919 164.557632 
L 455.818066 164.557632 
L 455.818066 164.261485 
L 455.521919 163.965339 
L 455.521919 162.188457 
L 455.225772 159.523136 
L 455.521919 158.042401 
L 455.818066 156.857814 
L 456.114213 156.561667 
L 456.41036 157.746255 
L 456.706506 158.634695 
L 457.2988 160.115429 
L 457.2988 161.300017 
L 457.2988 161.596164 
L 457.2988 161.300017 
L 457.2988 161.00387 
L 457.2988 160.115429 
L 457.594947 158.634695 
L 458.187241 156.857814 
L 458.483388 156.26552 
L 459.075681 155.673227 
L 459.667975 155.969373 
L 459.964122 156.857814 
L 460.260269 158.338548 
L 460.260269 160.411576 
L 460.556416 161.596164 
L 460.556416 162.484604 
" style="fill:none;stroke:#8c8c8c;stroke-linecap:square;"/>
   </g>
   <g id="line2d_143">
    <path clip-path="url(#pca89b6a697)" d="M 463.814031 161.00387 
L 463.814031 160.707723 
L 464.110178 160.707723 
L 464.110178 160.411576 
L 463.814031 160.411576 
L 463.814031 160.707723 
L 463.517884 161.00387 
L 462.92559 162.188457 
L 462.629444 163.076898 
L 462.629444 163.373045 
L 463.221737 163.669192 
L 463.814031 163.373045 
L 464.406325 162.780751 
L 464.702472 161.596164 
L 464.998618 160.707723 
L 464.998618 160.115429 
L 464.998618 159.819283 
L 464.998618 160.115429 
L 465.294765 160.707723 
L 465.590912 161.596164 
L 465.887059 162.484604 
L 466.183206 163.669192 
L 466.479353 164.261485 
L 466.479353 164.557632 
L 466.7755 164.853779 
" style="fill:none;stroke:#8c8c8c;stroke-linecap:square;"/>
   </g>
   <g id="line2d_144">
    <path clip-path="url(#pca89b6a697)" d="M 488.986514 62.97926 
L 488.986514 62.683114 
L 488.690367 62.683114 
L 488.690367 62.97926 
L 488.690367 63.867701 
L 488.690367 65.052288 
L 488.986514 66.82917 
L 488.986514 68.309904 
L 489.282661 69.494491 
L 489.282661 70.086785 
" style="fill:none;stroke:#8c8c8c;stroke-linecap:square;"/>
   </g>
   <g id="line2d_145">
    <path clip-path="url(#pca89b6a697)" d="M 486.617339 63.275407 
L 486.321192 62.97926 
L 486.617339 62.683114 
L 486.617339 62.386967 
L 487.209633 61.794673 
L 487.801926 61.498526 
L 487.801926 61.202379 
L 488.098073 61.498526 
L 488.690367 61.794673 
L 488.986514 62.683114 
L 489.282661 63.275407 
L 489.578808 63.867701 
L 489.874954 63.867701 
" style="fill:none;stroke:#8c8c8c;stroke-linecap:square;"/>
   </g>
   <g id="line2d_146">
    <path clip-path="url(#pca89b6a697)" d="M 484.840458 75.713575 
L 484.840458 75.417428 
L 484.544311 75.417428 
L 484.544311 75.713575 
L 484.544311 76.602016 
L 484.544311 76.898163 
L 485.136605 77.490456 
L 485.432752 77.490456 
L 485.728898 77.19431 
L 486.025045 76.898163 
L 486.321192 76.898163 
L 486.321192 77.19431 
L 486.617339 77.19431 
L 486.913486 77.490456 
L 487.209633 77.786603 
L 487.801926 77.786603 
L 487.801926 77.490456 
L 488.098073 77.19431 
L 488.39422 76.305869 
L 488.39422 75.713575 
L 488.690367 75.121282 
" style="fill:none;stroke:#8c8c8c;stroke-linecap:square;"/>
   </g>
   <g id="line2d_147">
    <path clip-path="url(#pca89b6a697)" d="M 489.578808 76.305869 
L 489.874954 76.305869 
L 490.171101 76.602016 
L 490.171101 76.305869 
L 490.467248 76.305869 
L 491.059542 76.009722 
L 491.355689 75.417428 
L 491.355689 75.121282 
L 491.355689 74.825135 
L 490.763395 74.825135 
L 490.171101 75.417428 
L 489.282661 76.305869 
L 489.282661 76.898163 
L 489.578808 77.786603 
L 490.467248 78.378897 
L 491.355689 78.675044 
L 492.836423 78.378897 
L 493.428717 78.08275 
L 494.02101 77.490456 
L 494.317157 77.19431 
L 494.613304 76.898163 
L 494.317157 76.305869 
L 494.317157 76.009722 
L 494.02101 76.009722 
L 493.724864 76.009722 
L 492.836423 76.009722 
L 492.244129 76.305869 
L 491.947982 76.898163 
L 492.244129 77.19431 
L 492.836423 77.490456 
L 493.428717 77.19431 
L 494.02101 76.898163 
L 494.317157 76.305869 
L 494.909451 75.713575 
L 494.909451 76.305869 
L 494.909451 76.898163 
L 495.205598 77.490456 
L 495.205598 77.786603 
L 495.501745 78.08275 
L 495.797892 77.786603 
" style="fill:none;stroke:#8c8c8c;stroke-linecap:square;"/>
   </g>
   <g id="line2d_148">
    <path clip-path="url(#pca89b6a697)" d="M 496.982479 75.713575 
L 496.982479 75.121282 
L 496.982479 74.825135 
L 496.686332 74.825135 
L 496.686332 75.121282 
L 496.982479 75.121282 
L 496.982479 76.009722 
L 497.278626 77.19431 
L 497.87092 78.378897 
L 498.167066 79.267338 
" style="fill:none;stroke:#8c8c8c;stroke-linecap:square;"/>
   </g>
   <g id="line2d_149">
    <path clip-path="url(#pca89b6a697)" d="M 496.390185 76.898163 
L 496.390185 76.602016 
L 496.094038 76.602016 
L 496.390185 76.602016 
L 496.982479 76.602016 
L 497.87092 76.305869 
L 498.75936 76.009722 
L 499.351654 75.713575 
L 500.240094 75.121282 
" style="fill:none;stroke:#8c8c8c;stroke-linecap:square;"/>
   </g>
   <g id="line2d_150">
    <path clip-path="url(#pca89b6a697)" d="M 500.832388 73.3444 
L 500.832388 73.048254 
L 500.832388 72.45596 
L 500.536241 72.159813 
L 500.536241 71.863666 
L 500.536241 72.159813 
L 500.536241 72.45596 
L 500.536241 73.3444 
L 500.832388 74.528988 
L 500.832388 76.305869 
L 500.832388 77.19431 
L 501.128535 77.786603 
L 501.128535 77.490456 
L 501.128535 77.19431 
L 501.424682 76.898163 
L 501.720829 76.602016 
L 502.016976 76.602016 
L 502.313122 76.898163 
L 502.905416 77.490456 
L 503.201563 77.786603 
L 503.793857 78.08275 
L 504.090004 78.08275 
" style="fill:none;stroke:#8c8c8c;stroke-linecap:square;"/>
   </g>
   <g id="line2d_151">
    <path clip-path="url(#pca89b6a697)" d="M 505.570738 77.786603 
L 505.570738 77.490456 
L 505.866885 77.490456 
L 505.866885 77.19431 
L 506.163032 76.898163 
L 506.459178 76.305869 
L 506.755325 76.009722 
L 506.755325 75.713575 
L 506.459178 75.417428 
L 505.866885 75.417428 
L 505.274591 76.009722 
L 504.682297 76.898163 
L 504.38615 77.786603 
L 504.978444 78.675044 
L 505.570738 78.971191 
L 506.163032 79.267338 
L 506.755325 78.971191 
L 507.051472 78.378897 
L 507.347619 77.490456 
L 507.347619 77.19431 
L 507.347619 76.898163 
L 507.643766 76.602016 
L 507.643766 76.898163 
L 507.939913 76.898163 
L 508.23606 77.490456 
L 508.828353 78.675044 
L 509.1245 78.971191 
L 509.420647 79.267338 
L 509.420647 78.971191 
L 509.420647 78.378897 
L 509.420647 77.490456 
L 509.420647 76.898163 
L 509.420647 76.305869 
L 510.012941 76.305869 
L 511.197528 76.009722 
L 512.085969 76.305869 
" style="fill:none;stroke:#8c8c8c;stroke-linecap:square;"/>
   </g>
   <g id="line2d_152">
    <path clip-path="url(#pca89b6a697)" d="M 513.270556 76.602016 
L 513.270556 76.305869 
L 512.974409 76.305869 
L 512.678262 76.305869 
L 512.382116 76.305869 
L 512.382116 76.602016 
L 511.789822 76.898163 
L 511.197528 77.490456 
L 511.197528 78.08275 
L 511.493675 78.378897 
L 512.085969 78.675044 
L 512.678262 78.378897 
L 513.270556 77.786603 
L 513.566703 76.898163 
L 513.86285 76.009722 
L 513.86285 75.417428 
L 513.86285 75.713575 
L 514.158997 75.713575 
L 514.158997 76.305869 
L 514.158997 77.19431 
L 514.158997 77.786603 
L 514.455144 78.08275 
L 514.455144 78.378897 
L 514.75129 78.378897 
" style="fill:none;stroke:#8c8c8c;stroke-linecap:square;"/>
   </g>
   <g id="line2d_153">
    <path clip-path="url(#pca89b6a697)" d="M 515.343584 69.494491 
L 515.343584 69.790638 
L 515.343584 70.086785 
L 515.343584 70.382932 
L 515.343584 71.567519 
L 515.935878 73.936694 
L 516.232025 75.417428 
L 516.528172 77.19431 
L 516.824318 78.08275 
L 516.824318 78.378897 
L 516.824318 78.08275 
L 516.824318 77.786603 
L 516.824318 77.19431 
L 517.120465 76.602016 
L 517.416612 76.305869 
L 518.305053 76.009722 
L 518.6012 76.305869 
L 519.193493 76.305869 
L 519.193493 76.898163 
L 519.193493 77.19431 
L 518.897346 77.786603 
L 518.305053 78.08275 
L 517.712759 78.08275 
L 517.120465 77.786603 
L 516.824318 77.786603 
" style="fill:none;stroke:#8c8c8c;stroke-linecap:square;"/>
   </g>
   <g id="line2d_154">
    <path clip-path="url(#pca89b6a697)" d="M 519.785787 76.305869 
L 520.081934 76.305869 
L 520.081934 76.602016 
L 520.378081 76.602016 
L 520.378081 76.898163 
L 520.378081 77.19431 
L 520.674228 77.490456 
L 520.674228 77.786603 
L 520.970374 78.08275 
" style="fill:none;stroke:#8c8c8c;stroke-linecap:square;"/>
   </g>
   <g id="line2d_155">
    <path clip-path="url(#pca89b6a697)" d="M 521.266521 73.640547 
L 521.266521 73.3444 
L 521.266521 72.752107 
L 521.266521 72.45596 
L 520.970374 72.45596 
L 520.970374 72.159813 
L 520.970374 72.45596 
" style="fill:none;stroke:#8c8c8c;stroke-linecap:square;"/>
   </g>
   <g id="line2d_156">
    <path clip-path="url(#pca89b6a697)" d="M 521.858815 72.45596 
L 522.154962 72.45596 
L 522.154962 72.159813 
L 522.451109 72.159813 
L 522.747256 72.159813 
L 522.747256 72.45596 
L 522.747256 72.752107 
L 523.043402 73.048254 
L 523.339549 74.232841 
L 523.339549 75.417428 
L 523.635696 76.602016 
L 523.635696 77.19431 
L 523.931843 77.490456 
L 524.22799 77.490456 
L 524.524137 77.786603 
" style="fill:none;stroke:#8c8c8c;stroke-linecap:square;"/>
   </g>
   <g id="line2d_157">
    <path clip-path="url(#pca89b6a697)" d="M 526.301018 76.898163 
L 526.597165 76.602016 
L 526.597165 76.898163 
L 526.597165 77.19431 
L 526.893312 77.786603 
L 526.893312 78.378897 
L 527.189458 78.675044 
" style="fill:none;stroke:#8c8c8c;stroke-linecap:square;"/>
   </g>
   <g id="line2d_158">
    <path clip-path="url(#pca89b6a697)" d="M 527.189458 73.936694 
L 527.189458 73.3444 
L 526.893312 72.45596 
L 526.893312 72.159813 
L 527.189458 72.159813 
" style="fill:none;stroke:#8c8c8c;stroke-linecap:square;"/>
   </g>
   <g id="line2d_159">
    <path clip-path="url(#pca89b6a697)" d="M 528.077899 72.45596 
L 528.077899 72.752107 
L 528.374046 72.752107 
L 528.374046 73.048254 
L 528.670193 73.936694 
L 528.96634 75.121282 
L 528.96634 76.305869 
L 529.262486 77.19431 
L 529.558633 77.490456 
" style="fill:none;stroke:#8c8c8c;stroke-linecap:square;"/>
   </g>
   <g id="line2d_160">
    <path clip-path="url(#pca89b6a697)" d="M 528.374046 75.417428 
L 528.077899 75.417428 
L 528.077899 75.713575 
L 528.374046 75.713575 
L 528.670193 76.009722 
L 528.96634 76.009722 
L 529.558633 76.009722 
L 530.447074 75.713575 
L 531.039368 75.417428 
" style="fill:none;stroke:#8c8c8c;stroke-linecap:square;"/>
   </g>
   <g id="line2d_161">
    <path clip-path="url(#pca89b6a697)" d="M 532.223955 75.417428 
L 531.927808 75.417428 
L 531.927808 75.713575 
L 531.927808 76.009722 
L 532.223955 76.009722 
L 532.520102 76.602016 
L 532.816249 76.898163 
L 533.408542 76.898163 
L 533.704689 76.602016 
L 534.296983 76.009722 
L 534.59313 75.417428 
L 534.889277 75.121282 
L 534.889277 75.417428 
L 534.889277 75.713575 
L 534.889277 76.305869 
L 534.889277 77.786603 
L 534.59313 79.563484 
L 534.59313 81.340366 
L 534.296983 82.8211 
L 534.000836 83.413394 
" style="fill:none;stroke:#8c8c8c;stroke-linecap:square;"/>
   </g>
  </g>
 </g>
 <defs>
  <clipPath id="pca89b6a697">
   <rect height="204.252487" width="552.817337" x="7.2" y="7.2"/>
  </clipPath>
 </defs>
</svg>
