<?xml version="1.0" encoding="utf-8" standalone="no"?>
<!DOCTYPE svg PUBLIC "-//W3C//DTD SVG 1.1//EN"
  "http://www.w3.org/Graphics/SVG/1.1/DTD/svg11.dtd">
<!-- Created with matplotlib (https://matplotlib.org/) -->
<svg height="286.2pt" version="1.1" viewBox="0 0 428.571429 286.2" width="428.571429pt" xmlns="http://www.w3.org/2000/svg" xmlns:xlink="http://www.w3.org/1999/xlink">
 <metadata>
  <rdf:RDF xmlns:cc="http://creativecommons.org/ns#" xmlns:dc="http://purl.org/dc/elements/1.1/" xmlns:rdf="http://www.w3.org/1999/02/22-rdf-syntax-ns#">
   <cc:Work>
    <dc:type rdf:resource="http://purl.org/dc/dcmitype/StillImage"/>
    <dc:date>2024-11-15T16:04:16.084151</dc:date>
    <dc:format>image/svg+xml</dc:format>
    <dc:creator>
     <cc:Agent>
      <dc:title>Matplotlib v3.3.4, https://matplotlib.org/</dc:title>
     </cc:Agent>
    </dc:creator>
   </cc:Work>
  </rdf:RDF>
 </metadata>
 <defs>
  <style type="text/css">*{stroke-linecap:butt;stroke-linejoin:round;}</style>
 </defs>
 <g id="figure_1">
  <g id="patch_1">
   <path d="M 0 286.2 
L 428.571429 286.2 
L 428.571429 0 
L 0 0 
z
" style="fill:#ffffff;"/>
  </g>
  <g id="axes_1">
   <g id="line2d_1">
    <path clip-path="url(#pbc656f3f53)" d="M 201.342857 266.645455 
L 201.342857 265.468831 
L 200.166234 264.292208 
L 200.166234 263.115584 
L 200.166234 261.938961 
L 198.98961 260.762338 
L 198.98961 259.585714 
L 196.636364 256.055844 
L 195.45974 253.702597 
L 191.92987 247.819481 
L 187.223377 240.75974 
L 180.163636 234.876623 
L 173.103896 227.816883 
L 168.397403 221.933766 
L 161.337662 212.520779 
L 156.631169 206.637662 
L 153.101299 198.401299 
L 148.394805 192.518182 
L 144.864935 187.811688 
L 140.158442 185.458442 
L 136.628571 184.281818 
L 131.922078 183.105195 
L 128.392208 183.105195 
L 124.862338 183.105195 
L 121.332468 183.105195 
L 117.802597 183.105195 
L 113.096104 180.751948 
L 109.566234 178.398701 
L 104.85974 173.692208 
L 98.976623 167.809091 
L 94.27013 160.749351 
L 90.74026 156.042857 
L 87.21039 150.15974 
L 82.503896 145.453247 
L 78.974026 141.923377 
L 74.267532 139.57013 
L 70.737662 138.393506 
L 69.561039 137.216883 
" style="fill:none;stroke:#64b5cd;stroke-linecap:square;"/>
   </g>
   <g id="line2d_2">
    <path clip-path="url(#pbc656f3f53)" d="M 27.202597 65.442857 
L 26.025974 65.442857 
L 26.025974 66.619481 
L 26.025974 67.796104 
L 27.202597 70.149351 
L 27.202597 73.679221 
L 28.379221 80.738961 
L 30.732468 90.151948 
L 33.085714 97.211688 
L 35.438961 104.271429 
L 36.615584 107.801299 
L 37.792208 110.154545 
L 37.792208 111.331169 
L 37.792208 110.154545 
" style="fill:none;stroke:#64b5cd;stroke-linecap:square;"/>
   </g>
   <g id="line2d_3">
    <path clip-path="url(#pbc656f3f53)" d="M 30.732468 84.268831 
L 30.732468 83.092208 
L 31.909091 83.092208 
L 34.262338 81.915584 
L 36.615584 83.092208 
L 41.322078 84.268831 
L 44.851948 87.798701 
L 46.028571 92.505195 
L 47.205195 96.035065 
L 46.028571 101.918182 
L 43.675325 106.624675 
L 41.322078 108.977922 
L 40.145455 108.977922 
L 38.968831 108.977922 
L 36.615584 106.624675 
L 36.615584 104.271429 
" style="fill:none;stroke:#64b5cd;stroke-linecap:square;"/>
   </g>
   <g id="line2d_4">
    <path clip-path="url(#pbc656f3f53)" d="M 40.145455 65.442857 
L 41.322078 67.796104 
L 43.675325 70.149351 
L 46.028571 76.032468 
L 49.558442 83.092208 
L 53.088312 90.151948 
L 55.441558 93.681818 
L 58.971429 96.035065 
" style="fill:none;stroke:#64b5cd;stroke-linecap:square;"/>
   </g>
   <g id="line2d_5">
    <path clip-path="url(#pbc656f3f53)" d="M 58.971429 79.562338 
L 57.794805 79.562338 
L 57.794805 78.385714 
L 57.794805 79.562338 
L 58.971429 80.738961 
L 60.148052 81.915584 
L 62.501299 84.268831 
L 64.854545 85.445455 
L 67.207792 85.445455 
L 68.384416 84.268831 
L 68.384416 81.915584 
L 68.384416 78.385714 
L 67.207792 76.032468 
L 66.031169 74.855844 
" style="fill:none;stroke:#64b5cd;stroke-linecap:square;"/>
   </g>
   <g id="line2d_6">
    <path clip-path="url(#pbc656f3f53)" d="M 70.737662 73.679221 
L 71.914286 73.679221 
L 74.267532 73.679221 
L 76.620779 72.502597 
L 78.974026 70.149351 
L 80.150649 67.796104 
L 80.150649 66.619481 
L 78.974026 66.619481 
L 77.797403 66.619481 
L 75.444156 68.972727 
L 74.267532 71.325974 
L 75.444156 76.032468 
L 77.797403 79.562338 
L 81.327273 81.915584 
L 86.033766 83.092208 
L 89.563636 83.092208 
L 91.916883 81.915584 
" style="fill:none;stroke:#64b5cd;stroke-linecap:square;"/>
   </g>
   <g id="line2d_7">
    <path clip-path="url(#pbc656f3f53)" d="M 246.054545 238.406494 
L 246.054545 237.22987 
L 247.231169 236.053247 
L 247.231169 234.876623 
L 247.231169 232.523377 
L 248.407792 228.993506 
L 248.407792 225.463636 
L 249.584416 219.580519 
L 249.584416 212.520779 
L 250.761039 204.284416 
L 251.937662 197.224675 
L 254.290909 188.988312 
L 256.644156 181.928571 
L 258.997403 176.045455 
L 261.350649 172.515584 
L 262.527273 171.338961 
L 264.880519 170.162338 
L 266.057143 168.985714 
L 269.587013 167.809091 
L 273.116883 165.455844 
L 279 163.102597 
L 286.05974 158.396104 
L 289.58961 153.68961 
L 294.296104 145.453247 
L 297.825974 136.04026 
L 300.179221 127.803896 
L 303.709091 117.214286 
L 307.238961 106.624675 
L 309.592208 97.211688 
L 311.945455 86.622078 
L 314.298701 79.562338 
L 314.298701 76.032468 
L 315.475325 73.679221 
L 315.475325 72.502597 
L 315.475325 71.325974 
L 315.475325 70.149351 
" style="fill:none;stroke:#c44e52;stroke-linecap:square;"/>
   </g>
   <g id="line2d_8">
    <path clip-path="url(#pbc656f3f53)" d="M 327.241558 59.55974 
L 326.064935 59.55974 
L 326.064935 60.736364 
L 327.241558 61.912987 
L 329.594805 64.266234 
L 330.771429 66.619481 
L 330.771429 67.796104 
L 331.948052 67.796104 
L 330.771429 66.619481 
L 330.771429 63.08961 
L 329.594805 58.383117 
L 329.594805 54.853247 
L 330.771429 50.146753 
L 331.948052 45.44026 
L 334.301299 44.263636 
L 335.477922 44.263636 
" style="fill:none;stroke:#c44e52;stroke-linecap:square;"/>
   </g>
   <g id="line2d_9">
    <path clip-path="url(#pbc656f3f53)" d="M 342.537662 44.263636 
L 342.537662 45.44026 
L 343.714286 46.616883 
L 343.714286 45.44026 
L 344.890909 45.44026 
L 347.244156 44.263636 
L 348.420779 41.91039 
L 349.597403 40.733766 
L 349.597403 39.557143 
L 348.420779 39.557143 
L 347.244156 40.733766 
L 346.067532 43.087013 
L 346.067532 47.793506 
L 347.244156 51.323377 
L 348.420779 53.676623 
L 351.950649 54.853247 
L 354.303896 54.853247 
L 355.480519 53.676623 
" style="fill:none;stroke:#c44e52;stroke-linecap:square;"/>
   </g>
   <g id="line2d_10">
    <path clip-path="url(#pbc656f3f53)" d="M 368.423377 41.91039 
L 369.6 39.557143 
L 369.6 38.380519 
L 369.6 37.203896 
L 368.423377 36.027273 
L 367.246753 36.027273 
L 364.893506 36.027273 
L 362.54026 39.557143 
L 361.363636 43.087013 
L 362.54026 45.44026 
L 364.893506 47.793506 
L 367.246753 46.616883 
L 369.6 45.44026 
L 370.776623 39.557143 
L 369.6 33.674026 
L 368.423377 27.790909 
L 367.246753 24.261039 
L 367.246753 21.907792 
L 366.07013 21.907792 
L 367.246753 21.907792 
L 367.246753 23.084416 
L 368.423377 26.614286 
L 371.953247 34.850649 
L 375.483117 38.380519 
L 377.836364 41.91039 
L 380.18961 43.087013 
" style="fill:none;stroke:#c44e52;stroke-linecap:square;"/>
   </g>
   <g id="line2d_11">
    <path clip-path="url(#pbc656f3f53)" d="M 387.249351 23.084416 
L 387.249351 21.907792 
L 387.249351 20.731169 
L 387.249351 19.554545 
L 386.072727 19.554545 
L 384.896104 20.731169 
L 383.719481 20.731169 
L 382.542857 23.084416 
L 382.542857 24.261039 
L 383.719481 25.437662 
L 386.072727 26.614286 
L 390.779221 26.614286 
L 394.309091 28.967532 
L 397.838961 30.144156 
L 401.368831 33.674026 
L 402.545455 37.203896 
L 402.545455 39.557143 
L 400.192208 41.91039 
" style="fill:none;stroke:#c44e52;stroke-linecap:square;"/>
   </g>
  </g>
 </g>
 <defs>
  <clipPath id="pbc656f3f53">
   <rect height="271.8" width="414.171429" x="7.2" y="7.2"/>
  </clipPath>
 </defs>
</svg>
