<?xml version="1.0" encoding="utf-8" standalone="no"?>
<!DOCTYPE svg PUBLIC "-//W3C//DTD SVG 1.1//EN"
  "http://www.w3.org/Graphics/SVG/1.1/DTD/svg11.dtd">
<!-- Created with matplotlib (https://matplotlib.org/) -->
<svg height="286.2pt" version="1.1" viewBox="0 0 517.489081 286.2" width="517.489081pt" xmlns="http://www.w3.org/2000/svg" xmlns:xlink="http://www.w3.org/1999/xlink">
 <metadata>
  <rdf:RDF xmlns:cc="http://creativecommons.org/ns#" xmlns:dc="http://purl.org/dc/elements/1.1/" xmlns:rdf="http://www.w3.org/1999/02/22-rdf-syntax-ns#">
   <cc:Work>
    <dc:type rdf:resource="http://purl.org/dc/dcmitype/StillImage"/>
    <dc:date>2024-11-15T16:04:22.436077</dc:date>
    <dc:format>image/svg+xml</dc:format>
    <dc:creator>
     <cc:Agent>
      <dc:title>Matplotlib v3.3.4, https://matplotlib.org/</dc:title>
     </cc:Agent>
    </dc:creator>
   </cc:Work>
  </rdf:RDF>
 </metadata>
 <defs>
  <style type="text/css">*{stroke-linecap:butt;stroke-linejoin:round;}</style>
 </defs>
 <g id="figure_1">
  <g id="patch_1">
   <path d="M 0 286.2 
L 517.489081 286.2 
L 517.489081 0 
L 0 0 
z
" style="fill:#ffffff;"/>
  </g>
  <g id="axes_1">
   <g id="line2d_1">
    <path clip-path="url(#pce1d08f943)" d="M 261.313944 266.645455 
L 260.88571 266.645455 
L 260.88571 266.217221 
L 260.88571 265.788987 
L 260.88571 265.360753 
L 261.313944 265.360753 
L 262.170411 264.076052 
L 263.883346 261.934883 
L 267.737451 258.937246 
L 271.591555 255.511375 
L 275.017426 253.370206 
L 279.299764 250.37257 
L 284.010336 247.374933 
L 288.720908 244.80553 
L 296.000882 240.951426 
L 300.28322 238.810257 
L 304.993792 237.097322 
L 309.27613 236.240854 
L 312.702001 236.240854 
L 316.127871 236.240854 
L 318.697274 237.097322 
L 322.123145 237.953789 
L 325.120781 239.238491 
L 329.831353 241.37966 
L 333.257224 242.664361 
L 337.539562 243.949063 
L 342.250134 244.80553 
L 346.532472 245.233764 
L 353.384213 245.233764 
L 358.523019 243.949063 
L 365.37476 241.807893 
L 370.085332 240.094958 
L 374.36767 237.525555 
L 376.080605 235.81262 
L 376.508839 234.099685 
L 376.508839 233.671451 
" style="fill:none;stroke:#c44e52;stroke-linecap:square;"/>
   </g>
   <g id="line2d_2">
    <path clip-path="url(#pce1d08f943)" d="M 391.925256 210.546825 
L 391.925256 210.975059 
L 391.925256 211.403293 
L 391.925256 211.831527 
L 391.497022 213.116228 
L 391.497022 214.40093 
L 391.925256 217.398566 
L 391.925256 220.396203 
L 391.925256 224.250307 
L 392.35349 226.81971 
L 392.781724 228.104412 
L 393.209957 228.104412 
" style="fill:none;stroke:#c44e52;stroke-linecap:square;"/>
   </g>
   <g id="line2d_3">
    <path clip-path="url(#pce1d08f943)" d="M 398.776997 220.824437 
L 398.776997 221.680904 
L 398.776997 224.250307 
L 399.205231 225.106775 
L 399.205231 225.963242 
" style="fill:none;stroke:#c44e52;stroke-linecap:square;"/>
   </g>
   <g id="line2d_4">
    <path clip-path="url(#pce1d08f943)" d="M 401.774634 216.113865 
L 401.774634 216.970332 
L 402.202867 217.8268 
L 402.202867 218.255034 
L 402.202867 219.539735 
L 402.631101 221.252671 
L 402.631101 222.537372 
L 402.631101 223.822073 
L 403.059335 224.250307 
L 403.059335 224.678541 
L 403.487569 224.250307 
L 403.487569 222.965606 
L 404.344037 220.824437 
L 405.200504 219.111501 
L 406.056972 217.8268 
L 406.485206 217.8268 
L 407.341673 217.8268 
L 407.769907 219.539735 
L 408.198141 221.252671 
L 408.626375 222.965606 
L 409.054608 223.39384 
L 409.482842 223.822073 
" style="fill:none;stroke:#c44e52;stroke-linecap:square;"/>
   </g>
   <g id="line2d_5">
    <path clip-path="url(#pce1d08f943)" d="M 410.767544 222.537372 
L 411.195778 222.109138 
L 411.195778 221.252671 
L 412.052245 220.396203 
L 412.908713 219.111501 
L 414.193414 217.8268 
L 414.621648 216.542099 
L 414.621648 215.685631 
L 414.621648 215.257397 
L 413.76518 215.257397 
L 412.908713 216.113865 
L 411.624011 217.8268 
L 411.624011 219.967969 
L 412.480479 222.109138 
L 413.76518 223.822073 
L 415.478116 224.678541 
L 416.762817 224.678541 
L 418.047519 224.250307 
" style="fill:none;stroke:#c44e52;stroke-linecap:square;"/>
   </g>
   <g id="line2d_6">
    <path clip-path="url(#pce1d08f943)" d="M 441.172144 219.111501 
L 441.172144 219.539735 
L 441.172144 219.967969 
L 441.172144 220.396203 
L 441.172144 221.252671 
L 441.600378 223.39384 
L 441.600378 224.678541 
L 442.028612 225.963242 
L 442.028612 226.391476 
" style="fill:none;stroke:#c44e52;stroke-linecap:square;"/>
   </g>
   <g id="line2d_7">
    <path clip-path="url(#pce1d08f943)" d="M 443.313313 212.687994 
L 442.88508 211.831527 
L 442.456846 211.831527 
" style="fill:none;stroke:#c44e52;stroke-linecap:square;"/>
   </g>
   <g id="line2d_8">
    <path clip-path="url(#pce1d08f943)" d="M 448.023885 214.829163 
L 447.595651 215.257397 
L 447.167418 216.113865 
L 446.31095 216.970332 
L 445.454482 217.8268 
L 445.454482 218.683268 
L 445.454482 219.111501 
L 446.739184 219.539735 
L 448.452119 220.396203 
L 450.165054 220.824437 
L 451.021522 221.680904 
L 451.87799 222.537372 
L 451.87799 223.822073 
L 451.449756 225.106775 
L 449.736821 226.81971 
L 448.452119 227.676178 
" style="fill:none;stroke:#c44e52;stroke-linecap:square;"/>
   </g>
   <g id="line2d_9">
    <path clip-path="url(#pce1d08f943)" d="M 403.915803 246.090232 
L 403.487569 246.090232 
L 403.059335 246.090232 
L 402.631101 246.090232 
L 402.202867 246.090232 
L 400.918166 246.518465 
L 399.633465 247.803167 
L 398.776997 248.659634 
L 398.776997 249.516102 
L 399.205231 249.944336 
L 399.633465 250.37257 
L 400.489932 250.800804 
L 401.774634 252.085505 
L 403.059335 253.370206 
L 403.915803 254.654908 
L 403.915803 255.939609 
L 403.487569 257.224311 
L 402.202867 257.652545 
L 400.918166 257.224311 
L 400.061698 255.939609 
L 400.061698 254.654908 
L 400.061698 254.226674 
" style="fill:none;stroke:#c44e52;stroke-linecap:square;"/>
   </g>
   <g id="line2d_10">
    <path clip-path="url(#pce1d08f943)" d="M 407.341673 251.657271 
L 407.341673 252.085505 
L 407.769907 252.085505 
L 408.198141 252.513739 
L 409.054608 253.79844 
L 410.33931 254.226674 
L 411.624011 254.654908 
L 412.480479 254.226674 
L 412.908713 253.370206 
L 412.480479 251.657271 
L 411.624011 249.516102 
L 411.624011 248.659634 
" style="fill:none;stroke:#c44e52;stroke-linecap:square;"/>
   </g>
   <g id="line2d_11">
    <path clip-path="url(#pce1d08f943)" d="M 414.621648 243.520829 
L 414.621648 243.949063 
L 415.478116 245.233764 
L 415.906349 247.374933 
L 416.334583 249.516102 
L 416.762817 250.37257 
L 416.762817 251.229037 
L 416.762817 251.657271 
L 416.762817 251.229037 
L 416.762817 250.800804 
L 416.762817 250.37257 
L 416.762817 249.516102 
L 417.191051 248.659634 
L 418.047519 248.231401 
L 418.903986 248.231401 
L 420.188688 249.087868 
L 421.045155 250.37257 
L 421.045155 251.657271 
L 420.616921 252.513739 
L 419.760454 253.370206 
L 418.903986 253.370206 
L 418.475752 252.941973 
" style="fill:none;stroke:#c44e52;stroke-linecap:square;"/>
   </g>
   <g id="line2d_12">
    <path clip-path="url(#pce1d08f943)" d="M 426.183961 249.516102 
L 425.755727 249.516102 
L 425.755727 249.944336 
L 424.899259 249.944336 
L 424.042792 250.800804 
L 423.186324 251.657271 
L 423.186324 252.513739 
L 423.186324 252.941973 
L 424.042792 253.370206 
L 425.327493 252.941973 
L 426.183961 251.657271 
L 426.612195 250.37257 
L 426.612195 247.374933 
L 426.612195 244.80553 
L 426.183961 242.664361 
L 426.183961 241.37966 
L 425.755727 240.951426 
L 425.755727 241.37966 
L 425.755727 241.807893 
L 426.183961 243.949063 
L 426.612195 246.090232 
L 427.040429 248.659634 
L 427.896896 250.800804 
L 428.32513 252.085505 
L 428.753364 252.085505 
L 429.181598 252.085505 
" style="fill:none;stroke:#c44e52;stroke-linecap:square;"/>
   </g>
   <g id="line2d_13">
    <path clip-path="url(#pce1d08f943)" d="M 430.894533 248.659634 
L 430.894533 249.087868 
L 431.322767 249.516102 
L 431.751 250.37257 
L 433.035702 251.229037 
L 433.463936 251.657271 
L 434.320403 251.657271 
L 434.748637 250.800804 
L 434.320403 248.659634 
L 434.320403 246.946699 
L 433.463936 245.661998 
L 433.463936 245.233764 
" style="fill:none;stroke:#c44e52;stroke-linecap:square;"/>
   </g>
   <g id="line2d_14">
    <path clip-path="url(#pce1d08f943)" d="M 439.030975 246.946699 
L 439.459209 246.946699 
L 439.459209 246.518465 
L 439.030975 246.518465 
L 439.030975 246.090232 
L 438.174508 246.518465 
L 437.746274 246.946699 
L 436.461572 247.803167 
L 436.033339 249.516102 
L 436.033339 250.37257 
L 436.461572 251.229037 
L 438.174508 251.657271 
L 439.459209 251.657271 
L 441.172144 250.800804 
L 441.600378 250.800804 
" style="fill:none;stroke:#c44e52;stroke-linecap:square;"/>
   </g>
   <g id="line2d_15">
    <path clip-path="url(#pce1d08f943)" d="M 443.313313 246.090232 
L 443.313313 245.661998 
L 443.741547 244.80553 
L 443.741547 244.377296 
L 443.741547 244.80553 
L 443.741547 245.661998 
L 444.598015 247.803167 
L 445.454482 249.944336 
L 446.31095 252.513739 
L 447.167418 253.370206 
L 447.595651 253.79844 
L 447.595651 253.370206 
" style="fill:none;stroke:#c44e52;stroke-linecap:square;"/>
   </g>
   <g id="line2d_16">
    <path clip-path="url(#pce1d08f943)" d="M 442.456846 249.516102 
L 442.456846 249.087868 
L 443.313313 249.087868 
L 444.598015 248.659634 
L 445.882716 248.231401 
L 447.167418 247.803167 
L 448.452119 247.374933 
" style="fill:none;stroke:#c44e52;stroke-linecap:square;"/>
   </g>
   <g id="line2d_17">
    <path clip-path="url(#pce1d08f943)" d="M 450.593288 247.374933 
L 451.021522 247.374933 
L 451.021522 247.803167 
L 451.449756 248.659634 
L 451.87799 249.516102 
L 452.306223 250.37257 
L 452.734457 251.229037 
" style="fill:none;stroke:#c44e52;stroke-linecap:square;"/>
   </g>
   <g id="line2d_18">
    <path clip-path="url(#pce1d08f943)" d="M 452.306223 244.377296 
L 451.449756 243.520829 
L 451.87799 243.092595 
" style="fill:none;stroke:#c44e52;stroke-linecap:square;"/>
   </g>
   <g id="line2d_19">
    <path clip-path="url(#pce1d08f943)" d="M 456.588562 244.80553 
L 456.588562 245.233764 
L 456.160328 245.233764 
L 456.160328 245.661998 
L 455.732094 247.374933 
L 455.732094 248.659634 
L 456.588562 249.944336 
L 457.445029 250.37257 
L 458.301497 250.800804 
L 459.157964 250.37257 
L 459.586198 249.516102 
L 459.586198 247.803167 
L 458.729731 246.090232 
L 458.301497 245.661998 
L 457.873263 245.661998 
L 457.016795 245.661998 
L 457.016795 246.518465 
L 457.445029 246.518465 
" style="fill:none;stroke:#c44e52;stroke-linecap:square;"/>
   </g>
   <g id="line2d_20">
    <path clip-path="url(#pce1d08f943)" d="M 463.012069 245.661998 
L 463.012069 245.233764 
L 463.440303 245.233764 
L 463.440303 245.661998 
L 463.868536 246.946699 
L 463.868536 248.231401 
L 464.29677 248.659634 
L 464.29677 249.087868 
L 464.29677 248.659634 
L 464.725004 247.803167 
L 465.153238 245.661998 
L 466.009705 243.949063 
L 466.437939 243.520829 
L 467.722641 243.949063 
L 468.579108 245.233764 
L 469.86381 246.518465 
L 470.292043 247.374933 
L 470.292043 247.803167 
" style="fill:none;stroke:#c44e52;stroke-linecap:square;"/>
   </g>
   <g id="line2d_21">
    <path clip-path="url(#pce1d08f943)" d="M 63.898157 108.627178 
L 63.469923 108.627178 
L 63.469923 108.198944 
L 63.041689 108.198944 
L 62.613455 108.198944 
L 62.185221 108.198944 
L 61.756988 108.198944 
L 61.328754 108.198944 
L 60.90052 108.198944 
L 60.472286 108.198944 
L 60.044052 108.198944 
L 59.187585 108.198944 
L 57.902883 108.198944 
L 56.189948 108.627178 
L 54.905247 108.627178 
L 52.335844 109.483646 
L 50.622908 109.91188 
L 48.053506 110.768347 
L 45.484103 111.624815 
L 42.9147 112.909516 
L 40.773531 113.765984 
L 38.632362 115.050685 
L 37.34766 115.907153 
L 36.491193 116.335387 
L 35.206491 117.191854 
L 34.778257 118.048322 
L 33.493556 118.90479 
L 32.637088 119.761257 
L 31.352387 121.474193 
L 30.495919 122.758894 
L 30.067686 124.043595 
L 30.067686 125.328297 
L 30.495919 126.184764 
L 31.352387 127.469466 
L 33.065322 128.325934 
L 35.634725 129.182401 
L 38.632362 130.038869 
L 41.201765 130.467103 
L 44.627635 131.32357 
L 47.197038 131.32357 
L 49.766441 131.751804 
L 51.90761 131.751804 
L 55.33348 130.895336 
L 57.474649 130.467103 
L 60.044052 129.610635 
L 62.613455 128.325934 
L 64.32639 127.041232 
L 66.895793 125.328297 
L 68.180495 124.471829 
L 69.465196 123.187128 
L 70.749898 121.902426 
L 71.606365 121.045959 
L 72.462833 119.761257 
L 72.891067 118.476556 
L 73.3193 116.763621 
L 73.3193 115.050685 
L 72.891067 112.481282 
L 72.034599 110.768347 
L 70.321664 108.627178 
L 67.324027 107.770711 
L 64.32639 106.914243 
L 60.472286 106.914243 
L 57.474649 107.342477 
L 55.761714 108.198944 
L 54.905247 108.627178 
" style="fill:none;stroke:#c44e52;stroke-linecap:square;"/>
   </g>
   <g id="line2d_22">
    <path clip-path="url(#pce1d08f943)" d="M 60.472286 94.923696 
L 60.472286 95.35193 
L 59.615818 96.208398 
L 59.615818 96.636631 
L 59.187585 96.636631 
L 59.615818 96.208398 
L 59.615818 95.780164 
L 60.044052 94.923696 
L 61.756988 92.782527 
L 63.041689 90.641358 
L 66.039326 85.930786 
L 69.89343 79.935513 
L 72.891067 75.224941 
L 75.032236 71.79907 
L 75.46047 70.086135 
L 75.888703 69.229668 
L 76.316937 68.801434 
L 76.316937 68.3732 
" style="fill:none;stroke:#c44e52;stroke-linecap:square;"/>
   </g>
   <g id="line2d_23">
    <path clip-path="url(#pce1d08f943)" d="M 78.458106 60.236758 
L 78.458106 59.808524 
L 78.458106 59.38029 
L 78.458106 58.952056 
L 78.458106 59.38029 
L 78.88634 59.808524 
L 79.742808 61.521459 
L 80.599275 62.80616 
L 81.027509 63.662628 
L 81.455743 63.662628 
L 81.883977 63.662628 
L 82.31221 63.234394 
L 82.740444 62.377927 
L 83.168678 62.377927 
L 83.596912 62.377927 
L 84.025146 61.949693 
L 85.309847 61.949693 
L 85.738081 61.093225 
L 85.738081 60.236758 
L 85.738081 58.952056 
L 85.738081 57.667355 
L 85.309847 56.810887 
L 85.309847 56.382653 
" style="fill:none;stroke:#c44e52;stroke-linecap:square;"/>
   </g>
   <g id="line2d_24">
    <path clip-path="url(#pce1d08f943)" d="M 90.020419 56.382653 
L 89.592185 56.382653 
L 89.592185 56.810887 
L 89.163951 57.239121 
L 89.163951 58.523822 
L 89.163951 59.38029 
L 89.592185 59.38029 
L 90.020419 58.952056 
L 90.448653 57.667355 
L 90.448653 56.810887 
L 90.448653 55.097952 
L 90.020419 54.669718 
L 90.448653 54.669718 
L 90.448653 55.954419 
L 91.305121 57.239121 
L 92.161588 58.952056 
L 93.018056 60.236758 
L 93.874523 60.664991 
L 94.302757 60.236758 
" style="fill:none;stroke:#c44e52;stroke-linecap:square;"/>
   </g>
   <g id="line2d_25">
    <path clip-path="url(#pce1d08f943)" d="M 94.730991 56.810887 
L 94.730991 55.954419 
L 94.302757 55.526186 
L 94.730991 55.526186 
L 94.730991 55.954419 
L 95.159225 55.954419 
L 96.015692 57.239121 
L 96.443926 58.523822 
L 96.443926 58.952056 
L 96.87216 59.38029 
L 96.87216 58.952056 
L 96.443926 58.095588 
L 96.443926 56.382653 
L 96.443926 55.097952 
L 96.87216 54.241484 
L 97.300394 53.385017 
" style="fill:none;stroke:#c44e52;stroke-linecap:square;"/>
   </g>
   <g id="line2d_26">
    <path clip-path="url(#pce1d08f943)" d="M 100.298031 53.385017 
L 100.298031 53.81325 
L 100.726264 54.241484 
L 100.726264 54.669718 
L 100.726264 55.097952 
L 101.154498 55.526186 
L 101.154498 55.954419 
L 101.582732 55.954419 
L 101.582732 56.382653 
L 102.010966 55.954419 
L 102.010966 55.097952 
L 102.4392 54.241484 
L 102.867433 53.385017 
L 103.295667 53.81325 
L 103.723901 54.241484 
L 104.152135 54.241484 
L 104.580369 54.669718 
L 104.580369 54.241484 
L 105.008602 53.81325 
L 105.436836 52.956783 
L 105.86507 51.672081 
L 106.293304 51.243847 
L 106.721538 51.243847 
L 107.149772 50.815614 
L 107.578005 51.243847 
L 108.862707 51.672081 
L 109.290941 52.528549 
L 109.719174 53.81325 
L 110.147408 55.097952 
L 110.575642 55.526186 
L 110.575642 55.954419 
" style="fill:none;stroke:#c44e52;stroke-linecap:square;"/>
   </g>
   <g id="line2d_27">
    <path clip-path="url(#pce1d08f943)" d="M 209.069419 98.777801 
L 208.641185 98.349567 
L 208.212951 97.921333 
L 207.784717 97.921333 
L 207.356483 97.493099 
L 206.500016 97.493099 
L 205.215314 97.921333 
L 203.930613 98.777801 
L 202.645911 99.634268 
L 200.504742 101.775437 
L 199.648275 103.488372 
L 198.791807 106.057775 
L 197.93534 108.627178 
L 197.93534 110.340113 
L 198.791807 113.33775 
L 199.220041 116.335387 
L 200.504742 118.476556 
L 201.789444 120.189491 
L 203.502379 122.33066 
L 204.787081 123.187128 
L 206.071782 124.043595 
L 207.784717 124.471829 
L 209.497652 124.471829 
L 211.638821 124.043595 
L 213.779991 124.043595 
L 215.492926 123.615362 
L 216.777627 122.758894 
L 218.062329 121.902426 
L 219.34703 120.617725 
L 220.631732 118.90479 
L 221.488199 116.335387 
L 222.344667 114.194218 
L 222.344667 111.624815 
L 222.344667 108.627178 
L 221.488199 106.486009 
L 219.775264 102.631905 
L 218.062329 100.490736 
L 215.492926 98.349567 
L 213.351757 97.064865 
L 211.210588 96.636631 
L 209.497652 96.208398 
L 208.212951 96.208398 
L 206.92825 96.636631 
L 206.500016 96.636631 
L 206.071782 96.636631 
" style="fill:none;stroke:#c44e52;stroke-linecap:square;"/>
   </g>
   <g id="line2d_28">
    <path clip-path="url(#pce1d08f943)" d="M 214.208224 75.224941 
L 214.208224 75.653175 
L 214.208224 75.224941 
L 215.064692 74.796707 
L 216.777627 73.083772 
L 219.775264 70.086135 
L 222.772901 66.660265 
L 226.198771 62.80616 
L 228.33994 59.808524 
L 229.196408 58.523822 
L 229.624642 57.667355 
" style="fill:none;stroke:#c44e52;stroke-linecap:square;"/>
   </g>
   <g id="line2d_29">
    <path clip-path="url(#pce1d08f943)" d="M 235.619915 52.100315 
L 235.191681 52.100315 
L 235.619915 52.956783 
L 236.476383 55.097952 
L 237.33285 56.382653 
L 238.189318 56.810887 
L 238.617552 57.239121 
L 239.045785 56.810887 
L 239.045785 56.382653 
L 239.474019 55.954419 
L 239.902253 55.526186 
L 240.330487 55.526186 
L 241.615188 55.526186 
L 242.89989 55.954419 
L 243.756357 55.954419 
L 244.184591 55.097952 
L 244.184591 54.241484 
L 243.756357 52.528549 
L 243.328124 50.38738 
L 242.89989 49.530912 
L 242.89989 49.102678 
L 243.328124 49.102678 
" style="fill:none;stroke:#c44e52;stroke-linecap:square;"/>
   </g>
   <g id="line2d_30">
    <path clip-path="url(#pce1d08f943)" d="M 248.466929 49.530912 
L 248.895163 49.102678 
L 248.466929 48.674445 
L 248.038695 49.102678 
L 247.610462 49.959146 
L 247.610462 51.243847 
L 248.038695 51.672081 
L 248.895163 52.100315 
L 249.323397 51.672081 
L 249.751631 50.815614 
L 249.751631 49.530912 
L 249.323397 47.817977 
L 249.323397 46.961509 
L 249.323397 47.389743 
L 249.323397 48.246211 
L 250.179865 49.530912 
L 251.036332 51.672081 
L 251.8928 52.528549 
L 252.321034 52.956783 
L 253.177501 52.528549 
" style="fill:none;stroke:#c44e52;stroke-linecap:square;"/>
   </g>
   <g id="line2d_31">
    <path clip-path="url(#pce1d08f943)" d="M 252.749267 48.674445 
L 253.605735 49.102678 
L 254.033969 49.530912 
L 254.890436 50.815614 
L 254.890436 51.243847 
L 255.31867 51.672081 
L 254.890436 51.672081 
L 254.890436 51.243847 
L 254.462203 50.38738 
L 254.462203 48.674445 
L 254.890436 47.389743 
L 255.31867 46.105042 
L 255.746904 45.676808 
" style="fill:none;stroke:#c44e52;stroke-linecap:square;"/>
   </g>
   <g id="line2d_32">
    <path clip-path="url(#pce1d08f943)" d="M 257.888073 45.248574 
L 257.888073 45.676808 
L 257.888073 46.105042 
L 257.888073 46.533276 
L 258.316307 46.961509 
L 258.316307 47.817977 
L 258.744541 48.674445 
L 258.744541 49.102678 
L 259.172775 49.530912 
L 259.172775 48.674445 
L 259.172775 47.389743 
L 259.172775 46.533276 
L 259.172775 46.105042 
L 259.601008 46.105042 
L 260.457476 46.533276 
L 260.457476 47.389743 
L 260.88571 47.389743 
L 261.313944 47.817977 
L 261.742177 47.389743 
L 261.742177 46.961509 
L 262.598645 45.248574 
L 263.026879 44.392107 
L 263.455113 43.535639 
L 263.883346 43.107405 
L 264.31158 43.107405 
L 265.168048 43.535639 
L 266.452749 44.392107 
L 266.880983 45.248574 
L 267.737451 46.105042 
L 267.737451 46.533276 
L 268.165685 46.533276 
L 268.593918 46.533276 
" style="fill:none;stroke:#c44e52;stroke-linecap:square;"/>
   </g>
   <g id="line2d_33">
    <path clip-path="url(#pce1d08f943)" d="M 86.594549 144.170585 
L 86.166315 143.742351 
L 85.738081 143.314117 
L 85.309847 142.885883 
L 84.881613 142.885883 
L 84.025146 142.457649 
L 82.740444 142.029415 
L 81.883977 141.601182 
L 80.599275 141.601182 
L 78.88634 141.601182 
L 77.173405 141.601182 
L 75.46047 142.029415 
L 72.891067 142.457649 
L 70.321664 142.885883 
L 68.180495 143.742351 
L 66.467559 144.598818 
L 65.182858 145.455286 
L 63.898157 147.168221 
L 63.469923 148.452923 
L 63.469923 151.450559 
L 63.898157 154.87643 
L 65.182858 157.445833 
L 67.324027 160.443469 
L 69.465196 163.012872 
L 72.034599 164.725807 
L 74.604002 165.154041 
L 79.314574 165.154041 
L 82.31221 164.725807 
L 85.738081 163.86934 
L 88.307484 162.584638 
L 90.876887 160.443469 
L 93.018056 158.730534 
L 94.302757 156.589365 
L 95.159225 154.87643 
L 95.587459 153.163495 
L 95.587459 151.450559 
L 94.730991 149.30939 
L 93.018056 146.739987 
L 90.448653 144.598818 
L 87.451016 143.742351 
L 84.025146 143.314117 
L 81.027509 144.170585 
L 79.742808 145.027052 
L 79.314574 145.027052 
" style="fill:none;stroke:#64b5cd;stroke-linecap:square;"/>
   </g>
   <g id="line2d_34">
    <path clip-path="url(#pce1d08f943)" d="M 93.874523 161.299937 
L 93.874523 160.871703 
L 94.730991 160.443469 
L 96.015692 160.443469 
L 98.585095 160.443469 
L 102.010966 161.299937 
L 105.436836 161.728171 
L 108.006239 162.584638 
L 109.290941 163.012872 
L 110.147408 163.012872 
L 110.575642 163.012872 
" style="fill:none;stroke:#64b5cd;stroke-linecap:square;"/>
   </g>
   <g id="line2d_35">
    <path clip-path="url(#pce1d08f943)" d="M 125.563825 163.441106 
L 125.135592 163.441106 
L 124.707358 163.012872 
L 124.279124 162.584638 
L 123.85089 162.584638 
L 122.994423 162.156405 
L 122.137955 162.584638 
L 120.853254 163.012872 
L 120.42502 164.725807 
L 119.996786 167.29521 
L 120.42502 169.008146 
L 122.137955 170.292847 
L 124.279124 170.292847 
L 125.135592 170.292847 
" style="fill:none;stroke:#64b5cd;stroke-linecap:square;"/>
   </g>
   <g id="line2d_36">
    <path clip-path="url(#pce1d08f943)" d="M 128.989696 166.010509 
L 128.561462 165.582275 
L 128.133228 165.582275 
L 127.276761 165.582275 
L 126.848527 166.438743 
L 126.420293 167.29521 
L 127.276761 168.579912 
L 128.133228 169.436379 
L 128.989696 169.864613 
L 129.846164 169.436379 
L 130.702631 168.579912 
L 130.702631 167.29521 
L 130.274397 166.010509 
L 129.41793 165.582275 
L 128.133228 165.582275 
L 127.704994 166.010509 
L 127.704994 166.438743 
L 128.133228 166.438743 
" style="fill:none;stroke:#64b5cd;stroke-linecap:square;"/>
   </g>
   <g id="line2d_37">
    <path clip-path="url(#pce1d08f943)" d="M 132.8438 160.871703 
L 132.8438 160.443469 
L 132.8438 160.015236 
L 132.8438 160.443469 
L 133.272034 160.443469 
L 133.272034 161.299937 
L 133.700268 163.012872 
L 134.128502 165.154041 
L 134.556735 166.866977 
L 134.556735 168.151678 
L 134.984969 169.008146 
L 135.413203 169.008146 
" style="fill:none;stroke:#64b5cd;stroke-linecap:square;"/>
   </g>
   <g id="line2d_38">
    <path clip-path="url(#pce1d08f943)" d="M 139.267307 166.010509 
L 139.695541 166.010509 
L 139.695541 165.582275 
L 139.267307 165.582275 
L 138.839074 165.582275 
L 137.554372 166.010509 
L 136.269671 167.29521 
L 135.413203 168.579912 
L 135.841437 169.864613 
L 136.697905 170.721081 
L 137.554372 170.721081 
L 138.839074 170.292847 
L 140.123775 169.436379 
L 140.980243 167.723444 
L 140.980243 165.582275 
L 140.552009 162.156405 
L 140.123775 160.443469 
L 139.695541 159.158768 
L 139.695541 160.015236 
L 140.123775 162.156405 
L 140.980243 165.582275 
L 141.83671 167.723444 
L 142.693178 170.292847 
L 143.121412 171.149315 
L 143.121412 171.577548 
" style="fill:none;stroke:#64b5cd;stroke-linecap:square;"/>
   </g>
   <g id="line2d_39">
    <path clip-path="url(#pce1d08f943)" d="M 337.967796 34.542729 
L 337.967796 34.970963 
L 338.39603 35.82743 
L 338.824263 37.540366 
L 339.252497 39.253301 
L 339.252497 40.538002 
L 339.252497 40.966236 
L 339.252497 40.538002 
L 338.824263 40.109768 
L 337.967796 37.968599 
L 337.539562 35.399196 
L 337.111328 33.686261 
L 337.111328 31.973326 
L 337.539562 31.545092 
L 338.39603 31.545092 
L 339.252497 31.973326 
L 340.537199 33.258027 
L 341.8219 35.399196 
L 342.678368 37.540366 
L 343.534835 39.253301 
L 343.534835 40.538002 
L 343.963069 40.966236 
" style="fill:none;stroke:#8c8c8c;stroke-linecap:square;"/>
   </g>
   <g id="line2d_40">
    <path clip-path="url(#pce1d08f943)" d="M 346.104238 34.114495 
L 345.676004 34.114495 
L 345.247771 34.542729 
L 345.247771 34.970963 
L 345.247771 35.82743 
L 345.676004 37.540366 
L 346.104238 38.825067 
L 347.38894 40.109768 
L 348.245407 40.538002 
L 349.101875 39.681535 
L 349.530109 37.968599 
L 349.101875 36.683898 
L 347.817173 34.970963 
L 346.960706 34.542729 
L 346.104238 34.542729 
L 345.247771 34.542729 
" style="fill:none;stroke:#8c8c8c;stroke-linecap:square;"/>
   </g>
   <g id="line2d_41">
    <path clip-path="url(#pce1d08f943)" d="M 352.099512 30.260391 
L 352.099512 29.832157 
L 352.527745 29.832157 
L 352.527745 30.260391 
L 352.955979 31.545092 
L 353.384213 33.258027 
L 354.240681 35.82743 
L 355.097148 37.968599 
L 355.525382 39.253301 
" style="fill:none;stroke:#8c8c8c;stroke-linecap:square;"/>
   </g>
   <g id="line2d_42">
    <path clip-path="url(#pce1d08f943)" d="M 350.386576 33.258027 
L 349.530109 33.686261 
L 349.958343 34.114495 
L 351.243044 34.542729 
L 353.384213 34.970963 
L 355.953616 34.970963 
L 357.666551 34.970963 
L 358.094785 34.542729 
" style="fill:none;stroke:#8c8c8c;stroke-linecap:square;"/>
   </g>
   <g id="line2d_43">
    <path clip-path="url(#pce1d08f943)" d="M 380.362943 35.399196 
L 380.362943 34.970963 
L 380.362943 34.542729 
L 379.934709 34.542729 
L 379.506476 34.542729 
L 379.506476 34.970963 
L 378.650008 36.255664 
L 378.221774 37.968599 
L 378.650008 39.681535 
L 379.934709 40.538002 
L 380.791177 40.538002 
" style="fill:none;stroke:#8c8c8c;stroke-linecap:square;"/>
   </g>
   <g id="line2d_44">
    <path clip-path="url(#pce1d08f943)" d="M 385.929983 35.82743 
L 385.501749 35.399196 
L 385.073515 35.399196 
L 384.645281 35.399196 
L 384.217047 35.82743 
L 384.217047 37.540366 
L 384.217047 38.396833 
L 385.073515 39.681535 
L 386.358216 39.681535 
L 387.214684 39.681535 
L 387.642918 38.396833 
L 387.642918 36.683898 
L 386.78645 35.399196 
L 385.929983 34.970963 
L 385.073515 35.399196 
L 384.217047 36.683898 
L 384.217047 37.540366 
L 384.645281 37.968599 
" style="fill:none;stroke:#8c8c8c;stroke-linecap:square;"/>
   </g>
   <g id="line2d_45">
    <path clip-path="url(#pce1d08f943)" d="M 390.212321 34.970963 
L 390.640555 34.970963 
L 390.640555 35.399196 
L 390.640555 36.255664 
L 391.497022 37.540366 
L 391.497022 38.825067 
L 391.925256 39.253301 
L 391.925256 39.681535 
L 391.925256 39.253301 
L 391.925256 37.968599 
L 392.35349 37.112132 
L 392.781724 35.82743 
L 393.209957 35.399196 
L 393.638191 35.399196 
L 394.494659 36.255664 
L 394.922893 37.968599 
L 395.351127 40.109768 
L 396.207594 40.966236 
L 396.207594 41.39447 
" style="fill:none;stroke:#8c8c8c;stroke-linecap:square;"/>
   </g>
   <g id="line2d_46">
    <path clip-path="url(#pce1d08f943)" d="M 401.774634 33.258027 
L 401.3464 33.258027 
L 401.3464 33.686261 
L 400.918166 33.686261 
L 400.918166 34.114495 
L 400.061698 34.542729 
L 399.633465 34.970963 
L 399.205231 35.399196 
L 399.633465 35.82743 
L 399.633465 36.255664 
L 400.489932 36.255664 
L 400.918166 37.112132 
L 401.3464 37.968599 
L 402.202867 39.681535 
L 402.202867 40.966236 
L 402.202867 42.250937 
L 401.774634 43.107405 
L 401.3464 42.679171 
L 400.918166 42.250937 
" style="fill:none;stroke:#8c8c8c;stroke-linecap:square;"/>
   </g>
   <g id="line2d_47">
    <path clip-path="url(#pce1d08f943)" d="M 404.77227 36.683898 
L 405.200504 36.683898 
L 405.628738 37.112132 
L 406.056972 37.968599 
L 406.485206 38.825067 
L 406.913439 39.681535 
L 406.913439 40.109768 
" style="fill:none;stroke:#8c8c8c;stroke-linecap:square;"/>
   </g>
   <g id="line2d_48">
    <path clip-path="url(#pce1d08f943)" d="M 407.341673 32.40156 
L 406.913439 31.545092 
L 406.913439 31.116858 
L 407.341673 31.116858 
" style="fill:none;stroke:#8c8c8c;stroke-linecap:square;"/>
   </g>
   <g id="line2d_49">
    <path clip-path="url(#pce1d08f943)" d="M 409.911076 31.973326 
L 409.482842 32.40156 
L 409.482842 32.829794 
L 408.626375 33.686261 
L 408.626375 34.114495 
L 408.626375 34.542729 
L 408.626375 34.970963 
L 409.482842 35.82743 
L 410.33931 36.255664 
L 411.195778 37.540366 
L 411.624011 38.396833 
L 412.052245 39.681535 
L 412.480479 40.966236 
L 412.480479 41.822704 
L 412.052245 41.822704 
" style="fill:none;stroke:#8c8c8c;stroke-linecap:square;"/>
   </g>
   <g id="line2d_50">
    <path clip-path="url(#pce1d08f943)" d="M 414.621648 32.829794 
L 415.049882 32.829794 
L 415.049882 32.40156 
L 415.478116 32.40156 
L 415.478116 32.829794 
L 415.906349 33.686261 
L 415.906349 35.399196 
L 416.762817 37.540366 
L 417.191051 38.825067 
L 417.191051 39.681535 
" style="fill:none;stroke:#8c8c8c;stroke-linecap:square;"/>
   </g>
   <g id="line2d_51">
    <path clip-path="url(#pce1d08f943)" d="M 413.76518 35.399196 
L 413.76518 34.970963 
L 414.193414 34.970963 
L 415.478116 34.970963 
L 416.762817 35.399196 
L 418.047519 35.399196 
L 418.475752 35.399196 
" style="fill:none;stroke:#8c8c8c;stroke-linecap:square;"/>
   </g>
   <g id="line2d_52">
    <path clip-path="url(#pce1d08f943)" d="M 419.760454 34.970963 
L 419.760454 35.399196 
L 420.188688 35.399196 
L 421.045155 35.399196 
L 421.901623 35.399196 
L 423.186324 34.970963 
L 423.614558 34.114495 
L 423.614558 33.686261 
L 423.186324 33.258027 
L 422.329857 33.258027 
L 421.473389 34.114495 
L 421.473389 34.970963 
L 421.901623 36.683898 
L 422.75809 38.396833 
L 424.042792 39.681535 
L 424.471026 39.681535 
L 424.899259 39.681535 
" style="fill:none;stroke:#8c8c8c;stroke-linecap:square;"/>
   </g>
   <g id="line2d_53">
    <path clip-path="url(#pce1d08f943)" d="M 427.468662 37.112132 
L 427.468662 37.968599 
L 427.896896 38.825067 
L 427.896896 39.253301 
L 428.32513 39.681535 
L 428.32513 39.253301 
L 428.32513 38.825067 
L 428.32513 37.968599 
L 428.753364 36.255664 
L 429.181598 34.970963 
L 429.609831 34.114495 
L 430.038065 33.686261 
L 430.466299 33.686261 
L 431.322767 34.542729 
L 431.751 35.82743 
L 432.179234 36.683898 
L 432.179234 37.968599 
L 432.607468 37.968599 
" style="fill:none;stroke:#8c8c8c;stroke-linecap:square;"/>
   </g>
   <g id="line2d_54">
    <path clip-path="url(#pce1d08f943)" d="M 436.033339 33.686261 
L 436.033339 33.258027 
L 436.033339 32.829794 
L 436.461572 32.829794 
L 436.461572 33.258027 
L 436.889806 33.686261 
L 437.31804 35.399196 
L 437.746274 37.112132 
L 438.174508 38.396833 
" style="fill:none;stroke:#8c8c8c;stroke-linecap:square;"/>
   </g>
   <g id="line2d_55">
    <path clip-path="url(#pce1d08f943)" d="M 435.605105 35.82743 
L 435.176871 35.82743 
L 436.033339 35.399196 
L 437.746274 34.970963 
L 439.459209 34.114495 
L 439.887443 33.686261 
" style="fill:none;stroke:#8c8c8c;stroke-linecap:square;"/>
   </g>
   <g id="line2d_56">
    <path clip-path="url(#pce1d08f943)" d="M 463.012069 34.542729 
L 462.583835 34.114495 
L 462.583835 33.686261 
L 462.583835 33.258027 
L 462.583835 32.829794 
L 463.012069 32.40156 
L 463.012069 32.829794 
L 463.868536 33.686261 
L 464.29677 34.970963 
L 465.153238 36.255664 
L 466.009705 37.112132 
L 466.437939 37.112132 
L 466.866173 36.255664 
L 467.294407 35.82743 
L 467.294407 35.399196 
L 467.722641 34.970963 
L 468.150874 34.970963 
L 468.579108 34.970963 
L 469.86381 34.114495 
L 470.292043 33.258027 
L 469.86381 31.545092 
L 469.435576 30.260391 
L 469.007342 29.832157 
L 469.435576 29.832157 
L 470.292043 30.260391 
" style="fill:none;stroke:#8c8c8c;stroke-linecap:square;"/>
   </g>
   <g id="line2d_57">
    <path clip-path="url(#pce1d08f943)" d="M 475.430849 35.399196 
L 475.430849 35.82743 
L 475.002615 36.255664 
L 475.002615 36.683898 
L 475.002615 37.112132 
L 475.859083 36.683898 
L 478.000252 34.970963 
L 482.28259 30.260391 
L 485.280227 24.265117 
L 486.993162 20.839247 
L 487.421396 19.554545 
L 486.993162 19.554545 
L 486.564928 19.554545 
L 486.136695 19.982779 
L 485.708461 20.411013 
" style="fill:none;stroke:#8c8c8c;stroke-linecap:square;"/>
   </g>
   <g id="line2d_58">
    <path clip-path="url(#pce1d08f943)" d="M 369.228864 68.3732 
L 368.80063 68.3732 
L 368.372396 68.801434 
L 367.944163 68.801434 
L 367.515929 69.229668 
L 367.515929 70.086135 
L 367.944163 71.370837 
L 369.657098 72.655538 
L 371.798267 73.083772 
L 373.511202 73.083772 
L 373.939436 72.227304 
L 373.939436 71.370837 
L 372.654735 70.086135 
L 370.085332 68.3732 
L 367.944163 67.088499 
L 366.231227 66.660265 
L 364.946526 66.232031 
L 364.518292 66.232031 
L 364.518292 65.375563 
L 365.802994 63.662628 
L 367.944163 61.521459 
L 370.085332 59.38029 
L 371.798267 57.667355 
L 372.226501 57.239121 
L 372.654735 57.239121 
" style="fill:none;stroke:#8c8c8c;stroke-linecap:square;"/>
   </g>
   <g id="line2d_59">
    <path clip-path="url(#pce1d08f943)" d="M 376.508839 57.239121 
L 376.508839 56.810887 
L 376.508839 57.239121 
L 376.508839 58.095588 
L 376.937073 59.808524 
L 376.937073 61.521459 
L 376.937073 62.80616 
L 377.365306 62.80616 
L 377.365306 62.377927 
" style="fill:none;stroke:#8c8c8c;stroke-linecap:square;"/>
   </g>
   <g id="line2d_60">
    <path clip-path="url(#pce1d08f943)" d="M 380.362943 56.810887 
L 380.791177 56.382653 
L 380.362943 56.382653 
L 379.506476 56.810887 
L 378.650008 58.095588 
L 378.221774 59.38029 
L 379.078242 60.664991 
L 380.362943 61.093225 
L 382.075878 60.664991 
L 383.36058 59.808524 
L 383.36058 58.095588 
L 382.932346 57.239121 
L 382.504112 56.382653 
L 382.075878 55.954419 
L 381.647645 56.382653 
" style="fill:none;stroke:#8c8c8c;stroke-linecap:square;"/>
   </g>
   <g id="line2d_61">
    <path clip-path="url(#pce1d08f943)" d="M 382.932346 62.377927 
L 382.504112 62.377927 
L 382.075878 61.949693 
L 381.647645 61.949693 
L 380.791177 61.949693 
L 379.934709 62.377927 
L 379.934709 63.662628 
L 379.934709 64.519096 
L 381.219411 65.803797 
L 382.504112 66.232031 
L 383.788814 65.803797 
L 384.645281 64.519096 
L 384.645281 63.234394 
L 384.217047 61.521459 
L 383.788814 60.664991 
L 383.36058 60.664991 
L 383.36058 60.236758 
" style="fill:none;stroke:#8c8c8c;stroke-linecap:square;"/>
   </g>
   <g id="line2d_62">
    <path clip-path="url(#pce1d08f943)" d="M 401.3464 67.088499 
L 401.3464 66.660265 
L 401.3464 65.803797 
L 401.3464 65.375563 
L 400.918166 64.947329 
L 400.918166 64.519096 
L 400.061698 64.090862 
L 399.633465 64.090862 
L 397.920529 65.375563 
L 397.492296 66.660265 
L 397.920529 69.229668 
L 398.776997 71.79907 
L 400.489932 73.512006 
L 402.631101 73.512006 
L 403.915803 73.083772 
L 405.200504 71.370837 
L 405.200504 69.657901 
L 403.915803 66.660265 
L 402.631101 64.947329 
L 401.3464 63.234394 
L 400.489932 62.80616 
L 399.633465 63.234394 
L 399.205231 64.090862 
L 398.776997 64.519096 
" style="fill:none;stroke:#8c8c8c;stroke-linecap:square;"/>
   </g>
   <g id="line2d_63">
    <path clip-path="url(#pce1d08f943)" d="M 423.186324 69.657901 
L 423.186324 69.229668 
L 422.75809 69.229668 
L 423.186324 69.229668 
L 423.186324 69.657901 
L 424.042792 70.514369 
L 424.899259 71.370837 
L 425.327493 71.79907 
L 425.755727 72.227304 
L 425.755727 71.79907 
L 425.327493 70.942603 
L 424.899259 70.086135 
L 424.899259 68.3732 
L 424.899259 67.088499 
L 425.755727 66.232031 
L 427.040429 65.803797 
L 428.753364 65.803797 
L 429.181598 65.803797 
" style="fill:none;stroke:#8c8c8c;stroke-linecap:square;"/>
   </g>
   <g id="line2d_64">
    <path clip-path="url(#pce1d08f943)" d="M 433.035702 66.232031 
L 432.607468 66.660265 
L 433.035702 66.660265 
L 433.89217 66.232031 
L 434.748637 65.803797 
L 435.605105 64.519096 
L 435.605105 63.662628 
L 435.176871 63.234394 
L 434.320403 63.234394 
L 433.463936 64.090862 
L 433.035702 65.375563 
L 433.035702 67.516732 
L 433.89217 68.801434 
L 435.605105 70.086135 
L 437.31804 70.514369 
L 438.174508 70.086135 
L 438.602741 70.086135 
" style="fill:none;stroke:#8c8c8c;stroke-linecap:square;"/>
   </g>
   <g id="line2d_65">
    <path clip-path="url(#pce1d08f943)" d="M 441.600378 65.803797 
L 440.743911 65.803797 
L 440.315677 66.660265 
L 439.887443 67.516732 
L 439.887443 68.3732 
L 440.743911 69.229668 
L 441.600378 69.657901 
" style="fill:none;stroke:#8c8c8c;stroke-linecap:square;"/>
   </g>
   <g id="line2d_66">
    <path clip-path="url(#pce1d08f943)" d="M 446.31095 67.516732 
L 446.31095 67.088499 
L 445.882716 66.660265 
L 445.026249 66.232031 
L 444.598015 65.803797 
L 444.169781 66.232031 
L 443.741547 66.660265 
L 443.313313 67.944966 
L 443.741547 69.229668 
L 445.026249 70.086135 
L 445.882716 70.514369 
L 446.31095 70.086135 
L 446.739184 69.657901 
L 446.31095 68.3732 
L 445.454482 67.516732 
L 445.026249 66.660265 
L 444.169781 66.660265 
L 443.741547 66.660265 
L 443.313313 66.660265 
L 443.313313 67.088499 
" style="fill:none;stroke:#8c8c8c;stroke-linecap:square;"/>
   </g>
   <g id="line2d_67">
    <path clip-path="url(#pce1d08f943)" d="M 448.452119 67.088499 
L 448.880353 67.088499 
L 449.308587 67.088499 
L 449.736821 67.516732 
L 450.165054 67.944966 
L 451.021522 68.801434 
L 451.021522 69.229668 
L 451.449756 69.657901 
L 451.021522 69.657901 
L 450.593288 68.801434 
L 451.021522 68.3732 
L 451.449756 67.944966 
L 451.87799 67.088499 
L 453.162691 66.660265 
L 453.590925 66.232031 
" style="fill:none;stroke:#8c8c8c;stroke-linecap:square;"/>
   </g>
   <g id="line2d_68">
    <path clip-path="url(#pce1d08f943)" d="M 456.160328 65.803797 
L 456.588562 65.803797 
L 456.160328 65.803797 
L 455.732094 66.232031 
L 455.30386 66.660265 
L 454.447392 67.088499 
L 454.019159 67.944966 
L 453.590925 68.801434 
L 454.447392 69.657901 
L 455.732094 70.086135 
L 457.016795 69.657901 
L 457.873263 68.801434 
L 458.729731 66.660265 
L 459.157964 64.519096 
L 458.729731 61.093225 
L 458.729731 58.952056 
L 458.301497 57.667355 
L 458.301497 57.239121 
L 458.729731 58.095588 
L 459.157964 60.664991 
L 460.014432 63.234394 
L 460.8709 66.232031 
L 461.299133 67.944966 
L 461.727367 68.801434 
" style="fill:none;stroke:#8c8c8c;stroke-linecap:square;"/>
   </g>
  </g>
 </g>
 <defs>
  <clipPath id="pce1d08f943">
   <rect height="271.8" width="503.089081" x="7.2" y="7.2"/>
  </clipPath>
 </defs>
</svg>
