<?xml version="1.0" encoding="utf-8" standalone="no"?>
<!DOCTYPE svg PUBLIC "-//W3C//DTD SVG 1.1//EN"
  "http://www.w3.org/Graphics/SVG/1.1/DTD/svg11.dtd">
<!-- Created with matplotlib (https://matplotlib.org/) -->
<svg height="286.2pt" version="1.1" viewBox="0 0 381.33 286.2" width="381.33pt" xmlns="http://www.w3.org/2000/svg" xmlns:xlink="http://www.w3.org/1999/xlink">
 <metadata>
  <rdf:RDF xmlns:cc="http://creativecommons.org/ns#" xmlns:dc="http://purl.org/dc/elements/1.1/" xmlns:rdf="http://www.w3.org/1999/02/22-rdf-syntax-ns#">
   <cc:Work>
    <dc:type rdf:resource="http://purl.org/dc/dcmitype/StillImage"/>
    <dc:date>2024-11-15T16:04:23.016657</dc:date>
    <dc:format>image/svg+xml</dc:format>
    <dc:creator>
     <cc:Agent>
      <dc:title>Matplotlib v3.3.4, https://matplotlib.org/</dc:title>
     </cc:Agent>
    </dc:creator>
   </cc:Work>
  </rdf:RDF>
 </metadata>
 <defs>
  <style type="text/css">*{stroke-linecap:butt;stroke-linejoin:round;}</style>
 </defs>
 <g id="figure_1">
  <g id="patch_1">
   <path d="M 0 286.2 
L 381.33 286.2 
L 381.33 0 
L 0 0 
z
" style="fill:#ffffff;"/>
  </g>
  <g id="axes_1">
   <g id="line2d_1">
    <path clip-path="url(#p87ded789cc)" d="M 92.858182 245.025 
L 91.828636 246.054545 
L 91.828636 247.084091 
L 90.799091 249.143182 
L 90.799091 250.172727 
L 90.799091 251.202273 
L 90.799091 253.261364 
L 90.799091 254.290909 
L 91.828636 255.320455 
L 91.828636 257.379545 
L 92.858182 259.438636 
L 93.887727 260.468182 
L 94.917273 261.497727 
L 96.976364 262.527273 
L 98.005909 263.556818 
L 101.094545 264.586364 
L 102.124091 265.615909 
L 104.183182 265.615909 
L 108.301364 266.645455 
L 111.39 266.645455 
L 114.478636 265.615909 
L 116.537727 264.586364 
L 118.596818 263.556818 
L 120.655909 262.527273 
L 122.715 260.468182 
L 123.744545 258.409091 
L 123.744545 257.379545 
L 123.744545 254.290909 
L 123.744545 251.202273 
L 122.715 248.113636 
L 119.626364 245.025 
L 116.537727 242.965909 
L 110.360455 240.906818 
L 105.212727 240.906818 
L 101.094545 240.906818 
L 96.976364 241.936364 
L 93.887727 242.965909 
L 90.799091 245.025 
L 88.74 246.054545 
L 88.74 247.084091 
L 87.710455 247.084091 
" style="fill:none;stroke:#c44e52;stroke-linecap:square;"/>
   </g>
   <g id="line2d_2">
    <path clip-path="url(#p87ded789cc)" d="M 94.917273 231.640909 
L 93.887727 231.640909 
L 93.887727 230.611364 
L 91.828636 229.581818 
L 89.769545 228.552273 
L 86.680909 225.463636 
L 83.592273 222.375 
L 77.415 217.227273 
L 71.237727 212.079545 
L 65.060455 208.990909 
L 55.794545 203.843182 
L 49.617273 200.754545 
L 42.410455 196.636364 
L 35.203636 191.488636 
L 29.026364 183.252273 
L 25.937727 175.015909 
L 23.878636 164.720455 
L 25.937727 153.395455 
L 29.026364 144.129545 
L 32.115 134.863636 
L 33.144545 130.745455 
L 33.144545 129.715909 
L 33.144545 128.686364 
L 33.144545 127.656818 
" style="fill:none;stroke:#c44e52;stroke-linecap:square;"/>
   </g>
   <g id="line2d_3">
    <path clip-path="url(#p87ded789cc)" d="M 38.292273 99.859091 
L 37.262727 99.859091 
L 38.292273 100.888636 
L 38.292273 103.977273 
L 40.351364 108.095455 
L 40.351364 111.184091 
L 41.380909 113.243182 
L 41.380909 114.272727 
L 41.380909 113.243182 
L 40.351364 110.154545 
L 39.321818 103.977273 
L 38.292273 97.8 
L 38.292273 93.681818 
L 38.292273 91.622727 
L 40.351364 90.593182 
L 41.380909 91.622727 
L 43.44 94.711364 
L 44.469545 97.8 
L 44.469545 100.888636 
L 45.499091 102.947727 
L 46.528636 101.918182 
L 46.528636 98.829545 
L 47.558182 95.740909 
L 48.587727 93.681818 
L 50.646818 93.681818 
L 51.676364 95.740909 
L 54.765 99.859091 
L 55.794545 103.977273 
L 57.853636 107.065909 
L 58.883182 108.095455 
" style="fill:none;stroke:#c44e52;stroke-linecap:square;"/>
   </g>
   <g id="line2d_4">
    <path clip-path="url(#p87ded789cc)" d="M 68.149091 95.740909 
L 69.178636 94.711364 
L 69.178636 93.681818 
L 69.178636 92.652273 
L 68.149091 92.652273 
L 67.119545 92.652273 
L 64.030909 94.711364 
L 59.912727 98.829545 
L 58.883182 102.947727 
L 59.912727 106.036364 
L 61.971818 107.065909 
L 65.060455 107.065909 
L 67.119545 105.006818 
L 69.178636 102.947727 
L 69.178636 100.888636 
L 69.178636 98.829545 
L 69.178636 97.8 
" style="fill:none;stroke:#c44e52;stroke-linecap:square;"/>
   </g>
   <g id="line2d_5">
    <path clip-path="url(#p87ded789cc)" d="M 80.503636 91.622727 
L 80.503636 90.593182 
L 80.503636 89.563636 
L 80.503636 88.534091 
L 81.533182 88.534091 
L 80.503636 87.504545 
L 79.474091 87.504545 
L 78.444545 88.534091 
L 76.385455 90.593182 
L 75.355909 94.711364 
L 75.355909 98.829545 
L 76.385455 100.888636 
L 79.474091 102.947727 
L 81.533182 101.918182 
L 83.592273 98.829545 
L 84.621818 94.711364 
L 83.592273 87.504545 
L 82.562727 79.268182 
L 81.533182 73.090909 
L 80.503636 70.002273 
L 80.503636 68.972727 
L 79.474091 70.002273 
L 79.474091 74.120455 
L 81.533182 82.356818 
L 84.621818 90.593182 
L 87.710455 96.770455 
L 90.799091 99.859091 
L 91.828636 99.859091 
" style="fill:none;stroke:#c44e52;stroke-linecap:square;"/>
   </g>
   <g id="line2d_6">
    <path clip-path="url(#p87ded789cc)" d="M 94.917273 93.681818 
L 95.946818 93.681818 
L 96.976364 92.652273 
L 98.005909 90.593182 
L 99.035455 87.504545 
L 100.065 83.386364 
L 99.035455 80.297727 
L 98.005909 77.209091 
L 96.976364 77.209091 
L 94.917273 78.238636 
L 93.887727 83.386364 
L 93.887727 88.534091 
L 95.946818 92.652273 
L 98.005909 93.681818 
L 101.094545 94.711364 
L 103.153636 93.681818 
L 105.212727 92.652273 
" style="fill:none;stroke:#c44e52;stroke-linecap:square;"/>
   </g>
   <g id="line2d_7">
    <path clip-path="url(#p87ded789cc)" d="M 109.330909 91.622727 
L 110.360455 91.622727 
L 112.419545 92.652273 
L 113.449091 94.711364 
L 114.478636 95.740909 
L 113.449091 93.681818 
L 112.419545 90.593182 
L 112.419545 84.415909 
L 113.449091 81.327273 
L 115.508182 77.209091 
" style="fill:none;stroke:#c44e52;stroke-linecap:square;"/>
   </g>
   <g id="line2d_8">
    <path clip-path="url(#p87ded789cc)" d="M 124.774091 81.327273 
L 124.774091 84.415909 
L 125.803636 86.475 
L 125.803636 87.504545 
L 125.803636 88.534091 
L 125.803636 89.563636 
L 125.803636 88.534091 
L 125.803636 86.475 
L 126.833182 82.356818 
L 127.862727 77.209091 
L 129.921818 74.120455 
L 131.980909 73.090909 
L 134.04 74.120455 
L 136.099091 76.179545 
L 138.158182 79.268182 
L 139.187727 82.356818 
" style="fill:none;stroke:#c44e52;stroke-linecap:square;"/>
   </g>
   <g id="line2d_9">
    <path clip-path="url(#p87ded789cc)" d="M 186.546818 75.15 
L 186.546818 74.120455 
L 186.546818 75.15 
L 187.576364 75.15 
L 187.576364 77.209091 
L 189.635455 81.327273 
L 190.665 84.415909 
L 190.665 85.445455 
" style="fill:none;stroke:#c44e52;stroke-linecap:square;"/>
   </g>
   <g id="line2d_10">
    <path clip-path="url(#p87ded789cc)" d="M 185.517273 65.884091 
L 185.517273 64.854545 
L 184.487727 63.825 
L 185.517273 63.825 
" style="fill:none;stroke:#c44e52;stroke-linecap:square;"/>
   </g>
   <g id="line2d_11">
    <path clip-path="url(#p87ded789cc)" d="M 198.901364 80.297727 
L 199.930909 82.356818 
L 199.930909 83.386364 
L 199.930909 84.415909 
L 199.930909 83.386364 
L 199.930909 82.356818 
L 199.930909 79.268182 
L 199.930909 73.090909 
L 199.930909 70.002273 
L 199.930909 67.943182 
L 200.960455 66.913636 
L 201.99 67.943182 
L 204.049091 70.002273 
L 205.078636 73.090909 
L 207.137727 76.179545 
L 207.137727 78.238636 
L 208.167273 79.268182 
" style="fill:none;stroke:#c44e52;stroke-linecap:square;"/>
   </g>
   <g id="line2d_12">
    <path clip-path="url(#p87ded789cc)" d="M 210.226364 68.972727 
L 211.255909 67.943182 
L 211.255909 65.884091 
L 212.285455 65.884091 
L 212.285455 66.913636 
L 214.344545 68.972727 
L 216.403636 75.15 
L 219.492273 81.327273 
L 221.551364 85.445455 
" style="fill:none;stroke:#c44e52;stroke-linecap:square;"/>
   </g>
   <g id="line2d_13">
    <path clip-path="url(#p87ded789cc)" d="M 212.285455 73.090909 
L 211.255909 73.090909 
L 211.255909 74.120455 
L 212.285455 74.120455 
L 213.315 74.120455 
L 217.433182 73.090909 
L 219.492273 72.061364 
L 220.521818 72.061364 
" style="fill:none;stroke:#c44e52;stroke-linecap:square;"/>
   </g>
   <g id="line2d_14">
    <path clip-path="url(#p87ded789cc)" d="M 224.64 70.002273 
L 224.64 71.031818 
L 225.669545 71.031818 
L 226.699091 71.031818 
L 228.758182 68.972727 
L 229.787727 66.913636 
L 229.787727 64.854545 
L 228.758182 63.825 
L 227.728636 62.795455 
L 226.699091 63.825 
L 225.669545 67.943182 
L 225.669545 71.031818 
L 227.728636 74.120455 
L 229.787727 75.15 
L 232.876364 75.15 
L 234.935455 74.120455 
L 235.965 73.090909 
L 238.024091 71.031818 
L 240.083182 71.031818 
L 242.142273 72.061364 
L 243.171818 73.090909 
L 245.230909 75.15 
L 246.260455 75.15 
L 247.29 76.179545 
L 246.260455 75.15 
L 246.260455 74.120455 
L 246.260455 71.031818 
L 246.260455 67.943182 
L 248.319545 64.854545 
" style="fill:none;stroke:#c44e52;stroke-linecap:square;"/>
   </g>
   <g id="line2d_15">
    <path clip-path="url(#p87ded789cc)" d="M 266.851364 62.795455 
L 265.821818 62.795455 
L 264.792273 62.795455 
L 261.703636 63.825 
L 259.644545 64.854545 
L 257.585455 65.884091 
L 256.555909 67.943182 
L 256.555909 70.002273 
L 257.585455 70.002273 
L 259.644545 68.972727 
L 260.674091 65.884091 
L 261.703636 62.795455 
L 262.733182 60.736364 
L 262.733182 59.706818 
L 261.703636 59.706818 
L 261.703636 60.736364 
L 262.733182 60.736364 
L 262.733182 62.795455 
L 264.792273 65.884091 
L 267.880909 70.002273 
L 270.969545 76.179545 
L 274.058182 83.386364 
L 275.087727 88.534091 
L 274.058182 94.711364 
L 271.999091 96.770455 
L 267.880909 97.8 
L 264.792273 96.770455 
L 261.703636 91.622727 
" style="fill:none;stroke:#c44e52;stroke-linecap:square;"/>
   </g>
   <g id="line2d_16">
    <path clip-path="url(#p87ded789cc)" d="M 268.910455 42.204545 
L 268.910455 43.234091 
L 268.910455 44.263636 
L 269.94 46.322727 
L 271.999091 52.5 
L 274.058182 59.706818 
L 276.117273 64.854545 
L 277.146818 67.943182 
L 278.176364 68.972727 
" style="fill:none;stroke:#c44e52;stroke-linecap:square;"/>
   </g>
   <g id="line2d_17">
    <path clip-path="url(#p87ded789cc)" d="M 286.412727 60.736364 
L 286.412727 59.706818 
L 285.383182 57.647727 
L 284.353636 57.647727 
L 283.324091 57.647727 
L 281.265 58.677273 
L 280.235455 59.706818 
L 280.235455 62.795455 
L 282.294545 63.825 
L 284.353636 63.825 
L 286.412727 62.795455 
L 288.471818 60.736364 
L 289.501364 58.677273 
L 289.501364 56.618182 
L 290.530909 55.588636 
L 290.530909 56.618182 
L 291.560455 57.647727 
L 291.560455 59.706818 
L 293.619545 61.765909 
L 295.678636 64.854545 
L 296.708182 65.884091 
L 297.737727 65.884091 
" style="fill:none;stroke:#c44e52;stroke-linecap:square;"/>
   </g>
   <g id="line2d_18">
    <path clip-path="url(#p87ded789cc)" d="M 305.974091 49.411364 
L 304.944545 50.440909 
L 302.885455 51.470455 
L 301.855909 52.5 
L 300.826364 53.529545 
L 300.826364 54.559091 
L 300.826364 57.647727 
L 303.915 60.736364 
L 307.003636 61.765909 
L 311.121818 62.795455 
L 313.180909 62.795455 
" style="fill:none;stroke:#c44e52;stroke-linecap:square;"/>
   </g>
   <g id="line2d_19">
    <path clip-path="url(#p87ded789cc)" d="M 317.299091 53.529545 
L 318.328636 54.559091 
L 318.328636 55.588636 
L 319.358182 57.647727 
L 320.387727 58.677273 
L 320.387727 54.559091 
L 318.328636 48.381818 
L 317.299091 42.204545 
L 316.269545 39.115909 
L 316.269545 38.086364 
L 316.269545 37.056818 
" style="fill:none;stroke:#c44e52;stroke-linecap:square;"/>
   </g>
   <g id="line2d_20">
    <path clip-path="url(#p87ded789cc)" d="M 325.535455 46.322727 
L 326.565 46.322727 
L 325.535455 46.322727 
L 325.535455 47.352273 
L 325.535455 48.381818 
L 324.505909 48.381818 
L 324.505909 51.470455 
L 323.476364 53.529545 
L 323.476364 55.588636 
L 324.505909 56.618182 
L 326.565 57.647727 
L 328.624091 56.618182 
L 330.683182 54.559091 
L 331.712727 50.440909 
L 332.742273 45.293182 
L 332.742273 42.204545 
L 331.712727 39.115909 
L 331.712727 40.145455 
L 331.712727 42.204545 
L 332.742273 46.322727 
L 333.771818 50.440909 
L 334.801364 54.559091 
L 335.830909 57.647727 
L 336.860455 58.677273 
L 336.860455 59.706818 
" style="fill:none;stroke:#c44e52;stroke-linecap:square;"/>
   </g>
   <g id="line2d_21">
    <path clip-path="url(#p87ded789cc)" d="M 343.037727 20.584091 
L 343.037727 19.554545 
L 344.067273 20.584091 
L 345.096818 21.613636 
L 346.126364 22.643182 
L 349.215 28.820455 
L 352.303636 34.997727 
L 354.362727 42.204545 
L 356.421818 48.381818 
L 356.421818 51.470455 
L 357.451364 52.5 
" style="fill:none;stroke:#c44e52;stroke-linecap:square;"/>
   </g>
  </g>
 </g>
 <defs>
  <clipPath id="p87ded789cc">
   <rect height="271.8" width="366.93" x="7.2" y="7.2"/>
  </clipPath>
 </defs>
</svg>
