<?xml version="1.0" encoding="utf-8" standalone="no"?>
<!DOCTYPE svg PUBLIC "-//W3C//DTD SVG 1.1//EN"
  "http://www.w3.org/Graphics/SVG/1.1/DTD/svg11.dtd">
<!-- Created with matplotlib (https://matplotlib.org/) -->
<svg height="155.098997pt" version="1.1" viewBox="0 0 567.217337 155.098997" width="567.217337pt" xmlns="http://www.w3.org/2000/svg" xmlns:xlink="http://www.w3.org/1999/xlink">
 <metadata>
  <rdf:RDF xmlns:cc="http://creativecommons.org/ns#" xmlns:dc="http://purl.org/dc/elements/1.1/" xmlns:rdf="http://www.w3.org/1999/02/22-rdf-syntax-ns#">
   <cc:Work>
    <dc:type rdf:resource="http://purl.org/dc/dcmitype/StillImage"/>
    <dc:date>2024-11-15T16:04:22.372212</dc:date>
    <dc:format>image/svg+xml</dc:format>
    <dc:creator>
     <cc:Agent>
      <dc:title>Matplotlib v3.3.4, https://matplotlib.org/</dc:title>
     </cc:Agent>
    </dc:creator>
   </cc:Work>
  </rdf:RDF>
 </metadata>
 <defs>
  <style type="text/css">*{stroke-linecap:butt;stroke-linejoin:round;}</style>
 </defs>
 <g id="figure_1">
  <g id="patch_1">
   <path d="M 0 155.098997 
L 567.217337 155.098997 
L 567.217337 0 
L 0 0 
z
" style="fill:#ffffff;"/>
  </g>
  <g id="axes_1">
   <g id="line2d_1">
    <path clip-path="url(#p87bc0d5163)" d="M 68.311686 31.133646 
L 68.009302 31.133646 
L 67.706919 31.43603 
L 67.706919 31.738413 
L 67.706919 32.040797 
L 68.009302 32.040797 
L 68.009302 32.34318 
L 68.311686 32.645563 
L 68.614069 32.645563 
L 68.916453 32.34318 
L 68.916453 32.040797 
L 68.916453 31.738413 
L 68.614069 31.738413 
L 68.311686 31.738413 
L 68.311686 32.040797 
L 68.614069 32.34318 
L 68.614069 32.645563 
L 68.916453 32.645563 
L 68.916453 32.34318 
L 68.916453 32.040797 
L 68.916453 31.738413 
L 68.614069 31.738413 
L 68.311686 32.040797 
L 68.009302 32.34318 
" style="fill:none;stroke:#8c8c8c;stroke-linecap:square;"/>
   </g>
   <g id="line2d_2">
    <path clip-path="url(#p87bc0d5163)" d="M 67.706919 34.15748 
L 67.706919 34.459864 
L 67.706919 34.762247 
L 68.009302 34.762247 
L 68.009302 35.064631 
L 68.009302 35.367014 
L 68.009302 35.669397 
L 68.009302 35.971781 
L 68.311686 36.274164 
L 68.311686 36.576548 
L 68.311686 36.878931 
L 68.311686 37.181314 
L 68.311686 37.483698 
L 68.311686 38.088465 
L 68.614069 38.390848 
L 68.614069 38.693231 
L 68.614069 39.297998 
L 68.614069 39.902765 
L 68.614069 40.507532 
L 68.614069 41.414682 
L 68.614069 42.321832 
L 68.614069 42.926599 
L 68.614069 43.833749 
L 68.311686 44.438516 
L 68.311686 45.043283 
L 68.311686 46.252817 
L 68.009302 47.764734 
L 68.009302 49.579034 
L 68.009302 51.393334 
L 67.706919 52.905251 
L 67.706919 54.114785 
L 67.706919 55.324319 
L 67.706919 56.533852 
L 67.706919 57.743386 
L 67.706919 59.255303 
L 67.706919 61.069603 
L 68.009302 63.186287 
L 68.009302 65.907738 
L 68.311686 68.024422 
L 68.311686 71.048256 
L 68.614069 74.374473 
L 68.916453 78.003074 
L 68.916453 80.724524 
L 69.218836 84.050742 
L 69.521219 87.679343 
L 69.521219 91.307944 
L 69.823603 94.634161 
L 69.823603 97.355612 
L 70.125986 100.681829 
L 70.42837 104.31043 
L 70.730753 107.334264 
L 71.033136 110.660481 
L 71.033136 113.381932 
L 71.33552 117.010533 
L 71.637903 120.33675 
L 71.940287 123.360584 
L 71.940287 125.477268 
L 72.24267 128.501102 
L 72.24267 131.222553 
L 72.24267 133.339237 
L 72.545053 134.851154 
L 72.545053 136.665454 
L 72.545053 137.874988 
L 72.545053 138.782138 
L 72.545053 139.084521 
L 72.545053 139.386905 
" style="fill:none;stroke:#8c8c8c;stroke-linecap:square;"/>
   </g>
   <g id="line2d_3">
    <path clip-path="url(#p87bc0d5163)" d="M 68.916453 134.54877 
L 68.916453 134.851154 
L 69.218836 135.45592 
L 69.218836 136.060687 
L 69.521219 136.665454 
L 69.823603 137.874988 
L 70.125986 138.479754 
L 70.42837 139.689288 
L 70.730753 140.596438 
L 71.33552 141.201205 
L 71.940287 141.503588 
L 72.847437 141.201205 
L 74.05697 140.596438 
L 74.964121 139.991671 
L 75.568887 139.084521 
" style="fill:none;stroke:#8c8c8c;stroke-linecap:square;"/>
   </g>
   <g id="line2d_4">
    <path clip-path="url(#p87bc0d5163)" d="M 68.311686 31.43603 
L 68.311686 31.133646 
L 68.614069 31.133646 
L 68.916453 31.133646 
L 69.218836 31.133646 
L 69.521219 31.133646 
L 70.730753 30.831263 
L 72.24267 30.831263 
L 73.754587 30.831263 
L 75.568887 30.831263 
L 77.383188 30.52888 
L 79.197488 30.52888 
L 81.918939 30.831263 
L 83.733239 31.133646 
L 87.059457 31.43603 
L 90.688058 32.040797 
L 95.223809 32.34318 
L 99.457176 32.34318 
L 104.900078 32.34318 
L 110.947746 32.34318 
L 116.69303 32.040797 
L 122.135932 32.34318 
L 126.066916 32.34318 
L 130.90505 32.34318 
L 135.138418 32.34318 
L 139.069402 32.040797 
L 141.790853 31.738413 
L 143.30277 31.738413 
L 144.20992 31.738413 
" style="fill:none;stroke:#8c8c8c;stroke-linecap:square;"/>
   </g>
   <g id="line2d_5">
    <path clip-path="url(#p87bc0d5163)" d="M 142.39562 29.621729 
L 142.39562 29.319346 
L 142.698003 29.319346 
L 143.000386 29.319346 
L 143.605153 29.319346 
L 144.814687 29.319346 
L 145.721837 29.319346 
L 146.931371 29.621729 
L 147.233754 29.924113 
L 147.536137 30.226496 
L 147.536137 30.831263 
L 147.233754 31.43603 
L 146.628987 32.645563 
L 145.419454 33.855097 
L 144.814687 34.762247 
L 144.512303 34.762247 
" style="fill:none;stroke:#8c8c8c;stroke-linecap:square;"/>
   </g>
   <g id="line2d_6">
    <path clip-path="url(#p87bc0d5163)" d="M 72.847437 19.03831 
L 72.847437 18.735927 
L 73.14982 18.433543 
L 73.14982 18.13116 
L 73.14982 17.828777 
L 73.14982 17.526393 
L 72.847437 17.526393 
L 72.545053 17.526393 
L 71.940287 18.13116 
L 70.730753 19.340694 
L 70.730753 20.550227 
L 71.033136 21.759761 
L 72.24267 22.969294 
L 73.754587 23.271678 
L 75.266504 22.969294 
L 76.778421 22.364528 
L 77.685571 21.759761 
" style="fill:none;stroke:#8c8c8c;stroke-linecap:square;"/>
   </g>
   <g id="line2d_7">
    <path clip-path="url(#p87bc0d5163)" d="M 79.197488 19.643077 
L 78.895105 19.340694 
L 78.895105 19.03831 
L 78.290338 18.735927 
L 77.987955 19.03831 
L 77.685571 19.94546 
L 77.383188 20.852611 
L 77.685571 21.759761 
L 77.987955 22.062144 
L 78.895105 22.364528 
L 80.104638 21.759761 
L 80.407022 21.154994 
L 80.709405 20.247844 
L 80.407022 19.643077 
L 79.802255 19.03831 
L 79.197488 19.03831 
L 78.592721 19.03831 
L 78.290338 19.340694 
" style="fill:none;stroke:#8c8c8c;stroke-linecap:square;"/>
   </g>
   <g id="line2d_8">
    <path clip-path="url(#p87bc0d5163)" d="M 82.826089 19.03831 
L 82.523706 19.340694 
L 82.523706 19.643077 
L 82.221322 20.247844 
L 82.221322 21.154994 
L 82.523706 21.759761 
L 83.128473 22.062144 
L 84.035623 21.759761 
L 84.338006 21.457377 
L 84.64039 20.550227 
L 84.338006 19.643077 
L 84.035623 19.03831 
L 83.128473 18.735927 
L 82.523706 19.03831 
L 82.221322 19.340694 
L 82.221322 19.643077 
" style="fill:none;stroke:#8c8c8c;stroke-linecap:square;"/>
   </g>
   <g id="line2d_9">
    <path clip-path="url(#p87bc0d5163)" d="M 87.059457 13.897792 
L 87.059457 13.595409 
L 87.059457 13.897792 
L 87.059457 14.200176 
L 87.059457 14.502559 
L 87.36184 16.014476 
L 87.664224 17.828777 
L 88.571374 19.94546 
L 88.873757 21.154994 
L 89.478524 22.364528 
L 89.780907 22.969294 
L 89.780907 23.271678 
" style="fill:none;stroke:#8c8c8c;stroke-linecap:square;"/>
   </g>
   <g id="line2d_10">
    <path clip-path="url(#p87bc0d5163)" d="M 134.533651 20.550227 
L 134.533651 20.852611 
L 134.533651 21.154994 
L 134.533651 21.457377 
L 135.138418 22.364528 
L 135.440801 23.271678 
L 136.347951 24.481211 
L 136.650335 24.783595 
L 137.255102 24.481211 
L 137.557485 23.574061 
L 137.557485 22.969294 
L 137.557485 22.666911 
L 137.859868 22.666911 
L 138.162252 22.969294 
L 139.069402 23.876445 
L 139.976552 24.481211 
L 140.581319 24.178828 
L 140.883702 23.574061 
L 140.883702 22.364528 
L 140.278936 21.457377 
L 140.278936 20.852611 
L 140.278936 20.550227 
" style="fill:none;stroke:#8c8c8c;stroke-linecap:square;"/>
   </g>
   <g id="line2d_11">
    <path clip-path="url(#p87bc0d5163)" d="M 142.698003 21.457377 
L 142.698003 21.154994 
L 142.698003 20.852611 
L 142.39562 20.550227 
L 142.39562 20.852611 
L 142.093236 20.852611 
L 141.488469 21.457377 
L 141.488469 22.364528 
L 141.488469 23.271678 
L 142.093236 23.574061 
L 142.698003 23.271678 
L 143.000386 22.364528 
L 143.30277 21.759761 
L 143.30277 20.852611 
L 143.30277 21.759761 
L 143.907537 22.969294 
L 144.512303 24.178828 
L 144.814687 24.783595 
L 145.11707 24.783595 
L 145.419454 24.481211 
" style="fill:none;stroke:#8c8c8c;stroke-linecap:square;"/>
   </g>
   <g id="line2d_12">
    <path clip-path="url(#p87bc0d5163)" d="M 145.419454 21.759761 
L 145.419454 21.457377 
L 145.721837 21.759761 
L 146.326604 22.666911 
L 146.628987 23.574061 
L 146.931371 24.178828 
L 146.931371 24.481211 
L 146.628987 24.481211 
L 146.628987 24.178828 
L 146.326604 23.574061 
L 146.02422 22.666911 
L 146.326604 21.457377 
L 146.931371 20.852611 
L 147.536137 20.247844 
" style="fill:none;stroke:#8c8c8c;stroke-linecap:square;"/>
   </g>
   <g id="line2d_13">
    <path clip-path="url(#p87bc0d5163)" d="M 149.955205 20.247844 
L 149.955205 20.550227 
L 149.955205 20.852611 
L 149.955205 21.154994 
L 149.955205 22.062144 
L 150.257588 22.969294 
L 150.559971 23.271678 
L 150.559971 23.876445 
L 150.559971 23.574061 
L 150.559971 22.364528 
L 150.559971 21.457377 
L 150.559971 20.852611 
L 150.862355 20.247844 
L 151.164738 20.247844 
L 151.769505 20.550227 
L 152.071888 21.154994 
L 152.676655 21.759761 
L 152.676655 22.364528 
L 152.979039 22.364528 
L 152.979039 22.062144 
L 152.979039 21.759761 
L 152.979039 21.457377 
L 153.281422 20.852611 
L 153.583805 20.550227 
L 154.188572 20.247844 
L 154.490956 20.247844 
L 155.095722 20.550227 
L 155.398106 20.852611 
L 155.700489 21.759761 
L 156.002873 22.364528 
L 156.002873 22.666911 
" style="fill:none;stroke:#8c8c8c;stroke-linecap:square;"/>
   </g>
   <g id="line2d_14">
    <path clip-path="url(#p87bc0d5163)" d="M 51.075832 100.984212 
L 51.075832 100.681829 
L 51.075832 100.984212 
L 51.075832 101.286596 
L 51.075832 101.891363 
L 51.075832 103.705663 
L 51.075832 105.822347 
L 51.378215 107.636647 
L 51.982982 108.846181 
L 52.890132 109.148564 
L 53.797282 108.846181 
L 54.402049 108.241414 
L 54.704433 107.334264 
L 54.402049 107.031881 
L 53.797282 106.729497 
L 53.192516 107.031881 
L 52.587749 107.334264 
" style="fill:none;stroke:#8c8c8c;stroke-linecap:square;"/>
   </g>
   <g id="line2d_15">
    <path clip-path="url(#p87bc0d5163)" d="M 57.1235 104.31043 
L 57.1235 104.008046 
L 56.821116 104.008046 
L 56.821116 104.31043 
L 56.518733 104.31043 
L 56.518733 104.915197 
L 56.518733 106.12473 
L 57.1235 107.031881 
L 58.03065 107.939031 
L 58.9378 107.939031 
L 59.84495 107.636647 
L 60.449717 106.729497 
L 60.147334 105.21758 
L 59.240184 103.705663 
L 58.333033 102.798513 
L 58.03065 102.798513 
L 57.425883 103.100896 
L 57.1235 103.705663 
" style="fill:none;stroke:#8c8c8c;stroke-linecap:square;"/>
   </g>
   <g id="line2d_16">
    <path clip-path="url(#p87bc0d5163)" d="M 34.444745 62.58152 
L 34.444745 62.279137 
L 34.142361 62.279137 
L 34.142361 62.58152 
L 34.142361 62.883904 
L 34.444745 63.791054 
L 35.049511 66.210121 
L 35.351895 68.024422 
L 35.654278 69.233955 
L 35.956662 69.838722 
" style="fill:none;stroke:#8c8c8c;stroke-linecap:square;"/>
   </g>
   <g id="line2d_17">
    <path clip-path="url(#p87bc0d5163)" d="M 32.328061 65.605354 
L 32.328061 65.907738 
L 32.630444 65.907738 
L 32.932828 65.907738 
L 34.142361 65.907738 
L 35.654278 65.605354 
L 36.863812 65.302971 
L 37.770962 65.000587 
" style="fill:none;stroke:#8c8c8c;stroke-linecap:square;"/>
   </g>
   <g id="line2d_18">
    <path clip-path="url(#p87bc0d5163)" d="M 38.980496 65.000587 
L 38.980496 65.302971 
L 39.282879 66.210121 
L 39.887646 67.117271 
L 40.190029 68.024422 
L 40.492413 68.326805 
" style="fill:none;stroke:#8c8c8c;stroke-linecap:square;"/>
   </g>
   <g id="line2d_19">
    <path clip-path="url(#p87bc0d5163)" d="M 39.585262 63.48867 
L 39.282879 62.883904 
L 39.282879 62.58152 
L 39.585262 62.58152 
" style="fill:none;stroke:#8c8c8c;stroke-linecap:square;"/>
   </g>
   <g id="line2d_20">
    <path clip-path="url(#p87bc0d5163)" d="M 42.609096 65.302971 
L 42.609096 65.605354 
L 42.91148 66.512505 
L 42.91148 67.419655 
L 43.213863 67.722038 
L 43.516247 67.722038 
L 43.516247 67.419655 
L 43.516247 66.814888 
L 43.516247 65.605354 
L 43.81863 64.395821 
L 44.121014 64.093437 
L 44.423397 64.093437 
L 45.028164 65.000587 
L 45.330547 65.907738 
L 45.632931 66.814888 
L 45.935314 67.117271 
L 46.237697 67.117271 
L 46.540081 66.814888 
L 46.540081 66.512505 
L 46.842464 65.907738 
L 47.144848 65.302971 
L 47.447231 65.302971 
L 47.749614 65.302971 
L 48.051998 65.605354 
L 48.656765 66.210121 
L 48.959148 66.512505 
L 49.261531 66.512505 
" style="fill:none;stroke:#8c8c8c;stroke-linecap:square;"/>
   </g>
   <g id="line2d_21">
    <path clip-path="url(#p87bc0d5163)" d="M 49.866298 65.907738 
L 49.866298 65.605354 
L 50.168682 65.302971 
L 50.773448 65.000587 
L 51.378215 64.093437 
L 51.982982 63.186287 
L 51.982982 62.279137 
L 51.982982 61.976753 
L 51.680599 61.67437 
L 50.773448 61.976753 
L 50.168682 62.883904 
L 49.866298 64.093437 
L 50.471065 65.302971 
L 51.680599 66.512505 
L 52.890132 67.419655 
L 53.797282 67.722038 
L 54.099666 67.722038 
" style="fill:none;stroke:#8c8c8c;stroke-linecap:square;"/>
   </g>
   <g id="line2d_22">
    <path clip-path="url(#p87bc0d5163)" d="M 38.980496 73.164939 
L 38.678112 73.164939 
L 38.375729 73.467323 
L 37.770962 73.769706 
L 37.468579 75.281623 
L 37.468579 76.79354 
L 38.073345 78.305457 
L 39.282879 79.212607 
L 40.190029 79.514991 
L 40.794796 79.817374 
L 41.097179 79.514991 
" style="fill:none;stroke:#8c8c8c;stroke-linecap:square;"/>
   </g>
   <g id="line2d_23">
    <path clip-path="url(#p87bc0d5163)" d="M 41.701946 76.79354 
L 41.701946 77.095924 
L 41.701946 77.70069 
L 42.00433 78.305457 
L 42.306713 78.607841 
L 42.306713 78.910224 
L 42.306713 78.305457 
L 42.306713 77.398307 
L 42.306713 76.491157 
L 42.306713 76.188773 
L 42.609096 76.188773 
L 42.91148 76.188773 
L 43.213863 76.79354 
L 43.516247 77.095924 
L 43.81863 77.398307 
L 43.81863 77.095924 
L 43.81863 76.79354 
L 43.81863 76.188773 
L 44.121014 75.584007 
L 44.423397 74.97924 
L 44.72578 74.97924 
L 45.028164 74.97924 
L 45.632931 75.584007 
L 45.935314 76.491157 
L 46.237697 76.79354 
L 46.540081 77.095924 
" style="fill:none;stroke:#8c8c8c;stroke-linecap:square;"/>
   </g>
   <g id="line2d_24">
    <path clip-path="url(#p87bc0d5163)" d="M 48.656765 76.188773 
L 48.656765 75.88639 
L 48.959148 75.88639 
L 48.959148 75.584007 
L 48.959148 75.281623 
L 48.656765 75.281623 
L 48.354381 75.281623 
L 48.051998 75.584007 
L 47.749614 76.188773 
L 47.749614 76.491157 
L 48.051998 76.79354 
L 48.354381 76.79354 
L 48.959148 76.188773 
L 49.261531 75.584007 
L 49.261531 75.281623 
L 49.563915 75.281623 
L 49.563915 75.584007 
L 49.866298 75.88639 
L 49.866298 76.491157 
L 50.168682 77.095924 
L 50.168682 77.398307 
L 50.471065 77.398307 
" style="fill:none;stroke:#8c8c8c;stroke-linecap:square;"/>
   </g>
   <g id="line2d_25">
    <path clip-path="url(#p87bc0d5163)" d="M 50.773448 71.350639 
L 50.471065 71.350639 
L 50.471065 71.048256 
L 50.471065 70.745872 
L 50.773448 71.048256 
L 51.378215 71.350639 
L 52.285365 72.257789 
L 53.494899 73.467323 
L 54.099666 75.281623 
L 54.099666 76.79354 
L 53.797282 77.70069 
" style="fill:none;stroke:#8c8c8c;stroke-linecap:square;"/>
   </g>
   <g id="line2d_26">
    <path clip-path="url(#p87bc0d5163)" d="M 143.605153 108.543798 
L 143.605153 108.241414 
L 143.605153 107.939031 
L 143.30277 107.939031 
L 143.000386 108.241414 
L 142.698003 108.543798 
L 142.39562 109.148564 
L 142.39562 109.753331 
L 142.698003 110.055715 
L 143.000386 110.358098 
L 144.20992 110.358098 
L 144.814687 109.450948 
L 144.814687 108.846181 
L 144.512303 108.241414 
L 143.907537 107.636647 
L 143.30277 107.636647 
L 143.000386 107.636647 
L 142.698003 108.241414 
L 142.698003 108.846181 
L 143.000386 108.846181 
L 143.000386 109.148564 
L 143.000386 108.846181 
" style="fill:none;stroke:#8c8c8c;stroke-linecap:square;"/>
   </g>
   <g id="line2d_27">
    <path clip-path="url(#p87bc0d5163)" d="M 140.581319 106.427114 
L 140.581319 106.12473 
L 140.278936 106.12473 
L 140.278936 105.822347 
L 139.976552 105.519964 
L 139.976552 105.21758 
L 139.674169 104.915197 
L 139.674169 104.612813 
L 139.371785 104.31043 
L 139.069402 104.008046 
L 139.069402 103.705663 
L 138.464635 103.100896 
L 138.464635 102.798513 
L 138.162252 102.496129 
L 137.859868 102.193746 
L 137.255102 101.588979 
L 136.650335 100.681829 
L 136.045568 100.077062 
L 135.138418 99.169912 
L 134.533651 98.262762 
L 133.626501 97.355612 
L 133.021734 96.750845 
L 131.8122 95.541311 
L 130.602667 94.331778 
L 129.393133 93.122244 
L 128.1836 91.91271 
L 126.671683 90.09841 
L 125.159766 88.586493 
L 123.647849 87.376959 
L 122.135932 85.865042 
L 120.926398 84.957892 
L 119.716864 83.748358 
L 118.204947 82.538825 
L 116.69303 81.329291 
L 115.483497 80.119758 
L 114.576346 79.514991 
L 113.366813 78.305457 
L 112.459663 77.095924 
L 111.250129 75.88639 
L 110.342979 74.676856 
L 109.738212 73.769706 
L 108.528678 72.862556 
L 107.319145 71.653022 
L 106.109611 70.745872 
L 105.202461 69.838722 
L 103.992927 68.629188 
L 102.48101 67.419655 
L 100.969093 65.907738 
L 99.75956 65.000587 
L 97.945259 63.791054 
L 96.433342 62.279137 
L 94.619042 61.069603 
L 92.804741 59.557686 
L 91.595208 58.045769 
L 89.780907 56.231469 
L 87.664224 54.417168 
L 85.849923 52.300485 
L 84.035623 50.183801 
L 82.826089 48.974267 
L 81.314172 47.159967 
L 79.802255 45.64805 
L 78.290338 44.136133 
L 77.080804 42.926599 
L 75.568887 41.414682 
L 74.359354 39.902765 
L 73.452204 38.995615 
L 72.847437 38.390848 
L 72.545053 37.786081 
L 71.940287 37.181314 
L 71.940287 36.878931 
L 71.940287 36.576548 
L 71.940287 36.274164 
" style="fill:none;stroke:#8c8c8c;stroke-linecap:square;"/>
   </g>
   <g id="line2d_28">
    <path clip-path="url(#p87bc0d5163)" d="M 70.730753 38.693231 
L 70.730753 38.390848 
L 70.42837 38.390848 
L 70.42837 38.088465 
L 70.42837 37.786081 
L 70.42837 37.483698 
L 70.730753 36.576548 
L 70.730753 35.971781 
L 70.730753 35.669397 
L 71.033136 35.367014 
L 71.33552 35.367014 
L 71.940287 35.367014 
L 72.545053 35.367014 
L 73.14982 35.669397 
L 73.754587 35.669397 
L 74.05697 35.669397 
L 74.359354 35.669397 
L 74.661737 35.669397 
" style="fill:none;stroke:#8c8c8c;stroke-linecap:square;"/>
   </g>
   <g id="line2d_29">
    <path clip-path="url(#p87bc0d5163)" d="M 388.838093 52.905251 
L 388.838093 53.207635 
L 388.53571 53.207635 
L 388.53571 53.510018 
L 388.53571 53.812402 
L 388.53571 54.114785 
L 388.53571 54.417168 
L 388.838093 54.417168 
L 388.838093 54.719552 
L 388.838093 55.021935 
L 388.838093 55.324319 
L 388.838093 55.626702 
L 388.838093 55.929085 
L 389.140476 55.929085 
L 389.140476 56.231469 
L 389.140476 56.533852 
L 389.140476 56.836236 
L 389.44286 57.138619 
L 389.44286 57.441002 
L 389.44286 57.743386 
L 389.745243 58.045769 
L 389.745243 58.348153 
L 390.047627 58.952919 
L 390.35001 59.255303 
L 390.35001 59.557686 
L 390.652393 59.86007 
L 390.954777 60.162453 
L 391.25716 60.464836 
L 391.25716 60.76722 
L 391.559544 61.069603 
L 391.861927 61.371987 
L 392.16431 61.371987 
L 392.466694 61.67437 
L 392.769077 61.976753 
L 393.071461 62.279137 
L 393.071461 62.58152 
L 393.373844 62.883904 
L 393.676227 63.186287 
L 393.978611 63.48867 
L 393.978611 63.791054 
L 394.280994 64.093437 
L 394.583378 64.698204 
L 394.583378 65.000587 
L 394.885761 65.605354 
L 395.188144 65.907738 
L 395.188144 66.512505 
L 395.490528 66.814888 
L 395.792911 67.419655 
L 395.792911 67.722038 
L 396.095295 68.024422 
L 396.095295 68.629188 
L 396.397678 68.931572 
L 396.397678 69.233955 
L 396.700061 69.536339 
L 396.700061 69.838722 
L 397.002445 70.443489 
L 397.002445 70.745872 
L 397.304828 71.048256 
" style="fill:none;stroke:#8c8c8c;stroke-linecap:square;"/>
   </g>
   <g id="line2d_30">
    <path clip-path="url(#p87bc0d5163)" d="M 388.233326 52.602868 
L 388.53571 52.602868 
L 388.53571 53.207635 
L 388.838093 53.207635 
L 388.838093 54.114785 
L 389.140476 54.417168 
L 389.140476 54.719552 
L 389.44286 55.324319 
L 389.44286 55.929085 
L 390.047627 56.533852 
L 390.047627 57.138619 
L 390.35001 57.441002 
L 390.35001 57.743386 
L 391.25716 58.650536 
L 391.25716 58.952919 
L 391.861927 59.557686 
L 391.861927 59.86007 
L 392.16431 60.162453 
L 392.16431 60.464836 
L 392.466694 60.76722 
L 392.466694 61.069603 
L 393.071461 61.67437 
L 393.071461 61.976753 
L 393.373844 61.976753 
L 393.373844 62.279137 
L 393.978611 62.883904 
L 393.978611 63.186287 
L 394.280994 63.186287 
L 394.280994 63.791054 
L 394.583378 64.093437 
L 394.583378 64.698204 
L 394.885761 65.000587 
L 394.885761 65.605354 
L 395.188144 65.907738 
L 395.188144 66.512505 
L 395.490528 66.814888 
L 395.490528 67.722038 
L 395.792911 68.024422 
L 395.792911 68.326805 
L 396.095295 68.629188 
L 396.095295 69.233955 
L 396.397678 69.536339 
L 396.397678 69.838722 
L 396.700061 70.141105 
L 396.700061 70.443489 
L 397.304828 71.048256 
L 397.304828 71.350639 
L 397.607212 71.653022 
L 397.607212 71.955406 
L 398.211978 72.560173 
L 398.211978 72.862556 
L 398.514362 73.164939 
L 398.514362 73.467323 
L 399.723896 74.676856 
L 399.723896 74.97924 
L 401.235813 76.491157 
L 401.235813 77.095924 
L 401.538196 77.398307 
L 401.538196 78.003074 
L 401.840579 78.305457 
L 401.840579 80.422141 
L 401.538196 80.724524 
L 401.538196 81.329291 
L 401.235813 81.934058 
L 401.235813 82.236441 
L 400.328662 83.143592 
L 400.328662 83.445975 
L 399.723896 84.050742 
L 399.723896 84.655509 
L 399.421512 84.957892 
L 399.421512 86.167426 
L 399.723896 86.167426 
L 399.723896 86.469809 
L 400.328662 87.074576 
L 400.933429 87.376959 
L 401.538196 87.981726 
L 402.445346 88.28411 
L 403.050113 88.888876 
L 404.259647 89.493643 
L 404.56203 89.796027 
L 405.166797 90.09841 
L 406.37633 91.307944 
L 406.678714 91.91271 
L 406.981097 92.215094 
L 407.283481 92.819861 
L 407.585864 93.122244 
L 407.888247 93.727011 
L 407.888247 94.331778 
L 408.190631 94.634161 
L 408.493014 95.238928 
L 408.795398 95.541311 
L 408.795398 96.146078 
L 409.097781 96.146078 
L 409.097781 96.750845 
L 409.702548 97.355612 
L 409.702548 97.657995 
L 410.004931 97.657995 
L 410.004931 97.960378 
L 410.609698 98.262762 
L 410.912081 98.262762 
L 410.912081 98.565145 
L 411.819232 98.565145 
L 411.819232 98.867529 
L 412.121615 98.867529 
L 412.726382 99.169912 
L 413.028765 99.169912 
L 413.331149 99.472295 
L 416.657366 99.472295 
L 416.959749 99.774679 
L 417.564516 99.774679 
L 418.169283 100.379446 
L 419.378817 100.984212 
L 419.983584 101.588979 
L 421.193117 102.193746 
L 421.495501 102.496129 
L 422.100267 102.798513 
L 422.705034 103.40328 
L 423.309801 103.705663 
L 424.519335 104.612813 
L 424.519335 104.612813 
" style="fill:none;stroke:#c44e52;stroke-linecap:square;"/>
   </g>
   <g id="line2d_31">
    <path clip-path="url(#p87bc0d5163)" d="M 399.119129 65.907738 
L 399.421512 65.907738 
L 399.723896 65.907738 
L 400.328662 65.907738 
L 400.631046 65.907738 
L 400.933429 65.907738 
L 401.235813 65.605354 
L 402.142963 65.000587 
L 404.56203 63.186287 
L 407.888247 60.76722 
L 413.028765 56.533852 
L 416.959749 52.905251 
L 419.378817 50.788568 
L 420.285967 49.881417 
L 420.58835 49.579034 
L 420.890734 49.276651 
L 421.193117 48.974267 
L 421.495501 48.974267 
L 421.797884 48.974267 
" style="fill:none;stroke:#c44e52;stroke-linecap:square;"/>
   </g>
   <g id="line2d_32">
    <path clip-path="url(#p87bc0d5163)" d="M 432.07892 43.833749 
L 432.381303 43.531366 
L 432.683686 43.228982 
L 432.98607 42.926599 
L 432.98607 42.624216 
L 432.683686 42.321832 
L 432.07892 42.019449 
L 431.474153 42.019449 
L 430.567003 42.624216 
L 430.264619 43.228982 
L 430.567003 44.438516 
L 431.171769 45.64805 
L 432.381303 46.5552 
L 433.590837 46.5552 
L 434.195603 45.950433 
L 434.80037 44.740899 
L 434.195603 43.531366 
L 433.590837 42.019449 
L 432.683686 41.717065 
L 432.07892 41.414682 
L 431.776536 41.717065 
" style="fill:none;stroke:#c44e52;stroke-linecap:square;"/>
   </g>
   <g id="line2d_33">
    <path clip-path="url(#p87bc0d5163)" d="M 435.405137 36.274164 
L 435.405137 35.971781 
L 435.405137 36.274164 
L 435.405137 36.576548 
L 435.70752 37.483698 
L 436.009904 39.600382 
L 436.614671 42.019449 
L 437.219437 44.136133 
L 437.521821 45.043283 
L 437.824204 45.950433 
" style="fill:none;stroke:#c44e52;stroke-linecap:square;"/>
   </g>
   <g id="line2d_34">
    <path clip-path="url(#p87bc0d5163)" d="M 440.545655 41.414682 
L 440.243272 41.112299 
L 440.243272 40.809915 
L 439.940888 40.809915 
L 439.638505 40.809915 
L 439.033738 41.414682 
L 438.731354 42.321832 
L 438.731354 43.228982 
L 439.033738 44.136133 
L 439.638505 44.438516 
L 440.243272 44.438516 
L 440.848038 43.833749 
L 441.150422 42.624216 
L 441.150422 40.809915 
L 440.545655 38.088465 
L 439.940888 36.274164 
L 439.336121 35.367014 
L 439.336121 35.064631 
L 439.336121 35.367014 
L 439.336121 35.669397 
L 439.638505 37.181314 
L 440.243272 39.600382 
L 441.150422 41.717065 
L 442.057572 43.228982 
L 442.662339 44.136133 
L 442.964722 44.136133 
" style="fill:none;stroke:#c44e52;stroke-linecap:square;"/>
   </g>
   <g id="line2d_35">
    <path clip-path="url(#p87bc0d5163)" d="M 443.871872 42.926599 
L 443.871872 42.624216 
L 443.871872 42.321832 
L 444.174256 42.019449 
L 444.174256 41.717065 
L 444.476639 40.809915 
L 444.476639 39.902765 
L 444.476639 38.995615 
L 444.174256 38.390848 
L 443.871872 38.088465 
L 443.267106 38.390848 
L 442.964722 39.600382 
L 442.964722 41.112299 
L 443.569489 42.019449 
L 444.476639 42.321832 
L 445.081406 42.321832 
" style="fill:none;stroke:#c44e52;stroke-linecap:square;"/>
   </g>
   <g id="line2d_36">
    <path clip-path="url(#p87bc0d5163)" d="M 448.10524 38.995615 
L 447.802857 38.390848 
L 447.500473 38.390848 
L 446.895706 38.390848 
L 446.593323 38.995615 
L 446.29094 39.297998 
L 446.29094 39.902765 
L 446.593323 40.205148 
L 447.19809 40.205148 
L 448.10524 40.809915 
L 448.710007 41.112299 
L 449.314774 42.019449 
L 449.617157 42.926599 
L 449.617157 43.833749 
L 449.314774 44.740899 
L 449.314774 45.043283 
" style="fill:none;stroke:#c44e52;stroke-linecap:square;"/>
   </g>
   <g id="line2d_37">
    <path clip-path="url(#p87bc0d5163)" d="M 450.826691 38.088465 
L 450.826691 37.786081 
L 450.826691 37.483698 
L 451.129074 37.483698 
L 451.431457 38.088465 
L 451.733841 38.995615 
L 452.338608 40.507532 
L 452.640991 41.717065 
" style="fill:none;stroke:#c44e52;stroke-linecap:square;"/>
   </g>
   <g id="line2d_38">
    <path clip-path="url(#p87bc0d5163)" d="M 450.826691 40.507532 
L 450.524307 40.507532 
L 450.826691 40.507532 
L 451.129074 40.205148 
L 452.338608 39.902765 
L 453.548141 39.297998 
L 454.455291 38.995615 
L 454.757675 38.693231 
" style="fill:none;stroke:#c44e52;stroke-linecap:square;"/>
   </g>
   <g id="line2d_39">
    <path clip-path="url(#p87bc0d5163)" d="M 467.760161 35.971781 
L 467.457778 35.669397 
L 467.155394 35.669397 
L 467.155394 35.971781 
L 466.853011 35.971781 
L 466.853011 36.274164 
L 466.853011 36.878931 
L 467.155394 38.693231 
L 467.760161 39.600382 
L 468.667311 40.205148 
L 469.574462 39.600382 
L 469.876845 38.693231 
L 469.876845 37.181314 
L 468.969695 35.669397 
L 468.364928 34.762247 
L 467.457778 34.459864 
L 466.853011 34.762247 
L 466.550628 35.367014 
L 466.550628 35.971781 
L 466.853011 35.971781 
" style="fill:none;stroke:#c44e52;stroke-linecap:square;"/>
   </g>
   <g id="line2d_40">
    <path clip-path="url(#p87bc0d5163)" d="M 473.807829 38.390848 
L 473.807829 38.693231 
L 473.807829 38.995615 
L 473.807829 39.297998 
L 474.110213 39.297998 
L 474.412596 39.297998 
L 474.412596 38.995615 
" style="fill:none;stroke:#c44e52;stroke-linecap:square;"/>
   </g>
   <g id="line2d_41">
    <path clip-path="url(#p87bc0d5163)" d="M 480.460264 31.738413 
L 480.460264 31.43603 
L 480.157881 31.43603 
L 479.855497 31.43603 
L 479.553114 32.34318 
L 478.948347 32.947947 
L 478.34358 34.459864 
L 478.645964 35.971781 
L 479.553114 37.181314 
L 480.157881 37.483698 
L 481.367414 37.786081 
L 482.274565 37.483698 
L 482.576948 36.878931 
L 482.879331 36.576548 
" style="fill:none;stroke:#c44e52;stroke-linecap:square;"/>
   </g>
   <g id="line2d_42">
    <path clip-path="url(#p87bc0d5163)" d="M 484.693632 34.762247 
L 484.693632 35.064631 
L 484.996015 35.367014 
L 484.996015 35.669397 
L 485.298399 35.669397 
" style="fill:none;stroke:#c44e52;stroke-linecap:square;"/>
   </g>
   <g id="line2d_43">
    <path clip-path="url(#p87bc0d5163)" d="M 500.719952 31.133646 
L 500.719952 30.831263 
L 501.022336 30.831263 
L 501.022336 30.52888 
L 501.022336 30.226496 
L 501.022336 29.924113 
L 500.719952 29.924113 
L 500.115185 30.226496 
L 499.510419 30.52888 
L 498.905652 31.133646 
L 498.603268 31.738413 
L 498.905652 32.34318 
L 499.208035 32.947947 
L 499.812802 33.25033 
L 500.115185 33.25033 
L 500.417569 33.25033 
L 500.719952 33.25033 
L 501.022336 33.25033 
L 501.324719 33.25033 
L 501.627102 33.25033 
L 501.627102 32.947947 
L 501.929486 32.947947 
L 502.231869 32.947947 
L 502.534253 32.947947 
L 502.836636 32.947947 
L 503.139019 32.947947 
L 503.743786 33.25033 
L 504.348553 34.15748 
L 504.348553 34.762247 
L 504.04617 35.669397 
L 503.743786 35.971781 
L 502.836636 36.576548 
L 501.929486 36.274164 
L 501.324719 35.669397 
L 501.022336 34.762247 
L 501.022336 34.459864 
" style="fill:none;stroke:#c44e52;stroke-linecap:square;"/>
   </g>
   <g id="line2d_44">
    <path clip-path="url(#p87bc0d5163)" d="M 506.465237 31.738413 
L 506.465237 32.040797 
L 506.465237 32.34318 
L 506.76762 32.645563 
L 507.372387 33.25033 
L 507.977154 33.552714 
L 508.581921 33.25033 
L 508.884304 33.25033 
L 508.884304 32.645563 
L 508.581921 32.040797 
L 508.581921 31.738413 
L 508.581921 31.133646 
" style="fill:none;stroke:#c44e52;stroke-linecap:square;"/>
   </g>
   <g id="line2d_45">
    <path clip-path="url(#p87bc0d5163)" d="M 512.815288 29.924113 
L 512.512905 29.924113 
L 512.512905 29.621729 
L 512.210521 29.621729 
L 512.210521 29.319346 
L 511.908138 29.319346 
L 511.605755 29.621729 
L 511.000988 30.226496 
L 510.698604 31.133646 
L 510.093838 31.738413 
L 510.093838 32.34318 
L 510.093838 32.947947 
L 510.698604 33.25033 
L 511.000988 33.552714 
L 511.605755 33.25033 
L 512.210521 32.947947 
L 512.512905 32.040797 
L 512.512905 30.831263 
L 512.210521 29.319346 
L 511.908138 27.807429 
L 511.605755 26.900279 
L 511.000988 25.993128 
L 510.698604 25.085978 
L 510.698604 24.783595 
L 510.396221 24.481211 
L 510.093838 24.481211 
L 510.093838 24.783595 
L 510.093838 25.085978 
L 510.698604 26.295512 
L 511.303371 27.505046 
L 512.210521 29.621729 
L 512.815288 30.831263 
L 513.420055 31.738413 
L 513.722438 32.34318 
L 514.024822 32.34318 
" style="fill:none;stroke:#c44e52;stroke-linecap:square;"/>
   </g>
   <g id="line2d_46">
    <path clip-path="url(#p87bc0d5163)" d="M 505.255703 32.645563 
L 504.95332 32.645563 
L 505.255703 32.947947 
L 505.255703 33.25033 
L 505.255703 33.552714 
L 505.558087 33.552714 
L 505.86047 34.15748 
L 506.465237 34.762247 
L 506.76762 35.064631 
L 507.070004 35.064631 
L 507.372387 35.064631 
L 507.67477 35.064631 
L 507.977154 34.762247 
L 508.279537 34.762247 
L 508.581921 34.762247 
L 508.581921 34.459864 
L 508.581921 34.15748 
L 508.279537 33.855097 
L 507.977154 33.552714 
L 507.67477 32.947947 
L 507.372387 32.34318 
L 507.372387 32.040797 
L 507.070004 31.738413 
" style="fill:none;stroke:#c44e52;stroke-linecap:square;"/>
   </g>
   <g id="line2d_47">
    <path clip-path="url(#p87bc0d5163)" d="M 508.581921 28.412196 
L 508.279537 28.109812 
L 507.977154 28.109812 
L 508.279537 28.412196 
L 508.581921 29.319346 
L 509.186687 30.52888 
L 509.791454 31.738413 
L 510.396221 32.645563 
L 510.698604 33.25033 
L 511.000988 33.25033 
L 511.000988 32.947947 
L 511.000988 32.645563 
L 511.000988 32.34318 
L 511.000988 31.738413 
L 511.303371 31.738413 
L 511.605755 31.43603 
L 511.908138 31.133646 
L 512.210521 31.43603 
L 512.815288 31.738413 
L 513.117672 32.34318 
L 513.117672 33.25033 
L 512.815288 33.855097 
L 512.210521 34.15748 
L 511.605755 34.15748 
L 511.303371 33.855097 
L 511.000988 33.855097 
" style="fill:none;stroke:#c44e52;stroke-linecap:square;"/>
   </g>
   <g id="line2d_48">
    <path clip-path="url(#p87bc0d5163)" d="M 515.234355 31.133646 
L 515.234355 30.831263 
L 515.536739 30.831263 
L 515.536739 30.52888 
L 515.234355 30.52888 
L 514.931972 30.52888 
L 514.629589 30.831263 
L 514.629589 31.43603 
L 514.629589 32.34318 
L 514.931972 32.645563 
L 515.536739 32.947947 
L 516.141506 32.947947 
L 516.443889 32.34318 
L 516.443889 31.738413 
L 516.141506 30.226496 
L 515.536739 28.714579 
L 515.234355 27.505046 
L 514.931972 26.597895 
L 514.629589 26.295512 
L 514.629589 26.597895 
L 514.931972 26.597895 
L 515.234355 27.505046 
L 515.839122 29.016963 
L 517.048656 30.831263 
L 517.955806 32.040797 
L 518.560573 32.34318 
L 519.16534 32.040797 
" style="fill:none;stroke:#c44e52;stroke-linecap:square;"/>
   </g>
   <g id="line2d_49">
    <path clip-path="url(#p87bc0d5163)" d="M 519.770107 29.621729 
L 519.770107 29.319346 
L 519.770107 29.016963 
L 519.467723 29.016963 
L 519.467723 28.714579 
L 519.16534 28.412196 
L 519.16534 28.714579 
L 519.16534 29.016963 
L 518.862956 29.319346 
L 519.16534 29.924113 
L 519.770107 30.52888 
L 520.677257 31.133646 
L 521.282024 31.43603 
L 522.189174 31.133646 
L 522.491557 30.226496 
L 522.491557 29.621729 
L 522.189174 28.412196 
L 521.88679 27.807429 
L 521.584407 27.505046 
L 521.584407 27.202662 
" style="fill:none;stroke:#c44e52;stroke-linecap:square;"/>
   </g>
   <g id="line2d_50">
    <path clip-path="url(#p87bc0d5163)" d="M 524.305858 26.597895 
L 524.305858 26.295512 
L 524.305858 26.597895 
L 524.003474 26.597895 
L 523.701091 27.505046 
L 523.398707 28.412196 
L 523.398707 29.319346 
L 524.003474 29.924113 
L 524.608241 30.226496 
L 525.515391 30.52888 
L 526.120158 30.226496 
L 526.724925 29.319346 
L 527.027308 28.412196 
" style="fill:none;stroke:#c44e52;stroke-linecap:square;"/>
   </g>
   <g id="line2d_51">
    <path clip-path="url(#p87bc0d5163)" d="M 526.422541 24.783595 
L 526.422541 24.481211 
L 526.724925 24.783595 
L 527.329692 26.295512 
L 527.632075 27.505046 
L 528.236842 29.016963 
L 528.539225 29.621729 
" style="fill:none;stroke:#c44e52;stroke-linecap:square;"/>
   </g>
   <g id="line2d_52">
    <path clip-path="url(#p87bc0d5163)" d="M 525.817775 26.597895 
L 525.817775 26.900279 
L 526.120158 26.900279 
L 526.422541 26.900279 
L 527.027308 26.900279 
L 528.236842 26.295512 
L 528.841609 25.993128 
L 529.446375 25.690745 
" style="fill:none;stroke:#c44e52;stroke-linecap:square;"/>
   </g>
   <g id="line2d_53">
    <path clip-path="url(#p87bc0d5163)" d="M 531.563059 24.178828 
L 531.865443 23.876445 
L 531.865443 23.574061 
L 531.563059 23.574061 
L 531.260676 23.574061 
L 530.353526 24.178828 
L 530.051142 24.481211 
L 529.748759 25.085978 
L 530.353526 25.388362 
L 530.958292 25.690745 
L 532.167826 26.295512 
L 533.37736 26.597895 
L 534.28451 27.202662 
L 534.889277 28.109812 
L 534.889277 29.016963 
L 534.586893 29.319346 
L 533.982126 29.924113 
L 533.679743 29.924113 
" style="fill:none;stroke:#c44e52;stroke-linecap:square;"/>
   </g>
  </g>
 </g>
 <defs>
  <clipPath id="p87bc0d5163">
   <rect height="140.698997" width="552.817337" x="7.2" y="7.2"/>
  </clipPath>
 </defs>
</svg>
