<?xml version="1.0" encoding="utf-8" standalone="no"?>
<!DOCTYPE svg PUBLIC "-//W3C//DTD SVG 1.1//EN"
  "http://www.w3.org/Graphics/SVG/1.1/DTD/svg11.dtd">
<!-- Created with matplotlib (https://matplotlib.org/) -->
<svg height="286.2pt" version="1.1" viewBox="0 0 559.941429 286.2" width="559.941429pt" xmlns="http://www.w3.org/2000/svg" xmlns:xlink="http://www.w3.org/1999/xlink">
 <metadata>
  <rdf:RDF xmlns:cc="http://creativecommons.org/ns#" xmlns:dc="http://purl.org/dc/elements/1.1/" xmlns:rdf="http://www.w3.org/1999/02/22-rdf-syntax-ns#">
   <cc:Work>
    <dc:type rdf:resource="http://purl.org/dc/dcmitype/StillImage"/>
    <dc:date>2024-11-15T16:04:22.978015</dc:date>
    <dc:format>image/svg+xml</dc:format>
    <dc:creator>
     <cc:Agent>
      <dc:title>Matplotlib v3.3.4, https://matplotlib.org/</dc:title>
     </cc:Agent>
    </dc:creator>
   </cc:Work>
  </rdf:RDF>
 </metadata>
 <defs>
  <style type="text/css">*{stroke-linecap:butt;stroke-linejoin:round;}</style>
 </defs>
 <g id="figure_1">
  <g id="patch_1">
   <path d="M 0 286.2 
L 559.941429 286.2 
L 559.941429 0 
L 0 0 
z
" style="fill:#ffffff;"/>
  </g>
  <g id="axes_1">
   <g id="line2d_1">
    <path clip-path="url(#p3edea3be0c)" d="M 112.831364 143.452987 
L 112.831364 143.805974 
L 112.478377 143.805974 
L 112.478377 144.158961 
L 112.478377 144.511948 
L 112.12539 144.511948 
L 112.12539 144.864935 
L 112.12539 145.217922 
L 112.12539 145.570909 
L 112.12539 145.923896 
L 112.478377 146.276883 
L 112.478377 146.62987 
L 112.831364 147.335844 
L 112.831364 147.688831 
L 113.184351 148.041818 
L 113.537338 148.394805 
L 113.890325 149.100779 
L 114.243312 149.100779 
L 114.596299 149.453766 
L 114.949286 149.453766 
L 115.302273 149.453766 
L 115.65526 149.453766 
L 116.008247 149.453766 
L 116.361234 149.100779 
L 116.714221 149.100779 
L 117.067208 148.747792 
L 117.420195 148.394805 
L 117.420195 148.041818 
L 117.420195 147.335844 
L 117.420195 146.276883 
L 117.067208 145.217922 
L 116.714221 144.158961 
L 116.008247 143.452987 
L 115.302273 142.747013 
L 114.949286 142.041039 
L 114.596299 142.041039 
L 114.243312 142.041039 
L 113.184351 142.041039 
L 112.831364 142.394026 
L 112.478377 142.394026 
" style="fill:none;stroke:#c44e52;stroke-linecap:square;"/>
   </g>
   <g id="line2d_2">
    <path clip-path="url(#p3edea3be0c)" d="M 100.829805 142.394026 
L 100.829805 142.041039 
L 100.476818 142.041039 
L 100.476818 142.394026 
L 100.476818 142.747013 
L 100.476818 143.1 
L 100.123831 144.158961 
L 100.123831 145.217922 
L 100.123831 146.276883 
L 100.476818 146.982857 
L 100.829805 148.041818 
L 101.535779 148.394805 
L 101.888766 149.100779 
L 102.59474 149.100779 
L 103.653701 149.100779 
L 104.359675 148.747792 
L 104.712662 148.394805 
L 105.418636 147.688831 
L 105.418636 146.276883 
L 104.712662 144.864935 
L 104.359675 144.158961 
L 103.653701 143.1 
L 102.947727 142.747013 
L 102.241753 142.747013 
L 101.535779 142.747013 
" style="fill:none;stroke:#c44e52;stroke-linecap:square;"/>
   </g>
   <g id="line2d_3">
    <path clip-path="url(#p3edea3be0c)" d="M 131.892662 144.158961 
L 131.892662 143.805974 
L 131.892662 144.158961 
L 131.892662 144.511948 
L 131.539675 144.864935 
L 131.539675 145.217922 
L 131.539675 145.570909 
L 131.892662 146.276883 
L 131.892662 146.982857 
L 132.598636 147.688831 
L 132.598636 148.041818 
L 133.30461 148.041818 
L 133.30461 148.394805 
L 133.657597 148.394805 
L 134.363571 148.394805 
L 134.363571 148.041818 
L 134.716558 147.688831 
L 134.716558 146.62987 
L 134.363571 145.217922 
L 134.010584 144.158961 
L 133.30461 143.805974 
L 132.951623 143.452987 
L 132.598636 143.805974 
L 132.245649 144.158961 
L 131.892662 144.158961 
" style="fill:none;stroke:#c44e52;stroke-linecap:square;"/>
   </g>
   <g id="line2d_4">
    <path clip-path="url(#p3edea3be0c)" d="M 139.658377 142.747013 
L 139.658377 143.1 
L 139.658377 143.452987 
L 139.30539 143.452987 
L 139.30539 144.158961 
L 138.952403 145.217922 
L 138.599416 145.923896 
L 138.599416 146.276883 
L 138.599416 146.62987 
L 138.952403 147.335844 
L 139.30539 148.041818 
L 139.658377 148.394805 
L 140.364351 148.747792 
L 140.717338 149.100779 
L 141.423312 149.100779 
L 142.129286 149.100779 
L 142.83526 149.100779 
L 143.188247 148.394805 
L 143.894221 147.335844 
L 143.894221 146.62987 
L 143.894221 145.570909 
L 143.541234 144.864935 
L 143.188247 144.158961 
L 142.129286 143.805974 
L 141.423312 143.805974 
L 140.717338 143.805974 
L 140.011364 144.158961 
L 139.658377 144.158961 
L 139.30539 144.158961 
" style="fill:none;stroke:#c44e52;stroke-linecap:square;"/>
   </g>
   <g id="line2d_5">
    <path clip-path="url(#p3edea3be0c)" d="M 112.478377 54.147273 
L 112.478377 53.794286 
L 112.478377 54.147273 
L 112.478377 54.50026 
L 112.831364 55.206234 
L 112.831364 55.912208 
L 113.184351 56.971169 
L 113.184351 57.324156 
L 113.184351 57.677143 
" style="fill:none;stroke:#c44e52;stroke-linecap:square;"/>
   </g>
   <g id="line2d_6">
    <path clip-path="url(#p3edea3be0c)" d="M 110.360455 48.852468 
L 110.360455 48.499481 
L 110.360455 48.146494 
L 110.713442 48.146494 
L 110.713442 48.499481 
" style="fill:none;stroke:#c44e52;stroke-linecap:square;"/>
   </g>
   <g id="line2d_7">
    <path clip-path="url(#p3edea3be0c)" d="M 114.949286 54.147273 
L 114.949286 54.50026 
L 114.949286 54.853247 
L 115.302273 54.853247 
L 115.302273 55.206234 
L 115.302273 55.559221 
L 115.65526 55.912208 
L 115.65526 56.265195 
L 115.65526 56.618182 
L 116.008247 56.618182 
L 116.008247 56.265195 
L 116.008247 55.912208 
L 116.008247 55.206234 
L 116.008247 53.794286 
L 116.008247 53.088312 
L 116.008247 52.735325 
L 116.361234 52.735325 
L 116.714221 52.382338 
L 117.067208 52.735325 
L 117.420195 53.088312 
L 117.420195 53.441299 
L 117.773182 54.853247 
L 118.479156 56.265195 
L 118.479156 57.324156 
L 118.479156 57.677143 
L 118.832143 57.677143 
" style="fill:none;stroke:#c44e52;stroke-linecap:square;"/>
   </g>
   <g id="line2d_8">
    <path clip-path="url(#p3edea3be0c)" d="M 118.832143 52.735325 
L 119.18513 52.382338 
L 119.18513 51.676364 
L 119.18513 51.323377 
L 119.538117 51.323377 
L 119.891104 51.323377 
L 119.891104 51.676364 
L 120.244091 53.088312 
L 120.597078 54.147273 
L 120.950065 55.912208 
L 121.303052 56.971169 
" style="fill:none;stroke:#c44e52;stroke-linecap:square;"/>
   </g>
   <g id="line2d_9">
    <path clip-path="url(#p3edea3be0c)" d="M 119.891104 53.794286 
L 119.538117 53.794286 
L 119.891104 54.147273 
L 120.244091 54.147273 
L 120.597078 54.147273 
L 120.950065 54.147273 
L 121.303052 54.147273 
L 121.656039 53.794286 
L 122.009026 53.441299 
" style="fill:none;stroke:#c44e52;stroke-linecap:square;"/>
   </g>
   <g id="line2d_10">
    <path clip-path="url(#p3edea3be0c)" d="M 122.715 53.088312 
L 122.715 52.735325 
L 123.067987 52.735325 
L 123.420974 52.735325 
L 123.420974 52.382338 
L 123.773961 52.382338 
L 123.773961 52.029351 
L 124.479935 51.323377 
L 124.479935 50.97039 
L 124.832922 50.617403 
L 124.479935 50.617403 
L 124.126948 50.97039 
L 123.773961 51.676364 
L 123.420974 53.441299 
L 123.420974 54.50026 
L 123.773961 55.206234 
L 124.832922 55.559221 
L 125.538896 55.206234 
L 126.24487 54.853247 
L 126.950844 54.147273 
L 127.303831 53.441299 
L 127.303831 53.088312 
L 127.656818 53.088312 
L 128.009805 53.088312 
L 128.362792 53.441299 
L 128.715779 54.147273 
L 129.421753 54.853247 
L 129.421753 55.206234 
L 129.77474 55.206234 
L 129.77474 54.853247 
L 129.77474 54.147273 
L 129.77474 53.088312 
L 130.127727 52.029351 
L 130.127727 51.676364 
" style="fill:none;stroke:#c44e52;stroke-linecap:square;"/>
   </g>
   <g id="line2d_11">
    <path clip-path="url(#p3edea3be0c)" d="M 134.363571 50.617403 
L 134.010584 50.617403 
L 133.657597 50.617403 
L 133.657597 50.97039 
L 132.951623 51.323377 
L 132.245649 51.676364 
L 131.892662 52.735325 
L 132.245649 53.441299 
L 132.598636 53.441299 
L 132.951623 53.441299 
L 133.30461 52.735325 
L 133.657597 51.676364 
L 133.657597 50.97039 
L 133.657597 50.617403 
L 134.010584 50.617403 
L 134.010584 50.97039 
L 134.716558 51.323377 
L 135.422532 52.735325 
L 136.128506 54.147273 
L 136.834481 55.559221 
L 136.834481 57.324156 
L 136.481494 58.03013 
L 135.775519 59.089091 
L 135.069545 59.442078 
L 134.716558 59.442078 
L 134.716558 59.089091 
L 134.716558 58.03013 
" style="fill:none;stroke:#c44e52;stroke-linecap:square;"/>
   </g>
   <g id="line2d_12">
    <path clip-path="url(#p3edea3be0c)" d="M 135.069545 47.793506 
L 135.069545 47.087532 
L 135.069545 46.734545 
L 135.422532 46.381558 
L 135.775519 46.734545 
L 135.775519 47.087532 
L 136.128506 47.793506 
L 137.187468 49.558442 
L 137.893442 51.323377 
L 138.952403 53.088312 
L 139.658377 53.794286 
" style="fill:none;stroke:#c44e52;stroke-linecap:square;"/>
   </g>
   <g id="line2d_13">
    <path clip-path="url(#p3edea3be0c)" d="M 141.070325 50.617403 
L 141.070325 50.264416 
L 141.070325 49.911429 
L 140.717338 49.911429 
L 140.364351 49.911429 
L 139.658377 50.264416 
L 139.30539 50.97039 
L 138.952403 52.029351 
L 139.30539 52.382338 
L 139.658377 52.735325 
L 140.364351 52.382338 
L 141.070325 51.676364 
L 141.776299 50.97039 
L 142.129286 49.911429 
L 142.129286 49.558442 
L 142.129286 49.205455 
L 142.482273 49.558442 
L 143.188247 50.617403 
L 144.247208 52.382338 
L 144.953182 53.088312 
L 145.659156 53.794286 
L 146.012143 53.794286 
L 146.012143 53.441299 
" style="fill:none;stroke:#c44e52;stroke-linecap:square;"/>
   </g>
   <g id="line2d_14">
    <path clip-path="url(#p3edea3be0c)" d="M 147.071104 49.558442 
L 147.071104 49.205455 
L 147.071104 48.852468 
L 147.071104 48.499481 
L 147.071104 48.146494 
L 146.718117 48.146494 
L 146.718117 48.499481 
L 146.36513 48.852468 
L 146.012143 49.911429 
L 146.012143 50.617403 
L 146.718117 51.676364 
L 147.777078 52.029351 
L 148.836039 52.029351 
L 150.247987 51.676364 
L 150.600974 51.323377 
L 150.953961 50.97039 
" style="fill:none;stroke:#c44e52;stroke-linecap:square;"/>
   </g>
   <g id="line2d_15">
    <path clip-path="url(#p3edea3be0c)" d="M 151.306948 48.146494 
L 151.659935 48.146494 
L 151.659935 48.499481 
L 152.012922 48.852468 
L 152.365909 49.558442 
L 153.071883 49.911429 
L 153.071883 50.264416 
" style="fill:none;stroke:#c44e52;stroke-linecap:square;"/>
   </g>
   <g id="line2d_16">
    <path clip-path="url(#p3edea3be0c)" d="M 152.012922 47.087532 
L 151.659935 45.675584 
L 151.306948 44.616623 
L 151.306948 44.263636 
L 151.306948 43.910649 
L 151.306948 43.557662 
L 151.659935 43.557662 
" style="fill:none;stroke:#c44e52;stroke-linecap:square;"/>
   </g>
   <g id="line2d_17">
    <path clip-path="url(#p3edea3be0c)" d="M 155.542792 45.322597 
L 155.542792 45.675584 
L 155.189805 45.675584 
L 155.189805 46.028571 
L 154.836818 47.087532 
L 154.483831 47.793506 
L 154.483831 48.499481 
L 155.189805 49.205455 
L 155.542792 49.205455 
L 156.248766 49.205455 
L 156.95474 48.852468 
L 156.95474 47.793506 
L 156.95474 46.381558 
L 156.95474 44.96961 
L 156.601753 44.263636 
L 156.601753 43.910649 
L 156.601753 44.263636 
L 156.95474 44.616623 
L 157.660714 46.028571 
L 158.013701 47.087532 
L 158.719675 48.146494 
L 159.072662 48.499481 
" style="fill:none;stroke:#c44e52;stroke-linecap:square;"/>
   </g>
   <g id="line2d_18">
    <path clip-path="url(#p3edea3be0c)" d="M 159.778636 40.380779 
L 159.778636 40.027792 
L 159.778636 39.674805 
L 160.131623 39.674805 
L 160.131623 40.027792 
L 160.837597 41.086753 
L 161.543571 42.851688 
L 162.249545 44.263636 
L 162.602532 45.322597 
L 162.955519 45.675584 
" style="fill:none;stroke:#c44e52;stroke-linecap:square;"/>
   </g>
   <g id="line2d_19">
    <path clip-path="url(#p3edea3be0c)" d="M 159.778636 59.089091 
L 159.778636 59.442078 
L 160.131623 59.442078 
L 160.48461 59.442078 
L 160.837597 59.442078 
L 161.190584 59.089091 
L 161.896558 58.736104 
L 161.896558 58.383117 
L 161.543571 56.971169 
L 160.837597 56.265195 
L 159.778636 55.206234 
L 159.072662 54.853247 
L 158.366688 54.853247 
L 158.013701 54.853247 
L 157.660714 55.559221 
L 157.660714 56.971169 
L 158.013701 58.03013 
L 159.072662 59.795065 
L 160.131623 61.207013 
L 161.190584 62.618961 
L 161.896558 63.677922 
L 162.249545 63.677922 
L 162.249545 63.324935 
" style="fill:none;stroke:#c44e52;stroke-linecap:square;"/>
   </g>
   <g id="line2d_20">
    <path clip-path="url(#p3edea3be0c)" d="M 162.602532 56.265195 
L 162.602532 56.618182 
L 162.955519 56.618182 
L 164.014481 56.265195 
L 164.720455 55.912208 
L 165.073442 55.206234 
L 165.073442 54.853247 
L 164.720455 53.794286 
L 164.367468 53.441299 
L 163.661494 53.441299 
L 162.955519 54.147273 
L 162.602532 55.559221 
L 162.602532 56.618182 
L 163.308506 57.324156 
L 164.720455 58.03013 
L 165.779416 58.03013 
L 166.838377 57.324156 
L 167.897338 56.618182 
" style="fill:none;stroke:#c44e52;stroke-linecap:square;"/>
   </g>
   <g id="line2d_21">
    <path clip-path="url(#p3edea3be0c)" d="M 167.897338 54.147273 
L 167.897338 53.794286 
L 167.544351 53.794286 
L 167.897338 54.147273 
L 168.250325 54.147273 
L 168.250325 54.50026 
L 168.956299 55.559221 
L 169.662273 56.265195 
L 170.01526 56.971169 
L 170.01526 57.324156 
L 169.662273 56.618182 
L 169.662273 55.559221 
L 169.662273 54.147273 
L 169.662273 53.441299 
L 170.01526 52.735325 
L 170.368247 52.382338 
" style="fill:none;stroke:#c44e52;stroke-linecap:square;"/>
   </g>
   <g id="line2d_22">
    <path clip-path="url(#p3edea3be0c)" d="M 172.133182 52.735325 
L 172.133182 53.088312 
L 172.486169 53.088312 
L 173.192143 54.147273 
L 173.54513 55.206234 
L 174.251104 55.912208 
L 174.604091 56.265195 
L 174.957078 55.912208 
L 174.604091 54.853247 
L 173.898117 53.441299 
L 173.192143 51.676364 
L 173.192143 50.97039 
L 172.839156 50.264416 
L 173.192143 50.264416 
L 173.192143 49.911429 
L 173.54513 49.911429 
" style="fill:none;stroke:#c44e52;stroke-linecap:square;"/>
   </g>
   <g id="line2d_23">
    <path clip-path="url(#p3edea3be0c)" d="M 176.369026 51.676364 
L 176.369026 52.029351 
L 176.369026 52.382338 
L 176.016039 53.441299 
L 175.663052 54.147273 
L 176.016039 55.206234 
L 176.722013 55.912208 
L 177.780974 56.265195 
L 178.486948 55.912208 
L 179.192922 55.206234 
L 179.192922 54.147273 
L 178.486948 53.088312 
L 177.780974 52.029351 
L 177.075 52.029351 
L 176.722013 52.029351 
L 176.369026 52.029351 
L 176.369026 52.382338 
" style="fill:none;stroke:#c44e52;stroke-linecap:square;"/>
   </g>
   <g id="line2d_24">
    <path clip-path="url(#p3edea3be0c)" d="M 182.016818 50.617403 
L 182.369805 50.617403 
L 182.369805 50.264416 
L 182.016818 50.264416 
L 182.016818 49.911429 
L 181.310844 50.264416 
L 180.957857 50.97039 
L 180.957857 52.382338 
L 181.663831 53.794286 
L 182.016818 54.50026 
L 182.722792 54.50026 
L 183.075779 53.794286 
L 183.428766 52.735325 
L 182.722792 50.97039 
L 181.663831 48.499481 
L 181.310844 47.087532 
L 180.957857 46.028571 
L 180.957857 45.675584 
L 180.957857 46.028571 
L 181.663831 47.440519 
L 182.369805 48.852468 
L 183.781753 50.97039 
L 184.487727 52.382338 
L 184.840714 53.088312 
L 185.193701 53.088312 
" style="fill:none;stroke:#c44e52;stroke-linecap:square;"/>
   </g>
   <g id="line2d_25">
    <path clip-path="url(#p3edea3be0c)" d="M 187.311623 48.852468 
L 187.311623 48.146494 
L 187.311623 47.793506 
L 186.958636 47.793506 
L 186.605649 48.146494 
L 186.252662 48.499481 
L 185.899675 49.205455 
L 185.899675 49.558442 
L 186.252662 49.911429 
L 186.605649 50.264416 
L 187.311623 51.323377 
L 188.017597 52.029351 
L 188.723571 52.735325 
L 188.723571 53.088312 
" style="fill:none;stroke:#c44e52;stroke-linecap:square;"/>
   </g>
   <g id="line2d_26">
    <path clip-path="url(#p3edea3be0c)" d="M 104.712662 201.342857 
L 104.359675 200.98987 
L 104.006688 200.98987 
L 103.653701 200.98987 
L 103.300714 200.98987 
L 102.947727 200.98987 
L 102.59474 200.98987 
L 102.241753 201.342857 
L 101.888766 201.342857 
L 101.535779 201.342857 
L 101.182792 201.695844 
L 100.829805 201.695844 
L 100.476818 202.048831 
L 100.476818 202.401818 
L 100.123831 202.754805 
L 99.770844 203.107792 
L 99.770844 203.460779 
L 99.417857 204.166753 
L 99.417857 204.872727 
L 99.417857 205.225714 
L 99.770844 205.931688 
L 99.770844 206.284675 
L 99.770844 206.990649 
L 100.123831 207.696623 
L 100.476818 208.04961 
L 100.829805 208.755584 
L 101.535779 209.461558 
L 101.888766 210.167532 
L 102.59474 210.520519 
L 102.947727 210.873506 
L 103.653701 211.226494 
L 104.006688 211.226494 
L 104.712662 211.579481 
L 105.418636 211.579481 
L 106.12461 211.226494 
L 106.830584 211.226494 
L 107.889545 210.873506 
L 108.595519 210.520519 
L 108.948506 210.520519 
L 109.301494 210.167532 
L 109.654481 209.814545 
L 110.007468 209.461558 
L 110.007468 209.108571 
L 110.360455 208.755584 
L 110.360455 208.04961 
L 110.360455 207.343636 
L 110.360455 206.284675 
L 110.007468 205.225714 
L 109.301494 204.166753 
L 108.948506 203.460779 
L 108.242532 202.401818 
L 107.536558 201.695844 
L 106.477597 201.342857 
L 105.418636 200.98987 
L 104.712662 200.636883 
L 103.653701 200.283896 
L 102.947727 200.283896 
L 101.888766 200.636883 
L 101.535779 200.98987 
L 100.829805 201.695844 
L 100.123831 202.401818 
" style="fill:none;stroke:#55a868;stroke-linecap:square;"/>
   </g>
   <g id="line2d_27">
    <path clip-path="url(#p3edea3be0c)" d="M 100.123831 212.638442 
L 100.123831 212.285455 
L 100.476818 212.285455 
L 100.476818 211.932468 
L 100.829805 211.932468 
L 100.476818 211.932468 
L 100.476818 212.285455 
L 100.123831 212.285455 
L 98.358896 213.344416 
L 95.182013 215.109351 
L 90.946169 217.933247 
L 83.886429 223.934026 
L 79.650584 227.110909 
L 75.41474 230.287792 
L 73.296818 232.052727 
L 71.88487 233.111688 
L 71.531883 233.464675 
L 71.178896 233.464675 
L 71.178896 233.111688 
" style="fill:none;stroke:#55a868;stroke-linecap:square;"/>
   </g>
   <g id="line2d_28">
    <path clip-path="url(#p3edea3be0c)" d="M 32.350325 233.111688 
L 32.350325 232.758701 
L 32.350325 232.405714 
L 32.350325 232.758701 
L 32.350325 233.111688 
L 32.350325 233.464675 
L 31.997338 234.170649 
L 31.997338 236.994545 
L 31.997338 238.759481 
L 31.997338 240.524416 
L 31.997338 241.23039 
L 32.703312 241.583377 
L 33.762273 241.583377 
L 35.527208 240.877403 
L 36.586169 240.171429 
L 36.939156 239.818442 
L 37.292143 239.818442 
" style="fill:none;stroke:#55a868;stroke-linecap:square;"/>
   </g>
   <g id="line2d_29">
    <path clip-path="url(#p3edea3be0c)" d="M 37.998117 234.170649 
L 37.998117 234.523636 
L 37.998117 234.876623 
L 37.64513 235.22961 
L 37.292143 236.641558 
L 37.292143 237.700519 
L 37.64513 238.759481 
L 38.351104 239.112468 
L 38.704091 238.759481 
L 39.057078 238.053506 
L 39.410065 236.641558 
L 39.410065 234.876623 
L 39.057078 234.170649 
L 39.410065 234.523636 
L 39.410065 234.876623 
L 39.763052 236.288571 
L 40.116039 238.053506 
L 40.822013 239.112468 
L 41.175 239.465455 
" style="fill:none;stroke:#55a868;stroke-linecap:square;"/>
   </g>
   <g id="line2d_30">
    <path clip-path="url(#p3edea3be0c)" d="M 42.586948 233.817662 
L 42.586948 233.464675 
L 42.586948 233.111688 
L 42.233961 233.111688 
L 41.880974 233.464675 
L 41.880974 233.817662 
L 41.527987 234.170649 
L 41.527987 234.876623 
L 41.527987 235.22961 
L 42.586948 235.22961 
L 43.998896 235.22961 
L 45.410844 235.22961 
L 46.469805 235.582597 
L 47.175779 236.641558 
L 47.175779 237.700519 
L 47.175779 238.759481 
L 46.469805 239.112468 
L 46.116818 239.112468 
" style="fill:none;stroke:#55a868;stroke-linecap:square;"/>
   </g>
   <g id="line2d_31">
    <path clip-path="url(#p3edea3be0c)" d="M 46.469805 230.640779 
L 46.822792 230.287792 
L 46.822792 230.640779 
L 47.528766 231.69974 
L 48.23474 233.111688 
L 49.646688 235.935584 
L 50.352662 237.347532 
L 50.705649 237.700519 
" style="fill:none;stroke:#55a868;stroke-linecap:square;"/>
   </g>
   <g id="line2d_32">
    <path clip-path="url(#p3edea3be0c)" d="M 47.528766 235.582597 
L 46.822792 235.22961 
L 47.175779 235.22961 
L 47.881753 234.170649 
L 49.293701 233.464675 
L 50.705649 232.758701 
L 51.76461 232.405714 
" style="fill:none;stroke:#55a868;stroke-linecap:square;"/>
   </g>
   <g id="line2d_33">
    <path clip-path="url(#p3edea3be0c)" d="M 38.351104 248.643117 
L 38.351104 248.29013 
L 38.351104 247.937143 
L 38.704091 247.937143 
L 38.351104 247.937143 
L 38.351104 248.29013 
L 38.351104 248.996104 
L 38.351104 250.408052 
L 38.704091 251.467013 
L 39.057078 251.82 
L 39.763052 251.467013 
L 40.116039 250.761039 
L 40.116039 250.055065 
L 39.763052 249.349091 
L 39.763052 248.643117 
L 39.410065 248.643117 
L 40.116039 248.996104 
L 41.175 250.055065 
L 42.586948 251.467013 
L 43.998896 253.231948 
L 45.057857 254.996883 
L 45.410844 256.055844 
L 44.70487 257.114805 
L 43.292922 257.820779 
L 41.175 258.526753 
L 40.116039 258.173766 
L 39.763052 256.761818 
L 39.763052 256.055844 
" style="fill:none;stroke:#55a868;stroke-linecap:square;"/>
   </g>
   <g id="line2d_34">
    <path clip-path="url(#p3edea3be0c)" d="M 41.880974 246.172208 
L 42.233961 246.172208 
L 42.233961 245.819221 
L 42.233961 245.466234 
L 42.586948 245.466234 
L 43.292922 246.172208 
L 43.998896 247.584156 
L 45.410844 250.055065 
L 46.116818 251.467013 
L 46.822792 252.172987 
L 47.175779 252.525974 
" style="fill:none;stroke:#55a868;stroke-linecap:square;"/>
   </g>
   <g id="line2d_35">
    <path clip-path="url(#p3edea3be0c)" d="M 48.587727 247.584156 
L 48.587727 247.231169 
L 48.940714 247.231169 
L 48.940714 246.878182 
L 48.587727 246.878182 
L 48.23474 246.878182 
L 48.23474 247.231169 
L 47.528766 247.584156 
L 47.175779 248.996104 
L 47.175779 250.055065 
L 47.175779 250.408052 
L 47.528766 250.408052 
L 48.23474 249.702078 
L 48.940714 248.29013 
L 48.940714 247.231169 
L 48.940714 246.525195 
L 48.940714 246.172208 
L 48.940714 245.819221 
L 49.293701 246.172208 
L 49.646688 246.878182 
L 50.352662 248.29013 
L 52.117597 250.408052 
L 52.823571 251.114026 
L 53.529545 251.467013 
L 53.529545 250.408052 
" style="fill:none;stroke:#55a868;stroke-linecap:square;"/>
   </g>
   <g id="line2d_36">
    <path clip-path="url(#p3edea3be0c)" d="M 53.529545 245.113247 
L 53.529545 244.76026 
L 53.529545 245.113247 
L 53.176558 245.113247 
L 53.176558 246.172208 
L 52.823571 247.584156 
L 52.823571 248.996104 
L 52.823571 249.702078 
L 53.529545 250.408052 
L 54.235519 250.408052 
L 54.941494 250.055065 
L 56.000455 249.349091 
L 56.353442 248.29013 
" style="fill:none;stroke:#55a868;stroke-linecap:square;"/>
   </g>
   <g id="line2d_37">
    <path clip-path="url(#p3edea3be0c)" d="M 56.353442 245.466234 
L 56.706429 245.819221 
L 57.059416 246.172208 
L 57.412403 246.525195 
L 58.118377 247.584156 
L 58.471364 247.937143 
L 58.824351 247.937143 
" style="fill:none;stroke:#55a868;stroke-linecap:square;"/>
   </g>
   <g id="line2d_38">
    <path clip-path="url(#p3edea3be0c)" d="M 56.000455 243.701299 
L 55.647468 242.995325 
L 55.647468 242.642338 
L 55.647468 242.289351 
L 55.647468 241.936364 
L 56.000455 241.936364 
" style="fill:none;stroke:#55a868;stroke-linecap:square;"/>
   </g>
   <g id="line2d_39">
    <path clip-path="url(#p3edea3be0c)" d="M 59.177338 241.936364 
L 59.530325 241.936364 
L 59.530325 242.289351 
L 59.530325 242.995325 
L 59.530325 243.701299 
L 59.530325 244.76026 
L 59.530325 245.819221 
L 59.530325 246.172208 
L 60.236299 246.525195 
L 60.942273 246.172208 
L 61.648247 245.466234 
L 61.648247 244.407273 
L 61.648247 242.642338 
L 60.942273 241.23039 
L 60.942273 239.818442 
L 60.589286 239.465455 
L 60.942273 240.877403 
L 62.001234 242.642338 
L 63.060195 244.407273 
L 63.766169 245.819221 
L 64.472143 246.172208 
L 64.472143 246.525195 
" style="fill:none;stroke:#55a868;stroke-linecap:square;"/>
   </g>
   <g id="line2d_40">
    <path clip-path="url(#p3edea3be0c)" d="M 61.29526 234.876623 
L 61.29526 234.523636 
L 61.29526 234.876623 
L 61.648247 234.876623 
L 62.001234 236.288571 
L 63.413182 238.759481 
L 64.472143 240.524416 
L 65.884091 242.642338 
L 66.590065 244.054286 
L 66.943052 245.113247 
" style="fill:none;stroke:#55a868;stroke-linecap:square;"/>
   </g>
   <g id="line2d_41">
    <path clip-path="url(#p3edea3be0c)" d="M 48.23474 263.468571 
L 48.23474 263.115584 
L 48.587727 263.468571 
L 48.940714 263.821558 
L 49.646688 264.527532 
L 50.352662 265.586494 
L 51.058636 266.292468 
L 51.058636 266.645455 
L 50.705649 266.645455 
L 50.705649 265.939481 
L 49.646688 264.527532 
L 49.293701 263.115584 
L 49.293701 262.056623 
L 49.646688 262.056623 
L 50.352662 262.762597 
L 51.76461 263.468571 
L 52.470584 264.527532 
L 52.823571 264.880519 
L 52.823571 264.880519 
L 52.470584 264.527532 
L 52.117597 263.115584 
L 51.76461 262.056623 
L 51.76461 261.350649 
L 52.117597 260.997662 
L 52.470584 260.997662 
L 53.176558 261.350649 
L 54.235519 262.762597 
L 55.294481 264.527532 
L 55.647468 265.586494 
L 56.000455 266.292468 
" style="fill:none;stroke:#55a868;stroke-linecap:square;"/>
   </g>
   <g id="line2d_42">
    <path clip-path="url(#p3edea3be0c)" d="M 57.059416 260.291688 
L 57.059416 259.938701 
L 57.412403 260.291688 
L 57.76539 260.291688 
L 58.471364 261.350649 
L 59.177338 262.056623 
L 59.530325 262.762597 
L 59.530325 262.40961 
L 59.177338 262.056623 
L 58.118377 260.997662 
L 56.706429 260.291688 
L 55.647468 260.291688 
L 54.941494 260.644675 
L 54.588506 261.350649 
L 54.941494 262.762597 
L 56.000455 263.468571 
L 57.059416 263.821558 
L 58.471364 263.821558 
L 59.530325 262.762597 
" style="fill:none;stroke:#55a868;stroke-linecap:square;"/>
   </g>
   <g id="line2d_43">
    <path clip-path="url(#p3edea3be0c)" d="M 61.648247 258.526753 
L 61.648247 258.87974 
L 61.648247 259.938701 
L 62.001234 261.350649 
L 62.001234 262.40961 
L 62.001234 263.115584 
" style="fill:none;stroke:#55a868;stroke-linecap:square;"/>
   </g>
   <g id="line2d_44">
    <path clip-path="url(#p3edea3be0c)" d="M 58.471364 259.232727 
L 58.471364 258.87974 
L 58.471364 258.526753 
L 58.824351 258.87974 
L 59.530325 258.87974 
L 60.589286 259.585714 
L 62.001234 260.644675 
L 63.413182 261.350649 
L 64.472143 262.056623 
L 64.82513 262.40961 
L 65.178117 262.40961 
" style="fill:none;stroke:#55a868;stroke-linecap:square;"/>
   </g>
   <g id="line2d_45">
    <path clip-path="url(#p3edea3be0c)" d="M 64.119156 258.87974 
L 64.472143 258.87974 
L 64.472143 259.232727 
L 65.531104 259.938701 
L 65.884091 260.291688 
L 66.237078 260.291688 
" style="fill:none;stroke:#55a868;stroke-linecap:square;"/>
   </g>
   <g id="line2d_46">
    <path clip-path="url(#p3edea3be0c)" d="M 63.413182 257.114805 
L 62.707208 256.055844 
L 62.707208 255.702857 
L 62.354221 255.34987 
L 62.707208 255.34987 
" style="fill:none;stroke:#55a868;stroke-linecap:square;"/>
   </g>
   <g id="line2d_47">
    <path clip-path="url(#p3edea3be0c)" d="M 64.82513 256.055844 
L 65.178117 256.408831 
L 65.884091 257.114805 
L 66.590065 257.820779 
L 67.296039 258.87974 
L 68.002013 259.585714 
L 68.355 260.291688 
L 68.707987 260.644675 
L 68.707987 260.291688 
L 68.707987 259.938701 
L 68.355 259.232727 
L 68.002013 257.820779 
L 67.649026 256.408831 
L 68.002013 256.055844 
L 68.355 256.055844 
L 68.707987 256.408831 
L 69.413961 257.467792 
L 69.766948 258.173766 
L 70.119935 258.526753 
L 70.119935 258.87974 
L 70.119935 258.526753 
L 70.119935 257.820779 
L 69.766948 256.761818 
L 69.766948 255.34987 
L 69.766948 254.643896 
L 70.119935 254.290909 
L 70.472922 254.643896 
L 71.178896 255.34987 
L 71.88487 256.761818 
L 72.237857 257.820779 
L 72.590844 258.173766 
L 72.943831 258.173766 
" style="fill:none;stroke:#55a868;stroke-linecap:square;"/>
   </g>
   <g id="line2d_48">
    <path clip-path="url(#p3edea3be0c)" d="M 72.943831 257.114805 
L 72.943831 256.761818 
L 72.943831 256.408831 
L 73.296818 256.408831 
L 73.649805 256.761818 
L 74.355779 257.114805 
L 75.41474 257.467792 
L 76.120714 257.467792 
L 76.473701 256.761818 
L 76.473701 256.055844 
L 76.120714 255.34987 
L 75.767727 254.290909 
L 75.061753 253.584935 
L 74.708766 253.231948 
L 74.355779 252.878961 
" style="fill:none;stroke:#55a868;stroke-linecap:square;"/>
   </g>
   <g id="line2d_49">
    <path clip-path="url(#p3edea3be0c)" d="M 76.473701 252.525974 
L 76.826688 252.525974 
L 77.179675 252.878961 
L 77.179675 253.231948 
L 77.885649 253.937922 
L 78.591623 254.290909 
L 79.297597 254.996883 
L 79.650584 255.34987 
L 79.650584 254.996883 
L 79.650584 253.231948 
L 79.650584 252.525974 
L 79.650584 251.82 
L 80.003571 251.467013 
L 80.356558 251.82 
L 81.062532 252.525974 
L 81.768506 253.231948 
L 82.474481 253.937922 
L 82.474481 253.231948 
L 82.474481 252.172987 
L 82.474481 251.467013 
L 82.474481 250.761039 
L 83.180455 250.408052 
L 83.886429 250.761039 
L 84.592403 251.467013 
L 85.298377 252.172987 
L 85.651364 252.878961 
" style="fill:none;stroke:#55a868;stroke-linecap:square;"/>
   </g>
   <g id="line2d_50">
    <path clip-path="url(#p3edea3be0c)" d="M 492.998377 45.322597 
L 493.351364 45.322597 
L 493.704351 45.322597 
L 494.057338 45.322597 
L 494.057338 44.96961 
L 494.410325 44.96961 
L 494.410325 44.616623 
L 494.763312 44.263636 
L 494.763312 43.910649 
L 494.410325 43.910649 
L 494.410325 43.557662 
L 494.057338 43.557662 
L 493.704351 43.557662 
L 493.351364 43.910649 
L 492.998377 43.910649 
L 492.998377 44.263636 
L 492.64539 44.616623 
L 492.64539 44.96961 
L 492.292403 45.322597 
L 492.64539 45.675584 
L 492.64539 46.028571 
L 492.998377 46.381558 
L 493.351364 46.734545 
L 494.057338 46.734545 
L 494.763312 46.381558 
L 495.469286 45.675584 
L 495.469286 45.322597 
L 495.469286 44.263636 
L 495.116299 43.557662 
L 494.763312 43.557662 
L 494.057338 43.204675 
L 493.704351 43.557662 
L 492.998377 43.910649 
L 492.998377 44.263636 
L 492.64539 44.96961 
L 492.998377 45.322597 
L 493.351364 46.028571 
L 493.704351 46.028571 
L 494.057338 46.028571 
L 494.410325 46.028571 
L 494.763312 45.675584 
L 494.763312 45.322597 
L 494.410325 44.616623 
L 494.057338 43.910649 
L 493.351364 43.557662 
L 492.998377 43.910649 
L 492.292403 44.263636 
L 491.939416 44.96961 
L 492.292403 45.675584 
L 492.64539 46.381558 
L 492.998377 46.734545 
L 494.057338 46.381558 
L 494.410325 46.381558 
L 495.116299 45.675584 
L 495.116299 45.322597 
L 494.763312 44.616623 
L 494.410325 44.263636 
L 493.704351 43.910649 
L 492.998377 43.910649 
L 492.64539 44.263636 
L 492.292403 44.96961 
L 492.292403 45.675584 
L 492.64539 46.381558 
L 493.351364 46.734545 
L 494.057338 46.381558 
L 494.410325 46.028571 
L 494.410325 45.322597 
L 494.410325 44.616623 
L 494.410325 44.263636 
L 494.057338 44.263636 
L 493.704351 44.263636 
L 493.351364 44.263636 
" style="fill:none;stroke:#8c8c8c;stroke-linecap:square;"/>
   </g>
   <g id="line2d_51">
    <path clip-path="url(#p3edea3be0c)" d="M 506.058896 33.321039 
L 505.705909 33.321039 
L 505.705909 33.674026 
L 505.352922 33.674026 
L 504.999935 33.674026 
L 504.293961 33.674026 
L 503.940974 34.027013 
L 503.235 34.027013 
L 502.176039 34.38 
L 501.117078 34.38 
L 499.70513 34.38 
L 498.646169 34.732987 
L 497.234221 34.732987 
L 495.822273 35.085974 
L 494.410325 35.438961 
L 492.998377 35.438961 
L 491.939416 35.791948 
L 490.527468 36.144935 
L 489.468506 36.497922 
L 488.056558 36.497922 
L 485.938636 37.203896 
L 483.467727 37.90987 
L 480.643831 38.615844 
L 478.525909 39.321818 
L 477.113961 40.027792 
L 475.702013 40.380779 
L 474.290065 41.086753 
L 472.878117 41.792727 
L 471.113182 42.498701 
L 469.701234 43.204675 
L 467.583312 44.263636 
L 465.818377 45.675584 
L 464.759416 46.381558 
L 462.994481 47.440519 
L 462.288506 48.146494 
L 461.582532 48.852468 
L 461.582532 49.205455 
L 461.582532 49.558442 
L 462.288506 50.264416 
L 462.994481 50.97039 
L 464.759416 51.323377 
L 466.524351 51.676364 
L 469.701234 52.382338 
L 472.172143 52.735325 
L 474.996039 53.441299 
L 477.819935 53.794286 
L 480.643831 54.147273 
L 483.467727 54.50026 
L 487.350584 54.147273 
L 491.586429 53.794286 
L 495.116299 53.441299 
L 498.999156 52.382338 
L 502.529026 51.676364 
L 505.352922 50.97039 
L 508.176818 50.264416 
L 510.647727 49.911429 
L 513.82461 49.205455 
L 517.001494 48.146494 
L 518.766429 47.440519 
L 521.590325 46.381558 
L 523.002273 46.028571 
L 524.414221 45.322597 
L 525.473182 44.616623 
L 526.532143 43.910649 
L 527.238117 43.204675 
L 527.591104 42.498701 
L 527.944091 41.792727 
L 527.944091 41.43974 
L 527.944091 40.733766 
L 527.944091 39.674805 
L 527.238117 38.615844 
L 526.179156 37.90987 
L 524.767208 36.850909 
L 523.35526 36.497922 
L 521.943312 35.791948 
L 520.178377 35.085974 
L 518.766429 34.38 
L 515.942532 34.027013 
L 512.765649 33.674026 
L 509.235779 34.027013 
L 506.058896 34.027013 
L 503.940974 34.38 
L 502.176039 34.732987 
L 501.823052 34.732987 
" style="fill:none;stroke:#8c8c8c;stroke-linecap:square;"/>
   </g>
   <g id="line2d_52">
    <path clip-path="url(#p3edea3be0c)" d="M 471.113182 41.43974 
L 471.113182 41.792727 
L 471.113182 42.145714 
L 471.466169 42.145714 
L 471.819156 41.792727 
L 472.172143 41.43974 
L 472.52513 40.733766 
L 472.878117 40.380779 
L 473.231104 39.674805 
L 472.878117 39.321818 
L 472.52513 39.321818 
L 472.52513 39.674805 
L 472.172143 40.027792 
L 471.466169 40.380779 
L 471.466169 41.086753 
L 471.466169 41.43974 
L 471.466169 41.792727 
L 471.819156 42.145714 
L 472.172143 42.145714 
L 472.172143 41.792727 
L 472.52513 41.792727 
L 472.52513 41.43974 
L 472.52513 41.086753 
L 472.172143 41.086753 
L 472.172143 40.733766 
L 471.819156 40.733766 
L 471.466169 41.086753 
L 471.466169 41.43974 
L 471.466169 41.792727 
L 471.819156 42.145714 
L 472.172143 42.145714 
L 472.172143 41.792727 
L 472.52513 41.792727 
L 472.52513 41.43974 
L 472.52513 40.733766 
L 472.52513 40.380779 
L 472.172143 40.027792 
L 471.819156 40.380779 
L 471.466169 40.733766 
L 471.466169 41.086753 
L 471.466169 41.43974 
L 471.819156 41.792727 
L 472.172143 41.792727 
L 472.52513 41.792727 
L 472.52513 41.086753 
L 472.52513 40.733766 
L 472.172143 40.380779 
L 471.466169 40.380779 
L 471.466169 40.733766 
L 471.113182 41.43974 
L 471.466169 41.792727 
L 471.819156 42.145714 
L 472.52513 42.145714 
L 473.231104 42.145714 
L 473.584091 41.792727 
L 473.584091 41.086753 
L 473.584091 40.380779 
L 473.584091 40.027792 
L 473.231104 39.321818 
L 472.52513 39.321818 
L 472.172143 40.027792 
L 471.466169 40.733766 
L 471.466169 41.792727 
L 471.819156 42.145714 
L 472.52513 42.498701 
L 473.231104 42.498701 
L 473.231104 42.145714 
L 473.584091 41.43974 
L 473.584091 41.086753 
L 473.584091 40.733766 
L 473.231104 40.733766 
L 472.52513 40.733766 
L 472.172143 41.43974 
L 471.819156 42.145714 
L 472.172143 42.498701 
L 472.172143 42.851688 
L 472.52513 42.851688 
L 472.52513 42.498701 
L 472.52513 41.792727 
L 472.52513 41.43974 
L 472.52513 41.086753 
L 472.172143 40.733766 
" style="fill:none;stroke:#8c8c8c;stroke-linecap:square;"/>
   </g>
   <g id="line2d_53">
    <path clip-path="url(#p3edea3be0c)" d="M 478.525909 29.438182 
L 478.878896 29.438182 
L 478.525909 29.438182 
" style="fill:none;stroke:#8c8c8c;stroke-linecap:square;"/>
   </g>
   <g id="line2d_54">
    <path clip-path="url(#p3edea3be0c)" d="M 478.172922 30.497143 
L 477.819935 30.85013 
L 477.466948 30.85013 
L 477.466948 31.203117 
L 477.113961 31.556104 
L 477.113961 31.909091 
L 476.760974 31.909091 
L 476.760974 32.262078 
L 476.760974 32.615065 
L 476.407987 32.615065 
L 476.407987 32.968052 
L 476.055 32.968052 
L 476.055 33.321039 
L 476.055 33.674026 
" style="fill:none;stroke:#8c8c8c;stroke-linecap:square;"/>
   </g>
   <g id="line2d_55">
    <path clip-path="url(#p3edea3be0c)" d="M 476.407987 36.497922 
L 476.407987 36.850909 
L 476.055 36.850909 
L 476.055 37.203896 
L 476.055 37.556883 
L 476.055 37.90987 
L 475.702013 37.90987 
L 475.702013 38.262857 
" style="fill:none;stroke:#8c8c8c;stroke-linecap:square;"/>
   </g>
   <g id="line2d_56">
    <path clip-path="url(#p3edea3be0c)" d="M 475.349026 39.321818 
L 475.349026 39.674805 
L 475.349026 40.027792 
L 474.996039 40.380779 
L 474.996039 40.733766 
L 474.996039 41.086753 
L 474.996039 41.43974 
L 474.996039 41.792727 
" style="fill:none;stroke:#8c8c8c;stroke-linecap:square;"/>
   </g>
   <g id="line2d_57">
    <path clip-path="url(#p3edea3be0c)" d="M 474.643052 44.616623 
L 474.643052 44.96961 
L 474.643052 45.322597 
L 474.643052 45.675584 
L 474.643052 46.028571 
L 474.643052 46.381558 
" style="fill:none;stroke:#8c8c8c;stroke-linecap:square;"/>
   </g>
   <g id="line2d_58">
    <path clip-path="url(#p3edea3be0c)" d="M 474.643052 48.499481 
L 474.643052 48.852468 
L 474.643052 49.205455 
L 474.643052 49.558442 
L 474.643052 49.911429 
L 474.643052 50.264416 
L 474.996039 50.617403 
L 474.996039 50.97039 
L 474.996039 51.323377 
" style="fill:none;stroke:#8c8c8c;stroke-linecap:square;"/>
   </g>
   <g id="line2d_59">
    <path clip-path="url(#p3edea3be0c)" d="M 475.349026 53.441299 
L 475.702013 53.794286 
L 475.702013 54.147273 
L 476.055 54.50026 
L 476.055 54.853247 
L 476.407987 55.206234 
L 476.760974 55.559221 
" style="fill:none;stroke:#8c8c8c;stroke-linecap:square;"/>
   </g>
   <g id="line2d_60">
    <path clip-path="url(#p3edea3be0c)" d="M 477.819935 56.618182 
L 478.172922 56.618182 
L 478.172922 56.971169 
L 478.525909 56.971169 
L 478.878896 57.324156 
L 479.231883 57.677143 
L 479.58487 57.677143 
L 479.937857 58.03013 
L 480.290844 58.383117 
L 480.643831 58.736104 
L 480.996818 58.736104 
L 481.349805 59.089091 
L 481.702792 59.089091 
L 482.055779 59.442078 
L 482.408766 59.795065 
L 483.11474 60.148052 
L 483.467727 60.148052 
L 483.820714 60.501039 
L 484.173701 60.854026 
L 484.526688 60.854026 
L 484.879675 61.207013 
L 485.585649 61.207013 
" style="fill:none;stroke:#8c8c8c;stroke-linecap:square;"/>
   </g>
   <g id="line2d_61">
    <path clip-path="url(#p3edea3be0c)" d="M 486.64461 61.56 
L 486.997597 61.56 
L 487.350584 61.56 
L 487.703571 61.56 
L 488.056558 61.56 
L 488.409545 61.912987 
L 488.762532 61.912987 
L 489.115519 61.912987 
" style="fill:none;stroke:#8c8c8c;stroke-linecap:square;"/>
   </g>
   <g id="line2d_62">
    <path clip-path="url(#p3edea3be0c)" d="M 493.704351 61.912987 
L 494.057338 61.912987 
L 494.410325 61.912987 
L 494.763312 61.912987 
L 495.116299 61.912987 
L 495.469286 61.912987 
" style="fill:none;stroke:#8c8c8c;stroke-linecap:square;"/>
   </g>
   <g id="line2d_63">
    <path clip-path="url(#p3edea3be0c)" d="M 500.058117 61.56 
L 500.411104 61.56 
L 500.764091 61.56 
L 501.117078 61.207013 
L 501.470065 61.207013 
L 501.823052 61.207013 
L 502.176039 60.854026 
" style="fill:none;stroke:#8c8c8c;stroke-linecap:square;"/>
   </g>
   <g id="line2d_64">
    <path clip-path="url(#p3edea3be0c)" d="M 503.940974 59.795065 
L 504.293961 59.795065 
L 504.646948 59.795065 
L 504.999935 59.442078 
L 505.352922 59.442078 
L 505.705909 59.442078 
L 506.058896 59.089091 
" style="fill:none;stroke:#8c8c8c;stroke-linecap:square;"/>
   </g>
   <g id="line2d_65">
    <path clip-path="url(#p3edea3be0c)" d="M 508.882792 56.971169 
L 508.882792 56.618182 
L 509.235779 56.618182 
L 509.235779 56.265195 
L 509.588766 56.265195 
" style="fill:none;stroke:#8c8c8c;stroke-linecap:square;"/>
   </g>
   <g id="line2d_66">
    <path clip-path="url(#p3edea3be0c)" d="M 510.29474 54.50026 
L 510.647727 54.50026 
L 510.647727 54.147273 
L 511.000714 53.794286 
L 511.000714 53.441299 
L 511.000714 53.088312 
L 511.353701 53.088312 
L 511.353701 52.735325 
" style="fill:none;stroke:#8c8c8c;stroke-linecap:square;"/>
   </g>
   <g id="line2d_67">
    <path clip-path="url(#p3edea3be0c)" d="M 512.412662 50.264416 
L 512.412662 49.911429 
L 512.412662 49.558442 
" style="fill:none;stroke:#8c8c8c;stroke-linecap:square;"/>
   </g>
   <g id="line2d_68">
    <path clip-path="url(#p3edea3be0c)" d="M 512.059675 43.557662 
L 512.059675 43.204675 
L 512.059675 42.498701 
" style="fill:none;stroke:#8c8c8c;stroke-linecap:square;"/>
   </g>
   <g id="line2d_69">
    <path clip-path="url(#p3edea3be0c)" d="M 512.059675 38.968831 
L 512.059675 38.615844 
L 511.706688 38.615844 
L 511.706688 38.262857 
L 511.706688 37.90987 
L 511.706688 37.203896 
" style="fill:none;stroke:#8c8c8c;stroke-linecap:square;"/>
   </g>
   <g id="line2d_70">
    <path clip-path="url(#p3edea3be0c)" d="M 508.882792 32.615065 
L 508.882792 32.262078 
L 508.882792 31.909091 
L 508.882792 31.556104 
L 508.529805 31.203117 
" style="fill:none;stroke:#8c8c8c;stroke-linecap:square;"/>
   </g>
   <g id="line2d_71">
    <path clip-path="url(#p3edea3be0c)" d="M 506.76487 28.026234 
L 506.76487 27.673247 
L 506.411883 27.673247 
L 506.058896 27.32026 
L 506.058896 26.967273 
L 505.705909 26.967273 
L 505.352922 26.614286 
" style="fill:none;stroke:#8c8c8c;stroke-linecap:square;"/>
   </g>
   <g id="line2d_72">
    <path clip-path="url(#p3edea3be0c)" d="M 502.529026 24.496364 
L 502.176039 24.143377 
L 501.470065 24.143377 
L 501.117078 23.79039 
L 500.764091 23.437403 
" style="fill:none;stroke:#8c8c8c;stroke-linecap:square;"/>
   </g>
   <g id="line2d_73">
    <path clip-path="url(#p3edea3be0c)" d="M 497.587208 22.378442 
L 497.234221 22.378442 
L 496.881234 22.378442 
L 496.17526 22.378442 
L 495.822273 22.378442 
L 495.469286 22.378442 
" style="fill:none;stroke:#8c8c8c;stroke-linecap:square;"/>
   </g>
   <g id="line2d_74">
    <path clip-path="url(#p3edea3be0c)" d="M 478.525909 27.32026 
L 478.172922 27.32026 
" style="fill:none;stroke:#8c8c8c;stroke-linecap:square;"/>
   </g>
   <g id="line2d_75">
    <path clip-path="url(#p3edea3be0c)" d="M 481.702792 26.614286 
L 481.349805 26.614286 
L 481.702792 26.614286 
L 482.055779 26.614286 
" style="fill:none;stroke:#8c8c8c;stroke-linecap:square;"/>
   </g>
   <g id="line2d_76">
    <path clip-path="url(#p3edea3be0c)" d="M 483.11474 25.908312 
L 483.467727 25.908312 
L 483.467727 25.555325 
L 483.820714 25.555325 
L 484.173701 25.202338 
L 484.526688 25.202338 
L 484.879675 24.849351 
" style="fill:none;stroke:#8c8c8c;stroke-linecap:square;"/>
   </g>
   <g id="line2d_77">
    <path clip-path="url(#p3edea3be0c)" d="M 486.997597 23.437403 
L 487.703571 23.084416 
L 488.056558 23.084416 
L 488.409545 23.084416 
L 488.409545 22.731429 
" style="fill:none;stroke:#8c8c8c;stroke-linecap:square;"/>
   </g>
   <g id="line2d_78">
    <path clip-path="url(#p3edea3be0c)" d="M 490.174481 22.378442 
L 490.527468 22.378442 
L 490.880455 22.378442 
L 491.233442 22.025455 
L 491.939416 22.025455 
L 492.292403 22.025455 
L 492.64539 22.025455 
" style="fill:none;stroke:#8c8c8c;stroke-linecap:square;"/>
   </g>
   <g id="line2d_79">
    <path clip-path="url(#p3edea3be0c)" d="M 362.746169 31.203117 
L 362.393182 31.203117 
L 362.040195 31.203117 
L 361.687208 31.203117 
L 361.687208 30.85013 
L 360.981234 30.85013 
L 360.628247 30.85013 
L 360.27526 30.85013 
L 359.569286 30.85013 
L 358.863312 31.203117 
L 358.157338 31.203117 
L 357.804351 31.203117 
L 357.098377 31.556104 
L 356.392403 31.556104 
L 355.686429 31.909091 
L 354.627468 32.262078 
L 353.568506 32.968052 
L 352.509545 33.674026 
L 351.450584 34.38 
L 350.74461 35.085974 
L 350.038636 35.791948 
L 349.332662 36.497922 
L 348.626688 37.556883 
L 348.273701 38.615844 
L 347.567727 40.027792 
L 347.567727 41.086753 
L 347.21474 42.145714 
L 346.861753 43.204675 
L 346.861753 44.263636 
L 346.861753 44.96961 
L 346.861753 46.028571 
L 346.861753 47.087532 
L 347.21474 47.793506 
L 347.21474 48.852468 
L 347.567727 49.911429 
L 347.920714 50.617403 
L 348.626688 51.676364 
L 348.979675 52.382338 
L 349.685649 53.088312 
L 350.038636 53.794286 
L 351.097597 54.147273 
L 351.803571 54.853247 
L 352.862532 55.206234 
L 353.568506 55.206234 
L 354.627468 55.559221 
L 355.686429 55.559221 
L 356.74539 55.559221 
L 357.804351 55.206234 
L 359.216299 54.50026 
L 360.27526 53.794286 
L 362.040195 53.088312 
L 362.746169 52.735325 
L 363.80513 51.676364 
L 364.511104 50.97039 
L 365.570065 50.264416 
L 365.923052 49.558442 
L 366.629026 48.852468 
L 366.982013 47.793506 
L 367.687987 47.087532 
L 368.040974 46.028571 
L 368.393961 45.675584 
L 368.746948 44.616623 
L 368.746948 43.910649 
L 368.746948 43.204675 
L 369.099935 41.792727 
L 369.099935 41.086753 
L 369.099935 40.027792 
L 369.099935 38.968831 
L 368.746948 37.90987 
L 368.746948 36.850909 
L 368.393961 35.791948 
L 368.040974 34.732987 
L 367.687987 34.027013 
L 367.335 33.321039 
L 366.629026 32.615065 
L 365.923052 31.909091 
L 365.570065 31.556104 
L 364.511104 31.203117 
L 363.80513 30.85013 
L 363.099156 30.85013 
L 362.040195 30.85013 
L 361.334221 30.85013 
L 360.628247 30.85013 
" style="fill:none;stroke:#8c8c8c;stroke-linecap:square;"/>
   </g>
   <g id="line2d_80">
    <path clip-path="url(#p3edea3be0c)" d="M 339.096039 60.501039 
L 339.449026 60.501039 
L 339.802013 60.501039 
L 339.802013 60.148052 
L 340.155 60.148052 
L 340.507987 59.795065 
L 341.213961 59.442078 
L 341.919935 58.736104 
L 342.625909 58.03013 
L 343.68487 57.324156 
L 344.390844 56.618182 
L 345.096818 55.912208 
L 345.802792 55.206234 
L 346.861753 54.50026 
L 347.920714 53.441299 
L 348.626688 52.735325 
L 349.685649 51.676364 
L 350.74461 50.97039 
L 351.450584 49.911429 
L 352.156558 49.558442 
L 352.862532 48.499481 
L 353.568506 47.793506 
L 354.627468 47.440519 
L 355.333442 46.381558 
L 356.039416 45.675584 
L 357.098377 44.616623 
L 358.157338 43.557662 
L 358.863312 42.498701 
L 359.569286 41.43974 
L 360.628247 40.380779 
L 361.687208 38.968831 
L 362.746169 37.90987 
L 363.80513 36.497922 
L 364.511104 35.791948 
L 365.570065 34.732987 
L 366.276039 34.027013 
L 366.982013 33.321039 
L 367.687987 32.262078 
L 368.746948 31.556104 
L 369.805909 30.497143 
L 370.511883 29.438182 
L 371.217857 28.379221 
L 371.923831 28.026234 
L 372.629805 26.967273 
L 373.335779 26.261299 
L 374.041753 25.555325 
L 374.747727 24.496364 
L 375.100714 24.143377 
L 375.453701 23.79039 
L 375.806688 23.084416 
L 376.159675 23.084416 
L 376.159675 22.731429 
L 376.159675 22.378442 
" style="fill:none;stroke:#8c8c8c;stroke-linecap:square;"/>
   </g>
   <g id="line2d_81">
    <path clip-path="url(#p3edea3be0c)" d="M 349.685649 36.497922 
L 349.685649 36.850909 
L 349.685649 37.203896 
L 349.685649 37.556883 
L 349.685649 37.90987 
L 350.038636 38.262857 
L 350.038636 38.615844 
L 350.391623 38.615844 
L 350.391623 38.968831 
L 350.74461 39.321818 
L 351.097597 40.027792 
L 351.097597 40.380779 
L 351.803571 41.086753 
L 351.803571 41.43974 
L 352.156558 42.145714 
L 352.862532 42.851688 
L 353.568506 43.557662 
L 353.921494 44.263636 
L 354.274481 44.616623 
L 354.627468 44.96961 
L 355.333442 45.675584 
L 355.686429 46.028571 
L 356.039416 46.381558 
L 356.74539 46.734545 
L 357.098377 47.087532 
L 357.451364 47.440519 
L 358.157338 47.793506 
L 358.510325 48.146494 
L 359.216299 48.146494 
L 359.922273 48.499481 
L 360.628247 48.499481 
L 361.334221 48.852468 
L 362.040195 48.852468 
L 362.746169 49.205455 
" style="fill:none;stroke:#8c8c8c;stroke-linecap:square;"/>
   </g>
   <g id="line2d_82">
    <path clip-path="url(#p3edea3be0c)" d="M 362.040195 48.146494 
L 362.040195 48.499481 
L 362.393182 48.852468 
L 362.746169 48.852468 
L 362.746169 49.205455 
L 363.099156 49.205455 
L 363.452143 49.205455 
L 363.80513 49.205455 
L 364.158117 49.205455 
L 364.158117 48.852468 
L 364.511104 48.852468 
L 364.511104 48.499481 
L 364.511104 48.146494 
L 364.511104 47.793506 
L 364.158117 47.440519 
L 363.099156 46.381558 
L 362.393182 46.028571 
L 362.040195 45.675584 
" style="fill:none;stroke:#8c8c8c;stroke-linecap:square;"/>
   </g>
   <g id="line2d_83">
    <path clip-path="url(#p3edea3be0c)" d="M 363.80513 49.205455 
L 363.452143 49.205455 
L 363.099156 49.558442 
L 362.746169 49.558442 
L 362.746169 49.911429 
L 362.393182 49.911429 
L 361.687208 50.617403 
L 360.628247 51.323377 
L 359.569286 51.676364 
L 359.216299 51.676364 
L 358.510325 51.323377 
" style="fill:none;stroke:#8c8c8c;stroke-linecap:square;"/>
   </g>
   <g id="line2d_84">
    <path clip-path="url(#p3edea3be0c)" d="M 316.151883 44.96961 
L 316.50487 44.96961 
L 316.50487 45.322597 
L 316.857857 45.322597 
L 316.857857 44.96961 
L 317.210844 44.96961 
" style="fill:none;stroke:#8c8c8c;stroke-linecap:square;"/>
   </g>
   <g id="line2d_85">
    <path clip-path="url(#p3edea3be0c)" d="M 322.505649 44.263636 
L 322.858636 44.263636 
L 323.211623 44.263636 
L 323.211623 44.616623 
L 323.56461 44.616623 
" style="fill:none;stroke:#8c8c8c;stroke-linecap:square;"/>
   </g>
   <g id="line2d_86">
    <path clip-path="url(#p3edea3be0c)" d="M 328.153442 44.263636 
L 328.506429 44.263636 
L 328.859416 44.263636 
L 329.212403 44.263636 
L 329.56539 44.263636 
L 330.271364 44.263636 
" style="fill:none;stroke:#8c8c8c;stroke-linecap:square;"/>
   </g>
   <g id="line2d_87">
    <path clip-path="url(#p3edea3be0c)" d="M 333.09526 44.263636 
L 333.448247 44.263636 
L 333.801234 44.263636 
L 334.154221 44.616623 
" style="fill:none;stroke:#8c8c8c;stroke-linecap:square;"/>
   </g>
   <g id="line2d_88">
    <path clip-path="url(#p3edea3be0c)" d="M 341.213961 44.616623 
L 341.566948 44.616623 
L 341.919935 44.616623 
L 342.272922 44.616623 
" style="fill:none;stroke:#8c8c8c;stroke-linecap:square;"/>
   </g>
   <g id="line2d_89">
    <path clip-path="url(#p3edea3be0c)" d="M 338.743052 44.616623 
L 338.390065 44.616623 
L 338.390065 44.96961 
L 338.390065 44.616623 
" style="fill:none;stroke:#8c8c8c;stroke-linecap:square;"/>
   </g>
   <g id="line2d_90">
    <path clip-path="url(#p3edea3be0c)" d="M 371.217857 42.145714 
L 371.570844 42.145714 
L 371.923831 42.498701 
L 372.276818 42.498701 
" style="fill:none;stroke:#8c8c8c;stroke-linecap:square;"/>
   </g>
   <g id="line2d_91">
    <path clip-path="url(#p3edea3be0c)" d="M 378.277597 42.145714 
L 378.983571 42.145714 
L 379.336558 42.145714 
L 379.689545 42.145714 
" style="fill:none;stroke:#8c8c8c;stroke-linecap:square;"/>
   </g>
   <g id="line2d_92">
    <path clip-path="url(#p3edea3be0c)" d="M 387.102273 41.43974 
L 387.808247 41.43974 
L 388.161234 41.43974 
L 388.514221 41.43974 
L 389.220195 41.43974 
L 389.573182 41.43974 
L 389.926169 41.43974 
L 390.632143 41.086753 
L 391.338117 41.086753 
" style="fill:none;stroke:#8c8c8c;stroke-linecap:square;"/>
   </g>
   <g id="line2d_93">
    <path clip-path="url(#p3edea3be0c)" d="M 398.750844 40.380779 
L 399.103831 40.380779 
L 399.456818 40.027792 
L 399.809805 40.027792 
L 400.515779 40.027792 
L 400.868766 39.674805 
L 401.221753 39.674805 
L 401.57474 39.321818 
" style="fill:none;stroke:#8c8c8c;stroke-linecap:square;"/>
   </g>
   <g id="line2d_94">
    <path clip-path="url(#p3edea3be0c)" d="M 408.281494 38.968831 
L 408.987468 38.968831 
L 409.340455 38.968831 
L 409.693442 39.321818 
L 410.046429 39.321818 
L 410.399416 39.321818 
L 410.752403 38.968831 
L 411.10539 38.615844 
" style="fill:none;stroke:#8c8c8c;stroke-linecap:square;"/>
   </g>
   <g id="line2d_95">
    <path clip-path="url(#p3edea3be0c)" d="M 368.746948 23.084416 
L 369.099935 23.084416 
L 369.099935 23.437403 
L 369.099935 23.79039 
L 369.452922 23.79039 
L 370.158896 24.496364 
L 370.86487 25.202338 
L 371.570844 25.908312 
L 372.629805 26.967273 
L 373.335779 27.673247 
L 374.041753 28.379221 
L 374.747727 29.085195 
L 375.100714 29.438182 
L 375.100714 29.791169 
L 375.453701 30.144156 
L 375.806688 30.497143 
L 375.806688 30.85013 
L 376.159675 30.85013 
" style="fill:none;stroke:#8c8c8c;stroke-linecap:square;"/>
   </g>
   <g id="line2d_96">
    <path clip-path="url(#p3edea3be0c)" d="M 373.335779 32.615065 
L 373.335779 32.262078 
L 373.688766 32.262078 
L 374.041753 32.262078 
L 374.39474 32.615065 
L 375.100714 32.968052 
L 375.453701 33.321039 
L 376.159675 33.321039 
L 376.512662 33.321039 
L 376.865649 32.968052 
L 377.218636 32.615065 
L 377.218636 32.262078 
L 377.571623 31.909091 
L 377.571623 31.203117 
L 377.571623 30.85013 
L 377.218636 30.497143 
" style="fill:none;stroke:#8c8c8c;stroke-linecap:square;"/>
   </g>
   <g id="line2d_97">
    <path clip-path="url(#p3edea3be0c)" d="M 366.629026 25.202338 
L 366.982013 25.202338 
L 366.982013 25.555325 
L 366.982013 25.202338 
L 366.982013 24.849351 
L 366.982013 24.496364 
L 367.335 24.143377 
L 367.335 23.084416 
L 367.687987 22.731429 
L 367.687987 22.378442 
L 368.040974 21.672468 
L 368.040974 21.319481 
L 368.393961 20.966494 
L 368.746948 20.966494 
L 369.099935 21.319481 
L 369.452922 21.319481 
L 369.452922 21.672468 
L 369.805909 21.672468 
L 370.158896 22.025455 
L 370.511883 22.025455 
" style="fill:none;stroke:#8c8c8c;stroke-linecap:square;"/>
   </g>
   <g id="line2d_98">
    <path clip-path="url(#p3edea3be0c)" d="M 373.335779 23.084416 
L 373.688766 23.084416 
L 373.688766 22.731429 
L 374.041753 22.731429 
L 374.39474 22.731429 
L 374.747727 22.731429 
L 375.100714 22.378442 
L 375.453701 22.378442 
L 375.453701 22.025455 
L 375.806688 22.025455 
L 376.159675 21.672468 
L 376.159675 21.319481 
L 376.159675 20.966494 
L 375.806688 20.966494 
L 375.453701 20.966494 
L 375.100714 20.966494 
L 374.747727 20.966494 
L 374.39474 20.966494 
L 374.041753 20.966494 
L 373.335779 20.613506 
L 372.629805 20.613506 
L 371.923831 20.613506 
L 371.217857 20.613506 
L 370.511883 20.613506 
L 370.158896 20.613506 
L 369.099935 20.613506 
L 368.393961 20.613506 
L 367.687987 20.613506 
L 366.629026 20.613506 
L 365.217078 20.613506 
L 363.80513 20.613506 
L 362.746169 20.260519 
L 362.040195 20.260519 
L 360.981234 20.260519 
L 359.922273 20.260519 
L 358.510325 20.260519 
L 357.098377 20.260519 
L 355.686429 20.613506 
L 354.627468 20.966494 
L 353.568506 20.966494 
L 352.509545 21.319481 
L 351.097597 21.672468 
L 350.038636 22.025455 
L 348.979675 22.378442 
L 347.567727 22.731429 
L 346.508766 23.084416 
L 345.449805 23.437403 
L 344.743831 24.143377 
L 344.390844 24.496364 
L 344.390844 24.849351 
L 344.390844 25.202338 
L 344.743831 25.908312 
L 346.155779 26.614286 
L 347.567727 26.967273 
L 348.979675 27.32026 
L 350.391623 27.32026 
L 351.803571 27.32026 
L 353.568506 26.967273 
L 355.333442 26.967273 
L 356.74539 26.967273 
L 357.804351 26.967273 
L 359.569286 26.614286 
L 360.628247 26.614286 
L 361.687208 26.614286 
L 362.746169 26.614286 
L 363.80513 26.261299 
L 364.864091 26.261299 
L 365.923052 25.908312 
L 366.982013 25.555325 
L 368.040974 25.555325 
L 368.746948 25.202338 
L 369.099935 25.202338 
L 369.452922 25.202338 
L 370.158896 25.202338 
L 370.86487 25.202338 
L 371.217857 24.849351 
L 371.570844 24.849351 
L 372.276818 24.849351 
L 373.335779 24.496364 
L 374.041753 24.143377 
L 374.747727 23.79039 
L 375.100714 23.437403 
L 375.453701 23.437403 
L 375.806688 23.084416 
L 376.159675 23.084416 
L 376.159675 22.731429 
" style="fill:none;stroke:#8c8c8c;stroke-linecap:square;"/>
   </g>
   <g id="line2d_99">
    <path clip-path="url(#p3edea3be0c)" d="M 348.979675 19.554545 
L 349.332662 19.554545 
L 348.979675 19.554545 
L 348.979675 19.907532 
L 348.273701 20.613506 
L 347.567727 21.319481 
L 347.21474 22.025455 
L 346.861753 22.731429 
L 346.861753 23.084416 
L 347.21474 23.437403 
L 347.920714 24.143377 
L 348.626688 24.496364 
L 349.685649 24.496364 
L 350.391623 24.496364 
" style="fill:none;stroke:#8c8c8c;stroke-linecap:square;"/>
   </g>
  </g>
 </g>
 <defs>
  <clipPath id="p3edea3be0c">
   <rect height="271.8" width="545.541429" x="7.2" y="7.2"/>
  </clipPath>
 </defs>
</svg>
