<?xml version="1.0" encoding="utf-8" standalone="no"?>
<!DOCTYPE svg PUBLIC "-//W3C//DTD SVG 1.1//EN"
  "http://www.w3.org/Graphics/SVG/1.1/DTD/svg11.dtd">
<!-- Created with matplotlib (https://matplotlib.org/) -->
<svg height="272.402222pt" version="1.1" viewBox="0 0 567.217337 272.402222" width="567.217337pt" xmlns="http://www.w3.org/2000/svg" xmlns:xlink="http://www.w3.org/1999/xlink">
 <metadata>
  <rdf:RDF xmlns:cc="http://creativecommons.org/ns#" xmlns:dc="http://purl.org/dc/elements/1.1/" xmlns:rdf="http://www.w3.org/1999/02/22-rdf-syntax-ns#">
   <cc:Work>
    <dc:type rdf:resource="http://purl.org/dc/dcmitype/StillImage"/>
    <dc:date>2024-11-15T16:04:22.892094</dc:date>
    <dc:format>image/svg+xml</dc:format>
    <dc:creator>
     <cc:Agent>
      <dc:title>Matplotlib v3.3.4, https://matplotlib.org/</dc:title>
     </cc:Agent>
    </dc:creator>
   </cc:Work>
  </rdf:RDF>
 </metadata>
 <defs>
  <style type="text/css">*{stroke-linecap:butt;stroke-linejoin:round;}</style>
 </defs>
 <g id="figure_1">
  <g id="patch_1">
   <path d="M 0 272.402222 
L 567.217337 272.402222 
L 567.217337 0 
L 0 0 
z
" style="fill:#ffffff;"/>
  </g>
  <g id="axes_1">
   <g id="line2d_1">
    <path clip-path="url(#pdc3bf6da99)" d="M 366.990721 197.319589 
L 366.707109 197.319589 
L 366.423497 197.603201 
L 365.572659 197.603201 
L 364.43821 198.170426 
L 364.154597 198.170426 
L 363.020148 198.737651 
L 362.736535 198.737651 
L 362.16931 199.021263 
L 361.602085 199.021263 
L 361.318473 199.304876 
L 360.467636 199.588488 
L 360.184023 199.8721 
L 359.616798 200.155713 
L 359.333186 200.439325 
L 358.765961 200.722938 
L 358.482349 200.722938 
L 358.198736 201.00655 
L 357.915124 201.573775 
L 357.631511 201.857387 
L 357.347899 202.708225 
L 356.780674 203.27545 
L 356.497062 204.409899 
L 356.213449 204.977124 
L 355.646225 205.827961 
L 355.646225 206.678799 
L 355.362612 207.246023 
L 355.362612 208.096861 
L 355.079 208.380473 
L 355.079 209.514923 
L 355.362612 210.082148 
L 355.362612 211.783822 
L 355.646225 212.351047 
L 356.213449 212.918272 
L 356.497062 213.485497 
L 357.064287 214.052722 
L 358.198736 214.619947 
L 359.333186 214.903559 
L 359.900411 215.187171 
L 360.751248 215.187171 
L 361.602085 215.470784 
L 363.30376 215.470784 
L 364.154597 215.754396 
L 366.139884 215.754396 
L 368.408784 216.321621 
L 369.259621 216.321621 
L 369.826846 216.605233 
L 370.961295 216.605233 
L 371.52852 216.888846 
L 374.648257 216.888846 
L 375.215482 216.605233 
L 376.349931 216.321621 
L 376.917156 216.038009 
L 377.200769 216.038009 
L 377.767994 215.754396 
L 378.051606 215.470784 
L 378.618831 215.187171 
L 379.186056 214.619947 
L 379.753281 214.336334 
L 380.036893 214.052722 
L 380.320505 213.485497 
L 380.88773 212.918272 
L 380.88773 210.932985 
L 380.604118 210.649373 
L 380.604118 209.798535 
L 379.753281 208.947698 
L 379.753281 208.664086 
L 379.469668 208.380473 
L 379.186056 207.813248 
L 377.767994 206.395186 
L 377.200769 206.111574 
L 376.066319 204.977124 
L 376.066319 204.693512 
L 375.499094 204.126287 
L 375.499094 203.842674 
L 375.215482 203.559062 
L 375.215482 203.27545 
L 374.931869 202.991837 
L 374.931869 201.290163 
L 374.648257 201.00655 
L 374.648257 200.439325 
L 374.364645 200.439325 
L 374.364645 200.155713 
L 373.230195 199.021263 
L 372.66297 199.021263 
L 372.379358 198.737651 
L 371.812133 198.454038 
L 371.52852 198.170426 
L 370.961295 197.886813 
L 370.394071 197.886813 
L 370.110458 197.603201 
L 369.259621 197.603201 
L 368.976008 197.319589 
L 367.841559 197.319589 
L 367.557946 197.035976 
L 367.274334 197.035976 
L 367.274334 197.035976 
" style="fill:none;stroke:#8c8c8c;stroke-linecap:square;"/>
   </g>
   <g id="line2d_2">
    <path clip-path="url(#pdc3bf6da99)" d="M 355.929837 214.336334 
L 355.646225 214.336334 
L 355.362612 214.336334 
L 354.511775 214.903559 
L 353.377325 215.470784 
L 351.675651 216.605233 
L 349.690364 217.739683 
L 348.555914 218.874133 
L 347.705077 219.157745 
L 347.421464 219.72497 
L 347.137852 219.72497 
L 346.854239 219.72497 
" style="fill:none;stroke:#8c8c8c;stroke-linecap:square;"/>
   </g>
   <g id="line2d_3">
    <path clip-path="url(#pdc3bf6da99)" d="M 332.390006 223.128319 
L 332.673618 223.128319 
L 332.673618 222.844707 
L 332.390006 222.844707 
L 331.822781 222.844707 
L 330.971944 223.128319 
L 330.121106 223.411932 
L 329.553881 223.979157 
L 329.270269 224.262769 
L 329.270269 224.546381 
L 329.553881 224.829994 
L 330.121106 225.113606 
L 330.971944 225.680831 
L 332.106393 226.531668 
L 332.673618 227.098893 
L 332.957231 227.94973 
L 332.673618 228.516955 
L 332.106393 229.367793 
L 331.255556 229.651405 
L 330.404719 229.651405 
L 330.121106 229.651405 
" style="fill:none;stroke:#8c8c8c;stroke-linecap:square;"/>
   </g>
   <g id="line2d_4">
    <path clip-path="url(#pdc3bf6da99)" d="M 334.942518 225.680831 
L 334.942518 225.397219 
L 334.375293 225.397219 
L 333.808068 225.680831 
L 333.240843 226.248056 
L 333.240843 226.815281 
L 333.240843 227.098893 
L 333.808068 227.382506 
L 334.375293 227.098893 
L 334.942518 226.815281 
L 334.942518 226.248056 
L 334.942518 225.680831 
L 334.942518 225.397219 
L 334.942518 225.680831 
L 334.942518 225.964443 
L 334.942518 226.248056 
L 334.942518 227.098893 
L 335.22613 227.94973 
L 335.22613 228.516955 
L 335.793355 228.516955 
" style="fill:none;stroke:#8c8c8c;stroke-linecap:square;"/>
   </g>
   <g id="line2d_5">
    <path clip-path="url(#pdc3bf6da99)" d="M 336.927805 225.964443 
L 336.927805 225.680831 
L 337.211417 225.964443 
L 337.211417 226.815281 
L 337.495029 227.382506 
L 337.778642 227.666118 
L 337.778642 227.94973 
L 337.778642 227.666118 
L 337.778642 227.382506 
L 337.778642 227.098893 
L 338.062254 226.531668 
L 338.062254 225.964443 
L 338.345867 225.680831 
L 338.629479 225.680831 
L 338.913091 225.964443 
L 339.196704 226.248056 
L 339.196704 226.531668 
L 339.480316 226.531668 
L 339.480316 226.248056 
L 339.480316 225.964443 
L 339.763929 225.680831 
L 340.047541 225.680831 
L 340.047541 225.964443 
L 340.331154 225.964443 
L 340.331154 226.248056 
L 340.614766 226.531668 
L 340.898378 226.815281 
L 340.898378 227.098893 
L 341.181991 227.098893 
L 341.465603 227.098893 
L 341.749216 227.382506 
L 342.032828 227.382506 
L 342.316441 227.382506 
L 342.600053 227.382506 
L 342.883665 227.382506 
L 342.883665 227.098893 
L 343.167278 226.815281 
L 343.167278 226.531668 
L 343.167278 225.964443 
L 343.167278 225.397219 
L 342.883665 225.113606 
L 342.600053 224.829994 
L 342.316441 224.829994 
L 342.032828 225.113606 
L 341.749216 225.397219 
L 341.465603 226.531668 
L 341.749216 227.666118 
L 341.749216 229.651405 
L 342.032828 231.35308 
L 342.032828 232.203917 
L 342.316441 233.054754 
L 342.600053 233.054754 
" style="fill:none;stroke:#8c8c8c;stroke-linecap:square;"/>
   </g>
   <g id="line2d_6">
    <path clip-path="url(#pdc3bf6da99)" d="M 344.58534 221.143032 
L 344.58534 220.85942 
L 344.301728 220.85942 
L 344.301728 221.143032 
L 344.018115 221.710257 
L 344.301728 222.561094 
L 344.58534 223.695544 
L 344.868952 225.113606 
L 345.152565 226.531668 
L 345.71979 227.666118 
L 346.003402 227.94973 
" style="fill:none;stroke:#8c8c8c;stroke-linecap:square;"/>
   </g>
   <g id="line2d_7">
    <path clip-path="url(#pdc3bf6da99)" d="M 347.137852 225.964443 
L 347.137852 225.680831 
L 347.421464 225.680831 
L 347.705077 225.397219 
L 348.272301 225.397219 
L 348.555914 225.113606 
L 348.839526 224.829994 
L 348.839526 224.546381 
L 348.839526 223.979157 
L 348.555914 223.695544 
L 347.988689 223.979157 
L 347.137852 224.262769 
L 346.854239 225.397219 
L 347.137852 226.531668 
L 347.988689 227.666118 
L 349.406751 229.08418 
L 350.824813 229.651405 
L 351.392038 229.651405 
L 351.675651 229.651405 
" style="fill:none;stroke:#8c8c8c;stroke-linecap:square;"/>
   </g>
   <g id="line2d_8">
    <path clip-path="url(#pdc3bf6da99)" d="M 389.963328 199.021263 
L 390.24694 199.021263 
L 390.24694 198.454038 
L 390.530553 198.454038 
L 390.530553 198.170426 
L 390.814165 197.886813 
L 390.814165 197.603201 
L 389.679715 197.603201 
L 389.396103 197.886813 
L 388.545266 197.886813 
L 387.978041 198.170426 
L 387.694428 198.170426 
L 386.559979 198.737651 
L 385.992754 198.737651 
L 385.425529 199.021263 
L 384.858304 199.021263 
L 384.574692 199.304876 
L 382.305792 200.439325 
L 381.454955 201.00655 
L 380.88773 201.573775 
L 380.320505 201.857387 
L 379.469668 202.708225 
L 379.469668 204.977124 
L 379.753281 205.260737 
L 379.753281 205.827961 
L 380.036893 206.395186 
L 380.604118 206.962411 
L 381.171343 207.813248 
L 381.738568 208.380473 
L 382.305792 208.664086 
L 383.723855 209.23131 
L 384.291079 209.514923 
L 387.410816 210.649373 
L 387.978041 210.932985 
L 388.545266 210.932985 
L 388.828878 211.216597 
L 389.396103 211.50021 
L 389.679715 211.50021 
L 391.097778 212.918272 
L 393.933902 213.769109 
L 396.486414 214.336334 
L 403.576724 214.336334 
L 406.129236 213.769109 
L 407.547298 213.485497 
L 409.532585 212.918272 
L 410.383422 212.351047 
L 411.517872 212.067435 
L 412.368709 211.50021 
L 413.219547 211.216597 
L 414.070384 210.36576 
L 414.637609 210.082148 
L 415.772058 208.947698 
L 416.055671 208.380473 
L 416.055671 207.246023 
L 415.772058 206.678799 
L 415.488446 205.827961 
L 414.921221 204.977124 
L 414.353996 204.409899 
L 413.786771 203.559062 
L 412.935934 202.991837 
L 411.801485 202.424612 
L 409.816198 201.857387 
L 407.830911 201.290163 
L 406.980073 200.722938 
L 406.129236 200.722938 
L 403.576724 200.155713 
L 401.591437 200.155713 
L 401.307825 199.8721 
L 400.7406 199.8721 
L 400.456988 199.588488 
L 399.889763 199.588488 
L 399.322538 199.304876 
L 397.620863 199.304876 
L 397.053638 199.021263 
L 396.486414 199.021263 
L 395.351964 198.454038 
L 394.217514 198.170426 
L 393.366677 198.170426 
L 392.232227 197.886813 
L 390.24694 197.886813 
L 389.679715 198.170426 
L 388.261653 198.170426 
L 388.261653 198.170426 
" style="fill:none;stroke:#64b5cd;stroke-linecap:square;"/>
   </g>
   <g id="line2d_9">
    <path clip-path="url(#pdc3bf6da99)" d="M 410.383422 212.918272 
L 410.667035 212.918272 
L 410.667035 213.201884 
L 410.950647 213.201884 
L 411.23426 213.485497 
L 412.368709 214.336334 
L 413.219547 214.903559 
L 414.070384 215.470784 
L 414.637609 215.754396 
L 414.921221 215.754396 
" style="fill:none;stroke:#64b5cd;stroke-linecap:square;"/>
   </g>
   <g id="line2d_10">
    <path clip-path="url(#pdc3bf6da99)" d="M 418.040958 218.023296 
L 418.040958 217.739683 
L 418.040958 217.456071 
L 418.040958 217.172458 
L 418.040958 216.888846 
L 418.040958 217.172458 
L 418.040958 217.456071 
L 418.32457 217.739683 
L 418.608183 219.441358 
L 418.891795 220.008583 
L 419.175408 220.575807 
L 419.742632 220.575807 
L 419.742632 220.292195 
L 420.026245 219.72497 
L 420.026245 219.441358 
L 420.309857 219.72497 
L 420.59347 219.72497 
L 420.877082 219.72497 
L 421.160695 219.72497 
L 421.444307 219.157745 
L 421.727919 218.59052 
L 421.727919 218.023296 
L 421.727919 217.456071 
L 421.727919 217.172458 
L 421.727919 216.888846 
" style="fill:none;stroke:#64b5cd;stroke-linecap:square;"/>
   </g>
   <g id="line2d_11">
    <path clip-path="url(#pdc3bf6da99)" d="M 423.996819 216.038009 
L 423.713206 216.038009 
L 423.713206 216.321621 
L 423.429594 216.321621 
L 423.145981 217.172458 
L 422.862369 218.023296 
L 422.862369 218.874133 
L 423.145981 219.441358 
L 423.429594 219.441358 
L 423.713206 219.441358 
L 423.996819 218.874133 
L 424.280431 218.023296 
L 424.564044 217.172458 
L 424.564044 216.321621 
L 424.564044 216.038009 
L 424.564044 215.754396 
L 424.564044 216.038009 
L 424.564044 216.321621 
L 424.564044 216.888846 
L 424.847656 217.739683 
L 425.131268 219.157745 
L 425.414881 219.72497 
L 425.698493 220.008583 
" style="fill:none;stroke:#64b5cd;stroke-linecap:square;"/>
   </g>
   <g id="line2d_12">
    <path clip-path="url(#pdc3bf6da99)" d="M 425.982106 216.605233 
L 425.982106 216.038009 
L 425.698493 215.754396 
L 425.982106 215.754396 
L 425.982106 216.321621 
L 426.265718 216.888846 
L 426.832943 218.023296 
L 427.116555 219.441358 
L 427.400168 220.008583 
L 427.400168 220.292195 
" style="fill:none;stroke:#64b5cd;stroke-linecap:square;"/>
   </g>
   <g id="line2d_13">
    <path clip-path="url(#pdc3bf6da99)" d="M 425.698493 218.59052 
L 425.982106 218.306908 
L 426.549331 218.306908 
L 427.116555 218.023296 
L 427.68378 217.739683 
" style="fill:none;stroke:#64b5cd;stroke-linecap:square;"/>
   </g>
   <g id="line2d_14">
    <path clip-path="url(#pdc3bf6da99)" d="M 428.534618 217.456071 
L 428.534618 217.739683 
L 428.534618 218.023296 
L 428.81823 218.306908 
L 429.669067 218.306908 
L 430.236292 218.306908 
L 430.803517 218.023296 
L 431.370742 217.456071 
L 431.370742 216.888846 
L 431.370742 216.321621 
L 430.803517 216.321621 
L 430.236292 216.321621 
L 429.669067 216.888846 
L 429.385455 217.739683 
L 429.669067 218.59052 
L 430.236292 219.441358 
L 431.087129 219.72497 
L 431.654354 219.72497 
L 432.505191 219.441358 
L 432.505191 218.874133 
L 432.788804 218.023296 
L 432.788804 217.739683 
L 432.788804 217.456071 
L 433.072416 217.739683 
L 433.356029 218.306908 
L 433.923254 219.157745 
L 434.490478 219.441358 
L 434.774091 219.72497 
L 434.774091 219.441358 
L 435.057703 218.59052 
L 435.341316 217.456071 
L 435.908541 216.605233 
L 437.04299 215.470784 
" style="fill:none;stroke:#64b5cd;stroke-linecap:square;"/>
   </g>
   <g id="line2d_15">
    <path clip-path="url(#pdc3bf6da99)" d="M 357.631511 112.235861 
L 357.631511 112.519474 
L 357.631511 112.235861 
L 357.915124 112.235861 
L 357.915124 111.952249 
L 358.198736 111.952249 
L 358.198736 111.668636 
L 358.198736 111.385024 
L 358.482349 111.385024 
L 358.482349 111.101412 
L 358.765961 110.817799 
L 358.765961 110.534187 
L 359.049574 109.966962 
L 359.333186 109.68335 
L 359.616798 109.399737 
L 360.184023 109.116125 
L 360.467636 108.832512 
L 360.751248 108.5489 
L 361.034861 108.5489 
L 361.602085 108.265287 
L 361.885698 107.981675 
L 362.16931 107.981675 
L 362.452923 107.981675 
L 363.020148 107.698063 
L 363.30376 107.698063 
L 363.587372 107.41445 
L 363.870985 107.41445 
L 364.154597 107.41445 
L 364.43821 107.41445 
L 364.721822 107.41445 
L 365.005435 107.41445 
L 365.289047 107.698063 
L 365.289047 107.981675 
L 365.572659 107.981675 
L 365.572659 108.265287 
L 365.856272 108.265287 
L 365.856272 108.5489 
L 366.139884 108.832512 
L 366.139884 109.116125 
L 366.423497 109.399737 
L 366.423497 109.68335 
L 366.423497 109.966962 
L 366.707109 110.250574 
L 366.990721 110.534187 
L 366.990721 110.817799 
L 367.274334 110.817799 
L 367.557946 111.101412 
L 367.841559 111.101412 
L 368.125171 111.101412 
L 368.408784 110.817799 
L 368.976008 110.534187 
L 369.259621 109.966962 
L 369.543233 109.68335 
L 369.543233 109.399737 
L 369.826846 109.116125 
L 370.110458 108.832512 
L 370.110458 108.5489 
L 370.394071 108.265287 
L 370.394071 107.981675 
L 370.677683 107.981675 
L 370.677683 107.698063 
L 370.961295 107.698063 
L 370.677683 107.981675 
L 370.394071 108.265287 
L 370.394071 108.5489 
L 370.394071 108.832512 
L 370.394071 109.116125 
L 370.110458 109.116125 
L 370.110458 109.68335 
L 370.110458 109.966962 
L 370.110458 110.250574 
L 370.110458 110.534187 
L 370.394071 111.101412 
L 370.677683 111.385024 
L 370.961295 111.385024 
L 371.244908 111.668636 
L 371.52852 111.668636 
L 372.095745 111.668636 
L 372.66297 111.385024 
L 373.230195 111.101412 
L 374.081032 110.817799 
L 374.648257 110.250574 
L 375.499094 109.966962 
L 376.066319 109.68335 
L 376.633544 109.399737 
L 377.200769 109.116125 
L 377.484381 108.832512 
L 378.051606 108.832512 
L 378.335218 108.832512 
L 378.902443 108.5489 
L 379.186056 108.5489 
L 379.753281 108.832512 
L 380.036893 108.832512 
L 380.604118 109.116125 
L 380.604118 109.399737 
L 380.88773 109.966962 
L 381.171343 110.250574 
L 381.171343 110.534187 
L 381.454955 110.817799 
L 381.454955 111.101412 
" style="fill:none;stroke:#c44e52;stroke-linecap:square;"/>
   </g>
   <g id="line2d_16">
    <path clip-path="url(#pdc3bf6da99)" d="M 371.244908 105.996388 
L 371.244908 105.712776 
L 371.52852 105.712776 
L 371.812133 105.712776 
L 372.095745 105.429163 
L 372.66297 105.145551 
L 373.513807 104.861938 
L 374.364645 104.578326 
L 375.499094 104.294713 
L 376.349931 103.727489 
L 378.335218 103.160264 
L 380.88773 102.593039 
L 383.440242 102.025814 
L 385.709141 101.458589 
L 386.843591 101.458589 
L 388.261653 101.458589 
L 389.396103 101.742202 
L 390.24694 101.742202 
L 391.097778 102.025814 
L 392.232227 102.593039 
L 393.366677 102.593039 
L 393.933902 102.876651 
L 395.068351 103.160264 
L 395.919189 103.443876 
L 397.337251 103.443876 
L 398.755313 103.727489 
L 400.173375 103.727489 
L 402.442275 104.011101 
L 404.143949 104.294713 
L 406.412848 104.578326 
L 408.398135 105.145551 
L 410.950647 105.712776 
L 413.219547 105.996388 
L 416.055671 106.563613 
L 418.891795 107.130838 
L 421.160695 107.698063 
L 425.131268 108.265287 
L 428.251005 108.265287 
L 432.505191 108.265287 
L 436.759378 107.981675 
L 440.729952 107.41445 
L 445.551363 106.28 
L 450.372774 105.145551 
L 455.76141 103.727489 
L 459.731984 102.309426 
L 465.12062 100.040527 
L 468.523969 98.622465 
L 472.494543 96.353566 
L 475.330668 94.651891 
L 476.465117 93.517441 
L 477.032342 92.666604 
L 476.74873 92.382992 
" style="fill:none;stroke:#c44e52;stroke-linecap:square;"/>
   </g>
   <g id="line2d_17">
    <path clip-path="url(#pdc3bf6da99)" d="M 482.704591 88.979643 
L 482.988203 88.979643 
L 482.988203 88.69603 
L 482.988203 88.412418 
L 482.988203 88.128805 
L 482.420978 87.845193 
L 481.853753 88.128805 
L 481.002916 88.979643 
L 480.152079 90.114092 
L 479.868466 91.248542 
L 480.152079 91.815767 
L 480.719304 92.382992 
L 481.570141 92.382992 
L 482.420978 92.099379 
L 482.988203 91.248542 
L 483.271815 90.397705 
L 483.271815 88.979643 
L 482.988203 87.56158 
L 482.704591 86.143518 
L 482.704591 85.292681 
L 482.704591 84.441844 
L 482.420978 83.874619 
L 482.420978 83.591006 
L 482.420978 83.307394 
L 482.420978 84.158231 
L 482.420978 85.859906 
L 482.704591 87.56158 
L 482.988203 89.263255 
L 483.271815 90.681317 
L 483.555428 91.532154 
L 483.83904 92.099379 
" style="fill:none;stroke:#c44e52;stroke-linecap:square;"/>
   </g>
   <g id="line2d_18">
    <path clip-path="url(#pdc3bf6da99)" d="M 485.540715 88.412418 
L 485.540715 88.69603 
L 485.824327 88.979643 
L 485.824327 89.263255 
L 485.824327 89.83048 
L 486.10794 90.397705 
" style="fill:none;stroke:#c44e52;stroke-linecap:square;"/>
   </g>
   <g id="line2d_19">
    <path clip-path="url(#pdc3bf6da99)" d="M 486.10794 86.143518 
L 485.824327 85.009069 
L 485.540715 84.441844 
L 485.540715 84.158231 
L 485.824327 84.158231 
" style="fill:none;stroke:#c44e52;stroke-linecap:square;"/>
   </g>
   <g id="line2d_20">
    <path clip-path="url(#pdc3bf6da99)" d="M 487.526002 86.427131 
L 487.526002 86.710743 
L 487.526002 86.994356 
L 487.526002 87.56158 
L 487.809614 87.845193 
L 488.093227 88.69603 
L 488.376839 89.263255 
L 488.376839 89.83048 
L 488.660452 90.114092 
L 488.660452 90.397705 
L 488.660452 90.114092 
L 488.376839 89.263255 
L 487.809614 87.56158 
L 487.526002 86.143518 
L 487.526002 84.441844 
L 487.526002 83.591006 
L 487.809614 82.740169 
L 487.809614 82.456557 
L 488.093227 82.456557 
" style="fill:none;stroke:#c44e52;stroke-linecap:square;"/>
   </g>
   <g id="line2d_21">
    <path clip-path="url(#pdc3bf6da99)" d="M 486.675165 86.710743 
L 486.675165 86.994356 
L 486.675165 87.277968 
L 487.242389 87.277968 
L 488.093227 87.277968 
L 488.944064 87.277968 
L 489.511289 86.710743 
L 489.794901 86.710743 
" style="fill:none;stroke:#c44e52;stroke-linecap:square;"/>
   </g>
   <g id="line2d_22">
    <path clip-path="url(#pdc3bf6da99)" d="M 490.645738 86.143518 
L 490.645738 86.427131 
L 490.645738 86.710743 
L 490.929351 87.56158 
L 491.212963 88.412418 
L 491.496576 89.263255 
L 491.780188 89.546867 
L 492.063801 89.83048 
L 492.063801 89.83048 
L 491.496576 89.546867 
L 490.645738 87.845193 
L 490.078514 86.427131 
L 489.794901 85.009069 
L 490.078514 84.158231 
L 490.362126 83.591006 
L 490.929351 83.023782 
L 491.212963 83.023782 
L 491.496576 83.023782 
" style="fill:none;stroke:#c44e52;stroke-linecap:square;"/>
   </g>
   <g id="line2d_23">
    <path clip-path="url(#pdc3bf6da99)" d="M 490.362126 86.143518 
L 490.362126 86.427131 
L 490.929351 86.710743 
L 491.212963 86.994356 
L 491.496576 86.994356 
L 492.063801 86.994356 
L 492.347413 86.710743 
" style="fill:none;stroke:#c44e52;stroke-linecap:square;"/>
   </g>
   <g id="line2d_24">
    <path clip-path="url(#pdc3bf6da99)" d="M 493.19825 86.427131 
L 493.481863 86.427131 
L 493.765475 86.143518 
L 494.3327 85.859906 
L 494.899925 85.292681 
L 494.899925 84.725456 
L 494.899925 84.158231 
L 494.616312 84.158231 
L 494.3327 84.441844 
L 493.765475 85.292681 
L 493.481863 86.710743 
L 494.049088 87.56158 
L 494.899925 88.412418 
L 495.46715 88.69603 
L 496.034375 88.412418 
L 496.317987 88.128805 
L 496.885212 87.56158 
L 496.885212 87.277968 
L 497.168824 87.277968 
L 497.168824 87.56158 
L 497.168824 87.845193 
L 497.452437 88.412418 
L 497.736049 88.69603 
L 497.736049 88.128805 
L 497.736049 87.277968 
L 498.019662 86.427131 
L 498.303274 85.576293 
L 498.870499 85.292681 
L 499.437724 85.009069 
" style="fill:none;stroke:#c44e52;stroke-linecap:square;"/>
   </g>
   <g id="line2d_25">
    <path clip-path="url(#pdc3bf6da99)" d="M 500.288561 84.725456 
L 500.288561 85.009069 
L 500.572173 85.292681 
L 500.855786 85.576293 
L 501.139398 85.576293 
L 501.706623 85.292681 
L 501.990235 85.009069 
L 501.990235 84.441844 
L 501.706623 84.158231 
L 501.423011 83.874619 
L 500.855786 84.158231 
L 500.288561 84.725456 
L 500.288561 86.143518 
L 500.572173 86.994356 
L 501.139398 87.56158 
L 501.706623 87.845193 
L 502.273848 87.845193 
L 502.55746 87.56158 
L 502.841073 87.277968 
L 503.124685 86.994356 
L 503.124685 87.277968 
L 503.124685 87.56158 
L 503.408298 87.56158 
L 503.408298 87.277968 
L 503.408298 86.994356 
L 503.69191 86.143518 
L 503.975522 85.292681 
L 504.259135 84.725456 
L 504.82636 84.158231 
L 505.109972 84.158231 
L 505.393585 84.725456 
L 505.677197 85.292681 
L 505.960809 86.143518 
L 506.244422 86.710743 
" style="fill:none;stroke:#c44e52;stroke-linecap:square;"/>
   </g>
   <g id="line2d_26">
    <path clip-path="url(#pdc3bf6da99)" d="M 507.378872 84.441844 
L 507.095259 84.158231 
L 506.811647 84.158231 
L 506.528034 84.441844 
L 506.528034 84.725456 
L 507.095259 85.859906 
L 507.662484 86.427131 
L 508.513321 86.710743 
" style="fill:none;stroke:#c44e52;stroke-linecap:square;"/>
   </g>
   <g id="line2d_27">
    <path clip-path="url(#pdc3bf6da99)" d="M 509.647771 84.441844 
L 509.647771 84.158231 
L 509.931383 84.158231 
L 510.498608 83.874619 
L 511.065833 83.307394 
L 511.349445 82.740169 
L 511.065833 82.456557 
L 510.782221 82.172944 
L 510.214996 82.456557 
L 509.647771 83.023782 
L 509.080546 83.874619 
L 509.080546 84.725456 
L 509.647771 85.292681 
L 510.214996 85.576293 
" style="fill:none;stroke:#c44e52;stroke-linecap:square;"/>
   </g>
   <g id="line2d_28">
    <path clip-path="url(#pdc3bf6da99)" d="M 513.901957 83.023782 
L 513.901957 82.456557 
L 513.901957 81.889332 
L 513.618345 81.889332 
L 513.334732 81.60572 
L 512.767508 81.60572 
L 512.767508 81.889332 
L 512.767508 82.172944 
L 513.334732 82.456557 
L 513.618345 83.023782 
L 514.18557 83.874619 
L 514.469182 84.725456 
L 514.469182 85.576293 
" style="fill:none;stroke:#c44e52;stroke-linecap:square;"/>
   </g>
   <g id="line2d_29">
    <path clip-path="url(#pdc3bf6da99)" d="M 522.126718 83.307394 
L 522.126718 83.023782 
L 522.126718 82.740169 
L 522.126718 82.456557 
L 521.559493 81.889332 
L 520.992268 81.60572 
L 520.425043 81.60572 
L 519.857818 81.889332 
L 519.857818 82.172944 
L 520.141431 83.023782 
L 520.708655 83.307394 
L 521.27588 83.307394 
L 521.843105 83.023782 
L 522.126718 82.740169 
L 522.126718 81.889332 
L 522.126718 81.60572 
L 522.126718 81.889332 
L 522.41033 81.889332 
L 522.693942 82.740169 
L 523.261167 83.307394 
L 523.54478 83.591006 
" style="fill:none;stroke:#c44e52;stroke-linecap:square;"/>
   </g>
   <g id="line2d_30">
    <path clip-path="url(#pdc3bf6da99)" d="M 524.112005 81.889332 
L 524.112005 81.60572 
L 524.395617 81.60572 
L 524.679229 81.60572 
L 524.679229 81.889332 
L 524.962842 81.889332 
L 525.246454 82.456557 
L 525.530067 82.456557 
L 525.530067 82.740169 
L 525.530067 82.456557 
L 525.530067 81.889332 
L 525.813679 81.038495 
L 526.097292 80.47127 
L 526.664516 79.904045 
L 527.231741 79.620433 
" style="fill:none;stroke:#c44e52;stroke-linecap:square;"/>
   </g>
   <g id="line2d_31">
    <path clip-path="url(#pdc3bf6da99)" d="M 528.933416 79.904045 
L 529.217028 79.904045 
L 529.217028 79.620433 
L 529.784253 79.33682 
L 530.067865 78.769595 
L 530.351478 78.20237 
L 530.067865 77.635146 
L 529.784253 77.351533 
L 528.649803 78.20237 
L 528.366191 78.485983 
L 528.082578 79.620433 
L 528.366191 80.754882 
L 529.217028 81.60572 
L 529.784253 81.889332 
" style="fill:none;stroke:#c44e52;stroke-linecap:square;"/>
   </g>
   <g id="line2d_32">
    <path clip-path="url(#pdc3bf6da99)" d="M 487.242389 97.771628 
L 486.958777 97.488015 
L 486.675165 97.488015 
L 486.675165 98.05524 
L 486.675165 98.906077 
L 487.242389 100.607752 
L 488.093227 102.309426 
L 488.376839 103.443876 
L 488.660452 104.294713 
L 488.944064 104.861938 
" style="fill:none;stroke:#c44e52;stroke-linecap:square;"/>
   </g>
   <g id="line2d_33">
    <path clip-path="url(#pdc3bf6da99)" d="M 488.093227 101.742202 
L 487.809614 101.742202 
L 487.526002 101.742202 
L 487.242389 101.742202 
L 487.242389 101.458589 
L 487.526002 101.458589 
L 488.376839 101.174977 
L 489.511289 101.458589 
L 490.362126 102.025814 
L 490.929351 102.593039 
L 491.496576 103.443876 
L 491.496576 103.727489 
L 490.929351 104.294713 
L 490.362126 104.578326 
L 489.794901 104.294713 
L 489.227676 104.294713 
L 489.227676 104.011101 
" style="fill:none;stroke:#c44e52;stroke-linecap:square;"/>
   </g>
   <g id="line2d_34">
    <path clip-path="url(#pdc3bf6da99)" d="M 491.780188 101.742202 
L 492.063801 101.742202 
L 492.347413 102.025814 
L 492.347413 102.309426 
L 492.914638 102.593039 
L 493.19825 103.160264 
" style="fill:none;stroke:#c44e52;stroke-linecap:square;"/>
   </g>
   <g id="line2d_35">
    <path clip-path="url(#pdc3bf6da99)" d="M 492.631025 100.32414 
L 492.631025 99.756915 
L 492.631025 99.473302 
L 492.914638 99.473302 
" style="fill:none;stroke:#c44e52;stroke-linecap:square;"/>
   </g>
   <g id="line2d_36">
    <path clip-path="url(#pdc3bf6da99)" d="M 494.899925 100.607752 
L 494.899925 100.891364 
L 494.899925 101.174977 
L 494.616312 101.174977 
L 494.616312 101.458589 
L 494.616312 102.025814 
L 494.899925 102.593039 
L 495.46715 103.160264 
L 496.034375 103.160264 
L 496.601599 102.876651 
L 496.885212 102.593039 
L 496.601599 101.742202 
L 496.034375 101.174977 
L 495.750762 101.174977 
L 495.183537 101.174977 
L 494.899925 101.174977 
" style="fill:none;stroke:#c44e52;stroke-linecap:square;"/>
   </g>
   <g id="line2d_37">
    <path clip-path="url(#pdc3bf6da99)" d="M 497.168824 98.906077 
L 497.452437 98.906077 
L 497.736049 98.906077 
L 497.736049 99.18969 
L 498.019662 99.756915 
L 498.586886 101.174977 
L 498.870499 101.742202 
L 499.437724 102.309426 
" style="fill:none;stroke:#c44e52;stroke-linecap:square;"/>
   </g>
   <g id="line2d_38">
    <path clip-path="url(#pdc3bf6da99)" d="M 497.736049 101.174977 
L 497.736049 100.891364 
L 498.019662 100.891364 
L 498.586886 100.891364 
L 499.154111 100.891364 
L 499.721336 100.891364 
L 500.004948 100.891364 
" style="fill:none;stroke:#c44e52;stroke-linecap:square;"/>
   </g>
   <g id="line2d_39">
    <path clip-path="url(#pdc3bf6da99)" d="M 501.706623 99.756915 
L 501.706623 99.473302 
L 501.423011 99.18969 
L 501.139398 98.906077 
L 501.423011 98.622465 
" style="fill:none;stroke:#c44e52;stroke-linecap:square;"/>
   </g>
   <g id="line2d_40">
    <path clip-path="url(#pdc3bf6da99)" d="M 504.259135 98.622465 
L 504.259135 98.338853 
L 503.975522 98.338853 
L 503.69191 98.906077 
L 503.69191 99.756915 
L 503.69191 100.32414 
L 504.259135 101.174977 
L 505.109972 101.742202 
L 505.960809 101.742202 
" style="fill:none;stroke:#c44e52;stroke-linecap:square;"/>
   </g>
   <g id="line2d_41">
    <path clip-path="url(#pdc3bf6da99)" d="M 501.423011 102.309426 
L 501.139398 102.309426 
L 501.139398 102.025814 
L 501.139398 101.742202 
L 501.139398 102.025814 
L 501.423011 102.593039 
L 501.706623 103.160264 
L 502.273848 103.443876 
L 502.55746 103.727489 
" style="fill:none;stroke:#c44e52;stroke-linecap:square;"/>
   </g>
   <g id="line2d_42">
    <path clip-path="url(#pdc3bf6da99)" d="M 514.469182 96.92079 
L 514.752795 96.637178 
L 515.036407 96.353566 
L 515.320019 95.786341 
L 515.603632 95.219116 
L 515.603632 94.651891 
L 515.320019 94.368279 
L 515.036407 94.368279 
L 514.469182 94.935503 
L 514.18557 96.069953 
L 514.18557 97.771628 
L 514.469182 98.338853 
L 515.320019 98.906077 
L 515.887244 98.906077 
L 516.738082 98.338853 
L 517.305306 98.05524 
" style="fill:none;stroke:#c44e52;stroke-linecap:square;"/>
   </g>
   <g id="line2d_43">
    <path clip-path="url(#pdc3bf6da99)" d="M 518.156144 96.353566 
L 518.156144 96.069953 
L 518.156144 95.786341 
L 517.872531 95.786341 
L 517.872531 95.502728 
L 517.588919 95.502728 
L 517.305306 95.502728 
L 517.305306 95.786341 
L 517.305306 96.069953 
L 517.305306 96.353566 
L 517.588919 96.92079 
L 517.588919 97.488015 
L 517.872531 98.05524 
L 517.872531 97.488015 
L 517.305306 95.786341 
L 516.738082 94.084666 
L 516.454469 92.666604 
L 516.454469 91.532154 
L 516.454469 90.681317 
L 516.738082 90.114092 
L 516.738082 89.83048 
L 517.305306 89.546867 
L 517.872531 89.546867 
" style="fill:none;stroke:#c44e52;stroke-linecap:square;"/>
   </g>
   <g id="line2d_44">
    <path clip-path="url(#pdc3bf6da99)" d="M 517.021694 93.517441 
L 516.738082 93.801054 
L 516.454469 94.651891 
L 516.454469 94.935503 
L 516.738082 95.219116 
L 517.305306 95.219116 
L 518.156144 94.935503 
L 518.723368 94.368279 
L 519.290593 94.084666 
L 519.574206 94.084666 
" style="fill:none;stroke:#c44e52;stroke-linecap:square;"/>
   </g>
   <g id="line2d_45">
    <path clip-path="url(#pdc3bf6da99)" d="M 520.992268 94.084666 
L 520.992268 94.368279 
L 520.992268 94.651891 
L 520.992268 94.935503 
L 521.27588 95.502728 
L 521.27588 95.786341 
L 521.27588 96.069953 
L 521.27588 96.353566 
L 521.27588 96.069953 
L 520.708655 95.502728 
L 519.857818 93.801054 
L 519.574206 92.666604 
L 519.290593 91.532154 
L 519.290593 90.681317 
L 519.574206 90.114092 
L 519.857818 89.83048 
L 520.425043 89.546867 
" style="fill:none;stroke:#c44e52;stroke-linecap:square;"/>
   </g>
   <g id="line2d_46">
    <path clip-path="url(#pdc3bf6da99)" d="M 519.574206 93.233829 
L 519.290593 93.801054 
L 519.290593 94.368279 
L 519.574206 94.651891 
L 520.708655 94.651891 
L 522.126718 94.084666 
L 522.977555 93.801054 
" style="fill:none;stroke:#c44e52;stroke-linecap:square;"/>
   </g>
   <g id="line2d_47">
    <path clip-path="url(#pdc3bf6da99)" d="M 524.395617 93.233829 
L 524.112005 93.233829 
L 524.112005 93.517441 
L 524.395617 93.517441 
L 524.679229 93.233829 
L 524.962842 93.233829 
L 525.246454 92.666604 
L 525.530067 92.382992 
L 525.530067 92.099379 
L 525.246454 92.099379 
L 524.962842 92.099379 
L 524.395617 92.382992 
L 523.828392 92.950216 
L 523.54478 93.801054 
L 523.54478 94.935503 
L 524.112005 95.502728 
L 524.962842 96.069953 
L 525.813679 95.786341 
L 526.664516 95.219116 
L 527.231741 94.935503 
" style="fill:none;stroke:#c44e52;stroke-linecap:square;"/>
   </g>
   <g id="line2d_48">
    <path clip-path="url(#pdc3bf6da99)" d="M 528.082578 92.950216 
L 528.082578 92.666604 
L 528.082578 92.382992 
L 527.798966 92.382992 
L 527.515354 92.382992 
L 527.231741 92.382992 
L 527.231741 92.666604 
L 527.231741 92.950216 
L 527.515354 93.233829 
L 528.082578 93.801054 
L 528.366191 94.368279 
L 529.217028 94.368279 
L 529.784253 94.084666 
L 530.351478 93.801054 
L 530.351478 93.233829 
L 530.63509 93.233829 
" style="fill:none;stroke:#c44e52;stroke-linecap:square;"/>
   </g>
   <g id="line2d_49">
    <path clip-path="url(#pdc3bf6da99)" d="M 530.63509 90.681317 
L 530.63509 90.397705 
L 530.351478 90.397705 
L 530.351478 90.114092 
L 530.351478 90.397705 
L 530.351478 90.681317 
L 530.351478 90.96493 
L 530.63509 92.099379 
L 530.918703 93.233829 
L 531.202315 93.801054 
" style="fill:none;stroke:#c44e52;stroke-linecap:square;"/>
   </g>
   <g id="line2d_50">
    <path clip-path="url(#pdc3bf6da99)" d="M 530.351478 92.382992 
L 530.067865 92.099379 
L 529.784253 92.099379 
L 530.067865 92.099379 
L 530.351478 91.815767 
L 531.202315 91.248542 
L 532.053152 90.96493 
L 533.187602 90.397705 
L 533.754827 90.114092 
L 533.754827 89.83048 
L 533.471215 89.83048 
L 533.187602 89.83048 
L 532.90399 90.114092 
L 532.620377 90.114092 
L 532.620377 90.397705 
L 532.620377 90.681317 
L 532.90399 90.96493 
L 533.471215 91.532154 
L 534.322052 92.382992 
L 534.605664 92.950216 
L 534.889277 93.517441 
L 534.889277 94.368279 
L 534.605664 94.651891 
" style="fill:none;stroke:#c44e52;stroke-linecap:square;"/>
   </g>
   <g id="line2d_51">
    <path clip-path="url(#pdc3bf6da99)" d="M 231.14037 22.897948 
L 231.423983 22.897948 
L 231.707595 22.614335 
L 231.991208 22.614335 
L 231.991208 22.330723 
L 232.27482 22.330723 
L 232.27482 22.04711 
L 231.707595 22.04711 
L 231.14037 22.614335 
L 230.573145 23.748785 
L 230.289533 24.599622 
L 230.289533 25.734072 
L 230.856758 26.017684 
L 231.423983 26.301297 
L 232.27482 25.734072 
L 232.558432 25.166847 
L 232.842045 24.31601 
L 232.842045 23.748785 
L 232.558432 23.18156 
L 232.558432 22.897948 
L 232.842045 22.897948 
L 233.125657 22.897948 
L 233.976494 23.748785 
L 235.110944 25.45046 
L 236.245394 26.868522 
L 236.812619 28.853809 
L 237.096231 30.555483 
L 236.529006 31.973545 
L 235.394557 32.824383 
L 234.543719 33.391607 
L 233.125657 33.67522 
L 232.558432 33.107995 
L 232.558432 32.257158 
" style="fill:none;stroke:#c44e52;stroke-linecap:square;"/>
   </g>
   <g id="line2d_52">
    <path clip-path="url(#pdc3bf6da99)" d="M 237.663456 24.032397 
L 237.663456 24.883235 
L 238.230681 26.301297 
L 238.230681 27.152134 
L 238.514293 28.002971 
L 238.514293 28.286584 
L 238.514293 28.570196 
L 238.514293 28.286584 
L 238.230681 27.719359 
L 238.514293 26.584909 
L 238.797906 25.45046 
L 239.365131 24.31601 
L 239.648743 23.748785 
" style="fill:none;stroke:#c44e52;stroke-linecap:square;"/>
   </g>
   <g id="line2d_53">
    <path clip-path="url(#pdc3bf6da99)" d="M 242.484867 24.883235 
L 242.201255 25.166847 
L 242.201255 25.45046 
L 241.917642 25.734072 
L 241.63403 26.017684 
L 241.63403 26.868522 
L 241.63403 27.719359 
L 242.484867 28.286584 
L 243.335704 28.570196 
L 244.186542 28.002971 
L 244.470154 27.435746 
L 244.186542 26.301297 
L 243.619317 25.166847 
L 242.76848 24.599622 
L 242.201255 24.883235 
L 241.917642 25.45046 
L 241.917642 25.734072 
" style="fill:none;stroke:#c44e52;stroke-linecap:square;"/>
   </g>
   <g id="line2d_54">
    <path clip-path="url(#pdc3bf6da99)" d="M 246.455441 24.032397 
L 246.455441 24.31601 
L 246.739054 24.883235 
L 247.022666 25.45046 
L 247.306278 26.301297 
L 247.873503 26.868522 
L 248.157116 26.868522 
L 248.440728 26.868522 
L 248.440728 26.584909 
L 248.724341 26.301297 
L 249.007953 26.301297 
L 249.007953 26.584909 
L 249.291565 26.868522 
L 249.85879 27.152134 
L 250.142403 27.152134 
L 250.142403 26.868522 
L 250.142403 26.017684 
L 249.85879 24.883235 
L 249.575178 24.032397 
L 249.291565 23.18156 
L 249.291565 22.614335 
" style="fill:none;stroke:#c44e52;stroke-linecap:square;"/>
   </g>
   <g id="line2d_55">
    <path clip-path="url(#pdc3bf6da99)" d="M 251.844077 19.210986 
L 252.12769 19.210986 
L 252.12769 19.494599 
L 252.411302 19.778211 
L 252.411302 20.345436 
L 252.978527 21.479886 
L 253.545752 23.748785 
L 254.112977 25.734072 
L 254.396589 26.868522 
L 254.680201 27.435746 
" style="fill:none;stroke:#c44e52;stroke-linecap:square;"/>
   </g>
   <g id="line2d_56">
    <path clip-path="url(#pdc3bf6da99)" d="M 253.262139 26.017684 
L 252.978527 25.45046 
L 252.978527 24.599622 
L 252.978527 23.748785 
L 253.262139 22.897948 
L 253.829364 22.04711 
L 254.112977 21.763498 
L 254.680201 21.196273 
L 254.680201 20.912661 
" style="fill:none;stroke:#c44e52;stroke-linecap:square;"/>
   </g>
   <g id="line2d_57">
    <path clip-path="url(#pdc3bf6da99)" d="M 255.814651 19.210986 
L 256.098264 19.210986 
L 256.098264 18.927374 
L 256.381876 18.927374 
L 256.381876 19.210986 
L 256.665488 19.778211 
L 256.949101 21.763498 
L 257.799938 24.31601 
L 258.367163 26.301297 
L 258.650775 26.868522 
L 258.934388 27.152134 
L 259.218 26.868522 
L 259.218 26.017684 
L 259.785225 24.599622 
L 260.068838 24.032397 
L 260.35245 23.465173 
L 260.919675 23.465173 
L 261.203287 24.032397 
L 261.770512 24.883235 
L 262.054124 26.017684 
L 262.621349 26.868522 
L 262.621349 27.152134 
" style="fill:none;stroke:#c44e52;stroke-linecap:square;"/>
   </g>
   <g id="line2d_58">
    <path clip-path="url(#pdc3bf6da99)" d="M 277.369195 23.748785 
L 277.369195 24.032397 
L 277.085583 24.032397 
L 277.369195 24.032397 
L 277.652808 23.748785 
L 278.220033 23.465173 
L 278.787258 22.897948 
L 279.07087 22.04711 
L 279.07087 21.479886 
L 278.503645 21.196273 
L 277.369195 21.479886 
L 276.801971 22.330723 
L 276.234746 24.31601 
L 276.518358 25.45046 
L 277.369195 26.584909 
L 278.220033 27.152134 
L 279.354482 27.152134 
L 280.488932 26.584909 
L 281.339769 26.017684 
" style="fill:none;stroke:#c44e52;stroke-linecap:square;"/>
   </g>
   <g id="line2d_59">
    <path clip-path="url(#pdc3bf6da99)" d="M 284.459506 22.04711 
L 284.459506 21.763498 
L 284.175894 21.763498 
L 283.608669 22.330723 
L 283.325056 22.897948 
L 282.757831 24.032397 
L 282.190607 25.166847 
L 281.906994 25.45046 
" style="fill:none;stroke:#c44e52;stroke-linecap:square;"/>
   </g>
   <g id="line2d_60">
    <path clip-path="url(#pdc3bf6da99)" d="M 281.623382 22.04711 
L 281.623382 21.763498 
L 281.623382 22.04711 
L 281.906994 22.330723 
L 282.474219 22.897948 
L 283.325056 24.032397 
L 284.459506 25.734072 
L 285.310343 26.584909 
L 285.593956 26.868522 
" style="fill:none;stroke:#c44e52;stroke-linecap:square;"/>
   </g>
   <g id="line2d_61">
    <path clip-path="url(#pdc3bf6da99)" d="M 287.579243 25.734072 
L 287.862855 25.734072 
L 288.146468 25.734072 
L 288.43008 25.734072 
L 288.43008 25.45046 
L 288.997305 25.166847 
L 289.280917 24.31601 
L 289.280917 23.748785 
L 288.997305 22.614335 
L 288.43008 21.479886 
L 287.862855 20.912661 
L 287.29563 20.345436 
L 287.012018 20.629048 
L 286.728405 21.479886 
L 286.728405 22.897948 
L 287.012018 26.017684 
L 287.29563 28.002971 
L 287.579243 29.704646 
L 288.146468 30.271871 
L 288.146468 30.555483 
L 288.43008 30.555483 
" style="fill:none;stroke:#c44e52;stroke-linecap:square;"/>
   </g>
   <g id="line2d_62">
    <path clip-path="url(#pdc3bf6da99)" d="M 290.131754 23.465173 
L 290.415367 23.465173 
L 290.698979 23.465173 
L 291.266204 23.465173 
L 291.833429 23.18156 
L 292.400654 22.614335 
L 292.967879 22.04711 
L 292.967879 21.479886 
L 292.967879 21.196273 
L 292.400654 20.912661 
L 291.833429 20.912661 
L 291.266204 21.479886 
L 290.982592 23.18156 
L 290.982592 24.31601 
L 291.266204 25.45046 
L 292.117041 26.017684 
L 292.400654 26.017684 
L 292.967879 25.45046 
L 293.251491 25.166847 
" style="fill:none;stroke:#c44e52;stroke-linecap:square;"/>
   </g>
   <g id="line2d_63">
    <path clip-path="url(#pdc3bf6da99)" d="M 294.953166 23.748785 
L 294.953166 24.032397 
L 295.236778 24.032397 
L 295.520391 24.599622 
L 296.087615 25.166847 
L 296.65484 26.017684 
L 296.938453 26.584909 
L 296.938453 26.868522 
L 297.222065 26.868522 
L 296.938453 26.301297 
L 296.938453 25.734072 
L 296.938453 24.599622 
L 297.222065 23.748785 
L 297.222065 22.897948 
L 297.505678 22.614335 
" style="fill:none;stroke:#c44e52;stroke-linecap:square;"/>
   </g>
   <g id="line2d_64">
    <path clip-path="url(#pdc3bf6da99)" d="M 300.058189 22.897948 
L 300.341802 24.31601 
L 300.625414 25.45046 
L 300.625414 26.301297 
L 300.909027 26.584909 
" style="fill:none;stroke:#c44e52;stroke-linecap:square;"/>
   </g>
   <g id="line2d_65">
    <path clip-path="url(#pdc3bf6da99)" d="M 300.058189 23.465173 
L 300.058189 21.763498 
L 299.774577 20.912661 
L 299.774577 20.061823 
" style="fill:none;stroke:#c44e52;stroke-linecap:square;"/>
   </g>
   <g id="line2d_66">
    <path clip-path="url(#pdc3bf6da99)" d="M 302.894314 24.599622 
L 302.894314 25.166847 
L 303.177926 26.017684 
L 303.177926 26.584909 
L 303.177926 27.152134 
L 303.177926 27.435746 
L 303.177926 27.152134 
L 303.177926 26.868522 
L 303.461538 26.301297 
L 303.461538 24.599622 
L 304.028763 23.465173 
L 304.312376 22.897948 
L 304.595988 22.614335 
L 304.879601 22.897948 
L 305.163213 24.032397 
L 305.730438 24.883235 
L 306.01405 25.45046 
L 306.297663 25.166847 
L 306.297663 24.599622 
L 306.581275 24.032397 
L 306.581275 23.748785 
L 306.864888 23.748785 
L 307.1485 23.748785 
L 307.432112 24.032397 
L 307.715725 24.599622 
L 307.999337 25.734072 
L 308.28295 26.017684 
L 308.566562 26.017684 
L 308.566562 25.734072 
L 308.850174 25.45046 
L 308.850174 25.166847 
L 309.133787 24.883235 
L 309.417399 24.883235 
" style="fill:none;stroke:#c44e52;stroke-linecap:square;"/>
   </g>
   <g id="line2d_67">
    <path clip-path="url(#pdc3bf6da99)" d="M 311.119074 24.883235 
L 311.402686 24.883235 
L 311.686299 24.883235 
L 311.686299 24.599622 
L 312.537136 24.032397 
L 312.820748 23.465173 
L 313.387973 22.614335 
L 313.387973 22.04711 
L 313.104361 21.479886 
L 312.537136 21.196273 
L 311.969911 21.479886 
L 311.402686 22.330723 
L 310.835461 23.748785 
L 310.551849 25.45046 
L 310.835461 26.301297 
L 311.402686 27.152134 
L 312.253524 27.435746 
L 312.820748 27.435746 
L 313.104361 27.435746 
" style="fill:none;stroke:#c44e52;stroke-linecap:square;"/>
   </g>
   <g id="line2d_68">
    <path clip-path="url(#pdc3bf6da99)" d="M 316.224098 24.599622 
L 316.224098 24.883235 
L 316.224098 25.166847 
L 316.224098 25.45046 
L 315.940485 26.301297 
L 316.224098 27.152134 
L 316.224098 27.435746 
L 316.224098 27.435746 
L 316.50771 27.152134 
L 316.50771 25.734072 
L 316.791322 24.31601 
L 317.64216 22.614335 
L 317.925772 21.763498 
L 318.209384 21.763498 
L 318.492997 22.04711 
L 318.776609 22.897948 
L 318.776609 24.599622 
L 318.776609 25.45046 
L 319.060222 26.301297 
" style="fill:none;stroke:#c44e52;stroke-linecap:square;"/>
   </g>
   <g id="line2d_69">
    <path clip-path="url(#pdc3bf6da99)" d="M 321.045509 21.196273 
L 321.045509 20.912661 
L 321.329121 20.629048 
L 321.612734 20.345436 
L 321.612734 20.629048 
L 321.896346 21.479886 
L 322.179958 22.897948 
L 322.463571 24.883235 
L 322.747183 26.301297 
L 322.747183 27.719359 
" style="fill:none;stroke:#c44e52;stroke-linecap:square;"/>
   </g>
   <g id="line2d_70">
    <path clip-path="url(#pdc3bf6da99)" d="M 320.761896 24.032397 
L 320.761896 23.748785 
L 320.761896 23.465173 
L 321.612734 23.18156 
L 322.747183 22.897948 
L 324.165245 22.614335 
L 325.299695 22.330723 
L 326.150532 21.763498 
L 327.284982 21.479886 
L 327.852207 21.196273 
L 328.135819 20.912661 
L 327.852207 20.912661 
L 327.284982 21.196273 
L 327.00137 21.479886 
L 326.717757 22.04711 
L 326.434145 22.330723 
L 326.717757 22.614335 
L 327.00137 22.614335 
L 327.852207 23.18156 
L 328.419432 24.032397 
L 328.986657 25.166847 
L 328.986657 26.017684 
L 328.703044 27.152134 
L 328.135819 28.002971 
" style="fill:none;stroke:#c44e52;stroke-linecap:square;"/>
   </g>
   <g id="line2d_71">
    <path clip-path="url(#pdc3bf6da99)" d="M 37.149472 58.065888 
L 37.433084 57.782276 
L 37.433084 58.065888 
L 37.433084 58.349501 
L 37.433084 58.916726 
L 37.716697 60.6184 
L 38.000309 62.603687 
L 38.283922 64.305362 
L 38.283922 66.007036 
L 38.567534 66.857873 
L 38.567534 67.425098 
L 38.567534 67.708711 
L 38.567534 67.992323 
" style="fill:none;stroke:#c44e52;stroke-linecap:square;"/>
   </g>
   <g id="line2d_72">
    <path clip-path="url(#pdc3bf6da99)" d="M 32.328061 56.080601 
L 32.328061 56.364214 
L 32.611673 56.647826 
L 32.895286 56.647826 
L 33.746123 56.647826 
L 36.015022 56.647826 
L 38.567534 56.080601 
L 40.552821 55.796989 
L 41.687271 55.796989 
L 42.538108 55.796989 
L 43.105333 55.796989 
L 43.388945 55.796989 
L 43.672558 55.796989 
" style="fill:none;stroke:#c44e52;stroke-linecap:square;"/>
   </g>
   <g id="line2d_73">
    <path clip-path="url(#pdc3bf6da99)" d="M 45.941457 60.051175 
L 46.22507 60.051175 
L 46.508682 60.051175 
L 46.508682 59.767563 
L 47.075907 59.767563 
L 47.643132 59.767563 
L 48.210357 59.767563 
L 48.493969 59.767563 
" style="fill:none;stroke:#c44e52;stroke-linecap:square;"/>
   </g>
   <g id="line2d_74">
    <path clip-path="url(#pdc3bf6da99)" d="M 45.941457 62.8873 
L 45.941457 63.170912 
L 45.941457 63.454524 
L 46.22507 63.454524 
L 46.792294 63.454524 
L 47.643132 63.454524 
L 48.493969 63.454524 
L 49.344806 63.170912 
L 49.628419 63.170912 
" style="fill:none;stroke:#c44e52;stroke-linecap:square;"/>
   </g>
   <g id="line2d_75">
    <path clip-path="url(#pdc3bf6da99)" d="M 55.867892 52.960865 
L 55.867892 53.244477 
L 55.867892 53.52809 
L 56.151504 54.662539 
L 56.151504 56.931439 
L 56.718729 59.200338 
L 57.002342 62.320075 
L 57.285954 64.872586 
L 57.285954 66.574261 
L 57.569567 67.141486 
L 57.853179 67.425098 
" style="fill:none;stroke:#c44e52;stroke-linecap:square;"/>
   </g>
   <g id="line2d_76">
    <path clip-path="url(#pdc3bf6da99)" d="M 59.554854 53.52809 
L 59.554854 53.244477 
L 59.838466 52.960865 
L 59.554854 52.960865 
L 59.554854 53.244477 
L 59.554854 53.52809 
L 59.271241 54.946152 
L 59.271241 57.215051 
L 59.554854 59.48395 
L 59.838466 62.036462 
L 60.689303 64.021749 
L 61.823753 65.156199 
L 62.958203 66.007036 
L 64.092652 66.290649 
L 64.94349 66.290649 
L 65.794327 66.007036 
L 66.077939 65.439811 
L 66.077939 64.305362 
L 65.510714 63.454524 
L 64.376265 62.036462 
L 63.525427 61.75285 
L 62.107365 61.75285 
L 61.256528 62.320075 
L 60.689303 62.8873 
L 60.405691 63.454524 
L 60.405691 63.738137 
" style="fill:none;stroke:#c44e52;stroke-linecap:square;"/>
   </g>
   <g id="line2d_77">
    <path clip-path="url(#pdc3bf6da99)" d="M 68.914064 64.305362 
L 68.914064 64.588974 
L 69.197676 64.872586 
L 69.481288 65.439811 
L 69.481288 65.723424 
" style="fill:none;stroke:#c44e52;stroke-linecap:square;"/>
   </g>
   <g id="line2d_78">
    <path clip-path="url(#pdc3bf6da99)" d="M 72.0338 54.662539 
L 71.750188 54.662539 
L 71.466575 54.662539 
L 71.182963 54.662539 
L 70.332126 54.946152 
L 69.481288 55.513376 
L 68.914064 55.796989 
L 68.914064 56.364214 
L 69.481288 56.647826 
L 70.332126 56.931439 
L 72.0338 57.782276 
L 73.735475 58.349501 
L 74.869924 59.200338 
L 75.720762 60.334788 
L 76.571599 61.75285 
L 76.571599 62.8873 
L 76.571599 63.738137 
L 75.720762 64.305362 
L 74.586312 64.872586 
L 73.451862 64.872586 
L 72.317413 64.588974 
L 71.750188 64.021749 
" style="fill:none;stroke:#c44e52;stroke-linecap:square;"/>
   </g>
   <g id="line2d_79">
    <path clip-path="url(#pdc3bf6da99)" d="M 70.89935 54.946152 
L 70.615738 54.946152 
L 70.89935 54.946152 
L 72.0338 54.946152 
L 73.16825 54.946152 
L 74.586312 54.662539 
L 75.437149 54.662539 
L 76.287987 54.095314 
L 76.287987 53.811702 
" style="fill:none;stroke:#c44e52;stroke-linecap:square;"/>
   </g>
   <g id="line2d_80">
    <path clip-path="url(#pdc3bf6da99)" d="M 80.542173 58.065888 
L 80.825785 58.065888 
L 81.109398 58.065888 
L 81.39301 58.065888 
L 82.243847 58.065888 
L 83.094685 58.065888 
L 83.378297 58.065888 
L 83.66191 57.782276 
L 83.945522 57.782276 
" style="fill:none;stroke:#c44e52;stroke-linecap:square;"/>
   </g>
   <g id="line2d_81">
    <path clip-path="url(#pdc3bf6da99)" d="M 89.050546 52.110027 
L 89.334158 52.110027 
L 89.334158 52.39364 
L 89.050546 52.39364 
L 89.050546 52.677252 
L 89.050546 53.52809 
L 89.050546 54.662539 
L 89.050546 55.513376 
L 89.334158 56.647826 
L 90.184995 56.931439 
L 91.603057 56.931439 
L 92.737507 56.647826 
L 93.871957 55.796989 
L 94.155569 55.513376 
" style="fill:none;stroke:#c44e52;stroke-linecap:square;"/>
   </g>
   <g id="line2d_82">
    <path clip-path="url(#pdc3bf6da99)" d="M 93.304732 51.542803 
L 93.304732 51.25919 
L 93.02112 51.25919 
L 93.02112 51.542803 
L 93.02112 51.826415 
L 93.304732 52.39364 
L 93.588344 53.811702 
L 93.871957 55.229764 
L 94.155569 57.215051 
L 94.722794 59.200338 
L 95.006407 60.334788 
L 95.006407 61.185625 
L 95.290019 61.185625 
L 95.290019 61.469237 
" style="fill:none;stroke:#c44e52;stroke-linecap:square;"/>
   </g>
   <g id="line2d_83">
    <path clip-path="url(#pdc3bf6da99)" d="M 98.976981 61.185625 
L 99.260593 61.469237 
L 99.260593 61.75285 
L 99.260593 61.469237 
" style="fill:none;stroke:#c44e52;stroke-linecap:square;"/>
   </g>
   <g id="line2d_84">
    <path clip-path="url(#pdc3bf6da99)" d="M 102.663942 50.975578 
L 102.663942 50.691965 
L 102.38033 50.408353 
L 102.096717 50.12474 
L 101.813105 50.12474 
L 101.24588 50.12474 
L 100.395043 50.975578 
L 100.395043 51.826415 
L 100.678655 52.960865 
L 101.529492 54.095314 
L 102.663942 54.378927 
L 104.082004 54.378927 
L 104.932841 53.52809 
L 105.500066 52.39364 
L 105.500066 51.25919 
L 105.216454 49.557516 
L 104.649229 48.990291 
L 103.798392 48.706678 
L 102.663942 49.273903 
L 101.529492 49.841128 
L 101.529492 50.12474 
" style="fill:none;stroke:#c44e52;stroke-linecap:square;"/>
   </g>
   <g id="line2d_85">
    <path clip-path="url(#pdc3bf6da99)" d="M 103.231167 54.095314 
L 103.514779 54.095314 
L 103.231167 54.095314 
L 102.947554 54.095314 
L 102.947554 54.378927 
L 102.38033 54.946152 
L 102.096717 55.796989 
L 102.38033 56.931439 
L 103.231167 57.498663 
L 104.365617 58.065888 
L 105.783679 58.065888 
L 106.918128 57.215051 
L 107.485353 56.647826 
L 107.768966 55.229764 
L 107.485353 54.095314 
L 106.634516 53.811702 
L 105.500066 53.52809 
L 104.649229 53.52809 
L 104.082004 53.811702 
" style="fill:none;stroke:#c44e52;stroke-linecap:square;"/>
   </g>
   <g id="line2d_86">
    <path clip-path="url(#pdc3bf6da99)" d="M 112.023152 52.110027 
L 111.73954 52.110027 
L 111.73954 52.39364 
" style="fill:none;stroke:#c44e52;stroke-linecap:square;"/>
   </g>
   <g id="line2d_87">
    <path clip-path="url(#pdc3bf6da99)" d="M 117.411788 48.706678 
L 117.411788 48.423066 
L 117.411788 48.139453 
L 117.695401 47.855841 
L 117.695401 47.572229 
L 117.695401 47.855841 
L 117.411788 48.139453 
L 117.411788 48.423066 
L 117.411788 49.841128 
L 117.128176 51.542803 
L 117.128176 52.677252 
L 116.844563 53.811702 
L 116.844563 54.095314 
L 117.128176 54.095314 
L 117.128176 53.811702 
L 117.411788 52.960865 
L 117.695401 51.826415 
L 117.979013 49.841128 
L 117.979013 48.423066 
L 117.979013 47.288616 
L 118.262625 46.721391 
L 118.262625 46.437779 
L 118.262625 46.154166 
L 118.262625 45.870554 
L 118.262625 46.154166 
L 118.546238 46.437779 
L 119.113463 47.572229 
L 119.9643 49.557516 
L 120.815137 51.25919 
L 121.665974 53.244477 
L 122.233199 53.811702 
L 122.516812 54.378927 
L 122.516812 54.095314 
" style="fill:none;stroke:#c44e52;stroke-linecap:square;"/>
   </g>
   <g id="line2d_88">
    <path clip-path="url(#pdc3bf6da99)" d="M 117.695401 54.378927 
L 117.411788 54.662539 
L 117.128176 54.662539 
L 116.844563 54.946152 
L 117.128176 55.229764 
L 117.411788 55.229764 
L 118.262625 54.946152 
L 119.397075 54.946152 
L 120.247912 54.662539 
L 120.815137 54.662539 
L 121.09875 54.662539 
L 121.09875 54.378927 
L 120.815137 54.378927 
" style="fill:none;stroke:#c44e52;stroke-linecap:square;"/>
   </g>
   <g id="line2d_89">
    <path clip-path="url(#pdc3bf6da99)" d="M 372.095745 220.575807 
L 372.095745 220.85942 
L 372.095745 221.143032 
L 372.095745 221.710257 
L 372.379358 222.561094 
L 372.946582 223.411932 
L 373.230195 224.829994 
L 373.79742 226.248056 
L 374.364645 227.382506 
L 374.931869 229.08418 
L 375.499094 229.935017 
L 376.349931 230.502242 
L 376.917156 231.069467 
L 377.767994 231.636692 
L 378.051606 231.920304 
L 378.618831 231.920304 
L 379.186056 232.203917 
L 380.036893 232.203917 
L 380.88773 232.203917 
L 381.454955 232.203917 
L 382.02218 232.203917 
L 383.15663 231.920304 
L 384.291079 231.636692 
L 385.141917 231.35308 
L 386.559979 230.502242 
L 387.694428 229.651405 
L 388.545266 228.800568 
L 389.679715 227.94973 
L 390.814165 227.098893 
L 391.665002 226.248056 
L 392.51584 225.397219 
L 393.366677 224.262769 
L 394.217514 223.411932 
L 394.784739 222.561094 
L 395.068351 221.99387 
L 395.635576 221.143032 
L 395.635576 220.575807 
L 395.635576 220.292195 
" style="fill:none;stroke:#c44e52;stroke-linecap:square;"/>
   </g>
   <g id="line2d_90">
    <path clip-path="url(#pdc3bf6da99)" d="M 382.02218 233.905591 
L 382.02218 233.621979 
L 382.305792 233.338367 
L 382.589405 233.054754 
L 382.589405 232.771142 
L 382.873017 232.771142 
L 382.873017 233.054754 
L 382.873017 233.338367 
L 382.589405 234.472816 
L 382.305792 235.890878 
L 382.305792 236.741716 
L 382.305792 237.30894 
L 382.305792 237.592553 
L 382.589405 237.592553 
L 382.589405 237.30894 
" style="fill:none;stroke:#c44e52;stroke-linecap:square;"/>
   </g>
   <g id="line2d_91">
    <path clip-path="url(#pdc3bf6da99)" d="M 382.873017 244.399251 
L 382.873017 244.682863 
L 382.589405 244.966476 
L 382.02218 245.533701 
L 381.171343 246.951763 
L 380.604118 248.086213 
L 379.469668 250.0715 
L 379.186056 250.922337 
L 378.902443 251.489562 
L 378.902443 251.205949 
L 379.186056 250.922337 
L 379.469668 250.355112 
L 380.036893 249.504275 
L 381.171343 248.086213 
L 382.02218 246.951763 
L 382.873017 245.250088 
L 383.15663 244.682863 
L 383.440242 244.399251 
L 383.440242 244.115639 
L 383.440242 244.399251 
L 383.440242 244.966476 
L 383.723855 245.533701 
L 384.007467 246.66815 
L 384.007467 248.086213 
L 384.574692 249.787887 
L 384.858304 250.922337 
L 385.141917 251.489562 
L 385.141917 251.773174 
L 385.141917 252.056787 
" style="fill:none;stroke:#c44e52;stroke-linecap:square;"/>
   </g>
   <g id="line2d_92">
    <path clip-path="url(#pdc3bf6da99)" d="M 378.335218 252.907624 
L 378.051606 252.907624 
L 377.767994 252.907624 
L 377.767994 253.191236 
L 378.051606 253.474849 
L 378.335218 253.474849 
L 379.753281 253.474849 
L 382.02218 252.907624 
L 383.723855 252.624011 
L 384.858304 252.056787 
L 385.425529 252.056787 
L 385.709141 252.056787 
L 385.425529 251.773174 
" style="fill:none;stroke:#c44e52;stroke-linecap:square;"/>
   </g>
  </g>
 </g>
 <defs>
  <clipPath id="pdc3bf6da99">
   <rect height="258.002222" width="552.817337" x="7.2" y="7.2"/>
  </clipPath>
 </defs>
</svg>
