<?xml version="1.0" encoding="utf-8" standalone="no"?>
<!DOCTYPE svg PUBLIC "-//W3C//DTD SVG 1.1//EN"
  "http://www.w3.org/Graphics/SVG/1.1/DTD/svg11.dtd">
<!-- Created with matplotlib (https://matplotlib.org/) -->
<svg height="278.051346pt" version="1.1" viewBox="0 0 567.217337 278.051346" width="567.217337pt" xmlns="http://www.w3.org/2000/svg" xmlns:xlink="http://www.w3.org/1999/xlink">
 <metadata>
  <rdf:RDF xmlns:cc="http://creativecommons.org/ns#" xmlns:dc="http://purl.org/dc/elements/1.1/" xmlns:rdf="http://www.w3.org/1999/02/22-rdf-syntax-ns#">
   <cc:Work>
    <dc:type rdf:resource="http://purl.org/dc/dcmitype/StillImage"/>
    <dc:date>2024-11-15T16:04:22.753318</dc:date>
    <dc:format>image/svg+xml</dc:format>
    <dc:creator>
     <cc:Agent>
      <dc:title>Matplotlib v3.3.4, https://matplotlib.org/</dc:title>
     </cc:Agent>
    </dc:creator>
   </cc:Work>
  </rdf:RDF>
 </metadata>
 <defs>
  <style type="text/css">*{stroke-linecap:butt;stroke-linejoin:round;}</style>
 </defs>
 <g id="figure_1">
  <g id="patch_1">
   <path d="M 0 278.051346 
L 567.217337 278.051346 
L 567.217337 0 
L 0 0 
z
" style="fill:#ffffff;"/>
  </g>
  <g id="axes_1">
   <g id="line2d_1">
    <path clip-path="url(#pb8534295fe)" d="M 349.880477 26.915863 
L 350.432742 26.363598 
L 350.432742 25.811333 
L 349.880477 25.259068 
L 349.880477 24.706803 
L 349.328212 24.706803 
L 348.775947 25.259068 
L 347.119152 25.811333 
L 346.014622 27.468128 
L 344.910092 30.229454 
L 344.357827 31.886249 
L 344.910092 34.095309 
L 346.014622 36.304369 
L 348.775947 37.408899 
L 351.537273 36.856634 
L 353.746333 36.304369 
L 354.850863 34.647574 
L 355.955393 33.543044 
" style="fill:none;stroke:#64b5cd;stroke-linecap:square;"/>
   </g>
   <g id="line2d_2">
    <path clip-path="url(#pb8534295fe)" d="M 356.507658 29.677188 
L 355.955393 29.677188 
L 355.955393 29.124923 
L 354.850863 29.677188 
L 354.298598 30.781719 
L 354.298598 31.886249 
L 354.298598 33.543044 
L 354.850863 35.199839 
L 355.955393 36.304369 
L 357.612188 36.304369 
L 359.268984 35.752104 
L 360.373514 34.095309 
L 360.925779 32.438514 
L 360.373514 30.781719 
L 358.716719 29.124923 
L 356.507658 28.572658 
L 354.850863 29.124923 
L 353.746333 29.677188 
L 353.746333 30.229454 
" style="fill:none;stroke:#64b5cd;stroke-linecap:square;"/>
   </g>
   <g id="line2d_3">
    <path clip-path="url(#pb8534295fe)" d="M 364.791634 21.393212 
L 364.239369 21.393212 
L 364.239369 21.945477 
L 364.239369 23.050008 
L 364.239369 26.363598 
L 365.343899 30.229454 
L 365.896165 33.543044 
L 367.000695 35.752104 
L 367.000695 36.304369 
" style="fill:none;stroke:#64b5cd;stroke-linecap:square;"/>
   </g>
   <g id="line2d_4">
    <path clip-path="url(#pb8534295fe)" d="M 375.284671 31.333984 
L 375.284671 30.781719 
L 374.732406 30.781719 
L 374.732406 30.229454 
L 374.732406 29.677188 
L 373.627876 29.677188 
L 371.97108 31.333984 
L 371.418815 33.543044 
L 370.86655 35.752104 
L 371.97108 37.961165 
L 373.627876 37.961165 
L 376.389201 36.856634 
L 378.045996 34.647574 
L 379.150526 31.886249 
L 379.150526 28.020393 
L 378.598261 23.602273 
L 377.493731 20.840947 
L 376.941466 19.736417 
L 376.941466 19.184152 
L 376.389201 19.736417 
L 376.941466 21.393212 
L 377.493731 24.154538 
L 378.598261 28.572658 
L 379.702791 31.886249 
L 380.807321 35.752104 
L 381.359587 37.408899 
L 381.911852 38.51343 
L 382.464117 39.065695 
" style="fill:none;stroke:#64b5cd;stroke-linecap:square;"/>
   </g>
   <g id="line2d_5">
    <path clip-path="url(#pb8534295fe)" d="M 491.260336 30.781719 
L 491.260336 30.229454 
L 491.260336 29.677188 
L 491.260336 29.124923 
L 491.260336 29.677188 
L 491.812601 30.229454 
L 492.364866 31.886249 
L 492.917131 32.990779 
L 493.469396 34.095309 
L 494.573926 34.647574 
L 495.126191 34.095309 
L 495.678457 33.543044 
L 496.230722 32.990779 
L 496.782987 32.990779 
L 497.335252 33.543044 
L 498.439782 34.647574 
L 500.096577 35.752104 
L 501.753372 35.752104 
L 502.857902 34.647574 
L 503.410168 31.886249 
L 502.857902 29.124923 
L 501.753372 25.811333 
L 501.201107 24.154538 
L 501.201107 23.602273 
L 501.201107 24.154538 
" style="fill:none;stroke:#c44e52;stroke-linecap:square;"/>
   </g>
   <g id="line2d_6">
    <path clip-path="url(#pb8534295fe)" d="M 511.694144 29.124923 
L 511.141879 28.572658 
L 510.589613 28.020393 
L 509.485083 28.020393 
L 508.380553 28.020393 
L 506.723758 29.677188 
L 506.171493 30.781719 
L 506.723758 32.438514 
L 507.828288 32.990779 
L 508.932818 32.990779 
L 509.485083 31.886249 
L 510.589613 29.677188 
L 510.589613 26.915863 
L 510.589613 24.706803 
L 510.589613 25.259068 
L 510.589613 25.811333 
L 511.141879 28.020393 
L 511.694144 30.229454 
L 512.246409 32.438514 
L 513.350939 33.543044 
L 513.350939 34.095309 
L 513.903204 34.095309 
" style="fill:none;stroke:#c44e52;stroke-linecap:square;"/>
   </g>
   <g id="line2d_7">
    <path clip-path="url(#pb8534295fe)" d="M 515.007734 29.677188 
L 515.559999 30.229454 
L 515.559999 30.781719 
L 516.112264 31.333984 
L 516.664529 32.438514 
L 517.216794 33.543044 
L 517.216794 34.095309 
L 517.216794 34.647574 
L 517.216794 34.095309 
L 517.216794 33.543044 
L 517.216794 32.438514 
L 517.769059 30.781719 
L 518.321324 29.124923 
L 519.97812 26.915863 
L 521.08265 26.363598 
" style="fill:none;stroke:#c44e52;stroke-linecap:square;"/>
   </g>
   <g id="line2d_8">
    <path clip-path="url(#pb8534295fe)" d="M 524.39624 25.811333 
L 524.39624 26.363598 
L 524.39624 26.915863 
L 524.39624 27.468128 
L 524.39624 29.124923 
L 524.948505 30.781719 
L 525.50077 32.438514 
L 525.50077 33.543044 
L 526.053036 34.095309 
L 526.053036 33.543044 
L 526.053036 32.990779 
L 526.053036 30.781719 
L 526.053036 28.020393 
L 526.605301 26.363598 
L 526.605301 25.811333 
L 527.157566 26.363598 
L 528.262096 28.020393 
L 528.814361 29.124923 
L 528.814361 30.229454 
L 528.814361 30.781719 
L 528.814361 30.229454 
L 528.814361 29.677188 
L 529.366626 28.572658 
L 529.366626 27.468128 
L 529.918891 26.915863 
L 530.471156 26.363598 
L 531.023421 26.363598 
L 531.575686 26.915863 
L 532.680216 28.572658 
L 533.232481 30.781719 
L 533.784747 32.990779 
L 534.337012 34.095309 
L 534.337012 35.199839 
L 534.889277 35.752104 
L 534.337012 35.752104 
" style="fill:none;stroke:#c44e52;stroke-linecap:square;"/>
   </g>
   <g id="line2d_9">
    <path clip-path="url(#pb8534295fe)" d="M 47.239218 102.023913 
L 47.239218 102.576178 
L 46.686953 103.128443 
L 46.686953 103.680708 
L 46.686953 104.232973 
L 46.686953 104.785238 
L 46.134688 105.889768 
L 46.134688 107.546564 
L 46.134688 109.203359 
L 45.582423 111.412419 
L 45.030157 113.621479 
L 45.030157 115.83054 
L 45.030157 118.0396 
L 44.477892 120.24866 
L 44.477892 122.457721 
L 44.477892 124.114516 
L 44.477892 126.323576 
L 44.477892 127.980371 
L 44.477892 129.637167 
L 44.477892 131.846227 
L 44.477892 134.055287 
L 44.477892 135.712082 
L 43.925627 136.264347 
L 43.925627 137.368878 
" style="fill:none;stroke:#8c8c8c;stroke-linecap:square;"/>
   </g>
   <g id="line2d_10">
    <path clip-path="url(#pb8534295fe)" d="M 47.791483 101.471648 
L 47.791483 102.023913 
L 48.343748 102.023913 
L 48.896013 102.023913 
L 50.000543 102.576178 
L 52.209603 102.576178 
L 53.866399 102.576178 
L 57.179989 103.128443 
L 58.836784 103.128443 
L 61.59811 103.128443 
L 63.80717 103.128443 
L 66.568495 103.128443 
L 68.777556 103.128443 
L 70.986616 103.128443 
L 72.643411 103.680708 
L 74.300206 103.680708 
L 75.957002 103.680708 
L 77.061532 103.680708 
L 78.166062 103.680708 
L 78.718327 103.128443 
L 79.270592 103.128443 
" style="fill:none;stroke:#8c8c8c;stroke-linecap:square;"/>
   </g>
   <g id="line2d_11">
    <path clip-path="url(#pb8534295fe)" d="M 43.925627 135.712082 
L 43.925627 136.264347 
L 44.477892 136.264347 
L 44.477892 136.816612 
L 45.030157 136.816612 
L 46.686953 137.368878 
L 49.448278 137.368878 
L 51.657338 137.368878 
L 54.970929 137.368878 
L 57.732254 137.368878 
L 59.941314 137.368878 
L 62.150375 137.368878 
L 65.463965 137.368878 
L 68.777556 137.368878 
L 70.986616 137.368878 
L 73.195676 137.368878 
L 74.300206 137.368878 
L 74.852471 137.368878 
L 75.404736 136.816612 
L 76.509267 136.816612 
L 77.061532 136.816612 
L 77.613797 136.816612 
L 78.166062 136.816612 
L 78.718327 136.264347 
L 79.270592 136.264347 
L 79.270592 135.712082 
L 79.270592 135.159817 
L 79.270592 134.607552 
L 79.822857 134.055287 
L 79.822857 132.950757 
L 79.822857 131.846227 
L 80.375122 130.189432 
L 80.375122 127.428106 
L 80.375122 125.771311 
L 80.375122 123.009986 
L 80.375122 120.800925 
L 80.375122 119.14413 
L 80.375122 116.93507 
L 80.375122 114.72601 
L 80.375122 113.069214 
L 80.375122 111.412419 
L 80.375122 109.755624 
L 80.375122 109.203359 
L 80.375122 108.098829 
L 80.375122 106.994299 
L 80.375122 106.442034 
L 80.375122 105.889768 
L 80.375122 105.337503 
L 80.375122 104.785238 
" style="fill:none;stroke:#8c8c8c;stroke-linecap:square;"/>
   </g>
   <g id="line2d_12">
    <path clip-path="url(#pb8534295fe)" d="M 141.12428 101.471648 
L 141.12428 102.023913 
L 141.676545 102.576178 
L 141.676545 103.128443 
L 141.676545 103.680708 
L 141.676545 104.785238 
L 141.676545 106.994299 
L 141.676545 108.651094 
L 141.676545 111.412419 
L 141.676545 114.173745 
L 141.676545 117.487335 
L 141.676545 119.696395 
L 141.676545 122.457721 
L 141.676545 125.771311 
L 141.12428 127.980371 
L 140.572015 131.293962 
L 140.01975 133.503022 
L 140.01975 136.264347 
L 140.01975 138.473408 
L 140.01975 141.234733 
L 139.467485 143.996058 
L 139.467485 146.757384 
L 139.467485 148.966444 
L 138.91522 151.175504 
L 138.91522 153.384565 
L 138.91522 154.489095 
L 138.91522 156.698155 
L 138.362955 158.907215 
L 138.362955 160.011746 
L 138.362955 162.220806 
L 138.362955 164.429866 
L 138.362955 166.638926 
L 138.91522 168.847987 
L 138.91522 170.504782 
L 138.91522 172.161577 
L 138.91522 173.818372 
L 138.91522 174.922902 
L 138.91522 176.579698 
L 138.91522 178.788758 
" style="fill:none;stroke:#8c8c8c;stroke-linecap:square;"/>
   </g>
   <g id="line2d_13">
    <path clip-path="url(#pb8534295fe)" d="M 141.12428 180.997818 
L 141.12428 181.550083 
L 141.676545 181.550083 
L 142.781075 181.550083 
L 143.33334 181.550083 
L 145.542401 181.550083 
L 147.751461 182.102348 
L 151.065051 182.102348 
L 153.826377 182.654613 
L 157.692232 182.654613 
L 161.005823 182.654613 
L 164.319413 182.654613 
L 167.080738 182.102348 
L 170.394329 181.550083 
L 174.260184 180.445553 
L 177.573775 179.893288 
L 180.887365 179.341023 
L 182.54416 179.341023 
L 185.305486 179.341023 
L 188.066811 178.788758 
L 190.828137 178.236493 
L 193.037197 177.684228 
L 195.246257 177.684228 
L 196.903052 177.131963 
L 199.112113 177.131963 
L 201.321173 177.131963 
L 202.977968 177.131963 
L 205.187028 177.131963 
L 207.948354 177.131963 
L 210.709679 177.131963 
L 213.471005 177.131963 
L 216.23233 177.131963 
L 218.993655 177.131963 
L 221.202716 177.131963 
" style="fill:none;stroke:#8c8c8c;stroke-linecap:square;"/>
   </g>
   <g id="line2d_14">
    <path clip-path="url(#pb8534295fe)" d="M 141.12428 101.471648 
L 141.12428 100.919383 
L 141.676545 100.919383 
L 141.676545 101.471648 
L 143.33334 101.471648 
L 145.542401 101.471648 
L 147.199196 101.471648 
L 149.408256 101.471648 
L 151.617316 101.471648 
L 154.378642 101.471648 
L 157.692232 101.471648 
L 162.110353 101.471648 
L 166.528473 101.471648 
L 169.842064 102.023913 
L 173.707919 102.023913 
L 176.469245 102.576178 
L 180.3351 102.576178 
L 183.648691 102.576178 
L 187.514546 102.576178 
L 190.275871 102.576178 
L 194.141727 102.576178 
L 196.903052 103.128443 
L 200.216643 103.128443 
L 202.977968 103.680708 
L 205.739294 103.680708 
L 208.500619 104.232973 
L 211.261944 104.232973 
L 214.02327 104.232973 
L 215.680065 103.680708 
L 217.889125 103.680708 
L 219.54592 103.128443 
L 221.754981 102.576178 
L 223.411776 102.576178 
L 225.068571 102.023913 
L 227.277631 101.471648 
L 228.934427 100.919383 
L 231.143487 100.919383 
L 232.248017 100.367118 
L 232.800282 99.814853 
L 233.352547 99.814853 
" style="fill:none;stroke:#8c8c8c;stroke-linecap:square;"/>
   </g>
   <g id="line2d_15">
    <path clip-path="url(#pb8534295fe)" d="M 233.904812 99.262588 
L 233.904812 99.814853 
L 233.904812 100.367118 
L 233.904812 101.471648 
L 234.457077 103.128443 
L 234.457077 104.785238 
L 235.009342 108.098829 
L 235.009342 110.860154 
L 235.009342 114.72601 
L 235.009342 117.487335 
L 235.561607 120.24866 
L 236.113873 123.009986 
L 236.113873 125.771311 
L 236.666138 128.532636 
L 237.218403 130.189432 
L 237.770668 134.055287 
L 237.770668 135.712082 
L 237.770668 138.473408 
L 237.770668 140.682468 
L 238.322933 142.891528 
L 238.322933 145.652854 
L 238.322933 147.861914 
L 238.322933 150.070974 
L 238.322933 151.727769 
L 238.322933 153.93683 
L 238.322933 156.14589 
L 238.322933 158.35495 
L 238.875198 160.011746 
L 238.875198 162.773071 
L 238.875198 164.429866 
L 238.875198 166.638926 
L 238.875198 168.295722 
L 238.875198 169.952517 
L 238.875198 171.609312 
L 238.875198 172.161577 
L 238.875198 173.266107 
L 238.875198 174.370637 
L 238.875198 174.922902 
L 238.875198 176.027433 
L 238.875198 176.579698 
L 238.322933 177.131963 
L 238.322933 177.684228 
L 238.322933 178.236493 
L 237.770668 178.236493 
L 237.218403 178.236493 
L 236.666138 178.236493 
L 236.113873 178.236493 
L 235.561607 178.236493 
L 234.457077 178.236493 
L 232.800282 178.236493 
L 231.143487 178.236493 
L 228.934427 178.236493 
L 226.725366 178.236493 
L 224.516306 178.236493 
L 223.411776 178.236493 
L 222.307246 177.684228 
L 221.754981 177.684228 
L 221.202716 177.131963 
" style="fill:none;stroke:#8c8c8c;stroke-linecap:square;"/>
   </g>
   <g id="line2d_16">
    <path clip-path="url(#pb8534295fe)" d="M 205.187028 164.982131 
L 204.634763 164.982131 
L 205.187028 164.982131 
L 205.187028 165.534396 
L 205.739294 167.191191 
L 206.291559 168.847987 
L 206.843824 171.057047 
L 206.843824 171.609312 
L 207.396089 172.161577 
L 207.396089 171.609312 
L 206.843824 170.504782 
L 206.291559 167.743457 
L 206.291559 166.086661 
L 206.291559 163.877601 
L 206.291559 162.220806 
L 206.291559 161.116276 
L 206.291559 160.564011 
L 206.843824 161.116276 
L 207.396089 161.668541 
L 207.948354 162.773071 
L 208.500619 164.982131 
L 208.500619 166.086661 
L 209.052884 166.638926 
L 209.052884 167.191191 
L 209.605149 167.191191 
L 209.605149 166.086661 
L 210.157414 164.982131 
L 211.261944 161.668541 
L 211.814209 160.011746 
L 212.366474 158.907215 
L 212.366474 158.35495 
L 212.918739 158.35495 
L 213.471005 160.564011 
L 214.02327 163.325336 
L 215.680065 167.743457 
L 216.23233 171.609312 
L 217.33686 174.922902 
L 217.889125 176.027433 
L 218.44139 176.027433 
L 218.44139 175.475168 
" style="fill:none;stroke:#8c8c8c;stroke-linecap:square;"/>
   </g>
   <g id="line2d_17">
    <path clip-path="url(#pb8534295fe)" d="M 221.202716 170.504782 
L 220.65045 170.504782 
L 220.65045 171.057047 
L 220.65045 171.609312 
L 220.098185 171.609312 
L 220.65045 173.266107 
L 221.202716 174.370637 
L 222.307246 174.370637 
L 223.411776 174.370637 
L 223.964041 173.818372 
L 224.516306 172.713842 
L 224.516306 171.609312 
L 223.964041 170.504782 
L 222.859511 170.504782 
L 221.754981 170.504782 
L 221.202716 171.057047 
L 220.65045 171.057047 
" style="fill:none;stroke:#8c8c8c;stroke-linecap:square;"/>
   </g>
   <g id="line2d_18">
    <path clip-path="url(#pb8534295fe)" d="M 59.941314 128.532636 
L 59.941314 129.084901 
L 59.941314 129.637167 
L 59.941314 130.189432 
L 60.493579 130.741697 
L 60.493579 132.398492 
L 60.493579 132.950757 
L 61.045845 133.503022 
L 60.493579 132.950757 
L 60.493579 132.398492 
L 59.941314 130.741697 
L 59.941314 128.532636 
L 59.941314 126.875841 
L 59.941314 125.771311 
L 59.941314 125.219046 
L 60.493579 125.219046 
L 61.045845 125.219046 
L 62.150375 126.323576 
L 62.70264 127.428106 
L 63.254905 129.084901 
L 63.254905 130.189432 
L 63.254905 130.741697 
L 63.254905 130.189432 
L 63.254905 129.637167 
L 63.254905 128.532636 
L 63.254905 126.875841 
L 63.254905 125.219046 
L 63.80717 124.114516 
L 64.359435 123.009986 
L 64.9117 123.009986 
L 64.9117 123.562251 
L 65.463965 125.219046 
L 65.463965 127.428106 
L 66.01623 130.189432 
L 66.01623 132.398492 
L 66.568495 133.503022 
L 66.568495 134.055287 
L 66.568495 133.503022 
" style="fill:none;stroke:#8c8c8c;stroke-linecap:square;"/>
   </g>
   <g id="line2d_19">
    <path clip-path="url(#pb8534295fe)" d="M 69.882086 129.637167 
L 69.882086 130.189432 
L 69.882086 130.741697 
L 69.882086 131.293962 
L 70.434351 131.846227 
L 70.434351 132.398492 
" style="fill:none;stroke:#8c8c8c;stroke-linecap:square;"/>
   </g>
   <g id="line2d_20">
    <path clip-path="url(#pb8534295fe)" d="M 69.329821 125.219046 
L 68.777556 124.666781 
L 68.777556 124.114516 
" style="fill:none;stroke:#8c8c8c;stroke-linecap:square;"/>
   </g>
   <g id="line2d_21">
    <path clip-path="url(#pb8534295fe)" d="M 142.781075 173.818372 
L 142.781075 173.266107 
L 142.781075 173.818372 
L 142.781075 174.370637 
L 142.781075 174.922902 
L 142.781075 175.475168 
L 143.33334 175.475168 
L 143.885605 176.027433 
L 144.43787 176.027433 
L 145.542401 175.475168 
L 146.094666 174.922902 
L 146.646931 174.370637 
L 146.646931 173.818372 
L 146.646931 173.266107 
L 146.646931 172.161577 
L 145.542401 171.609312 
L 144.990136 170.504782 
L 143.885605 169.952517 
L 142.781075 169.400252 
L 142.22881 168.847987 
L 141.676545 168.847987 
L 141.676545 168.295722 
L 141.676545 167.191191 
L 142.781075 165.534396 
L 143.885605 164.429866 
L 144.43787 163.877601 
L 144.990136 163.325336 
" style="fill:none;stroke:#8c8c8c;stroke-linecap:square;"/>
   </g>
   <g id="line2d_22">
    <path clip-path="url(#pb8534295fe)" d="M 147.751461 160.564011 
L 147.751461 161.116276 
L 147.751461 161.668541 
L 147.751461 162.220806 
L 147.751461 163.325336 
L 148.303726 164.982131 
L 148.855991 166.638926 
L 149.408256 167.191191 
" style="fill:none;stroke:#8c8c8c;stroke-linecap:square;"/>
   </g>
   <g id="line2d_23">
    <path clip-path="url(#pb8534295fe)" d="M 149.960521 160.564011 
L 149.960521 160.011746 
L 149.960521 159.45948 
L 149.960521 158.907215 
L 149.960521 159.45948 
L 149.960521 160.011746 
L 149.960521 160.564011 
L 150.512786 161.116276 
L 151.065051 162.220806 
L 151.617316 162.220806 
L 152.721847 161.668541 
L 152.721847 160.564011 
L 152.721847 160.011746 
L 152.169582 159.45948 
L 151.617316 159.45948 
L 151.065051 159.45948 
" style="fill:none;stroke:#8c8c8c;stroke-linecap:square;"/>
   </g>
   <g id="line2d_24">
    <path clip-path="url(#pb8534295fe)" d="M 151.617316 161.116276 
L 151.617316 161.668541 
L 151.617316 162.220806 
L 152.169582 162.220806 
L 151.617316 162.773071 
L 151.617316 163.325336 
L 151.065051 163.877601 
L 151.065051 164.982131 
L 151.617316 166.638926 
L 152.169582 167.191191 
L 153.274112 167.191191 
L 153.826377 167.191191 
L 154.378642 166.086661 
L 154.378642 164.982131 
L 154.378642 163.877601 
L 153.274112 163.325336 
L 153.274112 162.773071 
L 152.721847 162.773071 
" style="fill:none;stroke:#8c8c8c;stroke-linecap:square;"/>
   </g>
   <g id="line2d_25">
    <path clip-path="url(#pb8534295fe)" d="M 161.005823 167.743457 
L 160.453558 167.191191 
L 159.901293 167.191191 
L 159.901293 166.638926 
L 158.796762 166.638926 
L 158.244497 167.191191 
L 157.692232 167.743457 
L 156.587702 169.400252 
L 156.587702 170.504782 
L 157.139967 172.161577 
L 158.796762 174.370637 
L 161.005823 175.475168 
L 162.662618 175.475168 
L 164.871678 174.922902 
L 165.976208 172.713842 
L 166.528473 170.504782 
L 165.976208 167.743457 
L 164.871678 166.086661 
L 162.662618 164.982131 
L 159.901293 165.534396 
L 157.692232 166.638926 
L 156.587702 167.743457 
" style="fill:none;stroke:#8c8c8c;stroke-linecap:square;"/>
   </g>
   <g id="line2d_26">
    <path clip-path="url(#pb8534295fe)" d="M 50.000543 110.860154 
L 50.000543 110.307889 
L 50.000543 109.755624 
L 49.448278 109.755624 
L 49.448278 110.307889 
L 48.896013 110.307889 
L 48.343748 110.307889 
L 48.343748 110.860154 
L 47.791483 110.860154 
L 47.791483 111.412419 
L 47.791483 111.964684 
L 48.343748 112.516949 
L 48.343748 113.069214 
L 48.896013 113.069214 
L 49.448278 113.069214 
L 50.000543 113.069214 
L 50.552808 112.516949 
L 50.552808 111.964684 
L 51.105073 111.412419 
L 51.105073 110.860154 
L 51.105073 110.307889 
L 50.552808 109.755624 
L 50.552808 109.203359 
L 50.000543 109.203359 
L 50.000543 108.651094 
L 49.448278 108.651094 
L 49.448278 108.098829 
L 49.448278 107.546564 
L 49.448278 106.994299 
L 50.000543 106.442034 
L 51.105073 105.889768 
" style="fill:none;stroke:#8c8c8c;stroke-linecap:square;"/>
   </g>
   <g id="line2d_27">
    <path clip-path="url(#pb8534295fe)" d="M 53.314134 105.889768 
L 52.761868 105.889768 
L 52.761868 106.442034 
L 52.761868 106.994299 
L 52.761868 107.546564 
L 53.314134 108.098829 
L 53.314134 108.651094 
" style="fill:none;stroke:#8c8c8c;stroke-linecap:square;"/>
   </g>
   <g id="line2d_28">
    <path clip-path="url(#pb8534295fe)" d="M 54.970929 107.546564 
L 55.523194 107.546564 
L 55.523194 106.994299 
L 56.075459 106.994299 
L 56.075459 107.546564 
L 56.627724 107.546564 
L 57.179989 107.546564 
L 57.179989 106.994299 
L 57.179989 106.442034 
L 56.627724 106.442034 
L 56.075459 105.889768 
L 55.523194 105.889768 
" style="fill:none;stroke:#8c8c8c;stroke-linecap:square;"/>
   </g>
   <g id="line2d_29">
    <path clip-path="url(#pb8534295fe)" d="M 57.732254 109.203359 
L 57.179989 109.203359 
L 57.179989 109.755624 
L 56.627724 109.755624 
" style="fill:none;stroke:#8c8c8c;stroke-linecap:square;"/>
   </g>
   <g id="line2d_30">
    <path clip-path="url(#pb8534295fe)" d="M 42.821097 115.83054 
L 42.821097 115.278275 
L 42.821097 114.72601 
L 42.821097 114.173745 
L 42.821097 113.621479 
L 42.821097 113.069214 
L 42.821097 112.516949 
L 42.821097 111.964684 
L 42.821097 111.412419 
L 42.821097 110.860154 
L 43.373362 110.307889 
L 43.373362 109.755624 
L 43.373362 109.203359 
L 43.373362 108.651094 
L 43.925627 108.098829 
L 43.925627 107.546564 
L 43.925627 106.994299 
L 43.925627 106.442034 
L 43.925627 105.889768 
L 43.925627 105.337503 
L 43.925627 104.785238 
L 43.925627 104.232973 
L 43.925627 103.680708 
L 43.925627 103.128443 
L 43.925627 102.576178 
L 44.477892 102.576178 
L 44.477892 102.023913 
L 45.030157 102.023913 
L 45.582423 102.023913 
L 46.134688 102.023913 
L 46.686953 102.023913 
L 47.791483 102.023913 
L 48.343748 102.023913 
L 48.896013 102.023913 
L 49.448278 102.023913 
L 50.000543 102.023913 
L 50.552808 102.023913 
L 51.105073 102.023913 
L 51.657338 102.023913 
L 52.209603 102.023913 
L 52.761868 102.023913 
L 53.314134 102.023913 
L 53.866399 102.023913 
L 54.418664 102.023913 
L 54.970929 102.023913 
L 55.523194 102.023913 
L 55.523194 102.576178 
L 56.075459 102.576178 
L 56.627724 102.576178 
L 57.179989 102.576178 
L 57.732254 102.576178 
L 58.284519 102.576178 
L 58.836784 102.576178 
L 59.389049 102.576178 
L 59.941314 102.576178 
" style="fill:none;stroke:#8c8c8c;stroke-linecap:square;"/>
   </g>
   <g id="line2d_31">
    <path clip-path="url(#pb8534295fe)" d="M 42.268832 114.173745 
L 42.268832 114.72601 
L 42.268832 115.278275 
L 42.821097 116.382805 
L 42.821097 117.487335 
L 43.373362 120.24866 
L 43.373362 121.905456 
L 43.373362 123.562251 
L 43.373362 124.666781 
L 43.373362 125.219046 
L 43.373362 126.323576 
L 43.925627 126.875841 
" style="fill:none;stroke:#8c8c8c;stroke-linecap:square;"/>
   </g>
   <g id="line2d_32">
    <path clip-path="url(#pb8534295fe)" d="M 41.716567 78.82878 
L 41.716567 78.276515 
L 41.716567 77.72425 
L 41.164302 77.72425 
L 41.164302 78.276515 
L 40.612037 78.276515 
L 40.059772 79.381045 
L 39.507507 80.485575 
L 38.955242 81.590105 
L 39.507507 82.694635 
L 40.059772 83.2469 
L 41.164302 83.2469 
L 42.268832 82.694635 
L 43.373362 81.590105 
L 43.925627 81.03784 
L 44.477892 79.93331 
L 44.477892 78.82878 
L 44.477892 77.72425 
L 43.373362 76.067455 
L 41.164302 74.410659 
L 40.059772 72.753864 
L 38.955242 72.201599 
L 38.402977 71.097069 
L 38.402977 70.544804 
L 38.955242 69.992539 
L 39.507507 68.888009 
L 40.612037 67.783478 
L 41.164302 67.783478 
L 42.268832 67.231213 
" style="fill:none;stroke:#8c8c8c;stroke-linecap:square;"/>
   </g>
   <g id="line2d_33">
    <path clip-path="url(#pb8534295fe)" d="M 44.477892 65.574418 
L 44.477892 65.022153 
L 44.477892 65.574418 
L 45.030157 66.678948 
L 46.134688 68.888009 
L 46.134688 69.992539 
L 46.686953 71.649334 
L 47.239218 72.201599 
" style="fill:none;stroke:#8c8c8c;stroke-linecap:square;"/>
   </g>
   <g id="line2d_34">
    <path clip-path="url(#pb8534295fe)" d="M 48.896013 66.126683 
L 48.896013 65.574418 
L 48.896013 65.022153 
L 48.896013 64.469888 
L 48.343748 64.469888 
L 48.343748 65.022153 
L 47.791483 65.574418 
L 48.343748 67.231213 
L 48.896013 68.335744 
L 50.552808 68.888009 
L 52.209603 68.335744 
L 53.314134 66.678948 
L 53.314134 65.574418 
L 52.761868 64.469888 
L 51.657338 63.917623 
L 50.552808 63.917623 
L 48.896013 65.022153 
L 48.343748 65.574418 
" style="fill:none;stroke:#8c8c8c;stroke-linecap:square;"/>
   </g>
   <g id="line2d_35">
    <path clip-path="url(#pb8534295fe)" d="M 52.761868 69.440274 
L 52.761868 69.992539 
L 52.209603 69.992539 
L 52.209603 70.544804 
L 51.657338 71.097069 
L 51.657338 72.201599 
L 51.657338 73.858394 
L 52.761868 74.962924 
L 53.314134 74.962924 
L 54.970929 73.306129 
L 55.523194 71.097069 
L 54.970929 68.888009 
L 54.418664 67.783478 
L 53.866399 67.231213 
L 52.761868 67.783478 
L 51.657338 68.335744 
" style="fill:none;stroke:#8c8c8c;stroke-linecap:square;"/>
   </g>
   <g id="line2d_36">
    <path clip-path="url(#pb8534295fe)" d="M 61.045845 68.888009 
L 61.045845 68.335744 
L 61.045845 67.783478 
L 60.493579 67.231213 
L 59.941314 67.231213 
L 59.389049 67.783478 
L 59.389049 68.888009 
L 59.389049 71.097069 
L 60.493579 73.306129 
L 62.150375 74.410659 
L 63.254905 74.962924 
L 64.9117 73.306129 
L 65.463965 71.649334 
L 65.463965 68.888009 
L 64.9117 67.231213 
L 63.80717 66.678948 
L 62.150375 66.678948 
L 60.493579 67.783478 
L 58.284519 69.992539 
L 58.284519 70.544804 
" style="fill:none;stroke:#8c8c8c;stroke-linecap:square;"/>
   </g>
   <g id="line2d_37">
    <path clip-path="url(#pb8534295fe)" d="M 50.000543 91.530877 
L 50.000543 92.083142 
L 50.000543 92.635407 
L 50.000543 94.292202 
L 50.000543 97.053527 
L 50.552808 102.023913 
L 51.657338 106.442034 
L 52.209603 108.651094 
L 52.209603 110.307889 
L 52.209603 110.860154 
" style="fill:none;stroke:#8c8c8c;stroke-linecap:square;"/>
   </g>
   <g id="line2d_38">
    <path clip-path="url(#pb8534295fe)" d="M 37.298446 248.926422 
L 37.850712 248.926422 
L 37.850712 248.374157 
L 37.850712 247.821892 
L 37.298446 247.821892 
L 36.746181 247.821892 
L 36.746181 248.374157 
L 35.641651 248.374157 
L 35.641651 248.926422 
L 35.089386 248.926422 
L 33.984856 249.478687 
L 33.432591 250.030952 
L 32.880326 250.583217 
L 32.880326 251.687748 
L 32.328061 252.240013 
L 32.328061 252.792278 
L 32.328061 253.344543 
L 32.880326 253.896808 
L 33.432591 254.449073 
L 34.537121 255.553603 
L 35.641651 255.553603 
L 37.298446 256.105868 
L 38.402977 256.105868 
L 38.955242 256.105868 
L 40.059772 256.105868 
L 40.612037 255.553603 
L 41.164302 255.001338 
L 41.716567 254.449073 
L 42.268832 253.896808 
L 42.268832 253.344543 
L 41.716567 252.240013 
L 41.164302 250.583217 
L 40.612037 249.478687 
L 38.402977 247.269627 
L 37.298446 246.165097 
L 35.641651 244.508302 
L 35.089386 243.403771 
L 33.984856 241.746976 
L 33.432591 240.642446 
L 33.432591 238.985651 
L 34.537121 237.328856 
L 36.746181 235.67206 
L 38.402977 234.56753 
L 39.507507 234.015265 
L 40.059772 234.015265 
L 40.612037 234.015265 
L 41.164302 234.015265 
L 41.164302 234.56753 
" style="fill:none;stroke:#8c8c8c;stroke-linecap:square;"/>
   </g>
   <g id="line2d_39">
    <path clip-path="url(#pb8534295fe)" d="M 46.134688 229.597145 
L 46.134688 230.14941 
L 46.134688 230.701675 
L 46.134688 231.25394 
L 46.134688 231.806205 
L 46.134688 233.463 
L 45.582423 235.119795 
L 45.582423 236.776591 
L 45.582423 237.881121 
" style="fill:none;stroke:#8c8c8c;stroke-linecap:square;"/>
   </g>
   <g id="line2d_40">
    <path clip-path="url(#pb8534295fe)" d="M 49.448278 232.35847 
L 50.000543 231.806205 
L 50.000543 231.25394 
L 50.552808 231.25394 
L 50.552808 231.806205 
L 51.105073 232.35847 
L 52.209603 232.910735 
L 52.761868 233.463 
L 53.314134 233.463 
L 53.866399 232.910735 
L 53.866399 231.806205 
L 53.866399 230.701675 
L 53.314134 230.14941 
L 52.761868 229.597145 
L 51.657338 229.597145 
L 50.552808 230.14941 
L 50.552808 230.701675 
" style="fill:none;stroke:#8c8c8c;stroke-linecap:square;"/>
   </g>
   <g id="line2d_41">
    <path clip-path="url(#pb8534295fe)" d="M 52.761868 235.67206 
L 52.761868 236.224326 
L 52.209603 236.776591 
L 52.209603 237.328856 
L 51.657338 237.328856 
L 51.657338 238.433386 
L 51.657338 238.985651 
L 52.209603 239.537916 
L 52.761868 240.090181 
L 54.418664 240.090181 
L 55.523194 239.537916 
L 56.627724 237.881121 
L 56.075459 236.776591 
L 55.523194 235.119795 
L 54.970929 234.56753 
L 53.866399 235.119795 
L 52.209603 236.224326 
L 51.657338 237.328856 
" style="fill:none;stroke:#8c8c8c;stroke-linecap:square;"/>
   </g>
   <g id="line2d_42">
    <path clip-path="url(#pb8534295fe)" d="M 63.254905 247.269627 
L 62.70264 247.269627 
L 62.150375 247.269627 
L 62.150375 248.926422 
L 62.150375 250.583217 
L 62.150375 253.896808 
L 62.150375 256.658133 
L 62.70264 257.762663 
L 62.70264 258.867193 
L 62.70264 258.314928 
L 62.70264 257.762663 
" style="fill:none;stroke:#8c8c8c;stroke-linecap:square;"/>
   </g>
   <g id="line2d_43">
    <path clip-path="url(#pb8534295fe)" d="M 57.732254 248.926422 
L 57.732254 248.374157 
L 57.179989 247.821892 
L 56.627724 247.269627 
L 57.179989 247.269627 
L 57.732254 247.269627 
L 60.493579 247.821892 
L 63.80717 247.821892 
L 65.463965 247.821892 
L 67.12076 247.269627 
L 67.673025 247.269627 
L 68.777556 247.269627 
" style="fill:none;stroke:#8c8c8c;stroke-linecap:square;"/>
   </g>
   <g id="line2d_44">
    <path clip-path="url(#pb8534295fe)" d="M 82.031917 238.985651 
L 81.479652 238.985651 
L 80.927387 238.985651 
L 80.927387 238.433386 
L 81.479652 238.433386 
L 82.031917 238.433386 
L 82.584182 238.433386 
L 82.584182 237.881121 
L 83.136447 237.881121 
L 83.688713 237.881121 
L 84.240978 237.328856 
L 84.793243 237.328856 
L 84.793243 237.881121 
L 84.240978 237.881121 
L 84.240978 238.433386 
L 83.688713 238.433386 
L 83.688713 237.881121 
" style="fill:none;stroke:#8c8c8c;stroke-linecap:square;"/>
   </g>
   <g id="line2d_45">
    <path clip-path="url(#pb8534295fe)" d="M 86.450038 237.328856 
L 85.897773 237.328856 
L 85.345508 237.881121 
L 84.793243 237.881121 
L 84.240978 238.433386 
L 84.240978 238.985651 
L 83.688713 239.537916 
L 83.688713 240.090181 
L 84.240978 240.090181 
L 83.688713 239.537916 
L 83.136447 239.537916 
L 82.584182 238.985651 
L 82.031917 238.985651 
L 81.479652 239.537916 
L 81.479652 240.090181 
L 82.031917 240.090181 
L 82.584182 240.090181 
L 83.136447 239.537916 
L 83.688713 238.985651 
L 84.240978 237.881121 
L 84.240978 237.328856 
L 83.136447 237.328856 
L 82.584182 237.328856 
L 81.479652 237.881121 
L 80.927387 238.433386 
L 80.927387 239.537916 
L 81.479652 240.090181 
L 82.584182 240.090181 
L 83.688713 240.090181 
L 84.240978 240.090181 
L 84.240978 239.537916 
L 84.240978 238.985651 
L 83.688713 238.985651 
L 83.136447 238.985651 
L 82.584182 238.985651 
L 82.584182 238.433386 
" style="fill:none;stroke:#8c8c8c;stroke-linecap:square;"/>
   </g>
   <g id="line2d_46">
    <path clip-path="url(#pb8534295fe)" d="M 96.943074 247.821892 
L 97.495339 247.821892 
L 97.495339 248.374157 
L 97.495339 248.926422 
L 97.495339 249.478687 
L 97.495339 250.030952 
L 98.047604 251.687748 
L 98.047604 252.792278 
L 98.047604 253.344543 
L 98.047604 253.896808 
L 98.047604 253.344543 
L 97.495339 251.687748 
L 96.390809 247.269627 
L 95.838544 242.851506 
L 95.838544 237.328856 
L 95.838544 233.463 
L 95.838544 231.25394 
L 96.390809 230.14941 
L 96.943074 230.14941 
L 98.047604 230.701675 
L 100.256665 232.35847 
L 101.91346 235.67206 
L 103.01799 239.537916 
L 103.570255 241.746976 
L 104.12252 243.956037 
L 104.674785 244.508302 
L 104.12252 244.508302 
L 104.12252 243.956037 
L 103.570255 241.746976 
L 103.01799 238.433386 
L 103.570255 235.119795 
L 103.570255 232.35847 
L 104.12252 229.597145 
L 104.674785 228.492615 
L 105.22705 227.940349 
L 105.779315 228.492615 
L 107.436111 230.701675 
L 109.092906 236.224326 
L 110.749701 242.851506 
L 111.854231 246.717362 
L 112.406496 250.030952 
L 112.958761 251.687748 
L 112.406496 251.687748 
" style="fill:none;stroke:#8c8c8c;stroke-linecap:square;"/>
   </g>
   <g id="line2d_47">
    <path clip-path="url(#pb8534295fe)" d="M 121.242737 247.269627 
L 121.242737 246.717362 
L 121.795003 247.269627 
L 121.795003 247.821892 
L 121.795003 248.926422 
L 122.347268 251.687748 
L 122.347268 254.449073 
L 122.899533 256.658133 
L 123.451798 258.314928 
L 123.451798 258.867193 
L 123.451798 258.314928 
L 122.899533 257.762663 
" style="fill:none;stroke:#8c8c8c;stroke-linecap:square;"/>
   </g>
   <g id="line2d_48">
    <path clip-path="url(#pb8534295fe)" d="M 117.929147 247.269627 
L 117.376882 246.717362 
L 118.481412 246.165097 
L 120.138207 246.165097 
L 122.899533 246.165097 
L 125.108593 246.717362 
L 126.213123 246.717362 
L 126.765388 247.269627 
L 127.317653 246.717362 
" style="fill:none;stroke:#8c8c8c;stroke-linecap:square;"/>
   </g>
   <g id="line2d_49">
    <path clip-path="url(#pb8534295fe)" d="M 146.094666 236.776591 
L 146.094666 236.776591 
L 146.646931 236.776591 
L 146.646931 237.328856 
L 147.199196 237.328856 
L 148.855991 237.328856 
L 149.960521 237.881121 
L 151.065051 237.881121 
L 151.617316 237.881121 
" style="fill:none;stroke:#8c8c8c;stroke-linecap:square;"/>
   </g>
   <g id="line2d_50">
    <path clip-path="url(#pb8534295fe)" d="M 147.199196 244.508302 
L 147.199196 245.060567 
L 147.199196 245.612832 
L 147.751461 245.612832 
L 148.303726 245.612832 
L 149.960521 245.060567 
L 152.169582 244.508302 
L 153.826377 244.508302 
L 154.930907 244.508302 
" style="fill:none;stroke:#8c8c8c;stroke-linecap:square;"/>
   </g>
   <g id="line2d_51">
    <path clip-path="url(#pb8534295fe)" d="M 171.498859 241.194711 
L 170.946594 241.194711 
L 170.946594 241.746976 
L 170.394329 241.746976 
L 170.394329 242.299241 
L 170.394329 242.851506 
L 170.394329 243.403771 
L 170.946594 243.956037 
L 172.051124 245.060567 
L 173.155654 245.060567 
L 174.812449 244.508302 
L 175.91698 243.403771 
L 176.469245 241.746976 
L 176.469245 240.090181 
L 175.91698 238.433386 
L 175.364715 236.224326 
L 173.707919 234.56753 
L 172.051124 233.463 
L 170.394329 232.35847 
L 168.737534 231.806205 
L 167.633004 230.701675 
L 166.528473 229.597145 
L 166.528473 229.04488 
L 167.633004 227.388084 
L 168.737534 226.283554 
L 169.842064 225.731289 
L 172.051124 225.179024 
L 173.155654 225.179024 
L 173.155654 225.731289 
" style="fill:none;stroke:#8c8c8c;stroke-linecap:square;"/>
   </g>
   <g id="line2d_52">
    <path clip-path="url(#pb8534295fe)" d="M 177.02151 219.656373 
L 177.573775 219.656373 
L 177.573775 220.208638 
L 177.573775 220.760903 
L 177.573775 221.313169 
L 177.573775 222.417699 
L 177.573775 224.626759 
L 177.573775 225.179024 
L 178.12604 225.731289 
" style="fill:none;stroke:#8c8c8c;stroke-linecap:square;"/>
   </g>
   <g id="line2d_53">
    <path clip-path="url(#pb8534295fe)" d="M 182.54416 220.208638 
L 182.54416 219.656373 
L 181.991895 219.656373 
L 181.991895 220.208638 
L 181.43963 220.760903 
L 181.43963 221.865434 
L 181.991895 222.969964 
L 183.096426 222.969964 
L 184.200956 223.522229 
L 185.305486 222.969964 
L 185.305486 222.417699 
L 185.305486 221.313169 
L 184.753221 220.760903 
L 183.648691 220.208638 
L 182.54416 220.760903 
L 181.43963 220.760903 
" style="fill:none;stroke:#8c8c8c;stroke-linecap:square;"/>
   </g>
   <g id="line2d_54">
    <path clip-path="url(#pb8534295fe)" d="M 183.648691 224.626759 
L 183.096426 225.179024 
L 183.096426 225.731289 
L 183.096426 226.283554 
L 183.096426 226.835819 
L 183.096426 227.388084 
L 183.096426 227.940349 
L 184.200956 227.940349 
L 185.305486 227.940349 
L 186.410016 227.388084 
L 186.962281 226.283554 
L 186.962281 225.731289 
L 186.410016 225.179024 
L 185.857751 224.626759 
L 184.753221 224.626759 
L 183.648691 224.626759 
L 183.096426 224.626759 
" style="fill:none;stroke:#8c8c8c;stroke-linecap:square;"/>
   </g>
   <g id="line2d_55">
    <path clip-path="url(#pb8534295fe)" d="M 191.932667 231.25394 
L 192.484932 230.701675 
L 192.484932 230.14941 
L 193.037197 230.14941 
L 193.037197 229.597145 
L 193.589462 229.04488 
L 194.141727 229.04488 
L 194.141727 228.492615 
L 193.589462 228.492615 
L 193.037197 229.597145 
L 192.484932 231.25394 
L 191.932667 232.910735 
L 192.484932 235.119795 
L 193.589462 237.881121 
L 195.246257 239.537916 
L 196.903052 240.090181 
L 198.559848 240.090181 
L 200.216643 239.537916 
L 201.873438 237.881121 
L 202.425703 236.776591 
L 202.977968 234.56753 
L 201.873438 231.806205 
L 199.664378 229.597145 
L 196.903052 228.492615 
L 195.246257 228.492615 
L 193.589462 229.04488 
L 192.484932 230.14941 
L 192.484932 231.25394 
" style="fill:none;stroke:#8c8c8c;stroke-linecap:square;"/>
   </g>
   <g id="line2d_56">
    <path clip-path="url(#pb8534295fe)" d="M 174.812449 87.112756 
L 174.812449 86.560491 
L 174.812449 86.008226 
L 175.364715 86.008226 
L 175.364715 85.455961 
L 175.364715 84.903696 
L 175.364715 85.455961 
L 175.364715 86.008226 
L 175.364715 87.112756 
L 175.364715 89.321816 
L 175.91698 92.083142 
L 177.02151 93.739937 
L 177.573775 94.844467 
L 178.678305 94.844467 
L 179.23057 93.739937 
L 179.23057 91.530877 
L 179.23057 90.426346 
L 179.23057 89.321816 
L 179.782835 89.321816 
L 180.3351 89.874081 
L 181.43963 91.530877 
L 182.54416 92.635407 
L 183.648691 92.635407 
L 184.200956 92.083142 
L 184.753221 90.978611 
L 185.305486 89.321816 
L 185.305486 87.112756 
L 184.753221 85.455961 
L 184.753221 84.351431 
L 184.753221 83.799166 
" style="fill:none;stroke:#8c8c8c;stroke-linecap:square;"/>
   </g>
   <g id="line2d_57">
    <path clip-path="url(#pb8534295fe)" d="M 62.70264 88.769551 
L 63.254905 88.769551 
L 63.254905 88.217286 
L 63.254905 88.769551 
L 63.254905 89.321816 
L 63.254905 91.530877 
L 63.80717 94.844467 
L 64.9117 97.605792 
L 64.9117 99.262588 
L 64.9117 99.814853 
" style="fill:none;stroke:#8c8c8c;stroke-linecap:square;"/>
   </g>
   <g id="line2d_58">
    <path clip-path="url(#pb8534295fe)" d="M 59.389049 99.262588 
L 59.389049 99.814853 
L 59.941314 99.814853 
L 60.493579 99.814853 
L 61.59811 99.814853 
L 64.359435 99.814853 
L 66.568495 99.262588 
L 68.22529 99.262588 
L 68.777556 99.262588 
" style="fill:none;stroke:#8c8c8c;stroke-linecap:square;"/>
   </g>
   <g id="line2d_59">
    <path clip-path="url(#pb8534295fe)" d="M 58.836784 88.769551 
L 58.284519 88.217286 
L 58.836784 87.665021 
L 61.045845 87.665021 
L 63.80717 87.665021 
L 66.01623 87.112756 
L 67.673025 87.112756 
L 67.673025 86.560491 
" style="fill:none;stroke:#8c8c8c;stroke-linecap:square;"/>
   </g>
   <g id="line2d_60">
    <path clip-path="url(#pb8534295fe)" d="M 207.396089 237.881121 
L 207.396089 237.328856 
L 207.396089 236.776591 
L 206.843824 236.776591 
L 206.843824 237.328856 
L 206.843824 238.433386 
L 207.396089 240.090181 
L 207.948354 241.746976 
L 208.500619 243.403771 
L 209.605149 245.060567 
L 210.157414 245.612832 
L 210.709679 245.612832 
L 211.261944 245.060567 
L 211.814209 243.403771 
L 211.814209 242.299241 
L 212.366474 241.194711 
L 212.366474 241.746976 
L 212.918739 242.851506 
L 214.02327 243.956037 
L 214.575535 243.956037 
L 215.1278 243.956037 
L 215.1278 243.403771 
L 215.680065 241.746976 
L 215.1278 240.090181 
L 215.1278 238.433386 
L 214.575535 237.328856 
L 214.02327 236.776591 
" style="fill:none;stroke:#8c8c8c;stroke-linecap:square;"/>
   </g>
   <g id="line2d_61">
    <path clip-path="url(#pb8534295fe)" d="M 223.411776 229.04488 
L 223.411776 228.492615 
L 223.411776 229.04488 
L 223.964041 230.14941 
L 223.964041 231.25394 
L 224.516306 233.463 
L 225.068571 235.119795 
L 225.068571 236.224326 
L 225.620836 236.776591 
L 225.068571 235.67206 
L 225.068571 232.910735 
L 223.964041 228.492615 
L 223.411776 224.626759 
L 223.411776 221.313169 
L 223.411776 219.656373 
L 223.964041 218.551843 
L 224.516306 218.551843 
L 225.620836 219.656373 
L 227.277631 222.417699 
L 228.934427 227.388084 
L 230.038957 229.597145 
L 231.143487 231.25394 
L 231.143487 231.806205 
L 230.591222 231.806205 
L 230.591222 230.701675 
L 229.486692 228.492615 
L 229.486692 225.731289 
L 228.934427 222.969964 
L 229.486692 219.656373 
L 230.038957 218.551843 
L 231.143487 217.999578 
L 232.248017 219.104108 
L 233.904812 221.865434 
L 235.009342 226.283554 
L 236.113873 230.701675 
L 237.218403 234.56753 
L 237.770668 236.224326 
L 237.770668 237.328856 
L 237.218403 237.328856 
" style="fill:none;stroke:#8c8c8c;stroke-linecap:square;"/>
   </g>
   <g id="line2d_62">
    <path clip-path="url(#pb8534295fe)" d="M 240.531993 234.015265 
L 240.531993 233.463 
L 240.531993 232.910735 
L 239.979728 232.35847 
L 239.979728 232.910735 
L 239.979728 233.463 
L 239.979728 234.56753 
L 240.531993 236.776591 
L 241.636523 238.433386 
L 242.188788 238.985651 
L 242.741053 238.985651 
L 243.293318 238.985651 
L 243.293318 238.433386 
L 243.845584 238.433386 
L 244.397849 238.433386 
L 245.502379 238.433386 
L 246.606909 238.985651 
L 247.711439 238.985651 
L 248.263704 238.985651 
L 248.263704 237.881121 
L 248.263704 236.776591 
L 247.711439 234.56753 
L 247.159174 232.910735 
L 246.606909 232.35847 
L 246.606909 231.806205 
" style="fill:none;stroke:#8c8c8c;stroke-linecap:square;"/>
   </g>
   <g id="line2d_63">
    <path clip-path="url(#pb8534295fe)" d="M 213.471005 160.564011 
L 212.918739 160.011746 
L 213.471005 160.011746 
L 213.471005 159.45948 
L 213.471005 160.011746 
L 214.02327 160.564011 
L 214.02327 161.116276 
L 214.02327 162.220806 
L 214.02327 162.773071 
L 214.02327 163.877601 
L 214.02327 164.429866 
L 214.575535 165.534396 
L 214.575535 166.638926 
L 215.1278 168.295722 
L 215.680065 169.952517 
L 215.680065 170.504782 
L 215.680065 171.057047 
L 216.23233 171.609312 
L 216.23233 172.161577 
" style="fill:none;stroke:#8c8c8c;stroke-linecap:square;"/>
   </g>
   <g id="line2d_64">
    <path clip-path="url(#pb8534295fe)" d="M 217.889125 178.788758 
L 217.889125 178.236493 
L 217.33686 178.236493 
L 216.784595 178.236493 
L 216.784595 177.684228 
L 216.784595 177.131963 
L 217.33686 177.131963 
L 217.889125 177.131963 
L 218.44139 177.131963 
L 218.993655 177.684228 
L 219.54592 177.684228 
L 220.65045 177.684228 
L 221.754981 177.684228 
L 222.859511 177.684228 
L 225.068571 178.236493 
L 226.725366 178.788758 
L 228.382161 179.341023 
L 228.934427 179.893288 
L 229.486692 179.893288 
L 230.038957 179.893288 
L 230.591222 179.893288 
L 230.591222 179.341023 
" style="fill:none;stroke:#8c8c8c;stroke-linecap:square;"/>
   </g>
   <g id="line2d_65">
    <path clip-path="url(#pb8534295fe)" d="M 269.249777 222.417699 
L 268.697512 222.417699 
L 268.697512 222.969964 
L 268.697512 223.522229 
L 268.697512 224.074494 
L 269.249777 226.283554 
L 270.354307 227.940349 
L 270.906572 230.14941 
L 270.906572 231.25394 
L 271.458837 231.806205 
" style="fill:none;stroke:#8c8c8c;stroke-linecap:square;"/>
   </g>
   <g id="line2d_66">
    <path clip-path="url(#pb8534295fe)" d="M 268.145247 227.388084 
L 268.145247 226.835819 
L 268.697512 226.835819 
L 269.249777 226.835819 
L 270.906572 226.283554 
L 272.563367 226.283554 
L 274.220163 225.731289 
L 275.876958 225.179024 
L 275.876958 224.626759 
" style="fill:none;stroke:#8c8c8c;stroke-linecap:square;"/>
   </g>
   <g id="line2d_67">
    <path clip-path="url(#pb8534295fe)" d="M 289.683585 225.179024 
L 289.131319 225.179024 
L 288.579054 225.179024 
L 288.026789 225.179024 
L 287.474524 225.179024 
L 286.922259 225.731289 
L 286.922259 226.283554 
L 286.922259 227.940349 
L 288.579054 229.597145 
L 290.788115 230.14941 
L 292.997175 230.14941 
L 294.65397 229.597145 
L 295.7585 228.492615 
L 295.7585 227.388084 
L 295.206235 225.179024 
L 293.54944 222.969964 
L 291.34038 220.760903 
L 288.579054 218.551843 
L 285.817729 217.447313 
L 284.713199 216.342783 
L 283.608669 215.238253 
L 283.608669 214.133723 
L 283.608669 213.581458 
L 285.265464 211.924662 
L 286.922259 210.820132 
L 289.131319 209.715602 
L 290.23585 208.611072 
L 290.788115 208.058807 
" style="fill:none;stroke:#8c8c8c;stroke-linecap:square;"/>
   </g>
   <g id="line2d_68">
    <path clip-path="url(#pb8534295fe)" d="M 295.7585 201.431626 
L 295.206235 201.431626 
L 295.206235 201.983891 
L 295.206235 202.536156 
L 295.7585 203.088421 
L 295.7585 203.640686 
L 295.7585 204.745216 
L 296.310765 205.849747 
L 296.310765 206.402012 
L 296.310765 206.954277 
L 296.86303 206.954277 
" style="fill:none;stroke:#8c8c8c;stroke-linecap:square;"/>
   </g>
   <g id="line2d_69">
    <path clip-path="url(#pb8534295fe)" d="M 298.519826 203.088421 
L 299.072091 203.088421 
L 299.072091 202.536156 
L 299.072091 201.983891 
L 298.519826 201.983891 
L 298.519826 202.536156 
L 297.967561 203.088421 
L 298.519826 204.192951 
L 299.072091 204.745216 
L 300.176621 204.745216 
L 301.281151 204.745216 
L 302.385681 203.640686 
L 302.385681 202.536156 
L 301.833416 201.431626 
L 301.281151 200.879361 
L 300.176621 200.879361 
L 299.072091 201.431626 
" style="fill:none;stroke:#8c8c8c;stroke-linecap:square;"/>
   </g>
   <g id="line2d_70">
    <path clip-path="url(#pb8534295fe)" d="M 300.728886 205.297481 
L 301.281151 205.849747 
L 300.728886 205.849747 
L 300.728886 206.402012 
L 300.728886 206.954277 
L 300.728886 207.506542 
L 301.281151 208.611072 
L 302.385681 209.715602 
L 303.490211 209.715602 
L 304.594741 209.715602 
L 305.147007 208.611072 
L 305.147007 207.506542 
L 304.594741 206.402012 
L 303.490211 205.849747 
L 302.385681 205.297481 
L 301.833416 205.849747 
" style="fill:none;stroke:#8c8c8c;stroke-linecap:square;"/>
   </g>
   <g id="line2d_71">
    <path clip-path="url(#pb8534295fe)" d="M 312.878718 219.656373 
L 312.878718 219.104108 
L 312.326452 217.447313 
L 312.326452 216.895048 
L 311.774187 216.342783 
L 310.669657 216.342783 
L 309.565127 216.342783 
L 308.460597 217.447313 
L 307.908332 219.656373 
L 308.460597 222.417699 
L 310.669657 225.179024 
L 312.878718 226.835819 
L 315.640043 227.388084 
L 317.849103 226.283554 
L 319.505898 224.074494 
L 320.058164 221.865434 
L 319.505898 218.551843 
L 318.401368 217.447313 
L 316.744573 216.895048 
L 314.535513 217.447313 
L 312.878718 217.999578 
" style="fill:none;stroke:#8c8c8c;stroke-linecap:square;"/>
   </g>
   <g id="line2d_72">
    <path clip-path="url(#pb8534295fe)" d="M 324.476284 221.865434 
L 324.476284 222.417699 
L 324.476284 222.969964 
L 324.476284 224.074494 
L 325.028549 226.283554 
L 325.028549 227.388084 
L 325.580814 228.492615 
L 325.580814 229.04488 
L 325.580814 229.597145 
" style="fill:none;stroke:#8c8c8c;stroke-linecap:square;"/>
   </g>
   <g id="line2d_73">
    <path clip-path="url(#pb8534295fe)" d="M 323.924019 231.25394 
L 324.476284 231.25394 
L 325.028549 231.25394 
L 326.133079 230.701675 
L 328.34214 230.14941 
L 329.44667 230.14941 
L 329.998935 229.597145 
" style="fill:none;stroke:#8c8c8c;stroke-linecap:square;"/>
   </g>
   <g id="line2d_74">
    <path clip-path="url(#pb8534295fe)" d="M 321.714959 223.522229 
L 322.267224 222.969964 
L 323.924019 222.417699 
L 325.580814 221.313169 
L 327.237609 220.760903 
L 327.789875 220.208638 
" style="fill:none;stroke:#8c8c8c;stroke-linecap:square;"/>
   </g>
   <g id="line2d_75">
    <path clip-path="url(#pb8534295fe)" d="M 333.86479 212.476927 
L 333.86479 213.029192 
L 333.312525 213.029192 
L 333.312525 213.581458 
L 333.312525 214.133723 
L 333.86479 215.790518 
L 334.417055 218.551843 
L 335.521586 220.760903 
L 336.073851 221.865434 
L 336.626116 222.417699 
L 336.626116 221.865434 
L 336.073851 220.760903 
L 334.96932 217.999578 
L 333.86479 214.133723 
L 332.207995 209.163337 
L 331.65573 205.849747 
L 331.65573 204.192951 
L 331.65573 203.088421 
L 332.207995 203.088421 
L 332.76026 203.640686 
L 334.417055 206.402012 
L 336.626116 209.715602 
L 337.178381 211.372397 
L 337.730646 213.029192 
L 337.178381 212.476927 
L 337.178381 211.924662 
L 336.626116 210.820132 
L 336.073851 208.611072 
L 336.073851 205.297481 
L 336.073851 203.640686 
L 337.178381 202.536156 
L 337.730646 202.536156 
L 338.835176 203.088421 
L 341.044236 205.849747 
L 342.701031 209.715602 
L 343.805562 214.133723 
L 344.910092 216.342783 
L 345.462357 218.551843 
L 345.462357 219.104108 
L 345.462357 219.656373 
" style="fill:none;stroke:#8c8c8c;stroke-linecap:square;"/>
   </g>
   <g id="line2d_76">
    <path clip-path="url(#pb8534295fe)" d="M 349.880477 212.476927 
L 349.880477 213.029192 
L 349.880477 213.581458 
L 349.880477 214.133723 
L 350.432742 215.238253 
L 350.432742 217.447313 
L 350.985008 219.104108 
L 350.985008 219.656373 
L 351.537273 220.208638 
L 351.537273 220.760903 
" style="fill:none;stroke:#8c8c8c;stroke-linecap:square;"/>
   </g>
   <g id="line2d_77">
    <path clip-path="url(#pb8534295fe)" d="M 349.328212 221.865434 
L 348.775947 221.865434 
L 348.775947 222.417699 
L 349.328212 222.417699 
L 349.880477 222.417699 
L 350.985008 221.865434 
L 352.641803 221.313169 
L 354.298598 220.208638 
L 355.403128 220.208638 
L 355.955393 219.656373 
" style="fill:none;stroke:#8c8c8c;stroke-linecap:square;"/>
   </g>
   <g id="line2d_78">
    <path clip-path="url(#pb8534295fe)" d="M 347.119152 213.581458 
L 346.566887 213.581458 
L 346.014622 213.029192 
L 347.119152 212.476927 
L 349.328212 211.924662 
L 350.985008 211.372397 
L 352.089538 210.820132 
" style="fill:none;stroke:#8c8c8c;stroke-linecap:square;"/>
   </g>
  </g>
 </g>
 <defs>
  <clipPath id="pb8534295fe">
   <rect height="263.651346" width="552.817337" x="7.2" y="7.2"/>
  </clipPath>
 </defs>
</svg>
