<?xml version="1.0" encoding="utf-8" standalone="no"?>
<!DOCTYPE svg PUBLIC "-//W3C//DTD SVG 1.1//EN"
  "http://www.w3.org/Graphics/SVG/1.1/DTD/svg11.dtd">
<!-- Created with matplotlib (https://matplotlib.org/) -->
<svg height="286.2pt" version="1.1" viewBox="0 0 447.202548 286.2" width="447.202548pt" xmlns="http://www.w3.org/2000/svg" xmlns:xlink="http://www.w3.org/1999/xlink">
 <metadata>
  <rdf:RDF xmlns:cc="http://creativecommons.org/ns#" xmlns:dc="http://purl.org/dc/elements/1.1/" xmlns:rdf="http://www.w3.org/1999/02/22-rdf-syntax-ns#">
   <cc:Work>
    <dc:type rdf:resource="http://purl.org/dc/dcmitype/StillImage"/>
    <dc:date>2024-11-15T16:04:23.113389</dc:date>
    <dc:format>image/svg+xml</dc:format>
    <dc:creator>
     <cc:Agent>
      <dc:title>Matplotlib v3.3.4, https://matplotlib.org/</dc:title>
     </cc:Agent>
    </dc:creator>
   </cc:Work>
  </rdf:RDF>
 </metadata>
 <defs>
  <style type="text/css">*{stroke-linecap:butt;stroke-linejoin:round;}</style>
 </defs>
 <g id="figure_1">
  <g id="patch_1">
   <path d="M 0 286.2 
L 447.202548 286.2 
L 447.202548 0 
L 0 0 
z
" style="fill:#ffffff;"/>
  </g>
  <g id="axes_1">
   <g id="line2d_1">
    <path clip-path="url(#p217d0e1899)" d="M 43.135727 145.98535 
L 43.660336 145.98535 
L 44.184945 145.98535 
L 44.184945 145.460741 
L 44.709554 145.460741 
L 45.234163 145.460741 
L 45.758772 145.460741 
L 46.283382 144.936132 
L 46.807991 144.936132 
L 47.857209 144.411523 
L 49.431036 143.362305 
L 49.955646 142.837695 
L 51.529473 142.313086 
L 52.578691 141.788477 
L 53.62791 141.263868 
L 55.201737 140.21465 
L 55.726346 139.690041 
L 57.300174 139.165431 
L 58.874001 138.116213 
L 60.447829 137.066995 
L 61.497047 136.017776 
L 63.070874 134.968558 
L 64.644702 133.91934 
L 66.218529 132.345512 
L 68.316966 131.296294 
L 69.366184 129.722467 
L 71.464621 128.673248 
L 73.563057 127.099421 
L 75.136885 126.050203 
L 78.28454 124.476375 
L 79.858367 123.427157 
L 81.956804 121.853329 
L 83.530631 120.804111 
L 85.104459 119.754893 
L 87.202895 118.705675 
L 89.301332 117.131847 
L 91.399768 116.082629 
L 92.973596 114.508801 
L 95.072032 112.934974 
L 96.121251 112.410365 
L 97.695078 110.836537 
L 98.744296 110.311928 
L 100.318124 109.26271 
L 101.891951 108.213492 
L 103.990388 107.164273 
L 106.088825 105.590446 
L 107.662652 104.541228 
L 109.236479 103.492009 
L 111.334916 102.442791 
L 112.384134 101.393573 
L 113.433353 100.868964 
L 115.00718 100.344354 
L 116.581008 99.295136 
L 118.154835 98.245918 
L 119.728662 97.721309 
L 120.777881 97.196699 
L 121.30249 96.67209 
" style="fill:none;stroke:#8c8c8c;stroke-linecap:square;"/>
   </g>
   <g id="line2d_2">
    <path clip-path="url(#p217d0e1899)" d="M 122.351708 96.67209 
L 122.876317 96.67209 
L 122.876317 97.196699 
L 123.400926 97.196699 
L 123.925536 97.721309 
L 124.450145 98.245918 
L 124.974754 98.770527 
L 125.499363 99.295136 
L 126.548581 99.819745 
L 127.073191 100.344354 
L 127.5978 100.868964 
L 128.122409 101.393573 
L 129.171627 102.442791 
L 129.696236 102.9674 
L 130.220845 103.492009 
L 130.745455 104.016618 
L 131.270064 105.065837 
L 131.794673 105.590446 
L 132.319282 106.115055 
L 132.843891 106.639664 
L 133.3685 107.688882 
L 133.893109 108.213492 
L 134.417719 108.738101 
L 134.942328 109.26271 
L 135.466937 109.787319 
L 135.466937 110.311928 
L 135.991546 110.836537 
L 136.516155 111.361146 
L 136.516155 111.885756 
L 137.565373 113.459583 
L 138.614592 114.508801 
L 139.66381 115.55802 
L 140.713028 117.131847 
L 141.762247 118.705675 
L 143.336074 119.754893 
L 144.385292 121.32872 
L 145.95912 122.377939 
L 147.008338 123.427157 
L 148.582166 125.525594 
L 149.631384 126.574812 
L 151.205211 127.62403 
L 153.303648 129.722467 
L 154.877475 131.296294 
L 156.451303 133.394731 
L 158.02513 134.968558 
L 159.598958 136.542386 
L 160.648176 137.591604 
L 162.222003 139.165431 
L 163.795831 140.739259 
L 164.845049 141.788477 
L 166.418877 143.362305 
L 167.468095 144.411523 
L 168.517313 145.460741 
L 169.566532 145.98535 
L 170.61575 147.034569 
L 171.140359 147.559178 
L 171.664968 148.083787 
L 172.189577 148.083787 
" style="fill:none;stroke:#8c8c8c;stroke-linecap:square;"/>
   </g>
   <g id="line2d_3">
    <path clip-path="url(#p217d0e1899)" d="M 37.889635 125.000984 
L 38.414244 125.000984 
L 38.938854 125.000984 
L 39.463463 125.000984 
L 39.988072 125.000984 
L 40.512681 125.000984 
L 41.03729 125.000984 
L 41.561899 125.000984 
L 42.086508 125.000984 
L 42.611118 125.000984 
L 43.135727 125.000984 
L 43.660336 125.000984 
L 44.184945 125.000984 
L 44.709554 125.000984 
L 45.758772 125.000984 
L 46.283382 125.000984 
L 46.807991 125.000984 
L 47.857209 125.000984 
L 48.381818 125.000984 
L 49.431036 125.000984 
L 49.955646 125.000984 
L 50.480255 125.000984 
L 51.529473 125.525594 
L 52.578691 125.525594 
L 53.103301 125.525594 
L 53.62791 125.525594 
L 54.677128 125.525594 
L 55.726346 125.525594 
L 56.250955 125.525594 
L 56.775565 126.050203 
L 57.824783 126.050203 
L 58.874001 126.050203 
L 59.39861 126.050203 
L 59.923219 126.050203 
L 60.972438 126.050203 
L 61.497047 126.050203 
L 62.021656 126.050203 
L 62.546265 126.050203 
L 63.070874 126.050203 
L 64.120093 126.050203 
L 64.644702 126.050203 
L 65.69392 126.050203 
L 66.218529 126.050203 
L 66.743138 126.050203 
L 67.792357 126.050203 
L 68.316966 126.050203 
L 68.841575 126.050203 
L 69.366184 126.050203 
L 70.415402 126.050203 
L 70.940012 126.050203 
L 71.464621 126.050203 
" style="fill:none;stroke:#64b5cd;stroke-linecap:square;"/>
   </g>
   <g id="line2d_4">
    <path clip-path="url(#p217d0e1899)" d="M 148.057556 125.000984 
L 148.057556 124.476375 
L 148.582166 124.476375 
L 149.106775 124.476375 
L 149.631384 124.476375 
L 150.680602 124.476375 
L 151.205211 124.476375 
L 152.25443 124.476375 
L 153.303648 124.476375 
L 154.352866 124.476375 
L 154.877475 124.476375 
L 155.926694 123.951766 
L 156.975912 123.951766 
L 158.02513 123.951766 
L 159.598958 123.951766 
L 162.222003 123.427157 
L 163.795831 123.427157 
L 165.894268 123.427157 
L 166.943486 123.951766 
L 167.468095 123.951766 
L 168.517313 123.951766 
L 169.566532 123.951766 
L 171.140359 123.951766 
L 173.238796 123.951766 
L 175.861841 123.951766 
L 177.435669 123.951766 
L 179.009496 123.951766 
L 180.058715 123.951766 
L 180.583324 123.951766 
L 181.632542 123.427157 
L 182.68176 123.427157 
L 183.730979 123.427157 
L 184.780197 122.902548 
L 185.829415 122.902548 
L 186.878633 122.902548 
L 187.927852 122.377939 
L 188.452461 122.377939 
L 189.501679 121.853329 
L 190.550898 121.853329 
L 191.600116 121.32872 
L 192.649334 121.32872 
L 193.173943 121.32872 
L 194.223162 120.804111 
L 195.796989 120.804111 
L 196.846207 120.804111 
L 198.944644 120.804111 
L 199.993862 120.804111 
L 201.04308 120.804111 
L 201.56769 120.279502 
" style="fill:none;stroke:#64b5cd;stroke-linecap:square;"/>
   </g>
   <g id="line2d_5">
    <path clip-path="url(#p217d0e1899)" d="M 50.480255 127.099421 
L 50.480255 127.62403 
L 50.480255 128.148639 
L 50.480255 128.673248 
L 50.480255 129.197858 
L 50.480255 129.722467 
L 50.480255 130.247076 
L 50.480255 131.296294 
L 49.955646 132.345512 
L 49.955646 132.870122 
L 49.955646 133.91934 
L 49.955646 134.968558 
L 49.955646 136.017776 
L 49.955646 136.542386 
L 49.955646 137.066995 
L 49.955646 137.591604 
L 49.955646 138.640822 
L 49.955646 139.165431 
L 49.955646 139.690041 
L 49.955646 140.21465 
" style="fill:none;stroke:#c44e52;stroke-linecap:square;"/>
   </g>
   <g id="line2d_6">
    <path clip-path="url(#p217d0e1899)" d="M 51.529473 126.050203 
L 51.529473 126.574812 
L 52.054082 126.574812 
L 52.578691 126.574812 
L 53.103301 126.574812 
L 53.62791 126.574812 
L 54.152519 126.574812 
L 54.677128 126.574812 
L 55.201737 126.574812 
L 55.726346 126.574812 
L 55.726346 127.099421 
L 56.250955 127.099421 
L 56.775565 127.099421 
L 57.300174 127.099421 
L 57.824783 127.099421 
L 58.349392 127.099421 
L 58.874001 127.099421 
L 58.874001 127.62403 
L 59.39861 127.62403 
L 59.923219 127.62403 
L 60.447829 127.62403 
L 60.972438 127.62403 
L 61.497047 127.62403 
L 62.021656 127.62403 
L 62.546265 128.148639 
L 63.070874 128.148639 
L 63.595483 128.148639 
L 64.120093 128.148639 
L 64.644702 128.148639 
L 65.169311 128.148639 
L 65.69392 128.148639 
L 66.218529 128.148639 
L 66.218529 127.62403 
L 66.743138 127.62403 
L 67.267748 127.62403 
L 67.792357 127.62403 
" style="fill:none;stroke:#c44e52;stroke-linecap:square;"/>
   </g>
   <g id="line2d_7">
    <path clip-path="url(#p217d0e1899)" d="M 150.155993 125.000984 
L 150.680602 125.000984 
L 151.205211 125.000984 
L 151.72982 125.000984 
L 152.25443 125.000984 
L 152.779039 125.000984 
L 153.303648 125.000984 
L 153.828257 125.000984 
L 154.352866 125.000984 
L 154.877475 125.000984 
L 155.926694 125.000984 
L 156.451303 125.000984 
L 156.975912 125.000984 
L 158.02513 124.476375 
L 158.549739 124.476375 
L 159.074349 124.476375 
L 159.598958 124.476375 
L 160.123567 124.476375 
L 160.648176 124.476375 
L 161.172785 124.476375 
L 161.697394 124.476375 
L 162.222003 124.476375 
L 163.271222 124.476375 
L 163.795831 124.476375 
L 164.32044 124.476375 
L 164.845049 124.476375 
L 165.369658 124.476375 
L 165.894268 124.476375 
L 165.894268 125.000984 
L 166.418877 125.000984 
L 166.943486 125.000984 
L 166.943486 124.476375 
L 167.468095 124.476375 
" style="fill:none;stroke:#c44e52;stroke-linecap:square;"/>
   </g>
   <g id="line2d_8">
    <path clip-path="url(#p217d0e1899)" d="M 167.992704 126.050203 
L 167.992704 125.525594 
L 167.468095 125.525594 
L 167.468095 126.050203 
L 167.468095 126.574812 
L 167.468095 127.099421 
L 166.943486 127.099421 
L 166.943486 127.62403 
L 166.943486 128.148639 
L 166.943486 128.673248 
L 166.943486 129.197858 
L 166.943486 129.722467 
L 166.943486 130.771685 
L 166.418877 131.296294 
L 166.418877 132.345512 
L 166.418877 132.870122 
L 165.894268 133.394731 
L 165.894268 134.443949 
L 165.894268 134.968558 
L 165.894268 135.493167 
L 165.369658 136.017776 
L 165.369658 137.066995 
L 165.369658 137.591604 
L 165.369658 138.116213 
L 165.369658 138.640822 
L 165.369658 139.165431 
L 165.369658 139.690041 
L 165.369658 140.21465 
L 165.369658 140.739259 
L 165.369658 141.263868 
" style="fill:none;stroke:#c44e52;stroke-linecap:square;"/>
   </g>
   <g id="line2d_9">
    <path clip-path="url(#p217d0e1899)" d="M 49.955646 135.493167 
L 49.955646 134.968558 
L 49.955646 135.493167 
L 50.480255 135.493167 
L 50.480255 136.017776 
L 51.529473 136.542386 
L 52.054082 137.591604 
L 52.578691 138.640822 
L 53.103301 139.690041 
L 53.62791 139.690041 
" style="fill:none;stroke:#c44e52;stroke-linecap:square;"/>
   </g>
   <g id="line2d_10">
    <path clip-path="url(#p217d0e1899)" d="M 51.529473 132.345512 
L 51.529473 131.820903 
L 51.004864 131.820903 
L 51.529473 131.820903 
L 51.529473 132.345512 
L 51.529473 132.870122 
L 52.578691 134.443949 
L 53.62791 136.017776 
L 54.152519 137.591604 
L 55.201737 138.640822 
L 55.726346 139.165431 
" style="fill:none;stroke:#c44e52;stroke-linecap:square;"/>
   </g>
   <g id="line2d_11">
    <path clip-path="url(#p217d0e1899)" d="M 53.103301 130.247076 
L 53.103301 129.722467 
L 53.62791 130.247076 
L 54.152519 131.296294 
L 54.677128 132.345512 
L 55.726346 133.91934 
L 56.250955 135.493167 
L 57.300174 136.542386 
" style="fill:none;stroke:#c44e52;stroke-linecap:square;"/>
   </g>
   <g id="line2d_12">
    <path clip-path="url(#p217d0e1899)" d="M 56.250955 130.247076 
L 56.250955 129.722467 
L 56.775565 129.722467 
L 56.775565 130.247076 
L 57.300174 131.296294 
L 57.824783 132.870122 
L 58.349392 134.443949 
L 59.39861 134.968558 
L 59.39861 135.493167 
" style="fill:none;stroke:#c44e52;stroke-linecap:square;"/>
   </g>
   <g id="line2d_13">
    <path clip-path="url(#p217d0e1899)" d="M 59.39861 132.345512 
L 59.39861 131.296294 
L 59.39861 130.771685 
L 59.39861 130.247076 
L 59.923219 130.247076 
L 60.447829 130.771685 
L 60.972438 131.820903 
L 61.497047 133.394731 
L 62.546265 134.443949 
L 62.546265 135.493167 
L 63.070874 135.493167 
" style="fill:none;stroke:#c44e52;stroke-linecap:square;"/>
   </g>
   <g id="line2d_14">
    <path clip-path="url(#p217d0e1899)" d="M 158.549739 127.099421 
L 158.549739 127.62403 
L 158.549739 128.148639 
L 158.02513 128.673248 
L 158.02513 129.197858 
L 157.500521 130.247076 
L 156.975912 131.296294 
L 156.451303 132.345512 
L 156.451303 132.870122 
L 155.926694 132.870122 
L 155.926694 133.394731 
" style="fill:none;stroke:#c44e52;stroke-linecap:square;"/>
   </g>
   <g id="line2d_15">
    <path clip-path="url(#p217d0e1899)" d="M 161.697394 127.099421 
L 162.222003 127.099421 
L 162.222003 128.148639 
L 161.697394 129.722467 
L 161.172785 131.820903 
L 160.648176 133.91934 
L 160.123567 134.968558 
L 160.123567 135.493167 
" style="fill:none;stroke:#c44e52;stroke-linecap:square;"/>
   </g>
   <g id="line2d_16">
    <path clip-path="url(#p217d0e1899)" d="M 163.795831 129.722467 
L 164.32044 129.197858 
L 164.845049 129.197858 
L 164.845049 129.722467 
L 164.845049 130.247076 
L 164.32044 131.296294 
L 164.32044 133.394731 
L 163.795831 134.968558 
L 163.271222 136.542386 
L 163.271222 137.591604 
" style="fill:none;stroke:#c44e52;stroke-linecap:square;"/>
   </g>
   <g id="line2d_17">
    <path clip-path="url(#p217d0e1899)" d="M 55.201737 117.131847 
L 55.201737 116.607238 
L 54.677128 116.607238 
L 54.152519 116.607238 
L 54.152519 116.082629 
L 54.152519 115.55802 
L 54.152519 115.033411 
L 53.62791 114.508801 
L 53.62791 112.934974 
L 54.152519 110.836537 
L 54.152519 108.213492 
L 55.201737 105.065837 
L 56.250955 102.442791 
L 57.300174 100.868964 
L 57.824783 99.819745 
L 58.874001 99.295136 
L 59.39861 99.295136 
L 60.447829 98.770527 
L 62.021656 98.245918 
L 63.070874 97.196699 
L 64.644702 95.622872 
L 65.69392 92.475217 
L 66.218529 88.802953 
L 65.69392 83.556862 
L 65.69392 80.409207 
L 64.644702 76.736943 
L 64.644702 74.638506 
L 64.120093 73.589288 
L 64.120093 73.064679 
L 64.120093 72.540069 
" style="fill:none;stroke:#c44e52;stroke-linecap:square;"/>
   </g>
   <g id="line2d_18">
    <path clip-path="url(#p217d0e1899)" d="M 60.447829 50.506485 
L 60.447829 49.457267 
L 60.447829 48.932658 
L 60.447829 48.408049 
L 59.923219 48.408049 
L 59.39861 49.457267 
L 58.349392 50.506485 
L 57.824783 53.65414 
L 57.824783 55.227968 
L 59.39861 56.801795 
L 60.447829 57.326404 
L 62.021656 56.801795 
L 62.546265 56.277186 
" style="fill:none;stroke:#c44e52;stroke-linecap:square;"/>
   </g>
   <g id="line2d_19">
    <path clip-path="url(#p217d0e1899)" d="M 65.169311 53.65414 
L 65.69392 53.129531 
L 65.69392 52.604922 
L 65.69392 52.080313 
L 65.69392 51.555704 
L 65.69392 52.080313 
L 66.218529 52.080313 
L 66.218529 53.129531 
L 67.792357 53.65414 
L 68.316966 54.178749 
L 69.366184 53.65414 
L 69.890793 53.129531 
L 69.366184 51.555704 
L 68.316966 50.506485 
L 67.267748 49.981876 
L 66.218529 50.506485 
L 65.69392 51.031094 
L 65.69392 51.555704 
" style="fill:none;stroke:#c44e52;stroke-linecap:square;"/>
   </g>
   <g id="line2d_20">
    <path clip-path="url(#p217d0e1899)" d="M 70.940012 47.883439 
L 71.98923 48.408049 
L 73.563057 48.932658 
L 75.136885 49.981876 
L 75.661494 50.506485 
L 76.186103 51.031094 
L 75.661494 51.031094 
L 75.136885 50.506485 
L 74.612276 50.506485 
L 74.612276 49.457267 
L 74.612276 48.408049 
L 74.612276 47.883439 
" style="fill:none;stroke:#c44e52;stroke-linecap:square;"/>
   </g>
   <g id="line2d_21">
    <path clip-path="url(#p217d0e1899)" d="M 80.382976 43.686566 
L 80.382976 44.211175 
L 80.907585 45.260394 
L 81.432195 45.785003 
L 81.956804 47.35883 
L 82.481413 47.883439 
L 83.006022 48.408049 
L 82.481413 47.883439 
L 82.481413 47.35883 
L 81.432195 46.834221 
L 79.858367 45.785003 
L 78.28454 45.260394 
L 77.235321 45.260394 
L 76.710712 46.309612 
L 76.710712 47.35883 
L 77.759931 48.408049 
L 79.858367 48.932658 
L 80.907585 48.408049 
L 81.956804 47.35883 
" style="fill:none;stroke:#c44e52;stroke-linecap:square;"/>
   </g>
   <g id="line2d_22">
    <path clip-path="url(#p217d0e1899)" d="M 82.481413 38.440475 
L 82.481413 37.915866 
L 81.956804 37.915866 
L 82.481413 37.915866 
L 82.481413 38.440475 
L 83.530631 40.014302 
L 85.629068 43.161957 
L 87.202895 45.260394 
L 88.776723 46.834221 
L 89.301332 46.834221 
" style="fill:none;stroke:#c44e52;stroke-linecap:square;"/>
   </g>
   <g id="line2d_23">
    <path clip-path="url(#p217d0e1899)" d="M 104.514997 37.915866 
L 103.990388 37.915866 
L 103.465779 37.391257 
L 102.94117 36.866647 
L 102.416561 36.866647 
L 102.416561 36.342038 
L 102.94117 36.342038 
L 103.465779 36.866647 
L 104.514997 37.915866 
L 106.088825 39.489693 
L 107.138043 40.014302 
L 107.662652 40.538911 
L 107.138043 40.538911 
L 106.613434 39.489693 
L 105.564215 37.915866 
L 105.564215 36.866647 
L 106.088825 35.817429 
L 106.613434 35.29282 
" style="fill:none;stroke:#c44e52;stroke-linecap:square;"/>
   </g>
   <g id="line2d_24">
    <path clip-path="url(#p217d0e1899)" d="M 111.334916 34.768211 
L 111.334916 35.29282 
L 111.859525 35.29282 
L 111.859525 34.768211 
L 112.384134 34.768211 
L 112.908743 34.243602 
L 112.908743 33.718992 
L 112.908743 33.194383 
L 111.859525 33.194383 
L 111.334916 33.718992 
L 110.810307 34.768211 
L 111.334916 36.342038 
L 111.859525 37.391257 
L 113.433353 37.391257 
L 114.482571 37.391257 
L 115.531789 36.866647 
" style="fill:none;stroke:#c44e52;stroke-linecap:square;"/>
   </g>
   <g id="line2d_25">
    <path clip-path="url(#p217d0e1899)" d="M 116.581008 33.718992 
L 117.105617 34.243602 
L 118.154835 33.718992 
L 119.204053 33.718992 
L 119.728662 32.669774 
L 120.253272 31.620556 
L 119.728662 30.571338 
L 118.679444 30.046728 
L 117.630226 30.571338 
L 116.581008 31.095947 
L 116.581008 32.669774 
L 117.105617 34.243602 
L 118.679444 35.29282 
L 121.30249 35.817429 
L 122.351708 35.29282 
L 122.876317 34.768211 
" style="fill:none;stroke:#c44e52;stroke-linecap:square;"/>
   </g>
   <g id="line2d_26">
    <path clip-path="url(#p217d0e1899)" d="M 124.450145 30.046728 
L 124.450145 30.571338 
L 124.974754 30.571338 
L 125.499363 31.095947 
L 126.023972 31.620556 
L 126.548581 32.145165 
L 126.023972 32.145165 
L 124.450145 30.571338 
L 121.827099 27.948292 
L 120.253272 25.849855 
L 119.204053 23.751419 
L 119.204053 21.652982 
L 119.728662 20.079155 
L 120.253272 19.554545 
L 120.777881 19.554545 
" style="fill:none;stroke:#c44e52;stroke-linecap:square;"/>
   </g>
   <g id="line2d_27">
    <path clip-path="url(#p217d0e1899)" d="M 120.253272 26.899074 
L 120.253272 27.948292 
L 120.777881 27.948292 
L 121.827099 27.948292 
L 123.400926 27.423683 
L 124.450145 25.849855 
L 124.974754 25.849855 
" style="fill:none;stroke:#c44e52;stroke-linecap:square;"/>
   </g>
   <g id="line2d_28">
    <path clip-path="url(#p217d0e1899)" d="M 129.696236 22.7022 
L 129.696236 23.226809 
L 128.647018 24.276028 
L 128.122409 24.800637 
L 128.122409 25.849855 
L 128.122409 26.374464 
L 128.647018 26.374464 
L 129.696236 26.374464 
L 131.794673 26.899074 
L 133.3685 27.948292 
L 134.417719 28.472901 
L 135.466937 29.522119 
L 134.942328 30.046728 
" style="fill:none;stroke:#c44e52;stroke-linecap:square;"/>
   </g>
   <g id="line2d_29">
    <path clip-path="url(#p217d0e1899)" d="M 122.351708 90.376781 
L 122.351708 89.852171 
L 122.351708 89.327562 
L 122.351708 88.802953 
L 122.351708 88.278344 
L 122.351708 87.229126 
L 121.827099 85.655298 
L 121.827099 84.60608 
L 121.827099 82.507643 
L 121.827099 80.933816 
L 121.827099 78.835379 
L 121.827099 77.261552 
L 121.827099 75.163115 
L 122.351708 73.064679 
L 122.351708 72.540069 
L 122.351708 71.490851 
L 122.351708 70.966242 
L 122.351708 70.441633 
" style="fill:none;stroke:#8172b3;stroke-linecap:square;"/>
   </g>
   <g id="line2d_30">
    <path clip-path="url(#p217d0e1899)" d="M 117.630226 70.966242 
L 118.154835 70.441633 
L 118.154835 69.392415 
L 119.204053 67.818587 
L 120.253272 66.24476 
L 121.30249 64.670932 
L 121.827099 63.621714 
L 122.351708 63.097105 
L 122.876317 62.572496 
L 123.400926 62.572496 
L 123.925536 63.097105 
L 124.450145 63.621714 
L 124.974754 65.195541 
L 126.023972 66.24476 
L 126.548581 67.293978 
L 127.073191 67.818587 
" style="fill:none;stroke:#8172b3;stroke-linecap:square;"/>
   </g>
   <g id="line2d_31">
    <path clip-path="url(#p217d0e1899)" d="M 165.369658 140.21465 
L 164.845049 140.21465 
L 165.369658 140.21465 
L 165.894268 140.21465 
L 165.894268 139.690041 
L 166.418877 139.690041 
L 166.943486 139.690041 
L 167.468095 139.690041 
L 167.992704 139.690041 
" style="fill:none;stroke:#64b5cd;stroke-linecap:square;"/>
   </g>
   <g id="line2d_32">
    <path clip-path="url(#p217d0e1899)" d="M 172.189577 139.165431 
L 172.189577 138.640822 
L 172.714186 138.640822 
L 173.238796 138.640822 
L 173.763405 138.640822 
L 174.288014 138.116213 
" style="fill:none;stroke:#64b5cd;stroke-linecap:square;"/>
   </g>
   <g id="line2d_33">
    <path clip-path="url(#p217d0e1899)" d="M 180.583324 137.066995 
L 181.107933 137.066995 
L 181.632542 137.066995 
L 182.157151 137.591604 
" style="fill:none;stroke:#64b5cd;stroke-linecap:square;"/>
   </g>
   <g id="line2d_34">
    <path clip-path="url(#p217d0e1899)" d="M 186.354024 136.542386 
L 186.878633 136.542386 
L 186.878633 137.066995 
L 187.403243 137.066995 
L 187.927852 137.066995 
L 188.452461 137.066995 
L 188.97707 137.066995 
" style="fill:none;stroke:#64b5cd;stroke-linecap:square;"/>
   </g>
   <g id="line2d_35">
    <path clip-path="url(#p217d0e1899)" d="M 190.550898 137.591604 
L 191.075507 137.591604 
L 191.600116 137.591604 
L 192.124725 137.591604 
L 192.649334 137.591604 
L 193.173943 137.591604 
" style="fill:none;stroke:#64b5cd;stroke-linecap:square;"/>
   </g>
   <g id="line2d_36">
    <path clip-path="url(#p217d0e1899)" d="M 196.321598 138.116213 
L 196.846207 138.116213 
L 197.370816 138.116213 
L 197.370816 138.640822 
L 197.895426 138.640822 
L 198.420035 138.640822 
L 199.469253 138.640822 
L 199.993862 138.640822 
L 200.518471 138.640822 
L 201.04308 138.640822 
" style="fill:none;stroke:#64b5cd;stroke-linecap:square;"/>
   </g>
   <g id="line2d_37">
    <path clip-path="url(#p217d0e1899)" d="M 213.6337 107.164273 
L 213.6337 106.639664 
L 213.6337 106.115055 
L 214.158309 106.115055 
L 214.158309 106.639664 
L 214.158309 107.164273 
L 214.158309 109.26271 
L 214.158309 111.361146 
L 214.682918 113.459583 
L 215.207528 115.55802 
L 215.732137 117.131847 
L 216.781355 117.656456 
L 217.830573 117.656456 
L 218.879792 117.656456 
L 219.92901 117.131847 
" style="fill:none;stroke:#64b5cd;stroke-linecap:square;"/>
   </g>
   <g id="line2d_38">
    <path clip-path="url(#p217d0e1899)" d="M 212.059873 111.361146 
L 211.535263 111.885756 
L 212.059873 111.885756 
L 212.584482 111.885756 
L 214.158309 111.361146 
L 215.732137 111.361146 
L 216.256746 110.836537 
" style="fill:none;stroke:#64b5cd;stroke-linecap:square;"/>
   </g>
   <g id="line2d_39">
    <path clip-path="url(#p217d0e1899)" d="M 225.69971 110.836537 
L 225.69971 111.361146 
L 225.69971 111.885756 
L 226.22432 112.410365 
L 226.748929 113.984192 
L 226.748929 115.55802 
L 227.273538 116.082629 
" style="fill:none;stroke:#64b5cd;stroke-linecap:square;"/>
   </g>
   <g id="line2d_40">
    <path clip-path="url(#p217d0e1899)" d="M 213.6337 132.345512 
L 213.6337 132.870122 
L 213.6337 133.91934 
L 213.6337 135.493167 
L 213.6337 138.116213 
L 213.6337 139.690041 
L 214.682918 141.263868 
L 215.732137 142.837695 
L 216.781355 142.837695 
L 217.305964 142.837695 
L 217.830573 142.313086 
" style="fill:none;stroke:#64b5cd;stroke-linecap:square;"/>
   </g>
   <g id="line2d_41">
    <path clip-path="url(#p217d0e1899)" d="M 210.486045 139.165431 
L 210.486045 139.690041 
L 211.010654 139.690041 
L 211.535263 139.690041 
L 212.584482 139.165431 
L 214.682918 138.640822 
L 215.732137 138.116213 
" style="fill:none;stroke:#64b5cd;stroke-linecap:square;"/>
   </g>
   <g id="line2d_42">
    <path clip-path="url(#p217d0e1899)" d="M 223.601274 139.165431 
L 224.125883 139.165431 
L 225.175101 138.116213 
L 225.69971 138.116213 
L 226.748929 137.591604 
L 226.748929 138.116213 
L 226.748929 139.165431 
L 226.22432 140.739259 
L 225.69971 142.313086 
L 225.69971 143.886914 
L 225.69971 144.411523 
L 226.748929 144.936132 
L 228.322756 144.936132 
L 229.896584 144.411523 
L 230.421193 143.886914 
" style="fill:none;stroke:#64b5cd;stroke-linecap:square;"/>
   </g>
   <g id="line2d_43">
    <path clip-path="url(#p217d0e1899)" d="M 32.643544 140.21465 
L 32.643544 139.690041 
L 33.168153 139.690041 
" style="fill:none;stroke:#64b5cd;stroke-linecap:square;"/>
   </g>
   <g id="line2d_44">
    <path clip-path="url(#p217d0e1899)" d="M 35.266589 138.640822 
L 35.791199 138.640822 
L 36.315808 138.640822 
L 36.315808 139.165431 
L 36.840417 139.165431 
L 37.365026 139.165431 
" style="fill:none;stroke:#64b5cd;stroke-linecap:square;"/>
   </g>
   <g id="line2d_45">
    <path clip-path="url(#p217d0e1899)" d="M 38.938854 139.690041 
L 39.463463 139.690041 
L 39.463463 140.21465 
L 40.512681 140.21465 
L 41.03729 140.21465 
" style="fill:none;stroke:#64b5cd;stroke-linecap:square;"/>
   </g>
   <g id="line2d_46">
    <path clip-path="url(#p217d0e1899)" d="M 42.611118 140.21465 
L 43.135727 140.739259 
L 43.660336 140.739259 
L 44.184945 140.739259 
" style="fill:none;stroke:#64b5cd;stroke-linecap:square;"/>
   </g>
   <g id="line2d_47">
    <path clip-path="url(#p217d0e1899)" d="M 45.758772 141.263868 
L 46.283382 141.788477 
L 46.807991 141.788477 
L 47.3326 141.788477 
L 47.857209 141.788477 
L 48.381818 141.788477 
L 48.906427 141.788477 
L 49.431036 141.788477 
L 49.431036 141.263868 
" style="fill:none;stroke:#64b5cd;stroke-linecap:square;"/>
   </g>
   <g id="line2d_48">
    <path clip-path="url(#p217d0e1899)" d="M 166.418877 141.263868 
L 166.418877 140.739259 
L 166.418877 140.21465 
L 166.418877 139.690041 
L 166.943486 139.690041 
L 167.468095 139.690041 
L 167.992704 139.690041 
L 168.517313 139.690041 
L 169.041922 139.690041 
L 169.566532 139.690041 
L 170.091141 139.690041 
L 170.61575 139.690041 
L 171.140359 139.690041 
L 171.664968 139.690041 
L 172.189577 139.690041 
L 172.714186 139.690041 
L 173.238796 139.690041 
L 173.763405 139.690041 
L 174.288014 139.690041 
L 174.812623 139.690041 
L 175.337232 139.690041 
L 175.861841 139.690041 
L 176.38645 139.690041 
L 176.91106 139.690041 
L 177.960278 139.690041 
L 178.484887 139.690041 
L 179.009496 139.690041 
L 179.534105 139.690041 
L 180.058715 139.690041 
L 180.583324 139.690041 
L 181.107933 139.690041 
L 181.632542 139.690041 
L 182.157151 139.690041 
L 182.68176 139.690041 
L 183.206369 139.165431 
" style="fill:none;stroke:#c44e52;stroke-linecap:square;"/>
   </g>
   <g id="line2d_49">
    <path clip-path="url(#p217d0e1899)" d="M 183.730979 139.690041 
L 183.730979 140.21465 
L 183.730979 140.739259 
L 183.730979 141.263868 
L 183.730979 141.788477 
L 183.730979 142.313086 
L 184.255588 142.313086 
L 184.255588 142.837695 
L 184.255588 143.886914 
L 184.780197 144.411523 
L 184.780197 144.936132 
L 184.780197 145.98535 
L 184.780197 146.509959 
L 184.780197 147.559178 
L 184.780197 148.083787 
L 185.304806 149.133005 
L 185.304806 149.657614 
L 185.304806 150.706833 
L 185.304806 151.231442 
L 185.304806 152.805269 
L 185.304806 153.329878 
L 185.304806 154.379097 
L 185.304806 154.903706 
L 185.304806 155.428315 
L 185.304806 156.477533 
L 185.304806 157.002142 
L 185.304806 157.526752 
L 185.304806 158.051361 
L 185.304806 159.100579 
L 185.304806 159.625188 
" style="fill:none;stroke:#c44e52;stroke-linecap:square;"/>
   </g>
   <g id="line2d_50">
    <path clip-path="url(#p217d0e1899)" d="M 173.763405 148.608396 
L 174.288014 148.608396 
L 174.812623 149.133005 
L 175.337232 149.133005 
L 175.861841 149.657614 
L 176.91106 150.706833 
L 178.484887 152.28066 
L 180.058715 153.854488 
L 181.632542 155.428315 
L 183.730979 157.526752 
L 184.780197 159.100579 
L 185.829415 160.149797 
L 186.878633 160.674406 
L 186.878633 161.199016 
" style="fill:none;stroke:#c44e52;stroke-linecap:square;"/>
   </g>
   <g id="line2d_51">
    <path clip-path="url(#p217d0e1899)" d="M 42.611118 143.362305 
L 42.611118 142.837695 
L 42.086508 142.313086 
L 41.561899 142.313086 
L 41.561899 141.788477 
L 41.03729 141.788477 
L 41.03729 141.263868 
L 40.512681 141.263868 
L 39.988072 141.263868 
L 39.463463 141.263868 
L 38.938854 141.263868 
L 38.414244 141.263868 
L 37.889635 141.263868 
L 37.365026 141.263868 
L 36.840417 141.263868 
L 35.791199 141.788477 
L 34.74198 141.788477 
L 33.692762 141.788477 
L 33.168153 141.788477 
L 32.118935 141.788477 
L 31.069716 141.788477 
L 30.545107 141.788477 
L 29.495889 141.788477 
L 28.97128 141.788477 
L 28.446671 141.788477 
L 28.446671 141.263868 
L 27.922061 141.263868 
L 27.397452 141.263868 
L 27.397452 141.788477 
L 27.397452 142.313086 
L 27.397452 142.837695 
L 27.397452 143.362305 
L 27.397452 144.411523 
L 27.922061 145.460741 
L 27.922061 146.509959 
L 27.922061 147.034569 
L 28.446671 147.559178 
L 28.446671 148.083787 
L 28.446671 148.608396 
L 28.446671 149.133005 
L 28.446671 149.657614 
L 27.922061 149.657614 
L 27.922061 150.182224 
L 27.922061 150.706833 
L 27.922061 151.231442 
L 27.922061 151.756051 
L 27.397452 151.756051 
L 27.397452 152.28066 
L 26.872843 152.28066 
L 26.872843 151.756051 
" style="fill:none;stroke:#c44e52;stroke-linecap:square;"/>
   </g>
   <g id="line2d_52">
    <path clip-path="url(#p217d0e1899)" d="M 28.446671 154.379097 
L 28.97128 154.379097 
L 29.495889 154.379097 
L 29.495889 153.854488 
L 29.495889 153.329878 
L 29.495889 152.805269 
L 29.495889 152.28066 
L 29.495889 151.756051 
L 30.545107 151.756051 
L 32.643544 150.706833 
L 35.266589 149.133005 
L 37.889635 148.608396 
L 39.988072 148.083787 
L 41.561899 147.559178 
L 43.135727 146.509959 
" style="fill:none;stroke:#c44e52;stroke-linecap:square;"/>
   </g>
   <g id="line2d_53">
    <path clip-path="url(#p217d0e1899)" d="M 29.495889 144.411523 
L 29.495889 143.886914 
L 28.97128 143.886914 
L 28.97128 143.362305 
L 28.97128 143.886914 
L 28.97128 144.411523 
L 29.495889 145.460741 
L 29.495889 146.509959 
L 29.495889 147.034569 
L 30.020498 147.034569 
L 30.020498 147.559178 
" style="fill:none;stroke:#c44e52;stroke-linecap:square;"/>
   </g>
   <g id="line2d_54">
    <path clip-path="url(#p217d0e1899)" d="M 33.168153 143.886914 
L 33.168153 143.362305 
L 33.692762 143.362305 
L 33.692762 143.886914 
L 33.168153 144.936132 
L 32.643544 146.509959 
L 32.118935 148.083787 
L 32.118935 148.608396 
L 32.118935 149.133005 
L 32.118935 148.608396 
" style="fill:none;stroke:#c44e52;stroke-linecap:square;"/>
   </g>
   <g id="line2d_55">
    <path clip-path="url(#p217d0e1899)" d="M 35.791199 144.411523 
L 36.315808 143.886914 
L 36.840417 143.362305 
L 37.365026 143.886914 
L 37.365026 144.411523 
L 36.840417 145.460741 
L 36.840417 146.509959 
L 36.840417 147.034569 
L 36.840417 146.509959 
L 37.365026 145.98535 
L 37.365026 145.460741 
L 37.889635 144.936132 
L 37.889635 144.411523 
L 38.414244 144.411523 
L 38.414244 144.936132 
L 38.414244 145.460741 
L 38.414244 145.98535 
L 37.889635 145.98535 
L 37.889635 146.509959 
L 37.889635 147.034569 
" style="fill:none;stroke:#c44e52;stroke-linecap:square;"/>
   </g>
   <g id="line2d_56">
    <path clip-path="url(#p217d0e1899)" d="M 171.140359 141.788477 
L 171.140359 142.313086 
L 170.61575 142.837695 
L 170.61575 143.362305 
L 170.61575 143.886914 
L 169.566532 145.460741 
L 169.566532 145.98535 
" style="fill:none;stroke:#c44e52;stroke-linecap:square;"/>
   </g>
   <g id="line2d_57">
    <path clip-path="url(#p217d0e1899)" d="M 175.861841 140.739259 
L 175.861841 141.788477 
L 174.812623 143.362305 
L 173.763405 145.460741 
L 173.238796 146.509959 
" style="fill:none;stroke:#c44e52;stroke-linecap:square;"/>
   </g>
   <g id="line2d_58">
    <path clip-path="url(#p217d0e1899)" d="M 177.435669 143.886914 
L 177.435669 143.362305 
L 177.960278 143.362305 
L 177.960278 143.886914 
L 177.960278 144.411523 
L 176.91106 145.98535 
L 176.38645 147.559178 
L 176.38645 149.133005 
" style="fill:none;stroke:#c44e52;stroke-linecap:square;"/>
   </g>
   <g id="line2d_59">
    <path clip-path="url(#p217d0e1899)" d="M 181.107933 143.362305 
L 181.632542 143.362305 
L 182.157151 143.362305 
L 182.157151 143.886914 
L 182.157151 145.98535 
L 182.157151 147.034569 
L 182.157151 148.608396 
L 181.632542 148.608396 
" style="fill:none;stroke:#c44e52;stroke-linecap:square;"/>
   </g>
   <g id="line2d_60">
    <path clip-path="url(#p217d0e1899)" d="M 183.206369 147.034569 
L 183.206369 147.559178 
L 183.206369 148.083787 
L 182.68176 148.608396 
L 182.157151 149.657614 
L 182.157151 151.231442 
" style="fill:none;stroke:#c44e52;stroke-linecap:square;"/>
   </g>
   <g id="line2d_61">
    <path clip-path="url(#p217d0e1899)" d="M 172.714186 149.133005 
L 173.238796 149.133005 
L 173.238796 149.657614 
L 173.763405 150.182224 
L 174.288014 150.706833 
L 174.812623 150.706833 
L 174.812623 151.231442 
L 175.337232 151.756051 
L 175.861841 152.28066 
L 175.861841 152.805269 
L 176.38645 153.329878 
L 176.38645 153.854488 
L 176.91106 154.379097 
L 177.435669 154.903706 
L 177.960278 155.428315 
L 178.484887 155.952924 
L 179.009496 156.477533 
L 179.534105 157.002142 
L 180.058715 157.526752 
L 181.107933 158.051361 
L 182.157151 159.100579 
L 183.206369 160.149797 
L 184.780197 161.199016 
L 185.829415 161.723625 
L 186.878633 162.248234 
L 187.403243 162.772843 
L 187.927852 163.297452 
L 188.452461 163.822061 
L 188.97707 163.822061 
L 189.501679 164.346671 
L 190.026288 164.346671 
L 190.026288 164.87128 
L 190.550898 164.87128 
L 191.075507 165.395889 
L 191.075507 165.920498 
L 192.124725 166.445107 
L 193.173943 167.494325 
L 194.747771 168.543544 
L 195.796989 169.592762 
L 197.370816 170.64198 
L 197.895426 171.691199 
L 199.469253 172.740417 
L 199.993862 173.265026 
L 200.518471 174.314244 
L 201.04308 174.314244 
L 201.56769 174.838854 
L 202.092299 175.888072 
L 202.616908 176.93729 
L 204.190735 177.986508 
L 205.239954 179.560336 
L 207.33839 181.134163 
L 209.436827 183.2326 
L 212.059873 185.855646 
L 214.682918 187.954082 
L 217.305964 190.052519 
L 219.92901 192.675565 
L 222.552056 194.774001 
L 226.22432 197.921656 
L 228.847365 199.495483 
L 231.99502 201.59392 
L 234.618066 203.692357 
L 236.716503 205.266184 
L 238.29033 206.315402 
L 239.864157 207.364621 
L 241.962594 208.938448 
L 243.536422 209.987666 
L 245.110249 211.561494 
L 246.684076 212.610712 
L 248.782513 214.18454 
L 250.88095 216.282976 
L 254.028605 218.381413 
L 257.176259 221.529068 
L 259.799305 223.627504 
L 262.94696 226.775159 
L 266.619224 229.398205 
L 269.766879 232.021251 
L 271.865316 234.119687 
L 275.01297 236.742733 
L 278.685235 239.365779 
L 281.832889 241.464215 
L 284.980544 244.087261 
L 287.078981 245.661089 
L 289.702027 247.759525 
L 291.800463 249.333353 
L 294.423509 251.431789 
L 295.997336 252.481008 
L 298.095773 254.054835 
L 300.718819 255.628662 
L 303.341865 257.727099 
L 305.96491 259.825536 
L 307.538738 260.874754 
L 309.637174 262.973191 
L 311.211002 264.022409 
L 312.26022 265.071627 
L 313.309438 266.120845 
L 313.834047 266.120845 
L 313.834047 266.645455 
L 314.358657 266.645455 
" style="fill:none;stroke:#8c8c8c;stroke-linecap:square;"/>
   </g>
   <g id="line2d_62">
    <path clip-path="url(#p217d0e1899)" d="M 258.750087 221.529068 
L 259.274696 221.529068 
L 259.274696 221.004459 
" style="fill:none;stroke:#64b5cd;stroke-linecap:square;"/>
   </g>
   <g id="line2d_63">
    <path clip-path="url(#p217d0e1899)" d="M 261.897742 221.004459 
L 262.422351 221.004459 
L 262.94696 221.004459 
L 263.471569 220.479849 
" style="fill:none;stroke:#64b5cd;stroke-linecap:square;"/>
   </g>
   <g id="line2d_64">
    <path clip-path="url(#p217d0e1899)" d="M 266.619224 219.430631 
L 267.143833 219.430631 
L 267.668442 219.430631 
L 268.193052 219.430631 
" style="fill:none;stroke:#64b5cd;stroke-linecap:square;"/>
   </g>
   <g id="line2d_65">
    <path clip-path="url(#p217d0e1899)" d="M 270.291488 218.906022 
L 270.816097 218.906022 
L 271.340706 218.906022 
L 271.865316 218.906022 
L 272.389925 218.906022 
L 272.914534 218.906022 
L 273.439143 218.906022 
L 273.963752 218.381413 
" style="fill:none;stroke:#64b5cd;stroke-linecap:square;"/>
   </g>
   <g id="line2d_66">
    <path clip-path="url(#p217d0e1899)" d="M 275.01297 218.381413 
L 276.062189 218.381413 
L 276.586798 218.381413 
L 277.636016 218.381413 
L 278.160625 218.381413 
L 279.209844 218.381413 
L 279.734453 217.856804 
L 280.259062 217.856804 
L 280.783671 217.856804 
L 281.30828 217.332195 
L 282.357499 217.332195 
L 282.882108 217.332195 
L 283.406717 216.807585 
" style="fill:none;stroke:#64b5cd;stroke-linecap:square;"/>
   </g>
   <g id="line2d_67">
    <path clip-path="url(#p217d0e1899)" d="M 288.128199 216.282976 
L 288.652808 216.282976 
L 289.702027 216.282976 
L 290.226636 216.282976 
" style="fill:none;stroke:#64b5cd;stroke-linecap:square;"/>
   </g>
   <g id="line2d_68">
    <path clip-path="url(#p217d0e1899)" d="M 307.014129 204.741575 
L 306.489519 205.266184 
L 306.489519 206.315402 
L 306.489519 208.413839 
L 307.014129 210.512276 
L 307.538738 212.610712 
L 308.063347 215.233758 
L 308.587956 218.381413 
L 310.161783 219.95524 
L 311.211002 220.479849 
L 312.26022 219.430631 
L 312.784829 218.906022 
" style="fill:none;stroke:#64b5cd;stroke-linecap:square;"/>
   </g>
   <g id="line2d_69">
    <path clip-path="url(#p217d0e1899)" d="M 304.915692 211.561494 
L 304.391083 211.561494 
L 304.915692 212.086103 
L 305.440301 212.086103 
L 307.538738 212.086103 
L 309.637174 212.086103 
L 311.735611 211.561494 
L 312.784829 211.561494 
" style="fill:none;stroke:#64b5cd;stroke-linecap:square;"/>
   </g>
   <g id="line2d_70">
    <path clip-path="url(#p217d0e1899)" d="M 320.129357 213.659931 
L 320.129357 214.18454 
L 320.129357 214.709149 
L 320.129357 215.233758 
L 320.653966 216.807585 
L 320.653966 219.430631 
L 321.178576 221.004459 
L 321.178576 222.578286 
L 321.703185 222.578286 
" style="fill:none;stroke:#64b5cd;stroke-linecap:square;"/>
   </g>
   <g id="line2d_71">
    <path clip-path="url(#p217d0e1899)" d="M 325.375449 218.381413 
L 325.900058 218.381413 
L 325.900058 218.906022 
L 326.424667 219.430631 
L 326.424667 219.95524 
L 326.949276 219.95524 
L 326.949276 220.479849 
L 326.424667 220.479849 
" style="fill:none;stroke:#64b5cd;stroke-linecap:square;"/>
   </g>
   <g id="line2d_72">
    <path clip-path="url(#p217d0e1899)" d="M 331.146149 212.086103 
L 331.670759 212.086103 
L 331.146149 212.610712 
L 331.146149 213.135321 
L 330.096931 213.659931 
L 330.096931 214.18454 
L 330.096931 214.709149 
L 330.62154 215.233758 
L 331.146149 215.233758 
L 332.719977 215.758367 
L 333.769195 216.282976 
L 335.867632 217.332195 
L 336.91685 218.381413 
L 337.441459 219.95524 
L 337.441459 221.004459 
L 336.91685 222.053677 
L 334.818413 222.053677 
L 333.769195 221.529068 
" style="fill:none;stroke:#64b5cd;stroke-linecap:square;"/>
   </g>
   <g id="line2d_73">
    <path clip-path="url(#p217d0e1899)" d="M 329.572322 211.036885 
L 330.096931 211.036885 
L 330.096931 210.512276 
L 331.146149 210.512276 
L 332.195368 210.512276 
L 333.769195 209.987666 
L 336.392241 209.463057 
L 337.441459 209.463057 
" style="fill:none;stroke:#64b5cd;stroke-linecap:square;"/>
   </g>
   <g id="line2d_74">
    <path clip-path="url(#p217d0e1899)" d="M 362.098089 204.216966 
L 362.098089 203.692357 
L 362.098089 203.167748 
L 362.622698 203.167748 
L 362.622698 203.692357 
L 362.622698 204.216966 
L 362.622698 204.741575 
L 362.622698 206.315402 
L 362.098089 208.938448 
L 362.098089 211.561494 
L 362.098089 213.135321 
L 361.57348 214.18454 
L 362.098089 214.709149 
L 362.098089 215.233758 
L 363.671917 215.233758 
L 365.245744 214.709149 
L 367.86879 214.709149 
L 369.442617 213.659931 
L 371.016445 213.135321 
" style="fill:none;stroke:#64b5cd;stroke-linecap:square;"/>
   </g>
   <g id="line2d_75">
    <path clip-path="url(#p217d0e1899)" d="M 376.262536 211.036885 
L 376.787145 211.561494 
L 377.311754 211.561494 
L 377.311754 212.086103 
" style="fill:none;stroke:#64b5cd;stroke-linecap:square;"/>
   </g>
   <g id="line2d_76">
    <path clip-path="url(#p217d0e1899)" d="M 386.23011 197.921656 
L 385.705501 197.921656 
L 385.180892 198.446265 
L 384.131673 200.020093 
L 383.607064 202.643138 
L 382.557846 205.266184 
L 382.557846 208.413839 
L 383.607064 210.512276 
L 385.180892 211.561494 
L 386.754719 212.086103 
L 388.853156 212.086103 
L 389.902374 211.561494 
L 390.951592 209.987666 
" style="fill:none;stroke:#64b5cd;stroke-linecap:square;"/>
   </g>
   <g id="line2d_77">
    <path clip-path="url(#p217d0e1899)" d="M 395.148466 209.463057 
L 395.148466 209.987666 
L 395.148466 210.512276 
L 395.148466 211.036885 
L 395.673075 211.561494 
L 396.197684 211.561494 
" style="fill:none;stroke:#64b5cd;stroke-linecap:square;"/>
   </g>
   <g id="line2d_78">
    <path clip-path="url(#p217d0e1899)" d="M 387.803937 206.840012 
L 388.328547 206.840012 
L 388.853156 206.840012 
L 390.426983 205.790793 
L 391.476202 205.266184 
L 392.52542 204.741575 
L 393.050029 204.741575 
L 393.050029 205.266184 
L 393.050029 205.790793 
L 393.050029 206.315402 
L 393.574638 207.88923 
L 393.574638 209.463057 
L 393.574638 211.036885 
L 394.099247 212.610712 
L 394.099247 213.135321 
L 393.574638 213.659931 
L 393.574638 214.18454 
" style="fill:none;stroke:#64b5cd;stroke-linecap:square;"/>
   </g>
   <g id="line2d_79">
    <path clip-path="url(#p217d0e1899)" d="M 401.968384 204.216966 
L 401.968384 204.741575 
L 401.968384 205.266184 
L 402.492994 206.315402 
L 403.017603 207.88923 
L 404.066821 208.938448 
L 404.066821 209.463057 
L 404.066821 208.938448 
L 404.066821 208.413839 
L 403.542212 205.790793 
L 402.492994 202.118529 
L 401.968384 197.397047 
L 402.492994 194.774001 
L 403.017603 194.249392 
L 404.066821 194.249392 
L 405.640649 196.347829 
L 407.214476 200.020093 
L 407.739085 203.167748 
L 408.788303 205.266184 
L 408.788303 205.790793 
L 408.788303 205.266184 
L 408.788303 204.741575 
L 408.788303 203.692357 
L 408.788303 200.544702 
L 409.312913 198.446265 
L 409.837522 196.872438 
L 410.362131 196.347829 
L 410.88674 195.823219 
L 411.935958 196.872438 
L 412.460567 198.970874 
L 412.985177 201.069311 
L 414.034395 203.167748 
L 414.034395 204.216966 
L 414.559004 204.741575 
" style="fill:none;stroke:#64b5cd;stroke-linecap:square;"/>
   </g>
   <g id="line2d_80">
    <path clip-path="url(#p217d0e1899)" d="M 419.280486 206.315402 
L 419.805096 207.364621 
L 419.805096 207.88923 
L 420.329705 207.88923 
" style="fill:none;stroke:#64b5cd;stroke-linecap:square;"/>
   </g>
   <g id="line2d_81">
    <path clip-path="url(#p217d0e1899)" d="M 279.209844 221.004459 
L 279.734453 221.004459 
L 279.734453 221.529068 
L 279.209844 221.529068 
L 279.209844 222.053677 
L 279.209844 222.578286 
L 279.209844 224.152113 
L 279.209844 226.25055 
L 278.685235 228.873596 
L 278.685235 231.496642 
L 278.685235 234.644296 
L 278.160625 236.742733 
L 278.160625 237.791951 
L 278.160625 238.316561 
L 278.160625 238.84117 
L 278.160625 239.365779 
L 278.160625 239.890388 
L 277.636016 239.890388 
L 277.636016 239.365779 
" style="fill:none;stroke:#c44e52;stroke-linecap:square;"/>
   </g>
   <g id="line2d_82">
    <path clip-path="url(#p217d0e1899)" d="M 278.160625 219.95524 
L 277.636016 219.95524 
L 277.636016 220.479849 
L 277.111407 221.004459 
L 276.586798 221.529068 
L 276.062189 221.529068 
L 275.01297 222.053677 
L 273.963752 222.578286 
L 272.914534 222.578286 
L 271.865316 222.578286 
L 270.816097 222.578286 
L 268.717661 222.578286 
L 267.143833 223.102895 
L 265.045397 223.102895 
L 263.471569 223.627504 
L 261.897742 224.152113 
L 260.848523 224.676723 
L 259.799305 224.676723 
L 259.274696 224.676723 
L 258.750087 224.676723 
L 258.225478 224.676723 
L 257.700869 224.676723 
" style="fill:none;stroke:#c44e52;stroke-linecap:square;"/>
   </g>
   <g id="line2d_83">
    <path clip-path="url(#p217d0e1899)" d="M 264.520787 222.578286 
L 263.996178 222.578286 
L 263.996178 223.102895 
L 264.520787 223.627504 
L 266.094615 225.201332 
L 268.717661 227.824378 
L 271.340706 231.496642 
L 273.963752 233.595078 
L 275.01297 234.644296 
L 275.53758 235.168906 
L 276.062189 235.168906 
L 275.53758 235.168906 
L 275.01297 234.119687 
" style="fill:none;stroke:#c44e52;stroke-linecap:square;"/>
   </g>
   <g id="line2d_84">
    <path clip-path="url(#p217d0e1899)" d="M 267.143833 223.627504 
L 267.668442 224.152113 
L 268.193052 224.152113 
L 268.717661 225.725941 
L 270.816097 227.824378 
L 272.389925 229.922814 
L 273.963752 231.496642 
L 275.01297 232.54586 
L 275.53758 232.54586 
L 275.01297 232.54586 
L 275.01297 231.496642 
L 273.963752 230.972032 
" style="fill:none;stroke:#c44e52;stroke-linecap:square;"/>
   </g>
   <g id="line2d_85">
    <path clip-path="url(#p217d0e1899)" d="M 269.24227 222.578286 
L 269.24227 222.053677 
L 269.766879 222.053677 
L 271.340706 223.627504 
L 273.439143 226.25055 
L 275.53758 228.873596 
L 277.111407 230.972032 
L 277.636016 231.496642 
L 277.636016 232.021251 
L 277.636016 231.496642 
L 277.111407 230.972032 
" style="fill:none;stroke:#c44e52;stroke-linecap:square;"/>
   </g>
   <g id="line2d_86">
    <path clip-path="url(#p217d0e1899)" d="M 272.389925 223.627504 
L 272.389925 223.102895 
L 272.389925 223.627504 
L 273.439143 224.152113 
L 275.01297 225.725941 
L 277.111407 227.824378 
L 278.685235 229.398205 
L 279.734453 229.398205 
L 279.734453 229.398205 
" style="fill:none;stroke:#c44e52;stroke-linecap:square;"/>
   </g>
   <g id="line2d_87">
    <path clip-path="url(#p217d0e1899)" d="M 277.111407 221.529068 
L 276.586798 220.479849 
L 276.586798 220.479849 
L 276.586798 221.004459 
L 277.636016 222.578286 
L 277.636016 223.102895 
" style="fill:none;stroke:#c44e52;stroke-linecap:square;"/>
   </g>
   <g id="line2d_88">
    <path clip-path="url(#p217d0e1899)" d="M 237.765721 203.167748 
L 238.29033 203.692357 
L 239.339548 203.692357 
L 240.388767 203.692357 
L 241.437985 203.692357 
L 242.487203 203.692357 
L 243.536422 203.692357 
L 244.061031 203.692357 
L 245.110249 203.692357 
L 246.159467 203.692357 
L 246.684076 203.692357 
L 247.208686 203.692357 
L 248.257904 203.692357 
L 248.782513 203.692357 
L 249.831731 203.692357 
L 250.35634 203.167748 
L 250.88095 203.167748 
L 251.405559 203.167748 
L 251.930168 203.167748 
L 252.454777 203.167748 
L 252.454777 203.692357 
L 252.454777 204.216966 
L 252.454777 204.741575 
L 252.454777 205.266184 
L 252.454777 206.840012 
L 252.454777 208.413839 
L 252.979386 210.512276 
L 252.979386 212.086103 
L 252.979386 212.610712 
" style="fill:none;stroke:#c44e52;stroke-linecap:square;"/>
   </g>
   <g id="line2d_89">
    <path clip-path="url(#p217d0e1899)" d="M 212.059873 182.183382 
L 212.584482 182.183382 
L 212.584482 182.707991 
L 213.109091 182.707991 
L 214.158309 182.707991 
L 215.732137 182.707991 
L 216.781355 183.2326 
L 218.355182 183.757209 
L 219.92901 183.757209 
L 220.453619 183.757209 
L 221.502837 184.281818 
L 222.027446 184.281818 
L 223.076665 184.281818 
L 223.601274 184.281818 
L 224.125883 184.281818 
L 224.650492 184.281818 
L 224.650492 184.806427 
L 225.175101 184.806427 
L 225.175101 185.331036 
L 225.175101 185.855646 
L 225.175101 186.380255 
L 225.175101 186.904864 
L 225.175101 188.478691 
L 224.650492 189.52791 
L 224.650492 191.101737 
L 224.650492 192.150955 
L 224.125883 193.200174 
L 224.125883 193.724783 
L 224.125883 194.249392 
L 223.601274 194.249392 
" style="fill:none;stroke:#c44e52;stroke-linecap:square;"/>
   </g>
   <g id="line2d_90">
    <path clip-path="url(#p217d0e1899)" d="M 190.026288 161.723625 
L 190.026288 161.199016 
L 190.550898 161.199016 
L 191.075507 161.199016 
L 191.600116 161.199016 
L 193.173943 161.199016 
L 195.27238 161.199016 
L 197.370816 161.199016 
L 198.944644 160.674406 
L 199.993862 160.674406 
L 201.04308 160.674406 
L 201.56769 160.674406 
L 202.092299 160.674406 
L 202.092299 161.199016 
L 202.092299 161.723625 
L 202.092299 162.772843 
L 202.092299 163.822061 
L 201.56769 165.395889 
L 201.56769 166.969716 
L 201.56769 169.068153 
L 201.56769 169.592762 
L 201.56769 170.64198 
L 201.56769 171.166589 
L 201.04308 171.691199 
" style="fill:none;stroke:#c44e52;stroke-linecap:square;"/>
   </g>
  </g>
 </g>
 <defs>
  <clipPath id="p217d0e1899">
   <rect height="271.8" width="432.802548" x="7.2" y="7.2"/>
  </clipPath>
 </defs>
</svg>
