<?xml version="1.0" encoding="utf-8" standalone="no"?>
<!DOCTYPE svg PUBLIC "-//W3C//DTD SVG 1.1//EN"
  "http://www.w3.org/Graphics/SVG/1.1/DTD/svg11.dtd">
<!-- Created with matplotlib (https://matplotlib.org/) -->
<svg height="286.2pt" version="1.1" viewBox="0 0 412.311558 286.2" width="412.311558pt" xmlns="http://www.w3.org/2000/svg" xmlns:xlink="http://www.w3.org/1999/xlink">
 <metadata>
  <rdf:RDF xmlns:cc="http://creativecommons.org/ns#" xmlns:dc="http://purl.org/dc/elements/1.1/" xmlns:rdf="http://www.w3.org/1999/02/22-rdf-syntax-ns#">
   <cc:Work>
    <dc:type rdf:resource="http://purl.org/dc/dcmitype/StillImage"/>
    <dc:date>2024-11-15T16:04:20.180660</dc:date>
    <dc:format>image/svg+xml</dc:format>
    <dc:creator>
     <cc:Agent>
      <dc:title>Matplotlib v3.3.4, https://matplotlib.org/</dc:title>
     </cc:Agent>
    </dc:creator>
   </cc:Work>
  </rdf:RDF>
 </metadata>
 <defs>
  <style type="text/css">*{stroke-linecap:butt;stroke-linejoin:round;}</style>
 </defs>
 <g id="figure_1">
  <g id="patch_1">
   <path d="M 0 286.2 
L 412.311558 286.2 
L 412.311558 0 
L 0 0 
z
" style="fill:#ffffff;"/>
  </g>
  <g id="axes_1">
   <g id="line2d_1">
    <path clip-path="url(#p961a1034c7)" d="M 25.286889 180.970717 
L 25.286889 180.55683 
L 25.700777 180.55683 
L 25.700777 180.142942 
L 26.114664 180.142942 
L 26.528552 180.142942 
L 26.528552 179.729054 
L 26.942439 179.729054 
L 27.356327 179.315167 
L 27.770215 178.901279 
L 28.184102 178.901279 
L 28.59799 178.487392 
L 29.011878 178.487392 
L 29.425765 178.073504 
L 29.839653 178.073504 
L 30.667428 177.659616 
L 31.081316 177.245729 
L 31.909091 177.245729 
L 32.736866 176.831841 
L 33.978529 176.004066 
L 35.220192 175.590178 
L 35.634079 175.176291 
L 36.461855 174.762403 
L 37.28963 174.762403 
L 37.703518 174.762403 
L 38.117405 174.762403 
L 38.94518 174.348515 
L 39.359068 174.348515 
L 40.186843 174.348515 
L 41.842394 173.934628 
L 42.670169 173.934628 
L 43.497944 173.52074 
L 43.911832 173.52074 
L 44.739607 173.52074 
L 45.153495 173.106852 
L 45.98127 173.106852 
L 46.395158 173.106852 
L 47.222933 173.106852 
L 48.050708 172.692965 
L 48.464596 172.692965 
L 49.706259 172.692965 
L 50.534034 172.692965 
L 51.361809 172.692965 
L 52.189584 172.279077 
L 52.603472 172.279077 
L 53.845135 172.279077 
L 54.67291 171.86519 
L 55.500685 171.86519 
L 56.32846 171.86519 
L 57.156236 171.86519 
L 57.570123 171.451302 
L 58.397899 171.451302 
L 59.225674 171.451302 
L 60.053449 171.451302 
L 62.122887 170.623527 
L 63.36455 170.209639 
L 64.192325 169.795751 
L 65.020101 169.381864 
L 65.433988 168.967976 
L 66.261763 168.967976 
L 66.675651 168.554089 
L 67.503426 168.554089 
L 67.917314 168.554089 
L 68.745089 168.140201 
L 69.572864 168.140201 
L 69.986752 167.726313 
L 70.814527 167.726313 
L 72.05619 167.726313 
L 72.883965 167.726313 
L 73.711741 167.726313 
L 74.125628 167.726313 
L 75.367291 168.140201 
L 76.195066 168.140201 
L 76.608954 168.140201 
L 77.436729 168.140201 
L 78.264504 168.140201 
L 79.506167 168.140201 
L 80.74783 168.140201 
L 81.989493 168.140201 
L 83.231156 167.726313 
L 84.058931 167.726313 
L 84.886706 167.726313 
L 85.300594 168.140201 
L 86.128369 168.140201 
L 86.542257 168.140201 
L 86.956144 168.554089 
L 87.78392 168.554089 
L 88.197807 168.967976 
L 89.025582 168.967976 
L 89.43947 168.967976 
L 90.681133 168.967976 
L 91.508908 169.381864 
L 92.336683 169.381864 
L 93.164459 169.381864 
L 93.992234 169.381864 
L 94.406122 169.795751 
L 95.233897 170.209639 
L 95.647784 170.623527 
L 96.47556 171.037414 
L 96.889447 171.037414 
L 97.717222 171.451302 
L 98.13111 171.86519 
L 98.544998 172.279077 
L 99.372773 172.279077 
L 99.786661 172.692965 
L 100.200548 173.106852 
L 100.614436 173.52074 
L 101.442211 173.934628 
L 101.856099 174.762403 
L 102.683874 175.176291 
L 103.097762 175.176291 
L 103.925537 175.590178 
L 104.339424 176.004066 
" style="fill:none;stroke:#c44e52;stroke-linecap:square;"/>
   </g>
   <g id="line2d_2">
    <path clip-path="url(#p961a1034c7)" d="M 101.856099 173.934628 
L 101.856099 174.348515 
L 102.269986 174.348515 
L 102.269986 174.762403 
L 102.683874 174.762403 
L 103.097762 175.176291 
L 103.511649 175.176291 
L 104.339424 175.590178 
L 105.1672 176.004066 
L 105.994975 176.417953 
L 107.650525 177.245729 
L 108.892188 177.659616 
L 110.133851 178.487392 
L 111.789402 179.315167 
L 113.031064 179.729054 
L 115.100503 180.970717 
L 115.928278 181.384605 
L 117.583828 182.21238 
L 118.411603 182.626268 
L 119.239379 183.040155 
L 120.481042 183.867931 
L 121.722704 184.695706 
L 122.55048 185.523481 
L 123.378255 185.937369 
L 124.619918 186.765144 
L 125.033805 187.592919 
L 125.861581 188.420694 
L 126.689356 189.24847 
L 127.103243 190.076245 
L 127.931019 190.90402 
L 128.344906 191.731795 
L 129.172682 192.559571 
L 129.586569 193.387346 
L 129.586569 193.801233 
L 130.414344 194.215121 
L 130.414344 194.629009 
L 131.656007 195.870672 
L 132.069895 196.284559 
L 133.311558 197.526222 
L 134.139333 198.353997 
L 134.967108 198.767885 
L 136.208771 200.009548 
L 137.036546 200.423435 
L 138.278209 201.251211 
L 139.105984 202.078986 
L 140.347647 202.906761 
L 141.175423 203.734536 
L 142.417085 204.562312 
L 143.244861 205.390087 
L 143.244861 205.803974 
" style="fill:none;stroke:#c44e52;stroke-linecap:square;"/>
   </g>
   <g id="line2d_3">
    <path clip-path="url(#p961a1034c7)" d="M 112.617177 177.659616 
L 113.031064 177.659616 
L 113.444952 177.659616 
L 113.85884 177.659616 
L 113.85884 177.245729 
L 114.272727 177.245729 
L 114.686615 176.831841 
L 115.100503 176.417953 
L 115.928278 175.590178 
L 116.756053 175.176291 
L 118.411603 173.52074 
L 120.067154 172.279077 
L 121.308817 171.451302 
L 122.964367 169.795751 
L 123.792143 168.967976 
L 125.033805 168.140201 
L 125.861581 167.726313 
L 126.689356 166.898538 
L 127.517131 166.898538 
L 128.758794 166.070763 
L 129.586569 165.656875 
L 130.828232 164.8291 
L 132.069895 164.001325 
L 132.89767 163.587437 
L 133.725445 163.17355 
L 134.967108 162.759662 
L 135.380996 162.345774 
L 136.208771 161.931887 
L 137.450434 161.517999 
L 138.278209 160.690224 
L 139.105984 160.276336 
L 140.347647 159.862449 
L 140.761535 159.448561 
L 142.003198 159.034673 
L 142.417085 158.620786 
L 143.244861 158.620786 
L 143.658748 158.206898 
L 144.072636 158.206898 
L 144.486524 157.793011 
L 145.314299 157.793011 
L 146.142074 157.379123 
L 146.555962 157.379123 
L 147.383737 157.379123 
L 148.211512 156.965235 
L 149.867063 156.13746 
L 151.522613 155.309685 
L 152.350388 155.309685 
L 153.178164 154.895797 
L 153.592051 154.895797 
L 154.419826 154.895797 
L 154.833714 154.895797 
L 155.247602 154.895797 
L 155.661489 154.895797 
L 156.075377 154.895797 
L 156.903152 154.895797 
L 157.31704 154.895797 
L 158.97259 154.48191 
L 160.214253 154.48191 
L 161.869804 154.068022 
L 163.525354 153.654134 
L 165.594792 153.240247 
L 167.250343 152.826359 
L 168.905893 152.826359 
L 170.561444 152.412471 
L 172.630882 152.412471 
L 173.872545 151.998584 
L 175.941983 151.998584 
L 176.769758 151.998584 
L 177.597533 151.998584 
L 178.425308 151.998584 
L 178.839196 151.998584 
L 179.253084 151.998584 
L 180.080859 152.412471 
L 180.494746 152.412471 
L 180.908634 152.826359 
L 181.736409 152.826359 
L 181.736409 153.240247 
L 182.564185 153.654134 
L 182.978072 153.654134 
L 183.39196 154.068022 
L 184.219735 154.48191 
L 185.04751 154.895797 
L 185.875286 154.895797 
L 186.289173 155.309685 
L 187.116948 155.723572 
L 188.358611 156.551348 
L 189.600274 156.965235 
L 191.255825 157.793011 
L 192.0836 158.206898 
L 194.153038 159.448561 
L 195.394701 159.862449 
L 197.050251 160.276336 
L 198.705802 161.104111 
L 199.947465 161.517999 
L 201.603015 161.931887 
L 203.258566 162.759662 
L 204.500228 163.587437 
L 205.741891 164.001325 
L 207.811329 164.8291 
L 209.052992 164.8291 
L 210.294655 165.656875 
L 211.950206 166.484651 
L 213.191868 166.898538 
L 214.847419 168.140201 
L 216.502969 168.967976 
L 218.572407 170.209639 
L 219.400183 170.623527 
L 220.227958 171.037414 
" style="fill:none;stroke:#c44e52;stroke-linecap:square;"/>
   </g>
   <g id="line2d_4">
    <path clip-path="url(#p961a1034c7)" d="M 163.111466 150.343033 
L 163.111466 150.756921 
L 163.939242 150.756921 
L 164.767017 150.343033 
L 165.180905 149.515258 
L 166.836455 147.859708 
L 167.66423 146.204157 
L 168.905893 144.134719 
L 170.561444 142.479169 
L 171.389219 141.237506 
L 173.044769 139.168068 
L 173.872545 137.926405 
L 175.114207 136.270854 
L 177.597533 133.787529 
L 178.839196 132.131978 
L 180.080859 130.890315 
L 181.322522 130.06254 
L 181.736409 129.234765 
L 182.978072 128.406989 
L 183.39196 127.579214 
L 184.219735 127.165327 
L 184.633623 126.337551 
L 185.875286 125.509776 
L 187.530836 124.682001 
L 188.772499 123.440338 
L 190.014162 122.612563 
L 191.669712 121.784788 
L 194.566926 119.715349 
L 197.050251 118.059799 
L 197.878026 117.645911 
L 199.119689 116.818136 
L 201.189127 114.748698 
L 202.016903 114.33481 
L 204.086341 112.265372 
L 204.914116 111.851485 
L 205.741891 111.023709 
L 206.983554 110.609822 
L 207.811329 110.195934 
L 209.052992 109.782047 
L 209.880767 109.368159 
L 211.12243 109.368159 
L 212.364093 108.954271 
L 217.744632 108.954271 
L 219.400183 108.540384 
L 221.055733 108.540384 
L 222.711284 108.126496 
L 225.608497 108.126496 
L 227.677935 107.712608 
L 232.644587 107.712608 
L 233.472362 108.126496 
L 235.5418 108.126496 
L 235.955688 108.540384 
L 236.369575 108.540384 
L 237.611238 108.954271 
L 238.439013 109.368159 
L 238.852901 109.782047 
L 239.680676 109.782047 
L 240.508451 110.195934 
L 241.750114 111.023709 
L 242.577889 111.437597 
L 243.819552 112.265372 
L 244.647328 112.67926 
L 245.88899 113.507035 
L 250.027867 115.576473 
L 252.511192 117.232024 
L 254.166743 118.059799 
L 254.994518 118.887574 
L 256.236181 119.301462 
L 257.891731 120.957012 
L 259.133394 121.3709 
L 259.547282 121.784788 
L 259.961169 122.612563 
L 260.375057 123.02645 
L 261.202832 123.440338 
L 261.61672 123.854226 
L 262.030608 124.682001 
L 264.100046 126.751439 
L 264.513933 127.579214 
L 267.411147 130.476428 
L 267.411147 130.890315 
L 267.825034 131.304203 
L 268.65281 131.71809 
L 269.066697 132.545866 
L 269.894472 133.373641 
L 270.30836 134.201416 
L 271.136135 135.443079 
L 272.377798 136.684742 
L 273.205573 137.926405 
L 274.033349 138.75418 
L 274.861124 139.995843 
L 279 144.134719 
L 279.827775 144.548607 
L 281.069438 145.79027 
L 281.897213 146.204157 
L 283.966651 148.273595 
L 285.208314 149.10137 
L 287.69164 151.584696 
L 288.933303 152.412471 
L 292.244404 155.723572 
L 293.899954 156.965235 
L 296.797168 159.862449 
L 297.624943 160.276336 
L 298.452718 161.104111 
L 298.866606 161.104111 
L 299.694381 161.931887 
L 300.108269 161.931887 
L 305.488808 167.312426 
L 307.144358 168.554089 
L 308.799909 169.381864 
L 309.627684 170.209639 
L 310.041571 171.037414 
L 310.455459 171.451302 
L 310.455459 171.451302 
" style="fill:none;stroke:#c44e52;stroke-linecap:square;"/>
   </g>
   <g id="line2d_5">
    <path clip-path="url(#p961a1034c7)" d="M 266.169484 231.878894 
L 266.583371 231.878894 
L 266.997259 231.878894 
L 266.997259 231.465007 
L 267.411147 231.051119 
L 268.238922 230.223344 
L 269.066697 229.395569 
L 269.894472 228.153906 
L 270.30836 226.912243 
L 270.722248 225.67058 
L 271.136135 224.428917 
L 271.550023 222.773367 
L 271.550023 221.531704 
L 271.550023 219.876153 
L 271.550023 218.220603 
L 271.550023 216.565053 
L 271.136135 214.909502 
L 271.136135 213.667839 
L 270.722248 211.598401 
L 270.30836 209.115075 
L 269.894472 207.045637 
L 269.894472 205.390087 
L 269.480585 204.148424 
L 269.066697 202.492873 
L 268.65281 201.251211 
L 268.65281 200.009548 
L 268.65281 198.767885 
L 268.238922 197.94011 
L 268.238922 196.698447 
L 267.825034 195.456784 
L 267.825034 194.629009 
L 267.411147 193.801233 
L 267.411147 193.387346 
L 267.411147 192.559571 
L 267.411147 191.731795 
L 267.825034 190.90402 
L 268.65281 190.076245 
L 269.480585 189.24847 
L 270.722248 188.420694 
L 271.96391 187.179032 
L 273.205573 186.765144 
L 274.861124 185.937369 
L 276.102787 185.109593 
L 278.172225 184.281818 
L 279.413888 183.454043 
L 281.069438 182.626268 
L 282.724989 182.21238 
L 284.380539 181.384605 
L 286.03609 180.970717 
L 287.277752 180.55683 
L 289.761078 179.729054 
L 291.002741 179.315167 
L 293.072179 178.487392 
L 294.72773 178.073504 
L 295.555505 177.659616 
L 296.797168 177.659616 
L 297.211055 177.245729 
L 298.452718 177.245729 
L 299.694381 177.245729 
L 300.936044 176.831841 
L 302.591594 176.831841 
L 303.833257 176.831841 
L 305.07492 176.831841 
L 305.902695 177.245729 
L 307.558246 177.245729 
L 308.799909 177.659616 
L 310.041571 178.073504 
L 311.697122 178.487392 
L 313.352672 178.901279 
L 315.422111 179.315167 
L 317.491549 179.729054 
L 319.560987 180.142942 
L 320.80265 180.55683 
L 322.044312 180.55683 
L 322.4582 180.970717 
L 322.4582 180.55683 
" style="fill:none;stroke:#c44e52;stroke-linecap:square;"/>
   </g>
   <g id="line2d_6">
    <path clip-path="url(#p961a1034c7)" d="M 170.561444 266.645455 
L 170.975331 266.231567 
L 171.389219 266.231567 
L 171.803106 265.817679 
L 173.044769 265.403792 
L 174.286432 264.576016 
L 175.114207 263.334354 
L 176.769758 261.678803 
L 178.011421 260.43714 
L 179.253084 258.367702 
L 180.908634 256.298264 
L 182.978072 254.228826 
L 184.633623 252.573275 
L 186.289173 250.503837 
L 188.772499 248.434399 
L 190.841937 246.778849 
L 192.911375 245.123298 
L 194.153038 243.881635 
L 195.808588 242.639973 
L 196.636364 241.812197 
L 198.705802 240.984422 
L 199.947465 240.570534 
L 201.603015 240.156647 
L 203.672453 239.328872 
L 206.155779 238.914984 
L 208.225217 238.087209 
L 210.294655 237.259434 
L 212.364093 236.431658 
L 214.433531 235.603883 
L 216.089082 234.776108 
L 217.744632 234.776108 
L 219.400183 234.36222 
L 221.469621 233.534445 
L 223.125171 233.534445 
L 224.780722 233.120557 
L 226.436272 232.70667 
L 228.919598 232.292782 
L 230.161261 231.878894 
L 232.230699 231.878894 
L 234.300137 231.878894 
L 235.955688 232.292782 
L 238.025126 232.292782 
L 240.094564 232.70667 
L 241.750114 232.70667 
L 243.405665 232.70667 
L 244.23344 233.120557 
L 244.647328 233.120557 
L 245.88899 233.120557 
L 247.130653 233.534445 
L 248.372316 233.948333 
L 250.027867 234.776108 
L 251.269529 235.189995 
L 252.92508 235.603883 
L 254.166743 236.017771 
L 255.408406 236.845546 
L 257.063956 237.259434 
L 258.719507 238.501096 
L 260.375057 239.328872 
L 261.202832 240.156647 
L 262.858383 241.39831 
L 264.100046 242.639973 
L 264.927821 243.881635 
L 266.169484 245.123298 
L 266.997259 246.364961 
L 268.238922 248.020512 
L 269.894472 249.262175 
L 271.136135 250.917725 
L 272.377798 252.159388 
L 273.619461 253.814938 
L 274.447236 254.642714 
L 274.447236 255.056601 
L 274.033349 254.642714 
" style="fill:none;stroke:#c44e52;stroke-linecap:square;"/>
   </g>
   <g id="line2d_7">
    <path clip-path="url(#p961a1034c7)" d="M 289.761078 36.11005 
L 289.761078 36.523938 
L 289.761078 36.937825 
L 289.761078 37.351713 
L 290.174966 37.765601 
L 291.002741 38.593376 
L 291.830516 38.593376 
L 293.486067 39.007264 
L 294.72773 39.007264 
L 295.555505 38.179488 
L 295.555505 37.351713 
L 295.555505 36.11005 
L 293.899954 34.040612 
L 293.072179 32.798949 
L 291.416629 31.557286 
L 290.588853 31.143399 
L 289.761078 30.729511 
L 289.34719 30.729511 
L 288.933303 30.729511 
L 288.519415 31.557286 
L 288.105528 32.798949 
L 288.519415 34.868387 
L 288.933303 37.351713 
L 290.174966 40.248926 
L 291.416629 44.80169 
L 291.830516 48.112791 
L 293.072179 50.596117 
L 293.486067 51.83778 
L 293.486067 52.665555 
L 293.486067 52.251667 
L 293.072179 51.010005 
" style="fill:none;stroke:#c44e52;stroke-linecap:square;"/>
   </g>
   <g id="line2d_8">
    <path clip-path="url(#p961a1034c7)" d="M 300.522156 31.143399 
L 300.522156 31.557286 
L 300.522156 31.971174 
L 300.936044 32.798949 
L 301.349931 34.040612 
L 301.349931 35.696163 
L 301.763819 37.351713 
L 301.763819 38.593376 
L 301.763819 39.421151 
" style="fill:none;stroke:#c44e52;stroke-linecap:square;"/>
   </g>
   <g id="line2d_9">
    <path clip-path="url(#p961a1034c7)" d="M 300.522156 24.107309 
L 300.522156 23.693422 
L 300.108269 23.693422 
L 300.522156 23.279534 
" style="fill:none;stroke:#c44e52;stroke-linecap:square;"/>
   </g>
   <g id="line2d_10">
    <path clip-path="url(#p961a1034c7)" d="M 303.41937 24.935085 
L 303.833257 24.935085 
L 303.833257 25.348972 
L 304.247145 25.76286 
L 304.661032 27.832298 
L 305.902695 32.798949 
L 306.730471 36.937825 
L 307.558246 40.248926 
L 307.972133 41.904477 
L 307.972133 41.490589 
" style="fill:none;stroke:#c44e52;stroke-linecap:square;"/>
   </g>
   <g id="line2d_11">
    <path clip-path="url(#p961a1034c7)" d="M 307.972133 20.796208 
L 307.972133 20.382321 
L 307.972133 20.796208 
L 307.972133 21.210096 
L 307.972133 22.451759 
L 308.386021 26.176747 
L 309.627684 31.557286 
L 310.455459 35.696163 
L 311.697122 38.593376 
L 312.11101 40.248926 
L 312.524897 40.248926 
" style="fill:none;stroke:#c44e52;stroke-linecap:square;"/>
   </g>
   <g id="line2d_12">
    <path clip-path="url(#p961a1034c7)" d="M 312.938785 32.798949 
L 312.938785 33.212837 
L 313.352672 34.040612 
L 314.180448 35.282275 
L 315.422111 36.523938 
L 316.249886 36.937825 
L 317.077661 36.523938 
L 317.491549 35.282275 
L 317.077661 33.212837 
L 315.835998 30.729511 
L 314.594335 29.901736 
L 313.352672 30.315624 
L 312.938785 31.557286 
L 312.938785 33.212837 
L 313.352672 34.4545 
" style="fill:none;stroke:#c44e52;stroke-linecap:square;"/>
   </g>
   <g id="line2d_13">
    <path clip-path="url(#p961a1034c7)" d="M 318.733212 32.798949 
L 318.733212 31.971174 
L 318.733212 31.143399 
L 319.147099 31.971174 
L 319.974874 33.626725 
L 320.388762 35.282275 
L 322.044312 36.523938 
L 322.872088 36.523938 
L 323.285975 36.11005 
L 323.285975 35.282275 
L 323.285975 34.4545 
L 323.285975 34.040612 
L 323.699863 34.4545 
L 324.113751 34.868387 
L 324.527638 35.282275 
L 325.355413 35.696163 
L 325.769301 34.868387 
L 325.769301 33.212837 
L 325.355413 30.729511 
L 324.527638 28.660073 
L 324.113751 27.004523 
" style="fill:none;stroke:#c44e52;stroke-linecap:square;"/>
   </g>
   <g id="line2d_14">
    <path clip-path="url(#p961a1034c7)" d="M 343.980356 19.554545 
L 343.566469 19.554545 
L 343.566469 19.968433 
L 343.566469 20.382321 
L 344.394244 22.451759 
L 345.635907 25.348972 
L 347.705345 29.901736 
L 349.774783 33.626725 
L 350.602558 35.696163 
L 351.016446 37.351713 
L 351.430333 37.765601 
L 351.016446 37.351713 
L 350.188671 36.937825 
" style="fill:none;stroke:#c44e52;stroke-linecap:square;"/>
   </g>
   <g id="line2d_15">
    <path clip-path="url(#p961a1034c7)" d="M 348.119233 29.073961 
L 347.705345 29.073961 
L 347.291457 29.073961 
L 347.291457 28.660073 
L 348.119233 28.660073 
L 349.360895 28.246185 
L 351.430333 27.832298 
L 353.085884 28.246185 
L 354.327547 29.073961 
L 355.155322 30.729511 
L 355.155322 31.971174 
L 353.913659 33.626725 
L 351.844221 34.868387 
L 350.188671 35.282275 
L 348.53312 35.282275 
L 348.119233 34.868387 
L 348.119233 34.4545 
" style="fill:none;stroke:#c44e52;stroke-linecap:square;"/>
   </g>
   <g id="line2d_16">
    <path clip-path="url(#p961a1034c7)" d="M 358.466423 29.073961 
L 358.052535 29.073961 
L 357.638648 29.487848 
L 357.22476 29.487848 
L 356.396985 30.729511 
L 355.983097 31.971174 
L 355.983097 32.798949 
L 356.810873 33.212837 
L 357.638648 33.212837 
L 358.466423 32.798949 
L 358.880311 31.143399 
L 359.294198 29.487848 
L 359.708086 28.246185 
L 359.708086 27.832298 
L 359.708086 28.246185 
L 360.121974 30.315624 
L 360.949749 32.798949 
L 361.777524 34.868387 
L 362.191412 35.282275 
L 362.605299 34.868387 
" style="fill:none;stroke:#c44e52;stroke-linecap:square;"/>
   </g>
   <g id="line2d_17">
    <path clip-path="url(#p961a1034c7)" d="M 363.846962 28.660073 
L 363.846962 28.246185 
L 363.019187 28.660073 
L 362.191412 29.487848 
L 361.777524 30.729511 
L 361.777524 31.143399 
L 362.605299 31.557286 
L 363.433074 31.971174 
L 365.088625 32.798949 
L 366.744175 33.626725 
L 367.158063 34.4545 
L 367.158063 35.696163 
L 366.744175 36.523938 
L 365.9164 36.937825 
L 365.502513 36.937825 
" style="fill:none;stroke:#c44e52;stroke-linecap:square;"/>
   </g>
   <g id="line2d_18">
    <path clip-path="url(#p961a1034c7)" d="M 368.813614 30.729511 
L 368.813614 30.315624 
L 368.813614 29.901736 
L 368.813614 29.487848 
L 368.399726 29.487848 
L 367.985838 29.487848 
L 367.571951 30.315624 
L 367.158063 31.557286 
L 367.158063 32.798949 
L 367.985838 33.212837 
L 368.813614 33.212837 
L 369.641389 32.798949 
L 370.055276 31.557286 
L 370.469164 30.315624 
L 370.883052 29.073961 
L 370.883052 28.660073 
L 371.296939 29.073961 
L 371.710827 30.315624 
L 372.538602 32.798949 
L 372.95249 34.040612 
L 372.95249 34.868387 
L 373.366377 34.868387 
L 373.366377 34.4545 
" style="fill:none;stroke:#c44e52;stroke-linecap:square;"/>
   </g>
   <g id="line2d_19">
    <path clip-path="url(#p961a1034c7)" d="M 374.60804 22.451759 
L 374.60804 22.865646 
L 374.60804 23.279534 
L 375.021928 24.521197 
L 375.849703 26.590635 
L 376.677478 29.487848 
L 377.091366 32.385062 
L 377.919141 34.040612 
L 377.919141 34.4545 
L 378.333029 34.868387 
" style="fill:none;stroke:#c44e52;stroke-linecap:square;"/>
   </g>
   <g id="line2d_20">
    <path clip-path="url(#p961a1034c7)" d="M 379.988579 22.037871 
L 379.988579 21.623984 
L 379.988579 21.210096 
L 379.988579 21.623984 
L 380.402467 22.037871 
L 381.230242 23.693422 
L 381.64413 26.176747 
L 382.885793 29.487848 
L 383.713568 32.385062 
L 384.127455 33.212837 
" style="fill:none;stroke:#c44e52;stroke-linecap:square;"/>
   </g>
   <g id="line2d_21">
    <path clip-path="url(#p961a1034c7)" d="M 381.230242 29.487848 
L 380.816354 28.660073 
L 380.816354 28.246185 
L 381.230242 28.246185 
L 382.885793 27.832298 
L 385.369118 27.004523 
L 387.024669 26.590635 
" style="fill:none;stroke:#c44e52;stroke-linecap:square;"/>
   </g>
  </g>
 </g>
 <defs>
  <clipPath id="p961a1034c7">
   <rect height="271.8" width="397.911558" x="7.2" y="7.2"/>
  </clipPath>
 </defs>
</svg>
