<?xml version="1.0" encoding="utf-8" standalone="no"?>
<!DOCTYPE svg PUBLIC "-//W3C//DTD SVG 1.1//EN"
  "http://www.w3.org/Graphics/SVG/1.1/DTD/svg11.dtd">
<!-- Created with matplotlib (https://matplotlib.org/) -->
<svg height="286.2pt" version="1.1" viewBox="0 0 437.749091 286.2" width="437.749091pt" xmlns="http://www.w3.org/2000/svg" xmlns:xlink="http://www.w3.org/1999/xlink">
 <metadata>
  <rdf:RDF xmlns:cc="http://creativecommons.org/ns#" xmlns:dc="http://purl.org/dc/elements/1.1/" xmlns:rdf="http://www.w3.org/1999/02/22-rdf-syntax-ns#">
   <cc:Work>
    <dc:type rdf:resource="http://purl.org/dc/dcmitype/StillImage"/>
    <dc:date>2024-11-15T16:04:23.044522</dc:date>
    <dc:format>image/svg+xml</dc:format>
    <dc:creator>
     <cc:Agent>
      <dc:title>Matplotlib v3.3.4, https://matplotlib.org/</dc:title>
     </cc:Agent>
    </dc:creator>
   </cc:Work>
  </rdf:RDF>
 </metadata>
 <defs>
  <style type="text/css">*{stroke-linecap:butt;stroke-linejoin:round;}</style>
 </defs>
 <g id="figure_1">
  <g id="patch_1">
   <path d="M 0 286.2 
L 437.749091 286.2 
L 437.749091 0 
L 0 0 
z
" style="fill:#ffffff;"/>
  </g>
  <g id="axes_1">
   <g id="line2d_1">
    <path clip-path="url(#p41229d1499)" d="M 382.853058 185.779339 
L 382.853058 184.281818 
L 379.858017 184.281818 
L 378.360496 182.784298 
L 369.375372 182.784298 
L 367.877851 184.281818 
L 348.410083 184.281818 
L 348.410083 182.784298 
L 301.986942 182.784298 
L 301.986942 181.286777 
L 270.539008 181.286777 
L 270.539008 179.789256 
L 267.543967 179.789256 
L 267.543967 178.291736 
L 266.046446 178.291736 
L 266.046446 176.794215 
L 264.548926 176.794215 
L 263.051405 175.296694 
L 260.056364 175.296694 
L 260.056364 173.799174 
L 258.558843 173.799174 
L 258.558843 172.301653 
L 255.563802 172.301653 
L 255.563802 170.804132 
L 254.066281 170.804132 
L 254.066281 169.306612 
L 252.56876 169.306612 
L 251.07124 167.809091 
L 248.076198 167.809091 
L 248.076198 166.31157 
L 245.081157 166.31157 
L 245.081157 164.81405 
L 242.086116 164.81405 
L 240.588595 166.31157 
L 239.091074 166.31157 
L 239.091074 167.809091 
L 236.096033 167.809091 
L 234.598512 169.306612 
L 234.598512 170.804132 
L 233.100992 170.804132 
L 233.100992 172.301653 
L 231.603471 172.301653 
L 231.603471 173.799174 
L 230.10595 173.799174 
L 230.10595 175.296694 
L 228.60843 175.296694 
L 228.60843 178.291736 
L 227.110909 178.291736 
L 227.110909 179.789256 
L 225.613388 179.789256 
L 225.613388 181.286777 
L 206.14562 181.286777 
L 204.648099 182.784298 
L 198.658017 182.784298 
L 197.160496 184.281818 
L 194.165455 184.281818 
L 192.667934 185.779339 
L 191.170413 185.779339 
L 189.672893 187.27686 
L 186.677851 188.77438 
L 185.180331 188.77438 
L 182.185289 191.769421 
L 179.190248 193.266942 
L 177.692727 193.266942 
L 171.702645 196.261983 
L 170.205124 196.261983 
L 167.210083 197.759504 
L 165.712562 199.257025 
L 162.717521 199.257025 
L 161.22 200.754545 
L 158.224959 202.252066 
L 156.727438 202.252066 
L 153.732397 203.749587 
L 150.737355 206.744628 
L 147.742314 208.242149 
L 146.244793 208.242149 
L 143.249752 209.739669 
L 138.75719 212.734711 
L 135.762149 215.729752 
L 131.269587 218.724793 
L 128.274545 221.719835 
L 125.279504 223.217355 
L 120.786942 227.709917 
L 119.289421 230.704959 
L 114.79686 233.7 
L 111.801818 239.690083 
L 105.811736 244.182645 
L 102.816694 248.675207 
L 99.821653 251.670248 
L 96.826612 253.167769 
L 96.826612 254.665289 
L 95.329091 256.16281 
L 92.33405 257.660331 
L 84.846446 265.147934 
L 83.348926 265.147934 
L 81.851405 266.645455 
L 80.353884 266.645455 
L 80.353884 266.645455 
" style="fill:none;stroke:#8c8c8c;stroke-linecap:square;"/>
   </g>
   <g id="line2d_2">
    <path clip-path="url(#p41229d1499)" d="M 143.249752 202.252066 
L 143.249752 200.754545 
L 143.249752 199.257025 
L 143.249752 197.759504 
L 143.249752 196.261983 
L 141.752231 196.261983 
L 141.752231 194.764463 
L 140.254711 194.764463 
L 140.254711 193.266942 
L 138.75719 193.266942 
L 138.75719 191.769421 
L 137.259669 191.769421 
L 135.762149 191.769421 
L 134.264628 190.271901 
L 131.269587 190.271901 
L 129.772066 188.77438 
L 128.274545 188.77438 
L 125.279504 187.27686 
L 122.284463 185.779339 
L 120.786942 185.779339 
L 117.791901 185.779339 
L 116.29438 184.281818 
L 113.299339 184.281818 
L 111.801818 182.784298 
L 108.806777 182.784298 
L 107.309256 181.286777 
L 104.314215 181.286777 
L 101.319174 181.286777 
L 99.821653 179.789256 
L 98.324132 179.789256 
L 95.329091 179.789256 
L 92.33405 178.291736 
L 90.836529 178.291736 
L 87.841488 178.291736 
L 84.846446 178.291736 
L 81.851405 178.291736 
L 75.861322 176.794215 
L 69.87124 176.794215 
L 65.378678 176.794215 
L 62.383636 176.794215 
L 59.388595 176.794215 
L 56.393554 176.794215 
L 53.398512 176.794215 
L 47.40843 176.794215 
L 44.413388 178.291736 
L 39.920826 179.789256 
L 36.925785 179.789256 
L 35.428264 181.286777 
L 33.930744 181.286777 
L 32.433223 181.286777 
L 30.935702 181.286777 
L 29.438182 181.286777 
L 27.940661 181.286777 
L 26.44314 181.286777 
" style="fill:none;stroke:#8c8c8c;stroke-linecap:square;"/>
   </g>
   <g id="line2d_3">
    <path clip-path="url(#p41229d1499)" d="M 141.752231 202.252066 
L 146.244793 202.252066 
L 153.732397 200.754545 
L 167.210083 197.759504 
L 174.697686 194.764463 
" style="fill:none;stroke:#8c8c8c;stroke-linecap:square;"/>
   </g>
   <g id="line2d_4">
    <path clip-path="url(#p41229d1499)" d="M 245.081157 137.858678 
L 243.583636 137.858678 
L 243.583636 139.356198 
L 243.583636 140.853719 
L 245.081157 140.853719 
L 245.081157 139.356198 
L 246.578678 139.356198 
L 249.573719 136.361157 
L 255.563802 130.371074 
L 261.553884 122.883471 
L 270.539008 112.400826 
L 276.529091 104.913223 
L 282.519174 97.42562 
L 285.514215 94.430579 
L 288.509256 89.938017 
L 290.006777 88.440496 
L 290.006777 86.942975 
L 291.504298 86.942975 
L 290.006777 86.942975 
" style="fill:none;stroke:#8c8c8c;stroke-linecap:square;"/>
   </g>
   <g id="line2d_5">
    <path clip-path="url(#p41229d1499)" d="M 236.096033 131.868595 
L 236.096033 128.873554 
L 236.096033 127.376033 
L 236.096033 125.878512 
L 237.593554 125.878512 
L 237.593554 124.380992 
L 236.096033 124.380992 
L 236.096033 125.878512 
L 236.096033 127.376033 
L 236.096033 130.371074 
L 236.096033 134.863636 
L 237.593554 139.356198 
L 240.588595 142.35124 
L 246.578678 143.84876 
L 252.56876 143.84876 
L 257.061322 142.35124 
" style="fill:none;stroke:#8c8c8c;stroke-linecap:square;"/>
   </g>
   <g id="line2d_6">
    <path clip-path="url(#p41229d1499)" d="M 182.185289 190.271901 
L 164.215041 197.759504 
L 153.732397 203.749587 
L 149.239835 206.744628 
L 150.737355 206.744628 
L 156.727438 205.247107 
L 162.717521 203.749587 
" style="fill:none;stroke:#8c8c8c;stroke-linecap:square;"/>
   </g>
   <g id="line2d_7">
    <path clip-path="url(#p41229d1499)" d="M 281.021653 24.047107 
L 281.021653 25.544628 
L 281.021653 28.539669 
L 282.519174 34.529752 
L 285.514215 43.514876 
L 288.509256 53.997521 
L 290.006777 59.987603 
L 291.504298 65.977686 
L 293.001818 68.972727 
" style="fill:none;stroke:#8c8c8c;stroke-linecap:square;"/>
   </g>
   <g id="line2d_8">
    <path clip-path="url(#p41229d1499)" d="M 281.021653 46.509917 
L 282.519174 46.509917 
L 284.016694 46.509917 
L 285.514215 46.509917 
L 287.011736 46.509917 
L 288.509256 46.509917 
L 293.001818 48.007438 
L 297.49438 51.002479 
L 300.489421 53.997521 
L 301.986942 56.992562 
L 301.986942 59.987603 
L 298.991901 64.480165 
L 295.99686 65.977686 
L 294.499339 67.475207 
L 293.001818 67.475207 
" style="fill:none;stroke:#8c8c8c;stroke-linecap:square;"/>
   </g>
   <g id="line2d_9">
    <path clip-path="url(#p41229d1499)" d="M 312.469587 49.504959 
L 312.469587 48.007438 
L 310.972066 48.007438 
L 309.474545 49.504959 
L 307.977025 51.002479 
L 306.479504 55.495041 
L 306.479504 58.490083 
L 307.977025 59.987603 
L 309.474545 61.485124 
L 310.972066 59.987603 
L 312.469587 55.495041 
L 312.469587 52.5 
L 312.469587 48.007438 
L 312.469587 46.509917 
L 312.469587 45.012397 
L 312.469587 46.509917 
L 312.469587 49.504959 
L 315.464628 53.997521 
L 318.459669 58.490083 
L 319.95719 61.485124 
L 321.454711 61.485124 
" style="fill:none;stroke:#8c8c8c;stroke-linecap:square;"/>
   </g>
   <g id="line2d_10">
    <path clip-path="url(#p41229d1499)" d="M 321.454711 48.007438 
L 322.952231 51.002479 
L 325.947273 53.997521 
L 327.444793 56.992562 
L 328.942314 59.987603 
L 327.444793 58.490083 
L 325.947273 55.495041 
L 325.947273 51.002479 
L 327.444793 48.007438 
L 328.942314 45.012397 
" style="fill:none;stroke:#8c8c8c;stroke-linecap:square;"/>
   </g>
   <g id="line2d_11">
    <path clip-path="url(#p41229d1499)" d="M 331.937355 24.047107 
L 331.937355 22.549587 
L 331.937355 21.052066 
L 331.937355 22.549587 
L 331.937355 24.047107 
L 333.434876 27.042149 
L 336.429917 36.027273 
L 339.424959 45.012397 
L 343.917521 52.5 
L 343.917521 55.495041 
L 343.917521 53.997521 
L 345.415041 51.002479 
L 348.410083 48.007438 
L 351.405124 46.509917 
L 355.897686 46.509917 
L 357.395207 48.007438 
L 360.390248 51.002479 
L 358.892727 53.997521 
L 357.395207 56.992562 
L 355.897686 58.490083 
L 351.405124 58.490083 
L 349.907603 56.992562 
" style="fill:none;stroke:#8c8c8c;stroke-linecap:square;"/>
   </g>
   <g id="line2d_12">
    <path clip-path="url(#p41229d1499)" d="M 363.385289 37.524793 
L 364.88281 39.022314 
L 364.88281 40.519835 
L 364.88281 43.514876 
L 367.877851 48.007438 
L 367.877851 51.002479 
L 367.877851 52.5 
L 369.375372 52.5 
L 367.877851 51.002479 
L 367.877851 48.007438 
L 364.88281 43.514876 
L 361.887769 42.017355 
L 360.390248 42.017355 
L 358.892727 45.012397 
L 358.892727 48.007438 
L 360.390248 51.002479 
L 364.88281 52.5 
" style="fill:none;stroke:#8c8c8c;stroke-linecap:square;"/>
   </g>
   <g id="line2d_13">
    <path clip-path="url(#p41229d1499)" d="M 379.858017 42.017355 
L 379.858017 40.519835 
L 379.858017 39.022314 
L 378.360496 39.022314 
L 376.862975 40.519835 
L 375.365455 42.017355 
L 373.867934 46.509917 
L 373.867934 49.504959 
L 375.365455 52.5 
L 378.360496 52.5 
L 379.858017 51.002479 
L 382.853058 46.509917 
L 382.853058 39.022314 
L 379.858017 30.03719 
L 378.360496 24.047107 
L 378.360496 21.052066 
L 376.862975 19.554545 
L 375.365455 21.052066 
L 376.862975 25.544628 
L 378.360496 33.032231 
L 381.355537 40.519835 
L 384.350579 46.509917 
L 387.34562 49.504959 
" style="fill:none;stroke:#8c8c8c;stroke-linecap:square;"/>
   </g>
   <g id="line2d_14">
    <path clip-path="url(#p41229d1499)" d="M 393.335702 42.017355 
L 393.335702 39.022314 
L 391.838182 39.022314 
L 390.340661 39.022314 
L 390.340661 40.519835 
L 391.838182 43.514876 
L 393.335702 45.012397 
L 394.833223 46.509917 
L 397.828264 45.012397 
L 399.325785 42.017355 
L 397.828264 36.027273 
L 396.330744 33.032231 
L 393.335702 31.534711 
L 390.340661 33.032231 
L 390.340661 34.529752 
" style="fill:none;stroke:#8c8c8c;stroke-linecap:square;"/>
   </g>
   <g id="line2d_15">
    <path clip-path="url(#p41229d1499)" d="M 403.818347 25.544628 
L 402.320826 25.544628 
L 400.823306 27.042149 
L 399.325785 28.539669 
L 399.325785 30.03719 
L 400.823306 30.03719 
L 402.320826 31.534711 
L 405.315868 34.529752 
L 409.80843 36.027273 
L 411.30595 39.022314 
L 411.30595 43.514876 
L 411.30595 46.509917 
" style="fill:none;stroke:#8c8c8c;stroke-linecap:square;"/>
   </g>
   <g id="line2d_16">
    <path clip-path="url(#p41229d1499)" d="M 36.925785 167.809091 
L 38.423306 167.809091 
L 39.920826 166.31157 
L 39.920826 164.81405 
L 41.418347 164.81405 
L 44.413388 160.321488 
L 45.910909 154.331405 
L 48.90595 148.341322 
L 51.900992 140.853719 
L 53.398512 136.361157 
L 54.896033 134.863636 
L 56.393554 136.361157 
L 59.388595 140.853719 
L 63.881157 146.843802 
L 68.373719 154.331405 
L 69.87124 158.823967 
L 72.866281 161.819008 
L 72.866281 163.316529 
" style="fill:none;stroke:#8c8c8c;stroke-linecap:square;"/>
   </g>
   <g id="line2d_17">
    <path clip-path="url(#p41229d1499)" d="M 51.900992 247.177686 
L 50.403471 247.177686 
L 50.403471 245.680165 
L 50.403471 244.182645 
L 51.900992 244.182645 
L 51.900992 242.685124 
L 51.900992 241.187603 
L 53.398512 239.690083 
L 53.398512 238.192562 
L 53.398512 236.695041 
L 53.398512 235.197521 
L 53.398512 233.7 
L 53.398512 230.704959 
L 54.896033 229.207438 
L 54.896033 227.709917 
L 54.896033 226.212397 
L 54.896033 223.217355 
L 54.896033 221.719835 
L 53.398512 221.719835 
L 53.398512 220.222314 
L 51.900992 220.222314 
L 51.900992 218.724793 
L 50.403471 217.227273 
L 50.403471 215.729752 
L 50.403471 214.232231 
L 50.403471 212.734711 
L 48.90595 212.734711 
L 48.90595 211.23719 
L 50.403471 209.739669 
L 50.403471 208.242149 
L 50.403471 206.744628 
L 50.403471 205.247107 
L 50.403471 203.749587 
L 50.403471 202.252066 
L 50.403471 200.754545 
L 50.403471 199.257025 
" style="fill:none;stroke:#8c8c8c;stroke-linecap:square;"/>
   </g>
   <g id="line2d_18">
    <path clip-path="url(#p41229d1499)" d="M 65.378678 226.212397 
L 65.378678 224.714876 
L 65.378678 223.217355 
L 65.378678 221.719835 
L 65.378678 220.222314 
L 65.378678 218.724793 
L 63.881157 217.227273 
L 63.881157 215.729752 
L 63.881157 214.232231 
L 62.383636 214.232231 
L 62.383636 212.734711 
L 62.383636 211.23719 
L 62.383636 209.739669 
L 63.881157 208.242149 
L 63.881157 206.744628 
L 63.881157 205.247107 
L 65.378678 203.749587 
L 65.378678 202.252066 
L 63.881157 200.754545 
L 63.881157 199.257025 
L 63.881157 197.759504 
L 63.881157 196.261983 
L 63.881157 194.764463 
L 63.881157 193.266942 
L 63.881157 191.769421 
L 62.383636 191.769421 
L 62.383636 190.271901 
L 63.881157 190.271901 
L 63.881157 188.77438 
L 63.881157 187.27686 
L 63.881157 185.779339 
L 63.881157 184.281818 
L 62.383636 182.784298 
L 62.383636 181.286777 
L 62.383636 179.789256 
" style="fill:none;stroke:#8c8c8c;stroke-linecap:square;"/>
   </g>
   <g id="line2d_19">
    <path clip-path="url(#p41229d1499)" d="M 44.413388 188.77438 
L 42.915868 188.77438 
L 42.915868 187.27686 
L 42.915868 185.779339 
L 44.413388 184.281818 
L 45.910909 184.281818 
L 48.90595 184.281818 
L 50.403471 184.281818 
L 51.900992 184.281818 
L 53.398512 184.281818 
L 54.896033 184.281818 
L 54.896033 182.784298 
L 56.393554 182.784298 
L 57.891074 182.784298 
L 57.891074 184.281818 
L 59.388595 184.281818 
L 60.886116 184.281818 
L 62.383636 182.784298 
L 63.881157 182.784298 
L 65.378678 182.784298 
L 66.876198 182.784298 
L 68.373719 182.784298 
L 69.87124 181.286777 
L 71.36876 181.286777 
L 71.36876 179.789256 
" style="fill:none;stroke:#8c8c8c;stroke-linecap:square;"/>
   </g>
   <g id="line2d_20">
    <path clip-path="url(#p41229d1499)" d="M 36.925785 202.252066 
L 35.428264 202.252066 
L 35.428264 200.754545 
L 35.428264 199.257025 
L 35.428264 200.754545 
L 36.925785 200.754545 
L 38.423306 200.754545 
L 39.920826 200.754545 
L 41.418347 200.754545 
L 42.915868 200.754545 
L 44.413388 200.754545 
L 45.910909 200.754545 
L 47.40843 200.754545 
L 48.90595 200.754545 
L 50.403471 199.257025 
L 51.900992 199.257025 
L 53.398512 199.257025 
L 54.896033 199.257025 
L 56.393554 199.257025 
L 56.393554 197.759504 
L 57.891074 197.759504 
L 59.388595 197.759504 
L 60.886116 197.759504 
" style="fill:none;stroke:#8c8c8c;stroke-linecap:square;"/>
   </g>
  </g>
 </g>
 <defs>
  <clipPath id="p41229d1499">
   <rect height="271.8" width="423.349091" x="7.2" y="7.2"/>
  </clipPath>
 </defs>
</svg>
