<?xml version="1.0" encoding="utf-8" standalone="no"?>
<!DOCTYPE svg PUBLIC "-//W3C//DTD SVG 1.1//EN"
  "http://www.w3.org/Graphics/SVG/1.1/DTD/svg11.dtd">
<!-- Created with matplotlib (https://matplotlib.org/) -->
<svg height="175.797246pt" version="1.1" viewBox="0 0 567.217337 175.797246" width="567.217337pt" xmlns="http://www.w3.org/2000/svg" xmlns:xlink="http://www.w3.org/1999/xlink">
 <metadata>
  <rdf:RDF xmlns:cc="http://creativecommons.org/ns#" xmlns:dc="http://purl.org/dc/elements/1.1/" xmlns:rdf="http://www.w3.org/1999/02/22-rdf-syntax-ns#">
   <cc:Work>
    <dc:type rdf:resource="http://purl.org/dc/dcmitype/StillImage"/>
    <dc:date>2024-11-15T16:04:22.812848</dc:date>
    <dc:format>image/svg+xml</dc:format>
    <dc:creator>
     <cc:Agent>
      <dc:title>Matplotlib v3.3.4, https://matplotlib.org/</dc:title>
     </cc:Agent>
    </dc:creator>
   </cc:Work>
  </rdf:RDF>
 </metadata>
 <defs>
  <style type="text/css">*{stroke-linecap:butt;stroke-linejoin:round;}</style>
 </defs>
 <g id="figure_1">
  <g id="patch_1">
   <path d="M 0 175.797246 
L 567.217337 175.797246 
L 567.217337 -0 
L 0 -0 
z
" style="fill:#ffffff;"/>
  </g>
  <g id="axes_1">
   <g id="line2d_1">
    <path clip-path="url(#pa51eaa1fb7)" d="M 403.761235 35.331875 
L 404.050064 35.331875 
L 404.338892 35.331875 
L 404.62772 35.043047 
L 404.916548 35.043047 
L 405.494205 35.043047 
L 406.071862 34.754218 
L 406.649518 34.754218 
L 407.227175 34.754218 
L 407.516003 34.46539 
L 408.382488 34.46539 
L 408.960144 34.46539 
L 409.537801 34.176562 
L 410.115458 34.176562 
L 410.693114 34.176562 
L 411.559599 34.176562 
L 412.714912 34.176562 
L 413.870225 34.176562 
L 415.025538 34.46539 
L 416.180852 34.46539 
L 417.047336 34.176562 
L 418.20265 34.176562 
L 419.357963 34.176562 
L 420.513276 34.176562 
L 421.957417 34.176562 
L 422.823902 34.176562 
L 424.268044 33.887734 
L 425.134528 33.887734 
L 426.289842 33.887734 
L 427.445155 33.887734 
L 428.31164 33.598905 
L 429.466953 33.598905 
L 430.044609 33.598905 
L 431.199922 33.310077 
L 432.066407 33.310077 
L 433.22172 33.021249 
L 434.95469 33.021249 
L 436.976488 32.73242 
L 438.998286 32.73242 
L 441.308912 32.73242 
L 443.908367 32.73242 
L 445.641337 32.73242 
L 447.951963 32.73242 
L 450.262589 33.021249 
L 452.862044 33.598905 
L 455.461498 34.176562 
L 458.060953 34.754218 
L 459.793923 35.331875 
L 462.104549 35.909532 
L 464.126347 36.19836 
L 465.859317 36.487188 
L 468.458771 37.064845 
L 469.902913 37.064845 
L 472.213539 37.353673 
L 474.235337 37.642501 
L 477.12362 37.642501 
L 479.434246 37.642501 
L 482.900185 37.642501 
L 486.077297 37.353673 
L 489.832064 37.064845 
L 493.586832 37.064845 
L 496.475115 36.776016 
L 500.229882 36.487188 
L 503.695822 36.487188 
L 507.45059 36.487188 
L 510.627701 36.487188 
L 513.515984 36.487188 
L 516.693095 36.776016 
L 519.870206 36.776016 
L 523.336145 36.776016 
L 525.646772 36.487188 
L 528.535054 36.487188 
L 530.845681 36.487188 
L 532.867479 36.19836 
L 533.733964 36.19836 
L 534.600448 36.19836 
L 534.889277 36.19836 
" style="fill:none;stroke:#8c8c8c;stroke-linecap:square;"/>
   </g>
   <g id="line2d_2">
    <path clip-path="url(#pa51eaa1fb7)" d="M 421.957417 33.310077 
L 421.668589 33.310077 
L 421.379761 33.310077 
L 421.379761 33.598905 
L 421.090932 33.887734 
L 421.090932 34.176562 
L 421.090932 34.46539 
L 421.379761 34.46539 
L 421.668589 34.46539 
L 421.668589 34.176562 
L 421.957417 34.176562 
L 421.957417 33.887734 
L 421.957417 33.598905 
L 421.668589 33.598905 
L 421.379761 33.598905 
L 421.090932 33.887734 
L 420.802104 34.176562 
L 420.513276 34.46539 
L 420.802104 34.46539 
L 421.090932 34.46539 
L 421.379761 34.46539 
L 421.668589 34.46539 
L 421.957417 34.176562 
L 421.957417 33.598905 
L 421.668589 33.598905 
L 421.379761 33.310077 
L 421.090932 33.598905 
L 420.513276 33.598905 
L 420.513276 33.887734 
" style="fill:none;stroke:#8c8c8c;stroke-linecap:square;"/>
   </g>
   <g id="line2d_3">
    <path clip-path="url(#pa51eaa1fb7)" d="M 470.769397 37.353673 
L 470.480569 37.353673 
L 470.191741 37.353673 
L 469.902913 37.353673 
L 469.902913 37.642501 
L 469.902913 37.93133 
L 469.902913 38.220158 
L 470.191741 38.220158 
L 470.480569 38.220158 
L 470.769397 37.93133 
L 470.769397 37.642501 
L 470.769397 37.642501 
L 470.769397 37.353673 
L 470.480569 37.064845 
L 470.191741 37.064845 
L 469.902913 37.353673 
L 470.191741 37.642501 
L 470.480569 37.642501 
L 470.769397 37.642501 
L 470.769397 37.353673 
L 470.769397 37.064845 
L 470.480569 37.064845 
L 470.191741 37.064845 
L 470.191741 36.776016 
" style="fill:none;stroke:#8c8c8c;stroke-linecap:square;"/>
   </g>
   <g id="line2d_4">
    <path clip-path="url(#pa51eaa1fb7)" d="M 513.515984 35.620703 
L 513.515984 35.331875 
L 513.515984 35.043047 
L 513.227155 35.331875 
L 512.938327 35.331875 
L 512.938327 35.620703 
L 512.938327 35.909532 
L 513.227155 35.909532 
L 513.227155 36.19836 
L 513.804812 36.19836 
L 514.382468 36.19836 
L 514.671297 35.909532 
L 514.671297 35.331875 
L 514.671297 35.043047 
L 514.382468 35.043047 
L 514.09364 35.043047 
L 513.804812 35.043047 
" style="fill:none;stroke:#8c8c8c;stroke-linecap:square;"/>
   </g>
   <g id="line2d_5">
    <path clip-path="url(#pa51eaa1fb7)" d="M 501.962852 46.885006 
L 501.962852 46.596178 
L 501.962852 46.30735 
L 501.962852 46.018522 
L 501.674024 46.018522 
L 501.385196 46.018522 
L 500.807539 46.018522 
L 499.941054 46.30735 
L 499.652226 46.30735 
L 499.074569 46.596178 
L 499.074569 46.885006 
L 499.363398 46.885006 
L 499.941054 47.173835 
L 500.807539 47.462663 
L 501.674024 48.040319 
L 501.962852 48.617976 
L 502.25168 49.484461 
L 501.962852 50.062117 
L 501.385196 50.350946 
L 500.807539 50.639774 
L 500.518711 50.350946 
" style="fill:none;stroke:#8c8c8c;stroke-linecap:square;"/>
   </g>
   <g id="line2d_6">
    <path clip-path="url(#pa51eaa1fb7)" d="M 503.695822 48.617976 
L 503.98465 48.617976 
L 504.273478 48.617976 
L 504.851135 48.617976 
L 505.71762 48.617976 
L 506.584105 48.329148 
L 506.872933 48.040319 
L 507.161761 47.462663 
L 506.584105 47.173835 
L 506.006448 46.885006 
L 504.851135 47.462663 
L 503.98465 48.329148 
L 503.98465 49.195633 
L 504.562307 49.773289 
L 505.139963 50.350946 
L 505.428792 50.350946 
" style="fill:none;stroke:#8c8c8c;stroke-linecap:square;"/>
   </g>
   <g id="line2d_7">
    <path clip-path="url(#pa51eaa1fb7)" d="M 509.472388 50.062117 
L 509.761216 50.062117 
L 509.761216 49.773289 
L 509.472388 49.773289 
L 509.183559 49.484461 
L 508.605903 49.195633 
L 508.028246 49.195633 
L 507.739418 49.484461 
L 507.45059 49.773289 
L 507.739418 50.350946 
L 508.317074 50.639774 
L 508.894731 50.639774 
L 509.761216 50.350946 
L 510.338872 49.773289 
L 510.916529 48.906804 
L 510.916529 47.462663 
L 511.205357 46.596178 
L 511.205357 46.018522 
L 511.205357 45.440865 
L 510.916529 45.440865 
L 510.916529 45.729693 
L 510.916529 46.596178 
L 510.627701 47.751491 
L 510.627701 49.195633 
L 510.916529 50.350946 
L 510.916529 51.217431 
L 511.205357 51.217431 
" style="fill:none;stroke:#8c8c8c;stroke-linecap:square;"/>
   </g>
   <g id="line2d_8">
    <path clip-path="url(#pa51eaa1fb7)" d="M 512.938327 50.062117 
L 512.938327 50.350946 
L 513.227155 50.350946 
L 513.227155 50.639774 
" style="fill:none;stroke:#8c8c8c;stroke-linecap:square;"/>
   </g>
   <g id="line2d_9">
    <path clip-path="url(#pa51eaa1fb7)" d="M 514.09364 47.173835 
L 514.09364 46.885006 
L 514.09364 46.596178 
L 513.804812 46.30735 
L 513.804812 46.596178 
" style="fill:none;stroke:#8c8c8c;stroke-linecap:square;"/>
   </g>
   <g id="line2d_10">
    <path clip-path="url(#pa51eaa1fb7)" d="M 514.671297 49.484461 
L 514.671297 50.062117 
L 514.671297 50.639774 
L 514.382468 50.928602 
L 514.382468 51.217431 
L 514.671297 51.217431 
L 514.671297 50.928602 
L 514.960125 50.062117 
L 515.248953 48.906804 
L 515.82661 48.329148 
L 515.82661 48.617976 
L 515.82661 48.906804 
L 515.82661 49.195633 
L 515.82661 50.062117 
L 516.115438 50.350946 
L 516.115438 50.639774 
L 516.404266 50.350946 
L 516.693095 50.062117 
L 517.270751 49.484461 
L 517.55958 49.195633 
L 517.848408 49.195633 
L 517.848408 49.484461 
L 518.137236 49.484461 
L 518.426064 50.062117 
L 518.714893 50.639774 
L 519.292549 50.928602 
L 519.870206 50.639774 
L 520.447862 50.350946 
L 521.025519 50.062117 
L 521.314347 49.484461 
L 521.603176 49.484461 
L 521.603176 49.195633 
L 521.603176 48.906804 
L 521.892004 48.617976 
L 522.180832 48.329148 
L 522.46966 47.751491 
L 522.758489 47.462663 
L 522.758489 47.173835 
L 522.46966 47.173835 
L 521.892004 47.462663 
L 521.314347 48.040319 
L 521.025519 48.617976 
L 521.314347 49.484461 
L 521.892004 50.062117 
L 522.46966 50.350946 
L 523.047317 50.639774 
" style="fill:none;stroke:#8c8c8c;stroke-linecap:square;"/>
   </g>
   <g id="line2d_11">
    <path clip-path="url(#pa51eaa1fb7)" d="M 525.357943 49.773289 
L 525.357943 50.062117 
L 525.357943 50.350946 
L 525.069115 50.350946 
L 525.069115 50.639774 
L 525.357943 50.639774 
L 525.357943 50.350946 
L 525.357943 49.773289 
L 525.646772 49.195633 
L 525.9356 48.617976 
L 526.224428 48.329148 
L 526.513256 48.329148 
L 526.802085 48.329148 
L 526.802085 48.617976 
L 526.802085 49.195633 
L 527.090913 49.773289 
L 527.090913 50.062117 
L 527.090913 50.350946 
" style="fill:none;stroke:#8c8c8c;stroke-linecap:square;"/>
   </g>
   <g id="line2d_12">
    <path clip-path="url(#pa51eaa1fb7)" d="M 530.556852 46.885006 
L 530.556852 46.596178 
L 530.845681 46.596178 
L 530.845681 46.885006 
L 530.556852 47.462663 
L 530.556852 48.617976 
L 530.845681 49.484461 
L 530.845681 49.773289 
" style="fill:none;stroke:#8c8c8c;stroke-linecap:square;"/>
   </g>
   <g id="line2d_13">
    <path clip-path="url(#pa51eaa1fb7)" d="M 530.268024 49.195633 
L 531.134509 48.906804 
L 532.867479 48.617976 
L 534.889277 48.040319 
" style="fill:none;stroke:#8c8c8c;stroke-linecap:square;"/>
   </g>
   <g id="line2d_14">
    <path clip-path="url(#pa51eaa1fb7)" d="M 484.633155 14.536238 
L 484.344327 14.536238 
L 483.477842 14.825067 
L 482.611357 15.402723 
L 481.744872 15.691552 
L 481.167216 15.98038 
L 480.878387 16.269208 
L 481.167216 16.269208 
L 481.744872 16.558036 
L 482.611357 16.846865 
L 483.189014 17.71335 
L 483.76667 18.579834 
L 483.76667 19.446319 
L 483.76667 20.023976 
L 483.477842 20.312804 
L 483.477842 20.023976 
" style="fill:none;stroke:#8c8c8c;stroke-linecap:square;"/>
   </g>
   <g id="line2d_15">
    <path clip-path="url(#pa51eaa1fb7)" d="M 485.210812 16.558036 
L 485.788468 16.846865 
L 486.654953 16.846865 
L 487.23261 16.558036 
L 487.810266 16.269208 
L 488.099095 15.98038 
L 487.810266 15.691552 
L 487.23261 15.691552 
L 486.943781 15.98038 
L 486.366125 16.846865 
L 486.366125 17.71335 
L 486.654953 18.868663 
L 487.23261 19.157491 
L 488.099095 19.446319 
L 488.676751 19.157491 
" style="fill:none;stroke:#8c8c8c;stroke-linecap:square;"/>
   </g>
   <g id="line2d_16">
    <path clip-path="url(#pa51eaa1fb7)" d="M 490.698549 17.424521 
L 490.698549 17.135693 
L 490.409721 17.135693 
L 490.409721 16.846865 
L 490.120892 16.846865 
L 489.832064 17.135693 
L 489.254408 17.424521 
L 488.965579 18.002178 
L 488.965579 18.291006 
L 489.543236 18.579834 
L 490.120892 18.291006 
L 490.698549 17.71335 
L 490.987377 17.135693 
L 491.276206 16.846865 
L 491.565034 16.269208 
L 491.565034 16.558036 
L 491.565034 16.846865 
L 491.565034 17.135693 
L 491.565034 17.71335 
L 491.853862 18.291006 
L 491.853862 18.579834 
L 492.14269 18.579834 
L 492.431519 18.002178 
L 492.720347 17.424521 
L 493.009175 16.846865 
L 493.009175 16.558036 
L 493.009175 16.846865 
L 493.009175 17.135693 
L 493.298004 17.135693 
L 493.586832 17.71335 
L 494.164488 18.002178 
L 494.453317 18.002178 
L 494.742145 17.71335 
L 495.030973 17.71335 
L 495.319802 17.71335 
L 495.60863 18.002178 
L 495.897458 18.002178 
L 496.186286 17.71335 
L 496.475115 17.424521 
L 496.763943 16.846865 
L 496.763943 16.558036 
L 497.052771 16.269208 
L 497.052771 15.98038 
" style="fill:none;stroke:#8c8c8c;stroke-linecap:square;"/>
   </g>
   <g id="line2d_17">
    <path clip-path="url(#pa51eaa1fb7)" d="M 499.074569 15.691552 
L 499.074569 15.98038 
L 498.785741 15.98038 
L 498.496913 16.269208 
L 497.919256 16.558036 
L 497.919256 17.135693 
L 498.496913 17.424521 
L 498.785741 17.71335 
L 499.363398 17.424521 
L 499.941054 17.135693 
L 500.229882 16.269208 
L 500.229882 15.98038 
L 500.229882 15.691552 
L 500.229882 15.98038 
L 500.229882 16.269208 
L 500.229882 16.846865 
L 500.518711 17.71335 
L 500.518711 18.002178 
L 500.807539 18.579834 
" style="fill:none;stroke:#8c8c8c;stroke-linecap:square;"/>
   </g>
   <g id="line2d_18">
    <path clip-path="url(#pa51eaa1fb7)" d="M 502.540509 16.269208 
L 502.540509 15.98038 
L 502.540509 15.691552 
L 502.540509 15.98038 
L 502.540509 16.846865 
L 502.540509 17.424521 
L 502.540509 18.291006 
" style="fill:none;stroke:#8c8c8c;stroke-linecap:square;"/>
   </g>
   <g id="line2d_19">
    <path clip-path="url(#pa51eaa1fb7)" d="M 502.25168 17.71335 
L 502.25168 17.424521 
L 502.540509 17.135693 
L 502.829337 17.135693 
L 503.118165 16.846865 
L 503.695822 16.846865 
" style="fill:none;stroke:#8c8c8c;stroke-linecap:square;"/>
   </g>
   <g id="line2d_20">
    <path clip-path="url(#pa51eaa1fb7)" d="M 504.562307 16.846865 
L 504.851135 16.846865 
L 505.139963 16.846865 
L 505.428792 17.135693 
L 505.71762 17.135693 
L 506.295276 17.135693 
L 506.584105 17.135693 
L 506.872933 16.846865 
L 506.872933 16.558036 
L 506.872933 16.269208 
L 506.295276 15.98038 
L 505.71762 16.269208 
L 505.428792 16.558036 
L 505.428792 17.424521 
L 505.71762 18.002178 
L 506.295276 18.291006 
L 507.161761 18.291006 
" style="fill:none;stroke:#8c8c8c;stroke-linecap:square;"/>
   </g>
   <g id="line2d_21">
    <path clip-path="url(#pa51eaa1fb7)" d="M 508.894731 16.846865 
L 508.894731 16.558036 
L 509.183559 16.558036 
L 509.183559 16.269208 
L 509.183559 16.558036 
L 509.183559 16.846865 
L 509.183559 17.135693 
L 509.183559 17.424521 
L 509.183559 17.71335 
L 509.183559 18.002178 
L 509.472388 18.002178 
L 509.472388 17.424521 
L 509.761216 17.135693 
L 510.338872 16.269208 
L 510.627701 15.98038 
" style="fill:none;stroke:#8c8c8c;stroke-linecap:square;"/>
   </g>
   <g id="line2d_22">
    <path clip-path="url(#pa51eaa1fb7)" d="M 413.292569 83.27737 
L 413.292569 83.566199 
L 413.292569 83.855027 
L 413.292569 84.432683 
L 413.292569 85.01034 
L 413.292569 85.299168 
L 413.292569 86.165653 
L 413.292569 87.032138 
L 413.292569 87.898623 
L 413.292569 88.765108 
L 413.292569 90.209249 
L 413.581397 91.364562 
L 413.581397 92.808704 
L 413.581397 94.541673 
L 413.581397 96.274643 
L 413.870225 97.718785 
L 413.870225 99.451754 
L 413.870225 101.473552 
L 413.870225 104.073007 
L 414.159054 106.96129 
L 414.159054 109.271916 
L 414.159054 112.449027 
L 414.159054 114.759653 
L 414.159054 117.936764 
L 414.447882 120.247391 
L 414.447882 123.135674 
L 415.025538 125.735128 
L 415.025538 128.045754 
L 415.314367 130.934037 
L 415.314367 132.955835 
L 415.603195 135.844118 
L 415.314367 137.865916 
L 415.314367 140.465371 
L 415.314367 143.353654 
L 415.314367 145.953108 
L 415.603195 148.841391 
L 416.180852 151.729674 
L 416.46968 154.329128 
L 417.047336 156.928583 
L 417.336165 158.950381 
L 417.624993 160.394522 
L 417.624993 161.261007 
" style="fill:none;stroke:#8c8c8c;stroke-linecap:square;"/>
   </g>
   <g id="line2d_23">
    <path clip-path="url(#pa51eaa1fb7)" d="M 414.159054 81.833229 
L 414.159054 81.544401 
L 414.447882 81.544401 
L 414.73671 81.255572 
L 415.314367 80.966744 
L 416.180852 80.966744 
L 417.624993 80.677916 
L 419.069134 80.389087 
L 420.513276 80.389087 
L 422.823902 80.389087 
L 425.423357 80.389087 
L 428.022811 80.389087 
L 430.044609 80.389087 
L 433.22172 80.389087 
L 434.95469 80.100259 
L 437.554145 80.100259 
L 440.153599 80.100259 
L 442.464225 80.100259 
L 446.218993 79.811431 
L 450.840246 79.522603 
L 454.883842 79.522603 
L 459.216266 79.233774 
L 463.54869 79.233774 
L 468.169943 79.233774 
L 471.347054 79.233774 
L 475.679478 79.522603 
L 479.723074 79.522603 
L 482.900185 79.233774 
L 485.788468 79.233774 
L 489.254408 78.944946 
L 492.720347 78.656118 
L 495.897458 78.367289 
L 498.785741 78.367289 
L 500.807539 78.078461 
L 503.695822 78.078461 
L 506.295276 78.078461 
L 508.317074 78.078461 
L 510.050044 78.078461 
L 510.627701 78.078461 
" style="fill:none;stroke:#8c8c8c;stroke-linecap:square;"/>
   </g>
   <g id="line2d_24">
    <path clip-path="url(#pa51eaa1fb7)" d="M 419.646791 160.105694 
L 419.646791 160.394522 
L 419.357963 160.394522 
L 419.069134 160.394522 
L 419.069134 160.683351 
L 419.357963 160.683351 
L 419.357963 160.972179 
L 419.646791 160.972179 
L 420.224448 161.261007 
L 420.802104 161.261007 
L 421.957417 160.972179 
L 424.268044 160.972179 
L 426.289842 160.683351 
L 429.466953 160.105694 
L 432.932892 159.528038 
L 435.821175 158.661553 
L 440.153599 157.795068 
L 445.06368 156.639755 
L 450.840246 155.77327 
L 455.461498 154.906785 
L 462.104549 154.0403 
L 466.725801 153.462644 
L 472.213539 153.173815 
L 476.834791 152.884987 
L 480.589559 152.884987 
L 485.49964 152.884987 
L 488.676751 152.884987 
L 492.720347 152.884987 
L 495.60863 153.173815 
L 499.363398 153.173815 
L 501.674024 153.462644 
L 504.273478 153.751472 
L 506.006448 154.0403 
L 507.161761 154.0403 
L 508.028246 154.329128 
L 508.317074 154.329128 
L 508.605903 154.329128 
L 508.894731 154.329128 
L 509.183559 154.329128 
L 509.472388 154.329128 
L 509.472388 154.0403 
L 509.761216 154.0403 
L 509.761216 153.751472 
L 509.761216 153.462644 
L 510.050044 152.884987 
L 510.338872 152.30733 
L 510.627701 151.440846 
L 510.916529 150.574361 
L 511.205357 149.707876 
L 511.494186 149.130219 
L 511.783014 147.974906 
L 511.783014 147.39725 
L 511.783014 146.241936 
L 512.071842 145.086623 
L 512.071842 144.220138 
L 512.071842 143.064825 
L 512.36067 141.909512 
L 512.649499 140.754199 
L 513.227155 139.021229 
L 513.515984 137.865916 
L 513.804812 136.421775 
L 514.09364 134.977633 
L 514.382468 132.667007 
L 514.671297 131.222866 
L 514.671297 129.201068 
L 514.671297 127.17927 
L 514.671297 125.735128 
L 514.960125 123.135674 
L 514.960125 121.113876 
L 514.960125 118.803249 
L 514.960125 117.07028 
L 515.248953 114.759653 
L 515.537782 112.737855 
L 515.537782 110.716057 
L 515.537782 108.694259 
L 515.537782 107.250118 
L 515.537782 105.22832 
L 515.82661 104.073007 
L 515.82661 102.340037 
L 516.115438 101.184724 
L 516.115438 100.029411 
L 516.115438 98.874098 
L 516.115438 97.718785 
L 516.115438 96.8523 
L 516.115438 95.985815 
L 516.115438 95.408158 
L 516.115438 94.830502 
L 516.115438 94.252845 
L 516.115438 93.964017 
L 516.115438 93.38636 
L 515.82661 92.808704 
L 515.82661 92.519875 
L 515.82661 91.942219 
L 515.82661 91.364562 
L 515.82661 91.075734 
L 515.82661 90.498077 
L 515.82661 89.920421 
L 515.537782 89.631593 
L 515.537782 89.053936 
L 515.537782 88.765108 
L 515.537782 88.187451 
L 515.248953 87.609795 
L 515.248953 87.032138 
L 514.960125 86.165653 
L 514.960125 85.01034 
L 514.671297 83.855027 
L 514.382468 82.699714 
L 514.09364 81.833229 
L 513.804812 81.255572 
L 513.515984 80.677916 
L 513.515984 80.389087 
L 513.227155 80.100259 
L 513.227155 79.811431 
L 513.227155 79.522603 
L 512.938327 79.233774 
L 512.938327 78.944946 
L 512.649499 78.656118 
L 512.36067 78.078461 
L 512.071842 78.078461 
" style="fill:none;stroke:#8c8c8c;stroke-linecap:square;"/>
   </g>
   <g id="line2d_25">
    <path clip-path="url(#pa51eaa1fb7)" d="M 451.129074 123.135674 
L 451.129074 122.846845 
L 450.840246 122.846845 
L 450.840246 123.135674 
L 450.551417 123.135674 
L 450.262589 123.135674 
L 450.262589 123.424502 
L 450.262589 123.71333 
L 449.973761 123.71333 
L 449.973761 124.002158 
L 449.973761 124.290987 
L 449.973761 124.579815 
L 449.973761 124.868643 
L 449.973761 125.157472 
L 450.262589 125.157472 
L 450.551417 125.4463 
L 450.840246 125.735128 
L 451.129074 125.735128 
L 451.417902 125.735128 
L 451.706731 125.735128 
L 451.995559 125.735128 
L 452.284387 125.4463 
L 452.573215 125.4463 
L 452.862044 125.157472 
L 452.862044 124.868643 
L 453.150872 124.868643 
L 453.150872 124.579815 
L 453.150872 124.290987 
L 453.150872 124.002158 
L 452.862044 124.002158 
L 452.862044 123.71333 
L 452.862044 123.424502 
L 452.573215 123.424502 
L 452.284387 123.135674 
L 451.995559 123.135674 
L 451.706731 123.135674 
L 451.417902 123.135674 
L 451.129074 123.135674 
L 451.129074 123.424502 
L 450.840246 123.424502 
L 450.551417 123.424502 
L 450.551417 123.71333 
L 450.551417 124.002158 
L 450.551417 124.290987 
L 450.551417 124.579815 
L 450.840246 124.579815 
L 451.129074 124.579815 
L 451.129074 124.868643 
L 451.417902 124.868643 
L 451.706731 124.868643 
L 451.995559 124.868643 
L 451.995559 124.579815 
L 452.284387 124.579815 
L 452.284387 124.290987 
L 452.573215 124.002158 
L 452.573215 123.71333 
L 452.573215 123.424502 
L 452.284387 123.135674 
L 451.995559 123.135674 
L 451.706731 123.135674 
L 451.417902 123.135674 
L 451.129074 123.135674 
L 450.840246 123.424502 
L 450.551417 123.424502 
L 450.262589 123.71333 
L 450.262589 124.002158 
L 450.262589 124.290987 
L 450.551417 124.579815 
L 450.840246 124.579815 
L 450.840246 124.868643 
L 451.129074 124.868643 
L 451.417902 124.868643 
L 451.995559 124.579815 
L 452.284387 124.290987 
L 452.284387 124.002158 
L 451.995559 123.424502 
L 451.417902 123.424502 
L 451.129074 123.71333 
L 450.840246 124.002158 
L 450.551417 124.002158 
" style="fill:none;stroke:#8c8c8c;stroke-linecap:square;"/>
   </g>
   <g id="line2d_26">
    <path clip-path="url(#pa51eaa1fb7)" d="M 456.616811 127.17927 
L 457.194468 127.756926 
L 457.483296 127.756926 
L 458.060953 128.045754 
L 460.082751 128.045754 
L 460.660407 127.756926 
L 461.238064 127.756926 
L 462.393377 127.17927 
L 463.259862 126.890441 
L 464.415175 125.735128 
L 464.415175 125.157472 
L 464.126347 124.579815 
L 463.837519 123.71333 
L 463.259862 122.846845 
L 462.971034 121.98036 
L 462.971034 115.626138 
L 462.682205 115.048482 
L 462.682205 114.759653 
L 462.393377 114.470825 
L 462.682205 113.893168 
L 463.54869 111.004886 
L 464.126347 110.427229 
L 464.126347 109.849572 
L 464.704003 109.271916 
L 464.992832 109.271916 
L 465.28166 108.983088 
L 465.859317 108.694259 
L 467.303458 108.116603 
L 468.747599 107.250118 
L 469.614084 106.383633 
L 470.480569 105.805976 
L 470.769397 104.939492 
L 470.769397 102.340037 
L 471.347054 100.318239 
L 472.791195 98.007613 
L 474.235337 96.274643 
L 475.968307 94.830502 
L 478.278933 93.38636 
L 479.434246 93.097532 
L 480.011903 92.808704 
L 480.878387 93.097532 
L 481.456044 93.097532 
L 482.033701 93.38636 
L 482.900185 93.38636 
L 483.189014 93.675189 
L 483.477842 93.675189 
L 483.477842 94.252845 
L 483.189014 94.541673 
L 483.189014 94.830502 
L 483.477842 95.11933 
L 483.477842 95.408158 
L 484.055499 95.985815 
L 484.055499 96.274643 
L 484.344327 97.141128 
L 484.344327 98.874098 
L 484.055499 99.740583 
L 484.055499 100.895896 
L 484.344327 101.762381 
L 485.210812 103.206522 
L 486.654953 104.073007 
L 488.676751 105.517148 
L 490.987377 107.827774 
L 491.276206 108.983088 
L 490.987377 109.560744 
L 490.120892 112.160199 
L 490.409721 113.026684 
L 492.14269 115.626138 
L 492.14269 117.647936 
L 491.565034 120.536219 
L 490.698549 122.269189 
L 490.120892 124.579815 
L 490.120892 126.890441 
L 489.832064 127.468098 
L 489.543236 128.334583 
L 488.387923 129.489896 
L 484.921983 132.378179 
L 482.900185 133.82232 
L 480.878387 134.399977 
L 480.011903 134.977633 
L 478.567761 135.55529 
L 477.12362 136.421775 
L 473.080024 138.443573 
L 471.058226 139.021229 
L 469.036428 139.887714 
L 467.303458 140.176542 
L 464.126347 141.620684 
L 462.971034 141.909512 
L 461.815721 142.487169 
L 461.238064 142.487169 
L 460.660407 142.775997 
L 460.371579 143.064825 
L 460.082751 143.064825 
L 459.505094 143.353654 
L 458.060953 144.220138 
L 457.194468 144.508967 
L 456.327983 144.220138 
L 455.17267 144.220138 
L 452.284387 143.353654 
L 450.840246 143.064825 
L 449.684933 143.064825 
L 447.663135 142.775997 
L 446.218993 142.775997 
L 443.908367 143.064825 
L 439.864771 143.064825 
L 436.398831 142.487169 
L 434.95469 141.620684 
L 434.377033 140.754199 
L 434.377033 140.176542 
L 434.665862 139.310058 
L 435.243518 138.732401 
L 435.821175 137.577088 
L 435.821175 136.999431 
L 435.243518 136.999431 
L 435.243518 136.710603 
L 434.95469 136.421775 
L 434.95469 135.55529 
L 435.532347 134.399977 
L 436.110003 131.222866 
L 436.110003 130.356381 
L 435.532347 129.201068 
L 433.510549 127.756926 
L 432.355235 126.890441 
L 431.777579 126.023956 
L 431.488751 124.868643 
L 431.488751 123.71333 
L 433.510549 117.647936 
L 433.510549 116.781451 
L 433.799377 116.203795 
L 433.799377 115.33731 
L 432.355235 113.026684 
L 431.488751 112.160199 
L 430.911094 111.293714 
L 429.466953 109.849572 
L 428.600468 109.271916 
L 428.022811 108.405431 
L 426.867498 107.538946 
L 426.001013 106.672461 
L 425.423357 105.805976 
L 424.8457 105.517148 
L 424.556872 104.361835 
L 424.556872 103.49535 
L 424.8457 102.917694 
L 424.8457 101.473552 
L 425.134528 100.895896 
L 425.134528 98.296441 
L 425.423357 98.007613 
L 425.423357 97.718785 
L 425.712185 97.429956 
L 426.001013 97.429956 
L 426.001013 97.141128 
L 426.289842 96.8523 
L 426.289842 96.563471 
L 426.57867 96.274643 
L 426.57867 95.985815 
L 426.867498 95.985815 
L 427.445155 95.408158 
L 428.31164 95.11933 
L 428.600468 94.830502 
L 428.889296 94.830502 
L 428.889296 94.541673 
L 429.178124 94.541673 
L 429.178124 94.252845 
L 429.178124 94.252845 
" style="fill:none;stroke:#8c8c8c;stroke-linecap:square;"/>
   </g>
   <g id="line2d_27">
    <path clip-path="url(#pa51eaa1fb7)" d="M 425.423357 92.231047 
L 425.712185 92.519875 
L 426.001013 92.519875 
L 426.867498 92.808704 
L 428.022811 92.808704 
L 428.31164 92.808704 
L 428.600468 93.097532 
L 428.889296 93.38636 
L 428.889296 93.675189 
L 428.889296 93.964017 
L 429.178124 94.252845 
L 429.178124 94.541673 
L 429.466953 95.11933 
L 429.466953 95.408158 
" style="fill:none;stroke:#8c8c8c;stroke-linecap:square;"/>
   </g>
   <g id="line2d_28">
    <path clip-path="url(#pa51eaa1fb7)" d="M 447.951963 94.830502 
L 447.663135 94.830502 
L 447.374306 94.830502 
L 447.374306 95.11933 
L 447.085478 95.696987 
L 447.374306 96.274643 
L 447.663135 96.563471 
L 448.240791 96.8523 
L 449.107276 96.563471 
L 449.396104 96.274643 
L 449.684933 95.696987 
L 449.684933 95.11933 
L 449.396104 94.541673 
L 448.818448 94.252845 
L 448.529619 94.252845 
L 447.951963 94.541673 
L 447.663135 94.830502 
L 447.663135 95.11933 
L 447.663135 95.408158 
L 447.663135 95.11933 
L 447.951963 95.11933 
L 447.951963 94.830502 
L 447.951963 94.541673 
" style="fill:none;stroke:#8c8c8c;stroke-linecap:square;"/>
   </g>
   <g id="line2d_29">
    <path clip-path="url(#pa51eaa1fb7)" d="M 447.663135 95.408158 
L 447.374306 95.408158 
L 447.374306 95.696987 
L 447.374306 95.985815 
L 447.374306 96.274643 
L 447.663135 96.274643 
L 447.951963 96.274643 
L 448.529619 96.274643 
L 449.107276 95.985815 
L 449.396104 95.696987 
L 449.107276 95.11933 
L 448.818448 94.830502 
L 447.951963 94.830502 
L 447.374306 95.408158 
L 446.79665 95.696987 
L 447.085478 95.985815 
L 447.374306 96.274643 
L 447.951963 96.274643 
L 448.240791 96.274643 
L 448.529619 95.985815 
L 448.529619 95.696987 
L 448.240791 95.696987 
L 447.951963 95.696987 
" style="fill:none;stroke:#8c8c8c;stroke-linecap:square;"/>
   </g>
   <g id="line2d_30">
    <path clip-path="url(#pa51eaa1fb7)" d="M 501.096367 141.043027 
L 500.807539 141.043027 
L 500.518711 141.043027 
L 500.229882 141.043027 
L 499.941054 141.043027 
L 499.941054 141.331856 
L 499.652226 141.620684 
L 499.652226 141.909512 
L 499.941054 142.19834 
L 500.229882 142.19834 
L 500.518711 141.909512 
L 500.807539 141.331856 
L 500.807539 141.043027 
L 500.518711 140.754199 
L 499.941054 140.465371 
L 499.652226 140.754199 
L 499.363398 141.043027 
L 499.363398 141.331856 
L 499.652226 141.620684 
L 499.941054 141.620684 
L 500.229882 141.620684 
L 500.518711 141.331856 
L 500.518711 141.043027 
L 500.229882 141.043027 
L 499.941054 141.331856 
L 499.652226 141.909512 
L 499.363398 142.19834 
L 499.652226 142.487169 
L 499.941054 142.487169 
L 500.229882 142.487169 
L 500.518711 142.19834 
L 500.807539 141.620684 
L 500.518711 141.620684 
L 500.229882 141.620684 
L 499.941054 141.620684 
L 499.941054 142.19834 
L 499.941054 142.487169 
L 500.518711 142.775997 
L 501.096367 143.064825 
L 501.674024 142.775997 
L 501.962852 142.487169 
L 502.25168 141.909512 
L 501.962852 141.331856 
L 501.674024 141.043027 
L 501.096367 141.043027 
L 500.518711 141.331856 
L 500.229882 141.620684 
L 500.229882 141.909512 
L 500.518711 142.19834 
L 500.807539 142.19834 
L 501.096367 142.19834 
L 501.385196 142.19834 
L 501.385196 141.909512 
L 501.385196 141.620684 
L 501.096367 141.620684 
L 500.807539 141.620684 
L 500.807539 141.909512 
L 500.518711 142.19834 
L 500.807539 142.775997 
L 501.096367 143.064825 
L 501.385196 142.775997 
L 501.674024 142.19834 
L 501.385196 141.909512 
L 501.096367 141.620684 
L 500.518711 141.331856 
L 500.229882 141.331856 
L 499.652226 141.620684 
L 499.652226 141.909512 
L 499.652226 142.487169 
L 499.941054 142.775997 
L 499.941054 143.064825 
L 500.229882 142.775997 
L 500.229882 142.487169 
L 500.229882 142.19834 
L 499.941054 142.19834 
L 499.652226 142.19834 
L 499.363398 142.19834 
L 499.074569 142.19834 
" style="fill:none;stroke:#8c8c8c;stroke-linecap:square;"/>
   </g>
   <g id="line2d_31">
    <path clip-path="url(#pa51eaa1fb7)" d="M 62.943859 49.195633 
L 62.655031 49.195633 
L 62.655031 48.906804 
L 62.366202 48.906804 
L 62.077374 48.906804 
L 61.788546 48.906804 
L 61.210889 49.195633 
L 60.344404 50.062117 
L 59.47792 50.928602 
L 58.900263 52.083915 
L 58.611435 53.528057 
L 58.900263 54.972198 
L 59.766748 56.705168 
L 60.922061 58.149309 
L 62.366202 58.438138 
L 64.099172 58.149309 
L 65.254485 57.571653 
L 65.254485 57.282825 
" style="fill:none;stroke:#8c8c8c;stroke-linecap:square;"/>
   </g>
   <g id="line2d_32">
    <path clip-path="url(#pa51eaa1fb7)" d="M 68.142768 54.394542 
L 68.431596 53.816885 
L 68.431596 53.528057 
L 68.142768 53.528057 
L 68.142768 53.239229 
L 67.565112 53.239229 
L 67.276283 53.239229 
L 66.409798 53.528057 
L 65.543314 54.105713 
L 64.965657 54.972198 
L 64.965657 55.549855 
L 65.543314 56.127511 
L 66.409798 56.127511 
L 66.987455 55.549855 
L 67.85394 54.68337 
L 68.142768 53.816885 
L 68.431596 53.528057 
L 68.431596 53.239229 
L 68.720425 53.528057 
L 68.720425 54.394542 
L 69.009253 55.549855 
L 69.298081 56.705168 
L 69.58691 56.993996 
L 69.875738 56.993996 
L 69.875738 56.705168 
" style="fill:none;stroke:#8c8c8c;stroke-linecap:square;"/>
   </g>
   <g id="line2d_33">
    <path clip-path="url(#pa51eaa1fb7)" d="M 77.385273 51.506259 
L 77.385273 51.217431 
L 77.385273 50.928602 
L 77.385273 50.639774 
L 77.096445 50.350946 
L 76.807617 50.062117 
L 76.518788 50.062117 
L 75.652304 50.350946 
L 74.785819 51.217431 
L 74.208162 52.9504 
L 74.208162 54.105713 
L 74.785819 55.838683 
L 76.22996 56.705168 
L 77.385273 56.705168 
L 78.540586 55.838683 
" style="fill:none;stroke:#8c8c8c;stroke-linecap:square;"/>
   </g>
   <g id="line2d_34">
    <path clip-path="url(#pa51eaa1fb7)" d="M 82.006526 51.506259 
L 82.006526 51.217431 
L 81.717698 50.928602 
L 81.140041 51.217431 
L 80.273556 51.795087 
L 79.984728 52.661572 
L 79.984728 54.105713 
L 80.562384 55.549855 
L 81.717698 56.127511 
L 83.161839 56.41634 
L 84.894809 55.549855 
L 85.472465 54.68337 
L 85.472465 52.661572 
L 85.183637 50.928602 
L 84.317152 49.484461 
L 82.873011 49.195633 
L 81.717698 49.484461 
L 80.851213 50.350946 
" style="fill:none;stroke:#8c8c8c;stroke-linecap:square;"/>
   </g>
   <g id="line2d_35">
    <path clip-path="url(#pa51eaa1fb7)" d="M 89.227233 52.661572 
L 89.227233 52.9504 
L 88.938405 52.9504 
L 88.649576 52.9504 
L 88.360748 52.9504 
L 88.649576 52.9504 
L 89.516061 53.239229 
L 90.093718 53.239229 
L 90.382546 53.528057 
L 90.671374 53.816885 
L 90.382546 54.394542 
L 89.80489 54.68337 
L 89.227233 55.261027 
L 89.516061 55.261027 
L 89.80489 55.261027 
L 90.093718 55.261027 
L 91.249031 55.549855 
L 92.115516 56.127511 
L 92.693172 56.993996 
L 93.270829 58.149309 
L 92.693172 59.015794 
L 92.115516 59.882279 
L 90.382546 60.171107 
L 88.938405 60.459936 
L 88.649576 60.171107 
" style="fill:none;stroke:#8c8c8c;stroke-linecap:square;"/>
   </g>
   <g id="line2d_36">
    <path clip-path="url(#pa51eaa1fb7)" d="M 63.521516 81.833229 
L 63.521516 82.122057 
L 63.521516 82.410885 
L 63.521516 82.699714 
L 63.521516 83.27737 
L 63.810344 84.432683 
L 64.099172 86.165653 
L 64.676829 88.765108 
L 64.965657 90.786906 
L 65.254485 93.38636 
L 65.543314 94.541673 
L 65.543314 95.408158 
L 65.543314 95.696987 
L 65.543314 95.408158 
L 65.254485 95.11933 
" style="fill:none;stroke:#8c8c8c;stroke-linecap:square;"/>
   </g>
   <g id="line2d_37">
    <path clip-path="url(#pa51eaa1fb7)" d="M 68.431596 81.544401 
L 68.431596 81.833229 
L 68.720425 82.410885 
L 69.009253 83.855027 
L 69.58691 86.165653 
L 70.164566 88.765108 
L 70.742223 91.364562 
L 71.319879 93.964017 
L 71.608708 95.696987 
L 71.897536 96.274643 
" style="fill:none;stroke:#8c8c8c;stroke-linecap:square;"/>
   </g>
   <g id="line2d_38">
    <path clip-path="url(#pa51eaa1fb7)" d="M 64.388 89.342764 
L 64.099172 89.342764 
L 64.388 89.342764 
L 65.254485 89.342764 
L 66.987455 89.053936 
L 68.431596 88.765108 
L 69.875738 88.765108 
L 70.742223 88.476279 
" style="fill:none;stroke:#8c8c8c;stroke-linecap:square;"/>
   </g>
   <g id="line2d_39">
    <path clip-path="url(#pa51eaa1fb7)" d="M 82.295354 82.699714 
L 82.295354 82.410885 
L 82.295354 82.122057 
L 82.295354 81.833229 
L 82.006526 81.833229 
L 81.428869 81.833229 
L 80.562384 82.410885 
L 79.118243 84.143855 
L 78.251758 86.74331 
L 77.96293 89.053936 
L 79.407071 92.519875 
L 81.428869 94.252845 
L 84.028324 94.830502 
L 86.050122 94.252845 
L 87.783092 93.38636 
L 88.07192 93.097532 
" style="fill:none;stroke:#8c8c8c;stroke-linecap:square;"/>
   </g>
   <g id="line2d_40">
    <path clip-path="url(#pa51eaa1fb7)" d="M 90.960203 86.454481 
L 90.671374 86.454481 
L 90.382546 86.74331 
L 90.093718 87.032138 
L 89.80489 87.609795 
L 89.516061 88.765108 
L 89.227233 89.631593 
L 89.516061 91.075734 
L 90.671374 92.808704 
L 92.115516 93.675189 
L 93.559657 93.675189 
L 95.581455 92.808704 
L 97.025597 91.075734 
L 97.314425 89.053936 
L 96.736768 86.454481 
L 95.581455 84.721512 
L 94.137314 83.566199 
L 92.404344 83.566199 
L 90.960203 84.143855 
L 90.093718 84.721512 
L 90.093718 85.01034 
" style="fill:none;stroke:#8c8c8c;stroke-linecap:square;"/>
   </g>
   <g id="line2d_41">
    <path clip-path="url(#pa51eaa1fb7)" d="M 101.358021 89.342764 
L 101.069193 89.342764 
L 100.780364 89.631593 
L 100.491536 89.631593 
L 100.780364 89.631593 
L 101.069193 89.342764 
L 102.224506 89.342764 
L 103.090991 89.631593 
L 103.668647 89.920421 
L 103.957475 90.498077 
L 103.668647 91.075734 
L 103.090991 91.653391 
L 102.802162 91.942219 
L 102.513334 92.231047 
L 102.802162 92.231047 
L 103.090991 92.519875 
L 104.246304 93.38636 
L 104.82396 94.252845 
L 105.112789 95.11933 
L 105.112789 96.274643 
L 103.957475 96.8523 
L 103.090991 96.8523 
L 101.935677 96.274643 
L 101.646849 95.985815 
" style="fill:none;stroke:#8c8c8c;stroke-linecap:square;"/>
   </g>
   <g id="line2d_42">
    <path clip-path="url(#pa51eaa1fb7)" d="M 103.668647 81.544401 
L 103.379819 81.544401 
L 103.379819 81.255572 
L 103.668647 81.255572 
L 104.535132 80.966744 
L 105.401617 80.966744 
L 106.268102 80.966744 
L 106.845758 80.966744 
L 107.134587 80.966744 
L 107.423415 80.966744 
L 107.134587 80.677916 
" style="fill:none;stroke:#8c8c8c;stroke-linecap:square;"/>
   </g>
   <g id="line2d_43">
    <path clip-path="url(#pa51eaa1fb7)" d="M 90.382546 84.721512 
L 90.093718 84.721512 
L 89.80489 85.01034 
L 89.80489 85.299168 
L 89.516061 85.299168 
L 89.516061 85.587997 
L 89.516061 86.165653 
L 89.516061 86.454481 
L 89.227233 86.74331 
L 89.227233 87.032138 
L 89.227233 87.320966 
L 88.938405 87.609795 
L 88.938405 87.320966 
L 89.227233 87.320966 
L 89.227233 87.032138 
L 89.227233 86.454481 
L 89.516061 86.165653 
L 89.516061 85.876825 
L 89.516061 85.587997 
L 89.516061 85.876825 
L 89.516061 86.165653 
L 89.516061 86.74331 
L 89.227233 87.320966 
L 89.227233 87.898623 
L 89.227233 88.187451 
L 89.227233 87.898623 
L 89.227233 87.609795 
L 89.227233 87.320966 
L 89.227233 87.032138 
" style="fill:none;stroke:#8c8c8c;stroke-linecap:square;"/>
   </g>
   <g id="line2d_44">
    <path clip-path="url(#pa51eaa1fb7)" d="M 32.328061 132.955835 
L 32.328061 132.667007 
L 32.328061 132.378179 
L 32.328061 132.08935 
L 32.328061 131.800522 
L 32.328061 131.511694 
L 32.328061 131.222866 
L 32.328061 131.511694 
L 32.328061 131.800522 
L 32.328061 132.08935 
L 32.616889 132.955835 
L 33.194546 134.977633 
L 33.772202 136.421775 
L 33.772202 136.999431 
L 34.061031 137.577088 
L 33.772202 137.28826 
L 33.483374 136.710603 
L 32.905717 134.977633 
L 32.905717 133.244664 
L 32.905717 132.378179 
L 33.194546 131.511694 
L 33.772202 131.222866 
L 34.061031 131.222866 
L 34.927515 132.378179 
L 35.505172 133.244664 
L 36.082828 134.688805 
L 36.371657 135.55529 
L 36.371657 135.844118 
L 36.371657 135.55529 
L 36.371657 134.977633 
L 36.371657 133.82232 
L 36.660485 132.378179 
L 37.238142 131.800522 
L 37.52697 131.511694 
L 38.104626 132.08935 
L 38.682283 132.955835 
L 38.971111 134.111148 
L 39.548768 134.977633 
L 39.837596 135.266462 
" style="fill:none;stroke:#8c8c8c;stroke-linecap:square;"/>
   </g>
   <g id="line2d_45">
    <path clip-path="url(#pa51eaa1fb7)" d="M 40.126424 134.399977 
L 40.126424 134.111148 
L 40.415253 134.111148 
L 40.704081 134.111148 
L 41.281738 133.82232 
L 41.859394 133.244664 
L 42.148222 132.378179 
L 42.148222 131.511694 
L 41.859394 130.934037 
L 41.281738 131.222866 
L 40.704081 131.800522 
L 40.415253 132.955835 
L 40.704081 134.399977 
L 41.570566 135.266462 
L 42.725879 135.55529 
L 43.881192 135.266462 
L 44.458849 135.266462 
" style="fill:none;stroke:#8c8c8c;stroke-linecap:square;"/>
   </g>
   <g id="line2d_46">
    <path clip-path="url(#pa51eaa1fb7)" d="M 47.058303 131.800522 
L 47.058303 131.800522 
L 46.769475 132.08935 
L 46.769475 132.667007 
L 47.058303 133.533492 
L 47.058303 134.399977 
L 47.347132 134.977633 
L 47.347132 134.688805 
L 47.347132 134.399977 
L 47.347132 133.82232 
L 46.480647 132.667007 
L 45.90299 131.800522 
L 45.325334 131.511694 
L 44.747677 132.08935 
L 44.458849 133.244664 
L 44.458849 134.399977 
L 44.747677 135.55529 
L 45.90299 135.55529 
L 46.191818 135.55529 
" style="fill:none;stroke:#8c8c8c;stroke-linecap:square;"/>
   </g>
   <g id="line2d_47">
    <path clip-path="url(#pa51eaa1fb7)" d="M 49.657758 130.934037 
L 49.657758 130.645209 
L 49.657758 130.356381 
L 49.36893 130.645209 
L 48.791273 131.222866 
L 48.502445 131.800522 
L 48.502445 132.378179 
L 48.502445 132.667007 
L 48.791273 132.955835 
L 49.657758 133.533492 
L 50.524243 134.111148 
L 51.390728 134.688805 
L 51.679556 135.55529 
L 51.679556 136.132946 
L 51.390728 136.710603 
L 51.390728 136.999431 
" style="fill:none;stroke:#8c8c8c;stroke-linecap:square;"/>
   </g>
   <g id="line2d_48">
    <path clip-path="url(#pa51eaa1fb7)" d="M 54.27901 134.111148 
L 54.567839 133.82232 
L 54.567839 134.111148 
L 54.856667 134.111148 
L 55.145495 134.111148 
L 55.434324 134.399977 
L 55.723152 134.399977 
L 56.300808 134.399977 
L 56.300808 134.399977 
L 56.589637 134.399977 
L 56.589637 133.82232 
L 56.300808 132.378179 
L 56.01198 131.800522 
L 55.723152 131.222866 
L 55.723152 130.934037 
" style="fill:none;stroke:#8c8c8c;stroke-linecap:square;"/>
   </g>
   <g id="line2d_49">
    <path clip-path="url(#pa51eaa1fb7)" d="M 59.47792 132.667007 
L 59.766748 133.244664 
L 60.055576 133.533492 
L 60.344404 134.111148 
L 60.633233 134.111148 
L 60.633233 133.82232 
L 60.633233 133.533492 
L 60.633233 133.244664 
L 60.633233 132.667007 
L 60.633233 132.08935 
L 60.633233 131.800522 
" style="fill:none;stroke:#8c8c8c;stroke-linecap:square;"/>
   </g>
   <g id="line2d_50">
    <path clip-path="url(#pa51eaa1fb7)" d="M 63.232687 131.800522 
L 63.810344 132.08935 
L 64.388 132.378179 
L 64.965657 132.08935 
L 65.254485 131.511694 
L 65.543314 130.645209 
L 65.543314 130.067552 
L 64.965657 129.489896 
L 64.388 129.489896 
L 63.810344 130.356381 
L 63.521516 131.800522 
L 63.810344 133.244664 
L 64.676829 134.399977 
L 65.543314 134.688805 
L 66.987455 134.399977 
L 68.142768 134.111148 
" style="fill:none;stroke:#8c8c8c;stroke-linecap:square;"/>
   </g>
   <g id="line2d_51">
    <path clip-path="url(#pa51eaa1fb7)" d="M 90.093718 127.468098 
L 90.093718 127.17927 
L 89.516061 126.890441 
L 88.649576 126.890441 
L 87.494263 127.17927 
L 86.627778 128.045754 
L 86.33895 129.778724 
L 86.627778 132.378179 
L 88.360748 134.399977 
L 90.093718 135.266462 
L 90.960203 135.266462 
" style="fill:none;stroke:#8c8c8c;stroke-linecap:square;"/>
   </g>
   <g id="line2d_52">
    <path clip-path="url(#pa51eaa1fb7)" d="M 94.426142 130.645209 
L 93.848485 130.067552 
L 92.982001 130.356381 
L 92.115516 130.934037 
L 91.826688 131.800522 
L 91.826688 133.244664 
L 92.693172 134.399977 
L 93.848485 135.266462 
L 95.292627 134.977633 
L 96.159112 134.111148 
L 96.44794 132.378179 
L 96.159112 130.934037 
L 94.426142 128.912239 
L 93.559657 128.334583 
L 92.404344 128.334583 
L 91.826688 129.201068 
L 91.826688 129.778724 
" style="fill:none;stroke:#8c8c8c;stroke-linecap:square;"/>
   </g>
   <g id="line2d_53">
    <path clip-path="url(#pa51eaa1fb7)" d="M 99.913879 133.533492 
L 99.625051 133.533492 
L 99.336223 133.533492 
L 99.336223 133.244664 
L 99.625051 133.244664 
L 100.491536 132.955835 
L 101.646849 132.667007 
L 102.224506 132.667007 
L 102.224506 133.244664 
L 101.935677 134.111148 
L 101.069193 135.55529 
L 100.202708 136.999431 
L 100.202708 137.577088 
L 100.491536 138.154744 
L 101.358021 138.443573 
L 102.513334 138.154744 
L 103.090991 138.154744 
L 103.379819 137.865916 
" style="fill:none;stroke:#8c8c8c;stroke-linecap:square;"/>
   </g>
   <g id="line2d_54">
    <path clip-path="url(#pa51eaa1fb7)" d="M 92.982001 129.778724 
L 92.982001 129.489896 
L 92.982001 129.201068 
L 92.693172 129.201068 
L 92.693172 128.912239 
L 92.693172 128.623411 
L 92.693172 128.334583 
L 92.693172 128.623411 
L 92.693172 128.912239 
L 92.693172 129.201068 
L 92.693172 129.778724 
L 92.404344 130.356381 
" style="fill:none;stroke:#8c8c8c;stroke-linecap:square;"/>
   </g>
   <g id="line2d_55">
    <path clip-path="url(#pa51eaa1fb7)" d="M 120.709516 129.201068 
L 120.998344 129.201068 
L 120.998344 128.912239 
L 120.998344 128.623411 
L 120.709516 128.623411 
L 120.420688 128.623411 
L 120.131859 128.912239 
L 119.554203 129.201068 
L 119.265375 130.067552 
L 119.554203 130.645209 
L 120.131859 130.934037 
L 120.709516 130.934037 
L 121.287173 130.356381 
L 121.287173 129.778724 
L 121.576001 129.489896 
L 121.576001 129.201068 
L 121.576001 129.489896 
L 121.864829 129.778724 
L 121.864829 130.067552 
L 122.442486 130.645209 
L 123.308971 131.511694 
L 123.886627 132.667007 
L 124.175455 133.533492 
L 124.464284 134.111148 
L 123.886627 134.688805 
L 122.731314 135.266462 
L 121.864829 135.266462 
L 120.998344 134.977633 
L 120.709516 134.399977 
" style="fill:none;stroke:#8c8c8c;stroke-linecap:square;"/>
   </g>
   <g id="line2d_56">
    <path clip-path="url(#pa51eaa1fb7)" d="M 126.77491 128.045754 
L 127.063738 128.045754 
L 127.063738 127.756926 
L 126.77491 127.756926 
L 126.486082 128.045754 
L 125.908425 128.334583 
L 125.330769 129.201068 
L 124.753112 130.356381 
L 125.04194 130.934037 
L 125.619597 131.222866 
L 126.486082 130.934037 
L 127.063738 130.356381 
L 127.930223 129.489896 
L 127.930223 128.912239 
L 127.930223 128.334583 
L 127.930223 128.623411 
L 127.930223 128.912239 
L 127.641395 129.201068 
L 127.641395 130.067552 
L 127.930223 131.222866 
L 128.219051 131.800522 
L 128.50788 132.08935 
L 129.085536 131.800522 
" style="fill:none;stroke:#8c8c8c;stroke-linecap:square;"/>
   </g>
   <g id="line2d_57">
    <path clip-path="url(#pa51eaa1fb7)" d="M 131.396163 128.334583 
L 131.396163 128.045754 
L 131.107334 128.334583 
L 131.107334 128.623411 
L 130.818506 128.912239 
L 130.240849 129.778724 
L 130.240849 130.067552 
L 130.818506 130.356381 
L 131.396163 130.356381 
L 132.551476 130.356381 
L 133.129132 130.645209 
L 133.995617 131.222866 
L 133.995617 132.08935 
L 133.995617 132.955835 
L 133.129132 133.82232 
L 132.262647 134.399977 
" style="fill:none;stroke:#8c8c8c;stroke-linecap:square;"/>
   </g>
  </g>
 </g>
 <defs>
  <clipPath id="pa51eaa1fb7">
   <rect height="161.397246" width="552.817337" x="7.2" y="7.2"/>
  </clipPath>
 </defs>
</svg>
