<?xml version="1.0" encoding="utf-8" standalone="no"?>
<!DOCTYPE svg PUBLIC "-//W3C//DTD SVG 1.1//EN"
  "http://www.w3.org/Graphics/SVG/1.1/DTD/svg11.dtd">
<!-- Created with matplotlib (https://matplotlib.org/) -->
<svg height="226.645114pt" version="1.1" viewBox="0 0 535.427523 226.645114" width="535.427523pt" xmlns="http://www.w3.org/2000/svg" xmlns:xlink="http://www.w3.org/1999/xlink">
 <metadata>
  <rdf:RDF xmlns:cc="http://creativecommons.org/ns#" xmlns:dc="http://purl.org/dc/elements/1.1/" xmlns:rdf="http://www.w3.org/1999/02/22-rdf-syntax-ns#">
   <cc:Work>
    <dc:type rdf:resource="http://purl.org/dc/dcmitype/StillImage"/>
    <dc:date>2024-11-15T16:03:35.121630</dc:date>
    <dc:format>image/svg+xml</dc:format>
    <dc:creator>
     <cc:Agent>
      <dc:title>Matplotlib v3.3.4, https://matplotlib.org/</dc:title>
     </cc:Agent>
    </dc:creator>
   </cc:Work>
  </rdf:RDF>
 </metadata>
 <defs>
  <style type="text/css">*{stroke-linecap:butt;stroke-linejoin:round;}</style>
 </defs>
 <g id="figure_1">
  <g id="patch_1">
   <path d="M 0 226.645114 
L 535.427523 226.645114 
L 535.427523 0 
L 0 0 
z
" style="fill:#ffffff;"/>
  </g>
  <g id="axes_1">
   <g id="line2d_1">
    <path clip-path="url(#p27d19f6b0c)" d="M 334.935088 64.462612 
L 334.935088 64.462612 
L 334.935088 64.462612 
L 334.935088 64.462612 
L 334.935088 64.462612 
L 335.246298 64.462612 
L 335.557508 65.085031 
L 336.179927 65.085031 
L 336.491137 65.396241 
L 337.113557 66.018661 
L 337.735977 66.329871 
L 338.669606 66.64108 
L 338.980816 66.95229 
L 340.848075 67.57471 
L 342.092914 68.19713 
L 344.271383 68.50834 
L 347.072272 69.130759 
L 347.694692 69.130759 
L 350.80679 69.441969 
L 352.985259 69.753179 
L 355.474938 69.753179 
L 357.653407 69.441969 
L 360.143086 69.130759 
L 361.076715 69.130759 
L 366.678492 67.88592 
L 370.72422 66.64108 
L 375.081158 66.018661 
L 378.504466 65.396241 
L 380.994145 65.396241 
L 381.305355 65.396241 
L 385.662293 65.396241 
L 387.840762 65.707451 
L 391.57528 66.329871 
L 398.733106 67.2635 
L 407.758192 67.2635 
L 419.584166 66.018661 
L 427.675622 65.085031 
" style="fill:none;stroke:#8c8c8c;stroke-linecap:square;"/>
   </g>
   <g id="line2d_2">
    <path clip-path="url(#p27d19f6b0c)" d="M 334.312668 65.707451 
L 334.312668 65.707451 
L 334.312668 65.707451 
L 334.312668 65.396241 
L 334.623878 65.396241 
L 334.935088 65.085031 
L 335.246298 65.085031 
L 335.557508 65.085031 
L 335.557508 65.085031 
L 336.491137 65.707451 
L 336.802347 66.018661 
L 337.424767 67.2635 
L 337.735977 68.19713 
L 338.358396 68.819549 
L 338.669606 69.130759 
L 339.914446 70.375599 
L 340.225655 70.686808 
L 340.225655 70.686808 
" style="fill:none;stroke:#8c8c8c;stroke-linecap:square;"/>
   </g>
   <g id="line2d_3">
    <path clip-path="url(#p27d19f6b0c)" d="M 335.868718 65.396241 
L 335.868718 65.396241 
L 336.179927 65.396241 
L 336.179927 65.396241 
L 337.113557 65.085031 
L 338.669606 64.151402 
L 339.292026 63.840192 
L 340.536865 63.217772 
L 341.470495 62.906562 
L 342.404124 62.595352 
L 343.026544 61.972933 
L 343.337754 61.972933 
" style="fill:none;stroke:#8c8c8c;stroke-linecap:square;"/>
   </g>
   <g id="line2d_4">
    <path clip-path="url(#p27d19f6b0c)" d="M 433.277399 58.238415 
L 433.277399 57.927205 
L 433.277399 57.927205 
L 433.277399 57.927205 
L 433.588609 57.927205 
L 434.211029 59.172044 
L 436.700707 63.217772 
L 438.256757 65.085031 
L 438.879176 66.018661 
L 439.190386 66.018661 
L 439.190386 66.018661 
" style="fill:none;stroke:#8c8c8c;stroke-linecap:square;"/>
   </g>
   <g id="line2d_5">
    <path clip-path="url(#p27d19f6b0c)" d="M 432.03256 56.993575 
L 432.03256 56.993575 
L 432.03256 56.993575 
L 432.03256 56.682365 
L 432.34377 56.682365 
L 434.522239 56.059946 
L 436.700707 55.748736 
L 438.567967 55.748736 
L 439.812806 57.615995 
L 439.501596 58.860834 
L 438.879176 60.105674 
L 439.501596 60.105674 
L 443.236114 60.416884 
L 446.659422 63.217772 
L 446.659422 63.840192 
L 446.348213 64.151402 
L 442.613695 65.707451 
L 439.812806 65.707451 
L 438.879176 65.396241 
" style="fill:none;stroke:#8c8c8c;stroke-linecap:square;"/>
   </g>
   <g id="line2d_6">
    <path clip-path="url(#p27d19f6b0c)" d="M 454.750878 61.350513 
L 454.750878 61.350513 
L 454.439669 61.350513 
L 454.128459 61.350513 
L 452.2612 61.350513 
L 450.70515 62.595352 
L 451.32757 63.528982 
L 451.63878 63.840192 
L 455.062088 63.217772 
L 455.684508 62.284143 
L 455.684508 61.350513 
L 455.373298 61.039303 
L 455.373298 61.350513 
L 455.373298 61.661723 
L 457.240557 64.773821 
L 458.174187 66.018661 
L 458.485397 66.018661 
" style="fill:none;stroke:#8c8c8c;stroke-linecap:square;"/>
   </g>
   <g id="line2d_7">
    <path clip-path="url(#p27d19f6b0c)" d="M 463.775964 59.794464 
L 463.464754 59.794464 
L 463.464754 59.483254 
L 462.842334 59.483254 
L 462.531125 59.483254 
L 461.286285 60.105674 
L 460.041446 61.039303 
L 460.352656 61.350513 
L 461.597495 61.661723 
L 465.332013 63.840192 
L 465.643223 64.151402 
L 464.709594 65.396241 
L 462.842334 65.707451 
L 462.219915 65.396241 
" style="fill:none;stroke:#8c8c8c;stroke-linecap:square;"/>
   </g>
   <g id="line2d_8">
    <path clip-path="url(#p27d19f6b0c)" d="M 471.245 61.039303 
L 470.93379 61.039303 
L 470.93379 61.039303 
L 470.622581 61.039303 
L 469.066531 61.972933 
L 468.755322 62.284143 
L 468.755322 62.595352 
L 471.55621 63.528982 
L 473.423469 61.972933 
L 473.734679 60.416884 
L 473.734679 60.105674 
L 473.734679 60.416884 
L 475.290728 64.462612 
L 476.535568 65.396241 
L 476.535568 65.396241 
" style="fill:none;stroke:#8c8c8c;stroke-linecap:square;"/>
   </g>
   <g id="line2d_9">
    <path clip-path="url(#p27d19f6b0c)" d="M 482.137345 55.437526 
L 482.137345 55.126316 
L 482.137345 55.126316 
L 482.137345 55.437526 
L 482.759765 57.304785 
L 484.004604 60.105674 
L 486.183073 64.151402 
L 486.805493 65.085031 
" style="fill:none;stroke:#8c8c8c;stroke-linecap:square;"/>
   </g>
   <g id="line2d_10">
    <path clip-path="url(#p27d19f6b0c)" d="M 488.672752 56.682365 
L 488.672752 56.682365 
L 488.361542 56.371156 
L 488.672752 56.682365 
L 488.983961 57.615995 
L 490.228801 60.416884 
L 491.78485 63.217772 
L 493.029689 65.396241 
L 493.029689 65.707451 
" style="fill:none;stroke:#8c8c8c;stroke-linecap:square;"/>
   </g>
   <g id="line2d_11">
    <path clip-path="url(#p27d19f6b0c)" d="M 488.050332 60.728093 
L 487.739122 60.416884 
L 488.983961 60.105674 
L 493.963319 59.172044 
L 495.519368 58.860834 
L 497.386627 58.238415 
" style="fill:none;stroke:#8c8c8c;stroke-linecap:square;"/>
   </g>
   <g id="line2d_12">
    <path clip-path="url(#p27d19f6b0c)" d="M 395.932218 83.757622 
L 395.932218 83.757622 
L 395.932218 83.446412 
L 396.243428 83.446412 
L 396.865847 83.446412 
L 397.799477 83.446412 
L 398.733106 83.135202 
L 399.666736 83.135202 
L 400.911575 82.823992 
" style="fill:none;stroke:#8c8c8c;stroke-linecap:square;"/>
   </g>
   <g id="line2d_13">
    <path clip-path="url(#p27d19f6b0c)" d="M 407.446982 82.823992 
L 407.446982 82.823992 
L 407.446982 82.823992 
L 407.758192 83.135202 
L 408.380612 83.135202 
L 409.314241 83.135202 
L 410.55908 82.823992 
L 411.1815 82.201573 
L 411.1815 81.579153 
L 409.003031 80.645523 
L 407.758192 80.645523 
L 406.513352 81.267943 
L 406.824562 82.823992 
L 408.069402 84.691251 
L 411.1815 89.670609 
L 411.1815 89.981819 
L 411.1815 89.981819 
" style="fill:none;stroke:#8c8c8c;stroke-linecap:square;"/>
   </g>
   <g id="line2d_14">
    <path clip-path="url(#p27d19f6b0c)" d="M 416.160858 81.579153 
L 416.160858 81.579153 
L 416.160858 81.579153 
L 415.849648 81.267943 
L 415.538438 81.267943 
L 415.227228 80.956733 
L 413.982389 81.267943 
L 413.048759 82.201573 
L 412.42634 83.446412 
L 412.42634 84.068832 
L 416.472068 83.757622 
L 416.783277 82.823992 
L 416.472068 81.579153 
L 416.160858 80.956733 
L 415.849648 80.956733 
L 415.849648 81.890363 
L 417.716907 83.757622 
L 419.272956 85.002461 
L 419.895376 84.691251 
" style="fill:none;stroke:#8c8c8c;stroke-linecap:square;"/>
   </g>
   <g id="line2d_15">
    <path clip-path="url(#p27d19f6b0c)" d="M 418.650536 80.956733 
L 418.650536 80.956733 
L 418.650536 80.956733 
L 418.961746 80.956733 
L 418.961746 80.956733 
L 419.272956 81.267943 
L 421.451425 82.823992 
L 422.385055 83.446412 
L 422.385055 83.446412 
L 422.073845 82.201573 
L 422.073845 81.267943 
L 423.629894 79.711894 
L 423.941104 79.400684 
" style="fill:none;stroke:#8c8c8c;stroke-linecap:square;"/>
   </g>
   <g id="line2d_16">
    <path clip-path="url(#p27d19f6b0c)" d="M 427.053202 77.222215 
L 427.053202 77.222215 
L 427.053202 77.222215 
L 427.364412 77.533425 
L 427.364412 77.844635 
L 428.298042 79.089474 
L 429.231671 80.645523 
L 429.231671 80.956733 
L 430.78772 83.446412 
" style="fill:none;stroke:#8c8c8c;stroke-linecap:square;"/>
   </g>
   <g id="line2d_17">
    <path clip-path="url(#p27d19f6b0c)" d="M 427.986832 81.267943 
L 427.675622 80.956733 
L 427.364412 80.956733 
L 427.675622 80.956733 
L 427.986832 80.956733 
L 430.165301 80.645523 
L 431.41014 80.645523 
L 432.03256 80.334314 
" style="fill:none;stroke:#8c8c8c;stroke-linecap:square;"/>
   </g>
   <g id="line2d_18">
    <path clip-path="url(#p27d19f6b0c)" d="M 434.522239 79.089474 
L 434.833448 80.023104 
L 435.144658 80.334314 
L 435.455868 81.579153 
L 435.455868 81.579153 
" style="fill:none;stroke:#8c8c8c;stroke-linecap:square;"/>
   </g>
   <g id="line2d_19">
    <path clip-path="url(#p27d19f6b0c)" d="M 435.455868 77.222215 
L 435.144658 77.222215 
L 434.833448 76.599795 
L 434.833448 76.288586 
" style="fill:none;stroke:#8c8c8c;stroke-linecap:square;"/>
   </g>
   <g id="line2d_20">
    <path clip-path="url(#p27d19f6b0c)" d="M 441.991275 78.155845 
L 441.680065 78.155845 
L 441.680065 78.155845 
L 441.057645 78.155845 
L 440.435226 78.467055 
L 438.879176 80.023104 
L 439.190386 81.267943 
L 440.124016 81.267943 
L 441.680065 80.023104 
L 441.680065 78.155845 
L 441.680065 78.155845 
L 441.368855 77.844635 
L 441.680065 78.778264 
L 442.302485 80.334314 
L 443.547324 82.201573 
L 443.858534 82.823992 
" style="fill:none;stroke:#8c8c8c;stroke-linecap:square;"/>
   </g>
   <g id="line2d_21">
    <path clip-path="url(#p27d19f6b0c)" d="M 444.792163 73.487697 
L 444.792163 73.176487 
L 444.792163 73.176487 
L 444.792163 73.487697 
L 445.414583 74.421327 
L 447.281842 78.155845 
L 449.771521 82.512783 
L 449.771521 82.823992 
" style="fill:none;stroke:#8c8c8c;stroke-linecap:square;"/>
   </g>
   <g id="line2d_22">
    <path clip-path="url(#p27d19f6b0c)" d="M 459.730236 80.956733 
L 459.730236 80.645523 
L 459.730236 80.645523 
L 459.730236 80.645523 
L 460.352656 81.267943 
L 461.597495 82.512783 
L 461.597495 82.512783 
L 461.286285 82.201573 
L 460.352656 80.334314 
L 460.352656 79.400684 
L 460.975075 79.089474 
L 462.842334 80.956733 
L 462.842334 81.267943 
L 463.153544 81.579153 
L 463.153544 80.334314 
L 463.464754 78.778264 
L 464.398384 77.533425 
L 466.576853 79.711894 
L 467.199272 80.956733 
L 468.132902 81.579153 
" style="fill:none;stroke:#8c8c8c;stroke-linecap:square;"/>
   </g>
   <g id="line2d_23">
    <path clip-path="url(#p27d19f6b0c)" d="M 469.066531 80.334314 
L 469.066531 80.334314 
L 469.066531 80.334314 
L 469.377741 80.023104 
L 469.688951 80.023104 
L 471.86742 79.089474 
L 472.48984 78.155845 
L 471.55621 77.533425 
L 470.622581 78.467055 
L 470.311371 79.711894 
L 473.423469 81.890363 
L 475.601938 81.890363 
L 476.846777 80.645523 
" style="fill:none;stroke:#8c8c8c;stroke-linecap:square;"/>
   </g>
   <g id="line2d_24">
    <path clip-path="url(#p27d19f6b0c)" d="M 478.091617 75.666166 
L 478.091617 75.354956 
L 478.091617 75.043746 
L 478.091617 75.043746 
L 478.402827 75.666166 
L 479.958876 80.334314 
L 480.270086 80.956733 
L 480.581296 82.201573 
L 480.892505 82.201573 
" style="fill:none;stroke:#8c8c8c;stroke-linecap:square;"/>
   </g>
   <g id="line2d_25">
    <path clip-path="url(#p27d19f6b0c)" d="M 484.004604 75.354956 
L 484.004604 75.354956 
L 483.693394 75.354956 
L 483.693394 75.354956 
L 483.693394 75.354956 
L 484.315814 77.533425 
L 486.494283 81.579153 
L 486.805493 81.890363 
L 487.427912 83.135202 
" style="fill:none;stroke:#8c8c8c;stroke-linecap:square;"/>
   </g>
   <g id="line2d_26">
    <path clip-path="url(#p27d19f6b0c)" d="M 484.004604 80.334314 
L 484.004604 80.023104 
L 483.693394 80.023104 
L 484.004604 79.711894 
L 486.805493 78.778264 
" style="fill:none;stroke:#8c8c8c;stroke-linecap:square;"/>
   </g>
   <g id="line2d_27">
    <path clip-path="url(#p27d19f6b0c)" d="M 498.631467 79.089474 
L 498.320257 79.089474 
L 497.697837 79.089474 
L 497.697837 79.400684 
L 497.075417 80.645523 
L 497.386627 81.267943 
L 497.386627 81.267943 
L 499.876306 81.890363 
L 500.187516 80.645523 
L 498.320257 79.400684 
L 497.697837 79.400684 
L 497.386627 79.400684 
" style="fill:none;stroke:#8c8c8c;stroke-linecap:square;"/>
   </g>
   <g id="line2d_28">
    <path clip-path="url(#p27d19f6b0c)" d="M 502.988404 78.467055 
L 502.677195 78.467055 
L 502.677195 78.778264 
L 502.677195 79.089474 
L 502.677195 79.400684 
L 502.677195 79.400684 
L 501.432355 78.155845 
L 498.009047 73.798907 
L 497.386627 73.176487 
L 497.386627 71.620438 
L 498.320257 71.309228 
L 500.809936 71.620438 
" style="fill:none;stroke:#8c8c8c;stroke-linecap:square;"/>
   </g>
   <g id="line2d_29">
    <path clip-path="url(#p27d19f6b0c)" d="M 499.253886 73.798907 
L 498.942676 74.110117 
L 498.631467 74.421327 
L 498.009047 75.043746 
L 500.809936 74.732536 
L 504.544454 73.798907 
" style="fill:none;stroke:#8c8c8c;stroke-linecap:square;"/>
   </g>
   <g id="line2d_30">
    <path clip-path="url(#p27d19f6b0c)" d="M 410.55908 97.762065 
L 410.247871 97.762065 
L 410.247871 97.762065 
L 410.247871 98.073275 
L 410.87029 98.384485 
L 412.737549 98.384485 
L 413.048759 98.384485 
L 413.359969 98.073275 
L 413.671179 97.139645 
L 413.048759 96.517226 
L 411.80392 96.206016 
L 410.87029 96.517226 
L 410.247871 97.139645 
L 411.80392 100.874163 
L 413.671179 103.986262 
L 414.604808 105.542311 
L 414.604808 105.853521 
L 414.604808 105.853521 
" style="fill:none;stroke:#8c8c8c;stroke-linecap:square;"/>
   </g>
   <g id="line2d_31">
    <path clip-path="url(#p27d19f6b0c)" d="M 415.849648 97.450855 
L 415.849648 97.450855 
L 415.538438 97.450855 
L 415.227228 97.450855 
L 415.849648 97.450855 
L 417.094487 96.828435 
L 418.028117 95.894806 
L 416.783277 95.272386 
L 415.538438 95.894806 
L 414.604808 98.073275 
L 417.405697 99.940534 
L 420.829005 99.940534 
L 422.696264 98.384485 
" style="fill:none;stroke:#8c8c8c;stroke-linecap:square;"/>
   </g>
   <g id="line2d_32">
    <path clip-path="url(#p27d19f6b0c)" d="M 422.073845 96.206016 
L 421.762635 95.894806 
L 421.762635 95.894806 
L 422.073845 96.517226 
L 423.941104 97.762065 
L 424.563523 98.384485 
L 424.563523 98.695695 
L 424.252314 98.384485 
L 424.252314 98.384485 
L 424.252314 96.206016 
L 424.874733 94.961176 
L 425.185943 94.338757 
L 425.185943 94.338757 
" style="fill:none;stroke:#8c8c8c;stroke-linecap:square;"/>
   </g>
   <g id="line2d_33">
    <path clip-path="url(#p27d19f6b0c)" d="M 427.675622 94.961176 
L 427.675622 94.961176 
L 428.298042 95.272386 
L 428.920461 95.894806 
L 429.542881 96.517226 
L 429.854091 97.450855 
" style="fill:none;stroke:#8c8c8c;stroke-linecap:square;"/>
   </g>
   <g id="line2d_34">
    <path clip-path="url(#p27d19f6b0c)" d="M 428.298042 93.093917 
L 428.298042 92.782707 
L 427.986832 92.471498 
L 427.986832 92.471498 
L 427.986832 92.471498 
" style="fill:none;stroke:#8c8c8c;stroke-linecap:square;"/>
   </g>
   <g id="line2d_35">
    <path clip-path="url(#p27d19f6b0c)" d="M 435.767078 95.583596 
L 435.767078 95.583596 
L 435.767078 95.583596 
L 435.455868 95.272386 
L 434.833448 95.272386 
L 434.211029 95.272386 
L 432.34377 97.139645 
L 432.34377 97.139645 
L 434.522239 96.517226 
L 435.144658 94.649967 
L 434.833448 92.471498 
L 434.522239 91.537868 
L 434.211029 90.915448 
L 434.833448 93.093917 
L 436.078288 95.272386 
L 437.323127 97.450855 
L 437.634337 97.762065 
L 437.945547 97.762065 
" style="fill:none;stroke:#8c8c8c;stroke-linecap:square;"/>
   </g>
   <g id="line2d_36">
    <path clip-path="url(#p27d19f6b0c)" d="M 440.746435 95.583596 
L 440.746435 95.583596 
L 440.746435 95.583596 
L 440.124016 95.583596 
L 439.501596 95.894806 
L 439.812806 96.828435 
L 441.057645 97.450855 
L 441.368855 97.450855 
L 442.613695 96.206016 
L 441.991275 95.583596 
L 440.746435 95.272386 
L 440.435226 95.583596 
" style="fill:none;stroke:#8c8c8c;stroke-linecap:square;"/>
   </g>
   <g id="line2d_37">
    <path clip-path="url(#p27d19f6b0c)" d="M 446.037003 93.093917 
L 446.348213 92.782707 
L 446.659422 92.782707 
L 446.970632 92.782707 
L 446.970632 92.782707 
L 447.904262 94.027547 
L 448.837891 95.583596 
L 450.393941 97.450855 
L 450.70515 97.450855 
" style="fill:none;stroke:#8c8c8c;stroke-linecap:square;"/>
   </g>
   <g id="line2d_38">
    <path clip-path="url(#p27d19f6b0c)" d="M 448.526682 96.517226 
L 448.526682 96.517226 
L 448.526682 96.517226 
L 448.215472 96.206016 
L 449.149101 95.583596 
L 450.393941 95.272386 
L 451.01636 94.961176 
" style="fill:none;stroke:#8c8c8c;stroke-linecap:square;"/>
   </g>
   <g id="line2d_39">
    <path clip-path="url(#p27d19f6b0c)" d="M 454.128459 94.338757 
L 454.439669 94.338757 
L 454.439669 94.338757 
L 455.062088 94.961176 
L 456.306928 96.206016 
L 456.618138 96.206016 
" style="fill:none;stroke:#8c8c8c;stroke-linecap:square;"/>
   </g>
   <g id="line2d_40">
    <path clip-path="url(#p27d19f6b0c)" d="M 454.750878 92.782707 
L 454.439669 92.471498 
L 453.817249 91.537868 
L 453.817249 91.537868 
L 453.817249 91.226658 
" style="fill:none;stroke:#8c8c8c;stroke-linecap:square;"/>
   </g>
   <g id="line2d_41">
    <path clip-path="url(#p27d19f6b0c)" d="M 457.862977 91.537868 
L 458.174187 91.849078 
L 458.174187 91.849078 
L 458.485397 92.160288 
L 460.352656 94.649967 
L 462.219915 96.828435 
" style="fill:none;stroke:#8c8c8c;stroke-linecap:square;"/>
   </g>
   <g id="line2d_42">
    <path clip-path="url(#p27d19f6b0c)" d="M 460.352656 95.272386 
L 460.041446 94.961176 
L 460.041446 94.961176 
L 460.352656 94.649967 
L 461.286285 94.649967 
L 461.908705 94.338757 
" style="fill:none;stroke:#8c8c8c;stroke-linecap:square;"/>
   </g>
   <g id="line2d_43">
    <path clip-path="url(#p27d19f6b0c)" d="M 464.398384 94.338757 
L 465.020803 94.338757 
L 465.954433 94.338757 
L 467.510482 94.027547 
L 467.821692 93.716337 
L 468.444112 92.782707 
L 467.510482 92.471498 
L 466.265643 93.716337 
L 467.510482 95.272386 
L 470.311371 96.206016 
L 474.045889 96.517226 
" style="fill:none;stroke:#8c8c8c;stroke-linecap:square;"/>
   </g>
   <g id="line2d_44">
    <path clip-path="url(#p27d19f6b0c)" d="M 435.767078 105.853521 
L 435.767078 105.853521 
L 435.455868 105.542311 
L 435.144658 105.542311 
L 434.833448 105.542311 
L 432.654979 107.40957 
L 437.945547 113.011347 
L 439.501596 113.011347 
L 441.680065 112.700138 
" style="fill:none;stroke:#8c8c8c;stroke-linecap:square;"/>
   </g>
   <g id="line2d_45">
    <path clip-path="url(#p27d19f6b0c)" d="M 441.680065 109.588039 
L 441.680065 109.588039 
L 441.680065 109.588039 
L 441.680065 109.588039 
L 442.302485 110.210459 
L 442.924904 111.144088 
L 442.924904 110.832878 
L 442.924904 110.521669 
L 442.613695 108.3432 
L 442.924904 107.40957 
L 443.547324 107.40957 
L 445.725793 109.899249 
L 446.659422 110.521669 
L 446.970632 110.521669 
L 446.970632 110.210459 
L 447.593052 107.09836 
L 448.837891 106.475941 
L 450.70515 108.965619 
L 452.2612 111.144088 
L 452.2612 111.144088 
" style="fill:none;stroke:#8c8c8c;stroke-linecap:square;"/>
   </g>
   <g id="line2d_46">
    <path clip-path="url(#p27d19f6b0c)" d="M 457.551767 107.72078 
L 457.551767 107.72078 
L 457.551767 107.72078 
L 456.929347 107.40957 
L 455.995718 107.40957 
L 454.439669 108.3432 
L 456.618138 110.210459 
L 456.929347 109.899249 
L 457.240557 109.588039 
L 457.862977 107.09836 
L 457.551767 106.475941 
L 457.240557 106.78715 
L 458.174187 108.65441 
L 459.107816 110.832878 
L 459.730236 111.455298 
L 460.352656 111.766508 
" style="fill:none;stroke:#8c8c8c;stroke-linecap:square;"/>
   </g>
   <g id="line2d_47">
    <path clip-path="url(#p27d19f6b0c)" d="M 460.975075 109.276829 
L 460.975075 108.965619 
L 460.975075 108.965619 
L 460.975075 108.965619 
L 461.286285 109.899249 
L 461.908705 110.832878 
L 461.908705 110.832878 
L 461.597495 109.276829 
L 461.908705 108.3432 
L 462.842334 107.40957 
L 463.775964 107.72078 
L 465.643223 109.276829 
L 466.576853 110.521669 
L 466.888062 111.766508 
" style="fill:none;stroke:#8c8c8c;stroke-linecap:square;"/>
   </g>
   <g id="line2d_48">
    <path clip-path="url(#p27d19f6b0c)" d="M 467.510482 104.919891 
L 467.510482 104.919891 
L 467.510482 104.608682 
L 467.510482 104.608682 
L 467.510482 104.919891 
L 469.377741 106.78715 
L 471.55621 109.588039 
L 473.112259 111.144088 
L 473.112259 111.455298 
L 472.801049 111.455298 
" style="fill:none;stroke:#8c8c8c;stroke-linecap:square;"/>
   </g>
   <g id="line2d_49">
    <path clip-path="url(#p27d19f6b0c)" d="M 469.377741 109.276829 
L 469.066531 109.276829 
L 468.755322 108.965619 
L 468.755322 108.65441 
L 469.377741 108.3432 
L 469.688951 108.3432 
L 470.622581 108.03199 
L 473.734679 106.475941 
" style="fill:none;stroke:#8c8c8c;stroke-linecap:square;"/>
   </g>
   <g id="line2d_50">
    <path clip-path="url(#p27d19f6b0c)" d="M 474.668309 103.052632 
L 474.668309 103.052632 
L 474.668309 103.052632 
L 474.979518 103.052632 
L 476.224358 104.919891 
L 478.091617 108.3432 
L 479.025246 109.899249 
" style="fill:none;stroke:#8c8c8c;stroke-linecap:square;"/>
   </g>
   <g id="line2d_51">
    <path clip-path="url(#p27d19f6b0c)" d="M 479.958876 108.65441 
L 479.958876 108.65441 
L 479.958876 108.3432 
L 480.581296 108.03199 
L 481.514925 107.72078 
L 483.070974 105.853521 
L 482.448555 105.231101 
L 481.203715 106.164731 
L 480.581296 106.78715 
L 482.759765 109.899249 
L 484.004604 109.899249 
L 486.183073 109.276829 
" style="fill:none;stroke:#8c8c8c;stroke-linecap:square;"/>
   </g>
   <g id="line2d_52">
    <path clip-path="url(#p27d19f6b0c)" d="M 483.693394 99.629324 
L 483.382184 99.629324 
L 483.382184 99.629324 
L 483.382184 99.629324 
L 484.004604 99.940534 
L 490.851221 104.297472 
L 491.78485 105.231101 
L 492.40727 108.3432 
L 489.917591 110.210459 
" style="fill:none;stroke:#8c8c8c;stroke-linecap:square;"/>
   </g>
   <g id="line2d_53">
    <path clip-path="url(#p27d19f6b0c)" d="M 137.939256 61.350513 
L 137.939256 61.350513 
L 137.939256 61.350513 
L 137.628046 61.350513 
L 137.628046 61.039303 
L 137.628046 61.039303 
L 137.628046 61.039303 
L 137.628046 61.039303 
L 137.316836 61.350513 
L 137.316836 61.661723 
L 137.316836 61.661723 
L 136.071997 62.906562 
L 134.515948 64.773821 
L 132.026269 66.329871 
L 131.715059 66.64108 
L 125.802072 68.19713 
L 124.246023 68.50834 
L 123.312393 68.50834 
L 116.465777 69.130759 
L 112.108839 69.130759 
L 104.951012 69.130759 
L 95.303507 69.753179 
L 93.125038 70.064389 
L 89.07931 70.998018 
L 88.145681 70.686808 
" style="fill:none;stroke:#8c8c8c;stroke-linecap:square;"/>
   </g>
   <g id="line2d_54">
    <path clip-path="url(#p27d19f6b0c)" d="M 132.337479 60.105674 
L 132.337479 60.105674 
L 132.026269 60.105674 
L 132.026269 60.105674 
L 132.026269 60.105674 
L 132.026269 60.105674 
L 132.026269 60.416884 
L 133.271108 60.728093 
L 134.204738 60.728093 
L 136.071997 61.039303 
L 137.316836 61.350513 
L 137.939256 61.350513 
L 138.872886 61.661723 
L 138.872886 61.661723 
L 139.184095 62.284143 
L 139.184095 62.906562 
L 138.872886 63.840192 
L 138.872886 66.95229 
L 138.872886 67.57471 
" style="fill:none;stroke:#8c8c8c;stroke-linecap:square;"/>
   </g>
   <g id="line2d_55">
    <path clip-path="url(#p27d19f6b0c)" d="M 46.443561 62.595352 
L 46.443561 62.595352 
L 46.443561 62.595352 
L 46.443561 62.284143 
L 46.443561 61.972933 
L 45.821142 61.972933 
L 45.509932 61.972933 
L 45.509932 61.972933 
L 43.953883 64.151402 
L 44.576302 65.707451 
L 47.377191 67.57471 
L 50.489289 66.95229 
L 50.489289 66.64108 
L 50.17808 64.773821 
L 48.310821 63.217772 
L 47.065981 62.906562 
L 45.821142 62.595352 
L 45.509932 62.595352 
" style="fill:none;stroke:#8c8c8c;stroke-linecap:square;"/>
   </g>
   <g id="line2d_56">
    <path clip-path="url(#p27d19f6b0c)" d="M 49.24445 58.860834 
L 49.24445 58.860834 
L 49.24445 58.860834 
L 49.24445 58.860834 
L 49.24445 58.860834 
L 50.17808 60.105674 
L 53.912598 64.462612 
L 54.846227 65.396241 
L 56.402277 66.95229 
L 56.402277 67.2635 
" style="fill:none;stroke:#8c8c8c;stroke-linecap:square;"/>
   </g>
   <g id="line2d_57">
    <path clip-path="url(#p27d19f6b0c)" d="M 57.024696 61.350513 
L 57.024696 61.350513 
L 57.024696 61.350513 
L 57.024696 61.350513 
L 57.335906 61.972933 
L 58.580745 63.840192 
L 59.203165 64.462612 
L 60.136795 66.018661 
" style="fill:none;stroke:#8c8c8c;stroke-linecap:square;"/>
   </g>
   <g id="line2d_58">
    <path clip-path="url(#p27d19f6b0c)" d="M 54.535017 58.549624 
L 54.535017 58.238415 
L 54.535017 58.238415 
L 54.223808 57.615995 
L 54.535017 57.615995 
L 54.535017 57.615995 
" style="fill:none;stroke:#8c8c8c;stroke-linecap:square;"/>
   </g>
   <g id="line2d_59">
    <path clip-path="url(#p27d19f6b0c)" d="M 61.070424 60.728093 
L 61.070424 60.728093 
L 60.759214 60.416884 
L 60.759214 60.416884 
L 60.448005 60.416884 
L 62.004054 62.906562 
L 62.937683 63.840192 
L 65.738572 65.396241 
L 66.360992 65.396241 
L 66.983411 64.151402 
L 66.983411 62.906562 
L 65.427362 59.794464 
L 65.116152 59.483254 
L 65.116152 59.172044 
L 64.804942 58.860834 
" style="fill:none;stroke:#8c8c8c;stroke-linecap:square;"/>
   </g>
   <g id="line2d_60">
    <path clip-path="url(#p27d19f6b0c)" d="M 70.717929 60.416884 
L 70.717929 60.416884 
L 70.717929 60.728093 
L 71.029139 61.039303 
L 72.273979 62.595352 
L 72.896398 64.151402 
" style="fill:none;stroke:#8c8c8c;stroke-linecap:square;"/>
   </g>
   <g id="line2d_61">
    <path clip-path="url(#p27d19f6b0c)" d="M 68.85067 58.860834 
L 68.85067 58.549624 
L 68.228251 57.615995 
L 67.917041 56.993575 
L 67.917041 56.993575 
" style="fill:none;stroke:#8c8c8c;stroke-linecap:square;"/>
   </g>
   <g id="line2d_62">
    <path clip-path="url(#p27d19f6b0c)" d="M 74.452448 59.794464 
L 74.452448 59.794464 
L 74.452448 59.794464 
L 74.763657 60.416884 
L 76.008497 61.972933 
L 77.564546 63.528982 
L 77.564546 63.217772 
L 77.253336 63.217772 
L 76.008497 60.105674 
L 76.008497 59.172044 
L 77.253336 58.860834 
L 79.431805 60.105674 
L 80.987854 61.350513 
L 81.299064 61.972933 
L 81.610274 62.284143 
" style="fill:none;stroke:#8c8c8c;stroke-linecap:square;"/>
   </g>
   <g id="line2d_63">
    <path clip-path="url(#p27d19f6b0c)" d="M 81.921484 61.661723 
L 81.921484 61.661723 
L 82.232694 61.350513 
L 82.855113 61.039303 
L 83.477533 60.728093 
L 84.722372 57.927205 
L 84.411163 57.304785 
L 83.477533 56.682365 
L 82.543904 57.615995 
L 82.543904 60.105674 
L 89.70173 62.284143 
L 90.946569 61.661723 
" style="fill:none;stroke:#8c8c8c;stroke-linecap:square;"/>
   </g>
   <g id="line2d_64">
    <path clip-path="url(#p27d19f6b0c)" d="M 31.505489 86.558511 
L 31.816699 86.86972 
L 32.127909 87.18093 
L 33.995168 87.49214 
L 35.240007 87.18093 
L 36.173637 86.558511 
L 36.484846 85.313671 
L 36.484846 85.313671 
L 35.862427 84.691251 
L 33.372748 83.757622 
L 32.127909 83.757622 
L 30.883069 84.068832 
L 30.883069 85.624881 
L 32.127909 87.80335 
L 34.928797 93.716337 
L 35.240007 94.649967 
L 35.551217 94.961176 
" style="fill:none;stroke:#8c8c8c;stroke-linecap:square;"/>
   </g>
   <g id="line2d_65">
    <path clip-path="url(#p27d19f6b0c)" d="M 37.418476 84.691251 
L 37.418476 85.002461 
L 37.107266 85.002461 
L 37.107266 85.313671 
L 38.663315 86.247301 
L 42.086624 85.624881 
L 42.397833 85.313671 
L 42.397833 83.446412 
L 42.086624 82.823992 
L 41.775414 82.512783 
L 42.086624 83.446412 
L 44.265093 88.736979 
L 44.887512 89.359399 
L 46.443561 91.226658 
L 46.443561 90.915448 
" style="fill:none;stroke:#8c8c8c;stroke-linecap:square;"/>
   </g>
   <g id="line2d_66">
    <path clip-path="url(#p27d19f6b0c)" d="M 43.953883 83.757622 
L 43.953883 83.446412 
L 43.953883 83.757622 
L 44.265093 83.757622 
L 46.132352 85.002461 
L 47.377191 86.247301 
L 47.688401 86.558511 
L 47.688401 86.558511 
L 46.443561 85.313671 
L 46.443561 83.446412 
L 47.065981 82.512783 
L 47.688401 81.890363 
L 47.999611 81.579153 
" style="fill:none;stroke:#8c8c8c;stroke-linecap:square;"/>
   </g>
   <g id="line2d_67">
    <path clip-path="url(#p27d19f6b0c)" d="M 51.111709 82.512783 
L 51.111709 82.512783 
L 51.111709 82.512783 
L 50.489289 82.512783 
L 50.489289 82.512783 
L 50.17808 82.512783 
L 50.17808 82.512783 
L 50.17808 82.512783 
L 50.17808 82.512783 
L 50.17808 82.512783 
L 50.17808 82.823992 
L 50.800499 83.446412 
L 51.111709 84.068832 
L 54.223808 84.380042 
L 54.223808 84.380042 
L 54.846227 84.068832 
L 54.535017 82.201573 
L 52.978968 81.890363 
L 51.422919 82.201573 
L 50.489289 82.201573 
" style="fill:none;stroke:#8c8c8c;stroke-linecap:square;"/>
   </g>
   <g id="line2d_68">
    <path clip-path="url(#p27d19f6b0c)" d="M 61.070424 80.645523 
L 61.070424 80.645523 
L 61.070424 80.645523 
L 60.759214 80.645523 
L 60.759214 81.579153 
L 60.448005 85.002461 
L 60.136795 85.313671 
" style="fill:none;stroke:#8c8c8c;stroke-linecap:square;"/>
   </g>
   <g id="line2d_69">
    <path clip-path="url(#p27d19f6b0c)" d="M 56.402277 81.579153 
L 56.091067 81.267943 
L 56.091067 81.267943 
L 56.091067 81.267943 
L 57.958326 81.890363 
L 62.004054 83.757622 
L 64.493733 84.691251 
L 65.116152 85.002461 
L 65.738572 85.002461 
" style="fill:none;stroke:#8c8c8c;stroke-linecap:square;"/>
   </g>
   <g id="line2d_70">
    <path clip-path="url(#p27d19f6b0c)" d="M 64.493733 81.890363 
L 64.493733 81.890363 
L 64.804942 81.890363 
L 65.427362 81.890363 
L 66.049782 81.579153 
L 66.983411 80.334314 
L 65.427362 78.778264 
L 64.182523 78.467055 
L 63.871313 78.778264 
L 64.493733 81.267943 
L 68.539461 83.135202 
L 71.962769 82.823992 
L 72.585188 81.890363 
" style="fill:none;stroke:#8c8c8c;stroke-linecap:square;"/>
   </g>
   <g id="line2d_71">
    <path clip-path="url(#p27d19f6b0c)" d="M 72.273979 79.089474 
L 72.273979 79.089474 
L 72.273979 79.089474 
L 72.273979 79.400684 
L 73.207608 81.267943 
L 74.452448 82.201573 
L 74.452448 82.512783 
L 74.452448 82.512783 
L 73.830028 80.023104 
L 74.452448 79.089474 
L 76.630916 79.400684 
L 78.498176 80.956733 
L 79.431805 81.579153 
L 79.431805 81.579153 
" style="fill:none;stroke:#8c8c8c;stroke-linecap:square;"/>
   </g>
   <g id="line2d_72">
    <path clip-path="url(#p27d19f6b0c)" d="M 79.743015 81.267943 
L 80.054225 80.956733 
L 80.987854 80.645523 
L 82.232694 79.711894 
L 82.855113 78.155845 
L 80.987854 77.844635 
L 80.676644 80.023104 
L 83.166323 82.512783 
L 87.523261 81.890363 
L 89.39052 80.956733 
" style="fill:none;stroke:#8c8c8c;stroke-linecap:square;"/>
   </g>
   <g id="line2d_73">
    <path clip-path="url(#p27d19f6b0c)" d="M 135.760787 56.682365 
L 135.760787 56.682365 
L 136.071997 56.682365 
L 136.071997 56.682365 
L 136.383207 56.682365 
L 137.628046 56.371156 
L 138.250466 56.371156 
L 139.184095 56.059946 
L 140.117725 56.059946 
L 140.740145 55.748736 
L 142.296194 55.126316 
L 142.918614 55.126316 
L 143.541033 54.815106 
L 144.474663 54.503896 
L 144.785873 54.503896 
L 145.097082 54.192687 
L 145.719502 53.881477 
L 146.030712 53.570267 
L 146.341922 53.570267 
L 146.341922 53.570267 
L 146.653132 53.570267 
L 146.964342 53.570267 
L 146.964342 53.570267 
L 146.964342 53.570267 
L 146.964342 53.881477 
L 146.964342 54.503896 
L 146.964342 54.815106 
L 146.653132 55.437526 
L 146.030712 56.993575 
L 146.030712 57.304785 
L 145.719502 58.238415 
L 145.719502 59.483254 
L 145.097082 60.728093 
L 144.785873 61.350513 
L 144.785873 61.972933 
L 144.163453 63.217772 
L 143.852243 64.462612 
L 143.541033 65.085031 
L 143.229823 65.707451 
L 143.229823 66.018661 
L 142.607404 66.64108 
L 142.296194 66.95229 
L 141.051354 67.57471 
L 140.740145 67.57471 
L 140.117725 67.57471 
L 139.184095 67.57471 
L 138.872886 67.88592 
L 138.250466 67.88592 
L 137.316836 67.88592 
L 136.694417 67.88592 
L 135.449577 68.19713 
L 135.138367 68.19713 
L 134.827158 68.19713 
L 134.827158 68.19713 
L 134.827158 68.19713 
" style="fill:none;stroke:#8c8c8c;stroke-linecap:square;"/>
   </g>
   <g id="line2d_74">
    <path clip-path="url(#p27d19f6b0c)" d="M 134.827158 56.682365 
L 134.827158 56.682365 
L 134.827158 56.682365 
L 134.827158 56.682365 
L 134.827158 56.682365 
L 135.138367 57.304785 
L 135.449577 57.927205 
L 136.071997 58.860834 
L 136.694417 60.105674 
L 137.316836 60.728093 
L 138.872886 63.528982 
L 139.184095 65.085031 
L 139.495305 66.329871 
L 139.495305 67.2635 
L 139.495305 68.19713 
L 139.495305 68.819549 
L 139.495305 70.064389 
L 139.495305 70.375599 
L 139.184095 70.375599 
" style="fill:none;stroke:#8c8c8c;stroke-linecap:square;"/>
   </g>
   <g id="line2d_75">
    <path clip-path="url(#p27d19f6b0c)" d="M 216.986557 17.469925 
L 216.986557 17.781135 
L 216.986557 17.781135 
L 216.675347 17.781135 
L 216.675347 18.092345 
L 216.364137 18.403554 
L 215.741717 19.025974 
L 214.496878 20.270814 
L 214.185668 20.582023 
L 213.563248 21.515653 
L 213.563248 21.826863 
L 213.563248 22.138073 
L 213.874458 22.138073 
L 214.496878 22.138073 
L 216.675347 22.760492 
L 217.297767 22.760492 
L 218.231396 22.760492 
L 219.787445 23.071702 
L 220.409865 23.071702 
L 220.721075 23.071702 
L 222.277124 23.382912 
L 222.588334 23.382912 
L 223.210754 23.694122 
L 224.144383 24.005332 
L 224.144383 24.316541 
L 224.144383 24.316541 
L 224.455593 24.627751 
L 224.766803 24.627751 
L 224.766803 24.627751 
L 225.078013 24.316541 
L 225.078013 24.316541 
L 225.389223 23.382912 
L 225.389223 23.071702 
L 225.389223 22.449282 
L 225.389223 21.515653 
L 225.389223 21.515653 
L 225.389223 20.893233 
L 225.389223 20.893233 
L 225.389223 20.582023 
L 225.389223 20.582023 
L 225.389223 20.582023 
L 225.389223 20.582023 
L 225.078013 20.270814 
L 224.766803 19.959604 
L 224.144383 19.648394 
L 223.833173 19.648394 
L 223.210754 19.337184 
L 223.210754 19.337184 
L 222.899544 19.337184 
L 222.277124 19.025974 
L 221.965914 18.714764 
L 221.343495 18.403554 
L 221.032285 18.092345 
L 220.721075 18.092345 
L 220.721075 17.781135 
L 220.409865 17.469925 
L 220.409865 17.469925 
L 219.787445 17.158715 
L 219.476235 16.847505 
L 219.165026 16.847505 
L 219.165026 16.847505 
L 217.920186 16.847505 
L 217.608976 17.158715 
L 216.986557 17.158715 
" style="fill:none;stroke:#8c8c8c;stroke-linecap:square;"/>
   </g>
   <g id="line2d_76">
    <path clip-path="url(#p27d19f6b0c)" d="M 62.626473 208.24156 
L 62.626473 208.55277 
L 61.692844 208.86398 
L 59.514375 209.797609 
L 58.891955 209.797609 
L 58.580745 209.797609 
" style="fill:none;stroke:#8c8c8c;stroke-linecap:square;"/>
   </g>
  </g>
 </g>
 <defs>
  <clipPath id="p27d19f6b0c">
   <rect height="212.245114" width="521.027523" x="7.2" y="7.2"/>
  </clipPath>
 </defs>
</svg>
