<?xml version="1.0" encoding="utf-8" standalone="no"?>
<!DOCTYPE svg PUBLIC "-//W3C//DTD SVG 1.1//EN"
  "http://www.w3.org/Graphics/SVG/1.1/DTD/svg11.dtd">
<!-- Created with matplotlib (https://matplotlib.org/) -->
<svg height="106.223275pt" version="1.1" viewBox="0 0 535.427523 106.223275" width="535.427523pt" xmlns="http://www.w3.org/2000/svg" xmlns:xlink="http://www.w3.org/1999/xlink">
 <metadata>
  <rdf:RDF xmlns:cc="http://creativecommons.org/ns#" xmlns:dc="http://purl.org/dc/elements/1.1/" xmlns:rdf="http://www.w3.org/1999/02/22-rdf-syntax-ns#">
   <cc:Work>
    <dc:type rdf:resource="http://purl.org/dc/dcmitype/StillImage"/>
    <dc:date>2024-11-15T16:03:35.148742</dc:date>
    <dc:format>image/svg+xml</dc:format>
    <dc:creator>
     <cc:Agent>
      <dc:title>Matplotlib v3.3.4, https://matplotlib.org/</dc:title>
     </cc:Agent>
    </dc:creator>
   </cc:Work>
  </rdf:RDF>
 </metadata>
 <defs>
  <style type="text/css">*{stroke-linecap:butt;stroke-linejoin:round;}</style>
 </defs>
 <g id="figure_1">
  <g id="patch_1">
   <path d="M 0 106.223275 
L 535.427523 106.223275 
L 535.427523 -0 
L 0 -0 
z
" style="fill:#ffffff;"/>
  </g>
  <g id="axes_1">
   <g id="line2d_1">
    <path clip-path="url(#p137c772fe0)" d="M 31.515461 94.84949 
L 31.515461 94.84949 
L 31.515461 94.84949 
L 30.883069 94.84949 
L 30.883069 94.84949 
L 30.883069 94.84949 
L 30.883069 94.84949 
L 34.677419 92.319923 
L 40.368945 88.525573 
L 45.428078 85.996006 
L 50.487212 83.466439 
L 59.340696 79.672089 
L 68.826571 75.877739 
L 69.458963 75.877739 
L 82.739189 72.71578 
L 89.695497 72.083389 
L 99.813765 72.083389 
L 108.034857 72.083389 
L 116.255949 73.348172 
L 118.153124 73.980564 
L 131.43335 77.142522 
L 139.654442 78.407306 
L 149.140317 80.304481 
L 163.052935 84.098831 
L 163.685327 84.098831 
L 178.862727 87.893181 
L 188.348603 90.422748 
L 196.569695 92.319923 
L 207.952746 94.217098 
L 216.806229 94.84949 
L 240.204722 93.584706 
L 247.161031 91.687531 
L 252.852556 89.790356 
L 262.970824 84.731223 
L 268.029957 80.936872 
L 283.83975 70.186213 
L 287.6341 67.024255 
L 291.42845 62.597513 
L 292.060842 61.965121 
" style="fill:none;stroke:#8c8c8c;stroke-linecap:square;"/>
   </g>
   <g id="line2d_2">
    <path clip-path="url(#p137c772fe0)" d="M 314.194552 29.713145 
L 314.194552 30.345536 
L 314.826943 30.345536 
L 315.459335 30.977928 
L 317.35651 30.977928 
L 331.901519 32.242711 
L 337.593044 32.242711 
L 342.019786 32.242711 
L 345.181745 33.507495 
L 345.181745 33.507495 
L 340.755003 39.19902 
L 336.328261 46.787721 
L 335.695869 52.479246 
L 335.695869 55.641204 
L 335.063478 55.641204 
" style="fill:none;stroke:#8c8c8c;stroke-linecap:square;"/>
   </g>
   <g id="line2d_3">
    <path clip-path="url(#p137c772fe0)" d="M 357.829579 30.977928 
L 357.829579 30.345536 
L 358.461971 29.713145 
L 359.094362 29.080753 
L 362.888713 26.551186 
L 368.580238 24.654011 
L 369.845021 26.551186 
L 367.947846 30.977928 
L 362.256321 41.728587 
L 364.153496 46.787721 
L 372.374588 46.787721 
L 381.228072 44.258154 
L 383.757639 43.625762 
" style="fill:none;stroke:#8c8c8c;stroke-linecap:square;"/>
   </g>
   <g id="line2d_4">
    <path clip-path="url(#p137c772fe0)" d="M 393.875906 30.345536 
L 393.875906 30.345536 
L 393.243514 30.345536 
L 391.346339 29.713145 
L 391.346339 29.713145 
L 386.287206 32.875103 
L 386.919597 36.037062 
L 394.508298 38.566628 
L 402.096998 37.934237 
L 405.258957 36.037062 
L 405.891348 34.772278 
L 398.302648 28.448361 
L 390.081556 29.080753 
L 386.287206 29.713145 
" style="fill:none;stroke:#8c8c8c;stroke-linecap:square;"/>
   </g>
   <g id="line2d_5">
    <path clip-path="url(#p137c772fe0)" d="M 419.171574 25.918794 
L 419.171574 25.918794 
L 418.539182 25.286403 
L 417.906791 25.286403 
L 416.642007 25.918794 
L 415.377224 28.448361 
L 417.906791 32.242711 
L 426.760274 34.139886 
L 429.289841 33.507495 
L 431.819408 30.977928 
L 430.554625 27.815969 
L 424.863099 25.918794 
L 417.906791 26.551186 
L 417.274399 26.551186 
" style="fill:none;stroke:#8c8c8c;stroke-linecap:square;"/>
   </g>
   <g id="line2d_6">
    <path clip-path="url(#p137c772fe0)" d="M 448.893984 21.492052 
L 448.261592 21.492052 
L 447.629201 21.492052 
L 444.467242 22.124444 
L 442.570067 27.183578 
L 446.996809 31.61032 
L 459.012251 30.977928 
L 460.909426 29.080753 
L 458.379859 25.286403 
L 450.158767 22.756836 
L 443.202459 22.756836 
L 439.408108 24.021619 
" style="fill:none;stroke:#8c8c8c;stroke-linecap:square;"/>
   </g>
   <g id="line2d_7">
    <path clip-path="url(#p137c772fe0)" d="M 476.719219 11.373785 
L 476.719219 11.373785 
L 476.719219 11.373785 
L 476.086827 11.373785 
L 477.351611 12.006177 
L 479.248786 16.432919 
L 482.410744 23.389228 
L 483.675528 25.918794 
L 486.837486 33.507495 
L 486.837486 33.507495 
L 486.205094 32.875103 
" style="fill:none;stroke:#8c8c8c;stroke-linecap:square;"/>
   </g>
   <g id="line2d_8">
    <path clip-path="url(#p137c772fe0)" d="M 493.793795 12.638569 
L 493.793795 12.638569 
L 493.793795 12.638569 
L 493.793795 12.638569 
L 493.161403 13.27096 
L 489.367053 15.800527 
L 484.940311 18.962486 
L 482.410744 20.859661 
L 481.778352 20.859661 
L 483.675528 22.756836 
L 491.89662 25.286403 
L 500.117712 28.448361 
L 504.544454 30.977928 
L 503.912062 30.977928 
" style="fill:none;stroke:#8c8c8c;stroke-linecap:square;"/>
   </g>
  </g>
 </g>
 <defs>
  <clipPath id="p137c772fe0">
   <rect height="91.823275" width="521.027523" x="7.2" y="7.2"/>
  </clipPath>
 </defs>
</svg>
