<?xml version="1.0" encoding="utf-8" standalone="no"?>
<!DOCTYPE svg PUBLIC "-//W3C//DTD SVG 1.1//EN"
  "http://www.w3.org/Graphics/SVG/1.1/DTD/svg11.dtd">
<!-- Created with matplotlib (https://matplotlib.org/) -->
<svg height="286.2pt" version="1.1" viewBox="0 0 362.845753 286.2" width="362.845753pt" xmlns="http://www.w3.org/2000/svg" xmlns:xlink="http://www.w3.org/1999/xlink">
 <metadata>
  <rdf:RDF xmlns:cc="http://creativecommons.org/ns#" xmlns:dc="http://purl.org/dc/elements/1.1/" xmlns:rdf="http://www.w3.org/1999/02/22-rdf-syntax-ns#">
   <cc:Work>
    <dc:type rdf:resource="http://purl.org/dc/dcmitype/StillImage"/>
    <dc:date>2024-11-15T16:03:35.264819</dc:date>
    <dc:format>image/svg+xml</dc:format>
    <dc:creator>
     <cc:Agent>
      <dc:title>Matplotlib v3.3.4, https://matplotlib.org/</dc:title>
     </cc:Agent>
    </dc:creator>
   </cc:Work>
  </rdf:RDF>
 </metadata>
 <defs>
  <style type="text/css">*{stroke-linecap:butt;stroke-linejoin:round;}</style>
 </defs>
 <g id="figure_1">
  <g id="patch_1">
   <path d="M 0 286.2 
L 362.845753 286.2 
L 362.845753 0 
L 0 0 
z
" style="fill:#ffffff;"/>
  </g>
  <g id="axes_1">
   <g id="line2d_1">
    <path clip-path="url(#p8920684b41)" d="M 117.061711 83.915711 
L 117.061711 83.63588 
L 117.061711 83.63588 
L 117.061711 83.356049 
L 117.061711 83.076217 
L 117.061711 83.076217 
L 117.061711 82.796386 
L 117.061711 82.796386 
L 117.061711 82.236724 
L 117.061711 81.956893 
L 117.061711 81.956893 
L 117.061711 81.397231 
L 117.061711 81.117399 
L 117.061711 80.837568 
L 117.061711 80.837568 
L 117.061711 79.998075 
L 117.061711 79.718244 
L 117.061711 79.158581 
L 117.061711 78.598919 
L 117.061711 78.319088 
L 117.061711 77.759426 
L 116.78188 77.479594 
L 116.78188 77.199763 
L 116.78188 76.36027 
L 116.502049 75.800607 
L 116.222218 75.520776 
L 116.222218 74.961114 
L 116.222218 74.681283 
L 116.222218 74.121621 
L 116.222218 73.841789 
L 116.222218 73.282127 
L 116.222218 73.282127 
L 116.222218 72.722465 
L 116.222218 72.162802 
L 116.502049 71.882971 
L 116.502049 71.60314 
L 116.502049 71.323309 
L 116.502049 70.483816 
L 116.502049 70.203984 
L 116.502049 69.924153 
L 116.502049 69.08466 
L 116.502049 69.08466 
L 116.502049 67.965335 
L 116.502049 67.405673 
L 116.502049 66.846011 
L 116.78188 66.006517 
L 116.78188 65.446855 
L 116.78188 64.047699 
L 116.78188 63.208205 
L 116.78188 62.648543 
L 116.78188 61.80905 
L 117.061711 61.249387 
L 117.061711 60.689725 
L 117.061711 60.130063 
L 117.061711 59.5704 
L 117.061711 59.010738 
L 117.061711 57.891414 
L 117.061711 57.331751 
L 117.061711 56.492258 
" style="fill:none;stroke:#8c8c8c;stroke-linecap:square;"/>
   </g>
   <g id="line2d_2">
    <path clip-path="url(#p8920684b41)" d="M 115.382724 81.956893 
L 115.382724 81.956893 
L 115.382724 81.677062 
L 115.382724 81.677062 
L 115.382724 81.677062 
L 115.382724 81.677062 
L 115.382724 81.677062 
L 115.382724 81.677062 
L 115.662555 81.677062 
L 115.942386 81.677062 
L 116.222218 81.956893 
L 116.222218 81.956893 
L 116.78188 82.516555 
L 116.78188 82.516555 
L 117.341542 83.076217 
L 117.621373 83.356049 
L 117.621373 83.63588 
L 117.621373 83.63588 
L 117.621373 83.63588 
L 117.621373 83.63588 
L 117.621373 83.356049 
L 117.621373 83.076217 
L 117.621373 82.516555 
L 117.901205 81.677062 
L 118.181036 80.277906 
L 118.460867 79.718244 
L 118.460867 79.158581 
" style="fill:none;stroke:#8c8c8c;stroke-linecap:square;"/>
   </g>
   <g id="line2d_3">
    <path clip-path="url(#p8920684b41)" d="M 171.908617 69.644322 
L 171.628786 69.644322 
L 171.628786 69.644322 
L 171.628786 69.364491 
L 171.069124 69.364491 
L 170.509462 69.644322 
L 170.509462 71.323309 
L 170.789293 72.442634 
L 171.069124 72.442634 
L 172.46828 74.121621 
L 173.867435 74.961114 
L 175.266591 74.961114 
L 177.50524 74.121621 
L 178.064903 73.841789 
L 178.624565 72.442634 
L 178.624565 71.60314 
L 178.064903 70.483816 
L 177.50524 69.924153 
L 176.665747 69.364491 
L 174.706929 68.245166 
L 173.027942 68.245166 
L 171.348955 68.524997 
L 169.669968 68.804829 
" style="fill:none;stroke:#8c8c8c;stroke-linecap:square;"/>
   </g>
   <g id="line2d_4">
    <path clip-path="url(#p8920684b41)" d="M 173.027942 70.203984 
L 173.027942 70.203984 
L 173.027942 70.203984 
L 173.027942 70.203984 
L 173.027942 70.203984 
L 173.027942 70.763647 
L 173.587604 71.882971 
L 174.147267 73.282127 
L 174.147267 73.561958 
L 173.867435 73.561958 
" style="fill:none;stroke:#8c8c8c;stroke-linecap:square;"/>
   </g>
   <g id="line2d_5">
    <path clip-path="url(#p8920684b41)" d="M 172.188448 69.924153 
L 172.188448 69.644322 
L 172.188448 69.644322 
L 172.188448 69.644322 
L 172.188448 69.644322 
L 172.46828 69.364491 
L 173.027942 69.364491 
L 173.587604 69.364491 
L 174.427098 69.924153 
L 174.706929 71.043478 
L 174.427098 71.323309 
L 173.587604 71.882971 
L 173.307773 71.882971 
" style="fill:none;stroke:#8c8c8c;stroke-linecap:square;"/>
   </g>
   <g id="line2d_6">
    <path clip-path="url(#p8920684b41)" d="M 181.422877 67.965335 
L 181.422877 67.685504 
L 181.422877 67.685504 
L 181.422877 67.685504 
L 181.422877 67.685504 
L 181.143045 67.965335 
L 180.583383 68.245166 
L 180.303552 68.524997 
L 180.023721 69.08466 
L 179.464058 70.483816 
L 179.464058 70.763647 
L 179.74389 71.323309 
L 179.74389 71.60314 
L 180.023721 72.722465 
L 180.023721 72.722465 
L 180.303552 73.002296 
L 181.143045 73.841789 
L 181.982539 74.121621 
L 183.381695 74.681283 
L 185.340513 74.681283 
L 185.620344 74.401452 
L 187.579162 73.841789 
L 188.698487 73.282127 
L 189.53798 72.442634 
L 189.817811 71.882971 
L 190.097642 71.323309 
L 189.53798 69.924153 
L 188.978318 69.364491 
L 187.579162 67.965335 
L 186.459837 67.125842 
L 186.180006 67.125842 
L 181.982539 66.566179 
L 180.863214 66.566179 
L 180.023721 66.846011 
" style="fill:none;stroke:#8c8c8c;stroke-linecap:square;"/>
   </g>
   <g id="line2d_7">
    <path clip-path="url(#p8920684b41)" d="M 182.542201 72.162802 
L 182.542201 72.162802 
L 182.542201 72.162802 
L 182.822032 72.442634 
L 182.822032 72.442634 
L 183.101863 72.162802 
L 183.381695 71.60314 
L 183.381695 71.043478 
L 183.381695 70.483816 
L 183.101863 69.924153 
L 183.101863 69.364491 
L 183.101863 69.08466 
L 183.101863 69.08466 
L 183.101863 68.804829 
L 183.101863 69.364491 
L 183.101863 69.644322 
L 183.941357 70.763647 
L 184.221188 71.043478 
L 185.060682 71.882971 
L 186.180006 72.442634 
L 186.459837 72.442634 
L 187.0195 72.722465 
L 187.0195 73.002296 
L 187.299331 72.722465 
L 187.299331 72.162802 
L 187.299331 71.60314 
L 186.739668 69.924153 
L 186.459837 69.364491 
L 186.459837 68.524997 
" style="fill:none;stroke:#8c8c8c;stroke-linecap:square;"/>
   </g>
   <g id="line2d_8">
    <path clip-path="url(#p8920684b41)" d="M 180.583383 66.286348 
L 180.583383 66.286348 
L 180.583383 66.286348 
L 180.583383 66.286348 
L 180.583383 66.286348 
L 180.863214 66.286348 
L 180.863214 66.286348 
L 180.863214 66.286348 
L 180.863214 66.286348 
L 180.863214 66.286348 
L 180.863214 66.286348 
L 180.583383 66.566179 
L 179.464058 68.245166 
L 179.184227 68.524997 
" style="fill:none;stroke:#8c8c8c;stroke-linecap:square;"/>
   </g>
   <g id="line2d_9">
    <path clip-path="url(#p8920684b41)" d="M 215.842109 67.965335 
L 215.842109 67.965335 
L 215.842109 67.965335 
L 215.842109 67.965335 
L 215.842109 67.685504 
L 215.562277 67.685504 
L 215.282446 67.685504 
L 214.722784 67.685504 
L 214.722784 67.685504 
L 213.88329 68.245166 
L 213.603459 68.804829 
L 213.043797 69.644322 
L 212.763966 70.483816 
L 212.763966 71.323309 
L 212.763966 71.60314 
L 213.603459 73.002296 
L 214.163122 73.282127 
L 215.842109 74.401452 
L 216.681602 74.681283 
L 216.961433 74.681283 
L 217.521095 74.681283 
L 218.920251 74.681283 
L 219.759745 74.401452 
L 220.879069 73.561958 
L 221.438732 72.722465 
L 221.718563 71.882971 
L 221.718563 71.60314 
L 221.438732 70.203984 
L 221.1589 69.924153 
L 220.319407 69.364491 
L 218.920251 68.524997 
L 217.521095 67.965335 
L 216.401771 67.685504 
L 216.12194 67.685504 
L 215.562277 67.405673 
L 213.603459 67.405673 
" style="fill:none;stroke:#8c8c8c;stroke-linecap:square;"/>
   </g>
   <g id="line2d_10">
    <path clip-path="url(#p8920684b41)" d="M 224.237043 67.405673 
L 224.237043 67.405673 
L 224.237043 67.405673 
L 224.237043 67.125842 
L 223.677381 67.125842 
L 223.117719 67.405673 
L 223.117719 67.685504 
L 222.558056 68.524997 
L 222.278225 69.364491 
L 222.558056 70.483816 
L 223.117719 71.323309 
L 223.957212 72.162802 
L 224.237043 72.442634 
L 225.91603 73.282127 
L 227.315186 73.841789 
L 228.43451 73.841789 
L 229.553835 73.282127 
L 230.952991 72.162802 
L 231.512653 70.203984 
L 231.232822 69.08466 
L 230.393329 67.965335 
L 229.274004 67.125842 
L 227.315186 66.286348 
L 224.237043 66.286348 
L 222.837887 66.566179 
L 222.278225 66.846011 
" style="fill:none;stroke:#8c8c8c;stroke-linecap:square;"/>
   </g>
   <g id="line2d_11">
    <path clip-path="url(#p8920684b41)" d="M 215.002615 69.644322 
L 215.002615 69.644322 
L 215.002615 69.644322 
L 215.002615 69.644322 
L 215.002615 70.203984 
L 215.282446 70.763647 
L 215.562277 71.323309 
L 216.401771 73.002296 
L 216.681602 73.841789 
" style="fill:none;stroke:#8c8c8c;stroke-linecap:square;"/>
   </g>
   <g id="line2d_12">
    <path clip-path="url(#p8920684b41)" d="M 214.163122 69.08466 
L 214.163122 68.804829 
L 214.163122 68.804829 
L 214.442953 68.804829 
L 215.002615 68.524997 
L 216.681602 68.804829 
L 217.521095 69.08466 
L 217.521095 69.644322 
L 217.241264 69.924153 
L 216.12194 71.323309 
L 216.12194 71.60314 
L 215.842109 71.60314 
" style="fill:none;stroke:#8c8c8c;stroke-linecap:square;"/>
   </g>
   <g id="line2d_13">
    <path clip-path="url(#p8920684b41)" d="M 225.356368 71.882971 
L 225.356368 71.882971 
L 225.356368 71.882971 
L 225.356368 71.60314 
L 225.076537 71.60314 
L 224.516874 71.043478 
L 224.516874 70.763647 
L 223.957212 69.644322 
L 223.39755 69.08466 
L 223.39755 68.804829 
L 223.39755 68.804829 
L 223.39755 68.804829 
L 224.516874 69.364491 
L 225.356368 70.203984 
L 226.195861 70.763647 
L 226.755524 71.323309 
L 227.315186 71.60314 
L 227.874848 71.60314 
L 227.874848 71.043478 
L 227.315186 69.924153 
L 226.195861 68.524997 
L 225.636199 67.685504 
L 225.636199 67.685504 
" style="fill:none;stroke:#8c8c8c;stroke-linecap:square;"/>
   </g>
   <g id="line2d_14">
    <path clip-path="url(#p8920684b41)" d="M 198.772408 66.286348 
L 198.772408 66.286348 
L 198.772408 66.286348 
L 198.492577 66.286348 
L 198.492577 66.286348 
L 198.772408 67.125842 
L 199.33207 68.804829 
L 199.611902 69.644322 
L 200.451395 71.882971 
" style="fill:none;stroke:#8c8c8c;stroke-linecap:square;"/>
   </g>
   <g id="line2d_15">
    <path clip-path="url(#p8920684b41)" d="M 196.81359 69.08466 
L 196.81359 69.08466 
L 196.533759 69.08466 
L 196.253928 69.08466 
L 196.81359 69.08466 
L 197.653083 68.804829 
L 202.690044 67.685504 
" style="fill:none;stroke:#8c8c8c;stroke-linecap:square;"/>
   </g>
   <g id="line2d_16">
    <path clip-path="url(#p8920684b41)" d="M 238.508432 69.08466 
L 238.508432 69.08466 
L 238.508432 69.08466 
L 238.508432 69.08466 
L 239.347925 69.08466 
L 239.627757 69.08466 
L 241.026912 69.08466 
L 242.426068 69.08466 
L 243.545393 69.08466 
L 246.063873 69.08466 
L 248.582354 68.804829 
L 248.862185 68.804829 
L 249.421847 68.804829 
" style="fill:none;stroke:#8c8c8c;stroke-linecap:square;"/>
   </g>
   <g id="line2d_17">
    <path clip-path="url(#p8920684b41)" d="M 247.183198 66.566179 
L 247.183198 66.566179 
L 247.183198 66.566179 
L 247.183198 66.566179 
L 247.463029 66.566179 
L 248.302522 66.566179 
L 249.421847 66.846011 
L 249.701678 66.846011 
L 251.380665 67.125842 
L 251.660496 67.405673 
L 251.940327 69.08466 
L 251.660496 70.483816 
L 251.100834 71.882971 
L 250.541172 72.442634 
" style="fill:none;stroke:#8c8c8c;stroke-linecap:square;"/>
   </g>
   <g id="line2d_18">
    <path clip-path="url(#p8920684b41)" d="M 260.335262 57.891414 
L 260.335262 57.891414 
L 260.335262 57.891414 
L 260.335262 57.891414 
L 259.7756 57.891414 
L 259.7756 57.891414 
L 258.656275 58.451076 
L 258.096613 59.010738 
L 258.096613 59.850232 
L 258.936106 61.249387 
L 259.215937 61.529219 
L 260.615093 62.088881 
L 262.014249 62.368712 
L 262.853742 62.368712 
L 264.532729 61.80905 
L 265.931885 60.969556 
L 265.931885 60.969556 
L 266.211716 59.850232 
L 266.211716 59.290569 
L 265.652054 58.451076 
L 264.532729 57.611582 
L 262.29408 57.05192 
L 261.734418 56.772089 
L 260.615093 56.772089 
L 259.495769 57.05192 
L 259.215937 57.05192 
L 258.656275 57.05192 
" style="fill:none;stroke:#8c8c8c;stroke-linecap:square;"/>
   </g>
   <g id="line2d_19">
    <path clip-path="url(#p8920684b41)" d="M 267.890703 61.249387 
L 267.890703 61.249387 
L 267.610872 61.249387 
L 267.610872 61.249387 
L 267.331041 60.969556 
L 266.771379 60.969556 
L 265.931885 60.969556 
L 264.81256 61.249387 
L 264.252898 61.80905 
L 263.973067 63.208205 
L 265.372223 66.286348 
L 267.05121 67.405673 
L 269.289859 68.245166 
L 272.08817 68.245166 
L 272.647833 67.965335 
L 274.606651 67.125842 
L 275.446144 66.006517 
L 274.886482 64.32753 
L 274.606651 64.047699 
L 272.368002 62.368712 
L 269.289859 61.529219 
L 268.450365 61.529219 
L 265.652054 61.80905 
" style="fill:none;stroke:#8c8c8c;stroke-linecap:square;"/>
   </g>
   <g id="line2d_20">
    <path clip-path="url(#p8920684b41)" d="M 258.936106 57.611582 
L 258.936106 57.611582 
L 258.936106 57.331751 
L 258.376444 57.611582 
L 258.096613 58.171245 
L 257.257119 60.130063 
L 257.257119 60.409894 
L 258.936106 59.290569 
L 259.7756 58.171245 
L 259.7756 58.171245 
L 258.656275 59.5704 
L 258.656275 59.850232 
L 259.7756 59.010738 
L 260.615093 57.891414 
L 260.615093 57.891414 
L 259.215937 60.409894 
L 259.215937 60.689725 
L 260.335262 59.850232 
L 261.454587 58.451076 
L 261.454587 58.451076 
L 260.615093 59.850232 
L 260.615093 60.409894 
L 262.014249 59.010738 
L 262.573911 58.171245 
L 262.29408 58.730907 
L 260.894924 60.969556 
L 261.454587 60.969556 
L 262.573911 59.5704 
L 262.853742 59.010738 
L 263.133574 59.290569 
L 262.853742 59.5704 
L 262.014249 61.249387 
L 262.573911 60.969556 
L 263.693236 59.5704 
L 263.693236 59.5704 
L 263.413405 60.130063 
L 263.413405 60.689725 
L 263.413405 60.969556 
L 264.252898 60.409894 
L 264.81256 59.5704 
L 264.532729 60.130063 
L 263.693236 61.249387 
L 264.252898 60.969556 
L 264.532729 60.409894 
L 264.252898 60.409894 
L 263.693236 60.689725 
" style="fill:none;stroke:#8c8c8c;stroke-linecap:square;"/>
   </g>
   <g id="line2d_21">
    <path clip-path="url(#p8920684b41)" d="M 268.450365 62.928374 
L 268.450365 62.928374 
L 268.170534 62.928374 
L 268.170534 62.928374 
L 267.890703 62.928374 
L 266.211716 64.32753 
L 265.372223 65.446855 
L 265.092392 66.006517 
L 265.372223 65.726686 
L 266.491547 64.047699 
L 267.610872 62.368712 
L 267.610872 62.088881 
L 266.211716 65.726686 
L 265.931885 66.566179 
L 267.890703 64.047699 
L 268.450365 63.208205 
L 268.450365 64.047699 
L 268.730197 65.167024 
L 269.010028 64.887192 
L 270.409184 62.928374 
L 270.409184 62.928374 
L 269.849521 64.607361 
L 269.56969 65.726686 
L 269.849521 65.726686 
L 270.129352 65.167024 
L 270.968846 63.767868 
L 270.968846 63.767868 
L 270.689015 65.167024 
L 270.409184 66.286348 
L 270.689015 66.566179 
L 270.689015 66.566179 
L 271.248677 65.726686 
L 272.927664 63.208205 
L 273.207495 62.928374 
L 271.248677 66.006517 
L 270.409184 67.685504 
L 270.409184 67.965335 
L 272.368002 65.726686 
L 272.927664 65.446855 
L 272.647833 66.846011 
L 272.647833 67.405673 
L 272.368002 67.685504 
L 272.368002 67.405673 
" style="fill:none;stroke:#8c8c8c;stroke-linecap:square;"/>
   </g>
   <g id="line2d_22">
    <path clip-path="url(#p8920684b41)" d="M 265.652054 55.372933 
L 265.652054 55.372933 
L 265.652054 55.372933 
L 265.372223 55.372933 
L 265.092392 55.372933 
L 264.81256 55.652764 
L 264.81256 56.212427 
L 264.532729 56.772089 
L 264.532729 57.05192 
L 264.532729 57.05192 
L 265.092392 57.891414 
L 265.372223 58.451076 
L 266.211716 59.010738 
L 267.05121 59.5704 
L 267.331041 59.5704 
L 268.170534 60.130063 
L 268.170534 60.130063 
L 268.730197 60.130063 
L 269.289859 60.409894 
L 269.849521 60.689725 
L 270.968846 60.969556 
L 271.248677 60.969556 
L 272.647833 60.689725 
L 273.207495 60.409894 
L 274.046989 60.130063 
L 274.606651 59.290569 
L 274.886482 59.290569 
L 274.886482 58.451076 
L 274.886482 57.891414 
L 274.32682 57.331751 
L 273.207495 56.212427 
L 272.927664 55.932595 
L 271.528508 55.093102 
L 270.689015 54.53344 
L 269.010028 53.973777 
L 267.331041 53.414115 
L 265.931885 53.134284 
L 265.092392 53.134284 
L 262.29408 53.414115 
L 261.174755 53.973777 
L 260.615093 53.973777 
" style="fill:none;stroke:#8c8c8c;stroke-linecap:square;"/>
   </g>
   <g id="line2d_23">
    <path clip-path="url(#p8920684b41)" d="M 259.7756 62.088881 
L 259.7756 62.088881 
L 259.7756 62.088881 
L 259.495769 62.088881 
L 258.656275 62.088881 
L 258.376444 62.368712 
L 257.816782 62.928374 
L 257.53695 63.488037 
L 257.53695 63.767868 
L 257.257119 64.047699 
L 256.977288 64.607361 
L 256.977288 64.887192 
L 257.257119 65.726686 
L 258.096613 66.566179 
L 258.096613 66.566179 
L 258.656275 67.125842 
L 258.936106 67.125842 
L 259.495769 67.405673 
L 260.055431 67.685504 
L 261.174755 67.685504 
L 261.174755 67.685504 
L 261.454587 67.405673 
L 262.573911 67.125842 
L 263.133574 66.846011 
L 263.973067 66.286348 
L 264.252898 65.446855 
L 264.532729 65.446855 
L 264.532729 65.167024 
L 264.532729 64.32753 
L 264.252898 63.767868 
L 263.973067 63.208205 
L 263.133574 62.368712 
L 263.133574 62.368712 
L 262.853742 62.368712 
L 261.734418 61.80905 
L 260.894924 61.529219 
L 259.7756 61.529219 
L 259.495769 61.80905 
" style="fill:none;stroke:#8c8c8c;stroke-linecap:square;"/>
   </g>
   <g id="line2d_24">
    <path clip-path="url(#p8920684b41)" d="M 267.610872 61.529219 
L 267.610872 61.529219 
L 267.331041 61.529219 
L 267.331041 61.529219 
L 266.771379 61.529219 
L 266.211716 61.80905 
L 265.372223 62.648543 
L 265.092392 62.648543 
L 264.81256 63.767868 
L 264.81256 64.047699 
L 265.092392 64.607361 
L 265.931885 65.726686 
L 266.491547 66.006517 
L 266.771379 66.286348 
L 267.890703 66.846011 
L 268.450365 66.846011 
L 268.730197 66.846011 
L 269.849521 66.566179 
L 270.689015 66.286348 
L 271.248677 65.726686 
L 272.08817 64.32753 
L 272.368002 63.767868 
L 272.368002 62.928374 
L 271.528508 62.088881 
L 271.248677 61.80905 
L 270.129352 61.249387 
L 269.56969 60.969556 
L 268.450365 60.969556 
L 267.610872 60.969556 
" style="fill:none;stroke:#8c8c8c;stroke-linecap:square;"/>
   </g>
   <g id="line2d_25">
    <path clip-path="url(#p8920684b41)" d="M 261.454587 67.685504 
L 261.454587 67.685504 
L 261.454587 67.685504 
L 261.174755 67.685504 
L 260.894924 67.685504 
L 260.615093 67.685504 
L 260.055431 67.685504 
L 259.495769 68.245166 
L 259.215937 68.804829 
L 258.656275 69.644322 
L 258.376444 70.203984 
L 258.376444 71.60314 
L 258.376444 71.882971 
L 258.936106 72.442634 
L 260.055431 73.002296 
L 260.335262 73.282127 
L 261.734418 73.282127 
L 262.29408 73.282127 
L 263.413405 73.002296 
L 264.252898 72.722465 
L 264.81256 72.442634 
L 265.372223 71.882971 
L 265.652054 71.60314 
L 266.211716 71.043478 
L 266.211716 70.483816 
L 266.211716 69.364491 
L 265.931885 69.08466 
L 265.092392 67.965335 
L 264.81256 67.685504 
L 263.693236 67.405673 
L 262.014249 67.125842 
L 261.734418 67.125842 
L 261.174755 66.846011 
" style="fill:none;stroke:#8c8c8c;stroke-linecap:square;"/>
   </g>
   <g id="line2d_26">
    <path clip-path="url(#p8920684b41)" d="M 268.730197 66.846011 
L 268.730197 66.846011 
L 268.450365 66.846011 
L 268.450365 66.846011 
L 267.890703 66.846011 
L 267.610872 67.125842 
L 267.331041 67.405673 
L 266.491547 68.524997 
L 266.211716 68.804829 
L 265.931885 69.924153 
L 266.211716 70.483816 
L 266.491547 71.043478 
L 267.610872 71.882971 
L 268.170534 71.882971 
L 269.289859 72.442634 
L 270.129352 72.722465 
L 271.528508 72.442634 
L 272.647833 72.162802 
L 272.927664 71.882971 
L 273.767157 70.763647 
L 273.767157 70.483816 
L 274.046989 69.644322 
L 273.767157 69.08466 
L 273.487326 68.524997 
L 273.207495 68.245166 
L 272.368002 67.405673 
L 271.808339 67.125842 
L 271.248677 66.846011 
L 270.409184 66.846011 
L 269.289859 66.846011 
" style="fill:none;stroke:#8c8c8c;stroke-linecap:square;"/>
   </g>
   <g id="line2d_27">
    <path clip-path="url(#p8920684b41)" d="M 258.656275 62.648543 
L 258.656275 62.648543 
L 258.656275 62.648543 
L 258.376444 63.208205 
L 258.096613 63.767868 
L 257.816782 64.607361 
L 257.53695 64.887192 
L 257.53695 64.887192 
L 258.936106 63.488037 
L 259.215937 63.208205 
L 259.495769 62.928374 
L 259.7756 62.648543 
L 260.055431 62.648543 
L 259.215937 64.047699 
L 258.656275 64.887192 
L 258.096613 65.446855 
L 258.376444 65.446855 
L 258.656275 65.167024 
L 260.055431 63.208205 
L 260.335262 62.928374 
L 260.615093 62.928374 
L 260.055431 63.767868 
L 259.215937 64.887192 
L 258.656275 66.006517 
L 259.215937 65.726686 
L 260.615093 64.32753 
L 261.454587 63.208205 
L 261.734418 63.208205 
L 261.454587 63.488037 
L 260.615093 64.887192 
L 260.055431 65.726686 
L 260.055431 65.726686 
L 260.615093 65.446855 
L 261.734418 64.32753 
L 262.014249 64.32753 
L 261.454587 65.167024 
L 261.174755 65.726686 
L 261.454587 65.726686 
L 262.29408 64.607361 
L 262.853742 64.047699 
L 263.133574 63.767868 
L 262.853742 64.32753 
L 262.29408 65.446855 
L 262.29408 65.446855 
L 262.573911 65.167024 
L 263.133574 64.887192 
L 263.413405 64.607361 
L 263.133574 65.167024 
L 263.133574 65.726686 
L 263.133574 65.726686 
L 263.693236 65.446855 
L 263.973067 65.167024 
L 263.973067 65.167024 
L 263.973067 65.446855 
L 263.693236 65.446855 
L 263.693236 65.446855 
" style="fill:none;stroke:#8c8c8c;stroke-linecap:square;"/>
   </g>
   <g id="line2d_28">
    <path clip-path="url(#p8920684b41)" d="M 267.890703 68.524997 
L 267.610872 68.524997 
L 267.610872 68.524997 
L 267.331041 68.524997 
L 267.331041 68.524997 
L 266.771379 69.08466 
L 266.491547 69.924153 
L 266.211716 70.203984 
L 266.211716 70.483816 
L 267.890703 68.804829 
L 268.170534 68.524997 
L 268.730197 68.245166 
L 268.730197 68.245166 
L 268.450365 68.804829 
L 267.331041 70.203984 
L 267.05121 70.483816 
L 267.610872 69.924153 
L 269.289859 68.245166 
L 269.56969 67.965335 
L 269.010028 68.804829 
L 267.610872 70.483816 
L 267.610872 70.763647 
L 269.010028 68.804829 
L 270.129352 67.685504 
L 270.409184 67.405673 
L 269.849521 68.245166 
L 269.010028 69.924153 
L 268.450365 70.203984 
L 269.010028 69.924153 
L 269.849521 68.804829 
L 270.689015 68.245166 
L 269.849521 69.08466 
L 269.289859 69.924153 
L 268.730197 70.763647 
L 269.56969 69.924153 
L 270.968846 68.524997 
L 271.248677 68.245166 
L 271.248677 68.245166 
L 270.968846 68.804829 
L 269.56969 70.483816 
L 269.289859 70.763647 
L 269.849521 70.483816 
L 270.968846 69.08466 
L 271.248677 68.804829 
L 270.968846 69.08466 
L 270.409184 70.203984 
L 270.129352 70.763647 
L 270.409184 70.483816 
L 271.808339 69.08466 
L 272.08817 68.804829 
L 271.808339 69.924153 
L 270.968846 70.763647 
L 270.968846 71.043478 
L 271.528508 70.763647 
L 272.368002 69.644322 
L 272.647833 69.924153 
L 272.08817 70.763647 
L 271.808339 71.043478 
L 271.528508 71.323309 
L 271.808339 71.043478 
L 272.08817 70.763647 
L 272.368002 70.483816 
L 272.368002 70.483816 
L 271.808339 71.043478 
L 271.528508 71.60314 
L 271.248677 71.882971 
L 271.248677 71.882971 
L 271.528508 71.60314 
L 271.248677 71.323309 
L 270.409184 71.60314 
L 268.730197 71.60314 
L 268.450365 71.882971 
L 267.890703 71.60314 
L 267.890703 71.323309 
L 268.450365 71.043478 
L 268.170534 71.323309 
L 268.170534 71.60314 
L 268.450365 71.60314 
L 268.730197 71.60314 
L 269.010028 71.323309 
L 268.730197 71.323309 
L 268.730197 71.323309 
L 268.450365 71.043478 
L 268.450365 71.043478 
" style="fill:none;stroke:#8c8c8c;stroke-linecap:square;"/>
   </g>
   <g id="line2d_29">
    <path clip-path="url(#p8920684b41)" d="M 264.252898 81.117399 
L 264.252898 81.117399 
L 264.252898 81.117399 
L 264.252898 81.117399 
L 264.252898 81.117399 
L 264.252898 81.397231 
L 264.252898 81.397231 
L 264.252898 81.956893 
L 264.252898 82.796386 
L 264.532729 83.63588 
L 264.81256 84.475373 
L 265.092392 85.035036 
L 266.211716 85.594698 
L 268.450365 85.594698 
L 269.56969 85.594698 
L 270.129352 85.594698 
" style="fill:none;stroke:#8c8c8c;stroke-linecap:square;"/>
   </g>
   <g id="line2d_30">
    <path clip-path="url(#p8920684b41)" d="M 268.450365 81.397231 
L 268.450365 81.117399 
L 268.170534 81.117399 
L 268.170534 81.117399 
L 268.170534 81.397231 
L 268.450365 83.356049 
L 268.730197 84.475373 
L 270.409184 89.512334 
L 270.689015 90.351827 
L 270.689015 90.91149 
" style="fill:none;stroke:#8c8c8c;stroke-linecap:square;"/>
   </g>
   <g id="line2d_31">
    <path clip-path="url(#p8920684b41)" d="M 177.785072 84.755204 
L 177.785072 84.755204 
L 177.50524 85.035036 
L 177.225409 85.035036 
L 176.945578 85.035036 
L 176.945578 84.755204 
L 177.225409 84.755204 
L 177.785072 84.195542 
L 180.023721 83.63588 
L 180.863214 84.195542 
L 180.583383 85.594698 
L 178.904396 87.833347 
L 177.785072 89.232503 
L 178.064903 90.91149 
L 181.982539 91.191321 
L 184.501019 90.631659 
L 185.060682 90.351827 
" style="fill:none;stroke:#8c8c8c;stroke-linecap:square;"/>
   </g>
   <g id="line2d_32">
    <path clip-path="url(#p8920684b41)" d="M 218.360589 83.356049 
L 218.360589 83.356049 
L 218.080758 83.356049 
L 217.800927 83.356049 
L 217.521095 83.63588 
L 217.521095 83.356049 
L 217.521095 83.356049 
L 219.759745 82.516555 
L 221.438732 82.236724 
L 222.558056 82.516555 
L 220.039576 85.594698 
L 218.920251 86.434191 
L 217.800927 88.672841 
L 219.479914 89.232503 
L 222.278225 89.232503 
L 223.957212 88.952672 
L 223.957212 88.952672 
" style="fill:none;stroke:#8c8c8c;stroke-linecap:square;"/>
   </g>
   <g id="line2d_33">
    <path clip-path="url(#p8920684b41)" d="M 148.122969 32.70661 
L 148.122969 32.70661 
L 148.122969 32.70661 
L 148.122969 32.426779 
L 148.122969 32.426779 
L 148.122969 32.426779 
L 148.122969 32.426779 
L 148.682632 33.825934 
L 148.962463 34.945259 
L 148.962463 35.22509 
L 148.962463 34.945259 
L 148.4028 33.825934 
L 148.682632 31.587285 
L 148.962463 31.307454 
L 149.801956 32.426779 
L 150.64145 33.825934 
L 150.64145 33.825934 
L 150.64145 33.546103 
L 150.921281 31.867116 
L 151.480943 30.747792 
L 152.040605 30.46796 
L 153.439761 32.70661 
L 153.719592 33.266272 
L 153.999423 34.105765 
" style="fill:none;stroke:#8c8c8c;stroke-linecap:square;"/>
   </g>
   <g id="line2d_34">
    <path clip-path="url(#p8920684b41)" d="M 157.357397 31.307454 
L 157.91706 31.307454 
L 157.91706 31.027623 
L 157.91706 31.027623 
L 157.91706 30.747792 
L 156.797735 32.146947 
L 156.797735 32.70661 
L 158.476722 32.986441 
L 159.316215 31.867116 
L 159.316215 30.188129 
L 159.316215 29.628467 
L 159.036384 29.348636 
L 159.036384 29.628467 
L 160.155709 32.426779 
L 160.995202 34.105765 
L 161.275033 34.385597 
L 161.554865 34.385597 
" style="fill:none;stroke:#8c8c8c;stroke-linecap:square;"/>
   </g>
   <g id="line2d_35">
    <path clip-path="url(#p8920684b41)" d="M 164.633007 29.628467 
L 164.912838 29.348636 
L 164.912838 29.348636 
L 164.353176 29.068805 
L 162.95402 29.628467 
L 162.674189 30.188129 
L 165.752332 31.307454 
L 167.431319 32.426779 
L 167.431319 33.825934 
L 165.19267 33.546103 
" style="fill:none;stroke:#8c8c8c;stroke-linecap:square;"/>
   </g>
   <g id="line2d_36">
    <path clip-path="url(#p8920684b41)" d="M 171.348955 29.068805 
L 171.908617 28.509142 
L 172.188448 28.229311 
L 172.188448 28.229311 
L 170.22963 29.348636 
L 170.22963 29.908298 
L 170.789293 30.188129 
L 171.069124 30.46796 
L 173.307773 32.426779 
L 173.307773 32.70661 
L 172.46828 34.385597 
L 172.188448 34.385597 
" style="fill:none;stroke:#8c8c8c;stroke-linecap:square;"/>
   </g>
   <g id="line2d_37">
    <path clip-path="url(#p8920684b41)" d="M 139.448203 87.833347 
L 139.448203 87.833347 
L 139.168372 87.833347 
L 138.888541 87.553516 
L 137.489385 87.833347 
L 136.649892 88.393009 
L 137.209554 91.191321 
L 138.888541 91.471152 
L 139.448203 89.512334 
L 138.328879 87.553516 
L 138.328879 87.553516 
L 140.847359 91.471152 
L 142.246515 93.989632 
L 137.769217 96.508113 
L 136.370061 95.948451 
L 136.370061 94.829126 
" style="fill:none;stroke:#8c8c8c;stroke-linecap:square;"/>
   </g>
   <g id="line2d_38">
    <path clip-path="url(#p8920684b41)" d="M 142.526346 88.672841 
L 142.526346 88.672841 
L 142.526346 88.393009 
L 142.526346 88.393009 
L 143.645671 89.792165 
L 145.604489 90.91149 
L 146.723813 90.071996 
L 145.88432 87.273685 
L 145.604489 86.993854 
L 145.604489 86.714022 
" style="fill:none;stroke:#8c8c8c;stroke-linecap:square;"/>
   </g>
   <g id="line2d_39">
    <path clip-path="url(#p8920684b41)" d="M 147.563307 87.553516 
L 148.122969 88.113178 
L 148.4028 88.393009 
L 149.242294 88.393009 
L 150.64145 86.993854 
L 149.242294 86.993854 
L 148.122969 88.672841 
L 150.081787 91.191321 
L 150.921281 91.471152 
L 153.15993 89.792165 
" style="fill:none;stroke:#8c8c8c;stroke-linecap:square;"/>
   </g>
   <g id="line2d_40">
    <path clip-path="url(#p8920684b41)" d="M 153.999423 86.714022 
L 153.999423 86.434191 
L 153.719592 86.15436 
L 152.880099 86.434191 
L 152.320437 87.273685 
L 153.15993 87.553516 
L 155.118748 87.833347 
L 157.357397 88.952672 
L 155.958242 90.91149 
L 155.398579 90.91149 
L 154.838917 90.91149 
" style="fill:none;stroke:#8c8c8c;stroke-linecap:square;"/>
   </g>
   <g id="line2d_41">
    <path clip-path="url(#p8920684b41)" d="M 159.316215 85.594698 
L 159.316215 85.314867 
L 159.316215 85.314867 
L 159.036384 85.314867 
L 157.91706 86.714022 
L 158.756553 86.714022 
L 161.554865 87.553516 
L 163.233852 90.631659 
L 162.114527 91.191321 
L 159.316215 91.191321 
" style="fill:none;stroke:#8c8c8c;stroke-linecap:square;"/>
   </g>
   <g id="line2d_42">
    <path clip-path="url(#p8920684b41)" d="M 167.151488 86.434191 
L 167.151488 86.15436 
L 167.151488 86.15436 
L 166.871657 86.15436 
L 166.871657 86.434191 
" style="fill:none;stroke:#8c8c8c;stroke-linecap:square;"/>
   </g>
   <g id="line2d_43">
    <path clip-path="url(#p8920684b41)" d="M 168.270812 89.232503 
L 168.270812 89.232503 
L 167.990981 89.512334 
L 167.71115 89.792165 
L 167.71115 90.351827 
L 167.71115 90.351827 
" style="fill:none;stroke:#8c8c8c;stroke-linecap:square;"/>
   </g>
   <g id="line2d_44">
    <path clip-path="url(#p8920684b41)" d="M 199.611902 83.076217 
L 199.611902 83.076217 
L 199.891733 83.076217 
L 199.891733 83.076217 
L 199.891733 83.356049 
L 200.731226 85.035036 
L 201.850551 86.993854 
L 202.690044 88.113178 
L 202.690044 88.393009 
" style="fill:none;stroke:#8c8c8c;stroke-linecap:square;"/>
   </g>
   <g id="line2d_45">
    <path clip-path="url(#p8920684b41)" d="M 199.611902 86.714022 
L 199.33207 86.434191 
L 199.33207 86.434191 
L 199.611902 86.434191 
L 204.0892 85.874529 
L 204.928694 85.874529 
" style="fill:none;stroke:#8c8c8c;stroke-linecap:square;"/>
   </g>
   <g id="line2d_46">
    <path clip-path="url(#p8920684b41)" d="M 246.623535 85.035036 
L 246.063873 85.035036 
L 246.063873 85.035036 
L 246.623535 85.035036 
L 246.903367 85.035036 
L 251.380665 84.475373 
L 251.660496 84.475373 
" style="fill:none;stroke:#8c8c8c;stroke-linecap:square;"/>
   </g>
   <g id="line2d_47">
    <path clip-path="url(#p8920684b41)" d="M 245.784042 88.113178 
L 245.784042 88.113178 
L 245.784042 88.393009 
L 247.463029 88.672841 
L 253.339483 87.553516 
L 254.178977 87.273685 
" style="fill:none;stroke:#8c8c8c;stroke-linecap:square;"/>
   </g>
   <g id="line2d_48">
    <path clip-path="url(#p8920684b41)" d="M 303.709091 81.397231 
L 303.42926 81.117399 
L 303.42926 81.117399 
L 303.149429 81.117399 
L 300.910779 82.236724 
L 300.071286 84.195542 
L 301.190611 86.15436 
L 305.667909 87.273685 
" style="fill:none;stroke:#8c8c8c;stroke-linecap:square;"/>
   </g>
   <g id="line2d_49">
    <path clip-path="url(#p8920684b41)" d="M 308.746052 84.195542 
L 308.746052 84.195542 
L 308.466221 84.195542 
L 308.466221 84.195542 
L 309.025883 84.755204 
L 309.865376 86.15436 
L 310.425039 86.714022 
L 309.585545 85.594698 
L 309.025883 83.915711 
L 309.305714 83.076217 
L 310.70487 83.915711 
L 310.984701 84.475373 
L 311.544363 85.035036 
L 311.544363 84.195542 
L 312.663688 82.516555 
L 314.622506 82.796386 
L 314.902337 83.076217 
L 315.461999 85.035036 
L 315.741831 86.15436 
L 316.021662 86.434191 
" style="fill:none;stroke:#8c8c8c;stroke-linecap:square;"/>
   </g>
   <g id="line2d_50">
    <path clip-path="url(#p8920684b41)" d="M 319.939298 83.356049 
L 319.939298 83.356049 
L 319.939298 83.076217 
L 319.939298 83.076217 
L 319.659467 83.076217 
L 318.540142 83.356049 
L 319.379636 85.314867 
L 320.219129 85.594698 
L 321.058622 83.63588 
L 320.778791 82.516555 
L 320.778791 82.236724 
L 320.778791 83.076217 
L 321.338454 85.035036 
L 321.618285 85.874529 
L 322.737609 86.993854 
" style="fill:none;stroke:#8c8c8c;stroke-linecap:square;"/>
   </g>
   <g id="line2d_51">
    <path clip-path="url(#p8920684b41)" d="M 326.375414 82.236724 
L 326.375414 81.956893 
L 326.375414 81.956893 
L 324.416596 82.516555 
L 323.577103 83.356049 
L 325.25609 83.356049 
L 328.614064 84.755204 
L 328.614064 85.035036 
L 326.935077 86.434191 
L 326.095583 86.434191 
" style="fill:none;stroke:#8c8c8c;stroke-linecap:square;"/>
   </g>
   <g id="line2d_52">
    <path clip-path="url(#p8920684b41)" d="M 331.412375 81.956893 
L 331.412375 81.956893 
L 331.412375 81.677062 
L 330.852713 81.677062 
L 330.013219 82.236724 
L 329.733388 82.796386 
L 331.972037 83.356049 
L 332.811531 83.63588 
L 334.490518 86.15436 
L 333.091362 86.434191 
L 332.251869 86.434191 
" style="fill:none;stroke:#8c8c8c;stroke-linecap:square;"/>
   </g>
   <g id="line2d_53">
    <path clip-path="url(#p8920684b41)" d="M 334.490518 77.479594 
L 334.490518 77.479594 
L 334.490518 77.479594 
L 334.770349 77.479594 
L 338.408154 80.557737 
L 339.80731 83.63588 
L 339.80731 84.755204 
L 336.449336 86.993854 
" style="fill:none;stroke:#8c8c8c;stroke-linecap:square;"/>
   </g>
   <g id="line2d_54">
    <path clip-path="url(#p8920684b41)" d="M 145.88432 107.701359 
L 145.88432 107.701359 
L 146.164151 107.98119 
L 146.164151 107.98119 
L 146.723813 108.540852 
L 147.563307 109.380346 
L 147.843138 109.660177 
L 147.563307 109.660177 
L 144.485164 106.582034 
L 144.485164 106.302203 
L 146.164151 105.46271 
L 148.122969 105.742541 
L 148.4028 105.742541 
" style="fill:none;stroke:#8c8c8c;stroke-linecap:square;"/>
   </g>
   <g id="line2d_55">
    <path clip-path="url(#p8920684b41)" d="M 149.801956 107.141697 
L 149.801956 107.141697 
L 149.801956 107.141697 
L 151.760774 106.582034 
L 152.040605 106.022372 
L 151.480943 105.742541 
L 150.361618 106.582034 
L 150.361618 107.98119 
L 154.559086 109.380346 
L 155.118748 109.100515 
" style="fill:none;stroke:#8c8c8c;stroke-linecap:square;"/>
   </g>
   <g id="line2d_56">
    <path clip-path="url(#p8920684b41)" d="M 157.077566 107.141697 
L 157.077566 107.141697 
L 156.238073 106.582034 
L 156.238073 106.582034 
L 155.67841 106.582034 
L 154.279255 107.98119 
L 155.398579 108.540852 
L 157.077566 107.701359 
L 157.077566 106.022372 
L 157.077566 106.022372 
L 157.077566 106.022372 
L 158.476722 107.701359 
L 159.596047 109.380346 
L 160.43554 109.940008 
L 160.43554 109.940008 
" style="fill:none;stroke:#8c8c8c;stroke-linecap:square;"/>
   </g>
   <g id="line2d_57">
    <path clip-path="url(#p8920684b41)" d="M 159.875878 103.503892 
L 159.596047 103.224061 
L 159.596047 103.224061 
L 159.596047 102.944229 
L 160.43554 104.903047 
L 160.715371 105.742541 
L 162.95402 108.820684 
L 162.95402 109.100515 
" style="fill:none;stroke:#8c8c8c;stroke-linecap:square;"/>
   </g>
   <g id="line2d_58">
    <path clip-path="url(#p8920684b41)" d="M 165.19267 106.022372 
L 165.19267 106.022372 
L 165.472501 106.022372 
L 165.752332 106.861866 
L 165.752332 107.141697 
L 166.311994 108.261021 
L 166.032163 108.261021 
" style="fill:none;stroke:#8c8c8c;stroke-linecap:square;"/>
   </g>
   <g id="line2d_59">
    <path clip-path="url(#p8920684b41)" d="M 164.912838 104.063554 
L 164.633007 103.224061 
L 164.633007 102.944229 
L 164.633007 102.664398 
" style="fill:none;stroke:#8c8c8c;stroke-linecap:square;"/>
   </g>
   <g id="line2d_60">
    <path clip-path="url(#p8920684b41)" d="M 165.752332 102.384567 
L 166.032163 102.384567 
L 166.032163 102.384567 
L 168.270812 104.903047 
L 170.789293 107.421528 
L 171.628786 108.540852 
" style="fill:none;stroke:#8c8c8c;stroke-linecap:square;"/>
   </g>
   <g id="line2d_61">
    <path clip-path="url(#p8920684b41)" d="M 168.550643 105.742541 
L 168.550643 105.742541 
L 168.550643 105.46271 
L 168.830475 105.182879 
L 169.110306 105.182879 
L 170.789293 104.903047 
" style="fill:none;stroke:#8c8c8c;stroke-linecap:square;"/>
   </g>
   <g id="line2d_62">
    <path clip-path="url(#p8920684b41)" d="M 172.188448 104.903047 
L 172.188448 104.903047 
L 172.46828 105.182879 
L 175.826253 106.302203 
L 177.785072 106.022372 
L 178.064903 104.343385 
L 178.064903 104.063554 
L 178.064903 104.623216 
L 178.064903 104.903047 
L 179.184227 109.380346 
L 179.74389 111.339164 
L 179.464058 111.618995 
" style="fill:none;stroke:#8c8c8c;stroke-linecap:square;"/>
   </g>
   <g id="line2d_63">
    <path clip-path="url(#p8920684b41)" d="M 181.702708 102.944229 
L 181.702708 102.944229 
L 181.422877 102.664398 
L 181.422877 102.384567 
L 181.422877 102.664398 
L 181.702708 102.664398 
" style="fill:none;stroke:#8c8c8c;stroke-linecap:square;"/>
   </g>
   <g id="line2d_64">
    <path clip-path="url(#p8920684b41)" d="M 184.221188 106.022372 
L 183.941357 106.302203 
L 183.941357 106.302203 
L 183.941357 106.861866 
L 183.941357 106.861866 
" style="fill:none;stroke:#8c8c8c;stroke-linecap:square;"/>
   </g>
   <g id="line2d_65">
    <path clip-path="url(#p8920684b41)" d="M 199.33207 102.104736 
L 199.052239 102.104736 
L 199.052239 102.104736 
L 199.611902 101.824905 
L 201.57072 101.265242 
L 203.809369 101.265242 
L 204.928694 101.824905 
L 204.369031 103.224061 
L 202.690044 105.182879 
L 202.410213 105.742541 
L 202.690044 107.701359 
L 204.648862 107.98119 
L 208.84633 107.421528 
L 209.685823 106.861866 
" style="fill:none;stroke:#8c8c8c;stroke-linecap:square;"/>
   </g>
   <g id="line2d_66">
    <path clip-path="url(#p8920684b41)" d="M 223.957212 102.944229 
L 223.677381 102.664398 
L 223.677381 102.664398 
L 223.39755 102.664398 
L 223.957212 103.503892 
L 223.957212 103.783723 
L 224.796705 105.182879 
L 225.636199 106.861866 
" style="fill:none;stroke:#8c8c8c;stroke-linecap:square;"/>
   </g>
   <g id="line2d_67">
    <path clip-path="url(#p8920684b41)" d="M 222.278225 106.022372 
L 222.278225 106.022372 
L 222.278225 105.742541 
L 222.278225 105.742541 
L 223.39755 105.182879 
L 225.076537 104.623216 
" style="fill:none;stroke:#8c8c8c;stroke-linecap:square;"/>
   </g>
   <g id="line2d_68">
    <path clip-path="url(#p8920684b41)" d="M 229.553835 100.70558 
L 228.994173 100.70558 
L 228.714342 100.425749 
L 228.714342 100.145918 
L 229.833666 99.866087 
L 232.631978 100.145918 
L 234.310965 101.824905 
L 233.19164 105.742541 
L 233.471471 105.742541 
L 236.829445 106.861866 
L 239.907588 106.582034 
L 240.747081 106.302203 
" style="fill:none;stroke:#8c8c8c;stroke-linecap:square;"/>
   </g>
   <g id="line2d_69">
    <path clip-path="url(#p8920684b41)" d="M 255.857964 97.347606 
L 255.857964 97.347606 
L 256.137795 97.347606 
L 255.857964 97.627437 
L 255.01847 98.466931 
L 253.059652 99.586256 
L 250.26134 101.545074 
L 250.26134 102.384567 
L 251.380665 102.664398 
L 258.376444 104.063554 
L 258.936106 104.343385 
L 258.656275 104.343385 
" style="fill:none;stroke:#8c8c8c;stroke-linecap:square;"/>
   </g>
   <g id="line2d_70">
    <path clip-path="url(#p8920684b41)" d="M 263.693236 96.228282 
L 263.693236 95.948451 
L 263.693236 95.948451 
L 263.693236 95.948451 
L 263.693236 96.228282 
L 263.133574 98.1871 
L 263.133574 99.306424 
L 263.973067 100.145918 
L 265.931885 100.145918 
L 269.010028 99.586256 
L 270.409184 99.026593 
" style="fill:none;stroke:#8c8c8c;stroke-linecap:square;"/>
   </g>
   <g id="line2d_71">
    <path clip-path="url(#p8920684b41)" d="M 270.129352 95.948451 
L 270.129352 95.948451 
L 269.849521 95.668619 
L 269.849521 95.668619 
L 271.528508 99.026593 
L 272.08817 100.70558 
L 273.487326 103.783723 
L 274.046989 105.182879 
L 273.487326 105.182879 
" style="fill:none;stroke:#8c8c8c;stroke-linecap:square;"/>
   </g>
   <g id="line2d_72">
    <path clip-path="url(#p8920684b41)" d="M 185.900175 29.348636 
L 185.900175 29.348636 
L 186.180006 29.348636 
L 186.459837 28.788974 
L 186.459837 28.509142 
L 186.180006 28.509142 
L 185.340513 28.509142 
L 183.941357 28.788974 
L 181.422877 30.188129 
L 181.143045 31.307454 
L 181.982539 32.986441 
L 183.381695 33.266272 
L 184.501019 29.908298 
L 184.501019 29.068805 
L 183.381695 25.151169 
L 182.822032 24.311675 
L 182.26237 23.472182 
L 182.26237 23.472182 
L 182.542201 23.752013 
L 186.459837 30.188129 
L 187.579162 31.587285 
L 188.418655 32.146947 
L 188.418655 32.146947 
" style="fill:none;stroke:#8c8c8c;stroke-linecap:square;"/>
   </g>
   <g id="line2d_73">
    <path clip-path="url(#p8920684b41)" d="M 189.258149 29.068805 
L 188.978318 29.068805 
L 188.978318 29.348636 
L 188.978318 29.348636 
L 189.258149 29.628467 
L 190.657305 29.348636 
L 192.336292 28.229311 
L 192.336292 27.389818 
L 192.05646 27.109987 
L 188.978318 28.788974 
L 189.258149 31.027623 
L 191.776629 32.146947 
L 194.29511 31.867116 
" style="fill:none;stroke:#8c8c8c;stroke-linecap:square;"/>
   </g>
   <g id="line2d_74">
    <path clip-path="url(#p8920684b41)" d="M 196.81359 29.348636 
L 196.81359 29.348636 
L 196.81359 29.348636 
L 196.81359 29.348636 
L 197.093421 30.188129 
L 197.373252 30.747792 
L 197.653083 31.027623 
L 195.134603 28.229311 
L 194.854772 27.669649 
L 193.455616 24.031844 
L 193.735447 23.19235 
L 194.29511 22.632688 
L 196.81359 23.19235 
" style="fill:none;stroke:#8c8c8c;stroke-linecap:square;"/>
   </g>
   <g id="line2d_75">
    <path clip-path="url(#p8920684b41)" d="M 193.175785 27.94948 
L 192.895954 28.229311 
L 193.175785 28.229311 
L 194.29511 28.229311 
L 195.974097 27.94948 
L 197.653083 27.669649 
L 198.772408 27.389818 
" style="fill:none;stroke:#8c8c8c;stroke-linecap:square;"/>
   </g>
   <g id="line2d_76">
    <path clip-path="url(#p8920684b41)" d="M 201.011057 27.389818 
L 201.011057 27.669649 
L 201.011057 27.669649 
L 201.290888 28.788974 
L 201.290888 29.068805 
" style="fill:none;stroke:#8c8c8c;stroke-linecap:square;"/>
   </g>
   <g id="line2d_77">
    <path clip-path="url(#p8920684b41)" d="M 201.290888 26.270493 
L 201.290888 25.710831 
L 201.011057 25.431 
L 201.011057 25.151169 
L 201.011057 24.871337 
" style="fill:none;stroke:#8c8c8c;stroke-linecap:square;"/>
   </g>
   <g id="line2d_78">
    <path clip-path="url(#p8920684b41)" d="M 206.048018 26.830155 
L 206.048018 26.550324 
L 206.048018 26.550324 
L 206.048018 26.550324 
L 205.208525 27.109987 
L 205.208525 27.389818 
L 205.488356 29.068805 
L 208.006836 29.908298 
L 208.006836 29.908298 
L 208.566499 29.348636 
L 208.84633 28.788974 
" style="fill:none;stroke:#8c8c8c;stroke-linecap:square;"/>
   </g>
   <g id="line2d_79">
    <path clip-path="url(#p8920684b41)" d="M 210.805148 27.109987 
L 211.084979 27.389818 
L 211.36481 27.389818 
L 211.924472 28.509142 
L 212.204304 29.348636 
L 212.204304 29.348636 
" style="fill:none;stroke:#8c8c8c;stroke-linecap:square;"/>
   </g>
   <g id="line2d_80">
    <path clip-path="url(#p8920684b41)" d="M 211.36481 25.151169 
L 211.36481 24.591506 
L 211.36481 24.031844 
L 211.36481 23.472182 
L 211.644641 23.472182 
L 211.644641 23.19235 
" style="fill:none;stroke:#8c8c8c;stroke-linecap:square;"/>
   </g>
   <g id="line2d_81">
    <path clip-path="url(#p8920684b41)" d="M 213.043797 23.472182 
L 213.603459 23.752013 
L 213.88329 24.031844 
L 214.163122 24.311675 
L 217.241264 29.908298 
L 217.521095 30.747792 
" style="fill:none;stroke:#8c8c8c;stroke-linecap:square;"/>
   </g>
   <g id="line2d_82">
    <path clip-path="url(#p8920684b41)" d="M 213.88329 27.669649 
L 213.323628 27.389818 
L 213.323628 27.109987 
L 213.323628 27.109987 
L 216.12194 26.830155 
L 221.438732 26.270493 
" style="fill:none;stroke:#8c8c8c;stroke-linecap:square;"/>
   </g>
   <g id="line2d_83">
    <path clip-path="url(#p8920684b41)" d="M 277.404962 25.710831 
L 277.404962 25.431 
L 277.684794 25.151169 
L 277.684794 25.151169 
L 277.684794 25.151169 
L 277.125131 25.710831 
L 277.125131 25.990662 
L 275.725975 28.788974 
L 275.725975 31.027623 
L 276.565469 32.426779 
L 281.322599 32.986441 
L 285.240235 31.307454 
" style="fill:none;stroke:#8c8c8c;stroke-linecap:square;"/>
   </g>
   <g id="line2d_84">
    <path clip-path="url(#p8920684b41)" d="M 276.565469 27.94948 
L 276.285638 27.94948 
L 276.285638 27.94948 
L 276.285638 27.94948 
L 278.804118 27.389818 
L 280.762936 26.830155 
" style="fill:none;stroke:#8c8c8c;stroke-linecap:square;"/>
   </g>
   <g id="line2d_85">
    <path clip-path="url(#p8920684b41)" d="M 277.404962 24.871337 
L 277.125131 24.871337 
L 276.565469 24.871337 
L 276.565469 24.591506 
L 281.322599 23.752013 
L 281.60243 23.752013 
L 282.162092 23.472182 
" style="fill:none;stroke:#8c8c8c;stroke-linecap:square;"/>
   </g>
   <g id="line2d_86">
    <path clip-path="url(#p8920684b41)" d="M 288.598209 26.550324 
L 288.598209 26.550324 
L 288.318377 26.830155 
L 288.318377 26.830155 
L 291.116689 26.830155 
L 292.795676 26.550324 
" style="fill:none;stroke:#8c8c8c;stroke-linecap:square;"/>
   </g>
   <g id="line2d_87">
    <path clip-path="url(#p8920684b41)" d="M 288.038546 30.46796 
L 288.038546 30.747792 
L 288.038546 30.747792 
L 288.598209 31.307454 
L 291.39652 31.027623 
L 293.355338 30.747792 
L 295.034325 30.188129 
" style="fill:none;stroke:#8c8c8c;stroke-linecap:square;"/>
   </g>
   <g id="line2d_88">
    <path clip-path="url(#p8920684b41)" d="M 299.791455 27.389818 
L 299.791455 27.389818 
L 299.511624 27.389818 
L 299.231792 27.669649 
L 300.351117 29.908298 
L 300.910779 31.307454 
L 301.190611 31.587285 
L 300.630948 30.747792 
L 299.231792 26.830155 
L 299.511624 26.550324 
L 301.750273 28.229311 
L 302.309935 29.348636 
L 302.589766 29.068805 
L 303.709091 25.710831 
L 303.988922 25.151169 
L 306.507402 27.389818 
L 308.186389 29.908298 
L 308.746052 30.46796 
L 308.186389 30.188129 
" style="fill:none;stroke:#8c8c8c;stroke-linecap:square;"/>
   </g>
   <g id="line2d_89">
    <path clip-path="url(#p8920684b41)" d="M 316.581324 25.151169 
L 316.301493 24.871337 
L 316.021662 24.871337 
L 315.741831 24.871337 
L 312.943519 27.109987 
L 312.663688 27.389818 
L 315.741831 30.188129 
L 317.98048 29.628467 
L 318.819973 29.068805 
" style="fill:none;stroke:#8c8c8c;stroke-linecap:square;"/>
   </g>
   <g id="line2d_90">
    <path clip-path="url(#p8920684b41)" d="M 317.420817 20.394039 
L 317.140986 20.394039 
L 316.861155 20.394039 
L 316.581324 20.394039 
L 316.581324 20.114208 
L 318.260311 19.554545 
L 321.618285 20.114208 
L 320.778791 21.513364 
L 319.099804 23.472182 
L 319.379636 24.031844 
L 320.778791 24.311675 
L 323.577103 24.031844 
" style="fill:none;stroke:#8c8c8c;stroke-linecap:square;"/>
   </g>
   <g id="line2d_91">
    <path clip-path="url(#p8920684b41)" d="M 23.038443 263.287481 
L 23.038443 263.287481 
L 23.038443 263.287481 
L 23.038443 263.287481 
L 23.038443 263.287481 
L 23.318274 263.00765 
L 23.318274 263.00765 
L 23.598106 263.00765 
L 23.598106 263.00765 
L 23.877937 262.727818 
L 24.157768 262.727818 
L 24.997261 262.168156 
L 25.277093 261.888325 
L 26.116586 261.608494 
L 26.116586 261.608494 
L 26.396417 261.328663 
L 26.676248 261.048831 
L 26.676248 261.048831 
L 27.235911 260.769 
L 27.515742 260.489169 
L 28.075404 260.489169 
L 29.194729 259.649676 
L 29.47456 259.369845 
L 29.754391 259.090013 
L 30.593884 258.25052 
L 31.153547 257.970689 
L 31.713209 257.411026 
L 33.112365 256.571533 
L 33.392196 256.291702 
L 35.071183 255.172377 
L 35.910676 254.612715 
L 36.75017 254.053053 
L 37.589663 253.213559 
L 37.589663 253.213559 
L 38.429157 252.653897 
L 38.708988 252.374066 
L 39.26865 252.094235 
L 40.108144 251.534572 
L 41.507299 250.415248 
L 41.507299 250.415248 
L 43.186286 249.295923 
L 43.745949 248.736261 
L 44.585442 248.176598 
L 46.264429 246.777443 
L 48.78291 244.818625 
L 49.622403 243.979131 
L 51.021559 243.139638 
L 53.260208 241.740482 
L 53.540039 241.740482 
L 55.498857 240.900988 
L 56.618182 240.061495 
L 57.737506 239.501833 
L 59.416493 238.94217 
L 61.655143 237.543015 
L 61.934974 237.543015 
L 64.453454 236.143859 
L 65.572779 235.584196 
L 66.692103 234.744703 
L 68.37109 233.625378 
L 68.37109 233.625378 
L 70.050077 232.506054 
L 71.169402 231.66656 
L 72.288726 230.547236 
L 75.6467 228.868249 
L 75.926531 228.588418 
L 78.165181 227.748924 
L 79.284505 227.469093 
L 80.683661 226.909431 
L 82.082817 226.6296 
L 83.481973 226.069937 
L 86.000453 225.230444 
L 87.399609 224.950613 
L 88.798765 224.39095 
L 91.317245 223.551457 
L 91.597076 223.271626 
L 93.276063 222.711963 
L 94.395388 222.152301 
L 95.514712 221.592639 
L 96.913868 221.032976 
L 99.152517 219.913652 
L 99.432348 219.913652 
L 99.71218 219.633821 
L 101.111335 219.074158 
L 101.670998 218.794327 
L 102.790322 218.514496 
L 103.909647 217.954834 
L 103.909647 217.954834 
L 104.74914 217.675003 
L 105.308803 217.675003 
L 105.588634 217.395171 
L 105.868465 217.395171 
L 105.868465 217.395171 
L 105.868465 217.395171 
L 105.868465 217.395171 
L 105.588634 217.395171 
L 105.028971 217.675003 
L 104.74914 217.954834 
L 105.028971 218.514496 
L 105.588634 218.514496 
L 105.588634 218.234665 
L 105.868465 218.234665 
L 105.588634 217.954834 
L 105.588634 217.954834 
L 105.308803 217.954834 
L 105.588634 217.954834 
L 105.868465 217.954834 
L 105.588634 217.675003 
L 105.588634 217.675003 
L 105.588634 217.395171 
" style="fill:none;stroke:#8c8c8c;stroke-linecap:square;"/>
   </g>
   <g id="line2d_92">
    <path clip-path="url(#p8920684b41)" d="M 106.98779 217.395171 
L 106.98779 217.395171 
L 107.267621 217.395171 
L 107.267621 217.395171 
L 107.827283 217.395171 
L 108.946608 217.395171 
L 109.50627 217.675003 
L 110.345763 217.675003 
L 112.304581 217.954834 
L 113.423906 218.234665 
L 114.543231 218.234665 
L 115.382724 218.234665 
L 117.341542 218.514496 
L 117.901205 218.514496 
L 120.139854 218.794327 
L 121.53901 219.074158 
L 122.658334 219.074158 
L 124.05749 219.353989 
L 124.896983 219.633821 
L 127.135633 219.913652 
L 127.975126 220.193483 
L 129.654113 220.473314 
L 132.172593 220.753145 
L 132.732256 221.032976 
L 135.810398 221.312808 
L 136.649892 221.592639 
L 138.60871 221.87247 
L 141.686853 222.152301 
L 141.686853 222.152301 
L 143.925502 222.152301 
L 145.604489 222.432132 
L 147.283476 222.432132 
L 149.242294 222.991795 
L 152.040605 223.271626 
L 152.600268 223.271626 
L 155.958242 223.831288 
L 157.91706 224.111119 
L 160.43554 224.670781 
L 164.073345 225.230444 
L 164.073345 225.230444 
L 166.311994 225.510275 
L 168.270812 225.790106 
L 169.669968 226.069937 
L 171.908617 226.6296 
L 174.706929 227.469093 
L 174.98676 227.469093 
L 177.225409 228.028755 
L 178.904396 228.308586 
L 181.143045 228.868249 
L 184.501019 229.427911 
L 187.0195 229.707742 
L 188.978318 229.987573 
L 189.53798 230.267405 
L 193.735447 231.106898 
L 196.253928 231.946391 
L 199.891733 232.785885 
L 202.690044 233.625378 
L 203.529538 233.90521 
L 203.809369 233.90521 
L 207.167343 234.744703 
L 208.286667 235.304365 
L 211.084979 235.864028 
L 213.88329 236.703521 
L 215.562277 237.263183 
L 219.479914 238.382508 
L 221.438732 238.662339 
L 224.237043 239.781664 
L 227.595017 241.18082 
L 227.874848 241.18082 
L 230.393329 242.300144 
L 232.072315 243.139638 
L 233.471471 243.979131 
L 235.989952 245.098456 
L 238.788263 246.497611 
L 240.187419 247.057274 
L 243.265562 248.176598 
L 244.384886 248.736261 
L 247.183198 249.575754 
L 248.022691 249.855585 
L 249.701678 250.415248 
L 250.541172 250.695079 
L 251.380665 251.254741 
L 253.339483 251.814403 
L 254.458808 252.094235 
L 255.298301 252.653897 
L 255.578132 252.933728 
L 257.816782 253.773221 
L 257.816782 253.773221 
L 260.335262 254.892546 
L 261.454587 255.452208 
L 263.413405 256.011871 
L 264.81256 256.571533 
L 266.491547 257.131195 
L 266.771379 257.131195 
L 269.849521 258.530351 
L 271.528508 259.090013 
L 272.368002 259.649676 
L 273.207495 259.929507 
L 275.446144 260.769 
L 275.446144 261.048831 
L 277.125131 261.608494 
L 278.244456 262.168156 
L 279.363781 262.727818 
L 281.60243 263.287481 
L 285.520066 264.966468 
L 286.079728 265.246299 
L 289.437702 266.645455 
" style="fill:none;stroke:#8c8c8c;stroke-linecap:square;"/>
   </g>
   <g id="line2d_93">
    <path clip-path="url(#p8920684b41)" d="M 227.315186 231.386729 
L 227.315186 231.386729 
L 227.315186 231.66656 
L 227.315186 231.66656 
L 227.315186 231.66656 
L 227.315186 231.66656 
L 227.315186 231.66656 
L 226.755524 231.66656 
L 226.195861 231.386729 
L 225.356368 231.106898 
L 223.677381 230.547236 
L 223.39755 230.547236 
L 222.837887 230.547236 
L 220.879069 230.267405 
L 219.759745 229.987573 
L 218.080758 229.987573 
L 215.002615 229.707742 
L 214.722784 229.707742 
L 210.525317 229.14808 
L 209.126161 229.14808 
L 206.887512 228.868249 
L 203.809369 228.588418 
L 203.249707 228.308586 
L 200.451395 228.028755 
L 199.052239 227.748924 
L 197.653083 227.469093 
L 197.093421 227.469093 
L 196.253928 227.469093 
L 195.974097 227.469093 
L 195.414434 227.189262 
L 195.134603 227.189262 
L 194.854772 227.189262 
" style="fill:none;stroke:#8c8c8c;stroke-linecap:square;"/>
   </g>
   <g id="line2d_94">
    <path clip-path="url(#p8920684b41)" d="M 194.574941 226.6296 
L 194.574941 226.6296 
L 194.574941 226.6296 
L 194.574941 226.6296 
L 194.854772 226.6296 
L 197.373252 226.069937 
L 197.373252 226.069937 
L 199.891733 225.230444 
L 201.011057 225.230444 
L 201.57072 224.950613 
" style="fill:none;stroke:#8c8c8c;stroke-linecap:square;"/>
   </g>
   <g id="line2d_95">
    <path clip-path="url(#p8920684b41)" d="M 214.722784 216.275847 
L 214.722784 216.275847 
L 214.722784 216.275847 
L 214.722784 216.275847 
L 215.842109 217.675003 
L 217.800927 220.193483 
L 218.920251 221.87247 
L 219.200082 223.271626 
" style="fill:none;stroke:#8c8c8c;stroke-linecap:square;"/>
   </g>
   <g id="line2d_96">
    <path clip-path="url(#p8920684b41)" d="M 213.323628 215.436353 
L 213.323628 215.436353 
L 213.323628 215.156522 
L 213.323628 215.156522 
L 214.442953 214.876691 
L 217.521095 213.757366 
L 218.360589 213.197704 
" style="fill:none;stroke:#8c8c8c;stroke-linecap:square;"/>
   </g>
   <g id="line2d_97">
    <path clip-path="url(#p8920684b41)" d="M 214.722784 217.675003 
L 214.722784 217.954834 
L 214.722784 218.234665 
L 215.002615 218.234665 
L 215.282446 218.514496 
L 219.479914 217.675003 
L 221.718563 217.11534 
L 221.998394 216.835509 
" style="fill:none;stroke:#8c8c8c;stroke-linecap:square;"/>
   </g>
   <g id="line2d_98">
    <path clip-path="url(#p8920684b41)" d="M 224.237043 216.555678 
L 224.237043 216.555678 
L 224.237043 216.555678 
L 224.516874 217.395171 
L 225.91603 219.353989 
L 225.91603 219.633821 
" style="fill:none;stroke:#8c8c8c;stroke-linecap:square;"/>
   </g>
   <g id="line2d_99">
    <path clip-path="url(#p8920684b41)" d="M 228.43451 214.037198 
L 228.43451 214.037198 
L 228.43451 214.037198 
L 228.43451 214.59686 
L 228.43451 215.156522 
L 227.874848 216.555678 
L 228.43451 218.234665 
L 230.393329 218.514496 
L 232.072315 218.234665 
L 233.471471 220.753145 
L 231.792484 221.032976 
L 230.393329 220.753145 
" style="fill:none;stroke:#8c8c8c;stroke-linecap:square;"/>
   </g>
   <g id="line2d_100">
    <path clip-path="url(#p8920684b41)" d="M 234.870627 214.876691 
L 234.870627 214.876691 
L 234.590796 214.876691 
L 234.031134 214.876691 
L 233.471471 215.716184 
L 233.471471 215.716184 
L 235.989952 216.555678 
L 238.228601 218.234665 
L 239.068094 220.193483 
L 237.668939 220.473314 
" style="fill:none;stroke:#8c8c8c;stroke-linecap:square;"/>
   </g>
   <g id="line2d_101">
    <path clip-path="url(#p8920684b41)" d="M 239.907588 217.395171 
L 240.187419 217.395171 
L 240.46725 218.234665 
L 241.026912 218.794327 
L 241.306744 219.074158 
" style="fill:none;stroke:#8c8c8c;stroke-linecap:square;"/>
   </g>
   <g id="line2d_102">
    <path clip-path="url(#p8920684b41)" d="M 239.907588 214.876691 
L 239.627757 214.037198 
L 239.068094 213.197704 
L 239.068094 213.197704 
L 239.068094 212.917873 
" style="fill:none;stroke:#8c8c8c;stroke-linecap:square;"/>
   </g>
   <g id="line2d_103">
    <path clip-path="url(#p8920684b41)" d="M 243.265562 214.317029 
L 243.265562 214.317029 
L 243.265562 214.317029 
L 243.545393 214.876691 
L 243.545393 215.716184 
L 244.384886 217.11534 
L 246.063873 218.794327 
L 247.74286 216.835509 
L 247.463029 216.275847 
L 243.265562 215.996016 
L 242.98573 216.555678 
L 243.265562 216.835509 
" style="fill:none;stroke:#8c8c8c;stroke-linecap:square;"/>
   </g>
   <g id="line2d_104">
    <path clip-path="url(#p8920684b41)" d="M 248.302522 215.996016 
L 248.582354 215.996016 
L 248.582354 215.996016 
L 248.862185 215.996016 
L 249.142016 216.275847 
L 249.981509 216.835509 
L 251.100834 217.954834 
L 251.100834 217.954834 
L 250.821003 214.59686 
L 252.220159 214.037198 
L 254.738639 215.716184 
L 256.417626 216.555678 
" style="fill:none;stroke:#8c8c8c;stroke-linecap:square;"/>
   </g>
   <g id="line2d_105">
    <path clip-path="url(#p8920684b41)" d="M 30.034222 223.831288 
L 30.034222 223.551457 
L 29.754391 223.551457 
L 29.754391 223.831288 
L 30.314053 224.670781 
L 31.713209 227.189262 
L 33.112365 229.987573 
L 35.071183 233.345547 
" style="fill:none;stroke:#8c8c8c;stroke-linecap:square;"/>
   </g>
   <g id="line2d_106">
    <path clip-path="url(#p8920684b41)" d="M 28.635066 222.432132 
L 28.355235 222.711963 
L 28.355235 222.711963 
L 28.075404 222.991795 
L 31.153547 221.592639 
L 31.713209 221.312808 
L 33.951858 220.473314 
L 33.951858 220.473314 
" style="fill:none;stroke:#8c8c8c;stroke-linecap:square;"/>
   </g>
   <g id="line2d_107">
    <path clip-path="url(#p8920684b41)" d="M 32.272871 225.510275 
L 32.272871 225.790106 
L 32.552703 226.069937 
L 33.112365 226.069937 
L 35.071183 225.790106 
L 37.030001 225.230444 
L 37.309832 224.950613 
" style="fill:none;stroke:#8c8c8c;stroke-linecap:square;"/>
   </g>
   <g id="line2d_108">
    <path clip-path="url(#p8920684b41)" d="M 38.429157 224.950613 
L 38.429157 224.950613 
L 38.149326 224.670781 
L 38.149326 224.950613 
L 41.227468 227.469093 
L 42.626624 227.189262 
L 41.787131 225.510275 
L 41.227468 224.39095 
L 39.548481 222.711963 
L 39.548481 222.711963 
L 39.548481 222.432132 
" style="fill:none;stroke:#8c8c8c;stroke-linecap:square;"/>
   </g>
   <g id="line2d_109">
    <path clip-path="url(#p8920684b41)" d="M 43.466118 221.87247 
L 43.466118 221.592639 
L 43.745949 221.592639 
L 43.745949 221.87247 
L 43.186286 222.711963 
L 43.186286 222.991795 
L 44.02578 223.271626 
L 45.424936 223.551457 
L 45.704767 223.551457 
L 49.342572 225.510275 
L 48.503078 226.349768 
L 47.383754 226.6296 
" style="fill:none;stroke:#8c8c8c;stroke-linecap:square;"/>
   </g>
   <g id="line2d_110">
    <path clip-path="url(#p8920684b41)" d="M 48.78291 223.271626 
L 49.342572 223.271626 
L 49.622403 223.271626 
L 50.461896 223.831288 
L 50.741728 224.111119 
" style="fill:none;stroke:#8c8c8c;stroke-linecap:square;"/>
   </g>
   <g id="line2d_111">
    <path clip-path="url(#p8920684b41)" d="M 48.503078 221.032976 
L 47.943416 220.193483 
L 47.383754 219.353989 
L 47.383754 218.234665 
" style="fill:none;stroke:#8c8c8c;stroke-linecap:square;"/>
   </g>
   <g id="line2d_112">
    <path clip-path="url(#p8920684b41)" d="M 51.861052 219.353989 
L 51.861052 219.633821 
L 51.861052 219.633821 
L 52.980377 221.312808 
L 55.498857 223.551457 
L 57.177844 222.991795 
L 53.260208 219.633821 
L 52.980377 219.353989 
L 52.420715 221.312808 
" style="fill:none;stroke:#8c8c8c;stroke-linecap:square;"/>
   </g>
   <g id="line2d_113">
    <path clip-path="url(#p8920684b41)" d="M 59.136662 220.193483 
L 59.136662 220.193483 
L 59.136662 219.913652 
L 59.136662 220.193483 
L 60.815649 221.592639 
L 61.655143 222.152301 
L 59.976156 219.074158 
L 59.976156 218.794327 
L 60.815649 217.395171 
L 63.33413 218.234665 
L 65.013116 219.913652 
L 65.85261 220.753145 
L 65.85261 221.032976 
" style="fill:none;stroke:#8c8c8c;stroke-linecap:square;"/>
   </g>
   <g id="line2d_114">
    <path clip-path="url(#p8920684b41)" d="M 101.111335 202.004458 
L 101.111335 201.724627 
L 101.111335 201.724627 
L 100.831504 201.444796 
L 101.391166 202.004458 
L 103.909647 205.082601 
L 106.428127 207.880912 
L 106.428127 207.880912 
L 106.148296 207.880912 
" style="fill:none;stroke:#8c8c8c;stroke-linecap:square;"/>
   </g>
   <g id="line2d_115">
    <path clip-path="url(#p8920684b41)" d="M 99.992011 201.444796 
L 99.71218 201.444796 
L 99.71218 201.444796 
L 99.432348 201.444796 
L 104.469309 199.765809 
L 105.588634 199.485978 
" style="fill:none;stroke:#8c8c8c;stroke-linecap:square;"/>
   </g>
   <g id="line2d_116">
    <path clip-path="url(#p8920684b41)" d="M 103.070153 203.683445 
L 103.070153 203.683445 
L 102.790322 203.963276 
L 103.070153 203.963276 
L 104.74914 203.403614 
L 105.588634 203.123783 
L 108.666776 202.284289 
" style="fill:none;stroke:#8c8c8c;stroke-linecap:square;"/>
   </g>
   <g id="line2d_117">
    <path clip-path="url(#p8920684b41)" d="M 109.50627 203.403614 
L 109.50627 203.683445 
L 109.50627 203.683445 
L 110.065932 203.683445 
L 111.465088 202.843951 
L 111.465088 202.004458 
L 111.185257 202.004458 
L 109.50627 204.243107 
L 111.185257 205.082601 
L 114.823062 205.082601 
L 115.382724 204.802769 
" style="fill:none;stroke:#8c8c8c;stroke-linecap:square;"/>
   </g>
  </g>
 </g>
 <defs>
  <clipPath id="p8920684b41">
   <rect height="271.8" width="348.445753" x="7.2" y="7.2"/>
  </clipPath>
 </defs>
</svg>
