<?xml version="1.0" encoding="utf-8" standalone="no"?>
<!DOCTYPE svg PUBLIC "-//W3C//DTD SVG 1.1//EN"
  "http://www.w3.org/Graphics/SVG/1.1/DTD/svg11.dtd">
<!-- Created with matplotlib (https://matplotlib.org/) -->
<svg height="286.2pt" version="1.1" viewBox="0 0 266.763322 286.2" width="266.763322pt" xmlns="http://www.w3.org/2000/svg" xmlns:xlink="http://www.w3.org/1999/xlink">
 <metadata>
  <rdf:RDF xmlns:cc="http://creativecommons.org/ns#" xmlns:dc="http://purl.org/dc/elements/1.1/" xmlns:rdf="http://www.w3.org/1999/02/22-rdf-syntax-ns#">
   <cc:Work>
    <dc:type rdf:resource="http://purl.org/dc/dcmitype/StillImage"/>
    <dc:date>2024-11-15T16:03:35.180200</dc:date>
    <dc:format>image/svg+xml</dc:format>
    <dc:creator>
     <cc:Agent>
      <dc:title>Matplotlib v3.3.4, https://matplotlib.org/</dc:title>
     </cc:Agent>
    </dc:creator>
   </cc:Work>
  </rdf:RDF>
 </metadata>
 <defs>
  <style type="text/css">*{stroke-linecap:butt;stroke-linejoin:round;}</style>
 </defs>
 <g id="figure_1">
  <g id="patch_1">
   <path d="M 0 286.2 
L 266.763322 286.2 
L 266.763322 0 
L 0 0 
z
" style="fill:#ffffff;"/>
  </g>
  <g id="axes_1">
   <g id="line2d_1">
    <path clip-path="url(#p8d260c1fb6)" d="M 147.773923 246.98078 
L 147.773923 246.98078 
L 147.773923 246.98078 
L 147.773923 247.265775 
L 147.773923 247.550771 
L 147.773923 247.550771 
L 148.058918 248.690752 
L 148.343913 249.545738 
L 148.343913 250.685719 
L 148.628908 252.39569 
L 148.913904 253.250676 
L 148.913904 253.820667 
L 148.913904 253.820667 
L 148.913904 255.530639 
L 148.913904 256.955615 
L 148.628908 257.810601 
L 148.628908 257.810601 
L 148.343913 259.235577 
L 148.343913 259.520573 
L 148.058918 261.230544 
L 148.058918 261.800535 
L 148.058918 262.655521 
L 148.058918 264.080497 
L 148.058918 264.365492 
L 148.058918 265.220478 
L 147.773923 265.505473 
" style="fill:none;stroke:#8c8c8c;stroke-linecap:square;"/>
   </g>
   <g id="line2d_2">
    <path clip-path="url(#p8d260c1fb6)" d="M 141.789022 256.67062 
L 141.789022 256.67062 
L 141.504026 256.67062 
L 141.504026 256.67062 
L 141.219031 256.67062 
L 141.219031 256.67062 
L 140.934036 256.67062 
L 140.07905 256.67062 
L 138.654074 256.67062 
L 138.369078 256.67062 
L 136.089116 256.67062 
L 135.519126 256.955615 
L 133.239163 256.955615 
L 132.384177 256.955615 
L 130.959201 256.955615 
L 128.394243 257.24061 
L 127.539258 257.24061 
L 126.399277 257.24061 
L 124.9743 257.24061 
L 123.549324 257.24061 
L 121.554357 257.24061 
L 120.414376 257.24061 
L 118.704404 257.24061 
L 115.854451 257.24061 
L 115.284461 257.24061 
" style="fill:none;stroke:#8c8c8c;stroke-linecap:square;"/>
   </g>
   <g id="line2d_3">
    <path clip-path="url(#p8d260c1fb6)" d="M 118.704404 254.675653 
L 118.704404 254.675653 
L 118.704404 254.675653 
L 118.419409 254.960648 
L 118.134413 254.960648 
L 114.999465 255.815634 
L 114.71447 255.815634 
L 113.289494 256.385624 
L 111.294527 256.955615 
L 111.009531 257.525606 
L 114.144479 258.665587 
L 116.424442 259.520573 
" style="fill:none;stroke:#8c8c8c;stroke-linecap:square;"/>
   </g>
   <g id="line2d_4">
    <path clip-path="url(#p8d260c1fb6)" d="M 38.905725 261.800535 
L 38.62073 261.800535 
L 38.62073 261.800535 
L 39.760711 263.510506 
L 39.760711 263.795502 
L 41.185687 265.220478 
L 41.470683 265.790469 
L 41.470683 265.790469 
L 39.475716 264.365492 
L 38.335735 262.940516 
L 38.050739 261.515539 
L 40.900692 260.375558 
" style="fill:none;stroke:#8c8c8c;stroke-linecap:square;"/>
   </g>
   <g id="line2d_5">
    <path clip-path="url(#p8d260c1fb6)" d="M 46.030607 260.660554 
L 46.030607 260.660554 
L 46.030607 260.945549 
L 45.460617 260.945549 
L 44.605631 261.800535 
L 45.175621 264.080497 
L 45.460617 264.365492 
L 46.030607 264.650488 
L 47.740579 262.940516 
L 46.600598 261.230544 
L 45.175621 260.945549 
L 44.320635 261.800535 
" style="fill:none;stroke:#8c8c8c;stroke-linecap:square;"/>
   </g>
   <g id="line2d_6">
    <path clip-path="url(#p8d260c1fb6)" d="M 53.440484 260.090563 
L 53.440484 259.805568 
L 53.155489 259.805568 
L 52.015508 260.090563 
L 51.730513 262.08553 
L 53.155489 263.795502 
L 56.005442 263.795502 
L 56.290437 263.510506 
L 56.575433 263.225511 
" style="fill:none;stroke:#8c8c8c;stroke-linecap:square;"/>
   </g>
   <g id="line2d_7">
    <path clip-path="url(#p8d260c1fb6)" d="M 55.720447 255.530639 
L 55.720447 255.530639 
L 55.435451 255.530639 
L 55.435451 255.815634 
L 56.575433 258.665587 
L 56.860428 259.520573 
L 57.430418 260.660554 
L 59.14039 263.225511 
L 59.14039 263.510506 
" style="fill:none;stroke:#8c8c8c;stroke-linecap:square;"/>
   </g>
   <g id="line2d_8">
    <path clip-path="url(#p8d260c1fb6)" d="M 60.565366 258.950582 
L 60.565366 258.950582 
L 60.280371 258.950582 
L 60.280371 258.950582 
L 59.710381 258.950582 
L 58.000409 259.805568 
L 57.145423 260.375558 
L 57.145423 260.375558 
L 57.430418 260.660554 
L 61.990343 262.08553 
L 63.700315 262.655521 
L 63.700315 262.940516 
" style="fill:none;stroke:#8c8c8c;stroke-linecap:square;"/>
   </g>
   <g id="line2d_9">
    <path clip-path="url(#p8d260c1fb6)" d="M 65.695282 259.805568 
L 65.410286 259.805568 
L 65.410286 259.805568 
L 65.125291 260.090563 
L 65.410286 260.660554 
L 66.550267 261.515539 
L 67.405253 261.800535 
L 68.545234 260.945549 
L 68.83023 259.520573 
L 68.83023 259.235577 
L 69.685215 262.08553 
L 70.255206 262.940516 
L 71.680182 266.075464 
L 71.395187 266.645455 
" style="fill:none;stroke:#8c8c8c;stroke-linecap:square;"/>
   </g>
   <g id="line2d_10">
    <path clip-path="url(#p8d260c1fb6)" d="M 156.323781 256.955615 
L 156.323781 256.955615 
L 156.038786 256.955615 
L 156.038786 256.955615 
L 156.038786 256.955615 
L 157.178767 256.955615 
L 159.743724 257.24061 
L 162.878673 257.525606 
L 164.303649 257.525606 
L 169.718559 257.24061 
L 171.428531 257.24061 
L 173.708493 257.24061 
L 174.848474 257.24061 
L 175.70346 257.24061 
L 175.988455 257.24061 
L 176.273451 256.955615 
" style="fill:none;stroke:#8c8c8c;stroke-linecap:square;"/>
   </g>
   <g id="line2d_11">
    <path clip-path="url(#p8d260c1fb6)" d="M 172.853507 254.675653 
L 172.853507 254.675653 
L 172.853507 254.675653 
L 173.138503 254.675653 
L 173.138503 254.675653 
L 173.993489 254.675653 
L 175.418465 254.960648 
L 177.698427 255.530639 
L 177.698427 255.815634 
L 178.553413 256.385624 
L 178.838408 256.955615 
L 178.553413 257.525606 
L 177.983422 258.665587 
L 177.413432 259.235577 
" style="fill:none;stroke:#8c8c8c;stroke-linecap:square;"/>
   </g>
   <g id="line2d_12">
    <path clip-path="url(#p8d260c1fb6)" d="M 188.243253 256.955615 
L 187.958257 256.955615 
L 187.388267 256.955615 
L 186.818276 256.955615 
L 185.96329 256.955615 
L 185.678295 258.095596 
L 186.818276 257.810601 
L 186.818276 257.810601 
L 186.818276 257.24061 
L 186.818276 257.24061 
L 186.818276 257.525606 
L 188.243253 258.950582 
L 191.093205 262.655521 
L 191.093205 262.940516 
L 191.093205 264.080497 
L 187.958257 264.080497 
L 186.248286 263.795502 
L 185.3933 263.225511 
" style="fill:none;stroke:#8c8c8c;stroke-linecap:square;"/>
   </g>
   <g id="line2d_13">
    <path clip-path="url(#p8d260c1fb6)" d="M 195.938125 256.67062 
L 195.65313 256.67062 
L 195.368135 256.385624 
L 195.368135 256.385624 
L 194.513149 256.67062 
L 192.518182 257.525606 
L 192.803177 258.665587 
L 193.373168 258.950582 
L 195.65313 257.525606 
L 195.65313 256.67062 
L 195.65313 256.385624 
L 195.938125 258.095596 
L 195.938125 258.380591 
L 197.648097 260.660554 
L 197.933092 260.660554 
" style="fill:none;stroke:#8c8c8c;stroke-linecap:square;"/>
   </g>
   <g id="line2d_14">
    <path clip-path="url(#p8d260c1fb6)" d="M 201.06804 256.67062 
L 201.06804 256.385624 
L 201.06804 256.100629 
L 200.783045 256.100629 
L 200.213054 256.100629 
L 199.073073 256.955615 
L 199.358069 257.24061 
L 202.208021 258.095596 
L 203.348003 258.950582 
L 202.208021 260.660554 
L 200.49805 260.945549 
L 199.928059 260.945549 
" style="fill:none;stroke:#8c8c8c;stroke-linecap:square;"/>
   </g>
   <g id="line2d_15">
    <path clip-path="url(#p8d260c1fb6)" d="M 213.892828 260.090563 
L 213.892828 259.805568 
L 213.892828 259.520573 
L 213.607833 259.520573 
L 212.467852 259.235577 
L 212.182856 259.520573 
L 212.182856 260.945549 
L 213.892828 260.660554 
L 215.032809 259.520573 
L 214.747814 258.665587 
L 214.747814 258.665587 
L 214.462818 258.380591 
L 215.317804 259.520573 
L 216.742781 261.515539 
L 217.882762 263.795502 
L 215.032809 266.075464 
L 214.747814 266.075464 
L 212.182856 266.360459 
L 211.612866 265.790469 
" style="fill:none;stroke:#8c8c8c;stroke-linecap:square;"/>
   </g>
   <g id="line2d_16">
    <path clip-path="url(#p8d260c1fb6)" d="M 220.447719 258.950582 
L 220.447719 258.950582 
L 220.732715 258.950582 
L 221.587701 260.660554 
L 221.872696 260.660554 
L 222.157691 261.515539 
L 222.157691 261.515539 
" style="fill:none;stroke:#8c8c8c;stroke-linecap:square;"/>
   </g>
   <g id="line2d_17">
    <path clip-path="url(#p8d260c1fb6)" d="M 219.592734 258.095596 
L 219.307738 257.810601 
L 219.307738 257.525606 
L 219.307738 256.955615 
" style="fill:none;stroke:#8c8c8c;stroke-linecap:square;"/>
   </g>
   <g id="line2d_18">
    <path clip-path="url(#p8d260c1fb6)" d="M 227.002611 257.810601 
L 227.002611 257.810601 
L 227.002611 257.810601 
L 227.002611 257.810601 
L 226.717616 258.095596 
L 226.147625 258.380591 
L 225.577634 260.660554 
L 227.287606 260.090563 
L 227.287606 258.380591 
L 227.287606 257.810601 
L 227.287606 257.525606 
L 227.572601 258.095596 
L 229.282573 261.230544 
L 229.282573 261.230544 
L 229.567568 261.230544 
" style="fill:none;stroke:#8c8c8c;stroke-linecap:square;"/>
   </g>
   <g id="line2d_19">
    <path clip-path="url(#p8d260c1fb6)" d="M 230.137559 259.805568 
L 230.137559 259.805568 
L 230.137559 259.805568 
L 230.422554 259.520573 
L 230.422554 259.520573 
L 230.422554 260.090563 
L 230.70755 260.660554 
L 230.70755 260.945549 
L 230.70755 260.090563 
L 231.27754 258.095596 
L 231.27754 257.810601 
L 232.132526 257.525606 
L 233.272507 257.810601 
L 234.127493 260.090563 
L 234.127493 260.375558 
L 234.412488 261.230544 
" style="fill:none;stroke:#8c8c8c;stroke-linecap:square;"/>
   </g>
   <g id="line2d_20">
    <path clip-path="url(#p8d260c1fb6)" d="M 235.837465 255.815634 
L 235.837465 255.815634 
L 236.12246 256.100629 
L 237.262441 257.810601 
L 239.542403 261.230544 
L 239.827399 261.800535 
" style="fill:none;stroke:#8c8c8c;stroke-linecap:square;"/>
   </g>
   <g id="line2d_21">
    <path clip-path="url(#p8d260c1fb6)" d="M 236.69245 259.235577 
L 236.407455 259.235577 
L 236.12246 258.950582 
L 236.407455 258.665587 
L 236.977446 258.380591 
L 238.402422 257.810601 
L 239.257408 257.810601 
" style="fill:none;stroke:#8c8c8c;stroke-linecap:square;"/>
   </g>
   <g id="line2d_22">
    <path clip-path="url(#p8d260c1fb6)" d="M 241.53737 256.955615 
L 241.822366 256.955615 
L 243.532337 256.385624 
L 242.962347 256.67062 
L 242.392356 257.525606 
L 242.107361 257.525606 
L 243.247342 258.095596 
L 243.532337 258.095596 
L 244.672318 258.380591 
L 248.092262 260.375558 
L 247.522271 261.515539 
L 246.952281 261.515539 
" style="fill:none;stroke:#8c8c8c;stroke-linecap:square;"/>
   </g>
   <g id="line2d_23">
    <path clip-path="url(#p8d260c1fb6)" d="M 20.951022 40.929192 
L 20.951022 40.929192 
L 20.951022 40.929192 
L 20.951022 40.929192 
L 20.951022 40.929192 
L 21.236018 40.929192 
L 21.236018 40.929192 
L 21.236018 40.929192 
L 21.521013 40.929192 
L 21.521013 40.644196 
L 22.091003 40.644196 
L 22.375999 40.359201 
L 22.660994 40.359201 
L 24.08597 39.504215 
L 25.225952 39.21922 
L 27.220919 38.364234 
L 29.785876 37.509248 
L 31.780843 36.939258 
L 35.200786 36.084272 
L 36.055772 35.799277 
L 36.910758 35.514281 
L 38.050739 35.229286 
" style="fill:none;stroke:#8c8c8c;stroke-linecap:square;"/>
   </g>
   <g id="line2d_24">
    <path clip-path="url(#p8d260c1fb6)" d="M 19.526046 37.509248 
L 19.811041 37.509248 
L 19.811041 37.509248 
L 19.811041 37.794243 
L 20.096036 37.794243 
L 19.811041 38.649229 
L 19.811041 38.934225 
L 18.956055 40.929192 
L 18.67106 40.929192 
L 18.67106 41.499182 
L 18.67106 42.069173 
L 19.241051 42.069173 
L 22.091003 42.069173 
L 24.940956 42.069173 
L 25.510947 42.069173 
" style="fill:none;stroke:#8c8c8c;stroke-linecap:square;"/>
   </g>
   <g id="line2d_25">
    <path clip-path="url(#p8d260c1fb6)" d="M 63.700315 24.684461 
L 63.700315 24.684461 
L 63.700315 24.684461 
L 63.700315 24.399465 
L 63.98531 24.399465 
L 63.98531 24.399465 
L 63.98531 24.399465 
L 63.98531 24.399465 
L 64.5553 24.969456 
L 65.410286 25.254451 
L 67.690249 26.394432 
L 70.540201 26.964423 
L 71.395187 27.249418 
L 72.820164 27.534413 
L 73.675149 27.534413 
L 73.960145 27.819409 
L 73.960145 28.674394 
L 73.960145 28.674394 
L 72.535168 29.814376 
L 70.540201 31.524347 
L 68.83023 33.234319 
L 66.835263 34.944291 
L 65.980277 36.369267 
L 65.695282 36.654262 
L 65.410286 36.654262 
" style="fill:none;stroke:#8c8c8c;stroke-linecap:square;"/>
   </g>
   <g id="line2d_26">
    <path clip-path="url(#p8d260c1fb6)" d="M 84.50497 25.254451 
L 84.50497 25.254451 
L 84.50497 24.969456 
L 83.649984 24.684461 
L 83.649984 24.684461 
L 81.940013 24.684461 
L 79.66005 25.824442 
L 78.520069 27.249418 
L 78.520069 28.95939 
L 82.225008 28.674394 
L 82.510003 28.389399 
L 84.50497 25.824442 
L 84.789965 25.539446 
L 84.789965 25.254451 
L 85.074961 26.394432 
L 85.359956 28.674394 
L 85.644951 30.099371 
L 86.784932 33.80431 
L 87.069928 34.659295 
L 87.354923 34.659295 
" style="fill:none;stroke:#8c8c8c;stroke-linecap:square;"/>
   </g>
   <g id="line2d_27">
    <path clip-path="url(#p8d260c1fb6)" d="M 96.189777 24.969456 
L 96.189777 24.684461 
L 96.189777 24.684461 
L 95.904781 24.399465 
L 95.619786 24.11447 
L 92.769833 24.399465 
L 91.914847 24.684461 
L 90.489871 27.249418 
L 92.769833 27.819409 
L 95.619786 26.679427 
L 97.614753 24.11447 
L 97.899748 23.829475 
L 97.614753 22.974489 
L 97.614753 23.829475 
L 97.614753 27.534413 
L 97.614753 31.239352 
L 97.899748 33.519314 
L 97.899748 34.659295 
" style="fill:none;stroke:#8c8c8c;stroke-linecap:square;"/>
   </g>
   <g id="line2d_28">
    <path clip-path="url(#p8d260c1fb6)" d="M 113.859484 22.119503 
L 113.859484 22.119503 
L 113.859484 22.119503 
L 113.574489 22.119503 
L 113.289494 22.119503 
L 112.719503 22.119503 
L 111.579522 23.259484 
L 112.149512 24.684461 
L 114.144479 24.11447 
L 114.144479 23.829475 
L 113.289494 23.259484 
L 112.719503 23.259484 
L 112.434508 23.259484 
" style="fill:none;stroke:#8c8c8c;stroke-linecap:square;"/>
   </g>
   <g id="line2d_29">
    <path clip-path="url(#p8d260c1fb6)" d="M 122.694338 30.954357 
L 122.694338 30.954357 
L 122.409343 30.669361 
L 122.124347 30.669361 
L 122.124347 30.669361 
L 121.269361 31.524347 
L 121.269361 32.949324 
L 122.409343 32.949324 
L 122.979333 31.809343 
L 122.694338 31.239352 
L 122.409343 31.239352 
L 122.124347 31.239352 
" style="fill:none;stroke:#8c8c8c;stroke-linecap:square;"/>
   </g>
   <g id="line2d_30">
    <path clip-path="url(#p8d260c1fb6)" d="M 109.584555 33.519314 
L 109.584555 33.519314 
L 109.584555 33.519314 
L 109.86955 33.519314 
L 111.579522 32.664328 
L 114.999465 30.954357 
L 119.274394 28.389399 
L 124.689305 24.684461 
L 130.674206 20.694527 
L 130.959201 20.409531 
L 131.529192 19.839541 
L 132.099182 19.554545 
L 132.099182 19.554545 
L 132.099182 19.554545 
" style="fill:none;stroke:#8c8c8c;stroke-linecap:square;"/>
   </g>
  </g>
 </g>
 <defs>
  <clipPath id="p8d260c1fb6">
   <rect height="271.8" width="252.363322" x="7.2" y="7.2"/>
  </clipPath>
 </defs>
</svg>
