<?xml version="1.0" encoding="utf-8" standalone="no"?>
<!DOCTYPE svg PUBLIC "-//W3C//DTD SVG 1.1//EN"
  "http://www.w3.org/Graphics/SVG/1.1/DTD/svg11.dtd">
<!-- Created with matplotlib (https://matplotlib.org/) -->
<svg height="286.2pt" version="1.1" viewBox="0 0 70.718919 286.2" width="70.718919pt" xmlns="http://www.w3.org/2000/svg" xmlns:xlink="http://www.w3.org/1999/xlink">
 <metadata>
  <rdf:RDF xmlns:cc="http://creativecommons.org/ns#" xmlns:dc="http://purl.org/dc/elements/1.1/" xmlns:rdf="http://www.w3.org/1999/02/22-rdf-syntax-ns#">
   <cc:Work>
    <dc:type rdf:resource="http://purl.org/dc/dcmitype/StillImage"/>
    <dc:date>2024-11-15T16:03:34.881096</dc:date>
    <dc:format>image/svg+xml</dc:format>
    <dc:creator>
     <cc:Agent>
      <dc:title>Matplotlib v3.3.4, https://matplotlib.org/</dc:title>
     </cc:Agent>
    </dc:creator>
   </cc:Work>
  </rdf:RDF>
 </metadata>
 <defs>
  <style type="text/css">*{stroke-linecap:butt;stroke-linejoin:round;}</style>
 </defs>
 <g id="figure_1">
  <g id="patch_1">
   <path d="M 0 286.2 
L 70.718919 286.2 
L 70.718919 0 
L 0 0 
z
" style="fill:#ffffff;"/>
  </g>
  <g id="axes_1">
   <g id="line2d_1">
    <path clip-path="url(#pfb85c1cf23)" d="M 59.474939 123.436609 
L 58.732924 123.436609 
L 57.990909 123.436609 
L 57.990909 123.436609 
L 57.248894 122.694595 
L 56.50688 121.95258 
L 55.764865 121.95258 
L 52.796806 121.95258 
L 50.570762 121.95258 
L 49.086732 121.95258 
L 44.634644 121.95258 
L 43.892629 121.95258 
L 43.150614 121.95258 
L 42.4086 121.95258 
L 42.4086 121.95258 
L 41.666585 121.95258 
L 40.182555 122.694595 
L 37.214496 122.694595 
L 34.246437 123.436609 
L 30.536364 123.436609 
L 29.794349 123.436609 
L 28.310319 124.178624 
L 26.82629 124.920639 
L 23.858231 126.404668 
L 20.148157 126.404668 
L 16.438084 126.404668 
L 13.470025 127.146683 
L 11.985995 127.146683 
L 11.24398 127.146683 
L 10.501966 127.888698 
L 9.759951 128.630713 
" style="fill:none;stroke:#8c8c8c;stroke-linecap:square;"/>
   </g>
   <g id="line2d_2">
    <path clip-path="url(#pfb85c1cf23)" d="M 51.312776 115.274447 
L 51.312776 115.274447 
L 53.538821 115.274447 
L 55.02285 115.274447 
L 57.248894 115.274447 
L 59.474939 115.274447 
L 60.958968 115.274447 
L 60.958968 115.274447 
L 60.958968 116.758477 
L 60.216953 117.500491 
L 58.732924 120.46855 
L 57.248894 121.95258 
L 55.764865 124.178624 
L 55.02285 124.920639 
L 53.538821 125.662654 
L 52.796806 126.404668 
" style="fill:none;stroke:#8c8c8c;stroke-linecap:square;"/>
   </g>
   <g id="line2d_3">
    <path clip-path="url(#pfb85c1cf23)" d="M 52.796806 258.483292 
L 52.054791 258.483292 
L 50.570762 258.483292 
L 49.828747 258.483292 
L 48.344717 258.483292 
L 47.602703 259.225307 
L 43.892629 259.225307 
L 39.440541 259.967322 
L 37.956511 260.709337 
L 31.278378 262.935381 
L 30.536364 262.935381 
L 29.794349 262.935381 
L 29.052334 262.935381 
L 27.568305 263.677396 
" style="fill:none;stroke:#8c8c8c;stroke-linecap:square;"/>
   </g>
   <g id="line2d_4">
    <path clip-path="url(#pfb85c1cf23)" d="M 50.570762 248.095086 
L 52.054791 248.837101 
L 54.280835 249.579115 
L 55.764865 249.579115 
L 56.50688 250.32113 
L 57.248894 251.80516 
L 57.248894 253.289189 
L 57.248894 254.031204 
L 55.764865 256.999263 
L 55.764865 258.483292 
L 55.02285 262.193366 
L 54.280835 264.41941 
L 53.538821 265.90344 
L 53.538821 266.645455 
L 53.538821 266.645455 
" style="fill:none;stroke:#8c8c8c;stroke-linecap:square;"/>
   </g>
   <g id="line2d_5">
    <path clip-path="url(#pfb85c1cf23)" d="M 36.472482 24.748649 
L 37.214496 24.748649 
L 37.214496 24.748649 
L 39.440541 25.490663 
L 40.182555 26.232678 
L 42.4086 26.232678 
L 43.150614 26.232678 
L 43.892629 26.232678 
L 43.892629 26.232678 
L 45.376658 26.232678 
L 46.860688 26.974693 
L 49.828747 26.974693 
L 52.796806 26.974693 
L 53.538821 26.974693 
L 54.280835 26.974693 
L 55.02285 26.974693 
L 56.50688 26.974693 
L 57.248894 26.974693 
" style="fill:none;stroke:#8c8c8c;stroke-linecap:square;"/>
   </g>
   <g id="line2d_6">
    <path clip-path="url(#pfb85c1cf23)" d="M 55.02285 20.29656 
L 55.764865 19.554545 
L 57.248894 20.29656 
L 57.990909 20.29656 
L 58.732924 21.038575 
L 60.216953 21.038575 
L 60.958968 22.522604 
L 60.958968 23.264619 
L 60.958968 25.490663 
L 58.732924 31.426781 
L 57.990909 35.136855 
L 56.50688 36.620885 
" style="fill:none;stroke:#8c8c8c;stroke-linecap:square;"/>
   </g>
  </g>
 </g>
 <defs>
  <clipPath id="pfb85c1cf23">
   <rect height="271.8" width="56.318919" x="7.2" y="7.2"/>
  </clipPath>
 </defs>
</svg>
