<?xml version="1.0" encoding="utf-8" standalone="no"?>
<!DOCTYPE svg PUBLIC "-//W3C//DTD SVG 1.1//EN"
  "http://www.w3.org/Graphics/SVG/1.1/DTD/svg11.dtd">
<!-- Created with matplotlib (https://matplotlib.org/) -->
<svg height="286.2pt" version="1.1" viewBox="0 0 259.69668 286.2" width="259.69668pt" xmlns="http://www.w3.org/2000/svg" xmlns:xlink="http://www.w3.org/1999/xlink">
 <metadata>
  <rdf:RDF xmlns:cc="http://creativecommons.org/ns#" xmlns:dc="http://purl.org/dc/elements/1.1/" xmlns:rdf="http://www.w3.org/1999/02/22-rdf-syntax-ns#">
   <cc:Work>
    <dc:type rdf:resource="http://purl.org/dc/dcmitype/StillImage"/>
    <dc:date>2024-11-15T16:04:26.233263</dc:date>
    <dc:format>image/svg+xml</dc:format>
    <dc:creator>
     <cc:Agent>
      <dc:title>Matplotlib v3.3.4, https://matplotlib.org/</dc:title>
     </cc:Agent>
    </dc:creator>
   </cc:Work>
  </rdf:RDF>
 </metadata>
 <defs>
  <style type="text/css">*{stroke-linecap:butt;stroke-linejoin:round;}</style>
 </defs>
 <g id="figure_1">
  <g id="patch_1">
   <path d="M 0 286.2 
L 259.69668 286.2 
L 259.69668 0 
L 0 0 
z
" style="fill:#ffffff;"/>
  </g>
  <g id="axes_1">
   <g id="line2d_1">
    <path clip-path="url(#p49bcf09ba8)" d="M 31.165768 34.933648 
L 31.165768 34.421011 
L 31.165768 34.933648 
L 31.165768 35.958921 
L 31.165768 37.496831 
L 31.165768 40.572652 
L 31.678404 43.648472 
L 31.678404 46.724293 
L 31.678404 49.800113 
L 32.191041 52.875934 
L 32.191041 54.413844 
L 32.191041 54.926481 
L 32.703678 54.926481 
L 32.703678 54.413844 
" style="fill:none;stroke:#8c8c8c;stroke-linecap:square;"/>
   </g>
   <g id="line2d_2">
    <path clip-path="url(#p49bcf09ba8)" d="M 37.830045 38.522105 
L 37.830045 39.034742 
L 37.317409 39.034742 
L 37.317409 40.060015 
L 35.779498 41.085289 
L 34.754225 42.110562 
L 33.728951 43.135836 
L 32.703678 44.161109 
L 32.191041 45.186382 
L 31.678404 45.699019 
L 31.678404 46.211656 
L 32.191041 46.724293 
L 33.728951 47.236929 
L 35.266862 48.262203 
L 37.317409 50.31275 
L 38.342682 52.363297 
L 39.367955 53.901207 
L 39.880592 54.926481 
L 40.393229 54.926481 
" style="fill:none;stroke:#8c8c8c;stroke-linecap:square;"/>
   </g>
   <g id="line2d_3">
    <path clip-path="url(#p49bcf09ba8)" d="M 42.443776 48.262203 
L 42.443776 47.749566 
L 42.956413 47.749566 
L 43.981686 47.749566 
L 45.519596 47.236929 
L 46.032233 47.236929 
L 47.057507 48.262203 
L 47.057507 49.287476 
L 46.54487 51.85066 
L 45.00696 54.413844 
L 43.981686 56.464391 
L 43.981686 57.489664 
L 44.494323 57.489664 
L 46.032233 56.977028 
L 48.08278 56.464391 
L 49.62069 55.951754 
L 51.158601 55.439117 
L 51.671237 54.926481 
" style="fill:none;stroke:#8c8c8c;stroke-linecap:square;"/>
   </g>
   <g id="line2d_4">
    <path clip-path="url(#p49bcf09ba8)" d="M 24.50149 64.666579 
L 23.476217 64.666579 
L 22.96358 64.666579 
L 22.96358 65.179215 
L 24.50149 65.179215 
L 29.627857 64.666579 
L 37.317409 63.641305 
L 43.469049 63.641305 
L 50.133327 63.128668 
L 54.747058 63.128668 
L 57.822878 62.616032 
L 58.848152 62.616032 
L 59.360788 62.103395 
" style="fill:none;stroke:#8c8c8c;stroke-linecap:square;"/>
   </g>
   <g id="line2d_5">
    <path clip-path="url(#p49bcf09ba8)" d="M 26.552037 75.944587 
L 26.552037 75.43195 
L 26.552037 75.944587 
L 26.552037 76.457224 
L 26.552037 77.995134 
L 26.0394 81.070954 
L 26.552037 85.172048 
L 26.552037 89.785779 
L 27.064674 92.348963 
L 27.064674 93.886873 
L 27.57731 93.886873 
L 27.57731 92.348963 
" style="fill:none;stroke:#8c8c8c;stroke-linecap:square;"/>
   </g>
   <g id="line2d_6">
    <path clip-path="url(#p49bcf09ba8)" d="M 34.241588 75.944587 
L 34.241588 76.96986 
L 34.241588 78.507771 
L 33.728951 79.533044 
L 32.191041 82.096228 
L 30.140494 84.146775 
L 28.089947 86.197322 
L 26.552037 87.222595 
L 28.089947 87.735232 
L 30.653131 88.247869 
L 32.703678 88.760505 
L 34.754225 90.298416 
L 35.779498 91.323689 
L 36.804772 91.323689 
" style="fill:none;stroke:#8c8c8c;stroke-linecap:square;"/>
   </g>
   <g id="line2d_7">
    <path clip-path="url(#p49bcf09ba8)" d="M 38.855319 87.735232 
L 39.367955 87.735232 
L 39.367955 88.247869 
L 39.367955 88.760505 
L 39.880592 90.298416 
L 40.905866 91.836326 
L 41.931139 91.836326 
L 42.956413 91.323689 
L 43.981686 90.298416 
L 43.981686 88.247869 
L 42.443776 86.709959 
L 41.418502 86.197322 
L 39.880592 86.709959 
L 39.367955 87.222595 
L 38.855319 87.222595 
" style="fill:none;stroke:#8c8c8c;stroke-linecap:square;"/>
   </g>
   <g id="line2d_8">
    <path clip-path="url(#p49bcf09ba8)" d="M 51.158601 74.919313 
L 50.645964 74.919313 
L 50.133327 75.43195 
L 50.133327 76.96986 
L 50.133327 79.020407 
L 50.133327 83.121501 
L 51.158601 87.735232 
L 51.671237 90.811052 
L 52.183874 92.348963 
L 52.696511 92.861599 
L 52.183874 91.836326 
" style="fill:none;stroke:#8c8c8c;stroke-linecap:square;"/>
   </g>
   <g id="line2d_9">
    <path clip-path="url(#p49bcf09ba8)" d="M 56.797605 78.507771 
L 57.310241 78.507771 
L 57.310241 79.533044 
L 56.284968 80.558318 
L 55.259694 82.096228 
L 53.209147 84.659412 
L 51.671237 85.172048 
L 50.645964 85.684685 
L 50.133327 86.197322 
L 50.645964 86.197322 
L 51.158601 86.197322 
L 53.209147 86.197322 
L 56.284968 87.222595 
L 58.335515 88.760505 
L 60.386062 91.323689 
L 61.411335 92.348963 
" style="fill:none;stroke:#8c8c8c;stroke-linecap:square;"/>
   </g>
   <g id="line2d_10">
    <path clip-path="url(#p49bcf09ba8)" d="M 64.487156 86.197322 
L 64.999793 86.709959 
L 65.512429 87.222595 
L 66.537703 89.273142 
L 67.050339 91.323689 
L 67.562976 93.374236 
L 67.562976 94.39951 
" style="fill:none;stroke:#8c8c8c;stroke-linecap:square;"/>
   </g>
   <g id="line2d_11">
    <path clip-path="url(#p49bcf09ba8)" d="M 87.043172 54.413844 
L 87.043172 53.901207 
L 86.530536 53.901207 
L 87.043172 54.413844 
L 87.043172 54.926481 
L 87.043172 55.439117 
L 87.043172 56.977028 
L 87.043172 60.052848 
L 87.043172 62.616032 
L 86.530536 65.179215 
L 86.530536 66.204489 
L 85.505262 67.229762 
L 84.479989 66.717126 
L 82.429442 65.691852 
L 80.891531 64.153942 
L 79.866258 62.616032 
L 79.866258 61.078121 
L 79.866258 59.540211 
L 80.891531 58.514938 
L 81.404168 58.514938 
L 82.429442 58.002301 
L 83.454715 58.514938 
L 84.992625 59.540211 
L 86.530536 61.078121 
L 87.555809 62.616032 
L 89.606356 65.179215 
L 90.63163 66.204489 
L 93.194813 66.717126 
L 94.732724 66.204489 
L 95.24536 65.691852 
" style="fill:none;stroke:#8c8c8c;stroke-linecap:square;"/>
   </g>
   <g id="line2d_12">
    <path clip-path="url(#p49bcf09ba8)" d="M 113.700283 62.616032 
L 113.700283 63.128668 
L 113.700283 63.641305 
L 114.21292 63.641305 
L 114.725556 64.153942 
L 115.75083 64.153942 
L 116.776103 64.153942 
L 117.801377 62.616032 
L 117.801377 61.590758 
L 117.801377 60.052848 
L 116.776103 58.514938 
L 115.238193 58.002301 
L 114.725556 58.514938 
L 113.700283 59.027575 
L 113.187646 60.565485 
L 112.675009 63.128668 
L 113.187646 66.717126 
L 113.700283 70.81822 
L 114.725556 72.868767 
L 115.238193 74.919313 
L 115.75083 75.944587 
L 116.263467 76.457224 
L 116.263467 75.43195 
" style="fill:none;stroke:#8c8c8c;stroke-linecap:square;"/>
   </g>
   <g id="line2d_13">
    <path clip-path="url(#p49bcf09ba8)" d="M 129.079385 48.262203 
L 128.566748 47.749566 
L 128.054112 48.262203 
L 127.028838 48.77484 
L 125.490928 49.800113 
L 123.440381 52.875934 
L 122.415108 55.951754 
L 123.440381 59.540211 
L 126.003565 62.103395 
L 129.592022 64.153942 
L 132.667842 64.666579 
L 134.718389 63.641305 
" style="fill:none;stroke:#8c8c8c;stroke-linecap:square;"/>
   </g>
   <g id="line2d_14">
    <path clip-path="url(#p49bcf09ba8)" d="M 137.281573 53.38857 
L 137.281573 52.875934 
L 136.2563 52.363297 
L 135.743663 52.363297 
L 134.718389 52.363297 
L 133.693116 53.38857 
L 132.667842 54.926481 
L 132.155206 56.464391 
L 132.667842 60.052848 
L 134.205753 62.103395 
L 137.281573 63.641305 
L 139.33212 63.128668 
L 140.87003 61.590758 
L 141.382667 58.514938 
L 140.357393 54.926481 
L 138.819483 51.338023 
L 137.281573 50.31275 
L 135.231026 50.31275 
L 134.205753 51.85066 
L 133.693116 52.875934 
" style="fill:none;stroke:#8c8c8c;stroke-linecap:square;"/>
   </g>
   <g id="line2d_15">
    <path clip-path="url(#p49bcf09ba8)" d="M 145.483761 56.977028 
L 146.509034 56.464391 
L 148.046945 56.464391 
L 150.097492 55.951754 
L 151.122765 56.977028 
L 151.635402 58.002301 
L 150.610128 60.052848 
L 148.559581 62.616032 
L 147.021671 65.179215 
L 147.021671 66.204489 
L 147.534308 66.717126 
L 149.072218 66.717126 
L 152.148038 66.204489 
L 155.223859 65.691852 
L 156.761769 64.666579 
L 156.761769 64.153942 
" style="fill:none;stroke:#8c8c8c;stroke-linecap:square;"/>
   </g>
   <g id="line2d_16">
    <path clip-path="url(#p49bcf09ba8)" d="M 20.400396 116.442889 
L 19.887759 116.442889 
L 19.887759 116.955526 
L 19.375123 116.955526 
L 19.375123 117.468163 
L 19.375123 117.9808 
L 19.375123 118.493436 
L 19.375123 119.006073 
L 19.887759 118.493436 
L 19.887759 117.9808 
L 19.375123 117.9808 
L 18.862486 118.493436 
L 18.349849 118.493436 
" style="fill:none;stroke:#8c8c8c;stroke-linecap:square;"/>
   </g>
   <g id="line2d_17">
    <path clip-path="url(#p49bcf09ba8)" d="M 31.678404 117.9808 
L 31.678404 117.468163 
L 31.165768 117.9808 
L 30.653131 118.493436 
L 30.653131 119.006073 
L 30.653131 120.031347 
L 30.653131 121.569257 
L 30.653131 123.107167 
L 30.653131 124.132441 
L 30.653131 123.619804 
L 30.653131 123.107167 
L 30.653131 120.031347 
L 30.653131 116.442889 
L 31.165768 113.879706 
L 31.678404 112.341796 
L 32.191041 112.341796 
L 33.216315 113.879706 
L 34.241588 116.442889 
L 35.266862 118.493436 
L 35.779498 121.05662 
L 36.292135 122.081894 
L 36.292135 122.59453 
" style="fill:none;stroke:#8c8c8c;stroke-linecap:square;"/>
   </g>
   <g id="line2d_18">
    <path clip-path="url(#p49bcf09ba8)" d="M 31.678404 120.031347 
L 31.165768 120.031347 
L 31.678404 120.031347 
L 32.703678 119.51871 
L 34.241588 119.006073 
L 36.804772 117.9808 
L 37.830045 116.955526 
" style="fill:none;stroke:#8c8c8c;stroke-linecap:square;"/>
   </g>
   <g id="line2d_19">
    <path clip-path="url(#p49bcf09ba8)" d="M 41.418502 112.854432 
L 40.905866 112.854432 
L 40.393229 113.367069 
L 39.367955 113.879706 
L 38.855319 115.417616 
L 38.342682 115.930253 
L 38.342682 116.442889 
L 38.855319 116.955526 
L 39.367955 116.955526 
L 40.393229 117.468163 
L 41.931139 117.9808 
L 42.956413 119.51871 
L 42.956413 120.543983 
L 42.956413 121.05662 
L 42.443776 121.05662 
" style="fill:none;stroke:#8c8c8c;stroke-linecap:square;"/>
   </g>
   <g id="line2d_20">
    <path clip-path="url(#p49bcf09ba8)" d="M 46.032233 115.417616 
L 46.54487 114.904979 
L 46.54487 114.392343 
L 47.057507 114.392343 
L 46.54487 114.904979 
L 46.54487 115.417616 
L 46.032233 115.930253 
L 45.519596 116.955526 
L 45.00696 117.9808 
L 45.00696 118.493436 
L 45.519596 118.493436 
L 46.54487 118.493436 
L 48.08278 119.006073 
L 49.62069 119.51871 
L 50.133327 120.031347 
L 49.62069 121.569257 
L 49.62069 122.081894 
L 49.108054 122.081894 
" style="fill:none;stroke:#8c8c8c;stroke-linecap:square;"/>
   </g>
   <g id="line2d_21">
    <path clip-path="url(#p49bcf09ba8)" d="M 50.645964 119.51871 
L 51.158601 119.51871 
L 51.671237 119.51871 
L 52.183874 120.031347 
L 53.209147 120.543983 
L 54.234421 121.05662 
L 55.259694 121.569257 
L 56.284968 121.569257 
L 56.284968 121.05662 
L 56.797605 120.031347 
L 56.284968 118.493436 
L 56.284968 117.468163 
L 56.284968 116.955526 
" style="fill:none;stroke:#8c8c8c;stroke-linecap:square;"/>
   </g>
   <g id="line2d_22">
    <path clip-path="url(#p49bcf09ba8)" d="M 58.848152 115.417616 
L 59.360788 115.930253 
L 59.360788 116.442889 
L 59.873425 116.955526 
L 60.386062 118.493436 
L 60.386062 119.006073 
L 60.898699 119.51871 
L 60.898699 119.006073 
L 61.411335 117.468163 
L 61.923972 116.442889 
L 62.436609 115.930253 
L 62.949246 115.930253 
L 63.461882 116.442889 
L 63.974519 117.468163 
L 63.974519 118.493436 
L 64.487156 118.493436 
L 64.999793 117.9808 
L 64.999793 117.468163 
L 65.512429 116.955526 
L 66.025066 115.930253 
L 66.537703 116.442889 
L 67.050339 116.955526 
L 67.562976 117.9808 
L 68.075613 117.9808 
L 68.58825 117.9808 
" style="fill:none;stroke:#8c8c8c;stroke-linecap:square;"/>
   </g>
   <g id="line2d_23">
    <path clip-path="url(#p49bcf09ba8)" d="M 69.100886 117.468163 
L 69.613523 117.468163 
L 70.12616 117.468163 
L 70.638797 117.468163 
L 71.151433 117.468163 
L 72.689344 116.442889 
L 72.689344 115.930253 
L 72.689344 114.392343 
L 72.176707 113.879706 
L 71.151433 113.367069 
L 69.613523 114.904979 
L 69.100886 116.442889 
L 70.638797 119.51871 
L 71.151433 120.031347 
L 73.714617 121.05662 
L 75.252527 121.05662 
" style="fill:none;stroke:#8c8c8c;stroke-linecap:square;"/>
   </g>
   <g id="line2d_24">
    <path clip-path="url(#p49bcf09ba8)" d="M 102.422275 119.006073 
L 101.909638 119.006073 
L 101.909638 118.493436 
L 101.909638 119.006073 
L 101.909638 119.51871 
L 101.909638 120.031347 
L 101.909638 120.543983 
L 101.909638 120.031347 
L 101.909638 119.51871 
L 101.397001 118.493436 
L 99.859091 115.417616 
L 98.833817 112.854432 
L 98.321181 109.778612 
L 97.808544 107.215428 
L 98.321181 106.190155 
L 99.346454 105.677518 
L 100.371728 105.677518 
L 101.397001 106.190155 
L 101.909638 106.702791 
" style="fill:none;stroke:#8c8c8c;stroke-linecap:square;"/>
   </g>
   <g id="line2d_25">
    <path clip-path="url(#p49bcf09ba8)" d="M 97.808544 113.367069 
L 97.295907 113.367069 
L 97.295907 113.879706 
L 97.808544 114.904979 
L 99.859091 115.417616 
L 102.422275 115.417616 
L 103.960185 115.417616 
L 105.498095 114.904979 
L 106.010732 114.904979 
" style="fill:none;stroke:#8c8c8c;stroke-linecap:square;"/>
   </g>
   <g id="line2d_26">
    <path clip-path="url(#p49bcf09ba8)" d="M 108.573916 114.392343 
L 109.086552 114.392343 
L 109.599189 115.930253 
L 109.599189 117.468163 
L 110.111826 119.006073 
L 110.624462 119.51871 
" style="fill:none;stroke:#8c8c8c;stroke-linecap:square;"/>
   </g>
   <g id="line2d_27">
    <path clip-path="url(#p49bcf09ba8)" d="M 110.111826 111.316522 
L 110.111826 110.803885 
L 110.111826 110.291249 
L 110.624462 110.291249 
L 111.137099 110.291249 
" style="fill:none;stroke:#8c8c8c;stroke-linecap:square;"/>
   </g>
   <g id="line2d_28">
    <path clip-path="url(#p49bcf09ba8)" d="M 118.314014 110.803885 
L 117.801377 111.316522 
L 116.776103 112.341796 
L 115.75083 113.879706 
L 115.238193 115.930253 
L 114.725556 117.468163 
L 115.238193 119.006073 
L 115.238193 119.51871 
" style="fill:none;stroke:#8c8c8c;stroke-linecap:square;"/>
   </g>
   <g id="line2d_29">
    <path clip-path="url(#p49bcf09ba8)" d="M 114.725556 113.879706 
L 114.725556 113.367069 
L 115.238193 113.367069 
L 115.238193 113.879706 
L 116.263467 114.392343 
L 117.801377 115.930253 
L 118.314014 115.930253 
L 118.314014 116.442889 
" style="fill:none;stroke:#8c8c8c;stroke-linecap:square;"/>
   </g>
   <g id="line2d_30">
    <path clip-path="url(#p49bcf09ba8)" d="M 120.364561 115.417616 
L 120.877197 115.417616 
L 121.389834 115.930253 
L 122.927744 115.930253 
L 123.953018 115.417616 
L 125.490928 113.879706 
L 125.490928 112.854432 
L 125.490928 111.829159 
L 124.978291 111.316522 
L 123.440381 111.829159 
L 122.415108 113.879706 
L 121.902471 116.955526 
L 122.415108 117.9808 
L 123.953018 119.006073 
" style="fill:none;stroke:#8c8c8c;stroke-linecap:square;"/>
   </g>
   <g id="line2d_31">
    <path clip-path="url(#p49bcf09ba8)" d="M 130.104659 114.904979 
L 130.617295 114.392343 
L 130.104659 114.392343 
L 130.104659 113.879706 
L 129.592022 113.879706 
L 129.079385 114.392343 
L 127.541475 115.417616 
L 127.028838 115.930253 
L 127.028838 116.955526 
L 128.054112 117.468163 
L 129.592022 117.468163 
L 131.642569 116.442889 
L 133.180479 113.367069 
L 133.693116 110.803885 
L 133.180479 108.240702 
L 132.667842 106.702791 
L 132.155206 106.702791 
L 132.155206 107.728065 
L 131.642569 110.291249 
L 132.155206 113.367069 
L 132.667842 116.442889 
L 133.693116 118.493436 
L 134.205753 118.493436 
" style="fill:none;stroke:#8c8c8c;stroke-linecap:square;"/>
   </g>
   <g id="line2d_32">
    <path clip-path="url(#p49bcf09ba8)" d="M 159.324953 111.829159 
L 158.812316 111.829159 
L 158.812316 111.316522 
L 158.812316 111.829159 
L 158.812316 112.854432 
L 158.812316 113.367069 
L 158.812316 115.417616 
L 158.812316 116.955526 
L 159.324953 118.493436 
L 159.324953 119.006073 
L 159.324953 118.493436 
L 159.324953 117.468163 
L 159.324953 114.904979 
L 159.83759 110.803885 
L 159.83759 107.728065 
L 160.350226 106.190155 
L 160.862863 105.677518 
L 160.862863 106.190155 
L 161.888137 107.728065 
L 162.91341 110.803885 
L 164.45132 115.417616 
L 165.476594 117.468163 
L 165.98923 119.006073 
L 165.98923 119.51871 
L 165.476594 119.51871 
" style="fill:none;stroke:#8c8c8c;stroke-linecap:square;"/>
   </g>
   <g id="line2d_33">
    <path clip-path="url(#p49bcf09ba8)" d="M 160.350226 115.417616 
L 159.83759 115.417616 
L 160.350226 115.417616 
L 160.862863 115.417616 
L 161.888137 114.904979 
L 163.426047 114.904979 
L 164.45132 114.392343 
L 165.476594 114.392343 
L 165.98923 113.879706 
" style="fill:none;stroke:#8c8c8c;stroke-linecap:square;"/>
   </g>
   <g id="line2d_34">
    <path clip-path="url(#p49bcf09ba8)" d="M 166.501867 106.190155 
L 166.501867 105.677518 
L 165.98923 105.677518 
L 165.98923 105.164881 
L 165.98923 105.677518 
L 165.98923 106.190155 
L 165.98923 106.702791 
L 165.98923 107.728065 
L 166.501867 110.803885 
L 167.527141 113.879706 
L 168.552414 116.955526 
L 169.577688 118.493436 
L 170.602961 120.031347 
L 172.140871 120.031347 
L 173.678782 119.51871 
L 175.216692 117.9808 
L 176.241965 116.955526 
" style="fill:none;stroke:#8c8c8c;stroke-linecap:square;"/>
   </g>
   <g id="line2d_35">
    <path clip-path="url(#p49bcf09ba8)" d="M 176.754602 106.190155 
L 176.241965 105.164881 
L 175.729329 105.164881 
L 175.216692 105.164881 
L 175.216692 105.677518 
L 175.729329 107.728065 
L 176.241965 110.803885 
L 177.779876 114.904979 
L 178.292512 117.468163 
L 179.317786 119.51871 
L 179.830422 120.031347 
" style="fill:none;stroke:#8c8c8c;stroke-linecap:square;"/>
   </g>
   <g id="line2d_36">
    <path clip-path="url(#p49bcf09ba8)" d="M 182.393606 107.728065 
L 182.393606 107.215428 
L 181.368333 108.240702 
L 179.830422 110.291249 
L 178.292512 111.316522 
L 177.267239 112.341796 
L 176.754602 112.854432 
L 177.267239 112.854432 
L 177.779876 113.367069 
L 178.805149 113.879706 
L 180.855696 114.904979 
L 183.41888 115.930253 
L 185.469427 116.955526 
L 186.4947 117.9808 
L 187.007337 118.493436 
L 187.519974 118.493436 
" style="fill:none;stroke:#8c8c8c;stroke-linecap:square;"/>
   </g>
   <g id="line2d_37">
    <path clip-path="url(#p49bcf09ba8)" d="M 54.747058 138.998906 
L 54.234421 138.998906 
L 53.721784 138.998906 
L 53.209147 138.998906 
L 52.183874 138.998906 
L 51.158601 139.511543 
L 49.62069 140.536816 
L 49.108054 141.56209 
L 49.108054 142.587363 
L 50.133327 143.612637 
L 51.671237 143.1 
L 53.209147 141.56209 
L 53.209147 140.02418 
L 53.209147 138.486269 
L 53.209147 137.973633 
L 53.209147 137.460996 
L 53.209147 138.486269 
L 53.209147 140.02418 
L 53.209147 142.074727 
L 53.721784 143.612637 
L 54.234421 144.125273 
L 54.747058 144.63791 
L 55.259694 144.63791 
" style="fill:none;stroke:#8c8c8c;stroke-linecap:square;"/>
   </g>
   <g id="line2d_38">
    <path clip-path="url(#p49bcf09ba8)" d="M 58.335515 139.511543 
L 58.335515 140.02418 
L 58.335515 140.536816 
L 58.848152 141.56209 
L 58.848152 142.587363 
L 58.848152 143.1 
L 58.848152 143.612637 
L 58.848152 143.1 
L 58.848152 142.074727 
L 58.848152 140.02418 
L 59.360788 138.998906 
L 60.386062 138.486269 
L 60.898699 138.998906 
L 61.923972 140.02418 
L 63.461882 142.074727 
L 63.974519 143.612637 
L 64.487156 144.63791 
L 64.999793 144.63791 
" style="fill:none;stroke:#8c8c8c;stroke-linecap:square;"/>
   </g>
   <g id="line2d_39">
    <path clip-path="url(#p49bcf09ba8)" d="M 69.613523 140.536816 
L 69.613523 140.02418 
L 69.100886 139.511543 
L 68.58825 139.511543 
L 67.562976 139.511543 
L 66.025066 141.049453 
L 65.512429 142.074727 
L 65.512429 143.612637 
L 66.537703 144.125273 
L 68.58825 144.125273 
L 70.12616 142.587363 
L 71.151433 140.536816 
L 71.151433 137.973633 
L 71.151433 135.410449 
L 70.12616 133.359902 
L 69.613523 132.847265 
L 69.613523 133.872539 
L 69.613523 136.435722 
L 70.638797 140.02418 
L 71.66407 142.074727 
L 72.689344 143.612637 
" style="fill:none;stroke:#8c8c8c;stroke-linecap:square;"/>
   </g>
   <g id="line2d_40">
    <path clip-path="url(#p49bcf09ba8)" d="M 95.757997 133.872539 
L 95.24536 133.872539 
L 94.732724 133.359902 
L 94.220087 133.359902 
L 94.220087 133.872539 
L 94.220087 134.385175 
L 94.220087 135.923086 
L 95.24536 138.486269 
L 96.270634 141.56209 
L 96.78327 142.587363 
L 97.295907 143.612637 
" style="fill:none;stroke:#8c8c8c;stroke-linecap:square;"/>
   </g>
   <g id="line2d_41">
    <path clip-path="url(#p49bcf09ba8)" d="M 96.270634 132.847265 
L 95.757997 132.847265 
L 95.757997 132.334628 
L 95.24536 132.334628 
L 95.757997 132.334628 
L 96.270634 132.334628 
L 98.833817 132.847265 
L 100.884364 133.872539 
L 102.934911 135.923086 
L 104.472822 138.486269 
L 104.472822 140.536816 
L 103.960185 143.1 
L 102.422275 144.63791 
L 99.859091 146.17582 
L 97.295907 146.17582 
L 96.78327 145.663184 
L 96.270634 145.663184 
" style="fill:none;stroke:#8c8c8c;stroke-linecap:square;"/>
   </g>
   <g id="line2d_42">
    <path clip-path="url(#p49bcf09ba8)" d="M 107.548642 132.334628 
L 107.548642 132.847265 
L 107.548642 133.872539 
L 108.061279 136.435722 
L 109.086552 140.02418 
L 109.599189 142.587363 
L 110.111826 144.125273 
L 110.111826 144.63791 
" style="fill:none;stroke:#8c8c8c;stroke-linecap:square;"/>
   </g>
   <g id="line2d_43">
    <path clip-path="url(#p49bcf09ba8)" d="M 117.28874 133.872539 
L 117.801377 133.359902 
L 117.801377 132.334628 
L 117.801377 131.821992 
L 117.801377 131.309355 
L 117.28874 131.309355 
L 115.75083 132.334628 
L 113.700283 133.872539 
L 113.187646 136.948359 
L 113.700283 138.998906 
L 116.263467 141.56209 
L 118.82665 143.1 
L 121.389834 143.1 
L 123.440381 142.074727 
L 123.953018 141.56209 
" style="fill:none;stroke:#8c8c8c;stroke-linecap:square;"/>
   </g>
   <g id="line2d_44">
    <path clip-path="url(#p49bcf09ba8)" d="M 127.541475 144.125273 
L 127.028838 143.612637 
L 127.541475 143.612637 
L 128.054112 143.612637 
L 128.054112 144.125273 
L 127.541475 144.125273 
" style="fill:none;stroke:#8c8c8c;stroke-linecap:square;"/>
   </g>
   <g id="line2d_45">
    <path clip-path="url(#p49bcf09ba8)" d="M 142.40794 134.385175 
L 142.40794 133.872539 
L 142.40794 133.359902 
L 142.40794 132.847265 
L 142.40794 133.359902 
L 142.40794 133.872539 
L 142.920577 134.897812 
L 142.920577 137.460996 
L 143.945851 141.049453 
L 145.483761 144.63791 
L 146.509034 146.688457 
L 147.021671 147.201094 
L 147.534308 146.688457 
" style="fill:none;stroke:#8c8c8c;stroke-linecap:square;"/>
   </g>
   <g id="line2d_46">
    <path clip-path="url(#p49bcf09ba8)" d="M 147.534308 130.796718 
L 147.534308 130.284081 
L 147.534308 130.796718 
L 148.046945 130.796718 
L 148.046945 132.334628 
L 149.072218 135.410449 
L 150.097492 138.486269 
L 151.122765 141.049453 
L 151.635402 143.1 
" style="fill:none;stroke:#8c8c8c;stroke-linecap:square;"/>
   </g>
   <g id="line2d_47">
    <path clip-path="url(#p49bcf09ba8)" d="M 145.483761 139.511543 
L 145.996398 139.511543 
L 146.509034 139.511543 
L 148.559581 139.511543 
L 150.610128 139.511543 
L 151.635402 139.511543 
" style="fill:none;stroke:#8c8c8c;stroke-linecap:square;"/>
   </g>
   <g id="line2d_48">
    <path clip-path="url(#p49bcf09ba8)" d="M 155.223859 138.486269 
L 154.711222 138.998906 
L 154.198585 139.511543 
L 154.198585 141.049453 
L 155.223859 141.56209 
L 156.761769 142.074727 
L 157.787043 142.074727 
L 158.299679 141.56209 
L 158.812316 140.536816 
L 157.787043 138.998906 
L 157.787043 137.973633 
L 157.274406 137.460996 
L 157.274406 136.948359 
L 156.761769 136.948359 
" style="fill:none;stroke:#8c8c8c;stroke-linecap:square;"/>
   </g>
   <g id="line2d_49">
    <path clip-path="url(#p49bcf09ba8)" d="M 162.400773 138.486269 
L 162.400773 137.973633 
L 161.888137 137.973633 
L 161.888137 138.486269 
L 161.888137 138.998906 
L 162.400773 140.02418 
L 162.91341 141.049453 
L 163.426047 141.56209 
L 164.45132 142.074727 
L 164.963957 141.56209 
L 165.476594 141.049453 
L 165.98923 141.049453 
L 166.501867 141.56209 
L 167.014504 142.074727 
L 168.039777 142.587363 
L 169.577688 143.1 
L 170.602961 142.587363 
L 171.115598 141.56209 
L 171.115598 139.511543 
L 171.115598 136.948359 
L 170.602961 135.410449 
" style="fill:none;stroke:#8c8c8c;stroke-linecap:square;"/>
   </g>
   <g id="line2d_50">
    <path clip-path="url(#p49bcf09ba8)" d="M 187.007337 138.998906 
L 187.519974 138.998906 
L 187.519974 138.486269 
L 187.007337 138.486269 
L 187.007337 137.973633 
L 186.4947 137.973633 
L 185.469427 138.486269 
L 184.444153 139.511543 
L 183.931516 141.049453 
L 184.444153 142.074727 
L 185.469427 142.587363 
L 186.4947 142.074727 
L 188.03261 141.049453 
L 189.057884 138.486269 
L 189.057884 135.410449 
L 189.057884 133.359902 
L 189.057884 131.821992 
L 188.545247 130.796718 
L 188.545247 131.309355 
L 188.545247 132.847265 
L 188.545247 135.410449 
L 189.057884 138.998906 
L 189.570521 141.049453 
L 190.595794 142.074727 
L 191.108431 142.074727 
" style="fill:none;stroke:#8c8c8c;stroke-linecap:square;"/>
   </g>
   <g id="line2d_51">
    <path clip-path="url(#p49bcf09ba8)" d="M 194.184251 139.511543 
L 194.184251 138.998906 
L 193.671614 139.511543 
L 192.646341 140.02418 
L 192.646341 141.049453 
L 193.671614 142.074727 
L 194.696888 142.074727 
L 196.234798 142.074727 
L 196.747435 141.56209 
L 197.260072 140.536816 
L 196.234798 138.998906 
L 195.722161 137.973633 
L 194.184251 138.486269 
L 193.671614 138.998906 
L 193.671614 139.511543 
" style="fill:none;stroke:#8c8c8c;stroke-linecap:square;"/>
   </g>
   <g id="line2d_52">
    <path clip-path="url(#p49bcf09ba8)" d="M 199.310619 138.998906 
L 199.310619 138.486269 
L 199.823255 138.486269 
L 200.335892 138.486269 
L 200.848529 138.486269 
L 201.361166 138.486269 
L 202.899076 138.486269 
L 203.411713 137.460996 
L 203.924349 136.435722 
L 203.411713 135.410449 
L 202.386439 135.410449 
L 200.848529 136.435722 
L 199.823255 137.973633 
L 199.823255 139.511543 
L 201.361166 141.049453 
L 202.899076 141.56209 
L 203.924349 141.56209 
" style="fill:none;stroke:#8c8c8c;stroke-linecap:square;"/>
   </g>
   <g id="line2d_53">
    <path clip-path="url(#p49bcf09ba8)" d="M 208.53808 138.486269 
L 209.050717 137.460996 
L 209.563353 136.948359 
L 209.050717 136.435722 
L 208.025443 135.923086 
L 207.00017 135.923086 
L 205.974896 136.435722 
L 205.974896 137.460996 
L 206.487533 137.973633 
L 207.00017 138.486269 
L 208.53808 140.02418 
L 209.563353 141.049453 
L 210.07599 142.074727 
L 210.07599 143.612637 
L 209.563353 144.63791 
L 209.563353 145.150547 
" style="fill:none;stroke:#8c8c8c;stroke-linecap:square;"/>
   </g>
   <g id="line2d_54">
    <path clip-path="url(#p49bcf09ba8)" d="M 51.158601 165.656017 
L 51.158601 166.68129 
L 51.158601 168.2192 
L 52.696511 169.757111 
L 53.721784 170.269747 
L 55.772331 170.782384 
L 56.797605 170.269747 
L 57.822878 169.244474 
L 57.822878 167.193927 
L 57.310241 166.168653 
L 56.284968 165.14338 
L 54.747058 164.630743 
L 53.721784 165.14338 
L 52.696511 165.656017 
L 51.671237 166.68129 
L 51.671237 167.706564 
L 51.158601 169.757111 
L 51.671237 171.807657 
L 52.696511 175.908751 
L 54.747058 180.009845 
L 55.772331 182.573029 
L 56.284968 183.598303 
L 56.284968 183.085666 
L 56.284968 182.060392 
" style="fill:none;stroke:#8c8c8c;stroke-linecap:square;"/>
   </g>
   <g id="line2d_55">
    <path clip-path="url(#p49bcf09ba8)" d="M 67.050339 159.504376 
L 67.050339 158.991739 
L 66.537703 158.991739 
L 65.512429 158.991739 
L 63.974519 160.529649 
L 61.923972 162.580196 
L 61.923972 164.630743 
L 63.461882 167.706564 
L 64.999793 169.244474 
L 67.562976 170.269747 
L 69.100886 170.269747 
L 70.12616 169.757111 
" style="fill:none;stroke:#8c8c8c;stroke-linecap:square;"/>
   </g>
   <g id="line2d_56">
    <path clip-path="url(#p49bcf09ba8)" d="M 73.20198 165.14338 
L 73.20198 164.630743 
L 72.176707 163.092833 
L 71.66407 162.067559 
L 70.638797 161.554923 
L 69.613523 162.580196 
L 69.100886 164.118106 
L 69.100886 166.68129 
L 70.638797 168.2192 
L 72.689344 169.244474 
L 75.252527 168.731837 
L 76.277801 167.193927 
L 76.277801 164.630743 
L 75.252527 162.067559 
L 74.227254 161.042286 
L 72.176707 161.042286 
L 71.151433 161.554923 
L 71.151433 162.067559 
" style="fill:none;stroke:#8c8c8c;stroke-linecap:square;"/>
   </g>
   <g id="line2d_57">
    <path clip-path="url(#p49bcf09ba8)" d="M 80.891531 165.14338 
L 81.404168 165.14338 
L 81.404168 165.656017 
L 81.916805 165.656017 
L 82.942078 166.168653 
L 83.967352 166.168653 
L 84.479989 166.68129 
L 84.479989 167.706564 
L 83.454715 169.244474 
L 81.916805 170.782384 
L 81.404168 172.320294 
L 81.404168 173.345568 
L 83.454715 174.370841 
L 85.505262 174.883478 
L 88.581083 174.883478 
L 89.606356 174.370841 
" style="fill:none;stroke:#8c8c8c;stroke-linecap:square;"/>
   </g>
   <g id="line2d_58">
    <path clip-path="url(#p49bcf09ba8)" d="M 107.548642 166.168653 
L 107.548642 165.656017 
L 107.548642 165.14338 
L 107.036005 165.14338 
L 106.523369 165.14338 
L 105.498095 166.168653 
L 104.472822 167.706564 
L 104.472822 169.244474 
L 104.985458 171.295021 
L 106.523369 171.807657 
L 109.086552 171.295021 
L 110.624462 169.757111 
L 111.137099 168.731837 
" style="fill:none;stroke:#8c8c8c;stroke-linecap:square;"/>
   </g>
   <g id="line2d_59">
    <path clip-path="url(#p49bcf09ba8)" d="M 113.187646 161.554923 
L 113.187646 162.067559 
L 113.187646 163.092833 
L 113.700283 165.656017 
L 114.21292 167.706564 
L 114.725556 169.757111 
L 115.238193 170.269747 
L 115.238193 169.757111 
L 115.238193 169.244474 
L 115.75083 168.731837 
L 116.776103 166.68129 
L 117.801377 166.168653 
L 118.82665 166.68129 
L 120.364561 167.706564 
L 121.389834 169.244474 
L 121.902471 170.269747 
L 122.927744 170.782384 
" style="fill:none;stroke:#8c8c8c;stroke-linecap:square;"/>
   </g>
   <g id="line2d_60">
    <path clip-path="url(#p49bcf09ba8)" d="M 126.516201 168.2192 
L 127.028838 168.2192 
L 127.541475 168.2192 
L 127.541475 168.731837 
L 127.541475 169.244474 
L 128.054112 169.757111 
L 128.566748 169.757111 
L 127.541475 168.731837 
L 126.003565 167.706564 
L 123.953018 166.68129 
L 122.415108 166.68129 
L 121.389834 167.193927 
L 120.364561 168.2192 
L 120.877197 169.244474 
L 122.415108 169.757111 
L 124.978291 169.757111 
L 127.028838 168.731837 
L 128.054112 168.2192 
" style="fill:none;stroke:#8c8c8c;stroke-linecap:square;"/>
   </g>
   <g id="line2d_61">
    <path clip-path="url(#p49bcf09ba8)" d="M 129.592022 167.193927 
L 130.104659 166.68129 
L 130.617295 166.68129 
L 130.617295 167.193927 
L 131.129932 167.193927 
L 131.129932 167.706564 
L 131.129932 168.2192 
L 131.642569 168.731837 
L 131.642569 169.244474 
L 131.642569 168.731837 
L 131.642569 168.2192 
L 132.155206 167.706564 
L 132.667842 166.68129 
L 133.180479 166.68129 
L 133.693116 167.193927 
L 134.205753 167.706564 
L 135.231026 169.244474 
L 136.2563 170.269747 
L 136.768936 170.269747 
" style="fill:none;stroke:#8c8c8c;stroke-linecap:square;"/>
   </g>
   <g id="line2d_62">
    <path clip-path="url(#p49bcf09ba8)" d="M 140.87003 168.2192 
L 141.382667 167.706564 
L 140.87003 167.193927 
L 140.87003 166.68129 
L 140.357393 166.68129 
L 139.33212 167.193927 
L 137.79421 168.2192 
L 137.79421 169.244474 
L 138.306846 169.757111 
L 140.357393 170.269747 
L 141.895304 169.757111 
L 142.920577 169.244474 
L 142.920577 168.731837 
L 142.920577 167.706564 
L 142.920577 168.2192 
L 143.433214 168.2192 
L 144.458487 169.757111 
L 145.483761 172.320294 
L 145.996398 174.883478 
L 145.996398 176.934025 
L 144.971124 178.984572 
L 142.920577 180.009845 
L 140.87003 179.497209 
L 139.844757 178.471935 
" style="fill:none;stroke:#8c8c8c;stroke-linecap:square;"/>
   </g>
   <g id="line2d_63">
    <path clip-path="url(#p49bcf09ba8)" d="M 145.996398 169.757111 
L 146.509034 169.757111 
L 147.021671 169.757111 
L 148.046945 169.757111 
L 149.584855 169.244474 
L 150.097492 168.2192 
L 150.610128 167.193927 
L 150.097492 166.168653 
L 149.072218 165.656017 
L 147.534308 165.656017 
L 146.509034 167.193927 
L 147.021671 169.757111 
L 148.046945 171.807657 
L 150.097492 173.345568 
L 151.635402 173.858204 
L 152.148038 173.858204 
" style="fill:none;stroke:#8c8c8c;stroke-linecap:square;"/>
   </g>
   <g id="line2d_64">
    <path clip-path="url(#p49bcf09ba8)" d="M 165.98923 167.193927 
L 165.476594 166.68129 
L 165.476594 167.193927 
L 165.98923 167.193927 
L 165.98923 167.706564 
L 166.501867 168.2192 
L 168.039777 168.731837 
L 169.065051 168.731837 
L 169.577688 168.2192 
L 170.090324 168.2192 
L 170.090324 167.706564 
L 170.602961 167.706564 
L 171.628235 168.2192 
L 172.653508 168.2192 
L 174.191418 168.2192 
L 175.216692 167.706564 
L 175.729329 166.68129 
L 175.729329 165.14338 
L 175.216692 164.118106 
L 175.216692 163.092833 
" style="fill:none;stroke:#8c8c8c;stroke-linecap:square;"/>
   </g>
   <g id="line2d_65">
    <path clip-path="url(#p49bcf09ba8)" d="M 176.754602 161.554923 
L 177.267239 161.554923 
L 177.779876 161.554923 
L 178.292512 162.580196 
L 178.805149 164.630743 
L 179.830422 166.68129 
L 180.343059 167.706564 
L 180.343059 168.2192 
L 180.855696 168.2192 
L 181.368333 167.706564 
L 181.880969 166.68129 
L 182.393606 166.168653 
L 183.41888 166.168653 
L 184.95679 166.168653 
L 185.982063 166.68129 
L 187.007337 166.68129 
" style="fill:none;stroke:#8c8c8c;stroke-linecap:square;"/>
   </g>
   <g id="line2d_66">
    <path clip-path="url(#p49bcf09ba8)" d="M 189.057884 166.68129 
L 189.570521 166.168653 
L 190.083157 165.656017 
L 190.595794 165.14338 
L 191.621068 164.118106 
L 191.621068 162.580196 
L 191.108431 162.067559 
L 190.595794 161.554923 
L 189.057884 162.580196 
L 188.03261 164.118106 
L 188.03261 165.656017 
L 189.057884 166.68129 
L 190.595794 167.193927 
L 192.133704 167.193927 
" style="fill:none;stroke:#8c8c8c;stroke-linecap:square;"/>
   </g>
   <g id="line2d_67">
    <path clip-path="url(#p49bcf09ba8)" d="M 194.184251 166.168653 
L 194.696888 166.168653 
L 195.209525 166.68129 
L 195.722161 166.68129 
L 195.722161 167.193927 
L 196.234798 167.193927 
L 196.747435 166.68129 
L 197.260072 166.68129 
L 197.772708 165.14338 
L 198.797982 164.118106 
L 199.823255 163.092833 
L 200.848529 163.092833 
L 201.873802 163.60547 
L 202.386439 164.118106 
L 202.899076 165.14338 
L 202.899076 165.656017 
" style="fill:none;stroke:#8c8c8c;stroke-linecap:square;"/>
   </g>
   <g id="line2d_68">
    <path clip-path="url(#p49bcf09ba8)" d="M 81.916805 199.490041 
L 81.916805 200.515315 
L 81.916805 203.591135 
L 82.429442 207.692229 
L 82.942078 211.793323 
L 83.454715 213.84387 
L 83.967352 215.38178 
L 83.967352 215.894417 
L 83.454715 215.38178 
" style="fill:none;stroke:#8c8c8c;stroke-linecap:square;"/>
   </g>
   <g id="line2d_69">
    <path clip-path="url(#p49bcf09ba8)" d="M 74.227254 198.464768 
L 73.714617 198.464768 
L 75.252527 198.977405 
L 79.353621 198.977405 
L 83.967352 197.439495 
L 89.606356 195.388948 
L 91.144266 194.876311 
L 91.656903 194.876311 
" style="fill:none;stroke:#8c8c8c;stroke-linecap:square;"/>
   </g>
   <g id="line2d_70">
    <path clip-path="url(#p49bcf09ba8)" d="M 106.523369 207.692229 
L 106.010732 207.692229 
L 106.010732 208.204866 
L 106.523369 209.23014 
L 107.036005 211.280687 
L 107.548642 212.818597 
L 108.061279 213.84387 
L 108.573916 213.84387 
" style="fill:none;stroke:#8c8c8c;stroke-linecap:square;"/>
   </g>
   <g id="line2d_71">
    <path clip-path="url(#p49bcf09ba8)" d="M 106.523369 204.103772 
L 106.010732 203.591135 
L 106.523369 203.591135 
" style="fill:none;stroke:#8c8c8c;stroke-linecap:square;"/>
   </g>
   <g id="line2d_72">
    <path clip-path="url(#p49bcf09ba8)" d="M 111.137099 208.717503 
L 111.137099 209.23014 
L 111.137099 210.255413 
L 111.649736 211.793323 
L 111.649736 212.30596 
L 112.162373 212.30596 
L 112.162373 211.793323 
L 112.675009 211.280687 
L 113.187646 209.23014 
L 113.700283 207.692229 
L 114.725556 207.179593 
L 115.75083 207.179593 
L 116.263467 208.204866 
L 117.28874 209.742776 
L 117.801377 211.793323 
L 118.314014 212.818597 
L 118.82665 212.818597 
" style="fill:none;stroke:#8c8c8c;stroke-linecap:square;"/>
   </g>
   <g id="line2d_73">
    <path clip-path="url(#p49bcf09ba8)" d="M 122.927744 207.692229 
L 122.927744 207.179593 
L 122.415108 207.179593 
L 121.902471 207.179593 
L 121.389834 207.692229 
L 120.364561 209.23014 
L 120.877197 210.76805 
L 121.902471 211.793323 
L 124.978291 212.818597 
L 127.028838 212.818597 
" style="fill:none;stroke:#8c8c8c;stroke-linecap:square;"/>
   </g>
   <g id="line2d_74">
    <path clip-path="url(#p49bcf09ba8)" d="M 129.592022 208.204866 
L 129.079385 208.204866 
L 129.079385 208.717503 
L 129.592022 208.717503 
L 130.617295 209.742776 
L 131.129932 211.280687 
L 132.155206 212.30596 
L 132.155206 212.818597 
L 131.642569 212.818597 
L 131.129932 212.30596 
L 130.104659 210.76805 
L 129.592022 209.742776 
L 129.079385 208.204866 
L 130.104659 206.666956 
L 130.617295 206.154319 
" style="fill:none;stroke:#8c8c8c;stroke-linecap:square;"/>
   </g>
   <g id="line2d_75">
    <path clip-path="url(#p49bcf09ba8)" d="M 134.205753 206.154319 
L 134.205753 206.666956 
L 134.718389 207.692229 
L 135.743663 208.204866 
L 136.768936 208.717503 
L 138.306846 208.204866 
L 139.33212 207.692229 
L 139.844757 206.666956 
L 139.33212 206.154319 
L 138.819483 205.641682 
L 137.79421 206.154319 
L 136.2563 207.692229 
L 135.743663 209.742776 
L 135.743663 211.280687 
L 137.79421 212.818597 
L 139.33212 213.331233 
L 141.895304 212.30596 
L 142.40794 211.793323 
" style="fill:none;stroke:#8c8c8c;stroke-linecap:square;"/>
   </g>
   <g id="line2d_76">
    <path clip-path="url(#p49bcf09ba8)" d="M 148.046945 207.692229 
L 148.046945 207.179593 
L 148.046945 207.692229 
L 148.046945 208.204866 
L 148.046945 209.23014 
L 148.559581 210.255413 
L 149.072218 210.76805 
L 149.584855 210.76805 
L 149.072218 210.255413 
L 148.559581 209.23014 
L 147.534308 207.692229 
L 145.996398 207.179593 
L 143.945851 207.179593 
L 142.40794 208.204866 
L 141.895304 209.742776 
L 142.920577 211.280687 
L 144.458487 211.793323 
L 147.021671 211.793323 
L 149.072218 211.280687 
" style="fill:none;stroke:#8c8c8c;stroke-linecap:square;"/>
   </g>
   <g id="line2d_77">
    <path clip-path="url(#p49bcf09ba8)" d="M 151.635402 209.742776 
L 152.660675 209.23014 
L 153.685949 208.204866 
L 153.685949 207.692229 
L 153.685949 207.179593 
L 153.685949 206.666956 
L 152.660675 206.154319 
L 151.122765 206.666956 
L 150.097492 207.692229 
L 150.610128 208.717503 
L 151.635402 209.742776 
L 153.173312 210.76805 
L 153.685949 211.280687 
L 154.198585 212.30596 
L 154.711222 213.331233 
L 154.711222 213.84387 
L 154.198585 214.356507 
" style="fill:none;stroke:#8c8c8c;stroke-linecap:square;"/>
   </g>
   <g id="line2d_78">
    <path clip-path="url(#p49bcf09ba8)" d="M 155.223859 211.793323 
L 155.736496 211.280687 
L 156.249132 210.76805 
L 156.761769 210.255413 
L 157.787043 209.23014 
L 158.812316 208.717503 
L 159.324953 207.692229 
L 159.83759 207.179593 
L 159.83759 206.666956 
L 159.324953 206.666956 
L 158.299679 207.179593 
L 157.274406 208.717503 
L 157.274406 209.742776 
L 157.787043 211.280687 
L 158.299679 212.818597 
L 159.324953 213.331233 
L 159.83759 213.84387 
" style="fill:none;stroke:#8c8c8c;stroke-linecap:square;"/>
   </g>
   <g id="line2d_79">
    <path clip-path="url(#p49bcf09ba8)" d="M 170.602961 207.692229 
L 170.602961 207.179593 
L 170.602961 206.666956 
L 170.090324 206.666956 
L 169.577688 206.154319 
L 169.065051 206.154319 
L 168.039777 206.154319 
L 166.501867 206.154319 
L 165.98923 206.666956 
L 165.476594 207.692229 
L 165.476594 208.717503 
L 166.501867 209.742776 
L 168.039777 210.76805 
L 169.065051 211.793323 
L 169.577688 212.818597 
L 169.577688 213.84387 
L 169.065051 214.356507 
" style="fill:none;stroke:#8c8c8c;stroke-linecap:square;"/>
   </g>
   <g id="line2d_80">
    <path clip-path="url(#p49bcf09ba8)" d="M 170.602961 187.699396 
L 171.115598 187.699396 
L 171.628235 188.212033 
L 173.678782 188.212033 
L 176.241965 188.72467 
L 177.779876 189.237307 
L 177.779876 190.26258 
L 176.754602 191.80049 
L 175.216692 194.363674 
L 174.704055 196.414221 
L 174.704055 197.439495 
L 175.216692 197.439495 
" style="fill:none;stroke:#8c8c8c;stroke-linecap:square;"/>
   </g>
   <g id="line2d_81">
    <path clip-path="url(#p49bcf09ba8)" d="M 179.317786 212.30596 
L 178.805149 212.818597 
L 178.805149 213.331233 
" style="fill:none;stroke:#8c8c8c;stroke-linecap:square;"/>
   </g>
   <g id="line2d_82">
    <path clip-path="url(#p49bcf09ba8)" d="M 170.090324 52.875934 
L 170.090324 52.363297 
L 169.577688 52.363297 
L 169.577688 51.85066 
L 169.577688 51.338023 
L 170.090324 50.825387 
L 170.090324 50.31275 
L 171.628235 49.800113 
L 172.653508 48.77484 
L 173.166145 48.262203 
L 173.678782 48.262203 
L 174.191418 47.749566 
L 174.704055 47.749566 
L 175.216692 47.749566 
L 175.729329 47.749566 
L 176.241965 48.262203 
L 176.754602 48.77484 
L 177.267239 50.31275 
L 177.779876 51.338023 
L 178.292512 52.363297 
L 179.830422 52.875934 
L 181.880969 52.875934 
L 183.931516 51.85066 
L 185.469427 51.338023 
L 187.007337 50.31275 
L 187.007337 49.800113 
" style="fill:none;stroke:#c44e52;stroke-linecap:square;"/>
   </g>
   <g id="line2d_83">
    <path clip-path="url(#p49bcf09ba8)" d="M 172.653508 63.641305 
L 172.653508 63.128668 
L 172.653508 62.616032 
L 173.166145 62.103395 
L 173.678782 61.590758 
L 174.704055 61.590758 
L 175.216692 61.590758 
L 175.729329 61.590758 
L 176.241965 62.103395 
L 176.754602 63.128668 
L 177.779876 63.641305 
L 178.805149 64.666579 
L 180.343059 64.666579 
L 182.393606 64.153942 
L 185.982063 62.103395 
L 188.03261 61.078121 
L 189.570521 60.052848 
L 190.083157 60.052848 
" style="fill:none;stroke:#c44e52;stroke-linecap:square;"/>
   </g>
   <g id="line2d_84">
    <path clip-path="url(#p49bcf09ba8)" d="M 216.740268 20.067182 
L 216.740268 19.554545 
L 216.740268 20.067182 
L 216.740268 21.092456 
L 216.740268 23.143003 
L 217.252905 26.73146 
L 217.765541 30.832554 
L 218.278178 34.421011 
L 218.790815 35.958921 
L 219.303452 36.984195 
" style="fill:none;stroke:#c44e52;stroke-linecap:square;"/>
   </g>
   <g id="line2d_85">
    <path clip-path="url(#p49bcf09ba8)" d="M 206.487533 48.77484 
L 205.974896 48.77484 
L 206.487533 48.77484 
L 209.563353 48.77484 
L 215.202358 46.724293 
L 222.379272 44.161109 
L 226.480366 42.110562 
L 229.556186 40.572652 
L 231.606733 39.547378 
L 232.11937 39.547378 
L 232.632007 39.547378 
" style="fill:none;stroke:#c44e52;stroke-linecap:square;"/>
   </g>
   <g id="line2d_86">
    <path clip-path="url(#p49bcf09ba8)" d="M 218.790815 55.439117 
L 218.790815 55.951754 
L 218.790815 56.464391 
L 219.303452 57.489664 
L 219.303452 60.052848 
L 220.328725 64.666579 
L 220.841362 68.767673 
L 220.841362 70.305583 
L 221.353998 71.330856 
L 221.866635 70.81822 
" style="fill:none;stroke:#c44e52;stroke-linecap:square;"/>
   </g>
   <g id="line2d_87">
    <path clip-path="url(#p49bcf09ba8)" d="M 227.505639 56.464391 
L 227.505639 55.951754 
L 227.505639 56.464391 
L 227.505639 56.977028 
L 225.967729 58.002301 
L 224.429819 59.027575 
L 222.379272 61.078121 
L 220.328725 62.103395 
L 219.816088 62.616032 
L 219.816088 63.128668 
L 220.841362 64.153942 
L 222.379272 65.179215 
L 225.455092 66.204489 
L 228.018276 67.742399 
L 229.556186 68.767673 
L 231.094097 68.767673 
" style="fill:none;stroke:#c44e52;stroke-linecap:square;"/>
   </g>
   <g id="line2d_88">
    <path clip-path="url(#p49bcf09ba8)" d="M 234.682554 63.641305 
L 234.169917 63.641305 
L 234.169917 64.153942 
L 233.65728 65.179215 
L 233.65728 66.204489 
L 234.682554 67.742399 
L 236.220464 68.255036 
L 237.758374 68.255036 
L 239.808921 67.742399 
L 241.346831 66.204489 
L 241.346831 64.666579 
L 240.321558 63.128668 
L 238.783648 62.616032 
L 237.245737 62.616032 
L 236.220464 63.128668 
" style="fill:none;stroke:#c44e52;stroke-linecap:square;"/>
   </g>
   <g id="line2d_89">
    <path clip-path="url(#p49bcf09ba8)" d="M 67.050339 256.39272 
L 66.537703 256.39272 
L 66.537703 256.905356 
L 66.025066 256.905356 
L 66.025066 257.417993 
L 66.025066 257.93063 
L 66.537703 258.443267 
L 67.050339 258.443267 
L 67.562976 258.443267 
L 68.58825 258.443267 
L 69.613523 258.443267 
L 70.638797 257.417993 
L 71.151433 256.39272 
L 71.151433 255.367446 
L 70.12616 253.829536 
L 69.100886 253.316899 
L 67.562976 252.804263 
L 66.537703 252.804263 
L 65.512429 253.316899 
L 65.512429 254.85481 
L 66.025066 257.417993 
L 66.537703 259.981177 
L 67.050339 263.056997 
L 67.562976 265.107544 
L 68.075613 266.132818 
L 68.58825 266.645455 
L 68.58825 266.132818 
L 68.58825 265.620181 
" style="fill:none;stroke:#64b5cd;stroke-linecap:square;"/>
   </g>
   <g id="line2d_90">
    <path clip-path="url(#p49bcf09ba8)" d="M 80.891531 247.677895 
L 80.378895 247.677895 
L 79.866258 248.190532 
L 78.840985 248.703169 
L 77.815711 250.241079 
L 76.277801 252.291626 
L 76.277801 254.85481 
L 77.303074 256.905356 
L 78.840985 257.93063 
L 80.891531 257.93063 
L 83.454715 256.905356 
" style="fill:none;stroke:#64b5cd;stroke-linecap:square;"/>
   </g>
   <g id="line2d_91">
    <path clip-path="url(#p49bcf09ba8)" d="M 88.068446 250.753716 
L 88.068446 249.728442 
L 87.555809 249.215805 
L 87.043172 249.215805 
L 86.017899 250.241079 
L 84.992625 251.778989 
L 84.992625 254.342173 
L 85.505262 255.880083 
L 87.043172 256.905356 
L 89.606356 256.39272 
L 91.144266 255.367446 
L 92.16954 253.316899 
L 91.656903 251.266352 
L 90.63163 250.241079 
L 89.093719 249.728442 
L 87.555809 250.241079 
L 86.530536 250.241079 
" style="fill:none;stroke:#64b5cd;stroke-linecap:square;"/>
   </g>
   <g id="line2d_92">
    <path clip-path="url(#p49bcf09ba8)" d="M 98.833817 252.291626 
L 98.321181 252.291626 
L 97.808544 252.291626 
L 98.321181 252.291626 
L 98.833817 252.291626 
L 99.859091 252.291626 
L 100.884364 252.291626 
L 101.397001 253.316899 
L 100.884364 254.342173 
L 99.346454 256.39272 
L 97.808544 258.443267 
L 96.78327 260.493814 
L 97.295907 261.00645 
L 98.321181 261.519087 
L 100.371728 261.519087 
L 102.422275 261.00645 
L 103.960185 260.493814 
L 104.472822 259.981177 
" style="fill:none;stroke:#64b5cd;stroke-linecap:square;"/>
   </g>
   <g id="line2d_93">
    <path clip-path="url(#p49bcf09ba8)" d="M 116.263467 256.905356 
L 115.75083 256.905356 
L 115.238193 257.93063 
L 115.238193 258.443267 
L 115.238193 257.93063 
L 115.75083 257.93063 
L 117.28874 256.905356 
L 119.339287 254.85481 
L 122.927744 251.266352 
L 126.003565 248.190532 
L 128.566748 245.114711 
L 129.592022 243.576801 
L 130.104659 243.064164 
L 130.617295 243.064164 
L 130.104659 243.064164 
" style="fill:none;stroke:#64b5cd;stroke-linecap:square;"/>
   </g>
   <g id="line2d_94">
    <path clip-path="url(#p49bcf09ba8)" d="M 124.978291 242.551528 
L 124.465654 242.551528 
L 124.978291 242.551528 
L 124.978291 242.038891 
L 126.003565 241.526254 
L 128.566748 239.988344 
L 130.617295 238.963071 
L 131.642569 238.450434 
L 132.667842 238.450434 
L 133.180479 239.475707 
L 132.667842 242.038891 
L 132.667842 244.089438 
L 132.667842 246.652622 
L 132.667842 247.677895 
" style="fill:none;stroke:#64b5cd;stroke-linecap:square;"/>
   </g>
   <g id="line2d_95">
    <path clip-path="url(#p49bcf09ba8)" d="M 153.685949 252.291626 
L 153.685949 251.778989 
L 153.173312 251.778989 
L 152.660675 251.778989 
L 152.148038 251.778989 
L 151.122765 252.291626 
L 149.584855 253.316899 
L 148.559581 255.367446 
L 148.559581 256.39272 
L 149.584855 256.39272 
L 151.122765 255.880083 
L 153.173312 254.342173 
L 154.198585 253.316899 
L 154.198585 252.804263 
L 154.198585 253.829536 
L 154.711222 256.39272 
L 155.223859 257.93063 
L 155.736496 258.955903 
L 156.761769 258.955903 
L 157.274406 258.443267 
" style="fill:none;stroke:#64b5cd;stroke-linecap:square;"/>
   </g>
   <g id="line2d_96">
    <path clip-path="url(#p49bcf09ba8)" d="M 161.3755 252.804263 
L 161.888137 252.291626 
L 161.3755 252.291626 
L 161.3755 252.804263 
L 160.350226 253.316899 
L 159.324953 253.829536 
L 158.812316 254.85481 
L 158.812316 255.367446 
L 159.324953 255.367446 
L 160.350226 255.880083 
L 162.400773 256.39272 
L 162.91341 256.905356 
L 163.938684 258.443267 
L 163.938684 258.955903 
L 163.426047 259.46854 
L 162.400773 259.981177 
" style="fill:none;stroke:#64b5cd;stroke-linecap:square;"/>
   </g>
   <g id="line2d_97">
    <path clip-path="url(#p49bcf09ba8)" d="M 188.545247 248.190532 
L 188.545247 247.677895 
L 188.545247 247.165258 
L 188.545247 248.190532 
L 188.545247 250.753716 
L 189.057884 254.342173 
L 189.570521 257.417993 
L 190.083157 259.46854 
L 190.595794 260.493814 
L 190.595794 259.981177 
L 189.570521 258.955903 
" style="fill:none;stroke:#64b5cd;stroke-linecap:square;"/>
   </g>
   <g id="line2d_98">
    <path clip-path="url(#p49bcf09ba8)" d="M 182.906243 247.677895 
L 182.393606 247.165258 
L 182.906243 246.652622 
L 183.931516 246.139985 
L 187.007337 245.627348 
L 191.108431 244.602075 
L 194.696888 243.576801 
L 196.234798 243.576801 
L 197.260072 243.576801 
" style="fill:none;stroke:#64b5cd;stroke-linecap:square;"/>
   </g>
   <g id="line2d_99">
    <path clip-path="url(#p49bcf09ba8)" d="M 204.436986 261.00645 
L 204.436986 261.519087 
L 204.436986 261.00645 
L 204.949623 260.493814 
L 207.00017 258.955903 
L 209.563353 255.367446 
L 211.6139 252.291626 
L 212.639174 249.728442 
L 213.664447 247.677895 
L 213.664447 247.165258 
L 214.177084 247.165258 
L 213.664447 247.165258 
" style="fill:none;stroke:#64b5cd;stroke-linecap:square;"/>
   </g>
   <g id="line2d_100">
    <path clip-path="url(#p49bcf09ba8)" d="M 210.588627 247.677895 
L 210.07599 247.677895 
L 210.07599 247.165258 
L 210.588627 246.652622 
L 212.126537 245.114711 
L 214.177084 243.064164 
L 215.202358 242.551528 
L 215.714994 243.064164 
L 216.227631 244.089438 
L 216.227631 245.627348 
L 216.227631 247.165258 
L 216.227631 248.190532 
L 215.714994 248.703169 
" style="fill:none;stroke:#64b5cd;stroke-linecap:square;"/>
   </g>
  </g>
 </g>
 <defs>
  <clipPath id="p49bcf09ba8">
   <rect height="271.8" width="245.29668" x="7.2" y="7.2"/>
  </clipPath>
 </defs>
</svg>
