<?xml version="1.0" encoding="utf-8" standalone="no"?>
<!DOCTYPE svg PUBLIC "-//W3C//DTD SVG 1.1//EN"
  "http://www.w3.org/Graphics/SVG/1.1/DTD/svg11.dtd">
<!-- Created with matplotlib (https://matplotlib.org/) -->
<svg height="286.2pt" version="1.1" viewBox="0 0 326.227553 286.2" width="326.227553pt" xmlns="http://www.w3.org/2000/svg" xmlns:xlink="http://www.w3.org/1999/xlink">
 <metadata>
  <rdf:RDF xmlns:cc="http://creativecommons.org/ns#" xmlns:dc="http://purl.org/dc/elements/1.1/" xmlns:rdf="http://www.w3.org/1999/02/22-rdf-syntax-ns#">
   <cc:Work>
    <dc:type rdf:resource="http://purl.org/dc/dcmitype/StillImage"/>
    <dc:date>2024-11-15T16:04:26.304491</dc:date>
    <dc:format>image/svg+xml</dc:format>
    <dc:creator>
     <cc:Agent>
      <dc:title>Matplotlib v3.3.4, https://matplotlib.org/</dc:title>
     </cc:Agent>
    </dc:creator>
   </cc:Work>
  </rdf:RDF>
 </metadata>
 <defs>
  <style type="text/css">*{stroke-linecap:butt;stroke-linejoin:round;}</style>
 </defs>
 <g id="figure_1">
  <g id="patch_1">
   <path d="M 0 286.2 
L 326.227553 286.2 
L 326.227553 0 
L 0 0 
z
" style="fill:#ffffff;"/>
  </g>
  <g id="axes_1">
   <g id="line2d_1">
    <path clip-path="url(#pac8a971833)" d="M 66.859836 225.854913 
L 67.153293 225.854913 
L 67.44675 226.14837 
L 67.740207 226.14837 
L 68.033664 226.14837 
L 68.327122 226.14837 
L 68.620579 226.441827 
L 69.207493 226.441827 
L 69.794407 226.441827 
L 70.381322 226.735284 
L 70.674779 226.735284 
L 71.848607 227.028741 
L 72.435521 227.028741 
L 73.315893 227.322198 
L 73.902807 227.615655 
L 74.783179 227.909113 
L 75.66355 228.20257 
L 76.543921 228.20257 
L 77.424293 228.496027 
L 78.011207 228.496027 
L 79.77195 228.496027 
L 80.945778 228.789484 
L 82.413064 228.789484 
L 84.173807 228.789484 
L 86.228007 228.496027 
L 88.575664 228.496027 
L 90.629864 228.496027 
L 92.684064 228.20257 
L 94.444807 228.20257 
L 97.085921 228.20257 
L 98.553207 227.909113 
L 100.607407 227.909113 
L 102.661607 227.909113 
L 104.715807 228.20257 
L 107.063464 228.20257 
L 108.824206 228.20257 
L 111.171864 228.20257 
L 113.812978 228.496027 
L 116.747549 228.496027 
L 118.801749 228.496027 
L 121.149406 228.496027 
L 123.79052 228.496027 
L 125.84472 228.496027 
L 129.366206 228.496027 
L 131.420406 228.20257 
L 134.354977 228.20257 
L 136.409177 228.20257 
L 139.637206 227.909113 
L 142.865234 227.615655 
L 145.506349 227.615655 
L 148.44092 227.028741 
L 151.082034 227.028741 
L 154.60352 226.735284 
L 157.538091 226.441827 
L 160.76612 226.14837 
L 163.700691 226.14837 
L 166.928719 225.854913 
L 170.450205 225.561455 
L 173.091319 225.267998 
L 176.906262 224.974541 
L 180.427748 224.387627 
L 183.949233 224.09417 
L 186.883805 223.800713 
L 190.698748 223.213798 
L 194.51369 222.920341 
L 198.328633 222.333427 
L 202.143576 222.03997 
L 205.078147 221.746513 
L 208.599633 221.453055 
L 212.121119 221.159598 
L 215.349147 220.866141 
L 217.696804 220.572684 
L 220.337918 219.98577 
L 223.27249 219.692313 
L 226.207061 219.105398 
L 228.848175 218.811941 
L 230.608918 218.811941 
L 232.956575 218.811941 
L 234.717318 218.811941 
L 236.478061 218.811941 
L 237.651889 218.811941 
L 238.825718 219.105398 
L 239.412632 219.105398 
" style="fill:none;stroke:#8c8c8c;stroke-linecap:square;"/>
   </g>
   <g id="line2d_2">
    <path clip-path="url(#pac8a971833)" d="M 236.478061 214.996998 
L 236.478061 215.290456 
L 236.771518 215.290456 
L 237.064975 215.583913 
L 237.358432 215.583913 
L 237.945347 215.87737 
L 238.532261 216.170827 
L 239.412632 216.464284 
L 240.293004 216.757741 
L 241.173375 217.051198 
L 241.760289 217.344656 
L 242.053746 217.93157 
L 241.760289 218.811941 
L 241.173375 219.692313 
L 239.999547 221.159598 
L 239.119175 222.03997 
L 238.238804 222.03997 
" style="fill:none;stroke:#8c8c8c;stroke-linecap:square;"/>
   </g>
   <g id="line2d_3">
    <path clip-path="url(#pac8a971833)" d="M 117.921378 234.952084 
L 117.921378 234.658627 
L 117.921378 234.952084 
L 117.921378 235.245541 
L 117.921378 236.419369 
L 117.627921 238.180112 
L 117.627921 239.940855 
L 117.334463 242.288512 
L 117.334463 243.462341 
L 117.627921 244.049255 
L 117.627921 243.755798 
" style="fill:none;stroke:#8c8c8c;stroke-linecap:square;"/>
   </g>
   <g id="line2d_4">
    <path clip-path="url(#pac8a971833)" d="M 114.399892 239.060484 
L 114.986806 239.060484 
L 116.454092 239.060484 
L 117.921378 238.767027 
L 119.095206 238.767027 
L 119.975578 238.473569 
L 120.269035 238.473569 
" style="fill:none;stroke:#8c8c8c;stroke-linecap:square;"/>
   </g>
   <g id="line2d_5">
    <path clip-path="url(#pac8a971833)" d="M 121.73632 238.767027 
L 122.029778 239.060484 
L 122.029778 239.647398 
L 122.029778 240.527769 
L 122.029778 241.114684 
L 122.029778 241.408141 
" style="fill:none;stroke:#8c8c8c;stroke-linecap:square;"/>
   </g>
   <g id="line2d_6">
    <path clip-path="url(#pac8a971833)" d="M 122.029778 237.886655 
L 122.029778 237.593198 
L 122.029778 237.299741 
L 122.029778 237.006284 
L 122.029778 236.712827 
" style="fill:none;stroke:#8c8c8c;stroke-linecap:square;"/>
   </g>
   <g id="line2d_7">
    <path clip-path="url(#pac8a971833)" d="M 123.497063 235.832455 
L 123.497063 236.125912 
L 123.79052 236.712827 
L 124.083978 237.299741 
L 124.377435 238.180112 
L 124.670892 239.647398 
L 124.964349 240.821227 
L 125.551263 242.288512 
L 125.84472 242.581969 
" style="fill:none;stroke:#8c8c8c;stroke-linecap:square;"/>
   </g>
   <g id="line2d_8">
    <path clip-path="url(#pac8a971833)" d="M 124.377435 240.234312 
L 124.377435 239.940855 
L 124.083978 239.940855 
L 124.377435 239.647398 
L 124.377435 239.353941 
L 125.257806 239.060484 
L 126.138177 238.767027 
L 127.018549 238.473569 
L 127.018549 238.180112 
" style="fill:none;stroke:#8c8c8c;stroke-linecap:square;"/>
   </g>
   <g id="line2d_9">
    <path clip-path="url(#pac8a971833)" d="M 128.192377 238.180112 
L 128.485835 238.180112 
L 128.485835 238.473569 
L 128.779292 239.060484 
L 129.366206 239.940855 
L 129.659663 240.821227 
L 130.246577 241.701598 
L 130.246577 241.995055 
L 130.540035 241.995055 
L 130.246577 241.995055 
L 130.246577 241.701598 
L 130.246577 241.114684 
L 130.540035 240.527769 
L 130.833492 239.647398 
L 131.126949 239.060484 
" style="fill:none;stroke:#8c8c8c;stroke-linecap:square;"/>
   </g>
   <g id="line2d_10">
    <path clip-path="url(#pac8a971833)" d="M 134.941892 239.060484 
L 135.235349 239.060484 
L 134.941892 239.060484 
L 134.648434 239.060484 
L 134.354977 239.353941 
L 134.06152 239.647398 
L 133.474606 240.527769 
L 133.474606 241.114684 
L 133.474606 241.701598 
L 133.768063 241.701598 
L 134.648434 241.114684 
L 135.235349 240.234312 
L 135.822263 239.060484 
L 136.11572 238.180112 
L 136.11572 237.593198 
L 136.409177 237.593198 
L 136.409177 238.473569 
L 136.409177 239.353941 
L 136.409177 240.234312 
L 136.702634 240.821227 
L 136.702634 241.114684 
L 136.996092 241.408141 
" style="fill:none;stroke:#8c8c8c;stroke-linecap:square;"/>
   </g>
   <g id="line2d_11">
    <path clip-path="url(#pac8a971833)" d="M 138.463377 237.593198 
L 138.463377 237.299741 
L 138.463377 237.006284 
L 138.463377 237.299741 
L 138.463377 237.593198 
L 139.050292 238.473569 
L 139.343749 239.647398 
L 139.637206 240.527769 
L 140.22412 241.114684 
" style="fill:none;stroke:#8c8c8c;stroke-linecap:square;"/>
   </g>
   <g id="line2d_12">
    <path clip-path="url(#pac8a971833)" d="M 138.463377 238.767027 
L 138.463377 238.473569 
L 138.756834 238.473569 
L 139.050292 238.180112 
L 139.637206 238.180112 
L 140.517577 237.886655 
L 141.397949 237.299741 
" style="fill:none;stroke:#8c8c8c;stroke-linecap:square;"/>
   </g>
   <g id="line2d_13">
    <path clip-path="url(#pac8a971833)" d="M 143.745606 235.832455 
L 143.745606 236.125912 
L 144.039063 236.712827 
L 144.33252 237.886655 
L 144.625977 238.767027 
L 144.625977 239.353941 
" style="fill:none;stroke:#8c8c8c;stroke-linecap:square;"/>
   </g>
   <g id="line2d_14">
    <path clip-path="url(#pac8a971833)" d="M 144.33252 237.299741 
L 144.039063 236.712827 
L 144.039063 236.419369 
L 144.039063 236.125912 
L 144.039063 235.832455 
" style="fill:none;stroke:#8c8c8c;stroke-linecap:square;"/>
   </g>
   <g id="line2d_15">
    <path clip-path="url(#pac8a971833)" d="M 146.093263 237.299741 
L 145.799806 237.886655 
L 145.799806 238.473569 
L 145.506349 239.060484 
L 145.799806 239.647398 
L 146.093263 239.940855 
L 146.680177 240.234312 
L 147.267091 240.234312 
L 147.560548 240.234312 
L 148.147463 239.647398 
L 148.147463 239.060484 
L 148.147463 238.180112 
L 147.560548 237.593198 
L 146.973634 237.593198 
L 146.680177 237.593198 
L 146.38672 238.180112 
L 146.38672 238.767027 
" style="fill:none;stroke:#8c8c8c;stroke-linecap:square;"/>
   </g>
   <g id="line2d_16">
    <path clip-path="url(#pac8a971833)" d="M 148.734377 238.473569 
L 149.027834 238.473569 
L 149.321291 238.180112 
L 149.614748 238.180112 
L 149.614748 238.473569 
L 149.614748 238.767027 
L 149.908206 238.767027 
L 149.908206 239.353941 
L 149.908206 239.940855 
L 149.908206 240.234312 
L 149.908206 239.940855 
L 149.908206 239.647398 
L 150.201663 239.060484 
L 150.49512 238.180112 
L 151.082034 237.593198 
L 151.962406 237.593198 
L 152.54932 237.886655 
L 153.136234 238.767027 
L 153.723148 239.353941 
L 154.016605 239.647398 
" style="fill:none;stroke:#8c8c8c;stroke-linecap:square;"/>
   </g>
   <g id="line2d_17">
    <path clip-path="url(#pac8a971833)" d="M 50.426236 59.171259 
L 50.426236 58.877802 
L 50.132779 58.877802 
L 49.839322 59.171259 
L 49.545865 59.171259 
L 49.252408 59.171259 
L 48.958951 59.171259 
L 48.665493 59.171259 
L 48.372036 59.171259 
L 48.078579 59.171259 
L 47.785122 59.171259 
L 47.491665 59.171259 
L 47.198208 59.171259 
L 46.904751 59.171259 
L 46.611293 59.171259 
L 46.317836 59.171259 
L 46.024379 59.171259 
L 45.730922 59.171259 
L 45.730922 59.464716 
L 45.437465 59.464716 
L 45.144008 59.464716 
L 44.850551 59.464716 
L 44.557094 59.464716 
L 44.557094 59.758173 
L 44.263636 59.758173 
L 44.263636 59.464716 
L 43.970179 59.464716 
L 43.676722 59.464716 
" style="fill:none;stroke:#8c8c8c;stroke-linecap:square;"/>
   </g>
   <g id="line2d_18">
    <path clip-path="url(#pac8a971833)" d="M 22.254351 58.877802 
L 22.254351 58.584345 
L 21.960894 58.584345 
L 21.960894 58.290887 
L 21.960894 57.99743 
L 21.960894 58.290887 
L 21.960894 58.584345 
L 22.254351 59.758173 
L 22.547808 60.932002 
L 22.841265 62.10583 
L 22.841265 62.986202 
L 23.134723 63.573116 
L 23.134723 63.866573 
" style="fill:none;stroke:#8c8c8c;stroke-linecap:square;"/>
   </g>
   <g id="line2d_19">
    <path clip-path="url(#pac8a971833)" d="M 21.960894 57.410516 
L 21.667437 57.410516 
L 21.37398 57.117059 
L 21.37398 56.823602 
L 21.667437 56.823602 
L 22.254351 56.823602 
L 23.134723 56.530145 
L 24.015094 56.823602 
L 24.602008 57.117059 
L 25.188922 57.703973 
L 25.48238 58.584345 
L 25.48238 60.05163 
L 25.48238 61.225459 
L 24.895465 62.692745 
L 24.308551 63.573116 
L 24.015094 63.866573 
L 23.721637 63.866573 
L 23.42818 63.573116 
L 23.42818 63.279659 
L 23.721637 62.986202 
" style="fill:none;stroke:#8c8c8c;stroke-linecap:square;"/>
   </g>
   <g id="line2d_20">
    <path clip-path="url(#pac8a971833)" d="M 26.949665 57.703973 
L 26.949665 57.410516 
L 26.949665 57.703973 
L 26.949665 57.99743 
L 26.949665 58.584345 
L 27.243122 59.464716 
L 27.830037 61.225459 
L 28.416951 62.692745 
L 29.003865 63.279659 
L 29.297322 63.573116 
" style="fill:none;stroke:#8c8c8c;stroke-linecap:square;"/>
   </g>
   <g id="line2d_21">
    <path clip-path="url(#pac8a971833)" d="M 30.177694 56.823602 
L 30.177694 56.530145 
L 30.177694 56.236688 
L 30.471151 56.236688 
L 30.471151 55.94323 
L 30.177694 56.530145 
L 29.59078 57.410516 
L 29.59078 58.584345 
L 29.297322 60.05163 
L 29.884237 60.932002 
L 30.764608 61.518916 
L 31.644979 61.812373 
L 32.525351 61.518916 
L 33.405722 61.225459 
L 33.992637 60.638545 
" style="fill:none;stroke:#8c8c8c;stroke-linecap:square;"/>
   </g>
   <g id="line2d_22">
    <path clip-path="url(#pac8a971833)" d="M 50.426236 44.791859 
L 50.426236 44.498402 
L 50.132779 44.498402 
L 50.132779 44.204945 
L 50.132779 43.911488 
L 50.132779 43.618031 
L 50.132779 43.031116 
L 50.132779 42.444202 
L 50.132779 41.563831 
L 50.426236 40.976916 
L 50.426236 40.683459 
L 50.426236 40.096545 
L 50.719693 40.096545 
L 51.013151 39.803088 
L 51.306608 39.509631 
L 51.600065 39.509631 
L 51.893522 39.216174 
L 52.186979 39.216174 
L 52.186979 38.629259 
L 52.480436 37.748888 
L 52.773893 36.281602 
L 52.480436 35.401231 
L 52.480436 34.520859 
L 52.480436 34.227402 
L 52.186979 33.933945 
L 52.186979 33.640488 
L 52.186979 33.347031 
L 52.186979 33.053574 
" style="fill:none;stroke:#8c8c8c;stroke-linecap:square;"/>
   </g>
   <g id="line2d_23">
    <path clip-path="url(#pac8a971833)" d="M 53.360808 26.597517 
L 53.360808 26.30406 
L 53.360808 26.597517 
L 53.360808 26.890974 
L 53.654265 27.477888 
L 53.947722 28.651717 
L 53.947722 29.532088 
L 54.241179 29.825545 
L 54.241179 30.119002 
L 53.947722 29.825545 
L 53.947722 29.238631 
L 53.654265 28.35826 
L 53.654265 26.890974 
L 53.360808 25.423688 
L 53.360808 24.543317 
L 53.360808 23.956403 
L 53.360808 23.662945 
L 53.654265 23.369488 
L 54.241179 23.662945 
L 54.828093 24.543317 
L 55.708465 25.717145 
L 56.588836 26.890974 
L 57.17575 28.064802 
L 57.469208 28.651717 
L 57.469208 28.945174 
" style="fill:none;stroke:#8c8c8c;stroke-linecap:square;"/>
   </g>
   <g id="line2d_24">
    <path clip-path="url(#pac8a971833)" d="M 53.947722 27.477888 
L 53.947722 27.184431 
L 54.241179 27.184431 
L 54.534636 26.890974 
L 55.415008 26.890974 
L 56.001922 26.597517 
L 56.588836 26.30406 
L 56.588836 26.010602 
" style="fill:none;stroke:#8c8c8c;stroke-linecap:square;"/>
   </g>
   <g id="line2d_25">
    <path clip-path="url(#pac8a971833)" d="M 56.882293 22.782574 
L 56.882293 22.489117 
L 56.588836 22.19566 
L 56.882293 22.489117 
L 57.17575 23.076031 
L 57.17575 24.24986 
L 57.469208 25.130231 
L 58.056122 26.30406 
L 58.643036 27.184431 
L 59.22995 27.477888 
L 59.816865 27.771345 
L 60.403779 27.771345 
L 61.577607 27.477888 
L 62.164522 26.890974 
L 62.751436 26.30406 
" style="fill:none;stroke:#8c8c8c;stroke-linecap:square;"/>
   </g>
   <g id="line2d_26">
    <path clip-path="url(#pac8a971833)" d="M 60.697236 21.315288 
L 60.697236 21.021831 
L 60.403779 20.728374 
L 60.697236 20.728374 
L 60.697236 21.021831 
L 61.28415 21.608745 
L 61.871065 23.076031 
L 62.751436 24.836774 
L 63.631807 26.890974 
L 64.218722 27.771345 
L 64.512179 28.35826 
" style="fill:none;stroke:#8c8c8c;stroke-linecap:square;"/>
   </g>
   <g id="line2d_27">
    <path clip-path="url(#pac8a971833)" d="M 64.805636 19.848003 
L 64.805636 19.554545 
L 64.512179 19.848003 
L 64.218722 20.14146 
L 63.631807 21.315288 
L 63.33835 22.19566 
L 62.751436 23.076031 
L 62.751436 23.369488 
L 62.457979 23.662945 
L 62.457979 23.956403 
L 62.751436 24.24986 
L 63.33835 24.543317 
L 64.512179 24.543317 
L 65.686007 24.836774 
L 66.566379 25.130231 
L 66.859836 25.130231 
L 67.153293 25.130231 
L 67.44675 25.130231 
" style="fill:none;stroke:#8c8c8c;stroke-linecap:square;"/>
   </g>
   <g id="line2d_28">
    <path clip-path="url(#pac8a971833)" d="M 55.12155 173.326085 
L 55.12155 173.032628 
L 55.415008 173.032628 
L 55.415008 172.739171 
L 55.415008 172.445714 
L 55.708465 172.152257 
L 55.708465 171.858799 
L 55.708465 171.565342 
L 55.708465 171.271885 
L 55.708465 170.978428 
L 55.708465 170.684971 
L 56.001922 170.391514 
L 56.001922 169.804599 
L 56.001922 169.511142 
L 56.001922 168.924228 
L 56.001922 168.630771 
L 56.295379 168.043857 
L 56.295379 167.456942 
L 56.295379 167.163485 
L 56.295379 166.576571 
L 56.295379 165.989657 
L 56.295379 165.402742 
L 56.588836 164.815828 
L 56.588836 164.228914 
L 56.588836 163.642 
L 56.588836 163.055085 
L 56.588836 162.468171 
L 56.588836 161.5878 
L 56.588836 161.000885 
L 56.588836 160.413971 
L 56.588836 159.827057 
L 56.588836 159.240143 
L 56.588836 158.359771 
L 56.588836 157.772857 
L 56.588836 157.185943 
L 56.588836 156.305571 
L 56.588836 155.718657 
L 56.588836 155.131743 
L 56.295379 154.251371 
L 56.295379 153.664457 
L 56.295379 153.077543 
L 56.295379 151.903714 
L 56.295379 151.023343 
L 56.001922 149.849514 
L 56.001922 148.675686 
L 55.708465 147.501857 
L 55.708465 146.328029 
L 55.708465 145.447657 
L 55.708465 144.567286 
L 55.708465 143.686914 
L 55.708465 142.806543 
L 55.708465 141.926171 
L 55.415008 141.0458 
L 55.415008 140.165429 
L 55.415008 138.9916 
L 55.415008 137.817772 
L 55.415008 136.9374 
L 55.415008 135.763572 
L 55.415008 134.8832 
L 55.415008 133.709372 
L 55.415008 132.829 
L 55.415008 131.655172 
L 55.415008 130.481343 
L 55.415008 129.894429 
L 55.415008 128.427143 
L 55.415008 127.546772 
L 55.415008 126.372943 
L 55.415008 125.199115 
L 55.12155 124.318743 
L 55.12155 123.731829 
L 55.12155 122.558 
L 55.12155 121.677629 
L 55.12155 120.797258 
L 55.12155 119.916886 
L 55.12155 119.036515 
L 55.415008 118.156143 
L 55.415008 117.569229 
L 55.415008 116.982315 
L 55.415008 116.395401 
L 55.415008 116.101943 
L 55.415008 115.515029 
L 55.415008 114.634658 
L 55.708465 113.460829 
L 55.708465 112.580458 
L 56.001922 111.700086 
L 56.001922 110.819715 
L 56.295379 110.526258 
L 56.295379 109.939344 
L 56.295379 109.352429 
L 56.295379 108.765515 
L 56.588836 108.178601 
L 56.588836 107.591686 
L 56.588836 107.004772 
L 56.882293 106.417858 
L 56.882293 105.830944 
L 57.17575 105.244029 
L 57.17575 104.657115 
L 57.17575 104.363658 
L 57.17575 103.776744 
L 57.17575 102.896372 
L 57.469208 102.309458 
L 57.469208 101.722544 
L 57.469208 101.135629 
L 57.469208 100.548715 
L 57.469208 99.961801 
L 57.762665 99.081429 
L 57.762665 98.494515 
L 57.762665 97.907601 
L 57.762665 97.320687 
L 57.762665 96.733772 
L 58.056122 96.440315 
L 58.056122 95.853401 
L 58.056122 95.266487 
L 58.056122 94.97303 
L 58.056122 94.386115 
L 58.056122 94.092658 
L 58.056122 93.505744 
L 58.349579 93.212287 
L 58.349579 92.625372 
L 58.349579 92.331915 
L 58.349579 91.745001 
L 58.349579 91.451544 
L 58.349579 90.86463 
L 58.349579 90.571173 
L 58.349579 89.984258 
L 58.349579 89.690801 
L 58.056122 89.397344 
" style="fill:none;stroke:#8c8c8c;stroke-linecap:square;"/>
   </g>
   <g id="line2d_29">
    <path clip-path="url(#pac8a971833)" d="M 56.295379 89.397344 
L 56.588836 89.103887 
L 56.882293 89.103887 
L 56.882293 88.81043 
L 57.469208 88.516973 
L 58.056122 88.223515 
L 58.643036 87.930058 
L 58.936493 87.636601 
L 59.22995 87.343144 
L 59.523407 87.343144 
L 59.523407 87.636601 
L 59.523407 87.930058 
L 59.816865 88.516973 
L 59.816865 88.81043 
L 59.816865 89.103887 
L 59.816865 89.397344 
" style="fill:none;stroke:#8c8c8c;stroke-linecap:square;"/>
   </g>
   <g id="line2d_30">
    <path clip-path="url(#pac8a971833)" d="M 247.335975 56.823602 
L 247.629432 56.823602 
L 247.629432 57.117059 
L 247.335975 57.117059 
L 247.042518 57.117059 
L 246.749061 57.117059 
L 246.455604 57.117059 
L 246.162146 57.117059 
L 245.868689 57.117059 
L 245.575232 57.117059 
L 245.281775 57.117059 
L 245.281775 57.410516 
L 245.575232 57.410516 
L 246.162146 57.410516 
L 246.749061 57.117059 
L 247.335975 57.117059 
L 247.922889 56.823602 
L 248.216346 56.823602 
L 248.509803 56.823602 
L 248.803261 56.823602 
L 248.509803 57.117059 
L 248.216346 57.117059 
L 247.922889 57.117059 
L 247.629432 57.117059 
L 247.335975 57.410516 
L 247.042518 57.410516 
L 246.749061 57.410516 
L 246.455604 57.410516 
" style="fill:none;stroke:#8c8c8c;stroke-linecap:square;"/>
   </g>
   <g id="line2d_31">
    <path clip-path="url(#pac8a971833)" d="M 253.498575 54.182488 
L 253.205118 54.182488 
L 252.911661 54.182488 
L 252.911661 54.475945 
L 252.911661 55.062859 
L 252.911661 55.94323 
L 253.205118 57.117059 
L 253.205118 58.290887 
L 253.498575 59.171259 
L 253.498575 59.464716 
" style="fill:none;stroke:#8c8c8c;stroke-linecap:square;"/>
   </g>
   <g id="line2d_32">
    <path clip-path="url(#pac8a971833)" d="M 253.205118 54.769402 
L 252.911661 54.475945 
L 252.618203 54.182488 
L 252.618203 53.88903 
L 252.324746 53.595573 
L 252.911661 53.88903 
L 254.085489 54.182488 
L 255.259318 54.769402 
L 256.433146 55.356316 
L 257.02006 56.236688 
L 257.313518 56.823602 
L 257.313518 57.703973 
L 256.433146 58.584345 
L 256.139689 59.171259 
L 254.965861 59.464716 
L 254.085489 59.464716 
L 253.498575 59.464716 
" style="fill:none;stroke:#8c8c8c;stroke-linecap:square;"/>
   </g>
   <g id="line2d_33">
    <path clip-path="url(#pac8a971833)" d="M 259.954632 53.88903 
L 259.954632 54.182488 
L 259.954632 54.475945 
L 259.954632 54.769402 
L 260.248089 55.356316 
L 260.541546 56.530145 
L 260.835003 57.703973 
L 260.835003 58.290887 
L 261.12846 58.877802 
" style="fill:none;stroke:#8c8c8c;stroke-linecap:square;"/>
   </g>
   <g id="line2d_34">
    <path clip-path="url(#pac8a971833)" d="M 262.008832 53.302116 
L 262.008832 53.008659 
L 262.008832 52.715202 
L 262.008832 52.421745 
L 262.302289 52.421745 
" style="fill:none;stroke:#8c8c8c;stroke-linecap:square;"/>
   </g>
   <g id="line2d_35">
    <path clip-path="url(#pac8a971833)" d="M 265.823775 54.182488 
L 266.117232 54.182488 
L 265.823775 54.182488 
L 265.530317 54.182488 
L 265.530317 54.475945 
L 264.943403 55.062859 
L 264.649946 55.94323 
L 264.649946 56.823602 
L 265.530317 57.703973 
L 266.410689 57.99743 
L 267.877975 57.99743 
L 269.34526 57.410516 
" style="fill:none;stroke:#8c8c8c;stroke-linecap:square;"/>
   </g>
   <g id="line2d_36">
    <path clip-path="url(#pac8a971833)" d="M 260.835003 52.421745 
L 260.835003 52.715202 
L 260.835003 53.008659 
L 260.835003 53.302116 
L 260.835003 53.595573 
L 260.835003 53.88903 
L 260.835003 54.475945 
L 260.835003 54.769402 
L 260.835003 55.062859 
L 260.835003 55.356316 
L 260.835003 55.649773 
L 260.835003 55.94323 
L 260.835003 56.236688 
L 260.835003 56.530145 
L 260.835003 56.823602 
L 260.835003 57.117059 
L 260.835003 57.410516 
L 260.835003 57.703973 
L 261.12846 57.99743 
L 261.12846 58.290887 
L 261.12846 58.584345 
L 261.12846 58.877802 
L 261.12846 59.171259 
L 261.12846 58.877802 
L 261.12846 58.584345 
L 261.12846 58.290887 
L 260.835003 57.99743 
L 260.835003 57.703973 
" style="fill:none;stroke:#8c8c8c;stroke-linecap:square;"/>
   </g>
   <g id="line2d_37">
    <path clip-path="url(#pac8a971833)" d="M 261.421918 53.008659 
L 261.421918 52.715202 
L 261.421918 52.421745 
L 261.715375 52.421745 
L 261.715375 52.128288 
" style="fill:none;stroke:#8c8c8c;stroke-linecap:square;"/>
   </g>
   <g id="line2d_38">
    <path clip-path="url(#pac8a971833)" d="M 86.814921 261.069769 
L 86.521464 261.069769 
L 86.814921 261.363226 
L 86.814921 261.656683 
L 87.108378 261.95014 
L 87.695293 262.830512 
L 88.282207 263.710883 
L 88.575664 264.00434 
L 88.575664 264.297797 
L 88.575664 263.710883 
L 87.695293 262.243597 
L 87.401835 260.776312 
L 87.401835 259.309026 
L 87.695293 258.428655 
L 88.282207 257.548283 
L 88.575664 257.254826 
" style="fill:none;stroke:#8c8c8c;stroke-linecap:square;"/>
   </g>
   <g id="line2d_39">
    <path clip-path="url(#pac8a971833)" d="M 91.803693 261.069769 
L 91.803693 261.363226 
L 91.803693 261.656683 
L 92.390607 261.656683 
L 92.977521 261.069769 
L 93.270978 260.189398 
L 93.564435 259.89594 
L 93.270978 259.602483 
L 92.977521 259.309026 
L 92.684064 259.602483 
L 92.09715 260.482855 
L 91.803693 261.363226 
L 91.803693 262.830512 
L 92.390607 263.710883 
L 93.564435 264.591255 
L 94.738264 264.591255 
L 95.618635 264.00434 
L 95.912092 263.710883 
" style="fill:none;stroke:#8c8c8c;stroke-linecap:square;"/>
   </g>
   <g id="line2d_40">
    <path clip-path="url(#pac8a971833)" d="M 96.792464 260.776312 
L 96.792464 261.069769 
L 96.792464 261.363226 
L 96.792464 261.656683 
L 97.085921 262.243597 
L 97.379378 263.417426 
L 97.379378 263.710883 
L 97.672835 264.00434 
L 97.672835 263.710883 
L 97.672835 263.417426 
L 97.672835 262.830512 
L 97.966292 261.363226 
L 98.25975 260.189398 
L 98.846664 259.602483 
L 99.140121 259.602483 
L 99.727035 260.189398 
L 100.313949 261.363226 
L 100.607407 262.243597 
L 100.607407 262.830512 
L 100.900864 263.123969 
L 100.900864 262.537055 
L 100.900864 261.656683 
L 101.194321 260.776312 
L 101.487778 259.602483 
L 101.781235 259.015569 
L 102.368149 259.309026 
L 102.661607 259.89594 
L 102.955064 261.069769 
L 102.955064 261.95014 
L 103.248521 262.537055 
" style="fill:none;stroke:#8c8c8c;stroke-linecap:square;"/>
   </g>
   <g id="line2d_41">
    <path clip-path="url(#pac8a971833)" d="M 105.302721 260.776312 
L 105.009264 260.776312 
L 104.715807 261.069769 
L 104.715807 261.656683 
L 104.715807 262.243597 
L 105.009264 263.123969 
L 105.302721 263.710883 
L 106.183092 263.417426 
L 106.770006 263.123969 
L 107.063464 262.243597 
L 107.063464 261.363226 
L 106.770006 260.776312 
L 106.183092 260.189398 
L 105.302721 260.189398 
L 104.715807 260.189398 
" style="fill:none;stroke:#8c8c8c;stroke-linecap:square;"/>
   </g>
   <g id="line2d_42">
    <path clip-path="url(#pac8a971833)" d="M 109.704578 259.89594 
L 109.411121 259.89594 
L 109.411121 260.189398 
L 109.704578 260.776312 
L 109.998035 261.363226 
L 110.878406 262.537055 
L 111.758778 263.123969 
L 112.345692 263.123969 
L 112.639149 262.537055 
L 112.639149 261.656683 
L 112.345692 260.776312 
L 112.052235 260.189398 
L 112.052235 259.89594 
" style="fill:none;stroke:#8c8c8c;stroke-linecap:square;"/>
   </g>
   <g id="line2d_43">
    <path clip-path="url(#pac8a971833)" d="M 112.345692 260.189398 
L 112.345692 260.482855 
L 112.639149 260.482855 
L 112.932606 260.776312 
L 113.812978 260.776312 
L 114.986806 260.482855 
L 115.280263 260.189398 
L 115.867178 259.602483 
L 115.573721 258.722112 
L 115.280263 258.428655 
L 114.986806 258.135198 
L 114.399892 258.428655 
L 114.106435 259.015569 
L 113.812978 260.482855 
L 114.106435 261.95014 
L 114.693349 262.830512 
L 115.573721 263.123969 
L 116.160635 263.123969 
L 116.454092 263.123969 
" style="fill:none;stroke:#8c8c8c;stroke-linecap:square;"/>
   </g>
   <g id="line2d_44">
    <path clip-path="url(#pac8a971833)" d="M 119.975578 258.428655 
L 119.975578 258.135198 
L 119.68212 258.135198 
L 119.388663 258.135198 
L 119.095206 258.135198 
L 118.801749 258.428655 
L 118.508292 259.015569 
L 118.214835 259.602483 
L 118.214835 259.89594 
L 118.801749 260.189398 
L 119.095206 260.482855 
L 119.975578 260.776312 
L 120.855949 261.363226 
L 121.442863 261.95014 
L 121.73632 262.537055 
L 121.442863 262.830512 
L 120.855949 263.417426 
" style="fill:none;stroke:#8c8c8c;stroke-linecap:square;"/>
   </g>
   <g id="line2d_45">
    <path clip-path="url(#pac8a971833)" d="M 136.11572 253.733341 
L 135.822263 253.733341 
L 135.528806 253.733341 
L 135.235349 253.733341 
L 134.941892 253.733341 
L 134.06152 253.733341 
L 133.474606 254.026798 
L 133.181149 254.026798 
L 132.887692 254.320255 
L 132.887692 254.613712 
L 133.181149 254.907169 
L 133.181149 255.494083 
L 133.474606 256.374455 
L 133.474606 257.84174 
L 133.474606 259.89594 
L 133.181149 261.363226 
L 133.181149 262.243597 
L 133.474606 263.123969 
L 134.354977 263.417426 
L 135.528806 263.123969 
L 137.289549 262.537055 
L 138.463377 261.95014 
L 139.050292 261.656683 
" style="fill:none;stroke:#8c8c8c;stroke-linecap:square;"/>
   </g>
   <g id="line2d_46">
    <path clip-path="url(#pac8a971833)" d="M 140.22412 254.320255 
L 140.517577 254.907169 
L 140.811034 255.78754 
L 141.104491 257.548283 
L 141.397949 259.89594 
L 141.397949 261.363226 
L 141.691406 261.95014 
L 141.691406 261.95014 
" style="fill:none;stroke:#8c8c8c;stroke-linecap:square;"/>
   </g>
   <g id="line2d_47">
    <path clip-path="url(#pac8a971833)" d="M 143.745606 253.439883 
L 143.745606 253.733341 
L 144.039063 253.733341 
L 144.039063 254.320255 
L 144.625977 255.494083 
L 145.506349 257.548283 
L 146.093263 259.309026 
L 146.093263 260.482855 
L 146.093263 261.069769 
" style="fill:none;stroke:#8c8c8c;stroke-linecap:square;"/>
   </g>
   <g id="line2d_48">
    <path clip-path="url(#pac8a971833)" d="M 141.397949 259.89594 
L 141.691406 259.89594 
L 141.691406 259.602483 
L 142.865234 259.015569 
L 144.33252 258.428655 
L 145.799806 257.84174 
L 146.680177 257.254826 
L 146.973634 257.254826 
" style="fill:none;stroke:#8c8c8c;stroke-linecap:square;"/>
   </g>
   <g id="line2d_49">
    <path clip-path="url(#pac8a971833)" d="M 150.49512 253.439883 
L 150.49512 253.733341 
L 150.201663 253.733341 
L 149.908206 254.026798 
L 149.321291 254.907169 
L 149.027834 256.374455 
L 148.734377 258.428655 
L 149.321291 259.89594 
L 150.201663 260.776312 
L 151.375491 260.482855 
L 151.962406 260.189398 
" style="fill:none;stroke:#8c8c8c;stroke-linecap:square;"/>
   </g>
   <g id="line2d_50">
    <path clip-path="url(#pac8a971833)" d="M 153.723148 256.080998 
L 153.723148 255.494083 
L 153.429691 254.907169 
L 153.136234 254.907169 
L 152.842777 255.200626 
L 152.54932 255.78754 
L 152.54932 257.254826 
L 153.429691 259.602483 
L 154.60352 260.482855 
L 156.070805 260.482855 
L 157.244634 259.602483 
L 157.831548 257.84174 
L 157.244634 256.667912 
L 156.364263 255.200626 
L 155.190434 254.613712 
L 154.60352 254.613712 
L 153.723148 254.907169 
L 153.136234 255.494083 
" style="fill:none;stroke:#8c8c8c;stroke-linecap:square;"/>
   </g>
   <g id="line2d_51">
    <path clip-path="url(#pac8a971833)" d="M 159.005377 256.961369 
L 158.71192 257.254826 
L 159.005377 257.254826 
L 159.592291 257.254826 
L 160.76612 256.961369 
L 161.939948 256.961369 
L 162.526862 257.254826 
L 162.526862 257.84174 
L 162.526862 258.722112 
L 161.646491 259.89594 
L 161.353034 260.776312 
L 161.059577 261.069769 
L 161.353034 261.069769 
L 161.939948 261.363226 
L 163.113777 261.656683 
L 164.581062 262.830512 
L 165.754891 263.710883 
L 165.754891 264.297797 
L 165.461434 264.884712 
L 163.700691 264.591255 
L 161.939948 264.00434 
L 161.059577 263.417426 
" style="fill:none;stroke:#8c8c8c;stroke-linecap:square;"/>
   </g>
   <g id="line2d_52">
    <path clip-path="url(#pac8a971833)" d="M 163.994148 252.852969 
L 163.994148 253.146426 
L 163.994148 253.439883 
L 164.287605 253.439883 
L 164.87452 253.733341 
L 165.461434 253.439883 
" style="fill:none;stroke:#8c8c8c;stroke-linecap:square;"/>
   </g>
   <g id="line2d_53">
    <path clip-path="url(#pac8a971833)" d="M 166.048348 251.092226 
L 166.341805 251.092226 
L 166.341805 250.798769 
L 166.635262 250.798769 
L 167.515634 250.505312 
L 168.689462 250.505312 
L 169.276377 250.211855 
L 169.569834 250.505312 
L 169.863291 250.505312 
L 169.863291 250.798769 
L 170.156748 250.798769 
L 170.156748 251.092226 
L 170.450205 251.385683 
L 170.743662 251.679141 
L 171.037119 251.679141 
L 171.330577 251.679141 
L 171.624034 251.679141 
L 171.624034 251.972598 
L 171.917491 251.972598 
L 172.210948 251.972598 
L 172.210948 252.266055 
L 172.504405 252.266055 
L 172.210948 252.266055 
L 172.210948 252.559512 
L 171.917491 253.146426 
L 171.624034 254.026798 
L 171.330577 255.494083 
L 171.330577 256.961369 
L 171.624034 258.135198 
L 171.624034 259.015569 
L 171.917491 259.602483 
L 171.917491 259.89594 
L 171.917491 260.189398 
L 171.917491 260.776312 
L 171.917491 261.069769 
L 171.917491 261.363226 
L 171.917491 261.656683 
L 171.624034 261.656683 
L 171.330577 261.656683 
L 170.743662 261.95014 
L 169.863291 261.95014 
L 169.276377 261.95014 
L 168.396005 261.95014 
" style="fill:none;stroke:#8c8c8c;stroke-linecap:square;"/>
   </g>
   <g id="line2d_54">
    <path clip-path="url(#pac8a971833)" d="M 182.775405 258.135198 
L 182.775405 258.428655 
L 182.481948 258.428655 
L 182.481948 258.722112 
L 182.188491 258.722112 
L 181.601576 259.015569 
L 181.308119 259.602483 
L 181.308119 260.482855 
L 181.601576 261.069769 
L 182.188491 260.776312 
L 183.068862 260.189398 
L 183.655776 259.309026 
L 183.949233 258.722112 
L 183.949233 258.428655 
L 184.242691 258.428655 
L 184.536148 258.722112 
L 185.123062 259.602483 
L 185.416519 260.776312 
L 185.709976 261.363226 
L 185.709976 261.656683 
" style="fill:none;stroke:#8c8c8c;stroke-linecap:square;"/>
   </g>
   <g id="line2d_55">
    <path clip-path="url(#pac8a971833)" d="M 186.590348 259.89594 
L 186.590348 260.189398 
L 186.883805 260.189398 
L 186.883805 260.482855 
L 187.177262 260.776312 
L 187.470719 261.069769 
L 187.470719 261.363226 
L 187.177262 261.363226 
L 187.177262 261.069769 
L 187.177262 260.776312 
L 187.470719 260.189398 
L 188.35109 259.309026 
L 188.938005 258.722112 
L 189.818376 258.722112 
L 190.698748 259.015569 
L 190.992205 259.89594 
L 191.579119 260.482855 
L 191.579119 260.776312 
L 191.872576 260.776312 
" style="fill:none;stroke:#8c8c8c;stroke-linecap:square;"/>
   </g>
   <g id="line2d_56">
    <path clip-path="url(#pac8a971833)" d="M 193.926776 258.428655 
L 194.220233 258.135198 
L 193.926776 258.135198 
L 193.926776 257.84174 
L 193.633319 257.84174 
L 193.633319 258.135198 
L 192.752948 259.015569 
L 192.166033 259.89594 
L 192.45949 260.776312 
L 192.752948 261.069769 
L 193.633319 260.482855 
L 194.220233 259.89594 
L 194.51369 258.428655 
L 194.51369 256.961369 
L 194.51369 255.494083 
L 193.926776 254.026798 
L 193.926776 253.439883 
L 193.926776 254.907169 
L 194.220233 256.080998 
L 194.51369 257.84174 
L 194.807147 259.015569 
L 195.100605 259.309026 
" style="fill:none;stroke:#8c8c8c;stroke-linecap:square;"/>
   </g>
   <g id="line2d_57">
    <path clip-path="url(#pac8a971833)" d="M 209.186547 250.211855 
L 208.89309 250.505312 
L 208.306176 250.505312 
L 206.545433 251.092226 
L 205.371604 251.679141 
L 204.197776 252.266055 
L 203.904319 252.266055 
L 203.610862 252.266055 
L 203.904319 252.266055 
L 203.904319 252.559512 
L 204.197776 252.559512 
L 204.78469 253.146426 
L 205.078147 254.320255 
L 205.371604 255.78754 
L 205.371604 257.548283 
L 205.665062 259.015569 
L 205.665062 259.89594 
L 205.665062 260.776312 
L 205.665062 261.069769 
L 205.665062 261.656683 
L 205.665062 261.95014 
L 206.545433 262.537055 
L 207.719261 262.830512 
L 209.480004 262.830512 
L 210.94729 262.243597 
L 211.827661 261.95014 
" style="fill:none;stroke:#8c8c8c;stroke-linecap:square;"/>
   </g>
   <g id="line2d_58">
    <path clip-path="url(#pac8a971833)" d="M 218.577176 253.439883 
L 217.990261 253.146426 
L 217.403347 253.439883 
L 216.229518 254.320255 
L 215.05569 256.080998 
L 214.762233 258.135198 
L 215.349147 259.309026 
L 217.10989 260.189398 
L 218.577176 259.89594 
L 219.16409 259.89594 
" style="fill:none;stroke:#8c8c8c;stroke-linecap:square;"/>
   </g>
   <g id="line2d_59">
    <path clip-path="url(#pac8a971833)" d="M 221.805204 256.374455 
L 221.805204 256.080998 
L 221.511747 255.78754 
L 221.21829 255.494083 
L 220.924833 255.494083 
L 220.337918 256.080998 
L 220.337918 256.961369 
L 220.337918 258.428655 
L 221.21829 259.602483 
L 222.685575 259.89594 
L 224.152861 259.309026 
L 224.739775 258.428655 
L 224.739775 257.254826 
L 224.152861 255.494083 
L 223.565947 254.320255 
L 222.685575 253.733341 
L 222.098661 253.733341 
L 221.805204 254.026798 
L 221.511747 254.026798 
" style="fill:none;stroke:#8c8c8c;stroke-linecap:square;"/>
   </g>
   <g id="line2d_60">
    <path clip-path="url(#pac8a971833)" d="M 226.500518 257.254826 
L 226.207061 257.254826 
L 226.500518 257.254826 
L 226.793975 257.254826 
L 227.087433 256.961369 
L 227.967804 256.961369 
L 228.554718 256.961369 
L 228.848175 257.254826 
L 229.141632 257.548283 
L 228.848175 258.135198 
L 228.261261 259.015569 
L 227.967804 259.309026 
L 227.967804 259.602483 
L 228.261261 259.89594 
L 228.848175 260.482855 
L 230.022004 261.069769 
L 231.195832 262.243597 
L 231.782747 263.123969 
L 231.48929 264.00434 
L 230.902375 264.297797 
L 229.43509 264.591255 
L 227.38089 264.00434 
L 226.793975 263.417426 
" style="fill:none;stroke:#8c8c8c;stroke-linecap:square;"/>
   </g>
   <g id="line2d_61">
    <path clip-path="url(#pac8a971833)" d="M 230.315461 251.679141 
L 230.608918 251.679141 
L 230.902375 251.385683 
L 231.48929 251.385683 
L 232.076204 251.385683 
L 232.369661 251.385683 
L 232.369661 251.972598 
L 232.076204 252.559512 
L 231.48929 253.439883 
L 231.195832 254.320255 
L 231.195832 254.907169 
L 231.782747 255.200626 
L 232.076204 255.494083 
L 232.956575 255.494083 
L 233.250032 255.200626 
L 233.54349 255.200626 
L 233.54349 254.907169 
" style="fill:none;stroke:#8c8c8c;stroke-linecap:square;"/>
   </g>
   <g id="line2d_62">
    <path clip-path="url(#pac8a971833)" d="M 235.304232 252.266055 
L 235.304232 252.559512 
L 235.597689 252.559512 
L 236.478061 252.559512 
L 237.064975 252.559512 
L 237.358432 252.559512 
" style="fill:none;stroke:#8c8c8c;stroke-linecap:square;"/>
   </g>
   <g id="line2d_63">
    <path clip-path="url(#pac8a971833)" d="M 237.064975 249.624941 
L 237.064975 249.331483 
L 237.358432 249.331483 
L 238.238804 249.038026 
L 239.119175 248.744569 
L 239.999547 248.451112 
L 240.586461 248.451112 
L 241.173375 248.451112 
L 241.466832 248.451112 
L 241.760289 248.744569 
L 241.760289 249.331483 
L 242.053746 250.211855 
L 242.347204 251.385683 
L 242.640661 252.852969 
L 242.640661 254.613712 
L 242.640661 255.78754 
L 242.934118 257.254826 
L 242.934118 258.135198 
L 242.934118 259.015569 
L 242.934118 259.309026 
L 242.934118 259.602483 
L 242.934118 260.189398 
L 242.640661 260.482855 
L 242.347204 261.069769 
L 241.760289 261.656683 
L 241.173375 262.243597 
L 240.293004 262.830512 
L 239.999547 262.830512 
" style="fill:none;stroke:#8c8c8c;stroke-linecap:square;"/>
   </g>
   <g id="line2d_64">
    <path clip-path="url(#pac8a971833)" d="M 90.629864 261.363226 
L 90.336407 261.363226 
L 90.336407 261.656683 
L 90.04295 261.656683 
L 89.749493 261.656683 
L 89.456035 261.95014 
L 88.869121 262.243597 
L 88.282207 262.830512 
L 87.98875 263.710883 
L 88.282207 264.884712 
L 88.575664 265.765083 
L 89.162578 266.351997 
L 90.336407 266.645455 
L 91.216778 266.351997 
L 91.803693 266.05854 
" style="fill:none;stroke:#8c8c8c;stroke-linecap:square;"/>
   </g>
   <g id="line2d_65">
    <path clip-path="url(#pac8a971833)" d="M 93.270978 263.417426 
L 93.270978 263.123969 
L 93.270978 262.830512 
L 93.270978 262.537055 
L 93.270978 262.830512 
L 92.977521 263.123969 
L 92.977521 263.710883 
L 92.977521 264.591255 
L 93.564435 265.178169 
L 94.15135 265.178169 
L 94.738264 264.884712 
L 95.325178 264.00434 
L 95.031721 263.123969 
L 94.738264 262.537055 
L 94.15135 262.243597 
L 93.857892 262.243597 
L 93.564435 262.830512 
L 93.270978 262.830512 
" style="fill:none;stroke:#8c8c8c;stroke-linecap:square;"/>
   </g>
   <g id="line2d_66">
    <path clip-path="url(#pac8a971833)" d="M 95.912092 261.363226 
L 95.912092 261.656683 
L 96.20555 262.243597 
L 96.792464 263.123969 
L 97.085921 263.710883 
L 97.379378 264.297797 
L 97.379378 264.591255 
L 97.085921 264.297797 
L 97.085921 263.710883 
L 97.085921 262.830512 
L 97.085921 261.95014 
L 97.379378 261.363226 
L 97.966292 261.363226 
L 98.25975 261.656683 
L 98.846664 262.537055 
L 99.140121 263.123969 
L 99.433578 263.710883 
L 99.433578 264.00434 
" style="fill:none;stroke:#8c8c8c;stroke-linecap:square;"/>
   </g>
   <g id="line2d_67">
    <path clip-path="url(#pac8a971833)" d="M 99.727035 262.537055 
L 100.020492 262.830512 
L 100.607407 263.123969 
L 101.487778 263.710883 
L 102.074692 263.710883 
L 102.368149 263.417426 
L 102.661607 263.123969 
L 102.661607 262.243597 
L 102.661607 261.656683 
L 102.661607 261.069769 
L 102.661607 260.776312 
" style="fill:none;stroke:#8c8c8c;stroke-linecap:square;"/>
   </g>
   <g id="line2d_68">
    <path clip-path="url(#pac8a971833)" d="M 103.248521 261.656683 
L 103.541978 261.95014 
L 103.835435 262.243597 
L 104.422349 262.243597 
L 105.009264 261.95014 
L 105.302721 261.363226 
L 105.596178 260.776312 
L 105.302721 260.189398 
L 105.009264 259.89594 
L 104.422349 259.89594 
L 104.128892 260.776312 
L 103.835435 262.243597 
L 104.422349 263.123969 
L 104.715807 263.417426 
L 105.302721 263.417426 
L 105.889635 262.830512 
L 106.476549 262.243597 
L 106.770006 262.243597 
L 107.063464 262.243597 
L 107.356921 262.537055 
L 107.943835 262.830512 
L 107.943835 263.123969 
L 108.237292 263.123969 
L 108.237292 263.123969 
L 107.943835 263.123969 
L 107.943835 262.537055 
L 108.237292 261.656683 
L 108.530749 260.776312 
L 108.824206 259.89594 
" style="fill:none;stroke:#8c8c8c;stroke-linecap:square;"/>
   </g>
   <g id="line2d_69">
    <path clip-path="url(#pac8a971833)" d="M 110.584949 258.135198 
L 110.878406 258.428655 
L 111.465321 259.015569 
L 112.052235 260.189398 
L 112.932606 261.95014 
L 113.519521 263.123969 
L 113.812978 263.710883 
" style="fill:none;stroke:#8c8c8c;stroke-linecap:square;"/>
   </g>
   <g id="line2d_70">
    <path clip-path="url(#pac8a971833)" d="M 111.171864 261.363226 
L 111.171864 261.069769 
L 111.465321 261.069769 
L 111.758778 260.776312 
L 112.932606 260.482855 
L 113.812978 259.89594 
L 114.399892 259.309026 
" style="fill:none;stroke:#8c8c8c;stroke-linecap:square;"/>
   </g>
   <g id="line2d_71">
    <path clip-path="url(#pac8a971833)" d="M 116.160635 257.84174 
L 115.867178 257.84174 
L 115.573721 257.84174 
L 115.280263 258.428655 
L 114.986806 259.015569 
L 114.693349 259.602483 
L 114.986806 259.602483 
L 115.280263 259.89594 
L 115.867178 260.482855 
L 117.334463 261.069769 
L 118.508292 261.95014 
L 119.388663 262.830512 
L 119.68212 263.417426 
L 119.095206 263.710883 
" style="fill:none;stroke:#8c8c8c;stroke-linecap:square;"/>
   </g>
   <g id="line2d_72">
    <path clip-path="url(#pac8a971833)" d="M 262.595746 252.852969 
L 262.302289 252.852969 
L 262.302289 253.146426 
L 262.302289 253.733341 
L 262.595746 255.200626 
L 263.18266 256.961369 
L 263.476117 258.428655 
L 263.476117 259.015569 
L 263.476117 259.309026 
L 263.476117 259.602483 
" style="fill:none;stroke:#8c8c8c;stroke-linecap:square;"/>
   </g>
   <g id="line2d_73">
    <path clip-path="url(#pac8a971833)" d="M 261.12846 256.961369 
L 260.835003 256.961369 
L 260.835003 256.667912 
L 260.835003 256.374455 
L 261.12846 256.374455 
L 261.715375 256.080998 
L 262.595746 255.78754 
L 263.476117 255.494083 
L 264.356489 255.494083 
L 264.943403 255.494083 
" style="fill:none;stroke:#8c8c8c;stroke-linecap:square;"/>
   </g>
   <g id="line2d_74">
    <path clip-path="url(#pac8a971833)" d="M 265.823775 255.494083 
L 265.823775 255.78754 
L 265.823775 256.080998 
L 265.823775 256.374455 
L 265.823775 256.667912 
L 266.117232 257.254826 
L 266.704146 257.84174 
L 267.584517 258.135198 
L 268.464889 258.135198 
L 268.758346 257.548283 
L 268.758346 256.667912 
L 268.758346 255.78754 
L 268.171432 255.494083 
L 267.29106 255.494083 
L 266.704146 255.78754 
L 266.410689 256.080998 
" style="fill:none;stroke:#8c8c8c;stroke-linecap:square;"/>
   </g>
   <g id="line2d_75">
    <path clip-path="url(#pac8a971833)" d="M 287.539603 251.972598 
L 287.539603 251.679141 
L 287.246146 251.679141 
L 286.952688 251.679141 
L 286.659231 251.679141 
L 286.072317 251.972598 
L 284.898488 253.146426 
L 284.605031 254.320255 
L 284.311574 256.374455 
L 285.191946 258.428655 
L 286.365774 259.89594 
L 288.419974 260.482855 
L 289.88726 260.189398 
L 291.061088 259.602483 
L 291.354545 259.309026 
" style="fill:none;stroke:#8c8c8c;stroke-linecap:square;"/>
   </g>
   <g id="line2d_76">
    <path clip-path="url(#pac8a971833)" d="M 293.115288 255.78754 
L 293.115288 255.200626 
L 292.528374 254.613712 
L 292.234917 254.613712 
L 291.648003 254.907169 
L 291.354545 255.494083 
L 291.354545 256.667912 
L 291.94146 257.84174 
L 293.115288 258.722112 
L 294.289117 258.722112 
L 295.756403 258.135198 
L 296.636774 256.667912 
L 296.636774 255.494083 
L 295.756403 253.733341 
L 294.582574 253.146426 
L 293.702203 252.852969 
L 292.528374 253.146426 
L 291.94146 253.733341 
L 291.648003 253.733341 
" style="fill:none;stroke:#8c8c8c;stroke-linecap:square;"/>
   </g>
   <g id="line2d_77">
    <path clip-path="url(#pac8a971833)" d="M 300.451717 255.78754 
L 300.15826 255.78754 
L 300.451717 255.78754 
L 300.745174 255.494083 
L 301.625545 255.494083 
L 302.21246 255.494083 
L 302.799374 255.78754 
L 302.799374 256.080998 
L 302.505917 256.961369 
L 301.332088 258.428655 
L 299.571345 260.482855 
L 298.984431 261.95014 
L 299.277888 262.830512 
L 300.15826 262.830512 
L 301.919002 262.537055 
L 303.679745 262.243597 
L 304.266659 261.95014 
L 304.853574 261.656683 
" style="fill:none;stroke:#8c8c8c;stroke-linecap:square;"/>
   </g>
  </g>
 </g>
 <defs>
  <clipPath id="pac8a971833">
   <rect height="271.8" width="311.827553" x="7.2" y="7.2"/>
  </clipPath>
 </defs>
</svg>
