<?xml version="1.0" encoding="utf-8" standalone="no"?>
<!DOCTYPE svg PUBLIC "-//W3C//DTD SVG 1.1//EN"
  "http://www.w3.org/Graphics/SVG/1.1/DTD/svg11.dtd">
<!-- Created with matplotlib (https://matplotlib.org/) -->
<svg height="83.103756pt" version="1.1" viewBox="0 0 567.217337 83.103756" width="567.217337pt" xmlns="http://www.w3.org/2000/svg" xmlns:xlink="http://www.w3.org/1999/xlink">
 <metadata>
  <rdf:RDF xmlns:cc="http://creativecommons.org/ns#" xmlns:dc="http://purl.org/dc/elements/1.1/" xmlns:rdf="http://www.w3.org/1999/02/22-rdf-syntax-ns#">
   <cc:Work>
    <dc:type rdf:resource="http://purl.org/dc/dcmitype/StillImage"/>
    <dc:date>2024-11-15T16:04:29.590238</dc:date>
    <dc:format>image/svg+xml</dc:format>
    <dc:creator>
     <cc:Agent>
      <dc:title>Matplotlib v3.3.4, https://matplotlib.org/</dc:title>
     </cc:Agent>
    </dc:creator>
   </cc:Work>
  </rdf:RDF>
 </metadata>
 <defs>
  <style type="text/css">*{stroke-linecap:butt;stroke-linejoin:round;}</style>
 </defs>
 <g id="figure_1">
  <g id="patch_1">
   <path d="M 0 83.103756 
L 567.217337 83.103756 
L 567.217337 -0 
L 0 -0 
z
" style="fill:#ffffff;"/>
  </g>
  <g id="axes_1">
   <g id="line2d_1">
    <path clip-path="url(#p14cb88b36d)" d="M 33.615854 40.264085 
L 33.615854 40.586033 
L 33.615854 40.907982 
L 33.615854 41.873826 
L 33.615854 42.839671 
L 33.615854 44.771361 
L 33.937802 46.70305 
L 34.25975 48.312791 
L 34.25975 49.278636 
L 34.25975 49.922533 
L 34.25975 50.244481 
L 34.25975 50.566429 
" style="fill:none;stroke:#8c8c8c;stroke-linecap:square;"/>
   </g>
   <g id="line2d_2">
    <path clip-path="url(#p14cb88b36d)" d="M 32.650009 39.620189 
L 32.328061 39.942137 
L 32.650009 39.942137 
L 32.650009 40.264085 
L 33.293906 39.942137 
L 34.25975 39.942137 
L 35.225595 39.29824 
L 36.19144 38.976292 
L 36.835336 38.654344 
" style="fill:none;stroke:#8c8c8c;stroke-linecap:square;"/>
   </g>
   <g id="line2d_3">
    <path clip-path="url(#p14cb88b36d)" d="M 33.615854 44.449412 
L 33.615854 44.771361 
L 33.293906 44.771361 
L 33.293906 45.093309 
L 33.615854 45.093309 
L 33.937802 45.093309 
L 34.25975 45.093309 
L 35.225595 44.771361 
L 35.869492 44.449412 
L 36.513388 44.449412 
" style="fill:none;stroke:#8c8c8c;stroke-linecap:square;"/>
   </g>
   <g id="line2d_4">
    <path clip-path="url(#p14cb88b36d)" d="M 38.445078 44.449412 
L 38.123129 44.449412 
L 38.123129 44.771361 
L 37.801181 45.093309 
L 37.801181 45.737205 
L 37.479233 46.70305 
L 37.479233 47.668895 
L 38.123129 48.312791 
L 38.767026 48.63474 
L 39.732871 48.312791 
L 40.054819 47.668895 
L 40.054819 46.381102 
L 40.054819 45.093309 
L 39.732871 44.449412 
L 39.088974 44.127464 
L 38.767026 44.127464 
L 38.445078 44.771361 
L 38.123129 45.093309 
" style="fill:none;stroke:#8c8c8c;stroke-linecap:square;"/>
   </g>
   <g id="line2d_5">
    <path clip-path="url(#p14cb88b36d)" d="M 40.376767 45.415257 
L 40.698715 45.415257 
L 41.020664 45.415257 
L 41.020664 45.737205 
L 41.66456 46.70305 
L 41.986508 47.024998 
L 42.630405 47.668895 
L 43.596249 47.668895 
L 43.918198 47.346947 
L 44.240146 46.70305 
L 44.240146 45.093309 
L 44.240146 44.127464 
L 44.240146 43.483568 
L 44.240146 43.161619 
" style="fill:none;stroke:#8c8c8c;stroke-linecap:square;"/>
   </g>
   <g id="line2d_6">
    <path clip-path="url(#p14cb88b36d)" d="M 45.849887 44.449412 
L 45.849887 45.093309 
L 46.171835 45.737205 
L 46.493784 46.381102 
L 46.493784 46.70305 
L 46.493784 47.024998 
L 46.493784 47.346947 
L 46.493784 47.024998 
L 46.493784 46.70305 
L 46.493784 46.059154 
L 46.815732 45.093309 
L 47.459628 44.127464 
L 47.781577 44.127464 
" style="fill:none;stroke:#8c8c8c;stroke-linecap:square;"/>
   </g>
   <g id="line2d_7">
    <path clip-path="url(#p14cb88b36d)" d="M 57.118076 44.449412 
L 56.796128 44.449412 
L 56.474179 44.449412 
L 56.796128 44.771361 
L 57.118076 44.771361 
L 57.761972 44.771361 
L 58.727817 44.771361 
L 59.049765 44.127464 
L 59.693662 43.483568 
L 59.693662 43.161619 
L 59.371714 42.195775 
L 59.049765 41.873826 
L 58.405869 42.195775 
L 57.440024 43.483568 
L 56.796128 45.093309 
L 56.474179 46.70305 
L 56.796128 47.990843 
L 57.440024 48.312791 
L 58.727817 48.63474 
L 59.693662 48.63474 
L 60.01561 48.63474 
" style="fill:none;stroke:#8c8c8c;stroke-linecap:square;"/>
   </g>
   <g id="line2d_8">
    <path clip-path="url(#p14cb88b36d)" d="M 64.522886 45.093309 
L 64.522886 44.771361 
L 64.522886 44.449412 
L 64.200937 44.449412 
L 63.557041 44.449412 
L 62.913144 45.093309 
L 62.269248 45.737205 
L 62.269248 46.381102 
L 62.591196 47.024998 
L 63.235093 47.024998 
L 63.878989 46.381102 
L 64.200937 45.415257 
L 64.522886 44.127464 
L 64.522886 43.483568 
L 64.844834 43.161619 
L 64.844834 42.839671 
L 64.522886 43.161619 
L 64.844834 45.093309 
L 65.166782 47.024998 
L 65.48873 49.278636 
L 65.810679 50.888377 
L 66.132627 51.854222 
" style="fill:none;stroke:#8c8c8c;stroke-linecap:square;"/>
   </g>
   <g id="line2d_9">
    <path clip-path="url(#p14cb88b36d)" d="M 68.708213 42.195775 
L 68.708213 41.873826 
L 68.386265 41.873826 
L 68.064316 42.195775 
L 67.742368 42.517723 
L 67.42042 42.839671 
L 67.098472 43.161619 
L 66.776523 43.805516 
L 66.776523 44.127464 
L 66.776523 44.449412 
L 67.42042 44.449412 
L 68.386265 45.093309 
L 69.030161 45.415257 
L 69.674058 46.059154 
L 69.996006 46.70305 
L 69.996006 47.024998 
L 69.674058 47.346947 
L 69.030161 47.346947 
" style="fill:none;stroke:#8c8c8c;stroke-linecap:square;"/>
   </g>
   <g id="line2d_10">
    <path clip-path="url(#p14cb88b36d)" d="M 73.215488 47.668895 
L 73.215488 47.990843 
L 73.215488 48.312791 
L 73.215488 48.63474 
" style="fill:none;stroke:#8c8c8c;stroke-linecap:square;"/>
   </g>
   <g id="line2d_11">
    <path clip-path="url(#p14cb88b36d)" d="M 79.332505 49.922533 
L 79.654453 50.244481 
L 79.976402 50.244481 
L 79.976402 50.566429 
L 80.29835 50.888377 
L 80.29835 51.210326 
L 80.29835 51.532274 
L 79.976402 52.498119 
L 79.332505 53.142015 
L 78.36666 54.10786 
L 77.722764 54.429808 
" style="fill:none;stroke:#8c8c8c;stroke-linecap:square;"/>
   </g>
   <g id="line2d_12">
    <path clip-path="url(#p14cb88b36d)" d="M 88.669004 44.449412 
L 88.347056 44.449412 
L 87.70316 44.771361 
L 87.059263 45.093309 
L 86.415367 45.415257 
L 85.449522 45.737205 
L 85.127574 46.059154 
L 85.127574 46.381102 
L 84.805625 46.381102 
L 85.127574 46.381102 
L 85.77147 46.70305 
L 86.415367 47.024998 
L 87.70316 47.346947 
L 88.347056 48.312791 
L 88.990953 49.278636 
L 88.669004 49.922533 
L 88.347056 50.566429 
L 87.70316 50.566429 
L 87.381211 50.566429 
L 86.737315 50.244481 
" style="fill:none;stroke:#8c8c8c;stroke-linecap:square;"/>
   </g>
   <g id="line2d_13">
    <path clip-path="url(#p14cb88b36d)" d="M 90.278746 47.346947 
L 90.922642 47.346947 
L 90.922642 47.668895 
L 91.24459 48.312791 
L 91.566539 48.956688 
L 91.888487 49.922533 
L 91.888487 50.244481 
" style="fill:none;stroke:#8c8c8c;stroke-linecap:square;"/>
   </g>
   <g id="line2d_14">
    <path clip-path="url(#p14cb88b36d)" d="M 92.210435 45.415257 
L 92.210435 45.093309 
L 91.888487 44.449412 
L 91.888487 44.127464 
L 92.210435 44.127464 
L 92.210435 44.449412 
" style="fill:none;stroke:#8c8c8c;stroke-linecap:square;"/>
   </g>
   <g id="line2d_15">
    <path clip-path="url(#p14cb88b36d)" d="M 95.751866 45.737205 
L 95.751866 46.059154 
L 95.751866 46.381102 
L 95.429917 47.024998 
L 94.786021 48.312791 
L 94.464073 49.278636 
L 94.142125 50.244481 
L 94.142125 50.566429 
" style="fill:none;stroke:#8c8c8c;stroke-linecap:square;"/>
   </g>
   <g id="line2d_16">
    <path clip-path="url(#p14cb88b36d)" d="M 93.820176 47.024998 
L 93.498228 46.381102 
L 93.820176 46.059154 
L 94.142125 46.059154 
L 94.464073 46.70305 
L 95.429917 47.346947 
L 96.395762 47.990843 
L 96.71771 48.63474 
" style="fill:none;stroke:#8c8c8c;stroke-linecap:square;"/>
   </g>
   <g id="line2d_17">
    <path clip-path="url(#p14cb88b36d)" d="M 104.766417 48.312791 
L 104.444468 48.312791 
L 104.444468 47.990843 
L 104.12252 47.668895 
L 104.12252 47.990843 
L 104.12252 48.312791 
L 104.444468 48.63474 
L 104.444468 48.956688 
L 105.088365 49.278636 
L 105.410313 49.600584 
L 106.05421 49.600584 
L 106.05421 48.956688 
L 106.05421 48.63474 
L 106.05421 47.990843 
L 105.732261 47.668895 
" style="fill:none;stroke:#8c8c8c;stroke-linecap:square;"/>
   </g>
   <g id="line2d_18">
    <path clip-path="url(#p14cb88b36d)" d="M 106.698106 47.346947 
L 107.020054 47.346947 
L 107.342003 47.668895 
L 107.663951 48.312791 
L 107.985899 49.278636 
L 107.985899 49.600584 
L 108.307847 49.922533 
L 108.307847 49.600584 
L 108.629796 49.278636 
L 108.629796 48.63474 
L 108.951744 47.990843 
L 109.59564 47.346947 
L 110.239537 47.024998 
L 110.561485 47.346947 
L 110.883433 48.312791 
L 111.205382 48.956688 
L 111.205382 49.922533 
L 111.52733 49.922533 
L 111.52733 50.244481 
" style="fill:none;stroke:#8c8c8c;stroke-linecap:square;"/>
   </g>
   <g id="line2d_19">
    <path clip-path="url(#p14cb88b36d)" d="M 113.137071 43.161619 
L 113.137071 42.839671 
L 113.137071 42.517723 
L 113.137071 42.195775 
L 113.137071 43.161619 
L 113.137071 44.771361 
L 113.459019 47.024998 
L 113.459019 48.312791 
L 113.780968 49.278636 
" style="fill:none;stroke:#8c8c8c;stroke-linecap:square;"/>
   </g>
   <g id="line2d_20">
    <path clip-path="url(#p14cb88b36d)" d="M 117.322398 44.771361 
L 117.00045 44.771361 
L 116.678502 45.093309 
L 115.712657 45.737205 
L 114.746812 46.381102 
L 114.424864 46.70305 
L 114.102916 47.024998 
L 114.102916 47.346947 
L 114.424864 47.346947 
L 114.746812 47.346947 
L 115.390709 47.668895 
L 116.034605 48.312791 
L 116.678502 49.278636 
L 117.322398 49.922533 
L 117.644347 50.566429 
L 117.966295 50.566429 
" style="fill:none;stroke:#8c8c8c;stroke-linecap:square;"/>
   </g>
   <g id="line2d_21">
    <path clip-path="url(#p14cb88b36d)" d="M 120.219933 47.668895 
L 120.219933 47.346947 
L 120.541881 47.346947 
L 120.541881 47.990843 
L 120.541881 48.312791 
L 120.541881 49.278636 
L 120.863829 49.600584 
L 120.863829 49.278636 
L 120.863829 48.312791 
L 121.185777 47.668895 
L 121.507726 47.346947 
L 121.829674 47.346947 
L 122.151622 47.990843 
L 122.47357 48.956688 
L 122.795519 49.600584 
L 122.795519 49.922533 
" style="fill:none;stroke:#8c8c8c;stroke-linecap:square;"/>
   </g>
   <g id="line2d_22">
    <path clip-path="url(#p14cb88b36d)" d="M 125.371105 49.278636 
L 125.371105 48.956688 
L 125.049156 48.956688 
L 125.049156 48.63474 
L 125.049156 48.312791 
L 125.049156 48.63474 
L 125.049156 48.956688 
L 125.049156 49.278636 
L 125.371105 49.600584 
L 125.693053 49.922533 
L 126.336949 49.922533 
L 126.658898 49.600584 
L 126.658898 48.956688 
L 126.336949 48.312791 
L 125.693053 47.668895 
L 125.049156 47.668895 
L 124.727208 47.990843 
" style="fill:none;stroke:#8c8c8c;stroke-linecap:square;"/>
   </g>
   <g id="line2d_23">
    <path clip-path="url(#p14cb88b36d)" d="M 127.946691 48.956688 
L 128.268639 48.63474 
L 128.268639 48.312791 
L 128.268639 47.990843 
L 128.590587 47.990843 
L 128.590587 48.312791 
L 128.912535 48.63474 
L 129.556432 48.956688 
L 130.200328 49.600584 
L 130.522277 49.922533 
L 130.844225 49.600584 
L 130.844225 49.278636 
L 131.166173 49.278636 
L 131.166173 48.956688 
L 131.488121 48.956688 
L 131.81007 48.956688 
L 132.132018 48.956688 
L 132.132018 48.63474 
L 132.132018 48.312791 
L 132.453966 47.346947 
L 132.775914 46.70305 
L 132.775914 46.059154 
" style="fill:none;stroke:#8c8c8c;stroke-linecap:square;"/>
   </g>
   <g id="line2d_24">
    <path clip-path="url(#p14cb88b36d)" d="M 133.741759 46.70305 
L 134.063707 46.70305 
L 134.063707 47.024998 
L 134.385656 47.668895 
L 134.385656 48.312791 
L 134.707604 48.63474 
L 134.707604 48.956688 
L 134.707604 48.63474 
L 135.029552 48.63474 
L 135.029552 48.312791 
L 135.3515 47.668895 
L 135.673449 47.668895 
L 135.673449 47.990843 
L 135.995397 48.312791 
L 136.317345 48.63474 
L 136.317345 48.956688 
" style="fill:none;stroke:#8c8c8c;stroke-linecap:square;"/>
   </g>
   <g id="line2d_25">
    <path clip-path="url(#p14cb88b36d)" d="M 140.180724 46.70305 
L 140.502672 46.70305 
L 140.502672 46.381102 
L 140.180724 46.381102 
L 140.180724 46.059154 
L 139.858776 46.381102 
L 139.536828 46.381102 
L 139.214879 46.70305 
L 138.892931 47.024998 
L 139.214879 47.024998 
L 139.214879 47.346947 
L 139.858776 48.312791 
L 140.180724 48.956688 
L 140.502672 49.600584 
L 140.502672 50.244481 
L 140.502672 50.888377 
" style="fill:none;stroke:#8c8c8c;stroke-linecap:square;"/>
   </g>
   <g id="line2d_26">
    <path clip-path="url(#p14cb88b36d)" d="M 155.956188 45.415257 
L 155.956188 45.737205 
L 155.63424 45.737205 
L 155.956188 45.737205 
L 156.278136 45.737205 
L 157.243981 45.737205 
L 159.497619 45.415257 
L 163.03905 45.415257 
L 165.614636 45.737205 
L 167.224377 45.737205 
L 168.834118 46.059154 
L 170.121911 45.737205 
" style="fill:none;stroke:#8c8c8c;stroke-linecap:square;"/>
   </g>
   <g id="line2d_27">
    <path clip-path="url(#p14cb88b36d)" d="M 170.443859 42.839671 
L 170.121911 42.839671 
L 170.121911 43.161619 
L 170.765808 43.161619 
L 171.409704 43.483568 
L 172.053601 43.805516 
L 172.697497 44.449412 
L 172.697497 45.093309 
L 172.697497 45.737205 
L 172.375549 46.70305 
L 172.053601 47.346947 
L 171.731652 47.990843 
" style="fill:none;stroke:#8c8c8c;stroke-linecap:square;"/>
   </g>
   <g id="line2d_28">
    <path clip-path="url(#p14cb88b36d)" d="M 183.965686 45.093309 
L 183.643738 45.093309 
L 183.643738 45.415257 
L 183.643738 45.737205 
L 183.965686 46.70305 
L 183.965686 47.346947 
L 183.965686 47.668895 
L 183.643738 47.668895 
L 183.643738 47.346947 
L 183.321789 46.70305 
L 183.321789 45.415257 
L 183.321789 44.127464 
L 183.965686 43.483568 
L 183.965686 43.161619 
L 184.287634 42.839671 
L 184.931531 43.161619 
L 185.253479 43.805516 
L 185.253479 44.127464 
L 185.253479 44.449412 
L 185.253479 44.771361 
L 185.253479 44.449412 
L 185.575427 43.805516 
L 185.897375 43.161619 
L 186.219324 42.195775 
L 186.86322 42.195775 
L 187.507117 42.195775 
L 187.829065 42.839671 
L 188.472961 44.127464 
L 188.79491 45.415257 
L 189.116858 46.381102 
" style="fill:none;stroke:#8c8c8c;stroke-linecap:square;"/>
   </g>
   <g id="line2d_29">
    <path clip-path="url(#p14cb88b36d)" d="M 190.082703 45.415257 
L 190.404651 45.093309 
L 190.404651 44.771361 
L 190.726599 44.449412 
L 191.370496 43.805516 
L 191.692444 43.161619 
L 191.692444 42.839671 
L 191.692444 42.517723 
L 191.370496 42.517723 
L 191.048547 42.517723 
L 190.404651 43.161619 
L 189.760754 44.449412 
L 189.760754 45.737205 
L 190.404651 46.70305 
L 191.370496 47.346947 
L 192.014392 47.346947 
L 192.980237 46.70305 
" style="fill:none;stroke:#8c8c8c;stroke-linecap:square;"/>
   </g>
   <g id="line2d_30">
    <path clip-path="url(#p14cb88b36d)" d="M 194.911926 43.805516 
L 195.233875 43.805516 
L 195.233875 44.127464 
L 195.233875 44.449412 
L 195.555823 45.093309 
L 195.877771 46.059154 
L 196.199719 46.70305 
L 195.877771 45.737205 
L 195.555823 44.449412 
L 194.911926 43.483568 
L 194.26803 43.161619 
L 193.624133 43.483568 
L 192.980237 44.449412 
L 193.302185 45.737205 
L 193.624133 46.381102 
L 194.589978 46.70305 
L 195.555823 46.381102 
" style="fill:none;stroke:#8c8c8c;stroke-linecap:square;"/>
   </g>
   <g id="line2d_31">
    <path clip-path="url(#p14cb88b36d)" d="M 198.131409 44.127464 
L 198.453357 43.805516 
L 198.453357 43.483568 
L 198.131409 43.483568 
L 197.809461 43.483568 
L 197.487512 43.805516 
L 196.843616 44.127464 
L 196.843616 44.449412 
L 197.165564 44.771361 
L 197.809461 45.093309 
L 198.775305 45.737205 
L 199.419202 46.381102 
L 199.74115 47.346947 
L 199.74115 48.312791 
L 199.419202 48.63474 
L 198.453357 48.63474 
" style="fill:none;stroke:#8c8c8c;stroke-linecap:square;"/>
   </g>
   <g id="line2d_32">
    <path clip-path="url(#p14cb88b36d)" d="M 202.316736 45.415257 
L 202.638684 45.737205 
L 202.638684 46.059154 
L 202.960632 46.70305 
L 203.604529 47.346947 
L 204.248425 47.668895 
L 204.892322 47.668895 
L 204.892322 47.346947 
L 204.570374 46.059154 
L 204.248425 44.771361 
L 203.926477 43.805516 
L 203.604529 43.483568 
" style="fill:none;stroke:#8c8c8c;stroke-linecap:square;"/>
   </g>
   <g id="line2d_33">
    <path clip-path="url(#p14cb88b36d)" d="M 207.14596 44.771361 
L 207.14596 45.093309 
L 207.467908 45.737205 
L 207.789856 46.70305 
L 208.111804 47.024998 
L 208.111804 46.381102 
L 208.111804 45.737205 
L 208.433753 45.093309 
L 209.077649 44.449412 
L 209.721546 44.127464 
L 210.365442 44.127464 
" style="fill:none;stroke:#8c8c8c;stroke-linecap:square;"/>
   </g>
   <g id="line2d_34">
    <path clip-path="url(#p14cb88b36d)" d="M 212.61908 44.449412 
L 212.941028 44.449412 
L 212.941028 44.771361 
L 213.262976 44.449412 
L 213.584925 44.127464 
L 213.906873 44.127464 
L 213.906873 43.483568 
L 213.906873 43.161619 
L 213.584925 42.839671 
L 212.941028 42.517723 
L 212.61908 42.839671 
L 212.297132 43.805516 
L 212.297132 45.093309 
L 213.262976 46.70305 
L 214.550769 47.346947 
L 215.838562 47.346947 
L 216.482459 47.024998 
" style="fill:none;stroke:#8c8c8c;stroke-linecap:square;"/>
   </g>
   <g id="line2d_35">
    <path clip-path="url(#p14cb88b36d)" d="M 230.004285 41.22993 
L 230.004285 40.907982 
L 230.004285 40.586033 
L 230.004285 40.264085 
L 230.004285 40.586033 
L 230.326234 40.586033 
L 230.326234 41.551878 
L 230.648182 43.483568 
L 230.97013 45.415257 
L 231.292078 46.70305 
L 231.614027 47.346947 
" style="fill:none;stroke:#8c8c8c;stroke-linecap:square;"/>
   </g>
   <g id="line2d_36">
    <path clip-path="url(#p14cb88b36d)" d="M 228.072596 43.161619 
L 228.394544 43.161619 
L 228.716492 43.161619 
L 230.648182 43.161619 
L 232.257923 42.839671 
L 233.223768 42.839671 
L 233.545716 42.517723 
" style="fill:none;stroke:#8c8c8c;stroke-linecap:square;"/>
   </g>
   <g id="line2d_37">
    <path clip-path="url(#p14cb88b36d)" d="M 234.833509 42.839671 
L 234.833509 43.161619 
L 234.833509 43.483568 
L 235.155457 44.127464 
L 235.477406 45.093309 
L 235.799354 45.415257 
L 235.799354 45.737205 
L 236.121302 45.415257 
L 236.44325 44.449412 
L 236.44325 43.805516 
L 236.44325 43.483568 
L 236.765199 43.483568 
L 237.087147 44.127464 
L 238.052992 45.093309 
L 239.018836 45.737205 
L 239.662733 45.737205 
L 239.662733 45.093309 
L 239.662733 44.127464 
L 239.662733 43.161619 
L 239.662733 42.839671 
L 239.662733 42.517723 
" style="fill:none;stroke:#8c8c8c;stroke-linecap:square;"/>
   </g>
   <g id="line2d_38">
    <path clip-path="url(#p14cb88b36d)" d="M 243.526112 43.161619 
L 243.204164 43.161619 
L 242.882215 43.483568 
L 242.560267 44.127464 
L 242.560267 44.771361 
L 243.204164 45.093309 
L 243.84806 45.093309 
L 244.813905 44.771361 
L 245.135853 44.127464 
L 245.135853 43.483568 
L 244.813905 43.161619 
L 244.170008 42.839671 
L 243.526112 42.517723 
L 242.882215 42.517723 
" style="fill:none;stroke:#8c8c8c;stroke-linecap:square;"/>
   </g>
   <g id="line2d_39">
    <path clip-path="url(#p14cb88b36d)" d="M 261.233265 39.942137 
L 261.233265 39.620189 
L 260.911317 39.620189 
L 260.911317 40.264085 
L 260.911317 41.22993 
L 261.233265 42.839671 
L 261.555214 44.449412 
L 261.555214 45.415257 
L 261.877162 46.059154 
L 261.877162 46.381102 
" style="fill:none;stroke:#8c8c8c;stroke-linecap:square;"/>
   </g>
   <g id="line2d_40">
    <path clip-path="url(#p14cb88b36d)" d="M 258.657679 43.161619 
L 258.979628 43.161619 
L 259.301576 43.161619 
L 259.945472 43.161619 
L 260.911317 43.161619 
L 261.877162 42.839671 
L 262.843007 42.195775 
L 263.164955 42.195775 
" style="fill:none;stroke:#8c8c8c;stroke-linecap:square;"/>
   </g>
   <g id="line2d_41">
    <path clip-path="url(#p14cb88b36d)" d="M 265.096644 39.29824 
L 265.096644 39.620189 
L 265.096644 40.264085 
L 265.096644 41.22993 
L 265.096644 42.517723 
L 265.418593 43.483568 
L 265.740541 44.449412 
L 265.740541 44.771361 
L 265.740541 44.449412 
L 265.740541 44.127464 
L 266.062489 43.805516 
L 266.384437 43.161619 
L 267.028334 42.517723 
L 267.350282 42.517723 
L 267.994179 42.517723 
L 268.316127 42.839671 
L 268.960023 43.805516 
L 269.281972 44.771361 
L 269.60392 45.093309 
L 269.60392 45.415257 
" style="fill:none;stroke:#8c8c8c;stroke-linecap:square;"/>
   </g>
   <g id="line2d_42">
    <path clip-path="url(#p14cb88b36d)" d="M 270.569765 43.483568 
L 270.891713 44.127464 
L 271.213661 44.449412 
L 271.535609 44.771361 
" style="fill:none;stroke:#8c8c8c;stroke-linecap:square;"/>
   </g>
   <g id="line2d_43">
    <path clip-path="url(#p14cb88b36d)" d="M 271.535609 40.264085 
L 271.213661 39.942137 
" style="fill:none;stroke:#8c8c8c;stroke-linecap:square;"/>
   </g>
   <g id="line2d_44">
    <path clip-path="url(#p14cb88b36d)" d="M 273.145351 42.517723 
L 273.145351 43.483568 
L 273.145351 44.449412 
L 273.145351 45.093309 
L 273.467299 45.093309 
L 273.467299 44.771361 
L 273.789247 44.449412 
L 273.789247 43.805516 
L 274.111195 43.161619 
L 274.755092 42.839671 
L 275.07704 42.839671 
L 275.720937 43.161619 
L 275.720937 44.127464 
L 276.042885 44.771361 
L 276.364833 45.093309 
" style="fill:none;stroke:#8c8c8c;stroke-linecap:square;"/>
   </g>
   <g id="line2d_45">
    <path clip-path="url(#p14cb88b36d)" d="M 278.296523 43.161619 
L 278.296523 42.839671 
L 278.296523 42.517723 
L 277.974574 42.517723 
L 277.652626 42.839671 
L 277.330678 43.483568 
L 277.330678 44.127464 
L 277.652626 44.771361 
L 277.974574 45.093309 
L 278.618471 45.093309 
L 278.940419 44.449412 
L 278.940419 43.805516 
L 278.618471 43.161619 
L 278.618471 42.839671 
L 278.618471 43.161619 
L 278.618471 43.483568 
L 279.584316 44.449412 
L 280.55016 45.737205 
L 281.516005 47.668895 
L 281.516005 48.956688 
L 281.516005 49.600584 
L 280.55016 49.922533 
L 279.584316 49.600584 
L 279.262367 49.600584 
" style="fill:none;stroke:#8c8c8c;stroke-linecap:square;"/>
   </g>
   <g id="line2d_46">
    <path clip-path="url(#p14cb88b36d)" d="M 282.803798 42.839671 
L 282.803798 42.517723 
L 283.125746 42.195775 
L 282.803798 42.195775 
L 282.48185 42.517723 
L 282.159902 42.517723 
L 281.837953 42.839671 
L 281.516005 43.161619 
L 281.837953 43.483568 
L 281.837953 43.805516 
L 282.48185 44.449412 
L 282.803798 45.093309 
L 282.803798 46.059154 
L 282.48185 46.381102 
" style="fill:none;stroke:#8c8c8c;stroke-linecap:square;"/>
   </g>
   <g id="line2d_47">
    <path clip-path="url(#p14cb88b36d)" d="M 299.545107 40.264085 
L 299.545107 39.942137 
L 299.545107 40.264085 
L 299.545107 40.586033 
L 299.867055 41.873826 
L 300.189004 43.161619 
L 300.510952 44.771361 
L 300.510952 45.737205 
" style="fill:none;stroke:#8c8c8c;stroke-linecap:square;"/>
   </g>
   <g id="line2d_48">
    <path clip-path="url(#p14cb88b36d)" d="M 298.257314 42.517723 
L 298.257314 42.195775 
L 298.257314 42.517723 
L 298.901211 42.517723 
L 300.510952 42.839671 
L 301.798745 42.839671 
L 302.120693 42.839671 
" style="fill:none;stroke:#8c8c8c;stroke-linecap:square;"/>
   </g>
   <g id="line2d_49">
    <path clip-path="url(#p14cb88b36d)" d="M 304.374331 42.839671 
L 304.052383 43.161619 
L 304.052383 43.483568 
L 304.052383 43.805516 
L 304.374331 44.449412 
L 305.018227 44.771361 
L 305.984072 45.093309 
L 306.30602 44.449412 
L 306.30602 43.483568 
L 305.662124 42.839671 
L 305.018227 42.195775 
L 304.374331 42.195775 
" style="fill:none;stroke:#8c8c8c;stroke-linecap:square;"/>
   </g>
   <g id="line2d_50">
    <path clip-path="url(#p14cb88b36d)" d="M 317.896157 44.771361 
L 317.574209 44.771361 
L 317.574209 44.449412 
L 317.574209 44.127464 
L 317.574209 43.805516 
L 317.252261 42.839671 
L 316.608364 41.22993 
L 316.286416 39.942137 
L 316.286416 38.976292 
L 316.608364 38.332396 
L 316.930312 38.010447 
L 317.252261 37.688499 
L 317.574209 37.688499 
" style="fill:none;stroke:#8c8c8c;stroke-linecap:square;"/>
   </g>
   <g id="line2d_51">
    <path clip-path="url(#p14cb88b36d)" d="M 315.964468 40.907982 
L 315.964468 41.22993 
L 315.642519 41.551878 
L 315.964468 41.551878 
L 317.252261 41.551878 
L 318.540054 41.22993 
L 319.18395 40.907982 
" style="fill:none;stroke:#8c8c8c;stroke-linecap:square;"/>
   </g>
   <g id="line2d_52">
    <path clip-path="url(#p14cb88b36d)" d="M 321.759536 41.551878 
L 321.437588 41.873826 
L 321.437588 42.517723 
L 321.437588 43.161619 
L 321.759536 43.483568 
L 322.403433 43.805516 
L 322.725381 43.483568 
L 323.369277 43.161619 
L 323.691226 42.195775 
L 323.691226 41.551878 
L 323.691226 41.22993 
" style="fill:none;stroke:#8c8c8c;stroke-linecap:square;"/>
   </g>
   <g id="line2d_53">
    <path clip-path="url(#p14cb88b36d)" d="M 324.65707 38.332396 
L 324.979019 38.010447 
L 324.979019 38.332396 
L 324.979019 38.654344 
L 324.979019 38.976292 
L 325.300967 40.264085 
L 325.944863 41.873826 
L 325.944863 42.839671 
L 326.266812 43.483568 
" style="fill:none;stroke:#8c8c8c;stroke-linecap:square;"/>
   </g>
   <g id="line2d_54">
    <path clip-path="url(#p14cb88b36d)" d="M 327.232656 37.366551 
L 327.232656 37.044603 
L 327.232656 37.366551 
L 327.232656 37.688499 
L 327.554605 38.976292 
L 327.876553 40.586033 
L 328.520449 42.195775 
L 328.842398 43.483568 
" style="fill:none;stroke:#8c8c8c;stroke-linecap:square;"/>
   </g>
   <g id="line2d_55">
    <path clip-path="url(#p14cb88b36d)" d="M 331.417984 42.195775 
L 331.417984 41.873826 
L 331.739932 41.873826 
L 332.383828 41.873826 
L 332.705777 41.551878 
L 333.027725 41.22993 
L 333.349673 41.22993 
L 333.349673 41.551878 
L 333.349673 41.873826 
L 333.671621 42.839671 
L 333.99357 44.449412 
L 334.637466 45.737205 
L 334.959414 46.381102 
L 335.281363 46.70305 
" style="fill:none;stroke:#8c8c8c;stroke-linecap:square;"/>
   </g>
   <g id="line2d_56">
    <path clip-path="url(#p14cb88b36d)" d="M 352.34462 41.873826 
L 352.34462 41.551878 
L 352.022672 41.551878 
L 351.700723 41.551878 
L 351.056827 41.551878 
L 350.090982 41.551878 
L 349.447086 42.195775 
L 348.803189 43.161619 
L 349.125137 43.805516 
L 349.769034 44.449412 
L 350.41293 44.449412 
L 351.378775 43.805516 
L 352.022672 42.839671 
L 352.34462 41.551878 
L 352.34462 39.942137 
L 352.34462 38.654344 
L 352.34462 37.688499 
L 352.34462 37.044603 
L 352.34462 37.366551 
L 352.34462 37.688499 
L 352.34462 38.654344 
L 352.666568 40.586033 
L 353.310465 42.195775 
L 353.632413 43.161619 
L 354.276309 43.805516 
" style="fill:none;stroke:#8c8c8c;stroke-linecap:square;"/>
   </g>
   <g id="line2d_57">
    <path clip-path="url(#p14cb88b36d)" d="M 355.564102 42.517723 
L 355.564102 42.195775 
L 355.886051 42.195775 
L 356.207999 42.195775 
L 356.529947 41.873826 
L 357.173844 41.551878 
L 357.81774 40.907982 
L 357.81774 39.942137 
L 357.81774 39.620189 
L 357.173844 39.29824 
L 356.529947 39.942137 
L 355.886051 40.586033 
L 355.886051 41.873826 
L 356.529947 42.517723 
L 357.495792 42.839671 
L 359.105533 42.517723 
L 360.071378 41.873826 
L 360.715274 41.22993 
L 361.037222 40.907982 
L 361.037222 40.586033 
L 360.715274 40.586033 
L 360.071378 40.586033 
L 360.071378 40.907982 
L 360.071378 40.907982 
L 360.393326 41.551878 
L 360.715274 41.873826 
L 361.359171 42.839671 
L 362.003067 43.483568 
L 362.003067 44.127464 
L 362.003067 45.093309 
L 361.681119 45.093309 
L 361.359171 45.093309 
" style="fill:none;stroke:#8c8c8c;stroke-linecap:square;"/>
   </g>
   <g id="line2d_58">
    <path clip-path="url(#p14cb88b36d)" d="M 364.256705 41.873826 
L 364.256705 41.551878 
L 364.578653 41.551878 
L 364.256705 41.22993 
L 363.612808 41.551878 
L 363.29086 41.873826 
L 362.646964 42.839671 
L 363.29086 43.483568 
L 363.612808 44.127464 
L 364.578653 44.127464 
L 365.544498 44.127464 
L 365.866446 43.805516 
" style="fill:none;stroke:#8c8c8c;stroke-linecap:square;"/>
   </g>
   <g id="line2d_59">
    <path clip-path="url(#p14cb88b36d)" d="M 368.442032 41.551878 
L 368.442032 41.873826 
L 368.76398 41.873826 
L 368.76398 42.517723 
L 369.085929 43.483568 
L 369.407877 44.127464 
L 369.407877 44.449412 
L 369.407877 44.127464 
L 369.407877 43.805516 
L 369.407877 43.161619 
L 369.407877 42.195775 
L 369.729825 41.22993 
L 370.051773 40.586033 
" style="fill:none;stroke:#8c8c8c;stroke-linecap:square;"/>
   </g>
   <g id="line2d_60">
    <path clip-path="url(#p14cb88b36d)" d="M 373.915152 41.873826 
L 373.915152 42.195775 
L 373.915152 42.517723 
L 373.593204 43.161619 
L 373.915152 43.483568 
L 373.915152 43.805516 
L 374.237101 43.805516 
" style="fill:none;stroke:#8c8c8c;stroke-linecap:square;"/>
   </g>
   <g id="line2d_61">
    <path clip-path="url(#p14cb88b36d)" d="M 375.202945 38.976292 
L 375.202945 37.688499 
L 375.524894 36.722654 
L 375.524894 36.400706 
L 375.524894 36.078758 
" style="fill:none;stroke:#8c8c8c;stroke-linecap:square;"/>
   </g>
   <g id="line2d_62">
    <path clip-path="url(#p14cb88b36d)" d="M 376.16879 36.078758 
L 376.490738 36.078758 
L 376.812687 36.400706 
L 377.134635 37.366551 
L 377.778531 38.332396 
L 378.10048 39.620189 
L 378.422428 41.22993 
L 378.744376 42.195775 
L 378.744376 42.839671 
L 379.066324 42.839671 
L 379.388273 42.195775 
L 380.032169 41.873826 
L 380.676066 41.551878 
L 380.998014 41.551878 
L 381.319962 41.873826 
L 381.319962 42.517723 
L 381.319962 43.161619 
L 380.998014 43.483568 
L 380.354117 43.483568 
" style="fill:none;stroke:#8c8c8c;stroke-linecap:square;"/>
   </g>
   <g id="line2d_63">
    <path clip-path="url(#p14cb88b36d)" d="M 384.217496 40.264085 
L 384.217496 40.586033 
L 384.217496 40.907982 
L 384.861393 41.22993 
L 385.505289 41.22993 
L 386.149186 40.907982 
L 386.793082 40.264085 
L 386.793082 39.942137 
L 386.149186 39.620189 
L 385.505289 39.620189 
L 384.861393 39.942137 
L 384.861393 40.907982 
L 384.861393 41.873826 
L 385.505289 42.839671 
L 385.505289 43.161619 
" style="fill:none;stroke:#8c8c8c;stroke-linecap:square;"/>
   </g>
   <g id="line2d_64">
    <path clip-path="url(#p14cb88b36d)" d="M 400.636857 36.722654 
L 400.314909 36.722654 
L 400.314909 37.044603 
L 400.636857 38.332396 
L 400.636857 39.620189 
L 400.636857 41.22993 
L 400.636857 41.873826 
L 400.636857 42.517723 
" style="fill:none;stroke:#8c8c8c;stroke-linecap:square;"/>
   </g>
   <g id="line2d_65">
    <path clip-path="url(#p14cb88b36d)" d="M 399.349064 40.264085 
L 399.349064 39.942137 
L 399.671012 39.620189 
L 400.314909 39.620189 
L 400.958805 39.29824 
L 401.602702 39.29824 
L 402.246598 39.29824 
" style="fill:none;stroke:#8c8c8c;stroke-linecap:square;"/>
   </g>
   <g id="line2d_66">
    <path clip-path="url(#p14cb88b36d)" d="M 404.178288 36.722654 
L 404.178288 36.400706 
L 404.178288 36.722654 
L 404.500236 38.010447 
L 404.500236 38.976292 
L 404.822184 39.942137 
L 404.822184 40.264085 
L 405.144133 40.264085 
L 405.144133 39.942137 
L 405.466081 39.620189 
L 406.431926 38.654344 
L 407.075822 38.654344 
L 407.39777 38.654344 
L 408.041667 39.29824 
L 408.685563 40.264085 
L 409.007512 40.586033 
" style="fill:none;stroke:#8c8c8c;stroke-linecap:square;"/>
   </g>
   <g id="line2d_67">
    <path clip-path="url(#p14cb88b36d)" d="M 411.583098 40.264085 
L 411.905046 39.942137 
L 412.226994 39.620189 
L 412.87089 38.654344 
L 413.192839 37.688499 
L 413.192839 37.044603 
L 412.548942 36.722654 
L 411.905046 37.044603 
L 410.939201 38.010447 
L 410.617253 39.29824 
L 410.939201 39.942137 
L 411.905046 40.586033 
L 412.226994 40.586033 
" style="fill:none;stroke:#8c8c8c;stroke-linecap:square;"/>
   </g>
   <g id="line2d_68">
    <path clip-path="url(#p14cb88b36d)" d="M 430.899992 37.688499 
L 430.899992 37.366551 
L 430.578044 37.366551 
L 430.256096 37.366551 
L 429.934148 37.366551 
L 429.934148 37.688499 
L 429.612199 37.688499 
L 429.290251 38.010447 
L 428.646355 38.332396 
L 428.324406 38.332396 
L 428.324406 38.654344 
L 428.324406 38.976292 
L 428.646355 39.29824 
L 429.290251 39.620189 
L 429.612199 39.942137 
L 429.934148 40.586033 
L 430.256096 40.907982 
L 430.256096 41.22993 
L 430.256096 41.551878 
L 429.934148 41.873826 
" style="fill:none;stroke:#8c8c8c;stroke-linecap:square;"/>
   </g>
   <g id="line2d_69">
    <path clip-path="url(#p14cb88b36d)" d="M 431.865837 39.29824 
L 432.187785 39.29824 
L 432.831682 39.620189 
L 433.475578 39.942137 
L 434.119475 39.942137 
L 434.763371 39.620189 
L 435.407268 39.29824 
L 435.407268 38.654344 
L 435.407268 38.976292 
L 435.729216 40.264085 
L 436.051164 42.195775 
L 436.373113 43.483568 
L 437.017009 44.449412 
L 437.338957 44.449412 
" style="fill:none;stroke:#8c8c8c;stroke-linecap:square;"/>
   </g>
   <g id="line2d_70">
    <path clip-path="url(#p14cb88b36d)" d="M 439.914543 38.010447 
L 439.914543 37.688499 
L 439.592595 37.688499 
L 439.270647 37.688499 
L 438.62675 37.688499 
L 437.982854 38.332396 
L 437.660906 38.654344 
L 437.338957 38.976292 
L 437.660906 39.29824 
L 438.304802 39.620189 
L 438.948699 39.942137 
L 439.592595 40.586033 
L 439.914543 41.22993 
L 439.914543 42.195775 
L 439.914543 42.839671 
L 439.592595 43.161619 
" style="fill:none;stroke:#8c8c8c;stroke-linecap:square;"/>
   </g>
   <g id="line2d_71">
    <path clip-path="url(#p14cb88b36d)" d="M 442.490129 38.332396 
L 442.490129 38.654344 
L 442.490129 39.620189 
L 442.812078 40.586033 
L 442.812078 41.551878 
L 442.812078 41.873826 
" style="fill:none;stroke:#8c8c8c;stroke-linecap:square;"/>
   </g>
   <g id="line2d_72">
    <path clip-path="url(#p14cb88b36d)" d="M 442.168181 40.264085 
L 441.846233 40.264085 
L 442.168181 40.264085 
L 442.168181 39.942137 
L 442.812078 39.942137 
L 443.777922 39.942137 
L 444.421819 39.942137 
" style="fill:none;stroke:#8c8c8c;stroke-linecap:square;"/>
   </g>
   <g id="line2d_73">
    <path clip-path="url(#p14cb88b36d)" d="M 446.675457 39.29824 
L 446.675457 39.620189 
L 446.997405 39.620189 
L 447.641301 39.620189 
L 447.96325 39.29824 
L 447.96325 38.976292 
L 447.96325 38.654344 
L 447.641301 38.332396 
L 447.319353 38.654344 
L 446.675457 38.976292 
L 446.675457 39.942137 
L 447.319353 41.22993 
L 448.285198 41.873826 
L 449.251043 42.195775 
L 449.572991 42.195775 
" style="fill:none;stroke:#8c8c8c;stroke-linecap:square;"/>
   </g>
   <g id="line2d_74">
    <path clip-path="url(#p14cb88b36d)" d="M 452.470525 39.29824 
L 452.470525 39.620189 
L 452.470525 39.942137 
L 452.792473 40.907982 
L 452.792473 41.551878 
L 453.114422 41.22993 
L 453.114422 40.586033 
L 453.43637 39.942137 
L 453.43637 39.620189 
L 453.758318 39.620189 
L 454.080266 39.620189 
L 454.402215 39.942137 
L 454.724163 39.942137 
L 455.046111 39.620189 
L 455.368059 38.976292 
L 455.690008 38.332396 
L 456.011956 37.688499 
L 456.333904 37.688499 
L 456.655852 37.366551 
L 456.655852 37.688499 
L 457.299749 38.010447 
L 457.621697 38.654344 
L 457.943645 38.976292 
L 457.943645 39.29824 
" style="fill:none;stroke:#8c8c8c;stroke-linecap:square;"/>
   </g>
   <g id="line2d_75">
    <path clip-path="url(#p14cb88b36d)" d="M 378.744376 42.517723 
L 378.744376 42.839671 
L 378.744376 43.161619 
L 379.066324 43.161619 
L 379.066324 43.483568 
L 379.388273 43.483568 
L 379.710221 43.483568 
L 380.032169 43.483568 
" style="fill:none;stroke:#8c8c8c;stroke-linecap:square;"/>
   </g>
   <g id="line2d_76">
    <path clip-path="url(#p14cb88b36d)" d="M 52.932749 64.732152 
L 52.932749 64.410204 
L 52.932749 64.732152 
L 52.932749 65.0541 
L 53.254697 65.0541 
L 53.254697 65.697997 
L 53.576645 66.663841 
L 54.220542 67.629686 
L 54.54249 68.273583 
L 55.186386 68.595531 
L 55.508335 68.595531 
L 56.152231 68.273583 
L 56.474179 66.98579 
L 56.796128 66.019945 
L 56.796128 65.0541 
L 56.474179 64.088256 
L 56.474179 63.444359 
" style="fill:none;stroke:#8c8c8c;stroke-linecap:square;"/>
   </g>
   <g id="line2d_77">
    <path clip-path="url(#p14cb88b36d)" d="M 59.049765 64.732152 
L 59.049765 65.0541 
L 59.049765 65.376048 
L 59.049765 65.697997 
L 59.371714 66.663841 
L 59.371714 67.307738 
L 59.693662 67.629686 
L 59.693662 67.951634 
L 59.693662 67.629686 
L 59.693662 66.663841 
L 60.01561 65.697997 
L 60.337558 65.0541 
L 60.337558 64.732152 
L 60.659507 64.732152 
L 60.981455 65.0541 
L 61.625351 65.697997 
L 61.9473 66.663841 
L 62.269248 67.629686 
L 62.591196 68.273583 
L 62.591196 68.595531 
" style="fill:none;stroke:#8c8c8c;stroke-linecap:square;"/>
   </g>
   <g id="line2d_78">
    <path clip-path="url(#p14cb88b36d)" d="M 63.557041 60.224877 
L 63.557041 59.902928 
L 63.557041 60.224877 
L 63.557041 60.546825 
L 64.200937 61.51267 
L 64.200937 63.122411 
L 64.522886 65.0541 
L 64.844834 66.341893 
L 65.166782 67.307738 
" style="fill:none;stroke:#8c8c8c;stroke-linecap:square;"/>
   </g>
   <g id="line2d_79">
    <path clip-path="url(#p14cb88b36d)" d="M 67.742368 63.122411 
L 67.742368 63.444359 
L 67.42042 63.444359 
L 66.776523 64.088256 
L 66.454575 64.410204 
L 65.810679 64.732152 
L 65.48873 65.0541 
L 65.166782 65.0541 
L 65.48873 65.0541 
L 66.132627 65.376048 
L 66.776523 65.697997 
L 67.742368 66.663841 
L 68.708213 67.629686 
L 69.030161 68.273583 
" style="fill:none;stroke:#8c8c8c;stroke-linecap:square;"/>
   </g>
   <g id="line2d_80">
    <path clip-path="url(#p14cb88b36d)" d="M 69.674058 66.341893 
L 69.674058 66.019945 
L 69.996006 66.019945 
L 70.317954 66.341893 
L 70.317954 66.663841 
L 70.317954 66.98579 
L 70.639902 67.307738 
L 70.639902 67.629686 
L 70.961851 67.629686 
L 70.961851 67.307738 
L 70.961851 66.663841 
L 71.283799 66.019945 
L 71.927695 65.376048 
L 72.249644 65.0541 
L 72.571592 64.732152 
L 73.215488 65.376048 
L 73.537437 66.019945 
L 74.181333 66.663841 
L 74.181333 66.98579 
" style="fill:none;stroke:#8c8c8c;stroke-linecap:square;"/>
   </g>
   <g id="line2d_81">
    <path clip-path="url(#p14cb88b36d)" d="M 75.147178 66.019945 
L 75.147178 65.697997 
L 75.147178 65.376048 
L 75.147178 65.697997 
L 75.147178 66.019945 
L 75.147178 66.341893 
L 75.469126 66.341893 
L 75.791074 66.663841 
L 76.434971 66.663841 
L 76.756919 66.341893 
L 76.756919 66.019945 
L 76.434971 65.0541 
L 75.791074 64.410204 
L 75.469126 64.410204 
L 74.82523 64.732152 
" style="fill:none;stroke:#8c8c8c;stroke-linecap:square;"/>
   </g>
   <g id="line2d_82">
    <path clip-path="url(#p14cb88b36d)" d="M 76.434971 64.732152 
L 76.756919 64.732152 
L 77.078867 65.0541 
L 77.400816 65.697997 
L 77.722764 66.019945 
L 78.044712 66.663841 
L 78.36666 66.663841 
L 78.688609 66.663841 
L 79.010557 66.341893 
L 79.332505 66.019945 
L 79.654453 65.697997 
L 79.976402 65.697997 
L 80.29835 66.019945 
L 80.942246 66.341893 
L 81.264195 66.341893 
L 81.264195 66.019945 
L 81.908091 65.697997 
L 81.908091 64.732152 
L 81.908091 63.766307 
L 81.908091 63.122411 
L 81.908091 62.800463 
" style="fill:none;stroke:#8c8c8c;stroke-linecap:square;"/>
   </g>
   <g id="line2d_83">
    <path clip-path="url(#p14cb88b36d)" d="M 83.517832 62.800463 
L 83.517832 63.122411 
L 83.517832 63.444359 
L 83.839781 63.766307 
L 84.161729 64.732152 
L 84.483677 65.376048 
L 84.483677 65.697997 
L 84.483677 66.019945 
L 84.483677 65.697997 
L 84.483677 65.376048 
L 84.805625 64.732152 
L 85.127574 64.088256 
L 85.449522 64.088256 
L 85.77147 63.766307 
L 86.415367 64.088256 
L 86.737315 64.410204 
L 87.059263 65.376048 
L 87.381211 66.019945 
" style="fill:none;stroke:#8c8c8c;stroke-linecap:square;"/>
   </g>
   <g id="line2d_84">
    <path clip-path="url(#p14cb88b36d)" d="M 89.634849 63.444359 
L 89.634849 63.122411 
L 89.634849 62.800463 
L 89.312901 62.800463 
L 88.990953 63.122411 
L 88.347056 63.444359 
L 88.025108 63.766307 
L 88.025108 64.088256 
L 88.669004 64.410204 
L 89.634849 65.0541 
L 90.278746 65.697997 
L 90.922642 66.341893 
L 91.24459 66.98579 
L 90.922642 67.307738 
" style="fill:none;stroke:#8c8c8c;stroke-linecap:square;"/>
   </g>
   <g id="line2d_85">
    <path clip-path="url(#p14cb88b36d)" d="M 95.751866 62.478514 
L 95.429917 62.478514 
L 95.429917 62.156566 
" style="fill:none;stroke:#8c8c8c;stroke-linecap:square;"/>
   </g>
   <g id="line2d_86">
    <path clip-path="url(#p14cb88b36d)" d="M 95.429917 65.697997 
L 95.429917 66.019945 
" style="fill:none;stroke:#8c8c8c;stroke-linecap:square;"/>
   </g>
   <g id="line2d_87">
    <path clip-path="url(#p14cb88b36d)" d="M 108.951744 61.51267 
L 109.273692 61.51267 
L 109.273692 61.190721 
L 109.273692 60.868773 
L 109.273692 61.190721 
L 109.59564 61.834618 
L 109.59564 62.800463 
L 109.59564 64.410204 
L 109.917589 66.341893 
L 110.239537 67.629686 
L 110.239537 68.595531 
L 110.239537 69.239427 
L 110.239537 69.561376 
L 110.239537 69.239427 
" style="fill:none;stroke:#8c8c8c;stroke-linecap:square;"/>
   </g>
   <g id="line2d_88">
    <path clip-path="url(#p14cb88b36d)" d="M 112.171226 61.190721 
L 112.493175 60.868773 
L 112.493175 60.546825 
L 112.815123 60.546825 
L 112.815123 60.868773 
L 112.815123 61.190721 
L 112.815123 62.478514 
L 113.137071 64.410204 
L 113.459019 66.019945 
L 114.102916 67.951634 
L 114.424864 69.239427 
L 114.746812 69.883324 
" style="fill:none;stroke:#8c8c8c;stroke-linecap:square;"/>
   </g>
   <g id="line2d_89">
    <path clip-path="url(#p14cb88b36d)" d="M 110.883433 65.697997 
L 110.883433 65.376048 
L 110.561485 65.376048 
L 110.883433 65.376048 
L 111.849278 65.376048 
L 113.137071 65.0541 
L 113.459019 65.0541 
" style="fill:none;stroke:#8c8c8c;stroke-linecap:square;"/>
   </g>
   <g id="line2d_90">
    <path clip-path="url(#p14cb88b36d)" d="M 116.034605 58.615135 
L 116.034605 58.937084 
L 116.034605 59.259032 
L 116.034605 60.224877 
L 116.034605 61.190721 
L 116.356554 62.156566 
L 116.356554 62.478514 
L 116.356554 62.800463 
" style="fill:none;stroke:#8c8c8c;stroke-linecap:square;"/>
   </g>
   <g id="line2d_91">
    <path clip-path="url(#p14cb88b36d)" d="M 114.746812 61.190721 
L 115.390709 60.868773 
L 116.356554 60.868773 
L 117.322398 60.546825 
L 117.966295 60.224877 
" style="fill:none;stroke:#8c8c8c;stroke-linecap:square;"/>
   </g>
   <g id="line2d_92">
    <path clip-path="url(#p14cb88b36d)" d="M 119.254088 57.649291 
L 118.93214 57.649291 
L 118.610191 57.649291 
L 118.93214 57.327342 
L 119.576036 57.327342 
L 120.219933 57.327342 
L 120.541881 57.327342 
L 120.863829 57.649291 
L 121.185777 57.649291 
L 121.507726 57.971239 
L 121.507726 58.293187 
L 121.507726 58.615135 
L 121.507726 59.259032 
L 121.829674 60.546825 
L 121.829674 61.834618 
L 122.151622 63.444359 
L 122.47357 64.732152 
L 123.117467 66.341893 
L 123.439415 67.629686 
L 124.083312 68.595531 
L 124.083312 68.917479 
L 124.40526 69.239427 
L 124.083312 69.239427 
L 124.083312 69.561376 
L 123.761363 69.561376 
L 123.117467 69.561376 
L 122.151622 69.883324 
L 121.185777 69.883324 
L 120.219933 69.883324 
" style="fill:none;stroke:#8c8c8c;stroke-linecap:square;"/>
   </g>
   <g id="line2d_93">
    <path clip-path="url(#p14cb88b36d)" d="M 106.05421 58.615135 
L 106.05421 58.937084 
L 105.732261 58.937084 
L 105.410313 59.259032 
L 105.088365 59.259032 
L 104.444468 59.902928 
L 104.12252 60.224877 
L 103.800572 60.546825 
L 103.478624 60.868773 
L 103.156675 60.868773 
L 103.156675 61.190721 
L 103.156675 61.51267 
L 103.156675 61.834618 
L 103.478624 62.800463 
L 103.478624 63.766307 
L 103.478624 65.0541 
L 103.800572 66.341893 
L 103.800572 67.307738 
L 103.800572 68.595531 
L 103.478624 69.561376 
L 103.800572 70.849169 
L 104.12252 71.171117 
L 104.444468 71.815013 
L 105.410313 72.45891 
L 107.020054 72.45891 
L 108.307847 72.45891 
L 109.273692 72.136962 
" style="fill:none;stroke:#8c8c8c;stroke-linecap:square;"/>
   </g>
   <g id="line2d_94">
    <path clip-path="url(#p14cb88b36d)" d="M 127.946691 56.361498 
L 127.946691 56.683446 
L 127.624742 56.683446 
L 126.658898 57.005394 
L 126.015001 57.327342 
L 125.693053 57.649291 
L 125.371105 57.649291 
L 125.049156 57.649291 
L 125.049156 57.971239 
L 125.049156 58.293187 
L 125.049156 58.615135 
L 125.371105 58.937084 
L 125.371105 59.259032 
L 125.693053 60.224877 
L 125.693053 61.190721 
L 125.693053 62.800463 
L 125.693053 64.088256 
L 125.693053 65.0541 
L 126.015001 66.341893 
L 126.015001 67.307738 
L 126.336949 67.951634 
L 126.336949 68.273583 
L 126.336949 68.917479 
L 126.658898 69.239427 
L 127.302794 69.561376 
L 128.590587 69.883324 
L 129.87838 69.883324 
L 130.844225 69.883324 
" style="fill:none;stroke:#8c8c8c;stroke-linecap:square;"/>
   </g>
   <g id="line2d_95">
    <path clip-path="url(#p14cb88b36d)" d="M 133.741759 59.259032 
L 133.419811 59.259032 
L 133.419811 58.937084 
L 132.775914 59.259032 
L 132.132018 59.902928 
L 131.488121 61.190721 
L 130.844225 64.088256 
L 131.166173 65.697997 
L 132.132018 67.307738 
L 133.741759 67.629686 
L 135.3515 66.98579 
L 135.3515 66.663841 
" style="fill:none;stroke:#8c8c8c;stroke-linecap:square;"/>
   </g>
   <g id="line2d_96">
    <path clip-path="url(#p14cb88b36d)" d="M 138.249035 62.800463 
L 137.927086 62.800463 
L 137.927086 62.800463 
L 137.28319 63.122411 
L 136.639293 64.088256 
L 136.639293 65.376048 
L 137.28319 66.341893 
L 138.249035 66.663841 
L 139.214879 66.663841 
L 140.180724 65.697997 
L 140.180724 64.410204 
L 139.858776 63.444359 
L 139.214879 62.156566 
L 138.249035 61.834618 
L 137.28319 62.156566 
L 136.639293 62.800463 
L 136.639293 63.122411 
" style="fill:none;stroke:#8c8c8c;stroke-linecap:square;"/>
   </g>
   <g id="line2d_97">
    <path clip-path="url(#p14cb88b36d)" d="M 143.722155 65.376048 
L 143.400207 65.376048 
L 143.078258 65.0541 
L 143.722155 64.732152 
L 144.366051 65.0541 
L 144.688 65.376048 
L 145.009948 66.019945 
L 144.688 66.663841 
L 144.366051 66.98579 
L 144.044103 67.307738 
L 144.044103 67.629686 
L 144.366051 67.629686 
L 145.331896 68.273583 
L 146.941637 69.561376 
L 147.907482 70.849169 
L 148.551378 72.45891 
L 147.907482 72.780858 
L 146.297741 72.45891 
L 143.722155 70.849169 
L 142.112414 68.917479 
" style="fill:none;stroke:#8c8c8c;stroke-linecap:square;"/>
   </g>
   <g id="line2d_98">
    <path clip-path="url(#p14cb88b36d)" d="M 145.331896 60.224877 
L 145.331896 59.902928 
L 145.331896 59.58098 
L 145.653844 59.58098 
L 145.975793 59.58098 
L 146.619689 59.58098 
L 147.585534 59.58098 
L 147.907482 59.902928 
L 147.585534 60.546825 
L 147.263586 61.190721 
L 146.619689 61.51267 
L 146.297741 62.156566 
L 146.297741 62.478514 
L 146.619689 62.478514 
L 146.941637 62.478514 
L 148.22943 62.156566 
L 149.195275 61.51267 
" style="fill:none;stroke:#8c8c8c;stroke-linecap:square;"/>
   </g>
   <g id="line2d_99">
    <path clip-path="url(#p14cb88b36d)" d="M 150.805016 57.649291 
L 150.805016 57.327342 
L 150.483068 57.327342 
L 150.805016 57.327342 
L 151.126964 57.327342 
L 151.126964 57.005394 
L 151.448913 57.005394 
L 151.770861 57.005394 
L 152.092809 57.005394 
L 152.414757 57.005394 
L 152.736706 57.005394 
" style="fill:none;stroke:#8c8c8c;stroke-linecap:square;"/>
   </g>
   <g id="line2d_100">
    <path clip-path="url(#p14cb88b36d)" d="M 154.990343 55.073705 
L 154.668395 55.073705 
L 154.346447 55.073705 
L 154.668395 55.073705 
L 155.312292 55.073705 
L 155.956188 55.073705 
L 156.278136 55.073705 
L 156.600085 55.073705 
L 156.922033 55.073705 
L 156.922033 55.395653 
L 156.922033 55.717601 
L 157.243981 56.039549 
L 157.243981 56.683446 
L 157.243981 57.971239 
L 157.565929 59.902928 
L 157.887878 61.834618 
L 158.209826 63.444359 
L 158.531774 65.0541 
L 158.531774 66.019945 
L 158.531774 66.341893 
L 158.531774 66.663841 
L 158.531774 66.98579 
L 158.209826 67.307738 
L 157.565929 67.951634 
L 156.600085 68.273583 
L 156.278136 68.273583 
L 155.956188 68.273583 
" style="fill:none;stroke:#8c8c8c;stroke-linecap:square;"/>
   </g>
   <g id="line2d_101">
    <path clip-path="url(#p14cb88b36d)" d="M 163.682946 54.751756 
L 164.004894 54.751756 
L 164.004894 55.073705 
L 163.360998 55.073705 
L 162.717101 55.395653 
L 162.073205 55.395653 
L 161.429308 55.395653 
L 161.10736 55.395653 
L 160.785412 55.395653 
L 160.785412 55.717601 
L 160.785412 56.039549 
L 160.785412 56.361498 
L 160.785412 56.683446 
L 161.10736 57.649291 
L 161.429308 58.937084 
L 161.751257 60.868773 
L 161.751257 62.156566 
L 162.073205 63.444359 
L 162.073205 64.732152 
L 162.073205 66.019945 
L 162.073205 66.663841 
L 162.395153 67.307738 
L 162.717101 67.951634 
L 163.360998 68.273583 
L 164.648791 68.273583 
L 165.614636 68.273583 
L 166.58048 68.273583 
" style="fill:none;stroke:#8c8c8c;stroke-linecap:square;"/>
   </g>
   <g id="line2d_102">
    <path clip-path="url(#p14cb88b36d)" d="M 170.443859 57.649291 
L 170.443859 57.327342 
L 170.443859 57.649291 
L 170.443859 57.971239 
L 170.443859 58.293187 
L 170.443859 60.224877 
L 170.765808 62.156566 
L 171.087756 64.410204 
L 171.409704 66.019945 
L 171.731652 66.663841 
" style="fill:none;stroke:#8c8c8c;stroke-linecap:square;"/>
   </g>
   <g id="line2d_103">
    <path clip-path="url(#p14cb88b36d)" d="M 173.98529 57.005394 
L 173.98529 57.971239 
L 174.307238 59.58098 
L 174.307238 61.190721 
L 175.273083 64.088256 
L 175.595031 65.376048 
L 175.91698 66.019945 
" style="fill:none;stroke:#8c8c8c;stroke-linecap:square;"/>
   </g>
   <g id="line2d_104">
    <path clip-path="url(#p14cb88b36d)" d="M 171.731652 63.122411 
L 171.409704 63.122411 
L 171.731652 63.122411 
L 172.697497 63.122411 
L 173.98529 63.122411 
L 175.273083 63.122411 
L 176.238928 63.122411 
" style="fill:none;stroke:#8c8c8c;stroke-linecap:square;"/>
   </g>
   <g id="line2d_105">
    <path clip-path="url(#p14cb88b36d)" d="M 181.712048 58.615135 
L 181.3901 58.293187 
L 180.746203 58.293187 
L 180.102307 58.937084 
L 179.45841 59.902928 
L 178.814514 61.51267 
L 179.45841 63.444359 
L 180.102307 65.0541 
L 181.068152 65.697997 
L 181.712048 66.019945 
L 182.033996 65.697997 
" style="fill:none;stroke:#8c8c8c;stroke-linecap:square;"/>
   </g>
   <g id="line2d_106">
    <path clip-path="url(#p14cb88b36d)" d="M 184.609582 61.190721 
L 184.609582 60.868773 
L 184.287634 60.546825 
L 183.965686 60.546825 
L 182.999841 60.868773 
L 182.677893 61.51267 
L 182.677893 63.122411 
L 183.321789 64.410204 
L 183.965686 65.0541 
L 184.931531 65.0541 
L 185.897375 64.410204 
L 186.541272 63.122411 
L 186.541272 61.51267 
L 185.897375 60.224877 
L 185.253479 59.902928 
L 184.287634 60.546825 
L 183.643738 61.190721 
" style="fill:none;stroke:#8c8c8c;stroke-linecap:square;"/>
   </g>
   <g id="line2d_107">
    <path clip-path="url(#p14cb88b36d)" d="M 188.79491 63.122411 
L 188.472961 63.122411 
L 188.79491 63.122411 
L 189.116858 63.122411 
L 189.438806 63.122411 
L 189.760754 63.444359 
L 190.404651 63.444359 
L 190.404651 63.766307 
L 190.404651 64.088256 
L 190.082703 64.410204 
L 189.760754 64.732152 
L 189.438806 64.732152 
L 189.760754 65.0541 
L 190.082703 65.0541 
L 190.726599 65.697997 
L 191.370496 66.019945 
L 192.014392 66.98579 
L 192.014392 67.629686 
L 191.370496 68.273583 
L 190.404651 68.595531 
L 189.116858 68.595531 
" style="fill:none;stroke:#8c8c8c;stroke-linecap:square;"/>
   </g>
   <g id="line2d_108">
    <path clip-path="url(#p14cb88b36d)" d="M 192.658289 59.259032 
L 192.33634 59.259032 
L 192.980237 59.259032 
L 193.302185 58.937084 
" style="fill:none;stroke:#8c8c8c;stroke-linecap:square;"/>
   </g>
   <g id="line2d_109">
    <path clip-path="url(#p14cb88b36d)" d="M 194.589978 55.395653 
L 194.589978 55.073705 
L 194.911926 55.073705 
L 194.911926 54.751756 
L 195.233875 54.751756 
L 195.555823 54.429808 
L 196.199719 54.429808 
L 196.521668 54.429808 
L 196.521668 54.751756 
L 196.843616 54.751756 
L 196.843616 55.073705 
L 197.165564 55.717601 
L 197.487512 56.361498 
L 197.809461 57.649291 
L 198.131409 59.58098 
L 198.775305 61.51267 
L 199.097254 63.122411 
L 199.419202 64.410204 
L 199.74115 65.376048 
L 199.74115 65.697997 
L 199.74115 66.019945 
L 199.419202 66.341893 
L 198.775305 66.663841 
L 197.809461 67.629686 
L 196.521668 67.951634 
" style="fill:none;stroke:#8c8c8c;stroke-linecap:square;"/>
   </g>
   <g id="line2d_110">
    <path clip-path="url(#p14cb88b36d)" d="M 205.536218 53.142015 
L 205.536218 52.820067 
L 205.21427 52.820067 
L 205.21427 53.142015 
L 204.892322 53.142015 
L 204.570374 53.142015 
L 204.248425 53.463963 
L 203.926477 53.463963 
L 203.604529 53.463963 
L 203.282581 53.785912 
L 202.960632 53.785912 
L 202.960632 54.10786 
L 202.960632 54.429808 
L 202.960632 54.751756 
L 202.960632 55.073705 
L 203.282581 56.039549 
L 203.282581 57.649291 
L 203.604529 59.259032 
L 203.604529 61.51267 
L 203.926477 62.800463 
L 203.926477 64.088256 
L 204.248425 65.376048 
L 204.570374 66.341893 
L 204.892322 66.98579 
L 204.892322 67.629686 
L 205.21427 67.951634 
L 205.536218 67.951634 
L 205.858167 67.951634 
L 206.502063 67.951634 
L 208.111804 67.951634 
L 209.399597 67.307738 
" style="fill:none;stroke:#8c8c8c;stroke-linecap:square;"/>
   </g>
   <g id="line2d_111">
    <path clip-path="url(#p14cb88b36d)" d="M 213.584925 55.395653 
L 213.262976 55.395653 
L 212.941028 55.717601 
L 211.975183 56.361498 
L 211.009339 57.649291 
L 210.68739 59.58098 
L 211.009339 61.834618 
L 211.653235 63.122411 
L 212.941028 64.088256 
L 213.906873 64.088256 
L 214.550769 63.766307 
" style="fill:none;stroke:#8c8c8c;stroke-linecap:square;"/>
   </g>
   <g id="line2d_112">
    <path clip-path="url(#p14cb88b36d)" d="M 218.0922 58.937084 
L 217.770252 58.937084 
L 217.448304 58.937084 
L 217.126355 59.58098 
L 216.482459 60.546825 
L 216.482459 61.51267 
L 216.804407 62.800463 
L 217.448304 63.122411 
L 218.736097 63.122411 
L 219.701941 62.478514 
L 220.345838 60.868773 
L 220.02389 59.259032 
L 219.701941 58.293187 
L 218.736097 57.649291 
L 218.0922 57.649291 
L 217.448304 58.293187 
" style="fill:none;stroke:#8c8c8c;stroke-linecap:square;"/>
   </g>
   <g id="line2d_113">
    <path clip-path="url(#p14cb88b36d)" d="M 223.887269 61.51267 
L 223.56532 61.834618 
L 223.887269 62.156566 
L 224.209217 62.156566 
L 224.531165 62.478514 
L 224.853113 62.478514 
L 224.853113 62.800463 
L 224.209217 63.444359 
L 223.887269 64.410204 
L 223.56532 65.0541 
L 224.209217 66.019945 
L 225.175062 66.341893 
L 226.140906 66.341893 
L 226.462855 66.341893 
" style="fill:none;stroke:#8c8c8c;stroke-linecap:square;"/>
   </g>
   <g id="line2d_114">
    <path clip-path="url(#p14cb88b36d)" d="M 229.682337 57.649291 
L 229.360389 57.649291 
L 229.038441 57.649291 
L 229.038441 57.971239 
L 228.716492 58.293187 
L 228.394544 59.259032 
L 228.394544 60.224877 
L 228.716492 61.190721 
L 229.038441 61.51267 
L 229.360389 61.51267 
L 229.682337 61.51267 
" style="fill:none;stroke:#8c8c8c;stroke-linecap:square;"/>
   </g>
   <g id="line2d_115">
    <path clip-path="url(#p14cb88b36d)" d="M 232.579871 60.224877 
L 232.90182 60.224877 
L 232.90182 59.902928 
L 232.90182 59.58098 
L 232.579871 59.58098 
L 232.257923 59.58098 
L 232.257923 59.902928 
L 231.935975 59.902928 
L 232.257923 59.58098 
L 232.579871 59.259032 
L 232.90182 58.937084 
L 232.90182 59.259032 
L 233.223768 59.902928 
L 233.223768 60.546825 
L 233.223768 60.868773 
L 233.545716 60.868773 
" style="fill:none;stroke:#8c8c8c;stroke-linecap:square;"/>
   </g>
   <g id="line2d_116">
    <path clip-path="url(#p14cb88b36d)" d="M 235.155457 56.683446 
L 235.155457 57.005394 
L 235.799354 57.005394 
L 236.121302 57.649291 
L 236.765199 58.615135 
L 237.087147 59.259032 
L 237.087147 59.58098 
" style="fill:none;stroke:#8c8c8c;stroke-linecap:square;"/>
   </g>
   <g id="line2d_117">
    <path clip-path="url(#p14cb88b36d)" d="M 235.799354 51.854222 
L 236.121302 51.854222 
L 236.44325 51.854222 
L 236.765199 51.854222 
L 238.052992 51.854222 
L 239.340785 51.854222 
L 239.984681 51.854222 
L 240.306629 51.854222 
L 240.628578 51.854222 
L 240.950526 51.854222 
L 241.272474 51.854222 
L 241.272474 52.17617 
L 241.594422 52.17617 
L 241.594422 52.498119 
L 241.594422 52.820067 
L 241.594422 53.463963 
L 241.916371 54.10786 
L 242.238319 55.395653 
L 242.560267 56.361498 
L 242.882215 58.293187 
L 243.204164 59.902928 
L 243.526112 61.190721 
L 243.84806 62.156566 
L 243.84806 62.478514 
L 243.84806 62.800463 
L 244.170008 63.122411 
L 244.170008 63.444359 
L 244.170008 63.766307 
L 244.170008 64.088256 
L 243.526112 64.732152 
L 242.882215 65.0541 
L 241.916371 65.376048 
L 240.950526 65.376048 
L 240.306629 65.376048 
" style="fill:none;stroke:#8c8c8c;stroke-linecap:square;"/>
   </g>
   <g id="line2d_118">
    <path clip-path="url(#p14cb88b36d)" d="M 251.25287 52.820067 
L 250.930922 52.820067 
L 250.608973 52.820067 
L 250.287025 53.142015 
L 249.643129 53.142015 
L 249.32118 53.142015 
L 248.999232 53.142015 
L 248.677284 53.142015 
L 248.355336 53.463963 
L 248.033387 53.463963 
L 248.033387 53.785912 
L 248.033387 54.10786 
L 248.033387 54.751756 
L 248.355336 56.039549 
L 248.355336 58.293187 
L 248.677284 60.224877 
L 248.677284 62.156566 
L 248.677284 64.088256 
L 248.677284 65.376048 
L 248.999232 66.341893 
L 248.999232 66.663841 
L 248.999232 67.307738 
L 248.999232 67.629686 
L 248.999232 67.951634 
L 248.677284 68.273583 
L 248.999232 68.595531 
L 249.32118 68.917479 
L 249.643129 68.917479 
L 250.930922 68.917479 
L 252.862611 68.595531 
L 253.506507 68.273583 
" style="fill:none;stroke:#8c8c8c;stroke-linecap:square;"/>
   </g>
   <g id="line2d_119">
    <path clip-path="url(#p14cb88b36d)" d="M 254.7943 57.649291 
L 254.7943 57.971239 
L 254.7943 58.293187 
L 255.116249 59.58098 
L 255.438197 61.51267 
L 255.760145 63.122411 
L 256.082093 64.410204 
L 256.082093 64.732152 
" style="fill:none;stroke:#8c8c8c;stroke-linecap:square;"/>
   </g>
   <g id="line2d_120">
    <path clip-path="url(#p14cb88b36d)" d="M 254.7943 57.327342 
L 254.472352 57.005394 
L 254.472352 56.683446 
L 255.116249 56.361498 
L 256.404042 56.361498 
L 257.691835 57.005394 
L 258.657679 57.649291 
L 259.301576 58.937084 
L 259.623524 60.868773 
L 258.979628 62.156566 
L 258.013783 63.444359 
L 257.369886 64.088256 
L 256.404042 64.410204 
L 256.082093 64.410204 
L 256.082093 64.088256 
" style="fill:none;stroke:#8c8c8c;stroke-linecap:square;"/>
   </g>
   <g id="line2d_121">
    <path clip-path="url(#p14cb88b36d)" d="M 261.555214 58.293187 
L 261.877162 58.293187 
L 261.877162 58.937084 
L 262.19911 60.546825 
L 262.843007 62.478514 
L 263.164955 64.088256 
L 263.486903 65.376048 
L 263.808851 66.019945 
L 263.486903 66.019945 
" style="fill:none;stroke:#8c8c8c;stroke-linecap:square;"/>
   </g>
   <g id="line2d_122">
    <path clip-path="url(#p14cb88b36d)" d="M 267.350282 57.971239 
L 267.67223 57.971239 
L 267.67223 57.649291 
L 267.350282 57.649291 
L 267.028334 57.971239 
L 266.384437 58.293187 
L 265.740541 59.259032 
L 265.418593 60.868773 
L 265.740541 62.478514 
L 267.028334 63.444359 
L 268.316127 63.766307 
L 269.925868 63.766307 
" style="fill:none;stroke:#8c8c8c;stroke-linecap:square;"/>
   </g>
   <g id="line2d_123">
    <path clip-path="url(#p14cb88b36d)" d="M 269.60392 53.142015 
L 269.281972 53.142015 
L 269.60392 53.142015 
L 269.925868 53.142015 
L 270.891713 53.142015 
L 271.535609 53.142015 
L 271.857558 53.142015 
L 272.179506 53.142015 
L 272.501454 53.142015 
L 272.823402 53.142015 
L 272.823402 53.463963 
L 273.145351 53.463963 
L 273.145351 54.10786 
L 273.467299 55.073705 
L 273.789247 57.005394 
L 274.433144 59.259032 
L 275.07704 61.190721 
L 275.398988 62.156566 
L 275.720937 63.122411 
L 276.042885 63.444359 
L 276.042885 63.766307 
L 276.364833 63.766307 
L 276.364833 64.088256 
L 276.042885 64.088256 
L 275.720937 64.410204 
L 275.398988 64.410204 
L 274.755092 64.732152 
L 273.789247 65.0541 
L 273.145351 65.376048 
L 272.823402 65.376048 
" style="fill:none;stroke:#8c8c8c;stroke-linecap:square;"/>
   </g>
   <g id="line2d_124">
    <path clip-path="url(#p14cb88b36d)" d="M 283.125746 52.498119 
L 283.125746 52.820067 
L 283.125746 53.142015 
L 282.803798 53.142015 
L 282.48185 53.463963 
L 281.516005 53.463963 
L 280.872109 53.785912 
L 280.228212 54.10786 
L 279.584316 54.10786 
L 279.262367 54.10786 
L 279.262367 54.429808 
L 279.262367 54.751756 
L 279.262367 55.395653 
L 279.584316 56.361498 
L 279.906264 57.971239 
L 280.228212 59.902928 
L 280.228212 61.51267 
L 280.55016 63.444359 
L 280.55016 65.376048 
L 280.872109 66.663841 
L 281.194057 67.629686 
L 281.516005 68.273583 
L 281.837953 68.595531 
L 282.159902 68.595531 
L 283.125746 68.595531 
L 284.735488 68.595531 
L 286.023281 68.273583 
L 286.989125 68.273583 
" style="fill:none;stroke:#8c8c8c;stroke-linecap:square;"/>
   </g>
   <g id="line2d_125">
    <path clip-path="url(#p14cb88b36d)" d="M 287.633022 60.546825 
L 287.633022 60.224877 
L 287.633022 59.902928 
L 287.633022 59.58098 
L 287.633022 59.259032 
L 287.633022 58.937084 
L 287.633022 58.615135 
L 287.633022 58.293187 
L 287.311074 58.293187 
L 287.311074 57.971239 
L 287.311074 57.649291 
L 287.311074 57.327342 
L 287.311074 57.649291 
L 287.311074 57.971239 
L 287.311074 58.293187 
L 287.95497 59.259032 
L 288.276918 60.868773 
L 288.598867 62.478514 
L 288.920815 63.766307 
L 289.242763 64.410204 
L 289.242763 64.088256 
L 288.920815 63.444359 
" style="fill:none;stroke:#8c8c8c;stroke-linecap:square;"/>
   </g>
   <g id="line2d_126">
    <path clip-path="url(#p14cb88b36d)" d="M 285.379384 57.971239 
L 285.057436 57.971239 
L 284.735488 57.649291 
L 284.413539 57.649291 
L 284.413539 57.327342 
L 284.735488 57.327342 
L 285.701332 57.005394 
L 287.633022 56.361498 
L 289.88666 55.717601 
L 290.530556 55.717601 
L 291.174453 55.717601 
L 291.174453 55.395653 
" style="fill:none;stroke:#8c8c8c;stroke-linecap:square;"/>
   </g>
   <g id="line2d_127">
    <path clip-path="url(#p14cb88b36d)" d="M 292.462246 58.293187 
L 292.462246 58.937084 
L 292.462246 59.259032 
L 292.462246 59.58098 
L 292.462246 60.224877 
L 292.462246 61.51267 
L 292.462246 62.800463 
L 292.462246 63.122411 
L 292.462246 63.444359 
L 292.462246 63.122411 
L 292.462246 62.800463 
L 292.462246 61.190721 
L 292.462246 59.259032 
L 292.462246 57.649291 
L 292.784194 56.683446 
L 292.784194 56.361498 
L 293.106142 57.005394 
L 293.42809 57.649291 
L 294.071987 59.58098 
L 294.715883 61.51267 
L 295.35978 62.800463 
L 295.681728 63.444359 
L 295.681728 63.766307 
" style="fill:none;stroke:#8c8c8c;stroke-linecap:square;"/>
   </g>
   <g id="line2d_128">
    <path clip-path="url(#p14cb88b36d)" d="M 291.818349 60.546825 
L 291.496401 60.546825 
L 291.496401 60.868773 
L 291.818349 60.868773 
L 292.462246 60.868773 
L 293.42809 60.868773 
L 294.071987 60.546825 
L 294.715883 60.224877 
" style="fill:none;stroke:#8c8c8c;stroke-linecap:square;"/>
   </g>
   <g id="line2d_129">
    <path clip-path="url(#p14cb88b36d)" d="M 294.715883 54.10786 
L 295.037832 54.10786 
L 295.35978 54.10786 
L 295.681728 54.10786 
L 296.325625 53.785912 
L 297.291469 53.463963 
L 297.935366 53.463963 
L 298.257314 53.142015 
L 298.579262 53.142015 
L 298.901211 53.142015 
L 298.901211 53.463963 
L 298.901211 53.785912 
L 299.223159 54.429808 
L 299.545107 55.395653 
L 300.189004 57.327342 
L 300.8329 58.937084 
L 301.476797 60.868773 
L 301.798745 61.834618 
L 302.442641 62.800463 
L 302.76459 63.444359 
L 302.76459 63.766307 
L 302.76459 64.088256 
L 302.76459 64.410204 
L 303.086538 64.732152 
L 303.086538 65.0541 
L 302.76459 65.0541 
L 302.442641 65.0541 
L 302.442641 65.376048 
L 301.798745 65.376048 
L 301.154848 65.697997 
L 300.189004 66.019945 
" style="fill:none;stroke:#8c8c8c;stroke-linecap:square;"/>
   </g>
   <g id="line2d_130">
    <path clip-path="url(#p14cb88b36d)" d="M 498.509125 10.322898 
L 497.865228 10.322898 
L 497.54328 10.644846 
L 496.899383 10.966795 
L 495.933539 11.610691 
L 494.645746 12.254588 
L 494.001849 13.54238 
L 493.357953 14.830173 
L 493.357953 17.083811 
L 494.001849 18.693552 
L 495.61159 19.981345 
L 497.865228 20.303294 
L 499.153021 19.659397 
L 500.118866 18.693552 
" style="fill:none;stroke:#8c8c8c;stroke-linecap:square;"/>
   </g>
   <g id="line2d_131">
    <path clip-path="url(#p14cb88b36d)" d="M 502.694452 14.186277 
L 502.694452 13.864329 
L 502.372504 13.864329 
L 502.372504 14.186277 
L 502.050555 15.47407 
L 502.050555 16.439915 
L 502.050555 17.405759 
L 502.050555 18.049656 
L 502.050555 18.371604 
L 502.050555 18.049656 
L 502.372504 17.727708 
L 502.372504 16.439915 
L 502.372504 14.830173 
L 502.694452 13.220432 
L 502.694452 11.932639 
L 503.0164 11.610691 
L 503.0164 11.288743 
L 503.0164 10.966795 
L 503.338348 11.288743 
L 503.660297 11.932639 
L 503.982245 13.54238 
L 504.626141 15.47407 
L 504.94809 17.083811 
L 505.591986 18.371604 
L 505.591986 18.693552 
L 505.913934 18.693552 
" style="fill:none;stroke:#8c8c8c;stroke-linecap:square;"/>
   </g>
   <g id="line2d_132">
    <path clip-path="url(#p14cb88b36d)" d="M 502.372504 13.864329 
L 502.050555 13.864329 
L 502.372504 14.186277 
L 503.338348 14.186277 
L 504.304193 14.186277 
L 504.626141 14.186277 
" style="fill:none;stroke:#8c8c8c;stroke-linecap:square;"/>
   </g>
   <g id="line2d_133">
    <path clip-path="url(#p14cb88b36d)" d="M 510.743158 13.864329 
L 510.42121 13.864329 
L 510.743158 13.54238 
L 511.387055 12.898484 
L 511.709003 12.576536 
L 512.030951 12.576536 
L 512.030951 13.220432 
L 512.352899 13.54238 
L 512.674848 14.186277 
L 513.640692 14.508225 
L 514.606537 14.508225 
L 515.250434 14.186277 
L 516.216278 13.864329 
L 516.538227 13.54238 
" style="fill:none;stroke:#8c8c8c;stroke-linecap:square;"/>
   </g>
   <g id="line2d_134">
    <path clip-path="url(#p14cb88b36d)" d="M 511.709003 19.337449 
L 511.387055 19.337449 
L 511.709003 19.015501 
L 511.709003 18.693552 
L 512.030951 18.693552 
L 512.030951 18.371604 
L 512.352899 18.371604 
L 512.674848 18.693552 
L 512.996796 19.015501 
L 513.318744 19.337449 
L 513.962641 19.659397 
L 514.928485 19.659397 
L 515.572382 19.337449 
L 516.216278 19.015501 
L 516.860175 18.371604 
" style="fill:none;stroke:#8c8c8c;stroke-linecap:square;"/>
   </g>
   <g id="line2d_135">
    <path clip-path="url(#p14cb88b36d)" d="M 523.621088 12.576536 
L 523.621088 12.254588 
L 523.621088 12.576536 
L 523.621088 13.54238 
L 523.621088 15.152122 
L 523.943036 17.405759 
L 523.943036 19.337449 
L 524.264984 20.625242 
L 524.586933 21.269138 
L 524.908881 20.94719 
" style="fill:none;stroke:#8c8c8c;stroke-linecap:square;"/>
   </g>
   <g id="line2d_136">
    <path clip-path="url(#p14cb88b36d)" d="M 519.757709 11.610691 
L 520.401605 11.610691 
L 521.36745 11.932639 
L 523.29914 11.932639 
L 524.586933 11.610691 
L 525.552777 11.610691 
L 526.518622 11.288743 
" style="fill:none;stroke:#8c8c8c;stroke-linecap:square;"/>
   </g>
   <g id="line2d_137">
    <path clip-path="url(#p14cb88b36d)" d="M 531.025898 16.117966 
L 531.025898 15.796018 
L 531.025898 16.117966 
L 531.025898 16.761863 
L 531.025898 18.049656 
L 531.025898 19.337449 
L 531.025898 20.303294 
L 531.025898 20.625242 
L 531.025898 19.659397 
L 531.025898 17.727708 
L 531.025898 15.152122 
L 531.025898 13.54238 
L 531.025898 11.932639 
L 531.347846 11.288743 
L 531.669794 11.288743 
L 531.669794 11.610691 
L 532.313691 12.254588 
L 532.957587 13.864329 
L 533.601484 16.117966 
L 534.24538 18.049656 
L 534.567328 19.015501 
L 534.889277 19.659397 
L 534.889277 19.981345 
" style="fill:none;stroke:#8c8c8c;stroke-linecap:square;"/>
   </g>
   <g id="line2d_138">
    <path clip-path="url(#p14cb88b36d)" d="M 530.703949 15.796018 
L 531.025898 15.796018 
L 531.347846 15.796018 
L 531.669794 15.796018 
L 532.313691 15.796018 
L 533.279535 15.796018 
" style="fill:none;stroke:#8c8c8c;stroke-linecap:square;"/>
   </g>
  </g>
 </g>
 <defs>
  <clipPath id="p14cb88b36d">
   <rect height="68.703756" width="552.817337" x="7.2" y="7.2"/>
  </clipPath>
 </defs>
</svg>
