<?xml version="1.0" encoding="utf-8" standalone="no"?>
<!DOCTYPE svg PUBLIC "-//W3C//DTD SVG 1.1//EN"
  "http://www.w3.org/Graphics/SVG/1.1/DTD/svg11.dtd">
<!-- Created with matplotlib (https://matplotlib.org/) -->
<svg height="286.2pt" version="1.1" viewBox="0 0 434.153739 286.2" width="434.153739pt" xmlns="http://www.w3.org/2000/svg" xmlns:xlink="http://www.w3.org/1999/xlink">
 <metadata>
  <rdf:RDF xmlns:cc="http://creativecommons.org/ns#" xmlns:dc="http://purl.org/dc/elements/1.1/" xmlns:rdf="http://www.w3.org/1999/02/22-rdf-syntax-ns#">
   <cc:Work>
    <dc:type rdf:resource="http://purl.org/dc/dcmitype/StillImage"/>
    <dc:date>2024-11-15T16:04:31.871092</dc:date>
    <dc:format>image/svg+xml</dc:format>
    <dc:creator>
     <cc:Agent>
      <dc:title>Matplotlib v3.3.4, https://matplotlib.org/</dc:title>
     </cc:Agent>
    </dc:creator>
   </cc:Work>
  </rdf:RDF>
 </metadata>
 <defs>
  <style type="text/css">*{stroke-linecap:butt;stroke-linejoin:round;}</style>
 </defs>
 <g id="figure_1">
  <g id="patch_1">
   <path d="M 0 286.2 
L 434.153739 286.2 
L 434.153739 0 
L 0 0 
z
" style="fill:#ffffff;"/>
  </g>
  <g id="axes_1">
   <g id="line2d_1">
    <path clip-path="url(#p3f34ab9e53)" d="M 69.681771 39.751542 
L 69.681771 39.321818 
L 69.681771 38.892095 
L 69.252047 38.892095 
L 68.822324 38.892095 
L 68.392601 38.892095 
L 67.533154 38.892095 
L 66.243984 39.751542 
L 64.525091 40.610988 
L 63.235921 42.329881 
L 61.517028 44.048775 
L 60.227858 46.197391 
L 59.798134 47.916285 
L 60.227858 49.635178 
L 61.087304 50.924348 
L 63.235921 51.783794 
L 65.384538 52.213518 
L 67.962877 52.213518 
L 69.252047 51.783794 
L 71.400664 51.354071 
L 71.400664 50.924348 
" style="fill:none;stroke:#8c8c8c;stroke-linecap:square;"/>
   </g>
   <g id="line2d_2">
    <path clip-path="url(#p3f34ab9e53)" d="M 76.987067 47.486561 
L 77.416791 47.056838 
L 77.416791 46.627115 
L 76.987067 46.197391 
L 76.557344 46.627115 
L 75.697897 47.056838 
L 74.408727 47.916285 
L 73.549281 49.205455 
L 73.549281 50.064901 
L 73.549281 50.924348 
L 74.838451 51.354071 
L 76.557344 50.924348 
L 77.846514 50.064901 
L 79.135684 48.346008 
L 79.565407 47.486561 
L 80.424854 46.197391 
L 80.424854 45.767668 
L 80.424854 46.627115 
L 80.424854 47.916285 
L 80.424854 49.635178 
L 80.854577 51.354071 
L 81.2843 52.213518 
L 81.714024 52.643241 
" style="fill:none;stroke:#8c8c8c;stroke-linecap:square;"/>
   </g>
   <g id="line2d_3">
    <path clip-path="url(#p3f34ab9e53)" d="M 98.04351 39.751542 
L 97.613787 39.321818 
L 97.184063 39.751542 
L 96.324617 39.751542 
L 95.035447 40.610988 
L 93.746277 41.900158 
L 92.027383 43.619051 
L 91.167937 45.767668 
L 91.167937 47.916285 
L 92.027383 50.064901 
L 93.316553 51.354071 
L 95.035447 52.213518 
L 97.613787 52.213518 
L 99.762403 51.354071 
" style="fill:none;stroke:#8c8c8c;stroke-linecap:square;"/>
   </g>
   <g id="line2d_4">
    <path clip-path="url(#p3f34ab9e53)" d="M 104.919083 46.197391 
L 104.919083 45.767668 
L 104.48936 44.908221 
L 104.48936 44.478498 
L 104.059636 44.048775 
L 103.629913 44.048775 
L 103.20019 44.478498 
L 102.340743 45.767668 
L 101.91102 47.056838 
L 102.340743 48.346008 
L 103.20019 49.635178 
L 104.919083 50.494625 
L 106.208253 50.494625 
L 107.927146 50.064901 
L 109.216316 48.346008 
L 110.075763 47.056838 
L 109.64604 44.048775 
L 108.786593 42.329881 
L 107.0677 41.040711 
L 105.348806 40.610988 
L 104.059636 41.470435 
L 103.20019 41.900158 
" style="fill:none;stroke:#8c8c8c;stroke-linecap:square;"/>
   </g>
   <g id="line2d_5">
    <path clip-path="url(#p3f34ab9e53)" d="M 116.091889 44.048775 
L 115.662166 44.048775 
L 115.232443 44.478498 
L 114.802719 44.478498 
L 115.662166 44.048775 
L 116.951336 44.048775 
L 118.670229 44.478498 
L 119.529676 44.908221 
L 119.959399 45.767668 
L 119.529676 47.056838 
L 118.670229 48.346008 
L 117.381059 49.205455 
L 116.521613 50.064901 
L 116.521613 50.494625 
L 116.951336 50.494625 
L 117.381059 50.924348 
L 117.810783 50.924348 
L 118.670229 51.783794 
L 119.099953 52.643241 
L 119.099953 53.502688 
L 119.099953 54.362134 
L 117.381059 55.221581 
L 115.662166 55.651304 
L 113.943273 55.651304 
L 113.513549 55.221581 
" style="fill:none;stroke:#8c8c8c;stroke-linecap:square;"/>
   </g>
   <g id="line2d_6">
    <path clip-path="url(#p3f34ab9e53)" d="M 147.891415 42.329881 
L 147.461692 42.759605 
L 147.031968 42.759605 
L 148.750862 43.189328 
L 150.899478 42.759605 
L 154.766988 42.759605 
L 158.634498 42.329881 
L 162.072285 42.329881 
L 164.220901 42.329881 
L 166.369518 42.759605 
L 168.088411 42.759605 
L 169.377581 42.759605 
L 169.807304 42.759605 
" style="fill:none;stroke:#8c8c8c;stroke-linecap:square;"/>
   </g>
   <g id="line2d_7">
    <path clip-path="url(#p3f34ab9e53)" d="M 169.377581 38.032648 
L 169.377581 38.462372 
L 170.666751 38.462372 
L 171.526198 38.892095 
L 172.815368 39.321818 
L 174.104538 39.751542 
L 174.963984 40.610988 
L 174.963984 41.900158 
L 175.393708 42.759605 
L 174.963984 44.048775 
L 174.534261 45.337945 
L 174.104538 45.767668 
" style="fill:none;stroke:#8c8c8c;stroke-linecap:square;"/>
   </g>
   <g id="line2d_8">
    <path clip-path="url(#p3f34ab9e53)" d="M 149.180585 38.892095 
L 148.750862 38.892095 
L 148.750862 39.321818 
L 148.321138 39.321818 
L 147.031968 40.181265 
L 146.172522 41.040711 
L 144.883352 42.329881 
L 143.594182 43.189328 
L 143.164458 44.478498 
L 144.023905 45.767668 
L 144.883352 46.627115 
L 145.742798 47.486561 
L 146.172522 47.486561 
" style="fill:none;stroke:#8c8c8c;stroke-linecap:square;"/>
   </g>
   <g id="line2d_9">
    <path clip-path="url(#p3f34ab9e53)" d="M 218.795763 34.594862 
L 218.795763 34.165138 
L 218.36604 34.165138 
L 217.936316 34.165138 
L 217.936316 34.594862 
L 217.07687 34.594862 
L 215.357976 36.313755 
L 213.639083 38.462372 
L 212.779636 41.900158 
L 212.779636 44.478498 
L 213.639083 45.767668 
L 215.357976 47.056838 
L 217.936316 47.486561 
L 220.084933 46.627115 
" style="fill:none;stroke:#8c8c8c;stroke-linecap:square;"/>
   </g>
   <g id="line2d_10">
    <path clip-path="url(#p3f34ab9e53)" d="M 227.390229 41.900158 
L 227.390229 41.470435 
L 226.960506 41.470435 
L 226.530783 41.470435 
L 226.101059 41.470435 
L 225.241613 41.900158 
L 224.382166 42.759605 
L 223.952443 44.048775 
L 224.382166 44.908221 
L 225.671336 44.908221 
L 227.390229 44.908221 
L 228.679399 43.619051 
L 229.538846 42.329881 
L 229.968569 41.470435 
L 230.398292 41.040711 
L 230.398292 41.470435 
L 230.398292 42.759605 
L 230.398292 44.908221 
L 230.828016 46.627115 
L 231.257739 47.486561 
L 231.257739 47.916285 
" style="fill:none;stroke:#8c8c8c;stroke-linecap:square;"/>
   </g>
   <g id="line2d_11">
    <path clip-path="url(#p3f34ab9e53)" d="M 233.406356 33.305692 
L 232.976632 33.305692 
L 233.406356 32.875968 
L 234.695526 32.875968 
L 235.554972 32.875968 
L 235.554972 33.305692 
L 235.554972 33.735415 
L 235.125249 34.594862 
L 234.265802 35.884032 
L 233.836079 36.743478 
L 233.836079 37.602925 
L 234.265802 37.602925 
L 234.265802 38.032648 
L 235.554972 38.032648 
L 236.844142 37.602925 
L 237.273866 37.602925 
" style="fill:none;stroke:#8c8c8c;stroke-linecap:square;"/>
   </g>
   <g id="line2d_12">
    <path clip-path="url(#p3f34ab9e53)" d="M 242.430545 32.446245 
L 242.860269 32.446245 
L 242.860269 32.016522 
L 243.289992 32.016522 
L 243.289992 32.446245 
L 243.289992 32.875968 
L 243.719715 33.735415 
L 244.149439 35.454308 
L 244.579162 36.313755 
" style="fill:none;stroke:#8c8c8c;stroke-linecap:square;"/>
   </g>
   <g id="line2d_13">
    <path clip-path="url(#p3f34ab9e53)" d="M 242.000822 34.594862 
L 242.000822 34.165138 
L 242.430545 34.165138 
L 242.860269 33.735415 
L 243.719715 33.735415 
L 245.438609 33.305692 
L 246.298055 32.875968 
" style="fill:none;stroke:#8c8c8c;stroke-linecap:square;"/>
   </g>
   <g id="line2d_14">
    <path clip-path="url(#p3f34ab9e53)" d="M 250.165565 26.859842 
L 249.735842 26.859842 
L 250.165565 26.859842 
L 250.595289 26.859842 
L 251.025012 26.430119 
L 252.314182 26.430119 
L 253.173628 26.000395 
L 253.603352 26.000395 
L 254.033075 26.000395 
L 254.462798 26.000395 
L 254.892522 26.000395 
L 254.892522 26.430119 
L 255.322245 26.859842 
L 255.322245 27.289565 
L 255.751968 27.719289 
L 255.751968 28.149012 
L 256.181692 28.578735 
L 256.611415 29.438182 
L 257.470862 30.727352 
L 258.330308 32.016522 
L 258.760032 33.735415 
L 259.189755 35.884032 
L 259.619478 38.462372 
L 260.478925 41.470435 
L 260.908648 44.048775 
L 261.338372 45.767668 
L 261.768095 46.197391 
L 261.768095 47.056838 
L 261.768095 47.486561 
L 262.197818 47.486561 
L 262.197818 47.916285 
L 262.197818 48.346008 
L 261.768095 48.346008 
L 261.768095 48.775731 
L 261.338372 48.775731 
L 260.049202 49.205455 
L 258.330308 49.635178 
L 255.322245 50.494625 
L 252.743905 50.924348 
L 251.454735 50.924348 
L 251.025012 50.924348 
" style="fill:none;stroke:#8c8c8c;stroke-linecap:square;"/>
   </g>
   <g id="line2d_15">
    <path clip-path="url(#p3f34ab9e53)" d="M 209.34185 29.008458 
L 208.912126 29.008458 
L 208.912126 29.438182 
L 208.482403 29.438182 
L 207.622957 29.867905 
L 206.333787 30.297628 
L 205.044617 30.727352 
L 203.325723 31.586798 
L 202.466277 32.016522 
L 201.60683 32.446245 
L 201.177107 32.875968 
L 200.747383 32.875968 
L 200.747383 33.305692 
L 200.747383 33.735415 
L 200.747383 34.165138 
L 201.177107 34.594862 
L 201.60683 35.454308 
L 201.60683 37.173202 
L 201.60683 39.751542 
L 201.177107 43.189328 
L 200.747383 46.197391 
L 200.31766 48.775731 
L 200.31766 50.924348 
L 200.31766 52.643241 
L 200.747383 53.932411 
L 202.036553 54.362134 
L 204.614893 54.791858 
L 207.622957 53.932411 
L 208.05268 53.502688 
" style="fill:none;stroke:#8c8c8c;stroke-linecap:square;"/>
   </g>
   <g id="line2d_16">
    <path clip-path="url(#p3f34ab9e53)" d="M 281.965091 33.735415 
L 281.535368 33.735415 
L 281.105644 33.735415 
L 281.105644 34.165138 
L 280.675921 34.594862 
L 280.675921 35.024585 
L 280.675921 36.743478 
L 281.105644 39.751542 
L 281.535368 42.329881 
L 281.535368 44.048775 
L 281.965091 44.478498 
" style="fill:none;stroke:#8c8c8c;stroke-linecap:square;"/>
   </g>
   <g id="line2d_17">
    <path clip-path="url(#p3f34ab9e53)" d="M 278.527304 38.892095 
L 278.097581 38.892095 
L 278.527304 38.892095 
L 279.816474 39.321818 
L 281.535368 39.321818 
L 283.254261 39.321818 
L 284.543431 38.892095 
L 285.832601 38.892095 
" style="fill:none;stroke:#8c8c8c;stroke-linecap:square;"/>
   </g>
   <g id="line2d_18">
    <path clip-path="url(#p3f34ab9e53)" d="M 310.756553 24.711225 
L 310.756553 25.140949 
L 310.32683 25.140949 
L 309.897107 25.570672 
L 309.03766 26.000395 
L 307.74849 26.430119 
L 305.599874 27.289565 
L 303.88098 27.719289 
L 303.021534 28.149012 
L 302.59181 28.578735 
L 302.162087 28.578735 
L 302.162087 29.008458 
L 301.732364 29.008458 
L 301.732364 29.438182 
L 302.162087 29.867905 
L 302.162087 30.297628 
L 302.59181 32.016522 
L 303.021534 33.735415 
L 303.021534 36.743478 
L 303.451257 39.321818 
L 303.451257 42.759605 
L 303.88098 45.337945 
L 304.310704 47.056838 
L 305.599874 47.916285 
L 307.74849 47.916285 
L 310.756553 47.486561 
L 312.90517 47.056838 
L 314.624063 46.197391 
" style="fill:none;stroke:#8c8c8c;stroke-linecap:square;"/>
   </g>
   <g id="line2d_19">
    <path clip-path="url(#p3f34ab9e53)" d="M 325.367146 31.586798 
L 325.367146 31.157075 
L 324.937423 31.157075 
L 324.5077 31.586798 
L 324.077976 31.586798 
L 323.648253 32.016522 
L 323.21853 32.446245 
L 322.359083 34.165138 
L 321.92936 35.454308 
L 322.788806 38.892095 
L 324.077976 41.470435 
L 327.08604 43.619051 
L 329.664379 44.478498 
L 331.812996 44.048775 
L 331.812996 43.619051 
" style="fill:none;stroke:#8c8c8c;stroke-linecap:square;"/>
   </g>
   <g id="line2d_20">
    <path clip-path="url(#p3f34ab9e53)" d="M 334.821059 34.594862 
L 334.391336 34.594862 
L 333.961613 34.594862 
L 333.531889 34.594862 
L 333.102166 34.594862 
L 333.102166 35.024585 
L 332.242719 35.884032 
L 331.812996 37.602925 
L 332.242719 39.321818 
L 333.961613 41.470435 
L 336.539953 42.759605 
L 339.118292 42.759605 
L 340.837186 41.470435 
L 341.266909 39.751542 
L 341.266909 37.602925 
L 340.407462 35.454308 
L 338.258846 33.735415 
L 336.539953 33.735415 
L 335.250783 33.735415 
L 334.391336 34.594862 
" style="fill:none;stroke:#8c8c8c;stroke-linecap:square;"/>
   </g>
   <g id="line2d_21">
    <path clip-path="url(#p3f34ab9e53)" d="M 346.853312 37.173202 
L 346.423589 37.173202 
L 346.853312 36.743478 
L 348.142482 36.743478 
L 348.572206 37.173202 
L 349.431652 37.602925 
L 349.431652 38.462372 
L 348.572206 39.321818 
L 348.142482 40.610988 
L 347.712759 41.040711 
L 347.712759 41.470435 
L 348.142482 41.900158 
L 349.431652 42.759605 
L 350.291099 43.619051 
L 352.439715 44.908221 
L 353.299162 46.197391 
L 353.299162 47.486561 
L 352.869439 48.346008 
L 351.150545 48.775731 
L 349.431652 48.346008 
L 348.572206 47.916285 
" style="fill:none;stroke:#8c8c8c;stroke-linecap:square;"/>
   </g>
   <g id="line2d_22">
    <path clip-path="url(#p3f34ab9e53)" d="M 352.869439 30.297628 
L 353.299162 30.297628 
L 353.728885 30.297628 
L 354.588332 30.297628 
L 356.307225 29.867905 
" style="fill:none;stroke:#8c8c8c;stroke-linecap:square;"/>
   </g>
   <g id="line2d_23">
    <path clip-path="url(#p3f34ab9e53)" d="M 358.455842 20.413992 
L 358.026119 20.413992 
L 358.455842 20.413992 
L 358.885565 19.984269 
L 360.604458 19.554545 
L 362.323352 19.554545 
L 363.182798 19.554545 
L 363.612522 19.554545 
L 364.042245 19.554545 
L 364.471968 19.554545 
L 364.901692 19.554545 
L 364.901692 19.984269 
L 365.331415 19.984269 
L 365.761138 20.843715 
L 366.190862 22.992332 
L 366.620585 25.140949 
L 367.480032 29.008458 
L 368.339478 32.875968 
L 369.198925 35.884032 
L 369.628648 38.032648 
L 370.058372 38.892095 
L 370.488095 39.751542 
L 370.488095 40.181265 
L 370.488095 41.040711 
L 370.488095 41.470435 
L 370.488095 41.900158 
L 370.488095 42.329881 
L 370.488095 42.759605 
L 369.628648 43.619051 
L 368.339478 44.048775 
L 366.620585 44.908221 
L 364.901692 44.908221 
" style="fill:none;stroke:#8c8c8c;stroke-linecap:square;"/>
   </g>
   <g id="line2d_24">
    <path clip-path="url(#p3f34ab9e53)" d="M 151.758925 58.229644 
L 151.758925 58.659368 
L 151.758925 60.807984 
L 151.758925 62.956601 
L 152.188648 65.105217 
L 152.618372 67.253834 
L 152.618372 68.113281 
L 153.048095 68.543004 
" style="fill:none;stroke:#8c8c8c;stroke-linecap:square;"/>
   </g>
   <g id="line2d_25">
    <path clip-path="url(#p3f34ab9e53)" d="M 155.626435 59.948538 
L 155.196711 59.948538 
L 155.196711 60.378261 
L 155.196711 60.807984 
L 154.766988 60.807984 
L 154.766988 61.237708 
L 154.337265 62.097154 
L 153.477818 62.956601 
L 152.618372 63.386324 
L 152.188648 63.816047 
L 151.758925 63.816047 
L 151.329202 64.245771 
L 150.899478 64.245771 
L 151.329202 64.245771 
L 151.758925 64.245771 
L 153.048095 64.675494 
L 155.196711 65.534941 
L 157.345328 67.253834 
L 159.493945 68.972727 
L 160.353391 69.402451 
" style="fill:none;stroke:#8c8c8c;stroke-linecap:square;"/>
   </g>
   <g id="line2d_26">
    <path clip-path="url(#p3f34ab9e53)" d="M 162.931731 62.526877 
L 162.502008 62.526877 
L 162.072285 62.526877 
L 162.072285 62.956601 
L 161.642561 62.956601 
L 161.212838 63.386324 
L 160.783115 63.386324 
L 160.353391 63.816047 
L 159.923668 64.245771 
L 160.353391 64.675494 
L 160.783115 64.675494 
L 161.642561 65.105217 
L 162.931731 65.964664 
L 163.791178 66.824111 
L 164.220901 67.253834 
L 164.650625 68.543004 
L 164.220901 69.402451 
L 163.791178 69.832174 
L 162.931731 69.832174 
L 162.072285 69.832174 
L 161.642561 68.972727 
" style="fill:none;stroke:#8c8c8c;stroke-linecap:square;"/>
   </g>
   <g id="line2d_27">
    <path clip-path="url(#p3f34ab9e53)" d="M 165.510071 67.683557 
L 165.939794 67.683557 
L 165.939794 68.113281 
L 166.369518 68.113281 
L 166.369518 68.543004 
L 166.799241 68.543004 
L 167.228964 68.972727 
L 167.658688 68.972727 
L 168.088411 68.972727 
L 168.947858 68.972727 
L 168.947858 68.543004 
L 169.377581 68.113281 
L 169.377581 67.683557 
L 169.377581 67.253834 
L 168.947858 66.824111 
L 168.518134 66.394387 
L 167.658688 66.394387 
L 166.799241 66.394387 
L 166.369518 66.824111 
L 165.510071 67.683557 
L 165.510071 68.972727 
L 165.939794 70.691621 
L 166.369518 72.840237 
L 166.799241 74.988854 
L 167.228964 77.13747 
L 167.658688 77.996917 
L 167.658688 78.42664 
" style="fill:none;stroke:#8c8c8c;stroke-linecap:square;"/>
   </g>
   <g id="line2d_28">
    <path clip-path="url(#p3f34ab9e53)" d="M 114.372996 101.6317 
L 114.372996 101.201976 
L 114.372996 100.772253 
L 114.372996 100.34253 
L 114.372996 100.772253 
L 114.372996 101.201976 
L 114.372996 102.92087 
L 114.372996 105.069486 
L 114.372996 108.507273 
L 113.943273 111.945059 
L 113.513549 117.101739 
L 113.513549 119.680079 
L 113.083826 121.398972 
L 113.083826 122.258419 
L 113.083826 121.828696 
" style="fill:none;stroke:#8c8c8c;stroke-linecap:square;"/>
   </g>
   <g id="line2d_29">
    <path clip-path="url(#p3f34ab9e53)" d="M 120.389123 103.780316 
L 120.389123 104.21004 
L 119.959399 104.639763 
L 119.529676 105.928933 
L 118.670229 106.788379 
L 117.381059 108.077549 
L 115.662166 109.366719 
L 114.372996 110.655889 
L 113.083826 111.515336 
L 112.654103 111.515336 
L 112.654103 111.945059 
L 112.654103 112.374783 
L 113.513549 112.804506 
L 114.802719 113.663953 
L 116.951336 114.953123 
L 120.389123 117.961186 
L 122.108016 120.539526 
L 123.397186 122.258419 
L 123.826909 123.117866 
L 123.826909 123.547589 
L 123.826909 123.117866 
" style="fill:none;stroke:#8c8c8c;stroke-linecap:square;"/>
   </g>
   <g id="line2d_30">
    <path clip-path="url(#p3f34ab9e53)" d="M 128.553866 114.523399 
L 128.553866 114.093676 
L 128.124142 114.093676 
L 127.694419 114.523399 
L 126.834972 114.953123 
L 126.405249 115.812569 
L 125.975526 116.242292 
L 125.545802 116.672016 
L 125.545802 117.101739 
L 125.975526 117.101739 
L 126.405249 117.531462 
L 126.834972 117.961186 
L 127.694419 118.390909 
L 128.553866 119.680079 
L 128.983589 120.539526 
L 128.983589 121.828696 
L 128.124142 123.117866 
L 127.694419 123.547589 
L 126.834972 123.977312 
L 126.405249 123.117866 
" style="fill:none;stroke:#8c8c8c;stroke-linecap:square;"/>
   </g>
   <g id="line2d_31">
    <path clip-path="url(#p3f34ab9e53)" d="M 131.132206 119.680079 
L 131.132206 120.109802 
L 131.132206 120.539526 
L 131.561929 120.539526 
L 131.991652 120.969249 
L 131.991652 121.398972 
L 132.421375 121.828696 
L 132.851099 121.828696 
L 134.140269 121.828696 
L 134.999715 121.398972 
L 134.999715 120.539526 
L 135.429439 119.680079 
L 134.999715 118.390909 
L 134.569992 117.531462 
L 133.710545 117.101739 
L 132.851099 117.531462 
L 132.421375 118.820632 
L 131.561929 120.969249 
L 131.561929 123.977312 
L 131.991652 126.555652 
L 132.421375 129.563715 
L 132.851099 131.712332 
L 132.851099 133.001502 
L 132.851099 133.431225 
L 132.851099 133.860949 
L 132.421375 133.431225 
" style="fill:none;stroke:#8c8c8c;stroke-linecap:square;"/>
   </g>
   <g id="line2d_32">
    <path clip-path="url(#p3f34ab9e53)" d="M 146.172522 108.077549 
L 146.602245 108.077549 
L 147.031968 108.077549 
L 147.461692 108.077549 
L 147.891415 108.077549 
L 148.750862 108.077549 
L 150.040032 108.077549 
L 151.758925 107.647826 
L 153.048095 108.077549 
" style="fill:none;stroke:#8c8c8c;stroke-linecap:square;"/>
   </g>
   <g id="line2d_33">
    <path clip-path="url(#p3f34ab9e53)" d="M 148.321138 114.523399 
L 148.321138 114.953123 
L 148.321138 115.382846 
L 148.750862 115.382846 
L 149.610308 115.382846 
L 151.758925 114.953123 
L 154.766988 114.523399 
L 156.485881 114.093676 
" style="fill:none;stroke:#8c8c8c;stroke-linecap:square;"/>
   </g>
   <g id="line2d_34">
    <path clip-path="url(#p3f34ab9e53)" d="M 185.707067 89.169723 
L 185.277344 89.169723 
L 184.847621 89.169723 
L 184.417897 89.599447 
L 183.988174 89.599447 
L 182.699004 90.02917 
L 180.980111 90.458893 
L 179.690941 90.888617 
L 178.831494 91.31834 
L 178.401771 91.31834 
L 177.972047 91.31834 
L 177.542324 91.31834 
L 177.112601 91.748063 
L 176.682877 91.748063 
L 177.112601 92.177787 
L 177.112601 92.60751 
L 177.112601 93.89668 
L 177.112601 95.18585 
L 177.112601 96.904743 
L 177.542324 99.05336 
L 177.542324 100.772253 
L 177.972047 102.061423 
L 177.972047 103.350593 
L 177.972047 104.21004 
L 178.401771 104.639763 
L 178.831494 105.069486 
L 179.690941 105.499209 
L 180.980111 105.499209 
L 183.128727 105.499209 
L 184.417897 105.069486 
L 185.707067 105.069486 
" style="fill:none;stroke:#8c8c8c;stroke-linecap:square;"/>
   </g>
   <g id="line2d_35">
    <path clip-path="url(#p3f34ab9e53)" d="M 195.590704 93.466957 
L 195.590704 93.037233 
L 195.16098 93.037233 
L 194.301534 93.466957 
L 193.442087 94.326403 
L 192.152917 96.47502 
L 191.723194 98.193913 
L 191.29347 99.912806 
L 192.152917 102.061423 
L 193.442087 103.350593 
L 195.590704 103.780316 
L 197.309597 103.780316 
" style="fill:none;stroke:#8c8c8c;stroke-linecap:square;"/>
   </g>
   <g id="line2d_36">
    <path clip-path="url(#p3f34ab9e53)" d="M 202.896 99.912806 
L 202.466277 99.483083 
L 202.466277 99.05336 
L 202.036553 99.05336 
L 201.60683 99.483083 
L 200.747383 99.483083 
L 199.887937 100.34253 
L 199.02849 101.201976 
L 198.598767 102.491146 
L 198.598767 103.350593 
L 199.458213 103.780316 
L 201.177107 103.780316 
L 202.466277 102.92087 
L 203.325723 102.491146 
L 203.755447 101.201976 
L 203.755447 100.34253 
L 203.755447 99.912806 
L 203.755447 99.483083 
L 203.325723 99.912806 
L 203.325723 100.772253 
L 203.325723 102.061423 
L 203.755447 103.350593 
L 204.18517 104.639763 
L 205.044617 105.499209 
" style="fill:none;stroke:#8c8c8c;stroke-linecap:square;"/>
   </g>
   <g id="line2d_37">
    <path clip-path="url(#p3f34ab9e53)" d="M 205.044617 91.748063 
L 204.614893 91.748063 
L 204.18517 91.748063 
L 203.755447 91.748063 
L 204.18517 91.748063 
L 204.614893 91.31834 
L 205.044617 91.31834 
L 206.333787 91.31834 
L 207.193233 91.31834 
L 207.622957 91.31834 
L 207.622957 91.748063 
L 207.193233 92.60751 
L 206.76351 93.89668 
L 205.904063 95.18585 
L 205.904063 96.045296 
L 205.904063 96.47502 
L 206.333787 96.47502 
L 206.333787 96.904743 
L 207.622957 96.904743 
L 208.912126 96.47502 
L 210.201296 95.615573 
L 210.63102 95.615573 
" style="fill:none;stroke:#8c8c8c;stroke-linecap:square;"/>
   </g>
   <g id="line2d_38">
    <path clip-path="url(#p3f34ab9e53)" d="M 214.928253 89.169723 
L 215.357976 89.169723 
L 215.357976 89.599447 
L 215.357976 90.02917 
L 215.357976 90.888617 
L 215.7877 92.60751 
L 216.217423 94.326403 
L 216.647146 95.18585 
" style="fill:none;stroke:#8c8c8c;stroke-linecap:square;"/>
   </g>
   <g id="line2d_39">
    <path clip-path="url(#p3f34ab9e53)" d="M 214.068806 93.466957 
L 213.639083 93.037233 
L 214.49853 92.60751 
L 215.7877 92.60751 
L 217.936316 92.177787 
" style="fill:none;stroke:#8c8c8c;stroke-linecap:square;"/>
   </g>
   <g id="line2d_40">
    <path clip-path="url(#p3f34ab9e53)" d="M 222.233549 87.021107 
L 221.803826 87.021107 
L 222.233549 87.021107 
L 222.663273 87.021107 
L 223.952443 87.021107 
L 225.241613 86.591383 
L 226.101059 86.591383 
L 226.530783 86.591383 
L 226.960506 87.021107 
L 227.390229 87.021107 
L 227.390229 87.45083 
L 227.390229 87.880553 
L 227.819953 88.74 
L 228.249676 90.458893 
L 228.249676 92.60751 
L 228.679399 95.18585 
L 229.109123 97.334466 
L 229.538846 98.623636 
L 229.968569 99.912806 
L 229.968569 100.772253 
L 230.398292 101.6317 
L 230.398292 102.061423 
L 230.828016 102.491146 
L 231.257739 102.92087 
L 231.257739 103.350593 
L 231.257739 103.780316 
L 230.828016 103.780316 
L 229.538846 104.21004 
L 227.390229 104.639763 
L 226.101059 104.639763 
L 224.811889 104.639763 
L 224.382166 104.639763 
" style="fill:none;stroke:#8c8c8c;stroke-linecap:square;"/>
   </g>
   <g id="line2d_41">
    <path clip-path="url(#p3f34ab9e53)" d="M 240.711652 93.89668 
L 240.711652 94.326403 
L 240.281929 94.326403 
L 240.711652 94.326403 
" style="fill:none;stroke:#8c8c8c;stroke-linecap:square;"/>
   </g>
   <g id="line2d_42">
    <path clip-path="url(#p3f34ab9e53)" d="M 252.743905 84.87249 
L 253.173628 84.87249 
L 253.173628 84.442767 
L 253.603352 84.442767 
L 253.603352 84.87249 
L 252.743905 85.302213 
L 252.314182 85.731937 
L 251.025012 86.16166 
L 250.165565 86.591383 
L 249.735842 87.021107 
L 249.306119 87.021107 
L 249.306119 87.45083 
L 249.306119 88.310277 
L 249.735842 89.599447 
L 249.735842 91.748063 
L 249.735842 94.756126 
L 249.735842 97.334466 
L 249.735842 99.912806 
L 249.735842 102.061423 
L 250.165565 103.780316 
L 251.025012 104.639763 
L 252.314182 105.069486 
L 254.033075 105.069486 
L 256.181692 104.639763 
L 257.900585 103.780316 
L 258.760032 103.780316 
" style="fill:none;stroke:#8c8c8c;stroke-linecap:square;"/>
   </g>
   <g id="line2d_43">
    <path clip-path="url(#p3f34ab9e53)" d="M 270.362561 88.310277 
L 269.932838 88.310277 
L 269.503115 88.310277 
L 268.643668 88.74 
L 266.924775 89.599447 
L 265.635605 90.888617 
L 265.205881 93.466957 
L 265.635605 95.615573 
L 266.924775 97.76419 
L 269.073391 99.05336 
L 270.792285 99.05336 
" style="fill:none;stroke:#8c8c8c;stroke-linecap:square;"/>
   </g>
   <g id="line2d_44">
    <path clip-path="url(#p3f34ab9e53)" d="M 275.948964 91.31834 
L 275.948964 90.888617 
L 275.089518 90.888617 
L 274.659794 90.888617 
L 274.230071 90.888617 
L 273.800348 91.748063 
L 273.370625 92.60751 
L 274.230071 94.326403 
L 275.519241 95.615573 
L 276.808411 96.045296 
L 278.527304 95.615573 
L 280.246198 94.326403 
L 280.675921 92.60751 
L 280.675921 90.888617 
L 279.816474 89.599447 
L 278.527304 89.169723 
L 276.808411 89.599447 
L 275.519241 90.02917 
L 275.089518 90.458893 
" style="fill:none;stroke:#8c8c8c;stroke-linecap:square;"/>
   </g>
   <g id="line2d_45">
    <path clip-path="url(#p3f34ab9e53)" d="M 284.543431 91.748063 
L 284.973154 91.748063 
L 285.402877 91.748063 
L 285.832601 91.748063 
L 286.692047 92.177787 
L 287.551494 92.60751 
L 287.121771 93.466957 
L 286.692047 94.326403 
L 285.832601 95.615573 
L 284.973154 96.045296 
L 284.973154 96.47502 
L 285.402877 96.47502 
L 286.262324 96.904743 
L 287.551494 97.76419 
L 288.840664 98.623636 
L 289.270387 99.912806 
L 289.270387 101.201976 
L 287.981217 102.061423 
L 286.692047 102.061423 
L 284.543431 101.201976 
L 283.683984 100.772253 
" style="fill:none;stroke:#8c8c8c;stroke-linecap:square;"/>
   </g>
   <g id="line2d_46">
    <path clip-path="url(#p3f34ab9e53)" d="M 290.129834 86.16166 
L 289.700111 86.16166 
L 290.989281 86.16166 
L 291.848727 86.16166 
L 292.278451 86.16166 
" style="fill:none;stroke:#8c8c8c;stroke-linecap:square;"/>
   </g>
   <g id="line2d_47">
    <path clip-path="url(#p3f34ab9e53)" d="M 293.137897 81.434704 
L 293.137897 81.00498 
L 293.567621 81.00498 
L 294.856791 80.575257 
L 296.14596 80.145534 
L 297.005407 80.145534 
L 297.864854 80.145534 
L 298.294577 80.145534 
L 298.7243 80.145534 
L 298.7243 80.575257 
L 298.7243 81.00498 
L 299.154024 81.434704 
L 299.154024 82.723874 
L 299.154024 84.87249 
L 299.583747 87.021107 
L 300.01347 89.169723 
L 300.443194 92.177787 
L 301.30264 94.326403 
L 301.732364 95.615573 
L 302.162087 96.904743 
L 302.162087 97.334466 
L 302.59181 97.76419 
L 302.59181 98.193913 
L 302.59181 98.623636 
L 302.59181 99.05336 
L 302.162087 99.483083 
L 300.443194 100.34253 
L 298.7243 100.772253 
L 297.005407 101.201976 
L 296.575684 101.201976 
" style="fill:none;stroke:#8c8c8c;stroke-linecap:square;"/>
   </g>
   <g id="line2d_48">
    <path clip-path="url(#p3f34ab9e53)" d="M 210.63102 115.382846 
L 210.201296 115.382846 
L 209.771573 115.812569 
L 211.490466 115.812569 
L 218.36604 115.382846 
L 231.687462 114.093676 
L 241.141375 113.663953 
L 249.735842 114.523399 
L 254.033075 116.242292 
L 257.470862 117.531462 
L 257.900585 117.531462 
L 258.330308 117.531462 
" style="fill:none;stroke:#8c8c8c;stroke-linecap:square;"/>
   </g>
   <g id="line2d_49">
    <path clip-path="url(#p3f34ab9e53)" d="M 235.125249 125.266482 
L 234.695526 124.836759 
L 234.695526 124.407036 
L 234.695526 124.836759 
L 234.695526 125.266482 
L 234.695526 126.125929 
L 234.695526 128.704269 
L 234.695526 133.001502 
L 234.265802 136.869012 
L 233.836079 138.587905 
L 233.406356 138.587905 
" style="fill:none;stroke:#8c8c8c;stroke-linecap:square;"/>
   </g>
   <g id="line2d_50">
    <path clip-path="url(#p3f34ab9e53)" d="M 248.446672 113.234229 
L 248.876395 113.234229 
L 249.306119 113.234229 
L 249.735842 113.234229 
L 249.735842 113.663953 
L 250.165565 113.663953 
L 250.595289 113.663953 
L 251.025012 113.663953 
L 251.454735 113.663953 
L 251.884458 113.663953 
L 252.314182 113.663953 
L 252.743905 113.663953 
L 253.603352 113.663953 
L 254.033075 113.663953 
L 254.462798 113.663953 
L 254.892522 113.663953 
L 255.322245 113.234229 
L 256.181692 113.234229 
L 256.611415 113.234229 
L 257.470862 112.804506 
L 258.330308 112.804506 
L 258.760032 112.804506 
L 259.189755 112.804506 
L 260.049202 112.374783 
L 260.908648 112.374783 
L 261.338372 112.374783 
L 261.768095 111.945059 
L 262.627542 111.945059 
L 263.057265 111.945059 
L 263.916711 111.945059 
L 264.346435 111.945059 
L 264.776158 111.945059 
L 265.205881 111.945059 
L 266.065328 111.945059 
L 266.495051 111.945059 
L 267.354498 111.945059 
L 267.784221 111.945059 
L 268.643668 111.945059 
L 269.073391 111.945059 
L 269.932838 111.945059 
L 270.362561 111.945059 
L 271.222008 111.945059 
L 271.651731 111.945059 
L 272.511178 111.945059 
L 273.370625 111.945059 
L 273.800348 111.945059 
L 274.659794 111.515336 
L 275.519241 111.515336 
L 275.948964 111.515336 
L 276.378688 111.515336 
L 276.808411 111.515336 
L 277.667858 111.515336 
L 278.097581 111.515336 
L 278.527304 111.515336 
L 278.957028 111.515336 
L 279.816474 111.515336 
L 280.246198 111.515336 
L 280.675921 111.515336 
L 281.535368 111.515336 
L 281.965091 111.515336 
L 282.824538 111.515336 
L 283.254261 111.515336 
L 284.113708 111.085613 
L 284.973154 111.085613 
L 285.402877 111.085613 
L 286.262324 111.085613 
L 287.121771 111.085613 
L 287.981217 110.655889 
L 288.840664 110.655889 
L 289.270387 110.655889 
" style="fill:none;stroke:#8c8c8c;stroke-linecap:square;"/>
   </g>
   <g id="line2d_51">
    <path clip-path="url(#p3f34ab9e53)" d="M 209.34185 115.382846 
L 209.34185 114.953123 
L 209.771573 114.953123 
L 209.771573 115.382846 
L 209.34185 115.382846 
L 208.912126 115.382846 
L 208.912126 115.812569 
L 208.482403 115.812569 
L 208.05268 115.812569 
L 207.622957 116.242292 
L 207.193233 116.242292 
L 206.333787 116.242292 
L 205.904063 116.672016 
L 205.47434 116.672016 
L 204.614893 116.672016 
L 204.18517 116.672016 
L 203.325723 116.672016 
L 202.466277 116.672016 
L 202.036553 116.672016 
L 201.177107 116.672016 
L 200.31766 116.672016 
L 199.887937 116.672016 
L 199.02849 116.672016 
L 198.598767 116.672016 
L 198.169043 116.672016 
L 197.73932 117.101739 
L 197.309597 117.101739 
L 196.879874 117.101739 
L 196.45015 117.101739 
L 196.020427 117.101739 
L 195.590704 117.101739 
L 195.590704 117.531462 
L 195.16098 117.531462 
L 194.731257 117.531462 
L 194.301534 117.531462 
L 194.301534 117.101739 
" style="fill:none;stroke:#8c8c8c;stroke-linecap:square;"/>
   </g>
   <g id="line2d_52">
    <path clip-path="url(#p3f34ab9e53)" d="M 284.543431 85.731937 
L 284.543431 85.302213 
L 284.543431 84.87249 
L 284.543431 84.442767 
L 284.973154 84.442767 
L 285.402877 84.442767 
L 285.832601 84.013043 
L 285.832601 84.442767 
L 286.262324 84.442767 
L 286.262324 84.87249 
L 286.262324 85.302213 
L 286.262324 85.731937 
L 286.262324 86.16166 
L 286.262324 86.591383 
L 286.262324 87.021107 
L 286.262324 87.45083 
L 285.832601 87.45083 
L 285.832601 87.880553 
L 285.832601 88.310277 
L 285.402877 88.310277 
L 285.402877 88.74 
L 285.832601 88.74 
L 286.262324 88.74 
L 286.692047 88.74 
L 287.121771 88.74 
L 287.551494 88.74 
L 287.981217 88.74 
L 288.410941 88.74 
L 288.840664 88.310277 
" style="fill:none;stroke:#8c8c8c;stroke-linecap:square;"/>
   </g>
   <g id="line2d_53">
    <path clip-path="url(#p3f34ab9e53)" d="M 346.853312 28.149012 
L 346.853312 27.719289 
L 347.283036 27.719289 
L 347.712759 27.719289 
L 348.142482 27.719289 
L 348.142482 27.289565 
L 348.572206 27.289565 
L 349.431652 27.719289 
L 349.861375 27.719289 
L 349.861375 28.149012 
L 349.861375 28.578735 
L 349.861375 29.008458 
L 349.861375 29.438182 
L 349.861375 29.867905 
L 349.861375 30.297628 
L 349.431652 31.157075 
L 349.431652 31.586798 
L 349.001929 32.016522 
L 348.572206 32.875968 
L 348.572206 33.305692 
L 348.142482 33.735415 
L 347.712759 33.735415 
L 347.712759 34.165138 
L 347.712759 34.594862 
L 348.572206 34.594862 
L 349.431652 34.594862 
L 350.291099 34.165138 
L 351.150545 34.165138 
L 351.580269 34.165138 
L 352.439715 34.165138 
" style="fill:none;stroke:#8c8c8c;stroke-linecap:square;"/>
   </g>
   <g id="line2d_54">
    <path clip-path="url(#p3f34ab9e53)" d="M 27.998609 177.692727 
L 28.428332 177.692727 
L 28.428332 178.122451 
L 28.858055 178.122451 
L 29.287779 178.122451 
L 29.717502 178.122451 
L 30.147225 178.122451 
L 30.576949 178.122451 
L 31.866119 178.122451 
L 32.725565 178.122451 
L 34.014735 178.122451 
L 34.874182 178.122451 
L 35.303905 177.692727 
L 35.733628 177.692727 
L 36.163352 177.692727 
L 36.593075 177.692727 
L 37.022798 177.692727 
L 37.452522 178.122451 
L 37.882245 178.122451 
L 37.882245 178.552174 
L 38.311968 178.552174 
L 37.882245 178.122451 
L 37.882245 177.692727 
L 37.882245 177.263004 
L 37.452522 176.833281 
L 37.022798 176.403557 
L 36.593075 175.114387 
L 36.163352 174.254941 
L 35.733628 173.395494 
L 35.303905 172.106324 
L 34.874182 171.246877 
L 34.444458 170.387431 
L 34.014735 169.527984 
L 33.585012 168.668538 
L 33.155289 167.809091 
L 33.155289 167.379368 
L 32.725565 166.949644 
L 32.295842 166.090198 
L 32.295842 165.660474 
L 31.866119 164.801028 
L 31.866119 164.371304 
L 31.866119 163.511858 
L 32.295842 162.652411 
L 33.155289 161.363241 
L 34.014735 160.933518 
L 34.874182 160.503794 
L 36.593075 160.503794 
L 37.452522 160.503794 
L 39.171415 160.933518 
L 40.460585 161.792964 
L 41.320032 162.222688 
L 42.609202 163.082134 
L 43.468648 164.371304 
L 44.328095 165.660474 
L 45.187542 166.519921 
L 45.617265 167.809091 
L 46.476711 169.098261 
L 46.476711 170.387431 
L 46.476711 171.246877 
L 46.476711 172.536047 
L 46.476711 173.395494 
L 46.476711 174.684664 
L 45.617265 175.544111 
L 45.187542 176.403557 
L 45.187542 176.833281 
L 44.757818 177.263004 
L 43.898372 177.263004 
L 43.898372 177.692727 
L 43.468648 178.122451 
L 43.038925 178.122451 
L 42.609202 178.122451 
L 43.038925 178.122451 
L 43.468648 178.122451 
L 44.757818 178.122451 
L 46.046988 177.692727 
L 47.336158 177.692727 
L 48.625328 177.692727 
L 49.914498 178.122451 
L 50.773945 178.122451 
L 51.203668 178.122451 
L 51.633391 178.552174 
L 52.063115 178.552174 
L 52.492838 178.552174 
" style="fill:none;stroke:#8c8c8c;stroke-linecap:square;"/>
   </g>
   <g id="line2d_55">
    <path clip-path="url(#p3f34ab9e53)" d="M 61.946751 175.114387 
L 62.376474 175.114387 
L 62.376474 175.544111 
L 62.806198 175.544111 
L 62.806198 175.973834 
L 63.235921 175.973834 
L 63.235921 176.403557 
L 63.665644 176.403557 
L 63.665644 176.833281 
L 63.665644 177.263004 
L 63.235921 178.552174 
L 63.235921 179.841344 
L 62.806198 180.271067 
" style="fill:none;stroke:#8c8c8c;stroke-linecap:square;"/>
   </g>
   <g id="line2d_56">
    <path clip-path="url(#p3f34ab9e53)" d="M 75.268174 166.949644 
L 75.268174 167.379368 
L 74.838451 167.379368 
L 74.408727 167.379368 
L 73.549281 167.809091 
L 72.260111 168.668538 
L 71.400664 169.527984 
L 70.541217 170.387431 
L 70.541217 170.817154 
L 71.400664 171.246877 
L 72.260111 171.246877 
L 74.408727 171.676601 
L 76.127621 172.106324 
L 77.416791 172.965771 
L 77.846514 173.825217 
L 77.846514 174.684664 
L 77.416791 175.544111 
L 76.557344 175.973834 
L 75.268174 175.973834 
L 74.838451 175.544111 
" style="fill:none;stroke:#8c8c8c;stroke-linecap:square;"/>
   </g>
   <g id="line2d_57">
    <path clip-path="url(#p3f34ab9e53)" d="M 80.424854 169.957708 
L 80.424854 169.527984 
L 80.854577 169.527984 
L 80.424854 169.527984 
L 79.565407 170.387431 
L 79.135684 171.676601 
L 78.70596 172.106324 
L 78.70596 172.536047 
L 79.565407 172.106324 
L 80.424854 171.246877 
L 81.2843 169.527984 
L 81.714024 169.098261 
L 82.143747 168.238814 
L 82.57347 168.238814 
L 82.57347 168.668538 
L 82.57347 169.527984 
L 82.57347 171.246877 
L 83.003194 172.965771 
L 83.432917 174.254941 
L 83.432917 174.684664 
L 83.432917 174.254941 
" style="fill:none;stroke:#8c8c8c;stroke-linecap:square;"/>
   </g>
   <g id="line2d_58">
    <path clip-path="url(#p3f34ab9e53)" d="M 85.15181 168.668538 
L 85.15181 168.238814 
L 85.15181 167.809091 
L 85.581534 167.809091 
L 85.581534 168.238814 
L 85.581534 169.098261 
L 86.011257 171.676601 
L 86.44098 172.965771 
L 86.870704 174.254941 
L 86.870704 174.684664 
" style="fill:none;stroke:#8c8c8c;stroke-linecap:square;"/>
   </g>
   <g id="line2d_59">
    <path clip-path="url(#p3f34ab9e53)" d="M 85.15181 171.676601 
L 84.722087 171.676601 
L 84.722087 171.246877 
L 85.15181 171.246877 
L 86.011257 170.817154 
L 87.300427 170.817154 
L 88.159874 170.387431 
L 89.01932 169.957708 
L 89.449043 169.527984 
" style="fill:none;stroke:#8c8c8c;stroke-linecap:square;"/>
   </g>
   <g id="line2d_60">
    <path clip-path="url(#p3f34ab9e53)" d="M 89.449043 168.238814 
L 89.449043 168.668538 
L 89.878767 169.098261 
L 89.878767 169.527984 
L 90.738213 170.387431 
L 91.167937 171.246877 
L 92.027383 172.106324 
L 92.457107 172.536047 
L 92.88683 172.965771 
L 93.316553 172.536047 
L 93.316553 172.106324 
L 93.316553 171.676601 
L 93.316553 170.387431 
L 93.746277 169.098261 
L 93.746277 168.238814 
L 94.176 167.379368 
" style="fill:none;stroke:#8c8c8c;stroke-linecap:square;"/>
   </g>
   <g id="line2d_61">
    <path clip-path="url(#p3f34ab9e53)" d="M 96.324617 168.668538 
L 96.324617 168.238814 
L 96.75434 168.238814 
L 96.75434 168.668538 
L 97.184063 169.527984 
L 98.04351 170.387431 
L 98.473233 171.246877 
L 98.473233 171.676601 
L 98.473233 171.246877 
L 98.473233 170.817154 
L 98.04351 170.817154 
L 98.04351 169.527984 
L 98.473233 169.098261 
L 99.762403 167.809091 
L 100.192126 166.949644 
L 100.62185 166.949644 
" style="fill:none;stroke:#8c8c8c;stroke-linecap:square;"/>
   </g>
   <g id="line2d_62">
    <path clip-path="url(#p3f34ab9e53)" d="M 106.208253 167.809091 
L 106.637976 167.809091 
L 106.208253 167.809091 
L 105.77853 167.809091 
L 105.348806 167.809091 
L 104.48936 168.238814 
L 103.629913 169.098261 
L 103.20019 170.387431 
L 103.20019 171.246877 
L 103.629913 171.676601 
L 104.48936 171.676601 
L 106.208253 170.387431 
L 106.637976 169.098261 
L 107.0677 167.379368 
L 107.497423 166.519921 
L 107.497423 166.090198 
L 107.0677 166.090198 
L 107.0677 166.519921 
L 107.0677 167.379368 
L 107.0677 169.527984 
L 107.0677 171.246877 
L 107.0677 172.106324 
L 107.497423 172.536047 
L 107.927146 172.536047 
L 108.35687 172.106324 
" style="fill:none;stroke:#8c8c8c;stroke-linecap:square;"/>
   </g>
   <g id="line2d_63">
    <path clip-path="url(#p3f34ab9e53)" d="M 110.075763 166.949644 
L 110.505486 165.660474 
L 110.505486 165.230751 
L 110.935209 165.660474 
L 111.364933 166.949644 
L 111.794656 169.527984 
L 112.224379 171.246877 
L 112.224379 172.106324 
" style="fill:none;stroke:#8c8c8c;stroke-linecap:square;"/>
   </g>
   <g id="line2d_64">
    <path clip-path="url(#p3f34ab9e53)" d="M 109.216316 167.379368 
L 108.786593 167.379368 
L 109.216316 167.379368 
L 109.64604 167.379368 
L 110.505486 167.809091 
L 111.794656 167.809091 
L 113.083826 167.809091 
L 114.372996 167.379368 
L 115.662166 167.379368 
L 116.091889 166.949644 
" style="fill:none;stroke:#8c8c8c;stroke-linecap:square;"/>
   </g>
   <g id="line2d_65">
    <path clip-path="url(#p3f34ab9e53)" d="M 117.381059 166.949644 
L 117.381059 167.379368 
L 117.381059 167.809091 
L 117.381059 169.098261 
L 117.381059 170.387431 
L 117.381059 171.676601 
L 117.381059 172.536047 
L 117.810783 172.965771 
" style="fill:none;stroke:#8c8c8c;stroke-linecap:square;"/>
   </g>
   <g id="line2d_66">
    <path clip-path="url(#p3f34ab9e53)" d="M 117.810783 168.668538 
L 117.810783 168.238814 
L 117.810783 166.519921 
L 117.810783 166.090198 
L 117.810783 165.660474 
L 117.810783 165.230751 
" style="fill:none;stroke:#8c8c8c;stroke-linecap:square;"/>
   </g>
   <g id="line2d_67">
    <path clip-path="url(#p3f34ab9e53)" d="M 120.389123 166.949644 
L 120.389123 167.379368 
L 120.389123 168.238814 
L 120.389123 169.098261 
L 119.959399 170.387431 
L 120.389123 171.676601 
L 120.818846 172.965771 
L 121.678292 173.395494 
L 122.537739 173.395494 
L 123.826909 172.965771 
L 124.256632 172.106324 
L 124.256632 170.387431 
L 123.397186 168.668538 
L 122.537739 167.809091 
L 121.678292 167.809091 
L 120.818846 168.238814 
L 120.389123 169.527984 
L 120.389123 169.957708 
" style="fill:none;stroke:#8c8c8c;stroke-linecap:square;"/>
   </g>
   <g id="line2d_68">
    <path clip-path="url(#p3f34ab9e53)" d="M 126.834972 171.246877 
L 127.264696 170.817154 
L 127.264696 169.957708 
L 126.834972 169.527984 
L 126.834972 169.098261 
L 126.834972 169.957708 
L 126.834972 170.817154 
L 126.834972 171.676601 
L 127.264696 171.676601 
L 127.694419 171.676601 
L 127.694419 170.817154 
L 128.124142 169.527984 
L 128.983589 168.238814 
L 129.843036 167.809091 
L 130.702482 167.809091 
L 131.561929 169.527984 
L 132.421375 171.676601 
L 132.851099 173.395494 
L 132.851099 174.254941 
L 133.280822 174.684664 
" style="fill:none;stroke:#8c8c8c;stroke-linecap:square;"/>
   </g>
   <g id="line2d_69">
    <path clip-path="url(#p3f34ab9e53)" d="M 150.040032 166.090198 
L 150.469755 166.090198 
L 150.469755 166.519921 
L 150.040032 166.519921 
L 149.610308 166.519921 
L 149.180585 166.519921 
L 148.750862 166.519921 
L 147.891415 166.949644 
L 146.602245 167.379368 
L 146.172522 168.238814 
L 147.031968 168.668538 
L 148.750862 169.098261 
L 150.469755 169.527984 
L 152.188648 171.246877 
L 152.618372 172.106324 
L 153.048095 173.825217 
L 152.188648 175.114387 
L 151.758925 175.973834 
L 150.469755 176.403557 
L 149.610308 175.973834 
L 148.750862 174.684664 
" style="fill:none;stroke:#8c8c8c;stroke-linecap:square;"/>
   </g>
   <g id="line2d_70">
    <path clip-path="url(#p3f34ab9e53)" d="M 153.477818 166.949644 
L 153.477818 166.519921 
L 153.907542 166.519921 
L 154.337265 166.519921 
L 154.766988 166.949644 
L 154.766988 167.809091 
L 155.196711 169.957708 
L 156.056158 172.106324 
L 156.915605 174.254941 
L 157.345328 175.544111 
L 157.775051 175.973834 
" style="fill:none;stroke:#8c8c8c;stroke-linecap:square;"/>
   </g>
   <g id="line2d_71">
    <path clip-path="url(#p3f34ab9e53)" d="M 153.907542 172.106324 
L 153.907542 171.676601 
L 154.337265 171.676601 
L 155.196711 171.676601 
L 156.915605 172.106324 
L 158.204775 172.106324 
L 159.493945 172.106324 
L 160.353391 171.676601 
" style="fill:none;stroke:#8c8c8c;stroke-linecap:square;"/>
   </g>
   <g id="line2d_72">
    <path clip-path="url(#p3f34ab9e53)" d="M 165.080348 170.817154 
L 164.650625 170.387431 
L 164.220901 170.387431 
L 163.791178 170.387431 
L 163.361455 170.817154 
L 162.072285 171.246877 
L 160.783115 171.676601 
L 159.923668 172.536047 
L 160.353391 173.825217 
L 161.212838 174.254941 
L 162.502008 174.684664 
L 163.791178 174.254941 
L 165.080348 173.395494 
L 165.939794 172.106324 
L 166.369518 170.817154 
L 166.369518 169.957708 
L 166.369518 169.527984 
L 166.369518 169.098261 
L 166.369518 169.527984 
L 166.369518 169.957708 
L 166.799241 170.817154 
L 166.799241 172.536047 
L 166.799241 174.254941 
L 167.228964 175.114387 
L 167.228964 175.544111 
L 167.658688 175.544111 
" style="fill:none;stroke:#8c8c8c;stroke-linecap:square;"/>
   </g>
   <g id="line2d_73">
    <path clip-path="url(#p3f34ab9e53)" d="M 169.377581 166.949644 
L 169.377581 166.519921 
L 169.377581 167.379368 
L 169.377581 169.527984 
L 169.807304 170.817154 
L 169.807304 172.536047 
L 170.237028 173.825217 
L 170.237028 174.254941 
" style="fill:none;stroke:#8c8c8c;stroke-linecap:square;"/>
   </g>
   <g id="line2d_74">
    <path clip-path="url(#p3f34ab9e53)" d="M 166.799241 170.387431 
L 166.799241 169.957708 
L 167.658688 170.387431 
L 168.947858 170.387431 
L 169.807304 170.387431 
L 171.526198 170.387431 
L 173.245091 169.957708 
L 173.674814 169.527984 
" style="fill:none;stroke:#8c8c8c;stroke-linecap:square;"/>
   </g>
   <g id="line2d_75">
    <path clip-path="url(#p3f34ab9e53)" d="M 175.393708 169.098261 
L 175.823431 168.668538 
L 175.393708 168.668538 
L 175.393708 169.098261 
L 175.823431 169.527984 
L 176.253154 169.527984 
L 177.112601 169.098261 
L 177.972047 169.098261 
L 178.401771 168.238814 
L 178.401771 167.809091 
L 178.401771 166.949644 
L 177.542324 166.949644 
L 176.682877 167.809091 
L 175.823431 169.098261 
L 175.823431 171.246877 
L 176.682877 172.965771 
L 177.972047 174.254941 
L 179.690941 174.684664 
L 180.980111 174.684664 
" style="fill:none;stroke:#8c8c8c;stroke-linecap:square;"/>
   </g>
   <g id="line2d_76">
    <path clip-path="url(#p3f34ab9e53)" d="M 260.049202 162.222688 
L 259.619478 162.222688 
L 259.619478 162.652411 
L 259.189755 162.652411 
L 259.619478 162.652411 
L 260.049202 162.652411 
L 260.908648 162.652411 
L 261.768095 162.652411 
L 262.197818 162.652411 
L 263.057265 162.652411 
L 263.916711 162.652411 
L 264.346435 162.652411 
L 264.776158 162.652411 
L 265.205881 162.652411 
L 265.635605 162.652411 
L 265.635605 162.222688 
L 265.205881 161.792964 
L 265.205881 161.363241 
L 264.346435 160.503794 
L 263.916711 159.644348 
L 262.627542 158.784901 
L 262.197818 157.495731 
L 261.768095 156.636285 
L 261.338372 156.206561 
L 261.338372 155.347115 
L 262.197818 154.057945 
L 262.627542 153.198498 
L 264.346435 152.339051 
L 265.205881 152.339051 
L 266.924775 152.339051 
L 268.643668 153.198498 
L 269.932838 154.487668 
L 270.362561 155.347115 
L 271.222008 156.636285 
L 271.651731 157.495731 
L 271.651731 158.355178 
L 271.651731 159.644348 
L 271.222008 160.933518 
L 270.362561 162.222688 
L 269.932838 163.082134 
L 269.932838 163.511858 
L 270.362561 163.941581 
L 271.651731 163.941581 
L 273.370625 163.511858 
L 275.089518 163.082134 
L 275.519241 163.082134 
" style="fill:none;stroke:#8c8c8c;stroke-linecap:square;"/>
   </g>
   <g id="line2d_77">
    <path clip-path="url(#p3f34ab9e53)" d="M 283.683984 152.768775 
L 283.254261 152.768775 
L 283.683984 152.768775 
L 284.113708 152.768775 
L 284.973154 152.768775 
L 286.692047 152.768775 
L 287.981217 152.339051 
" style="fill:none;stroke:#8c8c8c;stroke-linecap:square;"/>
   </g>
   <g id="line2d_78">
    <path clip-path="url(#p3f34ab9e53)" d="M 287.551494 157.495731 
L 286.692047 157.495731 
L 286.692047 157.925455 
L 286.262324 157.925455 
L 286.692047 157.925455 
L 287.121771 158.355178 
L 288.840664 158.355178 
L 289.700111 158.355178 
L 290.129834 158.355178 
" style="fill:none;stroke:#8c8c8c;stroke-linecap:square;"/>
   </g>
   <g id="line2d_79">
    <path clip-path="url(#p3f34ab9e53)" d="M 314.19434 131.282609 
L 314.624063 131.282609 
L 314.624063 131.712332 
L 314.19434 131.712332 
L 314.19434 132.142055 
L 313.334893 132.142055 
L 312.045723 132.571779 
L 310.32683 133.001502 
L 309.03766 133.431225 
L 308.178213 133.431225 
L 307.318767 133.860949 
L 306.889043 133.860949 
L 306.889043 134.290672 
L 306.889043 134.720395 
L 306.889043 135.150119 
L 307.318767 136.009565 
L 307.318767 137.298735 
L 307.318767 139.017628 
L 307.74849 140.306798 
L 307.74849 142.025692 
L 308.178213 142.885138 
L 308.178213 143.744585 
L 308.607937 144.174308 
L 309.03766 144.174308 
L 311.186277 143.744585 
L 313.334893 143.744585 
L 315.053787 143.314862 
L 316.342957 143.314862 
" style="fill:none;stroke:#8c8c8c;stroke-linecap:square;"/>
   </g>
   <g id="line2d_80">
    <path clip-path="url(#p3f34ab9e53)" d="M 322.788806 133.431225 
L 322.788806 133.001502 
L 322.359083 132.571779 
L 321.92936 132.571779 
L 321.499636 132.571779 
L 321.069913 133.431225 
L 319.780743 134.720395 
L 319.35102 136.439289 
L 318.921296 138.158182 
L 319.35102 139.447352 
L 320.64019 140.736522 
L 322.359083 141.595968 
L 323.648253 141.595968 
L 325.367146 141.595968 
L 325.79687 141.166245 
" style="fill:none;stroke:#8c8c8c;stroke-linecap:square;"/>
   </g>
   <g id="line2d_81">
    <path clip-path="url(#p3f34ab9e53)" d="M 330.523826 136.869012 
L 330.523826 136.439289 
L 330.523826 136.009565 
L 330.523826 135.579842 
L 330.094103 135.579842 
L 330.094103 135.150119 
L 329.664379 135.579842 
L 329.234656 135.579842 
L 328.804933 136.009565 
L 327.945486 136.869012 
L 327.515763 137.728458 
L 327.515763 138.587905 
L 327.515763 139.447352 
L 328.375209 139.877075 
L 329.664379 140.306798 
L 330.953549 139.877075 
L 331.812996 139.017628 
L 332.242719 137.728458 
L 332.242719 136.439289 
L 331.812996 135.150119 
L 331.383273 134.290672 
L 330.953549 134.290672 
L 330.953549 134.720395 
L 331.383273 134.720395 
L 331.383273 135.150119 
L 332.242719 136.869012 
L 333.102166 138.158182 
L 333.531889 139.447352 
L 333.961613 140.306798 
L 333.961613 140.736522 
" style="fill:none;stroke:#8c8c8c;stroke-linecap:square;"/>
   </g>
   <g id="line2d_82">
    <path clip-path="url(#p3f34ab9e53)" d="M 332.242719 129.563715 
L 332.242719 129.133992 
L 332.672443 129.133992 
L 333.531889 128.704269 
L 334.821059 128.274545 
L 335.680506 128.274545 
L 336.110229 128.274545 
L 336.110229 129.133992 
L 335.250783 129.993439 
L 334.821059 131.282609 
L 334.391336 132.142055 
L 333.961613 133.001502 
L 333.961613 133.431225 
L 334.391336 133.431225 
L 335.250783 133.860949 
L 336.539953 133.431225 
L 338.258846 133.001502 
L 339.118292 132.571779 
L 339.548016 132.571779 
" style="fill:none;stroke:#8c8c8c;stroke-linecap:square;"/>
   </g>
   <g id="line2d_83">
    <path clip-path="url(#p3f34ab9e53)" d="M 342.126356 127.415099 
L 342.126356 127.844822 
L 342.556079 127.844822 
L 342.556079 128.704269 
L 342.985802 130.423162 
L 343.415526 132.142055 
L 343.845249 133.431225 
L 344.274972 133.860949 
" style="fill:none;stroke:#8c8c8c;stroke-linecap:square;"/>
   </g>
   <g id="line2d_84">
    <path clip-path="url(#p3f34ab9e53)" d="M 341.266909 130.423162 
L 340.837186 130.423162 
L 341.266909 130.423162 
L 342.126356 130.852885 
L 343.415526 130.852885 
L 344.274972 130.423162 
L 345.564142 129.993439 
" style="fill:none;stroke:#8c8c8c;stroke-linecap:square;"/>
   </g>
   <g id="line2d_85">
    <path clip-path="url(#p3f34ab9e53)" d="M 348.142482 124.836759 
L 347.712759 124.836759 
L 347.283036 124.836759 
L 347.712759 124.836759 
L 348.142482 124.836759 
L 348.572206 124.836759 
L 350.291099 124.836759 
L 350.720822 124.836759 
L 351.150545 124.836759 
L 351.580269 124.836759 
L 352.009992 124.836759 
L 352.439715 124.836759 
L 352.439715 125.266482 
L 352.439715 125.696206 
L 352.439715 126.555652 
L 352.439715 127.844822 
L 352.439715 129.563715 
L 352.869439 131.712332 
L 353.299162 134.290672 
L 354.158609 136.869012 
L 354.588332 139.017628 
L 355.018055 139.877075 
L 355.447779 140.306798 
L 355.447779 140.736522 
L 355.447779 141.166245 
L 354.588332 141.166245 
L 354.158609 140.736522 
L 352.439715 141.166245 
L 351.150545 141.166245 
L 349.861375 141.166245 
" style="fill:none;stroke:#8c8c8c;stroke-linecap:square;"/>
   </g>
   <g id="line2d_86">
    <path clip-path="url(#p3f34ab9e53)" d="M 365.761138 123.977312 
L 365.331415 124.407036 
L 364.901692 124.407036 
L 364.471968 124.407036 
L 364.471968 124.836759 
L 363.182798 124.836759 
L 362.753075 125.266482 
L 361.893628 125.696206 
L 361.463905 125.696206 
L 361.034182 126.125929 
L 360.604458 126.125929 
L 360.174735 126.555652 
L 360.604458 126.985375 
L 360.604458 127.844822 
L 361.034182 128.704269 
L 361.463905 130.852885 
L 361.893628 132.571779 
L 361.893628 134.720395 
L 362.323352 136.009565 
L 362.323352 137.298735 
L 362.323352 138.587905 
L 362.753075 139.877075 
L 363.182798 140.736522 
L 364.471968 141.595968 
L 366.620585 141.595968 
L 367.909755 141.595968 
L 369.198925 141.166245 
L 370.917818 139.877075 
" style="fill:none;stroke:#8c8c8c;stroke-linecap:square;"/>
   </g>
   <g id="line2d_87">
    <path clip-path="url(#p3f34ab9e53)" d="M 375.644775 127.844822 
L 375.644775 127.415099 
L 375.215051 127.415099 
L 375.215051 127.844822 
L 373.925881 128.704269 
L 373.496158 129.993439 
L 373.496158 132.142055 
L 373.496158 134.720395 
L 374.355605 136.869012 
L 375.644775 137.728458 
L 377.363668 138.158182 
L 379.082561 137.728458 
L 379.082561 137.298735 
" style="fill:none;stroke:#8c8c8c;stroke-linecap:square;"/>
   </g>
   <g id="line2d_88">
    <path clip-path="url(#p3f34ab9e53)" d="M 381.660901 131.282609 
L 381.231178 131.282609 
L 381.231178 130.852885 
L 380.801455 130.852885 
L 380.371731 130.852885 
L 380.371731 131.282609 
L 379.942008 131.712332 
L 379.942008 132.571779 
L 380.371731 134.290672 
L 382.520348 136.009565 
L 383.809518 136.439289 
L 385.528411 136.439289 
L 386.817581 135.579842 
L 387.247304 133.860949 
L 386.817581 132.571779 
L 385.528411 130.852885 
L 383.809518 129.993439 
L 382.950071 129.993439 
L 382.090625 129.993439 
L 381.231178 129.993439 
" style="fill:none;stroke:#8c8c8c;stroke-linecap:square;"/>
   </g>
   <g id="line2d_89">
    <path clip-path="url(#p3f34ab9e53)" d="M 389.825644 132.571779 
L 389.395921 133.001502 
L 389.825644 133.001502 
L 390.255368 133.001502 
L 390.255368 133.431225 
L 390.685091 133.431225 
L 390.685091 133.860949 
L 391.114814 134.290672 
L 390.255368 135.579842 
L 389.825644 136.439289 
L 389.395921 136.869012 
L 389.395921 137.298735 
L 388.966198 137.298735 
L 389.395921 137.298735 
L 389.395921 137.728458 
L 390.255368 138.158182 
L 391.114814 139.017628 
L 391.974261 139.877075 
L 392.403984 140.736522 
L 392.403984 141.595968 
L 391.974261 142.025692 
L 391.114814 142.455415 
L 389.395921 142.455415 
L 388.106751 141.595968 
L 387.677028 141.166245 
" style="fill:none;stroke:#8c8c8c;stroke-linecap:square;"/>
   </g>
   <g id="line2d_90">
    <path clip-path="url(#p3f34ab9e53)" d="M 389.825644 124.407036 
L 389.395921 124.407036 
L 389.825644 123.977312 
L 390.255368 123.977312 
L 391.114814 123.977312 
L 391.974261 123.977312 
L 392.403984 124.407036 
L 392.403984 124.836759 
L 392.403984 125.696206 
L 391.544538 126.985375 
L 391.114814 128.274545 
L 390.255368 129.133992 
L 390.685091 129.563715 
L 391.114814 129.563715 
L 391.544538 129.563715 
L 393.693154 129.993439 
L 394.982324 129.993439 
L 395.412047 129.563715 
" style="fill:none;stroke:#8c8c8c;stroke-linecap:square;"/>
   </g>
   <g id="line2d_91">
    <path clip-path="url(#p3f34ab9e53)" d="M 395.841771 125.696206 
L 396.271494 125.696206 
L 396.701217 125.696206 
L 397.130941 125.696206 
L 397.990387 125.696206 
L 398.849834 125.696206 
L 399.709281 125.696206 
" style="fill:none;stroke:#8c8c8c;stroke-linecap:square;"/>
   </g>
   <g id="line2d_92">
    <path clip-path="url(#p3f34ab9e53)" d="M 400.568727 120.969249 
L 400.139004 120.969249 
L 400.998451 120.969249 
L 401.857897 120.539526 
L 402.717344 120.109802 
L 403.576791 120.109802 
L 404.006514 120.109802 
L 404.436237 120.109802 
L 404.86596 120.539526 
L 404.86596 120.969249 
L 405.295684 121.398972 
L 405.295684 122.688142 
L 405.295684 123.117866 
L 405.725407 126.555652 
L 405.725407 129.133992 
L 405.725407 130.423162 
L 406.584854 133.431225 
L 407.4443 135.150119 
L 407.4443 135.579842 
L 407.874024 136.009565 
L 407.874024 136.439289 
L 407.014577 136.439289 
L 404.86596 137.298735 
L 402.717344 137.728458 
L 400.568727 137.728458 
" style="fill:none;stroke:#8c8c8c;stroke-linecap:square;"/>
   </g>
   <g id="line2d_93">
    <path clip-path="url(#p3f34ab9e53)" d="M 337.399399 153.628221 
L 337.399399 154.057945 
L 337.829123 154.057945 
L 338.688569 154.487668 
L 343.845249 154.487668 
L 349.861375 154.487668 
L 357.166672 154.057945 
L 363.182798 154.057945 
L 368.339478 153.628221 
L 371.777265 153.628221 
L 373.496158 153.198498 
L 375.215051 152.768775 
L 375.644775 152.339051 
L 376.074498 152.339051 
" style="fill:none;stroke:#8c8c8c;stroke-linecap:square;"/>
   </g>
   <g id="line2d_94">
    <path clip-path="url(#p3f34ab9e53)" d="M 354.158609 160.074071 
L 354.158609 159.644348 
L 354.158609 160.503794 
L 354.158609 162.652411 
L 354.588332 164.801028 
L 354.588332 168.668538 
L 354.588332 171.676601 
L 354.588332 173.825217 
L 355.018055 174.684664 
L 354.588332 174.684664 
L 354.588332 173.825217 
" style="fill:none;stroke:#8c8c8c;stroke-linecap:square;"/>
   </g>
   <g id="line2d_95">
    <path clip-path="url(#p3f34ab9e53)" d="M 357.596395 161.792964 
L 357.596395 162.652411 
L 356.736949 163.941581 
L 355.877502 165.230751 
L 355.018055 166.519921 
L 354.158609 166.949644 
L 354.158609 167.379368 
L 354.158609 167.809091 
L 356.307225 168.238814 
L 358.455842 169.527984 
L 360.604458 171.246877 
L 362.323352 172.965771 
L 363.182798 173.825217 
L 363.612522 174.254941 
" style="fill:none;stroke:#8c8c8c;stroke-linecap:square;"/>
   </g>
   <g id="line2d_96">
    <path clip-path="url(#p3f34ab9e53)" d="M 366.620585 168.238814 
L 366.190862 168.238814 
L 366.190862 168.668538 
L 365.761138 169.098261 
L 364.901692 169.527984 
L 364.901692 169.957708 
L 364.901692 170.387431 
L 365.331415 170.387431 
L 365.761138 170.387431 
L 366.620585 170.387431 
L 367.480032 171.246877 
L 368.339478 171.676601 
L 368.769202 173.395494 
L 368.769202 174.254941 
L 367.909755 175.114387 
L 367.480032 175.114387 
L 366.620585 175.114387 
" style="fill:none;stroke:#8c8c8c;stroke-linecap:square;"/>
   </g>
   <g id="line2d_97">
    <path clip-path="url(#p3f34ab9e53)" d="M 370.917818 174.684664 
L 371.347542 174.684664 
L 371.777265 175.114387 
L 372.206988 175.114387 
L 373.066435 174.684664 
L 373.496158 174.254941 
L 373.925881 173.395494 
L 374.355605 172.536047 
L 373.925881 171.676601 
L 373.925881 170.817154 
L 373.496158 169.957708 
L 372.636711 169.527984 
L 371.777265 169.957708 
L 371.347542 170.387431 
L 370.488095 172.106324 
L 370.488095 174.254941 
L 370.488095 176.833281 
L 370.488095 179.411621 
L 370.917818 182.419684 
L 371.347542 185.427747 
L 371.777265 186.716917 
L 371.777265 188.006087 
L 371.777265 188.43581 
L 371.777265 188.006087 
" style="fill:none;stroke:#8c8c8c;stroke-linecap:square;"/>
   </g>
   <g id="line2d_98">
    <path clip-path="url(#p3f34ab9e53)" d="M 28.858055 208.203083 
L 28.428332 208.203083 
L 28.428332 208.632806 
L 28.858055 208.632806 
L 29.287779 208.632806 
L 29.717502 208.632806 
L 30.147225 208.632806 
L 30.576949 208.632806 
L 31.006672 208.632806 
L 31.866119 208.632806 
L 32.725565 208.632806 
L 33.155289 208.632806 
L 33.585012 208.632806 
L 34.444458 208.632806 
L 34.874182 208.203083 
L 34.444458 207.77336 
L 34.444458 207.343636 
L 34.444458 206.913913 
L 34.014735 206.48419 
L 34.014735 206.054466 
L 33.585012 204.335573 
L 33.585012 203.046403 
L 33.585012 202.61668 
L 34.014735 200.468063 
L 34.444458 200.03834 
L 34.874182 199.608617 
L 36.163352 199.608617 
L 37.882245 200.03834 
L 38.741692 200.897787 
L 39.601138 201.757233 
L 40.030862 203.046403 
L 40.460585 203.90585 
L 40.460585 206.913913 
L 40.030862 207.77336 
L 40.030862 208.632806 
L 40.030862 209.06253 
L 40.030862 209.492253 
L 40.460585 209.492253 
L 40.890308 209.492253 
L 41.320032 209.492253 
L 42.179478 209.492253 
L 43.038925 209.492253 
L 43.468648 209.492253 
" style="fill:none;stroke:#8c8c8c;stroke-linecap:square;"/>
   </g>
   <g id="line2d_99">
    <path clip-path="url(#p3f34ab9e53)" d="M 49.055051 200.897787 
L 48.625328 201.32751 
L 49.055051 201.32751 
L 49.484775 200.897787 
L 49.914498 200.897787 
L 50.344221 200.897787 
L 51.203668 200.897787 
" style="fill:none;stroke:#8c8c8c;stroke-linecap:square;"/>
   </g>
   <g id="line2d_100">
    <path clip-path="url(#p3f34ab9e53)" d="M 49.914498 204.765296 
L 49.484775 205.19502 
L 49.484775 205.624743 
L 49.914498 205.624743 
L 50.344221 205.624743 
L 50.773945 205.624743 
L 51.633391 205.624743 
L 52.492838 205.19502 
L 52.922561 205.19502 
" style="fill:none;stroke:#8c8c8c;stroke-linecap:square;"/>
   </g>
   <g id="line2d_101">
    <path clip-path="url(#p3f34ab9e53)" d="M 60.657581 196.600553 
L 60.657581 197.030277 
L 61.087304 197.030277 
L 61.087304 197.46 
L 61.087304 199.178893 
L 61.517028 201.32751 
L 61.946751 203.476126 
L 61.946751 204.335573 
L 62.376474 204.765296 
" style="fill:none;stroke:#8c8c8c;stroke-linecap:square;"/>
   </g>
   <g id="line2d_102">
    <path clip-path="url(#p3f34ab9e53)" d="M 71.830387 206.913913 
L 71.830387 207.343636 
L 71.830387 207.77336 
L 71.830387 208.632806 
L 71.830387 209.921976 
L 71.400664 210.781423 
L 70.970941 212.070593 
L 70.111494 213.359763 
" style="fill:none;stroke:#8c8c8c;stroke-linecap:square;"/>
   </g>
   <g id="line2d_103">
    <path clip-path="url(#p3f34ab9e53)" d="M 88.159874 200.03834 
L 88.159874 200.468063 
L 88.589597 200.468063 
L 88.589597 200.897787 
L 89.449043 200.897787 
L 90.738213 200.897787 
L 91.59766 200.897787 
L 92.457107 200.468063 
L 92.88683 200.03834 
L 92.88683 199.608617 
L 92.88683 199.178893 
L 91.59766 198.74917 
L 90.738213 199.608617 
L 89.449043 200.897787 
L 88.589597 202.61668 
L 88.589597 203.90585 
L 89.878767 205.624743 
L 91.167937 205.624743 
L 92.457107 205.19502 
L 93.746277 204.765296 
" style="fill:none;stroke:#8c8c8c;stroke-linecap:square;"/>
   </g>
   <g id="line2d_104">
    <path clip-path="url(#p3f34ab9e53)" d="M 99.762403 200.468063 
L 99.762403 200.03834 
L 99.33268 200.03834 
L 98.902957 200.03834 
L 98.473233 200.468063 
L 98.04351 200.468063 
L 97.184063 201.32751 
L 96.324617 202.186957 
L 95.894893 203.046403 
L 95.894893 203.90585 
L 96.324617 204.335573 
L 97.184063 204.335573 
L 98.04351 203.046403 
L 98.473233 202.61668 
" style="fill:none;stroke:#8c8c8c;stroke-linecap:square;"/>
   </g>
   <g id="line2d_105">
    <path clip-path="url(#p3f34ab9e53)" d="M 99.762403 200.03834 
L 99.762403 199.608617 
L 99.762403 200.03834 
L 99.762403 200.468063 
L 99.762403 200.897787 
L 100.192126 202.61668 
L 100.192126 205.19502 
L 100.192126 207.77336 
L 100.192126 209.06253 
L 100.62185 209.921976 
" style="fill:none;stroke:#8c8c8c;stroke-linecap:square;"/>
   </g>
   <g id="line2d_106">
    <path clip-path="url(#p3f34ab9e53)" d="M 102.770466 200.468063 
L 102.770466 200.897787 
L 102.770466 201.32751 
L 102.770466 202.186957 
L 102.770466 202.61668 
L 103.20019 203.90585 
L 104.059636 203.90585 
L 104.919083 203.90585 
L 105.77853 203.046403 
L 105.77853 202.186957 
L 106.208253 200.897787 
L 106.208253 200.468063 
" style="fill:none;stroke:#8c8c8c;stroke-linecap:square;"/>
   </g>
   <g id="line2d_107">
    <path clip-path="url(#p3f34ab9e53)" d="M 107.497423 199.608617 
L 107.927146 200.03834 
L 107.927146 200.468063 
L 108.35687 200.897787 
L 108.786593 202.61668 
L 109.216316 203.90585 
L 109.216316 204.335573 
L 109.64604 204.765296 
" style="fill:none;stroke:#8c8c8c;stroke-linecap:square;"/>
   </g>
   <g id="line2d_108">
    <path clip-path="url(#p3f34ab9e53)" d="M 109.216316 197.46 
L 109.216316 197.030277 
L 109.216316 196.600553 
" style="fill:none;stroke:#8c8c8c;stroke-linecap:square;"/>
   </g>
   <g id="line2d_109">
    <path clip-path="url(#p3f34ab9e53)" d="M 111.794656 194.88166 
L 111.794656 195.311383 
L 112.224379 195.311383 
L 112.224379 196.17083 
L 112.224379 196.600553 
L 112.654103 197.889723 
L 113.083826 200.897787 
L 113.083826 203.046403 
L 113.513549 203.90585 
L 113.513549 204.335573 
" style="fill:none;stroke:#8c8c8c;stroke-linecap:square;"/>
   </g>
   <g id="line2d_110">
    <path clip-path="url(#p3f34ab9e53)" d="M 117.810783 200.897787 
L 118.240506 201.32751 
L 118.240506 201.757233 
L 118.240506 202.186957 
L 118.240506 202.61668 
" style="fill:none;stroke:#8c8c8c;stroke-linecap:square;"/>
   </g>
   <g id="line2d_111">
    <path clip-path="url(#p3f34ab9e53)" d="M 119.529676 192.30332 
L 119.529676 192.733043 
L 119.959399 193.59249 
L 120.389123 194.88166 
L 120.389123 195.741107 
L 120.818846 198.319447 
L 121.248569 199.608617 
L 121.678292 200.897787 
L 121.678292 201.32751 
L 121.678292 201.757233 
L 122.108016 200.897787 
L 122.537739 200.03834 
L 123.397186 198.74917 
L 123.397186 198.319447 
L 123.826909 198.319447 
L 124.686356 198.319447 
L 125.545802 198.74917 
L 125.545802 199.178893 
L 125.975526 200.468063 
L 125.116079 202.186957 
L 124.686356 203.046403 
L 122.967462 203.90585 
L 122.537739 203.476126 
L 121.678292 203.046403 
L 121.248569 202.186957 
" style="fill:none;stroke:#8c8c8c;stroke-linecap:square;"/>
   </g>
   <g id="line2d_112">
    <path clip-path="url(#p3f34ab9e53)" d="M 126.834972 198.74917 
L 126.834972 199.178893 
L 126.834972 199.608617 
L 127.264696 200.03834 
L 127.694419 201.32751 
L 128.124142 201.757233 
L 128.553866 202.61668 
L 128.553866 203.046403 
L 128.553866 202.186957 
L 128.124142 200.897787 
L 128.553866 199.608617 
L 128.983589 197.889723 
L 129.413312 197.889723 
" style="fill:none;stroke:#8c8c8c;stroke-linecap:square;"/>
   </g>
   <g id="line2d_113">
    <path clip-path="url(#p3f34ab9e53)" d="M 134.140269 197.889723 
L 134.140269 198.319447 
L 134.140269 199.178893 
L 134.569992 200.03834 
L 134.569992 200.897787 
L 134.569992 201.32751 
L 134.569992 200.897787 
" style="fill:none;stroke:#8c8c8c;stroke-linecap:square;"/>
   </g>
   <g id="line2d_114">
    <path clip-path="url(#p3f34ab9e53)" d="M 138.437502 196.17083 
L 138.437502 196.600553 
L 138.437502 197.46 
L 138.437502 198.74917 
L 138.867225 200.468063 
L 139.296949 201.32751 
L 140.156395 201.757233 
L 141.015842 201.757233 
L 141.445565 200.468063 
L 141.875289 199.608617 
L 141.875289 197.889723 
L 141.445565 197.030277 
L 141.445565 196.600553 
" style="fill:none;stroke:#8c8c8c;stroke-linecap:square;"/>
   </g>
   <g id="line2d_115">
    <path clip-path="url(#p3f34ab9e53)" d="M 144.023905 197.030277 
L 144.453628 197.030277 
L 144.453628 197.46 
L 144.883352 197.889723 
L 145.313075 199.178893 
L 145.313075 200.468063 
L 145.742798 201.757233 
L 145.742798 202.186957 
L 146.172522 202.61668 
L 146.172522 202.186957 
L 146.172522 201.757233 
L 146.602245 200.03834 
L 147.031968 198.74917 
L 147.461692 197.889723 
L 148.321138 197.889723 
L 148.750862 197.889723 
L 148.750862 198.319447 
L 149.180585 199.608617 
L 149.180585 200.03834 
L 149.180585 200.468063 
L 149.610308 200.468063 
L 149.610308 200.03834 
L 150.040032 199.178893 
L 150.469755 198.319447 
L 150.899478 198.319447 
L 151.329202 198.319447 
L 151.329202 198.74917 
L 151.758925 199.608617 
L 151.758925 200.468063 
L 152.188648 201.32751 
L 151.758925 201.757233 
" style="fill:none;stroke:#8c8c8c;stroke-linecap:square;"/>
   </g>
   <g id="line2d_116">
    <path clip-path="url(#p3f34ab9e53)" d="M 135.429439 189.295257 
L 134.999715 189.295257 
L 134.999715 189.72498 
" style="fill:none;stroke:#8c8c8c;stroke-linecap:square;"/>
   </g>
   <g id="line2d_117">
    <path clip-path="url(#p3f34ab9e53)" d="M 115.232443 194.451937 
L 115.232443 194.88166 
" style="fill:none;stroke:#8c8c8c;stroke-linecap:square;"/>
   </g>
   <g id="line2d_118">
    <path clip-path="url(#p3f34ab9e53)" d="M 159.064221 203.90585 
L 159.493945 203.90585 
L 159.493945 204.335573 
L 159.923668 204.335573 
L 159.923668 204.765296 
L 160.353391 204.765296 
L 160.353391 205.19502 
L 160.353391 205.624743 
L 160.353391 206.054466 
L 159.493945 207.343636 
L 159.064221 208.632806 
L 158.634498 209.06253 
L 158.634498 208.632806 
" style="fill:none;stroke:#8c8c8c;stroke-linecap:square;"/>
   </g>
   <g id="line2d_119">
    <path clip-path="url(#p3f34ab9e53)" d="M 169.807304 197.46 
L 170.237028 197.46 
L 169.807304 197.46 
L 169.377581 197.46 
L 169.377581 197.889723 
L 168.947858 197.889723 
L 168.518134 198.319447 
L 168.088411 198.319447 
L 167.658688 198.74917 
L 167.658688 199.178893 
L 168.088411 199.178893 
L 168.947858 199.608617 
L 169.807304 200.03834 
L 170.666751 200.897787 
L 171.096474 201.757233 
L 171.955921 202.61668 
L 171.526198 203.476126 
L 171.096474 204.335573 
L 170.237028 204.765296 
L 169.377581 204.765296 
L 168.947858 204.335573 
L 168.947858 203.90585 
" style="fill:none;stroke:#8c8c8c;stroke-linecap:square;"/>
   </g>
   <g id="line2d_120">
    <path clip-path="url(#p3f34ab9e53)" d="M 174.104538 199.178893 
L 174.534261 199.178893 
L 174.104538 199.178893 
L 174.104538 199.608617 
L 173.674814 199.608617 
L 173.245091 200.468063 
L 172.815368 201.32751 
L 172.815368 202.186957 
L 173.245091 202.61668 
L 174.104538 202.186957 
L 174.963984 201.757233 
L 175.393708 200.897787 
L 175.823431 200.03834 
L 176.253154 199.178893 
L 176.253154 198.74917 
L 176.253154 199.178893 
L 176.253154 199.608617 
L 176.682877 200.468063 
L 176.682877 201.757233 
L 176.682877 203.046403 
L 177.112601 204.335573 
L 177.542324 204.765296 
L 177.542324 204.335573 
" style="fill:none;stroke:#8c8c8c;stroke-linecap:square;"/>
   </g>
   <g id="line2d_121">
    <path clip-path="url(#p3f34ab9e53)" d="M 179.261217 198.74917 
L 179.690941 198.74917 
L 179.690941 199.178893 
L 180.120664 200.03834 
L 180.550387 201.32751 
L 180.980111 202.61668 
L 181.409834 203.90585 
L 181.839557 204.335573 
" style="fill:none;stroke:#8c8c8c;stroke-linecap:square;"/>
   </g>
   <g id="line2d_122">
    <path clip-path="url(#p3f34ab9e53)" d="M 178.831494 200.897787 
L 178.401771 200.897787 
L 177.972047 200.897787 
L 177.972047 201.32751 
L 178.401771 201.32751 
L 178.831494 201.32751 
L 179.690941 201.32751 
L 180.980111 200.897787 
L 182.269281 200.468063 
L 183.128727 200.468063 
" style="fill:none;stroke:#8c8c8c;stroke-linecap:square;"/>
   </g>
   <g id="line2d_123">
    <path clip-path="url(#p3f34ab9e53)" d="M 183.988174 199.178893 
L 183.988174 199.608617 
L 183.988174 200.03834 
L 184.417897 200.03834 
L 184.417897 200.897787 
L 185.277344 201.757233 
L 186.136791 202.186957 
L 186.996237 202.61668 
L 187.42596 202.61668 
L 187.855684 202.61668 
L 188.285407 201.757233 
L 188.285407 201.32751 
L 188.285407 200.897787 
L 188.285407 200.468063 
L 188.285407 200.03834 
L 188.285407 199.608617 
L 188.285407 199.178893 
" style="fill:none;stroke:#8c8c8c;stroke-linecap:square;"/>
   </g>
   <g id="line2d_124">
    <path clip-path="url(#p3f34ab9e53)" d="M 189.144854 198.319447 
L 189.574577 198.74917 
L 190.434024 199.608617 
L 191.29347 200.03834 
L 191.723194 200.897787 
L 192.152917 201.757233 
L 192.152917 202.186957 
L 192.152917 202.61668 
L 192.152917 202.186957 
L 192.152917 201.757233 
L 192.152917 201.32751 
L 192.58264 200.897787 
L 193.012364 200.03834 
L 193.442087 199.608617 
" style="fill:none;stroke:#8c8c8c;stroke-linecap:square;"/>
   </g>
   <g id="line2d_125">
    <path clip-path="url(#p3f34ab9e53)" d="M 196.879874 199.178893 
L 196.879874 199.608617 
L 196.45015 200.03834 
L 196.020427 200.468063 
L 195.590704 200.897787 
L 195.16098 201.757233 
L 194.731257 202.186957 
L 195.16098 202.186957 
L 195.590704 202.61668 
L 196.020427 202.186957 
L 196.879874 201.757233 
L 197.309597 200.897787 
L 197.73932 200.03834 
L 197.73932 199.608617 
L 197.73932 199.178893 
L 197.73932 198.74917 
L 198.169043 198.74917 
L 198.169043 198.319447 
L 198.598767 199.178893 
L 199.02849 200.468063 
L 199.887937 202.186957 
L 200.31766 203.476126 
L 201.177107 204.765296 
" style="fill:none;stroke:#8c8c8c;stroke-linecap:square;"/>
   </g>
   <g id="line2d_126">
    <path clip-path="url(#p3f34ab9e53)" d="M 201.177107 196.600553 
L 201.60683 197.030277 
L 201.60683 197.46 
L 201.60683 197.889723 
L 202.036553 199.608617 
L 202.466277 200.468063 
L 202.896 201.757233 
L 203.325723 202.61668 
" style="fill:none;stroke:#8c8c8c;stroke-linecap:square;"/>
   </g>
   <g id="line2d_127">
    <path clip-path="url(#p3f34ab9e53)" d="M 201.60683 200.03834 
L 201.60683 199.608617 
L 201.177107 199.608617 
L 201.60683 199.608617 
L 202.036553 200.03834 
L 202.896 200.03834 
L 203.755447 199.608617 
L 205.044617 199.608617 
" style="fill:none;stroke:#8c8c8c;stroke-linecap:square;"/>
   </g>
   <g id="line2d_128">
    <path clip-path="url(#p3f34ab9e53)" d="M 208.05268 199.178893 
L 208.482403 199.178893 
L 208.912126 199.178893 
L 209.34185 199.178893 
L 209.771573 199.178893 
L 209.771573 198.74917 
L 210.201296 198.74917 
L 210.201296 198.319447 
L 210.201296 197.889723 
L 209.771573 197.889723 
L 208.912126 198.74917 
L 208.482403 199.608617 
L 208.482403 200.897787 
L 208.912126 201.757233 
L 209.34185 202.186957 
L 210.201296 202.61668 
" style="fill:none;stroke:#8c8c8c;stroke-linecap:square;"/>
   </g>
   <g id="line2d_129">
    <path clip-path="url(#p3f34ab9e53)" d="M 219.655209 197.46 
L 219.655209 197.030277 
L 219.225486 197.030277 
L 218.795763 197.030277 
L 218.36604 197.46 
L 217.506593 197.46 
L 216.647146 198.319447 
L 215.7877 200.03834 
L 215.357976 200.897787 
L 215.357976 201.757233 
L 215.7877 202.186957 
L 217.07687 201.757233 
L 218.795763 200.897787 
L 220.084933 199.178893 
L 220.514656 197.889723 
L 220.944379 195.741107 
L 220.944379 194.022213 
L 220.944379 192.733043 
L 220.514656 192.30332 
L 220.514656 192.733043 
L 220.514656 193.59249 
L 220.514656 195.741107 
L 220.944379 197.889723 
L 221.374103 199.608617 
L 221.803826 200.468063 
L 221.803826 200.897787 
" style="fill:none;stroke:#8c8c8c;stroke-linecap:square;"/>
   </g>
   <g id="line2d_130">
    <path clip-path="url(#p3f34ab9e53)" d="M 26.279715 235.705375 
L 26.709439 235.705375 
L 27.139162 235.705375 
L 27.568885 235.705375 
L 27.998609 235.705375 
L 29.287779 236.135099 
L 30.147225 236.135099 
L 31.006672 236.135099 
L 31.436395 236.135099 
L 31.866119 236.135099 
L 32.295842 236.135099 
L 32.725565 236.135099 
L 32.295842 236.135099 
L 32.295842 235.705375 
L 32.295842 235.275652 
L 31.866119 235.275652 
L 31.866119 234.845929 
L 31.436395 233.556759 
L 31.006672 232.697312 
L 30.576949 231.408142 
L 30.576949 230.548696 
L 30.576949 229.689249 
L 30.576949 228.829802 
L 31.436395 228.400079 
L 32.295842 227.540632 
L 33.585012 227.110909 
L 35.303905 227.540632 
L 36.163352 227.970356 
L 37.882245 228.829802 
L 38.311968 230.118972 
L 39.171415 231.408142 
L 39.171415 232.697312 
L 38.741692 234.416206 
L 38.311968 236.135099 
L 37.882245 237.424269 
L 37.452522 238.283715 
L 37.452522 238.713439 
L 37.882245 238.713439 
L 38.311968 239.143162 
L 40.030862 239.143162 
L 41.749755 238.713439 
L 43.038925 238.713439 
L 43.898372 238.713439 
" style="fill:none;stroke:#8c8c8c;stroke-linecap:square;"/>
   </g>
   <g id="line2d_131">
    <path clip-path="url(#p3f34ab9e53)" d="M 49.914498 225.821739 
L 49.914498 226.251462 
L 49.914498 226.681186 
L 49.484775 227.110909 
L 49.055051 227.970356 
L 48.195605 228.829802 
L 47.336158 230.118972 
L 46.476711 230.978419 
L 46.046988 231.408142 
L 46.046988 231.837866 
L 45.617265 231.837866 
L 45.617265 232.267589 
L 46.476711 232.267589 
L 47.336158 232.697312 
L 48.625328 233.556759 
L 49.914498 234.416206 
L 50.773945 234.845929 
L 51.203668 235.275652 
L 51.633391 235.705375 
" style="fill:none;stroke:#8c8c8c;stroke-linecap:square;"/>
   </g>
   <g id="line2d_132">
    <path clip-path="url(#p3f34ab9e53)" d="M 55.930625 225.821739 
L 55.930625 226.251462 
L 55.930625 226.681186 
L 56.360348 227.540632 
L 56.360348 228.829802 
L 56.360348 230.548696 
L 56.360348 232.267589 
L 56.360348 233.127036 
L 56.790071 233.986482 
L 56.790071 234.416206 
" style="fill:none;stroke:#8c8c8c;stroke-linecap:square;"/>
   </g>
   <g id="line2d_133">
    <path clip-path="url(#p3f34ab9e53)" d="M 69.252047 235.705375 
L 69.681771 235.705375 
L 70.111494 235.705375 
L 70.541217 235.705375 
L 70.541217 236.135099 
L 70.541217 236.994545 
L 70.111494 237.853992 
L 69.252047 239.572885 
L 68.392601 241.291779 
L 67.533154 242.151225 
" style="fill:none;stroke:#8c8c8c;stroke-linecap:square;"/>
   </g>
   <g id="line2d_134">
    <path clip-path="url(#p3f34ab9e53)" d="M 83.432917 229.259526 
L 83.432917 228.829802 
L 83.432917 228.400079 
L 83.432917 228.829802 
L 83.003194 229.259526 
L 83.432917 230.118972 
L 83.432917 230.978419 
L 84.722087 233.127036 
L 85.581534 233.986482 
L 86.011257 233.986482 
L 86.870704 233.556759 
L 87.300427 232.697312 
L 87.73015 231.408142 
L 87.73015 229.689249 
L 87.73015 228.829802 
L 87.73015 228.400079 
L 87.73015 227.970356 
" style="fill:none;stroke:#8c8c8c;stroke-linecap:square;"/>
   </g>
   <g id="line2d_135">
    <path clip-path="url(#p3f34ab9e53)" d="M 89.01932 229.259526 
L 89.449043 229.259526 
L 89.449043 229.689249 
L 89.878767 230.118972 
L 90.30849 230.978419 
L 90.738213 231.837866 
L 91.167937 232.697312 
L 91.167937 233.127036 
L 91.167937 232.697312 
L 91.59766 231.408142 
L 91.59766 230.978419 
L 92.457107 228.829802 
L 92.457107 228.400079 
L 92.88683 227.970356 
L 94.176 228.400079 
L 95.035447 229.689249 
L 95.46517 230.978419 
L 96.324617 231.837866 
L 96.75434 232.267589 
" style="fill:none;stroke:#8c8c8c;stroke-linecap:square;"/>
   </g>
   <g id="line2d_136">
    <path clip-path="url(#p3f34ab9e53)" d="M 99.33268 229.689249 
L 99.762403 229.259526 
L 99.762403 228.829802 
L 99.762403 228.400079 
L 99.33268 228.400079 
L 99.33268 228.829802 
L 98.473233 230.118972 
L 98.04351 231.408142 
L 98.04351 232.267589 
L 98.473233 233.127036 
L 99.33268 233.127036 
L 100.62185 232.697312 
L 101.051573 231.408142 
L 101.481296 229.259526 
L 101.481296 226.681186 
L 101.051573 224.102846 
L 100.62185 222.813676 
L 100.62185 221.954229 
L 100.192126 221.954229 
L 100.192126 221.954229 
L 100.62185 222.813676 
L 101.051573 224.102846 
L 102.340743 228.829802 
L 103.629913 231.837866 
L 104.48936 233.127036 
L 104.919083 233.556759 
L 105.348806 233.556759 
" style="fill:none;stroke:#8c8c8c;stroke-linecap:square;"/>
   </g>
   <g id="line2d_137">
    <path clip-path="url(#p3f34ab9e53)" d="M 106.208253 230.118972 
L 105.77853 230.118972 
L 106.208253 230.118972 
L 106.637976 229.689249 
L 107.0677 229.689249 
L 107.927146 228.829802 
L 108.35687 227.540632 
L 108.786593 226.251462 
L 108.35687 224.962292 
L 107.927146 224.532569 
L 107.0677 224.532569 
L 106.637976 225.392016 
L 106.208253 227.540632 
L 106.208253 228.829802 
L 106.637976 229.689249 
L 107.497423 230.548696 
L 108.786593 230.118972 
L 109.216316 229.689249 
L 110.075763 228.829802 
L 110.505486 228.400079 
L 110.505486 227.970356 
L 110.505486 228.400079 
L 111.364933 228.829802 
L 111.794656 229.259526 
L 112.224379 230.118972 
L 113.083826 230.978419 
L 113.513549 231.408142 
L 113.513549 231.837866 
L 113.943273 231.837866 
L 113.943273 231.408142 
L 113.513549 230.978419 
L 113.513549 229.689249 
L 113.943273 228.400079 
L 114.372996 227.540632 
L 114.802719 226.681186 
L 115.232443 225.821739 
" style="fill:none;stroke:#8c8c8c;stroke-linecap:square;"/>
   </g>
   <g id="line2d_138">
    <path clip-path="url(#p3f34ab9e53)" d="M 123.826909 224.532569 
L 123.397186 224.532569 
L 123.397186 224.962292 
L 122.537739 224.962292 
L 122.108016 225.392016 
L 122.108016 225.821739 
L 120.818846 226.681186 
L 120.389123 227.540632 
L 120.389123 228.400079 
L 120.818846 228.829802 
L 121.248569 228.829802 
L 122.108016 228.400079 
L 122.537739 228.400079 
L 122.967462 228.400079 
L 123.826909 229.259526 
L 124.686356 230.118972 
L 124.256632 231.408142 
L 123.826909 232.267589 
L 122.537739 233.127036 
L 121.678292 233.556759 
L 121.248569 233.127036 
" style="fill:none;stroke:#8c8c8c;stroke-linecap:square;"/>
   </g>
   <g id="line2d_139">
    <path clip-path="url(#p3f34ab9e53)" d="M 124.256632 229.259526 
L 124.686356 228.829802 
L 125.116079 228.829802 
L 125.116079 228.400079 
L 125.545802 228.400079 
L 125.116079 228.400079 
L 125.116079 228.829802 
L 125.116079 229.259526 
L 123.826909 231.408142 
L 123.826909 232.267589 
L 124.686356 232.697312 
L 125.116079 232.697312 
L 126.405249 232.267589 
L 126.834972 231.408142 
L 127.694419 229.689249 
L 127.694419 228.829802 
L 127.694419 227.970356 
L 127.694419 227.540632 
L 127.694419 227.970356 
L 127.694419 229.689249 
L 128.124142 231.408142 
L 128.124142 232.267589 
L 128.553866 233.556759 
L 128.553866 233.986482 
L 128.983589 233.986482 
" style="fill:none;stroke:#8c8c8c;stroke-linecap:square;"/>
   </g>
   <g id="line2d_140">
    <path clip-path="url(#p3f34ab9e53)" d="M 129.843036 227.110909 
L 129.843036 226.681186 
L 130.272759 226.251462 
L 130.702482 226.681186 
L 131.132206 227.110909 
L 131.132206 227.970356 
L 131.991652 229.689249 
L 132.851099 230.978419 
L 133.280822 231.408142 
" style="fill:none;stroke:#8c8c8c;stroke-linecap:square;"/>
   </g>
   <g id="line2d_141">
    <path clip-path="url(#p3f34ab9e53)" d="M 130.702482 229.689249 
L 130.272759 229.689249 
L 129.843036 229.689249 
L 130.702482 229.689249 
L 131.561929 228.829802 
L 131.991652 228.829802 
L 133.280822 228.400079 
L 133.710545 228.400079 
L 133.710545 227.970356 
L 134.140269 227.970356 
L 134.569992 227.540632 
L 134.999715 227.540632 
L 134.999715 227.110909 
" style="fill:none;stroke:#8c8c8c;stroke-linecap:square;"/>
   </g>
   <g id="line2d_142">
    <path clip-path="url(#p3f34ab9e53)" d="M 134.999715 227.110909 
L 134.999715 227.540632 
L 134.999715 227.970356 
L 134.999715 228.400079 
L 135.429439 228.829802 
L 135.859162 229.689249 
L 136.288885 230.118972 
L 137.578055 230.548696 
L 138.437502 230.978419 
L 139.726672 230.548696 
L 140.156395 229.689249 
L 139.726672 228.400079 
L 139.726672 227.970356 
L 139.296949 227.540632 
L 139.296949 227.110909 
" style="fill:none;stroke:#8c8c8c;stroke-linecap:square;"/>
   </g>
   <g id="line2d_143">
    <path clip-path="url(#p3f34ab9e53)" d="M 143.594182 226.681186 
L 144.453628 227.110909 
L 144.883352 227.970356 
L 145.313075 228.829802 
L 145.313075 229.259526 
L 145.313075 229.689249 
L 145.313075 229.259526 
L 144.883352 229.259526 
L 144.883352 228.829802 
L 144.453628 227.540632 
L 144.883352 226.681186 
L 145.742798 225.821739 
L 147.031968 224.962292 
" style="fill:none;stroke:#8c8c8c;stroke-linecap:square;"/>
   </g>
   <g id="line2d_144">
    <path clip-path="url(#p3f34ab9e53)" d="M 151.329202 225.821739 
L 150.899478 226.251462 
L 150.469755 226.251462 
L 150.040032 226.681186 
L 149.610308 227.540632 
L 149.180585 228.829802 
L 149.180585 229.689249 
L 150.040032 230.118972 
L 150.899478 229.259526 
L 151.758925 227.970356 
L 152.188648 226.681186 
L 152.188648 225.392016 
L 152.188648 224.102846 
L 152.188648 223.673123 
L 152.188648 224.102846 
L 152.618372 225.821739 
L 153.048095 227.540632 
L 153.048095 228.829802 
L 153.907542 230.548696 
L 154.337265 230.978419 
" style="fill:none;stroke:#8c8c8c;stroke-linecap:square;"/>
   </g>
   <g id="line2d_145">
    <path clip-path="url(#p3f34ab9e53)" d="M 158.204775 223.673123 
L 157.775051 223.243399 
L 157.775051 223.673123 
L 157.775051 224.102846 
L 157.775051 225.392016 
L 158.634498 227.110909 
L 159.064221 228.400079 
L 159.493945 228.829802 
L 159.493945 229.259526 
" style="fill:none;stroke:#8c8c8c;stroke-linecap:square;"/>
   </g>
   <g id="line2d_146">
    <path clip-path="url(#p3f34ab9e53)" d="M 156.915605 226.681186 
L 156.485881 226.681186 
L 156.915605 226.681186 
L 158.204775 226.251462 
L 159.923668 225.821739 
L 160.783115 225.821739 
L 162.072285 225.392016 
L 162.502008 224.962292 
" style="fill:none;stroke:#8c8c8c;stroke-linecap:square;"/>
   </g>
   <g id="line2d_147">
    <path clip-path="url(#p3f34ab9e53)" d="M 164.650625 224.962292 
L 164.220901 225.392016 
L 164.220901 225.821739 
L 164.650625 225.821739 
L 164.650625 226.251462 
L 165.080348 226.251462 
L 165.510071 225.821739 
L 166.799241 224.962292 
L 166.799241 224.532569 
L 167.228964 223.673123 
L 166.799241 223.673123 
L 166.369518 223.673123 
L 165.510071 224.962292 
L 165.080348 226.251462 
L 165.080348 228.400079 
L 165.510071 229.259526 
L 165.939794 229.689249 
" style="fill:none;stroke:#8c8c8c;stroke-linecap:square;"/>
   </g>
   <g id="line2d_148">
    <path clip-path="url(#p3f34ab9e53)" d="M 172.815368 225.821739 
L 173.245091 225.821739 
L 173.245091 224.962292 
L 173.245091 224.532569 
L 172.815368 224.532569 
L 172.385644 224.532569 
L 171.955921 224.532569 
L 171.096474 225.392016 
L 170.666751 227.110909 
L 170.666751 227.970356 
L 171.096474 228.829802 
L 171.955921 228.829802 
L 172.815368 227.970356 
L 173.674814 226.251462 
L 174.104538 224.102846 
L 174.534261 222.383953 
L 174.534261 220.665059 
L 174.534261 219.805613 
L 174.534261 220.235336 
L 174.963984 220.665059 
L 174.963984 221.954229 
L 175.393708 225.392016 
L 175.823431 227.540632 
L 175.823431 230.118972 
L 175.823431 230.548696 
L 175.823431 230.978419 
" style="fill:none;stroke:#8c8c8c;stroke-linecap:square;"/>
   </g>
   <g id="line2d_149">
    <path clip-path="url(#p3f34ab9e53)" d="M 26.279715 262.348221 
L 26.279715 262.777945 
L 26.709439 262.777945 
L 27.568885 262.777945 
L 29.287779 263.207668 
L 29.717502 263.207668 
L 30.576949 263.207668 
L 30.576949 262.777945 
L 30.147225 260.199605 
L 29.717502 258.480711 
L 29.717502 257.621265 
L 29.717502 256.761818 
L 29.717502 255.902372 
L 33.155289 254.613202 
L 36.163352 258.050988 
L 35.733628 261.488775 
L 34.874182 264.067115 
L 38.311968 265.356285 
" style="fill:none;stroke:#8c8c8c;stroke-linecap:square;"/>
   </g>
   <g id="line2d_150">
    <path clip-path="url(#p3f34ab9e53)" d="M 44.757818 253.753755 
L 44.328095 253.753755 
L 44.328095 254.183478 
L 44.757818 254.183478 
L 44.757818 254.613202 
L 45.187542 255.042925 
L 46.476711 255.472648 
L 47.336158 256.332095 
L 48.195605 256.761818 
L 48.625328 257.191542 
L 49.055051 257.191542 
L 49.055051 257.621265 
L 49.484775 257.621265 
L 49.055051 257.621265 
L 48.625328 258.050988 
L 48.195605 258.480711 
L 48.195605 258.910435 
L 47.336158 259.340158 
L 46.476711 260.629328 
L 46.046988 261.488775 
L 45.617265 261.918498 
" style="fill:none;stroke:#8c8c8c;stroke-linecap:square;"/>
   </g>
   <g id="line2d_151">
    <path clip-path="url(#p3f34ab9e53)" d="M 56.790071 253.753755 
L 56.790071 254.183478 
L 56.790071 254.613202 
L 56.790071 255.042925 
L 57.219794 256.332095 
L 57.649518 258.480711 
L 58.079241 259.769881 
L 58.079241 260.199605 
" style="fill:none;stroke:#8c8c8c;stroke-linecap:square;"/>
   </g>
   <g id="line2d_152">
    <path clip-path="url(#p3f34ab9e53)" d="M 66.243984 262.348221 
L 66.243984 262.777945 
L 66.673708 262.777945 
L 67.103431 263.637391 
L 67.103431 264.067115 
L 67.103431 264.926561 
L 67.103431 265.356285 
L 67.103431 266.215731 
L 66.673708 266.645455 
" style="fill:none;stroke:#8c8c8c;stroke-linecap:square;"/>
   </g>
   <g id="line2d_153">
    <path clip-path="url(#p3f34ab9e53)" d="M 90.30849 254.613202 
L 89.878767 255.042925 
L 89.878767 255.472648 
L 89.449043 255.472648 
L 89.01932 255.902372 
L 88.589597 256.332095 
L 88.159874 256.761818 
L 87.73015 257.191542 
L 88.159874 257.191542 
L 88.159874 257.621265 
L 89.449043 258.050988 
L 90.738213 258.480711 
L 92.027383 259.340158 
L 92.457107 260.199605 
L 92.457107 261.059051 
L 91.59766 262.348221 
L 90.738213 263.637391 
L 89.449043 263.637391 
L 89.449043 263.207668 
L 89.449043 262.777945 
" style="fill:none;stroke:#8c8c8c;stroke-linecap:square;"/>
   </g>
   <g id="line2d_154">
    <path clip-path="url(#p3f34ab9e53)" d="M 96.324617 258.050988 
L 96.75434 258.050988 
L 96.75434 258.480711 
L 96.75434 258.910435 
L 97.184063 259.769881 
L 98.04351 260.629328 
L 98.902957 261.059051 
L 100.192126 261.059051 
L 100.62185 260.629328 
L 101.051573 259.769881 
L 101.051573 258.910435 
L 101.051573 258.480711 
L 100.62185 258.050988 
" style="fill:none;stroke:#8c8c8c;stroke-linecap:square;"/>
   </g>
   <g id="line2d_155">
    <path clip-path="url(#p3f34ab9e53)" d="M 101.91102 258.910435 
L 102.340743 259.340158 
L 102.770466 259.769881 
L 103.20019 260.199605 
L 104.059636 260.199605 
L 104.919083 259.769881 
L 105.348806 258.910435 
L 105.77853 258.480711 
L 105.77853 258.050988 
L 105.77853 257.621265 
L 105.348806 257.191542 
L 104.48936 257.621265 
L 104.059636 258.480711 
L 103.629913 259.769881 
L 103.629913 261.918498 
L 103.629913 263.207668 
L 104.059636 264.926561 
L 104.48936 266.215731 
L 104.48936 266.645455 
L 104.919083 266.645455 
" style="fill:none;stroke:#8c8c8c;stroke-linecap:square;"/>
   </g>
   <g id="line2d_156">
    <path clip-path="url(#p3f34ab9e53)" d="M 107.0677 260.629328 
L 107.0677 260.199605 
L 107.497423 259.769881 
L 107.927146 259.769881 
L 108.35687 259.769881 
L 108.786593 259.340158 
L 110.075763 258.480711 
L 110.935209 257.621265 
L 111.364933 256.761818 
L 111.364933 255.902372 
L 110.935209 255.472648 
L 110.075763 255.472648 
L 109.64604 255.902372 
L 108.786593 257.191542 
L 108.786593 258.050988 
L 108.786593 259.340158 
L 110.075763 260.199605 
L 110.935209 260.199605 
L 112.224379 259.340158 
L 113.083826 258.910435 
L 113.943273 258.480711 
L 114.372996 258.480711 
L 115.232443 258.910435 
L 115.662166 259.340158 
L 116.521613 259.769881 
L 116.521613 260.199605 
L 116.521613 259.769881 
L 116.521613 258.910435 
L 116.951336 258.050988 
L 117.810783 256.332095 
L 119.099953 255.902372 
L 119.959399 255.042925 
" style="fill:none;stroke:#8c8c8c;stroke-linecap:square;"/>
   </g>
   <g id="line2d_157">
    <path clip-path="url(#p3f34ab9e53)" d="M 128.124142 255.902372 
L 128.553866 255.902372 
L 128.124142 256.332095 
L 127.264696 256.761818 
L 126.405249 257.191542 
L 126.405249 257.621265 
L 125.975526 258.050988 
L 126.405249 258.050988 
L 126.405249 258.480711 
L 127.264696 258.910435 
L 128.553866 259.769881 
L 129.413312 260.629328 
L 129.843036 261.918498 
L 129.843036 263.207668 
L 128.983589 264.067115 
L 128.124142 264.496838 
L 127.694419 264.496838 
L 127.694419 264.067115 
" style="fill:none;stroke:#8c8c8c;stroke-linecap:square;"/>
   </g>
   <g id="line2d_158">
    <path clip-path="url(#p3f34ab9e53)" d="M 134.140269 258.050988 
L 134.140269 257.621265 
L 134.999715 257.191542 
L 135.429439 257.191542 
L 135.429439 256.761818 
L 135.429439 257.191542 
L 134.999715 257.191542 
L 134.569992 257.621265 
L 134.140269 258.480711 
L 133.710545 258.910435 
L 134.140269 258.910435 
L 134.999715 258.910435 
L 136.288885 258.480711 
L 137.148332 258.050988 
L 138.007779 257.191542 
L 138.437502 256.761818 
L 138.437502 256.332095 
L 138.437502 257.191542 
L 138.437502 258.050988 
L 138.867225 260.199605 
L 138.867225 261.059051 
L 139.296949 261.918498 
" style="fill:none;stroke:#8c8c8c;stroke-linecap:square;"/>
   </g>
   <g id="line2d_159">
    <path clip-path="url(#p3f34ab9e53)" d="M 141.015842 256.332095 
L 141.445565 255.902372 
L 141.445565 255.472648 
L 141.445565 255.902372 
L 141.875289 256.761818 
L 142.734735 258.050988 
L 143.164458 259.340158 
L 144.023905 260.629328 
L 144.023905 261.059051 
" style="fill:none;stroke:#8c8c8c;stroke-linecap:square;"/>
   </g>
   <g id="line2d_160">
    <path clip-path="url(#p3f34ab9e53)" d="M 142.305012 259.769881 
L 141.875289 259.340158 
L 141.875289 259.769881 
L 142.305012 259.769881 
L 142.734735 259.340158 
L 143.164458 259.340158 
L 144.023905 258.910435 
L 145.313075 258.480711 
L 145.742798 258.050988 
L 147.031968 257.621265 
L 147.031968 257.191542 
" style="fill:none;stroke:#8c8c8c;stroke-linecap:square;"/>
   </g>
   <g id="line2d_161">
    <path clip-path="url(#p3f34ab9e53)" d="M 147.891415 256.761818 
L 148.321138 256.761818 
L 148.321138 257.191542 
L 148.321138 257.621265 
L 148.321138 258.050988 
L 148.750862 258.480711 
L 149.180585 259.340158 
L 150.040032 260.199605 
L 150.899478 260.629328 
L 151.329202 260.199605 
L 151.758925 259.769881 
L 151.758925 258.910435 
L 151.758925 258.050988 
L 151.329202 257.621265 
L 151.758925 257.191542 
L 152.188648 256.761818 
" style="fill:none;stroke:#8c8c8c;stroke-linecap:square;"/>
   </g>
   <g id="line2d_162">
    <path clip-path="url(#p3f34ab9e53)" d="M 156.915605 255.472648 
L 156.915605 255.902372 
L 157.345328 255.902372 
L 157.345328 256.761818 
L 157.345328 257.191542 
L 157.345328 258.050988 
L 157.775051 258.480711 
L 157.775051 258.910435 
L 157.775051 258.480711 
L 157.775051 258.050988 
L 157.775051 257.621265 
L 158.204775 257.191542 
L 158.634498 256.761818 
L 159.064221 255.902372 
L 159.923668 255.472648 
" style="fill:none;stroke:#8c8c8c;stroke-linecap:square;"/>
   </g>
   <g id="line2d_163">
    <path clip-path="url(#p3f34ab9e53)" d="M 165.510071 254.613202 
L 165.939794 254.613202 
L 165.510071 254.613202 
L 165.080348 254.613202 
L 165.080348 255.042925 
L 164.650625 255.472648 
L 163.791178 256.332095 
L 163.361455 257.191542 
L 163.361455 258.050988 
L 163.791178 258.050988 
L 164.650625 258.050988 
L 165.510071 257.191542 
L 166.369518 255.902372 
L 166.799241 255.042925 
L 167.228964 254.183478 
L 167.658688 253.753755 
L 168.088411 253.753755 
L 168.088411 255.042925 
L 168.088411 256.332095 
L 168.947858 257.621265 
L 168.947858 258.480711 
L 169.377581 258.910435 
" style="fill:none;stroke:#8c8c8c;stroke-linecap:square;"/>
   </g>
   <g id="line2d_164">
    <path clip-path="url(#p3f34ab9e53)" d="M 171.096474 252.464585 
L 171.096474 252.034862 
L 171.526198 252.034862 
L 171.526198 252.464585 
L 171.526198 252.894308 
L 171.955921 254.183478 
L 172.385644 255.042925 
L 172.815368 256.332095 
L 173.674814 256.761818 
" style="fill:none;stroke:#8c8c8c;stroke-linecap:square;"/>
   </g>
   <g id="line2d_165">
    <path clip-path="url(#p3f34ab9e53)" d="M 171.955921 255.042925 
L 171.955921 254.613202 
L 171.526198 254.613202 
L 171.526198 255.042925 
L 171.955921 255.042925 
L 172.385644 255.042925 
L 173.245091 255.042925 
L 174.963984 254.613202 
L 176.253154 254.613202 
L 178.401771 253.753755 
" style="fill:none;stroke:#8c8c8c;stroke-linecap:square;"/>
   </g>
   <g id="line2d_166">
    <path clip-path="url(#p3f34ab9e53)" d="M 181.839557 252.894308 
L 181.409834 252.894308 
L 180.980111 252.894308 
L 180.980111 253.324032 
L 180.550387 253.324032 
L 180.550387 253.753755 
L 180.980111 253.753755 
L 181.409834 253.753755 
L 182.269281 253.324032 
L 182.699004 252.894308 
L 183.558451 252.034862 
L 183.558451 251.605138 
L 183.558451 251.605138 
L 183.128727 251.605138 
L 182.699004 252.034862 
L 181.409834 253.753755 
L 180.980111 255.042925 
L 181.409834 255.902372 
L 181.409834 256.332095 
L 182.269281 256.332095 
" style="fill:none;stroke:#8c8c8c;stroke-linecap:square;"/>
   </g>
   <g id="line2d_167">
    <path clip-path="url(#p3f34ab9e53)" d="M 189.574577 252.894308 
L 189.574577 252.464585 
L 189.144854 252.464585 
L 188.71513 252.464585 
L 188.285407 252.464585 
L 187.42596 252.894308 
L 186.996237 253.753755 
L 186.996237 254.613202 
L 187.42596 255.472648 
L 187.855684 255.902372 
L 188.71513 255.902372 
L 190.0043 254.613202 
L 190.434024 253.324032 
L 191.29347 251.605138 
L 191.29347 249.886245 
L 191.29347 248.597075 
L 191.29347 247.737628 
L 191.29347 248.167352 
L 191.29347 248.597075 
L 191.29347 249.886245 
L 191.723194 252.034862 
L 191.723194 254.183478 
L 192.152917 255.902372 
L 192.152917 257.191542 
" style="fill:none;stroke:#8c8c8c;stroke-linecap:square;"/>
   </g>
   <g id="line2d_168">
    <path clip-path="url(#p3f34ab9e53)" d="M 138.437502 255.042925 
L 138.007779 255.042925 
L 138.007779 255.472648 
L 137.578055 255.472648 
L 137.148332 255.902372 
L 136.288885 256.332095 
L 135.429439 256.761818 
L 134.999715 256.761818 
L 134.569992 256.761818 
L 134.140269 256.761818 
" style="fill:none;stroke:#8c8c8c;stroke-linecap:square;"/>
   </g>
  </g>
 </g>
 <defs>
  <clipPath id="p3f34ab9e53">
   <rect height="271.8" width="419.753739" x="7.2" y="7.2"/>
  </clipPath>
 </defs>
</svg>
