<?xml version="1.0" encoding="utf-8" standalone="no"?>
<!DOCTYPE svg PUBLIC "-//W3C//DTD SVG 1.1//EN"
  "http://www.w3.org/Graphics/SVG/1.1/DTD/svg11.dtd">
<!-- Created with matplotlib (https://matplotlib.org/) -->
<svg height="286.2pt" version="1.1" viewBox="0 0 499.662439 286.2" width="499.662439pt" xmlns="http://www.w3.org/2000/svg" xmlns:xlink="http://www.w3.org/1999/xlink">
 <metadata>
  <rdf:RDF xmlns:cc="http://creativecommons.org/ns#" xmlns:dc="http://purl.org/dc/elements/1.1/" xmlns:rdf="http://www.w3.org/1999/02/22-rdf-syntax-ns#">
   <cc:Work>
    <dc:type rdf:resource="http://purl.org/dc/dcmitype/StillImage"/>
    <dc:date>2024-11-15T16:04:31.740443</dc:date>
    <dc:format>image/svg+xml</dc:format>
    <dc:creator>
     <cc:Agent>
      <dc:title>Matplotlib v3.3.4, https://matplotlib.org/</dc:title>
     </cc:Agent>
    </dc:creator>
   </cc:Work>
  </rdf:RDF>
 </metadata>
 <defs>
  <style type="text/css">*{stroke-linecap:butt;stroke-linejoin:round;}</style>
 </defs>
 <g id="figure_1">
  <g id="patch_1">
   <path d="M 0 286.2 
L 499.662439 286.2 
L 499.662439 0 
L 0 0 
z
" style="fill:#ffffff;"/>
  </g>
  <g id="axes_1">
   <g id="line2d_1">
    <path clip-path="url(#pd6519e3f07)" d="M 177.913703 138.881375 
L 177.913703 139.283149 
L 178.315477 139.684922 
L 178.315477 140.086696 
L 178.717251 140.086696 
L 179.119024 140.086696 
L 179.520798 140.086696 
L 179.922572 139.684922 
L 179.922572 139.283149 
L 179.520798 139.283149 
L 179.520798 139.684922 
L 179.520798 140.086696 
L 179.922572 140.086696 
L 179.922572 140.48847 
L 180.324346 140.48847 
L 180.72612 139.684922 
L 180.72612 139.283149 
L 180.324346 139.283149 
L 179.520798 139.684922 
L 179.119024 139.684922 
L 179.119024 140.086696 
L 179.119024 140.48847 
L 179.520798 140.890244 
L 180.324346 140.890244 
L 180.324346 140.48847 
L 180.324346 140.086696 
L 179.922572 139.684922 
L 179.520798 139.283149 
L 179.119024 139.684922 
L 179.119024 140.086696 
L 178.717251 140.086696 
L 178.717251 140.48847 
L 179.119024 140.890244 
L 179.520798 140.890244 
L 179.922572 140.890244 
L 180.324346 140.086696 
L 179.922572 139.684922 
L 179.119024 139.283149 
L 178.717251 140.086696 
L 178.717251 140.890244 
L 179.119024 140.890244 
L 179.520798 141.292018 
L 180.324346 140.890244 
L 179.520798 138.479601 
L 179.119024 138.479601 
L 178.717251 138.881375 
L 178.315477 139.283149 
L 179.119024 140.48847 
L 179.520798 140.890244 
L 180.324346 140.086696 
L 179.119024 138.479601 
L 178.717251 138.077827 
L 179.119024 141.292018 
L 179.520798 141.693792 
L 179.520798 140.086696 
L 177.913703 139.283149 
L 177.913703 140.086696 
L 177.913703 140.48847 
L 179.119024 142.497339 
L 179.922572 142.899113 
L 180.324346 142.497339 
L 180.324346 141.693792 
L 179.520798 140.086696 
L 179.119024 140.086696 
L 178.717251 140.890244 
L 179.520798 141.693792 
L 179.520798 141.292018 
L 179.520798 140.890244 
L 179.119024 139.684922 
L 178.717251 139.684922 
L 179.119024 141.693792 
L 179.520798 140.890244 
L 179.119024 140.086696 
L 179.119024 139.684922 
" style="fill:none;stroke:#8c8c8c;stroke-linecap:square;"/>
   </g>
   <g id="line2d_2">
    <path clip-path="url(#pd6519e3f07)" d="M 325.766475 24.777605 
L 325.766475 24.375831 
L 325.766475 24.777605 
L 325.766475 25.581153 
L 325.766475 26.786475 
L 325.766475 28.39357 
L 325.766475 29.598891 
L 325.766475 30.402439 
L 325.766475 31.205987 
L 325.766475 31.607761 
" style="fill:none;stroke:#8c8c8c;stroke-linecap:square;"/>
   </g>
   <g id="line2d_3">
    <path clip-path="url(#pd6519e3f07)" d="M 324.962927 21.161641 
L 324.561153 21.161641 
L 324.561153 21.563415 
L 324.159379 21.563415 
L 324.159379 21.965188 
L 323.757605 21.965188 
L 323.355831 22.366962 
L 322.954058 22.768736 
L 322.15051 23.572284 
L 321.748736 23.974058 
L 321.748736 24.375831 
L 321.346962 25.179379 
L 320.945188 25.581153 
L 320.945188 26.384701 
L 320.543415 27.188248 
L 320.543415 28.795344 
L 320.945188 30.000665 
L 320.945188 31.205987 
L 321.346962 31.607761 
L 321.748736 33.214856 
L 321.748736 33.61663 
L 322.15051 34.018404 
L 322.15051 34.821951 
L 322.552284 35.223725 
L 322.954058 35.625499 
L 323.757605 36.429047 
L 324.561153 36.429047 
L 324.962927 36.83082 
L 325.364701 36.83082 
L 326.570022 36.429047 
L 328.578891 34.821951 
L 329.382439 33.214856 
L 329.784213 32.009534 
L 329.784213 31.205987 
L 330.185987 30.000665 
L 330.185987 29.598891 
L 330.185987 27.991796 
L 330.185987 27.590022 
L 330.185987 27.188248 
L 329.784213 25.581153 
L 329.784213 24.777605 
L 329.382439 23.974058 
L 328.980665 23.572284 
L 328.980665 23.17051 
L 328.578891 22.768736 
L 328.177118 22.366962 
L 327.37357 21.965188 
L 326.168248 21.965188 
L 325.364701 21.965188 
L 323.757605 22.768736 
L 322.954058 23.17051 
" style="fill:none;stroke:#8c8c8c;stroke-linecap:square;"/>
   </g>
   <g id="line2d_4">
    <path clip-path="url(#pd6519e3f07)" d="M 340.230333 24.777605 
L 340.632106 24.375831 
L 340.230333 24.375831 
L 339.828559 24.375831 
L 339.828559 24.777605 
L 339.426785 24.777605 
L 339.025011 25.179379 
L 338.221463 26.384701 
L 337.81969 27.188248 
L 337.417916 27.991796 
L 337.417916 28.795344 
L 337.417916 29.598891 
L 337.81969 30.000665 
L 338.623237 30.402439 
L 339.426785 30.402439 
L 340.632106 29.598891 
L 341.435654 29.197118 
L 342.239202 28.39357 
L 342.640976 27.590022 
L 343.042749 27.590022 
L 343.042749 27.188248 
L 343.444523 26.786475 
L 343.444523 26.384701 
L 343.042749 26.384701 
L 343.042749 25.982927 
L 342.640976 26.384701 
L 342.239202 26.384701 
L 341.837428 27.188248 
L 341.837428 27.590022 
L 341.837428 28.39357 
L 342.239202 28.795344 
L 343.042749 28.795344 
L 343.846297 27.991796 
L 344.649845 27.590022 
L 345.453392 26.786475 
L 345.453392 26.384701 
L 345.855166 25.982927 
L 345.855166 26.384701 
L 345.855166 27.188248 
L 345.855166 28.39357 
L 346.25694 28.795344 
L 346.25694 29.197118 
L 346.658714 29.197118 
" style="fill:none;stroke:#8c8c8c;stroke-linecap:square;"/>
   </g>
   <g id="line2d_5">
    <path clip-path="url(#pd6519e3f07)" d="M 347.462262 27.188248 
L 347.462262 26.786475 
L 347.462262 26.384701 
L 347.462262 25.982927 
L 347.864035 25.982927 
L 347.864035 26.384701 
L 348.265809 27.188248 
L 348.667583 27.991796 
L 349.069357 29.197118 
L 349.471131 30.000665 
L 349.872905 30.402439 
L 349.872905 30.804213 
L 349.872905 30.402439 
L 349.872905 30.000665 
L 349.872905 29.598891 
L 349.872905 28.39357 
L 350.274678 27.590022 
L 351.078226 26.786475 
L 352.283548 25.982927 
L 353.087095 25.179379 
" style="fill:none;stroke:#8c8c8c;stroke-linecap:square;"/>
   </g>
   <g id="line2d_6">
    <path clip-path="url(#pd6519e3f07)" d="M 355.095965 23.17051 
L 355.095965 22.768736 
L 354.694191 22.366962 
L 354.694191 22.768736 
L 354.694191 23.974058 
L 354.694191 25.179379 
L 355.095965 27.188248 
L 355.095965 27.991796 
L 355.095965 28.795344 
L 355.095965 28.39357 
L 355.497738 27.991796 
L 355.899512 27.590022 
L 356.70306 27.188248 
L 357.104834 27.188248 
L 357.908381 27.188248 
L 357.908381 27.590022 
L 357.908381 27.991796 
L 357.908381 28.39357 
L 357.104834 29.197118 
L 356.301286 29.598891 
L 355.899512 29.598891 
" style="fill:none;stroke:#8c8c8c;stroke-linecap:square;"/>
   </g>
   <g id="line2d_7">
    <path clip-path="url(#pd6519e3f07)" d="M 361.122572 27.188248 
L 360.720798 27.188248 
L 360.319024 27.590022 
L 360.319024 27.991796 
L 360.319024 28.39357 
L 360.720798 29.197118 
L 361.122572 29.197118 
L 361.92612 29.197118 
L 362.327894 28.795344 
L 362.327894 27.991796 
L 362.327894 27.188248 
L 361.92612 26.786475 
L 361.524346 26.786475 
L 361.122572 27.188248 
L 360.720798 27.188248 
" style="fill:none;stroke:#8c8c8c;stroke-linecap:square;"/>
   </g>
   <g id="line2d_8">
    <path clip-path="url(#pd6519e3f07)" d="M 365.542084 27.991796 
L 365.14031 27.991796 
L 365.542084 27.991796 
L 365.542084 28.39357 
L 365.542084 28.795344 
L 365.542084 29.197118 
L 365.542084 29.598891 
L 365.542084 29.197118 
L 365.542084 28.795344 
L 365.943858 28.39357 
L 365.943858 27.590022 
L 366.345632 27.188248 
L 366.747406 26.786475 
L 367.14918 26.786475 
L 367.550953 27.590022 
L 367.952727 28.39357 
L 368.354501 29.197118 
L 368.354501 29.598891 
L 368.756275 29.598891 
" style="fill:none;stroke:#8c8c8c;stroke-linecap:square;"/>
   </g>
   <g id="line2d_9">
    <path clip-path="url(#pd6519e3f07)" d="M 370.36337 27.590022 
L 370.765144 27.188248 
L 371.166918 27.188248 
L 371.568692 27.188248 
L 371.568692 27.590022 
L 371.970466 28.39357 
L 371.970466 28.795344 
L 371.970466 28.39357 
L 371.568692 27.590022 
L 371.166918 27.188248 
L 370.36337 26.786475 
L 369.559823 27.188248 
L 369.158049 27.590022 
L 369.158049 28.39357 
L 369.158049 29.197118 
L 369.961596 29.598891 
L 370.765144 29.197118 
L 371.568692 28.795344 
L 372.372239 27.991796 
L 372.774013 27.188248 
L 373.175787 26.384701 
L 373.577561 25.581153 
L 373.979335 25.179379 
L 374.381109 25.179379 
L 374.381109 25.581153 
L 374.381109 25.982927 
L 374.782882 27.590022 
L 375.184656 28.795344 
L 375.184656 29.598891 
L 375.58643 30.000665 
" style="fill:none;stroke:#8c8c8c;stroke-linecap:square;"/>
   </g>
   <g id="line2d_10">
    <path clip-path="url(#pd6519e3f07)" d="M 374.782882 27.991796 
L 374.381109 27.991796 
L 374.782882 27.991796 
L 375.184656 27.590022 
L 376.791752 27.188248 
L 377.997073 26.786475 
L 378.398847 26.786475 
" style="fill:none;stroke:#8c8c8c;stroke-linecap:square;"/>
   </g>
   <g id="line2d_11">
    <path clip-path="url(#pd6519e3f07)" d="M 380.407716 26.384701 
L 380.005942 26.384701 
L 380.005942 26.786475 
L 380.407716 26.786475 
L 380.80949 26.786475 
L 381.613038 26.384701 
L 382.014812 25.581153 
L 382.416585 25.179379 
L 382.416585 24.777605 
L 382.014812 24.777605 
L 381.211264 25.179379 
L 380.407716 25.982927 
L 380.407716 27.188248 
L 380.80949 28.39357 
L 381.211264 28.795344 
L 382.416585 29.197118 
L 383.220133 29.197118 
" style="fill:none;stroke:#8c8c8c;stroke-linecap:square;"/>
   </g>
   <g id="line2d_12">
    <path clip-path="url(#pd6519e3f07)" d="M 259.072018 66.16031 
L 259.072018 66.562084 
L 259.473792 66.562084 
L 259.473792 66.963858 
L 259.875565 66.963858 
L 260.277339 67.767406 
L 261.080887 68.16918 
L 261.482661 68.570953 
L 262.687982 69.374501 
L 263.49153 70.579823 
L 264.696851 70.981596 
L 265.098625 71.785144 
L 265.500399 71.785144 
L 265.500399 72.186918 
L 265.500399 71.785144 
" style="fill:none;stroke:#8c8c8c;stroke-linecap:square;"/>
   </g>
   <g id="line2d_13">
    <path clip-path="url(#pd6519e3f07)" d="M 263.49153 64.151441 
L 263.49153 63.749667 
L 263.089756 63.749667 
" style="fill:none;stroke:#8c8c8c;stroke-linecap:square;"/>
   </g>
   <g id="line2d_14">
    <path clip-path="url(#pd6519e3f07)" d="M 265.500399 66.963858 
L 265.902173 66.963858 
L 265.902173 67.365632 
L 266.303947 67.365632 
" style="fill:none;stroke:#8c8c8c;stroke-linecap:square;"/>
   </g>
   <g id="line2d_15">
    <path clip-path="url(#pd6519e3f07)" d="M 265.098625 60.937251 
L 265.098625 60.535477 
L 265.500399 60.535477 
L 265.500399 60.937251 
L 266.303947 61.740798 
L 267.509268 62.142572 
L 269.116364 63.749667 
L 270.321685 64.553215 
L 271.527007 65.758537 
L 271.92878 66.16031 
L 272.330554 66.16031 
" style="fill:none;stroke:#8c8c8c;stroke-linecap:square;"/>
   </g>
   <g id="line2d_16">
    <path clip-path="url(#pd6519e3f07)" d="M 173.494191 258.609978 
L 173.494191 258.208204 
L 173.494191 257.80643 
L 173.494191 258.208204 
L 173.494191 259.011752 
L 173.895965 261.020621 
L 174.297738 262.225942 
L 174.297738 263.02949 
L 175.101286 265.038359 
L 175.50306 266.645455 
" style="fill:none;stroke:#8c8c8c;stroke-linecap:square;"/>
   </g>
   <g id="line2d_17">
    <path clip-path="url(#pd6519e3f07)" d="M 173.494191 258.609978 
L 173.092417 258.208204 
L 173.494191 257.80643 
L 173.494191 257.404656 
L 173.895965 257.404656 
L 175.101286 257.404656 
L 176.306608 257.80643 
L 177.511929 258.609978 
L 178.717251 259.815299 
L 179.520798 260.618847 
L 179.520798 261.824169 
L 179.520798 263.02949 
L 179.119024 263.833038 
L 177.913703 264.636585 
L 176.708381 265.038359 
L 175.904834 265.038359 
L 175.50306 265.038359 
" style="fill:none;stroke:#8c8c8c;stroke-linecap:square;"/>
   </g>
   <g id="line2d_18">
    <path clip-path="url(#pd6519e3f07)" d="M 182.333215 259.011752 
L 182.734989 259.011752 
L 182.734989 259.413525 
L 182.734989 259.815299 
L 183.136763 260.618847 
L 183.94031 261.824169 
L 184.342084 263.02949 
L 185.145632 264.234812 
L 185.547406 265.440133 
L 185.94918 265.440133 
" style="fill:none;stroke:#8c8c8c;stroke-linecap:square;"/>
   </g>
   <g id="line2d_19">
    <path clip-path="url(#pd6519e3f07)" d="M 188.359823 259.011752 
L 188.761596 258.609978 
L 189.16337 258.208204 
L 189.16337 257.80643 
L 188.761596 257.80643 
L 188.761596 258.609978 
L 187.556275 259.815299 
L 187.154501 261.422395 
L 187.556275 263.02949 
L 187.958049 263.431264 
L 189.966918 263.833038 
L 191.574013 263.431264 
L 192.377561 263.431264 
" style="fill:none;stroke:#8c8c8c;stroke-linecap:square;"/>
   </g>
   <g id="line2d_20">
    <path clip-path="url(#pd6519e3f07)" d="M 30.462705 138.881375 
L 30.462705 139.283149 
L 30.060931 139.283149 
L 30.060931 140.086696 
L 30.060931 140.890244 
L 30.060931 142.095565 
L 30.060931 142.899113 
L 30.060931 143.300887 
L 30.060931 142.497339 
L 30.060931 141.292018 
L 29.659157 139.684922 
L 30.060931 138.881375 
L 30.060931 138.077827 
L 30.060931 137.676053 
L 30.462705 138.077827 
L 30.864479 138.479601 
L 31.266253 138.881375 
L 32.0698 140.48847 
L 32.873348 141.693792 
L 33.275122 142.899113 
L 33.275122 143.300887 
L 33.676896 143.300887 
" style="fill:none;stroke:#8c8c8c;stroke-linecap:square;"/>
   </g>
   <g id="line2d_21">
    <path clip-path="url(#pd6519e3f07)" d="M 29.659157 141.292018 
L 29.257384 141.292018 
L 29.257384 141.693792 
L 29.659157 141.693792 
L 30.060931 141.693792 
L 31.266253 141.292018 
L 32.471574 141.292018 
L 32.873348 140.890244 
" style="fill:none;stroke:#8c8c8c;stroke-linecap:square;"/>
   </g>
   <g id="line2d_22">
    <path clip-path="url(#pd6519e3f07)" d="M 34.07867 136.872506 
L 34.07867 136.470732 
L 34.07867 136.872506 
L 34.07867 137.274279 
L 34.480443 137.274279 
L 34.480443 138.077827 
L 34.480443 139.283149 
L 34.480443 140.890244 
L 34.882217 141.693792 
L 35.283991 142.899113 
L 35.685765 143.702661 
L 36.489313 144.104435 
L 37.29286 144.104435 
L 38.096408 143.702661 
L 38.498182 143.300887 
L 38.899956 142.899113 
" style="fill:none;stroke:#8c8c8c;stroke-linecap:square;"/>
   </g>
   <g id="line2d_23">
    <path clip-path="url(#pd6519e3f07)" d="M 39.301729 137.274279 
L 39.301729 136.872506 
L 39.301729 138.077827 
L 39.703503 139.283149 
L 40.105277 141.292018 
L 40.908825 142.497339 
L 41.310599 144.104435 
L 41.712373 144.907982 
L 41.712373 145.309756 
" style="fill:none;stroke:#8c8c8c;stroke-linecap:square;"/>
   </g>
   <g id="line2d_24">
    <path clip-path="url(#pd6519e3f07)" d="M 42.51592 138.077827 
L 42.51592 137.274279 
L 42.51592 136.872506 
L 42.917694 136.872506 
L 42.51592 136.872506 
L 42.51592 137.274279 
L 42.114146 138.479601 
L 41.310599 139.283149 
L 40.908825 140.086696 
L 40.507051 140.48847 
L 40.507051 140.890244 
L 40.507051 141.292018 
L 40.908825 141.693792 
L 42.114146 142.095565 
L 44.123016 142.899113 
L 46.533659 143.702661 
L 47.73898 144.506208 
L 48.140754 144.506208 
" style="fill:none;stroke:#8c8c8c;stroke-linecap:square;"/>
   </g>
   <g id="line2d_25">
    <path clip-path="url(#pd6519e3f07)" d="M 397.683991 26.384701 
L 397.683991 26.786475 
L 398.085765 26.786475 
L 398.085765 27.188248 
L 398.487539 27.188248 
L 398.889313 27.188248 
L 399.291086 27.590022 
L 399.69286 27.590022 
L 400.094634 27.590022 
L 400.496408 27.188248 
L 400.898182 26.786475 
L 400.898182 25.982927 
L 400.496408 25.179379 
L 400.094634 24.777605 
L 399.291086 24.375831 
L 398.889313 24.777605 
L 398.085765 25.581153 
L 397.683991 26.384701 
L 397.683991 27.188248 
L 397.683991 28.795344 
L 398.487539 31.607761 
L 399.291086 33.214856 
L 399.69286 34.018404 
L 400.496408 34.821951 
L 400.496408 34.420177 
L 400.898182 34.018404 
" style="fill:none;stroke:#8c8c8c;stroke-linecap:square;"/>
   </g>
   <g id="line2d_26">
    <path clip-path="url(#pd6519e3f07)" d="M 402.505277 24.777605 
L 402.505277 24.375831 
L 402.907051 24.375831 
L 402.907051 24.777605 
L 403.308825 25.179379 
L 403.308825 25.581153 
L 404.112373 26.384701 
L 404.91592 27.991796 
L 404.91592 28.39357 
L 404.514146 27.590022 
L 404.514146 27.188248 
L 404.91592 25.581153 
L 405.719468 25.179379 
L 406.523016 24.375831 
" style="fill:none;stroke:#8c8c8c;stroke-linecap:square;"/>
   </g>
   <g id="line2d_27">
    <path clip-path="url(#pd6519e3f07)" d="M 408.933659 24.375831 
L 409.335432 24.375831 
L 409.335432 24.777605 
L 409.737206 24.777605 
L 409.737206 25.179379 
L 410.540754 25.179379 
L 411.344302 24.777605 
L 411.746075 24.375831 
L 411.746075 23.974058 
L 411.746075 23.17051 
L 411.344302 23.17051 
L 411.344302 23.572284 
L 410.13898 24.777605 
L 409.737206 25.581153 
L 410.13898 27.590022 
L 410.942528 28.795344 
L 412.147849 29.197118 
L 412.951397 28.795344 
" style="fill:none;stroke:#8c8c8c;stroke-linecap:square;"/>
   </g>
   <g id="line2d_28">
    <path clip-path="url(#pd6519e3f07)" d="M 416.165588 25.581153 
L 416.165588 25.179379 
L 416.165588 24.777605 
L 415.763814 24.777605 
L 415.36204 24.777605 
L 414.960266 25.179379 
L 414.558492 25.982927 
L 414.558492 26.384701 
L 414.558492 27.590022 
L 415.36204 28.795344 
L 415.763814 28.795344 
L 416.969135 28.795344 
L 417.370909 28.795344 
" style="fill:none;stroke:#8c8c8c;stroke-linecap:square;"/>
   </g>
   <g id="line2d_29">
    <path clip-path="url(#pd6519e3f07)" d="M 419.781552 25.179379 
L 419.781552 25.581153 
L 419.781552 26.384701 
L 420.183326 26.786475 
L 420.183326 27.590022 
L 420.5851 28.39357 
" style="fill:none;stroke:#8c8c8c;stroke-linecap:square;"/>
   </g>
   <g id="line2d_30">
    <path clip-path="url(#pd6519e3f07)" d="M 420.5851 25.581153 
L 420.183326 24.777605 
L 420.183326 23.572284 
L 420.183326 22.768736 
L 420.183326 22.366962 
" style="fill:none;stroke:#8c8c8c;stroke-linecap:square;"/>
   </g>
   <g id="line2d_31">
    <path clip-path="url(#pd6519e3f07)" d="M 423.397517 25.982927 
L 423.79929 25.982927 
L 423.79929 26.384701 
L 425.406386 27.188248 
L 426.209933 26.786475 
L 427.013481 26.384701 
L 427.013481 25.982927 
L 427.415255 25.179379 
L 427.013481 24.375831 
L 426.611707 24.375831 
L 426.209933 23.974058 
L 425.406386 23.974058 
L 424.201064 24.777605 
L 424.201064 25.179379 
L 424.201064 25.581153 
L 424.201064 27.188248 
L 424.201064 28.39357 
L 424.602838 30.000665 
L 425.004612 31.205987 
L 425.406386 32.009534 
L 425.406386 32.411308 
L 425.406386 32.813082 
" style="fill:none;stroke:#8c8c8c;stroke-linecap:square;"/>
   </g>
   <g id="line2d_32">
    <path clip-path="url(#pd6519e3f07)" d="M 432.236541 24.375831 
L 432.236541 24.777605 
L 432.236541 25.179379 
L 432.236541 25.581153 
L 432.236541 26.786475 
L 432.236541 27.188248 
" style="fill:none;stroke:#8c8c8c;stroke-linecap:square;"/>
   </g>
   <g id="line2d_33">
    <path clip-path="url(#pd6519e3f07)" d="M 432.638315 21.161641 
L 432.638315 20.759867 
L 432.638315 20.358093 
L 433.040089 19.956319 
" style="fill:none;stroke:#8c8c8c;stroke-linecap:square;"/>
   </g>
   <g id="line2d_34">
    <path clip-path="url(#pd6519e3f07)" d="M 434.24541 20.358093 
L 434.647184 20.759867 
L 435.048958 21.965188 
L 435.450732 23.17051 
L 435.852506 25.179379 
L 436.254279 26.786475 
L 436.656053 27.590022 
" style="fill:none;stroke:#8c8c8c;stroke-linecap:square;"/>
   </g>
   <g id="line2d_35">
    <path clip-path="url(#pd6519e3f07)" d="M 434.647184 25.179379 
L 434.647184 24.777605 
L 435.048958 24.777605 
L 435.450732 24.777605 
L 436.254279 24.777605 
L 437.861375 24.777605 
L 439.066696 24.375831 
" style="fill:none;stroke:#8c8c8c;stroke-linecap:square;"/>
   </g>
   <g id="line2d_36">
    <path clip-path="url(#pd6519e3f07)" d="M 443.887982 23.17051 
L 443.887982 22.768736 
L 443.486208 22.768736 
L 443.084435 22.768736 
L 442.682661 22.768736 
L 442.280887 22.768736 
L 441.879113 23.17051 
L 441.477339 23.974058 
L 441.477339 24.777605 
L 442.280887 25.179379 
L 442.682661 25.179379 
L 443.486208 24.777605 
L 443.887982 24.375831 
L 444.289756 23.17051 
L 444.289756 22.768736 
L 444.69153 22.768736 
L 444.69153 23.17051 
L 444.69153 23.974058 
L 444.69153 25.179379 
L 444.69153 26.384701 
L 445.093304 27.188248 
" style="fill:none;stroke:#8c8c8c;stroke-linecap:square;"/>
   </g>
   <g id="line2d_37">
    <path clip-path="url(#pd6519e3f07)" d="M 449.111042 23.17051 
L 449.111042 22.768736 
L 449.111042 23.572284 
L 449.512816 24.375831 
L 449.91459 26.384701 
L 450.316364 26.786475 
L 450.316364 27.991796 
" style="fill:none;stroke:#8c8c8c;stroke-linecap:square;"/>
   </g>
   <g id="line2d_38">
    <path clip-path="url(#pd6519e3f07)" d="M 447.905721 24.375831 
L 447.905721 24.777605 
L 448.709268 24.777605 
L 449.111042 24.777605 
L 449.91459 24.777605 
L 450.316364 24.375831 
" style="fill:none;stroke:#8c8c8c;stroke-linecap:square;"/>
   </g>
   <g id="line2d_39">
    <path clip-path="url(#pd6519e3f07)" d="M 453.12878 23.974058 
L 453.12878 24.375831 
L 453.530554 24.375831 
L 453.932328 25.179379 
L 454.334102 26.786475 
L 454.334102 27.590022 
L 454.334102 27.991796 
" style="fill:none;stroke:#8c8c8c;stroke-linecap:square;"/>
   </g>
   <g id="line2d_40">
    <path clip-path="url(#pd6519e3f07)" d="M 454.334102 26.384701 
L 454.334102 25.179379 
L 454.735876 24.375831 
L 454.735876 23.572284 
L 454.735876 23.17051 
" style="fill:none;stroke:#8c8c8c;stroke-linecap:square;"/>
   </g>
   <g id="line2d_41">
    <path clip-path="url(#pd6519e3f07)" d="M 458.753614 24.777605 
L 458.35184 25.179379 
L 458.35184 25.581153 
L 457.950067 25.581153 
L 457.950067 26.786475 
L 457.950067 27.590022 
L 458.35184 28.39357 
L 459.155388 28.795344 
L 459.958936 28.39357 
L 460.36071 27.590022 
L 460.762483 26.786475 
L 460.762483 25.581153 
L 460.762483 25.179379 
L 459.958936 24.777605 
L 459.155388 24.777605 
L 458.753614 25.179379 
L 458.35184 25.581153 
" style="fill:none;stroke:#8c8c8c;stroke-linecap:square;"/>
   </g>
   <g id="line2d_42">
    <path clip-path="url(#pd6519e3f07)" d="M 460.36071 26.384701 
L 460.762483 26.384701 
L 461.164257 26.786475 
L 461.566031 27.590022 
L 461.566031 27.991796 
L 461.967805 29.197118 
L 461.967805 29.598891 
L 462.369579 29.598891 
L 462.369579 28.39357 
L 462.771353 27.590022 
L 463.173126 25.982927 
L 463.5749 25.581153 
L 463.976674 25.179379 
L 464.378448 25.179379 
L 465.181996 25.982927 
L 466.387317 27.590022 
L 467.592639 29.598891 
" style="fill:none;stroke:#8c8c8c;stroke-linecap:square;"/>
   </g>
   <g id="line2d_43">
    <path clip-path="url(#pd6519e3f07)" d="M 453.530554 19.554545 
L 453.12878 19.554545 
" style="fill:none;stroke:#8c8c8c;stroke-linecap:square;"/>
   </g>
   <g id="line2d_44">
    <path clip-path="url(#pd6519e3f07)" d="M 179.119024 159.37184 
L 179.119024 158.970067 
L 179.520798 158.970067 
L 179.520798 158.568293 
L 179.520798 158.166519 
L 179.520798 158.568293 
L 179.922572 158.970067 
L 179.922572 158.568293 
L 179.520798 158.568293 
L 179.119024 158.568293 
L 179.119024 158.970067 
L 178.717251 158.970067 
L 178.315477 158.970067 
" style="fill:none;stroke:#8c8c8c;stroke-linecap:square;"/>
   </g>
   <g id="line2d_45">
    <path clip-path="url(#pd6519e3f07)" d="M 179.119024 176.246341 
L 178.717251 176.246341 
L 178.717251 176.648115 
L 179.119024 176.648115 
L 179.119024 176.246341 
L 179.119024 176.648115 
L 178.717251 176.648115 
L 178.717251 177.049889 
L 179.119024 177.049889 
L 179.119024 176.648115 
L 179.119024 176.246341 
" style="fill:none;stroke:#8c8c8c;stroke-linecap:square;"/>
   </g>
   <g id="line2d_46">
    <path clip-path="url(#pd6519e3f07)" d="M 161.039202 177.451663 
L 160.637428 177.451663 
L 160.235654 177.451663 
L 160.235654 177.853437 
L 160.637428 177.853437 
L 160.637428 177.451663 
L 160.637428 177.049889 
L 160.235654 177.049889 
L 160.235654 177.451663 
L 160.637428 177.451663 
L 160.637428 177.049889 
" style="fill:none;stroke:#8c8c8c;stroke-linecap:square;"/>
   </g>
   <g id="line2d_47">
    <path clip-path="url(#pd6519e3f07)" d="M 177.511929 142.497339 
L 177.511929 142.899113 
L 177.110155 142.899113 
L 177.110155 143.300887 
L 176.708381 143.300887 
L 176.708381 143.702661 
L 176.708381 144.104435 
L 176.306608 144.104435 
L 176.708381 144.104435 
L 176.708381 143.702661 
L 177.110155 143.702661 
L 177.110155 143.300887 
L 177.511929 143.300887 
L 177.511929 142.899113 
L 177.913703 142.899113 
L 177.913703 142.497339 
L 178.315477 142.095565 
L 178.315477 141.693792 
L 178.315477 142.095565 
L 178.315477 142.497339 
L 177.913703 142.497339 
L 177.913703 142.899113 
L 177.913703 143.300887 
L 177.913703 143.702661 
L 177.511929 144.104435 
L 177.511929 144.506208 
L 177.511929 144.907982 
L 177.110155 145.309756 
L 177.110155 145.71153 
L 176.708381 145.71153 
L 176.708381 146.113304 
L 176.708381 146.515078 
L 176.306608 146.916851 
L 176.306608 147.318625 
L 176.306608 147.720399 
L 175.904834 147.720399 
L 175.904834 148.122173 
L 175.50306 148.122173 
L 175.50306 148.523947 
L 175.50306 148.925721 
L 175.101286 149.327494 
L 175.101286 149.729268 
L 174.699512 149.729268 
L 174.699512 150.131042 
L 174.297738 150.532816 
L 174.297738 151.336364 
L 173.895965 151.738137 
L 173.895965 152.139911 
L 173.494191 152.541685 
L 173.494191 152.943459 
L 173.092417 153.345233 
L 173.092417 153.747007 
L 172.690643 153.747007 
L 172.690643 154.14878 
L 172.288869 154.550554 
L 172.288869 154.952328 
L 172.288869 155.354102 
L 171.887095 155.755876 
L 171.485322 155.755876 
L 171.485322 156.559424 
L 171.083548 156.559424 
L 171.083548 156.961197 
L 171.083548 157.362971 
L 170.681774 157.764745 
L 170.681774 158.166519 
L 170.28 158.166519 
L 170.28 158.568293 
L 169.878226 158.970067 
L 169.878226 159.37184 
L 169.476452 159.773614 
L 169.476452 160.175388 
L 169.074678 160.175388 
L 169.074678 160.577162 
L 168.672905 160.978936 
L 168.672905 161.38071 
L 168.271131 161.782483 
L 168.271131 162.184257 
L 168.271131 162.586031 
L 167.869357 162.586031 
L 167.869357 162.987805 
L 167.467583 163.389579 
L 167.065809 163.791353 
L 167.065809 164.193126 
L 166.664035 164.5949 
L 166.664035 164.996674 
L 166.262262 165.398448 
L 165.860488 165.800222 
L 165.860488 166.201996 
L 165.860488 166.603769 
L 165.458714 166.603769 
L 165.458714 167.005543 
L 165.458714 167.407317 
L 165.05694 167.809091 
L 165.05694 168.210865 
L 165.05694 168.612639 
L 164.655166 169.014412 
L 164.655166 169.416186 
L 164.253392 169.416186 
L 164.253392 169.81796 
L 164.253392 170.219734 
L 164.253392 170.621508 
L 163.851619 170.621508 
L 163.851619 171.023282 
L 163.449845 171.425055 
L 163.449845 171.826829 
L 163.048071 171.826829 
L 163.048071 172.228603 
L 162.646297 172.630377 
L 162.646297 173.032151 
L 162.244523 173.032151 
L 161.842749 173.433925 
L 161.842749 173.835698 
L 161.440976 174.237472 
L 161.039202 174.639246 
L 161.039202 175.04102 
L 160.637428 175.04102 
L 160.637428 175.442794 
L 160.235654 175.442794 
L 160.235654 175.844568 
L 159.83388 175.844568 
L 159.83388 175.442794 
" style="fill:none;stroke:#8c8c8c;stroke-linecap:square;"/>
   </g>
   <g id="line2d_48">
    <path clip-path="url(#pd6519e3f07)" d="M 158.226785 173.032151 
L 158.226785 173.433925 
L 158.628559 173.433925 
L 158.628559 173.835698 
L 158.628559 174.237472 
L 158.628559 174.639246 
L 158.628559 175.04102 
L 158.628559 175.442794 
L 158.628559 175.844568 
L 158.628559 176.246341 
L 158.628559 176.648115 
L 158.628559 177.049889 
L 159.030333 177.451663 
L 159.432106 177.451663 
L 159.83388 177.451663 
L 160.235654 177.049889 
L 161.440976 176.648115 
L 161.842749 176.246341 
" style="fill:none;stroke:#8c8c8c;stroke-linecap:square;"/>
   </g>
   <g id="line2d_49">
    <path clip-path="url(#pd6519e3f07)" d="M 158.628559 177.451663 
L 158.628559 177.853437 
L 159.030333 177.853437 
L 159.432106 177.853437 
L 159.83388 178.255211 
L 160.235654 178.255211 
L 161.039202 178.255211 
L 161.440976 178.255211 
L 161.842749 178.255211 
L 162.646297 178.255211 
L 163.048071 178.255211 
L 163.048071 177.853437 
" style="fill:none;stroke:#8c8c8c;stroke-linecap:square;"/>
   </g>
   <g id="line2d_50">
    <path clip-path="url(#pd6519e3f07)" d="M 177.511929 122.408647 
L 177.511929 122.810421 
L 177.511929 123.212195 
L 177.511929 122.810421 
" style="fill:none;stroke:#8c8c8c;stroke-linecap:square;"/>
   </g>
   <g id="line2d_51">
    <path clip-path="url(#pd6519e3f07)" d="M 176.306608 102.721729 
L 176.306608 102.319956 
L 175.904834 102.319956 
L 175.904834 101.918182 
L 175.50306 101.918182 
" style="fill:none;stroke:#8c8c8c;stroke-linecap:square;"/>
   </g>
   <g id="line2d_52">
    <path clip-path="url(#pd6519e3f07)" d="M 192.377561 99.909313 
L 191.975787 99.909313 
L 191.975787 99.507539 
" style="fill:none;stroke:#8c8c8c;stroke-linecap:square;"/>
   </g>
   <g id="line2d_53">
    <path clip-path="url(#pd6519e3f07)" d="M 322.954058 46.875166 
L 322.552284 46.875166 
L 322.552284 46.473392 
L 322.15051 46.473392 
L 322.15051 46.071619 
L 322.15051 45.669845 
L 322.552284 45.669845 
L 323.355831 45.268071 
L 324.561153 44.866297 
L 324.962927 44.866297 
L 325.766475 44.866297 
L 326.168248 44.866297 
L 326.168248 45.268071 
L 324.962927 47.27694 
L 324.159379 49.285809 
L 322.954058 51.294678 
L 322.15051 52.901774 
L 322.15051 53.705322 
L 322.15051 54.107095 
L 322.552284 54.107095 
L 323.757605 54.508869 
L 324.962927 54.508869 
L 326.570022 54.508869 
L 327.37357 54.508869 
L 327.37357 54.107095 
" style="fill:none;stroke:#64b5cd;stroke-linecap:square;"/>
   </g>
   <g id="line2d_54">
    <path clip-path="url(#pd6519e3f07)" d="M 323.355831 42.05388 
L 323.355831 41.652106 
L 322.954058 41.652106 
L 322.15051 41.652106 
L 321.748736 41.652106 
L 320.543415 42.05388 
L 318.936319 42.857428 
L 317.730998 44.464523 
L 316.525676 46.071619 
L 316.123902 48.080488 
L 316.123902 50.089357 
L 316.525676 52.5 
L 317.730998 55.312417 
L 319.338093 57.72306 
L 320.945188 59.330155 
L 322.954058 60.535477 
L 324.962927 60.937251 
L 326.971796 60.535477 
L 328.578891 60.133703 
L 330.185987 58.928381 
L 331.793082 56.919512 
L 332.59663 54.508869 
L 332.59663 51.696452 
L 332.59663 49.285809 
L 331.391308 46.473392 
L 329.784213 44.464523 
L 327.775344 43.259202 
L 326.168248 42.857428 
L 324.561153 42.455654 
L 322.552284 42.857428 
L 321.346962 43.259202 
L 321.346962 43.660976 
" style="fill:none;stroke:#64b5cd;stroke-linecap:square;"/>
   </g>
   <g id="line2d_55">
    <path clip-path="url(#pd6519e3f07)" d="M 347.864035 49.285809 
L 347.462262 49.285809 
L 347.060488 49.285809 
L 346.25694 49.687583 
L 345.051619 50.491131 
L 343.846297 51.294678 
L 343.444523 52.901774 
L 343.042749 54.107095 
L 343.042749 54.910643 
L 343.444523 56.115965 
L 343.846297 56.919512 
L 345.453392 56.919512 
L 347.060488 56.517738 
L 348.265809 55.714191 
" style="fill:none;stroke:#64b5cd;stroke-linecap:square;"/>
   </g>
   <g id="line2d_56">
    <path clip-path="url(#pd6519e3f07)" d="M 350.676452 53.705322 
L 350.676452 53.303548 
L 351.078226 52.901774 
L 350.676452 52.5 
L 350.676452 52.098226 
L 350.274678 52.098226 
L 349.872905 52.098226 
L 349.872905 52.5 
L 349.471131 52.5 
L 349.471131 52.901774 
L 349.872905 53.705322 
L 350.274678 54.910643 
L 350.676452 56.115965 
L 351.48 57.321286 
L 351.881774 58.124834 
L 352.283548 58.526608 
L 352.283548 58.124834 
" style="fill:none;stroke:#64b5cd;stroke-linecap:square;"/>
   </g>
   <g id="line2d_57">
    <path clip-path="url(#pd6519e3f07)" d="M 351.881774 52.901774 
L 351.48 52.5 
L 351.078226 52.5 
L 351.078226 52.098226 
L 350.676452 51.696452 
L 351.078226 51.696452 
L 351.078226 51.294678 
L 351.48 51.294678 
L 351.881774 51.294678 
L 352.283548 51.696452 
L 353.087095 52.098226 
L 353.488869 52.901774 
L 353.488869 53.705322 
L 353.488869 54.910643 
L 353.087095 55.312417 
L 351.881774 56.919512 
L 351.48 57.72306 
L 351.078226 58.124834 
L 350.676452 58.124834 
" style="fill:none;stroke:#64b5cd;stroke-linecap:square;"/>
   </g>
   <g id="line2d_58">
    <path clip-path="url(#pd6519e3f07)" d="M 354.292417 54.107095 
L 354.292417 53.705322 
L 353.890643 53.303548 
L 353.890643 52.901774 
L 353.890643 53.303548 
L 353.890643 53.705322 
L 353.890643 54.910643 
L 353.890643 55.714191 
L 354.292417 56.517738 
L 354.292417 57.72306 
L 354.694191 58.124834 
L 354.694191 58.526608 
L 355.095965 58.526608 
" style="fill:none;stroke:#64b5cd;stroke-linecap:square;"/>
   </g>
   <g id="line2d_59">
    <path clip-path="url(#pd6519e3f07)" d="M 358.310155 52.5 
L 357.908381 52.098226 
L 357.506608 52.5 
L 357.506608 52.901774 
L 357.506608 53.303548 
L 357.908381 53.705322 
L 357.908381 54.508869 
L 358.711929 55.714191 
L 359.113703 56.517738 
L 359.113703 56.919512 
L 358.711929 56.115965 
L 358.711929 54.910643 
L 358.711929 53.705322 
L 359.113703 52.098226 
L 360.319024 50.892905 
L 360.720798 49.687583 
L 361.122572 49.687583 
" style="fill:none;stroke:#64b5cd;stroke-linecap:square;"/>
   </g>
   <g id="line2d_60">
    <path clip-path="url(#pd6519e3f07)" d="M 363.131441 47.27694 
L 362.729667 47.27694 
L 362.729667 47.678714 
L 362.729667 48.080488 
L 363.131441 48.884035 
L 363.533215 50.892905 
L 363.934989 53.303548 
L 364.336763 54.508869 
L 364.738537 55.714191 
L 364.738537 54.910643 
L 365.542084 54.107095 
L 365.943858 53.303548 
L 366.345632 52.901774 
L 367.550953 52.901774 
L 368.354501 53.303548 
L 368.756275 53.705322 
L 369.158049 54.107095 
L 368.756275 54.910643 
L 367.550953 56.115965 
L 366.747406 56.919512 
L 365.943858 57.321286 
L 365.943858 56.919512 
" style="fill:none;stroke:#64b5cd;stroke-linecap:square;"/>
   </g>
   <g id="line2d_61">
    <path clip-path="url(#pd6519e3f07)" d="M 368.756275 54.910643 
L 368.756275 54.508869 
L 369.158049 54.508869 
L 369.559823 54.508869 
L 369.559823 54.910643 
L 369.559823 55.312417 
L 369.559823 55.714191 
L 370.36337 56.517738 
L 371.166918 57.321286 
L 371.970466 57.72306 
L 372.774013 57.321286 
L 373.577561 56.919512 
L 373.577561 55.312417 
L 373.577561 54.508869 
L 373.175787 53.705322 
L 372.372239 53.303548 
L 371.568692 53.705322 
L 370.765144 54.107095 
L 369.961596 54.508869 
" style="fill:none;stroke:#64b5cd;stroke-linecap:square;"/>
   </g>
   <g id="line2d_62">
    <path clip-path="url(#pd6519e3f07)" d="M 377.595299 53.705322 
L 377.193525 53.303548 
L 377.193525 53.705322 
L 376.791752 53.705322 
L 376.791752 54.107095 
L 377.193525 54.910643 
L 377.193525 55.714191 
L 377.193525 56.517738 
L 377.193525 56.919512 
L 377.193525 57.321286 
L 377.193525 56.517738 
L 376.791752 55.714191 
L 377.193525 54.508869 
L 377.193525 53.705322 
L 377.997073 52.901774 
L 378.398847 52.5 
L 378.800621 52.5 
L 379.604169 52.901774 
L 380.80949 53.303548 
L 381.211264 54.508869 
L 381.613038 54.910643 
L 381.613038 55.312417 
" style="fill:none;stroke:#64b5cd;stroke-linecap:square;"/>
   </g>
   <g id="line2d_63">
    <path clip-path="url(#pd6519e3f07)" d="M 385.630776 53.303548 
L 386.03255 53.303548 
L 386.03255 52.901774 
L 386.434324 52.901774 
L 386.434324 52.5 
L 386.434324 52.098226 
L 386.434324 51.696452 
L 385.630776 51.696452 
L 384.827228 51.696452 
L 384.023681 52.5 
L 383.621907 52.901774 
L 383.621907 54.107095 
L 383.621907 54.910643 
L 384.425455 55.312417 
L 385.229002 55.312417 
L 386.03255 54.508869 
L 386.836098 52.901774 
L 387.237871 52.5 
L 387.639645 51.696452 
L 387.639645 51.294678 
L 387.639645 51.696452 
L 387.639645 52.098226 
L 388.041419 53.303548 
L 388.041419 54.508869 
L 388.443193 55.312417 
L 388.844967 55.714191 
" style="fill:none;stroke:#64b5cd;stroke-linecap:square;"/>
   </g>
   <g id="line2d_64">
    <path clip-path="url(#pd6519e3f07)" d="M 392.059157 51.696452 
L 392.059157 51.294678 
L 392.059157 50.892905 
L 392.059157 50.491131 
L 392.059157 50.892905 
L 392.059157 51.294678 
L 392.460931 52.5 
L 392.460931 53.705322 
L 392.460931 54.508869 
L 392.460931 55.312417 
" style="fill:none;stroke:#64b5cd;stroke-linecap:square;"/>
   </g>
   <g id="line2d_65">
    <path clip-path="url(#pd6519e3f07)" d="M 392.059157 54.107095 
L 391.657384 54.107095 
L 391.657384 53.705322 
L 391.657384 53.303548 
L 392.059157 53.303548 
L 392.460931 53.705322 
L 393.666253 53.705322 
L 394.068027 54.107095 
L 394.871574 54.107095 
L 395.273348 54.107095 
L 395.273348 53.705322 
L 395.675122 53.705322 
L 395.675122 53.303548 
L 396.076896 53.303548 
L 396.47867 52.901774 
L 396.880443 52.901774 
L 396.880443 52.5 
L 397.282217 52.098226 
L 397.683991 51.696452 
L 397.683991 51.294678 
L 397.282217 51.294678 
L 396.47867 51.294678 
L 396.076896 51.696452 
L 395.273348 52.5 
L 394.871574 53.705322 
L 394.871574 54.508869 
L 395.675122 55.714191 
L 396.076896 56.115965 
" style="fill:none;stroke:#64b5cd;stroke-linecap:square;"/>
   </g>
   <g id="line2d_66">
    <path clip-path="url(#pd6519e3f07)" d="M 419.781552 52.098226 
L 419.379778 52.098226 
L 418.576231 52.5 
L 417.370909 53.303548 
L 415.763814 54.107095 
L 415.36204 54.910643 
L 414.960266 55.714191 
L 415.36204 56.517738 
L 415.763814 56.919512 
L 416.165588 56.919512 
L 417.772683 56.517738 
L 418.174457 56.115965 
L 419.379778 53.705322 
L 419.379778 52.901774 
L 419.379778 48.884035 
L 419.379778 47.678714 
L 419.379778 46.071619 
L 418.978004 45.268071 
L 418.978004 44.866297 
L 418.978004 45.268071 
L 418.978004 46.071619 
L 418.978004 46.875166 
L 419.379778 50.089357 
L 420.183326 52.901774 
L 420.5851 55.312417 
L 420.986874 56.115965 
L 421.388647 56.919512 
L 421.790421 57.321286 
" style="fill:none;stroke:#64b5cd;stroke-linecap:square;"/>
   </g>
   <g id="line2d_67">
    <path clip-path="url(#pd6519e3f07)" d="M 423.397517 52.098226 
L 423.79929 52.098226 
L 423.79929 52.901774 
L 424.201064 53.705322 
L 424.602838 54.508869 
L 425.406386 55.312417 
" style="fill:none;stroke:#64b5cd;stroke-linecap:square;"/>
   </g>
   <g id="line2d_68">
    <path clip-path="url(#pd6519e3f07)" d="M 425.004612 48.884035 
L 425.004612 48.080488 
L 425.004612 47.27694 
L 425.406386 47.27694 
L 425.406386 46.875166 
L 426.209933 46.875166 
" style="fill:none;stroke:#64b5cd;stroke-linecap:square;"/>
   </g>
   <g id="line2d_69">
    <path clip-path="url(#pd6519e3f07)" d="M 427.817029 47.678714 
L 428.218803 48.080488 
L 428.620576 48.884035 
L 428.218803 49.687583 
L 428.218803 50.089357 
L 427.817029 50.892905 
L 427.415255 51.696452 
L 427.415255 52.098226 
L 427.817029 52.5 
L 429.424124 54.107095 
L 430.227672 54.910643 
L 430.629446 55.714191 
L 431.03122 56.115965 
L 431.03122 56.517738 
" style="fill:none;stroke:#64b5cd;stroke-linecap:square;"/>
   </g>
   <g id="line2d_70">
    <path clip-path="url(#pd6519e3f07)" d="M 433.843636 50.892905 
L 434.24541 50.491131 
L 433.843636 50.491131 
L 433.441863 50.892905 
L 433.040089 51.294678 
L 432.638315 51.696452 
L 433.040089 52.098226 
L 433.441863 52.901774 
L 434.24541 53.705322 
L 434.24541 54.107095 
L 434.647184 55.714191 
L 434.647184 56.115965 
L 434.647184 56.919512 
" style="fill:none;stroke:#64b5cd;stroke-linecap:square;"/>
   </g>
   <g id="line2d_71">
    <path clip-path="url(#pd6519e3f07)" d="M 437.057827 54.508869 
L 437.057827 54.107095 
L 437.459601 54.107095 
L 437.459601 53.705322 
L 437.057827 54.107095 
L 437.057827 54.508869 
L 437.459601 55.312417 
L 438.263149 56.517738 
L 439.066696 56.919512 
L 439.46847 56.919512 
L 440.673792 56.115965 
L 440.673792 55.312417 
L 440.673792 54.107095 
L 440.272018 53.705322 
L 438.263149 53.303548 
L 437.459601 53.705322 
" style="fill:none;stroke:#64b5cd;stroke-linecap:square;"/>
   </g>
   <g id="line2d_72">
    <path clip-path="url(#pd6519e3f07)" d="M 441.477339 48.482262 
L 441.477339 47.678714 
L 441.477339 47.27694 
L 441.477339 48.080488 
L 441.879113 49.687583 
L 441.879113 51.294678 
L 442.280887 52.901774 
L 442.682661 54.107095 
L 443.084435 54.910643 
" style="fill:none;stroke:#64b5cd;stroke-linecap:square;"/>
   </g>
   <g id="line2d_73">
    <path clip-path="url(#pd6519e3f07)" d="M 446.298625 52.5 
L 446.298625 52.098226 
L 446.298625 51.696452 
L 446.298625 52.098226 
L 446.700399 52.901774 
L 447.102173 53.705322 
L 447.503947 54.107095 
L 447.905721 54.107095 
L 447.905721 53.705322 
L 447.905721 53.303548 
L 448.307494 51.696452 
L 448.307494 51.294678 
L 448.307494 50.491131 
" style="fill:none;stroke:#64b5cd;stroke-linecap:square;"/>
   </g>
   <g id="line2d_74">
    <path clip-path="url(#pd6519e3f07)" d="M 452.325233 46.875166 
L 452.325233 47.27694 
L 452.727007 48.080488 
L 452.727007 49.687583 
L 453.12878 51.294678 
L 453.12878 52.098226 
" style="fill:none;stroke:#64b5cd;stroke-linecap:square;"/>
   </g>
   <g id="line2d_75">
    <path clip-path="url(#pd6519e3f07)" d="M 452.325233 50.892905 
L 452.325233 50.491131 
L 452.325233 50.089357 
L 452.727007 50.089357 
L 453.12878 50.089357 
L 453.530554 50.089357 
L 453.932328 49.687583 
L 454.334102 49.687583 
" style="fill:none;stroke:#64b5cd;stroke-linecap:square;"/>
   </g>
   <g id="line2d_76">
    <path clip-path="url(#pd6519e3f07)" d="M 457.548293 48.884035 
L 457.548293 48.482262 
L 457.146519 48.080488 
" style="fill:none;stroke:#64b5cd;stroke-linecap:square;"/>
   </g>
   <g id="line2d_77">
    <path clip-path="url(#pd6519e3f07)" d="M 458.35184 50.089357 
L 458.35184 50.491131 
L 457.950067 51.294678 
L 457.950067 52.901774 
L 458.35184 54.107095 
L 458.753614 54.508869 
L 459.155388 54.910643 
L 459.958936 54.910643 
L 460.36071 54.508869 
L 460.762483 53.303548 
L 460.762483 52.901774 
L 459.958936 50.892905 
L 459.557162 50.491131 
L 458.753614 50.491131 
L 458.35184 50.892905 
L 458.35184 51.294678 
L 458.35184 51.696452 
" style="fill:none;stroke:#64b5cd;stroke-linecap:square;"/>
   </g>
   <g id="line2d_78">
    <path clip-path="url(#pd6519e3f07)" d="M 465.181996 49.687583 
L 465.583769 50.089357 
L 465.985543 50.892905 
L 465.985543 51.294678 
L 465.985543 51.696452 
L 466.387317 52.098226 
L 466.789091 52.098226 
L 466.789091 51.696452 
L 467.190865 51.294678 
L 467.592639 50.089357 
L 468.396186 48.884035 
L 469.199734 47.678714 
L 469.601508 47.27694 
L 470.003282 47.678714 
L 470.003282 48.080488 
L 470.003282 48.482262 
L 470.405055 48.482262 
L 470.405055 48.884035 
" style="fill:none;stroke:#64b5cd;stroke-linecap:square;"/>
   </g>
   <g id="line2d_79">
    <path clip-path="url(#pd6519e3f07)" d="M 454.334102 50.892905 
L 454.334102 51.294678 
L 454.735876 51.696452 
L 454.735876 52.098226 
L 454.735876 52.901774 
L 454.735876 53.303548 
L 455.13765 53.705322 
L 455.13765 54.107095 
L 455.13765 54.508869 
" style="fill:none;stroke:#64b5cd;stroke-linecap:square;"/>
   </g>
   <g id="line2d_80">
    <path clip-path="url(#pd6519e3f07)" d="M 179.520798 136.470732 
L 179.520798 136.068958 
L 179.520798 135.667184 
L 179.520798 135.26541 
L 179.922572 134.863636 
L 179.922572 134.461863 
L 179.922572 134.060089 
L 179.922572 133.658315 
L 180.324346 133.658315 
L 180.324346 133.256541 
L 180.324346 132.854767 
L 180.324346 132.452993 
L 180.72612 132.452993 
L 180.72612 132.05122 
L 180.72612 131.649446 
L 181.127894 131.649446 
L 181.127894 131.247672 
L 181.127894 130.845898 
L 181.127894 130.444124 
L 181.529667 130.444124 
L 181.529667 130.04235 
L 181.931441 130.04235 
L 181.931441 129.640576 
L 181.931441 129.238803 
L 182.333215 128.837029 
L 182.333215 128.435255 
L 182.333215 128.033481 
L 182.734989 128.033481 
L 182.734989 127.631707 
L 183.136763 127.229933 
L 183.136763 126.82816 
L 183.136763 126.426386 
L 183.538537 125.622838 
L 183.538537 125.221064 
L 183.538537 124.81929 
L 183.94031 124.417517 
L 183.94031 124.015743 
L 183.94031 123.613969 
L 183.94031 123.212195 
L 184.342084 122.810421 
L 184.342084 122.006874 
L 184.743858 121.6051 
L 184.743858 121.203326 
L 184.743858 120.399778 
L 185.145632 119.998004 
L 185.145632 119.596231 
L 185.145632 119.194457 
L 185.547406 118.390909 
L 185.547406 117.587361 
L 185.94918 117.185588 
L 185.94918 116.783814 
L 186.350953 115.980266 
L 186.350953 115.176718 
L 186.350953 114.774945 
L 186.752727 114.373171 
L 186.752727 113.971397 
L 186.752727 113.167849 
L 187.154501 112.364302 
L 187.154501 111.962528 
L 187.556275 111.15898 
L 187.556275 110.355432 
L 187.556275 109.551885 
L 187.556275 109.150111 
L 187.958049 108.346563 
L 187.958049 107.944789 
L 187.958049 107.543016 
L 188.359823 106.739468 
L 188.359823 105.93592 
L 188.761596 105.534146 
L 188.761596 104.730599 
L 189.16337 104.328825 
L 189.16337 103.525277 
L 189.565144 102.721729 
L 189.565144 101.918182 
L 189.966918 101.516408 
L 189.966918 100.71286 
L 190.368692 100.311086 
L 190.368692 99.909313 
L 190.368692 99.507539 
L 190.770466 99.105765 
L 190.770466 98.703991 
L 190.770466 98.302217 
" style="fill:none;stroke:#64b5cd;stroke-linecap:square;"/>
   </g>
   <g id="line2d_81">
    <path clip-path="url(#pd6519e3f07)" d="M 186.350953 99.105765 
L 186.350953 98.703991 
L 186.752727 98.703991 
L 186.752727 98.302217 
L 187.154501 98.302217 
L 187.556275 97.900443 
L 188.359823 97.49867 
L 189.16337 97.096896 
L 189.966918 97.096896 
L 190.368692 96.695122 
L 190.770466 96.695122 
L 191.172239 96.695122 
L 191.574013 96.695122 
L 191.975787 96.695122 
L 191.975787 97.096896 
L 192.779335 97.49867 
L 193.181109 97.900443 
L 193.582882 99.105765 
L 193.984656 99.909313 
L 194.38643 100.71286 
L 194.38643 101.114634 
L 194.38643 101.516408 
L 194.38643 101.918182 
L 194.788204 102.319956 
" style="fill:none;stroke:#64b5cd;stroke-linecap:square;"/>
   </g>
   <g id="line2d_82">
    <path clip-path="url(#pd6519e3f07)" d="M 322.954058 72.588692 
L 323.355831 72.588692 
L 323.355831 72.186918 
L 323.355831 71.785144 
L 323.757605 71.785144 
L 323.757605 71.38337 
L 324.159379 71.38337 
L 324.561153 71.38337 
L 326.168248 71.38337 
L 326.971796 71.785144 
L 327.37357 72.186918 
L 327.775344 72.588692 
L 327.775344 72.990466 
L 327.37357 73.794013 
L 326.971796 74.195787 
L 326.168248 74.597561 
L 325.766475 74.999335 
L 325.364701 74.999335 
L 325.364701 75.401109 
L 324.962927 75.401109 
L 325.364701 75.401109 
L 326.168248 75.802882 
L 326.971796 76.204656 
L 327.775344 77.409978 
L 328.177118 78.213525 
L 328.177118 79.418847 
L 327.775344 80.222395 
L 326.971796 81.025942 
L 326.168248 81.025942 
L 324.962927 80.624169 
L 324.159379 79.820621 
L 323.355831 79.418847 
L 323.355831 79.017073 
" style="fill:none;stroke:#c44e52;stroke-linecap:square;"/>
   </g>
   <g id="line2d_83">
    <path clip-path="url(#pd6519e3f07)" d="M 325.364701 68.972727 
L 325.364701 68.570953 
L 324.962927 68.16918 
L 324.561153 68.16918 
L 324.159379 68.16918 
L 323.355831 68.16918 
L 322.15051 68.16918 
L 320.945188 68.972727 
L 320.141641 69.374501 
L 318.936319 70.579823 
L 317.730998 72.186918 
L 317.329224 73.392239 
L 316.92745 75.401109 
L 317.329224 77.008204 
L 317.730998 79.820621 
L 318.936319 81.82949 
L 320.543415 83.436585 
L 322.15051 84.240133 
L 324.159379 84.641907 
L 326.168248 84.641907 
L 328.177118 84.240133 
L 329.784213 83.034812 
L 330.989534 82.231264 
L 332.59663 80.222395 
L 332.998404 78.615299 
L 332.998404 77.008204 
L 332.59663 74.999335 
L 330.989534 72.990466 
L 329.382439 70.981596 
L 328.177118 69.776275 
L 326.570022 69.374501 
L 325.364701 69.374501 
L 323.757605 70.178049 
L 322.552284 70.981596 
L 322.15051 70.981596 
" style="fill:none;stroke:#c44e52;stroke-linecap:square;"/>
   </g>
   <g id="line2d_84">
    <path clip-path="url(#pd6519e3f07)" d="M 354.292417 70.981596 
L 353.890643 70.981596 
L 353.890643 70.579823 
L 353.087095 70.981596 
L 352.283548 70.981596 
L 350.274678 72.186918 
L 349.471131 73.392239 
L 348.667583 74.999335 
L 348.265809 77.008204 
L 348.667583 78.615299 
L 349.872905 79.820621 
L 351.48 80.222395 
L 352.283548 80.222395 
" style="fill:none;stroke:#c44e52;stroke-linecap:square;"/>
   </g>
   <g id="line2d_85">
    <path clip-path="url(#pd6519e3f07)" d="M 359.113703 74.195787 
L 359.113703 73.794013 
L 358.711929 73.794013 
L 358.310155 73.794013 
L 357.908381 74.195787 
L 357.506608 75.401109 
L 357.104834 76.60643 
L 357.506608 77.811752 
L 358.711929 79.017073 
L 359.515477 79.418847 
L 360.720798 79.017073 
L 361.92612 78.213525 
L 362.729667 77.008204 
L 362.729667 75.802882 
L 361.92612 74.597561 
L 361.524346 73.794013 
L 360.319024 73.794013 
L 359.515477 74.195787 
L 359.113703 74.597561 
L 358.711929 74.597561 
" style="fill:none;stroke:#c44e52;stroke-linecap:square;"/>
   </g>
   <g id="line2d_86">
    <path clip-path="url(#pd6519e3f07)" d="M 367.14918 76.60643 
L 367.14918 76.204656 
L 367.550953 75.802882 
L 367.952727 75.802882 
L 369.158049 75.802882 
L 369.559823 75.802882 
L 369.961596 75.802882 
L 369.961596 76.204656 
L 369.961596 77.008204 
L 369.158049 77.811752 
L 368.756275 79.017073 
L 367.952727 79.820621 
L 367.952727 80.624169 
L 368.354501 81.025942 
L 368.756275 81.025942 
L 370.36337 81.025942 
L 372.372239 81.025942 
L 372.774013 81.025942 
" style="fill:none;stroke:#c44e52;stroke-linecap:square;"/>
   </g>
   <g id="line2d_87">
    <path clip-path="url(#pd6519e3f07)" d="M 386.434324 76.60643 
L 386.434324 77.008204 
L 386.03255 77.811752 
L 386.03255 78.615299 
L 386.434324 79.820621 
L 386.434324 80.222395 
" style="fill:none;stroke:#c44e52;stroke-linecap:square;"/>
   </g>
   <g id="line2d_88">
    <path clip-path="url(#pd6519e3f07)" d="M 385.229002 72.588692 
L 385.229002 72.186918 
" style="fill:none;stroke:#c44e52;stroke-linecap:square;"/>
   </g>
   <g id="line2d_89">
    <path clip-path="url(#pd6519e3f07)" d="M 389.648514 77.008204 
L 389.246741 77.409978 
L 389.246741 77.811752 
L 389.246741 78.615299 
L 389.246741 79.017073 
L 389.246741 79.418847 
L 389.648514 78.213525 
L 390.452062 76.60643 
L 390.853836 75.802882 
L 391.25561 75.401109 
L 392.059157 75.802882 
L 392.059157 76.60643 
L 392.460931 77.811752 
L 392.862705 79.017073 
L 393.264479 80.222395 
L 393.264479 81.025942 
L 393.666253 81.025942 
" style="fill:none;stroke:#c44e52;stroke-linecap:square;"/>
   </g>
   <g id="line2d_90">
    <path clip-path="url(#pd6519e3f07)" d="M 395.273348 77.409978 
L 395.675122 77.008204 
L 395.675122 76.60643 
L 396.076896 76.60643 
L 396.076896 77.008204 
L 396.47867 78.213525 
L 397.282217 79.418847 
L 397.683991 80.222395 
L 398.487539 80.222395 
L 398.889313 79.820621 
L 399.291086 79.017073 
L 399.69286 77.811752 
L 399.69286 76.60643 
L 399.69286 76.204656 
L 399.69286 75.802882 
" style="fill:none;stroke:#c44e52;stroke-linecap:square;"/>
   </g>
   <g id="line2d_91">
    <path clip-path="url(#pd6519e3f07)" d="M 402.907051 76.204656 
L 402.907051 75.802882 
L 402.505277 75.802882 
L 402.103503 75.802882 
L 401.701729 75.802882 
L 400.898182 76.60643 
L 400.496408 77.409978 
L 401.299956 78.213525 
L 402.103503 79.017073 
L 403.308825 79.017073 
L 403.710599 78.615299 
L 404.514146 77.811752 
L 404.91592 76.60643 
L 405.317694 75.802882 
L 405.317694 74.999335 
L 404.91592 74.999335 
L 404.91592 74.597561 
L 404.91592 74.999335 
L 404.91592 75.802882 
L 405.317694 76.60643 
L 405.719468 77.811752 
L 405.719468 79.017073 
L 406.121242 79.820621 
" style="fill:none;stroke:#c44e52;stroke-linecap:square;"/>
   </g>
   <g id="line2d_92">
    <path clip-path="url(#pd6519e3f07)" d="M 411.344302 73.392239 
L 410.942528 73.392239 
L 410.540754 73.794013 
L 410.13898 73.794013 
L 409.335432 74.195787 
L 408.531885 74.597561 
L 407.728337 74.597561 
L 407.728337 74.999335 
L 407.326563 74.999335 
L 407.728337 75.401109 
L 408.130111 75.802882 
L 409.335432 76.60643 
L 410.13898 77.008204 
L 411.344302 77.811752 
L 411.344302 79.017073 
L 411.344302 79.820621 
L 411.344302 80.624169 
L 410.540754 80.624169 
L 410.13898 80.222395 
L 409.737206 79.820621 
" style="fill:none;stroke:#c44e52;stroke-linecap:square;"/>
   </g>
   <g id="line2d_93">
    <path clip-path="url(#pd6519e3f07)" d="M 411.746075 76.204656 
L 412.147849 76.204656 
L 412.951397 76.204656 
L 413.353171 77.008204 
L 413.754945 77.811752 
L 414.156718 79.017073 
L 414.156718 79.820621 
" style="fill:none;stroke:#c44e52;stroke-linecap:square;"/>
   </g>
   <g id="line2d_94">
    <path clip-path="url(#pd6519e3f07)" d="M 414.960266 74.195787 
L 414.960266 73.392239 
L 414.960266 72.588692 
L 414.960266 72.186918 
L 414.960266 72.588692 
L 415.36204 72.588692 
" style="fill:none;stroke:#c44e52;stroke-linecap:square;"/>
   </g>
   <g id="line2d_95">
    <path clip-path="url(#pd6519e3f07)" d="M 416.567361 75.802882 
L 416.165588 76.204656 
L 416.165588 76.60643 
L 416.165588 77.008204 
L 416.567361 77.409978 
L 417.370909 77.811752 
L 418.576231 77.811752 
L 419.379778 77.008204 
L 419.781552 75.802882 
L 419.781552 75.401109 
L 418.576231 74.597561 
L 417.772683 74.597561 
L 416.969135 74.999335 
" style="fill:none;stroke:#c44e52;stroke-linecap:square;"/>
   </g>
   <g id="line2d_96">
    <path clip-path="url(#pd6519e3f07)" d="M 421.790421 74.999335 
L 422.192195 74.999335 
L 422.593969 74.597561 
L 422.995743 74.597561 
L 422.995743 74.999335 
L 422.995743 75.401109 
L 422.995743 75.802882 
L 423.397517 76.204656 
L 423.79929 75.802882 
L 424.201064 75.401109 
L 424.201064 74.999335 
L 425.406386 74.195787 
L 426.209933 73.392239 
L 426.611707 73.392239 
L 427.415255 73.794013 
L 427.817029 74.597561 
L 427.817029 74.999335 
L 428.218803 75.401109 
L 428.218803 75.802882 
L 428.620576 75.802882 
L 428.620576 75.401109 
L 429.02235 75.401109 
" style="fill:none;stroke:#c44e52;stroke-linecap:square;"/>
   </g>
   <g id="line2d_97">
    <path clip-path="url(#pd6519e3f07)" d="M 181.127894 138.881375 
L 181.529667 138.881375 
L 181.931441 138.881375 
L 182.333215 138.881375 
L 182.333215 139.283149 
L 182.734989 139.283149 
L 183.136763 139.283149 
L 183.538537 139.283149 
L 183.94031 139.283149 
L 184.342084 139.283149 
L 184.743858 139.283149 
L 185.145632 139.283149 
L 185.547406 139.283149 
L 185.94918 139.283149 
L 186.350953 139.283149 
L 186.752727 139.283149 
L 187.154501 139.283149 
L 187.556275 139.283149 
L 187.958049 139.283149 
L 188.359823 139.283149 
L 188.761596 139.283149 
L 189.16337 139.283149 
L 189.565144 139.283149 
L 189.966918 139.283149 
L 190.368692 139.283149 
L 190.770466 139.283149 
L 191.172239 139.283149 
L 191.574013 139.283149 
L 191.975787 139.283149 
L 192.377561 139.283149 
L 192.779335 139.283149 
L 193.181109 139.283149 
L 193.984656 139.283149 
L 194.38643 139.283149 
L 194.788204 139.283149 
L 195.189978 139.283149 
L 195.993525 139.283149 
L 196.395299 139.283149 
L 196.797073 139.283149 
L 197.198847 139.283149 
L 198.002395 139.283149 
L 198.404169 139.283149 
L 198.805942 139.283149 
L 199.60949 139.283149 
L 200.011264 139.283149 
L 200.413038 139.283149 
L 201.216585 139.283149 
L 201.618359 139.283149 
L 202.020133 139.283149 
L 202.421907 139.283149 
L 202.823681 139.283149 
L 203.627228 139.283149 
L 204.029002 139.283149 
L 204.83255 139.283149 
L 205.234324 139.283149 
L 206.037871 139.283149 
L 206.439645 139.283149 
L 207.243193 139.283149 
L 207.644967 139.283149 
L 208.046741 139.283149 
L 208.850288 139.283149 
L 209.252062 139.283149 
L 210.05561 139.283149 
L 210.457384 139.283149 
L 210.859157 139.283149 
L 211.260931 139.283149 
L 212.064479 139.283149 
L 212.466253 139.283149 
L 212.868027 139.283149 
L 213.2698 139.283149 
L 213.671574 139.283149 
L 214.073348 138.881375 
L 214.876896 138.881375 
L 215.27867 138.881375 
" style="fill:none;stroke:#c44e52;stroke-linecap:square;"/>
   </g>
   <g id="line2d_98">
    <path clip-path="url(#pd6519e3f07)" d="M 212.868027 135.26541 
L 212.466253 135.26541 
L 212.466253 135.667184 
L 212.868027 135.667184 
L 213.2698 136.068958 
L 213.671574 136.068958 
L 214.475122 136.470732 
L 215.680443 136.872506 
L 216.082217 137.274279 
L 216.483991 138.077827 
L 216.885765 138.077827 
L 216.885765 138.479601 
L 216.885765 138.881375 
L 216.885765 139.283149 
L 216.483991 140.086696 
L 215.27867 140.890244 
L 214.876896 141.693792 
L 214.073348 142.095565 
L 214.073348 142.497339 
L 213.671574 142.497339 
" style="fill:none;stroke:#c44e52;stroke-linecap:square;"/>
   </g>
   <g id="line2d_99">
    <path clip-path="url(#pd6519e3f07)" d="M 325.364701 94.686253 
L 325.364701 95.088027 
L 325.766475 95.088027 
L 325.766475 95.4898 
L 325.364701 95.891574 
L 325.364701 96.293348 
L 325.364701 96.695122 
L 325.364701 97.096896 
L 325.364701 97.49867 
L 325.364701 98.703991 
L 325.766475 99.909313 
L 326.168248 100.311086 
L 326.971796 100.71286 
L 328.177118 99.909313 
L 328.980665 99.105765 
L 329.784213 98.302217 
" style="fill:none;stroke:#55a868;stroke-linecap:square;"/>
   </g>
   <g id="line2d_100">
    <path clip-path="url(#pd6519e3f07)" d="M 328.578891 94.686253 
L 328.578891 95.088027 
L 328.578891 96.293348 
L 328.980665 97.49867 
L 328.980665 99.507539 
L 329.382439 101.918182 
L 329.784213 103.123503 
L 330.185987 104.328825 
" style="fill:none;stroke:#55a868;stroke-linecap:square;"/>
   </g>
   <g id="line2d_101">
    <path clip-path="url(#pd6519e3f07)" d="M 326.168248 92.677384 
L 325.766475 92.27561 
L 325.766475 91.873836 
L 324.962927 91.873836 
L 324.561153 91.873836 
L 323.355831 92.27561 
L 322.552284 92.677384 
L 321.748736 93.882705 
L 320.945188 95.891574 
L 321.346962 98.302217 
L 321.748736 100.311086 
L 322.954058 102.721729 
L 324.159379 104.730599 
L 326.168248 105.534146 
L 328.177118 106.337694 
L 329.784213 106.337694 
L 331.793082 105.534146 
L 333.400177 104.328825 
L 334.605499 102.721729 
L 335.409047 100.71286 
L 335.409047 98.302217 
L 335.007273 95.891574 
L 333.801951 94.284479 
L 331.793082 92.677384 
L 330.185987 92.27561 
L 327.775344 91.873836 
L 326.168248 92.27561 
L 324.561153 92.27561 
L 324.159379 92.27561 
" style="fill:none;stroke:#55a868;stroke-linecap:square;"/>
   </g>
   <g id="line2d_102">
    <path clip-path="url(#pd6519e3f07)" d="M 359.515477 93.079157 
L 359.113703 93.079157 
L 358.310155 93.079157 
L 357.506608 94.284479 
L 356.301286 95.891574 
L 355.497738 98.302217 
L 356.301286 101.114634 
L 357.506608 102.721729 
L 359.515477 103.927051 
L 360.720798 103.927051 
L 361.524346 103.525277 
" style="fill:none;stroke:#55a868;stroke-linecap:square;"/>
   </g>
   <g id="line2d_103">
    <path clip-path="url(#pd6519e3f07)" d="M 363.934989 96.293348 
L 363.533215 95.891574 
L 363.131441 95.891574 
L 362.729667 96.293348 
L 362.327894 97.096896 
L 362.327894 98.703991 
L 362.729667 99.909313 
L 363.533215 101.114634 
L 365.14031 101.918182 
L 366.345632 101.516408 
L 367.14918 100.311086 
L 367.550953 97.900443 
L 367.14918 96.695122 
L 365.943858 95.088027 
L 364.738537 94.686253 
L 363.934989 94.686253 
L 363.131441 95.088027 
L 363.131441 95.4898 
" style="fill:none;stroke:#55a868;stroke-linecap:square;"/>
   </g>
   <g id="line2d_104">
    <path clip-path="url(#pd6519e3f07)" d="M 369.961596 99.909313 
L 369.961596 99.507539 
L 369.559823 99.507539 
L 369.158049 99.105765 
L 369.158049 98.703991 
L 369.559823 98.302217 
L 370.36337 97.900443 
L 371.166918 97.49867 
L 371.568692 97.900443 
L 371.568692 98.302217 
L 371.166918 99.507539 
L 370.36337 101.114634 
L 369.961596 102.319956 
L 369.961596 103.525277 
L 370.36337 104.328825 
L 371.568692 104.328825 
L 373.175787 104.328825 
L 375.184656 104.328825 
L 375.58643 103.927051 
" style="fill:none;stroke:#55a868;stroke-linecap:square;"/>
   </g>
   <g id="line2d_105">
    <path clip-path="url(#pd6519e3f07)" d="M 390.452062 100.311086 
L 390.853836 100.311086 
L 391.25561 99.909313 
L 391.657384 99.909313 
L 391.657384 99.507539 
L 391.25561 99.507539 
L 390.853836 99.507539 
L 390.452062 99.909313 
L 389.648514 100.71286 
L 389.246741 101.516408 
L 388.844967 102.319956 
L 389.246741 102.319956 
L 389.648514 102.721729 
L 390.853836 102.319956 
L 391.25561 101.516408 
L 392.059157 99.507539 
L 392.460931 98.302217 
L 392.460931 96.293348 
L 392.460931 95.088027 
L 392.460931 94.284479 
L 392.460931 93.882705 
L 392.460931 94.284479 
L 392.460931 94.686253 
L 392.460931 95.4898 
L 392.460931 97.900443 
L 393.264479 99.909313 
L 393.666253 101.114634 
L 394.068027 101.516408 
" style="fill:none;stroke:#55a868;stroke-linecap:square;"/>
   </g>
   <g id="line2d_106">
    <path clip-path="url(#pd6519e3f07)" d="M 395.273348 100.71286 
L 395.675122 100.311086 
L 396.076896 100.311086 
L 396.880443 99.909313 
L 397.282217 99.105765 
L 397.683991 98.302217 
L 397.683991 97.49867 
L 396.880443 97.096896 
L 396.47867 97.096896 
L 395.273348 98.302217 
L 394.871574 99.105765 
L 395.273348 100.311086 
L 396.47867 101.114634 
L 396.880443 101.114634 
" style="fill:none;stroke:#55a868;stroke-linecap:square;"/>
   </g>
   <g id="line2d_107">
    <path clip-path="url(#pd6519e3f07)" d="M 402.103503 100.71286 
L 402.103503 100.311086 
L 402.103503 99.909313 
L 401.701729 99.909313 
L 401.299956 99.909313 
L 400.496408 99.909313 
L 400.094634 100.71286 
L 399.291086 101.516408 
L 399.291086 101.918182 
L 400.094634 101.918182 
L 400.898182 101.516408 
L 401.701729 100.71286 
L 401.701729 99.909313 
L 401.701729 99.105765 
L 401.701729 98.703991 
L 401.701729 99.105765 
L 402.103503 99.909313 
L 402.907051 102.319956 
L 403.710599 104.730599 
L 404.514146 107.543016 
L 404.514146 108.748337 
L 403.710599 109.551885 
L 402.505277 109.953659 
L 400.898182 109.150111 
L 399.291086 107.944789 
L 398.889313 107.141242 
" style="fill:none;stroke:#55a868;stroke-linecap:square;"/>
   </g>
   <g id="line2d_108">
    <path clip-path="url(#pd6519e3f07)" d="M 407.326563 100.311086 
L 407.326563 99.909313 
L 406.924789 99.507539 
L 406.523016 99.507539 
L 406.121242 99.507539 
L 404.91592 99.909313 
L 404.112373 100.71286 
L 403.710599 101.516408 
L 403.710599 101.918182 
L 404.112373 102.319956 
L 404.91592 101.918182 
L 406.121242 101.516408 
L 406.523016 101.114634 
L 406.924789 100.311086 
L 407.326563 99.909313 
L 407.326563 99.507539 
L 407.326563 100.311086 
L 407.728337 101.516408 
L 408.130111 102.721729 
L 408.531885 103.927051 
L 408.933659 103.927051 
L 409.335432 103.927051 
" style="fill:none;stroke:#55a868;stroke-linecap:square;"/>
   </g>
   <g id="line2d_109">
    <path clip-path="url(#pd6519e3f07)" d="M 411.746075 99.909313 
L 411.746075 99.507539 
L 411.746075 99.105765 
L 411.344302 99.105765 
L 410.942528 98.703991 
L 410.540754 99.105765 
L 409.737206 99.105765 
L 408.933659 99.507539 
L 408.933659 99.909313 
L 409.335432 100.311086 
L 409.737206 101.114634 
L 410.540754 101.918182 
L 410.942528 102.319956 
L 411.344302 103.525277 
L 411.344302 103.927051 
L 411.344302 104.328825 
" style="fill:none;stroke:#55a868;stroke-linecap:square;"/>
   </g>
   <g id="line2d_110">
    <path clip-path="url(#pd6519e3f07)" d="M 415.763814 98.302217 
L 415.763814 97.900443 
L 415.36204 97.900443 
L 414.960266 97.900443 
L 414.558492 97.900443 
L 414.156718 97.900443 
L 413.754945 98.302217 
L 413.353171 98.302217 
L 413.353171 98.703991 
L 413.353171 99.105765 
L 413.754945 99.105765 
L 413.754945 99.507539 
L 414.156718 99.909313 
L 414.558492 101.114634 
L 414.960266 102.319956 
L 414.960266 103.123503 
L 414.960266 103.525277 
L 414.960266 103.927051 
" style="fill:none;stroke:#55a868;stroke-linecap:square;"/>
   </g>
   <g id="line2d_111">
    <path clip-path="url(#pd6519e3f07)" d="M 418.576231 100.311086 
L 418.576231 100.71286 
L 418.576231 101.114634 
L 418.576231 101.516408 
L 418.978004 101.918182 
L 418.978004 102.319956 
" style="fill:none;stroke:#55a868;stroke-linecap:square;"/>
   </g>
   <g id="line2d_112">
    <path clip-path="url(#pd6519e3f07)" d="M 418.978004 99.105765 
L 418.978004 98.703991 
L 418.978004 97.096896 
L 418.978004 96.293348 
" style="fill:none;stroke:#55a868;stroke-linecap:square;"/>
   </g>
   <g id="line2d_113">
    <path clip-path="url(#pd6519e3f07)" d="M 420.5851 99.507539 
L 420.5851 99.909313 
L 420.5851 101.114634 
L 420.5851 101.516408 
L 420.5851 101.918182 
L 420.5851 102.319956 
L 420.986874 102.319956 
L 420.986874 101.918182 
L 421.790421 100.71286 
L 422.192195 99.507539 
L 422.593969 98.703991 
L 422.995743 98.703991 
L 423.397517 99.105765 
L 423.397517 99.909313 
L 423.397517 101.114634 
L 423.79929 101.918182 
L 423.79929 102.319956 
" style="fill:none;stroke:#55a868;stroke-linecap:square;"/>
   </g>
   <g id="line2d_114">
    <path clip-path="url(#pd6519e3f07)" d="M 427.817029 101.114634 
L 427.817029 100.71286 
L 428.218803 100.311086 
L 428.218803 99.507539 
L 428.620576 99.105765 
L 428.218803 98.703991 
L 427.817029 98.703991 
L 427.415255 99.105765 
L 426.611707 99.909313 
L 426.611707 100.71286 
L 426.611707 101.516408 
L 427.415255 101.114634 
L 428.218803 100.71286 
L 429.02235 99.909313 
L 429.424124 99.105765 
L 429.825898 98.302217 
L 429.825898 97.900443 
L 429.424124 97.900443 
L 429.424124 97.49867 
L 429.424124 97.900443 
L 429.424124 99.105765 
L 429.424124 101.114634 
L 429.825898 103.123503 
L 429.825898 104.730599 
L 429.424124 106.739468 
L 429.424124 107.543016 
L 428.620576 107.944789 
" style="fill:none;stroke:#55a868;stroke-linecap:square;"/>
   </g>
   <g id="line2d_115">
    <path clip-path="url(#pd6519e3f07)" d="M 175.50306 140.086696 
L 175.101286 140.086696 
L 175.50306 140.086696 
L 175.904834 140.086696 
L 175.904834 140.48847 
L 175.50306 140.48847 
L 175.101286 140.48847 
L 174.699512 140.48847 
L 174.297738 140.48847 
L 174.297738 140.890244 
L 173.895965 140.890244 
L 173.494191 140.890244 
L 173.092417 140.890244 
L 172.690643 140.890244 
L 172.288869 140.890244 
L 171.887095 141.292018 
L 171.485322 141.292018 
L 171.083548 141.292018 
L 170.681774 141.292018 
L 170.28 141.292018 
L 169.878226 141.292018 
L 169.476452 141.292018 
L 169.476452 141.693792 
L 169.074678 141.693792 
L 168.672905 141.693792 
L 168.271131 141.693792 
L 167.869357 141.693792 
L 167.467583 141.693792 
L 167.065809 141.693792 
L 166.664035 141.693792 
L 166.262262 141.693792 
L 165.860488 141.693792 
L 165.458714 141.693792 
L 165.05694 141.693792 
L 164.655166 141.693792 
L 164.253392 141.292018 
L 163.851619 141.292018 
L 163.449845 141.292018 
L 163.048071 141.292018 
L 162.646297 141.292018 
L 162.244523 141.292018 
L 161.842749 141.292018 
L 161.440976 141.292018 
L 161.039202 141.292018 
L 160.637428 141.292018 
L 160.235654 141.292018 
L 159.83388 141.292018 
L 159.030333 141.292018 
L 158.628559 141.292018 
L 158.226785 141.292018 
L 157.825011 141.693792 
L 157.423237 141.693792 
L 157.021463 141.693792 
L 156.61969 141.693792 
L 155.816142 141.693792 
L 155.414368 141.693792 
L 155.012594 141.693792 
L 154.61082 141.693792 
L 154.209047 141.693792 
L 153.405499 141.693792 
L 153.003725 141.693792 
L 152.601951 141.693792 
L 152.200177 141.693792 
L 151.798404 141.693792 
L 151.39663 141.693792 
L 150.593082 141.693792 
L 150.191308 142.095565 
L 149.789534 142.095565 
L 149.387761 142.095565 
L 148.985987 142.095565 
L 148.584213 142.095565 
L 148.182439 142.095565 
L 147.780665 142.095565 
L 147.378891 142.095565 
L 146.977118 142.095565 
L 146.575344 142.095565 
L 146.17357 142.095565 
L 145.771796 142.095565 
L 145.370022 142.095565 
L 144.968248 142.095565 
L 144.566475 142.095565 
L 144.968248 142.095565 
" style="fill:none;stroke:#55a868;stroke-linecap:square;"/>
   </g>
   <g id="line2d_116">
    <path clip-path="url(#pd6519e3f07)" d="M 142.959379 140.890244 
L 142.557605 140.890244 
L 142.557605 140.48847 
L 142.959379 140.086696 
L 143.361153 140.086696 
L 143.361153 140.48847 
L 142.959379 140.48847 
L 142.959379 140.890244 
L 142.557605 140.890244 
L 141.754058 141.693792 
L 140.548736 142.497339 
L 139.745188 143.300887 
L 139.343415 144.104435 
L 139.343415 144.907982 
L 139.343415 145.309756 
L 140.548736 145.71153 
L 141.754058 146.113304 
L 142.959379 146.515078 
L 143.361153 146.515078 
" style="fill:none;stroke:#55a868;stroke-linecap:square;"/>
   </g>
   <g id="line2d_117">
    <path clip-path="url(#pd6519e3f07)" d="M 327.37357 117.587361 
L 326.971796 117.587361 
L 327.37357 117.587361 
L 327.775344 117.587361 
L 328.177118 117.587361 
L 328.578891 117.587361 
L 329.784213 117.587361 
L 330.587761 117.587361 
L 331.391308 117.587361 
L 331.793082 117.185588 
L 332.194856 117.185588 
L 332.59663 117.185588 
L 332.998404 116.783814 
L 332.998404 116.38204 
L 332.59663 116.38204 
L 332.194856 116.38204 
L 332.194856 115.980266 
L 331.793082 115.980266 
L 330.989534 115.980266 
L 330.185987 116.38204 
L 329.382439 116.38204 
L 328.578891 116.38204 
L 328.177118 116.783814 
L 327.775344 116.783814 
L 327.37357 116.783814 
L 326.971796 116.783814 
L 326.570022 117.185588 
L 326.570022 117.587361 
L 326.168248 117.587361 
L 326.168248 117.989135 
L 326.168248 118.792683 
L 326.570022 119.596231 
L 326.570022 120.399778 
L 326.570022 120.801552 
L 326.971796 121.203326 
L 326.971796 120.801552 
L 327.37357 120.801552 
L 327.37357 120.399778 
L 328.177118 120.399778 
L 328.578891 119.998004 
L 329.784213 120.399778 
L 330.587761 121.6051 
L 331.391308 122.810421 
L 332.194856 124.015743 
L 332.194856 125.221064 
L 331.391308 126.024612 
L 329.784213 126.82816 
L 328.177118 127.229933 
L 326.570022 126.82816 
L 325.766475 126.82816 
" style="fill:none;stroke:#dd8452;stroke-linecap:square;"/>
   </g>
   <g id="line2d_118">
    <path clip-path="url(#pd6519e3f07)" d="M 328.578891 113.971397 
L 328.177118 113.971397 
L 327.775344 113.971397 
L 327.37357 113.569623 
L 326.971796 113.971397 
L 325.766475 114.373171 
L 324.159379 115.980266 
L 322.954058 117.989135 
L 321.748736 119.998004 
L 321.346962 122.006874 
L 321.748736 123.613969 
L 322.552284 126.024612 
L 324.159379 128.033481 
L 326.168248 129.238803 
L 330.185987 130.444124 
L 332.59663 130.444124 
L 335.81082 129.640576 
L 338.221463 128.033481 
L 339.426785 126.024612 
L 339.426785 124.015743 
L 338.623237 121.6051 
L 336.614368 118.390909 
L 334.203725 115.980266 
L 332.59663 114.774945 
L 330.587761 114.373171 
L 328.980665 114.373171 
L 327.37357 115.578492 
L 325.766475 116.38204 
L 325.766475 116.783814 
" style="fill:none;stroke:#dd8452;stroke-linecap:square;"/>
   </g>
   <g id="line2d_119">
    <path clip-path="url(#pd6519e3f07)" d="M 364.336763 124.417517 
L 364.336763 124.81929 
L 363.934989 125.221064 
L 363.934989 125.622838 
L 364.336763 126.024612 
L 364.738537 126.426386 
L 365.943858 127.229933 
L 366.345632 127.229933 
L 367.14918 126.82816 
L 367.550953 126.426386 
L 367.550953 125.221064 
L 367.550953 124.417517 
L 366.747406 123.212195 
L 365.943858 122.408647 
L 365.14031 122.006874 
L 364.336763 121.6051 
L 363.131441 122.006874 
L 362.729667 122.408647 
L 362.327894 122.810421 
L 361.92612 124.015743 
L 362.327894 125.221064 
L 362.729667 126.82816 
L 363.934989 128.837029 
L 364.738537 131.247672 
L 365.542084 132.854767 
L 365.943858 133.658315 
L 366.345632 134.060089 
" style="fill:none;stroke:#dd8452;stroke-linecap:square;"/>
   </g>
   <g id="line2d_120">
    <path clip-path="url(#pd6519e3f07)" d="M 367.550953 117.587361 
L 367.952727 117.587361 
L 367.952727 117.185588 
L 367.952727 117.587361 
L 367.952727 118.390909 
L 368.354501 120.399778 
L 368.756275 122.408647 
L 369.158049 124.015743 
L 369.158049 125.221064 
L 369.559823 126.024612 
L 369.559823 125.622838 
L 369.961596 124.81929 
L 370.36337 124.015743 
L 371.166918 123.212195 
L 371.970466 122.810421 
L 372.774013 122.810421 
L 373.577561 123.212195 
L 374.381109 124.417517 
L 374.782882 125.221064 
L 375.184656 126.024612 
L 375.184656 126.426386 
L 375.58643 126.426386 
" style="fill:none;stroke:#dd8452;stroke-linecap:square;"/>
   </g>
   <g id="line2d_121">
    <path clip-path="url(#pd6519e3f07)" d="M 375.988204 125.221064 
L 375.988204 124.81929 
L 375.988204 124.417517 
L 375.58643 124.417517 
L 375.988204 125.221064 
L 375.988204 126.024612 
L 377.193525 126.426386 
L 377.997073 126.82816 
L 378.800621 126.426386 
L 379.604169 126.024612 
L 379.604169 125.221064 
L 379.604169 124.81929 
L 378.800621 124.417517 
L 377.595299 124.81929 
L 376.389978 124.81929 
L 375.988204 124.81929 
L 375.58643 124.81929 
" style="fill:none;stroke:#dd8452;stroke-linecap:square;"/>
   </g>
   <g id="line2d_122">
    <path clip-path="url(#pd6519e3f07)" d="M 380.005942 122.810421 
L 380.407716 122.810421 
L 380.80949 122.810421 
L 380.80949 123.212195 
L 381.211264 124.81929 
L 381.613038 126.024612 
L 382.416585 127.229933 
L 382.818359 128.033481 
" style="fill:none;stroke:#dd8452;stroke-linecap:square;"/>
   </g>
   <g id="line2d_123">
    <path clip-path="url(#pd6519e3f07)" d="M 381.211264 125.221064 
L 380.80949 125.221064 
L 381.613038 124.81929 
L 382.818359 124.81929 
L 383.621907 124.81929 
L 384.023681 124.81929 
L 384.425455 124.81929 
L 384.827228 124.81929 
L 384.827228 125.221064 
L 384.827228 126.024612 
L 385.229002 126.82816 
L 386.434324 127.229933 
L 387.639645 127.631707 
L 388.041419 127.229933 
L 388.844967 126.426386 
L 388.844967 126.024612 
L 388.443193 125.221064 
L 388.041419 124.81929 
L 387.237871 124.81929 
L 386.434324 124.417517 
" style="fill:none;stroke:#dd8452;stroke-linecap:square;"/>
   </g>
   <g id="line2d_124">
    <path clip-path="url(#pd6519e3f07)" d="M 394.871574 123.212195 
L 394.871574 123.613969 
L 394.4698 123.613969 
L 394.068027 123.613969 
L 393.666253 124.015743 
L 392.862705 124.417517 
L 392.460931 124.81929 
L 392.059157 124.81929 
L 392.059157 125.221064 
L 393.264479 125.622838 
L 394.4698 126.024612 
L 395.675122 126.82816 
L 396.076896 127.229933 
L 396.47867 128.033481 
L 396.076896 128.837029 
L 395.675122 129.238803 
L 394.871574 129.238803 
L 394.4698 129.238803 
" style="fill:none;stroke:#dd8452;stroke-linecap:square;"/>
   </g>
   <g id="line2d_125">
    <path clip-path="url(#pd6519e3f07)" d="M 396.880443 126.426386 
L 397.282217 126.426386 
L 397.683991 126.82816 
L 398.889313 127.229933 
L 399.69286 127.229933 
L 400.898182 127.229933 
L 402.103503 126.82816 
L 402.505277 126.426386 
L 402.907051 125.622838 
L 402.907051 125.221064 
L 402.907051 124.81929 
L 402.907051 125.221064 
L 402.907051 125.622838 
L 402.907051 126.426386 
L 403.308825 128.033481 
L 403.308825 129.238803 
L 403.710599 130.04235 
L 403.710599 130.444124 
" style="fill:none;stroke:#dd8452;stroke-linecap:square;"/>
   </g>
   <g id="line2d_126">
    <path clip-path="url(#pd6519e3f07)" d="M 406.523016 125.622838 
L 406.121242 125.622838 
L 406.121242 126.024612 
L 406.121242 126.426386 
L 406.121242 127.229933 
L 406.121242 127.631707 
L 406.121242 128.033481 
L 406.523016 128.033481 
L 406.924789 127.631707 
L 407.326563 126.426386 
L 408.531885 125.221064 
L 408.933659 124.417517 
L 409.737206 124.015743 
L 410.13898 124.015743 
L 410.942528 124.417517 
L 411.344302 125.622838 
L 411.746075 126.82816 
L 412.147849 127.631707 
L 412.549623 128.033481 
" style="fill:none;stroke:#dd8452;stroke-linecap:square;"/>
   </g>
   <g id="line2d_127">
    <path clip-path="url(#pd6519e3f07)" d="M 413.353171 124.015743 
L 413.754945 123.212195 
L 413.754945 122.810421 
L 414.156718 123.613969 
L 414.558492 124.81929 
L 414.960266 127.229933 
L 415.36204 128.033481 
L 415.763814 128.435255 
" style="fill:none;stroke:#dd8452;stroke-linecap:square;"/>
   </g>
   <g id="line2d_128">
    <path clip-path="url(#pd6519e3f07)" d="M 412.951397 126.024612 
L 413.353171 126.024612 
L 413.754945 126.024612 
L 414.558492 126.024612 
L 415.763814 126.024612 
L 416.567361 125.622838 
L 417.772683 125.221064 
L 418.174457 124.81929 
" style="fill:none;stroke:#dd8452;stroke-linecap:square;"/>
   </g>
   <g id="line2d_129">
    <path clip-path="url(#pd6519e3f07)" d="M 418.978004 120.801552 
L 418.978004 120.399778 
L 419.379778 120.801552 
L 419.379778 121.203326 
L 419.781552 122.810421 
L 419.781552 124.015743 
L 420.183326 126.024612 
L 420.183326 126.82816 
L 420.183326 127.229933 
L 420.5851 127.229933 
L 420.5851 126.82816 
L 420.986874 126.426386 
L 420.986874 125.622838 
L 420.986874 125.221064 
L 421.388647 125.221064 
L 421.790421 125.622838 
L 422.192195 125.622838 
L 422.995743 126.426386 
L 423.79929 126.82816 
L 424.602838 127.229933 
L 425.406386 127.229933 
L 426.209933 127.229933 
L 427.013481 126.82816 
L 427.817029 126.426386 
L 428.218803 126.024612 
L 428.620576 125.622838 
L 428.620576 125.221064 
L 428.620576 124.81929 
L 428.620576 124.417517 
L 428.620576 124.015743 
L 428.620576 123.613969 
L 428.218803 123.613969 
L 427.817029 123.212195 
L 427.415255 123.212195 
L 427.415255 123.613969 
L 427.013481 123.613969 
L 426.611707 123.613969 
L 426.209933 124.015743 
L 425.80816 124.417517 
L 425.80816 125.221064 
L 425.80816 126.426386 
L 426.611707 127.229933 
L 427.013481 128.033481 
L 427.817029 128.033481 
L 428.620576 128.033481 
L 429.424124 127.631707 
L 429.825898 127.229933 
L 430.227672 126.82816 
" style="fill:none;stroke:#dd8452;stroke-linecap:square;"/>
   </g>
   <g id="line2d_130">
    <path clip-path="url(#pd6519e3f07)" d="M 434.24541 123.613969 
L 434.24541 123.212195 
L 433.843636 123.212195 
L 433.843636 122.810421 
L 433.441863 122.810421 
L 433.040089 122.810421 
L 432.638315 123.212195 
L 432.236541 123.212195 
L 431.834767 123.613969 
L 431.834767 124.015743 
L 432.236541 124.417517 
L 432.638315 124.81929 
L 433.441863 125.622838 
L 434.24541 126.426386 
L 434.647184 127.631707 
L 434.647184 129.238803 
L 434.647184 130.04235 
L 433.843636 130.444124 
L 433.843636 130.04235 
" style="fill:none;stroke:#dd8452;stroke-linecap:square;"/>
   </g>
   <g id="line2d_131">
    <path clip-path="url(#pd6519e3f07)" d="M 436.656053 124.417517 
L 437.057827 124.417517 
L 437.459601 125.221064 
L 437.459601 126.024612 
L 437.459601 127.229933 
L 437.861375 128.033481 
L 437.861375 128.435255 
" style="fill:none;stroke:#dd8452;stroke-linecap:square;"/>
   </g>
   <g id="line2d_132">
    <path clip-path="url(#pd6519e3f07)" d="M 438.664922 122.006874 
L 438.664922 120.801552 
L 439.066696 120.399778 
" style="fill:none;stroke:#dd8452;stroke-linecap:square;"/>
   </g>
   <g id="line2d_133">
    <path clip-path="url(#pd6519e3f07)" d="M 441.879113 121.203326 
L 441.879113 121.6051 
L 441.477339 121.6051 
L 441.477339 122.006874 
L 440.673792 122.408647 
L 440.272018 122.810421 
L 440.272018 123.613969 
L 440.673792 124.81929 
L 441.075565 125.622838 
L 441.879113 126.426386 
L 441.879113 127.229933 
L 441.879113 127.631707 
L 441.879113 128.033481 
" style="fill:none;stroke:#dd8452;stroke-linecap:square;"/>
   </g>
   <g id="line2d_134">
    <path clip-path="url(#pd6519e3f07)" d="M 143.361153 131.649446 
L 143.361153 132.05122 
L 143.762927 132.05122 
L 143.762927 132.452993 
L 144.164701 132.452993 
L 144.164701 132.854767 
L 144.566475 132.854767 
L 144.968248 132.854767 
L 145.370022 132.854767 
L 145.771796 132.854767 
L 146.17357 132.854767 
L 146.575344 132.854767 
L 146.977118 132.854767 
L 147.378891 132.854767 
L 147.378891 133.256541 
L 147.780665 133.256541 
L 148.182439 133.256541 
L 148.584213 133.256541 
L 148.985987 133.658315 
L 149.387761 133.658315 
L 149.789534 133.658315 
L 149.789534 134.060089 
L 150.191308 134.060089 
L 150.593082 134.060089 
L 150.593082 134.461863 
L 150.994856 134.461863 
L 151.39663 134.461863 
L 151.39663 134.863636 
L 151.798404 134.863636 
L 152.200177 134.863636 
L 152.601951 134.863636 
L 152.601951 135.26541 
L 153.003725 135.26541 
L 153.405499 135.26541 
L 153.405499 135.667184 
L 153.807273 135.667184 
L 154.209047 135.667184 
L 154.61082 135.667184 
L 155.012594 136.068958 
L 155.414368 136.068958 
L 155.816142 136.068958 
L 156.217916 136.068958 
L 156.61969 136.470732 
L 157.021463 136.470732 
L 157.423237 136.470732 
L 158.226785 136.470732 
L 158.628559 136.470732 
L 159.030333 136.470732 
L 159.432106 136.470732 
L 159.83388 136.470732 
L 160.235654 136.872506 
L 160.637428 136.872506 
L 161.039202 136.872506 
L 161.440976 136.872506 
L 161.842749 136.872506 
L 162.646297 136.872506 
L 163.048071 137.274279 
L 163.449845 137.274279 
L 163.851619 137.274279 
L 164.253392 137.274279 
L 164.655166 137.274279 
L 165.05694 137.274279 
L 165.458714 137.274279 
L 165.860488 137.676053 
L 166.262262 137.676053 
L 166.664035 137.676053 
L 167.065809 137.676053 
L 167.467583 137.676053 
L 167.869357 137.676053 
L 168.271131 138.077827 
L 168.672905 138.077827 
L 169.074678 138.077827 
L 169.476452 138.077827 
L 169.476452 138.479601 
L 169.878226 138.479601 
L 170.28 138.479601 
L 170.681774 138.479601 
L 171.083548 138.479601 
L 171.485322 138.881375 
L 171.887095 138.881375 
L 172.288869 138.881375 
L 172.690643 138.881375 
L 173.092417 138.881375 
L 173.494191 138.881375 
L 173.895965 138.881375 
L 173.895965 139.283149 
L 174.297738 139.283149 
L 174.699512 139.283149 
L 175.101286 139.283149 
L 175.50306 139.684922 
L 175.904834 139.684922 
L 176.306608 139.684922 
L 176.708381 139.684922 
L 177.511929 139.684922 
L 177.913703 140.086696 
L 178.315477 140.086696 
L 178.717251 140.086696 
" style="fill:none;stroke:#dd8452;stroke-linecap:square;"/>
   </g>
   <g id="line2d_135">
    <path clip-path="url(#pd6519e3f07)" d="M 144.566475 129.640576 
L 144.968248 129.640576 
L 145.370022 129.640576 
L 144.968248 130.04235 
L 144.566475 130.04235 
L 144.164701 130.444124 
L 143.762927 130.444124 
L 143.361153 130.444124 
L 142.557605 130.845898 
L 142.155831 131.247672 
L 141.754058 131.247672 
L 141.352284 131.247672 
L 141.352284 131.649446 
L 141.754058 132.05122 
L 142.155831 132.854767 
L 143.361153 134.461863 
L 144.566475 135.26541 
L 145.771796 135.667184 
L 145.771796 136.068958 
" style="fill:none;stroke:#dd8452;stroke-linecap:square;"/>
   </g>
   <g id="line2d_136">
    <path clip-path="url(#pd6519e3f07)" d="M 330.185987 142.095565 
L 330.185987 142.497339 
L 330.185987 142.899113 
L 329.784213 142.899113 
L 329.784213 143.300887 
L 329.382439 143.300887 
L 328.980665 143.300887 
L 328.578891 143.702661 
L 328.578891 144.506208 
L 328.177118 144.907982 
L 328.177118 145.71153 
L 328.177118 146.916851 
L 328.578891 148.122173 
L 328.980665 148.925721 
L 329.784213 149.327494 
L 330.587761 149.729268 
L 331.391308 149.327494 
L 331.793082 149.327494 
L 332.194856 149.327494 
L 332.59663 148.925721 
L 332.59663 148.523947 
L 332.998404 148.523947 
L 332.59663 148.122173 
L 332.194856 147.318625 
L 330.989534 146.916851 
L 329.784213 146.916851 
L 328.578891 146.916851 
L 327.775344 147.318625 
L 327.37357 147.720399 
L 327.775344 147.720399 
" style="fill:none;stroke:#8172b3;stroke-linecap:square;"/>
   </g>
   <g id="line2d_137">
    <path clip-path="url(#pd6519e3f07)" d="M 329.784213 138.479601 
L 329.382439 138.479601 
L 328.980665 138.479601 
L 328.578891 138.479601 
L 328.177118 138.479601 
L 327.775344 138.479601 
L 326.168248 139.283149 
L 324.962927 140.48847 
L 323.757605 141.292018 
L 322.552284 142.899113 
L 321.748736 144.506208 
L 321.748736 146.113304 
L 321.748736 147.720399 
L 322.15051 149.729268 
L 323.757605 151.738137 
L 325.364701 152.943459 
L 327.37357 153.747007 
L 328.578891 154.14878 
L 330.587761 154.14878 
L 332.59663 153.747007 
L 333.801951 153.345233 
L 335.007273 151.738137 
L 335.81082 150.131042 
L 336.614368 148.122173 
L 336.212594 145.71153 
L 335.409047 143.702661 
L 333.801951 142.497339 
L 331.793082 141.292018 
L 329.382439 140.48847 
L 327.37357 140.48847 
L 326.570022 140.48847 
L 326.168248 140.48847 
" style="fill:none;stroke:#8172b3;stroke-linecap:square;"/>
   </g>
   <g id="line2d_138">
    <path clip-path="url(#pd6519e3f07)" d="M 361.524346 146.515078 
L 361.524346 146.916851 
L 361.524346 147.318625 
L 361.524346 147.720399 
L 361.524346 148.523947 
L 361.92612 148.925721 
L 361.92612 149.327494 
L 361.92612 148.925721 
L 361.92612 148.523947 
L 361.524346 148.122173 
L 361.524346 146.916851 
L 361.524346 146.113304 
L 361.92612 145.309756 
L 362.729667 144.506208 
L 363.934989 144.506208 
L 365.14031 144.104435 
" style="fill:none;stroke:#8172b3;stroke-linecap:square;"/>
   </g>
   <g id="line2d_139">
    <path clip-path="url(#pd6519e3f07)" d="M 367.550953 147.318625 
L 367.952727 147.318625 
L 368.354501 146.916851 
L 369.158049 146.916851 
L 369.961596 146.113304 
L 369.961596 145.71153 
L 369.559823 145.309756 
L 368.756275 144.907982 
L 367.952727 145.309756 
L 366.747406 146.113304 
L 366.747406 146.916851 
L 367.14918 148.523947 
L 368.756275 150.131042 
L 369.961596 150.93459 
L 371.568692 150.93459 
L 372.372239 150.532816 
" style="fill:none;stroke:#8172b3;stroke-linecap:square;"/>
   </g>
   <g id="line2d_140">
    <path clip-path="url(#pd6519e3f07)" d="M 374.782882 147.318625 
L 374.782882 146.916851 
L 374.381109 146.916851 
L 374.381109 146.515078 
L 373.979335 146.113304 
L 372.774013 146.113304 
L 371.568692 146.113304 
L 371.166918 146.916851 
L 371.166918 147.318625 
L 371.970466 147.720399 
L 372.774013 148.523947 
L 373.979335 149.327494 
L 374.381109 150.131042 
L 374.782882 151.336364 
L 374.381109 151.738137 
L 373.979335 152.541685 
L 373.577561 152.943459 
" style="fill:none;stroke:#8172b3;stroke-linecap:square;"/>
   </g>
   <g id="line2d_141">
    <path clip-path="url(#pd6519e3f07)" d="M 376.791752 151.336364 
L 376.791752 150.93459 
L 376.791752 151.336364 
L 377.193525 151.336364 
L 377.595299 151.336364 
L 377.997073 151.738137 
L 378.398847 151.336364 
L 378.800621 151.336364 
L 379.604169 150.532816 
L 380.005942 150.131042 
L 380.005942 148.925721 
L 380.005942 148.122173 
L 379.202395 147.318625 
L 378.398847 147.318625 
L 377.997073 147.318625 
L 377.193525 147.720399 
L 376.791752 148.925721 
L 376.791752 150.93459 
L 376.791752 152.541685 
L 377.193525 154.14878 
L 377.595299 155.354102 
L 377.997073 155.755876 
L 377.997073 156.15765 
" style="fill:none;stroke:#8172b3;stroke-linecap:square;"/>
   </g>
   <g id="line2d_142">
    <path clip-path="url(#pd6519e3f07)" d="M 383.621907 147.318625 
L 383.621907 147.720399 
L 383.621907 148.122173 
L 383.621907 149.327494 
L 383.621907 150.532816 
L 384.023681 151.336364 
L 384.425455 151.336364 
" style="fill:none;stroke:#8172b3;stroke-linecap:square;"/>
   </g>
   <g id="line2d_143">
    <path clip-path="url(#pd6519e3f07)" d="M 385.229002 144.104435 
L 385.229002 143.300887 
L 385.229002 142.899113 
L 385.229002 142.899113 
L 385.229002 143.300887 
" style="fill:none;stroke:#8172b3;stroke-linecap:square;"/>
   </g>
   <g id="line2d_144">
    <path clip-path="url(#pd6519e3f07)" d="M 387.237871 148.122173 
L 387.237871 148.523947 
L 387.639645 149.327494 
L 387.639645 150.131042 
L 387.639645 150.93459 
L 387.639645 151.336364 
L 387.639645 151.738137 
L 387.639645 151.336364 
L 387.639645 150.93459 
L 388.041419 150.532816 
L 388.443193 148.925721 
L 389.246741 147.720399 
L 389.648514 146.916851 
L 390.452062 146.515078 
L 390.853836 146.113304 
" style="fill:none;stroke:#8172b3;stroke-linecap:square;"/>
   </g>
   <g id="line2d_145">
    <path clip-path="url(#pd6519e3f07)" d="M 396.47867 147.720399 
L 396.076896 147.720399 
L 395.675122 147.720399 
L 395.273348 147.720399 
L 394.871574 147.720399 
L 393.666253 148.122173 
L 392.862705 148.925721 
L 392.460931 149.729268 
L 392.862705 150.131042 
L 393.666253 150.532816 
L 394.4698 150.532816 
L 395.273348 149.729268 
L 396.47867 148.925721 
L 396.880443 147.720399 
L 396.880443 146.916851 
L 396.880443 146.515078 
L 396.880443 146.916851 
L 396.880443 147.318625 
L 396.47867 148.122173 
L 396.47867 149.729268 
L 396.47867 150.93459 
L 396.47867 151.738137 
L 396.47867 152.139911 
" style="fill:none;stroke:#8172b3;stroke-linecap:square;"/>
   </g>
   <g id="line2d_146">
    <path clip-path="url(#pd6519e3f07)" d="M 401.701729 144.907982 
L 401.299956 144.907982 
L 401.299956 145.309756 
L 401.299956 145.71153 
L 400.898182 146.916851 
L 400.898182 147.720399 
L 400.898182 149.729268 
L 400.898182 150.532816 
L 400.898182 151.738137 
" style="fill:none;stroke:#8172b3;stroke-linecap:square;"/>
   </g>
   <g id="line2d_147">
    <path clip-path="url(#pd6519e3f07)" d="M 399.291086 148.925721 
L 400.094634 148.925721 
L 400.898182 148.523947 
L 401.701729 148.122173 
L 402.907051 147.720399 
L 403.710599 147.720399 
L 403.710599 147.318625 
" style="fill:none;stroke:#8172b3;stroke-linecap:square;"/>
   </g>
   <g id="line2d_148">
    <path clip-path="url(#pd6519e3f07)" d="M 405.719468 148.925721 
L 405.719468 149.327494 
L 405.719468 149.729268 
L 405.719468 150.532816 
L 405.719468 151.336364 
L 405.719468 151.738137 
" style="fill:none;stroke:#8172b3;stroke-linecap:square;"/>
   </g>
   <g id="line2d_149">
    <path clip-path="url(#pd6519e3f07)" d="M 408.933659 146.113304 
L 408.933659 145.71153 
L 408.933659 145.309756 
L 408.531885 145.309756 
" style="fill:none;stroke:#8172b3;stroke-linecap:square;"/>
   </g>
   <g id="line2d_150">
    <path clip-path="url(#pd6519e3f07)" d="M 412.549623 148.523947 
L 412.147849 148.523947 
L 411.746075 148.523947 
L 411.746075 148.925721 
L 411.344302 148.925721 
L 410.942528 149.327494 
L 410.942528 150.131042 
L 411.344302 151.336364 
L 411.746075 151.738137 
L 412.549623 151.738137 
L 413.353171 151.336364 
L 414.156718 150.131042 
L 414.558492 149.327494 
L 414.156718 148.122173 
L 413.353171 147.720399 
L 412.951397 147.720399 
L 412.147849 147.720399 
L 411.746075 148.122173 
" style="fill:none;stroke:#8172b3;stroke-linecap:square;"/>
   </g>
   <g id="line2d_151">
    <path clip-path="url(#pd6519e3f07)" d="M 415.763814 148.925721 
L 415.763814 148.523947 
L 415.763814 148.925721 
L 415.763814 149.327494 
L 415.763814 149.729268 
L 415.36204 150.131042 
L 415.36204 150.532816 
L 415.36204 150.93459 
L 415.763814 150.93459 
L 415.763814 150.532816 
L 416.165588 150.131042 
L 416.969135 149.327494 
L 418.174457 147.318625 
L 418.978004 146.113304 
L 419.379778 145.71153 
L 419.781552 146.113304 
L 419.781552 146.916851 
L 419.781552 147.720399 
L 419.379778 148.925721 
L 419.379778 150.131042 
L 419.379778 150.532816 
L 419.379778 150.93459 
L 419.379778 151.336364 
" style="fill:none;stroke:#8172b3;stroke-linecap:square;"/>
   </g>
   <g id="line2d_152">
    <path clip-path="url(#pd6519e3f07)" d="M 179.922572 140.890244 
L 180.324346 140.890244 
L 180.72612 140.890244 
L 180.72612 141.292018 
L 181.127894 141.292018 
L 181.529667 141.292018 
L 181.931441 141.292018 
L 181.931441 141.693792 
L 182.333215 141.693792 
L 182.734989 141.693792 
L 183.136763 141.693792 
L 183.538537 141.693792 
L 183.538537 142.095565 
L 183.94031 142.095565 
L 184.342084 142.095565 
L 184.743858 142.095565 
L 184.743858 142.497339 
L 185.145632 142.497339 
L 185.547406 142.497339 
L 185.94918 142.497339 
L 186.350953 142.497339 
L 186.752727 142.497339 
L 187.154501 142.497339 
L 187.556275 142.497339 
L 187.556275 142.899113 
L 187.958049 142.899113 
L 188.359823 142.899113 
L 188.761596 143.300887 
L 189.16337 143.300887 
L 189.565144 143.300887 
L 189.966918 143.702661 
L 190.368692 143.702661 
L 190.770466 143.702661 
L 191.172239 143.702661 
L 191.574013 143.702661 
L 191.975787 143.702661 
L 192.377561 144.104435 
L 192.779335 144.104435 
L 193.181109 144.104435 
L 193.984656 144.506208 
L 194.38643 144.506208 
L 195.189978 144.506208 
L 195.591752 144.506208 
L 195.993525 144.506208 
L 196.797073 144.907982 
L 197.198847 144.907982 
L 197.600621 144.907982 
L 198.404169 145.309756 
L 198.805942 145.309756 
L 199.207716 145.71153 
L 200.011264 145.71153 
L 200.413038 145.71153 
L 200.814812 145.71153 
L 201.216585 146.113304 
L 202.020133 146.113304 
L 202.421907 146.113304 
L 202.823681 146.515078 
L 203.225455 146.515078 
L 203.627228 146.515078 
L 204.029002 146.916851 
L 204.430776 146.916851 
L 204.83255 146.916851 
L 205.234324 146.916851 
L 205.636098 146.916851 
L 206.037871 147.318625 
L 206.841419 147.318625 
L 207.243193 147.318625 
L 207.644967 147.720399 
L 208.046741 147.720399 
L 208.448514 147.720399 
L 208.850288 147.720399 
L 209.252062 148.122173 
L 209.653836 148.122173 
L 210.05561 148.122173 
L 210.457384 148.523947 
L 210.859157 148.523947 
L 211.260931 148.925721 
L 211.662705 148.925721 
" style="fill:none;stroke:#8172b3;stroke-linecap:square;"/>
   </g>
   <g id="line2d_153">
    <path clip-path="url(#pd6519e3f07)" d="M 211.662705 145.309756 
L 211.260931 145.309756 
L 211.260931 145.71153 
L 211.662705 145.71153 
L 212.064479 146.113304 
L 212.466253 146.113304 
L 212.466253 146.515078 
L 212.868027 146.916851 
L 212.868027 147.318625 
L 213.2698 147.318625 
L 213.2698 147.720399 
L 213.2698 148.122173 
L 213.671574 148.122173 
L 213.2698 148.523947 
L 212.868027 148.925721 
L 212.868027 149.327494 
L 212.064479 150.131042 
L 211.260931 150.93459 
L 210.05561 151.738137 
L 209.653836 152.139911 
L 209.653836 152.541685 
L 209.252062 152.541685 
L 208.850288 152.541685 
" style="fill:none;stroke:#8172b3;stroke-linecap:square;"/>
   </g>
  </g>
 </g>
 <defs>
  <clipPath id="pd6519e3f07">
   <rect height="271.8" width="485.262439" x="7.2" y="7.2"/>
  </clipPath>
 </defs>
</svg>
