<?xml version="1.0" encoding="utf-8" standalone="no"?>
<!DOCTYPE svg PUBLIC "-//W3C//DTD SVG 1.1//EN"
  "http://www.w3.org/Graphics/SVG/1.1/DTD/svg11.dtd">
<!-- Created with matplotlib (https://matplotlib.org/) -->
<svg height="203.535614pt" version="1.1" viewBox="0 0 573.009836 203.535614" width="573.009836pt" xmlns="http://www.w3.org/2000/svg" xmlns:xlink="http://www.w3.org/1999/xlink">
 <metadata>
  <rdf:RDF xmlns:cc="http://creativecommons.org/ns#" xmlns:dc="http://purl.org/dc/elements/1.1/" xmlns:rdf="http://www.w3.org/1999/02/22-rdf-syntax-ns#">
   <cc:Work>
    <dc:type rdf:resource="http://purl.org/dc/dcmitype/StillImage"/>
    <dc:date>2024-11-15T16:03:35.659289</dc:date>
    <dc:format>image/svg+xml</dc:format>
    <dc:creator>
     <cc:Agent>
      <dc:title>Matplotlib v3.3.4, https://matplotlib.org/</dc:title>
     </cc:Agent>
    </dc:creator>
   </cc:Work>
  </rdf:RDF>
 </metadata>
 <defs>
  <style type="text/css">*{stroke-linecap:butt;stroke-linejoin:round;}</style>
 </defs>
 <g id="figure_1">
  <g id="patch_1">
   <path d="M -0 203.535614 
L 573.009836 203.535614 
L 573.009836 0 
L -0 0 
z
" style="fill:#ffffff;"/>
  </g>
  <g id="axes_1">
   <g id="line2d_1">
    <path clip-path="url(#p3ad5a86998)" d="M 39.588974 176.742284 
L 39.588974 176.742284 
L 39.588974 176.742284 
L 39.588974 176.742284 
L 40.588634 176.742284 
L 40.588634 176.742284 
L 41.588293 176.742284 
L 42.587953 175.742624 
L 43.587613 173.743305 
L 45.586932 170.744326 
L 50.585231 163.746708 
L 55.583529 154.749771 
L 60.581828 145.752833 
L 63.580807 139.754875 
L 67.579445 131.757598 
L 69.578765 126.759299 
L 71.578084 122.76066 
L 72.577744 119.761681 
L 73.577404 117.762362 
L 74.577063 117.762362 
L 74.577063 116.762702 
" style="fill:none;stroke:#8c8c8c;stroke-linecap:square;"/>
   </g>
   <g id="line2d_2">
    <path clip-path="url(#p3ad5a86998)" d="M 32.591356 162.747048 
L 32.591356 162.747048 
L 32.591356 162.747048 
L 32.591356 162.747048 
L 32.591356 162.747048 
L 32.591356 163.746708 
L 32.591356 166.745687 
L 33.591016 169.744666 
L 35.590335 173.743305 
L 38.589314 178.741603 
L 41.588293 181.740582 
L 45.586932 182.740242 
L 49.585571 181.740582 
L 54.583869 178.741603 
L 57.582848 176.742284 
" style="fill:none;stroke:#8c8c8c;stroke-linecap:square;"/>
   </g>
   <g id="line2d_3">
    <path clip-path="url(#p3ad5a86998)" d="M 73.577404 38.789246 
L 73.577404 38.789246 
L 73.577404 37.789587 
L 73.577404 36.789927 
L 73.577404 35.790267 
L 73.577404 35.790267 
L 73.577404 34.790608 
L 73.577404 34.790608 
L 74.577063 36.789927 
L 75.576723 41.788225 
L 77.576042 46.786524 
L 78.575702 51.784822 
L 80.575021 55.783461 
L 81.574681 57.78278 
L 81.574681 57.78278 
L 81.574681 58.78244 
" style="fill:none;stroke:#8c8c8c;stroke-linecap:square;"/>
   </g>
   <g id="line2d_4">
    <path clip-path="url(#p3ad5a86998)" d="M 71.578084 32.791288 
L 71.578084 32.791288 
L 71.578084 32.791288 
L 71.578084 31.791628 
L 72.577744 31.791628 
L 75.576723 30.791969 
L 79.575362 31.791628 
L 82.574341 32.791288 
L 85.57332 34.790608 
L 87.572639 37.789587 
L 87.572639 40.788566 
L 87.572639 44.787204 
L 86.57298 48.785843 
L 85.57332 50.785163 
L 84.57366 51.784822 
L 83.574 51.784822 
" style="fill:none;stroke:#8c8c8c;stroke-linecap:square;"/>
   </g>
   <g id="line2d_5">
    <path clip-path="url(#p3ad5a86998)" d="M 96.569576 42.787885 
L 96.569576 42.787885 
L 96.569576 42.787885 
L 95.569917 42.787885 
L 95.569917 43.787545 
L 95.569917 44.787204 
L 95.569917 46.786524 
L 96.569576 48.785843 
L 98.568896 49.785503 
L 100.568215 50.785163 
L 101.567875 48.785843 
L 103.567194 46.786524 
L 103.567194 44.787204 
L 102.567535 42.787885 
L 100.568215 40.788566 
L 98.568896 41.788225 
L 96.569576 41.788225 
L 95.569917 42.787885 
" style="fill:none;stroke:#8c8c8c;stroke-linecap:square;"/>
   </g>
   <g id="line2d_6">
    <path clip-path="url(#p3ad5a86998)" d="M 150.5512 32.791288 
L 150.5512 31.791628 
L 150.5512 31.791628 
L 150.5512 31.791628 
L 150.5512 32.791288 
L 150.5512 35.790267 
L 151.55086 37.789587 
L 153.550179 42.787885 
L 153.550179 44.787204 
L 154.549839 45.786864 
" style="fill:none;stroke:#8c8c8c;stroke-linecap:square;"/>
   </g>
   <g id="line2d_7">
    <path clip-path="url(#p3ad5a86998)" d="M 148.55188 41.788225 
L 148.55188 41.788225 
L 148.55188 41.788225 
L 149.55154 38.789246 
L 150.5512 37.789587 
L 154.549839 33.790948 
L 156.549158 32.791288 
L 157.548818 31.791628 
" style="fill:none;stroke:#8c8c8c;stroke-linecap:square;"/>
   </g>
   <g id="line2d_8">
    <path clip-path="url(#p3ad5a86998)" d="M 161.547456 27.79299 
L 161.547456 26.79333 
L 161.547456 26.79333 
L 161.547456 26.79333 
L 162.547116 27.79299 
L 164.546436 30.791969 
L 164.546436 33.790948 
L 166.545755 36.789927 
L 166.545755 38.789246 
L 167.545415 39.788906 
L 167.545415 39.788906 
L 168.545074 38.789246 
L 169.544734 36.789927 
L 170.544394 34.790608 
L 172.543713 33.790948 
L 172.543713 33.790948 
L 174.543032 34.790608 
L 175.542692 34.790608 
L 177.542012 35.790267 
L 178.541671 36.789927 
" style="fill:none;stroke:#8c8c8c;stroke-linecap:square;"/>
   </g>
   <g id="line2d_9">
    <path clip-path="url(#p3ad5a86998)" d="M 183.53997 34.790608 
L 183.53997 34.790608 
L 183.53997 34.790608 
L 184.539629 33.790948 
L 185.539289 32.791288 
L 186.538949 31.791628 
L 186.538949 29.792309 
L 186.538949 28.792649 
L 186.538949 27.79299 
L 185.539289 28.792649 
L 183.53997 29.792309 
L 182.54031 31.791628 
L 182.54031 34.790608 
L 184.539629 38.789246 
L 186.538949 39.788906 
L 189.537928 40.788566 
L 192.536907 39.788906 
" style="fill:none;stroke:#8c8c8c;stroke-linecap:square;"/>
   </g>
   <g id="line2d_10">
    <path clip-path="url(#p3ad5a86998)" d="M 241.520232 28.792649 
L 241.520232 27.79299 
L 241.520232 27.79299 
L 241.520232 27.79299 
L 240.520572 27.79299 
L 239.520912 28.792649 
L 237.521593 30.791969 
L 236.521933 31.791628 
L 235.522274 32.791288 
L 236.521933 32.791288 
L 236.521933 33.790948 
L 239.520912 34.790608 
L 241.520232 35.790267 
L 244.519211 38.789246 
L 245.518871 41.788225 
L 246.51853 43.787545 
L 245.518871 45.786864 
L 244.519211 47.786184 
L 242.519892 47.786184 
L 241.520232 46.786524 
" style="fill:none;stroke:#8c8c8c;stroke-linecap:square;"/>
   </g>
   <g id="line2d_11">
    <path clip-path="url(#p3ad5a86998)" d="M 254.515808 29.792309 
L 254.515808 29.792309 
L 254.515808 29.792309 
L 253.516148 30.791969 
L 253.516148 31.791628 
L 252.516488 34.790608 
L 253.516148 37.789587 
L 254.515808 38.789246 
L 256.515127 39.788906 
L 257.514787 38.789246 
L 258.514447 37.789587 
L 258.514447 34.790608 
L 257.514787 33.790948 
L 256.515127 31.791628 
L 255.515468 31.791628 
L 254.515808 30.791969 
L 254.515808 30.791969 
" style="fill:none;stroke:#8c8c8c;stroke-linecap:square;"/>
   </g>
   <g id="line2d_12">
    <path clip-path="url(#p3ad5a86998)" d="M 259.514106 19.795712 
L 259.514106 19.795712 
L 259.514106 19.795712 
L 259.514106 19.795712 
L 260.513766 19.795712 
L 261.513426 21.795032 
L 262.513085 24.794011 
L 264.512405 29.792309 
L 265.512064 33.790948 
L 267.511384 37.789587 
L 267.511384 39.788906 
L 268.511044 39.788906 
" style="fill:none;stroke:#8c8c8c;stroke-linecap:square;"/>
   </g>
   <g id="line2d_13">
    <path clip-path="url(#p3ad5a86998)" d="M 276.508321 31.791628 
L 276.508321 30.791969 
L 276.508321 30.791969 
L 275.508661 29.792309 
L 274.509002 29.792309 
L 274.509002 29.792309 
L 273.509342 30.791969 
L 273.509342 31.791628 
L 273.509342 33.790948 
L 274.509002 34.790608 
L 276.508321 33.790948 
L 277.507981 32.791288 
L 278.50764 30.791969 
L 279.5073 29.792309 
L 279.5073 27.79299 
L 278.50764 26.79333 
L 278.50764 26.79333 
L 278.50764 26.79333 
L 279.5073 28.792649 
L 279.5073 30.791969 
L 280.50696 33.790948 
L 282.506279 35.790267 
L 282.506279 36.789927 
L 283.505939 36.789927 
" style="fill:none;stroke:#8c8c8c;stroke-linecap:square;"/>
   </g>
   <g id="line2d_14">
    <path clip-path="url(#p3ad5a86998)" d="M 285.505258 28.792649 
L 285.505258 28.792649 
L 285.505258 27.79299 
L 286.504918 27.79299 
L 286.504918 27.79299 
L 287.504578 28.792649 
L 289.503897 29.792309 
L 291.503216 33.790948 
L 292.502876 35.790267 
L 293.502536 36.789927 
L 293.502536 36.789927 
L 293.502536 35.790267 
L 293.502536 32.791288 
L 293.502536 30.791969 
L 294.502196 28.792649 
L 296.501515 25.79367 
" style="fill:none;stroke:#8c8c8c;stroke-linecap:square;"/>
   </g>
   <g id="line2d_15">
    <path clip-path="url(#p3ad5a86998)" d="M 352.482458 32.791288 
L 352.482458 32.791288 
L 352.482458 31.791628 
L 352.482458 31.791628 
L 351.482798 31.791628 
L 351.482798 32.791288 
L 352.482458 33.790948 
L 352.482458 35.790267 
L 352.482458 36.789927 
L 352.482458 36.789927 
L 352.482458 35.790267 
L 351.482798 33.790948 
L 348.483819 31.791628 
L 346.4845 31.791628 
L 344.48518 31.791628 
L 342.485861 31.791628 
L 342.485861 33.790948 
L 342.485861 35.790267 
L 343.48552 36.789927 
L 345.48484 37.789587 
L 347.484159 37.789587 
L 349.483479 37.789587 
" style="fill:none;stroke:#8c8c8c;stroke-linecap:square;"/>
   </g>
   <g id="line2d_16">
    <path clip-path="url(#p3ad5a86998)" d="M 356.481096 22.794691 
L 355.481437 22.794691 
L 355.481437 21.795032 
L 355.481437 21.795032 
L 355.481437 23.794351 
L 356.481096 25.79367 
L 357.480756 29.792309 
L 359.480076 34.790608 
L 360.479735 36.789927 
L 360.479735 38.789246 
L 360.479735 37.789587 
L 361.479395 36.789927 
L 361.479395 33.790948 
L 363.478714 31.791628 
L 364.478374 30.791969 
L 366.477693 29.792309 
L 368.477013 30.791969 
L 370.476332 31.791628 
L 370.476332 33.790948 
L 370.476332 35.790267 
L 369.476672 36.789927 
L 366.477693 38.789246 
L 364.478374 38.789246 
L 363.478714 38.789246 
L 362.479055 37.789587 
" style="fill:none;stroke:#8c8c8c;stroke-linecap:square;"/>
   </g>
   <g id="line2d_17">
    <path clip-path="url(#p3ad5a86998)" d="M 376.47429 29.792309 
L 376.47429 30.791969 
L 377.47395 30.791969 
L 378.47361 32.791288 
L 380.472929 34.790608 
L 382.472248 36.789927 
L 384.471568 36.789927 
L 385.471228 36.789927 
L 385.471228 33.790948 
L 384.471568 32.791288 
L 382.472248 29.792309 
L 382.472248 28.792649 
L 381.472589 27.79299 
L 381.472589 27.79299 
" style="fill:none;stroke:#8c8c8c;stroke-linecap:square;"/>
   </g>
   <g id="line2d_18">
    <path clip-path="url(#p3ad5a86998)" d="M 390.469526 28.792649 
L 390.469526 28.792649 
L 391.469186 28.792649 
L 391.469186 30.791969 
L 392.468845 31.791628 
L 392.468845 32.791288 
L 392.468845 33.790948 
L 393.468505 34.790608 
L 393.468505 33.790948 
L 393.468505 32.791288 
L 393.468505 31.791628 
L 394.468165 29.792309 
L 395.467824 29.792309 
L 396.467484 29.792309 
L 397.467144 31.791628 
L 398.466804 33.790948 
L 399.466463 36.789927 
L 400.466123 37.789587 
L 401.465783 38.789246 
" style="fill:none;stroke:#8c8c8c;stroke-linecap:square;"/>
   </g>
   <g id="line2d_19">
    <path clip-path="url(#p3ad5a86998)" d="M 411.46238 31.791628 
L 412.462039 31.791628 
L 412.462039 30.791969 
L 413.461699 30.791969 
L 413.461699 29.792309 
L 412.462039 29.792309 
L 411.46238 28.792649 
L 410.46272 29.792309 
L 408.4634 31.791628 
L 409.46306 33.790948 
L 409.46306 34.790608 
L 412.462039 34.790608 
L 414.461359 33.790948 
L 415.461018 31.791628 
L 415.461018 27.79299 
L 415.461018 23.794351 
L 414.461359 20.795372 
L 414.461359 17.796393 
L 413.461699 16.796733 
L 413.461699 15.797073 
L 414.461359 16.796733 
L 414.461359 18.796052 
L 415.461018 22.794691 
L 416.460678 26.79333 
L 418.459997 30.791969 
L 419.459657 32.791288 
L 420.459317 33.790948 
" style="fill:none;stroke:#8c8c8c;stroke-linecap:square;"/>
   </g>
   <g id="line2d_20">
    <path clip-path="url(#p3ad5a86998)" d="M 432.455233 24.794011 
L 432.455233 24.794011 
L 433.454893 25.79367 
L 434.454552 25.79367 
L 435.454212 28.792649 
L 436.453872 31.791628 
L 438.453191 33.790948 
L 439.452851 35.790267 
L 439.452851 35.790267 
L 439.452851 34.790608 
L 438.453191 32.791288 
L 437.453532 30.791969 
L 435.454212 29.792309 
L 433.454893 28.792649 
L 432.455233 29.792309 
L 430.455914 30.791969 
L 430.455914 32.791288 
L 430.455914 33.790948 
L 432.455233 34.790608 
L 434.454552 33.790948 
L 435.454212 33.790948 
" style="fill:none;stroke:#8c8c8c;stroke-linecap:square;"/>
   </g>
   <g id="line2d_21">
    <path clip-path="url(#p3ad5a86998)" d="M 444.451149 27.79299 
L 444.451149 26.79333 
L 444.451149 26.79333 
L 444.451149 26.79333 
L 443.45149 26.79333 
L 442.45183 27.79299 
L 441.45217 29.792309 
L 442.45183 31.791628 
L 442.45183 33.790948 
L 444.451149 34.790608 
L 446.450469 34.790608 
L 448.449788 33.790948 
" style="fill:none;stroke:#8c8c8c;stroke-linecap:square;"/>
   </g>
   <g id="line2d_22">
    <path clip-path="url(#p3ad5a86998)" d="M 451.448767 30.791969 
L 451.448767 29.792309 
L 451.448767 29.792309 
L 451.448767 29.792309 
L 451.448767 29.792309 
L 452.448427 29.792309 
L 453.448087 28.792649 
L 454.447746 27.79299 
L 455.447406 26.79333 
L 456.447066 25.79367 
L 456.447066 24.794011 
L 456.447066 24.794011 
L 455.447406 24.794011 
L 454.447746 24.794011 
L 452.448427 26.79333 
L 451.448767 29.792309 
L 452.448427 33.790948 
L 454.447746 35.790267 
L 456.447066 36.789927 
L 458.446385 36.789927 
L 459.446045 35.790267 
" style="fill:none;stroke:#8c8c8c;stroke-linecap:square;"/>
   </g>
   <g id="line2d_23">
    <path clip-path="url(#p3ad5a86998)" d="M 334.488583 30.791969 
L 334.488583 30.791969 
L 334.488583 30.791969 
L 333.488924 30.791969 
L 333.488924 30.791969 
L 332.489264 31.791628 
L 331.489604 31.791628 
L 331.489604 32.791288 
L 330.489944 32.791288 
L 330.489944 33.790948 
L 329.490285 34.790608 
L 329.490285 35.790267 
L 328.490625 36.789927 
L 329.490285 37.789587 
L 329.490285 38.789246 
L 330.489944 39.788906 
L 331.489604 39.788906 
L 333.488924 39.788906 
L 334.488583 38.789246 
L 335.488243 36.789927 
L 335.488243 35.790267 
L 335.488243 34.790608 
L 335.488243 34.790608 
L 335.488243 33.790948 
L 334.488583 32.791288 
" style="fill:none;stroke:#8c8c8c;stroke-linecap:square;"/>
   </g>
   <g id="line2d_24">
    <path clip-path="url(#p3ad5a86998)" d="M 335.488243 29.792309 
L 335.488243 29.792309 
L 335.488243 29.792309 
L 336.487903 29.792309 
L 336.487903 30.791969 
L 337.487562 32.791288 
L 338.487222 34.790608 
L 339.486882 38.789246 
L 340.486541 40.788566 
L 341.486201 42.787885 
" style="fill:none;stroke:#8c8c8c;stroke-linecap:square;"/>
   </g>
   <g id="line2d_25">
    <path clip-path="url(#p3ad5a86998)" d="M 346.4845 19.795712 
L 346.4845 19.795712 
L 346.4845 19.795712 
L 346.4845 19.795712 
L 347.484159 20.795372 
L 347.484159 22.794691 
L 348.483819 24.794011 
L 349.483479 28.792649 
L 350.483138 31.791628 
L 352.482458 35.790267 
L 352.482458 37.789587 
" style="fill:none;stroke:#8c8c8c;stroke-linecap:square;"/>
   </g>
   <g id="line2d_26">
    <path clip-path="url(#p3ad5a86998)" d="M 349.483479 28.792649 
L 349.483479 28.792649 
L 349.483479 28.792649 
L 349.483479 28.792649 
L 349.483479 28.792649 
L 349.483479 27.79299 
L 350.483138 27.79299 
L 351.482798 27.79299 
L 353.482117 27.79299 
L 354.481777 28.792649 
L 356.481096 29.792309 
L 358.480416 30.791969 
L 359.480076 31.791628 
L 359.480076 32.791288 
L 359.480076 34.790608 
L 358.480416 36.789927 
L 357.480756 36.789927 
L 356.481096 37.789587 
L 355.481437 37.789587 
" style="fill:none;stroke:#8c8c8c;stroke-linecap:square;"/>
   </g>
   <g id="line2d_27">
    <path clip-path="url(#p3ad5a86998)" d="M 367.477353 31.791628 
L 367.477353 31.791628 
L 367.477353 31.791628 
L 367.477353 31.791628 
L 367.477353 31.791628 
L 367.477353 31.791628 
L 367.477353 32.791288 
L 367.477353 32.791288 
L 368.477013 34.790608 
L 369.476672 36.789927 
L 371.475992 37.789587 
L 371.475992 37.789587 
L 373.475311 35.790267 
L 374.474971 34.790608 
L 375.474631 32.791288 
L 375.474631 30.791969 
L 374.474971 30.791969 
L 374.474971 29.792309 
L 374.474971 28.792649 
L 373.475311 27.79299 
" style="fill:none;stroke:#8c8c8c;stroke-linecap:square;"/>
   </g>
   <g id="line2d_28">
    <path clip-path="url(#p3ad5a86998)" d="M 382.472248 30.791969 
L 382.472248 30.791969 
L 383.471908 31.791628 
L 383.471908 32.791288 
L 383.471908 33.790948 
L 384.471568 35.790267 
L 384.471568 36.789927 
L 384.471568 37.789587 
L 384.471568 36.789927 
L 384.471568 36.789927 
L 384.471568 33.790948 
L 384.471568 32.791288 
L 384.471568 31.791628 
L 385.471228 30.791969 
L 385.471228 30.791969 
L 386.470887 30.791969 
L 387.470547 31.791628 
L 388.470207 33.790948 
L 389.469866 34.790608 
L 389.469866 35.790267 
L 389.469866 35.790267 
" style="fill:none;stroke:#8c8c8c;stroke-linecap:square;"/>
   </g>
   <g id="line2d_29">
    <path clip-path="url(#p3ad5a86998)" d="M 400.466123 30.791969 
L 400.466123 30.791969 
L 401.465783 30.791969 
L 401.465783 29.792309 
L 401.465783 29.792309 
L 401.465783 29.792309 
L 400.466123 29.792309 
L 400.466123 30.791969 
L 399.466463 31.791628 
L 398.466804 33.790948 
L 398.466804 35.790267 
L 398.466804 37.789587 
L 399.466463 37.789587 
L 400.466123 37.789587 
L 401.465783 35.790267 
L 402.465442 33.790948 
L 403.465102 30.791969 
L 403.465102 28.792649 
L 403.465102 25.79367 
L 403.465102 23.794351 
L 402.465442 20.795372 
L 402.465442 19.795712 
L 402.465442 18.796052 
L 402.465442 17.796393 
L 402.465442 17.796393 
L 402.465442 17.796393 
L 403.465102 19.795712 
L 404.464762 22.794691 
L 406.464081 26.79333 
L 407.463741 31.791628 
L 408.4634 34.790608 
L 409.46306 34.790608 
L 409.46306 34.790608 
" style="fill:none;stroke:#8c8c8c;stroke-linecap:square;"/>
   </g>
   <g id="line2d_30">
    <path clip-path="url(#p3ad5a86998)" d="M 424.457956 27.79299 
L 424.457956 27.79299 
L 424.457956 27.79299 
L 424.457956 27.79299 
L 424.457956 28.792649 
L 424.457956 29.792309 
L 424.457956 30.791969 
L 425.457615 32.791288 
L 425.457615 33.790948 
L 425.457615 34.790608 
L 425.457615 34.790608 
L 425.457615 34.790608 
L 425.457615 34.790608 
L 424.457956 33.790948 
L 423.458296 31.791628 
L 422.458636 30.791969 
L 421.458976 29.792309 
L 420.459317 29.792309 
L 419.459657 29.792309 
L 418.459997 30.791969 
L 417.460338 31.791628 
L 417.460338 33.790948 
L 418.459997 34.790608 
L 419.459657 35.790267 
L 421.458976 35.790267 
L 422.458636 35.790267 
" style="fill:none;stroke:#8c8c8c;stroke-linecap:square;"/>
   </g>
   <g id="line2d_31">
    <path clip-path="url(#p3ad5a86998)" d="M 429.456254 28.792649 
L 430.455914 28.792649 
L 430.455914 28.792649 
L 431.455573 29.792309 
L 431.455573 30.791969 
L 432.455233 32.791288 
L 433.454893 33.790948 
L 433.454893 34.790608 
L 433.454893 34.790608 
L 433.454893 33.790948 
L 433.454893 32.791288 
L 434.454552 29.792309 
L 434.454552 28.792649 
L 435.454212 27.79299 
L 435.454212 26.79333 
L 436.453872 26.79333 
L 437.453532 27.79299 
L 438.453191 28.792649 
L 439.452851 30.791969 
L 439.452851 32.791288 
L 440.452511 33.790948 
L 440.452511 33.790948 
" style="fill:none;stroke:#8c8c8c;stroke-linecap:square;"/>
   </g>
   <g id="line2d_32">
    <path clip-path="url(#p3ad5a86998)" d="M 448.449788 25.79367 
L 448.449788 25.79367 
L 448.449788 25.79367 
L 447.450128 26.79333 
L 446.450469 27.79299 
L 446.450469 29.792309 
L 447.450128 31.791628 
L 447.450128 32.791288 
L 449.449448 34.790608 
L 450.449108 34.790608 
L 451.448767 34.790608 
" style="fill:none;stroke:#8c8c8c;stroke-linecap:square;"/>
   </g>
   <g id="line2d_33">
    <path clip-path="url(#p3ad5a86998)" d="M 455.447406 27.79299 
L 455.447406 27.79299 
L 455.447406 27.79299 
L 455.447406 27.79299 
L 456.447066 28.792649 
L 456.447066 28.792649 
L 457.446725 28.792649 
L 458.446385 27.79299 
L 459.446045 26.79333 
L 460.445704 25.79367 
L 460.445704 25.79367 
L 460.445704 24.794011 
L 459.446045 24.794011 
L 458.446385 24.794011 
L 457.446725 25.79367 
L 456.447066 27.79299 
L 457.446725 30.791969 
L 458.446385 32.791288 
L 460.445704 34.790608 
L 462.445024 34.790608 
L 464.444343 34.790608 
" style="fill:none;stroke:#8c8c8c;stroke-linecap:square;"/>
   </g>
   <g id="line2d_34">
    <path clip-path="url(#p3ad5a86998)" d="M 473.44128 22.794691 
L 473.44128 21.795032 
L 473.44128 21.795032 
L 472.441621 20.795372 
L 471.441961 20.795372 
L 470.442301 21.795032 
L 469.442642 23.794351 
L 469.442642 24.794011 
L 470.442301 25.79367 
L 472.441621 26.79333 
L 474.44094 27.79299 
L 476.44026 28.792649 
L 478.439579 30.791969 
L 479.439239 32.791288 
L 478.439579 35.790267 
L 478.439579 36.789927 
" style="fill:none;stroke:#8c8c8c;stroke-linecap:square;"/>
   </g>
   <g id="line2d_35">
    <path clip-path="url(#p3ad5a86998)" d="M 149.55154 70.778356 
L 149.55154 70.778356 
L 149.55154 70.778356 
L 150.5512 70.778356 
L 150.5512 70.778356 
L 150.5512 72.777676 
L 151.55086 77.775974 
L 152.550519 83.773932 
L 153.550179 88.772231 
L 154.549839 92.77087 
L 155.549498 94.770189 
L 155.549498 94.770189 
" style="fill:none;stroke:#8c8c8c;stroke-linecap:square;"/>
   </g>
   <g id="line2d_36">
    <path clip-path="url(#p3ad5a86998)" d="M 146.552561 84.773592 
L 146.552561 84.773592 
L 146.552561 84.773592 
L 147.552221 84.773592 
L 149.55154 83.773932 
L 153.550179 82.774273 
L 156.549158 82.774273 
L 157.548818 81.774613 
" style="fill:none;stroke:#8c8c8c;stroke-linecap:square;"/>
   </g>
   <g id="line2d_37">
    <path clip-path="url(#p3ad5a86998)" d="M 161.547456 82.774273 
L 161.547456 82.774273 
L 161.547456 83.773932 
L 161.547456 83.773932 
L 163.546776 83.773932 
L 165.546095 83.773932 
L 167.545415 81.774613 
L 167.545415 79.775294 
L 167.545415 78.775634 
L 167.545415 77.775974 
L 166.545755 76.776315 
L 164.546436 76.776315 
L 163.546776 78.775634 
L 162.547116 80.774953 
L 162.547116 83.773932 
L 164.546436 87.772571 
L 167.545415 91.77121 
L 169.544734 92.77087 
L 172.543713 93.770529 
L 174.543032 92.77087 
L 175.542692 90.77155 
" style="fill:none;stroke:#8c8c8c;stroke-linecap:square;"/>
   </g>
   <g id="line2d_38">
    <path clip-path="url(#p3ad5a86998)" d="M 177.542012 66.779718 
L 177.542012 66.779718 
L 177.542012 66.779718 
L 177.542012 68.779037 
L 178.541671 71.778016 
L 179.541331 76.776315 
L 179.541331 81.774613 
L 180.540991 87.772571 
L 181.54065 90.77155 
L 181.54065 92.77087 
L 181.54065 92.77087 
" style="fill:none;stroke:#8c8c8c;stroke-linecap:square;"/>
   </g>
   <g id="line2d_39">
    <path clip-path="url(#p3ad5a86998)" d="M 182.54031 67.779377 
L 182.54031 66.779718 
L 182.54031 66.779718 
L 183.53997 66.779718 
L 184.539629 69.778697 
L 185.539289 73.777336 
L 187.538608 78.775634 
L 188.538268 84.773592 
L 190.537588 89.771891 
" style="fill:none;stroke:#8c8c8c;stroke-linecap:square;"/>
   </g>
   <g id="line2d_40">
    <path clip-path="url(#p3ad5a86998)" d="M 237.521593 77.775974 
L 237.521593 77.775974 
L 237.521593 77.775974 
L 237.521593 78.775634 
L 239.520912 81.774613 
L 240.520572 84.773592 
L 242.519892 87.772571 
L 245.518871 89.771891 
L 246.51853 89.771891 
L 247.51819 88.772231 
L 247.51819 85.773252 
L 247.51819 81.774613 
L 246.51853 78.775634 
L 245.518871 76.776315 
L 245.518871 75.776655 
L 244.519211 75.776655 
" style="fill:none;stroke:#8c8c8c;stroke-linecap:square;"/>
   </g>
   <g id="line2d_41">
    <path clip-path="url(#p3ad5a86998)" d="M 257.514787 74.776995 
L 257.514787 74.776995 
L 257.514787 74.776995 
L 257.514787 75.776655 
L 257.514787 75.776655 
L 256.515127 77.775974 
L 255.515468 78.775634 
L 254.515808 80.774953 
L 255.515468 80.774953 
L 256.515127 81.774613 
L 258.514447 81.774613 
L 259.514106 82.774273 
L 261.513426 84.773592 
L 262.513085 86.772912 
L 264.512405 90.77155 
L 264.512405 92.77087 
L 263.512745 93.770529 
L 262.513085 94.770189 
" style="fill:none;stroke:#8c8c8c;stroke-linecap:square;"/>
   </g>
   <g id="line2d_42">
    <path clip-path="url(#p3ad5a86998)" d="M 335.488243 77.775974 
L 334.488583 77.775974 
L 334.488583 77.775974 
L 334.488583 78.775634 
L 334.488583 80.774953 
L 334.488583 82.774273 
L 334.488583 83.773932 
L 334.488583 84.773592 
L 334.488583 83.773932 
L 334.488583 82.774273 
L 332.489264 79.775294 
L 331.489604 77.775974 
L 328.490625 75.776655 
L 326.491306 75.776655 
L 324.491986 76.776315 
L 323.492327 77.775974 
L 323.492327 79.775294 
L 324.491986 82.774273 
L 327.490965 83.773932 
L 329.490285 83.773932 
L 331.489604 82.774273 
L 332.489264 81.774613 
" style="fill:none;stroke:#8c8c8c;stroke-linecap:square;"/>
   </g>
   <g id="line2d_43">
    <path clip-path="url(#p3ad5a86998)" d="M 337.487562 68.779037 
L 337.487562 67.779377 
L 337.487562 66.779718 
L 337.487562 66.779718 
L 337.487562 65.780058 
L 338.487222 66.779718 
L 339.486882 68.779037 
L 340.486541 73.777336 
L 341.486201 75.776655 
L 342.485861 79.775294 
L 343.48552 81.774613 
L 343.48552 82.774273 
L 342.485861 81.774613 
L 343.48552 79.775294 
L 343.48552 77.775974 
L 344.48518 76.776315 
L 346.4845 75.776655 
L 348.483819 76.776315 
L 349.483479 77.775974 
L 350.483138 78.775634 
L 351.482798 80.774953 
L 350.483138 83.773932 
L 349.483479 84.773592 
L 346.4845 85.773252 
L 343.48552 85.773252 
L 340.486541 83.773932 
" style="fill:none;stroke:#8c8c8c;stroke-linecap:square;"/>
   </g>
   <g id="line2d_44">
    <path clip-path="url(#p3ad5a86998)" d="M 354.481777 75.776655 
L 354.481777 75.776655 
L 354.481777 75.776655 
L 354.481777 76.776315 
L 355.481437 79.775294 
L 356.481096 81.774613 
L 358.480416 83.773932 
L 361.479395 84.773592 
L 362.479055 83.773932 
L 364.478374 81.774613 
L 363.478714 79.775294 
L 361.479395 77.775974 
L 359.480076 76.776315 
L 357.480756 75.776655 
L 356.481096 76.776315 
L 355.481437 76.776315 
" style="fill:none;stroke:#8c8c8c;stroke-linecap:square;"/>
   </g>
   <g id="line2d_45">
    <path clip-path="url(#p3ad5a86998)" d="M 368.477013 74.776995 
L 368.477013 74.776995 
L 368.477013 74.776995 
L 368.477013 75.776655 
L 369.476672 76.776315 
L 370.476332 78.775634 
L 372.475652 80.774953 
L 374.474971 80.774953 
L 375.474631 79.775294 
L 376.47429 78.775634 
L 377.47395 76.776315 
L 377.47395 75.776655 
L 377.47395 74.776995 
L 377.47395 72.777676 
" style="fill:none;stroke:#8c8c8c;stroke-linecap:square;"/>
   </g>
   <g id="line2d_46">
    <path clip-path="url(#p3ad5a86998)" d="M 380.472929 66.779718 
L 380.472929 66.779718 
L 380.472929 65.780058 
L 381.472589 66.779718 
L 382.472248 67.779377 
L 384.471568 71.778016 
L 388.470207 77.775974 
L 390.469526 80.774953 
L 391.469186 81.774613 
" style="fill:none;stroke:#8c8c8c;stroke-linecap:square;"/>
   </g>
   <g id="line2d_47">
    <path clip-path="url(#p3ad5a86998)" d="M 381.472589 74.776995 
L 381.472589 74.776995 
L 381.472589 74.776995 
L 381.472589 74.776995 
L 383.471908 74.776995 
L 385.471228 73.777336 
L 387.470547 72.777676 
" style="fill:none;stroke:#8c8c8c;stroke-linecap:square;"/>
   </g>
   <g id="line2d_48">
    <path clip-path="url(#p3ad5a86998)" d="M 441.45217 58.78244 
L 441.45217 58.78244 
L 440.452511 57.78278 
L 440.452511 57.78278 
L 440.452511 58.78244 
L 441.45217 60.78176 
L 442.45183 63.780739 
L 443.45149 69.778697 
L 444.451149 73.777336 
L 445.450809 76.776315 
L 445.450809 77.775974 
" style="fill:none;stroke:#8c8c8c;stroke-linecap:square;"/>
   </g>
   <g id="line2d_49">
    <path clip-path="url(#p3ad5a86998)" d="M 437.453532 68.779037 
L 437.453532 68.779037 
L 437.453532 68.779037 
L 438.453191 68.779037 
L 440.452511 67.779377 
L 443.45149 65.780058 
L 445.450809 64.780398 
L 446.450469 64.780398 
L 447.450128 63.780739 
" style="fill:none;stroke:#8c8c8c;stroke-linecap:square;"/>
   </g>
   <g id="line2d_50">
    <path clip-path="url(#p3ad5a86998)" d="M 452.448427 56.783121 
L 452.448427 55.783461 
L 452.448427 54.783801 
L 452.448427 54.783801 
L 452.448427 54.783801 
L 453.448087 55.783461 
L 454.447746 57.78278 
L 455.447406 61.781419 
L 456.447066 65.780058 
L 457.446725 68.779037 
L 458.446385 69.778697 
L 458.446385 69.778697 
L 459.446045 68.779037 
L 460.445704 66.779718 
L 462.445024 65.780058 
L 464.444343 64.780398 
L 465.444003 64.780398 
L 467.443322 65.780058 
L 468.442982 66.779718 
L 469.442642 68.779037 
L 470.442301 68.779037 
" style="fill:none;stroke:#8c8c8c;stroke-linecap:square;"/>
   </g>
   <g id="line2d_51">
    <path clip-path="url(#p3ad5a86998)" d="M 475.4406 67.779377 
L 475.4406 67.779377 
L 475.4406 67.779377 
L 476.44026 66.779718 
L 477.439919 65.780058 
L 479.439239 63.780739 
L 480.438898 61.781419 
L 480.438898 60.78176 
L 480.438898 59.7821 
L 479.439239 58.78244 
L 477.439919 59.7821 
L 476.44026 60.78176 
L 475.4406 62.781079 
L 475.4406 65.780058 
L 479.439239 69.778697 
L 483.437877 70.778356 
L 486.436856 71.778016 
" style="fill:none;stroke:#8c8c8c;stroke-linecap:square;"/>
   </g>
   <g id="line2d_52">
    <path clip-path="url(#p3ad5a86998)" d="M 197.535205 123.76032 
L 197.535205 123.76032 
L 198.534865 122.76066 
L 198.534865 121.761001 
L 198.534865 120.761341 
L 198.534865 120.761341 
L 198.534865 120.761341 
L 198.534865 119.761681 
L 197.535205 119.761681 
L 196.535546 119.761681 
L 195.535886 120.761341 
L 192.536907 123.76032 
L 191.537247 127.758959 
L 192.536907 130.757938 
L 194.536226 131.757598 
L 198.534865 132.757257 
L 203.533164 132.757257 
L 206.532143 131.757598 
L 207.531802 131.757598 
" style="fill:none;stroke:#8c8c8c;stroke-linecap:square;"/>
   </g>
   <g id="line2d_53">
    <path clip-path="url(#p3ad5a86998)" d="M 207.531802 109.765084 
L 207.531802 109.765084 
L 207.531802 109.765084 
L 208.531462 110.764744 
L 209.531122 113.763723 
L 210.530781 117.762362 
L 212.530101 122.76066 
L 213.52976 125.75964 
L 213.52976 127.758959 
L 213.52976 128.758619 
L 214.52942 128.758619 
L 214.52942 127.758959 
L 214.52942 125.75964 
L 214.52942 122.76066 
L 215.52908 119.761681 
L 216.52874 118.762022 
L 217.528399 118.762022 
L 218.528059 118.762022 
L 219.527719 121.761001 
L 221.527038 124.75998 
L 222.526698 126.759299 
L 223.526357 128.758619 
" style="fill:none;stroke:#8c8c8c;stroke-linecap:square;"/>
   </g>
   <g id="line2d_54">
    <path clip-path="url(#p3ad5a86998)" d="M 226.525336 124.75998 
L 226.525336 123.76032 
L 227.524996 123.76032 
L 228.524656 123.76032 
L 230.523975 121.761001 
L 231.523635 120.761341 
L 232.523295 118.762022 
L 233.522954 117.762362 
L 233.522954 115.763043 
L 232.523295 115.763043 
L 231.523635 114.763383 
L 229.524316 114.763383 
L 227.524996 115.763043 
L 225.525677 118.762022 
L 226.525336 122.76066 
L 228.524656 125.75964 
L 232.523295 127.758959 
L 235.522274 127.758959 
L 238.521253 127.758959 
L 240.520572 126.759299 
L 240.520572 125.75964 
" style="fill:none;stroke:#8c8c8c;stroke-linecap:square;"/>
   </g>
   <g id="line2d_55">
    <path clip-path="url(#p3ad5a86998)" d="M 243.519551 117.762362 
L 243.519551 117.762362 
L 243.519551 117.762362 
L 243.519551 117.762362 
L 244.519211 120.761341 
L 245.518871 123.76032 
L 245.518871 125.75964 
L 246.51853 127.758959 
L 246.51853 128.758619 
L 246.51853 128.758619 
L 246.51853 127.758959 
L 246.51853 125.75964 
L 246.51853 123.76032 
L 247.51819 121.761001 
L 247.51819 121.761001 
L 248.51785 121.761001 
L 249.517509 121.761001 
L 250.517169 123.76032 
L 250.517169 125.75964 
L 251.516829 126.759299 
L 251.516829 127.758959 
L 251.516829 127.758959 
L 251.516829 126.759299 
L 251.516829 124.75998 
L 252.516488 122.76066 
L 252.516488 121.761001 
L 253.516148 120.761341 
L 253.516148 120.761341 
L 254.515808 119.761681 
L 255.515468 119.761681 
L 256.515127 119.761681 
L 257.514787 122.76066 
L 258.514447 124.75998 
L 259.514106 127.758959 
L 260.513766 129.758278 
L 260.513766 130.757938 
L 260.513766 131.757598 
" style="fill:none;stroke:#8c8c8c;stroke-linecap:square;"/>
   </g>
   <g id="line2d_56">
    <path clip-path="url(#p3ad5a86998)" d="M 267.511384 117.762362 
L 267.511384 117.762362 
L 268.511044 120.761341 
L 269.510703 122.76066 
L 270.510363 124.75998 
L 270.510363 125.75964 
" style="fill:none;stroke:#8c8c8c;stroke-linecap:square;"/>
   </g>
   <g id="line2d_57">
    <path clip-path="url(#p3ad5a86998)" d="M 270.510363 111.764404 
L 270.510363 110.764744 
L 269.510703 109.765084 
L 269.510703 108.765425 
L 269.510703 107.765765 
" style="fill:none;stroke:#8c8c8c;stroke-linecap:square;"/>
   </g>
   <g id="line2d_58">
    <path clip-path="url(#p3ad5a86998)" d="M 278.50764 110.764744 
L 278.50764 111.764404 
L 279.5073 112.764064 
L 278.50764 113.763723 
L 278.50764 114.763383 
L 277.507981 116.762702 
L 277.507981 117.762362 
L 277.507981 118.762022 
L 277.507981 119.761681 
L 278.50764 119.761681 
L 279.5073 119.761681 
L 282.506279 120.761341 
L 284.505599 122.76066 
L 286.504918 124.75998 
L 287.504578 127.758959 
L 287.504578 129.758278 
L 287.504578 131.757598 
L 287.504578 133.756917 
L 286.504918 133.756917 
" style="fill:none;stroke:#8c8c8c;stroke-linecap:square;"/>
   </g>
   <g id="line2d_59">
    <path clip-path="url(#p3ad5a86998)" d="M 288.504237 112.764064 
L 288.504237 112.764064 
L 288.504237 112.764064 
L 289.503897 113.763723 
L 290.503557 115.763043 
L 292.502876 118.762022 
L 294.502196 123.76032 
L 296.501515 126.759299 
L 297.501175 129.758278 
" style="fill:none;stroke:#8c8c8c;stroke-linecap:square;"/>
   </g>
   <g id="line2d_60">
    <path clip-path="url(#p3ad5a86998)" d="M 290.503557 123.76032 
L 290.503557 123.76032 
L 290.503557 122.76066 
L 290.503557 121.761001 
L 290.503557 120.761341 
L 292.502876 118.762022 
L 294.502196 118.762022 
L 295.501855 117.762362 
L 297.501175 117.762362 
L 298.500834 117.762362 
" style="fill:none;stroke:#8c8c8c;stroke-linecap:square;"/>
   </g>
   <g id="line2d_61">
    <path clip-path="url(#p3ad5a86998)" d="M 307.497772 117.762362 
L 307.497772 117.762362 
L 307.497772 118.762022 
L 308.497431 120.761341 
L 309.497091 123.76032 
L 309.497091 125.75964 
L 310.496751 126.759299 
L 310.496751 127.758959 
L 310.496751 127.758959 
L 310.496751 126.759299 
L 310.496751 124.75998 
L 310.496751 121.761001 
L 311.49641 119.761681 
L 312.49607 118.762022 
L 312.49607 117.762362 
" style="fill:none;stroke:#8c8c8c;stroke-linecap:square;"/>
   </g>
   <g id="line2d_62">
    <path clip-path="url(#p3ad5a86998)" d="M 319.493688 119.761681 
L 320.493348 120.761341 
L 322.492667 122.76066 
L 325.491646 124.75998 
L 327.490965 124.75998 
L 330.489944 124.75998 
L 331.489604 123.76032 
L 332.489264 121.761001 
L 332.489264 119.761681 
L 333.488924 117.762362 
L 333.488924 116.762702 
L 332.489264 116.762702 
L 332.489264 117.762362 
L 332.489264 118.762022 
L 332.489264 121.761001 
L 333.488924 127.758959 
L 333.488924 133.756917 
L 334.488583 138.755216 
L 334.488583 142.753854 
" style="fill:none;stroke:#8c8c8c;stroke-linecap:square;"/>
   </g>
   <g id="line2d_63">
    <path clip-path="url(#p3ad5a86998)" d="M 379.473269 121.761001 
L 378.47361 121.761001 
L 378.47361 121.761001 
L 377.47395 121.761001 
L 376.47429 123.76032 
L 377.47395 126.759299 
L 378.47361 128.758619 
L 380.472929 129.758278 
L 383.471908 129.758278 
L 384.471568 127.758959 
L 384.471568 123.76032 
L 384.471568 122.76066 
L 381.472589 119.761681 
L 379.473269 119.761681 
L 377.47395 119.761681 
L 376.47429 121.761001 
L 376.47429 121.761001 
" style="fill:none;stroke:#8c8c8c;stroke-linecap:square;"/>
   </g>
   <g id="line2d_64">
    <path clip-path="url(#p3ad5a86998)" d="M 390.469526 121.761001 
L 390.469526 121.761001 
L 391.469186 121.761001 
L 392.468845 121.761001 
L 393.468505 122.76066 
L 393.468505 123.76032 
L 394.468165 124.75998 
L 394.468165 124.75998 
L 394.468165 124.75998 
L 392.468845 121.761001 
L 390.469526 117.762362 
L 387.470547 111.764404 
L 385.471228 106.766105 
L 384.471568 102.767467 
L 384.471568 101.767807 
L 385.471228 100.768147 
L 386.470887 100.768147 
L 388.470207 101.767807 
L 388.470207 102.767467 
" style="fill:none;stroke:#8c8c8c;stroke-linecap:square;"/>
   </g>
   <g id="line2d_65">
    <path clip-path="url(#p3ad5a86998)" d="M 384.471568 114.763383 
L 383.471908 114.763383 
L 383.471908 114.763383 
L 382.472248 115.763043 
L 383.471908 116.762702 
L 384.471568 116.762702 
L 389.469866 115.763043 
L 394.468165 113.763723 
L 400.466123 112.764064 
" style="fill:none;stroke:#8c8c8c;stroke-linecap:square;"/>
   </g>
   <g id="line2d_66">
    <path clip-path="url(#p3ad5a86998)" d="M 436.453872 103.767126 
L 436.453872 103.767126 
L 436.453872 103.767126 
L 436.453872 103.767126 
L 436.453872 103.767126 
L 435.454212 104.766786 
L 435.454212 104.766786 
L 435.454212 106.766105 
L 434.454552 108.765425 
L 434.454552 112.764064 
L 434.454552 115.763043 
L 435.454212 119.761681 
L 438.453191 122.76066 
L 440.452511 123.76032 
L 445.450809 122.76066 
L 448.449788 121.761001 
L 450.449108 118.762022 
" style="fill:none;stroke:#8c8c8c;stroke-linecap:square;"/>
   </g>
   <g id="line2d_67">
    <path clip-path="url(#p3ad5a86998)" d="M 435.454212 112.764064 
L 435.454212 112.764064 
L 435.454212 113.763723 
L 436.453872 112.764064 
L 439.452851 112.764064 
L 441.45217 111.764404 
L 443.45149 110.764744 
" style="fill:none;stroke:#8c8c8c;stroke-linecap:square;"/>
   </g>
   <g id="line2d_68">
    <path clip-path="url(#p3ad5a86998)" d="M 436.453872 104.766786 
L 436.453872 104.766786 
L 436.453872 104.766786 
L 435.454212 104.766786 
L 436.453872 104.766786 
L 438.453191 103.767126 
L 441.45217 102.767467 
L 446.450469 100.768147 
L 449.449448 100.768147 
" style="fill:none;stroke:#8c8c8c;stroke-linecap:square;"/>
   </g>
   <g id="line2d_69">
    <path clip-path="url(#p3ad5a86998)" d="M 459.446045 112.764064 
L 459.446045 112.764064 
L 459.446045 112.764064 
L 458.446385 112.764064 
L 457.446725 112.764064 
L 456.447066 113.763723 
L 454.447746 114.763383 
L 453.448087 116.762702 
L 454.447746 117.762362 
L 455.447406 119.761681 
L 458.446385 119.761681 
L 459.446045 119.761681 
L 461.445364 117.762362 
L 461.445364 115.763043 
L 461.445364 114.763383 
L 461.445364 113.763723 
L 461.445364 112.764064 
L 460.445704 112.764064 
L 461.445364 112.764064 
L 461.445364 113.763723 
L 462.445024 115.763043 
L 463.444684 119.761681 
L 464.444343 121.761001 
L 465.444003 123.76032 
" style="fill:none;stroke:#8c8c8c;stroke-linecap:square;"/>
   </g>
   <g id="line2d_70">
    <path clip-path="url(#p3ad5a86998)" d="M 468.442982 112.764064 
L 468.442982 111.764404 
L 468.442982 111.764404 
L 469.442642 111.764404 
L 469.442642 112.764064 
L 471.441961 112.764064 
L 473.44128 115.763043 
L 475.4406 117.762362 
L 476.44026 119.761681 
L 477.439919 120.761341 
L 477.439919 120.761341 
L 477.439919 120.761341 
L 476.44026 119.761681 
L 475.4406 117.762362 
L 476.44026 114.763383 
L 476.44026 111.764404 
L 477.439919 110.764744 
L 479.439239 108.765425 
L 479.439239 108.765425 
" style="fill:none;stroke:#8c8c8c;stroke-linecap:square;"/>
   </g>
   <g id="line2d_71">
    <path clip-path="url(#p3ad5a86998)" d="M 487.436516 104.766786 
L 487.436516 104.766786 
L 487.436516 104.766786 
L 487.436516 105.766446 
L 487.436516 105.766446 
L 488.436176 107.765765 
L 490.435495 111.764404 
L 491.435155 113.763723 
L 492.434815 116.762702 
L 493.434474 118.762022 
" style="fill:none;stroke:#8c8c8c;stroke-linecap:square;"/>
   </g>
   <g id="line2d_72">
    <path clip-path="url(#p3ad5a86998)" d="M 487.436516 115.763043 
L 487.436516 115.763043 
L 486.436856 115.763043 
L 487.436516 114.763383 
L 488.436176 113.763723 
L 491.435155 112.764064 
L 494.434134 111.764404 
L 496.433453 111.764404 
L 497.433113 110.764744 
" style="fill:none;stroke:#8c8c8c;stroke-linecap:square;"/>
   </g>
   <g id="line2d_73">
    <path clip-path="url(#p3ad5a86998)" d="M 500.432092 95.769849 
L 500.432092 95.769849 
L 500.432092 95.769849 
L 500.432092 95.769849 
L 501.431752 98.768828 
L 502.431412 101.767807 
L 504.430731 105.766446 
L 506.43005 109.765084 
L 508.42937 111.764404 
L 508.42937 112.764064 
L 508.42937 112.764064 
L 509.429029 110.764744 
L 509.429029 108.765425 
L 511.428349 107.765765 
L 512.428008 106.766105 
L 514.427328 107.765765 
L 516.426647 109.765084 
L 518.425967 111.764404 
L 519.425626 114.763383 
L 520.425286 115.763043 
L 520.425286 115.763043 
" style="fill:none;stroke:#8c8c8c;stroke-linecap:square;"/>
   </g>
   <g id="line2d_74">
    <path clip-path="url(#p3ad5a86998)" d="M 522.424605 85.773252 
L 522.424605 85.773252 
L 521.424946 85.773252 
L 521.424946 85.773252 
L 523.424265 85.773252 
L 527.422904 85.773252 
L 530.421883 85.773252 
L 534.420522 86.772912 
L 535.420181 87.772571 
L 536.419841 90.77155 
L 536.419841 92.77087 
L 534.420522 95.769849 
L 532.421202 97.769168 
L 531.421543 99.768488 
L 531.421543 99.768488 
" style="fill:none;stroke:#8c8c8c;stroke-linecap:square;"/>
   </g>
   <g id="line2d_75">
    <path clip-path="url(#p3ad5a86998)" d="M 538.41916 120.761341 
L 539.41882 121.761001 
L 539.41882 122.76066 
L 539.41882 123.76032 
L 540.41848 124.75998 
L 540.41848 126.759299 
" style="fill:none;stroke:#8c8c8c;stroke-linecap:square;"/>
   </g>
   <g id="line2d_76">
    <path clip-path="url(#p3ad5a86998)" d="M 50.585231 157.74875 
L 50.585231 157.74875 
L 50.585231 157.74875 
L 50.585231 157.74875 
L 51.58489 157.74875 
L 51.58489 157.74875 
L 51.58489 157.74875 
L 51.58489 157.74875 
L 51.58489 157.74875 
L 51.58489 157.74875 
L 51.58489 158.748409 
L 51.58489 158.748409 
L 51.58489 158.748409 
L 50.585231 159.748069 
L 50.585231 160.747729 
L 50.585231 160.747729 
L 50.585231 161.747388 
L 49.585571 162.747048 
L 49.585571 163.746708 
L 49.585571 164.746368 
L 48.585911 165.746027 
L 48.585911 166.745687 
L 48.585911 166.745687 
L 48.585911 168.745006 
L 47.586252 168.745006 
L 47.586252 169.744666 
L 47.586252 170.744326 
L 46.586592 171.743985 
L 46.586592 172.743645 
L 46.586592 173.743305 
L 45.586932 174.742964 
L 44.587272 176.742284 
L 44.587272 177.741944 
L 43.587613 178.741603 
L 43.587613 179.741263 
L 43.587613 180.740923 
L 42.587953 181.740582 
L 42.587953 181.740582 
L 42.587953 181.740582 
L 42.587953 181.740582 
" style="fill:none;stroke:#8c8c8c;stroke-linecap:square;"/>
   </g>
   <g id="line2d_77">
    <path clip-path="url(#p3ad5a86998)" d="M 34.590676 159.748069 
L 34.590676 159.748069 
L 34.590676 159.748069 
L 34.590676 159.748069 
L 34.590676 159.748069 
L 34.590676 159.748069 
L 35.590335 159.748069 
L 35.590335 159.748069 
L 35.590335 160.747729 
L 35.590335 161.747388 
L 36.589995 162.747048 
L 36.589995 165.746027 
L 37.589655 167.745347 
L 37.589655 170.744326 
L 37.589655 171.743985 
L 38.589314 173.743305 
L 38.589314 175.742624 
L 38.589314 176.742284 
L 39.588974 178.741603 
L 39.588974 179.741263 
L 39.588974 180.740923 
L 39.588974 181.740582 
L 39.588974 182.740242 
L 40.588634 183.739902 
L 40.588634 184.739561 
L 40.588634 185.739221 
L 40.588634 185.739221 
L 41.588293 185.739221 
L 41.588293 185.739221 
L 43.587613 185.739221 
L 45.586932 183.739902 
L 48.585911 181.740582 
L 50.585231 179.741263 
L 52.58455 178.741603 
L 55.583529 176.742284 
L 57.582848 174.742964 
L 58.582508 173.743305 
L 59.582168 172.743645 
L 59.582168 172.743645 
" style="fill:none;stroke:#8c8c8c;stroke-linecap:square;"/>
   </g>
   <g id="line2d_78">
    <path clip-path="url(#p3ad5a86998)" d="M 48.585911 160.747729 
L 48.585911 159.748069 
L 48.585911 159.748069 
L 49.585571 158.748409 
L 49.585571 158.748409 
L 49.585571 157.74875 
L 50.585231 156.74909 
L 50.585231 156.74909 
L 50.585231 155.74943 
L 50.585231 155.74943 
L 51.58489 155.74943 
L 51.58489 153.750111 
L 52.58455 153.750111 
L 52.58455 152.750451 
L 52.58455 152.750451 
L 53.58421 151.750792 
L 53.58421 150.751132 
L 53.58421 150.751132 
L 54.583869 149.751472 
L 54.583869 149.751472 
L 54.583869 148.751812 
L 55.583529 147.752153 
L 55.583529 147.752153 
L 55.583529 146.752493 
L 56.583189 145.752833 
L 56.583189 145.752833 
L 56.583189 144.753174 
L 57.582848 143.753514 
L 57.582848 141.754195 
L 58.582508 141.754195 
L 58.582508 139.754875 
L 59.582168 138.755216 
L 59.582168 136.755896 
L 60.581828 135.756236 
L 60.581828 133.756917 
L 61.581487 132.757257 
L 61.581487 130.757938 
L 62.581147 129.758278 
L 62.581147 128.758619 
L 63.580807 127.758959 
L 63.580807 126.759299 
L 64.580466 125.75964 
L 65.580126 123.76032 
L 65.580126 122.76066 
L 66.579786 122.76066 
L 66.579786 121.761001 
L 67.579445 120.761341 
L 67.579445 119.761681 
L 68.579105 118.762022 
L 68.579105 118.762022 
L 68.579105 117.762362 
L 69.578765 117.762362 
L 69.578765 116.762702 
L 69.578765 116.762702 
L 71.578084 114.763383 
L 71.578084 114.763383 
L 71.578084 116.762702 
L 70.578424 117.762362 
L 70.578424 118.762022 
L 69.578765 119.761681 
L 66.579786 125.75964 
L 65.580126 126.759299 
L 65.580126 128.758619 
L 64.580466 129.758278 
L 64.580466 131.757598 
L 63.580807 132.757257 
L 63.580807 134.756577 
L 62.581147 135.756236 
L 62.581147 138.755216 
L 62.581147 134.756577 
L 62.581147 135.756236 
L 61.581487 136.755896 
L 61.581487 139.754875 
L 60.581828 141.754195 
L 60.581828 144.753174 
L 59.582168 145.752833 
L 59.582168 148.751812 
L 58.582508 149.751472 
L 58.582508 150.751132 
L 57.582848 152.750451 
L 57.582848 153.750111 
L 56.583189 154.749771 
L 56.583189 155.74943 
L 54.583869 157.74875 
L 54.583869 158.748409 
L 53.58421 159.748069 
L 53.58421 159.748069 
L 52.58455 159.748069 
L 52.58455 159.748069 
L 53.58421 157.74875 
L 53.58421 155.74943 
L 54.583869 154.749771 
L 54.583869 151.750792 
L 54.583869 151.750792 
L 52.58455 155.74943 
L 52.58455 156.74909 
L 51.58489 159.748069 
L 49.585571 163.746708 
L 48.585911 166.745687 
L 47.586252 167.745347 
L 47.586252 171.743985 
L 46.586592 172.743645 
L 46.586592 175.742624 
L 45.586932 176.742284 
L 45.586932 177.741944 
L 44.587272 178.741603 
L 44.587272 180.740923 
L 44.587272 177.741944 
L 45.586932 173.743305 
L 46.586592 171.743985 
L 46.586592 169.744666 
L 47.586252 166.745687 
L 47.586252 164.746368 
L 48.585911 163.746708 
L 48.585911 161.747388 
L 49.585571 160.747729 
L 48.585911 161.747388 
L 48.585911 163.746708 
L 46.586592 169.744666 
L 45.586932 171.743985 
L 44.587272 174.742964 
L 43.587613 176.742284 
L 43.587613 176.742284 
L 44.587272 175.742624 
L 45.586932 171.743985 
L 46.586592 168.745006 
L 47.586252 166.745687 
L 47.586252 164.746368 
L 47.586252 164.746368 
L 46.586592 167.745347 
L 46.586592 169.744666 
L 45.586932 172.743645 
L 44.587272 174.742964 
L 44.587272 177.741944 
L 43.587613 178.741603 
L 43.587613 178.741603 
L 43.587613 182.740242 
L 42.587953 183.739902 
L 42.587953 183.739902 
L 41.588293 183.739902 
L 41.588293 182.740242 
L 41.588293 182.740242 
" style="fill:none;stroke:#8c8c8c;stroke-linecap:square;"/>
   </g>
   <g id="line2d_79">
    <path clip-path="url(#p3ad5a86998)" d="M 32.591356 158.748409 
L 32.591356 158.748409 
L 33.591016 158.748409 
L 33.591016 158.748409 
L 33.591016 158.748409 
L 34.590676 158.748409 
L 34.590676 159.748069 
L 34.590676 159.748069 
L 35.590335 160.747729 
L 35.590335 160.747729 
L 36.589995 161.747388 
L 36.589995 162.747048 
L 37.589655 163.746708 
L 37.589655 164.746368 
L 37.589655 165.746027 
L 38.589314 166.745687 
L 38.589314 167.745347 
L 38.589314 169.744666 
L 39.588974 170.744326 
L 39.588974 171.743985 
L 39.588974 172.743645 
L 39.588974 174.742964 
L 40.588634 175.742624 
L 40.588634 176.742284 
L 40.588634 177.741944 
L 40.588634 178.741603 
L 40.588634 179.741263 
L 40.588634 180.740923 
L 40.588634 181.740582 
L 40.588634 181.740582 
L 40.588634 182.740242 
L 40.588634 183.739902 
L 40.588634 183.739902 
L 40.588634 184.739561 
L 40.588634 184.739561 
L 40.588634 184.739561 
L 39.588974 184.739561 
L 39.588974 183.739902 
L 39.588974 183.739902 
L 39.588974 181.740582 
L 38.589314 180.740923 
L 38.589314 179.741263 
L 38.589314 178.741603 
L 38.589314 176.742284 
L 37.589655 175.742624 
L 37.589655 174.742964 
L 37.589655 173.743305 
L 36.589995 173.743305 
L 36.589995 172.743645 
L 36.589995 172.743645 
L 36.589995 172.743645 
L 36.589995 173.743305 
L 37.589655 173.743305 
L 37.589655 174.742964 
L 37.589655 175.742624 
L 38.589314 176.742284 
L 38.589314 177.741944 
L 39.588974 178.741603 
L 39.588974 179.741263 
L 40.588634 180.740923 
L 40.588634 180.740923 
L 41.588293 180.740923 
L 42.587953 180.740923 
L 43.587613 180.740923 
L 44.587272 180.740923 
L 45.586932 180.740923 
L 46.586592 179.741263 
L 47.586252 179.741263 
L 48.585911 178.741603 
L 49.585571 178.741603 
L 50.585231 177.741944 
L 51.58489 177.741944 
L 52.58455 176.742284 
L 53.58421 176.742284 
L 53.58421 175.742624 
L 54.583869 174.742964 
L 55.583529 173.743305 
L 56.583189 173.743305 
L 57.582848 172.743645 
L 57.582848 171.743985 
L 58.582508 171.743985 
L 59.582168 170.744326 
L 60.581828 169.744666 
L 61.581487 169.744666 
L 61.581487 168.745006 
L 62.581147 168.745006 
L 62.581147 168.745006 
L 62.581147 167.745347 
L 63.580807 167.745347 
L 63.580807 167.745347 
L 63.580807 167.745347 
L 63.580807 167.745347 
L 63.580807 168.745006 
L 62.581147 169.744666 
L 61.581487 170.744326 
L 59.582168 172.743645 
L 58.582508 174.742964 
L 56.583189 176.742284 
L 54.583869 177.741944 
L 52.58455 179.741263 
L 51.58489 180.740923 
L 49.585571 181.740582 
L 47.586252 183.739902 
L 46.586592 184.739561 
L 45.586932 185.739221 
L 44.587272 185.739221 
L 43.587613 186.738881 
L 42.587953 186.738881 
L 41.588293 187.73854 
L 40.588634 187.73854 
L 40.588634 187.73854 
L 39.588974 187.73854 
L 39.588974 187.73854 
L 38.589314 187.73854 
L 38.589314 187.73854 
L 38.589314 187.73854 
L 38.589314 187.73854 
L 38.589314 187.73854 
L 38.589314 187.73854 
L 38.589314 186.738881 
L 38.589314 186.738881 
L 38.589314 185.739221 
L 38.589314 185.739221 
L 37.589655 184.739561 
L 37.589655 183.739902 
" style="fill:none;stroke:#8c8c8c;stroke-linecap:square;"/>
   </g>
  </g>
 </g>
 <defs>
  <clipPath id="p3ad5a86998">
   <rect height="189.135614" width="558.609836" x="7.2" y="7.2"/>
  </clipPath>
 </defs>
</svg>
