<?xml version="1.0" encoding="utf-8" standalone="no"?>
<!DOCTYPE svg PUBLIC "-//W3C//DTD SVG 1.1//EN"
  "http://www.w3.org/Graphics/SVG/1.1/DTD/svg11.dtd">
<!-- Created with matplotlib (https://matplotlib.org/) -->
<svg height="286.2pt" version="1.1" viewBox="0 0 416.4375 286.2" width="416.4375pt" xmlns="http://www.w3.org/2000/svg" xmlns:xlink="http://www.w3.org/1999/xlink">
 <metadata>
  <rdf:RDF xmlns:cc="http://creativecommons.org/ns#" xmlns:dc="http://purl.org/dc/elements/1.1/" xmlns:rdf="http://www.w3.org/1999/02/22-rdf-syntax-ns#">
   <cc:Work>
    <dc:type rdf:resource="http://purl.org/dc/dcmitype/StillImage"/>
    <dc:date>2024-11-15T16:03:35.854451</dc:date>
    <dc:format>image/svg+xml</dc:format>
    <dc:creator>
     <cc:Agent>
      <dc:title>Matplotlib v3.3.4, https://matplotlib.org/</dc:title>
     </cc:Agent>
    </dc:creator>
   </cc:Work>
  </rdf:RDF>
 </metadata>
 <defs>
  <style type="text/css">*{stroke-linecap:butt;stroke-linejoin:round;}</style>
 </defs>
 <g id="figure_1">
  <g id="patch_1">
   <path d="M 0 286.2 
L 416.4375 286.2 
L 416.4375 0 
L 0 0 
z
" style="fill:#ffffff;"/>
  </g>
  <g id="axes_1">
   <g id="line2d_1">
    <path clip-path="url(#p95890655b1)" d="M 26.439631 28.241335 
L 26.439631 28.241335 
L 26.761364 28.241335 
L 26.761364 27.919602 
L 26.761364 27.919602 
L 27.083097 27.597869 
L 27.083097 27.597869 
L 27.083097 27.597869 
L 27.083097 27.597869 
L 27.083097 27.597869 
L 26.761364 27.597869 
L 26.439631 27.597869 
L 26.439631 27.919602 
L 26.117898 28.241335 
L 25.474432 28.563068 
L 25.474432 29.206534 
L 25.474432 30.493466 
L 25.474432 31.458665 
L 26.117898 33.06733 
L 26.439631 34.032528 
L 27.083097 34.675994 
L 28.691761 34.675994 
L 30.300426 33.389063 
" style="fill:none;stroke:#8c8c8c;stroke-linecap:square;"/>
   </g>
   <g id="line2d_2">
    <path clip-path="url(#p95890655b1)" d="M 33.196023 29.528267 
L 33.196023 29.528267 
L 32.87429 29.528267 
L 32.87429 29.528267 
L 32.552557 29.528267 
L 32.230824 29.528267 
L 32.230824 29.528267 
L 31.909091 30.171733 
L 32.230824 30.815199 
L 32.552557 31.458665 
L 33.196023 31.458665 
L 33.839489 31.780398 
L 34.482955 31.780398 
L 35.12642 31.458665 
L 35.448153 31.136932 
L 35.448153 30.815199 
L 35.12642 30.493466 
L 34.482955 30.171733 
L 34.161222 30.171733 
L 33.196023 29.85 
" style="fill:none;stroke:#8c8c8c;stroke-linecap:square;"/>
   </g>
   <g id="line2d_3">
    <path clip-path="url(#p95890655b1)" d="M 38.022017 28.884801 
L 38.022017 28.884801 
L 38.022017 28.884801 
L 38.022017 28.884801 
L 38.022017 28.884801 
L 38.022017 29.528267 
L 38.34375 30.171733 
L 38.665483 31.136932 
L 38.665483 31.458665 
L 38.987216 31.780398 
L 38.987216 31.780398 
L 38.987216 31.458665 
L 38.987216 31.136932 
L 39.308949 29.85 
L 39.308949 29.206534 
L 39.630682 28.563068 
L 39.952415 28.241335 
L 40.274148 28.241335 
L 40.274148 28.241335 
L 40.917614 28.563068 
L 41.239347 28.884801 
L 41.56108 29.528267 
L 41.882812 30.171733 
L 42.204545 30.815199 
" style="fill:none;stroke:#8c8c8c;stroke-linecap:square;"/>
   </g>
   <g id="line2d_4">
    <path clip-path="url(#p95890655b1)" d="M 48.317472 28.241335 
L 48.317472 28.241335 
L 48.317472 28.241335 
L 47.995739 27.919602 
L 47.995739 27.919602 
L 47.674006 27.597869 
L 47.352273 27.919602 
L 46.708807 28.241335 
L 46.708807 28.563068 
L 46.387074 29.528267 
L 46.708807 29.85 
L 47.352273 30.171733 
L 47.674006 30.171733 
L 48.317472 29.85 
L 48.639205 29.206534 
L 48.639205 28.241335 
L 48.639205 26.954403 
L 48.317472 25.667472 
L 47.995739 24.702273 
L 47.674006 24.058807 
L 47.674006 23.737074 
L 47.674006 23.737074 
L 47.674006 23.737074 
L 47.995739 24.38054 
L 48.639205 25.667472 
L 49.28267 26.63267 
L 49.926136 28.241335 
L 50.247869 28.884801 
L 50.569602 29.528267 
" style="fill:none;stroke:#8c8c8c;stroke-linecap:square;"/>
   </g>
   <g id="line2d_5">
    <path clip-path="url(#p95890655b1)" d="M 51.534801 27.597869 
L 51.534801 27.919602 
L 51.534801 27.919602 
L 51.856534 27.919602 
L 52.178267 27.919602 
L 52.821733 27.919602 
L 53.465199 27.597869 
L 53.786932 27.276136 
L 54.108665 26.63267 
L 54.108665 26.310938 
L 54.108665 25.989205 
L 53.786932 25.667472 
L 53.786932 25.667472 
L 53.143466 25.989205 
L 52.821733 26.63267 
L 52.5 26.954403 
L 52.821733 28.241335 
L 53.465199 28.884801 
L 54.108665 29.206534 
L 55.395597 29.206534 
L 56.360795 29.206534 
" style="fill:none;stroke:#8c8c8c;stroke-linecap:square;"/>
   </g>
   <g id="line2d_6">
    <path clip-path="url(#p95890655b1)" d="M 57.325994 25.345739 
L 57.004261 25.345739 
L 57.004261 25.024006 
L 57.325994 25.345739 
L 57.325994 25.667472 
L 57.647727 26.310938 
L 57.96946 26.954403 
L 58.291193 27.276136 
L 58.291193 27.597869 
L 58.291193 27.597869 
L 58.291193 27.276136 
L 57.96946 26.63267 
L 57.96946 25.667472 
L 57.96946 25.024006 
L 58.291193 24.38054 
L 58.612926 24.38054 
L 58.934659 24.38054 
L 59.578125 25.024006 
L 59.899858 25.667472 
L 60.543324 26.310938 
L 60.865057 26.63267 
L 60.865057 26.954403 
" style="fill:none;stroke:#8c8c8c;stroke-linecap:square;"/>
   </g>
   <g id="line2d_7">
    <path clip-path="url(#p95890655b1)" d="M 64.404119 23.737074 
L 64.404119 23.737074 
L 64.404119 23.737074 
L 64.404119 23.415341 
L 64.082386 23.415341 
L 63.760653 23.415341 
L 63.117188 24.058807 
L 62.795455 24.38054 
L 62.473722 24.38054 
L 62.473722 24.702273 
L 62.795455 24.702273 
L 63.43892 24.702273 
L 64.404119 24.702273 
L 65.047585 25.024006 
L 66.012784 25.345739 
L 66.334517 25.989205 
L 66.65625 26.63267 
L 66.65625 27.276136 
L 66.65625 27.276136 
L 66.334517 27.276136 
" style="fill:none;stroke:#8c8c8c;stroke-linecap:square;"/>
   </g>
   <g id="line2d_8">
    <path clip-path="url(#p95890655b1)" d="M 69.230114 22.771875 
L 69.230114 22.771875 
L 69.230114 22.771875 
L 68.908381 22.771875 
L 68.908381 23.093608 
L 68.586648 23.093608 
L 68.586648 23.737074 
L 68.586648 24.058807 
L 68.908381 24.702273 
L 69.230114 25.345739 
L 69.87358 25.345739 
L 70.195312 25.345739 
L 70.517045 24.702273 
L 70.517045 24.058807 
L 70.517045 23.415341 
L 70.517045 22.771875 
L 70.195312 22.450142 
L 70.195312 22.128409 
L 70.195312 22.128409 
L 70.195312 22.128409 
L 70.517045 22.450142 
L 70.517045 23.415341 
L 70.838778 24.058807 
L 71.160511 25.024006 
L 71.803977 25.989205 
L 72.12571 26.310938 
" style="fill:none;stroke:#8c8c8c;stroke-linecap:square;"/>
   </g>
   <g id="line2d_9">
    <path clip-path="url(#p95890655b1)" d="M 74.377841 19.876278 
L 74.377841 19.876278 
L 74.377841 19.876278 
L 74.377841 19.876278 
L 74.377841 20.198011 
L 74.699574 20.841477 
L 75.021307 21.806676 
L 75.34304 23.415341 
L 75.664773 24.702273 
L 75.664773 25.345739 
L 75.986506 25.989205 
" style="fill:none;stroke:#8c8c8c;stroke-linecap:square;"/>
   </g>
   <g id="line2d_10">
    <path clip-path="url(#p95890655b1)" d="M 74.056108 24.058807 
L 74.056108 24.058807 
L 73.734375 24.058807 
L 74.056108 23.737074 
L 74.377841 23.415341 
L 75.34304 23.093608 
L 76.308239 22.771875 
L 77.59517 22.450142 
L 77.916903 22.450142 
L 78.238636 22.450142 
L 78.560369 22.450142 
L 78.882102 22.771875 
L 79.203835 22.771875 
L 79.525568 23.093608 
L 79.847301 23.737074 
L 80.169034 24.702273 
L 80.490767 25.024006 
L 80.490767 25.345739 
" style="fill:none;stroke:#8c8c8c;stroke-linecap:square;"/>
   </g>
   <g id="line2d_11">
    <path clip-path="url(#p95890655b1)" d="M 82.742898 20.198011 
L 82.742898 20.519744 
L 82.421165 21.16321 
L 82.421165 21.806676 
L 82.742898 22.771875 
L 83.064631 23.415341 
L 83.708097 24.058807 
L 84.673295 24.38054 
L 84.995028 24.38054 
L 85.960227 23.737074 
L 85.960227 23.093608 
L 85.960227 22.450142 
L 85.638494 21.484943 
L 84.673295 21.16321 
L 84.02983 20.841477 
L 83.064631 21.16321 
L 82.742898 21.484943 
L 82.742898 21.806676 
" style="fill:none;stroke:#8c8c8c;stroke-linecap:square;"/>
   </g>
   <g id="line2d_12">
    <path clip-path="url(#p95890655b1)" d="M 88.855824 20.841477 
L 88.855824 20.841477 
L 88.855824 20.841477 
L 88.855824 20.841477 
L 88.855824 21.16321 
L 88.855824 21.484943 
L 89.177557 21.806676 
L 89.177557 22.128409 
L 89.49929 22.128409 
L 89.821023 21.806676 
L 90.142756 21.16321 
L 90.464489 20.519744 
L 90.786222 19.876278 
L 91.429687 19.554545 
L 91.75142 19.876278 
L 93.038352 20.841477 
L 93.681818 21.806676 
L 94.003551 22.771875 
L 94.003551 23.737074 
" style="fill:none;stroke:#8c8c8c;stroke-linecap:square;"/>
   </g>
   <g id="line2d_13">
    <path clip-path="url(#p95890655b1)" d="M 40.274148 42.075852 
L 40.274148 42.075852 
L 40.595881 42.075852 
L 40.595881 41.754119 
L 40.595881 41.754119 
L 40.595881 41.754119 
L 40.274148 41.754119 
L 39.630682 42.075852 
L 38.987216 42.397585 
L 38.987216 42.719318 
L 38.987216 43.041051 
L 38.987216 43.041051 
L 39.630682 43.362784 
L 40.595881 43.362784 
L 41.239347 44.00625 
L 41.882812 44.649716 
L 42.204545 45.614915 
L 42.204545 46.580114 
L 41.882812 47.867045 
L 41.239347 48.510511 
L 40.595881 48.510511 
L 40.595881 47.867045 
" style="fill:none;stroke:#8c8c8c;stroke-linecap:square;"/>
   </g>
   <g id="line2d_14">
    <path clip-path="url(#p95890655b1)" d="M 44.456676 43.362784 
L 44.456676 43.362784 
L 44.778409 43.362784 
L 45.100142 43.362784 
L 45.743608 43.362784 
L 46.708807 43.041051 
L 47.352273 42.719318 
L 47.674006 42.075852 
L 47.674006 41.754119 
L 47.03054 41.432386 
L 46.065341 41.754119 
L 45.100142 42.397585 
L 44.456676 43.362784 
L 44.134943 45.293182 
L 44.778409 46.258381 
L 46.065341 46.901847 
L 47.674006 47.22358 
L 49.28267 46.901847 
" style="fill:none;stroke:#8c8c8c;stroke-linecap:square;"/>
   </g>
   <g id="line2d_15">
    <path clip-path="url(#p95890655b1)" d="M 53.465199 42.075852 
L 53.465199 42.075852 
L 53.465199 42.075852 
L 53.465199 41.754119 
L 53.143466 41.754119 
L 52.821733 41.754119 
L 52.178267 42.397585 
L 51.856534 43.041051 
L 51.856534 43.684517 
L 52.178267 44.327983 
L 52.821733 44.327983 
L 53.465199 44.327983 
L 53.786932 43.684517 
L 54.108665 43.362784 
" style="fill:none;stroke:#8c8c8c;stroke-linecap:square;"/>
   </g>
   <g id="line2d_16">
    <path clip-path="url(#p95890655b1)" d="M 54.108665 40.78892 
L 54.108665 40.78892 
L 54.108665 40.467188 
L 54.108665 40.467188 
L 54.108665 40.467188 
L 54.108665 41.110653 
L 54.752131 42.075852 
L 55.073864 43.362784 
L 55.71733 44.971449 
L 56.360795 46.258381 
L 56.682528 47.22358 
L 56.682528 47.22358 
L 56.682528 47.22358 
" style="fill:none;stroke:#8c8c8c;stroke-linecap:square;"/>
   </g>
   <g id="line2d_17">
    <path clip-path="url(#p95890655b1)" d="M 56.360795 39.823722 
L 56.360795 39.501989 
L 56.360795 39.501989 
L 56.682528 39.823722 
L 57.647727 40.467188 
L 58.612926 41.110653 
L 59.256392 41.432386 
L 59.899858 41.754119 
L 60.221591 41.754119 
L 60.543324 41.432386 
L 60.221591 40.78892 
L 59.899858 39.823722 
L 59.256392 38.858523 
L 58.934659 37.893324 
" style="fill:none;stroke:#8c8c8c;stroke-linecap:square;"/>
   </g>
   <g id="line2d_18">
    <path clip-path="url(#p95890655b1)" d="M 61.830256 38.53679 
L 62.151989 38.53679 
L 62.473722 38.858523 
L 63.117188 38.53679 
L 63.760653 38.215057 
L 63.760653 37.571591 
L 63.760653 36.928125 
L 63.760653 36.606392 
L 63.117188 36.606392 
L 62.795455 36.928125 
L 62.473722 37.893324 
L 62.473722 38.53679 
L 62.795455 39.823722 
L 63.760653 40.78892 
L 64.725852 41.432386 
L 65.691051 41.432386 
L 66.012784 41.432386 
" style="fill:none;stroke:#8c8c8c;stroke-linecap:square;"/>
   </g>
   <g id="line2d_19">
    <path clip-path="url(#p95890655b1)" d="M 66.65625 38.215057 
L 66.65625 37.893324 
L 66.977983 37.893324 
L 66.977983 38.215057 
L 67.299716 38.53679 
L 67.621449 39.180256 
L 67.943182 39.501989 
L 67.943182 39.823722 
L 68.264915 39.501989 
L 68.264915 39.180256 
L 68.264915 38.215057 
L 68.586648 37.893324 
L 68.908381 37.249858 
L 68.908381 36.928125 
L 69.230114 36.928125 
L 69.551847 37.249858 
L 70.195312 37.893324 
L 70.517045 38.53679 
L 71.160511 39.180256 
L 71.482244 39.180256 
" style="fill:none;stroke:#8c8c8c;stroke-linecap:square;"/>
   </g>
   <g id="line2d_20">
    <path clip-path="url(#p95890655b1)" d="M 74.377841 34.354261 
L 74.377841 34.354261 
L 74.056108 34.354261 
L 73.734375 34.675994 
L 73.412642 35.31946 
L 73.412642 35.641193 
L 74.056108 36.606392 
L 74.699574 37.571591 
L 75.34304 37.893324 
L 76.308239 37.571591 
" style="fill:none;stroke:#8c8c8c;stroke-linecap:square;"/>
   </g>
   <g id="line2d_21">
    <path clip-path="url(#p95890655b1)" d="M 78.560369 34.997727 
L 78.560369 34.997727 
L 78.560369 34.997727 
L 78.560369 34.997727 
L 78.882102 34.675994 
L 79.525568 34.032528 
L 79.847301 33.710795 
L 80.169034 33.06733 
L 80.169034 32.745597 
L 80.169034 32.423864 
L 79.847301 32.745597 
L 79.525568 32.745597 
L 78.882102 34.354261 
L 78.882102 35.31946 
L 79.847301 36.606392 
L 80.8125 37.571591 
L 82.742898 37.893324 
L 84.351562 37.893324 
" style="fill:none;stroke:#8c8c8c;stroke-linecap:square;"/>
   </g>
   <g id="line2d_22">
    <path clip-path="url(#p95890655b1)" d="M 231.705256 259.889062 
L 231.705256 259.889062 
L 231.705256 259.56733 
L 231.705256 259.56733 
L 231.705256 259.56733 
L 231.705256 259.56733 
L 231.383523 259.56733 
L 231.383523 259.56733 
L 231.06179 259.56733 
L 230.418324 259.889062 
L 229.774858 260.854261 
L 229.453125 261.175994 
L 229.131392 262.784659 
L 229.453125 264.071591 
L 230.096591 265.358523 
L 231.383523 266.323722 
L 232.348722 266.645455 
L 232.992187 266.645455 
" style="fill:none;stroke:#8c8c8c;stroke-linecap:square;"/>
   </g>
   <g id="line2d_23">
    <path clip-path="url(#p95890655b1)" d="M 236.852983 263.106392 
L 236.852983 263.428125 
L 236.852983 263.428125 
L 236.852983 263.749858 
L 237.174716 264.393324 
L 237.496449 265.358523 
L 237.496449 266.001989 
L 237.818182 266.323722 
L 237.818182 266.645455 
" style="fill:none;stroke:#8c8c8c;stroke-linecap:square;"/>
   </g>
   <g id="line2d_24">
    <path clip-path="url(#p95890655b1)" d="M 235.566051 259.56733 
L 235.566051 259.56733 
L 235.244318 259.245597 
L 235.244318 259.245597 
" style="fill:none;stroke:#8c8c8c;stroke-linecap:square;"/>
   </g>
   <g id="line2d_25">
    <path clip-path="url(#p95890655b1)" d="M 239.105114 262.784659 
L 239.105114 262.784659 
L 239.426847 263.749858 
L 239.74858 264.715057 
L 240.070312 265.358523 
L 240.392045 265.680256 
L 240.392045 265.680256 
L 240.070312 265.358523 
L 240.070312 264.393324 
L 240.070312 263.428125 
L 240.392045 263.106392 
L 240.713778 262.784659 
L 241.035511 262.784659 
L 241.678977 262.784659 
L 242.322443 263.428125 
L 243.287642 264.393324 
L 243.609375 265.03679 
L 243.931108 265.680256 
" style="fill:none;stroke:#8c8c8c;stroke-linecap:square;"/>
   </g>
   <g id="line2d_26">
    <path clip-path="url(#p95890655b1)" d="M 252.296165 259.245597 
L 252.296165 259.245597 
L 252.296165 259.245597 
L 252.296165 259.56733 
L 252.296165 260.210795 
L 252.617898 261.175994 
L 253.261364 262.784659 
L 253.583097 263.749858 
L 253.90483 265.03679 
L 253.90483 265.358523 
" style="fill:none;stroke:#8c8c8c;stroke-linecap:square;"/>
   </g>
   <g id="line2d_27">
    <path clip-path="url(#p95890655b1)" d="M 251.652699 263.749858 
L 251.652699 263.428125 
L 251.652699 263.106392 
L 251.974432 262.462926 
L 252.296165 262.141193 
L 252.939631 261.81946 
L 253.583097 261.81946 
" style="fill:none;stroke:#8c8c8c;stroke-linecap:square;"/>
   </g>
   <g id="line2d_28">
    <path clip-path="url(#p95890655b1)" d="M 256.15696 258.923864 
L 256.15696 258.923864 
L 256.15696 258.923864 
L 256.15696 259.245597 
L 256.15696 259.245597 
L 256.800426 260.854261 
L 257.122159 261.81946 
L 257.443892 263.428125 
L 257.765625 264.393324 
L 257.765625 264.715057 
L 257.765625 264.715057 
L 257.765625 264.071591 
L 258.087358 263.106392 
L 258.409091 262.462926 
L 258.730824 262.141193 
L 259.052557 261.81946 
L 259.696023 262.141193 
L 260.339489 262.462926 
L 260.982955 263.106392 
L 261.62642 263.428125 
L 261.62642 263.428125 
" style="fill:none;stroke:#8c8c8c;stroke-linecap:square;"/>
   </g>
   <g id="line2d_29">
    <path clip-path="url(#p95890655b1)" d="M 262.269886 263.428125 
L 262.269886 263.428125 
L 262.591619 263.428125 
L 262.913352 263.106392 
L 263.235085 262.462926 
L 263.556818 261.81946 
L 263.878551 260.854261 
L 263.878551 260.532528 
L 263.556818 259.889062 
L 263.235085 259.889062 
L 262.591619 260.210795 
L 262.269886 260.532528 
L 261.948153 261.497727 
L 262.269886 262.784659 
L 262.913352 263.749858 
L 264.200284 264.715057 
L 265.808949 264.715057 
L 266.774148 264.393324 
" style="fill:none;stroke:#8c8c8c;stroke-linecap:square;"/>
   </g>
   <g id="line2d_30">
    <path clip-path="url(#p95890655b1)" d="M 279.965199 262.462926 
L 279.965199 262.462926 
L 279.643466 262.462926 
L 279.643466 262.462926 
L 279.643466 262.462926 
L 279.643466 262.784659 
L 279.643466 263.428125 
L 279.965199 264.393324 
L 279.965199 264.715057 
L 279.965199 265.03679 
L 279.965199 265.358523 
L 279.965199 264.715057 
L 279.965199 263.749858 
L 280.286932 262.784659 
L 280.608665 261.81946 
L 280.930398 261.497727 
L 281.573864 261.497727 
L 282.21733 262.141193 
L 282.539062 263.106392 
L 283.182528 264.071591 
L 283.504261 265.03679 
L 283.504261 265.358523 
" style="fill:none;stroke:#8c8c8c;stroke-linecap:square;"/>
   </g>
   <g id="line2d_31">
    <path clip-path="url(#p95890655b1)" d="M 284.46946 264.393324 
L 284.46946 264.071591 
L 284.46946 264.071591 
L 284.791193 263.749858 
L 285.112926 263.428125 
L 285.756392 263.106392 
L 286.078125 262.462926 
L 286.399858 261.81946 
L 286.399858 261.175994 
L 286.078125 260.854261 
L 286.078125 260.532528 
L 285.434659 260.854261 
L 285.112926 261.81946 
L 284.791193 263.106392 
L 285.112926 264.393324 
L 285.756392 265.03679 
L 286.721591 265.358523 
L 287.365057 265.358523 
L 288.330256 264.715057 
" style="fill:none;stroke:#8c8c8c;stroke-linecap:square;"/>
   </g>
   <g id="line2d_32">
    <path clip-path="url(#p95890655b1)" d="M 290.260653 255.706534 
L 289.93892 255.706534 
L 289.93892 256.028267 
L 289.93892 256.35 
L 290.260653 257.958665 
L 290.904119 259.245597 
L 291.547585 261.175994 
L 292.191051 262.784659 
L 292.191051 263.428125 
L 292.191051 263.428125 
L 292.191051 263.428125 
L 292.191051 263.106392 
L 292.512784 262.784659 
L 292.834517 261.81946 
L 293.15625 261.497727 
L 293.799716 261.175994 
L 294.764915 261.175994 
L 295.730114 261.81946 
L 296.695312 262.784659 
L 297.017045 263.749858 
L 296.37358 264.393324 
L 295.730114 264.715057 
L 294.121449 264.715057 
L 292.834517 264.393324 
L 292.191051 264.071591 
" style="fill:none;stroke:#8c8c8c;stroke-linecap:square;"/>
   </g>
   <g id="line2d_33">
    <path clip-path="url(#p95890655b1)" d="M 298.62571 261.497727 
L 298.62571 261.497727 
L 298.62571 261.81946 
L 298.62571 262.141193 
L 298.947443 262.462926 
L 299.269176 263.428125 
L 299.912642 263.749858 
L 300.556108 263.749858 
L 301.199574 263.428125 
L 301.521307 263.106392 
L 301.521307 262.141193 
L 301.199574 261.497727 
L 300.877841 260.532528 
L 300.556108 260.210795 
" style="fill:none;stroke:#8c8c8c;stroke-linecap:square;"/>
   </g>
   <g id="line2d_34">
    <path clip-path="url(#p95890655b1)" d="M 301.521307 256.35 
L 301.521307 256.35 
L 301.521307 256.028267 
L 301.84304 256.028267 
L 301.84304 256.35 
L 302.164773 256.671733 
L 302.808239 258.280398 
L 303.451705 259.889062 
L 303.773437 261.175994 
L 304.09517 262.141193 
L 304.416903 262.784659 
" style="fill:none;stroke:#8c8c8c;stroke-linecap:square;"/>
   </g>
   <g id="line2d_35">
    <path clip-path="url(#p95890655b1)" d="M 309.242898 259.56733 
L 309.242898 259.56733 
L 309.242898 259.56733 
L 309.242898 259.56733 
L 309.242898 259.245597 
L 309.242898 259.245597 
L 308.599432 259.245597 
L 307.955966 259.56733 
L 307.634233 259.889062 
L 306.990767 260.532528 
L 307.3125 261.497727 
L 307.634233 261.81946 
L 308.599432 262.141193 
L 309.242898 261.81946 
L 309.242898 261.175994 
L 309.564631 260.210795 
L 309.564631 259.56733 
L 309.564631 259.245597 
L 309.564631 259.245597 
L 309.564631 259.245597 
L 309.564631 259.889062 
L 309.886364 260.854261 
L 310.208097 262.141193 
L 310.52983 262.784659 
L 310.52983 263.106392 
L 310.52983 262.784659 
" style="fill:none;stroke:#8c8c8c;stroke-linecap:square;"/>
   </g>
   <g id="line2d_36">
    <path clip-path="url(#p95890655b1)" d="M 311.173295 252.167472 
L 311.173295 252.167472 
L 310.851562 252.167472 
L 310.851562 251.845739 
L 310.851562 251.845739 
L 310.851562 251.524006 
L 311.173295 251.524006 
L 311.816761 251.845739 
L 313.103693 253.13267 
L 314.068892 254.419602 
L 315.355824 257.315199 
L 315.677557 258.923864 
L 315.355824 260.532528 
L 314.712358 262.141193 
L 314.068892 262.784659 
" style="fill:none;stroke:#8c8c8c;stroke-linecap:square;"/>
   </g>
   <g id="line2d_37">
    <path clip-path="url(#p95890655b1)" d="M 282.860795 29.528267 
L 282.539062 29.85 
L 282.539062 29.85 
L 282.539062 29.528267 
L 282.539062 30.171733 
L 282.539062 30.171733 
L 282.860795 30.171733 
L 282.860795 30.171733 
L 282.860795 29.528267 
L 282.539062 29.528267 
L 282.539062 29.528267 
L 282.539062 29.85 
L 282.539062 29.85 
L 282.860795 29.85 
L 282.860795 29.85 
L 282.860795 29.206534 
L 282.860795 29.206534 
L 282.539062 29.206534 
L 282.539062 29.206534 
L 282.539062 29.85 
L 283.182528 29.85 
L 283.182528 29.85 
L 283.504261 29.528267 
L 283.504261 29.528267 
L 282.860795 29.528267 
L 282.860795 29.528267 
L 282.860795 29.85 
L 282.860795 29.85 
L 283.182528 29.85 
L 283.182528 29.528267 
L 282.860795 29.528267 
L 282.860795 29.206534 
L 282.860795 29.206534 
L 282.539062 29.528267 
L 282.539062 29.528267 
L 282.539062 30.171733 
L 282.539062 30.171733 
L 282.860795 30.171733 
L 282.860795 30.171733 
L 283.182528 29.85 
L 282.860795 29.85 
L 282.860795 29.85 
L 282.860795 29.528267 
L 282.539062 29.528267 
L 282.539062 29.85 
L 282.21733 29.85 
L 282.21733 30.171733 
L 282.21733 30.171733 
L 282.539062 30.171733 
L 282.539062 30.171733 
L 282.860795 29.85 
L 282.860795 29.85 
L 282.860795 29.528267 
L 282.21733 29.528267 
L 282.21733 29.85 
L 282.539062 29.85 
L 282.860795 30.171733 
L 282.860795 30.171733 
L 283.182528 29.85 
L 283.182528 29.85 
L 283.182528 29.528267 
L 283.182528 29.528267 
L 282.539062 29.528267 
L 282.539062 29.528267 
L 282.539062 30.171733 
L 282.539062 30.171733 
L 282.860795 30.171733 
L 282.860795 30.171733 
L 282.860795 29.528267 
L 282.860795 29.528267 
L 282.539062 29.206534 
L 282.21733 29.206534 
L 282.21733 29.85 
L 282.539062 30.171733 
L 282.539062 30.171733 
L 282.860795 30.171733 
L 282.860795 29.85 
L 282.539062 29.85 
L 282.539062 29.528267 
L 281.895597 29.528267 
L 281.895597 29.528267 
" style="fill:none;stroke:#8c8c8c;stroke-linecap:square;"/>
   </g>
   <g id="line2d_38">
    <path clip-path="url(#p95890655b1)" d="M 185.053977 29.85 
L 185.053977 29.85 
L 185.053977 29.85 
L 185.053977 29.85 
L 185.053977 29.85 
L 185.053977 29.85 
L 185.37571 29.85 
L 185.37571 29.85 
L 185.37571 30.171733 
L 185.37571 30.493466 
L 186.019176 31.780398 
L 186.662642 34.032528 
L 186.984375 35.31946 
L 187.627841 36.606392 
L 187.949574 37.571591 
L 187.949574 37.893324 
L 188.271307 38.215057 
L 188.271307 38.215057 
L 188.59304 38.215057 
L 188.914773 38.215057 
L 188.914773 38.215057 
L 189.236506 37.249858 
L 189.236506 36.284659 
L 189.236506 35.31946 
L 189.236506 34.032528 
L 188.914773 32.423864 
L 188.914773 31.136932 
L 188.914773 30.493466 
L 188.914773 30.171733 
L 188.59304 29.85 
" style="fill:none;stroke:#8c8c8c;stroke-linecap:square;"/>
   </g>
   <g id="line2d_39">
    <path clip-path="url(#p95890655b1)" d="M 194.384233 34.997727 
L 194.384233 34.675994 
L 194.384233 34.675994 
L 194.384233 34.354261 
L 194.384233 34.354261 
L 194.384233 34.997727 
L 194.705966 35.31946 
L 194.705966 36.284659 
L 194.705966 36.928125 
L 194.705966 36.928125 
L 194.705966 37.249858 
L 194.705966 36.928125 
L 194.384233 35.962926 
L 193.740767 34.997727 
L 193.097301 34.032528 
L 192.775568 33.710795 
L 192.453835 33.389063 
L 192.453835 33.389063 
L 192.132102 33.710795 
L 192.132102 34.032528 
L 191.810369 34.997727 
L 191.810369 35.962926 
L 192.132102 36.606392 
L 192.132102 36.928125 
L 192.453835 36.928125 
L 193.097301 36.928125 
" style="fill:none;stroke:#8c8c8c;stroke-linecap:square;"/>
   </g>
   <g id="line2d_40">
    <path clip-path="url(#p95890655b1)" d="M 197.601562 34.997727 
L 197.601562 34.997727 
L 197.601562 34.997727 
L 197.601562 34.997727 
L 197.601562 34.997727 
L 197.601562 35.31946 
L 197.923295 35.31946 
L 198.245028 35.31946 
L 198.245028 35.31946 
L 198.888494 34.997727 
L 199.210227 34.354261 
L 199.210227 33.710795 
L 199.210227 33.06733 
L 198.888494 32.745597 
L 198.566761 32.423864 
L 198.245028 32.423864 
L 197.923295 32.745597 
L 197.923295 33.389063 
L 197.601562 34.997727 
L 197.923295 36.606392 
L 198.245028 38.53679 
L 198.245028 39.501989 
L 198.566761 40.78892 
L 198.888494 41.110653 
L 198.888494 41.432386 
L 198.888494 41.110653 
" style="fill:none;stroke:#8c8c8c;stroke-linecap:square;"/>
   </g>
   <g id="line2d_41">
    <path clip-path="url(#p95890655b1)" d="M 201.462358 32.745597 
L 201.462358 32.745597 
L 201.462358 32.745597 
L 201.140625 33.06733 
L 201.140625 33.710795 
L 201.140625 34.354261 
L 201.462358 35.31946 
L 202.105824 35.962926 
L 202.427557 36.284659 
L 203.071023 36.284659 
L 203.392756 35.962926 
L 203.714489 35.641193 
L 203.714489 34.032528 
L 203.071023 32.745597 
L 202.105824 31.780398 
L 201.784091 31.780398 
L 201.140625 31.780398 
L 200.818892 32.102131 
L 200.818892 32.102131 
" style="fill:none;stroke:#8c8c8c;stroke-linecap:square;"/>
   </g>
   <g id="line2d_42">
    <path clip-path="url(#p95890655b1)" d="M 204.679687 33.389063 
L 204.679687 33.389063 
L 205.00142 33.389063 
L 205.323153 34.032528 
L 205.644886 34.675994 
L 205.644886 34.997727 
L 205.644886 35.31946 
L 205.966619 35.641193 
L 205.966619 35.641193 
L 205.966619 35.31946 
L 205.966619 34.675994 
L 206.288352 33.710795 
L 206.610085 32.745597 
L 207.253551 31.780398 
L 207.897017 31.458665 
" style="fill:none;stroke:#8c8c8c;stroke-linecap:square;"/>
   </g>
   <g id="line2d_43">
    <path clip-path="url(#p95890655b1)" d="M 279.321733 48.188778 
L 279.321733 48.188778 
L 279.321733 48.188778 
L 279.321733 47.867045 
L 279.321733 47.867045 
L 279.321733 47.867045 
L 279.321733 47.545313 
L 279.321733 47.545313 
L 279.321733 47.545313 
L 279.321733 47.545313 
L 279.321733 47.22358 
L 279.321733 47.22358 
L 279 47.545313 
L 279 47.545313 
L 279 47.545313 
L 279 47.545313 
L 279 47.867045 
L 279 47.867045 
L 279.321733 47.867045 
L 279.643466 47.867045 
L 279.643466 47.545313 
L 279.965199 47.545313 
L 279.965199 47.22358 
L 279.965199 47.22358 
L 279.965199 47.22358 
L 279.643466 46.901847 
L 279.643466 46.901847 
L 279.643466 46.901847 
L 279.321733 47.22358 
L 279.321733 47.22358 
L 279.321733 47.545313 
L 279.321733 47.867045 
L 279.643466 47.867045 
L 279.643466 47.867045 
L 279.965199 47.867045 
L 279.965199 47.545313 
L 279.965199 47.545313 
L 279.965199 47.22358 
L 279.643466 47.22358 
L 279.643466 47.22358 
L 279.321733 47.22358 
L 279.321733 47.545313 
L 279 47.545313 
L 279 47.545313 
L 279.321733 47.867045 
L 279.321733 47.867045 
L 279.321733 47.867045 
L 279.643466 47.545313 
L 279.643466 47.22358 
L 279.321733 47.22358 
L 279.321733 47.22358 
L 279.321733 47.22358 
L 279 47.22358 
L 279 47.545313 
L 279 47.867045 
L 279 47.867045 
L 279.321733 47.867045 
L 279.321733 47.867045 
L 279.321733 47.545313 
L 279.321733 47.545313 
L 279 47.22358 
L 279 47.22358 
" style="fill:none;stroke:#8c8c8c;stroke-linecap:square;"/>
   </g>
   <g id="line2d_44">
    <path clip-path="url(#p95890655b1)" d="M 220.122869 81.970739 
L 220.122869 81.970739 
L 220.122869 81.970739 
L 220.444602 81.649006 
L 220.444602 81.649006 
L 220.444602 81.327273 
L 220.444602 81.327273 
L 220.444602 81.327273 
L 220.444602 81.00554 
L 220.444602 81.00554 
L 220.444602 81.00554 
L 220.444602 80.683807 
L 220.122869 80.683807 
L 220.122869 80.683807 
L 219.801136 80.683807 
L 219.15767 81.00554 
L 218.835937 81.327273 
L 218.192472 81.970739 
L 217.870739 81.970739 
L 217.227273 82.935937 
L 216.90554 83.901136 
L 216.90554 84.544602 
L 217.227273 85.831534 
L 217.549006 86.796733 
L 218.514205 87.440199 
L 219.801136 87.761932 
L 221.409801 87.761932 
L 222.053267 87.440199 
L 222.375 87.118466 
" style="fill:none;stroke:#8c8c8c;stroke-linecap:square;"/>
   </g>
   <g id="line2d_45">
    <path clip-path="url(#p95890655b1)" d="M 224.627131 84.222869 
L 224.627131 84.222869 
L 224.627131 84.222869 
L 224.627131 83.901136 
L 224.627131 83.901136 
L 224.305398 83.579403 
L 223.983665 83.579403 
L 223.661932 83.901136 
L 223.018466 84.544602 
L 223.018466 85.188068 
L 223.018466 86.153267 
L 223.340199 86.475 
L 223.983665 86.475 
L 224.948864 86.153267 
L 225.270597 85.509801 
L 225.59233 85.188068 
L 225.59233 84.222869 
L 225.270597 83.901136 
L 225.270597 83.579403 
L 225.270597 83.25767 
L 225.270597 83.25767 
L 225.270597 83.25767 
L 225.270597 83.901136 
L 225.59233 85.188068 
L 225.914062 85.831534 
L 226.235795 86.796733 
L 226.557528 87.118466 
L 226.557528 87.118466 
L 226.557528 86.796733 
" style="fill:none;stroke:#8c8c8c;stroke-linecap:square;"/>
   </g>
   <g id="line2d_46">
    <path clip-path="url(#p95890655b1)" d="M 229.774858 85.509801 
L 229.774858 85.509801 
L 229.774858 85.509801 
L 230.096591 85.509801 
L 230.096591 85.831534 
L 230.096591 85.831534 
L 230.096591 86.796733 
L 229.774858 87.761932 
L 229.774858 88.727131 
L 229.453125 89.370597 
L 229.131392 89.370597 
" style="fill:none;stroke:#8c8c8c;stroke-linecap:square;"/>
   </g>
   <g id="line2d_47">
    <path clip-path="url(#p95890655b1)" d="M 233.31392 81.649006 
L 232.992187 81.649006 
L 232.992187 81.649006 
L 232.992187 81.649006 
L 232.992187 81.970739 
L 233.31392 82.292472 
L 233.31392 82.935937 
L 233.635653 83.901136 
L 233.635653 84.866335 
L 233.635653 85.188068 
L 233.635653 85.188068 
L 233.635653 84.866335 
L 233.31392 84.544602 
L 232.670455 82.614205 
L 232.348722 80.683807 
L 232.348722 79.396875 
L 232.348722 78.109943 
L 232.348722 77.144744 
L 232.670455 76.501278 
L 232.992187 76.501278 
L 233.31392 76.501278 
L 233.957386 77.144744 
L 234.600852 77.78821 
L 235.566051 80.040341 
L 236.209517 81.327273 
L 236.852983 82.935937 
L 237.496449 83.901136 
L 237.496449 84.544602 
L 237.496449 84.544602 
" style="fill:none;stroke:#8c8c8c;stroke-linecap:square;"/>
   </g>
   <g id="line2d_48">
    <path clip-path="url(#p95890655b1)" d="M 233.31392 81.327273 
L 233.31392 81.327273 
L 233.31392 81.327273 
L 233.31392 81.649006 
L 234.279119 81.649006 
L 235.566051 81.649006 
L 236.209517 81.649006 
L 236.53125 81.327273 
L 236.852983 81.327273 
" style="fill:none;stroke:#8c8c8c;stroke-linecap:square;"/>
   </g>
   <g id="line2d_49">
    <path clip-path="url(#p95890655b1)" d="M 238.139915 76.179545 
L 238.139915 75.857812 
L 238.139915 75.53608 
L 238.139915 75.214347 
L 238.461648 75.214347 
L 238.783381 75.857812 
L 239.426847 77.144744 
L 239.74858 78.753409 
L 240.070312 80.362074 
L 240.392045 81.649006 
L 240.713778 82.614205 
L 240.713778 82.614205 
" style="fill:none;stroke:#8c8c8c;stroke-linecap:square;"/>
   </g>
   <g id="line2d_50">
    <path clip-path="url(#p95890655b1)" d="M 334.016335 218.063778 
L 334.016335 218.063778 
L 334.016335 218.063778 
L 334.016335 217.742045 
L 334.016335 217.742045 
L 334.016335 217.742045 
L 334.016335 217.742045 
L 334.016335 217.742045 
L 334.016335 217.742045 
L 334.016335 217.742045 
L 334.338068 217.742045 
L 334.659801 217.742045 
L 335.625 217.420312 
L 336.268466 217.09858 
L 337.233665 216.776847 
L 338.198864 216.455114 
L 339.164062 216.455114 
L 340.450994 216.133381 
L 341.416193 215.811648 
L 342.703125 215.489915 
L 344.633523 214.846449 
L 345.598722 214.524716 
L 347.529119 213.88125 
L 348.172585 213.88125 
L 348.816051 213.559517 
L 349.459517 213.559517 
L 349.78125 213.559517 
L 349.78125 213.237784 
" style="fill:none;stroke:#8c8c8c;stroke-linecap:square;"/>
   </g>
   <g id="line2d_51">
    <path clip-path="url(#p95890655b1)" d="M 335.303267 214.524716 
L 335.303267 214.524716 
L 335.625 214.524716 
L 335.625 214.524716 
L 335.625 214.202983 
L 335.625 214.202983 
L 335.625 214.524716 
L 335.625 214.846449 
L 335.303267 215.168182 
L 334.981534 216.133381 
L 334.659801 216.455114 
L 334.016335 217.420312 
L 334.016335 217.742045 
L 333.694602 218.063778 
L 333.694602 218.385511 
L 333.694602 218.707244 
L 334.016335 219.028977 
L 334.338068 219.028977 
L 334.659801 219.35071 
L 335.303267 219.672443 
L 335.625 219.994176 
L 335.946733 219.994176 
" style="fill:none;stroke:#8c8c8c;stroke-linecap:square;"/>
   </g>
   <g id="line2d_52">
    <path clip-path="url(#p95890655b1)" d="M 358.46804 207.768324 
L 358.46804 207.768324 
L 358.46804 207.768324 
L 358.46804 207.446591 
L 358.46804 207.446591 
L 358.46804 207.768324 
L 359.111506 208.41179 
L 359.754972 210.342187 
L 360.398437 211.950852 
L 361.041903 214.202983 
L 361.363636 215.168182 
L 361.685369 215.811648 
L 361.685369 215.811648 
" style="fill:none;stroke:#8c8c8c;stroke-linecap:square;"/>
   </g>
   <g id="line2d_53">
    <path clip-path="url(#p95890655b1)" d="M 362.328835 206.159659 
L 362.328835 205.837926 
L 362.328835 205.837926 
L 362.650568 205.837926 
L 362.650568 206.159659 
L 362.972301 207.446591 
L 363.615767 209.376989 
L 364.259233 211.950852 
L 364.902699 213.559517 
L 365.546165 214.524716 
L 365.867898 215.489915 
" style="fill:none;stroke:#8c8c8c;stroke-linecap:square;"/>
   </g>
   <g id="line2d_54">
    <path clip-path="url(#p95890655b1)" d="M 360.72017 211.950852 
L 360.72017 211.950852 
L 360.398437 211.950852 
L 360.398437 211.950852 
L 360.398437 211.950852 
L 361.363636 211.629119 
L 362.972301 210.985653 
L 364.580966 210.342187 
L 365.224432 210.020455 
" style="fill:none;stroke:#8c8c8c;stroke-linecap:square;"/>
   </g>
   <g id="line2d_55">
    <path clip-path="url(#p95890655b1)" d="M 367.476562 211.307386 
L 367.476562 211.307386 
L 367.15483 211.629119 
L 367.15483 211.629119 
L 367.15483 211.307386 
L 367.15483 211.307386 
L 367.476562 210.66392 
L 368.120028 210.342187 
L 368.763494 210.020455 
L 369.085227 210.342187 
L 369.40696 210.342187 
L 369.728693 210.985653 
L 369.728693 211.629119 
L 369.40696 212.916051 
L 369.085227 213.559517 
L 369.40696 214.202983 
L 369.728693 214.524716 
L 370.693892 214.524716 
L 371.337358 214.524716 
L 372.302557 213.88125 
L 372.62429 213.237784 
" style="fill:none;stroke:#8c8c8c;stroke-linecap:square;"/>
   </g>
   <g id="line2d_56">
    <path clip-path="url(#p95890655b1)" d="M 374.232955 205.837926 
L 373.911222 205.837926 
L 373.911222 205.837926 
L 373.589489 205.837926 
L 373.267756 206.159659 
L 372.946023 207.124858 
L 373.267756 208.090057 
L 373.911222 209.055256 
L 374.87642 210.020455 
L 376.163352 210.342187 
L 376.806818 210.342187 
L 377.772017 209.698722 
L 378.09375 208.41179 
L 378.09375 207.124858 
L 377.450284 206.159659 
L 376.806818 205.19446 
L 375.519886 204.872727 
L 374.232955 204.550994 
L 373.267756 204.872727 
L 372.62429 205.516193 
" style="fill:none;stroke:#8c8c8c;stroke-linecap:square;"/>
   </g>
   <g id="line2d_57">
    <path clip-path="url(#p95890655b1)" d="M 353.963778 192.968608 
L 353.963778 192.968608 
L 353.963778 192.968608 
L 353.963778 192.646875 
L 353.963778 192.646875 
L 353.963778 192.325142 
L 353.963778 192.325142 
L 353.963778 192.003409 
L 353.963778 192.003409 
L 353.963778 192.003409 
L 354.285511 192.968608 
L 355.25071 194.577273 
L 356.215909 196.185937 
L 356.859375 197.794602 
L 357.824574 198.759801 
L 358.146307 198.438068 
L 358.46804 197.794602 
L 358.146307 195.864205 
L 357.502841 193.612074 
L 356.859375 191.681676 
L 356.215909 190.716477 
L 356.215909 190.073011 
L 356.215909 189.751278 
L 355.894176 189.751278 
" style="fill:none;stroke:#8c8c8c;stroke-linecap:square;"/>
   </g>
   <g id="line2d_58">
    <path clip-path="url(#p95890655b1)" d="M 360.72017 193.290341 
L 360.72017 193.290341 
L 360.72017 193.290341 
L 360.72017 193.612074 
L 360.72017 194.25554 
L 361.041903 195.220739 
L 361.363636 196.185937 
L 361.685369 197.151136 
L 362.650568 197.472869 
L 362.972301 197.472869 
L 363.294034 196.50767 
L 363.294034 195.542472 
L 362.328835 194.25554 
L 362.007102 193.933807 
L 361.363636 193.933807 
L 361.041903 193.612074 
L 360.72017 193.612074 
" style="fill:none;stroke:#8c8c8c;stroke-linecap:square;"/>
   </g>
   <g id="line2d_59">
    <path clip-path="url(#p95890655b1)" d="M 363.294034 189.107812 
L 363.294034 189.107812 
L 363.294034 189.107812 
L 363.294034 189.107812 
L 363.615767 189.751278 
L 364.259233 191.03821 
L 364.902699 192.968608 
L 365.867898 194.577273 
L 366.189631 195.864205 
L 366.833097 196.829403 
L 366.833097 197.472869 
L 367.15483 197.794602 
" style="fill:none;stroke:#8c8c8c;stroke-linecap:square;"/>
   </g>
   <g id="line2d_60">
    <path clip-path="url(#p95890655b1)" d="M 369.728693 193.612074 
L 369.728693 193.612074 
L 369.728693 193.290341 
L 369.40696 192.968608 
L 369.40696 192.968608 
L 368.763494 192.968608 
L 368.120028 192.968608 
L 367.476562 193.290341 
L 367.476562 194.25554 
L 367.476562 194.577273 
L 368.120028 195.220739 
L 368.763494 195.542472 
L 369.40696 195.220739 
L 370.050426 194.899006 
L 370.372159 194.25554 
L 370.372159 193.612074 
L 370.372159 192.968608 
L 370.372159 192.646875 
L 370.372159 192.325142 
L 370.372159 192.325142 
L 370.372159 192.325142 
L 370.693892 192.968608 
L 371.015625 193.933807 
L 371.337358 194.899006 
L 371.659091 195.864205 
L 371.980824 196.50767 
L 371.980824 196.50767 
" style="fill:none;stroke:#8c8c8c;stroke-linecap:square;"/>
   </g>
   <g id="line2d_61">
    <path clip-path="url(#p95890655b1)" d="M 372.946023 189.429545 
L 372.946023 189.429545 
L 372.946023 189.429545 
L 372.946023 189.429545 
L 372.946023 189.751278 
L 373.267756 190.394744 
L 373.911222 191.681676 
L 374.554687 192.968608 
L 375.198153 194.25554 
L 375.519886 194.577273 
L 375.841619 194.899006 
" style="fill:none;stroke:#8c8c8c;stroke-linecap:square;"/>
   </g>
   <g id="line2d_62">
    <path clip-path="url(#p95890655b1)" d="M 373.589489 192.325142 
L 373.589489 192.325142 
L 373.589489 192.325142 
L 373.589489 192.325142 
L 373.911222 192.003409 
L 374.87642 192.003409 
L 375.519886 192.003409 
L 376.163352 191.681676 
L 376.485085 191.681676 
L 376.806818 191.359943 
" style="fill:none;stroke:#8c8c8c;stroke-linecap:square;"/>
   </g>
   <g id="line2d_63">
    <path clip-path="url(#p95890655b1)" d="M 377.772017 190.716477 
L 377.772017 190.716477 
L 378.09375 190.716477 
L 378.415483 191.03821 
L 379.058949 191.681676 
L 379.380682 192.646875 
L 379.702415 193.290341 
L 380.024148 193.612074 
" style="fill:none;stroke:#8c8c8c;stroke-linecap:square;"/>
   </g>
   <g id="line2d_64">
    <path clip-path="url(#p95890655b1)" d="M 379.702415 184.281818 
L 379.702415 184.281818 
L 380.024148 184.281818 
L 380.024148 184.281818 
L 380.667614 184.925284 
L 381.31108 186.212216 
L 382.276278 188.464347 
L 383.241477 190.073011 
L 383.884943 191.681676 
L 384.528409 192.646875 
L 384.850142 192.968608 
L 385.171875 192.968608 
" style="fill:none;stroke:#8c8c8c;stroke-linecap:square;"/>
   </g>
   <g id="line2d_65">
    <path clip-path="url(#p95890655b1)" d="M 385.493608 189.751278 
L 385.493608 189.429545 
L 385.493608 189.429545 
L 385.493608 189.429545 
L 385.815341 189.429545 
L 386.458807 189.107812 
L 387.102273 188.464347 
L 387.745739 187.820881 
L 387.745739 186.855682 
L 388.067472 186.533949 
L 387.745739 186.533949 
L 387.745739 186.533949 
L 387.102273 187.177415 
L 387.102273 188.464347 
L 387.424006 189.429545 
L 388.067472 190.394744 
L 389.03267 190.716477 
L 389.997869 191.03821 
L 390.963068 190.394744 
" style="fill:none;stroke:#8c8c8c;stroke-linecap:square;"/>
   </g>
   <g id="line2d_66">
    <path clip-path="url(#p95890655b1)" d="M 375.841619 184.281818 
L 375.841619 184.281818 
L 375.841619 183.960085 
L 375.841619 183.960085 
L 375.841619 183.960085 
L 375.841619 183.960085 
L 375.841619 183.960085 
" style="fill:none;stroke:#8c8c8c;stroke-linecap:square;"/>
   </g>
  </g>
 </g>
 <defs>
  <clipPath id="p95890655b1">
   <rect height="271.8" width="402.0375" x="7.2" y="7.2"/>
  </clipPath>
 </defs>
</svg>
