<?xml version="1.0" encoding="utf-8" standalone="no"?>
<!DOCTYPE svg PUBLIC "-//W3C//DTD SVG 1.1//EN"
  "http://www.w3.org/Graphics/SVG/1.1/DTD/svg11.dtd">
<!-- Created with matplotlib (https://matplotlib.org/) -->
<svg height="207.125285pt" version="1.1" viewBox="0 0 573.009836 207.125285" width="573.009836pt" xmlns="http://www.w3.org/2000/svg" xmlns:xlink="http://www.w3.org/1999/xlink">
 <metadata>
  <rdf:RDF xmlns:cc="http://creativecommons.org/ns#" xmlns:dc="http://purl.org/dc/elements/1.1/" xmlns:rdf="http://www.w3.org/1999/02/22-rdf-syntax-ns#">
   <cc:Work>
    <dc:type rdf:resource="http://purl.org/dc/dcmitype/StillImage"/>
    <dc:date>2024-11-15T16:03:36.907326</dc:date>
    <dc:format>image/svg+xml</dc:format>
    <dc:creator>
     <cc:Agent>
      <dc:title>Matplotlib v3.3.4, https://matplotlib.org/</dc:title>
     </cc:Agent>
    </dc:creator>
   </cc:Work>
  </rdf:RDF>
 </metadata>
 <defs>
  <style type="text/css">*{stroke-linecap:butt;stroke-linejoin:round;}</style>
 </defs>
 <g id="figure_1">
  <g id="patch_1">
   <path d="M -0 207.125285 
L 573.009836 207.125285 
L 573.009836 0 
L -0 0 
z
" style="fill:#ffffff;"/>
  </g>
  <g id="axes_1">
   <g id="line2d_1">
    <path clip-path="url(#pd81f1b2572)" d="M 66.831889 125.796755 
L 66.831889 125.796755 
L 66.831889 125.796755 
L 66.831889 125.796755 
L 66.831889 125.796755 
L 66.831889 125.796755 
L 66.387207 125.796755 
L 66.387207 125.796755 
L 66.387207 125.796755 
L 66.387207 125.796755 
L 66.387207 125.796755 
L 65.942525 126.241437 
L 65.942525 126.241437 
L 65.942525 126.241437 
L 65.497842 126.686119 
L 65.497842 127.130801 
L 65.497842 127.575484 
L 65.05316 127.575484 
L 65.05316 128.020166 
L 65.05316 128.464848 
L 64.608478 128.90953 
L 64.608478 129.354213 
L 64.608478 129.798895 
L 64.608478 130.243577 
L 64.608478 130.688259 
L 64.608478 131.132942 
L 64.608478 131.577624 
L 64.608478 131.577624 
L 64.608478 132.022306 
L 64.608478 132.466988 
L 64.608478 132.911671 
L 65.05316 133.356353 
L 65.05316 133.801035 
L 65.05316 133.801035 
L 65.497842 134.245717 
L 65.497842 134.245717 
L 65.942525 134.6904 
L 65.942525 134.6904 
L 66.387207 135.135082 
L 66.387207 135.135082 
L 66.831889 135.135082 
L 66.831889 135.135082 
L 67.276571 135.579764 
L 67.721254 135.579764 
L 67.721254 135.579764 
L 68.165936 135.579764 
L 68.165936 135.579764 
L 68.610618 135.579764 
L 69.0553 135.579764 
L 69.0553 135.579764 
L 69.499983 135.579764 
L 69.944665 135.579764 
L 69.944665 135.579764 
L 70.389347 135.579764 
L 70.834029 135.579764 
L 70.834029 135.579764 
L 71.278711 135.579764 
L 71.278711 135.579764 
L 71.723394 135.579764 
L 72.168076 135.135082 
L 72.168076 135.135082 
L 72.612758 134.6904 
L 72.612758 134.6904 
L 73.05744 134.245717 
L 73.05744 133.801035 
L 73.05744 133.801035 
L 73.502123 133.356353 
L 73.502123 132.911671 
L 73.502123 132.466988 
L 73.502123 132.022306 
L 73.502123 132.022306 
L 73.946805 131.132942 
L 73.946805 131.132942 
L 73.946805 130.688259 
L 73.946805 130.243577 
L 73.946805 129.798895 
L 73.946805 129.354213 
L 73.502123 128.90953 
L 73.502123 128.464848 
L 73.502123 128.464848 
L 73.502123 128.020166 
L 73.05744 127.575484 
L 73.05744 127.130801 
L 73.05744 126.686119 
L 72.612758 126.686119 
L 72.612758 126.241437 
L 72.168076 126.241437 
L 71.723394 125.796755 
L 71.278711 125.796755 
L 70.834029 125.352072 
L 70.389347 125.352072 
L 69.944665 125.352072 
L 69.499983 125.352072 
L 69.0553 125.352072 
L 68.610618 125.796755 
L 68.165936 125.796755 
L 67.721254 126.241437 
L 67.276571 126.241437 
L 66.831889 126.686119 
L 66.387207 126.241437 
" style="fill:none;stroke:#8c8c8c;stroke-linecap:square;"/>
   </g>
   <g id="line2d_2">
    <path clip-path="url(#pd81f1b2572)" d="M 71.723394 123.128661 
L 71.723394 123.128661 
L 71.723394 123.128661 
L 71.723394 123.128661 
L 71.723394 123.128661 
L 71.723394 123.128661 
L 71.723394 123.128661 
L 71.723394 123.128661 
L 71.723394 123.128661 
L 71.723394 123.573343 
L 71.723394 123.573343 
L 71.723394 123.573343 
L 71.723394 123.573343 
L 71.723394 123.573343 
L 71.723394 123.573343 
L 72.168076 123.573343 
L 72.168076 123.128661 
L 72.612758 122.683979 
L 72.612758 122.239297 
L 73.05744 121.794615 
L 73.502123 120.460568 
L 73.502123 119.571203 
L 74.391487 117.792474 
L 74.391487 116.90311 
L 74.836169 115.569063 
L 75.280852 114.235016 
L 75.725534 112.90097 
L 76.614898 111.122241 
L 76.614898 110.232876 
L 77.059581 109.343512 
L 77.504263 108.009465 
L 77.948945 107.564783 
L 77.948945 107.1201 
L 77.948945 107.1201 
" style="fill:none;stroke:#8c8c8c;stroke-linecap:square;"/>
   </g>
   <g id="line2d_3">
    <path clip-path="url(#pd81f1b2572)" d="M 69.499983 120.90525 
L 69.499983 120.90525 
L 69.499983 120.90525 
L 69.499983 120.460568 
L 69.499983 120.460568 
L 69.944665 120.90525 
L 69.944665 120.90525 
L 69.944665 121.349932 
L 70.389347 121.794615 
L 70.389347 123.128661 
L 70.834029 124.462708 
L 70.834029 124.90739 
L 71.278711 125.352072 
L 71.723394 125.796755 
L 72.612758 125.352072 
L 73.502123 124.462708 
L 74.391487 124.018026 
" style="fill:none;stroke:#8c8c8c;stroke-linecap:square;"/>
   </g>
   <g id="line2d_4">
    <path clip-path="url(#pd81f1b2572)" d="M 35.25945 106.675418 
L 35.25945 106.675418 
L 35.25945 106.230736 
L 35.25945 106.230736 
L 35.25945 105.786054 
L 35.704132 105.341371 
L 35.704132 104.896689 
L 36.593496 104.007325 
L 37.482861 102.673278 
L 37.927543 100.894549 
L 39.26159 98.671138 
L 40.150954 96.892409 
L 41.040319 94.224315 
L 41.929683 92.890269 
L 42.374366 91.556222 
L 42.374366 91.11154 
L 42.374366 91.11154 
L 42.374366 91.11154 
" style="fill:none;stroke:#8c8c8c;stroke-linecap:square;"/>
   </g>
   <g id="line2d_5">
    <path clip-path="url(#pd81f1b2572)" d="M 32.591356 104.896689 
L 32.591356 104.896689 
L 32.591356 104.452007 
L 33.036038 104.452007 
L 33.036038 104.007325 
L 33.036038 103.562642 
L 33.480721 103.562642 
L 33.480721 103.11796 
L 33.480721 103.11796 
L 33.925403 103.11796 
L 33.925403 103.562642 
L 33.925403 104.007325 
L 34.370085 104.896689 
L 34.370085 106.230736 
L 34.814767 107.1201 
L 35.25945 108.009465 
L 35.25945 108.454147 
L 35.704132 108.454147 
L 36.593496 108.454147 
L 37.482861 108.009465 
L 38.372225 107.564783 
" style="fill:none;stroke:#8c8c8c;stroke-linecap:square;"/>
   </g>
   <g id="line2d_6">
    <path clip-path="url(#pd81f1b2572)" d="M 142.872553 123.128661 
L 142.872553 123.128661 
L 142.872553 123.128661 
L 142.872553 123.128661 
L 143.317235 123.128661 
L 143.317235 122.683979 
L 143.317235 122.683979 
L 143.761917 122.239297 
L 144.2066 121.349932 
L 144.651282 120.015886 
L 145.540646 118.681839 
L 146.430011 116.458428 
L 147.319375 113.790334 
L 148.20874 112.011605 
L 148.653422 111.122241 
L 148.653422 110.232876 
L 148.653422 110.232876 
L 149.098104 109.788194 
L 148.653422 109.788194 
" style="fill:none;stroke:#8c8c8c;stroke-linecap:square;"/>
   </g>
   <g id="line2d_7">
    <path clip-path="url(#pd81f1b2572)" d="M 140.649142 120.015886 
L 140.649142 119.571203 
L 140.649142 119.571203 
L 140.649142 119.571203 
L 141.093824 119.571203 
L 141.093824 119.571203 
L 141.538506 120.460568 
L 142.427871 120.90525 
L 142.872553 121.794615 
L 143.317235 123.128661 
L 143.761917 124.018026 
L 144.651282 124.018026 
L 145.540646 124.018026 
L 147.764058 123.128661 
L 148.653422 121.794615 
" style="fill:none;stroke:#8c8c8c;stroke-linecap:square;"/>
   </g>
   <g id="line2d_8">
    <path clip-path="url(#pd81f1b2572)" d="M 59.272291 128.020166 
L 59.272291 128.020166 
L 59.272291 128.020166 
L 59.272291 127.575484 
L 59.272291 127.575484 
L 59.272291 127.575484 
L 59.272291 127.575484 
L 59.272291 127.130801 
L 59.272291 126.686119 
L 59.272291 126.241437 
L 59.716973 125.352072 
L 60.161655 123.573343 
L 60.606338 121.794615 
L 61.05102 120.460568 
L 61.05102 119.571203 
L 61.495702 117.792474 
L 61.495702 117.347792 
L 61.940384 116.013745 
L 61.940384 115.569063 
L 61.940384 115.124381 
L 61.940384 115.124381 
L 61.940384 115.124381 
" style="fill:none;stroke:#8c8c8c;stroke-linecap:square;"/>
   </g>
   <g id="line2d_9">
    <path clip-path="url(#pd81f1b2572)" d="M 56.159515 124.90739 
L 56.159515 124.90739 
L 56.159515 124.90739 
L 56.159515 124.90739 
L 56.159515 124.462708 
L 56.604197 124.90739 
L 56.604197 125.352072 
L 57.04888 126.241437 
L 57.493562 127.130801 
L 57.938244 128.020166 
L 58.382926 128.464848 
L 58.827609 128.90953 
L 59.716973 128.90953 
L 60.161655 128.464848 
L 61.05102 128.020166 
L 61.940384 127.130801 
" style="fill:none;stroke:#8c8c8c;stroke-linecap:square;"/>
   </g>
   <g id="line2d_10">
    <path clip-path="url(#pd81f1b2572)" d="M 110.410749 144.473409 
L 110.410749 144.473409 
L 110.410749 144.473409 
L 110.855431 144.028727 
L 110.855431 144.028727 
L 110.855431 144.028727 
L 110.855431 143.584045 
L 111.300114 143.584045 
L 111.300114 143.139362 
L 111.744796 142.249998 
L 112.189478 141.360633 
L 112.63416 140.471269 
L 113.078843 139.137222 
L 113.523525 137.803175 
L 113.968207 136.469129 
L 114.412889 135.579764 
L 114.857571 134.245717 
L 115.302254 133.356353 
L 115.302254 132.911671 
L 115.302254 132.022306 
L 115.746936 132.022306 
L 115.746936 131.577624 
" style="fill:none;stroke:#8c8c8c;stroke-linecap:square;"/>
   </g>
   <g id="line2d_11">
    <path clip-path="url(#pd81f1b2572)" d="M 108.187338 141.805316 
L 108.187338 141.805316 
L 108.187338 141.360633 
L 108.187338 141.360633 
L 108.187338 141.360633 
L 108.187338 140.915951 
L 108.187338 140.915951 
L 108.187338 140.915951 
L 108.63202 140.471269 
L 108.63202 140.915951 
L 108.63202 140.915951 
L 108.63202 141.360633 
L 108.63202 142.249998 
L 109.076702 143.584045 
L 109.076702 144.028727 
L 109.076702 144.473409 
L 109.521385 144.918091 
L 109.966067 144.918091 
L 110.410749 144.918091 
L 110.855431 144.918091 
L 111.744796 144.473409 
L 112.63416 144.028727 
L 113.523525 143.584045 
L 113.523525 143.139362 
" style="fill:none;stroke:#8c8c8c;stroke-linecap:square;"/>
   </g>
   <g id="line2d_12">
    <path clip-path="url(#pd81f1b2572)" d="M 62.385067 168.930932 
L 62.385067 168.930932 
L 62.385067 168.930932 
L 62.385067 168.48625 
L 62.385067 168.48625 
L 62.385067 168.48625 
L 62.385067 168.48625 
L 62.385067 168.48625 
L 62.385067 168.930932 
L 62.385067 168.930932 
L 62.385067 168.930932 
L 62.385067 169.375615 
L 62.385067 169.375615 
L 62.385067 170.264979 
L 62.385067 171.154344 
L 62.385067 172.043708 
L 62.829749 174.711802 
L 62.829749 176.935213 
L 62.829749 178.713942 
L 63.274431 181.826718 
L 63.274431 184.494811 
L 63.274431 185.384176 
L 63.719113 188.052269 
L 63.719113 188.941633 
L 63.719113 189.830998 
L 63.719113 190.720362 
L 63.719113 191.165045 
L 63.719113 191.165045 
" style="fill:none;stroke:#8c8c8c;stroke-linecap:square;"/>
   </g>
   <g id="line2d_13">
    <path clip-path="url(#pd81f1b2572)" d="M 58.382926 169.820297 
L 58.382926 169.820297 
L 58.382926 169.820297 
L 58.382926 169.820297 
L 58.827609 169.820297 
L 59.272291 168.930932 
L 60.161655 167.596886 
L 60.606338 166.707521 
L 61.05102 165.818157 
L 61.495702 165.373475 
L 61.495702 165.373475 
L 61.940384 165.373475 
L 62.385067 165.373475 
L 62.385067 165.818157 
L 62.829749 166.262839 
L 63.274431 166.707521 
L 63.274431 167.596886 
L 63.719113 168.041568 
L 63.719113 168.041568 
" style="fill:none;stroke:#8c8c8c;stroke-linecap:square;"/>
   </g>
   <g id="line2d_14">
    <path clip-path="url(#pd81f1b2572)" d="M 61.495702 165.373475 
L 61.495702 165.373475 
L 61.495702 165.373475 
L 61.495702 165.373475 
L 61.495702 165.373475 
L 61.495702 164.928792 
L 61.940384 164.928792 
L 61.940384 165.373475 
L 61.940384 165.373475 
L 62.385067 165.373475 
L 62.385067 165.373475 
L 62.829749 165.818157 
L 63.274431 166.707521 
L 63.719113 167.596886 
L 64.163796 168.48625 
L 64.608478 169.375615 
L 64.608478 169.375615 
L 65.05316 169.820297 
L 65.05316 170.264979 
L 65.05316 170.709661 
L 65.05316 170.709661 
" style="fill:none;stroke:#8c8c8c;stroke-linecap:square;"/>
   </g>
   <g id="line2d_15">
    <path clip-path="url(#pd81f1b2572)" d="M 239.3686 30.190072 
L 239.3686 30.190072 
L 239.3686 30.190072 
L 239.813282 31.079437 
L 240.702647 33.302848 
L 241.147329 36.415623 
L 241.592011 38.194352 
L 242.036694 39.973081 
L 242.481376 40.862446 
L 242.481376 41.307128 
L 242.481376 41.307128 
L 242.036694 40.417764 
L 241.592011 38.639035 
L 241.147329 36.860306 
L 240.257965 34.192212 
L 239.813282 31.968801 
L 239.3686 30.634754 
L 239.813282 28.411343 
L 240.257965 27.077296 
L 240.702647 26.632614 
L 241.592011 27.077296 
L 242.481376 28.411343 
L 243.815423 30.634754 
L 244.704787 32.858166 
L 244.704787 34.192212 
L 245.149469 35.526259 
L 245.149469 35.526259 
L 245.149469 34.636895 
L 245.149469 31.968801 
L 245.149469 29.300708 
L 245.149469 27.077296 
L 245.594152 25.74325 
L 246.038834 25.298567 
L 246.928198 26.187932 
L 248.262245 27.521979 
L 249.151609 31.079437 
L 250.040974 35.081577 
L 250.930338 37.74967 
L 251.375021 39.083717 
L 251.375021 39.528399 
" style="fill:none;stroke:#8c8c8c;stroke-linecap:square;"/>
   </g>
   <g id="line2d_16">
    <path clip-path="url(#pd81f1b2572)" d="M 258.045254 34.636895 
L 258.045254 34.636895 
L 258.489937 34.192212 
L 258.489937 33.74753 
L 258.045254 33.74753 
L 257.600572 33.74753 
L 256.711208 34.636895 
L 256.266525 36.415623 
L 256.266525 37.74967 
L 257.15589 38.639035 
L 258.045254 38.639035 
L 258.934619 38.194352 
L 259.379301 36.860306 
L 259.379301 35.970941 
L 259.379301 35.526259 
L 259.379301 35.081577 
L 259.823983 35.081577 
L 260.268666 35.526259 
L 261.15803 36.415623 
L 261.602712 37.74967 
L 262.047395 39.528399 
L 262.047395 41.307128 
L 261.15803 43.530539 
L 259.823983 44.864586 
L 258.934619 45.753951 
L 258.489937 46.198633 
L 258.045254 45.753951 
" style="fill:none;stroke:#8c8c8c;stroke-linecap:square;"/>
   </g>
   <g id="line2d_17">
    <path clip-path="url(#pd81f1b2572)" d="M 267.828264 29.300708 
L 267.828264 28.856025 
L 267.383582 28.856025 
L 267.383582 28.411343 
L 266.938899 28.411343 
L 266.049535 28.856025 
L 266.049535 30.634754 
L 266.494217 32.858166 
L 267.828264 35.526259 
L 270.051675 37.304988 
L 272.275086 37.304988 
L 274.053815 36.860306 
L 275.832544 35.081577 
L 276.277226 32.858166 
L 275.832544 30.190072 
L 274.94318 28.411343 
L 272.719768 27.077296 
L 270.051675 26.187932 
L 267.828264 26.187932 
L 266.049535 26.632614 
L 265.16017 27.966661 
" style="fill:none;stroke:#8c8c8c;stroke-linecap:square;"/>
   </g>
   <g id="line2d_18">
    <path clip-path="url(#pd81f1b2572)" d="M 387.89247 27.521979 
L 387.89247 27.521979 
L 387.447788 27.966661 
L 387.447788 27.966661 
L 387.003105 27.966661 
L 387.003105 27.966661 
L 386.558423 28.856025 
L 386.113741 29.300708 
L 385.669059 31.079437 
L 385.224376 32.413483 
L 385.224376 33.74753 
L 385.669059 35.526259 
L 385.669059 35.970941 
L 387.003105 37.74967 
L 387.89247 38.639035 
L 389.226517 38.639035 
L 390.560563 38.194352 
L 391.89461 37.304988 
L 392.339292 35.970941 
L 392.783975 33.74753 
L 392.783975 32.413483 
L 392.783975 31.079437 
L 391.89461 29.300708 
L 391.005246 28.411343 
L 390.560563 28.411343 
L 389.226517 28.411343 
L 387.89247 28.411343 
L 387.447788 28.411343 
" style="fill:none;stroke:#8c8c8c;stroke-linecap:square;"/>
   </g>
   <g id="line2d_19">
    <path clip-path="url(#pd81f1b2572)" d="M 397.675479 25.298567 
L 397.675479 25.298567 
L 397.675479 26.187932 
L 398.120162 27.966661 
L 398.120162 30.190072 
L 398.564844 32.413483 
L 399.009526 34.636895 
L 399.454208 35.970941 
L 399.454208 36.860306 
" style="fill:none;stroke:#8c8c8c;stroke-linecap:square;"/>
   </g>
   <g id="line2d_20">
    <path clip-path="url(#pd81f1b2572)" d="M 403.456348 34.192212 
L 403.456348 34.192212 
L 403.456348 34.636895 
L 403.901031 35.526259 
L 404.345713 36.415623 
" style="fill:none;stroke:#8c8c8c;stroke-linecap:square;"/>
   </g>
   <g id="line2d_21">
    <path clip-path="url(#pd81f1b2572)" d="M 403.456348 29.300708 
L 403.456348 28.856025 
L 403.456348 28.411343 
L 403.456348 27.966661 
L 403.456348 27.521979 
L 403.456348 27.521979 
" style="fill:none;stroke:#8c8c8c;stroke-linecap:square;"/>
   </g>
   <g id="line2d_22">
    <path clip-path="url(#pd81f1b2572)" d="M 406.569124 32.413483 
L 406.569124 32.413483 
L 406.569124 32.413483 
L 406.569124 32.413483 
L 407.013806 33.302848 
L 407.013806 33.74753 
L 407.903171 35.526259 
L 408.792535 36.415623 
L 409.237218 36.860306 
L 409.6819 36.860306 
L 410.126582 36.860306 
L 410.571264 35.970941 
L 410.571264 34.636895 
L 410.571264 32.858166 
L 410.126582 31.968801 
L 410.126582 31.079437 
L 410.126582 30.634754 
L 409.6819 30.190072 
" style="fill:none;stroke:#8c8c8c;stroke-linecap:square;"/>
   </g>
   <g id="line2d_23">
    <path clip-path="url(#pd81f1b2572)" d="M 414.128722 31.968801 
L 414.128722 32.413483 
L 414.128722 32.858166 
L 414.573405 33.74753 
L 415.018087 35.081577 
L 415.462769 35.526259 
L 415.462769 35.970941 
" style="fill:none;stroke:#8c8c8c;stroke-linecap:square;"/>
   </g>
   <g id="line2d_24">
    <path clip-path="url(#pd81f1b2572)" d="M 413.68404 27.966661 
L 413.68404 27.077296 
L 413.68404 26.187932 
L 413.68404 25.298567 
L 413.68404 24.853885 
L 413.68404 24.409203 
" style="fill:none;stroke:#8c8c8c;stroke-linecap:square;"/>
   </g>
   <g id="line2d_25">
    <path clip-path="url(#pd81f1b2572)" d="M 419.464909 29.74539 
L 419.464909 29.74539 
L 419.909592 30.190072 
L 419.909592 31.079437 
L 420.354274 31.968801 
L 420.354274 32.858166 
L 420.798956 34.192212 
L 420.798956 35.081577 
L 421.243638 35.081577 
L 421.243638 34.636895 
L 421.68832 33.302848 
L 422.133003 31.968801 
L 422.577685 30.634754 
L 422.577685 30.190072 
L 423.022367 30.190072 
L 423.467049 30.634754 
L 423.911732 31.524119 
L 425.245778 33.302848 
L 425.690461 34.636895 
L 426.579825 35.970941 
L 427.024507 35.970941 
" style="fill:none;stroke:#8c8c8c;stroke-linecap:square;"/>
   </g>
   <g id="line2d_26">
    <path clip-path="url(#pd81f1b2572)" d="M 427.913872 34.192212 
L 427.913872 34.192212 
L 427.913872 33.74753 
L 428.358554 33.302848 
L 429.247919 32.858166 
L 429.692601 32.413483 
L 431.026648 31.079437 
L 431.916012 29.74539 
L 431.916012 29.300708 
L 431.916012 28.856025 
L 431.47133 28.411343 
L 431.026648 28.856025 
L 430.137283 29.74539 
L 429.692601 30.634754 
L 429.247919 32.858166 
L 430.137283 34.192212 
L 431.026648 35.526259 
L 432.805377 36.415623 
L 434.139423 36.415623 
L 435.47347 35.970941 
" style="fill:none;stroke:#8c8c8c;stroke-linecap:square;"/>
   </g>
   <g id="line2d_27">
    <path clip-path="url(#pd81f1b2572)" d="M 447.035208 31.524119 
L 447.035208 31.524119 
L 447.035208 31.524119 
L 447.035208 31.524119 
L 447.035208 31.524119 
L 447.479891 31.524119 
L 448.369255 31.079437 
L 449.25862 30.634754 
L 451.037349 30.190072 
" style="fill:none;stroke:#8c8c8c;stroke-linecap:square;"/>
   </g>
   <g id="line2d_28">
    <path clip-path="url(#pd81f1b2572)" d="M 460.820358 28.411343 
L 460.820358 28.411343 
L 460.375676 27.966661 
L 460.375676 27.966661 
L 460.375676 27.966661 
L 460.820358 27.966661 
L 461.709723 29.300708 
L 462.599087 30.190072 
L 463.043769 31.524119 
L 463.043769 32.413483 
L 463.043769 32.413483 
L 463.043769 32.858166 
L 463.043769 31.968801 
L 462.599087 30.634754 
L 461.709723 27.966661 
L 461.709723 25.74325 
L 461.709723 24.409203 
L 462.154405 23.075156 
L 462.599087 22.630474 
L 463.043769 22.630474 
L 463.488452 24.409203 
L 464.377816 26.187932 
L 464.822498 28.411343 
L 465.26718 29.300708 
L 465.26718 30.190072 
L 465.26718 29.74539 
L 465.711863 28.411343 
L 465.711863 26.187932 
L 466.156545 24.409203 
L 466.601227 22.630474 
L 467.045909 21.741109 
L 467.045909 21.741109 
L 467.490592 22.185792 
L 468.379956 23.964521 
L 469.269321 26.632614 
L 470.158685 29.300708 
L 470.603367 30.634754 
L 471.04805 31.968801 
L 471.04805 32.858166 
L 471.04805 32.858166 
" style="fill:none;stroke:#8c8c8c;stroke-linecap:square;"/>
   </g>
   <g id="line2d_29">
    <path clip-path="url(#pd81f1b2572)" d="M 478.162966 28.411343 
L 478.162966 28.411343 
L 478.162966 28.856025 
L 478.162966 28.856025 
L 477.718283 28.856025 
L 477.273601 28.856025 
L 476.828919 28.856025 
L 475.494872 29.74539 
L 475.05019 31.079437 
L 475.05019 32.413483 
L 475.939554 33.302848 
L 476.828919 33.302848 
L 477.273601 32.858166 
L 478.162966 31.968801 
L 478.162966 31.079437 
L 478.607648 30.634754 
L 478.607648 30.190072 
L 478.607648 30.190072 
L 478.607648 30.190072 
L 479.05233 30.634754 
L 479.497012 31.524119 
L 480.386377 33.74753 
L 481.275741 35.526259 
L 481.275741 36.860306 
L 480.831059 38.639035 
L 479.941695 39.973081 
L 478.607648 40.417764 
L 477.273601 40.417764 
L 476.384237 39.528399 
" style="fill:none;stroke:#8c8c8c;stroke-linecap:square;"/>
   </g>
   <g id="line2d_30">
    <path clip-path="url(#pd81f1b2572)" d="M 485.722564 32.858166 
L 485.722564 32.858166 
L 485.722564 33.302848 
L 485.277882 33.302848 
L 485.277882 33.302848 
L 485.277882 33.74753 
L 485.722564 32.858166 
L 486.611928 31.079437 
L 488.390657 27.521979 
L 489.724704 23.519838 
L 490.614068 20.407063 
L 491.058751 18.183651 
L 491.503433 17.294287 
L 491.503433 16.404922 
L 491.503433 15.96024 
L 491.503433 15.96024 
L 491.503433 16.404922 
L 491.503433 16.404922 
" style="fill:none;stroke:#8c8c8c;stroke-linecap:square;"/>
   </g>
   <g id="line2d_31">
    <path clip-path="url(#pd81f1b2572)" d="M 495.950255 23.519838 
L 495.950255 23.519838 
L 495.950255 23.075156 
L 495.950255 22.630474 
L 495.950255 22.630474 
L 495.950255 23.075156 
L 496.394938 25.298567 
L 496.394938 27.521979 
L 496.83962 30.634754 
L 497.284302 32.413483 
L 497.284302 33.302848 
L 497.284302 32.858166 
L 497.284302 32.858166 
" style="fill:none;stroke:#8c8c8c;stroke-linecap:square;"/>
   </g>
   <g id="line2d_32">
    <path clip-path="url(#pd81f1b2572)" d="M 494.616209 22.185792 
L 494.616209 22.185792 
L 494.616209 22.185792 
L 494.616209 22.630474 
L 495.505573 22.630474 
L 496.83962 22.185792 
L 499.063031 21.741109 
L 500.397078 21.296427 
L 501.286442 20.851745 
L 501.731125 20.851745 
" style="fill:none;stroke:#8c8c8c;stroke-linecap:square;"/>
   </g>
   <g id="line2d_33">
    <path clip-path="url(#pd81f1b2572)" d="M 496.394938 28.856025 
L 496.394938 28.856025 
L 496.394938 29.300708 
L 496.394938 29.300708 
L 497.284302 29.74539 
L 498.618349 29.74539 
L 500.397078 29.300708 
L 501.731125 28.856025 
L 502.175807 28.411343 
" style="fill:none;stroke:#8c8c8c;stroke-linecap:square;"/>
   </g>
   <g id="line2d_34">
    <path clip-path="url(#pd81f1b2572)" d="M 506.177947 30.634754 
L 506.177947 30.634754 
L 506.177947 30.634754 
L 506.177947 30.634754 
L 506.177947 30.634754 
L 506.177947 30.634754 
L 506.622629 30.634754 
L 507.067312 30.190072 
L 507.067312 30.190072 
L 507.956676 29.300708 
L 507.956676 28.411343 
L 507.956676 28.411343 
L 507.511994 27.966661 
L 506.622629 27.966661 
L 505.733265 28.411343 
L 505.288583 29.300708 
L 505.288583 31.079437 
L 505.288583 32.413483 
L 506.177947 33.302848 
L 507.067312 33.74753 
L 508.84604 33.74753 
L 509.290723 33.74753 
" style="fill:none;stroke:#8c8c8c;stroke-linecap:square;"/>
   </g>
   <g id="line2d_35">
    <path clip-path="url(#pd81f1b2572)" d="M 388.781834 61.317829 
L 388.781834 61.317829 
L 388.781834 61.317829 
L 388.781834 61.762511 
L 388.781834 61.762511 
L 388.781834 62.207194 
L 388.781834 62.651876 
L 389.226517 63.096558 
L 389.226517 63.54124 
L 389.671199 63.54124 
L 390.560563 64.430605 
L 391.89461 64.430605 
L 392.339292 64.430605 
L 393.673339 63.985923 
L 394.118021 63.54124 
L 395.007386 62.207194 
L 395.007386 61.317829 
L 395.007386 60.428465 
L 394.118021 59.5391 
L 393.673339 59.094418 
L 393.228657 58.649736 
L 392.339292 58.649736 
L 391.449928 58.649736 
L 391.005246 58.649736 
L 390.115881 59.094418 
L 389.671199 59.983782 
L 389.226517 60.428465 
L 388.781834 62.207194 
L 389.226517 64.430605 
L 389.671199 66.654016 
L 390.560563 68.877427 
L 391.005246 70.656156 
L 391.005246 71.990203 
L 391.449928 72.879568 
L 391.449928 72.879568 
L 391.449928 72.434885 
" style="fill:none;stroke:#8c8c8c;stroke-linecap:square;"/>
   </g>
   <g id="line2d_36">
    <path clip-path="url(#pd81f1b2572)" d="M 394.562704 60.428465 
L 394.562704 60.428465 
L 394.562704 60.873147 
L 395.007386 60.873147 
L 395.89675 62.207194 
L 396.341433 62.651876 
L 397.675479 63.54124 
L 398.564844 63.985923 
L 399.454208 64.430605 
L 399.89889 63.985923 
L 400.788255 63.096558 
L 401.232937 62.207194 
L 401.232937 61.317829 
L 401.232937 59.983782 
L 401.232937 59.5391 
L 401.232937 59.094418 
L 400.788255 58.649736 
L 400.788255 59.094418 
L 401.232937 59.983782 
L 401.232937 61.317829 
L 401.677619 63.54124 
L 402.122302 65.764652 
L 402.566984 68.432745 
L 403.011666 69.32211 
L 403.456348 69.766792 
L 403.456348 69.766792 
" style="fill:none;stroke:#8c8c8c;stroke-linecap:square;"/>
   </g>
   <g id="line2d_37">
    <path clip-path="url(#pd81f1b2572)" d="M 403.901031 59.983782 
L 403.901031 59.5391 
L 403.901031 59.5391 
L 404.345713 59.983782 
L 404.790395 60.873147 
L 405.67976 62.207194 
L 406.124442 63.54124 
L 406.569124 63.985923 
L 406.569124 64.430605 
L 406.569124 64.875287 
L 406.569124 64.875287 
L 406.569124 63.985923 
L 406.569124 63.096558 
L 406.569124 61.762511 
L 407.013806 60.873147 
L 407.458489 60.428465 
L 407.458489 59.983782 
L 407.903171 59.5391 
" style="fill:none;stroke:#8c8c8c;stroke-linecap:square;"/>
   </g>
   <g id="line2d_38">
    <path clip-path="url(#pd81f1b2572)" d="M 412.349993 59.5391 
L 412.349993 59.5391 
L 412.349993 59.5391 
L 412.349993 59.5391 
L 411.905311 59.983782 
L 411.905311 59.983782 
L 411.460629 60.873147 
L 411.460629 61.762511 
L 411.905311 63.096558 
L 412.349993 64.430605 
L 413.68404 64.875287 
L 414.573405 64.875287 
L 415.462769 64.430605 
L 415.462769 63.096558 
L 415.462769 61.762511 
L 415.018087 60.873147 
L 414.573405 60.428465 
L 414.128722 59.983782 
L 414.128722 59.983782 
L 413.68404 59.983782 
" style="fill:none;stroke:#8c8c8c;stroke-linecap:square;"/>
   </g>
   <g id="line2d_39">
    <path clip-path="url(#pd81f1b2572)" d="M 420.354274 58.649736 
L 420.798956 58.649736 
L 420.798956 58.649736 
L 420.798956 58.649736 
L 420.798956 59.094418 
L 420.798956 59.983782 
L 420.354274 61.762511 
L 419.909592 63.096558 
L 419.909592 64.430605 
L 419.464909 64.875287 
L 419.464909 64.875287 
" style="fill:none;stroke:#8c8c8c;stroke-linecap:square;"/>
   </g>
   <g id="line2d_40">
    <path clip-path="url(#pd81f1b2572)" d="M 418.130863 60.428465 
L 418.130863 60.428465 
L 418.130863 59.983782 
L 418.130863 59.983782 
L 418.130863 59.5391 
L 418.575545 59.983782 
L 419.464909 60.873147 
L 420.354274 61.762511 
L 421.243638 63.096558 
L 422.133003 64.430605 
L 423.022367 66.209334 
" style="fill:none;stroke:#8c8c8c;stroke-linecap:square;"/>
   </g>
   <g id="line2d_41">
    <path clip-path="url(#pd81f1b2572)" d="M 425.690461 61.317829 
L 425.245778 61.317829 
L 425.245778 61.317829 
L 425.245778 61.317829 
L 426.135143 61.762511 
L 426.579825 61.762511 
L 427.46919 61.317829 
L 428.358554 60.873147 
L 428.358554 59.983782 
L 428.358554 59.5391 
L 427.913872 58.649736 
L 427.46919 58.649736 
L 426.579825 58.649736 
L 426.135143 59.094418 
L 425.690461 60.428465 
L 425.690461 61.762511 
L 426.135143 62.651876 
L 427.46919 64.430605 
L 428.803236 65.319969 
L 429.692601 65.319969 
L 430.581965 65.319969 
L 431.47133 64.875287 
" style="fill:none;stroke:#8c8c8c;stroke-linecap:square;"/>
   </g>
   <g id="line2d_42">
    <path clip-path="url(#pd81f1b2572)" d="M 433.250059 59.983782 
L 433.250059 59.983782 
L 432.805377 59.983782 
L 432.805377 59.983782 
L 433.250059 60.428465 
L 433.250059 61.762511 
L 433.250059 62.651876 
L 433.250059 63.096558 
L 433.694741 63.54124 
L 433.250059 63.54124 
L 433.250059 62.651876 
L 433.250059 61.317829 
L 433.250059 59.983782 
L 433.694741 59.094418 
L 434.139423 58.649736 
L 434.584106 58.649736 
L 435.028788 59.094418 
L 435.47347 60.428465 
L 436.362835 61.317829 
L 436.362835 62.207194 
L 437.252199 63.096558 
L 437.252199 63.096558 
" style="fill:none;stroke:#8c8c8c;stroke-linecap:square;"/>
   </g>
   <g id="line2d_43">
    <path clip-path="url(#pd81f1b2572)" d="M 438.141564 62.207194 
L 438.141564 62.207194 
L 438.586246 61.762511 
L 438.586246 61.762511 
L 439.030928 61.317829 
L 439.47561 61.317829 
L 439.920293 60.873147 
L 441.254339 59.5391 
L 441.699022 59.094418 
L 442.143704 58.205053 
L 442.588386 57.760371 
L 442.143704 57.315689 
L 442.143704 56.871007 
L 441.254339 57.315689 
L 440.809657 57.760371 
L 440.364975 58.649736 
L 439.920293 59.5391 
L 440.809657 61.317829 
L 441.699022 62.207194 
L 442.143704 62.651876 
L 443.922433 62.651876 
" style="fill:none;stroke:#8c8c8c;stroke-linecap:square;"/>
   </g>
   <g id="line2d_44">
    <path clip-path="url(#pd81f1b2572)" d="M 447.479891 59.5391 
L 447.479891 59.5391 
L 447.479891 59.094418 
L 447.479891 58.649736 
L 447.035208 58.205053 
L 446.590526 58.205053 
L 446.145844 58.205053 
L 445.701162 58.205053 
L 445.256479 58.649736 
L 445.256479 58.649736 
L 445.701162 59.094418 
L 446.590526 59.5391 
L 447.479891 59.5391 
L 448.369255 60.428465 
L 448.813937 61.317829 
L 449.25862 62.651876 
L 448.813937 63.985923 
L 448.369255 64.430605 
L 447.479891 64.430605 
" style="fill:none;stroke:#8c8c8c;stroke-linecap:square;"/>
   </g>
   <g id="line2d_45">
    <path clip-path="url(#pd81f1b2572)" d="M 456.373536 60.428465 
L 456.373536 60.428465 
L 455.928853 60.428465 
L 455.928853 60.428465 
L 455.928853 60.428465 
L 456.373536 60.428465 
L 457.2629 60.428465 
L 459.041629 59.983782 
L 460.375676 59.983782 
L 461.709723 59.983782 
L 462.154405 59.983782 
" style="fill:none;stroke:#8c8c8c;stroke-linecap:square;"/>
   </g>
   <g id="line2d_46">
    <path clip-path="url(#pd81f1b2572)" d="M 478.162966 55.092278 
L 478.162966 55.092278 
L 478.162966 55.092278 
L 478.162966 55.092278 
L 478.162966 54.647596 
L 478.162966 54.647596 
L 478.162966 54.647596 
L 477.718283 54.647596 
L 476.828919 55.092278 
L 475.494872 56.426325 
L 474.605508 57.315689 
L 473.716143 59.094418 
L 474.160825 60.428465 
L 474.605508 61.762511 
L 476.828919 62.651876 
L 477.718283 63.096558 
L 479.497012 62.651876 
L 480.386377 62.207194 
" style="fill:none;stroke:#8c8c8c;stroke-linecap:square;"/>
   </g>
   <g id="line2d_47">
    <path clip-path="url(#pd81f1b2572)" d="M 484.388517 59.5391 
L 484.833199 59.5391 
L 484.833199 59.5391 
L 484.833199 59.5391 
L 484.833199 59.5391 
L 484.833199 59.5391 
L 483.943835 59.983782 
L 483.499153 60.428465 
L 482.609788 60.873147 
L 482.165106 61.317829 
L 482.165106 62.207194 
L 483.05447 62.651876 
L 483.943835 62.651876 
L 484.833199 62.207194 
L 485.722564 61.317829 
L 486.167246 60.428465 
L 486.167246 59.5391 
L 486.167246 59.094418 
L 486.167246 58.649736 
L 486.167246 58.649736 
L 486.167246 58.649736 
L 486.611928 59.094418 
L 486.611928 59.983782 
L 487.05661 61.317829 
L 487.501293 61.762511 
L 487.945975 62.651876 
L 487.945975 63.096558 
L 488.390657 63.54124 
L 488.390657 63.54124 
" style="fill:none;stroke:#8c8c8c;stroke-linecap:square;"/>
   </g>
   <g id="line2d_48">
    <path clip-path="url(#pd81f1b2572)" d="M 397.230797 116.90311 
L 397.230797 116.90311 
L 397.230797 116.90311 
L 397.230797 116.458428 
L 397.230797 116.458428 
L 397.230797 116.458428 
L 397.675479 116.458428 
L 397.675479 116.458428 
L 397.675479 116.458428 
L 398.120162 116.458428 
L 398.120162 116.458428 
L 398.564844 116.013745 
L 398.564844 115.569063 
L 398.564844 115.124381 
L 398.564844 114.235016 
L 398.120162 112.90097 
L 397.675479 112.011605 
L 397.230797 110.677558 
L 396.786115 109.343512 
L 395.89675 107.564783 
L 395.452068 106.230736 
L 395.007386 104.007325 
L 394.562704 103.11796 
L 394.562704 101.783913 
L 395.007386 100.894549 
L 395.452068 100.449867 
L 396.341433 99.11582 
L 397.230797 98.671138 
L 398.564844 98.671138 
L 399.454208 99.11582 
L 400.343573 100.005185 
" style="fill:none;stroke:#8c8c8c;stroke-linecap:square;"/>
   </g>
   <g id="line2d_49">
    <path clip-path="url(#pd81f1b2572)" d="M 394.118021 109.788194 
L 394.118021 109.788194 
L 394.118021 110.232876 
L 394.118021 110.232876 
L 395.007386 110.232876 
L 395.452068 110.232876 
L 397.675479 110.232876 
L 398.564844 110.232876 
L 399.454208 109.788194 
" style="fill:none;stroke:#8c8c8c;stroke-linecap:square;"/>
   </g>
   <g id="line2d_50">
    <path clip-path="url(#pd81f1b2572)" d="M 402.122302 111.566923 
L 402.122302 112.011605 
L 402.122302 112.011605 
L 402.122302 112.011605 
L 403.011666 112.011605 
L 403.901031 111.566923 
L 404.790395 110.677558 
L 405.235077 109.788194 
L 405.67976 108.898829 
L 405.67976 108.009465 
L 405.235077 107.564783 
L 404.790395 107.564783 
L 403.901031 108.454147 
L 403.456348 109.343512 
L 403.456348 110.677558 
L 403.901031 112.011605 
L 404.790395 112.90097 
L 406.124442 113.345652 
L 407.903171 112.90097 
" style="fill:none;stroke:#8c8c8c;stroke-linecap:square;"/>
   </g>
   <g id="line2d_51">
    <path clip-path="url(#pd81f1b2572)" d="M 411.015947 104.452007 
L 411.015947 104.452007 
L 411.015947 104.007325 
L 411.015947 103.562642 
L 411.015947 103.11796 
L 411.015947 103.11796 
L 411.015947 103.562642 
L 411.460629 104.896689 
L 411.905311 106.675418 
L 412.349993 109.788194 
L 412.794676 111.566923 
L 412.794676 112.011605 
" style="fill:none;stroke:#8c8c8c;stroke-linecap:square;"/>
   </g>
   <g id="line2d_52">
    <path clip-path="url(#pd81f1b2572)" d="M 418.575545 108.009465 
L 418.575545 107.564783 
L 418.575545 107.564783 
L 418.130863 107.1201 
L 417.241498 107.564783 
L 416.796816 108.454147 
L 416.352134 109.343512 
L 416.796816 110.677558 
L 417.68618 112.011605 
L 418.575545 111.566923 
L 419.020227 111.122241 
L 419.464909 109.343512 
L 419.464909 106.675418 
L 419.020227 104.896689 
L 418.130863 102.228596 
L 418.130863 101.339231 
L 417.68618 101.339231 
L 417.68618 101.339231 
L 417.68618 101.339231 
L 418.130863 102.673278 
L 418.575545 104.896689 
L 419.464909 108.009465 
L 419.909592 109.343512 
L 421.243638 111.566923 
L 421.68832 111.566923 
" style="fill:none;stroke:#8c8c8c;stroke-linecap:square;"/>
   </g>
   <g id="line2d_53">
    <path clip-path="url(#pd81f1b2572)" d="M 425.245778 107.1201 
L 425.245778 107.1201 
L 425.245778 106.675418 
L 424.801096 106.230736 
L 424.356414 106.230736 
L 423.911732 106.675418 
L 423.467049 107.564783 
L 423.467049 108.009465 
L 423.911732 108.454147 
L 424.356414 108.898829 
L 425.690461 108.898829 
L 426.135143 109.343512 
L 427.024507 110.232876 
L 427.46919 110.677558 
L 427.46919 111.122241 
L 427.46919 111.566923 
L 427.46919 112.011605 
" style="fill:none;stroke:#8c8c8c;stroke-linecap:square;"/>
   </g>
   <g id="line2d_54">
    <path clip-path="url(#pd81f1b2572)" d="M 428.803236 110.232876 
L 428.803236 110.232876 
L 428.803236 110.232876 
L 428.803236 109.788194 
L 429.247919 110.232876 
L 429.692601 110.232876 
L 430.137283 110.232876 
L 431.026648 110.232876 
L 431.026648 109.788194 
L 431.916012 109.343512 
L 432.360694 108.454147 
L 432.360694 107.1201 
L 431.916012 106.230736 
L 431.026648 105.786054 
L 431.026648 105.786054 
L 430.581965 105.786054 
L 429.692601 106.675418 
L 429.692601 107.564783 
L 429.692601 109.343512 
L 430.137283 111.122241 
L 431.026648 112.90097 
L 431.47133 114.235016 
L 431.916012 115.569063 
L 431.916012 116.013745 
L 431.916012 116.013745 
" style="fill:none;stroke:#8c8c8c;stroke-linecap:square;"/>
   </g>
   <g id="line2d_55">
    <path clip-path="url(#pd81f1b2572)" d="M 437.252199 107.1201 
L 437.252199 107.1201 
L 437.252199 106.675418 
L 437.252199 106.230736 
L 436.807517 106.230736 
L 436.362835 106.230736 
L 435.918152 106.675418 
L 435.028788 107.564783 
L 435.028788 108.898829 
L 435.918152 109.343512 
L 436.362835 109.788194 
L 437.252199 109.343512 
L 437.696881 108.898829 
L 438.141564 108.009465 
L 438.141564 107.1201 
L 438.141564 106.675418 
L 438.141564 106.675418 
L 438.141564 107.1201 
L 438.586246 107.564783 
L 439.030928 108.898829 
L 439.47561 109.788194 
L 439.920293 110.677558 
L 440.809657 112.011605 
L 440.809657 112.011605 
L 441.254339 112.456287 
" style="fill:none;stroke:#8c8c8c;stroke-linecap:square;"/>
   </g>
   <g id="line2d_56">
    <path clip-path="url(#pd81f1b2572)" d="M 442.143704 107.564783 
L 442.143704 107.1201 
L 442.143704 107.1201 
L 442.143704 106.675418 
L 442.143704 107.1201 
L 442.588386 107.564783 
L 443.033068 108.454147 
L 443.47775 109.343512 
L 443.922433 109.788194 
L 443.922433 110.232876 
L 443.922433 110.232876 
L 443.922433 110.232876 
L 443.922433 109.788194 
L 444.367115 108.898829 
L 445.256479 107.1201 
L 445.701162 106.675418 
L 447.035208 104.452007 
" style="fill:none;stroke:#8c8c8c;stroke-linecap:square;"/>
   </g>
   <g id="line2d_57">
    <path clip-path="url(#pd81f1b2572)" d="M 458.596947 108.454147 
L 458.596947 108.454147 
L 458.152265 108.454147 
L 457.707582 108.454147 
L 457.707582 108.454147 
L 458.152265 108.454147 
L 460.375676 108.009465 
L 462.599087 107.1201 
" style="fill:none;stroke:#8c8c8c;stroke-linecap:square;"/>
   </g>
   <g id="line2d_58">
    <path clip-path="url(#pd81f1b2572)" d="M 477.718283 106.230736 
L 477.718283 106.230736 
L 477.718283 106.230736 
L 477.273601 106.230736 
L 477.273601 106.230736 
L 477.273601 107.1201 
L 476.828919 108.454147 
L 476.828919 110.677558 
L 476.828919 112.011605 
L 476.828919 112.90097 
L 476.828919 113.345652 
L 476.828919 113.790334 
L 476.384237 112.456287 
L 476.384237 110.232876 
L 475.939554 107.564783 
L 475.939554 104.896689 
L 475.939554 104.007325 
L 476.384237 103.11796 
L 476.384237 103.11796 
L 476.828919 103.11796 
L 477.718283 104.007325 
L 478.607648 106.230736 
L 479.941695 108.898829 
L 480.831059 111.122241 
L 481.720424 112.90097 
L 482.165106 113.790334 
L 482.165106 114.235016 
" style="fill:none;stroke:#8c8c8c;stroke-linecap:square;"/>
   </g>
   <g id="line2d_59">
    <path clip-path="url(#pd81f1b2572)" d="M 476.828919 109.343512 
L 476.828919 109.343512 
L 476.384237 109.343512 
L 476.384237 109.343512 
L 476.384237 109.788194 
L 478.162966 109.788194 
L 480.386377 109.788194 
L 482.165106 109.788194 
L 482.609788 109.343512 
" style="fill:none;stroke:#8c8c8c;stroke-linecap:square;"/>
   </g>
   <g id="line2d_60">
    <path clip-path="url(#pd81f1b2572)" d="M 485.722564 101.783913 
L 485.722564 101.783913 
L 485.722564 101.339231 
L 485.722564 101.783913 
L 486.167246 102.673278 
L 486.611928 104.452007 
L 487.501293 107.1201 
L 488.390657 109.788194 
L 488.835339 111.566923 
L 489.280022 112.011605 
L 489.280022 112.456287 
" style="fill:none;stroke:#8c8c8c;stroke-linecap:square;"/>
   </g>
   <g id="line2d_61">
    <path clip-path="url(#pd81f1b2572)" d="M 503.954536 101.783913 
L 503.954536 101.783913 
L 503.954536 101.339231 
L 503.954536 101.339231 
L 503.954536 101.339231 
L 503.954536 101.339231 
L 503.954536 101.339231 
L 503.954536 101.339231 
L 503.509854 101.339231 
L 503.065171 101.339231 
L 502.175807 101.783913 
L 501.286442 102.228596 
L 500.397078 103.562642 
L 499.507713 105.786054 
L 499.063031 107.1201 
L 499.507713 110.677558 
L 500.84176 112.456287 
L 501.731125 113.345652 
L 503.954536 114.679699 
L 505.288583 114.235016 
" style="fill:none;stroke:#8c8c8c;stroke-linecap:square;"/>
   </g>
   <g id="line2d_62">
    <path clip-path="url(#pd81f1b2572)" d="M 507.956676 102.673278 
L 507.956676 102.673278 
L 507.956676 102.228596 
L 507.956676 102.228596 
L 507.956676 102.228596 
L 507.956676 103.11796 
L 508.401358 104.452007 
L 508.84604 107.1201 
L 509.290723 109.788194 
L 509.290723 111.566923 
L 509.735405 112.456287 
L 509.735405 112.90097 
" style="fill:none;stroke:#8c8c8c;stroke-linecap:square;"/>
   </g>
   <g id="line2d_63">
    <path clip-path="url(#pd81f1b2572)" d="M 512.403498 108.898829 
L 512.403498 108.898829 
L 512.403498 108.898829 
L 512.403498 108.898829 
L 512.403498 109.343512 
L 512.403498 110.232876 
L 512.848181 111.566923 
L 513.737545 112.456287 
L 514.62691 112.90097 
L 515.071592 112.90097 
L 515.516274 112.011605 
L 515.516274 110.677558 
L 515.071592 109.343512 
L 514.182227 108.009465 
L 513.737545 107.564783 
L 513.292863 107.564783 
L 512.848181 108.009465 
" style="fill:none;stroke:#8c8c8c;stroke-linecap:square;"/>
   </g>
   <g id="line2d_64">
    <path clip-path="url(#pd81f1b2572)" d="M 517.295003 108.454147 
L 517.295003 108.454147 
L 517.295003 108.009465 
L 517.739685 107.564783 
L 517.739685 107.564783 
L 517.739685 108.009465 
L 517.739685 108.898829 
L 518.62905 109.788194 
L 519.073732 110.677558 
L 519.518414 110.677558 
L 519.518414 110.677558 
L 519.963097 110.232876 
L 519.963097 109.788194 
L 519.963097 109.788194 
L 520.407779 109.788194 
L 520.407779 109.788194 
L 521.297143 110.232876 
L 521.741826 110.232876 
L 522.63119 109.788194 
L 522.63119 108.898829 
L 522.63119 108.009465 
L 522.186508 106.675418 
L 522.186508 105.786054 
L 522.186508 105.786054 
L 522.186508 105.341371 
" style="fill:none;stroke:#8c8c8c;stroke-linecap:square;"/>
   </g>
   <g id="line2d_65">
    <path clip-path="url(#pd81f1b2572)" d="M 530.63547 101.339231 
L 530.63547 100.894549 
L 530.63547 100.894549 
L 530.63547 100.894549 
L 530.63547 101.783913 
L 530.63547 102.228596 
L 531.080153 105.341371 
L 531.080153 107.564783 
L 531.080153 108.898829 
L 531.080153 109.343512 
L 531.080153 109.788194 
" style="fill:none;stroke:#8c8c8c;stroke-linecap:square;"/>
   </g>
   <g id="line2d_66">
    <path clip-path="url(#pd81f1b2572)" d="M 529.301424 100.449867 
L 529.301424 100.449867 
L 529.301424 100.005185 
L 529.301424 100.005185 
L 529.301424 100.005185 
L 530.190788 100.005185 
L 530.63547 100.005185 
L 531.969517 100.449867 
L 532.414199 100.894549 
L 532.858882 101.783913 
L 532.858882 102.673278 
L 531.969517 104.007325 
L 531.524835 104.896689 
L 531.080153 105.341371 
L 531.080153 105.341371 
" style="fill:none;stroke:#8c8c8c;stroke-linecap:square;"/>
   </g>
   <g id="line2d_67">
    <path clip-path="url(#pd81f1b2572)" d="M 536.861022 96.447727 
L 536.861022 96.447727 
L 536.861022 96.447727 
L 536.861022 96.003044 
L 536.861022 96.447727 
L 537.305704 96.892409 
L 537.750386 98.226456 
L 539.084433 100.005185 
L 539.973798 102.673278 
L 540.41848 104.896689 
L 540.41848 107.1201 
L 539.529115 110.232876 
L 538.195069 112.456287 
L 537.305704 113.790334 
" style="fill:none;stroke:#8c8c8c;stroke-linecap:square;"/>
   </g>
   <g id="line2d_68">
    <path clip-path="url(#pd81f1b2572)" d="M 417.241498 124.018026 
L 416.796816 124.018026 
L 416.796816 124.462708 
L 417.241498 124.462708 
L 417.241498 124.90739 
L 418.130863 125.352072 
L 418.575545 125.796755 
L 419.020227 125.796755 
L 419.464909 125.796755 
L 419.909592 125.796755 
L 420.354274 125.352072 
L 420.798956 124.90739 
L 420.798956 124.018026 
L 420.354274 123.128661 
L 419.464909 122.239297 
L 419.020227 121.794615 
L 418.130863 121.794615 
L 417.241498 121.794615 
L 416.352134 122.239297 
L 415.907451 123.128661 
L 415.907451 124.90739 
L 416.352134 126.686119 
L 416.796816 128.020166 
L 417.241498 130.688259 
L 418.130863 132.022306 
L 418.575545 132.911671 
L 418.575545 133.801035 
L 419.020227 133.801035 
" style="fill:none;stroke:#8c8c8c;stroke-linecap:square;"/>
   </g>
   <g id="line2d_69">
    <path clip-path="url(#pd81f1b2572)" d="M 411.015947 120.90525 
L 411.015947 120.90525 
L 411.460629 120.90525 
L 411.460629 120.90525 
L 411.460629 120.90525 
L 411.460629 121.349932 
L 410.571264 121.794615 
L 409.6819 122.239297 
L 408.792535 123.128661 
L 408.792535 123.573343 
L 408.792535 124.018026 
L 409.237218 124.018026 
L 410.126582 124.462708 
L 411.015947 125.352072 
L 412.349993 126.241437 
L 412.794676 127.130801 
L 413.68404 128.020166 
L 413.68404 128.90953 
L 413.239358 129.354213 
L 413.239358 129.798895 
L 412.349993 129.354213 
L 411.905311 128.464848 
" style="fill:none;stroke:#8c8c8c;stroke-linecap:square;"/>
   </g>
   <g id="line2d_70">
    <path clip-path="url(#pd81f1b2572)" d="M 427.024507 122.683979 
L 427.024507 122.683979 
L 427.024507 123.128661 
L 427.024507 123.128661 
L 427.46919 124.462708 
L 427.46919 125.352072 
L 427.46919 125.796755 
L 427.46919 125.796755 
" style="fill:none;stroke:#8c8c8c;stroke-linecap:square;"/>
   </g>
   <g id="line2d_71">
    <path clip-path="url(#pd81f1b2572)" d="M 426.135143 119.571203 
L 426.135143 119.126521 
L 426.135143 119.126521 
L 425.690461 118.681839 
L 426.135143 118.681839 
" style="fill:none;stroke:#8c8c8c;stroke-linecap:square;"/>
   </g>
   <g id="line2d_72">
    <path clip-path="url(#pd81f1b2572)" d="M 430.137283 123.573343 
L 430.581965 123.573343 
L 430.581965 123.573343 
L 430.581965 124.018026 
L 431.026648 124.462708 
L 431.026648 124.90739 
L 431.026648 125.352072 
L 431.026648 125.796755 
L 431.026648 126.241437 
L 431.47133 125.796755 
L 431.47133 124.90739 
L 431.916012 123.573343 
L 432.360694 123.128661 
L 432.360694 122.683979 
L 432.360694 122.683979 
L 432.805377 123.128661 
L 433.250059 124.018026 
L 433.694741 124.462708 
L 434.139423 124.90739 
L 434.584106 125.352072 
" style="fill:none;stroke:#8c8c8c;stroke-linecap:square;"/>
   </g>
   <g id="line2d_73">
    <path clip-path="url(#pd81f1b2572)" d="M 436.807517 125.352072 
L 436.807517 124.90739 
L 436.807517 124.90739 
L 437.252199 124.90739 
L 437.696881 124.90739 
L 438.586246 124.462708 
L 439.47561 123.573343 
L 439.920293 123.128661 
L 439.920293 122.683979 
L 439.920293 122.239297 
L 439.920293 121.794615 
L 439.47561 121.349932 
L 439.030928 121.794615 
L 438.141564 122.239297 
L 437.696881 123.128661 
L 437.696881 124.018026 
L 438.586246 125.352072 
L 439.47561 125.796755 
L 440.809657 126.241437 
L 442.143704 125.352072 
L 442.588386 124.90739 
" style="fill:none;stroke:#8c8c8c;stroke-linecap:square;"/>
   </g>
   <g id="line2d_74">
    <path clip-path="url(#pd81f1b2572)" d="M 444.811797 118.681839 
L 444.811797 118.237157 
L 444.367115 118.237157 
L 444.367115 117.792474 
L 444.811797 118.237157 
L 445.256479 119.126521 
L 445.701162 120.90525 
L 446.145844 123.128661 
L 446.590526 125.352072 
L 447.035208 126.686119 
L 447.479891 127.575484 
L 447.479891 128.020166 
" style="fill:none;stroke:#8c8c8c;stroke-linecap:square;"/>
   </g>
   <g id="line2d_75">
    <path clip-path="url(#pd81f1b2572)" d="M 469.269321 117.347792 
L 469.269321 117.347792 
L 469.269321 117.347792 
L 468.824638 117.792474 
L 468.379956 118.237157 
L 467.935274 119.126521 
L 467.935274 121.794615 
L 468.824638 124.462708 
L 469.714003 126.686119 
L 471.492732 128.464848 
L 472.826779 128.90953 
L 473.271461 128.464848 
L 474.160825 128.020166 
" style="fill:none;stroke:#8c8c8c;stroke-linecap:square;"/>
   </g>
   <g id="line2d_76">
    <path clip-path="url(#pd81f1b2572)" d="M 477.273601 118.237157 
L 477.273601 118.237157 
L 477.273601 117.792474 
L 476.828919 117.792474 
L 476.828919 117.792474 
L 477.273601 118.681839 
L 477.718283 120.015886 
L 478.162966 121.349932 
L 478.607648 123.573343 
L 479.05233 125.352072 
L 479.497012 126.241437 
L 479.497012 126.686119 
L 479.497012 127.130801 
L 479.941695 127.575484 
L 479.941695 127.130801 
L 479.941695 126.686119 
L 480.386377 125.796755 
L 480.386377 124.90739 
L 480.386377 124.462708 
L 480.831059 124.018026 
L 480.831059 124.018026 
L 481.275741 124.018026 
L 481.720424 124.462708 
L 482.609788 125.352072 
L 483.499153 126.686119 
L 483.943835 128.020166 
L 484.388517 128.464848 
L 484.833199 128.90953 
L 484.833199 129.354213 
" style="fill:none;stroke:#8c8c8c;stroke-linecap:square;"/>
   </g>
   <g id="line2d_77">
    <path clip-path="url(#pd81f1b2572)" d="M 488.835339 124.018026 
L 488.835339 124.018026 
L 488.835339 124.018026 
L 488.835339 124.462708 
L 489.280022 125.352072 
L 489.280022 126.241437 
L 489.280022 127.130801 
L 489.280022 127.575484 
L 489.724704 127.575484 
" style="fill:none;stroke:#8c8c8c;stroke-linecap:square;"/>
   </g>
   <g id="line2d_78">
    <path clip-path="url(#pd81f1b2572)" d="M 488.390657 119.126521 
L 488.390657 119.126521 
L 487.945975 118.681839 
L 487.945975 118.681839 
L 487.945975 118.681839 
" style="fill:none;stroke:#8c8c8c;stroke-linecap:square;"/>
   </g>
   <g id="line2d_79">
    <path clip-path="url(#pd81f1b2572)" d="M 495.060891 123.573343 
L 495.060891 123.573343 
L 495.060891 123.128661 
L 495.060891 123.128661 
L 494.616209 123.128661 
L 494.616209 123.573343 
L 493.726844 124.018026 
L 493.726844 124.90739 
L 493.726844 125.796755 
L 494.171526 126.686119 
L 495.060891 127.130801 
L 495.505573 126.686119 
L 495.950255 126.241437 
L 496.394938 125.796755 
L 496.394938 124.90739 
L 496.394938 124.018026 
L 495.950255 123.573343 
L 495.950255 123.128661 
L 495.950255 123.128661 
L 495.950255 123.128661 
L 495.950255 123.128661 
L 496.394938 124.018026 
L 497.284302 125.796755 
L 498.173667 127.130801 
L 498.618349 128.90953 
L 499.063031 130.243577 
L 499.063031 132.022306 
L 498.173667 132.911671 
L 497.284302 132.911671 
L 495.950255 132.022306 
" style="fill:none;stroke:#8c8c8c;stroke-linecap:square;"/>
   </g>
   <g id="line2d_80">
    <path clip-path="url(#pd81f1b2572)" d="M 497.728984 118.681839 
L 497.728984 118.681839 
L 498.173667 118.681839 
L 498.618349 118.681839 
L 498.618349 119.126521 
L 499.507713 120.460568 
L 500.397078 121.794615 
L 500.84176 123.573343 
L 501.286442 124.90739 
L 501.286442 126.241437 
L 501.731125 126.241437 
L 501.731125 126.241437 
L 501.731125 126.241437 
L 501.731125 125.352072 
L 502.175807 124.90739 
L 502.620489 124.462708 
L 503.065171 124.462708 
L 503.509854 124.462708 
L 504.399218 124.90739 
L 504.8439 125.796755 
L 505.288583 127.130801 
L 505.288583 128.020166 
L 505.288583 128.464848 
" style="fill:none;stroke:#8c8c8c;stroke-linecap:square;"/>
   </g>
   <g id="line2d_81">
    <path clip-path="url(#pd81f1b2572)" d="M 513.292863 119.126521 
L 513.292863 119.126521 
L 512.848181 119.126521 
L 512.848181 119.571203 
L 513.292863 120.460568 
L 513.292863 121.794615 
L 513.737545 124.462708 
L 514.182227 126.241437 
L 514.62691 127.130801 
L 514.62691 127.130801 
" style="fill:none;stroke:#8c8c8c;stroke-linecap:square;"/>
   </g>
   <g id="line2d_82">
    <path clip-path="url(#pd81f1b2572)" d="M 512.403498 119.126521 
L 512.403498 119.126521 
L 512.403498 118.681839 
L 511.958816 118.681839 
L 512.403498 118.681839 
L 512.403498 118.237157 
L 513.292863 118.237157 
L 514.182227 118.237157 
L 515.516274 118.681839 
L 515.960956 118.681839 
L 516.405639 120.015886 
L 515.960956 120.460568 
L 515.071592 121.794615 
L 514.62691 122.239297 
L 514.62691 122.239297 
" style="fill:none;stroke:#8c8c8c;stroke-linecap:square;"/>
   </g>
   <g id="line2d_83">
    <path clip-path="url(#pd81f1b2572)" d="M 520.852461 116.458428 
L 520.407779 116.013745 
L 520.407779 116.013745 
L 520.407779 116.013745 
L 520.407779 116.013745 
L 520.407779 116.458428 
L 520.852461 116.90311 
L 522.186508 118.237157 
L 523.965237 120.015886 
L 524.854601 122.239297 
L 525.743966 124.90739 
L 525.299284 126.686119 
L 523.965237 127.575484 
" style="fill:none;stroke:#8c8c8c;stroke-linecap:square;"/>
   </g>
  </g>
 </g>
 <defs>
  <clipPath id="pd81f1b2572">
   <rect height="192.725285" width="558.609836" x="7.2" y="7.2"/>
  </clipPath>
 </defs>
</svg>
