<?xml version="1.0" encoding="utf-8" standalone="no"?>
<!DOCTYPE svg PUBLIC "-//W3C//DTD SVG 1.1//EN"
  "http://www.w3.org/Graphics/SVG/1.1/DTD/svg11.dtd">
<!-- Created with matplotlib (https://matplotlib.org/) -->
<svg height="286.2pt" version="1.1" viewBox="0 0 479.955432 286.2" width="479.955432pt" xmlns="http://www.w3.org/2000/svg" xmlns:xlink="http://www.w3.org/1999/xlink">
 <metadata>
  <rdf:RDF xmlns:cc="http://creativecommons.org/ns#" xmlns:dc="http://purl.org/dc/elements/1.1/" xmlns:rdf="http://www.w3.org/1999/02/22-rdf-syntax-ns#">
   <cc:Work>
    <dc:type rdf:resource="http://purl.org/dc/dcmitype/StillImage"/>
    <dc:date>2024-11-15T16:03:38.952954</dc:date>
    <dc:format>image/svg+xml</dc:format>
    <dc:creator>
     <cc:Agent>
      <dc:title>Matplotlib v3.3.4, https://matplotlib.org/</dc:title>
     </cc:Agent>
    </dc:creator>
   </cc:Work>
  </rdf:RDF>
 </metadata>
 <defs>
  <style type="text/css">*{stroke-linecap:butt;stroke-linejoin:round;}</style>
 </defs>
 <g id="figure_1">
  <g id="patch_1">
   <path d="M 0 286.2 
L 479.955432 286.2 
L 479.955432 0 
L 0 0 
z
" style="fill:#ffffff;"/>
  </g>
  <g id="axes_1">
   <g id="line2d_1">
    <path clip-path="url(#p52a39cfefe)" d="M 83.970762 231.033683 
L 83.696825 231.033683 
L 83.696825 231.033683 
L 83.696825 231.855493 
L 83.422889 232.677303 
L 83.422889 245.278391 
L 83.148952 246.374138 
L 83.148952 260.34491 
L 83.422889 260.892784 
L 83.422889 263.906087 
L 87.805876 263.906087 
L 88.627686 263.632151 
L 89.723433 263.632151 
L 90.545243 263.358214 
L 93.010673 263.358214 
L 93.832483 263.632151 
L 94.380357 263.632151 
L 95.202167 263.906087 
L 95.75004 263.906087 
L 96.297914 264.180024 
L 97.119724 264.180024 
L 97.393661 264.453961 
L 98.763344 264.453961 
L 98.763344 264.180024 
L 99.037281 264.180024 
L 99.037281 263.084277 
L 99.311217 262.262467 
L 99.311217 257.05767 
L 99.585154 256.23586 
L 99.585154 251.852872 
L 99.859091 250.483189 
L 99.859091 249.387442 
L 100.133028 248.565632 
L 100.133028 247.469885 
L 100.406964 246.374138 
L 100.406964 245.552328 
L 100.680901 244.730518 
L 100.680901 243.908708 
L 100.954838 242.812961 
L 100.954838 239.251784 
L 100.680901 237.8821 
L 100.680901 236.786354 
L 100.406964 236.512417 
L 100.406964 235.964543 
L 100.133028 235.690607 
L 100.133028 235.41667 
L 99.585154 234.868797 
L 99.585154 234.59486 
L 99.311217 234.320923 
L 99.311217 234.046986 
L 99.037281 234.046986 
L 99.037281 233.77305 
L 97.941534 232.677303 
L 97.667597 232.677303 
L 97.393661 232.403366 
L 97.393661 232.403366 
L 97.119724 232.403366 
L 96.845787 232.12943 
L 96.57185 232.12943 
L 96.297914 231.855493 
L 96.023977 231.855493 
L 95.476104 231.581556 
L 94.92823 231.581556 
L 94.654293 231.307619 
L 93.832483 231.307619 
L 93.28461 231.033683 
L 92.188863 231.033683 
L 91.367053 230.759746 
L 89.449496 230.759746 
L 88.353749 230.485809 
L 87.531939 230.759746 
L 85.888319 230.759746 
L 85.340445 231.033683 
L 84.518635 231.033683 
L 82.601078 231.581556 
L 82.601078 231.307619 
L 82.601078 231.307619 
" style="fill:none;stroke:#8c8c8c;stroke-linecap:square;"/>
   </g>
   <g id="line2d_2">
    <path clip-path="url(#p52a39cfefe)" d="M 114.651673 245.552328 
L 114.377736 245.552328 
L 114.377736 245.552328 
L 114.1038 245.552328 
L 114.1038 245.552328 
L 114.1038 245.278391 
L 114.377736 245.278391 
L 114.92561 245.278391 
L 116.843167 245.278391 
L 118.760724 245.278391 
L 122.595838 245.278391 
L 124.787331 245.004455 
L 126.430951 245.004455 
L 127.800635 245.004455 
L 128.348508 245.004455 
L 128.348508 245.004455 
L 128.348508 245.004455 
" style="fill:none;stroke:#8c8c8c;stroke-linecap:square;"/>
   </g>
   <g id="line2d_3">
    <path clip-path="url(#p52a39cfefe)" d="M 126.704888 240.895404 
L 126.704888 240.895404 
L 126.430951 241.169341 
L 126.704888 241.169341 
L 127.252762 241.169341 
L 128.348508 241.443278 
L 129.718192 241.443278 
L 130.540002 241.717214 
L 131.087875 241.991151 
L 131.909686 242.539024 
L 132.457559 243.086898 
L 132.731496 243.634771 
L 132.731496 244.730518 
L 132.457559 245.552328 
L 131.909686 246.100202 
L 131.087875 246.648075 
L 130.540002 246.922012 
L 129.992129 246.922012 
" style="fill:none;stroke:#8c8c8c;stroke-linecap:square;"/>
   </g>
   <g id="line2d_4">
    <path clip-path="url(#p52a39cfefe)" d="M 146.428331 232.403366 
L 146.428331 232.403366 
L 146.428331 232.677303 
L 146.428331 232.95124 
L 146.702268 233.77305 
L 146.702268 234.868797 
L 146.702268 236.786354 
L 146.976204 238.429974 
L 146.976204 241.169341 
L 146.976204 245.004455 
L 147.250141 246.922012 
L 147.250141 250.209252 
L 147.798015 253.222556 
L 147.798015 254.866176 
L 148.071951 256.509796 
L 148.071951 258.427353 
L 148.071951 259.5231 
L 147.798015 260.892784 
L 147.524078 261.714594 
L 147.250141 262.262467 
L 147.250141 262.262467 
" style="fill:none;stroke:#8c8c8c;stroke-linecap:square;"/>
   </g>
   <g id="line2d_5">
    <path clip-path="url(#p52a39cfefe)" d="M 147.250141 260.070974 
L 147.250141 260.070974 
L 147.250141 260.070974 
L 147.250141 260.070974 
L 147.250141 260.070974 
L 147.250141 260.34491 
L 147.250141 260.618847 
L 147.524078 260.892784 
L 147.524078 261.16672 
L 147.524078 261.714594 
L 147.524078 262.262467 
L 147.524078 262.536404 
L 147.524078 262.810341 
L 147.524078 263.358214 
L 147.798015 263.632151 
L 147.798015 263.906087 
L 148.071951 263.906087 
L 148.893761 264.180024 
L 149.715571 264.180024 
L 151.085255 264.180024 
L 152.454939 264.453961 
L 154.098559 264.453961 
L 155.194306 264.727898 
L 156.016116 264.727898 
L 157.111863 265.001834 
L 158.207609 265.001834 
L 159.303356 265.001834 
L 160.399103 265.275771 
L 161.220913 265.549708 
L 162.042723 265.549708 
L 162.590597 265.823644 
L 163.13847 265.823644 
L 163.412407 266.097581 
L 163.686343 266.097581 
L 163.412407 265.823644 
" style="fill:none;stroke:#8c8c8c;stroke-linecap:square;"/>
   </g>
   <g id="line2d_6">
    <path clip-path="url(#p52a39cfefe)" d="M 146.154394 231.581556 
L 146.154394 231.581556 
L 146.154394 231.307619 
L 146.428331 231.307619 
L 146.702268 231.307619 
L 147.250141 231.033683 
L 148.619825 231.033683 
L 149.989508 231.033683 
L 151.085255 231.033683 
L 152.454939 231.033683 
L 153.824622 230.759746 
L 154.920369 230.759746 
L 155.742179 230.759746 
L 156.290052 230.759746 
L 156.837926 230.759746 
L 157.385799 230.759746 
L 158.481546 230.485809 
L 159.577293 230.485809 
L 160.67304 230.211873 
L 161.220913 230.211873 
L 161.768787 230.211873 
L 162.042723 230.211873 
L 162.31666 229.937936 
L 162.864533 229.937936 
L 163.13847 229.937936 
L 163.412407 229.937936 
L 163.686343 229.937936 
L 163.96028 229.937936 
L 164.234217 229.937936 
L 164.508154 229.937936 
L 164.78209 229.937936 
L 164.78209 229.937936 
L 165.056027 229.937936 
L 165.329964 230.211873 
L 165.329964 230.211873 
L 165.6039 230.485809 
L 165.6039 230.485809 
L 165.877837 230.759746 
L 165.877837 231.033683 
L 166.151774 231.033683 
L 166.151774 231.307619 
L 166.151774 231.581556 
L 166.151774 232.12943 
L 166.425711 232.677303 
L 166.425711 233.225176 
L 166.425711 234.320923 
L 166.425711 235.41667 
L 166.425711 236.23848 
L 166.425711 237.608164 
L 166.699647 238.429974 
L 166.699647 239.525721 
L 166.699647 240.347531 
L 166.973584 241.443278 
L 166.973584 242.265088 
L 166.973584 243.086898 
L 167.247521 243.908708 
L 167.247521 244.730518 
L 167.247521 245.826265 
L 167.521457 246.648075 
L 167.521457 248.017759 
L 167.521457 249.113505 
L 167.795394 249.935315 
L 167.795394 251.031062 
L 167.795394 251.852872 
L 168.069331 252.948619 
L 168.069331 254.318303 
L 168.069331 255.140113 
L 168.069331 255.961923 
L 168.069331 257.05767 
L 168.069331 257.87948 
L 168.343267 258.427353 
L 168.343267 258.70129 
L 168.069331 259.5231 
L 168.069331 260.070974 
L 168.069331 260.34491 
L 168.069331 260.892784 
L 168.069331 261.440657 
L 168.069331 261.988531 
L 168.069331 262.536404 
L 168.069331 262.810341 
L 168.069331 263.358214 
L 168.069331 263.632151 
L 168.069331 264.180024 
L 168.069331 264.453961 
L 167.795394 265.001834 
L 167.795394 265.275771 
L 167.795394 265.549708 
L 167.795394 265.823644 
L 167.521457 265.823644 
L 167.521457 266.097581 
L 167.247521 266.097581 
L 167.247521 266.371518 
L 166.973584 266.371518 
L 166.699647 266.371518 
L 166.425711 266.371518 
L 166.151774 266.371518 
L 165.877837 266.645455 
L 165.6039 266.645455 
L 165.056027 266.371518 
L 164.78209 266.371518 
L 163.96028 266.097581 
L 163.686343 266.097581 
L 163.412407 265.823644 
" style="fill:none;stroke:#8c8c8c;stroke-linecap:square;"/>
   </g>
   <g id="line2d_7">
    <path clip-path="url(#p52a39cfefe)" d="M 148.619825 249.387442 
L 148.619825 249.387442 
L 148.345888 249.387442 
L 148.345888 249.387442 
L 148.345888 249.387442 
L 148.071951 249.387442 
L 148.071951 249.387442 
L 148.345888 249.387442 
L 148.345888 249.387442 
L 148.619825 249.387442 
L 149.167698 249.387442 
L 150.263445 249.387442 
L 151.633128 249.387442 
L 152.728875 249.387442 
L 154.372495 249.661379 
L 156.290052 249.661379 
L 157.111863 249.661379 
L 159.029419 249.935315 
L 160.125166 249.935315 
L 161.49485 249.935315 
L 162.31666 249.661379 
L 163.686343 249.661379 
L 164.234217 249.661379 
L 164.508154 249.661379 
L 164.508154 249.661379 
L 164.508154 249.935315 
" style="fill:none;stroke:#8c8c8c;stroke-linecap:square;"/>
   </g>
   <g id="line2d_8">
    <path clip-path="url(#p52a39cfefe)" d="M 164.508154 249.661379 
L 164.508154 249.661379 
L 164.508154 249.661379 
L 164.508154 249.661379 
L 164.508154 249.935315 
L 164.508154 249.935315 
L 164.78209 249.935315 
L 164.78209 249.935315 
L 165.056027 249.935315 
L 165.329964 249.935315 
L 165.6039 249.935315 
L 165.877837 249.935315 
L 166.425711 249.935315 
L 166.699647 249.935315 
L 166.973584 249.935315 
" style="fill:none;stroke:#8c8c8c;stroke-linecap:square;"/>
   </g>
   <g id="line2d_9">
    <path clip-path="url(#p52a39cfefe)" d="M 155.742179 255.961923 
L 155.742179 255.961923 
L 156.016116 255.687986 
L 156.016116 255.687986 
L 156.016116 255.41405 
L 156.016116 255.41405 
L 156.016116 255.41405 
L 155.742179 255.41405 
L 155.468242 255.41405 
L 154.920369 255.687986 
L 154.646432 256.509796 
L 154.098559 257.331607 
L 154.098559 258.70129 
L 154.372495 259.797037 
L 154.920369 260.618847 
L 155.468242 260.892784 
L 156.837926 260.618847 
L 158.207609 259.797037 
" style="fill:none;stroke:#8c8c8c;stroke-linecap:square;"/>
   </g>
   <g id="line2d_10">
    <path clip-path="url(#p52a39cfefe)" d="M 151.359192 240.347531 
L 151.359192 240.347531 
L 151.359192 240.347531 
L 151.359192 240.347531 
L 151.359192 240.621467 
L 151.633128 240.895404 
L 152.181002 241.443278 
L 152.728875 242.265088 
L 153.002812 242.539024 
L 153.276749 243.086898 
L 153.276749 243.086898 
L 153.276749 243.086898 
L 153.002812 243.086898 
L 152.728875 242.265088 
L 152.454939 240.895404 
L 152.454939 240.073594 
L 152.454939 238.703911 
L 152.728875 237.608164 
L 152.728875 237.06029 
L 153.002812 237.06029 
L 153.550685 237.334227 
L 154.098559 238.156037 
L 154.646432 238.977847 
L 154.920369 240.347531 
L 155.194306 240.895404 
L 155.194306 240.895404 
L 155.194306 241.169341 
L 155.194306 240.895404 
L 155.194306 240.073594 
L 155.194306 239.251784 
L 155.468242 238.156037 
L 156.016116 237.334227 
L 156.016116 237.06029 
L 156.563989 237.06029 
L 156.837926 237.334227 
L 157.385799 237.8821 
L 158.207609 238.977847 
L 158.755483 240.073594 
L 159.029419 240.895404 
L 159.029419 241.443278 
L 159.029419 241.717214 
" style="fill:none;stroke:#8c8c8c;stroke-linecap:square;"/>
   </g>
   <g id="line2d_11">
    <path clip-path="url(#p52a39cfefe)" d="M 86.162256 237.06029 
L 85.888319 237.06029 
L 85.888319 237.06029 
L 85.888319 237.06029 
L 85.888319 237.06029 
L 85.888319 237.06029 
L 85.888319 236.786354 
L 85.888319 237.06029 
L 85.888319 237.06029 
L 85.888319 237.608164 
L 86.162256 238.703911 
L 86.710129 240.073594 
L 86.984066 241.169341 
L 86.984066 241.717214 
L 87.258002 242.265088 
L 87.258002 242.539024 
L 87.258002 242.539024 
" style="fill:none;stroke:#8c8c8c;stroke-linecap:square;"/>
   </g>
   <g id="line2d_12">
    <path clip-path="url(#p52a39cfefe)" d="M 86.162256 236.786354 
L 86.162256 236.786354 
L 86.162256 236.512417 
L 86.162256 236.23848 
L 86.436192 235.964543 
L 86.984066 235.690607 
L 87.805876 235.41667 
L 88.079813 235.142733 
L 88.353749 235.142733 
L 88.627686 235.41667 
L 88.901623 235.690607 
L 88.627686 235.964543 
L 88.353749 236.786354 
L 87.805876 237.06029 
L 87.531939 237.608164 
L 87.531939 237.608164 
L 87.805876 237.8821 
L 88.079813 237.8821 
L 88.627686 238.156037 
L 89.449496 238.703911 
L 89.997369 238.977847 
L 90.271306 239.799657 
L 90.271306 240.347531 
L 89.723433 240.895404 
L 89.449496 241.169341 
L 88.901623 241.169341 
L 88.627686 241.169341 
L 88.627686 240.895404 
" style="fill:none;stroke:#8c8c8c;stroke-linecap:square;"/>
   </g>
   <g id="line2d_13">
    <path clip-path="url(#p52a39cfefe)" d="M 91.093116 235.964543 
L 91.093116 235.964543 
L 91.093116 235.964543 
L 91.093116 235.964543 
L 91.093116 235.690607 
L 91.093116 235.690607 
L 91.367053 235.964543 
L 91.367053 236.23848 
L 91.367053 236.512417 
L 91.64099 237.334227 
L 91.64099 238.429974 
L 91.914926 239.251784 
L 92.188863 239.799657 
L 93.010673 240.347531 
L 93.832483 240.347531 
L 94.92823 240.073594 
L 95.476104 239.799657 
L 96.023977 238.977847 
" style="fill:none;stroke:#8c8c8c;stroke-linecap:square;"/>
   </g>
   <g id="line2d_14">
    <path clip-path="url(#p52a39cfefe)" d="M 93.010673 238.429974 
L 93.010673 238.429974 
L 93.010673 238.429974 
L 93.010673 238.429974 
L 93.28461 238.429974 
L 93.832483 238.156037 
L 93.832483 237.8821 
" style="fill:none;stroke:#8c8c8c;stroke-linecap:square;"/>
   </g>
   <g id="line2d_15">
    <path clip-path="url(#p52a39cfefe)" d="M 91.914926 236.512417 
L 91.914926 236.512417 
L 91.64099 236.512417 
L 91.367053 236.23848 
L 91.367053 236.23848 
L 91.914926 235.41667 
L 93.28461 234.59486 
L 94.10642 234.046986 
L 94.654293 233.77305 
L 94.92823 233.77305 
" style="fill:none;stroke:#8c8c8c;stroke-linecap:square;"/>
   </g>
   <g id="line2d_16">
    <path clip-path="url(#p52a39cfefe)" d="M 87.258002 241.443278 
L 87.258002 241.443278 
L 87.258002 241.443278 
L 87.258002 241.443278 
L 87.258002 241.443278 
L 87.258002 241.443278 
L 87.531939 241.443278 
L 87.805876 241.443278 
L 88.627686 241.169341 
L 88.901623 240.895404 
L 89.449496 240.895404 
L 89.449496 240.621467 
" style="fill:none;stroke:#8c8c8c;stroke-linecap:square;"/>
   </g>
   <g id="line2d_17">
    <path clip-path="url(#p52a39cfefe)" d="M 28.361611 217.336847 
L 28.361611 217.336847 
L 28.361611 217.336847 
L 28.635547 217.336847 
L 28.635547 217.336847 
L 28.635547 217.336847 
L 28.909484 217.336847 
L 28.909484 217.336847 
L 29.183421 217.336847 
L 29.457357 217.336847 
L 29.731294 217.336847 
L 30.005231 217.336847 
L 30.279168 217.336847 
L 30.553104 217.336847 
L 31.100978 217.610784 
L 31.374914 217.610784 
L 31.922788 217.610784 
L 32.196724 217.610784 
L 32.470661 217.610784 
L 33.018535 217.610784 
L 33.566408 217.610784 
L 33.840345 217.610784 
L 34.388218 217.610784 
L 34.662155 217.610784 
L 35.210028 217.610784 
L 35.483965 217.610784 
L 36.031838 217.610784 
L 36.579712 217.610784 
L 36.853648 217.610784 
L 37.401522 217.610784 
L 37.949395 217.610784 
L 38.497269 217.610784 
L 39.045142 217.610784 
L 39.593016 217.610784 
L 39.866952 217.610784 
L 40.414826 217.336847 
L 40.962699 217.336847 
L 41.510572 217.336847 
L 42.058446 217.336847 
L 42.332383 217.336847 
L 42.880256 217.336847 
L 43.428129 217.336847 
L 43.976003 217.336847 
L 44.24994 217.336847 
L 44.797813 217.336847 
L 45.345686 217.336847 
L 45.619623 217.610784 
L 46.167496 217.610784 
L 46.441433 217.610784 
L 46.989307 217.610784 
L 47.263243 217.884721 
L 47.811117 217.884721 
L 48.35899 217.884721 
L 48.632927 218.158658 
L 48.906864 218.158658 
L 49.454737 218.158658 
L 49.728674 218.158658 
L 50.00261 218.158658 
L 50.550484 218.158658 
L 50.82442 218.158658 
L 51.098357 218.432594 
L 51.646231 218.432594 
L 51.920167 218.432594 
L 52.468041 218.158658 
L 52.741977 218.158658 
L 53.289851 218.158658 
L 53.837724 218.158658 
L 54.111661 218.158658 
L 54.385598 218.158658 
L 54.933471 218.158658 
L 55.481344 218.158658 
L 55.755281 218.158658 
L 56.029218 218.158658 
L 56.577091 217.884721 
L 57.124965 217.884721 
L 57.398901 217.884721 
L 57.946775 217.884721 
L 58.220712 217.884721 
L 58.768585 217.884721 
L 59.042522 217.884721 
L 59.590395 217.610784 
L 60.138268 217.610784 
L 60.412205 217.610784 
L 60.960079 217.610784 
L 61.507952 217.610784 
L 62.055825 217.610784 
L 62.603699 217.336847 
L 62.877636 217.336847 
L 63.425509 217.336847 
L 63.699446 217.336847 
L 63.973382 217.336847 
L 64.521256 217.336847 
L 64.795193 217.336847 
L 65.069129 217.336847 
L 65.343066 217.336847 
L 65.617003 217.336847 
L 65.890939 217.336847 
L 66.164876 217.336847 
L 66.438813 217.336847 
L 66.712749 217.336847 
L 66.986686 217.336847 
L 66.986686 217.062911 
L 66.712749 217.062911 
" style="fill:none;stroke:#8c8c8c;stroke-linecap:square;"/>
   </g>
   <g id="line2d_18">
    <path clip-path="url(#p52a39cfefe)" d="M 286.136051 29.416267 
L 286.136051 29.416267 
L 286.136051 29.416267 
L 286.136051 29.416267 
L 286.136051 29.416267 
L 286.136051 29.14233 
L 286.136051 29.14233 
L 286.136051 29.14233 
L 286.136051 29.14233 
L 286.136051 29.14233 
L 286.136051 28.868393 
L 286.136051 28.868393 
L 286.136051 28.868393 
L 286.136051 29.14233 
L 286.136051 29.416267 
L 286.136051 30.238077 
L 286.409988 31.607761 
L 286.683925 32.703507 
L 286.957861 34.073191 
L 287.231798 34.621064 
L 287.231798 35.168938 
L 287.505735 35.168938 
L 287.779671 35.168938 
L 288.053608 34.621064 
L 288.053608 34.347128 
L 288.327545 34.347128 
L 288.327545 34.347128 
L 288.601482 34.895001 
L 289.149355 35.442874 
L 289.697228 35.990748 
L 290.245102 36.538621 
L 290.792975 36.538621 
L 291.340849 36.264685 
L 291.888722 35.168938 
L 291.888722 33.799254 
L 291.614785 32.703507 
L 291.340849 31.333824 
L 291.066912 30.512014 
L 290.792975 30.238077 
L 290.792975 29.690204 
" style="fill:none;stroke:#8c8c8c;stroke-linecap:square;"/>
   </g>
   <g id="line2d_19">
    <path clip-path="url(#p52a39cfefe)" d="M 294.354152 28.046583 
L 294.628089 28.046583 
L 294.628089 28.046583 
L 294.628089 28.32052 
L 294.902026 28.594457 
L 294.902026 28.868393 
L 294.902026 29.690204 
L 295.175963 31.059887 
L 295.175963 32.703507 
L 295.175963 34.073191 
L 295.449899 35.442874 
L 295.723836 36.538621 
L 296.271709 36.812558 
L 296.819583 36.538621 
L 297.367456 35.990748 
L 297.641393 35.168938 
" style="fill:none;stroke:#8c8c8c;stroke-linecap:square;"/>
   </g>
   <g id="line2d_20">
    <path clip-path="url(#p52a39cfefe)" d="M 293.258406 32.429571 
L 292.984469 32.429571 
L 292.984469 32.703507 
L 292.984469 32.703507 
L 293.532342 32.703507 
L 294.354152 32.703507 
L 295.449899 32.429571 
L 296.819583 31.607761 
" style="fill:none;stroke:#8c8c8c;stroke-linecap:square;"/>
   </g>
   <g id="line2d_21">
    <path clip-path="url(#p52a39cfefe)" d="M 306.955241 26.950837 
L 306.955241 26.950837 
L 306.955241 26.950837 
L 306.681304 26.950837 
L 306.407367 26.950837 
L 306.133431 27.49871 
L 305.859494 28.32052 
L 306.133431 28.868393 
L 306.407367 29.416267 
L 306.955241 29.416267 
L 307.503114 29.14233 
L 308.050988 28.594457 
L 308.050988 27.772647 
L 307.777051 27.49871 
L 307.229178 27.224773 
L 306.407367 27.772647 
" style="fill:none;stroke:#8c8c8c;stroke-linecap:square;"/>
   </g>
   <g id="line2d_22">
    <path clip-path="url(#p52a39cfefe)" d="M 313.529722 33.525317 
L 313.529722 33.525317 
L 313.529722 33.525317 
L 313.529722 33.525317 
L 313.255785 33.525317 
L 313.255785 33.525317 
L 312.981848 34.073191 
L 312.981848 34.621064 
L 312.981848 34.895001 
L 313.529722 35.168938 
L 313.803659 35.168938 
L 314.077595 34.621064 
L 314.077595 34.073191 
L 314.077595 33.799254 
L 313.529722 33.525317 
L 312.981848 33.251381 
L 312.433975 33.525317 
L 312.433975 33.525317 
" style="fill:none;stroke:#8c8c8c;stroke-linecap:square;"/>
   </g>
   <g id="line2d_23">
    <path clip-path="url(#p52a39cfefe)" d="M 305.585557 37.086495 
L 305.585557 37.086495 
L 305.311621 37.360431 
L 305.311621 37.360431 
L 305.585557 37.086495 
L 306.407367 36.538621 
L 309.146735 33.799254 
L 311.886102 30.512014 
L 313.803659 28.046583 
L 315.721215 25.85509 
L 316.816962 24.759343 
L 317.364836 24.211469 
L 317.364836 24.211469 
L 317.364836 24.211469 
L 317.090899 24.211469 
L 316.816962 24.485406 
" style="fill:none;stroke:#8c8c8c;stroke-linecap:square;"/>
   </g>
   <g id="line2d_24">
    <path clip-path="url(#p52a39cfefe)" d="M 328.322304 30.512014 
L 328.322304 30.512014 
L 328.322304 30.512014 
L 328.596241 30.512014 
L 328.870177 31.333824 
L 329.144114 32.429571 
L 329.691988 33.525317 
L 329.965924 34.621064 
L 330.239861 34.895001 
L 330.239861 35.168938 
L 329.965924 34.895001 
L 329.691988 33.799254 
L 329.418051 32.155634 
L 329.418051 30.238077 
L 329.691988 28.868393 
L 329.691988 27.772647 
L 330.239861 27.49871 
L 330.787734 28.046583 
L 331.335608 29.416267 
L 331.609544 31.059887 
L 331.883481 32.155634 
L 331.883481 32.977444 
L 331.883481 33.251381 
L 331.883481 33.251381 
L 332.157418 32.429571 
L 332.431355 30.78595 
L 332.979228 29.416267 
L 333.801038 28.046583 
L 334.622848 27.49871 
L 335.170722 27.49871 
L 335.718595 28.046583 
L 335.992532 29.96414 
L 335.992532 31.881697 
L 336.266468 33.525317 
L 336.266468 34.347128 
L 336.540405 34.895001 
" style="fill:none;stroke:#8c8c8c;stroke-linecap:square;"/>
   </g>
   <g id="line2d_25">
    <path clip-path="url(#p52a39cfefe)" d="M 340.375519 32.703507 
L 340.375519 32.429571 
L 340.649456 32.155634 
L 340.649456 32.155634 
L 340.649456 31.881697 
L 340.101582 32.155634 
L 339.827646 32.977444 
L 339.553709 33.799254 
L 340.101582 34.347128 
L 340.649456 34.621064 
L 341.197329 34.621064 
L 341.471266 34.073191 
L 341.745203 32.703507 
L 341.471266 31.607761 
L 341.197329 31.059887 
L 340.923392 30.78595 
L 340.923392 30.78595 
L 341.197329 31.059887 
L 341.745203 32.155634 
L 342.567013 33.525317 
L 343.66276 34.895001 
L 344.210633 36.264685 
L 344.758506 37.634368 
L 344.210633 38.730115 
L 343.114886 39.277988 
L 342.019139 39.551925 
L 340.375519 39.277988 
L 339.827646 39.004052 
" style="fill:none;stroke:#8c8c8c;stroke-linecap:square;"/>
   </g>
   <g id="line2d_26">
    <path clip-path="url(#p52a39cfefe)" d="M 355.989911 31.059887 
L 355.989911 31.059887 
L 355.715975 31.059887 
L 355.715975 31.881697 
L 355.715975 32.703507 
L 355.989911 33.799254 
L 355.989911 34.073191 
L 355.989911 34.073191 
" style="fill:none;stroke:#8c8c8c;stroke-linecap:square;"/>
   </g>
   <g id="line2d_27">
    <path clip-path="url(#p52a39cfefe)" d="M 355.442038 27.224773 
L 355.442038 26.402963 
L 355.442038 26.129026 
L 355.168101 25.85509 
L 355.442038 25.85509 
L 355.442038 26.129026 
" style="fill:none;stroke:#8c8c8c;stroke-linecap:square;"/>
   </g>
   <g id="line2d_28">
    <path clip-path="url(#p52a39cfefe)" d="M 359.551088 32.703507 
L 359.551088 32.977444 
L 359.551088 33.251381 
L 359.551088 33.525317 
L 359.825025 33.799254 
L 359.825025 34.073191 
L 359.825025 34.073191 
L 360.098962 33.799254 
L 360.372899 32.977444 
L 360.920772 32.155634 
L 361.468645 31.881697 
L 362.016519 31.607761 
L 362.564392 31.881697 
L 363.112266 32.429571 
L 363.660139 33.525317 
L 363.660139 34.073191 
L 363.934076 34.347128 
" style="fill:none;stroke:#8c8c8c;stroke-linecap:square;"/>
   </g>
   <g id="line2d_29">
    <path clip-path="url(#p52a39cfefe)" d="M 374.891544 31.059887 
L 374.617607 30.78595 
L 374.617607 30.78595 
L 374.617607 30.78595 
L 374.891544 31.333824 
L 375.165481 32.703507 
L 375.713354 33.799254 
L 375.987291 34.347128 
L 375.987291 34.347128 
L 375.987291 33.799254 
L 375.713354 32.703507 
L 375.165481 29.96414 
L 375.165481 27.224773 
L 375.165481 26.402963 
L 375.439417 26.129026 
L 375.987291 26.402963 
L 376.809101 27.772647 
L 377.083038 28.868393 
L 377.356974 30.238077 
L 377.356974 31.059887 
L 377.630911 31.333824 
L 377.630911 31.333824 
L 377.630911 30.238077 
L 377.904848 28.594457 
L 378.178785 26.6769 
L 378.726658 25.581153 
L 379.548468 25.03328 
L 380.096341 24.759343 
L 380.370278 25.307216 
L 380.644215 26.950837 
L 380.918152 29.690204 
L 381.192088 31.607761 
L 381.739962 33.525317 
L 382.013898 34.073191 
L 382.287835 34.621064 
" style="fill:none;stroke:#8c8c8c;stroke-linecap:square;"/>
   </g>
   <g id="line2d_30">
    <path clip-path="url(#p52a39cfefe)" d="M 386.396886 30.78595 
L 386.396886 30.78595 
L 386.122949 30.78595 
L 385.849012 30.78595 
L 385.575076 30.78595 
L 385.027202 31.333824 
L 384.753265 31.881697 
L 384.753265 32.703507 
L 385.027202 33.251381 
L 385.575076 33.525317 
L 385.849012 33.251381 
L 386.122949 32.429571 
L 386.122949 31.607761 
L 385.849012 30.78595 
L 385.849012 30.512014 
L 385.849012 30.512014 
L 386.122949 30.78595 
L 386.670822 31.333824 
L 387.766569 32.703507 
L 388.862316 34.347128 
L 389.410189 35.990748 
L 389.684126 36.812558 
L 389.410189 37.634368 
L 387.766569 37.634368 
L 386.396886 37.086495 
L 385.027202 35.990748 
L 384.479329 35.442874 
" style="fill:none;stroke:#8c8c8c;stroke-linecap:square;"/>
   </g>
   <g id="line2d_31">
    <path clip-path="url(#p52a39cfefe)" d="M 393.245303 27.224773 
L 393.245303 27.224773 
L 393.245303 26.950837 
L 393.245303 26.6769 
L 393.245303 26.402963 
L 392.971367 26.6769 
L 392.423493 27.224773 
L 392.149557 28.594457 
L 392.69743 30.512014 
L 394.067113 32.155634 
L 395.710734 32.977444 
L 396.806481 32.703507 
L 398.176164 31.881697 
L 398.724037 30.512014 
L 398.176164 27.772647 
L 396.532544 25.03328 
L 395.16286 24.485406 
L 393.793177 24.485406 
L 392.971367 25.307216 
L 392.423493 26.129026 
" style="fill:none;stroke:#8c8c8c;stroke-linecap:square;"/>
   </g>
   <g id="line2d_32">
    <path clip-path="url(#p52a39cfefe)" d="M 401.463405 20.376356 
L 401.189468 20.376356 
L 401.189468 20.102419 
L 401.463405 19.828482 
L 402.285215 19.828482 
L 403.654898 19.554545 
L 405.024582 19.554545 
L 405.572455 19.828482 
L 405.846392 20.650292 
L 405.572455 21.198166 
L 404.750645 22.293913 
L 403.654898 23.389659 
L 403.107025 24.211469 
L 402.833088 24.485406 
L 402.833088 24.485406 
" style="fill:none;stroke:#8c8c8c;stroke-linecap:square;"/>
   </g>
   <g id="line2d_33">
    <path clip-path="url(#p52a39cfefe)" d="M 406.120329 31.881697 
L 406.120329 32.155634 
L 405.846392 32.703507 
L 405.846392 32.977444 
L 405.846392 33.251381 
L 405.846392 33.251381 
" style="fill:none;stroke:#8c8c8c;stroke-linecap:square;"/>
   </g>
   <g id="line2d_34">
    <path clip-path="url(#p52a39cfefe)" d="M 317.090899 54.07057 
L 317.090899 54.07057 
L 317.090899 54.07057 
L 317.090899 54.07057 
L 316.816962 54.07057 
L 316.816962 54.07057 
L 316.816962 54.344507 
L 316.543026 54.892381 
L 315.995152 56.536001 
L 315.447279 58.179621 
L 315.173342 59.823241 
L 314.899405 60.645051 
L 314.899405 60.645051 
L 314.899405 60.371115 
L 314.899405 59.275368 
L 315.447279 56.809938 
L 315.995152 55.166317 
L 316.543026 53.522697 
L 316.816962 52.42695 
L 317.364836 52.153014 
L 317.638772 52.700887 
L 318.186646 53.522697 
L 318.734519 55.440254 
L 319.282393 56.809938 
L 319.556329 57.905684 
L 319.830266 59.001431 
L 319.830266 59.549305 
" style="fill:none;stroke:#8c8c8c;stroke-linecap:square;"/>
   </g>
   <g id="line2d_35">
    <path clip-path="url(#p52a39cfefe)" d="M 315.721215 57.631748 
L 315.721215 57.631748 
L 315.721215 57.631748 
L 315.995152 57.357811 
L 317.090899 57.083874 
L 318.460583 56.809938 
L 319.556329 56.809938 
L 320.378139 57.083874 
" style="fill:none;stroke:#8c8c8c;stroke-linecap:square;"/>
   </g>
   <g id="line2d_36">
    <path clip-path="url(#p52a39cfefe)" d="M 322.569633 54.07057 
L 322.569633 54.07057 
L 322.569633 53.522697 
L 322.569633 53.522697 
L 322.84357 53.796634 
L 323.117507 54.618444 
L 323.391443 56.262064 
L 323.939317 57.631748 
L 324.213253 59.275368 
L 324.48719 59.823241 
" style="fill:none;stroke:#8c8c8c;stroke-linecap:square;"/>
   </g>
   <g id="line2d_37">
    <path clip-path="url(#p52a39cfefe)" d="M 322.02176 56.536001 
L 322.02176 56.536001 
L 322.02176 56.262064 
L 322.569633 56.262064 
L 323.66538 55.988127 
L 324.48719 55.714191 
L 325.035063 55.714191 
L 325.309 55.714191 
" style="fill:none;stroke:#8c8c8c;stroke-linecap:square;"/>
   </g>
   <g id="line2d_38">
    <path clip-path="url(#p52a39cfefe)" d="M 326.95262 55.714191 
L 326.95262 55.714191 
L 326.95262 55.988127 
L 326.678684 55.988127 
L 326.404747 56.809938 
L 326.404747 57.631748 
L 326.95262 58.453558 
L 327.500494 59.001431 
L 328.322304 59.001431 
L 328.870177 58.453558 
L 328.870177 57.631748 
L 328.596241 56.809938 
L 328.048367 56.262064 
L 327.226557 55.988127 
L 326.678684 56.262064 
L 326.404747 56.262064 
" style="fill:none;stroke:#8c8c8c;stroke-linecap:square;"/>
   </g>
   <g id="line2d_39">
    <path clip-path="url(#p52a39cfefe)" d="M 330.513798 56.536001 
L 330.787734 56.536001 
L 330.787734 56.536001 
L 331.061671 56.809938 
L 331.335608 57.357811 
L 331.609544 57.905684 
L 331.609544 58.453558 
L 331.609544 58.727494 
L 331.609544 59.001431 
L 331.883481 59.001431 
L 331.883481 59.001431 
L 332.157418 58.179621 
L 332.431355 57.631748 
L 332.705291 56.809938 
L 332.979228 55.714191 
L 333.253165 55.166317 
L 333.253165 55.166317 
L 333.527101 55.166317 
L 333.801038 55.988127 
L 333.801038 56.809938 
L 334.074975 57.905684 
L 334.348912 58.727494 
L 334.348912 59.001431 
L 334.348912 59.001431 
L 334.348912 58.727494 
L 334.348912 57.905684 
L 334.622848 57.083874 
L 334.896785 56.262064 
L 335.444658 55.440254 
L 335.992532 55.166317 
L 336.266468 54.892381 
L 336.540405 55.166317 
L 337.088279 55.714191 
L 337.362215 56.536001 
L 337.636152 57.631748 
L 337.636152 58.453558 
L 337.636152 58.727494 
" style="fill:none;stroke:#8c8c8c;stroke-linecap:square;"/>
   </g>
   <g id="line2d_40">
    <path clip-path="url(#p52a39cfefe)" d="M 339.827646 55.988127 
L 339.827646 55.988127 
L 340.101582 55.988127 
L 340.375519 56.536001 
L 340.649456 57.357811 
L 340.923392 58.179621 
L 341.197329 58.727494 
L 341.471266 58.727494 
" style="fill:none;stroke:#8c8c8c;stroke-linecap:square;"/>
   </g>
   <g id="line2d_41">
    <path clip-path="url(#p52a39cfefe)" d="M 340.375519 53.796634 
L 340.375519 52.700887 
L 340.375519 51.879077 
L 340.375519 51.60514 
L 340.375519 51.60514 
L 340.649456 51.60514 
" style="fill:none;stroke:#8c8c8c;stroke-linecap:square;"/>
   </g>
   <g id="line2d_42">
    <path clip-path="url(#p52a39cfefe)" d="M 344.758506 53.796634 
L 344.758506 53.796634 
L 344.48457 53.796634 
L 344.210633 54.07057 
L 343.66276 54.344507 
L 343.114886 55.166317 
L 342.840949 56.262064 
L 343.388823 57.631748 
L 344.210633 58.179621 
L 346.12819 58.179621 
L 346.95 57.905684 
" style="fill:none;stroke:#8c8c8c;stroke-linecap:square;"/>
   </g>
   <g id="line2d_43">
    <path clip-path="url(#p52a39cfefe)" d="M 355.715975 55.440254 
L 355.715975 55.440254 
L 355.989911 55.166317 
L 355.989911 55.166317 
L 355.989911 55.440254 
L 356.263848 55.714191 
L 356.537785 56.809938 
L 356.811721 57.631748 
L 356.811721 58.179621 
L 356.811721 58.453558 
L 356.811721 58.179621 
L 356.263848 57.083874 
L 355.989911 55.440254 
L 355.715975 52.700887 
L 355.715975 50.78333 
L 355.989911 49.96152 
L 356.537785 49.96152 
L 357.359595 51.057267 
L 358.181405 52.700887 
L 358.455342 53.796634 
L 358.729278 54.892381 
L 358.729278 55.988127 
L 358.729278 56.262064 
L 358.729278 56.536001 
L 358.729278 56.262064 
L 358.729278 55.166317 
L 359.003215 53.522697 
L 359.277152 52.153014 
L 359.551088 51.331203 
L 359.825025 50.78333 
L 360.372899 51.057267 
L 360.646835 51.60514 
L 361.194709 52.974824 
L 361.468645 54.892381 
L 362.016519 55.988127 
L 362.564392 57.357811 
L 362.838329 57.905684 
" style="fill:none;stroke:#8c8c8c;stroke-linecap:square;"/>
   </g>
   <g id="line2d_44">
    <path clip-path="url(#p52a39cfefe)" d="M 365.851633 55.988127 
L 365.851633 55.988127 
L 365.851633 55.988127 
L 366.125569 56.262064 
L 366.125569 56.809938 
L 366.399506 57.357811 
L 366.673443 57.631748 
L 366.673443 57.631748 
L 366.673443 57.357811 
L 366.673443 56.809938 
L 365.851633 55.714191 
L 365.029823 54.892381 
L 364.481949 54.618444 
L 363.660139 54.892381 
L 363.112266 55.440254 
L 363.112266 55.988127 
L 363.386202 56.536001 
L 364.208012 56.809938 
L 365.303759 56.809938 
L 365.851633 56.809938 
" style="fill:none;stroke:#8c8c8c;stroke-linecap:square;"/>
   </g>
   <g id="line2d_45">
    <path clip-path="url(#p52a39cfefe)" d="M 368.317063 55.166317 
L 368.317063 55.166317 
L 368.864937 54.618444 
L 368.864937 54.344507 
L 368.864937 53.796634 
L 368.591 53.796634 
L 368.043126 53.796634 
L 367.495253 54.344507 
L 367.495253 54.618444 
L 367.76919 54.892381 
L 368.317063 55.440254 
L 369.138873 55.714191 
L 369.960683 56.262064 
L 370.508557 56.809938 
L 370.508557 57.357811 
L 370.508557 57.905684 
L 370.23462 58.179621 
L 369.960683 57.905684 
" style="fill:none;stroke:#8c8c8c;stroke-linecap:square;"/>
   </g>
   <g id="line2d_46">
    <path clip-path="url(#p52a39cfefe)" d="M 372.973987 53.522697 
L 372.973987 53.522697 
L 372.973987 53.24876 
L 372.973987 53.24876 
L 372.426114 53.522697 
L 371.87824 54.07057 
L 371.604304 54.344507 
L 371.604304 54.892381 
L 371.87824 55.166317 
L 372.152177 55.440254 
L 372.70005 55.988127 
L 372.70005 56.809938 
L 372.70005 57.357811 
L 372.70005 57.631748 
" style="fill:none;stroke:#8c8c8c;stroke-linecap:square;"/>
   </g>
   <g id="line2d_47">
    <path clip-path="url(#p52a39cfefe)" d="M 384.205392 55.440254 
L 384.205392 55.440254 
L 383.931455 55.440254 
L 383.657519 55.440254 
L 383.383582 55.440254 
L 382.835709 55.988127 
L 382.835709 56.536001 
L 383.109645 57.083874 
L 384.205392 57.357811 
L 384.753265 57.357811 
L 385.027202 56.809938 
L 384.753265 55.988127 
L 383.931455 55.440254 
L 383.383582 55.166317 
L 383.109645 55.166317 
L 382.835709 55.440254 
" style="fill:none;stroke:#8c8c8c;stroke-linecap:square;"/>
   </g>
   <g id="line2d_48">
    <path clip-path="url(#p52a39cfefe)" d="M 387.492633 57.083874 
L 387.492633 57.083874 
L 387.766569 57.083874 
L 388.040506 57.083874 
L 388.040506 57.083874 
L 388.040506 56.809938 
L 387.766569 55.988127 
L 386.944759 53.522697 
L 386.396886 50.78333 
L 385.849012 49.13971 
L 385.849012 47.770026 
L 385.849012 47.222153 
L 386.396886 46.948216 
L 386.944759 46.948216 
L 387.218696 47.496089 
" style="fill:none;stroke:#8c8c8c;stroke-linecap:square;"/>
   </g>
   <g id="line2d_49">
    <path clip-path="url(#p52a39cfefe)" d="M 385.027202 51.331203 
L 385.027202 51.60514 
L 385.027202 51.60514 
L 385.027202 51.879077 
L 385.575076 51.879077 
L 386.944759 51.879077 
L 388.588379 51.60514 
" style="fill:none;stroke:#8c8c8c;stroke-linecap:square;"/>
   </g>
   <g id="line2d_50">
    <path clip-path="url(#p52a39cfefe)" d="M 398.997974 53.24876 
L 398.997974 52.974824 
L 398.724037 52.42695 
L 398.450101 52.42695 
L 398.450101 52.42695 
L 398.724037 52.974824 
L 398.997974 54.07057 
L 399.271911 55.440254 
L 399.819784 56.262064 
L 399.819784 56.809938 
L 399.819784 56.536001 
L 399.545848 55.440254 
L 398.997974 53.24876 
L 398.450101 50.235457 
L 398.724037 48.865773 
L 398.997974 47.770026 
L 399.271911 47.496089 
L 400.093721 47.770026 
L 401.189468 48.865773 
L 401.737341 50.235457 
L 402.285215 52.42695 
L 402.559151 54.07057 
L 402.559151 54.618444 
L 402.559151 54.618444 
L 402.285215 54.07057 
L 402.011278 52.153014 
L 402.011278 49.96152 
L 402.285215 48.865773 
L 402.559151 48.043963 
L 403.107025 47.770026 
L 403.654898 48.043963 
L 404.476708 49.413646 
L 405.024582 51.057267 
L 405.572455 52.974824 
L 406.120329 53.796634 
L 406.120329 54.618444 
L 406.394265 54.892381 
" style="fill:none;stroke:#8c8c8c;stroke-linecap:square;"/>
   </g>
   <g id="line2d_51">
    <path clip-path="url(#p52a39cfefe)" d="M 409.681506 53.24876 
L 409.955442 53.24876 
L 410.229379 52.700887 
L 410.229379 52.42695 
L 409.955442 52.153014 
L 409.133632 52.42695 
L 408.859696 53.24876 
L 408.585759 54.07057 
L 408.859696 54.618444 
L 409.407569 54.892381 
L 409.955442 54.618444 
L 410.229379 54.07057 
L 410.777253 53.24876 
L 410.777253 52.700887 
L 411.051189 52.153014 
L 411.325126 52.42695 
L 411.872999 52.974824 
L 412.69481 54.07057 
L 412.968746 55.440254 
L 413.242683 56.809938 
L 412.968746 57.631748 
L 412.146936 58.179621 
L 411.325126 58.179621 
L 410.229379 58.179621 
" style="fill:none;stroke:#8c8c8c;stroke-linecap:square;"/>
   </g>
   <g id="line2d_52">
    <path clip-path="url(#p52a39cfefe)" d="M 326.95262 66.945596 
L 326.95262 66.945596 
L 326.404747 67.219532 
L 325.856874 67.493469 
L 325.582937 67.493469 
L 325.582937 67.767406 
L 326.678684 68.041342 
L 328.870177 68.041342 
L 333.527101 67.767406 
L 340.649456 67.219532 
L 348.319684 66.397722 
L 360.646835 65.301975 
L 369.138873 65.028039 
L 378.452721 65.301975 
L 384.479329 65.849849 
L 389.958063 66.397722 
L 392.69743 66.945596 
L 392.971367 67.219532 
L 392.971367 67.219532 
L 392.423493 66.945596 
" style="fill:none;stroke:#8c8c8c;stroke-linecap:square;"/>
   </g>
   <g id="line2d_53">
    <path clip-path="url(#p52a39cfefe)" d="M 324.48719 82.012114 
L 324.48719 82.012114 
L 324.48719 82.286051 
L 324.48719 82.833925 
L 324.48719 83.929671 
L 324.213253 85.299355 
L 324.213253 86.121165 
L 324.48719 86.669039 
L 324.48719 86.395102 
L 324.761127 85.573292 
L 324.761127 83.655735 
L 324.761127 82.012114 
L 324.761127 80.642431 
L 325.035063 80.094558 
L 325.035063 79.546684 
L 325.309 79.546684 
L 325.582937 80.094558 
L 326.13081 81.464241 
L 326.678684 82.833925 
L 327.226557 84.477545 
L 327.774431 85.573292 
L 327.774431 86.669039 
" style="fill:none;stroke:#8c8c8c;stroke-linecap:square;"/>
   </g>
   <g id="line2d_54">
    <path clip-path="url(#p52a39cfefe)" d="M 324.48719 84.203608 
L 324.48719 84.203608 
L 324.48719 83.929671 
L 324.761127 83.929671 
L 325.582937 83.929671 
L 326.404747 83.929671 
L 327.226557 83.929671 
" style="fill:none;stroke:#8c8c8c;stroke-linecap:square;"/>
   </g>
   <g id="line2d_55">
    <path clip-path="url(#p52a39cfefe)" d="M 330.239861 81.190304 
L 330.239861 80.916368 
L 330.513798 80.642431 
L 330.513798 80.642431 
L 330.513798 80.642431 
L 330.787734 81.190304 
L 331.335608 82.559988 
L 331.883481 84.203608 
L 332.431355 85.025418 
L 332.431355 85.573292 
" style="fill:none;stroke:#8c8c8c;stroke-linecap:square;"/>
   </g>
   <g id="line2d_56">
    <path clip-path="url(#p52a39cfefe)" d="M 329.691988 83.929671 
L 329.418051 83.929671 
L 329.418051 83.929671 
L 329.691988 83.655735 
L 330.513798 83.381798 
L 332.157418 83.107861 
L 333.253165 82.833925 
L 334.622848 82.833925 
" style="fill:none;stroke:#8c8c8c;stroke-linecap:square;"/>
   </g>
   <g id="line2d_57">
    <path clip-path="url(#p52a39cfefe)" d="M 335.992532 82.559988 
L 335.992532 82.559988 
L 335.444658 82.833925 
L 335.170722 83.381798 
L 335.170722 84.203608 
L 335.444658 84.751482 
L 336.266468 85.299355 
L 337.088279 85.025418 
L 337.362215 84.477545 
L 337.362215 83.929671 
L 336.814342 83.107861 
L 336.266468 82.559988 
L 335.718595 82.559988 
L 335.170722 82.833925 
" style="fill:none;stroke:#8c8c8c;stroke-linecap:square;"/>
   </g>
   <g id="line2d_58">
    <path clip-path="url(#p52a39cfefe)" d="M 338.457962 83.107861 
L 338.731899 83.107861 
L 338.731899 82.833925 
L 339.005836 83.107861 
L 339.553709 83.381798 
L 339.827646 84.203608 
L 340.101582 84.477545 
L 340.375519 84.751482 
L 340.375519 84.751482 
L 340.101582 84.477545 
L 340.101582 83.655735 
L 340.101582 82.833925 
L 340.375519 82.559988 
L 340.375519 82.286051 
L 340.923392 82.559988 
L 341.197329 82.833925 
L 341.471266 83.107861 
L 341.745203 83.381798 
L 341.745203 83.381798 
L 341.745203 83.107861 
L 342.019139 82.559988 
L 342.019139 82.286051 
L 342.293076 81.738178 
L 342.567013 81.464241 
L 342.840949 81.464241 
L 343.114886 81.738178 
L 343.66276 82.559988 
L 343.936696 83.655735 
L 344.210633 84.203608 
L 344.48457 84.477545 
" style="fill:none;stroke:#8c8c8c;stroke-linecap:square;"/>
   </g>
   <g id="line2d_59">
    <path clip-path="url(#p52a39cfefe)" d="M 345.854253 83.107861 
L 346.12819 83.107861 
L 346.12819 83.381798 
L 346.402127 83.655735 
L 346.676063 84.203608 
L 346.676063 84.203608 
" style="fill:none;stroke:#8c8c8c;stroke-linecap:square;"/>
   </g>
   <g id="line2d_60">
    <path clip-path="url(#p52a39cfefe)" d="M 345.032443 80.094558 
L 345.032443 80.094558 
L 345.032443 79.546684 
L 345.30638 79.546684 
" style="fill:none;stroke:#8c8c8c;stroke-linecap:square;"/>
   </g>
   <g id="line2d_61">
    <path clip-path="url(#p52a39cfefe)" d="M 348.867557 80.642431 
L 348.867557 80.642431 
L 348.867557 80.642431 
L 348.867557 80.642431 
L 348.319684 81.464241 
L 348.045747 82.012114 
L 348.045747 83.381798 
L 348.867557 84.203608 
L 349.689367 84.751482 
L 350.23724 84.751482 
" style="fill:none;stroke:#8c8c8c;stroke-linecap:square;"/>
   </g>
   <g id="line2d_62">
    <path clip-path="url(#p52a39cfefe)" d="M 358.729278 81.190304 
L 358.729278 81.190304 
L 358.729278 81.190304 
L 359.003215 81.738178 
L 359.277152 82.286051 
L 359.277152 82.833925 
L 359.551088 83.107861 
L 359.277152 83.107861 
L 359.277152 82.833925 
L 359.003215 82.286051 
L 358.729278 80.916368 
L 358.729278 79.546684 
L 359.003215 78.724874 
L 359.277152 78.450937 
L 359.551088 78.724874 
L 360.098962 79.272747 
L 360.372899 80.368494 
L 360.920772 81.464241 
L 361.194709 82.012114 
L 361.194709 82.012114 
L 360.920772 81.464241 
L 360.920772 80.368494 
L 360.920772 79.272747 
L 360.920772 78.177001 
L 361.194709 77.35519 
L 361.468645 77.081254 
L 361.742582 77.35519 
L 362.290456 78.177001 
L 362.838329 79.546684 
L 363.386202 80.916368 
L 363.660139 81.738178 
L 363.934076 82.286051 
L 364.208012 82.286051 
" style="fill:none;stroke:#8c8c8c;stroke-linecap:square;"/>
   </g>
   <g id="line2d_63">
    <path clip-path="url(#p52a39cfefe)" d="M 367.495253 79.820621 
L 367.495253 79.820621 
L 367.76919 79.820621 
L 367.76919 79.820621 
L 367.76919 80.094558 
L 368.043126 80.642431 
L 368.317063 81.464241 
L 368.591 81.738178 
L 368.864937 82.012114 
L 368.864937 81.738178 
L 368.591 80.916368 
L 368.043126 80.368494 
L 367.221316 79.820621 
L 366.399506 79.546684 
L 365.851633 79.820621 
L 365.851633 80.368494 
L 366.125569 81.190304 
L 366.673443 81.464241 
L 367.495253 81.738178 
L 368.591 81.464241 
" style="fill:none;stroke:#8c8c8c;stroke-linecap:square;"/>
   </g>
   <g id="line2d_64">
    <path clip-path="url(#p52a39cfefe)" d="M 371.330367 79.546684 
L 371.330367 79.546684 
L 371.604304 79.272747 
L 371.604304 79.272747 
L 371.330367 78.998811 
L 371.05643 78.998811 
L 370.23462 79.546684 
L 369.960683 79.820621 
L 370.23462 80.094558 
L 371.05643 80.368494 
L 371.87824 80.642431 
L 372.70005 80.916368 
L 373.247924 81.464241 
L 373.247924 81.738178 
L 372.973987 82.286051 
L 372.70005 82.833925 
L 372.426114 83.107861 
L 372.152177 83.107861 
" style="fill:none;stroke:#8c8c8c;stroke-linecap:square;"/>
   </g>
   <g id="line2d_65">
    <path clip-path="url(#p52a39cfefe)" d="M 376.809101 79.820621 
L 376.809101 79.546684 
L 376.809101 79.546684 
L 376.535164 79.546684 
L 376.261228 79.546684 
L 375.713354 79.820621 
L 375.439417 80.094558 
L 375.439417 80.368494 
L 375.713354 80.642431 
L 376.261228 80.916368 
L 376.535164 81.464241 
L 376.809101 82.012114 
L 376.809101 82.559988 
L 376.809101 83.107861 
L 376.535164 83.381798 
" style="fill:none;stroke:#8c8c8c;stroke-linecap:square;"/>
   </g>
   <g id="line2d_66">
    <path clip-path="url(#p52a39cfefe)" d="M 387.766569 80.916368 
L 387.766569 80.916368 
L 387.492633 80.916368 
L 386.944759 81.190304 
L 386.670822 81.190304 
L 386.396886 81.464241 
L 386.396886 82.012114 
L 386.396886 82.833925 
L 387.218696 83.107861 
L 388.040506 83.107861 
L 388.314443 82.559988 
L 388.314443 82.012114 
L 387.766569 80.916368 
L 386.670822 80.368494 
L 386.396886 80.368494 
L 386.122949 80.642431 
L 386.122949 80.916368 
" style="fill:none;stroke:#8c8c8c;stroke-linecap:square;"/>
   </g>
   <g id="line2d_67">
    <path clip-path="url(#p52a39cfefe)" d="M 390.779873 81.190304 
L 390.779873 81.190304 
L 390.779873 81.190304 
L 390.779873 80.916368 
L 390.779873 80.916368 
L 390.505936 80.642431 
L 390.232 79.820621 
L 389.410189 78.450937 
L 388.862316 77.35519 
L 388.314443 75.71157 
L 388.588379 74.615823 
L 388.862316 73.520077 
L 389.684126 72.972203 
L 390.779873 72.42433 
L 391.327746 72.42433 
L 391.601683 72.698266 
L 391.601683 73.24614 
" style="fill:none;stroke:#8c8c8c;stroke-linecap:square;"/>
   </g>
   <g id="line2d_68">
    <path clip-path="url(#p52a39cfefe)" d="M 387.492633 77.629127 
L 387.492633 77.629127 
L 386.944759 78.177001 
L 387.218696 78.177001 
L 388.040506 78.177001 
L 389.684126 77.903064 
L 391.601683 77.35519 
L 392.69743 76.807317 
" style="fill:none;stroke:#8c8c8c;stroke-linecap:square;"/>
   </g>
   <g id="line2d_69">
    <path clip-path="url(#p52a39cfefe)" d="M 401.189468 79.546684 
L 401.189468 79.272747 
L 401.189468 79.272747 
L 401.189468 79.272747 
L 400.915531 79.272747 
L 401.189468 79.546684 
L 401.463405 80.094558 
L 402.011278 80.916368 
L 402.285215 82.012114 
L 402.559151 82.559988 
L 402.833088 82.833925 
L 402.559151 82.559988 
L 402.285215 82.286051 
L 401.737341 80.916368 
L 400.641594 78.177001 
L 400.093721 76.259444 
L 400.367658 74.615823 
L 400.641594 74.06795 
L 401.189468 74.341887 
L 402.559151 75.437634 
L 403.654898 76.807317 
L 404.476708 78.450937 
L 404.750645 79.546684 
L 404.750645 79.820621 
L 404.750645 79.820621 
L 404.750645 79.546684 
L 404.202772 77.629127 
L 404.202772 75.163697 
L 404.476708 73.794013 
L 404.750645 72.972203 
L 405.298518 72.972203 
L 406.120329 73.794013 
L 406.668202 75.437634 
L 407.490012 77.629127 
L 408.037886 79.546684 
L 408.311822 80.916368 
L 408.311822 81.464241 
" style="fill:none;stroke:#8c8c8c;stroke-linecap:square;"/>
   </g>
   <g id="line2d_70">
    <path clip-path="url(#p52a39cfefe)" d="M 412.69481 79.546684 
L 412.69481 79.546684 
L 412.69481 79.546684 
L 412.69481 79.272747 
L 412.69481 78.998811 
L 412.420873 79.272747 
L 411.872999 79.546684 
L 411.872999 80.368494 
L 412.146936 81.190304 
L 412.69481 81.464241 
L 412.968746 81.738178 
L 413.51662 81.190304 
L 413.51662 80.642431 
L 413.242683 79.820621 
L 412.968746 79.272747 
L 412.69481 79.272747 
L 412.69481 79.272747 
L 413.242683 79.820621 
L 413.790556 80.916368 
L 414.612366 82.286051 
L 414.886303 83.655735 
L 414.612366 84.477545 
L 413.790556 85.573292 
L 412.968746 85.847228 
L 412.146936 85.847228 
L 411.599063 85.573292 
" style="fill:none;stroke:#8c8c8c;stroke-linecap:square;"/>
   </g>
   <g id="line2d_71">
    <path clip-path="url(#p52a39cfefe)" d="M 417.077797 77.35519 
L 417.077797 77.081254 
L 417.077797 76.53338 
L 417.077797 76.259444 
L 417.077797 76.259444 
L 417.077797 76.53338 
L 416.80386 77.35519 
L 417.351734 78.998811 
L 417.899607 80.094558 
L 418.995354 80.642431 
L 420.365037 80.094558 
L 420.912911 79.272747 
L 420.912911 77.35519 
L 420.365037 75.71157 
L 419.26929 74.341887 
L 417.899607 74.06795 
L 417.077797 74.06795 
L 415.434177 75.163697 
" style="fill:none;stroke:#8c8c8c;stroke-linecap:square;"/>
   </g>
   <g id="line2d_72">
    <path clip-path="url(#p52a39cfefe)" d="M 392.149557 66.397722 
L 391.87562 66.397722 
L 391.87562 66.397722 
L 391.87562 66.397722 
L 391.87562 66.397722 
L 391.87562 66.397722 
L 391.87562 66.397722 
L 391.87562 66.397722 
L 391.87562 66.397722 
L 392.149557 66.397722 
L 392.149557 66.123786 
L 392.423493 66.123786 
L 392.69743 66.123786 
L 393.245303 66.123786 
L 393.51924 66.123786 
L 394.067113 66.123786 
L 394.888924 66.123786 
L 395.436797 66.123786 
L 395.98467 66.123786 
L 396.806481 66.123786 
L 397.354354 66.123786 
L 398.176164 66.397722 
L 398.997974 66.397722 
L 399.545848 66.397722 
L 400.641594 66.397722 
L 401.737341 66.397722 
L 403.107025 66.397722 
L 404.476708 66.397722 
L 405.572455 66.397722 
L 406.942139 66.397722 
L 407.763949 66.397722 
L 409.407569 66.397722 
L 410.503316 66.671659 
L 411.599063 66.671659 
L 412.69481 66.671659 
L 414.064493 66.671659 
L 415.16024 66.671659 
L 416.255987 66.397722 
L 417.62567 66.397722 
L 418.721417 66.397722 
L 419.817164 66.397722 
L 420.091101 66.397722 
L 420.638974 66.397722 
L 420.912911 66.397722 
L 420.912911 66.397722 
L 421.186847 66.397722 
" style="fill:none;stroke:#8c8c8c;stroke-linecap:square;"/>
   </g>
   <g id="line2d_73">
    <path clip-path="url(#p52a39cfefe)" d="M 429.678885 63.658355 
L 429.678885 63.658355 
L 429.952822 63.658355 
L 429.952822 63.658355 
L 429.952822 63.658355 
L 430.226759 63.658355 
L 430.226759 63.658355 
L 430.226759 63.658355 
L 430.226759 63.658355 
L 430.500695 63.658355 
" style="fill:none;stroke:#8c8c8c;stroke-linecap:square;"/>
   </g>
   <g id="line2d_74">
    <path clip-path="url(#p52a39cfefe)" d="M 435.705493 58.453558 
L 435.705493 58.453558 
L 435.705493 58.179621 
L 435.705493 57.905684 
L 435.97943 57.357811 
L 435.97943 57.631748 
L 436.253366 58.453558 
L 436.527303 60.371115 
L 436.527303 63.658355 
L 436.80124 65.575912 
L 436.80124 66.945596 
L 436.80124 67.493469 
L 436.80124 67.493469 
" style="fill:none;stroke:#8c8c8c;stroke-linecap:square;"/>
   </g>
   <g id="line2d_75">
    <path clip-path="url(#p52a39cfefe)" d="M 439.814543 59.001431 
L 439.814543 59.001431 
L 439.814543 59.001431 
L 439.814543 59.275368 
L 439.814543 60.097178 
L 439.814543 62.014735 
L 440.08848 63.658355 
L 441.184227 65.028039 
L 442.006037 65.575912 
L 442.827847 65.575912 
L 443.375721 64.480165 
L 443.649657 63.384418 
L 443.375721 61.740798 
L 442.827847 60.645051 
L 442.006037 59.823241 
L 441.458164 59.549305 
L 440.91029 59.549305 
L 440.636354 59.823241 
" style="fill:none;stroke:#8c8c8c;stroke-linecap:square;"/>
   </g>
   <g id="line2d_76">
    <path clip-path="url(#p52a39cfefe)" d="M 448.854455 59.549305 
L 449.128391 59.549305 
L 449.128391 59.275368 
L 449.128391 59.549305 
L 448.854455 59.823241 
L 448.580518 60.918988 
L 448.580518 62.288672 
L 448.854455 63.932292 
L 449.128391 64.754102 
L 449.676265 65.301975 
L 450.498075 65.028039 
L 451.319885 64.206229 
L 451.593822 62.836545 
L 451.319885 61.466862 
L 450.772012 60.097178 
L 450.224138 59.275368 
L 449.676265 58.453558 
L 449.128391 58.179621 
" style="fill:none;stroke:#8c8c8c;stroke-linecap:square;"/>
   </g>
   <g id="line2d_77">
    <path clip-path="url(#p52a39cfefe)" d="M 333.253165 112.419089 
L 333.253165 112.419089 
L 333.253165 112.419089 
L 332.979228 112.419089 
L 332.979228 112.419089 
L 332.979228 112.145152 
L 332.979228 112.145152 
L 333.253165 112.145152 
L 334.074975 111.871215 
L 335.170722 111.597279 
L 336.814342 111.597279 
L 337.636152 111.597279 
L 337.910089 112.145152 
L 337.636152 112.693026 
L 337.088279 114.062709 
L 336.266468 115.158456 
L 335.170722 116.528139 
L 334.896785 117.623886 
L 334.896785 118.445696 
L 335.170722 118.99357 
L 335.992532 118.99357 
L 336.814342 118.99357 
L 337.910089 118.719633 
L 338.731899 118.445696 
L 339.005836 118.17176 
" style="fill:none;stroke:#8c8c8c;stroke-linecap:square;"/>
   </g>
   <g id="line2d_78">
    <path clip-path="url(#p52a39cfefe)" d="M 343.388823 111.323342 
L 343.388823 111.323342 
L 343.388823 111.049405 
L 343.114886 111.049405 
L 343.114886 111.323342 
L 342.840949 111.597279 
L 342.840949 112.145152 
L 342.840949 112.966962 
L 343.388823 114.062709 
L 344.210633 114.610583 
L 345.032443 114.884519 
L 346.12819 114.610583 
L 346.676063 114.062709 
" style="fill:none;stroke:#8c8c8c;stroke-linecap:square;"/>
   </g>
   <g id="line2d_79">
    <path clip-path="url(#p52a39cfefe)" d="M 347.223937 111.323342 
L 347.223937 111.323342 
L 347.223937 111.049405 
L 346.95 111.049405 
L 346.95 111.049405 
L 346.95 111.597279 
L 347.223937 112.693026 
L 347.223937 114.062709 
L 347.223937 115.706329 
L 347.497873 116.802076 
L 347.77181 117.623886 
L 347.77181 118.17176 
L 347.77181 118.17176 
" style="fill:none;stroke:#8c8c8c;stroke-linecap:square;"/>
   </g>
   <g id="line2d_80">
    <path clip-path="url(#p52a39cfefe)" d="M 351.880861 117.897823 
L 351.880861 118.17176 
L 351.880861 118.445696 
L 351.880861 118.445696 
L 351.880861 118.719633 
L 352.154797 118.719633 
" style="fill:none;stroke:#8c8c8c;stroke-linecap:square;"/>
   </g>
   <g id="line2d_81">
    <path clip-path="url(#p52a39cfefe)" d="M 353.798418 109.405785 
L 353.798418 109.131848 
L 353.524481 108.857912 
L 353.524481 108.857912 
L 353.798418 108.310038 
L 355.442038 107.762165 
L 357.085658 107.488228 
L 358.181405 107.488228 
L 358.455342 108.036102 
L 357.907468 108.583975 
L 356.811721 109.679722 
L 355.715975 110.775469 
L 355.442038 111.323342 
L 355.715975 111.597279 
L 355.989911 111.871215 
L 357.085658 111.871215 
L 358.181405 112.419089 
L 359.003215 112.966962 
L 359.277152 113.514836 
L 359.277152 114.336646 
L 359.003215 115.158456 
L 358.455342 115.706329 
L 357.633532 115.980266 
" style="fill:none;stroke:#8c8c8c;stroke-linecap:square;"/>
   </g>
   <g id="line2d_82">
    <path clip-path="url(#p52a39cfefe)" d="M 336.814342 125.020177 
L 336.814342 125.020177 
L 337.088279 125.020177 
L 338.731899 125.020177 
L 343.114886 124.472304 
L 348.59362 123.650494 
L 354.894164 122.554747 
L 359.551088 121.732937 
L 361.468645 121.459 
L 362.290456 121.459 
L 362.564392 121.459 
L 362.564392 121.459 
L 362.290456 121.459 
L 362.290456 121.459 
" style="fill:none;stroke:#8c8c8c;stroke-linecap:square;"/>
   </g>
   <g id="line2d_83">
    <path clip-path="url(#p52a39cfefe)" d="M 326.404747 140.086696 
L 326.13081 140.086696 
L 326.13081 140.086696 
L 326.13081 139.81276 
L 326.404747 139.81276 
L 328.322304 138.990949 
L 329.965924 138.443076 
L 331.335608 138.169139 
L 332.431355 138.443076 
L 332.431355 138.990949 
L 332.157418 139.81276 
L 331.061671 141.182443 
L 329.691988 142.826063 
L 328.870177 144.469684 
L 328.870177 145.291494 
L 329.418051 146.113304 
L 330.513798 146.38724 
L 331.883481 146.113304 
L 333.253165 145.56543 
L 333.801038 145.017557 
L 334.074975 144.469684 
" style="fill:none;stroke:#8c8c8c;stroke-linecap:square;"/>
   </g>
   <g id="line2d_84">
    <path clip-path="url(#p52a39cfefe)" d="M 335.444658 138.443076 
L 335.444658 138.169139 
L 335.170722 138.169139 
L 335.170722 137.895203 
L 334.896785 138.169139 
L 334.896785 138.717013 
L 334.622848 139.538823 
L 334.896785 140.360633 
L 335.718595 140.908506 
L 336.540405 141.45638 
L 337.088279 141.45638 
L 337.362215 140.908506 
" style="fill:none;stroke:#8c8c8c;stroke-linecap:square;"/>
   </g>
   <g id="line2d_85">
    <path clip-path="url(#p52a39cfefe)" d="M 338.457962 137.895203 
L 338.457962 137.895203 
L 338.457962 137.621266 
L 338.457962 137.621266 
L 338.184025 137.621266 
L 338.457962 138.169139 
L 338.457962 139.264886 
L 338.731899 141.182443 
L 339.005836 142.826063 
L 339.553709 143.92181 
L 339.827646 144.469684 
L 339.827646 144.74362 
L 339.827646 144.74362 
" style="fill:none;stroke:#8c8c8c;stroke-linecap:square;"/>
   </g>
   <g id="line2d_86">
    <path clip-path="url(#p52a39cfefe)" d="M 343.936696 143.1 
L 343.936696 143.1 
L 343.936696 143.1 
L 343.936696 143.373937 
L 343.936696 143.373937 
L 343.936696 143.647873 
L 343.936696 143.647873 
L 343.936696 143.647873 
" style="fill:none;stroke:#8c8c8c;stroke-linecap:square;"/>
   </g>
   <g id="line2d_87">
    <path clip-path="url(#p52a39cfefe)" d="M 343.936696 136.251582 
L 343.66276 136.251582 
L 343.66276 135.977646 
L 344.210633 135.703709 
L 345.032443 135.429772 
L 345.854253 135.429772 
L 346.95 135.429772 
L 346.95 135.977646 
L 346.95 136.525519 
L 346.402127 137.621266 
L 345.854253 138.443076 
L 345.854253 138.717013 
L 346.12819 138.990949 
L 346.676063 138.990949 
L 347.497873 138.990949 
L 348.319684 139.264886 
L 348.867557 139.81276 
L 349.141494 140.360633 
L 349.141494 141.45638 
L 348.867557 142.004253 
L 348.319684 142.27819 
L 347.497873 142.552127 
L 347.223937 142.27819 
" style="fill:none;stroke:#8c8c8c;stroke-linecap:square;"/>
   </g>
   <g id="line2d_88">
    <path clip-path="url(#p52a39cfefe)" d="M 355.442038 136.251582 
L 355.442038 136.251582 
L 355.715975 136.251582 
L 355.989911 136.251582 
L 356.263848 136.251582 
L 356.537785 137.073392 
L 357.085658 138.169139 
L 357.633532 140.086696 
L 357.907468 141.45638 
L 358.181405 142.004253 
L 358.181405 142.27819 
L 358.181405 142.27819 
" style="fill:none;stroke:#8c8c8c;stroke-linecap:square;"/>
   </g>
   <g id="line2d_89">
    <path clip-path="url(#p52a39cfefe)" d="M 355.442038 138.443076 
L 355.442038 138.443076 
L 355.442038 138.443076 
L 355.989911 138.443076 
L 357.907468 138.443076 
L 360.098962 138.717013 
L 361.468645 138.443076 
L 362.016519 138.443076 
" style="fill:none;stroke:#8c8c8c;stroke-linecap:square;"/>
   </g>
   <g id="line2d_90">
    <path clip-path="url(#p52a39cfefe)" d="M 366.673443 132.416468 
L 366.673443 132.416468 
L 366.673443 132.142532 
L 366.673443 132.142532 
L 366.399506 132.416468 
L 366.673443 133.238279 
L 366.673443 134.881899 
L 366.94738 137.073392 
L 367.221316 138.717013 
L 367.495253 140.360633 
L 367.76919 141.45638 
L 367.76919 142.004253 
L 367.76919 142.27819 
L 367.76919 142.27819 
" style="fill:none;stroke:#8c8c8c;stroke-linecap:square;"/>
   </g>
   <g id="line2d_91">
    <path clip-path="url(#p52a39cfefe)" d="M 371.87824 133.238279 
L 371.87824 133.238279 
L 371.87824 133.238279 
L 371.87824 133.512215 
L 371.87824 134.334025 
L 371.87824 135.703709 
L 372.152177 137.347329 
L 372.70005 138.990949 
L 373.521861 140.086696 
L 374.343671 140.63457 
L 375.165481 140.360633 
L 375.439417 140.086696 
L 375.439417 139.264886 
L 374.617607 138.443076 
L 374.069734 138.169139 
L 372.973987 138.169139 
L 372.152177 138.443076 
L 371.87824 138.717013 
L 371.87824 138.990949 
" style="fill:none;stroke:#8c8c8c;stroke-linecap:square;"/>
   </g>
   <g id="line2d_92">
    <path clip-path="url(#p52a39cfefe)" d="M 382.835709 121.185063 
L 382.561772 121.185063 
L 382.561772 121.459 
L 382.287835 121.732937 
L 382.287835 121.732937 
L 382.287835 121.732937 
L 382.287835 121.732937 
" style="fill:none;stroke:#8c8c8c;stroke-linecap:square;"/>
   </g>
   <g id="line2d_93">
    <path clip-path="url(#p52a39cfefe)" d="M 388.862316 115.158456 
L 388.862316 115.158456 
L 388.862316 115.158456 
L 388.862316 115.706329 
L 388.862316 116.254203 
L 389.410189 118.17176 
L 389.958063 120.363253 
L 390.505936 122.28081 
L 390.779873 123.10262 
L 391.05381 123.650494 
" style="fill:none;stroke:#8c8c8c;stroke-linecap:square;"/>
   </g>
   <g id="line2d_94">
    <path clip-path="url(#p52a39cfefe)" d="M 393.51924 117.34995 
L 393.51924 117.34995 
L 393.51924 117.076013 
L 393.245303 116.802076 
L 393.245303 116.802076 
L 392.971367 117.34995 
L 392.971367 118.445696 
L 394.067113 120.363253 
L 395.16286 121.459 
L 396.258607 121.732937 
L 397.354354 121.459 
L 397.902227 120.63719 
L 397.902227 118.99357 
L 397.080417 117.34995 
L 396.258607 116.528139 
L 395.436797 116.254203 
L 394.067113 116.528139 
L 393.245303 116.528139 
L 392.971367 116.802076 
" style="fill:none;stroke:#8c8c8c;stroke-linecap:square;"/>
   </g>
   <g id="line2d_95">
    <path clip-path="url(#p52a39cfefe)" d="M 401.463405 116.528139 
L 401.463405 116.528139 
L 401.737341 116.528139 
L 401.737341 116.254203 
L 401.463405 116.528139 
L 401.189468 116.802076 
L 400.915531 117.623886 
L 401.463405 119.267507 
L 402.285215 120.363253 
L 403.380961 121.185063 
L 404.476708 121.185063 
L 405.298518 120.63719 
L 405.572455 119.81538 
L 405.298518 118.17176 
L 404.476708 116.802076 
L 403.380961 116.254203 
L 402.285215 115.980266 
L 401.737341 116.254203 
L 401.463405 116.254203 
" style="fill:none;stroke:#8c8c8c;stroke-linecap:square;"/>
   </g>
   <g id="line2d_96">
    <path clip-path="url(#p52a39cfefe)" d="M 413.51662 115.706329 
L 413.242683 115.706329 
L 412.968746 115.706329 
L 412.968746 115.980266 
L 412.968746 115.706329 
L 413.51662 115.706329 
L 414.612366 115.158456 
L 415.98205 114.610583 
L 417.077797 114.336646 
" style="fill:none;stroke:#8c8c8c;stroke-linecap:square;"/>
   </g>
   <g id="line2d_97">
    <path clip-path="url(#p52a39cfefe)" d="M 411.872999 118.99357 
L 411.872999 119.267507 
L 411.872999 119.541443 
L 412.420873 119.541443 
L 413.790556 119.267507 
L 415.16024 118.719633 
L 416.529923 118.17176 
" style="fill:none;stroke:#8c8c8c;stroke-linecap:square;"/>
   </g>
   <g id="line2d_98">
    <path clip-path="url(#p52a39cfefe)" d="M 424.748025 112.966962 
L 424.748025 112.966962 
L 424.474088 112.693026 
L 424.474088 112.419089 
L 424.200151 112.419089 
L 423.926214 112.145152 
L 423.926214 112.419089 
L 423.926214 113.240899 
L 424.474088 114.336646 
L 425.021961 115.432393 
L 425.569835 115.706329 
L 426.117708 115.706329 
L 426.665582 115.432393 
L 426.665582 114.610583 
L 426.665582 114.336646 
L 426.665582 114.336646 
L 427.213455 114.884519 
L 428.309202 115.432393 
L 429.131012 115.706329 
L 429.952822 115.432393 
L 430.226759 114.336646 
L 429.952822 113.240899 
L 429.131012 111.323342 
L 428.857075 109.953659 
L 428.857075 109.405785 
L 429.131012 109.405785 
" style="fill:none;stroke:#8c8c8c;stroke-linecap:square;"/>
   </g>
   <g id="line2d_99">
    <path clip-path="url(#p52a39cfefe)" d="M 432.692189 108.583975 
L 432.692189 108.583975 
L 432.966126 108.310038 
L 432.966126 108.310038 
L 432.692189 108.310038 
L 432.418252 109.131848 
L 432.418252 110.501532 
L 432.692189 112.145152 
L 433.513999 112.966962 
L 434.335809 113.240899 
L 435.431556 112.966962 
L 435.97943 112.145152 
L 436.253366 111.323342 
L 436.253366 110.775469 
" style="fill:none;stroke:#8c8c8c;stroke-linecap:square;"/>
   </g>
   <g id="line2d_100">
    <path clip-path="url(#p52a39cfefe)" d="M 432.692189 110.227595 
L 432.418252 110.501532 
L 432.144316 110.501532 
L 432.144316 110.501532 
L 432.966126 110.227595 
L 434.061873 109.679722 
L 435.431556 108.857912 
" style="fill:none;stroke:#8c8c8c;stroke-linecap:square;"/>
   </g>
   <g id="line2d_101">
    <path clip-path="url(#p52a39cfefe)" d="M 438.992733 103.927051 
L 438.992733 103.927051 
L 438.718797 103.927051 
L 438.718797 103.927051 
L 438.718797 103.927051 
L 438.44486 104.200988 
L 438.44486 104.200988 
L 438.718797 104.200988 
L 438.992733 104.200988 
L 439.26667 103.927051 
L 439.26667 103.653114 
L 439.26667 103.379178 
L 438.992733 103.653114 
L 438.718797 103.653114 
L 438.44486 103.927051 
L 438.44486 104.200988 
L 438.44486 104.200988 
" style="fill:none;stroke:#8c8c8c;stroke-linecap:square;"/>
   </g>
   <g id="line2d_102">
    <path clip-path="url(#p52a39cfefe)" d="M 443.375721 109.953659 
L 443.375721 110.227595 
L 443.375721 110.227595 
L 443.375721 110.501532 
L 443.375721 110.501532 
L 443.375721 110.775469 
L 443.649657 110.775469 
L 443.649657 111.049405 
L 443.923594 111.049405 
L 444.197531 110.775469 
L 444.471467 110.501532 
L 444.197531 109.953659 
L 443.923594 109.679722 
L 443.649657 109.953659 
L 443.375721 109.953659 
L 443.375721 109.953659 
" style="fill:none;stroke:#8c8c8c;stroke-linecap:square;"/>
   </g>
   <g id="line2d_103">
    <path clip-path="url(#p52a39cfefe)" d="M 439.26667 111.871215 
L 439.26667 111.871215 
L 439.26667 112.145152 
L 439.26667 111.871215 
L 439.540607 111.597279 
L 440.636354 109.953659 
L 442.279974 107.762165 
L 443.375721 105.570671 
L 443.923594 104.474924 
L 444.197531 103.927051 
L 444.197531 103.653114 
L 444.197531 103.379178 
L 444.197531 103.653114 
L 444.197531 103.927051 
L 444.197531 103.927051 
" style="fill:none;stroke:#8c8c8c;stroke-linecap:square;"/>
   </g>
   <g id="line2d_104">
    <path clip-path="url(#p52a39cfefe)" d="M 435.97943 121.185063 
L 435.97943 120.911127 
L 435.97943 120.363253 
L 435.97943 120.363253 
L 436.253366 120.63719 
L 436.527303 121.732937 
L 437.075176 123.10262 
L 437.349113 124.198367 
L 437.349113 124.472304 
L 437.349113 124.472304 
L 437.349113 124.198367 
L 437.075176 122.828684 
L 437.075176 121.459 
L 437.349113 119.81538 
L 437.896986 118.719633 
L 438.44486 118.445696 
L 438.718797 118.445696 
L 438.992733 118.99357 
L 438.992733 119.541443 
L 439.26667 120.363253 
L 439.26667 120.63719 
L 439.26667 120.63719 
L 439.26667 120.089317 
L 439.540607 118.719633 
L 440.08848 117.623886 
L 440.362417 117.34995 
L 440.636354 117.076013 
L 441.184227 117.897823 
L 441.458164 118.99357 
L 441.7321 120.63719 
L 441.7321 121.459 
L 442.006037 122.28081 
" style="fill:none;stroke:#8c8c8c;stroke-linecap:square;"/>
   </g>
   <g id="line2d_105">
    <path clip-path="url(#p52a39cfefe)" d="M 445.293278 120.63719 
L 445.293278 120.363253 
L 445.293278 120.089317 
L 445.019341 120.089317 
L 444.745404 120.089317 
L 444.197531 120.363253 
L 444.197531 121.185063 
L 444.197531 121.732937 
L 444.745404 122.006874 
L 445.019341 122.006874 
L 445.567214 121.459 
L 445.567214 120.63719 
L 445.293278 119.81538 
L 445.293278 119.267507 
L 445.019341 118.99357 
L 445.019341 119.267507 
L 445.293278 120.089317 
L 445.567214 121.185063 
L 446.389024 122.828684 
L 446.662961 123.924431 
L 446.662961 125.020177 
L 446.389024 125.841988 
L 445.841151 126.115924 
L 445.019341 126.663798 
L 444.471467 126.663798 
" style="fill:none;stroke:#8c8c8c;stroke-linecap:square;"/>
   </g>
   <g id="line2d_106">
    <path clip-path="url(#p52a39cfefe)" d="M 437.075176 134.060089 
L 437.075176 134.060089 
L 437.075176 134.334025 
L 437.075176 134.607962 
L 437.349113 134.881899 
L 437.349113 134.881899 
L 437.349113 135.155836 
" style="fill:none;stroke:#8c8c8c;stroke-linecap:square;"/>
   </g>
   <g id="line2d_107">
    <path clip-path="url(#p52a39cfefe)" d="M 437.896986 130.224975 
L 437.896986 129.951038 
L 437.896986 129.677101 
L 437.896986 129.403165 
L 437.896986 129.403165 
" style="fill:none;stroke:#8c8c8c;stroke-linecap:square;"/>
   </g>
   <g id="line2d_108">
    <path clip-path="url(#p52a39cfefe)" d="M 439.814543 131.868595 
L 439.814543 131.868595 
L 439.814543 132.142532 
L 439.814543 132.690405 
L 439.814543 132.964342 
L 440.08848 133.512215 
L 440.08848 133.786152 
L 440.08848 133.786152 
L 440.362417 132.964342 
L 440.636354 132.142532 
L 441.184227 131.320722 
L 441.458164 131.046785 
L 442.006037 131.320722 
L 442.279974 131.868595 
L 442.553911 132.964342 
L 442.827847 133.786152 
L 442.827847 134.060089 
L 442.827847 134.060089 
" style="fill:none;stroke:#8c8c8c;stroke-linecap:square;"/>
   </g>
   <g id="line2d_109">
    <path clip-path="url(#p52a39cfefe)" d="M 435.431556 143.373937 
L 435.431556 143.373937 
L 435.705493 143.373937 
L 435.705493 143.373937 
L 435.97943 143.92181 
L 436.253366 145.017557 
L 436.527303 145.839367 
L 436.527303 146.38724 
L 436.527303 146.661177 
L 436.527303 146.38724 
L 436.253366 145.291494 
L 435.97943 143.1 
L 435.97943 141.45638 
L 435.97943 140.908506 
L 436.253366 140.360633 
L 436.80124 140.63457 
L 437.349113 141.730316 
L 437.896986 142.552127 
L 438.170923 143.647873 
L 438.170923 144.195747 
L 438.44486 144.195747 
L 438.170923 143.92181 
L 438.170923 142.552127 
L 438.44486 140.908506 
L 438.44486 139.81276 
L 438.718797 139.264886 
L 438.992733 138.990949 
L 439.540607 139.81276 
L 440.08848 141.182443 
L 440.362417 143.1 
L 440.636354 144.195747 
L 440.636354 144.74362 
L 440.636354 145.017557 
L 440.636354 145.291494 
" style="fill:none;stroke:#8c8c8c;stroke-linecap:square;"/>
   </g>
   <g id="line2d_110">
    <path clip-path="url(#p52a39cfefe)" d="M 442.279974 144.469684 
L 442.279974 144.195747 
L 442.553911 143.92181 
L 442.553911 143.647873 
L 442.279974 143.373937 
L 442.279974 143.373937 
L 442.006037 143.373937 
L 442.006037 143.92181 
L 442.006037 144.469684 
L 442.553911 144.74362 
L 442.827847 145.017557 
L 442.827847 144.74362 
L 442.827847 143.92181 
L 442.553911 143.1 
L 442.279974 142.552127 
L 442.279974 142.27819 
L 442.279974 142.27819 
L 442.553911 142.552127 
L 443.101784 143.373937 
L 443.649657 144.469684 
L 444.197531 145.839367 
L 444.471467 146.935114 
L 444.471467 147.756924 
L 444.197531 148.304797 
L 443.375721 148.852671 
L 442.827847 148.852671 
L 442.279974 148.852671 
" style="fill:none;stroke:#8c8c8c;stroke-linecap:square;"/>
   </g>
   <g id="line2d_111">
    <path clip-path="url(#p52a39cfefe)" d="M 448.306581 141.182443 
L 448.306581 141.182443 
L 448.032645 140.908506 
L 447.758708 140.908506 
L 447.484771 140.63457 
L 447.210835 140.63457 
L 446.936898 140.63457 
L 446.662961 140.908506 
L 446.389024 141.730316 
L 446.662961 143.1 
L 446.936898 143.92181 
L 447.758708 144.195747 
L 448.854455 143.647873 
L 449.402328 142.552127 
L 449.676265 141.182443 
L 449.128391 140.086696 
L 448.580518 139.538823 
L 447.484771 139.538823 
L 446.662961 139.81276 
L 446.662961 140.360633 
" style="fill:none;stroke:#8c8c8c;stroke-linecap:square;"/>
   </g>
   <g id="line2d_112">
    <path clip-path="url(#p52a39cfefe)" d="M 286.683925 189.66924 
L 286.683925 189.66924 
L 286.683925 189.66924 
L 286.409988 189.395303 
L 286.409988 189.121367 
L 286.409988 189.121367 
L 286.409988 189.121367 
L 286.683925 190.49105 
L 286.957861 193.778291 
L 286.957861 194.326164 
L 287.231798 194.600101 
L 286.957861 193.504354 
L 286.957861 192.13467 
L 286.409988 188.573493 
L 286.683925 186.108063 
L 286.957861 186.108063 
L 288.327545 187.751683 
L 288.875418 189.66924 
L 289.149355 191.038924 
L 289.423292 192.408607 
L 289.697228 192.408607 
L 289.971165 190.764987 
L 289.971165 189.943177 
L 290.519039 186.382 
L 290.792975 185.560189 
L 291.614785 185.834126 
L 293.806279 192.13467 
L 293.806279 192.682544 
L 294.354152 194.600101 
L 294.354152 194.874037 
" style="fill:none;stroke:#8c8c8c;stroke-linecap:square;"/>
   </g>
   <g id="line2d_113">
    <path clip-path="url(#p52a39cfefe)" d="M 297.91533 191.038924 
L 297.91533 190.764987 
L 297.91533 190.764987 
L 297.641393 190.49105 
L 297.093519 191.038924 
L 297.093519 192.682544 
L 297.91533 193.230417 
L 298.463203 192.13467 
L 298.463203 191.31286 
L 298.463203 191.038924 
L 298.73714 191.860734 
L 300.106823 193.778291 
L 300.654697 196.243721 
L 300.654697 197.339468 
L 297.367456 197.613405 
L 296.545646 197.065531 
" style="fill:none;stroke:#8c8c8c;stroke-linecap:square;"/>
   </g>
   <g id="line2d_114">
    <path clip-path="url(#p52a39cfefe)" d="M 302.02438 187.477746 
L 302.02438 187.477746 
L 302.02438 187.477746 
L 302.02438 187.20381 
L 302.02438 187.477746 
L 302.02438 187.751683 
L 303.120127 191.586797 
L 303.394064 192.13467 
L 305.585557 192.408607 
L 306.407367 189.66924 
L 306.133431 187.751683 
L 305.037684 186.382 
L 302.572254 186.929873 
L 301.750443 187.477746 
" style="fill:none;stroke:#8c8c8c;stroke-linecap:square;"/>
   </g>
   <g id="line2d_115">
    <path clip-path="url(#p52a39cfefe)" d="M 310.790355 188.573493 
L 310.790355 188.573493 
L 310.790355 188.573493 
L 310.790355 188.573493 
L 310.790355 188.573493 
L 310.790355 188.84743 
L 311.338228 191.038924 
L 311.886102 192.408607 
L 312.160038 192.408607 
L 312.707912 191.31286 
L 313.529722 192.13467 
L 314.351532 192.13467 
L 314.899405 191.038924 
L 313.529722 188.84743 
L 313.529722 188.84743 
" style="fill:none;stroke:#8c8c8c;stroke-linecap:square;"/>
   </g>
   <g id="line2d_116">
    <path clip-path="url(#p52a39cfefe)" d="M 317.090899 187.477746 
L 317.090899 187.20381 
L 317.364836 187.20381 
L 317.364836 187.477746 
L 317.638772 190.49105 
L 318.734519 192.13467 
L 320.104203 192.13467 
L 320.926013 191.038924 
" style="fill:none;stroke:#8c8c8c;stroke-linecap:square;"/>
   </g>
   <g id="line2d_117">
    <path clip-path="url(#p52a39cfefe)" d="M 317.638772 188.84743 
L 317.364836 188.84743 
L 316.816962 188.84743 
L 316.816962 188.84743 
L 317.638772 188.84743 
L 318.186646 188.84743 
L 319.830266 188.299557 
" style="fill:none;stroke:#8c8c8c;stroke-linecap:square;"/>
   </g>
   <g id="line2d_118">
    <path clip-path="url(#p52a39cfefe)" d="M 323.939317 182.820822 
L 323.939317 182.546886 
L 323.939317 182.546886 
L 323.939317 182.546886 
L 323.66538 182.820822 
L 323.939317 184.190506 
L 324.761127 184.464443 
L 325.035063 183.368696 
L 323.939317 183.368696 
L 323.66538 183.642633 
" style="fill:none;stroke:#8c8c8c;stroke-linecap:square;"/>
   </g>
   <g id="line2d_119">
    <path clip-path="url(#p52a39cfefe)" d="M 328.870177 190.764987 
L 328.870177 190.764987 
L 328.870177 190.764987 
L 329.144114 190.49105 
L 329.418051 190.217113 
L 329.418051 189.943177 
L 328.596241 189.943177 
L 328.322304 191.038924 
L 328.596241 191.586797 
L 329.418051 190.49105 
" style="fill:none;stroke:#8c8c8c;stroke-linecap:square;"/>
   </g>
   <g id="line2d_120">
    <path clip-path="url(#p52a39cfefe)" d="M 322.295696 192.408607 
L 322.02176 192.682544 
L 321.747823 193.230417 
L 322.02176 193.230417 
L 325.856874 188.84743 
L 331.609544 183.642633 
L 333.527101 181.451139 
L 334.622848 180.903265 
L 334.074975 181.177202 
" style="fill:none;stroke:#8c8c8c;stroke-linecap:square;"/>
   </g>
   <g id="line2d_121">
    <path clip-path="url(#p52a39cfefe)" d="M 347.77181 187.20381 
L 347.497873 187.20381 
L 347.497873 187.20381 
L 347.223937 187.20381 
L 347.497873 187.20381 
L 348.319684 186.929873 
L 350.23724 186.655936 
L 351.880861 186.929873 
" style="fill:none;stroke:#8c8c8c;stroke-linecap:square;"/>
   </g>
   <g id="line2d_122">
    <path clip-path="url(#p52a39cfefe)" d="M 347.497873 191.038924 
L 347.497873 191.31286 
L 347.77181 191.31286 
L 349.963304 190.764987 
L 352.702671 190.217113 
L 354.620228 189.395303 
" style="fill:none;stroke:#8c8c8c;stroke-linecap:square;"/>
   </g>
   <g id="line2d_123">
    <path clip-path="url(#p52a39cfefe)" d="M 375.987291 174.602721 
L 375.987291 174.602721 
L 375.987291 174.602721 
L 375.987291 174.602721 
L 376.261228 175.424531 
L 376.535164 176.794215 
L 377.083038 178.985709 
L 377.083038 175.150595 
L 377.083038 174.328785 
L 377.630911 173.506974 
L 378.726658 174.602721 
L 379.274531 175.972405 
L 379.548468 176.246341 
L 380.096341 174.054848 
L 380.644215 172.685164 
L 382.287835 175.424531 
L 382.561772 177.342088 
L 382.835709 179.259645 
L 383.383582 179.533582 
" style="fill:none;stroke:#8c8c8c;stroke-linecap:square;"/>
   </g>
   <g id="line2d_124">
    <path clip-path="url(#p52a39cfefe)" d="M 387.492633 173.780911 
L 387.492633 173.780911 
L 387.766569 174.054848 
L 387.766569 174.328785 
L 387.766569 175.150595 
L 388.040506 176.794215 
L 388.040506 177.068152 
L 388.314443 177.068152 
L 387.218696 175.150595 
L 385.575076 174.328785 
L 384.205392 174.602721 
L 383.657519 176.520278 
L 385.575076 177.616025 
L 387.492633 176.794215 
" style="fill:none;stroke:#8c8c8c;stroke-linecap:square;"/>
   </g>
   <g id="line2d_125">
    <path clip-path="url(#p52a39cfefe)" d="M 390.779873 174.054848 
L 390.779873 173.780911 
L 391.05381 173.506974 
L 391.05381 173.506974 
L 390.779873 173.233038 
L 389.410189 173.780911 
L 390.232 175.150595 
L 390.505936 175.150595 
L 391.327746 175.424531 
L 392.69743 177.342088 
L 391.601683 178.711772 
L 391.05381 178.711772 
" style="fill:none;stroke:#8c8c8c;stroke-linecap:square;"/>
   </g>
   <g id="line2d_126">
    <path clip-path="url(#p52a39cfefe)" d="M 395.710734 172.959101 
L 395.98467 172.959101 
L 395.98467 172.959101 
L 395.98467 172.685164 
L 395.16286 172.959101 
L 394.067113 173.506974 
L 394.067113 174.054848 
L 395.436797 175.150595 
L 396.532544 176.520278 
L 396.532544 177.616025 
L 395.710734 178.163898 
" style="fill:none;stroke:#8c8c8c;stroke-linecap:square;"/>
   </g>
   <g id="line2d_127">
    <path clip-path="url(#p52a39cfefe)" d="M 405.024582 174.054848 
L 405.024582 174.054848 
L 404.750645 174.054848 
L 405.024582 174.876658 
L 405.298518 175.972405 
L 405.572455 177.342088 
L 405.298518 175.972405 
L 405.024582 174.054848 
L 405.024582 170.493671 
L 405.846392 170.219734 
L 406.668202 171.863354 
L 407.216075 173.506974 
L 407.490012 172.411228 
L 407.763949 169.123987 
L 408.859696 166.932493 
L 411.325126 172.685164 
L 411.599063 173.506974 
L 412.420873 176.794215 
L 412.69481 176.794215 
" style="fill:none;stroke:#8c8c8c;stroke-linecap:square;"/>
   </g>
   <g id="line2d_128">
    <path clip-path="url(#p52a39cfefe)" d="M 417.077797 172.959101 
L 417.351734 172.959101 
L 417.351734 172.685164 
L 417.351734 172.411228 
L 417.077797 172.411228 
L 416.80386 172.411228 
L 416.80386 172.411228 
L 415.434177 174.328785 
L 415.98205 175.150595 
L 418.44748 175.424531 
L 418.721417 174.602721 
L 418.173544 174.054848 
L 416.80386 173.233038 
L 416.80386 173.233038 
L 417.077797 173.506974 
L 418.44748 174.602721 
L 419.543227 176.520278 
L 419.817164 178.711772 
L 419.543227 179.807519 
L 417.351734 181.177202 
L 416.255987 180.081455 
" style="fill:none;stroke:#8c8c8c;stroke-linecap:square;"/>
   </g>
   <g id="line2d_129">
    <path clip-path="url(#p52a39cfefe)" d="M 422.008658 171.863354 
L 422.008658 171.863354 
L 422.282594 171.589417 
L 422.282594 171.315481 
L 422.282594 170.767607 
L 421.734721 171.315481 
L 422.008658 172.959101 
L 426.391645 173.506974 
L 426.939518 171.041544 
L 423.378341 167.480367 
L 420.365037 170.767607 
" style="fill:none;stroke:#8c8c8c;stroke-linecap:square;"/>
   </g>
   <g id="line2d_130">
    <path clip-path="url(#p52a39cfefe)" d="M 374.617607 189.121367 
L 375.165481 189.121367 
L 376.809101 188.84743 
L 378.178785 188.84743 
L 381.466025 188.84743 
L 387.766569 188.573493 
L 408.311822 187.751683 
L 423.104404 187.477746 
L 434.335809 187.477746 
L 438.170923 187.20381 
L 437.62305 186.929873 
L 437.075176 186.929873 
" style="fill:none;stroke:#8c8c8c;stroke-linecap:square;"/>
   </g>
   <g id="line2d_131">
    <path clip-path="url(#p52a39cfefe)" d="M 389.136253 198.161278 
L 389.136253 198.161278 
L 389.136253 198.161278 
L 389.136253 198.161278 
L 389.136253 198.161278 
L 389.136253 199.530961 
L 389.410189 203.092139 
L 389.958063 205.009696 
L 389.958063 205.009696 
" style="fill:none;stroke:#8c8c8c;stroke-linecap:square;"/>
   </g>
   <g id="line2d_132">
    <path clip-path="url(#p52a39cfefe)" d="M 388.862316 198.161278 
L 388.862316 198.161278 
L 388.862316 198.161278 
L 388.862316 197.887341 
L 389.136253 197.613405 
L 389.684126 197.613405 
L 392.69743 197.887341 
L 392.69743 198.435215 
L 391.601683 199.530961 
L 391.87562 200.352772 
L 393.245303 201.996392 
L 392.423493 205.009696 
L 389.958063 205.009696 
L 389.136253 204.461822 
L 389.136253 204.187886 
" style="fill:none;stroke:#8c8c8c;stroke-linecap:square;"/>
   </g>
   <g id="line2d_133">
    <path clip-path="url(#p52a39cfefe)" d="M 395.710734 202.818202 
L 395.710734 202.818202 
L 395.710734 202.818202 
L 395.710734 203.092139 
L 395.710734 203.092139 
L 397.354354 203.913949 
L 398.176164 203.366075 
L 398.450101 202.270329 
L 398.450101 201.996392 
" style="fill:none;stroke:#8c8c8c;stroke-linecap:square;"/>
   </g>
   <g id="line2d_134">
    <path clip-path="url(#p52a39cfefe)" d="M 398.997974 198.983088 
L 398.997974 198.983088 
L 398.997974 198.983088 
L 399.271911 198.709151 
L 399.545848 198.983088 
L 400.093721 200.900645 
L 400.367658 203.092139 
L 400.641594 204.187886 
L 401.189468 205.009696 
" style="fill:none;stroke:#8c8c8c;stroke-linecap:square;"/>
   </g>
   <g id="line2d_135">
    <path clip-path="url(#p52a39cfefe)" d="M 402.833088 197.339468 
L 402.833088 197.339468 
L 402.833088 197.339468 
L 403.107025 197.613405 
L 403.107025 198.435215 
L 403.928835 202.270329 
L 404.202772 203.913949 
L 404.202772 204.187886 
L 404.202772 204.461822 
" style="fill:none;stroke:#8c8c8c;stroke-linecap:square;"/>
   </g>
   <g id="line2d_136">
    <path clip-path="url(#p52a39cfefe)" d="M 406.668202 198.161278 
L 406.668202 198.435215 
L 406.668202 198.435215 
L 406.394265 198.983088 
L 406.120329 199.257025 
L 403.928835 200.626708 
L 403.654898 200.626708 
L 403.654898 200.900645 
L 405.024582 201.722455 
L 406.394265 203.092139 
L 407.763949 205.009696 
L 408.037886 205.283632 
" style="fill:none;stroke:#8c8c8c;stroke-linecap:square;"/>
   </g>
   <g id="line2d_137">
    <path clip-path="url(#p52a39cfefe)" d="M 413.790556 198.709151 
L 413.790556 198.709151 
L 413.790556 198.435215 
L 413.790556 198.435215 
L 413.790556 198.709151 
L 413.51662 198.983088 
L 412.968746 200.078835 
L 412.968746 201.448518 
L 414.33843 203.366075 
L 416.80386 203.640012 
L 417.077797 203.366075 
L 416.80386 203.092139 
" style="fill:none;stroke:#8c8c8c;stroke-linecap:square;"/>
   </g>
   <g id="line2d_138">
    <path clip-path="url(#p52a39cfefe)" d="M 414.33843 201.722455 
L 414.064493 201.722455 
L 414.064493 201.448518 
L 414.612366 201.448518 
L 416.529923 200.626708 
L 417.351734 200.078835 
L 417.351734 199.804898 
" style="fill:none;stroke:#8c8c8c;stroke-linecap:square;"/>
   </g>
   <g id="line2d_139">
    <path clip-path="url(#p52a39cfefe)" d="M 414.064493 197.887341 
L 413.790556 197.887341 
L 413.790556 197.887341 
L 414.33843 197.613405 
L 417.351734 197.065531 
" style="fill:none;stroke:#8c8c8c;stroke-linecap:square;"/>
   </g>
   <g id="line2d_140">
    <path clip-path="url(#p52a39cfefe)" d="M 420.091101 200.352772 
L 419.817164 200.352772 
L 419.817164 200.352772 
L 418.721417 200.900645 
L 417.899607 202.270329 
L 418.173544 203.092139 
L 418.173544 203.092139 
L 419.543227 203.640012 
L 420.912911 202.270329 
L 421.186847 201.448518 
L 421.186847 200.900645 
L 420.912911 202.270329 
L 421.186847 203.366075 
L 422.008658 203.640012 
" style="fill:none;stroke:#8c8c8c;stroke-linecap:square;"/>
   </g>
   <g id="line2d_141">
    <path clip-path="url(#p52a39cfefe)" d="M 423.104404 200.352772 
L 423.104404 200.352772 
L 423.104404 200.078835 
L 423.104404 200.078835 
L 423.378341 200.352772 
L 423.652278 201.722455 
L 423.926214 202.544265 
L 424.474088 203.913949 
L 424.474088 203.640012 
L 424.474088 203.366075 
L 424.474088 200.900645 
L 424.748025 200.078835 
L 425.295898 199.530961 
L 426.117708 199.257025 
" style="fill:none;stroke:#8c8c8c;stroke-linecap:square;"/>
   </g>
   <g id="line2d_142">
    <path clip-path="url(#p52a39cfefe)" d="M 427.761328 198.709151 
L 428.035265 198.435215 
L 428.309202 198.435215 
L 428.583138 198.435215 
L 428.857075 199.530961 
L 429.131012 201.448518 
L 429.404949 204.187886 
L 429.404949 204.187886 
" style="fill:none;stroke:#8c8c8c;stroke-linecap:square;"/>
   </g>
   <g id="line2d_143">
    <path clip-path="url(#p52a39cfefe)" d="M 427.761328 201.722455 
L 427.761328 201.448518 
L 427.761328 201.448518 
L 428.035265 201.174582 
L 430.500695 200.352772 
L 431.870379 199.257025 
" style="fill:none;stroke:#8c8c8c;stroke-linecap:square;"/>
   </g>
   <g id="line2d_144">
    <path clip-path="url(#p52a39cfefe)" d="M 433.240062 196.243721 
L 433.240062 195.969784 
L 433.240062 195.969784 
L 433.240062 195.969784 
L 433.240062 195.969784 
L 432.966126 198.435215 
L 433.240062 200.352772 
L 433.513999 201.174582 
L 434.883683 200.078835 
L 435.97943 200.078835 
L 435.97943 200.078835 
L 436.80124 200.900645 
L 437.62305 202.818202 
L 437.62305 202.544265 
" style="fill:none;stroke:#8c8c8c;stroke-linecap:square;"/>
   </g>
   <g id="line2d_145">
    <path clip-path="url(#p52a39cfefe)" d="M 371.604304 203.366075 
L 371.604304 203.092139 
L 371.330367 203.092139 
L 371.330367 203.366075 
L 371.604304 205.283632 
L 371.604304 205.283632 
L 371.604304 205.283632 
L 371.604304 203.366075 
L 371.87824 202.270329 
L 372.152177 201.996392 
L 372.426114 202.544265 
L 372.973987 204.187886 
L 372.973987 204.187886 
L 373.247924 203.366075 
L 374.069734 201.996392 
L 374.069734 201.722455 
L 374.891544 201.722455 
L 375.165481 202.544265 
L 375.987291 205.009696 
L 375.987291 205.009696 
" style="fill:none;stroke:#8c8c8c;stroke-linecap:square;"/>
   </g>
   <g id="line2d_146">
    <path clip-path="url(#p52a39cfefe)" d="M 377.904848 202.818202 
L 377.904848 202.544265 
L 377.904848 202.818202 
L 378.178785 203.366075 
L 378.178785 204.187886 
L 378.452721 204.461822 
L 378.452721 204.461822 
L 377.630911 202.818202 
L 376.809101 202.544265 
L 375.987291 203.092139 
L 375.987291 203.640012 
L 377.356974 204.461822 
L 378.726658 204.187886 
L 379.274531 203.640012 
L 380.096341 202.818202 
L 380.096341 202.544265 
L 379.548468 202.270329 
L 379.274531 202.270329 
L 378.726658 203.092139 
L 379.822405 203.640012 
L 381.739962 205.283632 
L 380.918152 205.831506 
L 380.644215 205.557569 
" style="fill:none;stroke:#8c8c8c;stroke-linecap:square;"/>
   </g>
   <g id="line2d_147">
    <path clip-path="url(#p52a39cfefe)" d="M 382.013898 201.996392 
L 382.013898 201.996392 
L 382.013898 201.448518 
L 382.013898 201.448518 
L 381.739962 201.174582 
L 381.466025 201.174582 
L 381.192088 201.448518 
L 381.739962 202.544265 
L 382.561772 203.366075 
L 383.383582 204.187886 
L 383.931455 205.831506 
L 382.835709 206.105442 
" style="fill:none;stroke:#8c8c8c;stroke-linecap:square;"/>
   </g>
  </g>
 </g>
 <defs>
  <clipPath id="p52a39cfefe">
   <rect height="271.8" width="465.555432" x="7.2" y="7.2"/>
  </clipPath>
 </defs>
</svg>
