<?xml version="1.0" encoding="utf-8" standalone="no"?>
<!DOCTYPE svg PUBLIC "-//W3C//DTD SVG 1.1//EN"
  "http://www.w3.org/Graphics/SVG/1.1/DTD/svg11.dtd">
<!-- Created with matplotlib (https://matplotlib.org/) -->
<svg height="286.2pt" version="1.1" viewBox="0 0 542.626697 286.2" width="542.626697pt" xmlns="http://www.w3.org/2000/svg" xmlns:xlink="http://www.w3.org/1999/xlink">
 <metadata>
  <rdf:RDF xmlns:cc="http://creativecommons.org/ns#" xmlns:dc="http://purl.org/dc/elements/1.1/" xmlns:rdf="http://www.w3.org/1999/02/22-rdf-syntax-ns#">
   <cc:Work>
    <dc:type rdf:resource="http://purl.org/dc/dcmitype/StillImage"/>
    <dc:date>2024-11-15T16:03:38.814649</dc:date>
    <dc:format>image/svg+xml</dc:format>
    <dc:creator>
     <cc:Agent>
      <dc:title>Matplotlib v3.3.4, https://matplotlib.org/</dc:title>
     </cc:Agent>
    </dc:creator>
   </cc:Work>
  </rdf:RDF>
 </metadata>
 <defs>
  <style type="text/css">*{stroke-linecap:butt;stroke-linejoin:round;}</style>
 </defs>
 <g id="figure_1">
  <g id="patch_1">
   <path d="M 0 286.2 
L 542.626697 286.2 
L 542.626697 0 
L 0 0 
z
" style="fill:#ffffff;"/>
  </g>
  <g id="axes_1">
   <g id="line2d_1">
    <path clip-path="url(#p91b9df5a8f)" d="M 47.422151 68.190086 
L 45.745064 68.190086 
L 45.745064 68.190086 
L 45.186035 68.749116 
L 44.627005 68.749116 
L 42.949918 70.426203 
L 41.831859 72.66232 
L 41.27283 73.221349 
L 41.27283 73.780378 
L 40.154772 76.016495 
L 40.154772 77.693583 
L 39.595742 78.811641 
L 39.595742 83.842904 
L 40.154772 84.960963 
L 40.154772 86.079021 
L 40.713801 87.756109 
L 40.713801 88.874167 
L 41.831859 92.228342 
L 42.390889 93.346401 
L 42.949918 93.90543 
L 43.508947 95.023488 
L 46.863122 98.377664 
L 47.981181 98.936693 
L 48.54021 99.495722 
L 49.658268 99.495722 
L 53.012443 101.17281 
L 54.130502 101.17281 
L 55.24856 101.731839 
L 61.397882 101.731839 
L 62.51594 101.17281 
L 63.074969 101.17281 
L 64.193028 100.61378 
L 65.311086 100.61378 
L 66.429144 100.054751 
L 66.988174 99.495722 
L 68.665261 98.936693 
L 69.78332 97.818634 
L 71.460407 96.700576 
L 73.137495 95.023488 
L 74.255553 93.346401 
L 75.373612 92.228342 
L 76.49167 90.551255 
L 77.050699 89.992225 
L 77.609729 88.315138 
L 78.168758 87.756109 
L 78.727787 86.63805 
L 78.727787 86.079021 
L 79.286816 84.960963 
L 79.286816 79.370671 
L 78.727787 77.693583 
L 78.727787 76.575524 
L 78.168758 74.898437 
L 77.609729 73.780378 
L 77.050699 73.221349 
L 76.49167 72.103291 
L 76.49167 71.544262 
L 74.814582 69.867174 
L 74.255553 68.749116 
L 72.578466 67.072028 
L 70.342349 65.95397 
L 69.78332 65.39494 
L 68.665261 64.835911 
L 68.106232 64.835911 
L 65.870115 63.717853 
L 63.633998 63.717853 
L 62.51594 63.158824 
L 61.397882 63.158824 
L 60.279823 63.717853 
L 58.602735 63.717853 
L 57.484677 64.276882 
L 56.366619 64.276882 
L 55.807589 64.835911 
L 54.689531 64.835911 
L 53.571473 65.39494 
L 53.012443 65.39494 
L 51.894385 65.95397 
L 46.304093 65.95397 
L 45.745064 66.512999 
L 44.067976 66.512999 
L 43.508947 67.072028 
L 43.508947 67.072028 
L 42.949918 67.072028 
L 42.949918 67.072028 
" style="fill:none;stroke:#8c8c8c;stroke-linecap:square;"/>
   </g>
   <g id="line2d_2">
    <path clip-path="url(#p91b9df5a8f)" d="M 49.658268 66.512999 
L 49.658268 66.512999 
L 49.099239 66.512999 
L 48.54021 66.512999 
L 48.54021 66.512999 
L 47.981181 66.512999 
L 47.981181 67.072028 
" style="fill:none;stroke:#8c8c8c;stroke-linecap:square;"/>
   </g>
   <g id="line2d_3">
    <path clip-path="url(#p91b9df5a8f)" d="M 46.863122 114.030481 
L 46.863122 114.030481 
L 46.863122 114.030481 
L 46.863122 114.030481 
L 46.863122 113.471452 
L 46.304093 113.471452 
L 45.186035 113.471452 
L 43.508947 114.58951 
L 42.390889 115.14854 
L 40.713801 116.266598 
L 40.154772 117.384657 
L 40.154772 117.943686 
L 40.154772 118.502715 
L 40.713801 119.061744 
L 42.390889 120.179803 
L 43.508947 121.297861 
L 44.627005 122.974949 
L 45.745064 124.652036 
L 45.745064 125.770095 
L 45.186035 127.447182 
L 44.067976 128.565241 
L 42.390889 128.565241 
L 40.713801 128.006211 
L 39.595742 127.447182 
L 39.595742 126.329124 
" style="fill:none;stroke:#8c8c8c;stroke-linecap:square;"/>
   </g>
   <g id="line2d_4">
    <path clip-path="url(#p91b9df5a8f)" d="M 51.335356 124.093007 
L 51.335356 124.093007 
L 51.335356 124.652036 
L 51.894385 125.211065 
L 52.453414 126.329124 
L 53.012443 126.888153 
L 54.130502 126.888153 
L 54.689531 126.888153 
L 55.807589 126.329124 
L 56.366619 125.211065 
L 56.366619 123.533978 
L 56.366619 122.415919 
L 56.366619 121.85689 
" style="fill:none;stroke:#8c8c8c;stroke-linecap:square;"/>
   </g>
   <g id="line2d_5">
    <path clip-path="url(#p91b9df5a8f)" d="M 59.161765 122.415919 
L 59.161765 122.974949 
L 59.161765 123.533978 
L 59.720794 124.093007 
L 59.720794 124.652036 
L 60.279823 125.211065 
L 60.279823 125.770095 
L 60.279823 126.329124 
L 60.838852 126.329124 
L 61.397882 125.211065 
L 61.956911 124.093007 
L 63.074969 123.533978 
L 64.193028 123.533978 
L 65.311086 124.093007 
L 66.429144 124.652036 
L 66.988174 126.329124 
L 67.547203 126.888153 
L 68.106232 127.447182 
L 68.106232 128.006211 
" style="fill:none;stroke:#8c8c8c;stroke-linecap:square;"/>
   </g>
   <g id="line2d_6">
    <path clip-path="url(#p91b9df5a8f)" d="M 87.672254 80.488729 
L 87.672254 80.488729 
L 87.672254 80.488729 
L 87.672254 80.488729 
L 87.672254 80.488729 
L 87.672254 80.488729 
L 88.231283 80.488729 
L 88.231283 79.9297 
L 88.790313 79.9297 
L 89.349342 79.9297 
L 90.4674 79.9297 
L 91.026429 79.9297 
L 92.703517 79.9297 
L 94.939634 79.9297 
L 97.73478 80.488729 
L 101.088955 80.488729 
L 103.325072 80.488729 
L 107.238276 81.047758 
L 109.474393 81.047758 
L 112.269539 81.047758 
L 114.505656 81.047758 
L 116.741773 81.047758 
L 118.97789 81.047758 
L 120.654977 81.047758 
L 124.009153 81.047758 
L 127.922357 81.047758 
L 132.394591 81.606787 
L 139.102941 81.606787 
L 146.370321 81.606787 
L 151.960613 82.165817 
L 158.109934 82.165817 
L 163.700226 82.724846 
L 168.731489 82.724846 
L 172.644694 83.283875 
L 177.116927 83.283875 
L 181.030132 83.283875 
L 184.943336 83.283875 
L 187.738482 83.283875 
L 191.651687 83.283875 
L 194.446833 83.283875 
L 198.360037 83.283875 
L 201.714212 83.283875 
L 207.304504 83.283875 
L 210.65868 83.283875 
L 214.571884 83.283875 
L 220.721205 82.724846 
L 226.311497 82.724846 
L 232.460819 82.724846 
L 236.933052 82.165817 
L 242.523344 82.165817 
L 247.554607 81.606787 
L 252.026841 81.606787 
L 256.499074 81.606787 
L 259.85325 82.165817 
L 264.325483 82.165817 
L 267.679659 82.165817 
L 272.710921 82.165817 
L 276.065097 82.165817 
L 279.978301 82.165817 
L 286.127622 82.165817 
L 290.599856 81.606787 
L 295.631119 81.606787 
L 299.544323 81.047758 
L 305.134615 81.047758 
L 309.04782 80.488729 
L 314.079083 80.488729 
L 318.551316 79.9297 
L 323.582579 79.9297 
L 327.495784 79.370671 
L 333.645105 79.370671 
L 338.117339 78.811641 
L 343.148601 78.252612 
L 347.620835 78.252612 
L 350.415981 77.693583 
L 355.447244 77.693583 
L 359.919478 77.693583 
L 363.832682 77.693583 
L 370.541032 78.252612 
L 375.013266 78.252612 
L 380.603558 78.811641 
L 385.634821 78.811641 
L 390.666084 78.811641 
L 394.579288 78.811641 
L 400.72861 78.811641 
L 404.641814 78.811641 
L 410.232106 79.370671 
L 414.70434 79.370671 
L 420.853661 79.9297 
L 426.443953 79.9297 
L 432.034245 80.488729 
L 437.065508 80.488729 
L 443.214829 81.047758 
L 450.482209 81.606787 
L 454.954443 81.606787 
L 459.426676 81.606787 
L 464.457939 81.606787 
L 468.371144 81.047758 
L 473.961436 81.047758 
L 478.433669 80.488729 
L 483.464932 79.9297 
L 486.819107 79.9297 
L 492.968429 79.9297 
" style="fill:none;stroke:#8c8c8c;stroke-linecap:square;"/>
   </g>
   <g id="line2d_7">
    <path clip-path="url(#p91b9df5a8f)" d="M 490.732312 72.66232 
L 490.732312 72.66232 
L 490.173283 72.103291 
L 490.173283 72.103291 
L 490.173283 72.103291 
L 490.173283 72.103291 
L 490.732312 72.103291 
L 491.291341 72.66232 
L 492.968429 73.221349 
L 494.645516 73.780378 
L 496.322604 74.339408 
L 497.440662 74.898437 
L 497.999691 75.457466 
L 498.558721 76.016495 
L 498.558721 76.016495 
L 499.11775 76.575524 
L 499.11775 76.575524 
L 498.558721 77.134554 
L 497.999691 78.252612 
L 496.881633 79.370671 
L 495.763575 80.488729 
L 494.645516 81.606787 
L 494.086487 82.724846 
L 494.086487 82.724846 
L 494.086487 83.283875 
" style="fill:none;stroke:#8c8c8c;stroke-linecap:square;"/>
   </g>
   <g id="line2d_8">
    <path clip-path="url(#p91b9df5a8f)" d="M 45.186035 20.672604 
L 45.186035 20.672604 
L 45.186035 20.672604 
L 45.186035 20.672604 
L 45.186035 20.672604 
L 45.186035 20.672604 
L 45.186035 21.231633 
L 45.186035 21.790662 
L 45.186035 22.908721 
L 44.067976 25.144838 
L 43.508947 27.939984 
L 43.508947 30.1761 
L 43.508947 32.412217 
L 44.627005 34.648334 
L 46.304093 35.207363 
L 48.54021 35.766392 
L 49.658268 35.207363 
L 50.776327 34.648334 
L 50.776327 34.089305 
" style="fill:none;stroke:#8c8c8c;stroke-linecap:square;"/>
   </g>
   <g id="line2d_9">
    <path clip-path="url(#p91b9df5a8f)" d="M 39.595742 28.499013 
L 39.595742 28.499013 
L 39.595742 28.499013 
L 39.595742 28.499013 
L 40.154772 27.939984 
L 42.390889 27.939984 
L 44.627005 27.380954 
L 46.863122 26.821925 
" style="fill:none;stroke:#8c8c8c;stroke-linecap:square;"/>
   </g>
   <g id="line2d_10">
    <path clip-path="url(#p91b9df5a8f)" d="M 55.24856 25.703867 
L 55.24856 25.144838 
L 55.24856 25.703867 
L 55.24856 26.262896 
L 55.24856 27.380954 
L 55.24856 30.1761 
L 55.24856 32.412217 
L 55.24856 34.648334 
L 55.24856 35.766392 
" style="fill:none;stroke:#8c8c8c;stroke-linecap:square;"/>
   </g>
   <g id="line2d_11">
    <path clip-path="url(#p91b9df5a8f)" d="M 96.616722 20.672604 
L 96.616722 20.113575 
L 96.616722 20.113575 
L 96.616722 19.554545 
L 96.616722 19.554545 
L 96.616722 20.113575 
L 96.616722 21.231633 
L 96.616722 23.46775 
L 97.175751 26.821925 
L 97.73478 29.617071 
L 97.73478 32.971246 
L 98.293809 34.648334 
L 98.293809 35.766392 
L 98.293809 35.766392 
" style="fill:none;stroke:#8c8c8c;stroke-linecap:square;"/>
   </g>
   <g id="line2d_12">
    <path clip-path="url(#p91b9df5a8f)" d="M 97.73478 30.1761 
L 97.73478 30.1761 
L 97.73478 30.1761 
L 97.73478 29.058042 
L 98.293809 27.380954 
L 99.411868 26.262896 
L 100.529926 25.144838 
L 101.647984 25.144838 
L 102.766043 26.262896 
L 103.325072 27.939984 
L 103.884101 30.1761 
L 105.00216 32.412217 
L 105.561189 34.089305 
L 105.561189 34.648334 
L 105.561189 34.648334 
L 105.561189 34.648334 
" style="fill:none;stroke:#8c8c8c;stroke-linecap:square;"/>
   </g>
   <g id="line2d_13">
    <path clip-path="url(#p91b9df5a8f)" d="M 110.033422 29.058042 
L 110.033422 28.499013 
L 109.474393 28.499013 
L 109.474393 29.058042 
L 109.474393 30.1761 
L 109.474393 31.853188 
L 110.033422 33.530276 
L 111.71051 34.648334 
L 112.828568 35.207363 
L 113.946627 34.089305 
L 114.505656 32.971246 
L 114.505656 31.294159 
L 113.946627 30.1761 
L 112.828568 29.058042 
L 111.71051 28.499013 
L 111.151481 29.058042 
L 110.592452 29.058042 
" style="fill:none;stroke:#8c8c8c;stroke-linecap:square;"/>
   </g>
   <g id="line2d_14">
    <path clip-path="url(#p91b9df5a8f)" d="M 117.859831 24.026779 
L 117.859831 24.026779 
L 118.418861 23.46775 
L 118.418861 23.46775 
L 118.418861 23.46775 
L 118.97789 24.026779 
L 119.536919 25.703867 
L 120.095948 28.499013 
L 120.654977 31.294159 
L 121.214007 33.530276 
L 121.773036 34.089305 
" style="fill:none;stroke:#8c8c8c;stroke-linecap:square;"/>
   </g>
   <g id="line2d_15">
    <path clip-path="url(#p91b9df5a8f)" d="M 118.418861 30.73513 
L 118.418861 30.73513 
L 117.859831 30.73513 
L 117.859831 30.1761 
L 118.418861 29.617071 
L 120.095948 29.058042 
L 122.891094 28.499013 
L 125.68624 27.939984 
" style="fill:none;stroke:#8c8c8c;stroke-linecap:square;"/>
   </g>
   <g id="line2d_16">
    <path clip-path="url(#p91b9df5a8f)" d="M 455.513472 21.790662 
L 455.513472 21.790662 
L 455.513472 23.46775 
L 455.513472 25.144838 
L 455.513472 27.939984 
L 455.513472 31.294159 
L 456.072501 33.530276 
L 456.63153 35.766392 
L 456.63153 37.44348 
L 456.63153 39.120568 
" style="fill:none;stroke:#8c8c8c;stroke-linecap:square;"/>
   </g>
   <g id="line2d_17">
    <path clip-path="url(#p91b9df5a8f)" d="M 454.395413 32.412217 
L 454.395413 32.412217 
L 454.395413 32.412217 
L 454.954443 31.853188 
L 455.513472 31.294159 
L 456.63153 30.73513 
L 457.749589 29.617071 
L 459.426676 28.499013 
L 460.544735 27.939984 
L 461.662793 28.499013 
L 462.221822 29.058042 
L 462.780852 31.294159 
L 463.89891 33.530276 
L 463.89891 35.207363 
L 464.457939 36.884451 
L 465.016968 37.44348 
L 465.016968 37.44348 
" style="fill:none;stroke:#8c8c8c;stroke-linecap:square;"/>
   </g>
   <g id="line2d_18">
    <path clip-path="url(#p91b9df5a8f)" d="M 467.253085 33.530276 
L 467.253085 33.530276 
L 467.253085 33.530276 
L 467.253085 33.530276 
L 467.253085 33.530276 
L 467.253085 34.089305 
L 467.812114 35.766392 
L 468.371144 36.884451 
L 469.489202 38.002509 
L 471.16629 38.002509 
L 472.843377 37.44348 
L 473.402406 36.884451 
L 473.961436 35.207363 
L 473.961436 33.530276 
L 473.402406 31.853188 
L 472.284348 31.294159 
L 470.60726 31.294159 
L 468.930173 31.853188 
L 467.812114 32.971246 
L 466.694056 34.089305 
" style="fill:none;stroke:#8c8c8c;stroke-linecap:square;"/>
   </g>
   <g id="line2d_19">
    <path clip-path="url(#p91b9df5a8f)" d="M 480.110757 27.939984 
L 480.110757 27.939984 
L 480.669786 27.939984 
L 480.669786 27.380954 
L 480.669786 27.939984 
L 481.228815 28.499013 
L 481.228815 30.1761 
L 481.787845 32.971246 
L 481.787845 35.766392 
L 482.346874 38.002509 
L 482.346874 39.679597 
L 482.905903 40.238626 
" style="fill:none;stroke:#8c8c8c;stroke-linecap:square;"/>
   </g>
   <g id="line2d_20">
    <path clip-path="url(#p91b9df5a8f)" d="M 478.433669 31.853188 
L 478.433669 31.853188 
L 477.87464 31.294159 
L 477.87464 31.294159 
L 479.551728 31.294159 
L 481.787845 31.294159 
L 484.582991 31.294159 
" style="fill:none;stroke:#8c8c8c;stroke-linecap:square;"/>
   </g>
   <g id="line2d_21">
    <path clip-path="url(#p91b9df5a8f)" d="M 42.949918 158.752818 
L 42.949918 158.752818 
L 42.949918 158.752818 
L 42.949918 158.752818 
L 43.508947 158.752818 
L 43.508947 158.752818 
L 43.508947 158.752818 
L 43.508947 159.311847 
L 43.508947 159.870876 
L 43.508947 160.988935 
L 42.949918 162.666022 
L 42.949918 165.461168 
L 42.949918 168.815343 
L 42.949918 171.05146 
L 44.067976 172.728548 
L 45.745064 174.405636 
L 46.863122 174.964665 
L 47.981181 174.405636 
L 49.099239 173.846606 
" style="fill:none;stroke:#8c8c8c;stroke-linecap:square;"/>
   </g>
   <g id="line2d_22">
    <path clip-path="url(#p91b9df5a8f)" d="M 39.036713 167.138256 
L 38.477684 167.697285 
L 38.477684 167.697285 
L 38.477684 167.697285 
L 39.595742 167.697285 
L 42.390889 167.138256 
L 44.627005 167.138256 
L 45.745064 167.138256 
" style="fill:none;stroke:#8c8c8c;stroke-linecap:square;"/>
   </g>
   <g id="line2d_23">
    <path clip-path="url(#p91b9df5a8f)" d="M 53.571473 172.169519 
L 53.571473 172.169519 
L 52.453414 172.169519 
L 51.894385 171.61049 
L 51.894385 171.61049 
L 51.894385 170.492431 
L 53.012443 169.374373 
L 54.689531 168.815343 
L 56.925648 168.256314 
L 58.043706 168.815343 
L 58.602735 169.374373 
L 59.161765 170.492431 
L 58.602735 172.169519 
L 57.484677 174.405636 
L 56.925648 176.082723 
L 56.925648 177.200782 
L 58.043706 178.31884 
L 59.161765 178.877869 
L 60.279823 178.877869 
L 61.956911 178.31884 
" style="fill:none;stroke:#8c8c8c;stroke-linecap:square;"/>
   </g>
   <g id="line2d_24">
    <path clip-path="url(#p91b9df5a8f)" d="M 98.852838 153.162526 
L 98.852838 153.162526 
L 98.852838 153.162526 
L 98.852838 152.603497 
L 98.852838 153.162526 
L 99.411868 154.280584 
L 99.411868 155.957672 
L 100.529926 160.988935 
L 101.647984 165.461168 
L 102.207014 168.815343 
L 103.325072 171.61049 
L 103.325072 172.169519 
L 103.325072 172.169519 
" style="fill:none;stroke:#8c8c8c;stroke-linecap:square;"/>
   </g>
   <g id="line2d_25">
    <path clip-path="url(#p91b9df5a8f)" d="M 99.970897 162.666022 
L 99.970897 162.666022 
L 99.970897 162.666022 
L 99.970897 162.666022 
L 100.529926 161.547964 
L 101.647984 160.429905 
L 103.884101 158.752818 
L 105.561189 157.634759 
L 107.238276 157.634759 
L 108.356335 158.193789 
L 109.474393 159.870876 
L 110.592452 162.666022 
L 111.151481 165.461168 
L 111.151481 167.138256 
L 111.71051 168.815343 
L 111.71051 170.492431 
L 111.71051 171.05146 
L 111.71051 171.61049 
" style="fill:none;stroke:#8c8c8c;stroke-linecap:square;"/>
   </g>
   <g id="line2d_26">
    <path clip-path="url(#p91b9df5a8f)" d="M 116.182744 163.225051 
L 116.182744 163.225051 
L 115.623715 163.784081 
L 115.623715 164.34311 
L 115.623715 166.020197 
L 116.182744 167.697285 
L 117.300802 169.933402 
L 118.418861 170.492431 
L 119.536919 171.05146 
L 120.654977 169.933402 
L 121.214007 168.256314 
L 120.654977 165.461168 
L 119.536919 162.666022 
L 117.859831 161.547964 
L 116.741773 160.988935 
L 115.623715 162.106993 
L 114.505656 163.784081 
L 114.505656 165.461168 
L 114.505656 166.020197 
" style="fill:none;stroke:#8c8c8c;stroke-linecap:square;"/>
   </g>
   <g id="line2d_27">
    <path clip-path="url(#p91b9df5a8f)" d="M 124.009153 157.07573 
L 124.009153 157.07573 
L 124.009153 156.516701 
L 124.009153 155.957672 
L 124.009153 156.516701 
L 124.568182 157.07573 
L 125.127211 159.311847 
L 126.245269 162.666022 
L 127.363328 166.020197 
L 127.922357 167.697285 
L 128.481386 169.374373 
" style="fill:none;stroke:#8c8c8c;stroke-linecap:square;"/>
   </g>
   <g id="line2d_28">
    <path clip-path="url(#p91b9df5a8f)" d="M 123.450123 161.547964 
L 122.891094 161.547964 
L 122.891094 160.988935 
L 123.450123 160.429905 
L 125.127211 160.429905 
L 127.363328 159.870876 
L 130.717503 159.311847 
L 132.394591 158.752818 
" style="fill:none;stroke:#8c8c8c;stroke-linecap:square;"/>
   </g>
   <g id="line2d_29">
    <path clip-path="url(#p91b9df5a8f)" d="M 466.135027 153.162526 
L 466.135027 153.162526 
L 466.135027 153.721555 
L 466.135027 154.839613 
L 466.694056 156.516701 
L 467.253085 158.193789 
L 467.812114 159.870876 
L 467.812114 160.429905 
L 467.812114 159.870876 
L 467.812114 159.311847 
L 467.812114 157.634759 
L 467.812114 156.516701 
L 467.812114 154.280584 
L 468.371144 153.162526 
L 468.930173 152.044467 
L 469.489202 152.044467 
L 470.048231 151.485438 
L 471.16629 152.603497 
L 471.725319 153.721555 
L 472.284348 155.957672 
L 472.843377 157.07573 
L 472.843377 158.193789 
L 472.284348 158.193789 
L 472.284348 157.634759 
L 472.284348 155.398643 
L 472.843377 153.162526 
L 473.961436 150.926409 
L 475.079494 150.36738 
L 475.638523 150.36738 
L 476.756582 151.485438 
L 477.87464 153.162526 
L 478.992698 156.516701 
L 478.992698 158.752818 
L 479.551728 159.870876 
L 479.551728 160.429905 
" style="fill:none;stroke:#8c8c8c;stroke-linecap:square;"/>
   </g>
   <g id="line2d_30">
    <path clip-path="url(#p91b9df5a8f)" d="M 480.669786 157.634759 
L 480.669786 157.634759 
L 480.669786 157.07573 
L 480.669786 157.07573 
L 480.669786 157.07573 
L 481.787845 156.516701 
L 482.905903 156.516701 
L 484.023961 155.398643 
L 485.14202 154.280584 
L 485.14202 153.162526 
L 485.14202 152.044467 
L 485.14202 151.485438 
L 484.023961 151.485438 
L 482.905903 152.603497 
L 481.787845 154.839613 
L 481.787845 157.07573 
L 482.346874 159.311847 
L 483.464932 160.429905 
L 485.14202 160.429905 
L 486.260078 160.429905 
" style="fill:none;stroke:#8c8c8c;stroke-linecap:square;"/>
   </g>
   <g id="line2d_31">
    <path clip-path="url(#p91b9df5a8f)" d="M 490.732312 157.07573 
L 491.291341 157.07573 
L 491.85037 155.957672 
L 492.409399 155.398643 
L 492.409399 154.839613 
L 492.968429 154.280584 
L 492.968429 153.721555 
L 492.409399 153.162526 
L 491.85037 153.162526 
L 490.732312 153.162526 
L 489.614253 154.280584 
L 489.055224 155.398643 
L 489.055224 157.634759 
L 490.173283 158.752818 
L 491.85037 158.752818 
L 493.527458 157.634759 
L 494.645516 155.398643 
L 494.645516 152.044467 
L 494.645516 147.572234 
L 494.645516 144.218058 
L 494.086487 141.422912 
L 494.086487 140.304854 
L 494.086487 139.745825 
L 494.086487 140.863883 
L 494.086487 143.659029 
L 494.645516 148.690292 
L 495.204545 152.603497 
L 495.763575 156.516701 
L 496.322604 158.193789 
L 496.322604 159.311847 
" style="fill:none;stroke:#8c8c8c;stroke-linecap:square;"/>
   </g>
   <g id="line2d_32">
    <path clip-path="url(#p91b9df5a8f)" d="M 353.211127 139.745825 
L 353.211127 138.068737 
L 351.534039 138.068737 
L 350.97501 138.627766 
L 350.415981 138.627766 
L 349.856952 139.186796 
L 349.297923 139.186796 
L 348.738893 139.745825 
L 348.179864 139.745825 
L 343.148601 144.777088 
L 343.148601 144.777088 
L 342.589572 145.895146 
L 342.030543 146.454175 
L 342.030543 147.013204 
L 341.471514 147.572234 
L 341.471514 148.131263 
L 340.912485 148.690292 
L 340.912485 149.80835 
L 340.353455 150.36738 
L 340.353455 153.162526 
L 340.912485 153.721555 
L 340.912485 154.839613 
L 341.471514 155.398643 
L 341.471514 155.957672 
L 342.030543 156.516701 
L 342.030543 157.634759 
L 343.148601 158.752818 
L 343.148601 159.870876 
L 343.707631 160.429905 
L 344.26666 161.547964 
L 345.384718 162.666022 
L 345.943747 163.784081 
L 349.297923 167.138256 
L 350.415981 167.697285 
L 350.97501 167.697285 
L 351.534039 168.256314 
L 352.652098 168.815343 
L 354.329186 168.815343 
L 354.888215 169.374373 
L 361.037536 169.374373 
L 362.155594 168.815343 
L 362.714624 168.815343 
L 363.273653 168.256314 
L 363.832682 168.256314 
L 364.95074 167.138256 
L 366.068799 166.579227 
L 367.186857 165.461168 
L 367.745886 164.34311 
L 367.745886 163.784081 
L 368.863945 163.225051 
L 368.863945 162.106993 
L 369.422974 161.547964 
L 369.982003 160.429905 
L 369.982003 159.870876 
L 371.100062 158.752818 
L 371.100062 157.07573 
L 371.659091 156.516701 
L 372.21812 155.398643 
L 372.21812 153.162526 
L 372.777149 152.603497 
L 372.777149 145.895146 
L 372.21812 145.336117 
L 372.21812 144.218058 
L 371.659091 143.659029 
L 371.659091 143.1 
L 371.100062 141.981942 
L 371.100062 141.422912 
L 370.541032 140.304854 
L 369.982003 139.745825 
L 369.422974 138.627766 
L 367.186857 136.39165 
L 366.627828 136.39165 
L 366.068799 135.83262 
L 364.95074 135.273591 
L 364.391711 135.273591 
L 363.273653 134.714562 
L 358.801419 134.714562 
L 357.683361 135.273591 
L 357.124332 135.273591 
L 355.447244 135.83262 
L 354.888215 135.83262 
L 353.770156 136.39165 
L 352.652098 136.39165 
L 352.093069 136.950679 
L 351.534039 136.950679 
L 350.415981 137.509708 
L 350.415981 137.509708 
" style="fill:none;stroke:#8c8c8c;stroke-linecap:square;"/>
   </g>
   <g id="line2d_33">
    <path clip-path="url(#p91b9df5a8f)" d="M 352.093069 153.162526 
L 352.093069 152.603497 
L 352.093069 152.603497 
L 352.093069 152.603497 
L 352.093069 152.603497 
L 352.093069 152.603497 
L 352.093069 152.603497 
L 352.652098 152.603497 
L 352.652098 153.162526 
L 352.652098 153.162526 
L 352.652098 153.721555 
L 353.211127 154.280584 
L 353.211127 154.839613 
L 353.770156 155.398643 
L 354.329186 155.957672 
L 354.888215 156.516701 
L 355.447244 157.07573 
L 356.006273 157.634759 
L 356.565302 157.634759 
L 357.124332 157.634759 
L 357.683361 157.634759 
L 357.683361 157.634759 
L 358.24239 157.07573 
L 358.801419 156.516701 
L 359.360448 155.957672 
L 359.360448 155.398643 
L 359.919478 154.839613 
L 359.919478 153.721555 
L 359.919478 152.603497 
L 359.919478 151.485438 
L 359.919478 150.926409 
L 359.919478 149.249321 
L 359.360448 147.572234 
L 359.360448 145.336117 
L 359.360448 144.218058 
L 359.360448 143.659029 
L 358.801419 142.540971 
L 358.801419 141.981942 
L 358.801419 141.422912 
L 358.801419 140.304854 
L 358.801419 139.745825 
L 358.801419 139.186796 
L 358.801419 138.627766 
L 358.801419 138.627766 
L 358.801419 138.068737 
L 358.801419 138.068737 
L 358.24239 138.068737 
L 358.24239 137.509708 
" style="fill:none;stroke:#8c8c8c;stroke-linecap:square;"/>
   </g>
   <g id="line2d_34">
    <path clip-path="url(#p91b9df5a8f)" d="M 197.241979 150.926409 
L 197.241979 150.926409 
L 197.241979 150.926409 
L 197.241979 150.926409 
L 197.241979 150.926409 
L 197.241979 150.926409 
L 197.241979 150.926409 
L 196.682949 150.926409 
L 196.682949 150.926409 
L 196.682949 151.485438 
L 196.682949 151.485438 
L 196.12392 151.485438 
L 196.12392 151.485438 
L 196.12392 152.044467 
L 195.564891 152.044467 
L 195.564891 152.044467 
L 195.564891 152.603497 
L 195.564891 152.603497 
L 195.005862 153.162526 
L 195.005862 153.162526 
L 195.005862 153.721555 
L 195.005862 153.721555 
L 195.005862 154.280584 
L 195.005862 154.280584 
L 195.005862 154.839613 
L 195.005862 154.839613 
L 195.005862 155.398643 
L 195.005862 155.398643 
L 195.005862 155.957672 
L 195.005862 155.957672 
L 195.005862 155.957672 
L 195.005862 156.516701 
L 195.005862 156.516701 
L 195.005862 156.516701 
L 195.564891 157.07573 
L 195.564891 157.07573 
L 195.564891 157.07573 
L 195.564891 157.634759 
L 196.12392 157.634759 
L 196.12392 157.634759 
L 196.12392 158.193789 
L 196.682949 158.193789 
L 196.682949 158.193789 
L 197.241979 158.193789 
L 197.241979 158.752818 
L 197.801008 158.752818 
L 197.801008 158.752818 
L 198.360037 158.752818 
L 198.919066 158.752818 
L 198.919066 158.752818 
L 199.478095 158.752818 
L 199.478095 158.752818 
L 200.037125 158.752818 
L 200.037125 158.752818 
L 200.596154 158.752818 
L 200.596154 158.752818 
L 201.155183 158.193789 
L 201.155183 158.193789 
L 201.714212 158.193789 
L 201.714212 157.634759 
L 202.273241 157.634759 
L 202.273241 157.634759 
L 202.273241 157.07573 
L 202.832271 157.07573 
L 202.832271 156.516701 
L 202.832271 156.516701 
L 202.832271 155.957672 
L 202.832271 155.957672 
L 202.832271 155.398643 
L 202.832271 154.839613 
L 202.832271 154.839613 
L 202.832271 154.280584 
L 202.273241 153.721555 
L 202.273241 153.721555 
L 202.273241 153.162526 
L 201.714212 153.162526 
L 201.714212 152.603497 
L 201.714212 152.044467 
L 201.155183 152.044467 
L 201.155183 151.485438 
L 201.155183 151.485438 
L 200.596154 150.926409 
L 200.596154 150.926409 
L 200.037125 150.36738 
L 200.037125 150.36738 
L 199.478095 150.36738 
L 198.919066 150.36738 
L 198.919066 150.36738 
L 198.360037 149.80835 
L 198.360037 149.80835 
L 197.801008 149.80835 
L 197.801008 149.80835 
L 197.241979 149.80835 
L 197.241979 149.80835 
L 196.682949 150.36738 
L 196.12392 150.36738 
L 196.12392 150.36738 
L 195.564891 150.36738 
L 195.564891 150.36738 
L 195.564891 150.926409 
L 195.564891 150.926409 
L 195.564891 150.926409 
" style="fill:none;stroke:#8c8c8c;stroke-linecap:square;"/>
   </g>
   <g id="line2d_35">
    <path clip-path="url(#p91b9df5a8f)" d="M 148.047408 153.721555 
L 149.724496 155.398643 
L 150.283525 157.634759 
L 150.842555 161.547964 
L 150.283525 166.579227 
L 149.165467 173.287577 
L 148.606438 174.964665 
L 149.165467 176.082723 
L 149.724496 176.082723 
L 151.960613 176.641752 
L 153.078671 176.641752 
L 155.314788 177.200782 
L 156.432847 178.31884 
L 157.550905 179.995928 
L 159.227993 185.02719 
L 159.787022 186.145249 
L 161.464109 186.704278 
L 163.700226 186.704278 
L 166.495372 185.02719 
L 168.731489 183.909132 
L 173.203723 183.909132 
L 174.88081 185.02719 
L 177.675956 187.263307 
L 179.912073 190.058453 
L 181.589161 191.735541 
L 186.061394 197.325833 
L 187.738482 199.002921 
L 189.974599 200.120979 
L 192.210716 200.120979 
L 197.801008 199.002921 
L 200.037125 197.884862 
L 203.3913 197.884862 
L 206.745475 197.325833 
L 208.981592 197.884862 
L 212.894796 197.884862 
L 217.36703 199.002921 
L 220.162176 200.120979 
L 225.752468 201.239037 
L 227.988585 200.680008 
L 229.665673 200.120979 
L 231.901789 198.443891 
L 234.137906 196.207775 
L 236.374023 193.412629 
L 239.728198 184.468161 
L 241.405286 180.554957 
L 242.523344 178.31884 
L 243.082374 176.641752 
L 244.200432 174.964665 
L 244.759461 173.846606 
L 245.31849 171.61049 
L 245.87752 171.05146 
L 245.87752 169.374373 
L 246.436549 168.256314 
L 246.436549 166.579227 
L 245.87752 164.34311 
L 244.759461 159.311847 
L 243.082374 154.839613 
L 241.964315 151.485438 
L 240.846257 148.690292 
L 240.846257 146.454175 
L 241.405286 144.218058 
L 242.523344 141.422912 
L 245.31849 136.950679 
L 246.436549 135.83262 
L 246.995578 134.714562 
L 247.554607 134.155533 
L 247.554607 133.037474 
L 248.113636 131.919416 
L 248.113636 124.093007 
L 246.436549 119.061744 
L 244.759461 116.825627 
L 241.964315 114.030481 
L 238.61014 112.353394 
L 234.696935 110.676306 
L 229.665673 109.558248 
L 228.547614 108.999218 
L 227.988585 108.440189 
L 227.429556 108.440189 
L 226.870527 107.88116 
L 224.075381 107.88116 
L 220.162176 108.440189 
L 212.335767 110.676306 
L 207.863534 110.676306 
L 205.627417 108.440189 
L 203.3913 107.88116 
L 200.037125 107.88116 
L 197.241979 108.440189 
L 193.887803 109.558248 
L 191.092657 111.235335 
L 189.974599 111.235335 
L 189.41557 111.794364 
L 189.41557 111.235335 
L 187.179453 110.117277 
L 185.502365 108.999218 
L 179.353044 107.88116 
L 174.321781 108.999218 
L 170.967606 110.676306 
L 169.849548 111.794364 
L 169.290518 112.912423 
L 168.731489 113.471452 
L 168.731489 114.030481 
L 168.17246 114.58951 
L 162.582168 117.384657 
L 159.787022 119.061744 
L 156.991876 121.297861 
L 155.314788 122.974949 
L 154.19673 124.652036 
L 154.19673 126.329124 
L 155.314788 128.006211 
L 156.432847 128.565241 
L 158.109934 129.12427 
L 158.668963 129.683299 
L 158.668963 130.242328 
L 156.432847 132.478445 
L 154.755759 133.596503 
L 153.078671 136.950679 
L 153.078671 138.627766 
L 154.755759 141.981942 
L 154.755759 144.218058 
L 153.078671 147.572234 
L 152.519642 148.131263 
L 152.519642 148.690292 
L 151.960613 149.249321 
L 151.960613 150.36738 
L 150.842555 151.485438 
L 150.842555 152.603497 
L 150.283525 153.721555 
L 149.165467 154.839613 
L 148.606438 155.957672 
L 148.047408 155.957672 
L 148.047408 155.957672 
" style="fill:none;stroke:#8c8c8c;stroke-linecap:square;"/>
   </g>
   <g id="line2d_36">
    <path clip-path="url(#p91b9df5a8f)" d="M 168.731489 124.652036 
L 168.731489 124.652036 
L 168.731489 124.652036 
L 168.731489 124.652036 
L 168.731489 124.652036 
L 168.731489 124.652036 
L 169.290518 124.652036 
L 169.290518 124.652036 
L 169.290518 125.211065 
L 169.290518 125.770095 
L 169.290518 126.888153 
L 169.849548 128.006211 
L 169.849548 130.242328 
L 169.849548 131.919416 
L 170.408577 134.155533 
L 170.408577 135.83262 
L 170.967606 136.39165 
L 170.967606 136.39165 
" style="fill:none;stroke:#8c8c8c;stroke-linecap:square;"/>
   </g>
   <g id="line2d_37">
    <path clip-path="url(#p91b9df5a8f)" d="M 172.644694 123.533978 
L 172.644694 123.533978 
L 172.644694 123.533978 
L 173.203723 123.533978 
L 173.203723 123.533978 
L 173.203723 124.093007 
L 173.762752 125.211065 
L 173.762752 126.888153 
L 174.321781 128.565241 
L 174.321781 130.242328 
L 174.88081 131.919416 
L 174.88081 132.478445 
L 174.88081 133.037474 
" style="fill:none;stroke:#8c8c8c;stroke-linecap:square;"/>
   </g>
   <g id="line2d_38">
    <path clip-path="url(#p91b9df5a8f)" d="M 170.408577 130.242328 
L 170.408577 130.242328 
L 170.408577 130.242328 
L 170.967606 130.242328 
L 172.085664 129.683299 
L 173.762752 129.12427 
L 175.43984 128.565241 
" style="fill:none;stroke:#8c8c8c;stroke-linecap:square;"/>
   </g>
   <g id="line2d_39">
    <path clip-path="url(#p91b9df5a8f)" d="M 197.801008 150.36738 
L 198.360037 150.36738 
L 198.360037 150.36738 
L 195.005862 153.721555 
L 195.005862 153.721555 
L 195.564891 153.721555 
L 196.12392 153.162526 
L 196.682949 152.044467 
L 196.682949 152.044467 
L 197.241979 151.485438 
L 195.564891 153.162526 
L 195.564891 153.162526 
L 196.12392 153.162526 
L 197.241979 152.044467 
L 197.241979 152.044467 
L 197.241979 152.603497 
L 196.682949 152.603497 
L 196.682949 153.162526 
L 196.12392 153.162526 
L 197.241979 153.162526 
L 198.360037 152.044467 
L 198.360037 151.485438 
L 198.919066 151.485438 
L 198.919066 151.485438 
L 198.360037 152.044467 
L 197.801008 153.162526 
L 197.241979 153.721555 
L 198.919066 152.044467 
L 198.919066 152.044467 
L 198.360037 153.162526 
L 197.801008 153.721555 
L 197.801008 154.280584 
L 197.801008 154.280584 
L 198.919066 153.721555 
L 199.478095 153.162526 
L 199.478095 152.603497 
L 200.037125 152.044467 
L 200.037125 152.603497 
L 199.478095 152.603497 
L 198.919066 153.721555 
L 198.360037 154.280584 
L 197.801008 155.398643 
L 197.801008 155.398643 
L 198.919066 154.839613 
L 199.478095 154.280584 
L 199.478095 153.721555 
L 199.478095 154.280584 
L 198.360037 154.839613 
L 197.801008 155.957672 
L 197.241979 156.516701 
L 197.241979 157.07573 
L 197.241979 157.07573 
L 198.360037 155.957672 
L 198.919066 154.839613 
L 199.478095 154.839613 
L 199.478095 154.280584 
L 199.478095 154.839613 
L 198.919066 155.957672 
L 198.919066 155.957672 
L 198.919066 156.516701 
L 198.919066 156.516701 
L 200.037125 155.398643 
L 200.596154 155.398643 
L 200.596154 154.839613 
L 200.596154 155.398643 
L 200.037125 155.957672 
L 200.037125 155.957672 
L 200.037125 156.516701 
L 200.037125 155.957672 
L 200.596154 155.957672 
L 200.596154 155.398643 
L 201.155183 155.398643 
L 201.155183 154.839613 
L 201.155183 155.398643 
L 200.037125 156.516701 
L 200.037125 157.07573 
L 200.037125 157.07573 
L 200.596154 156.516701 
L 200.596154 156.516701 
L 200.596154 155.957672 
L 201.155183 155.957672 
L 200.596154 155.957672 
L 200.596154 156.516701 
L 200.037125 157.07573 
L 200.037125 157.07573 
L 199.478095 157.07573 
L 197.801008 155.398643 
L 197.241979 155.398643 
L 197.241979 154.839613 
L 196.682949 154.839613 
L 196.682949 154.280584 
L 196.12392 154.280584 
L 196.12392 153.721555 
L 196.12392 153.721555 
L 195.564891 153.162526 
L 195.564891 153.162526 
L 194.446833 153.162526 
L 194.446833 153.162526 
L 194.446833 154.280584 
L 194.446833 154.280584 
L 195.005862 154.280584 
L 195.005862 154.280584 
" style="fill:none;stroke:#8c8c8c;stroke-linecap:square;"/>
   </g>
   <g id="line2d_40">
    <path clip-path="url(#p91b9df5a8f)" d="M 249.790724 119.620773 
L 249.790724 119.620773 
L 249.790724 119.620773 
L 249.790724 119.620773 
L 249.790724 119.620773 
L 249.790724 119.620773 
L 249.790724 119.061744 
L 250.349753 119.061744 
L 250.349753 119.061744 
L 250.349753 119.061744 
L 250.908782 119.061744 
L 250.908782 118.502715 
L 251.467812 118.502715 
L 252.026841 117.943686 
L 252.58587 117.943686 
L 253.703928 117.384657 
L 254.262958 117.384657 
L 254.821987 116.825627 
L 255.381016 116.825627 
L 255.940045 116.825627 
L 256.499074 116.266598 
L 257.617133 116.266598 
L 258.735191 115.707569 
L 259.85325 115.707569 
L 260.412279 115.14854 
L 260.971308 114.58951 
L 262.089367 114.58951 
L 263.207425 114.030481 
L 264.325483 114.030481 
L 264.884513 113.471452 
L 266.002571 112.912423 
L 267.120629 112.912423 
L 267.679659 112.912423 
L 269.356746 112.912423 
L 269.915775 112.353394 
L 271.033834 112.353394 
L 272.151892 112.353394 
L 273.82898 111.794364 
L 274.947038 111.794364 
L 276.065097 111.794364 
L 278.301213 111.235335 
L 280.53733 111.235335 
L 282.214418 111.235335 
L 283.891506 111.235335 
L 286.127622 111.235335 
L 287.80471 111.235335 
L 288.922768 111.235335 
L 290.040827 111.235335 
L 291.158885 111.235335 
L 292.276944 111.235335 
L 292.835973 111.235335 
L 294.51306 111.794364 
L 295.631119 111.794364 
L 296.749177 111.794364 
L 297.867236 112.353394 
L 298.985294 112.353394 
L 300.662382 112.912423 
L 302.898499 113.471452 
L 304.575586 114.030481 
L 306.252674 114.58951 
L 307.929761 115.14854 
L 309.606849 115.707569 
L 310.724907 116.266598 
L 311.842966 116.825627 
L 312.961024 117.384657 
L 314.638112 117.943686 
L 315.75617 118.502715 
L 316.874229 119.061744 
L 317.992287 119.620773 
L 318.551316 119.620773 
L 319.110346 119.620773 
" style="fill:none;stroke:#8c8c8c;stroke-linecap:square;"/>
   </g>
   <g id="line2d_41">
    <path clip-path="url(#p91b9df5a8f)" d="M 317.433258 110.117277 
L 317.433258 110.117277 
L 317.433258 110.117277 
L 317.433258 110.676306 
L 317.992287 111.235335 
L 319.110346 112.353394 
L 319.669375 113.471452 
L 320.787433 115.14854 
L 321.905492 116.266598 
L 322.464521 117.384657 
L 323.02355 118.502715 
L 323.02355 119.061744 
L 323.582579 119.620773 
L 323.582579 120.179803 
L 323.02355 120.738832 
L 322.464521 121.297861 
L 321.905492 122.415919 
L 320.228404 122.974949 
L 318.551316 124.652036 
L 316.874229 125.211065 
L 315.75617 126.329124 
L 315.197141 126.888153 
" style="fill:none;stroke:#8c8c8c;stroke-linecap:square;"/>
   </g>
   <g id="line2d_42">
    <path clip-path="url(#p91b9df5a8f)" d="M 269.915775 97.818634 
L 269.915775 97.818634 
L 269.915775 97.818634 
L 269.915775 97.818634 
L 269.915775 97.818634 
L 269.356746 97.818634 
L 269.356746 97.818634 
L 268.797717 97.818634 
L 268.238688 98.377664 
L 267.679659 99.495722 
L 267.679659 100.054751 
L 267.679659 100.61378 
L 268.238688 101.17281 
L 269.356746 101.17281 
L 269.356746 101.17281 
L 269.915775 100.61378 
L 269.915775 100.054751 
L 269.915775 99.495722 
L 269.915775 99.495722 
L 270.474805 98.936693 
L 270.474805 98.936693 
L 270.474805 98.936693 
L 271.033834 99.495722 
L 271.033834 100.054751 
L 271.592863 101.17281 
L 272.151892 103.408926 
L 272.151892 104.526985 
L 272.151892 105.645043 
L 272.151892 106.204072 
L 271.033834 107.322131 
L 269.915775 107.322131 
L 268.238688 107.322131 
L 267.679659 106.763102 
L 267.679659 106.204072 
" style="fill:none;stroke:#8c8c8c;stroke-linecap:square;"/>
   </g>
   <g id="line2d_43">
    <path clip-path="url(#p91b9df5a8f)" d="M 274.388009 98.377664 
L 274.388009 98.936693 
L 274.947038 99.495722 
L 275.506067 100.61378 
L 276.624126 101.731839 
L 276.624126 101.731839 
L 276.624126 102.290868 
L 276.624126 102.290868 
L 276.624126 101.731839 
L 276.624126 100.61378 
L 276.624126 99.495722 
L 277.183155 98.377664 
L 277.742184 97.259605 
L 278.301213 96.700576 
L 278.860243 96.700576 
" style="fill:none;stroke:#8c8c8c;stroke-linecap:square;"/>
   </g>
   <g id="line2d_44">
    <path clip-path="url(#p91b9df5a8f)" d="M 284.450535 98.377664 
L 284.450535 98.377664 
L 284.450535 98.377664 
L 283.891506 98.377664 
L 283.332476 98.377664 
L 282.773447 98.377664 
L 282.214418 98.936693 
L 281.655389 99.495722 
L 281.655389 100.61378 
L 282.214418 101.17281 
L 282.773447 101.17281 
L 283.891506 100.61378 
L 284.450535 100.054751 
L 284.450535 99.495722 
L 285.009564 98.936693 
L 285.009564 98.377664 
L 285.009564 97.818634 
L 285.009564 97.818634 
L 285.009564 97.818634 
L 285.009564 98.936693 
L 285.568593 100.61378 
L 286.127622 101.17281 
L 286.127622 101.731839 
L 286.127622 101.731839 
" style="fill:none;stroke:#8c8c8c;stroke-linecap:square;"/>
   </g>
   <g id="line2d_45">
    <path clip-path="url(#p91b9df5a8f)" d="M 288.922768 97.818634 
L 288.922768 97.259605 
L 288.922768 97.259605 
L 288.922768 97.818634 
L 289.481798 98.377664 
L 290.040827 99.495722 
L 290.599856 100.054751 
L 291.717914 100.61378 
L 291.717914 101.17281 
L 292.276944 100.61378 
L 292.835973 99.495722 
L 292.835973 98.377664 
L 292.835973 97.259605 
L 292.276944 96.700576 
L 292.276944 96.700576 
" style="fill:none;stroke:#8c8c8c;stroke-linecap:square;"/>
   </g>
   <g id="line2d_46">
    <path clip-path="url(#p91b9df5a8f)" d="M 295.631119 97.259605 
L 295.631119 97.259605 
L 295.631119 97.818634 
L 296.190148 98.377664 
L 296.749177 98.936693 
L 296.749177 100.054751 
L 297.308206 100.61378 
L 297.308206 100.61378 
" style="fill:none;stroke:#8c8c8c;stroke-linecap:square;"/>
   </g>
   <g id="line2d_47">
    <path clip-path="url(#p91b9df5a8f)" d="M 297.867236 93.346401 
L 297.867236 92.787371 
L 298.426265 92.228342 
L 298.426265 91.669313 
L 298.426265 91.110284 
L 298.426265 91.110284 
" style="fill:none;stroke:#8c8c8c;stroke-linecap:square;"/>
   </g>
   <g id="line2d_48">
    <path clip-path="url(#p91b9df5a8f)" d="M 300.103353 91.669313 
L 300.103353 91.669313 
L 300.662382 92.787371 
L 301.221411 94.464459 
L 301.78044 96.700576 
L 302.339469 98.936693 
L 303.457528 101.731839 
L 304.016557 102.849897 
L 304.016557 102.849897 
" style="fill:none;stroke:#8c8c8c;stroke-linecap:square;"/>
   </g>
   <g id="line2d_49">
    <path clip-path="url(#p91b9df5a8f)" d="M 301.221411 98.377664 
L 301.221411 98.377664 
L 301.221411 97.818634 
L 301.78044 97.818634 
L 302.339469 97.818634 
L 304.016557 97.818634 
L 305.693645 97.259605 
L 306.811703 97.259605 
" style="fill:none;stroke:#8c8c8c;stroke-linecap:square;"/>
   </g>
   <g id="line2d_50">
    <path clip-path="url(#p91b9df5a8f)" d="M 308.488791 96.700576 
L 308.488791 96.700576 
L 308.488791 97.259605 
L 308.488791 97.259605 
L 308.488791 97.818634 
L 309.04782 98.377664 
L 310.165878 98.936693 
L 311.283937 98.936693 
L 312.401995 98.377664 
L 312.961024 97.818634 
L 313.520053 97.259605 
L 313.520053 97.259605 
L 314.079083 97.818634 
L 314.079083 97.818634 
L 314.638112 99.495722 
L 315.197141 100.61378 
L 315.197141 101.17281 
L 315.197141 101.731839 
" style="fill:none;stroke:#8c8c8c;stroke-linecap:square;"/>
   </g>
   <g id="line2d_51">
    <path clip-path="url(#p91b9df5a8f)" d="M 244.200432 186.145249 
L 244.200432 186.145249 
L 244.759461 186.145249 
L 244.759461 185.58622 
L 244.759461 185.58622 
L 244.759461 185.58622 
L 244.759461 186.145249 
L 245.31849 186.145249 
L 245.87752 186.145249 
L 246.436549 186.704278 
L 246.995578 186.704278 
L 247.554607 187.263307 
L 248.672666 187.263307 
L 249.231695 187.822336 
L 250.908782 188.381366 
L 252.026841 188.940395 
L 253.703928 189.499424 
L 255.381016 190.058453 
L 256.499074 190.617483 
L 258.176162 191.176512 
L 259.85325 191.176512 
L 262.089367 191.735541 
L 263.766454 192.29457 
L 265.443542 192.853599 
L 267.120629 192.853599 
L 268.797717 193.412629 
L 270.474805 193.412629 
L 271.592863 193.971658 
L 272.710921 193.971658 
L 273.82898 193.971658 
L 275.506067 193.971658 
L 277.742184 193.412629 
L 280.53733 193.412629 
L 283.332476 192.853599 
L 285.568593 192.853599 
L 288.363739 192.29457 
L 290.599856 191.735541 
L 292.835973 191.735541 
L 294.51306 191.176512 
L 297.308206 191.176512 
L 298.985294 190.617483 
L 301.221411 190.058453 
L 303.457528 189.499424 
L 305.134615 189.499424 
L 307.370732 188.381366 
L 310.165878 187.822336 
L 312.961024 186.704278 
L 316.3152 185.02719 
L 319.110346 183.350103 
L 321.905492 182.232044 
L 324.141608 181.113986 
L 325.818696 179.995928 
L 327.495784 179.436898 
L 328.054813 178.877869 
L 328.613842 178.31884 
L 329.172871 178.31884 
L 329.172871 178.31884 
" style="fill:none;stroke:#8c8c8c;stroke-linecap:square;"/>
   </g>
   <g id="line2d_52">
    <path clip-path="url(#p91b9df5a8f)" d="M 323.582579 172.169519 
L 323.02355 172.728548 
L 323.582579 172.728548 
L 324.141608 173.287577 
L 325.259667 173.287577 
L 326.936754 173.846606 
L 328.613842 173.846606 
L 330.29093 173.846606 
L 331.408988 174.405636 
L 332.527046 174.405636 
L 333.086076 174.405636 
L 333.645105 174.964665 
L 334.204134 175.523694 
L 334.204134 176.082723 
L 334.204134 177.759811 
L 334.204134 179.436898 
L 333.645105 180.554957 
L 332.527046 181.673015 
L 332.527046 181.673015 
" style="fill:none;stroke:#8c8c8c;stroke-linecap:square;"/>
   </g>
   <g id="line2d_53">
    <path clip-path="url(#p91b9df5a8f)" d="M 258.735191 170.492431 
L 258.735191 170.492431 
L 258.735191 170.492431 
L 258.735191 170.492431 
L 258.176162 170.492431 
L 257.617133 171.05146 
L 257.058104 172.169519 
L 256.499074 173.287577 
L 255.940045 173.846606 
L 255.940045 174.405636 
L 256.499074 174.405636 
L 257.617133 174.964665 
L 258.735191 175.523694 
L 260.412279 176.641752 
L 261.530337 178.31884 
L 262.648396 180.554957 
L 262.648396 182.232044 
L 262.089367 183.350103 
L 260.412279 183.909132 
L 257.617133 183.350103 
L 255.940045 182.791074 
L 255.381016 181.673015 
L 254.821987 181.673015 
" style="fill:none;stroke:#8c8c8c;stroke-linecap:square;"/>
   </g>
   <g id="line2d_54">
    <path clip-path="url(#p91b9df5a8f)" d="M 264.884513 179.436898 
L 264.884513 179.436898 
L 264.884513 179.436898 
L 264.884513 179.436898 
L 264.884513 179.995928 
L 265.443542 180.554957 
L 266.002571 181.673015 
L 267.120629 182.791074 
L 268.797717 183.350103 
L 270.474805 183.350103 
L 271.033834 182.791074 
L 271.592863 181.673015 
L 270.474805 179.995928 
L 269.356746 179.436898 
L 267.679659 179.436898 
L 266.5616 179.995928 
L 266.002571 180.554957 
" style="fill:none;stroke:#8c8c8c;stroke-linecap:square;"/>
   </g>
   <g id="line2d_55">
    <path clip-path="url(#p91b9df5a8f)" d="M 273.269951 172.169519 
L 273.269951 171.61049 
L 273.269951 171.61049 
L 273.82898 172.169519 
L 273.82898 173.287577 
L 274.388009 175.523694 
L 274.947038 178.31884 
L 275.506067 181.113986 
L 276.065097 182.791074 
L 276.624126 183.909132 
" style="fill:none;stroke:#8c8c8c;stroke-linecap:square;"/>
   </g>
   <g id="line2d_56">
    <path clip-path="url(#p91b9df5a8f)" d="M 279.419272 181.113986 
L 279.419272 181.113986 
L 279.978301 180.554957 
L 279.978301 179.995928 
L 279.978301 179.436898 
L 279.419272 179.436898 
L 279.419272 179.436898 
L 278.860243 179.995928 
L 278.301213 181.113986 
L 278.301213 182.232044 
L 279.419272 183.350103 
L 280.53733 183.350103 
L 281.655389 182.232044 
L 281.655389 181.673015 
L 282.214418 180.554957 
L 281.655389 179.436898 
L 281.655389 178.877869 
L 281.655389 179.436898 
L 281.655389 179.436898 
L 281.655389 181.113986 
L 282.214418 182.791074 
L 282.773447 183.909132 
L 282.773447 183.909132 
L 282.773447 183.909132 
" style="fill:none;stroke:#8c8c8c;stroke-linecap:square;"/>
   </g>
   <g id="line2d_57">
    <path clip-path="url(#p91b9df5a8f)" d="M 284.450535 178.877869 
L 284.450535 178.877869 
L 284.450535 178.31884 
L 285.009564 178.31884 
L 285.568593 178.877869 
L 286.127622 179.995928 
L 287.245681 181.113986 
L 287.245681 181.673015 
L 287.80471 182.232044 
L 287.80471 181.673015 
L 287.245681 181.113986 
L 287.80471 179.436898 
L 288.363739 177.759811 
L 289.481798 176.082723 
L 291.158885 174.405636 
" style="fill:none;stroke:#8c8c8c;stroke-linecap:square;"/>
   </g>
   <g id="line2d_58">
    <path clip-path="url(#p91b9df5a8f)" d="M 264.884513 205.152242 
L 264.325483 205.152242 
L 264.325483 204.593213 
L 264.325483 204.034183 
L 264.325483 204.034183 
L 264.325483 203.475154 
L 264.325483 203.475154 
L 264.325483 204.593213 
L 264.884513 206.2703 
L 265.443542 208.506417 
L 266.5616 209.624476 
L 267.679659 209.624476 
L 268.238688 209.624476 
L 268.797717 208.506417 
L 269.356746 207.947388 
L 269.356746 207.388359 
L 270.474805 207.947388 
L 271.592863 208.506417 
L 273.269951 209.624476 
L 274.388009 209.065446 
L 275.506067 207.388359 
L 275.506067 205.711271 
L 274.388009 203.475154 
L 273.82898 202.357096 
L 273.269951 202.357096 
L 272.710921 202.357096 
" style="fill:none;stroke:#8c8c8c;stroke-linecap:square;"/>
   </g>
   <g id="line2d_59">
    <path clip-path="url(#p91b9df5a8f)" d="M 276.065097 204.593213 
L 276.624126 204.593213 
L 276.624126 204.593213 
L 277.183155 205.711271 
L 278.301213 206.829329 
L 279.419272 208.506417 
L 279.978301 209.624476 
L 279.978301 210.183505 
" style="fill:none;stroke:#8c8c8c;stroke-linecap:square;"/>
   </g>
   <g id="line2d_60">
    <path clip-path="url(#p91b9df5a8f)" d="M 278.301213 204.593213 
L 278.301213 204.034183 
L 277.742184 202.916125 
L 277.742184 200.680008 
L 278.301213 200.120979 
L 278.301213 200.120979 
L 278.860243 200.120979 
" style="fill:none;stroke:#8c8c8c;stroke-linecap:square;"/>
   </g>
   <g id="line2d_61">
    <path clip-path="url(#p91b9df5a8f)" d="M 282.773447 205.152242 
L 282.773447 205.711271 
L 282.773447 206.2703 
L 283.332476 207.947388 
L 283.332476 209.624476 
L 283.891506 210.742534 
L 283.891506 211.301563 
L 283.891506 211.301563 
L 284.450535 209.624476 
L 285.009564 207.947388 
L 286.127622 206.2703 
L 287.245681 205.152242 
L 287.80471 205.152242 
L 288.363739 205.711271 
L 288.922768 207.388359 
L 289.481798 209.624476 
L 290.040827 211.301563 
" style="fill:none;stroke:#8c8c8c;stroke-linecap:square;"/>
   </g>
   <g id="line2d_62">
    <path clip-path="url(#p91b9df5a8f)" d="M 295.631119 207.947388 
L 296.190148 207.388359 
L 296.190148 206.2703 
L 296.190148 205.152242 
L 296.190148 205.152242 
L 295.631119 205.152242 
L 295.07209 205.711271 
L 293.954031 207.947388 
L 293.954031 209.624476 
L 295.07209 210.742534 
L 296.190148 210.742534 
L 297.867236 209.065446 
L 298.426265 207.388359 
L 298.426265 204.034183 
L 298.426265 201.798067 
L 298.426265 200.120979 
L 298.426265 199.56195 
L 298.426265 199.56195 
L 298.426265 199.56195 
L 298.426265 201.798067 
L 298.426265 205.152242 
L 298.985294 207.388359 
L 299.544323 209.624476 
L 300.103353 210.183505 
" style="fill:none;stroke:#8c8c8c;stroke-linecap:square;"/>
   </g>
   <g id="line2d_63">
    <path clip-path="url(#p91b9df5a8f)" d="M 303.457528 206.829329 
L 303.457528 206.829329 
L 304.016557 205.711271 
L 304.575586 204.593213 
L 304.575586 204.593213 
L 304.575586 204.034183 
L 304.016557 204.593213 
L 303.457528 205.152242 
L 302.898499 205.711271 
L 302.898499 206.829329 
L 304.016557 207.388359 
L 305.134615 207.388359 
L 306.811703 208.506417 
L 307.929761 209.624476 
L 308.488791 210.742534 
L 307.929761 211.860592 
L 306.811703 212.978651 
" style="fill:none;stroke:#8c8c8c;stroke-linecap:square;"/>
   </g>
   <g id="line2d_64">
    <path clip-path="url(#p91b9df5a8f)" d="M 38.477684 239.253023 
L 38.477684 239.253023 
L 38.477684 239.253023 
L 38.477684 239.812053 
L 37.918655 239.812053 
L 37.918655 240.930111 
L 37.359626 242.607199 
L 36.800596 245.961374 
L 35.682538 250.433608 
L 35.123509 255.46487 
L 35.682538 258.819046 
L 37.359626 261.055162 
L 39.036713 261.614192 
L 42.390889 261.614192 
L 43.508947 261.055162 
L 44.067976 259.378075 
" style="fill:none;stroke:#8c8c8c;stroke-linecap:square;"/>
   </g>
   <g id="line2d_65">
    <path clip-path="url(#p91b9df5a8f)" d="M 31.769334 250.433608 
L 31.210304 250.433608 
L 31.210304 250.433608 
L 32.887392 249.315549 
L 36.800596 247.638462 
L 40.713801 246.520403 
L 41.831859 246.520403 
" style="fill:none;stroke:#8c8c8c;stroke-linecap:square;"/>
   </g>
   <g id="line2d_66">
    <path clip-path="url(#p91b9df5a8f)" d="M 47.422151 249.874578 
L 47.422151 249.874578 
L 46.863122 250.433608 
L 46.863122 250.433608 
L 47.422151 250.433608 
L 49.658268 250.433608 
L 51.894385 249.874578 
L 54.130502 250.433608 
L 55.807589 251.551666 
L 55.807589 253.228754 
L 55.807589 254.905841 
L 54.689531 257.141958 
L 54.130502 258.260016 
L 54.130502 258.819046 
L 54.130502 259.378075 
L 54.689531 259.378075 
L 54.689531 259.937104 
L 54.689531 261.055162 
L 54.689531 262.73225 
L 53.571473 264.409338 
L 51.335356 266.645455 
L 50.217297 266.645455 
L 49.658268 266.645455 
" style="fill:none;stroke:#8c8c8c;stroke-linecap:square;"/>
   </g>
   <g id="line2d_67">
    <path clip-path="url(#p91b9df5a8f)" d="M 118.97789 250.433608 
L 118.97789 250.433608 
L 118.418861 250.992637 
L 116.741773 250.992637 
L 115.623715 251.551666 
L 113.946627 253.228754 
L 112.828568 255.46487 
L 112.828568 258.260016 
L 114.505656 261.614192 
L 117.300802 263.291279 
L 120.095948 263.291279 
L 122.332065 262.73225 
" style="fill:none;stroke:#8c8c8c;stroke-linecap:square;"/>
   </g>
   <g id="line2d_68">
    <path clip-path="url(#p91b9df5a8f)" d="M 125.68624 254.905841 
L 125.68624 254.346812 
L 124.568182 254.346812 
L 124.009153 255.46487 
L 123.450123 256.582929 
L 123.450123 258.819046 
L 124.568182 261.055162 
L 125.68624 262.173221 
L 129.040415 262.173221 
L 130.717503 262.173221 
L 131.835561 259.937104 
L 131.276532 257.700987 
L 129.599445 256.582929 
L 127.363328 255.46487 
L 125.127211 255.46487 
L 124.009153 255.46487 
L 123.450123 255.46487 
" style="fill:none;stroke:#8c8c8c;stroke-linecap:square;"/>
   </g>
   <g id="line2d_69">
    <path clip-path="url(#p91b9df5a8f)" d="M 134.630708 247.079432 
L 134.630708 247.079432 
L 134.630708 246.520403 
L 135.189737 247.079432 
L 135.748766 248.75652 
L 136.307795 253.228754 
L 136.866824 256.582929 
L 137.984883 262.173221 
L 139.102941 264.409338 
L 140.221 264.968367 
" style="fill:none;stroke:#8c8c8c;stroke-linecap:square;"/>
   </g>
   <g id="line2d_70">
    <path clip-path="url(#p91b9df5a8f)" d="M 148.606438 256.0239 
L 148.606438 256.0239 
L 148.606438 255.46487 
L 148.047408 255.46487 
L 147.488379 255.46487 
L 145.811292 256.582929 
L 145.252262 258.260016 
L 145.811292 259.937104 
L 147.488379 261.055162 
L 149.165467 261.055162 
L 150.842555 259.378075 
L 151.960613 256.582929 
L 152.519642 252.669724 
L 152.519642 249.874578 
L 151.960613 246.520403 
L 151.401584 245.402345 
L 150.842555 244.284286 
L 150.842555 244.284286 
L 150.842555 245.402345 
L 151.401584 247.638462 
L 151.960613 250.992637 
L 153.078671 254.346812 
L 153.637701 257.141958 
L 154.755759 261.055162 
L 155.314788 262.73225 
" style="fill:none;stroke:#8c8c8c;stroke-linecap:square;"/>
   </g>
   <g id="line2d_71">
    <path clip-path="url(#p91b9df5a8f)" d="M 477.87464 252.669724 
L 477.87464 252.669724 
L 477.315611 252.669724 
L 476.756582 252.669724 
L 475.079494 253.228754 
L 474.520465 254.905841 
L 473.961436 257.700987 
L 474.520465 260.496133 
L 475.638523 262.73225 
L 477.87464 263.850309 
" style="fill:none;stroke:#8c8c8c;stroke-linecap:square;"/>
   </g>
   <g id="line2d_72">
    <path clip-path="url(#p91b9df5a8f)" d="M 486.819107 257.700987 
L 486.819107 257.700987 
L 486.819107 257.141958 
L 486.260078 257.141958 
L 485.701049 258.260016 
L 485.701049 259.937104 
L 485.701049 261.055162 
L 486.819107 262.173221 
L 488.496195 262.73225 
L 489.055224 262.73225 
L 489.614253 261.055162 
L 489.055224 259.378075 
L 487.378137 258.260016 
L 486.260078 257.700987 
L 485.701049 257.700987 
L 485.14202 257.700987 
L 485.14202 257.700987 
" style="fill:none;stroke:#8c8c8c;stroke-linecap:square;"/>
   </g>
   <g id="line2d_73">
    <path clip-path="url(#p91b9df5a8f)" d="M 495.204545 249.874578 
L 495.204545 249.874578 
L 495.204545 249.315549 
L 495.763575 248.75652 
L 495.763575 248.197491 
L 495.763575 248.75652 
L 495.763575 250.433608 
L 496.322604 253.787783 
L 496.322604 257.141958 
L 496.881633 258.819046 
L 497.440662 261.055162 
L 497.440662 262.173221 
" style="fill:none;stroke:#8c8c8c;stroke-linecap:square;"/>
   </g>
   <g id="line2d_74">
    <path clip-path="url(#p91b9df5a8f)" d="M 505.8261 258.819046 
L 505.8261 258.260016 
L 505.8261 257.700987 
L 505.267071 257.141958 
L 504.708042 257.141958 
L 504.149013 257.700987 
L 503.589984 259.378075 
L 504.149013 260.496133 
L 505.8261 261.614192 
L 506.944159 262.173221 
L 508.621246 260.496133 
L 509.180276 257.700987 
L 509.180276 254.346812 
L 509.180276 250.992637 
L 508.621246 248.197491 
L 508.621246 246.520403 
L 508.621246 245.961374 
L 508.621246 245.402345 
L 508.621246 245.961374 
L 508.621246 248.197491 
L 509.180276 252.669724 
L 509.739305 257.141958 
L 510.857363 261.614192 
L 511.416392 263.850309 
L 511.416392 264.409338 
" style="fill:none;stroke:#8c8c8c;stroke-linecap:square;"/>
   </g>
   <g id="line2d_75">
    <path clip-path="url(#p91b9df5a8f)" d="M 509.180276 254.346812 
L 508.621246 254.346812 
L 508.062217 254.346812 
L 506.944159 254.346812 
L 505.8261 254.905841 
L 505.267071 255.46487 
L 504.708042 255.46487 
" style="fill:none;stroke:#8c8c8c;stroke-linecap:square;"/>
   </g>
   <g id="line2d_76">
    <path clip-path="url(#p91b9df5a8f)" d="M 368.863945 240.371082 
L 368.863945 240.371082 
L 368.863945 239.812053 
L 369.422974 239.253023 
L 369.422974 238.693994 
L 369.982003 238.134965 
L 369.982003 238.134965 
L 369.982003 237.575936 
L 369.982003 237.575936 
L 369.982003 237.575936 
L 369.422974 237.575936 
L 368.863945 238.134965 
L 367.745886 239.812053 
L 366.627828 240.930111 
L 365.50977 242.607199 
L 364.95074 244.843316 
L 364.95074 246.520403 
L 364.95074 248.197491 
L 364.95074 250.992637 
L 365.50977 252.669724 
L 366.627828 254.905841 
L 368.304916 257.700987 
L 369.982003 259.378075 
L 372.21812 261.614192 
L 373.895208 262.73225 
L 375.572295 263.291279 
L 378.367441 263.850309 
L 380.603558 264.409338 
L 381.721617 264.409338 
L 384.516763 263.850309 
L 386.19385 263.291279 
L 387.870938 262.173221 
L 389.548026 259.937104 
L 390.666084 258.819046 
L 391.784142 255.46487 
L 392.343172 253.787783 
L 392.902201 250.992637 
L 392.902201 247.638462 
L 392.343172 245.402345 
L 391.225113 242.607199 
L 390.107055 239.812053 
L 387.870938 237.016907 
L 386.19385 235.339819 
L 383.957733 234.221761 
L 381.162587 233.103702 
L 378.926471 233.103702 
L 376.131325 233.103702 
L 373.336179 234.221761 
L 371.100062 235.898848 
L 369.982003 237.575936 
L 368.863945 238.693994 
L 368.304916 239.253023 
" style="fill:none;stroke:#8c8c8c;stroke-linecap:square;"/>
   </g>
   <g id="line2d_77">
    <path clip-path="url(#p91b9df5a8f)" d="M 376.131325 250.433608 
L 376.131325 250.433608 
L 376.131325 250.433608 
L 376.131325 250.992637 
L 376.131325 251.551666 
L 377.249383 252.669724 
L 377.808412 253.228754 
L 378.926471 253.787783 
L 379.4855 253.228754 
L 380.603558 252.110695 
L 381.162587 250.433608 
L 381.162587 247.079432 
L 380.603558 243.725257 
L 380.603558 242.607199 
L 380.044529 240.930111 
L 380.044529 240.371082 
L 379.4855 239.812053 
L 379.4855 239.812053 
L 379.4855 240.371082 
" style="fill:none;stroke:#8c8c8c;stroke-linecap:square;"/>
   </g>
   <g id="line2d_78">
    <path clip-path="url(#p91b9df5a8f)" d="M 201.155183 247.638462 
L 201.155183 248.197491 
L 200.596154 248.197491 
L 200.596154 248.197491 
L 200.037125 248.75652 
L 200.037125 249.315549 
L 199.478095 249.874578 
L 199.478095 251.551666 
L 201.155183 253.228754 
L 202.273241 252.669724 
L 203.3913 251.551666 
L 203.3913 250.433608 
L 202.832271 249.315549 
L 202.273241 248.75652 
L 201.155183 248.75652 
L 201.155183 248.75652 
L 200.037125 249.315549 
L 199.478095 249.874578 
L 199.478095 252.669724 
L 200.037125 253.787783 
L 201.714212 253.787783 
L 202.273241 253.228754 
L 202.273241 252.669724 
L 201.714212 251.551666 
L 201.714212 250.992637 
L 201.155183 250.992637 
L 201.155183 251.551666 
L 200.596154 251.551666 
L 200.596154 252.669724 
L 202.832271 253.787783 
L 203.3913 253.787783 
L 203.950329 252.669724 
L 203.3913 251.551666 
L 202.273241 250.433608 
L 200.596154 250.433608 
L 200.596154 252.110695 
L 201.714212 253.787783 
L 202.273241 254.346812 
L 202.832271 254.346812 
L 203.3913 253.787783 
L 203.3913 252.669724 
L 202.832271 251.551666 
L 202.273241 250.992637 
L 202.273241 250.992637 
L 201.714212 250.992637 
L 201.714212 252.110695 
L 202.273241 252.669724 
L 203.3913 252.669724 
L 203.3913 252.110695 
L 202.273241 249.874578 
L 201.155183 249.315549 
L 199.478095 249.315549 
L 199.478095 250.433608 
L 200.037125 251.551666 
L 201.714212 252.669724 
L 202.273241 253.228754 
L 203.3913 253.228754 
L 203.950329 252.110695 
L 203.3913 250.433608 
L 201.155183 249.315549 
L 200.596154 249.315549 
L 200.037125 249.874578 
L 200.037125 250.992637 
L 200.596154 252.110695 
L 201.155183 252.669724 
L 202.273241 252.669724 
L 202.832271 252.110695 
L 202.832271 250.992637 
L 202.273241 249.874578 
L 201.155183 248.75652 
L 200.037125 248.75652 
L 199.478095 249.874578 
L 199.478095 251.551666 
L 200.037125 252.669724 
L 200.596154 253.228754 
L 202.273241 253.787783 
L 202.832271 253.228754 
L 203.3913 251.551666 
L 203.3913 250.433608 
L 202.832271 249.315549 
L 201.714212 248.75652 
L 200.596154 248.75652 
L 199.478095 249.874578 
L 199.478095 252.110695 
L 200.596154 253.228754 
L 201.155183 253.228754 
L 202.832271 252.669724 
L 203.950329 251.551666 
L 203.950329 250.992637 
L 204.509358 250.433608 
L 204.509358 250.433608 
L 204.509358 249.874578 
L 204.509358 249.874578 
L 203.950329 249.874578 
L 203.950329 249.874578 
L 203.950329 248.75652 
L 203.950329 248.75652 
L 203.3913 248.197491 
L 202.832271 248.197491 
L 202.832271 248.197491 
L 202.273241 248.75652 
L 201.155183 248.75652 
L 200.596154 249.315549 
L 200.596154 249.874578 
L 200.037125 250.433608 
L 200.037125 250.992637 
L 200.596154 251.551666 
L 200.596154 252.110695 
L 201.155183 252.110695 
L 202.273241 250.992637 
L 201.714212 249.874578 
L 201.714212 249.315549 
L 200.037125 249.315549 
L 198.919066 250.433608 
L 198.919066 252.669724 
L 200.596154 254.346812 
L 202.273241 254.346812 
L 203.950329 252.669724 
L 203.950329 250.992637 
L 202.273241 249.315549 
L 201.155183 249.315549 
L 200.596154 249.874578 
L 200.596154 249.874578 
L 200.596154 250.433608 
L 200.596154 250.433608 
" style="fill:none;stroke:#8c8c8c;stroke-linecap:square;"/>
   </g>
  </g>
 </g>
 <defs>
  <clipPath id="p91b9df5a8f">
   <rect height="271.8" width="528.226697" x="7.2" y="7.2"/>
  </clipPath>
 </defs>
</svg>
