<?xml version="1.0" encoding="utf-8" standalone="no"?>
<!DOCTYPE svg PUBLIC "-//W3C//DTD SVG 1.1//EN"
  "http://www.w3.org/Graphics/SVG/1.1/DTD/svg11.dtd">
<!-- Created with matplotlib (https://matplotlib.org/) -->
<svg height="286.2pt" version="1.1" viewBox="0 0 430.155258 286.2" width="430.155258pt" xmlns="http://www.w3.org/2000/svg" xmlns:xlink="http://www.w3.org/1999/xlink">
 <metadata>
  <rdf:RDF xmlns:cc="http://creativecommons.org/ns#" xmlns:dc="http://purl.org/dc/elements/1.1/" xmlns:rdf="http://www.w3.org/1999/02/22-rdf-syntax-ns#">
   <cc:Work>
    <dc:type rdf:resource="http://purl.org/dc/dcmitype/StillImage"/>
    <dc:date>2024-11-15T16:03:36.966405</dc:date>
    <dc:format>image/svg+xml</dc:format>
    <dc:creator>
     <cc:Agent>
      <dc:title>Matplotlib v3.3.4, https://matplotlib.org/</dc:title>
     </cc:Agent>
    </dc:creator>
   </cc:Work>
  </rdf:RDF>
 </metadata>
 <defs>
  <style type="text/css">*{stroke-linecap:butt;stroke-linejoin:round;}</style>
 </defs>
 <g id="figure_1">
  <g id="patch_1">
   <path d="M 0 286.2 
L 430.155258 286.2 
L 430.155258 0 
L 0 0 
z
" style="fill:#ffffff;"/>
  </g>
  <g id="axes_1">
   <g id="line2d_1">
    <path clip-path="url(#p51e52573c1)" d="M 26.097966 264.755658 
L 26.097966 264.755658 
L 26.097966 264.755658 
L 26.097966 264.755658 
L 26.097966 264.755658 
L 26.097966 264.755658 
L 26.570415 264.755658 
L 26.570415 264.755658 
L 27.042865 264.755658 
L 27.042865 264.755658 
L 27.515314 264.755658 
L 27.987763 264.755658 
L 28.460212 265.228107 
L 28.932661 265.228107 
L 29.87756 265.228107 
L 30.350009 265.700556 
L 31.294907 265.700556 
L 32.239805 265.700556 
L 32.712254 266.173005 
L 33.657153 266.173005 
L 34.602051 266.173005 
L 34.602051 266.173005 
L 36.019399 266.645455 
L 36.964297 266.645455 
L 37.436746 266.645455 
L 38.381644 266.645455 
L 38.854094 266.645455 
L 39.798992 266.645455 
L 40.74389 266.645455 
L 41.216339 266.645455 
L 42.161238 266.645455 
L 43.106136 266.645455 
L 43.578585 266.645455 
L 44.051034 266.645455 
L 45.468382 266.173005 
L 45.940831 266.173005 
L 46.885729 266.173005 
L 47.358178 266.173005 
L 48.303077 266.173005 
L 48.775526 266.173005 
L 49.247975 265.700556 
L 49.720424 265.700556 
L 50.665322 265.700556 
L 51.610221 265.700556 
L 52.08267 265.228107 
L 52.555119 265.228107 
L 53.500017 265.228107 
L 53.972467 264.755658 
" style="fill:none;stroke:#8c8c8c;stroke-linecap:square;"/>
   </g>
   <g id="line2d_2">
    <path clip-path="url(#p51e52573c1)" d="M 52.555119 265.228107 
L 52.555119 265.228107 
L 53.027568 264.755658 
L 53.027568 264.755658 
L 53.500017 265.228107 
L 53.972467 265.228107 
L 54.444916 265.228107 
L 55.389814 265.228107 
L 55.862263 265.228107 
L 56.334712 265.700556 
L 57.279611 265.700556 
L 57.75206 265.700556 
L 58.696958 265.700556 
L 59.641856 265.700556 
L 60.114306 265.700556 
L 61.059204 265.700556 
L 62.004102 265.700556 
L 62.004102 265.700556 
L 62.949001 265.700556 
L 63.893899 265.700556 
L 64.366348 265.700556 
L 65.311246 265.700556 
L 65.783695 265.700556 
L 66.256145 265.700556 
L 66.728594 265.700556 
L 67.673492 265.700556 
L 68.145941 265.700556 
L 68.61839 265.700556 
L 69.09084 265.700556 
L 69.563289 265.700556 
L 69.563289 265.700556 
L 70.035738 265.700556 
L 70.508187 265.700556 
L 70.980636 265.700556 
L 71.453085 265.700556 
L 71.453085 265.700556 
L 71.925535 265.700556 
" style="fill:none;stroke:#8c8c8c;stroke-linecap:square;"/>
   </g>
   <g id="line2d_3">
    <path clip-path="url(#p51e52573c1)" d="M 112.556162 264.283209 
L 113.028611 264.283209 
L 114.445959 264.755658 
L 115.390857 265.228107 
L 118.225552 265.700556 
L 121.532696 265.228107 
L 124.83984 264.755658 
L 129.564332 264.283209 
L 131.926577 263.33831 
L 135.233722 262.393412 
L 139.958213 260.976065 
L 141.84801 260.031166 
L 145.627603 258.14137 
L 147.989849 257.196471 
L 151.769442 255.779124 
L 157.911281 253.416878 
L 162.163323 251.527082 
L 167.360264 249.637285 
L 170.667408 248.219937 
L 173.974552 246.330141 
L 175.3919 245.857692 
L 176.809247 244.912793 
L 177.754146 243.967895 
L 179.171493 243.022997 
L 180.588841 242.550548 
L 182.006188 242.078098 
L 185.313332 242.078098 
L 187.203129 242.078098 
L 190.982722 242.078098 
L 195.707214 241.1332 
L 202.321502 239.243403 
L 205.628646 237.826056 
L 209.880688 235.46381 
L 211.770485 234.046463 
" style="fill:none;stroke:#8c8c8c;stroke-linecap:square;"/>
   </g>
   <g id="line2d_4">
    <path clip-path="url(#p51e52573c1)" d="M 223.109265 187.273996 
L 223.109265 187.746445 
L 223.581714 187.746445 
L 223.581714 188.218894 
L 223.581714 188.218894 
L 223.581714 188.218894 
L 223.109265 186.801547 
L 222.636816 185.856649 
L 222.164366 184.439301 
L 221.691917 183.021954 
L 221.691917 182.077055 
L 222.164366 180.659708 
L 222.636816 179.71481 
L 223.109265 179.242361 
L 223.581714 178.769911 
" style="fill:none;stroke:#8c8c8c;stroke-linecap:square;"/>
   </g>
   <g id="line2d_5">
    <path clip-path="url(#p51e52573c1)" d="M 226.888858 182.549505 
L 226.888858 182.549505 
L 226.888858 182.549505 
L 227.361307 182.077055 
L 227.833756 182.077055 
L 229.251104 180.659708 
L 229.723553 180.187259 
L 229.723553 179.242361 
L 229.723553 178.769911 
L 229.251104 178.297462 
L 228.778655 178.297462 
L 227.833756 179.242361 
L 226.888858 180.187259 
L 226.416409 182.077055 
L 226.888858 183.494403 
L 227.833756 184.91175 
L 228.778655 185.3842 
L 230.196002 185.3842 
L 231.1409 185.3842 
L 232.085799 184.91175 
" style="fill:none;stroke:#8c8c8c;stroke-linecap:square;"/>
   </g>
   <g id="line2d_6">
    <path clip-path="url(#p51e52573c1)" d="M 235.865392 179.242361 
L 235.865392 178.769911 
L 235.865392 178.769911 
L 235.865392 178.297462 
L 235.865392 178.297462 
L 236.337841 179.242361 
L 236.337841 180.659708 
L 236.81029 181.604606 
L 236.81029 182.549505 
L 237.282739 183.494403 
L 237.282739 183.966852 
L 237.282739 184.439301 
L 237.282739 183.966852 
L 237.282739 182.549505 
L 237.282739 181.132157 
L 237.755189 180.187259 
L 237.755189 179.242361 
L 237.755189 178.769911 
L 238.227638 178.769911 
L 238.700087 179.242361 
L 238.700087 179.71481 
L 239.172536 180.659708 
L 239.172536 180.659708 
L 239.644985 181.132157 
L 239.644985 180.659708 
L 240.117434 179.71481 
L 240.589884 178.769911 
L 241.062333 177.352564 
L 241.062333 177.352564 
L 241.534782 176.880115 
L 241.534782 177.352564 
L 242.47968 178.297462 
L 242.952129 179.242361 
L 243.424578 180.659708 
L 243.424578 181.132157 
L 243.424578 181.604606 
L 243.897028 181.604606 
" style="fill:none;stroke:#8c8c8c;stroke-linecap:square;"/>
   </g>
   <g id="line2d_7">
    <path clip-path="url(#p51e52573c1)" d="M 246.731723 177.352564 
L 246.731723 177.352564 
L 246.731723 177.352564 
L 246.731723 176.880115 
L 246.731723 176.880115 
L 246.731723 177.352564 
L 246.731723 178.297462 
L 246.731723 179.242361 
L 246.731723 180.187259 
L 246.731723 181.132157 
L 247.204172 181.604606 
L 247.204172 181.604606 
L 247.204172 181.132157 
L 247.204172 179.71481 
L 247.676621 178.769911 
L 248.14907 176.880115 
L 248.14907 175.935216 
L 248.621519 175.935216 
L 249.093968 175.462767 
L 249.093968 175.462767 
L 249.566418 176.407666 
L 250.038867 176.880115 
L 250.511316 178.769911 
L 250.511316 180.187259 
L 250.983765 181.132157 
" style="fill:none;stroke:#8c8c8c;stroke-linecap:square;"/>
   </g>
   <g id="line2d_8">
    <path clip-path="url(#p51e52573c1)" d="M 255.708257 176.407666 
L 255.708257 175.935216 
L 255.708257 175.935216 
L 255.235807 175.462767 
L 255.235807 175.462767 
L 254.763358 175.462767 
L 254.290909 176.407666 
L 253.81846 177.352564 
L 253.81846 178.297462 
L 253.81846 178.769911 
L 254.763358 179.242361 
L 255.708257 178.769911 
L 256.180706 178.297462 
L 256.180706 177.352564 
L 256.653155 176.407666 
L 256.653155 175.935216 
L 256.653155 175.462767 
L 256.653155 174.990318 
L 256.180706 174.990318 
L 256.180706 174.990318 
L 256.653155 175.462767 
L 256.653155 176.407666 
L 257.125604 177.825013 
L 257.598053 179.71481 
L 258.070502 180.187259 
L 258.542952 181.132157 
" style="fill:none;stroke:#8c8c8c;stroke-linecap:square;"/>
   </g>
   <g id="line2d_9">
    <path clip-path="url(#p51e52573c1)" d="M 260.905197 175.462767 
L 260.905197 175.462767 
L 260.905197 175.462767 
L 260.905197 175.462767 
L 260.905197 176.407666 
L 261.377646 176.880115 
L 261.377646 177.825013 
L 261.377646 178.297462 
L 261.850096 178.297462 
L 261.850096 178.297462 
L 261.850096 177.352564 
L 261.850096 175.935216 
L 262.322545 174.990318 
L 262.322545 174.04542 
L 262.794994 173.572971 
L 262.794994 173.572971 
L 263.267443 173.572971 
L 263.267443 174.517869 
L 263.267443 175.462767 
L 263.739892 176.880115 
L 263.739892 178.297462 
" style="fill:none;stroke:#8c8c8c;stroke-linecap:square;"/>
   </g>
   <g id="line2d_10">
    <path clip-path="url(#p51e52573c1)" d="M 267.991935 171.210725 
L 267.991935 171.210725 
L 267.991935 170.738276 
L 267.991935 170.265827 
L 267.991935 170.265827 
L 267.991935 170.738276 
L 268.464384 172.155623 
L 268.464384 173.100521 
L 269.409282 175.935216 
L 269.881731 177.352564 
L 269.881731 177.825013 
" style="fill:none;stroke:#8c8c8c;stroke-linecap:square;"/>
   </g>
   <g id="line2d_11">
    <path clip-path="url(#p51e52573c1)" d="M 268.464384 174.04542 
L 268.464384 174.04542 
L 268.464384 174.04542 
L 268.464384 174.04542 
L 268.464384 173.572971 
L 269.409282 173.572971 
L 270.82663 172.628072 
L 272.243977 172.628072 
L 272.716426 172.155623 
" style="fill:none;stroke:#8c8c8c;stroke-linecap:square;"/>
   </g>
   <g id="line2d_12">
    <path clip-path="url(#p51e52573c1)" d="M 275.551121 170.265827 
L 275.551121 170.265827 
L 275.551121 170.265827 
L 275.078672 170.265827 
L 274.606223 170.738276 
L 274.133774 171.210725 
L 274.133774 171.683174 
L 274.133774 172.155623 
L 274.606223 172.628072 
L 275.078672 172.628072 
L 276.02357 174.04542 
L 276.968469 174.990318 
L 277.440918 175.935216 
L 277.440918 177.352564 
" style="fill:none;stroke:#8c8c8c;stroke-linecap:square;"/>
   </g>
   <g id="line2d_13">
    <path clip-path="url(#p51e52573c1)" d="M 305.315418 173.572971 
L 305.315418 173.572971 
L 305.315418 174.04542 
L 305.315418 174.517869 
L 305.787867 174.517869 
L 305.787867 174.517869 
L 305.315418 174.04542 
L 304.37052 172.155623 
L 302.480723 169.320928 
L 300.590926 166.013784 
L 300.118477 164.596437 
L 299.173579 162.234191 
L 299.173579 161.289293 
L 299.646028 160.816843 
L 301.063376 159.871945 
L 302.480723 160.344394 
L 303.425621 160.816843 
L 304.37052 161.761742 
L 304.37052 162.234191 
" style="fill:none;stroke:#8c8c8c;stroke-linecap:square;"/>
   </g>
   <g id="line2d_14">
    <path clip-path="url(#p51e52573c1)" d="M 299.173579 168.848479 
L 298.70113 169.320928 
L 298.228681 169.793377 
L 298.70113 170.265827 
L 299.646028 170.265827 
L 302.480723 169.320928 
L 304.37052 168.848479 
L 307.677664 167.903581 
L 308.150113 167.903581 
" style="fill:none;stroke:#8c8c8c;stroke-linecap:square;"/>
   </g>
   <g id="line2d_15">
    <path clip-path="url(#p51e52573c1)" d="M 310.512359 169.320928 
L 310.984808 169.320928 
L 310.984808 169.320928 
L 310.984808 169.793377 
L 311.457257 170.265827 
L 311.929706 170.738276 
L 311.929706 171.683174 
L 311.929706 171.683174 
L 311.929706 172.155623 
L 311.929706 171.683174 
L 311.457257 170.738276 
L 311.457257 169.793377 
L 311.457257 168.37603 
L 311.929706 167.903581 
L 312.402155 166.958682 
L 312.874605 166.958682 
" style="fill:none;stroke:#8c8c8c;stroke-linecap:square;"/>
   </g>
   <g id="line2d_16">
    <path clip-path="url(#p51e52573c1)" d="M 317.599096 166.486233 
L 317.599096 166.486233 
L 317.126647 166.958682 
L 316.654198 167.431132 
L 316.181749 168.848479 
L 316.181749 169.320928 
L 316.654198 170.265827 
L 317.599096 170.738276 
L 318.543994 170.738276 
L 319.488893 170.265827 
L 319.488893 169.793377 
L 319.488893 168.37603 
L 319.016444 167.903581 
L 317.599096 167.431132 
L 317.126647 167.431132 
L 316.654198 167.903581 
L 316.654198 167.903581 
" style="fill:none;stroke:#8c8c8c;stroke-linecap:square;"/>
   </g>
   <g id="line2d_17">
    <path clip-path="url(#p51e52573c1)" d="M 323.740935 166.486233 
L 323.740935 166.486233 
L 323.740935 166.486233 
L 324.213384 166.958682 
L 324.213384 166.958682 
L 324.685833 167.431132 
L 324.685833 167.903581 
L 325.158283 168.848479 
L 325.158283 169.320928 
L 325.630732 169.320928 
L 325.630732 169.320928 
L 325.630732 167.903581 
L 326.103181 167.431132 
L 326.57563 166.013784 
L 327.048079 166.013784 
L 327.520528 166.013784 
L 328.465427 166.486233 
L 328.937876 166.958682 
L 328.937876 167.431132 
L 329.410325 167.431132 
L 329.882774 167.431132 
L 329.882774 166.958682 
L 330.355223 166.486233 
L 331.300122 165.541335 
L 332.24502 165.068886 
L 333.189918 165.068886 
L 334.134817 165.541335 
L 335.079715 166.958682 
L 336.024613 168.37603 
L 336.497062 168.848479 
" style="fill:none;stroke:#8c8c8c;stroke-linecap:square;"/>
   </g>
   <g id="line2d_18">
    <path clip-path="url(#p51e52573c1)" d="M 230.196002 198.140327 
L 229.723553 197.667878 
L 229.723553 197.667878 
L 229.723553 197.667878 
L 229.723553 198.612776 
L 230.196002 200.030123 
L 231.1409 202.392369 
L 231.61335 204.754615 
L 232.558248 206.644412 
L 233.030697 207.116861 
L 233.030697 207.58931 
" style="fill:none;stroke:#8c8c8c;stroke-linecap:square;"/>
   </g>
   <g id="line2d_19">
    <path clip-path="url(#p51e52573c1)" d="M 229.251104 203.337268 
L 229.251104 203.337268 
L 228.778655 203.337268 
L 228.778655 202.864818 
L 229.251104 202.392369 
L 231.1409 201.91992 
L 232.558248 200.975022 
L 233.503146 200.975022 
L 234.448044 200.030123 
" style="fill:none;stroke:#8c8c8c;stroke-linecap:square;"/>
   </g>
   <g id="line2d_20">
    <path clip-path="url(#p51e52573c1)" d="M 236.81029 195.778081 
L 236.81029 195.778081 
L 236.81029 195.305632 
L 236.337841 194.833183 
L 236.81029 195.305632 
L 236.81029 196.25053 
L 237.755189 199.085225 
L 238.700087 200.975022 
L 239.172536 202.864818 
L 239.172536 203.809717 
L 239.644985 203.337268 
L 239.644985 202.864818 
L 239.644985 201.447471 
L 239.644985 199.557674 
L 240.117434 198.612776 
L 241.062333 198.612776 
L 241.534782 198.612776 
L 242.007231 200.030123 
L 242.952129 200.975022 
L 243.424578 202.392369 
L 243.897028 202.392369 
" style="fill:none;stroke:#8c8c8c;stroke-linecap:square;"/>
   </g>
   <g id="line2d_21">
    <path clip-path="url(#p51e52573c1)" d="M 245.314375 201.447471 
L 245.314375 201.447471 
L 245.786824 200.975022 
L 246.259273 200.502573 
L 246.731723 199.557674 
L 247.676621 199.085225 
L 248.14907 198.140327 
L 248.14907 197.195428 
L 248.14907 196.722979 
L 247.676621 196.722979 
L 246.259273 197.667878 
L 245.786824 199.085225 
L 246.259273 200.502573 
L 246.731723 201.447471 
L 248.621519 202.392369 
L 251.456214 202.392369 
" style="fill:none;stroke:#8c8c8c;stroke-linecap:square;"/>
   </g>
   <g id="line2d_22">
    <path clip-path="url(#p51e52573c1)" d="M 270.35418 202.392369 
L 270.35418 202.392369 
L 270.35418 202.392369 
L 270.82663 202.392369 
L 270.82663 202.392369 
L 270.82663 202.392369 
L 271.299079 202.864818 
L 271.299079 202.864818 
L 271.771528 202.392369 
L 271.771528 201.91992 
L 271.299079 200.502573 
L 269.881731 197.667878 
L 267.991935 195.305632 
L 266.102138 191.998488 
L 265.15724 190.108691 
L 265.15724 188.691344 
L 265.629689 187.746445 
L 266.102138 186.801547 
L 267.519485 186.329098 
L 268.464384 185.856649 
L 268.936833 186.329098 
L 268.936833 186.801547 
" style="fill:none;stroke:#8c8c8c;stroke-linecap:square;"/>
   </g>
   <g id="line2d_23">
    <path clip-path="url(#p51e52573c1)" d="M 265.629689 194.360734 
L 265.15724 194.833183 
L 265.15724 195.778081 
L 265.15724 196.25053 
L 266.102138 196.722979 
L 268.464384 196.25053 
L 269.409282 195.778081 
L 272.243977 194.833183 
L 272.716426 194.360734 
" style="fill:none;stroke:#8c8c8c;stroke-linecap:square;"/>
   </g>
   <g id="line2d_24">
    <path clip-path="url(#p51e52573c1)" d="M 275.551121 194.360734 
L 275.551121 194.360734 
L 276.02357 194.833183 
L 276.02357 195.305632 
L 276.968469 197.195428 
L 277.440918 198.140327 
L 277.913367 198.612776 
" style="fill:none;stroke:#8c8c8c;stroke-linecap:square;"/>
   </g>
   <g id="line2d_25">
    <path clip-path="url(#p51e52573c1)" d="M 275.551121 190.58114 
L 275.078672 190.58114 
L 274.606223 189.636242 
L 274.606223 189.163793 
L 274.606223 188.691344 
L 274.606223 189.163793 
" style="fill:none;stroke:#8c8c8c;stroke-linecap:square;"/>
   </g>
   <g id="line2d_26">
    <path clip-path="url(#p51e52573c1)" d="M 282.165409 195.778081 
L 282.165409 195.778081 
L 282.637859 196.722979 
L 282.637859 197.195428 
L 283.110308 197.195428 
L 283.110308 197.195428 
L 282.637859 196.25053 
L 282.165409 195.778081 
L 281.69296 193.415835 
L 281.69296 192.470937 
L 282.165409 191.526039 
L 282.637859 191.053589 
L 283.110308 190.108691 
" style="fill:none;stroke:#8c8c8c;stroke-linecap:square;"/>
   </g>
   <g id="line2d_27">
    <path clip-path="url(#p51e52573c1)" d="M 286.417452 189.636242 
L 286.417452 189.636242 
L 286.417452 189.636242 
L 286.417452 189.636242 
L 286.417452 190.108691 
L 285.945003 191.053589 
L 285.472553 191.526039 
L 285.000104 192.470937 
L 285.000104 192.943386 
L 285.472553 193.415835 
L 286.417452 193.888284 
L 286.889901 193.888284 
L 288.307248 194.360734 
L 289.252147 194.833183 
L 290.197045 195.305632 
L 290.669494 196.25053 
L 291.141943 197.195428 
L 290.669494 198.140327 
L 290.669494 198.140327 
L 290.669494 198.140327 
" style="fill:none;stroke:#8c8c8c;stroke-linecap:square;"/>
   </g>
   <g id="line2d_28">
    <path clip-path="url(#p51e52573c1)" d="M 292.559291 190.58114 
L 292.559291 190.108691 
L 293.03174 189.636242 
L 293.03174 189.163793 
L 293.03174 189.163793 
L 293.504189 190.108691 
L 294.449087 191.053589 
L 295.866435 193.415835 
L 296.811333 194.833183 
L 297.283782 195.305632 
" style="fill:none;stroke:#8c8c8c;stroke-linecap:square;"/>
   </g>
   <g id="line2d_29">
    <path clip-path="url(#p51e52573c1)" d="M 294.449087 193.415835 
L 293.976638 192.943386 
L 293.976638 192.943386 
L 294.449087 192.470937 
L 295.393986 192.470937 
L 297.756232 191.998488 
L 299.173579 191.526039 
" style="fill:none;stroke:#8c8c8c;stroke-linecap:square;"/>
   </g>
   <g id="line2d_30">
    <path clip-path="url(#p51e52573c1)" d="M 321.378689 188.218894 
L 321.378689 188.218894 
L 321.378689 187.746445 
L 320.90624 187.746445 
L 320.433791 187.746445 
L 319.961342 187.746445 
L 319.016444 188.218894 
L 318.543994 189.636242 
L 318.071545 190.108691 
L 319.016444 192.943386 
L 319.961342 193.415835 
L 322.323588 193.888284 
L 323.740935 192.470937 
" style="fill:none;stroke:#8c8c8c;stroke-linecap:square;"/>
   </g>
   <g id="line2d_31">
    <path clip-path="url(#p51e52573c1)" d="M 325.630732 188.218894 
L 325.630732 188.218894 
L 325.158283 188.218894 
L 324.685833 188.691344 
L 324.213384 189.636242 
L 324.685833 191.053589 
L 326.57563 191.998488 
L 328.465427 191.998488 
L 329.410325 191.526039 
L 330.355223 189.636242 
L 329.410325 188.691344 
L 328.465427 187.746445 
L 326.103181 187.273996 
L 325.158283 187.273996 
L 324.685833 187.746445 
L 324.685833 188.218894 
" style="fill:none;stroke:#8c8c8c;stroke-linecap:square;"/>
   </g>
   <g id="line2d_32">
    <path clip-path="url(#p51e52573c1)" d="M 331.300122 187.746445 
L 331.772571 187.746445 
L 331.772571 187.746445 
L 332.24502 187.746445 
L 332.717469 188.691344 
L 333.189918 189.636242 
L 333.662367 190.108691 
L 333.662367 190.108691 
L 333.662367 189.636242 
L 333.662367 188.691344 
L 333.662367 187.273996 
L 334.134817 185.856649 
L 335.079715 184.91175 
L 336.024613 184.91175 
L 336.497062 185.856649 
L 337.441961 186.801547 
L 337.91441 188.218894 
L 338.859308 189.163793 
" style="fill:none;stroke:#8c8c8c;stroke-linecap:square;"/>
   </g>
   <g id="line2d_33">
    <path clip-path="url(#p51e52573c1)" d="M 343.111351 185.856649 
L 343.111351 185.856649 
L 343.111351 185.3842 
L 343.111351 185.3842 
L 342.166452 184.91175 
L 341.694003 185.3842 
L 340.749105 185.856649 
L 340.276656 186.801547 
L 340.749105 188.218894 
L 341.694003 188.691344 
L 343.111351 188.691344 
L 344.056249 188.691344 
L 344.528698 186.801547 
L 344.528698 184.439301 
L 344.056249 182.549505 
L 343.5838 180.187259 
L 343.111351 178.769911 
L 343.111351 178.297462 
L 342.638901 177.825013 
L 342.638901 177.825013 
L 343.111351 178.297462 
L 343.5838 180.659708 
L 344.528698 183.021954 
L 345.473596 184.91175 
L 346.418495 186.801547 
L 347.363393 187.273996 
" style="fill:none;stroke:#8c8c8c;stroke-linecap:square;"/>
   </g>
   <g id="line2d_34">
    <path clip-path="url(#p51e52573c1)" d="M 350.198088 185.856649 
L 350.198088 185.856649 
L 350.198088 185.856649 
L 350.198088 185.856649 
L 350.198088 185.3842 
L 350.670537 185.3842 
L 351.615435 184.439301 
L 352.087885 183.494403 
L 352.560334 182.549505 
L 352.560334 182.077055 
L 352.087885 181.132157 
L 351.142986 181.132157 
L 350.670537 181.604606 
L 350.198088 182.077055 
L 350.198088 183.966852 
L 350.670537 185.3842 
L 351.615435 186.329098 
L 353.505232 187.273996 
L 354.45013 187.273996 
L 354.45013 186.801547 
L 354.92258 185.856649 
" style="fill:none;stroke:#8c8c8c;stroke-linecap:square;"/>
   </g>
   <g id="line2d_35">
    <path clip-path="url(#p51e52573c1)" d="M 355.395029 184.439301 
L 355.395029 183.966852 
L 355.395029 183.966852 
L 355.395029 183.966852 
L 355.867478 184.439301 
L 355.867478 184.91175 
L 355.867478 185.856649 
L 355.867478 185.856649 
L 355.867478 186.329098 
L 356.339927 185.856649 
L 356.339927 185.3842 
L 356.812376 183.494403 
L 357.284825 181.604606 
L 357.757274 180.659708 
L 358.702173 180.187259 
L 359.174622 180.187259 
L 359.647071 181.132157 
L 360.11952 182.077055 
L 360.591969 183.494403 
L 361.064419 183.966852 
L 361.536868 183.966852 
L 361.536868 183.966852 
" style="fill:none;stroke:#8c8c8c;stroke-linecap:square;"/>
   </g>
   <g id="line2d_36">
    <path clip-path="url(#p51e52573c1)" d="M 367.206258 182.077055 
L 367.206258 182.077055 
L 367.678707 181.132157 
L 367.678707 180.187259 
L 367.206258 179.242361 
L 367.206258 179.242361 
L 366.733808 178.769911 
L 365.78891 179.242361 
L 364.844012 180.187259 
L 364.844012 180.187259 
L 364.844012 180.659708 
L 365.316461 181.132157 
L 366.261359 181.132157 
L 367.206258 181.604606 
L 368.151156 182.549505 
L 368.623605 183.494403 
L 368.623605 184.91175 
L 368.151156 185.856649 
L 367.206258 186.329098 
L 366.733808 186.801547 
L 366.733808 186.329098 
" style="fill:none;stroke:#8c8c8c;stroke-linecap:square;"/>
   </g>
   <g id="line2d_37">
    <path clip-path="url(#p51e52573c1)" d="M 373.820546 181.132157 
L 373.348097 181.132157 
L 373.348097 181.132157 
L 372.875647 180.659708 
L 372.403198 180.659708 
L 371.4583 181.132157 
L 370.985851 181.604606 
L 370.985851 182.549505 
L 371.930749 183.021954 
L 372.875647 183.494403 
L 373.820546 183.494403 
L 374.292995 182.549505 
L 374.765444 181.604606 
L 374.765444 179.71481 
L 374.765444 179.242361 
L 374.765444 177.825013 
L 374.765444 177.352564 
L 374.765444 177.352564 
L 374.765444 177.352564 
L 375.237893 178.769911 
L 375.710342 180.659708 
L 376.182792 182.549505 
L 376.655241 183.966852 
L 377.12769 185.3842 
L 377.12769 185.3842 
L 377.600139 185.3842 
" style="fill:none;stroke:#8c8c8c;stroke-linecap:square;"/>
   </g>
   <g id="line2d_38">
    <path clip-path="url(#p51e52573c1)" d="M 380.434834 173.572971 
L 380.434834 173.100521 
L 380.434834 173.100521 
L 380.907283 173.100521 
L 380.907283 173.100521 
L 380.907283 173.572971 
L 381.379732 174.04542 
L 382.324631 176.880115 
L 382.79708 179.242361 
L 383.269529 180.659708 
L 383.741978 182.077055 
L 383.741978 182.077055 
" style="fill:none;stroke:#8c8c8c;stroke-linecap:square;"/>
   </g>
   <g id="line2d_39">
    <path clip-path="url(#p51e52573c1)" d="M 379.489936 178.769911 
L 379.489936 178.769911 
L 379.489936 178.769911 
L 379.489936 178.297462 
L 380.434834 177.825013 
L 380.907283 177.352564 
L 382.324631 177.352564 
L 383.269529 176.880115 
L 384.214427 176.880115 
L 384.686876 176.407666 
L 385.159326 176.407666 
" style="fill:none;stroke:#8c8c8c;stroke-linecap:square;"/>
   </g>
   <g id="line2d_40">
    <path clip-path="url(#p51e52573c1)" d="M 386.576673 175.935216 
L 386.576673 176.407666 
L 387.049122 176.880115 
L 387.049122 177.825013 
L 387.521571 179.71481 
L 387.994021 180.659708 
L 388.46647 181.604606 
L 388.46647 181.604606 
" style="fill:none;stroke:#8c8c8c;stroke-linecap:square;"/>
   </g>
   <g id="line2d_41">
    <path clip-path="url(#p51e52573c1)" d="M 391.301165 173.100521 
L 391.301165 173.100521 
L 391.301165 173.572971 
L 390.828715 174.04542 
L 390.828715 174.990318 
L 390.828715 176.407666 
L 391.301165 178.297462 
L 391.773614 179.242361 
L 393.190961 180.659708 
L 394.13586 180.659708 
L 395.080758 180.187259 
L 395.553207 178.769911 
L 395.553207 177.352564 
L 395.553207 175.462767 
L 395.553207 174.04542 
L 394.608309 173.572971 
L 393.66341 173.100521 
L 392.718512 173.572971 
L 391.773614 173.572971 
L 391.301165 174.04542 
L 390.828715 174.04542 
" style="fill:none;stroke:#8c8c8c;stroke-linecap:square;"/>
   </g>
   <g id="line2d_42">
    <path clip-path="url(#p51e52573c1)" d="M 397.915453 174.517869 
L 398.387902 174.04542 
L 398.860351 174.04542 
L 399.3328 174.04542 
L 399.3328 174.517869 
L 400.277699 175.462767 
L 400.750148 176.880115 
L 400.750148 178.297462 
L 401.222597 178.769911 
L 401.222597 179.242361 
L 401.222597 178.769911 
L 401.222597 177.352564 
L 401.695046 175.935216 
L 402.167495 174.990318 
L 402.639944 174.517869 
L 403.112394 174.517869 
L 403.584843 175.462767 
L 404.057292 176.407666 
L 404.057292 177.352564 
L 404.057292 178.769911 
L 404.057292 178.769911 
" style="fill:none;stroke:#8c8c8c;stroke-linecap:square;"/>
   </g>
   <g id="line2d_43">
    <path clip-path="url(#p51e52573c1)" d="M 238.700087 222.707683 
L 238.700087 222.707683 
L 238.700087 222.707683 
L 238.700087 222.707683 
L 239.172536 223.180132 
L 239.644985 224.59748 
L 240.589884 226.014827 
L 241.534782 227.904624 
L 242.007231 228.849522 
L 242.47968 230.266869 
L 242.47968 230.266869 
" style="fill:none;stroke:#8c8c8c;stroke-linecap:square;"/>
   </g>
   <g id="line2d_44">
    <path clip-path="url(#p51e52573c1)" d="M 237.755189 217.983191 
L 237.755189 217.038293 
L 237.282739 216.565844 
L 237.282739 216.565844 
L 237.282739 216.093395 
L 237.282739 216.093395 
L 237.282739 216.565844 
" style="fill:none;stroke:#8c8c8c;stroke-linecap:square;"/>
   </g>
   <g id="line2d_45">
    <path clip-path="url(#p51e52573c1)" d="M 242.952129 225.069929 
L 242.952129 225.069929 
L 243.424578 224.59748 
L 243.424578 224.59748 
L 243.424578 224.12503 
L 243.424578 224.59748 
L 244.369477 225.069929 
L 244.841926 226.014827 
L 245.314375 226.487276 
L 245.314375 226.959725 
L 245.314375 226.487276 
L 245.314375 226.014827 
L 245.314375 225.069929 
L 244.841926 222.235234 
L 244.841926 220.817886 
L 245.314375 219.872988 
L 245.786824 219.872988 
L 246.731723 220.345437 
L 248.14907 222.235234 
L 250.038867 223.652581 
L 250.983765 225.069929 
L 251.456214 226.487276 
L 251.928663 227.432175 
L 251.928663 227.432175 
" style="fill:none;stroke:#8c8c8c;stroke-linecap:square;"/>
   </g>
   <g id="line2d_46">
    <path clip-path="url(#p51e52573c1)" d="M 274.606223 221.290335 
L 274.606223 220.817886 
L 274.606223 220.345437 
L 274.133774 219.872988 
L 274.133774 219.872988 
L 274.133774 219.872988 
L 273.661325 220.345437 
L 273.661325 221.290335 
L 274.133774 222.235234 
L 275.078672 223.652581 
L 276.496019 224.12503 
L 277.440918 223.652581 
L 278.385816 222.707683 
L 277.913367 221.290335 
L 277.440918 219.872988 
L 276.02357 218.92809 
L 275.078672 218.455641 
L 274.133774 218.92809 
L 273.661325 219.872988 
L 273.188875 220.345437 
" style="fill:none;stroke:#8c8c8c;stroke-linecap:square;"/>
   </g>
   <g id="line2d_47">
    <path clip-path="url(#p51e52573c1)" d="M 279.330714 220.345437 
L 279.803164 219.872988 
L 279.803164 219.872988 
L 279.803164 219.872988 
L 280.275613 220.345437 
L 281.220511 220.817886 
L 282.637859 221.762785 
L 283.582757 221.762785 
L 284.527655 221.762785 
L 285.000104 221.290335 
L 285.472553 220.817886 
L 285.472553 218.92809 
L 285.000104 218.455641 
L 284.055206 217.510742 
L 283.582757 217.038293 
L 283.110308 217.038293 
L 283.110308 217.038293 
L 282.637859 217.038293 
" style="fill:none;stroke:#8c8c8c;stroke-linecap:square;"/>
   </g>
   <g id="line2d_48">
    <path clip-path="url(#p51e52573c1)" d="M 288.307248 218.455641 
L 288.307248 218.455641 
L 288.779698 218.455641 
L 289.724596 218.455641 
L 290.197045 218.92809 
L 290.669494 219.400539 
L 290.669494 219.400539 
L 291.141943 219.872988 
L 291.141943 219.872988 
L 291.141943 219.872988 
L 291.141943 219.400539 
L 290.669494 218.455641 
L 290.197045 217.510742 
L 290.669494 216.565844 
L 291.141943 215.620946 
L 292.086842 214.676047 
L 292.559291 213.731149 
" style="fill:none;stroke:#8c8c8c;stroke-linecap:square;"/>
   </g>
   <g id="line2d_49">
    <path clip-path="url(#p51e52573c1)" d="M 314.764401 214.676047 
L 314.291952 214.203598 
L 314.291952 214.203598 
L 314.291952 214.203598 
L 313.819503 214.203598 
L 313.819503 214.676047 
L 314.291952 215.620946 
L 314.291952 216.565844 
L 314.291952 217.038293 
L 314.291952 217.510742 
L 314.291952 217.510742 
L 313.819503 217.038293 
L 313.819503 215.620946 
L 313.819503 214.203598 
L 314.291952 213.2587 
L 314.764401 211.368903 
L 315.709299 210.896454 
L 316.654198 210.896454 
L 317.599096 211.368903 
L 318.543994 212.313801 
L 319.488893 213.2587 
L 319.961342 214.203598 
L 320.433791 215.148496 
" style="fill:none;stroke:#8c8c8c;stroke-linecap:square;"/>
   </g>
   <g id="line2d_50">
    <path clip-path="url(#p51e52573c1)" d="M 320.90624 214.676047 
L 320.90624 214.676047 
L 321.378689 214.203598 
L 321.378689 214.203598 
L 322.323588 213.731149 
L 323.268486 213.2587 
L 323.740935 212.313801 
L 324.213384 211.368903 
L 324.213384 210.896454 
L 323.740935 209.951556 
L 323.268486 209.479107 
L 322.323588 209.951556 
L 321.851139 210.896454 
L 321.378689 211.841352 
L 321.851139 213.2587 
L 323.740935 215.620946 
L 326.103181 216.565844 
L 327.520528 216.093395 
L 328.937876 215.148496 
L 329.882774 213.731149 
L 329.882774 212.786251 
" style="fill:none;stroke:#8c8c8c;stroke-linecap:square;"/>
   </g>
   <g id="line2d_51">
    <path clip-path="url(#p51e52573c1)" d="M 329.882774 204.282166 
L 329.882774 204.282166 
L 329.882774 203.809717 
L 329.882774 203.809717 
L 329.410325 203.809717 
L 329.410325 204.282166 
L 329.882774 205.699513 
L 330.827673 207.58931 
L 331.772571 209.951556 
L 332.24502 211.368903 
L 332.717469 212.313801 
L 332.717469 212.313801 
L 332.717469 212.313801 
L 332.717469 211.841352 
L 332.717469 210.896454 
L 333.189918 209.951556 
L 333.662367 209.006657 
L 334.607266 208.534208 
L 335.552164 208.061759 
L 336.969512 209.006657 
L 338.386859 209.951556 
L 339.331757 211.841352 
L 339.331757 213.2587 
L 338.386859 213.731149 
L 337.441961 214.203598 
L 334.607266 213.2587 
L 332.717469 212.313801 
L 331.772571 211.368903 
L 330.827673 210.896454 
L 330.355223 210.424005 
" style="fill:none;stroke:#8c8c8c;stroke-linecap:square;"/>
   </g>
   <g id="line2d_52">
    <path clip-path="url(#p51e52573c1)" d="M 339.331757 209.479107 
L 339.331757 209.479107 
L 339.804207 209.479107 
L 340.276656 209.479107 
L 340.276656 209.951556 
L 341.221554 210.424005 
L 342.638901 211.841352 
L 344.056249 212.786251 
L 345.001147 212.786251 
L 345.946046 212.786251 
L 346.418495 211.841352 
L 346.418495 209.479107 
L 345.946046 208.061759 
L 345.001147 206.644412 
L 345.001147 206.171962 
L 345.001147 205.699513 
L 345.001147 205.699513 
" style="fill:none;stroke:#8c8c8c;stroke-linecap:square;"/>
   </g>
   <g id="line2d_53">
    <path clip-path="url(#p51e52573c1)" d="M 349.25319 202.392369 
L 349.25319 201.91992 
L 349.25319 201.447471 
L 349.25319 200.975022 
L 349.25319 200.975022 
L 349.25319 201.447471 
L 349.725639 202.864818 
L 350.670537 205.227064 
L 350.670537 206.171962 
L 352.087885 209.006657 
L 352.560334 209.951556 
L 353.032783 210.424005 
L 353.032783 210.424005 
" style="fill:none;stroke:#8c8c8c;stroke-linecap:square;"/>
   </g>
   <g id="line2d_54">
    <path clip-path="url(#p51e52573c1)" d="M 358.229724 207.58931 
L 358.229724 207.58931 
L 358.702173 207.58931 
L 358.702173 207.116861 
L 358.702173 206.644412 
L 358.229724 205.699513 
L 358.229724 205.227064 
L 357.284825 205.227064 
L 356.339927 205.227064 
L 355.867478 206.171962 
L 355.867478 207.116861 
L 356.812376 208.061759 
L 357.284825 208.534208 
L 358.229724 208.534208 
L 358.702173 208.061759 
L 359.174622 207.116861 
L 359.174622 205.699513 
L 359.174622 204.282166 
L 359.174622 203.809717 
L 359.174622 203.809717 
L 359.174622 204.282166 
L 360.11952 205.699513 
L 360.11952 207.58931 
L 361.064419 209.479107 
L 361.064419 209.951556 
L 360.591969 210.424005 
" style="fill:none;stroke:#8c8c8c;stroke-linecap:square;"/>
   </g>
   <g id="line2d_55">
    <path clip-path="url(#p51e52573c1)" d="M 330.355223 208.534208 
L 330.355223 208.534208 
L 330.355223 208.534208 
L 330.355223 208.534208 
L 330.355223 208.534208 
L 330.355223 208.534208 
L 330.355223 208.534208 
L 330.355223 208.534208 
L 329.882774 209.006657 
L 329.882774 209.006657 
L 329.882774 209.006657 
L 329.882774 209.006657 
L 329.882774 209.006657 
L 329.882774 209.006657 
L 329.882774 209.479107 
L 329.882774 209.479107 
L 329.882774 209.479107 
L 330.355223 209.951556 
L 330.355223 210.424005 
L 330.355223 210.424005 
L 330.355223 211.368903 
L 330.827673 211.841352 
L 330.827673 212.313801 
L 331.300122 212.786251 
L 331.300122 213.2587 
L 331.772571 213.731149 
L 332.24502 214.203598 
L 332.24502 214.676047 
L 332.24502 214.676047 
L 332.717469 215.148496 
L 332.717469 215.620946 
L 332.717469 216.093395 
L 332.717469 216.093395 
L 332.717469 216.565844 
L 332.717469 216.565844 
L 332.717469 216.093395 
L 332.717469 216.093395 
L 332.717469 215.620946 
" style="fill:none;stroke:#8c8c8c;stroke-linecap:square;"/>
   </g>
   <g id="line2d_56">
    <path clip-path="url(#p51e52573c1)" d="M 328.937876 204.282166 
L 328.937876 204.282166 
L 328.937876 203.809717 
L 328.465427 203.337268 
L 328.465427 202.864818 
L 327.992978 202.392369 
L 327.992978 201.91992 
L 327.992978 201.91992 
L 327.992978 201.91992 
L 327.992978 201.91992 
L 327.992978 201.91992 
L 327.992978 201.91992 
L 327.992978 202.392369 
L 328.465427 203.337268 
L 328.937876 204.282166 
L 329.410325 205.699513 
L 329.882774 206.644412 
L 330.355223 208.061759 
L 330.827673 209.479107 
L 331.300122 209.951556 
L 331.300122 210.424005 
L 331.772571 210.896454 
L 331.772571 211.368903 
L 331.772571 211.841352 
L 331.772571 211.841352 
L 331.772571 212.313801 
" style="fill:none;stroke:#8c8c8c;stroke-linecap:square;"/>
   </g>
   <g id="line2d_57">
    <path clip-path="url(#p51e52573c1)" d="M 160.745976 23.806588 
L 160.745976 23.806588 
L 160.745976 23.334139 
L 160.745976 23.334139 
L 161.218425 23.334139 
L 161.218425 23.334139 
L 161.218425 23.334139 
L 161.218425 23.334139 
L 161.218425 23.334139 
L 161.218425 23.806588 
L 161.690874 24.279037 
L 161.690874 25.696384 
L 162.163323 27.586181 
L 162.163323 29.003529 
L 162.163323 31.838224 
L 162.635773 33.72802 
L 162.635773 34.672918 
L 162.635773 35.617817 
L 162.635773 36.090266 
L 162.635773 36.090266 
L 162.635773 36.090266 
" style="fill:none;stroke:#8c8c8c;stroke-linecap:square;"/>
   </g>
   <g id="line2d_58">
    <path clip-path="url(#p51e52573c1)" d="M 170.194959 24.279037 
L 170.194959 24.279037 
L 170.194959 24.279037 
L 170.194959 24.279037 
L 170.194959 24.279037 
L 170.194959 24.279037 
L 170.194959 24.279037 
L 170.194959 24.279037 
L 170.194959 24.279037 
" style="fill:none;stroke:#8c8c8c;stroke-linecap:square;"/>
   </g>
   <g id="line2d_59">
    <path clip-path="url(#p51e52573c1)" d="M 170.667408 30.893325 
L 170.667408 30.893325 
L 170.667408 30.893325 
L 170.194959 31.365774 
L 170.194959 31.838224 
L 170.194959 32.310673 
L 170.194959 32.310673 
L 170.194959 32.310673 
L 170.194959 32.310673 
" style="fill:none;stroke:#8c8c8c;stroke-linecap:square;"/>
   </g>
   <g id="line2d_60">
    <path clip-path="url(#p51e52573c1)" d="M 177.754146 19.554545 
L 177.754146 19.554545 
L 177.754146 19.554545 
L 177.754146 19.554545 
L 177.754146 19.554545 
L 177.754146 20.026995 
L 177.754146 20.499444 
L 178.226595 21.444342 
L 178.699044 23.806588 
L 179.171493 25.696384 
L 179.643942 28.05863 
L 180.588841 32.310673 
L 181.533739 34.672918 
L 182.006188 37.035164 
L 182.478637 37.980063 
L 182.478637 37.980063 
" style="fill:none;stroke:#8c8c8c;stroke-linecap:square;"/>
   </g>
  </g>
 </g>
 <defs>
  <clipPath id="p51e52573c1">
   <rect height="271.8" width="415.755258" x="7.2" y="7.2"/>
  </clipPath>
 </defs>
</svg>
