<?xml version="1.0" encoding="utf-8" standalone="no"?>
<!DOCTYPE svg PUBLIC "-//W3C//DTD SVG 1.1//EN"
  "http://www.w3.org/Graphics/SVG/1.1/DTD/svg11.dtd">
<!-- Created with matplotlib (https://matplotlib.org/) -->
<svg height="285.500559pt" version="1.1" viewBox="0 0 573.009836 285.500559" width="573.009836pt" xmlns="http://www.w3.org/2000/svg" xmlns:xlink="http://www.w3.org/1999/xlink">
 <metadata>
  <rdf:RDF xmlns:cc="http://creativecommons.org/ns#" xmlns:dc="http://purl.org/dc/elements/1.1/" xmlns:rdf="http://www.w3.org/1999/02/22-rdf-syntax-ns#">
   <cc:Work>
    <dc:type rdf:resource="http://purl.org/dc/dcmitype/StillImage"/>
    <dc:date>2024-11-15T16:03:39.438083</dc:date>
    <dc:format>image/svg+xml</dc:format>
    <dc:creator>
     <cc:Agent>
      <dc:title>Matplotlib v3.3.4, https://matplotlib.org/</dc:title>
     </cc:Agent>
    </dc:creator>
   </cc:Work>
  </rdf:RDF>
 </metadata>
 <defs>
  <style type="text/css">*{stroke-linecap:butt;stroke-linejoin:round;}</style>
 </defs>
 <g id="figure_1">
  <g id="patch_1">
   <path d="M -0 285.500559 
L 573.009836 285.500559 
L 573.009836 0 
L -0 0 
z
" style="fill:#ffffff;"/>
  </g>
  <g id="axes_1">
   <g id="line2d_1">
    <path clip-path="url(#p9771064ab0)" d="M 235.26821 265.653523 
L 235.26821 265.653523 
L 235.26821 265.653523 
L 235.592492 265.653523 
L 235.916775 265.32924 
L 235.916775 265.32924 
L 235.916775 265.32924 
L 236.241058 265.32924 
L 236.565341 265.32924 
L 236.889624 265.32924 
L 237.213907 265.32924 
L 238.186756 265.32924 
L 238.511039 265.32924 
L 239.483888 265.653523 
L 240.132454 265.653523 
L 240.456737 265.653523 
L 241.105303 265.977806 
L 242.402435 265.977806 
L 242.726718 265.977806 
L 244.02385 265.977806 
L 244.672416 265.977806 
L 245.320981 265.977806 
L 246.29383 265.653523 
L 247.915245 265.653523 
L 248.239528 265.653523 
L 249.860943 265.32924 
L 250.509509 265.32924 
L 251.158075 265.32924 
L 252.130924 265.32924 
L 253.428056 265.004957 
L 253.428056 265.004957 
L 254.400904 265.004957 
L 255.04947 265.32924 
L 255.698036 265.32924 
L 256.670885 265.32924 
L 257.319451 265.32924 
L 257.968017 265.32924 
L 258.616583 265.32924 
L 258.940866 265.32924 
L 259.589432 265.32924 
L 260.237998 265.32924 
L 260.886564 265.32924 
L 261.53513 265.32924 
L 262.507979 265.32924 
L 263.156545 265.32924 
L 263.156545 265.32924 
L 263.80511 265.32924 
L 264.453676 265.32924 
L 265.102242 265.32924 
L 265.426525 265.004957 
L 266.075091 265.004957 
L 266.399374 265.004957 
L 266.723657 265.004957 
L 267.04794 265.004957 
L 267.372223 265.004957 
" style="fill:none;stroke:#8c8c8c;stroke-linecap:square;"/>
   </g>
   <g id="line2d_2">
    <path clip-path="url(#p9771064ab0)" d="M 34.861337 61.355255 
L 34.861337 61.355255 
L 34.861337 61.030972 
L 34.861337 61.030972 
L 35.18562 61.030972 
L 35.509903 61.355255 
L 35.509903 61.355255 
L 35.509903 61.679538 
L 35.834186 64.273802 
L 35.834186 67.192349 
L 35.834186 68.165197 
L 35.834186 69.138046 
L 35.834186 70.435178 
L 35.834186 71.408027 
L 36.158469 71.73231 
L 36.482752 71.73231 
L 39.077015 71.73231 
L 40.374147 71.408027 
L 42.319845 71.408027 
L 42.644128 71.083744 
" style="fill:none;stroke:#8c8c8c;stroke-linecap:square;"/>
   </g>
   <g id="line2d_3">
    <path clip-path="url(#p9771064ab0)" d="M 44.265543 67.192349 
L 44.265543 67.192349 
L 44.265543 67.192349 
L 44.265543 67.192349 
L 44.265543 67.192349 
L 44.589826 68.165197 
L 44.914109 71.408027 
L 44.914109 71.73231 
L 44.914109 71.73231 
" style="fill:none;stroke:#8c8c8c;stroke-linecap:square;"/>
   </g>
   <g id="line2d_4">
    <path clip-path="url(#p9771064ab0)" d="M 42.644128 63.300953 
L 42.644128 62.97667 
L 42.644128 62.97667 
L 42.644128 62.652387 
L 42.968411 62.652387 
" style="fill:none;stroke:#8c8c8c;stroke-linecap:square;"/>
   </g>
   <g id="line2d_5">
    <path clip-path="url(#p9771064ab0)" d="M 46.211241 62.328104 
L 46.211241 62.328104 
L 46.535524 62.652387 
L 46.859807 62.97667 
L 47.832656 66.543783 
L 48.481221 68.48948 
L 48.805504 69.786612 
L 48.805504 70.435178 
" style="fill:none;stroke:#8c8c8c;stroke-linecap:square;"/>
   </g>
   <g id="line2d_6">
    <path clip-path="url(#p9771064ab0)" d="M 46.211241 66.868066 
L 46.535524 66.543783 
L 46.859807 66.543783 
L 47.832656 66.2195 
L 49.129787 65.895217 
L 49.778353 65.570934 
L 49.778353 65.570934 
" style="fill:none;stroke:#8c8c8c;stroke-linecap:square;"/>
   </g>
   <g id="line2d_7">
    <path clip-path="url(#p9771064ab0)" d="M 51.075485 62.003821 
L 51.075485 61.679538 
L 51.075485 61.679538 
L 51.399768 62.003821 
L 51.399768 63.300953 
L 52.372617 67.516632 
L 52.6969 69.138046 
L 52.6969 69.786612 
L 52.6969 69.462329 
L 54.318315 66.543783 
L 54.966881 65.895217 
L 55.615447 66.543783 
L 56.264013 69.138046 
L 56.912579 70.759461 
" style="fill:none;stroke:#8c8c8c;stroke-linecap:square;"/>
   </g>
   <g id="line2d_8">
    <path clip-path="url(#p9771064ab0)" d="M 59.506842 67.192349 
L 59.182559 67.192349 
L 59.182559 67.192349 
L 58.858276 67.192349 
L 58.858276 67.192349 
L 59.182559 69.786612 
L 59.831125 70.110895 
L 61.45254 68.165197 
L 61.128257 66.868066 
L 59.182559 66.543783 
L 58.533993 66.868066 
" style="fill:none;stroke:#8c8c8c;stroke-linecap:square;"/>
   </g>
   <g id="line2d_9">
    <path clip-path="url(#p9771064ab0)" d="M 65.992502 67.840915 
L 65.992502 67.840915 
L 65.668219 68.165197 
L 65.668219 68.48948 
L 65.992502 68.813763 
L 67.613916 68.165197 
L 67.289633 65.570934 
L 66.965351 65.570934 
L 65.668219 65.246651 
L 65.019653 66.543783 
L 65.019653 66.868066 
L 65.019653 68.48948 
L 65.668219 71.083744 
L 66.965351 75.299423 
L 67.613916 77.569403 
L 67.289633 77.245121 
L 67.289633 77.245121 
" style="fill:none;stroke:#8c8c8c;stroke-linecap:square;"/>
   </g>
   <g id="line2d_10">
    <path clip-path="url(#p9771064ab0)" d="M 69.235331 60.706689 
L 69.235331 60.706689 
L 69.235331 60.706689 
L 69.235331 60.706689 
L 69.883897 63.625236 
L 70.20818 64.598085 
L 70.856746 67.840915 
L 71.181029 69.462329 
L 71.181029 69.462329 
" style="fill:none;stroke:#8c8c8c;stroke-linecap:square;"/>
   </g>
   <g id="line2d_11">
    <path clip-path="url(#p9771064ab0)" d="M 70.532463 66.2195 
L 70.532463 66.2195 
L 70.532463 66.2195 
L 70.20818 66.2195 
L 71.505312 64.598085 
L 71.829595 64.273802 
L 72.153878 64.273802 
L 73.45101 65.570934 
L 74.099576 67.192349 
L 74.099576 69.138046 
L 74.099576 69.138046 
" style="fill:none;stroke:#8c8c8c;stroke-linecap:square;"/>
   </g>
   <g id="line2d_12">
    <path clip-path="url(#p9771064ab0)" d="M 77.018122 64.598085 
L 77.018122 64.273802 
L 77.018122 64.273802 
L 77.342405 64.273802 
L 77.342405 64.922368 
L 77.666688 66.2195 
L 77.666688 67.840915 
L 77.666688 68.48948 
" style="fill:none;stroke:#8c8c8c;stroke-linecap:square;"/>
   </g>
   <g id="line2d_13">
    <path clip-path="url(#p9771064ab0)" d="M 77.018122 60.058123 
L 77.018122 60.058123 
L 77.018122 59.409557 
L 77.018122 59.085274 
L 77.018122 58.760991 
" style="fill:none;stroke:#8c8c8c;stroke-linecap:square;"/>
   </g>
   <g id="line2d_14">
    <path clip-path="url(#p9771064ab0)" d="M 78.639537 59.409557 
L 78.639537 59.409557 
L 78.639537 59.409557 
L 78.96382 60.058123 
L 79.936669 61.679538 
L 80.260952 62.97667 
L 81.558084 67.840915 
L 81.558084 68.48948 
" style="fill:none;stroke:#8c8c8c;stroke-linecap:square;"/>
   </g>
   <g id="line2d_15">
    <path clip-path="url(#p9771064ab0)" d="M 82.20665 64.922368 
L 82.20665 64.922368 
L 82.530933 65.246651 
L 82.855216 65.246651 
L 83.503782 65.246651 
L 85.125197 64.273802 
L 86.422328 62.328104 
L 86.422328 62.328104 
L 85.125197 62.97667 
L 84.152348 65.570934 
L 84.152348 67.192349 
L 86.422328 67.840915 
L 86.746611 67.516632 
" style="fill:none;stroke:#8c8c8c;stroke-linecap:square;"/>
   </g>
   <g id="line2d_16">
    <path clip-path="url(#p9771064ab0)" d="M 92.259422 63.625236 
L 92.259422 63.625236 
L 92.259422 63.625236 
L 92.259422 63.625236 
L 92.259422 63.625236 
L 92.583705 63.625236 
L 92.583705 63.625236 
" style="fill:none;stroke:#8c8c8c;stroke-linecap:square;"/>
   </g>
   <g id="line2d_17">
    <path clip-path="url(#p9771064ab0)" d="M 93.232271 67.516632 
L 93.232271 67.516632 
L 93.232271 67.840915 
L 93.556554 68.165197 
L 93.556554 68.165197 
L 93.556554 68.165197 
L 93.556554 68.165197 
" style="fill:none;stroke:#8c8c8c;stroke-linecap:square;"/>
   </g>
   <g id="line2d_18">
    <path clip-path="url(#p9771064ab0)" d="M 106.527872 65.570934 
L 106.527872 65.895217 
L 106.852155 66.2195 
L 106.852155 66.543783 
L 107.500721 68.813763 
L 107.825004 69.138046 
L 107.176438 68.165197 
L 106.527872 66.543783 
L 106.203589 65.246651 
L 107.176438 63.949519 
L 109.122136 63.300953 
" style="fill:none;stroke:#8c8c8c;stroke-linecap:square;"/>
   </g>
   <g id="line2d_19">
    <path clip-path="url(#p9771064ab0)" d="M 112.364966 65.246651 
L 112.364966 65.246651 
L 112.364966 64.922368 
L 112.364966 64.922368 
L 112.364966 64.922368 
L 112.040683 64.922368 
L 111.392117 66.868066 
L 112.040683 69.462329 
L 113.337815 70.110895 
L 113.98638 69.786612 
L 114.310663 67.192349 
" style="fill:none;stroke:#8c8c8c;stroke-linecap:square;"/>
   </g>
   <g id="line2d_20">
    <path clip-path="url(#p9771064ab0)" d="M 112.040683 64.598085 
L 112.040683 64.598085 
L 112.040683 64.598085 
L 112.040683 64.598085 
L 112.364966 64.922368 
L 113.013532 65.570934 
L 113.337815 66.868066 
L 113.662098 66.868066 
L 113.662098 67.192349 
" style="fill:none;stroke:#8c8c8c;stroke-linecap:square;"/>
   </g>
   <g id="line2d_21">
    <path clip-path="url(#p9771064ab0)" d="M 117.553493 64.598085 
L 117.553493 64.598085 
L 117.553493 64.598085 
L 117.553493 64.598085 
L 117.22921 64.598085 
L 116.580644 65.246651 
L 115.932078 67.840915 
L 118.202059 69.462329 
L 118.850625 69.462329 
L 119.823474 68.813763 
" style="fill:none;stroke:#8c8c8c;stroke-linecap:square;"/>
   </g>
   <g id="line2d_22">
    <path clip-path="url(#p9771064ab0)" d="M 121.769172 61.355255 
L 121.769172 61.355255 
L 121.769172 61.030972 
L 121.769172 61.030972 
L 121.769172 61.355255 
L 122.742021 63.625236 
L 124.039152 68.813763 
L 123.714869 69.138046 
" style="fill:none;stroke:#8c8c8c;stroke-linecap:square;"/>
   </g>
   <g id="line2d_23">
    <path clip-path="url(#p9771064ab0)" d="M 125.012001 63.625236 
L 125.336284 63.625236 
L 125.660567 63.625236 
L 125.660567 63.949519 
L 125.336284 65.246651 
L 124.687718 65.895217 
L 124.687718 65.895217 
L 123.714869 66.543783 
L 123.714869 66.543783 
L 123.714869 66.543783 
L 124.687718 66.868066 
L 127.606265 68.165197 
L 127.606265 68.165197 
L 127.930548 68.165197 
L 127.930548 68.165197 
" style="fill:none;stroke:#8c8c8c;stroke-linecap:square;"/>
   </g>
   <g id="line2d_24">
    <path clip-path="url(#p9771064ab0)" d="M 131.173378 66.2195 
L 131.173378 66.2195 
L 131.173378 66.2195 
L 131.173378 66.543783 
L 131.173378 66.543783 
L 132.794792 66.868066 
L 134.416207 66.543783 
" style="fill:none;stroke:#8c8c8c;stroke-linecap:square;"/>
   </g>
   <g id="line2d_25">
    <path clip-path="url(#p9771064ab0)" d="M 140.901867 60.058123 
L 140.901867 60.058123 
L 140.901867 59.73384 
L 140.577584 59.409557 
L 140.577584 59.73384 
L 140.901867 63.625236 
L 141.874715 67.516632 
" style="fill:none;stroke:#8c8c8c;stroke-linecap:square;"/>
   </g>
   <g id="line2d_26">
    <path clip-path="url(#p9771064ab0)" d="M 144.793262 63.949519 
L 144.793262 63.625236 
L 144.793262 63.625236 
L 144.793262 64.273802 
L 145.117545 65.246651 
L 146.090394 66.2195 
L 148.036092 65.570934 
L 146.090394 63.300953 
L 146.090394 63.300953 
L 145.117545 63.300953 
L 145.117545 63.300953 
" style="fill:none;stroke:#8c8c8c;stroke-linecap:square;"/>
   </g>
   <g id="line2d_27">
    <path clip-path="url(#p9771064ab0)" d="M 148.360375 63.300953 
L 148.360375 63.300953 
L 148.684658 63.300953 
L 148.684658 63.625236 
L 149.333224 64.598085 
L 150.630356 66.543783 
L 152.576053 65.895217 
L 152.25177 62.97667 
L 152.25177 62.97667 
L 152.25177 62.652387 
L 152.25177 62.652387 
" style="fill:none;stroke:#8c8c8c;stroke-linecap:square;"/>
   </g>
   <g id="line2d_28">
    <path clip-path="url(#p9771064ab0)" d="M 154.197468 63.625236 
L 154.521751 64.273802 
L 154.846034 65.570934 
L 155.170317 65.895217 
L 155.170317 66.543783 
" style="fill:none;stroke:#8c8c8c;stroke-linecap:square;"/>
   </g>
   <g id="line2d_29">
    <path clip-path="url(#p9771064ab0)" d="M 154.197468 61.355255 
L 154.197468 60.382406 
L 153.873185 60.382406 
L 153.873185 60.058123 
L 154.197468 60.058123 
" style="fill:none;stroke:#8c8c8c;stroke-linecap:square;"/>
   </g>
   <g id="line2d_30">
    <path clip-path="url(#p9771064ab0)" d="M 156.467449 62.328104 
L 156.467449 62.652387 
L 156.467449 62.97667 
L 157.440298 64.922368 
L 158.413147 66.2195 
L 158.413147 66.2195 
L 159.061713 64.273802 
L 160.358845 62.652387 
L 160.683127 62.328104 
L 161.655976 64.598085 
L 161.980259 66.2195 
L 161.980259 66.2195 
" style="fill:none;stroke:#8c8c8c;stroke-linecap:square;"/>
   </g>
   <g id="line2d_31">
    <path clip-path="url(#p9771064ab0)" d="M 166.195938 62.652387 
L 166.195938 62.328104 
L 166.195938 62.003821 
L 166.195938 62.003821 
L 165.871655 62.328104 
L 165.223089 63.625236 
L 165.547372 64.598085 
L 166.844504 64.598085 
L 166.844504 63.625236 
L 166.520221 62.003821 
L 166.520221 62.652387 
L 166.844504 62.652387 
L 168.465919 65.246651 
L 169.438768 68.165197 
L 169.438768 70.435178 
L 168.465919 71.408027 
L 166.195938 71.73231 
" style="fill:none;stroke:#8c8c8c;stroke-linecap:square;"/>
   </g>
   <g id="line2d_32">
    <path clip-path="url(#p9771064ab0)" d="M 175.600144 67.192349 
L 175.924427 67.192349 
L 177.221559 66.543783 
L 179.167257 64.598085 
L 181.437237 62.003821 
L 185.328633 56.815294 
L 186.625765 54.869596 
L 186.625765 54.869596 
L 186.625765 54.869596 
" style="fill:none;stroke:#8c8c8c;stroke-linecap:square;"/>
   </g>
   <g id="line2d_33">
    <path clip-path="url(#p9771064ab0)" d="M 188.571463 60.382406 
L 188.571463 60.382406 
L 188.895745 60.382406 
L 188.895745 60.382406 
L 188.571463 60.382406 
L 186.950048 61.679538 
L 185.977199 62.652387 
L 186.625765 63.300953 
L 188.571463 63.300953 
L 189.544311 63.625236 
L 190.192877 64.273802 
L 189.544311 65.570934 
L 188.24718 65.895217 
L 187.274331 65.895217 
" style="fill:none;stroke:#8c8c8c;stroke-linecap:square;"/>
   </g>
   <g id="line2d_34">
    <path clip-path="url(#p9771064ab0)" d="M 192.462858 62.652387 
L 192.462858 62.652387 
L 192.462858 62.652387 
L 192.787141 62.97667 
L 192.787141 63.625236 
L 193.111424 64.598085 
L 193.435707 65.246651 
" style="fill:none;stroke:#8c8c8c;stroke-linecap:square;"/>
   </g>
   <g id="line2d_35">
    <path clip-path="url(#p9771064ab0)" d="M 193.111424 58.436709 
L 193.111424 58.112426 
L 193.111424 58.112426 
L 192.787141 57.788143 
L 192.787141 58.112426 
" style="fill:none;stroke:#8c8c8c;stroke-linecap:square;"/>
   </g>
   <g id="line2d_36">
    <path clip-path="url(#p9771064ab0)" d="M 195.057122 58.436709 
L 195.057122 58.436709 
L 195.381405 58.436709 
L 195.381405 58.760991 
L 196.678537 61.030972 
L 197.651386 63.949519 
L 197.975668 65.246651 
L 197.975668 65.246651 
" style="fill:none;stroke:#8c8c8c;stroke-linecap:square;"/>
   </g>
   <g id="line2d_37">
    <path clip-path="url(#p9771064ab0)" d="M 199.921366 61.679538 
L 199.921366 61.679538 
L 199.921366 62.003821 
L 200.569932 64.273802 
L 200.569932 64.598085 
" style="fill:none;stroke:#8c8c8c;stroke-linecap:square;"/>
   </g>
   <g id="line2d_38">
    <path clip-path="url(#p9771064ab0)" d="M 199.2728 58.112426 
L 198.948517 57.46386 
L 199.2728 57.46386 
" style="fill:none;stroke:#8c8c8c;stroke-linecap:square;"/>
   </g>
   <g id="line2d_39">
    <path clip-path="url(#p9771064ab0)" d="M 205.109894 60.706689 
L 205.109894 60.706689 
L 205.109894 60.382406 
L 205.109894 60.382406 
L 205.109894 60.382406 
L 204.137045 61.679538 
L 203.812762 63.625236 
L 205.109894 65.246651 
L 205.75846 65.895217 
L 206.407026 65.570934 
" style="fill:none;stroke:#8c8c8c;stroke-linecap:square;"/>
   </g>
   <g id="line2d_40">
    <path clip-path="url(#p9771064ab0)" d="M 210.298421 62.003821 
L 210.298421 62.003821 
L 209.974138 61.679538 
L 209.325572 62.003821 
L 208.352723 63.625236 
L 208.677006 63.949519 
L 210.622704 62.652387 
L 210.622704 61.355255 
L 210.622704 61.030972 
L 210.622704 61.679538 
L 211.919836 65.895217 
L 212.244119 66.2195 
L 212.568402 66.868066 
" style="fill:none;stroke:#8c8c8c;stroke-linecap:square;"/>
   </g>
   <g id="line2d_41">
    <path clip-path="url(#p9771064ab0)" d="M 220.02691 55.842445 
L 220.02691 55.842445 
L 220.02691 55.842445 
L 221.648325 60.058123 
L 221.972608 60.382406 
L 223.26974 63.949519 
L 223.594023 65.246651 
L 223.594023 65.246651 
" style="fill:none;stroke:#8c8c8c;stroke-linecap:square;"/>
   </g>
   <g id="line2d_42">
    <path clip-path="url(#p9771064ab0)" d="M 225.864004 61.030972 
L 225.864004 61.030972 
L 225.864004 61.030972 
L 225.864004 61.355255 
L 226.512569 62.328104 
L 227.485418 63.300953 
L 229.431116 63.300953 
L 228.458267 61.355255 
L 227.809701 61.355255 
L 225.539721 61.355255 
L 225.539721 61.355255 
" style="fill:none;stroke:#8c8c8c;stroke-linecap:square;"/>
   </g>
   <g id="line2d_43">
    <path clip-path="url(#p9771064ab0)" d="M 230.079682 60.706689 
L 230.079682 60.706689 
L 230.079682 60.706689 
L 230.403965 61.030972 
L 231.376814 62.328104 
L 232.02538 62.97667 
L 232.998229 62.97667 
L 233.971078 61.355255 
L 232.02538 58.112426 
L 232.02538 57.788143 
L 232.02538 57.788143 
" style="fill:none;stroke:#8c8c8c;stroke-linecap:square;"/>
   </g>
   <g id="line2d_44">
    <path clip-path="url(#p9771064ab0)" d="M 234.943927 59.409557 
L 235.26821 60.058123 
L 235.916775 61.355255 
L 235.916775 62.003821 
L 236.565341 62.003821 
" style="fill:none;stroke:#8c8c8c;stroke-linecap:square;"/>
   </g>
   <g id="line2d_45">
    <path clip-path="url(#p9771064ab0)" d="M 235.592492 58.436709 
L 235.592492 58.112426 
L 235.26821 56.166728 
L 235.26821 55.842445 
L 235.26821 56.166728 
" style="fill:none;stroke:#8c8c8c;stroke-linecap:square;"/>
   </g>
   <g id="line2d_46">
    <path clip-path="url(#p9771064ab0)" d="M 238.186756 60.058123 
L 238.186756 60.058123 
L 238.511039 60.706689 
L 238.511039 61.679538 
L 239.159605 62.97667 
L 239.483888 62.652387 
L 240.132454 61.030972 
L 241.105303 59.085274 
L 241.753869 59.085274 
L 242.078152 59.73384 
L 242.402435 62.003821 
L 242.726718 62.652387 
" style="fill:none;stroke:#8c8c8c;stroke-linecap:square;"/>
   </g>
   <g id="line2d_47">
    <path clip-path="url(#p9771064ab0)" d="M 244.996698 61.355255 
L 245.320981 60.058123 
L 245.320981 59.73384 
L 244.996698 58.760991 
L 243.375284 59.73384 
L 244.348133 62.003821 
L 245.320981 62.652387 
L 245.645264 60.706689 
L 245.645264 60.058123 
L 245.645264 60.058123 
L 246.29383 60.706689 
L 248.888094 64.922368 
L 248.888094 65.570934 
L 248.563811 66.543783 
L 243.051001 68.165197 
L 241.429586 67.516632 
" style="fill:none;stroke:#8c8c8c;stroke-linecap:square;"/>
   </g>
   <g id="line2d_48">
    <path clip-path="url(#p9771064ab0)" d="M 423.352329 32.169788 
L 423.676612 32.494071 
L 423.676612 32.818354 
L 426.919442 34.115486 
L 427.892291 34.439769 
L 433.729384 36.061184 
L 440.539327 38.331165 
L 446.700703 41.898277 
L 451.564947 50.329634 
L 453.186362 61.679538 
L 453.834928 62.652387 
L 458.699173 68.48948 
L 462.266285 73.353725 
L 463.239134 76.920838 
L 462.590568 81.785082 
L 461.293436 90.865005 
L 464.211983 99.944928 
L 464.860549 100.593494 
L 467.13053 102.863475 
L 468.427662 106.430587 
L 469.40051 109.9977 
L 475.88617 117.780491 
L 484.966093 122.644736 
L 492.748884 124.590433 
L 508.314466 120.050472 
L 515.448692 114.213379 
L 522.258634 107.727719 
L 531.338557 98.647796 
L 534.581387 94.756401 
L 538.148499 91.513571 
L 540.41848 86.649327 
L 539.769914 84.703629 
L 536.202801 80.48795 
L 535.229952 78.542252 
L 536.527084 69.138046 
L 536.527084 68.813763 
L 536.851367 66.2195 
L 534.257104 62.003821 
L 530.689991 60.706689 
L 527.122878 60.058123 
L 523.231483 57.139577 
L 523.555766 48.383937 
L 523.555766 47.411088 
L 520.637219 43.843975 
L 516.42154 40.925428 
L 514.800126 38.979731 
L 513.827277 36.70975 
L 512.530145 32.169788 
L 507.341617 26.656978 
L 506.368769 26.008412 
L 503.125939 25.359846 
L 489.830337 23.414148 
L 484.64181 22.441299 
L 477.507585 20.819885 
L 471.994774 19.522753 
L 471.670491 19.522753 
L 468.427662 19.522753 
L 465.184832 19.847036 
L 462.590568 20.171319 
L 459.347739 20.495602 
L 455.780626 20.819885 
L 453.186362 20.819885 
L 452.862079 20.819885 
L 451.240664 20.171319 
L 450.267816 20.171319 
L 448.970684 20.495602 
L 445.079288 21.46845 
L 445.079288 21.792733 
L 442.809307 22.441299 
L 442.485024 22.765582 
L 439.890761 23.738431 
L 438.593629 24.386997 
L 437.62078 24.71128 
L 435.026516 25.684129 
L 431.135121 26.981261 
L 431.135121 26.981261 
L 430.486555 27.305544 
L 430.486555 27.629827 
L 430.162272 28.278393 
L 428.540857 28.926959 
L 424.973744 30.224091 
L 424.649461 30.224091 
L 424.325178 30.224091 
L 424.000895 30.548374 
L 423.676612 30.548374 
L 423.352329 30.872656 
L 423.028046 30.548374 
" style="fill:none;stroke:#8c8c8c;stroke-linecap:square;"/>
   </g>
   <g id="line2d_49">
    <path clip-path="url(#p9771064ab0)" d="M 486.587508 86.325044 
L 486.587508 86.000761 
L 486.587508 86.000761 
L 486.587508 85.352195 
L 486.587508 85.352195 
L 486.911791 85.352195 
L 487.236074 85.352195 
L 487.560357 86.000761 
L 488.208922 86.649327 
L 488.857488 88.270741 
L 489.181771 88.919307 
L 489.181771 89.892156 
L 489.181771 90.216439 
L 487.884639 93.134986 
L 487.236074 94.756401 
L 487.560357 95.404967 
L 488.533205 96.053532 
L 489.506054 97.350664 
L 489.506054 97.99923 
L 489.830337 101.566343 
L 490.15462 102.539192 
L 490.15462 102.863475 
L 490.478903 103.836324 
L 491.451752 104.809173 
L 491.451752 104.809173 
L 492.424601 104.160607 
L 492.748884 103.836324 
L 493.073167 103.187758 
L 493.39745 102.214909 
L 493.721733 100.593494 
L 493.721733 100.269211 
L 494.370299 98.323513 
L 495.018865 96.377815 
L 495.343148 95.080684 
L 495.667431 94.107835 
L 495.667431 92.810703 
L 495.018865 91.189288 
L 495.018865 90.865005 
L 495.667431 88.595024 
L 495.667431 86.000761 
L 495.018865 84.379346 
L 494.370299 82.757931 
L 494.370299 82.757931 
L 493.39745 81.785082 
L 492.748884 80.812233 
L 492.424601 80.163667 
L 490.803186 78.866535 
L 490.803186 78.542252 
L 489.506054 77.245121 
L 489.181771 77.245121 
L 488.533205 75.947989 
L 488.208922 75.623706 
L 487.884639 75.623706 
L 487.236074 75.623706 
L 486.263225 75.947989 
L 485.614659 76.272272 
L 484.64181 77.569403 
L 484.64181 77.893686 
L 484.966093 78.217969 
L 484.64181 78.866535 
L 484.317527 79.839384 
L 484.317527 80.163667 
L 484.317527 81.136516 
L 484.317527 81.785082 
L 484.317527 82.109365 
L 484.966093 83.082214 
L 485.614659 83.406497 
L 486.263225 83.73078 
L 486.587508 84.703629 
L 486.587508 85.027912 
" style="fill:none;stroke:#8c8c8c;stroke-linecap:square;"/>
   </g>
   <g id="line2d_50">
    <path clip-path="url(#p9771064ab0)" d="M 489.830337 82.757931 
L 489.830337 82.757931 
L 489.830337 82.757931 
L 489.830337 82.757931 
L 489.830337 83.082214 
L 489.506054 83.082214 
L 489.181771 83.406497 
L 488.208922 84.055063 
L 488.208922 84.703629 
L 488.208922 84.703629 
L 488.857488 85.027912 
L 489.181771 85.352195 
L 490.15462 86.325044 
L 490.478903 86.973609 
L 490.15462 87.622175 
L 489.181771 87.946458 
L 488.857488 87.622175 
" style="fill:none;stroke:#8c8c8c;stroke-linecap:square;"/>
   </g>
   <g id="line2d_51">
    <path clip-path="url(#p9771064ab0)" d="M 492.424601 86.325044 
L 492.424601 86.325044 
L 492.424601 86.325044 
L 492.424601 86.649327 
L 492.424601 86.973609 
L 492.424601 86.973609 
L 492.424601 87.622175 
L 492.424601 87.622175 
" style="fill:none;stroke:#8c8c8c;stroke-linecap:square;"/>
   </g>
   <g id="line2d_52">
    <path clip-path="url(#p9771064ab0)" d="M 492.424601 84.379346 
L 492.100318 83.73078 
" style="fill:none;stroke:#8c8c8c;stroke-linecap:square;"/>
   </g>
   <g id="line2d_53">
    <path clip-path="url(#p9771064ab0)" d="M 469.40051 34.115486 
L 469.40051 34.115486 
L 469.40051 33.791203 
L 469.40051 33.791203 
L 469.724793 33.791203 
L 469.724793 34.115486 
L 471.021925 37.682599 
L 472.319057 43.519692 
L 472.64334 43.843975 
L 472.64334 43.843975 
" style="fill:none;stroke:#8c8c8c;stroke-linecap:square;"/>
   </g>
   <g id="line2d_54">
    <path clip-path="url(#p9771064ab0)" d="M 469.40051 33.142637 
L 469.40051 33.142637 
L 469.40051 33.142637 
L 469.724793 33.142637 
L 472.967623 32.169788 
L 475.88617 31.521222 
L 476.210453 31.521222 
" style="fill:none;stroke:#8c8c8c;stroke-linecap:square;"/>
   </g>
   <g id="line2d_55">
    <path clip-path="url(#p9771064ab0)" d="M 469.724793 37.034033 
L 469.724793 37.358316 
L 470.049076 37.358316 
L 471.346208 37.358316 
L 473.940472 36.70975 
L 474.913321 36.385467 
" style="fill:none;stroke:#8c8c8c;stroke-linecap:square;"/>
   </g>
   <g id="line2d_56">
    <path clip-path="url(#p9771064ab0)" d="M 475.88617 39.628297 
L 475.88617 39.952579 
L 475.561887 40.276862 
L 475.561887 40.276862 
L 477.507585 40.601145 
L 478.480434 39.628297 
L 478.156151 38.331165 
L 476.859019 37.358316 
L 475.561887 41.573994 
L 475.561887 42.546843 
L 480.426131 42.546843 
" style="fill:none;stroke:#8c8c8c;stroke-linecap:square;"/>
   </g>
   <g id="line2d_57">
    <path clip-path="url(#p9771064ab0)" d="M 460.969153 31.845505 
L 461.293436 32.494071 
L 461.617719 32.818354 
L 463.563417 36.061184 
L 463.8877 36.385467 
L 464.860549 38.979731 
L 464.860549 41.573994 
L 464.536266 42.546843 
L 464.211983 44.168258 
L 465.833398 45.789673 
L 467.454813 46.438239 
L 469.076228 49.032503 
L 469.076228 50.653917 
L 470.049076 51.951049 
L 471.346208 51.626766 
L 472.64334 51.302483 
L 473.616189 51.302483 
L 475.237604 51.302483 
L 475.88617 51.626766 
L 476.210453 51.626766 
L 476.859019 51.626766 
L 478.156151 51.302483 
L 479.128999 50.9782 
L 479.777565 50.653917 
L 479.777565 50.9782 
L 480.101848 50.9782 
L 480.101848 50.653917 
L 480.426131 50.005351 
L 481.074697 47.735371 
L 481.723263 45.789673 
L 482.371829 44.816824 
L 483.344678 43.195409 
L 484.64181 41.573994 
L 485.614659 40.276862 
L 486.263225 39.304014 
L 486.587508 38.006882 
L 486.587508 36.061184 
L 486.587508 35.736901 
L 486.587508 33.791203 
L 487.236074 31.521222 
L 486.911791 29.575525 
L 485.290376 28.602676 
L 481.723263 28.278393 
L 481.39898 28.278393 
L 480.426131 27.629827 
L 480.101848 26.981261 
L 479.453282 26.332695 
L 477.507585 24.386997 
L 476.859019 24.386997 
L 474.264755 24.062714 
L 473.940472 24.062714 
L 472.319057 24.386997 
L 471.021925 24.386997 
L 469.724793 24.71128 
L 468.103379 25.359846 
L 466.157681 26.656978 
L 463.8877 27.95411 
L 463.563417 27.95411 
L 462.590568 28.602676 
L 461.942002 28.926959 
L 461.293436 28.926959 
L 459.996304 29.251242 
L 459.672022 29.251242 
L 459.347739 29.575525 
L 459.023456 29.575525 
L 458.699173 29.575525 
L 458.699173 29.899808 
L 458.699173 29.899808 
" style="fill:none;stroke:#8c8c8c;stroke-linecap:square;"/>
   </g>
   <g id="line2d_58">
    <path clip-path="url(#p9771064ab0)" d="M 513.827277 74.97514 
L 513.827277 74.97514 
L 513.827277 74.97514 
L 513.827277 75.299423 
L 513.827277 75.299423 
L 513.827277 75.623706 
L 513.178711 76.272272 
L 512.530145 76.920838 
L 510.90873 79.190818 
L 510.90873 80.163667 
L 511.233013 80.812233 
L 512.205862 84.055063 
L 512.205862 85.676478 
L 512.205862 86.649327 
L 511.557296 88.270741 
L 509.935881 89.892156 
L 508.963032 90.865005 
L 508.638749 91.189288 
L 507.6659 91.837854 
L 506.693051 93.134986 
L 506.044486 93.783552 
L 504.747354 95.72925 
L 503.450222 96.702098 
L 502.477373 97.674947 
L 501.180241 99.296362 
L 500.855958 99.944928 
L 500.855958 100.269211 
L 500.531675 100.917777 
L 501.180241 101.24206 
L 502.15309 100.917777 
L 502.801656 100.593494 
L 505.071637 99.296362 
L 506.368769 98.323513 
L 507.341617 97.350664 
L 508.638749 96.377815 
L 508.963032 96.377815 
L 510.90873 94.432118 
L 511.233013 94.432118 
L 512.530145 93.459269 
L 513.178711 93.459269 
L 513.502994 93.134986 
L 514.475843 92.810703 
L 516.42154 90.540722 
L 516.745823 90.216439 
L 519.015804 86.973609 
L 519.988653 85.352195 
L 520.637219 84.055063 
L 522.258634 82.109365 
L 524.204332 79.515101 
L 524.528615 79.515101 
L 525.501463 78.542252 
L 526.474312 77.245121 
L 526.798595 76.920838 
L 527.122878 76.272272 
L 527.447161 74.97514 
L 526.798595 72.705159 
L 526.474312 72.380876 
L 525.825746 70.759461 
L 525.177181 69.462329 
L 524.528615 68.48948 
L 522.258634 66.868066 
L 521.285785 65.895217 
L 520.312936 65.570934 
L 519.988653 65.246651 
L 518.367238 64.598085 
L 517.394389 64.273802 
L 515.772975 64.598085 
L 514.800126 65.246651 
L 514.800126 65.895217 
L 514.800126 67.516632 
L 514.800126 68.48948 
L 514.800126 68.813763 
L 514.800126 69.138046 
L 514.475843 69.786612 
L 514.475843 70.435178 
L 514.15156 70.759461 
L 513.827277 72.056593 
L 513.502994 72.705159 
L 513.502994 73.029442 
L 513.178711 73.678008 
L 512.854428 74.002291 
L 512.854428 74.326574 
L 512.854428 74.650857 
L 512.854428 74.326574 
" style="fill:none;stroke:#8c8c8c;stroke-linecap:square;"/>
   </g>
   <g id="line2d_59">
    <path clip-path="url(#p9771064ab0)" d="M 521.934351 70.759461 
L 521.610068 70.435178 
L 521.610068 70.435178 
L 520.961502 70.759461 
L 520.637219 71.083744 
L 519.66437 71.408027 
L 519.015804 72.380876 
L 518.691521 73.029442 
L 519.015804 73.678008 
L 519.340087 74.002291 
L 520.312936 75.299423 
L 520.312936 75.623706 
L 520.312936 76.272272 
L 519.988653 76.920838 
L 518.367238 78.217969 
L 518.042955 78.217969 
L 517.394389 77.893686 
L 516.42154 77.569403 
" style="fill:none;stroke:#8c8c8c;stroke-linecap:square;"/>
   </g>
   <g id="line2d_60">
    <path clip-path="url(#p9771064ab0)" d="M 473.616189 76.272272 
L 473.616189 76.272272 
L 473.616189 76.272272 
L 473.616189 75.947989 
L 473.291906 75.947989 
L 471.994774 76.596555 
L 470.373359 77.569403 
L 470.049076 78.866535 
L 472.319057 78.866535 
L 473.940472 79.515101 
L 475.561887 81.785082 
L 475.561887 83.73078 
L 474.913321 84.703629 
L 473.940472 85.352195 
L 471.346208 85.027912 
L 471.346208 84.055063 
" style="fill:none;stroke:#8c8c8c;stroke-linecap:square;"/>
   </g>
   <g id="line2d_61">
    <path clip-path="url(#p9771064ab0)" d="M 478.156151 81.136516 
L 478.156151 81.460799 
L 478.480434 82.433648 
L 478.804716 83.406497 
L 478.804716 83.73078 
L 478.804716 83.73078 
" style="fill:none;stroke:#8c8c8c;stroke-linecap:square;"/>
   </g>
   <g id="line2d_62">
    <path clip-path="url(#p9771064ab0)" d="M 479.128999 77.245121 
L 479.128999 76.272272 
L 479.128999 76.272272 
L 479.128999 75.623706 
" style="fill:none;stroke:#8c8c8c;stroke-linecap:square;"/>
   </g>
   <g id="line2d_63">
    <path clip-path="url(#p9771064ab0)" d="M 459.347739 29.575525 
L 459.347739 29.575525 
L 459.347739 29.575525 
L 459.347739 29.575525 
L 459.347739 29.575525 
L 459.347739 29.251242 
L 459.347739 29.575525 
L 459.347739 29.575525 
L 459.672022 29.899808 
L 459.672022 30.224091 
L 459.672022 30.548374 
L 459.672022 30.548374 
L 459.996304 31.196939 
L 459.996304 31.521222 
L 460.320587 31.521222 
L 460.320587 31.845505 
" style="fill:none;stroke:#8c8c8c;stroke-linecap:square;"/>
   </g>
   <g id="line2d_64">
    <path clip-path="url(#p9771064ab0)" d="M 40.374147 83.082214 
L 40.374147 83.082214 
L 40.69843 82.757931 
L 41.022713 82.757931 
L 41.022713 82.757931 
L 41.022713 82.433648 
L 41.022713 82.433648 
L 41.022713 82.109365 
L 40.69843 82.109365 
L 39.077015 81.785082 
L 37.455601 82.109365 
L 36.482752 82.757931 
L 34.861337 86.325044 
L 34.861337 86.973609 
L 35.18562 87.622175 
L 37.131318 88.270741 
L 39.077015 88.595024 
L 41.022713 89.567873 
L 41.671279 89.892156 
L 42.968411 92.48642 
L 42.319845 94.107835 
L 41.346996 95.080684 
L 39.725581 95.404967 
L 39.077015 93.459269 
" style="fill:none;stroke:#8c8c8c;stroke-linecap:square;"/>
   </g>
   <g id="line2d_65">
    <path clip-path="url(#p9771064ab0)" d="M 45.562675 90.216439 
L 45.562675 90.540722 
L 45.886958 90.865005 
L 45.886958 90.865005 
L 46.211241 92.162137 
L 46.211241 92.162137 
L 46.211241 92.162137 
" style="fill:none;stroke:#8c8c8c;stroke-linecap:square;"/>
   </g>
   <g id="line2d_66">
    <path clip-path="url(#p9771064ab0)" d="M 45.238392 85.676478 
L 45.238392 85.352195 
L 45.238392 85.352195 
L 45.238392 85.352195 
" style="fill:none;stroke:#8c8c8c;stroke-linecap:square;"/>
   </g>
   <g id="line2d_67">
    <path clip-path="url(#p9771064ab0)" d="M 49.778353 90.216439 
L 49.45407 90.216439 
L 49.45407 89.892156 
L 49.45407 89.892156 
L 49.129787 89.892156 
L 48.481221 90.540722 
L 48.156939 92.48642 
L 48.156939 92.810703 
L 49.778353 90.540722 
L 49.778353 88.595024 
L 49.778353 86.325044 
L 48.805504 81.785082 
L 48.481221 80.163667 
L 48.481221 80.163667 
L 48.481221 80.163667 
L 49.778353 83.73078 
L 50.751202 87.297892 
L 51.075485 87.622175 
L 51.724051 92.162137 
L 52.372617 93.783552 
" style="fill:none;stroke:#8c8c8c;stroke-linecap:square;"/>
   </g>
   <g id="line2d_68">
    <path clip-path="url(#p9771064ab0)" d="M 53.669749 89.892156 
L 53.669749 89.892156 
L 53.994032 90.216439 
L 54.318315 90.540722 
L 55.291164 90.540722 
L 55.93973 88.595024 
L 54.318315 87.946458 
L 53.994032 87.946458 
L 53.345466 90.540722 
L 54.318315 92.162137 
L 55.291164 92.810703 
L 56.264013 93.134986 
L 57.885427 93.134986 
" style="fill:none;stroke:#8c8c8c;stroke-linecap:square;"/>
   </g>
   <g id="line2d_69">
    <path clip-path="url(#p9771064ab0)" d="M 57.885427 89.24359 
L 57.561145 89.24359 
L 57.885427 89.24359 
L 57.885427 89.24359 
L 59.182559 90.540722 
L 59.506842 90.865005 
L 60.479691 92.48642 
L 60.155408 92.162137 
L 59.506842 91.189288 
L 59.831125 88.919307 
L 62.101106 86.325044 
" style="fill:none;stroke:#8c8c8c;stroke-linecap:square;"/>
   </g>
   <g id="line2d_70">
    <path clip-path="url(#p9771064ab0)" d="M 63.722521 88.919307 
L 63.722521 88.919307 
L 63.722521 88.919307 
L 63.398238 89.24359 
L 63.073955 89.892156 
L 63.398238 90.540722 
L 64.371087 92.48642 
L 64.371087 92.810703 
L 65.992502 92.810703 
L 66.965351 91.837854 
L 65.343936 87.622175 
L 63.722521 87.297892 
L 62.425389 87.297892 
L 62.101106 87.622175 
" style="fill:none;stroke:#8c8c8c;stroke-linecap:square;"/>
   </g>
   <g id="line2d_71">
    <path clip-path="url(#p9771064ab0)" d="M 71.505312 90.540722 
L 71.505312 90.540722 
L 71.505312 90.540722 
L 71.829595 90.540722 
L 72.153878 90.540722 
L 72.478161 90.540722 
L 73.45101 90.216439 
L 73.45101 89.892156 
L 73.45101 88.270741 
L 73.45101 87.946458 
L 71.505312 86.973609 
L 70.856746 86.973609 
L 70.532463 87.297892 
L 70.856746 89.892156 
L 71.829595 92.162137 
L 72.802444 95.080684 
L 73.126727 96.053532 
L 73.775293 97.674947 
L 73.775293 97.674947 
" style="fill:none;stroke:#8c8c8c;stroke-linecap:square;"/>
   </g>
   <g id="line2d_72">
    <path clip-path="url(#p9771064ab0)" d="M 74.423859 83.082214 
L 74.423859 83.082214 
L 74.748142 84.055063 
L 75.072425 85.352195 
L 75.396708 86.973609 
L 75.720991 88.270741 
L 76.369557 90.216439 
L 76.693839 90.865005 
" style="fill:none;stroke:#8c8c8c;stroke-linecap:square;"/>
   </g>
   <g id="line2d_73">
    <path clip-path="url(#p9771064ab0)" d="M 76.045274 87.297892 
L 76.045274 87.297892 
L 76.045274 87.297892 
L 75.720991 86.973609 
L 76.045274 86.325044 
L 76.693839 85.352195 
L 77.018122 85.027912 
L 78.639537 85.027912 
L 79.288103 85.676478 
L 79.936669 87.622175 
L 80.585235 89.567873 
L 80.585235 89.892156 
" style="fill:none;stroke:#8c8c8c;stroke-linecap:square;"/>
   </g>
   <g id="line2d_74">
    <path clip-path="url(#p9771064ab0)" d="M 82.530933 84.703629 
L 82.530933 85.027912 
L 82.530933 85.027912 
L 83.179499 86.325044 
L 84.152348 88.595024 
" style="fill:none;stroke:#8c8c8c;stroke-linecap:square;"/>
   </g>
   <g id="line2d_75">
    <path clip-path="url(#p9771064ab0)" d="M 82.20665 77.893686 
L 81.882367 77.569403 
L 81.882367 77.569403 
" style="fill:none;stroke:#8c8c8c;stroke-linecap:square;"/>
   </g>
   <g id="line2d_76">
    <path clip-path="url(#p9771064ab0)" d="M 84.800914 78.542252 
L 85.125197 79.190818 
L 85.125197 79.839384 
L 87.070894 85.027912 
L 88.043743 87.297892 
L 88.368026 88.595024 
L 88.692309 88.919307 
" style="fill:none;stroke:#8c8c8c;stroke-linecap:square;"/>
   </g>
   <g id="line2d_77">
    <path clip-path="url(#p9771064ab0)" d="M 88.692309 85.676478 
L 88.692309 85.676478 
L 89.016592 85.676478 
L 89.340875 85.676478 
L 89.665158 85.352195 
L 90.313724 85.027912 
L 91.286573 83.73078 
L 90.96229 81.785082 
L 90.638007 81.785082 
L 89.016592 83.73078 
L 88.692309 86.325044 
L 89.665158 88.595024 
L 94.20512 89.24359 
L 95.177968 88.595024 
" style="fill:none;stroke:#8c8c8c;stroke-linecap:square;"/>
   </g>
   <g id="line2d_78">
    <path clip-path="url(#p9771064ab0)" d="M 97.772232 83.406497 
L 97.772232 83.406497 
L 97.772232 83.406497 
L 97.772232 83.082214 
L 97.772232 83.082214 
L 97.772232 83.082214 
" style="fill:none;stroke:#8c8c8c;stroke-linecap:square;"/>
   </g>
   <g id="line2d_79">
    <path clip-path="url(#p9771064ab0)" d="M 100.042213 86.649327 
L 99.71793 86.973609 
L 99.71793 87.297892 
L 99.393647 87.946458 
" style="fill:none;stroke:#8c8c8c;stroke-linecap:square;"/>
   </g>
   <g id="line2d_80">
    <path clip-path="url(#p9771064ab0)" d="M 112.689249 83.406497 
L 112.689249 83.082214 
L 112.364966 82.757931 
L 112.040683 82.109365 
L 112.040683 82.109365 
L 112.689249 84.055063 
L 112.689249 84.703629 
L 114.310663 88.595024 
L 114.310663 88.919307 
" style="fill:none;stroke:#8c8c8c;stroke-linecap:square;"/>
   </g>
   <g id="line2d_81">
    <path clip-path="url(#p9771064ab0)" d="M 111.7164 81.785082 
L 111.7164 81.785082 
L 111.7164 81.785082 
L 112.040683 81.460799 
L 112.689249 80.812233 
L 114.634946 79.515101 
L 115.283512 79.190818 
" style="fill:none;stroke:#8c8c8c;stroke-linecap:square;"/>
   </g>
   <g id="line2d_82">
    <path clip-path="url(#p9771064ab0)" d="M 112.364966 85.027912 
L 112.364966 85.352195 
L 112.364966 85.676478 
L 112.364966 86.000761 
L 112.364966 86.000761 
L 114.634946 85.676478 
L 115.607795 85.027912 
" style="fill:none;stroke:#8c8c8c;stroke-linecap:square;"/>
   </g>
   <g id="line2d_83">
    <path clip-path="url(#p9771064ab0)" d="M 117.553493 84.703629 
L 117.22921 85.027912 
L 118.202059 85.027912 
L 118.850625 84.703629 
L 119.823474 84.055063 
L 120.147757 83.73078 
L 120.47204 82.433648 
L 117.877776 83.406497 
L 117.22921 84.703629 
L 116.904927 86.973609 
L 117.877776 88.270741 
L 121.444889 87.946458 
L 122.742021 87.297892 
" style="fill:none;stroke:#8c8c8c;stroke-linecap:square;"/>
   </g>
   <g id="line2d_84">
    <path clip-path="url(#p9771064ab0)" d="M 127.606265 85.676478 
L 127.281982 85.676478 
L 126.957699 86.000761 
L 126.957699 86.000761 
L 128.903397 85.352195 
L 129.551963 85.027912 
" style="fill:none;stroke:#8c8c8c;stroke-linecap:square;"/>
   </g>
   <g id="line2d_85">
    <path clip-path="url(#p9771064ab0)" d="M 134.091924 78.217969 
L 133.767641 78.217969 
L 133.443358 78.542252 
L 133.767641 79.515101 
L 134.74049 82.757931 
L 135.389056 86.000761 
L 136.037622 87.622175 
" style="fill:none;stroke:#8c8c8c;stroke-linecap:square;"/>
   </g>
   <g id="line2d_86">
    <path clip-path="url(#p9771064ab0)" d="M 137.659037 83.406497 
L 137.334754 83.406497 
L 137.334754 84.055063 
L 137.659037 85.027912 
L 138.307603 85.676478 
L 140.253301 86.325044 
L 140.901867 84.703629 
L 140.253301 83.406497 
L 139.604735 82.757931 
L 136.686188 83.406497 
L 136.686188 83.406497 
" style="fill:none;stroke:#8c8c8c;stroke-linecap:square;"/>
   </g>
   <g id="line2d_87">
    <path clip-path="url(#p9771064ab0)" d="M 141.550433 82.757931 
L 141.550433 82.757931 
L 141.550433 82.433648 
L 141.874715 82.757931 
L 143.820413 85.352195 
L 144.144696 85.352195 
L 144.468979 85.676478 
L 144.793262 82.757931 
L 144.144696 81.136516 
L 143.820413 80.163667 
L 143.49613 80.163667 
" style="fill:none;stroke:#8c8c8c;stroke-linecap:square;"/>
   </g>
   <g id="line2d_88">
    <path clip-path="url(#p9771064ab0)" d="M 146.414677 82.109365 
L 146.73896 82.757931 
L 147.387526 84.055063 
L 147.711809 84.703629 
L 147.711809 85.027912 
" style="fill:none;stroke:#8c8c8c;stroke-linecap:square;"/>
   </g>
   <g id="line2d_89">
    <path clip-path="url(#p9771064ab0)" d="M 146.414677 78.866535 
L 146.414677 78.866535 
L 146.090394 78.217969 
L 146.090394 77.893686 
L 146.090394 77.893686 
L 146.090394 77.893686 
" style="fill:none;stroke:#8c8c8c;stroke-linecap:square;"/>
   </g>
   <g id="line2d_90">
    <path clip-path="url(#p9771064ab0)" d="M 148.684658 81.460799 
L 149.008941 81.785082 
L 149.008941 82.757931 
L 149.333224 83.082214 
L 150.306073 85.352195 
L 150.630356 85.676478 
L 150.954639 82.109365 
L 150.954639 82.109365 
L 151.278921 81.460799 
L 151.927487 80.812233 
L 152.900336 81.785082 
L 153.224619 83.082214 
L 153.548902 84.379346 
L 153.873185 85.027912 
" style="fill:none;stroke:#8c8c8c;stroke-linecap:square;"/>
   </g>
   <g id="line2d_91">
    <path clip-path="url(#p9771064ab0)" d="M 157.116015 81.460799 
L 157.116015 81.460799 
L 157.116015 81.136516 
L 156.791732 81.136516 
L 156.467449 81.460799 
L 156.143166 82.757931 
L 156.791732 84.055063 
L 157.764581 83.082214 
L 157.764581 81.785082 
L 157.764581 81.136516 
L 157.116015 80.163667 
L 157.764581 81.136516 
L 158.73743 82.109365 
L 161.331693 85.352195 
L 161.980259 87.622175 
L 161.00741 89.567873 
L 160.683127 90.216439 
L 159.061713 90.540722 
" style="fill:none;stroke:#8c8c8c;stroke-linecap:square;"/>
   </g>
   <g id="line2d_92">
    <path clip-path="url(#p9771064ab0)" d="M 36.158469 106.75487 
L 36.158469 106.75487 
L 36.482752 106.75487 
L 36.482752 106.75487 
L 36.158469 106.430587 
L 36.158469 106.430587 
L 35.509903 106.106304 
L 34.212771 106.75487 
L 32.591356 109.024851 
L 32.915639 115.186227 
L 34.212771 116.483359 
L 37.779884 116.159076 
L 38.752733 115.186227 
" style="fill:none;stroke:#8c8c8c;stroke-linecap:square;"/>
   </g>
   <g id="line2d_93">
    <path clip-path="url(#p9771064ab0)" d="M 38.104167 105.457738 
L 38.104167 105.457738 
L 38.104167 105.782021 
L 38.42845 106.430587 
L 39.401298 110.321983 
L 40.69843 113.564813 
L 41.022713 114.213379 
L 41.022713 114.537662 
L 41.022713 114.213379 
L 41.022713 112.591964 
L 41.671279 110.646266 
L 43.94126 111.294832 
L 43.94126 111.619115 
L 44.589826 112.267681 
L 45.886958 114.537662 
L 45.886958 115.186227 
L 45.886958 115.51051 
" style="fill:none;stroke:#8c8c8c;stroke-linecap:square;"/>
   </g>
   <g id="line2d_94">
    <path clip-path="url(#p9771064ab0)" d="M 49.778353 110.970549 
L 49.778353 110.970549 
L 49.778353 110.646266 
L 49.45407 110.321983 
L 49.45407 109.9977 
L 49.129787 109.9977 
L 47.508373 111.294832 
L 46.859807 113.564813 
L 47.508373 114.537662 
L 48.156939 114.537662 
L 49.45407 112.267681 
L 49.778353 110.970549 
L 49.778353 110.321983 
L 49.778353 110.321983 
L 50.102636 111.294832 
L 50.751202 113.24053 
L 51.075485 113.889096 
L 51.399768 114.537662 
" style="fill:none;stroke:#8c8c8c;stroke-linecap:square;"/>
   </g>
   <g id="line2d_95">
    <path clip-path="url(#p9771064ab0)" d="M 51.075485 104.48489 
L 51.075485 104.160607 
L 51.075485 104.809173 
L 51.075485 104.809173 
L 51.399768 106.106304 
L 53.345466 112.267681 
L 54.642598 115.186227 
" style="fill:none;stroke:#8c8c8c;stroke-linecap:square;"/>
   </g>
   <g id="line2d_96">
    <path clip-path="url(#p9771064ab0)" d="M 57.885427 109.024851 
L 57.885427 109.024851 
L 57.561145 108.700568 
L 57.561145 108.700568 
L 57.236862 109.349134 
L 56.588296 110.970549 
L 57.561145 113.889096 
L 58.20971 114.213379 
L 58.533993 113.889096 
" style="fill:none;stroke:#8c8c8c;stroke-linecap:square;"/>
   </g>
   <g id="line2d_97">
    <path clip-path="url(#p9771064ab0)" d="M 59.831125 111.294832 
L 59.831125 111.294832 
L 59.831125 111.294832 
L 59.506842 111.294832 
L 61.45254 113.24053 
L 61.776823 113.24053 
L 63.073955 110.970549 
L 62.749672 109.9977 
L 61.776823 109.673417 
L 59.831125 109.673417 
L 59.831125 110.321983 
" style="fill:none;stroke:#8c8c8c;stroke-linecap:square;"/>
   </g>
   <g id="line2d_98">
    <path clip-path="url(#p9771064ab0)" d="M 68.262482 109.9977 
L 68.262482 109.9977 
L 68.262482 109.9977 
L 68.586765 110.321983 
L 69.559614 110.970549 
L 70.20818 111.294832 
L 71.181029 109.9977 
L 70.20818 108.052002 
L 69.235331 107.403436 
L 68.262482 107.727719 
L 68.262482 109.673417 
L 68.586765 111.619115 
L 69.235331 113.889096 
L 70.856746 118.104774 
L 72.153878 120.699038 
L 72.153878 121.023321 
L 72.153878 121.023321 
" style="fill:none;stroke:#8c8c8c;stroke-linecap:square;"/>
   </g>
   <g id="line2d_99">
    <path clip-path="url(#p9771064ab0)" d="M 72.478161 102.863475 
L 72.478161 102.863475 
L 72.478161 102.539192 
L 72.802444 103.512041 
L 72.802444 103.512041 
L 74.099576 107.079153 
L 75.072425 110.321983 
L 75.396708 111.619115 
L 75.720991 112.591964 
L 75.720991 113.24053 
L 75.396708 112.267681 
L 75.720991 109.673417 
L 77.018122 107.727719 
L 77.666688 108.052002 
L 78.315254 108.700568 
L 78.96382 110.646266 
L 78.96382 111.619115 
L 78.96382 111.943398 
" style="fill:none;stroke:#8c8c8c;stroke-linecap:square;"/>
   </g>
   <g id="line2d_100">
    <path clip-path="url(#p9771064ab0)" d="M 80.260952 107.403436 
L 80.260952 107.403436 
L 80.260952 107.727719 
L 80.909518 109.024851 
L 81.233801 110.646266 
L 81.558084 111.619115 
" style="fill:none;stroke:#8c8c8c;stroke-linecap:square;"/>
   </g>
   <g id="line2d_101">
    <path clip-path="url(#p9771064ab0)" d="M 79.288103 102.214909 
L 79.288103 101.890626 
L 79.288103 101.890626 
" style="fill:none;stroke:#8c8c8c;stroke-linecap:square;"/>
   </g>
   <g id="line2d_102">
    <path clip-path="url(#p9771064ab0)" d="M 80.909518 101.566343 
L 80.909518 101.566343 
L 81.233801 101.566343 
L 81.558084 102.214909 
L 82.20665 103.512041 
L 83.828065 107.403436 
L 84.800914 110.321983 
L 85.125197 110.970549 
L 85.125197 111.294832 
" style="fill:none;stroke:#8c8c8c;stroke-linecap:square;"/>
   </g>
   <g id="line2d_103">
    <path clip-path="url(#p9771064ab0)" d="M 85.125197 107.727719 
L 85.125197 107.727719 
L 85.125197 107.727719 
L 85.125197 107.727719 
L 86.098045 107.403436 
L 88.043743 105.133456 
L 88.043743 104.48489 
L 87.71946 104.48489 
L 86.746611 105.782021 
L 86.746611 108.052002 
L 87.395177 109.9977 
L 89.989441 111.619115 
L 91.610856 110.970549 
" style="fill:none;stroke:#8c8c8c;stroke-linecap:square;"/>
   </g>
   <g id="line2d_104">
    <path clip-path="url(#p9771064ab0)" d="M 100.366496 103.187758 
L 100.366496 103.187758 
L 100.366496 103.187758 
L 100.366496 103.512041 
L 100.366496 103.512041 
L 100.366496 103.836324 
" style="fill:none;stroke:#8c8c8c;stroke-linecap:square;"/>
   </g>
   <g id="line2d_105">
    <path clip-path="url(#p9771064ab0)" d="M 101.987911 109.024851 
L 101.987911 109.349134 
L 101.987911 109.349134 
L 101.987911 109.349134 
L 101.987911 109.673417 
" style="fill:none;stroke:#8c8c8c;stroke-linecap:square;"/>
   </g>
   <g id="line2d_106">
    <path clip-path="url(#p9771064ab0)" d="M 115.607795 100.269211 
L 115.607795 99.944928 
L 115.607795 99.944928 
L 115.283512 100.269211 
L 114.634946 100.917777 
L 113.98638 101.890626 
L 113.013532 102.863475 
L 112.689249 104.160607 
L 114.959229 104.160607 
L 117.22921 104.160607 
L 120.796323 107.403436 
L 119.823474 109.349134 
L 118.202059 110.321983 
L 114.959229 110.646266 
" style="fill:none;stroke:#8c8c8c;stroke-linecap:square;"/>
   </g>
   <g id="line2d_107">
    <path clip-path="url(#p9771064ab0)" d="M 127.281982 105.782021 
L 126.633416 105.782021 
L 126.633416 105.782021 
L 126.309133 106.106304 
L 126.309133 106.106304 
L 127.606265 105.782021 
L 128.579114 105.782021 
L 128.903397 105.782021 
" style="fill:none;stroke:#8c8c8c;stroke-linecap:square;"/>
   </g>
   <g id="line2d_108">
    <path clip-path="url(#p9771064ab0)" d="M 135.064773 98.972079 
L 135.064773 98.972079 
L 135.064773 99.296362 
L 135.389056 100.593494 
L 136.361905 103.836324 
L 137.010471 106.430587 
L 137.334754 107.727719 
L 137.334754 108.052002 
" style="fill:none;stroke:#8c8c8c;stroke-linecap:square;"/>
   </g>
   <g id="line2d_109">
    <path clip-path="url(#p9771064ab0)" d="M 140.253301 105.133456 
L 140.253301 105.133456 
L 140.577584 105.133456 
L 140.577584 105.457738 
L 141.22615 106.75487 
L 142.523281 107.727719 
L 143.820413 106.430587 
L 141.22615 104.48489 
L 141.22615 104.48489 
L 140.577584 104.809173 
L 140.253301 105.457738 
" style="fill:none;stroke:#8c8c8c;stroke-linecap:square;"/>
   </g>
   <g id="line2d_110">
    <path clip-path="url(#p9771064ab0)" d="M 145.441828 104.48489 
L 145.441828 104.48489 
L 145.441828 104.48489 
L 145.441828 104.48489 
L 146.73896 106.75487 
L 146.73896 107.079153 
L 148.036092 107.403436 
L 148.684658 106.75487 
L 149.008941 106.106304 
L 149.008941 104.48489 
L 147.711809 102.214909 
L 147.387526 101.890626 
" style="fill:none;stroke:#8c8c8c;stroke-linecap:square;"/>
   </g>
   <g id="line2d_111">
    <path clip-path="url(#p9771064ab0)" d="M 152.25177 102.863475 
L 152.25177 102.863475 
L 152.576053 104.160607 
L 153.224619 105.782021 
L 153.224619 106.106304 
L 153.548902 106.430587 
" style="fill:none;stroke:#8c8c8c;stroke-linecap:square;"/>
   </g>
   <g id="line2d_112">
    <path clip-path="url(#p9771064ab0)" d="M 152.25177 102.539192 
L 151.927487 102.214909 
L 151.927487 100.917777 
L 151.603204 100.269211 
" style="fill:none;stroke:#8c8c8c;stroke-linecap:square;"/>
   </g>
   <g id="line2d_113">
    <path clip-path="url(#p9771064ab0)" d="M 155.170317 103.512041 
L 155.4946 104.809173 
L 155.4946 105.133456 
L 156.143166 106.430587 
L 156.143166 106.75487 
L 156.143166 104.48489 
L 156.791732 102.863475 
L 157.116015 102.539192 
L 157.764581 103.187758 
L 158.73743 106.106304 
" style="fill:none;stroke:#8c8c8c;stroke-linecap:square;"/>
   </g>
   <g id="line2d_114">
    <path clip-path="url(#p9771064ab0)" d="M 161.331693 103.512041 
L 161.331693 103.512041 
L 161.331693 102.863475 
L 161.331693 102.539192 
L 160.683127 102.539192 
L 160.358845 104.160607 
L 161.331693 105.133456 
L 161.655976 105.133456 
L 162.304542 103.187758 
L 161.980259 102.539192 
L 161.980259 102.214909 
L 162.628825 102.863475 
L 164.574523 105.133456 
L 166.195938 107.727719 
L 165.223089 112.591964 
L 162.304542 113.24053 
L 160.683127 113.24053 
" style="fill:none;stroke:#8c8c8c;stroke-linecap:square;"/>
   </g>
  </g>
 </g>
 <defs>
  <clipPath id="p9771064ab0">
   <rect height="271.100559" width="558.609836" x="7.2" y="7.2"/>
  </clipPath>
 </defs>
</svg>
