<?xml version="1.0" encoding="utf-8" standalone="no"?>
<!DOCTYPE svg PUBLIC "-//W3C//DTD SVG 1.1//EN"
  "http://www.w3.org/Graphics/SVG/1.1/DTD/svg11.dtd">
<!-- Created with matplotlib (https://matplotlib.org/) -->
<svg height="286.2pt" version="1.1" viewBox="0 0 334.824771 286.2" width="334.824771pt" xmlns="http://www.w3.org/2000/svg" xmlns:xlink="http://www.w3.org/1999/xlink">
 <metadata>
  <rdf:RDF xmlns:cc="http://creativecommons.org/ns#" xmlns:dc="http://purl.org/dc/elements/1.1/" xmlns:rdf="http://www.w3.org/1999/02/22-rdf-syntax-ns#">
   <cc:Work>
    <dc:type rdf:resource="http://purl.org/dc/dcmitype/StillImage"/>
    <dc:date>2024-11-15T16:03:38.852175</dc:date>
    <dc:format>image/svg+xml</dc:format>
    <dc:creator>
     <cc:Agent>
      <dc:title>Matplotlib v3.3.4, https://matplotlib.org/</dc:title>
     </cc:Agent>
    </dc:creator>
   </cc:Work>
  </rdf:RDF>
 </metadata>
 <defs>
  <style type="text/css">*{stroke-linecap:butt;stroke-linejoin:round;}</style>
 </defs>
 <g id="figure_1">
  <g id="patch_1">
   <path d="M 0 286.2 
L 334.824771 286.2 
L 334.824771 0 
L 0 0 
z
" style="fill:#ffffff;"/>
  </g>
  <g id="axes_1">
   <g id="line2d_1">
    <path clip-path="url(#p3b89828a91)" d="M 72.769766 202.039116 
L 72.769766 202.039116 
L 72.769766 202.039116 
L 71.636322 200.905671 
L 71.636322 200.905671 
L 71.636322 200.905671 
L 70.502877 200.905671 
L 70.502877 200.905671 
L 70.502877 200.905671 
L 70.502877 202.039116 
L 70.502877 203.17256 
L 70.502877 204.306005 
L 71.636322 205.43945 
L 72.769766 205.43945 
L 75.036656 205.43945 
L 75.036656 204.306005 
L 76.1701 203.17256 
L 75.036656 202.039116 
L 75.036656 200.905671 
L 73.903211 200.905671 
L 72.769766 200.905671 
L 72.769766 200.905671 
L 71.636322 202.039116 
L 72.769766 203.17256 
L 72.769766 204.306005 
L 72.769766 204.306005 
L 73.903211 203.17256 
L 73.903211 203.17256 
L 73.903211 202.039116 
L 72.769766 202.039116 
L 72.769766 203.17256 
L 71.636322 203.17256 
L 71.636322 204.306005 
L 70.502877 204.306005 
L 70.502877 204.306005 
" style="fill:none;stroke:#8c8c8c;stroke-linecap:square;"/>
   </g>
   <g id="line2d_2">
    <path clip-path="url(#p3b89828a91)" d="M 103.372769 117.030776 
L 98.838991 120.431109 
L 92.038324 128.365221 
L 84.104212 136.299333 
L 70.502877 151.034112 
L 52.367765 173.703003 
L 43.300209 188.437781 
L 34.232652 204.306005 
L 26.29854 222.441118 
L 21.764762 238.309341 
L 21.764762 245.110008 
L 24.031651 251.910676 
L 27.431985 257.577898 
L 33.099208 263.245121 
L 36.499541 266.645455 
L 44.433653 266.645455 
L 56.901543 262.111676 
L 76.1701 246.243453 
L 95.438657 225.841451 
L 109.039992 208.839783 
L 123.774771 188.437781 
L 132.842327 168.03578 
L 138.50955 151.034112 
L 143.043328 132.898999 
L 145.310217 117.030776 
L 144.176772 106.829775 
L 141.909883 102.295997 
L 136.242661 97.762219 
L 128.308549 98.895663 
L 107.906547 110.230108 
L 87.504545 123.831443 
L 71.636322 135.165888 
" style="fill:none;stroke:#8c8c8c;stroke-linecap:square;"/>
   </g>
   <g id="line2d_3">
    <path clip-path="url(#p3b89828a91)" d="M 81.837323 165.768891 
L 81.837323 164.635446 
L 81.837323 164.635446 
L 76.1701 164.635446 
L 75.036656 165.768891 
L 75.036656 165.768891 
L 68.235988 165.768891 
L 67.102544 166.902335 
L 60.301877 166.902335 
L 59.168432 168.03578 
L 56.901543 168.03578 
L 55.768098 169.169224 
L 53.501209 169.169224 
L 53.501209 170.302669 
L 52.367765 170.302669 
L 50.100876 172.569558 
L 48.967431 172.569558 
L 41.033319 180.50367 
L 41.033319 181.637114 
L 39.899875 182.770559 
L 39.899875 183.904003 
L 38.76643 185.037448 
L 38.76643 188.437781 
L 37.632986 189.571226 
L 37.632986 198.638782 
L 38.76643 200.905671 
L 38.76643 205.43945 
L 39.899875 206.572894 
L 39.899875 209.973228 
L 41.033319 211.106672 
L 41.033319 212.240117 
L 43.300209 214.507006 
L 43.300209 215.64045 
L 45.567098 217.907339 
L 46.700542 220.174229 
L 53.501209 226.974896 
L 55.768098 226.974896 
L 58.034987 229.241785 
L 60.301877 230.375229 
L 61.435321 231.508674 
L 62.568766 231.508674 
L 64.835655 232.642118 
L 67.102544 234.909008 
L 68.235988 234.909008 
L 70.502877 236.042452 
L 71.636322 236.042452 
L 72.769766 237.175897 
L 76.1701 237.175897 
L 77.303545 238.309341 
L 81.837323 238.309341 
L 82.970767 239.442786 
L 87.504545 239.442786 
L 88.63799 238.309341 
L 90.904879 238.309341 
L 93.171768 236.042452 
L 95.438657 236.042452 
L 96.572102 234.909008 
L 97.705546 232.642118 
L 99.972435 230.375229 
L 101.10588 228.10834 
L 104.506214 224.708007 
L 105.639658 222.441118 
L 105.639658 221.307673 
L 106.773103 219.040784 
L 106.773103 217.907339 
L 107.906547 215.64045 
L 107.906547 213.373561 
L 109.039992 211.106672 
L 109.039992 209.973228 
L 110.173436 207.706339 
L 110.173436 195.238449 
L 109.039992 192.97156 
L 109.039992 191.838115 
L 107.906547 189.571226 
L 107.906547 187.304337 
L 106.773103 186.170892 
L 106.773103 185.037448 
L 105.639658 182.770559 
L 104.506214 181.637114 
L 103.372769 179.370225 
L 97.705546 173.703003 
L 95.438657 172.569558 
L 93.171768 170.302669 
L 90.904879 169.169224 
L 87.504545 166.902335 
L 78.436989 162.368557 
L 76.1701 162.368557 
L 73.903211 163.502002 
L 70.502877 164.635446 
L 65.969099 166.902335 
L 65.969099 166.902335 
" style="fill:none;stroke:#8c8c8c;stroke-linecap:square;"/>
   </g>
   <g id="line2d_4">
    <path clip-path="url(#p3b89828a91)" d="M 147.577106 92.094996 
L 147.577106 92.094996 
L 147.577106 92.094996 
L 147.577106 92.094996 
L 147.577106 92.094996 
L 147.577106 92.094996 
L 147.577106 92.094996 
L 147.577106 90.961551 
L 149.843995 89.828107 
L 153.244329 84.160884 
L 155.511218 80.76055 
L 157.778107 77.360217 
L 158.911551 76.226772 
L 158.911551 77.360217 
L 158.911551 77.360217 
L 160.044996 79.627106 
L 160.044996 80.76055 
L 162.311885 80.76055 
L 166.845663 79.627106 
L 170.245997 77.360217 
L 173.64633 75.093328 
L 174.779775 72.826439 
L 174.779775 72.826439 
" style="fill:none;stroke:#8c8c8c;stroke-linecap:square;"/>
   </g>
   <g id="line2d_5">
    <path clip-path="url(#p3b89828a91)" d="M 183.847331 60.358549 
L 183.847331 60.358549 
L 183.847331 61.491993 
L 184.980776 61.491993 
L 184.980776 61.491993 
L 186.11422 61.491993 
L 188.381109 59.225104 
L 190.647998 58.09166 
L 191.781443 55.824771 
L 191.781443 53.557882 
L 191.781443 53.557882 
L 190.647998 52.424437 
L 189.514554 53.557882 
L 187.247665 55.824771 
L 183.847331 60.358549 
L 182.713887 66.025771 
L 183.847331 68.292661 
L 186.11422 70.55955 
L 189.514554 71.692994 
L 192.914887 70.55955 
L 198.58211 66.025771 
" style="fill:none;stroke:#8c8c8c;stroke-linecap:square;"/>
   </g>
   <g id="line2d_6">
    <path clip-path="url(#p3b89828a91)" d="M 206.516222 49.024103 
L 205.382777 49.024103 
L 204.249333 49.024103 
L 203.115888 50.157548 
L 201.982444 51.290992 
L 200.848999 53.557882 
L 199.715555 58.09166 
L 200.848999 61.491993 
L 201.982444 63.758882 
L 204.249333 66.025771 
L 207.649666 66.025771 
" style="fill:none;stroke:#8c8c8c;stroke-linecap:square;"/>
   </g>
   <g id="line2d_7">
    <path clip-path="url(#p3b89828a91)" d="M 215.583778 47.890659 
L 215.583778 47.890659 
L 214.450334 49.024103 
L 212.183445 50.157548 
L 212.183445 52.424437 
L 211.05 54.691326 
L 212.183445 56.958215 
L 213.316889 59.225104 
L 215.583778 60.358549 
L 218.984112 61.491993 
L 221.251001 60.358549 
" style="fill:none;stroke:#8c8c8c;stroke-linecap:square;"/>
   </g>
   <g id="line2d_8">
    <path clip-path="url(#p3b89828a91)" d="M 226.918224 54.691326 
L 226.918224 54.691326 
L 226.918224 54.691326 
L 226.918224 53.557882 
L 226.918224 53.557882 
L 228.051668 52.424437 
L 230.318557 50.157548 
L 231.452002 47.890659 
L 232.585446 46.757214 
L 231.452002 45.62377 
L 231.452002 44.490325 
L 229.185113 45.62377 
L 228.051668 46.757214 
L 226.918224 49.024103 
L 226.918224 52.424437 
L 228.051668 54.691326 
L 230.318557 56.958215 
L 232.585446 56.958215 
" style="fill:none;stroke:#8c8c8c;stroke-linecap:square;"/>
   </g>
   <g id="line2d_9">
    <path clip-path="url(#p3b89828a91)" d="M 238.252669 55.824771 
L 238.252669 55.824771 
L 238.252669 55.824771 
L 238.252669 55.824771 
L 238.252669 56.958215 
L 239.386113 56.958215 
L 239.386113 58.09166 
L 239.386113 58.09166 
L 239.386113 56.958215 
L 240.519558 54.691326 
L 241.653003 51.290992 
L 242.786447 47.890659 
L 243.919892 44.490325 
L 245.053336 43.356881 
L 246.186781 42.223436 
L 246.186781 42.223436 
L 247.320225 43.356881 
L 248.45367 45.62377 
L 248.45367 47.890659 
L 249.587114 50.157548 
L 249.587114 51.290992 
L 249.587114 52.424437 
" style="fill:none;stroke:#8c8c8c;stroke-linecap:square;"/>
   </g>
   <g id="line2d_10">
    <path clip-path="url(#p3b89828a91)" d="M 256.387781 35.422769 
L 256.387781 35.422769 
L 256.387781 35.422769 
L 256.387781 35.422769 
L 256.387781 36.556214 
L 257.521226 39.956547 
L 257.521226 43.356881 
L 258.654671 46.757214 
L 259.788115 49.024103 
" style="fill:none;stroke:#8c8c8c;stroke-linecap:square;"/>
   </g>
   <g id="line2d_11">
    <path clip-path="url(#p3b89828a91)" d="M 257.521226 43.356881 
L 257.521226 43.356881 
L 257.521226 42.223436 
L 257.521226 42.223436 
L 259.788115 39.956547 
L 260.92156 38.823103 
L 263.188449 38.823103 
L 264.321893 37.689658 
L 265.455338 37.689658 
" style="fill:none;stroke:#8c8c8c;stroke-linecap:square;"/>
   </g>
   <g id="line2d_12">
    <path clip-path="url(#p3b89828a91)" d="M 271.12256 38.823103 
L 271.12256 38.823103 
L 272.256005 39.956547 
L 273.38945 41.089992 
L 274.522894 43.356881 
L 275.656339 45.62377 
L 276.789783 46.757214 
L 277.923228 47.890659 
L 277.923228 47.890659 
L 277.923228 47.890659 
L 276.789783 44.490325 
L 276.789783 41.089992 
L 275.656339 38.823103 
L 275.656339 35.422769 
L 275.656339 34.289324 
L 276.789783 33.15588 
L 276.789783 32.022435 
L 277.923228 30.888991 
" style="fill:none;stroke:#8c8c8c;stroke-linecap:square;"/>
   </g>
   <g id="line2d_13">
    <path clip-path="url(#p3b89828a91)" d="M 290.391118 33.15588 
L 290.391118 33.15588 
L 290.391118 34.289324 
L 290.391118 35.422769 
L 290.391118 36.556214 
L 290.391118 36.556214 
L 290.391118 37.689658 
L 290.391118 36.556214 
L 290.391118 35.422769 
" style="fill:none;stroke:#8c8c8c;stroke-linecap:square;"/>
   </g>
   <g id="line2d_14">
    <path clip-path="url(#p3b89828a91)" d="M 286.990784 25.221768 
L 286.990784 24.088324 
L 285.857339 21.821435 
L 285.857339 20.68799 
L 285.857339 19.554545 
L 285.857339 19.554545 
" style="fill:none;stroke:#8c8c8c;stroke-linecap:square;"/>
   </g>
   <g id="line2d_15">
    <path clip-path="url(#p3b89828a91)" d="M 300.592118 24.088324 
L 300.592118 24.088324 
L 301.725563 24.088324 
L 301.725563 24.088324 
L 301.725563 25.221768 
L 301.725563 27.488657 
L 301.725563 30.888991 
L 301.725563 34.289324 
L 303.992452 35.422769 
L 308.52623 36.556214 
L 313.060008 35.422769 
" style="fill:none;stroke:#8c8c8c;stroke-linecap:square;"/>
   </g>
   <g id="line2d_16">
    <path clip-path="url(#p3b89828a91)" d="M 106.773103 224.708007 
L 107.906547 224.708007 
L 107.906547 224.708007 
L 109.039992 224.708007 
L 110.173436 224.708007 
L 111.306881 224.708007 
L 113.57377 223.574562 
L 114.707214 223.574562 
L 116.974103 223.574562 
L 118.107548 224.708007 
L 120.374437 226.974896 
L 121.507882 229.241785 
L 122.641326 232.642118 
L 124.908215 236.042452 
L 127.175104 237.175897 
L 131.708882 239.442786 
L 136.242661 239.442786 
L 139.642994 239.442786 
L 143.043328 239.442786 
L 144.176772 239.442786 
" style="fill:none;stroke:#8c8c8c;stroke-linecap:square;"/>
   </g>
   <g id="line2d_17">
    <path clip-path="url(#p3b89828a91)" d="M 173.64633 232.642118 
L 173.64633 232.642118 
L 173.64633 232.642118 
L 173.64633 232.642118 
L 172.512886 232.642118 
L 171.379441 232.642118 
L 170.245997 233.775563 
L 166.845663 236.042452 
L 164.578774 239.442786 
L 164.578774 243.976564 
L 166.845663 249.643786 
L 172.512886 250.777231 
L 175.913219 250.777231 
L 179.313553 248.510342 
L 181.580442 245.110008 
" style="fill:none;stroke:#8c8c8c;stroke-linecap:square;"/>
   </g>
   <g id="line2d_18">
    <path clip-path="url(#p3b89828a91)" d="M 188.381109 234.909008 
L 188.381109 234.909008 
L 188.381109 234.909008 
L 189.514554 237.175897 
L 190.647998 240.57623 
L 191.781443 243.976564 
L 192.914887 245.110008 
" style="fill:none;stroke:#8c8c8c;stroke-linecap:square;"/>
   </g>
   <g id="line2d_19">
    <path clip-path="url(#p3b89828a91)" d="M 189.514554 225.841451 
L 189.514554 224.708007 
L 188.381109 222.441118 
L 188.381109 221.307673 
L 188.381109 220.174229 
L 188.381109 221.307673 
" style="fill:none;stroke:#8c8c8c;stroke-linecap:square;"/>
   </g>
   <g id="line2d_20">
    <path clip-path="url(#p3b89828a91)" d="M 200.848999 236.042452 
L 200.848999 236.042452 
L 200.848999 237.175897 
L 201.982444 237.175897 
L 203.115888 239.442786 
L 204.249333 239.442786 
L 204.249333 240.57623 
L 204.249333 240.57623 
L 204.249333 240.57623 
L 203.115888 240.57623 
L 203.115888 238.309341 
L 203.115888 236.042452 
L 203.115888 233.775563 
L 204.249333 231.508674 
L 206.516222 229.241785 
L 207.649666 229.241785 
" style="fill:none;stroke:#8c8c8c;stroke-linecap:square;"/>
   </g>
   <g id="line2d_21">
    <path clip-path="url(#p3b89828a91)" d="M 220.117556 226.974896 
L 220.117556 226.974896 
L 218.984112 226.974896 
L 218.984112 228.10834 
L 217.850667 229.241785 
L 217.850667 230.375229 
L 217.850667 233.775563 
L 218.984112 236.042452 
L 224.651334 239.442786 
L 226.918224 240.57623 
L 230.318557 239.442786 
L 231.452002 237.175897 
L 231.452002 233.775563 
" style="fill:none;stroke:#8c8c8c;stroke-linecap:square;"/>
   </g>
   <g id="line2d_22">
    <path clip-path="url(#p3b89828a91)" d="M 237.119224 225.841451 
L 237.119224 225.841451 
L 237.119224 226.974896 
L 237.119224 228.10834 
L 238.252669 230.375229 
L 240.519558 231.508674 
L 242.786447 232.642118 
L 242.786447 232.642118 
L 243.919892 231.508674 
L 243.919892 229.241785 
L 242.786447 226.974896 
L 242.786447 223.574562 
L 241.653003 221.307673 
" style="fill:none;stroke:#8c8c8c;stroke-linecap:square;"/>
   </g>
   <g id="line2d_23">
    <path clip-path="url(#p3b89828a91)" d="M 242.786447 208.839783 
L 242.786447 208.839783 
L 243.919892 208.839783 
L 243.919892 211.106672 
L 246.186781 216.773895 
L 249.587114 222.441118 
L 251.854003 226.974896 
L 252.987448 230.375229 
L 254.120892 231.508674 
" style="fill:none;stroke:#8c8c8c;stroke-linecap:square;"/>
   </g>
   <g id="line2d_24">
    <path clip-path="url(#p3b89828a91)" d="M 263.188449 221.307673 
L 263.188449 220.174229 
L 263.188449 219.040784 
L 262.055004 217.907339 
L 260.92156 217.907339 
L 259.788115 217.907339 
L 258.654671 217.907339 
L 258.654671 220.174229 
L 258.654671 222.441118 
L 260.92156 223.574562 
L 263.188449 223.574562 
L 264.321893 223.574562 
L 265.455338 221.307673 
L 265.455338 219.040784 
L 265.455338 216.773895 
L 265.455338 215.64045 
L 264.321893 215.64045 
L 264.321893 215.64045 
L 264.321893 216.773895 
L 264.321893 220.174229 
L 266.588782 223.574562 
L 267.722227 225.841451 
L 268.855671 226.974896 
L 269.989116 226.974896 
" style="fill:none;stroke:#8c8c8c;stroke-linecap:square;"/>
   </g>
   <g id="line2d_25">
    <path clip-path="url(#p3b89828a91)" d="M 273.38945 219.040784 
L 273.38945 219.040784 
L 272.256005 217.907339 
L 272.256005 217.907339 
L 273.38945 216.773895 
L 273.38945 216.773895 
L 274.522894 219.040784 
L 276.789783 220.174229 
L 280.190117 223.574562 
L 282.457006 224.708007 
L 283.59045 225.841451 
L 283.59045 225.841451 
L 283.59045 224.708007 
L 282.457006 221.307673 
L 282.457006 216.773895 
L 282.457006 213.373561 
L 284.723895 209.973228 
L 285.857339 207.706339 
" style="fill:none;stroke:#8c8c8c;stroke-linecap:square;"/>
   </g>
  </g>
 </g>
 <defs>
  <clipPath id="p3b89828a91">
   <rect height="271.8" width="320.424771" x="7.2" y="7.2"/>
  </clipPath>
 </defs>
</svg>
