<?xml version="1.0" encoding="utf-8" standalone="no"?>
<!DOCTYPE svg PUBLIC "-//W3C//DTD SVG 1.1//EN"
  "http://www.w3.org/Graphics/SVG/1.1/DTD/svg11.dtd">
<!-- Created with matplotlib (https://matplotlib.org/) -->
<svg height="286.2pt" version="1.1" viewBox="0 0 417.981818 286.2" width="417.981818pt" xmlns="http://www.w3.org/2000/svg" xmlns:xlink="http://www.w3.org/1999/xlink">
 <metadata>
  <rdf:RDF xmlns:cc="http://creativecommons.org/ns#" xmlns:dc="http://purl.org/dc/elements/1.1/" xmlns:rdf="http://www.w3.org/1999/02/22-rdf-syntax-ns#">
   <cc:Work>
    <dc:type rdf:resource="http://purl.org/dc/dcmitype/StillImage"/>
    <dc:date>2024-11-15T16:03:42.816346</dc:date>
    <dc:format>image/svg+xml</dc:format>
    <dc:creator>
     <cc:Agent>
      <dc:title>Matplotlib v3.3.4, https://matplotlib.org/</dc:title>
     </cc:Agent>
    </dc:creator>
   </cc:Work>
  </rdf:RDF>
 </metadata>
 <defs>
  <style type="text/css">*{stroke-linecap:butt;stroke-linejoin:round;}</style>
 </defs>
 <g id="figure_1">
  <g id="patch_1">
   <path d="M 0 286.2 
L 417.981818 286.2 
L 417.981818 0 
L 0 0 
z
" style="fill:#ffffff;"/>
  </g>
  <g id="axes_1">
   <g id="line2d_1">
    <path clip-path="url(#p6fede4b742)" d="M 33.780992 32.283471 
L 33.780992 32.283471 
L 33.780992 32.283471 
L 34.529752 31.534711 
L 34.529752 30.78595 
L 34.529752 30.78595 
L 34.529752 30.03719 
L 34.529752 29.28843 
L 34.529752 29.28843 
L 34.529752 28.539669 
L 34.529752 28.539669 
L 34.529752 28.539669 
L 33.780992 28.539669 
L 30.78595 29.28843 
L 27.790909 33.032231 
L 26.293388 37.524793 
L 25.544628 39.771074 
L 27.042149 45.012397 
L 28.539669 48.007438 
L 33.780992 51.002479 
L 39.771074 50.253719 
L 42.017355 48.756198 
L 42.766116 48.007438 
L 43.514876 47.258678 
" style="fill:none;stroke:#8c8c8c;stroke-linecap:square;"/>
   </g>
   <g id="line2d_2">
    <path clip-path="url(#p6fede4b742)" d="M 43.514876 26.293388 
L 43.514876 26.293388 
L 43.514876 25.544628 
L 43.514876 25.544628 
L 43.514876 25.544628 
L 43.514876 25.544628 
L 44.263636 26.293388 
L 45.761157 30.03719 
L 47.258678 32.283471 
L 48.756198 36.776033 
L 49.504959 41.268595 
L 50.253719 42.017355 
L 50.253719 44.263636 
L 50.253719 44.263636 
L 51.002479 44.263636 
L 51.002479 43.514876 
L 51.002479 42.017355 
L 51.75124 39.771074 
L 53.24876 37.524793 
L 53.997521 36.776033 
L 54.746281 37.524793 
L 56.992562 39.022314 
L 58.490083 41.268595 
L 59.238843 42.766116 
L 59.987603 43.514876 
L 59.987603 43.514876 
L 59.987603 44.263636 
" style="fill:none;stroke:#8c8c8c;stroke-linecap:square;"/>
   </g>
   <g id="line2d_3">
    <path clip-path="url(#p6fede4b742)" d="M 65.977686 39.022314 
L 65.977686 39.022314 
L 65.977686 38.273554 
L 65.977686 38.273554 
L 65.977686 38.273554 
L 65.977686 38.273554 
L 65.977686 39.022314 
L 65.977686 41.268595 
L 67.475207 42.766116 
L 68.223967 43.514876 
L 70.470248 44.263636 
L 71.967769 43.514876 
L 72.716529 42.017355 
L 73.465289 40.519835 
L 73.465289 39.022314 
L 72.716529 38.273554 
L 71.219008 37.524793 
L 69.721488 37.524793 
L 68.972727 38.273554 
L 67.475207 39.022314 
L 67.475207 39.022314 
L 67.475207 39.022314 
" style="fill:none;stroke:#8c8c8c;stroke-linecap:square;"/>
   </g>
   <g id="line2d_4">
    <path clip-path="url(#p6fede4b742)" d="M 77.209091 35.278512 
L 77.209091 36.027273 
L 77.957851 36.027273 
L 77.957851 36.776033 
L 78.706612 38.273554 
L 79.455372 39.022314 
L 79.455372 40.519835 
L 80.204132 41.268595 
L 80.204132 42.017355 
L 80.204132 42.017355 
L 80.204132 41.268595 
L 80.204132 40.519835 
L 80.952893 39.022314 
L 81.701653 36.776033 
L 83.199174 35.278512 
L 83.947934 35.278512 
L 85.445455 36.776033 
L 86.194215 38.273554 
L 86.942975 40.519835 
L 87.691736 42.017355 
L 87.691736 42.766116 
L 87.691736 42.766116 
" style="fill:none;stroke:#8c8c8c;stroke-linecap:square;"/>
   </g>
   <g id="line2d_5">
    <path clip-path="url(#p6fede4b742)" d="M 101.918182 36.027273 
L 101.918182 35.278512 
L 102.666942 33.780992 
L 101.918182 33.032231 
L 101.918182 33.032231 
L 101.918182 32.283471 
L 101.169421 32.283471 
L 99.671901 33.032231 
L 98.17438 36.027273 
L 97.42562 37.524793 
L 98.17438 39.771074 
L 99.671901 42.017355 
L 100.420661 42.017355 
L 101.918182 40.519835 
L 102.666942 39.022314 
L 103.415702 36.027273 
L 103.415702 31.534711 
L 102.666942 27.790909 
L 102.666942 24.795868 
L 101.918182 24.047107 
L 101.918182 23.298347 
L 101.918182 22.549587 
L 101.918182 22.549587 
L 101.918182 23.298347 
L 102.666942 25.544628 
L 104.164463 31.534711 
L 105.661983 36.027273 
L 106.410744 38.273554 
L 107.908264 41.268595 
L 108.657025 42.766116 
L 108.657025 42.766116 
L 108.657025 42.766116 
" style="fill:none;stroke:#8c8c8c;stroke-linecap:square;"/>
   </g>
   <g id="line2d_6">
    <path clip-path="url(#p6fede4b742)" d="M 110.903306 36.027273 
L 110.903306 36.027273 
L 110.154545 36.027273 
L 110.903306 36.027273 
L 110.903306 36.027273 
L 110.903306 36.027273 
L 111.652066 36.776033 
L 111.652066 36.776033 
L 112.400826 37.524793 
L 112.400826 37.524793 
L 113.898347 39.771074 
L 114.647107 40.519835 
L 115.395868 41.268595 
L 116.144628 41.268595 
L 116.144628 41.268595 
L 116.144628 41.268595 
L 115.395868 40.519835 
L 115.395868 39.022314 
L 115.395868 36.776033 
L 115.395868 33.780992 
L 116.144628 32.283471 
L 116.893388 30.03719 
L 116.893388 29.28843 
" style="fill:none;stroke:#8c8c8c;stroke-linecap:square;"/>
   </g>
   <g id="line2d_7">
    <path clip-path="url(#p6fede4b742)" d="M 128.124793 26.293388 
L 128.124793 26.293388 
L 128.124793 27.042149 
L 128.873554 27.790909 
L 129.622314 29.28843 
L 130.371074 31.534711 
L 131.119835 33.780992 
L 131.119835 35.278512 
L 131.868595 36.776033 
L 131.868595 37.524793 
L 131.868595 37.524793 
" style="fill:none;stroke:#8c8c8c;stroke-linecap:square;"/>
   </g>
   <g id="line2d_8">
    <path clip-path="url(#p6fede4b742)" d="M 131.119835 25.544628 
L 130.371074 23.298347 
L 130.371074 21.800826 
L 129.622314 21.052066 
L 129.622314 20.303306 
L 130.371074 20.303306 
L 130.371074 19.554545 
" style="fill:none;stroke:#8c8c8c;stroke-linecap:square;"/>
   </g>
   <g id="line2d_9">
    <path clip-path="url(#p6fede4b742)" d="M 141.602479 20.303306 
L 140.853719 21.052066 
L 140.853719 21.052066 
L 140.853719 21.052066 
L 140.853719 21.800826 
L 141.602479 24.047107 
L 142.35124 25.544628 
L 142.35124 28.539669 
L 143.84876 33.032231 
L 144.597521 38.273554 
L 145.346281 39.771074 
L 145.346281 39.771074 
L 145.346281 40.519835 
" style="fill:none;stroke:#8c8c8c;stroke-linecap:square;"/>
   </g>
   <g id="line2d_10">
    <path clip-path="url(#p6fede4b742)" d="M 140.853719 30.78595 
L 140.853719 30.03719 
L 140.104959 30.03719 
L 140.104959 30.03719 
L 140.104959 30.03719 
L 140.104959 30.03719 
L 141.602479 30.03719 
L 143.84876 30.03719 
L 146.095041 29.28843 
L 147.592562 28.539669 
L 148.341322 28.539669 
L 149.090083 28.539669 
" style="fill:none;stroke:#8c8c8c;stroke-linecap:square;"/>
   </g>
   <g id="line2d_11">
    <path clip-path="url(#p6fede4b742)" d="M 155.828926 25.544628 
L 155.828926 25.544628 
L 155.080165 26.293388 
L 155.080165 26.293388 
L 155.828926 27.042149 
L 156.577686 27.042149 
L 158.075207 26.293388 
L 159.572727 24.795868 
L 159.572727 24.047107 
L 160.321488 23.298347 
L 160.321488 23.298347 
L 158.075207 23.298347 
L 156.577686 24.795868 
L 155.080165 27.042149 
L 154.331405 30.78595 
L 155.080165 33.032231 
L 156.577686 34.529752 
L 158.823967 36.776033 
L 164.065289 38.273554 
L 167.060331 37.524793 
" style="fill:none;stroke:#8c8c8c;stroke-linecap:square;"/>
   </g>
   <g id="line2d_12">
    <path clip-path="url(#p6fede4b742)" d="M 205.247107 28.539669 
L 205.247107 28.539669 
L 205.247107 28.539669 
L 204.498347 28.539669 
L 204.498347 27.790909 
L 204.498347 27.790909 
L 203.749587 27.790909 
L 203.000826 27.790909 
L 202.252066 28.539669 
L 200.005785 30.78595 
L 199.257025 33.032231 
L 198.508264 35.278512 
L 200.005785 39.022314 
L 201.503306 40.519835 
L 202.252066 40.519835 
L 205.995868 39.771074 
L 206.744628 39.771074 
L 206.744628 39.022314 
" style="fill:none;stroke:#8c8c8c;stroke-linecap:square;"/>
   </g>
   <g id="line2d_13">
    <path clip-path="url(#p6fede4b742)" d="M 212.734711 32.283471 
L 211.98595 32.283471 
L 211.98595 32.283471 
L 211.23719 32.283471 
L 210.48843 34.529752 
L 210.48843 36.776033 
L 211.98595 38.273554 
L 213.483471 39.022314 
L 215.729752 39.022314 
L 217.227273 38.273554 
L 218.724793 35.278512 
L 218.724793 33.032231 
L 217.976033 31.534711 
L 216.478512 30.03719 
L 215.729752 30.03719 
L 213.483471 30.78595 
L 211.23719 32.283471 
L 211.23719 33.032231 
L 210.48843 33.032231 
" style="fill:none;stroke:#8c8c8c;stroke-linecap:square;"/>
   </g>
   <g id="line2d_14">
    <path clip-path="url(#p6fede4b742)" d="M 222.468595 30.78595 
L 222.468595 31.534711 
L 223.217355 31.534711 
L 223.217355 32.283471 
L 224.714876 33.780992 
L 225.463636 36.027273 
L 226.212397 37.524793 
L 226.212397 38.273554 
L 226.212397 39.022314 
L 226.961157 39.022314 
L 226.961157 39.022314 
L 226.212397 37.524793 
L 226.212397 34.529752 
L 226.961157 32.283471 
L 226.961157 31.534711 
L 227.709917 30.78595 
L 229.207438 30.78595 
L 229.956198 31.534711 
L 231.453719 32.283471 
L 232.202479 35.278512 
L 232.95124 36.027273 
L 232.95124 36.027273 
L 233.7 36.027273 
L 233.7 34.529752 
L 234.44876 33.032231 
L 235.197521 31.534711 
L 235.197521 30.78595 
L 235.946281 30.78595 
L 236.695041 32.283471 
L 237.443802 33.780992 
L 238.941322 35.278512 
L 239.690083 36.776033 
L 240.438843 37.524793 
" style="fill:none;stroke:#8c8c8c;stroke-linecap:square;"/>
   </g>
   <g id="line2d_15">
    <path clip-path="url(#p6fede4b742)" d="M 241.936364 36.776033 
L 241.936364 36.776033 
L 242.685124 36.776033 
L 242.685124 36.776033 
L 242.685124 36.776033 
L 243.433884 36.776033 
L 244.182645 36.776033 
L 246.428926 36.027273 
L 248.675207 34.529752 
L 249.423967 33.032231 
L 249.423967 30.78595 
L 249.423967 30.03719 
L 248.675207 27.790909 
L 247.926446 27.042149 
L 246.428926 26.293388 
L 244.931405 27.790909 
L 244.182645 28.539669 
L 244.182645 30.03719 
L 244.182645 36.027273 
L 245.680165 41.268595 
L 247.177686 45.012397 
L 247.926446 46.509917 
L 248.675207 49.504959 
L 248.675207 49.504959 
L 249.423967 50.253719 
L 249.423967 50.253719 
" style="fill:none;stroke:#8c8c8c;stroke-linecap:square;"/>
   </g>
   <g id="line2d_16">
    <path clip-path="url(#p6fede4b742)" d="M 256.91157 30.78595 
L 256.91157 30.03719 
L 256.16281 30.03719 
L 256.16281 30.03719 
L 255.41405 30.03719 
L 254.665289 30.78595 
L 254.665289 31.534711 
L 254.665289 35.278512 
L 256.91157 37.524793 
L 257.660331 37.524793 
L 259.906612 37.524793 
L 261.404132 36.776033 
L 262.152893 34.529752 
L 262.152893 30.78595 
L 261.404132 29.28843 
L 260.655372 28.539669 
L 258.409091 27.042149 
L 257.660331 27.790909 
L 256.91157 28.539669 
L 256.91157 28.539669 
" style="fill:none;stroke:#8c8c8c;stroke-linecap:square;"/>
   </g>
   <g id="line2d_17">
    <path clip-path="url(#p6fede4b742)" d="M 271.886777 25.544628 
L 271.886777 25.544628 
L 272.635537 25.544628 
L 272.635537 24.795868 
L 272.635537 24.795868 
L 271.886777 25.544628 
L 271.138017 26.293388 
L 268.891736 28.539669 
L 267.394215 30.03719 
L 267.394215 30.78595 
L 267.394215 30.78595 
L 267.394215 31.534711 
L 268.142975 31.534711 
L 269.640496 31.534711 
L 271.886777 32.283471 
L 272.635537 33.032231 
L 276.379339 36.027273 
L 277.87686 38.273554 
L 279.37438 39.771074 
L 278.62562 41.268595 
L 277.87686 41.268595 
L 274.881818 40.519835 
L 273.384298 39.022314 
L 273.384298 39.022314 
" style="fill:none;stroke:#8c8c8c;stroke-linecap:square;"/>
   </g>
   <g id="line2d_18">
    <path clip-path="url(#p6fede4b742)" d="M 281.620661 28.539669 
L 281.620661 28.539669 
L 282.369421 30.03719 
L 283.118182 31.534711 
L 284.615702 33.032231 
L 284.615702 34.529752 
L 285.364463 36.027273 
L 286.113223 37.524793 
L 286.113223 37.524793 
L 286.113223 37.524793 
L 286.113223 37.524793 
" style="fill:none;stroke:#8c8c8c;stroke-linecap:square;"/>
   </g>
   <g id="line2d_19">
    <path clip-path="url(#p6fede4b742)" d="M 283.118182 27.790909 
L 283.118182 26.293388 
L 283.118182 24.047107 
L 283.118182 22.549587 
L 283.118182 21.800826 
L 283.118182 21.800826 
L 283.118182 21.800826 
L 283.866942 21.800826 
" style="fill:none;stroke:#8c8c8c;stroke-linecap:square;"/>
   </g>
   <g id="line2d_20">
    <path clip-path="url(#p6fede4b742)" d="M 287.610744 20.303306 
L 287.610744 20.303306 
L 288.359504 20.303306 
L 288.359504 21.052066 
L 289.857025 22.549587 
L 289.857025 23.298347 
L 292.852066 29.28843 
L 293.600826 30.78595 
L 295.847107 35.278512 
L 296.595868 37.524793 
L 296.595868 38.273554 
L 296.595868 38.273554 
L 296.595868 39.022314 
" style="fill:none;stroke:#8c8c8c;stroke-linecap:square;"/>
   </g>
   <g id="line2d_21">
    <path clip-path="url(#p6fede4b742)" d="M 291.354545 31.534711 
L 290.605785 31.534711 
L 290.605785 30.78595 
L 289.857025 30.78595 
L 289.857025 30.78595 
L 290.605785 30.03719 
L 291.354545 30.03719 
L 293.600826 29.28843 
L 294.349587 28.539669 
L 297.344628 27.790909 
L 298.842149 27.790909 
L 299.590909 27.042149 
" style="fill:none;stroke:#8c8c8c;stroke-linecap:square;"/>
   </g>
   <g id="line2d_22">
    <path clip-path="url(#p6fede4b742)" d="M 304.832231 25.544628 
L 304.832231 25.544628 
L 304.832231 26.293388 
L 305.580992 27.790909 
L 306.329752 30.78595 
L 307.078512 32.283471 
L 307.827273 36.027273 
L 307.827273 36.776033 
L 308.576033 37.524793 
L 308.576033 37.524793 
" style="fill:none;stroke:#8c8c8c;stroke-linecap:square;"/>
   </g>
   <g id="line2d_23">
    <path clip-path="url(#p6fede4b742)" d="M 307.078512 27.042149 
L 307.078512 24.795868 
L 306.329752 23.298347 
L 306.329752 22.549587 
L 307.078512 22.549587 
L 307.078512 22.549587 
L 307.078512 22.549587 
" style="fill:none;stroke:#8c8c8c;stroke-linecap:square;"/>
   </g>
   <g id="line2d_24">
    <path clip-path="url(#p6fede4b742)" d="M 316.063636 27.790909 
L 316.063636 28.539669 
L 315.314876 30.03719 
L 315.314876 31.534711 
L 315.314876 33.780992 
L 315.314876 36.027273 
L 316.063636 37.524793 
L 316.812397 38.273554 
L 318.309917 39.022314 
L 320.556198 37.524793 
L 321.304959 36.027273 
L 322.802479 33.032231 
L 322.802479 31.534711 
L 321.304959 29.28843 
L 319.807438 28.539669 
L 318.309917 27.790909 
L 316.812397 28.539669 
L 315.314876 29.28843 
L 314.566116 30.03719 
L 314.566116 30.78595 
L 314.566116 30.78595 
" style="fill:none;stroke:#8c8c8c;stroke-linecap:square;"/>
   </g>
   <g id="line2d_25">
    <path clip-path="url(#p6fede4b742)" d="M 330.290083 28.539669 
L 329.541322 29.28843 
L 329.541322 29.28843 
L 329.541322 30.78595 
L 329.541322 30.78595 
L 329.541322 32.283471 
L 330.290083 33.780992 
L 330.290083 34.529752 
L 330.290083 35.278512 
L 330.290083 36.027273 
L 331.038843 34.529752 
L 332.536364 31.534711 
L 332.536364 30.78595 
L 334.033884 29.28843 
L 334.782645 29.28843 
L 335.531405 30.78595 
L 335.531405 32.283471 
L 335.531405 34.529752 
L 336.280165 37.524793 
L 336.280165 37.524793 
L 336.280165 37.524793 
" style="fill:none;stroke:#8c8c8c;stroke-linecap:square;"/>
   </g>
   <g id="line2d_26">
    <path clip-path="url(#p6fede4b742)" d="M 344.516529 28.539669 
L 344.516529 27.790909 
L 345.265289 26.293388 
L 345.265289 24.795868 
L 345.265289 24.047107 
L 345.265289 24.047107 
L 345.265289 24.047107 
L 343.767769 24.795868 
L 343.019008 26.293388 
L 342.270248 27.042149 
L 342.270248 28.539669 
L 341.521488 29.28843 
L 342.270248 30.03719 
L 342.270248 30.78595 
L 343.019008 30.78595 
L 343.767769 33.032231 
L 345.265289 33.780992 
L 346.01405 36.027273 
L 346.01405 36.776033 
L 346.01405 37.524793 
" style="fill:none;stroke:#8c8c8c;stroke-linecap:square;"/>
   </g>
   <g id="line2d_27">
    <path clip-path="url(#p6fede4b742)" d="M 66.726446 72.716529 
L 66.726446 72.716529 
L 66.726446 72.716529 
L 66.726446 72.716529 
L 66.726446 72.716529 
L 66.726446 72.716529 
L 66.726446 73.465289 
L 67.475207 75.71157 
L 68.223967 77.957851 
L 71.219008 82.450413 
L 73.465289 85.445455 
L 75.71157 86.942975 
L 76.460331 86.942975 
L 77.209091 86.194215 
L 77.957851 80.204132 
L 77.209091 76.460331 
L 76.460331 72.716529 
L 74.96281 69.721488 
L 74.21405 68.223967 
L 73.465289 66.726446 
L 73.465289 66.726446 
" style="fill:none;stroke:#8c8c8c;stroke-linecap:square;"/>
   </g>
   <g id="line2d_28">
    <path clip-path="url(#p6fede4b742)" d="M 89.189256 74.96281 
L 89.938017 74.21405 
L 89.189256 74.21405 
L 89.189256 73.465289 
L 88.440496 73.465289 
L 87.691736 74.21405 
L 86.942975 76.460331 
L 86.942975 77.209091 
L 87.691736 80.952893 
L 89.189256 81.701653 
L 89.189256 81.701653 
L 89.938017 80.952893 
L 90.686777 79.455372 
L 91.435537 77.209091 
L 90.686777 72.716529 
L 89.938017 71.219008 
L 89.938017 71.219008 
L 90.686777 73.465289 
L 91.435537 75.71157 
L 93.681818 81.701653 
L 95.928099 85.445455 
L 97.42562 86.942975 
L 97.42562 86.942975 
L 97.42562 86.942975 
" style="fill:none;stroke:#8c8c8c;stroke-linecap:square;"/>
   </g>
   <g id="line2d_29">
    <path clip-path="url(#p6fede4b742)" d="M 97.42562 74.21405 
L 97.42562 74.21405 
L 97.42562 74.21405 
L 97.42562 73.465289 
L 98.17438 74.21405 
L 99.671901 75.71157 
L 101.169421 77.209091 
L 101.918182 77.957851 
L 102.666942 78.706612 
L 104.164463 80.204132 
L 104.164463 80.204132 
L 104.913223 81.701653 
L 105.661983 81.701653 
L 105.661983 80.204132 
L 105.661983 78.706612 
L 105.661983 76.460331 
L 106.410744 74.96281 
L 107.159504 71.967769 
L 107.908264 71.219008 
" style="fill:none;stroke:#8c8c8c;stroke-linecap:square;"/>
   </g>
   <g id="line2d_30">
    <path clip-path="url(#p6fede4b742)" d="M 113.149587 69.721488 
L 113.149587 71.967769 
L 113.149587 72.716529 
L 113.898347 74.96281 
L 113.898347 75.71157 
L 114.647107 76.460331 
L 116.144628 76.460331 
L 118.390909 75.71157 
L 119.88843 73.465289 
L 120.63719 71.967769 
L 121.38595 70.470248 
L 121.38595 68.223967 
L 122.134711 66.726446 
L 122.134711 66.726446 
L 122.134711 66.726446 
L 122.134711 70.470248 
L 122.883471 73.465289 
L 125.129752 81.701653 
L 125.878512 84.696694 
L 126.627273 84.696694 
L 128.124793 86.942975 
L 128.124793 86.194215 
" style="fill:none;stroke:#8c8c8c;stroke-linecap:square;"/>
   </g>
   <g id="line2d_31">
    <path clip-path="url(#p6fede4b742)" d="M 135.612397 58.490083 
L 135.612397 58.490083 
L 135.612397 58.490083 
L 135.612397 58.490083 
L 134.863636 58.490083 
L 134.863636 58.490083 
L 134.863636 58.490083 
L 135.612397 58.490083 
L 135.612397 58.490083 
L 135.612397 58.490083 
" style="fill:none;stroke:#8c8c8c;stroke-linecap:square;"/>
   </g>
   <g id="line2d_32">
    <path clip-path="url(#p6fede4b742)" d="M 139.356198 72.716529 
L 140.104959 72.716529 
L 140.104959 73.465289 
L 140.104959 73.465289 
L 140.104959 74.21405 
L 140.104959 74.21405 
L 140.104959 74.21405 
L 140.104959 74.21405 
" style="fill:none;stroke:#8c8c8c;stroke-linecap:square;"/>
   </g>
   <g id="line2d_33">
    <path clip-path="url(#p6fede4b742)" d="M 64.480165 125.129752 
L 64.480165 125.129752 
L 64.480165 125.129752 
L 64.480165 125.129752 
L 64.480165 125.129752 
L 65.228926 125.129752 
L 65.977686 125.129752 
L 67.475207 125.129752 
L 68.972727 125.129752 
L 71.967769 124.380992 
L 75.71157 122.883471 
" style="fill:none;stroke:#8c8c8c;stroke-linecap:square;"/>
   </g>
   <g id="line2d_34">
    <path clip-path="url(#p6fede4b742)" d="M 97.42562 120.63719 
L 97.42562 120.63719 
L 97.42562 119.88843 
L 97.42562 119.88843 
L 96.67686 119.88843 
L 95.928099 119.88843 
L 95.928099 119.88843 
L 95.179339 121.38595 
L 95.179339 122.134711 
L 95.179339 124.380992 
L 97.42562 126.627273 
L 98.92314 128.124793 
L 101.169421 128.873554 
L 104.164463 128.873554 
L 107.159504 126.627273 
L 107.159504 125.878512 
L 107.908264 122.883471 
L 107.159504 119.88843 
L 106.410744 118.390909 
L 104.164463 117.642149 
L 101.918182 117.642149 
L 98.92314 118.390909 
L 97.42562 119.139669 
L 95.928099 120.63719 
L 95.928099 120.63719 
" style="fill:none;stroke:#8c8c8c;stroke-linecap:square;"/>
   </g>
   <g id="line2d_35">
    <path clip-path="url(#p6fede4b742)" d="M 122.134711 110.903306 
L 121.38595 110.903306 
L 120.63719 111.652066 
L 119.88843 112.400826 
L 119.88843 114.647107 
L 119.139669 118.390909 
L 118.390909 121.38595 
L 117.642149 125.878512 
L 117.642149 128.124793 
L 117.642149 128.873554 
" style="fill:none;stroke:#8c8c8c;stroke-linecap:square;"/>
   </g>
   <g id="line2d_36">
    <path clip-path="url(#p6fede4b742)" d="M 114.647107 118.390909 
L 113.898347 116.144628 
L 113.898347 115.395868 
L 113.898347 115.395868 
L 113.898347 115.395868 
L 116.144628 118.390909 
L 118.390909 120.63719 
L 120.63719 123.632231 
L 122.883471 126.627273 
L 125.878512 130.371074 
L 127.376033 131.119835 
L 127.376033 131.119835 
L 127.376033 131.119835 
" style="fill:none;stroke:#8c8c8c;stroke-linecap:square;"/>
   </g>
   <g id="line2d_37">
    <path clip-path="url(#p6fede4b742)" d="M 130.371074 116.893388 
L 130.371074 116.893388 
L 131.119835 117.642149 
L 131.119835 118.390909 
L 131.868595 119.139669 
L 133.366116 122.134711 
L 134.114876 123.632231 
L 134.114876 123.632231 
L 133.366116 122.883471 
L 131.868595 119.88843 
L 128.873554 114.647107 
L 127.376033 110.903306 
L 126.627273 108.657025 
L 126.627273 108.657025 
L 126.627273 107.908264 
" style="fill:none;stroke:#8c8c8c;stroke-linecap:square;"/>
   </g>
   <g id="line2d_38">
    <path clip-path="url(#p6fede4b742)" d="M 147.592562 116.144628 
L 147.592562 116.144628 
L 146.843802 115.395868 
L 146.843802 115.395868 
L 146.095041 114.647107 
L 143.84876 115.395868 
L 142.35124 116.144628 
L 139.356198 119.88843 
L 139.356198 122.883471 
L 140.104959 125.129752 
L 141.602479 126.627273 
L 142.35124 126.627273 
L 143.1 125.878512 
L 145.346281 122.883471 
L 146.843802 115.395868 
L 146.843802 111.652066 
L 146.095041 109.405785 
L 144.597521 104.164463 
L 143.84876 101.918182 
L 143.84876 101.169421 
L 143.84876 101.169421 
L 143.84876 101.918182 
L 144.597521 104.164463 
L 146.095041 106.410744 
L 147.592562 110.903306 
L 151.336364 118.390909 
L 153.582645 122.134711 
L 154.331405 123.632231 
L 155.080165 123.632231 
L 155.080165 123.632231 
" style="fill:none;stroke:#8c8c8c;stroke-linecap:square;"/>
   </g>
   <g id="line2d_39">
    <path clip-path="url(#p6fede4b742)" d="M 161.070248 111.652066 
L 161.070248 111.652066 
L 161.819008 110.903306 
L 161.819008 110.903306 
L 161.819008 111.652066 
L 161.819008 112.400826 
L 162.567769 114.647107 
L 162.567769 116.144628 
L 163.316529 118.390909 
L 163.316529 119.139669 
L 163.316529 119.88843 
L 164.065289 119.88843 
L 163.316529 118.390909 
L 162.567769 116.144628 
L 161.819008 114.647107 
L 161.070248 113.898347 
L 158.823967 112.400826 
L 158.075207 112.400826 
L 156.577686 112.400826 
L 154.331405 114.647107 
L 153.582645 116.144628 
L 154.331405 117.642149 
L 155.080165 119.88843 
L 157.326446 120.63719 
L 159.572727 119.88843 
L 161.070248 119.88843 
L 162.567769 118.390909 
L 163.316529 117.642149 
L 163.316529 116.893388 
" style="fill:none;stroke:#8c8c8c;stroke-linecap:square;"/>
   </g>
   <g id="line2d_40">
    <path clip-path="url(#p6fede4b742)" d="M 167.060331 108.657025 
L 167.060331 108.657025 
L 167.060331 107.159504 
L 167.060331 107.159504 
L 167.060331 106.410744 
L 167.060331 106.410744 
L 167.809091 107.159504 
L 167.809091 108.657025 
L 169.306612 113.149587 
L 170.804132 116.893388 
L 172.301653 119.139669 
L 173.799174 122.134711 
L 174.547934 122.134711 
L 174.547934 122.134711 
" style="fill:none;stroke:#8c8c8c;stroke-linecap:square;"/>
   </g>
   <g id="line2d_41">
    <path clip-path="url(#p6fede4b742)" d="M 168.557851 113.898347 
L 167.809091 113.898347 
L 167.060331 113.898347 
L 167.060331 113.898347 
L 167.060331 113.898347 
L 167.809091 113.149587 
L 170.804132 113.149587 
L 172.301653 112.400826 
L 174.547934 111.652066 
L 176.045455 110.903306 
L 177.542975 110.903306 
L 177.542975 110.903306 
" style="fill:none;stroke:#8c8c8c;stroke-linecap:square;"/>
   </g>
   <g id="line2d_42">
    <path clip-path="url(#p6fede4b742)" d="M 180.538017 110.154545 
L 180.538017 110.903306 
L 181.286777 111.652066 
L 181.286777 113.149587 
L 182.035537 115.395868 
L 182.784298 117.642149 
L 183.533058 119.139669 
L 183.533058 119.139669 
" style="fill:none;stroke:#8c8c8c;stroke-linecap:square;"/>
   </g>
   <g id="line2d_43">
    <path clip-path="url(#p6fede4b742)" d="M 182.035537 106.410744 
L 181.286777 104.913223 
L 181.286777 102.666942 
L 181.286777 102.666942 
L 181.286777 101.918182 
L 181.286777 101.918182 
" style="fill:none;stroke:#8c8c8c;stroke-linecap:square;"/>
   </g>
   <g id="line2d_44">
    <path clip-path="url(#p6fede4b742)" d="M 189.52314 107.159504 
L 188.77438 107.908264 
L 188.02562 109.405785 
L 187.27686 110.903306 
L 187.27686 113.898347 
L 188.02562 114.647107 
L 189.52314 116.893388 
L 191.769421 118.390909 
L 193.266942 119.139669 
L 194.764463 118.390909 
L 196.261983 116.893388 
L 196.261983 114.647107 
L 196.261983 112.400826 
L 194.764463 110.154545 
L 192.518182 108.657025 
L 191.769421 107.908264 
L 190.271901 107.908264 
L 188.77438 108.657025 
L 188.77438 108.657025 
" style="fill:none;stroke:#8c8c8c;stroke-linecap:square;"/>
   </g>
   <g id="line2d_45">
    <path clip-path="url(#p6fede4b742)" d="M 198.508264 108.657025 
L 199.257025 108.657025 
L 200.005785 109.405785 
L 200.005785 109.405785 
L 200.754545 110.154545 
L 201.503306 111.652066 
L 202.252066 112.400826 
L 202.252066 113.149587 
L 204.498347 116.893388 
L 205.247107 118.390909 
L 205.247107 117.642149 
L 205.995868 116.144628 
L 205.995868 113.898347 
L 206.744628 111.652066 
L 207.493388 109.405785 
L 208.990909 109.405785 
L 209.739669 111.652066 
L 211.23719 114.647107 
L 211.23719 116.144628 
L 211.98595 116.893388 
L 211.98595 116.893388 
" style="fill:none;stroke:#8c8c8c;stroke-linecap:square;"/>
   </g>
   <g id="line2d_46">
    <path clip-path="url(#p6fede4b742)" d="M 244.182645 101.169421 
L 244.182645 100.420661 
L 243.433884 100.420661 
L 242.685124 101.169421 
L 241.936364 101.169421 
L 240.438843 101.918182 
L 238.192562 103.415702 
L 236.695041 104.913223 
L 235.197521 106.410744 
L 235.197521 106.410744 
L 234.44876 107.159504 
L 234.44876 107.159504 
L 235.197521 107.908264 
L 235.946281 108.657025 
L 237.443802 109.405785 
L 239.690083 110.903306 
L 241.187603 112.400826 
L 242.685124 115.395868 
L 243.433884 116.893388 
L 243.433884 118.390909 
L 240.438843 120.63719 
L 238.941322 121.38595 
L 236.695041 121.38595 
L 235.946281 121.38595 
L 235.197521 120.63719 
" style="fill:none;stroke:#8c8c8c;stroke-linecap:square;"/>
   </g>
   <g id="line2d_47">
    <path clip-path="url(#p6fede4b742)" d="M 246.428926 105.661983 
L 246.428926 105.661983 
L 246.428926 105.661983 
L 247.177686 106.410744 
L 247.926446 109.405785 
L 248.675207 111.652066 
L 249.423967 115.395868 
L 250.921488 118.390909 
L 250.921488 119.88843 
L 250.921488 119.88843 
L 250.921488 119.88843 
" style="fill:none;stroke:#8c8c8c;stroke-linecap:square;"/>
   </g>
   <g id="line2d_48">
    <path clip-path="url(#p6fede4b742)" d="M 246.428926 113.898347 
L 245.680165 113.898347 
L 245.680165 113.898347 
L 245.680165 113.898347 
L 247.926446 113.149587 
L 250.172727 113.149587 
L 252.419008 113.149587 
L 256.16281 112.400826 
L 258.409091 111.652066 
L 258.409091 111.652066 
" style="fill:none;stroke:#8c8c8c;stroke-linecap:square;"/>
   </g>
   <g id="line2d_49">
    <path clip-path="url(#p6fede4b742)" d="M 266.645455 109.405785 
L 266.645455 109.405785 
L 266.645455 109.405785 
L 265.896694 109.405785 
L 265.147934 108.657025 
L 264.399174 108.657025 
L 263.650413 108.657025 
L 262.152893 110.154545 
L 260.655372 110.903306 
L 259.906612 113.898347 
L 260.655372 116.893388 
L 262.152893 118.390909 
L 263.650413 118.390909 
L 264.399174 118.390909 
L 265.147934 116.893388 
L 266.645455 113.898347 
L 267.394215 111.652066 
L 268.142975 110.154545 
L 268.142975 109.405785 
L 268.142975 108.657025 
L 268.142975 108.657025 
L 268.891736 109.405785 
L 268.891736 112.400826 
L 270.389256 116.144628 
L 271.138017 119.139669 
L 271.138017 119.88843 
L 271.886777 120.63719 
L 271.886777 120.63719 
" style="fill:none;stroke:#8c8c8c;stroke-linecap:square;"/>
   </g>
   <g id="line2d_50">
    <path clip-path="url(#p6fede4b742)" d="M 275.630579 104.164463 
L 274.881818 104.164463 
L 274.881818 104.164463 
L 274.881818 104.164463 
L 274.881818 105.661983 
L 275.630579 107.159504 
L 276.379339 111.652066 
L 277.87686 115.395868 
L 278.62562 117.642149 
L 278.62562 118.390909 
L 278.62562 118.390909 
L 278.62562 119.139669 
" style="fill:none;stroke:#8c8c8c;stroke-linecap:square;"/>
   </g>
   <g id="line2d_51">
    <path clip-path="url(#p6fede4b742)" d="M 274.133058 112.400826 
L 274.133058 112.400826 
L 273.384298 111.652066 
L 273.384298 111.652066 
L 274.133058 110.903306 
L 275.630579 110.154545 
L 277.87686 110.154545 
L 280.871901 109.405785 
L 281.620661 108.657025 
L 281.620661 108.657025 
" style="fill:none;stroke:#8c8c8c;stroke-linecap:square;"/>
   </g>
   <g id="line2d_52">
    <path clip-path="url(#p6fede4b742)" d="M 283.866942 107.908264 
L 283.866942 107.908264 
L 284.615702 107.908264 
L 284.615702 107.908264 
L 284.615702 107.908264 
L 286.113223 107.908264 
L 286.861983 107.908264 
L 288.359504 106.410744 
L 289.108264 105.661983 
L 289.108264 104.164463 
L 289.108264 104.164463 
L 289.108264 103.415702 
L 287.610744 104.913223 
L 286.113223 106.410744 
L 286.113223 108.657025 
L 286.113223 112.400826 
L 286.861983 113.898347 
L 287.610744 114.647107 
L 289.857025 114.647107 
L 292.103306 113.898347 
L 293.600826 112.400826 
L 294.349587 110.903306 
L 295.098347 110.903306 
" style="fill:none;stroke:#8c8c8c;stroke-linecap:square;"/>
   </g>
   <g id="line2d_53">
    <path clip-path="url(#p6fede4b742)" d="M 301.83719 103.415702 
L 303.334711 101.918182 
L 304.083471 100.420661 
L 304.083471 100.420661 
L 304.083471 99.671901 
L 304.083471 99.671901 
L 302.58595 99.671901 
L 301.83719 100.420661 
L 299.590909 101.918182 
L 298.093388 102.666942 
L 298.093388 103.415702 
L 298.842149 105.661983 
L 299.590909 107.159504 
L 301.08843 110.154545 
L 301.83719 111.652066 
L 302.58595 114.647107 
L 302.58595 116.144628 
" style="fill:none;stroke:#8c8c8c;stroke-linecap:square;"/>
   </g>
   <g id="line2d_54">
    <path clip-path="url(#p6fede4b742)" d="M 69.721488 178.291736 
L 69.721488 178.291736 
L 68.972727 179.040496 
L 69.721488 179.040496 
L 69.721488 179.040496 
L 70.470248 179.040496 
L 70.470248 179.040496 
L 72.716529 178.291736 
L 73.465289 178.291736 
L 75.71157 178.291736 
L 76.460331 177.542975 
L 77.209091 177.542975 
L 77.209091 177.542975 
" style="fill:none;stroke:#8c8c8c;stroke-linecap:square;"/>
   </g>
   <g id="line2d_55">
    <path clip-path="url(#p6fede4b742)" d="M 109.405785 171.552893 
L 110.154545 171.552893 
L 110.154545 170.804132 
L 110.154545 170.804132 
L 110.154545 170.055372 
L 110.154545 170.055372 
L 110.154545 170.055372 
L 109.405785 170.055372 
L 109.405785 170.055372 
L 108.657025 170.055372 
L 107.159504 171.552893 
L 106.410744 172.301653 
L 105.661983 173.799174 
L 105.661983 175.296694 
L 106.410744 176.794215 
L 107.908264 178.291736 
L 109.405785 178.291736 
L 110.154545 178.291736 
L 111.652066 176.794215 
L 112.400826 175.296694 
L 112.400826 173.799174 
L 110.903306 168.557851 
L 109.405785 164.81405 
L 108.657025 161.819008 
L 108.657025 160.321488 
L 107.908264 158.823967 
L 107.908264 158.823967 
L 107.908264 158.075207 
L 107.908264 158.075207 
L 107.908264 158.823967 
L 108.657025 160.321488 
L 110.903306 164.81405 
L 112.400826 167.060331 
L 114.647107 172.301653 
L 116.144628 176.045455 
L 116.893388 177.542975 
L 116.893388 177.542975 
" style="fill:none;stroke:#8c8c8c;stroke-linecap:square;"/>
   </g>
   <g id="line2d_56">
    <path clip-path="url(#p6fede4b742)" d="M 121.38595 167.809091 
L 122.134711 167.809091 
L 122.134711 168.557851 
L 122.883471 169.306612 
L 122.883471 170.804132 
L 123.632231 171.552893 
L 123.632231 172.301653 
L 123.632231 172.301653 
L 123.632231 172.301653 
" style="fill:none;stroke:#8c8c8c;stroke-linecap:square;"/>
   </g>
   <g id="line2d_57">
    <path clip-path="url(#p6fede4b742)" d="M 118.390909 161.819008 
L 118.390909 161.070248 
L 118.390909 161.070248 
L 118.390909 160.321488 
L 118.390909 160.321488 
L 118.390909 160.321488 
L 118.390909 160.321488 
L 118.390909 160.321488 
L 119.139669 160.321488 
" style="fill:none;stroke:#8c8c8c;stroke-linecap:square;"/>
   </g>
   <g id="line2d_58">
    <path clip-path="url(#p6fede4b742)" d="M 131.119835 164.065289 
L 131.868595 164.065289 
L 131.868595 164.81405 
L 132.617355 165.56281 
L 133.366116 165.56281 
L 134.863636 167.809091 
L 135.612397 168.557851 
L 136.361157 169.306612 
L 136.361157 170.055372 
L 137.109917 170.804132 
L 136.361157 170.804132 
L 134.863636 169.306612 
L 133.366116 167.809091 
L 130.371074 163.316529 
L 129.622314 160.321488 
L 129.622314 158.823967 
L 129.622314 158.075207 
L 131.868595 156.577686 
L 133.366116 155.828926 
L 134.114876 156.577686 
" style="fill:none;stroke:#8c8c8c;stroke-linecap:square;"/>
   </g>
   <g id="line2d_59">
    <path clip-path="url(#p6fede4b742)" d="M 126.627273 164.81405 
L 125.878512 165.56281 
L 125.878512 166.31157 
L 126.627273 166.31157 
L 128.873554 165.56281 
L 133.366116 164.065289 
L 134.863636 164.065289 
L 137.109917 163.316529 
L 137.109917 163.316529 
" style="fill:none;stroke:#8c8c8c;stroke-linecap:square;"/>
   </g>
   <g id="line2d_60">
    <path clip-path="url(#p6fede4b742)" d="M 143.1 161.070248 
L 143.1 161.819008 
L 143.1 161.819008 
L 143.84876 162.567769 
L 143.84876 163.316529 
L 143.84876 163.316529 
L 145.346281 165.56281 
L 146.095041 167.060331 
L 146.843802 168.557851 
L 148.341322 170.055372 
L 148.341322 170.055372 
L 148.341322 170.055372 
L 147.592562 168.557851 
L 145.346281 165.56281 
L 142.35124 161.819008 
L 140.104959 158.075207 
L 139.356198 157.326446 
L 140.104959 156.577686 
L 140.853719 155.828926 
L 142.35124 155.828926 
L 144.597521 155.080165 
L 146.843802 155.080165 
L 146.843802 155.080165 
L 147.592562 155.080165 
" style="fill:none;stroke:#8c8c8c;stroke-linecap:square;"/>
   </g>
   <g id="line2d_61">
    <path clip-path="url(#p6fede4b742)" d="M 141.602479 163.316529 
L 141.602479 163.316529 
L 140.853719 164.065289 
L 141.602479 164.065289 
L 142.35124 164.065289 
L 143.84876 164.065289 
L 146.095041 164.065289 
L 147.592562 163.316529 
L 149.090083 162.567769 
L 149.090083 162.567769 
" style="fill:none;stroke:#8c8c8c;stroke-linecap:square;"/>
   </g>
   <g id="line2d_62">
    <path clip-path="url(#p6fede4b742)" d="M 152.833884 161.070248 
L 152.833884 161.070248 
L 152.833884 161.819008 
L 152.833884 161.819008 
L 152.833884 162.567769 
L 152.833884 162.567769 
L 153.582645 162.567769 
L 155.080165 161.819008 
L 156.577686 160.321488 
L 156.577686 160.321488 
L 156.577686 159.572727 
L 156.577686 158.823967 
L 155.080165 159.572727 
L 153.582645 160.321488 
L 152.085124 162.567769 
L 151.336364 164.81405 
L 151.336364 165.56281 
L 151.336364 165.56281 
L 152.833884 168.557851 
L 155.080165 169.306612 
L 158.823967 170.055372 
L 160.321488 170.055372 
L 161.819008 169.306612 
L 163.316529 167.809091 
L 164.065289 167.060331 
L 164.065289 167.060331 
" style="fill:none;stroke:#8c8c8c;stroke-linecap:square;"/>
   </g>
   <g id="line2d_63">
    <path clip-path="url(#p6fede4b742)" d="M 164.81405 165.56281 
L 164.81405 165.56281 
L 164.81405 165.56281 
L 165.56281 165.56281 
L 166.31157 166.31157 
L 166.31157 166.31157 
L 167.060331 168.557851 
L 167.809091 168.557851 
L 167.809091 169.306612 
L 167.809091 169.306612 
L 167.809091 168.557851 
L 167.809091 166.31157 
L 167.809091 164.81405 
L 168.557851 162.567769 
L 170.055372 161.070248 
L 172.301653 158.823967 
L 172.301653 158.823967 
" style="fill:none;stroke:#8c8c8c;stroke-linecap:square;"/>
   </g>
   <g id="line2d_64">
    <path clip-path="url(#p6fede4b742)" d="M 174.547934 158.823967 
L 174.547934 159.572727 
L 174.547934 161.070248 
L 174.547934 161.070248 
L 175.296694 162.567769 
L 176.045455 162.567769 
L 177.542975 161.819008 
L 178.291736 161.070248 
L 179.789256 159.572727 
L 179.789256 159.572727 
L 179.789256 158.075207 
L 179.789256 158.075207 
L 179.040496 158.075207 
L 176.794215 160.321488 
L 176.794215 161.070248 
L 176.045455 163.316529 
L 176.794215 166.31157 
L 178.291736 167.060331 
L 179.040496 167.809091 
L 182.035537 168.557851 
L 184.281818 167.060331 
L 185.030579 167.060331 
" style="fill:none;stroke:#8c8c8c;stroke-linecap:square;"/>
   </g>
   <g id="line2d_65">
    <path clip-path="url(#p6fede4b742)" d="M 188.02562 160.321488 
L 188.02562 160.321488 
L 188.02562 160.321488 
L 188.02562 160.321488 
L 188.02562 161.819008 
L 188.77438 164.81405 
L 188.77438 165.56281 
L 188.77438 166.31157 
L 189.52314 166.31157 
L 189.52314 166.31157 
L 189.52314 165.56281 
L 189.52314 164.065289 
L 191.020661 161.819008 
L 191.769421 160.321488 
L 192.518182 159.572727 
L 193.266942 159.572727 
L 194.015702 159.572727 
L 195.513223 160.321488 
L 197.010744 162.567769 
L 197.010744 164.065289 
L 197.759504 165.56281 
L 197.759504 166.31157 
L 197.759504 167.060331 
" style="fill:none;stroke:#8c8c8c;stroke-linecap:square;"/>
   </g>
   <g id="line2d_66">
    <path clip-path="url(#p6fede4b742)" d="M 203.000826 156.577686 
L 203.749587 155.080165 
L 203.749587 155.080165 
L 203.749587 155.080165 
L 204.498347 155.080165 
L 205.247107 156.577686 
L 206.744628 158.823967 
L 208.242149 161.819008 
L 210.48843 167.060331 
L 211.98595 169.306612 
L 211.98595 170.055372 
L 212.734711 170.055372 
" style="fill:none;stroke:#8c8c8c;stroke-linecap:square;"/>
   </g>
   <g id="line2d_67">
    <path clip-path="url(#p6fede4b742)" d="M 206.744628 163.316529 
L 206.744628 162.567769 
L 205.995868 162.567769 
L 205.995868 162.567769 
L 205.995868 162.567769 
L 208.242149 161.819008 
L 210.48843 161.070248 
L 213.483471 159.572727 
L 214.232231 159.572727 
" style="fill:none;stroke:#8c8c8c;stroke-linecap:square;"/>
   </g>
   <g id="line2d_68">
    <path clip-path="url(#p6fede4b742)" d="M 244.182645 160.321488 
L 244.182645 159.572727 
L 243.433884 159.572727 
L 243.433884 158.823967 
L 242.685124 158.823967 
L 242.685124 158.823967 
L 243.433884 158.823967 
L 243.433884 158.823967 
L 244.931405 160.321488 
L 245.680165 161.819008 
L 247.177686 162.567769 
L 247.177686 163.316529 
L 247.926446 164.065289 
L 247.177686 163.316529 
L 247.177686 161.070248 
L 246.428926 160.321488 
L 247.177686 157.326446 
L 247.926446 155.828926 
L 249.423967 154.331405 
L 250.172727 154.331405 
L 250.172727 153.582645 
L 250.921488 153.582645 
" style="fill:none;stroke:#8c8c8c;stroke-linecap:square;"/>
   </g>
   <g id="line2d_69">
    <path clip-path="url(#p6fede4b742)" d="M 262.901653 154.331405 
L 262.901653 154.331405 
L 262.901653 154.331405 
L 262.152893 154.331405 
L 261.404132 155.080165 
L 260.655372 155.080165 
L 258.409091 156.577686 
L 257.660331 158.823967 
L 257.660331 160.321488 
L 258.409091 161.070248 
L 259.906612 161.070248 
L 261.404132 161.070248 
L 263.650413 158.075207 
L 264.399174 156.577686 
L 264.399174 155.080165 
L 264.399174 153.582645 
L 264.399174 153.582645 
L 264.399174 152.833884 
L 264.399174 152.833884 
L 264.399174 153.582645 
L 265.147934 155.080165 
L 265.896694 157.326446 
L 266.645455 158.075207 
L 268.142975 161.070248 
L 268.891736 161.819008 
L 269.640496 161.819008 
L 269.640496 161.819008 
" style="fill:none;stroke:#8c8c8c;stroke-linecap:square;"/>
   </g>
   <g id="line2d_70">
    <path clip-path="url(#p6fede4b742)" d="M 271.886777 149.838843 
L 271.886777 149.090083 
L 271.886777 148.341322 
L 271.138017 148.341322 
L 271.138017 147.592562 
L 271.886777 147.592562 
L 271.886777 148.341322 
L 272.635537 150.587603 
L 274.133058 152.833884 
L 274.881818 153.582645 
L 275.630579 155.080165 
L 277.87686 159.572727 
L 279.37438 161.070248 
L 279.37438 161.070248 
L 279.37438 161.819008 
" style="fill:none;stroke:#8c8c8c;stroke-linecap:square;"/>
   </g>
   <g id="line2d_71">
    <path clip-path="url(#p6fede4b742)" d="M 272.635537 153.582645 
L 272.635537 153.582645 
L 271.886777 153.582645 
L 271.886777 153.582645 
L 272.635537 153.582645 
L 273.384298 153.582645 
L 274.881818 153.582645 
L 277.87686 153.582645 
L 278.62562 153.582645 
L 280.12314 153.582645 
L 280.12314 153.582645 
" style="fill:none;stroke:#8c8c8c;stroke-linecap:square;"/>
   </g>
   <g id="line2d_72">
    <path clip-path="url(#p6fede4b742)" d="M 284.615702 151.336364 
L 285.364463 150.587603 
L 285.364463 151.336364 
L 286.113223 151.336364 
L 286.861983 152.085124 
L 287.610744 153.582645 
L 288.359504 155.080165 
L 288.359504 155.828926 
L 288.359504 155.828926 
" style="fill:none;stroke:#8c8c8c;stroke-linecap:square;"/>
   </g>
   <g id="line2d_73">
    <path clip-path="url(#p6fede4b742)" d="M 286.861983 146.843802 
L 286.861983 145.346281 
L 286.861983 143.84876 
L 286.861983 143.84876 
L 286.861983 143.1 
L 286.861983 143.1 
L 286.861983 143.1 
" style="fill:none;stroke:#8c8c8c;stroke-linecap:square;"/>
   </g>
   <g id="line2d_74">
    <path clip-path="url(#p6fede4b742)" d="M 293.600826 147.592562 
L 293.600826 148.341322 
L 293.600826 148.341322 
L 293.600826 148.341322 
L 293.600826 149.838843 
L 292.852066 152.085124 
L 292.852066 154.331405 
L 294.349587 155.828926 
L 295.098347 156.577686 
L 296.595868 157.326446 
L 298.093388 156.577686 
L 299.590909 155.080165 
L 300.339669 153.582645 
L 299.590909 152.085124 
L 298.093388 150.587603 
L 296.595868 149.838843 
L 295.098347 149.838843 
L 293.600826 149.838843 
L 292.852066 150.587603 
" style="fill:none;stroke:#8c8c8c;stroke-linecap:square;"/>
   </g>
   <g id="line2d_75">
    <path clip-path="url(#p6fede4b742)" d="M 301.08843 146.843802 
L 301.83719 146.095041 
L 302.58595 146.095041 
L 303.334711 145.346281 
L 303.334711 145.346281 
L 303.334711 146.095041 
L 302.58595 146.843802 
L 302.58595 147.592562 
L 301.83719 148.341322 
L 301.08843 149.090083 
L 301.83719 149.838843 
L 301.83719 150.587603 
L 303.334711 151.336364 
L 304.832231 152.085124 
L 307.827273 153.582645 
L 308.576033 154.331405 
L 309.324793 155.828926 
L 310.073554 157.326446 
L 309.324793 158.075207 
L 309.324793 158.075207 
L 309.324793 158.075207 
" style="fill:none;stroke:#8c8c8c;stroke-linecap:square;"/>
   </g>
   <g id="line2d_76">
    <path clip-path="url(#p6fede4b742)" d="M 335.531405 149.090083 
L 335.531405 149.090083 
L 335.531405 149.090083 
L 335.531405 149.090083 
L 334.782645 148.341322 
L 334.782645 148.341322 
L 334.033884 149.090083 
L 334.033884 149.838843 
L 334.782645 153.582645 
L 335.531405 155.080165 
L 337.777686 155.828926 
L 339.275207 155.080165 
L 340.772727 153.582645 
L 340.772727 150.587603 
L 339.275207 147.592562 
L 338.526446 146.843802 
L 337.028926 146.095041 
L 336.280165 146.843802 
L 336.280165 146.843802 
L 336.280165 146.843802 
" style="fill:none;stroke:#8c8c8c;stroke-linecap:square;"/>
   </g>
   <g id="line2d_77">
    <path clip-path="url(#p6fede4b742)" d="M 349.009091 145.346281 
L 349.757851 145.346281 
L 349.757851 146.095041 
L 350.506612 146.843802 
L 351.255372 147.592562 
L 351.255372 147.592562 
L 352.004132 148.341322 
L 352.004132 148.341322 
L 351.255372 148.341322 
L 349.009091 146.095041 
L 347.51157 143.1 
L 344.516529 138.607438 
L 343.019008 135.612397 
L 343.019008 131.868595 
L 343.019008 129.622314 
L 345.265289 127.376033 
L 346.01405 127.376033 
L 348.260331 127.376033 
L 349.009091 127.376033 
" style="fill:none;stroke:#8c8c8c;stroke-linecap:square;"/>
   </g>
   <g id="line2d_78">
    <path clip-path="url(#p6fede4b742)" d="M 341.521488 138.607438 
L 341.521488 139.356198 
L 341.521488 140.104959 
L 343.019008 140.104959 
L 345.265289 139.356198 
L 349.009091 138.607438 
L 349.757851 137.858678 
" style="fill:none;stroke:#8c8c8c;stroke-linecap:square;"/>
   </g>
   <g id="line2d_79">
    <path clip-path="url(#p6fede4b742)" d="M 153.582645 205.995868 
L 153.582645 205.247107 
L 153.582645 205.247107 
L 153.582645 204.498347 
L 153.582645 204.498347 
L 154.331405 205.995868 
L 155.828926 207.493388 
L 158.823967 211.23719 
L 161.070248 213.483471 
L 162.567769 214.232231 
L 163.316529 214.232231 
L 164.065289 213.483471 
L 164.065289 211.98595 
L 164.065289 210.48843 
L 163.316529 205.995868 
L 161.819008 201.503306 
L 161.819008 200.754545 
L 161.819008 200.005785 
L 161.819008 200.005785 
" style="fill:none;stroke:#8c8c8c;stroke-linecap:square;"/>
   </g>
   <g id="line2d_80">
    <path clip-path="url(#p6fede4b742)" d="M 173.050413 208.242149 
L 173.050413 208.242149 
L 173.799174 208.242149 
L 173.799174 207.493388 
L 173.799174 207.493388 
L 173.799174 207.493388 
L 173.050413 207.493388 
L 173.050413 208.990909 
L 173.050413 209.739669 
L 174.547934 211.23719 
L 175.296694 211.98595 
L 176.794215 211.23719 
L 177.542975 209.739669 
L 177.542975 208.242149 
L 176.045455 204.498347 
L 175.296694 203.749587 
L 174.547934 203.749587 
L 173.050413 204.498347 
L 173.050413 205.247107 
L 172.301653 205.247107 
" style="fill:none;stroke:#8c8c8c;stroke-linecap:square;"/>
   </g>
   <g id="line2d_81">
    <path clip-path="url(#p6fede4b742)" d="M 176.794215 193.266942 
L 176.794215 193.266942 
L 177.542975 192.518182 
L 177.542975 193.266942 
L 178.291736 194.015702 
L 180.538017 197.759504 
L 182.035537 200.754545 
L 184.281818 204.498347 
L 185.030579 206.744628 
L 185.779339 207.493388 
L 186.528099 208.242149 
L 186.528099 208.990909 
L 186.528099 208.990909 
" style="fill:none;stroke:#8c8c8c;stroke-linecap:square;"/>
   </g>
   <g id="line2d_82">
    <path clip-path="url(#p6fede4b742)" d="M 195.513223 204.498347 
L 195.513223 204.498347 
L 196.261983 203.749587 
L 197.010744 203.000826 
L 197.010744 202.252066 
L 197.010744 201.503306 
L 196.261983 200.754545 
L 194.764463 201.503306 
L 194.015702 202.252066 
L 192.518182 203.749587 
L 192.518182 205.247107 
L 194.015702 205.995868 
L 196.261983 205.247107 
L 197.010744 204.498347 
L 198.508264 202.252066 
L 199.257025 200.754545 
L 199.257025 199.257025 
L 199.257025 198.508264 
L 199.257025 198.508264 
L 200.005785 198.508264 
L 200.005785 199.257025 
L 200.754545 200.005785 
L 201.503306 203.000826 
L 203.000826 205.995868 
L 204.498347 208.242149 
L 204.498347 208.990909 
L 205.247107 208.990909 
L 205.247107 208.990909 
L 205.247107 208.990909 
" style="fill:none;stroke:#8c8c8c;stroke-linecap:square;"/>
   </g>
   <g id="line2d_83">
    <path clip-path="url(#p6fede4b742)" d="M 208.990909 197.759504 
L 208.990909 196.261983 
L 208.990909 195.513223 
L 208.990909 195.513223 
L 208.990909 194.764463 
L 208.990909 194.764463 
L 209.739669 196.261983 
L 209.739669 197.759504 
L 211.23719 201.503306 
L 213.483471 205.995868 
L 214.980992 208.990909 
L 215.729752 211.23719 
L 215.729752 211.98595 
L 216.478512 211.98595 
L 216.478512 212.734711 
" style="fill:none;stroke:#8c8c8c;stroke-linecap:square;"/>
   </g>
   <g id="line2d_84">
    <path clip-path="url(#p6fede4b742)" d="M 208.990909 203.749587 
L 208.242149 203.749587 
L 208.242149 203.749587 
L 208.242149 203.749587 
L 208.990909 203.000826 
L 211.23719 202.252066 
L 213.483471 201.503306 
L 214.980992 200.754545 
L 216.478512 200.005785 
L 216.478512 200.005785 
" style="fill:none;stroke:#8c8c8c;stroke-linecap:square;"/>
   </g>
   <g id="line2d_85">
    <path clip-path="url(#p6fede4b742)" d="M 220.222314 197.759504 
L 220.971074 197.759504 
L 220.971074 197.759504 
L 220.971074 197.759504 
L 222.468595 199.257025 
L 223.217355 201.503306 
L 223.966116 203.000826 
L 224.714876 205.247107 
L 225.463636 205.247107 
L 225.463636 205.247107 
" style="fill:none;stroke:#8c8c8c;stroke-linecap:square;"/>
   </g>
   <g id="line2d_86">
    <path clip-path="url(#p6fede4b742)" d="M 224.714876 189.52314 
L 224.714876 188.77438 
L 224.714876 188.02562 
L 224.714876 187.27686 
L 224.714876 186.528099 
L 224.714876 186.528099 
L 224.714876 185.779339 
L 225.463636 186.528099 
L 226.212397 186.528099 
L 226.961157 188.77438 
L 227.709917 190.271901 
L 229.207438 191.769421 
L 232.202479 197.010744 
L 233.7 201.503306 
L 235.197521 203.749587 
L 236.695041 206.744628 
L 237.443802 207.493388 
L 237.443802 207.493388 
" style="fill:none;stroke:#8c8c8c;stroke-linecap:square;"/>
   </g>
   <g id="line2d_87">
    <path clip-path="url(#p6fede4b742)" d="M 236.695041 201.503306 
L 236.695041 201.503306 
L 236.695041 200.754545 
L 236.695041 200.754545 
L 237.443802 200.005785 
L 238.192562 199.257025 
L 239.690083 197.010744 
L 241.187603 195.513223 
L 241.936364 194.015702 
L 241.936364 193.266942 
L 241.936364 193.266942 
L 241.187603 192.518182 
L 240.438843 193.266942 
L 238.192562 196.261983 
L 237.443802 200.005785 
L 237.443802 201.503306 
L 239.690083 203.749587 
L 241.187603 203.749587 
L 241.936364 203.749587 
L 245.680165 202.252066 
L 248.675207 199.257025 
L 250.172727 197.759504 
L 250.921488 196.261983 
L 251.670248 194.764463 
L 251.670248 194.015702 
L 250.921488 194.015702 
L 250.921488 194.015702 
L 249.423967 194.015702 
L 247.926446 194.764463 
L 247.177686 195.513223 
L 246.428926 196.261983 
L 247.926446 197.759504 
L 248.675207 197.759504 
L 252.419008 199.257025 
L 254.665289 200.754545 
L 256.91157 202.252066 
L 257.660331 204.498347 
L 257.660331 205.247107 
L 256.91157 205.995868 
L 256.16281 206.744628 
L 255.41405 206.744628 
L 254.665289 206.744628 
" style="fill:none;stroke:#8c8c8c;stroke-linecap:square;"/>
   </g>
   <g id="line2d_88">
    <path clip-path="url(#p6fede4b742)" d="M 262.152893 190.271901 
L 262.152893 189.52314 
L 262.152893 190.271901 
L 262.152893 190.271901 
L 262.152893 190.271901 
L 262.152893 190.271901 
L 262.152893 190.271901 
" style="fill:none;stroke:#8c8c8c;stroke-linecap:square;"/>
   </g>
   <g id="line2d_89">
    <path clip-path="url(#p6fede4b742)" d="M 264.399174 197.759504 
L 264.399174 197.759504 
L 265.147934 199.257025 
L 265.147934 200.754545 
L 265.147934 201.503306 
L 265.147934 202.252066 
L 265.147934 202.252066 
L 265.147934 202.252066 
" style="fill:none;stroke:#8c8c8c;stroke-linecap:square;"/>
   </g>
   <g id="line2d_90">
    <path clip-path="url(#p6fede4b742)" d="M 282.369421 196.261983 
L 282.369421 196.261983 
L 282.369421 196.261983 
L 282.369421 196.261983 
L 282.369421 197.010744 
L 282.369421 197.010744 
L 282.369421 197.759504 
L 283.118182 198.508264 
L 283.118182 198.508264 
L 283.118182 199.257025 
L 283.866942 199.257025 
L 283.118182 199.257025 
L 282.369421 198.508264 
L 280.871901 196.261983 
L 279.37438 194.764463 
L 277.87686 191.769421 
L 277.87686 190.271901 
L 277.87686 188.02562 
L 278.62562 187.27686 
L 281.620661 185.779339 
L 282.369421 185.779339 
" style="fill:none;stroke:#8c8c8c;stroke-linecap:square;"/>
   </g>
   <g id="line2d_91">
    <path clip-path="url(#p6fede4b742)" d="M 288.359504 192.518182 
L 288.359504 192.518182 
L 288.359504 192.518182 
L 288.359504 193.266942 
L 289.857025 193.266942 
L 290.605785 193.266942 
L 292.103306 193.266942 
L 293.600826 191.020661 
L 293.600826 191.020661 
L 293.600826 190.271901 
L 292.852066 189.52314 
L 292.103306 189.52314 
L 289.108264 191.769421 
L 288.359504 194.015702 
L 288.359504 196.261983 
L 289.857025 199.257025 
L 294.349587 201.503306 
L 295.847107 201.503306 
L 299.590909 200.754545 
L 300.339669 200.005785 
L 301.08843 199.257025 
" style="fill:none;stroke:#8c8c8c;stroke-linecap:square;"/>
   </g>
   <g id="line2d_92">
    <path clip-path="url(#p6fede4b742)" d="M 302.58595 193.266942 
L 302.58595 193.266942 
L 302.58595 192.518182 
L 302.58595 192.518182 
L 302.58595 192.518182 
L 303.334711 193.266942 
L 303.334711 193.266942 
L 304.083471 194.015702 
L 304.832231 195.513223 
L 305.580992 196.261983 
L 305.580992 197.010744 
L 306.329752 197.759504 
L 306.329752 197.010744 
L 304.832231 195.513223 
L 304.083471 193.266942 
L 302.58595 189.52314 
L 301.83719 186.528099 
L 301.08843 182.784298 
L 301.83719 179.789256 
L 302.58595 178.291736 
L 303.334711 178.291736 
L 304.083471 177.542975 
L 305.580992 177.542975 
L 305.580992 177.542975 
" style="fill:none;stroke:#8c8c8c;stroke-linecap:square;"/>
   </g>
   <g id="line2d_93">
    <path clip-path="url(#p6fede4b742)" d="M 298.842149 191.020661 
L 298.093388 192.518182 
L 298.093388 193.266942 
L 298.093388 193.266942 
L 301.08843 192.518182 
L 302.58595 191.769421 
L 305.580992 191.020661 
L 308.576033 189.52314 
L 309.324793 189.52314 
L 309.324793 189.52314 
" style="fill:none;stroke:#8c8c8c;stroke-linecap:square;"/>
   </g>
   <g id="line2d_94">
    <path clip-path="url(#p6fede4b742)" d="M 313.068595 192.518182 
L 313.068595 192.518182 
L 312.319835 192.518182 
L 311.571074 192.518182 
L 311.571074 191.769421 
L 310.822314 191.769421 
L 310.822314 191.769421 
L 310.822314 191.769421 
L 310.822314 191.769421 
L 310.822314 191.769421 
L 310.822314 191.769421 
L 312.319835 193.266942 
L 313.817355 194.015702 
L 314.566116 194.764463 
L 314.566116 194.764463 
L 314.566116 194.764463 
L 314.566116 194.015702 
L 314.566116 192.518182 
L 314.566116 191.020661 
L 315.314876 188.77438 
L 316.812397 188.02562 
L 318.309917 186.528099 
L 318.309917 186.528099 
" style="fill:none;stroke:#8c8c8c;stroke-linecap:square;"/>
   </g>
   <g id="line2d_95">
    <path clip-path="url(#p6fede4b742)" d="M 324.3 185.779339 
L 324.3 185.779339 
L 325.04876 185.779339 
L 325.04876 185.779339 
L 325.04876 186.528099 
L 324.3 186.528099 
L 324.3 186.528099 
L 322.802479 188.02562 
L 322.053719 189.52314 
L 322.053719 191.020661 
L 322.802479 191.769421 
L 324.3 192.518182 
L 325.797521 192.518182 
L 327.295041 191.020661 
L 328.043802 189.52314 
L 328.792562 188.77438 
L 328.792562 186.528099 
L 328.792562 185.779339 
L 328.792562 185.779339 
L 328.792562 185.779339 
L 329.541322 186.528099 
L 330.290083 187.27686 
L 331.038843 189.52314 
L 332.536364 191.769421 
L 332.536364 192.518182 
L 333.285124 193.266942 
L 333.285124 193.266942 
" style="fill:none;stroke:#8c8c8c;stroke-linecap:square;"/>
   </g>
   <g id="line2d_96">
    <path clip-path="url(#p6fede4b742)" d="M 340.023967 187.27686 
L 340.023967 186.528099 
L 340.023967 185.779339 
L 339.275207 185.030579 
L 339.275207 185.030579 
L 338.526446 184.281818 
L 337.777686 184.281818 
L 336.280165 185.779339 
L 335.531405 187.27686 
L 335.531405 189.52314 
L 337.777686 191.769421 
L 338.526446 191.769421 
L 340.023967 191.769421 
L 342.270248 188.77438 
L 343.019008 188.02562 
L 343.767769 186.528099 
L 343.767769 184.281818 
L 343.767769 182.784298 
L 344.516529 182.035537 
L 344.516529 181.286777 
L 344.516529 181.286777 
L 345.265289 182.035537 
L 346.01405 184.281818 
L 347.51157 187.27686 
L 349.009091 189.52314 
L 349.757851 191.769421 
L 349.757851 191.769421 
" style="fill:none;stroke:#8c8c8c;stroke-linecap:square;"/>
   </g>
   <g id="line2d_97">
    <path clip-path="url(#p6fede4b742)" d="M 346.01405 186.528099 
L 345.265289 186.528099 
L 345.265289 185.779339 
L 345.265289 185.779339 
L 346.01405 185.030579 
L 347.51157 184.281818 
L 349.009091 184.281818 
L 351.255372 183.533058 
L 352.752893 182.784298 
L 353.501653 182.784298 
" style="fill:none;stroke:#8c8c8c;stroke-linecap:square;"/>
   </g>
   <g id="line2d_98">
    <path clip-path="url(#p6fede4b742)" d="M 360.240496 181.286777 
L 360.240496 181.286777 
L 360.240496 181.286777 
L 360.240496 181.286777 
L 359.491736 181.286777 
L 358.742975 182.035537 
L 357.994215 182.035537 
L 357.994215 182.784298 
L 357.994215 185.030579 
L 359.491736 186.528099 
L 361.738017 186.528099 
L 363.235537 186.528099 
L 363.984298 185.779339 
L 363.984298 185.030579 
L 363.984298 183.533058 
L 363.235537 182.035537 
L 362.486777 181.286777 
L 360.240496 181.286777 
L 360.240496 181.286777 
L 360.240496 182.035537 
" style="fill:none;stroke:#8c8c8c;stroke-linecap:square;"/>
   </g>
   <g id="line2d_99">
    <path clip-path="url(#p6fede4b742)" d="M 366.230579 179.789256 
L 366.230579 179.040496 
L 366.979339 179.789256 
L 367.728099 179.789256 
L 368.47686 179.789256 
L 369.22562 180.538017 
L 369.22562 181.286777 
L 369.97438 181.286777 
L 370.72314 182.035537 
L 370.72314 182.784298 
L 370.72314 182.784298 
L 370.72314 182.784298 
L 371.471901 182.784298 
L 371.471901 182.035537 
L 371.471901 182.035537 
L 372.969421 178.291736 
L 374.466942 176.045455 
L 374.466942 176.045455 
L 375.215702 176.045455 
" style="fill:none;stroke:#8c8c8c;stroke-linecap:square;"/>
   </g>
   <g id="line2d_100">
    <path clip-path="url(#p6fede4b742)" d="M 378.959504 175.296694 
L 378.959504 175.296694 
L 378.959504 176.045455 
L 378.959504 176.045455 
L 379.708264 177.542975 
L 381.205785 178.291736 
L 382.703306 179.040496 
L 384.200826 179.040496 
L 385.698347 178.291736 
L 386.447107 178.291736 
L 387.195868 177.542975 
L 387.944628 175.296694 
L 388.693388 173.050413 
L 388.693388 173.050413 
L 388.693388 173.050413 
L 388.693388 172.301653 
L 388.693388 172.301653 
L 389.442149 175.296694 
L 390.190909 178.291736 
L 390.190909 179.040496 
L 391.68843 184.281818 
L 391.68843 185.030579 
L 391.68843 185.779339 
L 392.43719 185.779339 
L 392.43719 185.779339 
" style="fill:none;stroke:#8c8c8c;stroke-linecap:square;"/>
   </g>
   <g id="line2d_101">
    <path clip-path="url(#p6fede4b742)" d="M 76.460331 261.404132 
L 76.460331 261.404132 
L 76.460331 261.404132 
L 76.460331 261.404132 
L 76.460331 260.655372 
L 76.460331 260.655372 
L 76.460331 259.906612 
L 76.460331 259.906612 
L 76.460331 259.906612 
L 76.460331 259.906612 
L 76.460331 259.157851 
L 76.460331 259.157851 
L 76.460331 259.906612 
L 76.460331 259.906612 
L 77.209091 259.906612 
L 77.957851 259.906612 
L 77.957851 259.906612 
L 78.706612 259.157851 
L 80.952893 259.157851 
L 83.199174 258.409091 
L 84.696694 258.409091 
" style="fill:none;stroke:#8c8c8c;stroke-linecap:square;"/>
   </g>
   <g id="line2d_102">
    <path clip-path="url(#p6fede4b742)" d="M 110.154545 258.409091 
L 110.154545 258.409091 
L 110.154545 258.409091 
L 110.154545 258.409091 
L 110.154545 258.409091 
L 110.154545 257.660331 
L 109.405785 257.660331 
L 109.405785 257.660331 
L 109.405785 257.660331 
L 109.405785 257.660331 
L 110.154545 259.157851 
L 110.903306 260.655372 
L 112.400826 263.650413 
L 112.400826 265.147934 
L 113.149587 265.896694 
L 113.149587 266.645455 
L 113.149587 266.645455 
L 113.149587 266.645455 
L 113.149587 265.896694 
L 112.400826 263.650413 
L 112.400826 262.152893 
L 112.400826 258.409091 
L 112.400826 256.16281 
L 112.400826 255.41405 
L 113.149587 254.665289 
L 113.149587 254.665289 
L 114.647107 256.16281 
L 116.144628 257.660331 
L 117.642149 259.906612 
L 118.390909 262.152893 
L 119.139669 262.901653 
L 119.88843 263.650413 
L 119.88843 263.650413 
L 120.63719 262.152893 
L 121.38595 258.409091 
L 121.38595 257.660331 
L 122.883471 254.665289 
L 122.883471 253.167769 
L 123.632231 253.167769 
L 124.380992 253.167769 
L 125.129752 253.916529 
L 126.627273 257.660331 
L 127.376033 259.906612 
L 128.124793 261.404132 
L 128.873554 262.901653 
" style="fill:none;stroke:#8c8c8c;stroke-linecap:square;"/>
   </g>
   <g id="line2d_103">
    <path clip-path="url(#p6fede4b742)" d="M 131.119835 261.404132 
L 131.119835 261.404132 
L 131.119835 261.404132 
L 131.868595 260.655372 
L 133.366116 259.906612 
L 134.114876 259.906612 
L 137.109917 256.91157 
L 137.858678 255.41405 
L 137.858678 255.41405 
L 138.607438 253.916529 
L 137.858678 253.167769 
L 137.109917 252.419008 
L 136.361157 252.419008 
L 134.863636 252.419008 
L 133.366116 253.167769 
L 131.868595 255.41405 
L 131.868595 256.16281 
L 131.868595 259.157851 
L 134.114876 262.901653 
L 136.361157 263.650413 
L 138.607438 264.399174 
L 140.104959 264.399174 
L 140.853719 263.650413 
L 142.35124 262.152893 
L 143.1 262.152893 
L 143.1 261.404132 
" style="fill:none;stroke:#8c8c8c;stroke-linecap:square;"/>
   </g>
   <g id="line2d_104">
    <path clip-path="url(#p6fede4b742)" d="M 145.346281 247.926446 
L 145.346281 246.428926 
L 145.346281 245.680165 
L 145.346281 245.680165 
L 145.346281 245.680165 
L 145.346281 246.428926 
L 146.095041 248.675207 
L 146.843802 252.419008 
L 147.592562 255.41405 
L 148.341322 258.409091 
L 149.090083 261.404132 
L 149.090083 262.152893 
" style="fill:none;stroke:#8c8c8c;stroke-linecap:square;"/>
   </g>
   <g id="line2d_105">
    <path clip-path="url(#p6fede4b742)" d="M 145.346281 253.167769 
L 145.346281 253.167769 
L 144.597521 253.916529 
L 145.346281 253.916529 
L 146.843802 253.916529 
L 148.341322 254.665289 
L 151.336364 253.916529 
L 152.833884 253.916529 
L 153.582645 253.916529 
L 153.582645 253.916529 
" style="fill:none;stroke:#8c8c8c;stroke-linecap:square;"/>
   </g>
   <g id="line2d_106">
    <path clip-path="url(#p6fede4b742)" d="M 161.819008 251.670248 
L 161.070248 251.670248 
L 161.070248 250.921488 
L 161.070248 250.921488 
L 160.321488 250.921488 
L 159.572727 251.670248 
L 158.075207 252.419008 
L 156.577686 254.665289 
L 155.828926 257.660331 
L 155.828926 259.906612 
L 157.326446 259.906612 
L 158.075207 259.906612 
L 161.070248 259.157851 
L 161.819008 256.91157 
L 163.316529 253.916529 
L 163.316529 253.167769 
L 163.316529 252.419008 
L 163.316529 251.670248 
L 163.316529 252.419008 
L 163.316529 253.167769 
L 164.065289 255.41405 
L 164.065289 257.660331 
L 164.81405 259.157851 
L 165.56281 260.655372 
L 166.31157 261.404132 
L 166.31157 261.404132 
" style="fill:none;stroke:#8c8c8c;stroke-linecap:square;"/>
   </g>
   <g id="line2d_107">
    <path clip-path="url(#p6fede4b742)" d="M 174.547934 240.438843 
L 174.547934 240.438843 
L 174.547934 241.187603 
L 174.547934 241.187603 
L 174.547934 242.685124 
L 174.547934 244.182645 
L 175.296694 247.177686 
L 175.296694 249.423967 
L 175.296694 252.419008 
L 176.045455 254.665289 
L 176.794215 259.157851 
L 176.794215 260.655372 
L 176.794215 262.152893 
L 177.542975 262.152893 
" style="fill:none;stroke:#8c8c8c;stroke-linecap:square;"/>
   </g>
   <g id="line2d_108">
    <path clip-path="url(#p6fede4b742)" d="M 192.518182 245.680165 
L 191.769421 245.680165 
L 191.020661 245.680165 
L 191.020661 245.680165 
L 191.020661 245.680165 
L 191.020661 246.428926 
L 191.020661 246.428926 
" style="fill:none;stroke:#8c8c8c;stroke-linecap:square;"/>
   </g>
   <g id="line2d_109">
    <path clip-path="url(#p6fede4b742)" d="M 194.015702 253.916529 
L 194.015702 254.665289 
L 193.266942 255.41405 
L 193.266942 256.16281 
L 193.266942 256.91157 
L 193.266942 256.91157 
" style="fill:none;stroke:#8c8c8c;stroke-linecap:square;"/>
   </g>
   <g id="line2d_110">
    <path clip-path="url(#p6fede4b742)" d="M 220.222314 246.428926 
L 220.222314 246.428926 
L 220.222314 245.680165 
L 220.222314 245.680165 
L 219.473554 245.680165 
L 219.473554 245.680165 
L 217.976033 247.177686 
L 217.227273 247.926446 
L 215.729752 249.423967 
L 214.980992 249.423967 
L 214.232231 250.172727 
L 214.980992 250.921488 
L 214.980992 250.921488 
L 217.227273 251.670248 
L 218.724793 252.419008 
L 221.719835 253.916529 
L 224.714876 256.16281 
L 226.212397 259.157851 
L 226.212397 260.655372 
L 225.463636 262.152893 
L 224.714876 262.901653 
L 220.971074 262.901653 
L 219.473554 262.152893 
L 218.724793 260.655372 
L 217.976033 259.906612 
L 217.976033 259.906612 
L 217.976033 259.906612 
" style="fill:none;stroke:#8c8c8c;stroke-linecap:square;"/>
   </g>
   <g id="line2d_111">
    <path clip-path="url(#p6fede4b742)" d="M 235.946281 250.172727 
L 235.946281 250.172727 
L 235.946281 250.172727 
L 235.946281 251.670248 
L 236.695041 253.916529 
L 236.695041 254.665289 
L 237.443802 256.91157 
L 237.443802 257.660331 
L 237.443802 257.660331 
" style="fill:none;stroke:#8c8c8c;stroke-linecap:square;"/>
   </g>
   <g id="line2d_112">
    <path clip-path="url(#p6fede4b742)" d="M 238.192562 244.182645 
L 238.192562 242.685124 
L 237.443802 241.936364 
L 237.443802 241.187603 
L 237.443802 241.187603 
L 237.443802 241.187603 
" style="fill:none;stroke:#8c8c8c;stroke-linecap:square;"/>
   </g>
   <g id="line2d_113">
    <path clip-path="url(#p6fede4b742)" d="M 241.936364 238.941322 
L 242.685124 238.941322 
L 242.685124 239.690083 
L 242.685124 239.690083 
L 242.685124 240.438843 
L 243.433884 241.936364 
L 243.433884 243.433884 
L 244.182645 247.926446 
L 244.931405 250.921488 
L 244.931405 252.419008 
L 245.680165 255.41405 
L 246.428926 256.16281 
L 246.428926 256.16281 
L 246.428926 256.16281 
" style="fill:none;stroke:#8c8c8c;stroke-linecap:square;"/>
   </g>
   <g id="line2d_114">
    <path clip-path="url(#p6fede4b742)" d="M 255.41405 247.926446 
L 255.41405 247.926446 
L 255.41405 248.675207 
L 256.16281 250.172727 
L 256.16281 251.670248 
L 256.91157 252.419008 
L 256.91157 253.167769 
L 257.660331 253.916529 
L 257.660331 253.916529 
" style="fill:none;stroke:#8c8c8c;stroke-linecap:square;"/>
   </g>
   <g id="line2d_115">
    <path clip-path="url(#p6fede4b742)" d="M 256.91157 243.433884 
L 256.16281 241.936364 
L 255.41405 238.941322 
L 254.665289 238.192562 
L 254.665289 237.443802 
L 254.665289 237.443802 
" style="fill:none;stroke:#8c8c8c;stroke-linecap:square;"/>
   </g>
   <g id="line2d_116">
    <path clip-path="url(#p6fede4b742)" d="M 271.886777 242.685124 
L 271.138017 242.685124 
L 270.389256 242.685124 
L 269.640496 243.433884 
L 268.891736 244.182645 
L 265.896694 246.428926 
L 264.399174 248.675207 
L 264.399174 252.419008 
L 265.896694 253.167769 
L 267.394215 253.916529 
L 270.389256 253.167769 
L 271.138017 252.419008 
" style="fill:none;stroke:#8c8c8c;stroke-linecap:square;"/>
   </g>
   <g id="line2d_117">
    <path clip-path="url(#p6fede4b742)" d="M 279.37438 244.931405 
L 279.37438 244.182645 
L 280.12314 244.182645 
L 280.12314 244.182645 
L 280.12314 245.680165 
L 280.12314 246.428926 
L 280.871901 247.177686 
L 280.871901 247.926446 
L 280.871901 248.675207 
L 281.620661 249.423967 
L 281.620661 249.423967 
L 281.620661 249.423967 
L 281.620661 248.675207 
L 280.871901 246.428926 
L 280.12314 245.680165 
L 278.62562 244.931405 
L 277.128099 244.931405 
L 275.630579 245.680165 
L 274.133058 247.177686 
L 274.133058 247.926446 
L 274.133058 250.172727 
L 275.630579 250.921488 
L 277.87686 250.921488 
L 280.12314 249.423967 
" style="fill:none;stroke:#8c8c8c;stroke-linecap:square;"/>
   </g>
   <g id="line2d_118">
    <path clip-path="url(#p6fede4b742)" d="M 290.605785 238.941322 
L 291.354545 238.192562 
L 291.354545 238.192562 
L 291.354545 238.192562 
L 291.354545 238.192562 
L 291.354545 238.941322 
L 291.354545 241.936364 
L 292.103306 244.182645 
L 292.852066 246.428926 
L 293.600826 248.675207 
L 293.600826 249.423967 
" style="fill:none;stroke:#8c8c8c;stroke-linecap:square;"/>
   </g>
   <g id="line2d_119">
    <path clip-path="url(#p6fede4b742)" d="M 289.108264 243.433884 
L 289.108264 243.433884 
L 289.108264 244.182645 
L 289.108264 244.182645 
L 289.108264 244.931405 
L 291.354545 244.931405 
L 293.600826 244.931405 
L 295.098347 244.182645 
L 295.847107 244.182645 
" style="fill:none;stroke:#8c8c8c;stroke-linecap:square;"/>
   </g>
   <g id="line2d_120">
    <path clip-path="url(#p6fede4b742)" d="M 302.58595 243.433884 
L 302.58595 243.433884 
L 303.334711 243.433884 
L 304.083471 243.433884 
L 304.832231 243.433884 
L 307.078512 241.936364 
L 307.827273 241.187603 
L 308.576033 240.438843 
L 308.576033 240.438843 
L 308.576033 239.690083 
L 307.827273 239.690083 
L 305.580992 240.438843 
L 304.083471 241.187603 
L 302.58595 242.685124 
L 302.58595 246.428926 
L 303.334711 248.675207 
L 307.078512 250.921488 
L 310.073554 251.670248 
L 310.822314 251.670248 
L 314.566116 250.921488 
L 315.314876 250.921488 
" style="fill:none;stroke:#8c8c8c;stroke-linecap:square;"/>
   </g>
  </g>
 </g>
 <defs>
  <clipPath id="p6fede4b742">
   <rect height="271.8" width="403.581818" x="7.2" y="7.2"/>
  </clipPath>
 </defs>
</svg>
