<?xml version="1.0" encoding="utf-8" standalone="no"?>
<!DOCTYPE svg PUBLIC "-//W3C//DTD SVG 1.1//EN"
  "http://www.w3.org/Graphics/SVG/1.1/DTD/svg11.dtd">
<!-- Created with matplotlib (https://matplotlib.org/) -->
<svg height="121.194461pt" version="1.1" viewBox="0 0 535.427523 121.194461" width="535.427523pt" xmlns="http://www.w3.org/2000/svg" xmlns:xlink="http://www.w3.org/1999/xlink">
 <metadata>
  <rdf:RDF xmlns:cc="http://creativecommons.org/ns#" xmlns:dc="http://purl.org/dc/elements/1.1/" xmlns:rdf="http://www.w3.org/1999/02/22-rdf-syntax-ns#">
   <cc:Work>
    <dc:type rdf:resource="http://purl.org/dc/dcmitype/StillImage"/>
    <dc:date>2024-11-15T16:03:42.122792</dc:date>
    <dc:format>image/svg+xml</dc:format>
    <dc:creator>
     <cc:Agent>
      <dc:title>Matplotlib v3.3.4, https://matplotlib.org/</dc:title>
     </cc:Agent>
    </dc:creator>
   </cc:Work>
  </rdf:RDF>
 </metadata>
 <defs>
  <style type="text/css">*{stroke-linecap:butt;stroke-linejoin:round;}</style>
 </defs>
 <g id="figure_1">
  <g id="patch_1">
   <path d="M 0 121.194461 
L 535.427523 121.194461 
L 535.427523 0 
L 0 0 
z
" style="fill:#ffffff;"/>
  </g>
  <g id="axes_1">
   <g id="line2d_1">
    <path clip-path="url(#p7f97a84dc8)" d="M 387.600106 31.912768 
L 387.600106 31.912768 
L 387.600106 31.912768 
L 386.864607 31.912768 
L 386.864607 31.912768 
L 386.864607 31.912768 
L 386.864607 31.912768 
L 386.864607 31.912768 
L 387.600106 31.912768 
L 387.600106 31.912768 
L 387.600106 31.912768 
L 388.335605 31.912768 
L 388.335605 31.912768 
L 389.071104 31.912768 
L 389.071104 31.912768 
L 389.806603 31.912768 
L 390.542102 31.912768 
L 391.277601 31.912768 
L 392.0131 31.912768 
L 392.748599 32.648267 
L 394.219597 32.648267 
L 394.219597 32.648267 
L 395.690595 32.648267 
L 395.690595 32.648267 
L 396.426094 32.648267 
L 397.897092 32.648267 
L 398.632591 33.383766 
L 400.103589 33.383766 
L 400.839088 33.383766 
L 401.574588 33.383766 
L 403.781085 33.383766 
L 403.781085 33.383766 
L 403.781085 33.383766 
L 406.723081 34.119265 
L 407.45858 34.119265 
L 409.665077 34.854764 
L 411.871574 34.854764 
L 414.078071 34.854764 
L 418.491066 34.119265 
L 419.226565 34.119265 
L 422.168561 33.383766 
L 424.375058 33.383766 
L 425.846056 33.383766 
L 428.052553 33.383766 
L 430.25905 32.648267 
L 431.730048 32.648267 
L 433.936545 32.648267 
L 436.878542 31.912768 
L 439.085039 31.912768 
L 441.291536 31.177269 
L 442.027035 31.177269 
L 444.969031 30.44177 
L 446.440029 30.44177 
L 449.382025 29.706271 
L 450.853023 29.706271 
L 450.853023 29.706271 
L 451.588523 29.706271 
L 452.324022 29.706271 
L 453.79502 29.706271 
L 455.266018 29.706271 
L 457.472515 29.706271 
L 458.943513 29.706271 
L 461.885509 28.970772 
L 462.621008 28.970772 
L 464.827505 28.970772 
L 467.034002 28.970772 
L 468.505001 28.235273 
L 470.711498 28.235273 
L 472.182496 28.235273 
L 473.653494 28.235273 
L 475.859991 28.235273 
L 477.330989 28.235273 
L 478.801987 28.235273 
L 479.537486 28.235273 
L 481.008484 28.235273 
L 481.743983 28.235273 
L 483.214981 28.235273 
L 484.68598 28.235273 
L 486.156978 28.235273 
L 487.627976 28.235273 
L 489.098974 28.235273 
L 490.569972 28.235273 
L 492.776469 28.970772 
L 494.247467 28.970772 
L 494.247467 28.970772 
L 495.718465 28.970772 
L 496.453964 28.970772 
L 496.453964 28.970772 
" style="fill:none;stroke:#8c8c8c;stroke-linecap:square;"/>
   </g>
   <g id="line2d_2">
    <path clip-path="url(#p7f97a84dc8)" d="M 504.544454 21.615781 
L 503.808955 21.615781 
L 503.808955 21.615781 
L 503.808955 21.615781 
L 503.808955 21.615781 
L 503.808955 21.615781 
L 503.808955 21.615781 
L 503.808955 22.35128 
L 503.808955 23.822278 
L 503.808955 25.293276 
L 503.808955 26.764275 
L 503.073456 31.177269 
L 503.073456 32.648267 
L 502.337957 35.590263 
L 502.337957 39.267758 
L 502.337957 40.003257 
L 502.337957 40.003257 
" style="fill:none;stroke:#8c8c8c;stroke-linecap:square;"/>
   </g>
   <g id="line2d_3">
    <path clip-path="url(#p7f97a84dc8)" d="M 380.245115 20.880282 
L 380.245115 21.615781 
L 379.509616 23.086779 
L 379.509616 26.764275 
L 379.509616 31.177269 
L 379.509616 34.119265 
L 378.774117 38.532259 
L 378.774117 40.738756 
L 378.774117 42.209755 
L 378.774117 43.680753 
L 378.774117 43.680753 
" style="fill:none;stroke:#8c8c8c;stroke-linecap:square;"/>
   </g>
   <g id="line2d_4">
    <path clip-path="url(#p7f97a84dc8)" d="M 419.226565 70.158718 
L 419.226565 70.158718 
L 419.226565 70.158718 
L 419.962064 69.423219 
L 420.697563 68.68772 
L 420.697563 67.952221 
L 421.433062 67.952221 
L 421.433062 67.216722 
L 420.697563 66.481223 
L 420.697563 66.481223 
L 418.491066 66.481223 
L 415.549069 67.952221 
L 412.607073 70.158718 
L 411.136075 72.365215 
L 409.665077 76.042711 
L 409.665077 79.720206 
L 411.871574 84.1332 
L 414.81357 86.339697 
L 417.755566 87.810695 
L 422.168561 88.546194 
L 423.639559 88.546194 
L 425.846056 87.810695 
L 428.052553 86.339697 
L 428.788052 85.604198 
L 428.788052 84.868699 
" style="fill:none;stroke:#8c8c8c;stroke-linecap:square;"/>
   </g>
   <g id="line2d_5">
    <path clip-path="url(#p7f97a84dc8)" d="M 432.465547 74.571712 
L 432.465547 74.571712 
L 432.465547 74.571712 
L 431.730048 74.571712 
L 431.730048 74.571712 
L 431.730048 76.042711 
L 430.994549 78.249208 
L 430.994549 81.191204 
L 430.994549 85.604198 
L 430.994549 87.075196 
L 430.994549 88.546194 
L 431.730048 87.810695 
L 431.730048 86.339697 
L 432.465547 81.926703 
L 432.465547 78.249208 
L 432.465547 76.77821 
L 433.201046 73.836213 
L 433.201046 71.629716 
L 433.201046 70.894217 
L 433.936545 70.894217 
L 434.672045 73.100714 
L 435.407544 74.571712 
L 436.143043 79.720206 
L 436.878542 81.191204 
L 437.614041 84.1332 
L 439.085039 87.075196 
L 439.820538 87.810695 
L 439.820538 88.546194 
L 439.820538 88.546194 
L 439.820538 88.546194 
" style="fill:none;stroke:#8c8c8c;stroke-linecap:square;"/>
   </g>
   <g id="line2d_6">
    <path clip-path="url(#p7f97a84dc8)" d="M 432.465547 78.984707 
L 432.465547 78.984707 
L 432.465547 79.720206 
L 432.465547 79.720206 
L 434.672045 79.720206 
L 436.143043 79.720206 
L 439.085039 79.720206 
L 441.291536 79.720206 
L 442.762534 79.720206 
L 444.233532 79.720206 
" style="fill:none;stroke:#8c8c8c;stroke-linecap:square;"/>
   </g>
   <g id="line2d_7">
    <path clip-path="url(#p7f97a84dc8)" d="M 452.324022 73.100714 
L 452.324022 72.365215 
L 452.324022 72.365215 
L 452.324022 72.365215 
L 452.324022 72.365215 
L 452.324022 73.836213 
L 452.324022 74.571712 
L 453.059521 78.984707 
L 453.059521 85.604198 
L 453.79502 90.752691 
L 454.530519 92.959189 
L 455.266018 93.694688 
L 455.266018 93.694688 
L 455.266018 92.959189 
" style="fill:none;stroke:#8c8c8c;stroke-linecap:square;"/>
   </g>
   <g id="line2d_8">
    <path clip-path="url(#p7f97a84dc8)" d="M 470.711498 79.720206 
L 470.711498 79.720206 
L 470.711498 79.720206 
L 469.975999 79.720206 
L 469.975999 79.720206 
L 469.2405 80.455705 
L 468.505001 80.455705 
L 468.505001 80.455705 
L 467.769501 81.191204 
L 467.769501 81.191204 
L 467.034002 81.191204 
L 467.034002 81.926703 
L 467.034002 82.662202 
L 466.298503 83.397701 
L 466.298503 84.1332 
L 466.298503 84.1332 
L 466.298503 84.868699 
L 467.034002 85.604198 
L 467.034002 85.604198 
L 467.769501 86.339697 
L 469.975999 87.810695 
L 470.711498 88.546194 
L 472.182496 90.017192 
L 473.653494 90.752691 
L 473.653494 91.48819 
L 474.388993 92.959189 
L 474.388993 93.694688 
L 473.653494 94.430187 
L 472.917995 95.165686 
L 471.446997 95.901185 
L 469.2405 96.636684 
L 468.505001 96.636684 
" style="fill:none;stroke:#8c8c8c;stroke-linecap:square;"/>
   </g>
   <g id="line2d_9">
    <path clip-path="url(#p7f97a84dc8)" d="M 232.409807 12.054294 
L 232.409807 12.054294 
L 232.409807 12.054294 
L 232.409807 12.054294 
L 232.409807 12.054294 
L 232.409807 12.054294 
L 232.409807 12.054294 
L 232.409807 12.054294 
L 233.145306 12.054294 
L 233.145306 12.789793 
L 233.145306 12.789793 
L 233.145306 13.525292 
L 233.145306 14.260791 
L 233.145306 14.260791 
L 233.880805 14.99629 
L 233.880805 15.731789 
L 233.880805 16.467288 
L 233.880805 17.202787 
L 233.880805 17.938286 
L 233.880805 18.673785 
L 233.880805 19.409284 
L 234.616304 20.880282 
L 234.616304 21.615781 
L 234.616304 22.35128 
L 234.616304 23.086779 
L 233.880805 23.822278 
L 233.880805 25.293276 
L 233.880805 26.028776 
L 233.880805 26.764275 
L 233.880805 28.235273 
L 233.880805 29.706271 
L 233.880805 30.44177 
L 233.880805 31.912768 
L 233.880805 31.912768 
L 233.880805 31.912768 
L 233.880805 31.912768 
" style="fill:none;stroke:#8c8c8c;stroke-linecap:square;"/>
   </g>
   <g id="line2d_10">
    <path clip-path="url(#p7f97a84dc8)" d="M 236.087303 34.119265 
L 235.351804 34.854764 
L 235.351804 35.590263 
L 235.351804 36.325762 
L 235.351804 36.325762 
L 234.616304 37.79676 
L 234.616304 38.532259 
L 234.616304 40.003257 
L 234.616304 40.003257 
L 234.616304 40.738756 
L 235.351804 41.474255 
L 235.351804 44.416252 
L 235.351804 45.88725 
L 235.351804 46.622749 
L 235.351804 48.829246 
L 235.351804 50.300244 
L 235.351804 50.300244 
" style="fill:none;stroke:#8c8c8c;stroke-linecap:square;"/>
   </g>
   <g id="line2d_11">
    <path clip-path="url(#p7f97a84dc8)" d="M 276.53975 54.713238 
L 276.53975 54.713238 
L 276.53975 54.713238 
L 276.53975 54.713238 
L 276.53975 54.713238 
L 276.53975 54.713238 
L 276.53975 54.713238 
L 276.53975 55.448737 
L 276.53975 56.919735 
L 275.804251 57.655234 
L 275.804251 59.126233 
L 275.804251 63.539227 
L 275.804251 66.481223 
L 275.804251 67.216722 
L 275.804251 67.952221 
L 275.804251 67.952221 
L 275.804251 65.745724 
L 275.804251 62.068229 
L 276.53975 56.919735 
L 277.275249 52.506741 
L 278.010748 51.771242 
L 278.010748 51.035743 
L 278.010748 49.564745 
L 278.010748 49.564745 
L 278.746247 49.564745 
L 279.481746 51.035743 
L 280.952744 53.977739 
L 281.688243 57.655234 
L 283.159241 62.803728 
L 284.630239 66.481223 
L 285.365739 68.68772 
L 286.836737 73.100714 
L 286.836737 73.100714 
L 286.836737 73.836213 
L 286.836737 73.836213 
" style="fill:none;stroke:#8c8c8c;stroke-linecap:square;"/>
   </g>
   <g id="line2d_12">
    <path clip-path="url(#p7f97a84dc8)" d="M 280.217245 67.216722 
L 280.217245 67.216722 
L 280.217245 67.216722 
L 282.423742 66.481223 
L 284.630239 65.745724 
L 286.836737 65.010225 
L 289.043234 64.274726 
L 289.778733 64.274726 
" style="fill:none;stroke:#8c8c8c;stroke-linecap:square;"/>
   </g>
   <g id="line2d_13">
    <path clip-path="url(#p7f97a84dc8)" d="M 297.133723 54.713238 
L 297.133723 53.977739 
L 297.133723 53.977739 
L 296.398224 53.24224 
L 296.398224 53.24224 
L 296.398224 52.506741 
L 295.662725 52.506741 
L 294.927226 53.977739 
L 294.191727 54.713238 
L 294.191727 55.448737 
L 294.191727 62.803728 
L 294.191727 64.274726 
L 295.662725 66.481223 
L 297.133723 68.68772 
L 299.34022 69.423219 
L 300.811218 68.68772 
L 303.017716 67.216722 
L 303.753215 64.274726 
L 304.488714 61.33273 
L 304.488714 57.655234 
L 304.488714 56.184236 
L 303.753215 53.977739 
L 301.546718 52.506741 
L 300.075719 52.506741 
L 297.869222 52.506741 
L 296.398224 53.977739 
" style="fill:none;stroke:#8c8c8c;stroke-linecap:square;"/>
   </g>
   <g id="line2d_14">
    <path clip-path="url(#p7f97a84dc8)" d="M 316.992197 58.390733 
L 316.256698 58.390733 
L 315.521199 58.390733 
L 314.7857 59.126233 
L 314.7857 59.861732 
L 314.050201 62.068229 
L 314.050201 64.274726 
L 314.050201 66.481223 
L 313.314702 67.952221 
L 313.314702 68.68772 
L 314.050201 67.952221 
L 314.050201 67.216722 
L 314.050201 64.274726 
L 314.050201 60.597231 
L 314.050201 53.977739 
L 314.7857 52.506741 
L 315.521199 49.564745 
L 315.521199 48.829246 
L 316.256698 48.093747 
L 316.256698 48.093747 
L 316.992197 48.829246 
L 319.934194 54.713238 
L 320.669693 56.919735 
L 321.405192 59.861732 
L 322.87619 65.745724 
L 323.611689 67.216722 
L 324.347188 68.68772 
L 324.347188 68.68772 
L 324.347188 68.68772 
" style="fill:none;stroke:#8c8c8c;stroke-linecap:square;"/>
   </g>
   <g id="line2d_15">
    <path clip-path="url(#p7f97a84dc8)" d="M 316.256698 63.539227 
L 315.521199 63.539227 
L 314.7857 63.539227 
L 315.521199 63.539227 
L 316.256698 63.539227 
L 318.463196 62.803728 
L 320.669693 61.33273 
L 322.87619 60.597231 
L 325.082687 59.861732 
L 327.289184 58.390733 
" style="fill:none;stroke:#8c8c8c;stroke-linecap:square;"/>
   </g>
   <g id="line2d_16">
    <path clip-path="url(#p7f97a84dc8)" d="M 275.804251 63.539227 
L 275.804251 63.539227 
L 275.804251 63.539227 
L 275.804251 63.539227 
L 276.53975 63.539227 
L 276.53975 63.539227 
L 276.53975 63.539227 
L 276.53975 65.010225 
L 276.53975 67.952221 
L 275.804251 70.158718 
L 275.804251 71.629716 
L 275.804251 72.365215 
L 275.804251 73.100714 
L 275.804251 73.100714 
L 275.804251 73.100714 
L 275.804251 73.836213 
" style="fill:none;stroke:#8c8c8c;stroke-linecap:square;"/>
   </g>
   <g id="line2d_17">
    <path clip-path="url(#p7f97a84dc8)" d="M 334.644174 56.184236 
L 334.644174 56.184236 
L 335.379674 56.184236 
L 335.379674 56.184236 
L 335.379674 56.184236 
L 335.379674 56.184236 
L 334.644174 56.919735 
L 334.644174 56.919735 
L 333.908675 56.919735 
L 333.173176 58.390733 
L 331.702178 59.861732 
L 330.966679 60.597231 
L 330.966679 61.33273 
L 330.966679 62.068229 
L 330.966679 62.068229 
L 331.702178 62.803728 
L 332.437677 62.803728 
L 334.644174 63.539227 
L 336.115173 65.010225 
L 336.850672 65.745724 
L 336.850672 66.481223 
L 336.850672 67.952221 
L 336.115173 68.68772 
L 335.379674 68.68772 
L 335.379674 69.423219 
" style="fill:none;stroke:#8c8c8c;stroke-linecap:square;"/>
   </g>
   <g id="line2d_18">
    <path clip-path="url(#p7f97a84dc8)" d="M 277.275249 95.165686 
L 277.275249 95.165686 
L 277.275249 95.165686 
L 278.010748 95.165686 
L 278.010748 96.636684 
L 278.010748 97.372183 
L 278.010748 97.372183 
L 278.010748 98.107682 
L 278.010748 98.843181 
L 278.010748 98.843181 
" style="fill:none;stroke:#8c8c8c;stroke-linecap:square;"/>
   </g>
   <g id="line2d_19">
    <path clip-path="url(#p7f97a84dc8)" d="M 285.365739 94.430187 
L 285.365739 94.430187 
L 285.365739 94.430187 
L 286.101238 94.430187 
L 286.101238 95.165686 
L 286.101238 95.901185 
L 286.101238 95.901185 
L 286.101238 97.372183 
" style="fill:none;stroke:#8c8c8c;stroke-linecap:square;"/>
   </g>
   <g id="line2d_20">
    <path clip-path="url(#p7f97a84dc8)" d="M 292.720729 104.727173 
L 293.456228 104.727173 
L 293.456228 103.991674 
L 294.191727 103.991674 
L 294.191727 103.256175 
L 294.191727 103.256175 
L 294.191727 103.256175 
L 294.191727 103.256175 
L 294.191727 104.727173 
L 295.662725 107.669169 
L 296.398224 108.404668 
L 298.604721 109.140168 
L 299.34022 108.404668 
L 300.075719 106.93367 
L 300.075719 105.462672 
L 299.34022 103.991674 
L 298.604721 103.256175 
L 298.604721 102.520676 
L 297.869222 102.520676 
L 297.869222 103.256175 
L 297.869222 103.256175 
" style="fill:none;stroke:#8c8c8c;stroke-linecap:square;"/>
   </g>
   <g id="line2d_21">
    <path clip-path="url(#p7f97a84dc8)" d="M 303.753215 95.165686 
L 303.753215 95.165686 
L 303.753215 95.165686 
L 304.488714 95.165686 
L 305.224213 96.636684 
L 305.959712 98.107682 
L 305.959712 100.314179 
L 306.695211 102.520676 
L 307.43071 103.991674 
L 307.43071 103.991674 
L 308.166209 104.727173 
L 308.166209 104.727173 
" style="fill:none;stroke:#8c8c8c;stroke-linecap:square;"/>
   </g>
   <g id="line2d_22">
    <path clip-path="url(#p7f97a84dc8)" d="M 311.108205 103.256175 
L 311.843704 102.520676 
L 311.843704 102.520676 
L 312.579203 102.520676 
L 312.579203 103.256175 
L 312.579203 103.256175 
L 313.314702 103.991674 
" style="fill:none;stroke:#8c8c8c;stroke-linecap:square;"/>
   </g>
   <g id="line2d_23">
    <path clip-path="url(#p7f97a84dc8)" d="M 314.050201 96.636684 
L 314.050201 95.165686 
L 314.050201 94.430187 
L 314.050201 94.430187 
L 314.050201 93.694688 
L 314.050201 93.694688 
L 314.050201 93.694688 
" style="fill:none;stroke:#8c8c8c;stroke-linecap:square;"/>
   </g>
   <g id="line2d_24">
    <path clip-path="url(#p7f97a84dc8)" d="M 319.198695 95.165686 
L 319.198695 95.165686 
L 319.198695 95.901185 
L 319.198695 96.636684 
L 319.934194 97.372183 
L 320.669693 99.57868 
L 321.405192 101.049678 
L 322.87619 102.520676 
L 323.611689 103.256175 
L 324.347188 102.520676 
L 324.347188 101.049678 
L 325.082687 99.57868 
L 325.082687 98.107682 
L 325.082687 97.372183 
L 325.818186 96.636684 
" style="fill:none;stroke:#8c8c8c;stroke-linecap:square;"/>
   </g>
   <g id="line2d_25">
    <path clip-path="url(#p7f97a84dc8)" d="M 329.495681 95.165686 
L 330.23118 95.901185 
L 330.23118 97.372183 
L 330.966679 98.843181 
L 330.966679 99.57868 
L 330.966679 100.314179 
L 330.966679 100.314179 
L 330.966679 101.049678 
L 330.966679 101.049678 
" style="fill:none;stroke:#8c8c8c;stroke-linecap:square;"/>
   </g>
   <g id="line2d_26">
    <path clip-path="url(#p7f97a84dc8)" d="M 331.702178 93.694688 
L 331.702178 92.959189 
L 331.702178 92.22369 
L 331.702178 91.48819 
" style="fill:none;stroke:#8c8c8c;stroke-linecap:square;"/>
   </g>
   <g id="line2d_27">
    <path clip-path="url(#p7f97a84dc8)" d="M 335.379674 93.694688 
L 335.379674 95.165686 
L 336.115173 95.901185 
L 336.850672 98.107682 
L 336.850672 99.57868 
L 336.850672 99.57868 
L 337.586171 99.57868 
L 337.586171 100.314179 
L 338.32167 100.314179 
L 339.057169 101.049678 
L 339.057169 101.049678 
L 339.057169 100.314179 
L 339.792668 100.314179 
L 339.792668 99.57868 
L 340.528167 99.57868 
L 340.528167 98.843181 
L 341.263666 98.107682 
L 341.999165 98.107682 
L 342.734664 98.107682 
L 343.470163 98.843181 
L 343.470163 98.843181 
L 343.470163 98.843181 
" style="fill:none;stroke:#8c8c8c;stroke-linecap:square;"/>
   </g>
   <g id="line2d_28">
    <path clip-path="url(#p7f97a84dc8)" d="M 347.147658 98.107682 
L 347.883157 97.372183 
L 347.883157 97.372183 
L 348.618656 96.636684 
L 349.354155 95.901185 
L 350.089654 93.694688 
L 350.089654 92.959189 
L 350.089654 92.22369 
L 350.089654 91.48819 
L 349.354155 91.48819 
L 347.883157 92.22369 
L 346.412159 94.430187 
L 345.67666 96.636684 
L 347.147658 98.843181 
L 348.618656 99.57868 
L 349.354155 99.57868 
L 349.354155 99.57868 
L 350.825153 99.57868 
L 351.560653 99.57868 
L 351.560653 98.843181 
L 352.296152 98.843181 
" style="fill:none;stroke:#8c8c8c;stroke-linecap:square;"/>
   </g>
   <g id="line2d_29">
    <path clip-path="url(#p7f97a84dc8)" d="M 358.180144 81.191204 
L 358.180144 81.191204 
L 357.444645 81.191204 
L 357.444645 81.926703 
L 358.180144 82.662202 
L 358.180144 83.397701 
L 358.180144 84.868699 
L 358.180144 85.604198 
L 358.915643 85.604198 
L 358.915643 84.868699 
L 358.915643 84.868699 
L 360.386641 84.1332 
L 360.386641 83.397701 
L 361.12214 83.397701 
L 362.593138 84.1332 
L 363.328637 85.604198 
" style="fill:none;stroke:#8c8c8c;stroke-linecap:square;"/>
   </g>
   <g id="line2d_30">
    <path clip-path="url(#p7f97a84dc8)" d="M 297.869222 100.314179 
L 297.869222 100.314179 
L 297.869222 100.314179 
L 297.133723 100.314179 
L 297.133723 100.314179 
L 297.133723 100.314179 
L 297.133723 100.314179 
L 296.398224 100.314179 
L 295.662725 101.049678 
L 295.662725 101.049678 
L 294.927226 101.785177 
L 294.191727 101.785177 
L 294.191727 102.520676 
L 293.456228 103.991674 
L 293.456228 103.991674 
L 293.456228 103.991674 
L 293.456228 103.991674 
" style="fill:none;stroke:#8c8c8c;stroke-linecap:square;"/>
   </g>
   <g id="line2d_31">
    <path clip-path="url(#p7f97a84dc8)" d="M 36.031563 67.952221 
L 36.767062 67.952221 
L 36.767062 67.952221 
L 37.502561 67.216722 
L 38.23806 67.216722 
L 38.23806 66.481223 
L 38.23806 66.481223 
L 38.23806 66.481223 
L 37.502561 66.481223 
L 34.560564 67.216722 
L 32.354067 70.158718 
L 30.883069 71.629716 
L 30.883069 78.249208 
L 31.618568 78.984707 
L 36.767062 83.397701 
L 41.180056 84.1332 
L 44.122052 83.397701 
L 46.328549 82.662202 
L 48.535046 81.926703 
L 48.535046 81.191204 
" style="fill:none;stroke:#8c8c8c;stroke-linecap:square;"/>
   </g>
   <g id="line2d_32">
    <path clip-path="url(#p7f97a84dc8)" d="M 50.006044 59.861732 
L 50.006044 59.861732 
L 49.270545 60.597231 
L 49.270545 62.068229 
L 49.270545 62.803728 
L 50.741543 66.481223 
L 52.212542 71.629716 
L 53.68354 74.571712 
L 55.154538 79.720206 
L 55.890037 81.191204 
L 55.890037 81.191204 
L 56.625536 78.984707 
L 56.625536 77.513709 
L 57.361035 73.836213 
L 58.096534 71.629716 
L 59.567532 70.158718 
L 60.303031 69.423219 
L 62.509528 70.894217 
L 63.980526 72.365215 
L 64.716025 74.571712 
L 66.922522 80.455705 
L 67.658021 81.191204 
L 68.39352 81.191204 
L 68.39352 81.191204 
" style="fill:none;stroke:#8c8c8c;stroke-linecap:square;"/>
   </g>
   <g id="line2d_33">
    <path clip-path="url(#p7f97a84dc8)" d="M 72.071016 73.100714 
L 72.071016 73.100714 
L 71.335517 73.100714 
L 71.335517 73.100714 
L 70.600018 73.836213 
L 71.335517 76.042711 
L 71.335517 77.513709 
L 74.277513 80.455705 
L 75.013012 80.455705 
L 75.748511 80.455705 
L 78.690507 79.720206 
L 79.426006 77.513709 
L 79.426006 76.042711 
L 78.690507 73.100714 
L 75.013012 71.629716 
L 72.071016 70.894217 
L 71.335517 71.629716 
L 70.600018 71.629716 
" style="fill:none;stroke:#8c8c8c;stroke-linecap:square;"/>
   </g>
   <g id="line2d_34">
    <path clip-path="url(#p7f97a84dc8)" d="M 86.780997 67.952221 
L 86.780997 67.952221 
L 86.045498 67.952221 
L 86.045498 68.68772 
L 86.780997 70.158718 
L 86.780997 71.629716 
L 87.516496 75.307211 
L 87.516496 76.042711 
L 87.516496 76.77821 
L 87.516496 77.513709 
L 87.516496 77.513709 
L 87.516496 76.042711 
L 87.516496 75.307211 
L 88.251995 70.894217 
L 88.987494 68.68772 
L 89.722993 66.481223 
L 90.458492 65.010225 
L 92.664989 64.274726 
L 94.871486 67.216722 
L 95.606985 67.952221 
L 97.077983 70.158718 
L 97.813482 71.629716 
L 97.813482 73.100714 
L 97.813482 74.571712 
L 97.813482 74.571712 
" style="fill:none;stroke:#8c8c8c;stroke-linecap:square;"/>
   </g>
   <g id="line2d_35">
    <path clip-path="url(#p7f97a84dc8)" d="M 105.168473 69.423219 
L 105.168473 69.423219 
L 105.903972 68.68772 
L 105.903972 68.68772 
L 105.903972 68.68772 
L 105.903972 67.952221 
L 106.639471 67.216722 
L 106.639471 66.481223 
L 104.432974 67.216722 
L 104.432974 67.952221 
L 103.697475 70.158718 
L 103.697475 73.836213 
L 105.168473 76.77821 
L 107.37497 76.77821 
L 109.581467 71.629716 
L 109.581467 67.952221 
L 109.581467 62.068229 
L 108.845968 57.655234 
L 108.845968 54.713238 
L 108.845968 53.24224 
L 108.110469 51.771242 
L 108.110469 51.771242 
L 108.845968 54.713238 
L 108.845968 59.861732 
L 110.316966 67.216722 
L 111.787964 70.158718 
L 112.523463 73.100714 
L 113.994461 74.571712 
L 114.72996 75.307211 
L 114.72996 75.307211 
L 114.72996 75.307211 
" style="fill:none;stroke:#8c8c8c;stroke-linecap:square;"/>
   </g>
   <g id="line2d_36">
    <path clip-path="url(#p7f97a84dc8)" d="M 117.671956 65.010225 
L 117.671956 65.010225 
L 117.671956 65.010225 
L 118.407455 65.010225 
L 118.407455 65.010225 
L 118.407455 65.010225 
L 119.142955 65.745724 
L 121.349452 69.423219 
L 122.82045 70.894217 
L 123.555949 72.365215 
L 124.291448 73.100714 
L 124.291448 73.100714 
L 123.555949 71.629716 
L 122.82045 70.158718 
L 122.82045 67.216722 
L 122.82045 63.539227 
L 124.291448 59.861732 
L 125.762446 58.390733 
L 125.762446 58.390733 
" style="fill:none;stroke:#8c8c8c;stroke-linecap:square;"/>
   </g>
   <g id="line2d_37">
    <path clip-path="url(#p7f97a84dc8)" d="M 133.852935 62.068229 
L 133.117436 62.803728 
L 133.117436 64.274726 
L 132.381937 66.481223 
L 133.117436 67.952221 
L 134.588434 70.158718 
L 137.530431 71.629716 
L 138.26593 71.629716 
L 139.736928 70.894217 
L 140.472427 69.423219 
L 140.472427 66.481223 
L 140.472427 65.745724 
L 139.736928 62.803728 
L 139.001429 60.597231 
L 139.001429 60.597231 
L 139.001429 60.597231 
" style="fill:none;stroke:#8c8c8c;stroke-linecap:square;"/>
   </g>
   <g id="line2d_38">
    <path clip-path="url(#p7f97a84dc8)" d="M 141.207926 54.713238 
L 141.207926 53.24224 
L 141.207926 52.506741 
L 141.207926 51.771242 
L 141.207926 51.771242 
L 141.943425 51.771242 
L 143.414423 55.448737 
L 144.149922 56.919735 
L 145.62092 62.803728 
L 146.356419 65.745724 
L 148.562916 70.158718 
L 150.033914 73.836213 
L 150.769413 73.836213 
" style="fill:none;stroke:#8c8c8c;stroke-linecap:square;"/>
   </g>
   <g id="line2d_39">
    <path clip-path="url(#p7f97a84dc8)" d="M 155.182408 63.539227 
L 155.182408 63.539227 
L 155.182408 63.539227 
L 155.182408 63.539227 
L 155.182408 63.539227 
L 158.124404 62.068229 
L 161.0664 59.861732 
L 161.801899 58.390733 
L 162.537398 56.919735 
L 161.801899 55.448737 
L 161.801899 55.448737 
L 158.124404 56.919735 
L 156.653406 58.390733 
L 154.446909 62.068229 
L 155.182408 67.216722 
L 156.653406 68.68772 
L 158.859903 69.423219 
L 163.272897 68.68772 
L 164.743895 67.952221 
L 166.214893 66.481223 
L 166.214893 66.481223 
" style="fill:none;stroke:#8c8c8c;stroke-linecap:square;"/>
   </g>
   <g id="line2d_40">
    <path clip-path="url(#p7f97a84dc8)" d="M 173.569884 59.861732 
L 174.305383 59.126233 
L 174.305383 58.390733 
L 174.305383 57.655234 
L 173.569884 56.919735 
L 171.363387 56.919735 
L 169.892389 57.655234 
L 168.42139 58.390733 
L 167.685891 59.861732 
L 168.42139 60.597231 
L 169.15689 61.33273 
L 171.363387 62.068229 
L 172.098886 62.803728 
L 173.569884 64.274726 
L 175.040882 65.745724 
L 175.776381 70.894217 
L 175.040882 73.100714 
L 173.569884 73.836213 
L 173.569884 73.836213 
" style="fill:none;stroke:#8c8c8c;stroke-linecap:square;"/>
   </g>
  </g>
 </g>
 <defs>
  <clipPath id="p7f97a84dc8">
   <rect height="106.794461" width="521.027523" x="7.2" y="7.2"/>
  </clipPath>
 </defs>
</svg>
