<?xml version="1.0" encoding="utf-8" standalone="no"?>
<!DOCTYPE svg PUBLIC "-//W3C//DTD SVG 1.1//EN"
  "http://www.w3.org/Graphics/SVG/1.1/DTD/svg11.dtd">
<!-- Created with matplotlib (https://matplotlib.org/) -->
<svg height="286.2pt" version="1.1" viewBox="0 0 341.601742 286.2" width="341.601742pt" xmlns="http://www.w3.org/2000/svg" xmlns:xlink="http://www.w3.org/1999/xlink">
 <metadata>
  <rdf:RDF xmlns:cc="http://creativecommons.org/ns#" xmlns:dc="http://purl.org/dc/elements/1.1/" xmlns:rdf="http://www.w3.org/1999/02/22-rdf-syntax-ns#">
   <cc:Work>
    <dc:type rdf:resource="http://purl.org/dc/dcmitype/StillImage"/>
    <dc:date>2024-11-15T16:03:42.712474</dc:date>
    <dc:format>image/svg+xml</dc:format>
    <dc:creator>
     <cc:Agent>
      <dc:title>Matplotlib v3.3.4, https://matplotlib.org/</dc:title>
     </cc:Agent>
    </dc:creator>
   </cc:Work>
  </rdf:RDF>
 </metadata>
 <defs>
  <style type="text/css">*{stroke-linecap:butt;stroke-linejoin:round;}</style>
 </defs>
 <g id="figure_1">
  <g id="patch_1">
   <path d="M 0 286.2 
L 341.601742 286.2 
L 341.601742 0 
L 0 0 
z
" style="fill:#ffffff;"/>
  </g>
  <g id="axes_1">
   <g id="line2d_1">
    <path clip-path="url(#pb2f51e20fb)" d="M 36.278381 26.442097 
L 36.278381 26.442097 
L 35.847909 26.442097 
L 35.847909 26.442097 
L 35.847909 26.442097 
L 35.417437 26.442097 
L 34.986965 26.442097 
L 34.556494 26.442097 
L 34.126022 26.872569 
L 33.69555 27.303041 
L 32.834606 28.163985 
L 31.973662 29.455401 
L 31.54319 29.885873 
L 31.112718 32.038232 
L 31.112718 33.76012 
L 31.54319 34.621064 
L 33.265078 37.203896 
L 34.986965 38.495312 
L 36.278381 38.925784 
L 37.139325 39.356256 
L 37.569797 38.925784 
L 38.000269 38.925784 
L 38.000269 38.925784 
" style="fill:none;stroke:#8c8c8c;stroke-linecap:square;"/>
   </g>
   <g id="line2d_2">
    <path clip-path="url(#pb2f51e20fb)" d="M 40.583101 23.428793 
L 41.013573 23.859265 
L 41.013573 24.720209 
L 41.444045 26.872569 
L 42.304989 29.024929 
L 42.735461 30.746817 
L 43.596405 33.76012 
L 44.026877 34.621064 
L 44.457349 35.91248 
L 44.457349 36.342952 
L 44.887821 36.342952 
L 44.887821 36.342952 
L 45.318293 35.91248 
L 45.748765 34.190592 
L 46.179237 33.329648 
L 46.609709 32.038232 
L 47.040181 31.607761 
L 47.470653 31.607761 
L 48.331596 32.468704 
L 49.19254 33.329648 
L 49.623012 34.621064 
L 50.053484 35.482008 
L 50.483956 35.91248 
L 50.483956 35.91248 
" style="fill:none;stroke:#8c8c8c;stroke-linecap:square;"/>
   </g>
   <g id="line2d_3">
    <path clip-path="url(#pb2f51e20fb)" d="M 54.358204 32.468704 
L 54.358204 32.038232 
L 54.358204 32.038232 
L 53.927732 32.038232 
L 53.927732 32.468704 
L 53.927732 32.468704 
L 53.927732 32.899176 
L 53.927732 33.76012 
L 54.358204 34.190592 
L 54.788676 34.621064 
L 55.64962 34.621064 
L 56.510564 34.190592 
L 56.510564 34.190592 
L 56.941036 32.899176 
L 56.941036 32.899176 
L 56.941036 32.468704 
L 56.080092 32.038232 
L 55.64962 31.607761 
L 55.219148 31.607761 
L 54.788676 31.607761 
L 54.788676 31.607761 
" style="fill:none;stroke:#8c8c8c;stroke-linecap:square;"/>
   </g>
   <g id="line2d_4">
    <path clip-path="url(#pb2f51e20fb)" d="M 60.384812 31.607761 
L 60.384812 31.607761 
L 60.384812 32.038232 
L 60.384812 32.038232 
L 60.815283 32.468704 
L 60.815283 33.76012 
L 61.245755 34.621064 
L 61.245755 35.051536 
L 61.245755 35.051536 
L 61.676227 34.621064 
L 62.106699 33.329648 
L 62.106699 32.899176 
L 62.537171 31.607761 
L 62.967643 30.746817 
L 63.828587 30.316345 
L 64.259059 30.746817 
L 64.689531 31.607761 
L 65.550475 32.899176 
L 65.550475 33.329648 
L 65.980947 33.76012 
" style="fill:none;stroke:#8c8c8c;stroke-linecap:square;"/>
   </g>
   <g id="line2d_5">
    <path clip-path="url(#pb2f51e20fb)" d="M 75.45133 27.733513 
L 75.45133 27.733513 
L 75.020858 27.733513 
L 75.020858 27.733513 
L 74.590386 27.733513 
L 74.159914 27.733513 
L 73.298971 28.594457 
L 72.007555 30.316345 
L 71.577083 32.038232 
L 71.577083 33.329648 
L 72.007555 33.76012 
L 72.868499 34.190592 
L 73.298971 33.76012 
L 73.729443 32.899176 
L 74.159914 31.177289 
L 74.159914 28.594457 
L 74.159914 26.011625 
L 73.729443 23.428793 
L 73.298971 22.137377 
L 73.298971 22.137377 
L 73.298971 21.706905 
L 73.298971 21.706905 
L 73.729443 22.137377 
L 74.159914 23.428793 
L 75.020858 26.442097 
L 76.312274 30.316345 
L 77.173218 32.468704 
L 77.60369 34.190592 
L 78.464634 35.051536 
L 78.464634 35.051536 
" style="fill:none;stroke:#8c8c8c;stroke-linecap:square;"/>
   </g>
   <g id="line2d_6">
    <path clip-path="url(#pb2f51e20fb)" d="M 80.186522 30.746817 
L 80.186522 30.746817 
L 80.186522 30.746817 
L 80.186522 31.177289 
L 80.616994 31.607761 
L 81.047466 32.899176 
L 81.477938 33.329648 
L 81.477938 34.190592 
L 81.477938 34.190592 
L 81.477938 34.190592 
L 81.477938 33.76012 
L 81.047466 32.468704 
L 81.477938 31.177289 
L 81.90841 29.455401 
L 82.769354 28.163985 
L 83.630298 27.303041 
L 84.06077 26.872569 
" style="fill:none;stroke:#8c8c8c;stroke-linecap:square;"/>
   </g>
   <g id="line2d_7">
    <path clip-path="url(#pb2f51e20fb)" d="M 89.226433 28.163985 
L 89.226433 29.024929 
L 88.795961 29.455401 
L 88.795961 29.455401 
L 88.795961 29.885873 
L 88.365489 31.177289 
L 88.365489 32.038232 
L 89.226433 33.76012 
L 89.656905 33.76012 
L 90.087377 33.76012 
L 90.948321 32.899176 
L 91.378793 32.038232 
L 91.809265 30.746817 
L 91.809265 29.885873 
L 91.809265 29.455401 
" style="fill:none;stroke:#8c8c8c;stroke-linecap:square;"/>
   </g>
   <g id="line2d_8">
    <path clip-path="url(#pb2f51e20fb)" d="M 90.948321 21.276433 
L 90.948321 20.415489 
L 90.948321 19.985017 
L 90.948321 19.985017 
L 91.378793 19.554545 
L 91.809265 20.845961 
L 93.100681 23.428793 
L 93.531153 26.011625 
L 94.822569 29.455401 
L 95.253041 31.177289 
L 96.544457 33.329648 
L 96.974929 34.190592 
" style="fill:none;stroke:#8c8c8c;stroke-linecap:square;"/>
   </g>
   <g id="line2d_9">
    <path clip-path="url(#pb2f51e20fb)" d="M 100.849176 27.733513 
L 100.418704 28.163985 
L 100.418704 28.163985 
L 100.418704 28.594457 
L 100.849176 28.594457 
L 101.279648 28.594457 
L 102.140592 27.733513 
L 102.571064 26.872569 
L 102.571064 26.011625 
L 102.571064 25.150681 
L 102.140592 25.150681 
L 101.279648 26.011625 
L 100.418704 27.303041 
L 100.418704 29.024929 
L 100.849176 31.607761 
L 101.279648 32.899176 
L 101.71012 32.899176 
L 102.571064 32.899176 
L 103.001536 32.468704 
" style="fill:none;stroke:#8c8c8c;stroke-linecap:square;"/>
   </g>
   <g id="line2d_10">
    <path clip-path="url(#pb2f51e20fb)" d="M 106.875784 28.163985 
L 107.736728 26.872569 
L 108.1672 25.581153 
L 108.597672 24.720209 
L 108.597672 24.289737 
L 108.597672 24.289737 
L 108.1672 24.289737 
L 107.306256 24.720209 
L 107.306256 25.150681 
L 107.306256 25.581153 
L 107.306256 25.581153 
L 107.306256 25.581153 
L 109.028144 26.442097 
L 110.31956 27.733513 
L 111.180504 28.594457 
L 112.041448 29.885873 
L 112.47192 31.177289 
L 112.47192 32.038232 
L 112.041448 32.899176 
L 109.889088 32.899176 
" style="fill:none;stroke:#8c8c8c;stroke-linecap:square;"/>
   </g>
   <g id="line2d_11">
    <path clip-path="url(#pb2f51e20fb)" d="M 120.220415 22.998321 
L 120.220415 22.998321 
L 120.220415 22.998321 
L 120.220415 22.998321 
L 120.220415 22.998321 
L 119.789943 22.998321 
L 119.789943 23.428793 
" style="fill:none;stroke:#8c8c8c;stroke-linecap:square;"/>
   </g>
   <g id="line2d_12">
    <path clip-path="url(#pb2f51e20fb)" d="M 120.650887 31.177289 
L 120.650887 31.607761 
L 120.650887 32.038232 
L 120.650887 32.468704 
L 120.650887 32.468704 
L 120.650887 32.899176 
L 120.650887 32.899176 
" style="fill:none;stroke:#8c8c8c;stroke-linecap:square;"/>
   </g>
   <g id="line2d_13">
    <path clip-path="url(#pb2f51e20fb)" d="M 48.762068 50.978999 
L 48.762068 50.978999 
L 48.762068 50.978999 
L 48.762068 50.978999 
L 48.762068 50.978999 
L 49.19254 51.409471 
L 49.623012 51.839943 
L 50.483956 53.561831 
L 50.914428 53.992303 
L 50.914428 53.992303 
L 51.3449 54.422775 
L 51.3449 54.422775 
L 51.3449 53.992303 
L 50.914428 52.700887 
L 50.053484 48.396167 
L 50.483956 47.965695 
L 50.483956 47.535223 
L 51.3449 47.104751 
L 52.636316 48.396167 
L 53.49726 49.687583 
L 53.927732 50.548527 
L 54.358204 50.978999 
L 54.358204 51.839943 
L 54.788676 51.839943 
L 54.788676 51.839943 
L 54.788676 51.409471 
L 55.64962 48.826639 
L 56.080092 47.965695 
L 56.510564 47.535223 
L 56.941036 47.965695 
L 57.371508 48.396167 
L 58.662924 50.118055 
L 59.093396 51.409471 
L 59.95434 52.270415 
L 59.95434 52.700887 
" style="fill:none;stroke:#8c8c8c;stroke-linecap:square;"/>
   </g>
   <g id="line2d_14">
    <path clip-path="url(#pb2f51e20fb)" d="M 62.537171 47.965695 
L 62.537171 47.965695 
L 62.537171 48.396167 
L 62.106699 48.396167 
L 62.106699 49.257111 
L 62.106699 51.409471 
L 62.967643 52.270415 
L 62.967643 52.700887 
L 64.689531 53.131359 
L 65.120003 52.700887 
L 65.550475 52.270415 
L 65.980947 50.978999 
L 65.550475 49.687583 
L 65.120003 48.826639 
L 63.398115 48.396167 
L 62.537171 49.257111 
L 62.106699 49.687583 
L 62.106699 49.687583 
" style="fill:none;stroke:#8c8c8c;stroke-linecap:square;"/>
   </g>
   <g id="line2d_15">
    <path clip-path="url(#pb2f51e20fb)" d="M 68.994251 42.800032 
L 68.994251 42.800032 
L 68.994251 42.36956 
L 68.994251 42.36956 
L 69.424723 42.800032 
L 69.855195 44.52192 
L 70.285667 45.813335 
L 71.146611 47.965695 
L 72.007555 50.978999 
L 72.868499 52.700887 
L 72.868499 52.700887 
L 73.298971 53.992303 
L 73.729443 53.992303 
" style="fill:none;stroke:#8c8c8c;stroke-linecap:square;"/>
   </g>
   <g id="line2d_16">
    <path clip-path="url(#pb2f51e20fb)" d="M 75.45133 43.660976 
L 75.45133 43.230504 
L 75.45133 42.800032 
L 75.45133 42.800032 
L 75.45133 43.230504 
L 76.312274 44.952392 
L 76.742746 47.535223 
L 77.60369 50.118055 
L 78.034162 51.409471 
L 78.464634 52.270415 
L 78.464634 52.270415 
" style="fill:none;stroke:#8c8c8c;stroke-linecap:square;"/>
   </g>
   <g id="line2d_17">
    <path clip-path="url(#pb2f51e20fb)" d="M 75.020858 48.396167 
L 75.020858 48.396167 
L 75.020858 48.396167 
L 75.020858 48.396167 
L 75.45133 48.826639 
L 76.312274 48.396167 
L 76.742746 48.396167 
L 77.173218 48.396167 
" style="fill:none;stroke:#8c8c8c;stroke-linecap:square;"/>
   </g>
   <g id="line2d_18">
    <path clip-path="url(#pb2f51e20fb)" d="M 80.186522 47.104751 
L 80.186522 47.104751 
L 80.616994 47.104751 
L 81.047466 47.104751 
L 81.047466 47.104751 
L 81.477938 47.535223 
L 82.338882 47.104751 
L 83.199826 46.674279 
L 83.630298 45.813335 
L 83.199826 44.952392 
L 83.199826 44.952392 
L 82.338882 45.382863 
L 81.90841 46.243807 
L 81.90841 48.396167 
L 82.769354 51.409471 
L 83.630298 52.270415 
L 84.06077 52.700887 
L 84.491242 52.700887 
" style="fill:none;stroke:#8c8c8c;stroke-linecap:square;"/>
   </g>
   <g id="line2d_19">
    <path clip-path="url(#pb2f51e20fb)" d="M 88.795961 48.826639 
L 89.226433 48.396167 
L 89.226433 48.396167 
L 89.226433 48.396167 
L 89.656905 48.826639 
L 89.656905 48.826639 
L 89.656905 49.687583 
L 90.087377 50.118055 
L 90.087377 50.118055 
L 90.087377 50.118055 
L 90.517849 48.826639 
L 90.517849 48.826639 
L 90.517849 47.965695 
L 91.378793 45.813335 
L 91.809265 45.382863 
L 93.100681 46.243807 
L 94.392097 47.965695 
L 94.392097 47.965695 
L 94.392097 48.396167 
L 95.253041 49.687583 
L 95.253041 49.687583 
" style="fill:none;stroke:#8c8c8c;stroke-linecap:square;"/>
   </g>
   <g id="line2d_20">
    <path clip-path="url(#pb2f51e20fb)" d="M 106.445312 39.786728 
L 106.445312 39.786728 
L 106.01484 40.2172 
L 106.01484 40.647672 
L 106.01484 41.508616 
L 106.01484 42.36956 
L 106.01484 42.36956 
" style="fill:none;stroke:#8c8c8c;stroke-linecap:square;"/>
   </g>
   <g id="line2d_21">
    <path clip-path="url(#pb2f51e20fb)" d="M 115.915695 47.535223 
L 115.915695 47.104751 
L 115.915695 46.243807 
L 115.485223 45.813335 
L 114.624279 45.813335 
L 114.193807 45.813335 
L 113.332863 47.104751 
L 112.902392 48.396167 
L 113.332863 50.118055 
L 113.763335 50.978999 
L 114.624279 50.548527 
L 115.054751 50.118055 
L 115.915695 47.965695 
L 115.915695 45.382863 
L 115.915695 42.800032 
L 115.485223 41.508616 
L 115.485223 40.647672 
L 115.485223 40.647672 
L 115.485223 40.647672 
L 115.485223 41.508616 
L 115.485223 42.800032 
L 116.346167 46.243807 
L 117.637583 49.257111 
L 118.928999 51.409471 
L 119.359471 51.839943 
L 119.789943 52.270415 
" style="fill:none;stroke:#8c8c8c;stroke-linecap:square;"/>
   </g>
   <g id="line2d_22">
    <path clip-path="url(#pb2f51e20fb)" d="M 121.081359 47.965695 
L 121.081359 47.965695 
L 121.081359 47.965695 
L 121.081359 47.965695 
L 121.511831 48.396167 
L 121.511831 48.396167 
L 121.942303 48.826639 
L 122.803247 50.118055 
L 122.803247 50.118055 
L 123.233719 50.118055 
L 123.233719 50.118055 
L 122.803247 49.257111 
L 122.372775 47.535223 
L 122.372775 47.104751 
L 122.372775 45.813335 
L 122.803247 44.952392 
L 123.233719 44.952392 
L 123.233719 44.952392 
" style="fill:none;stroke:#8c8c8c;stroke-linecap:square;"/>
   </g>
   <g id="line2d_23">
    <path clip-path="url(#pb2f51e20fb)" d="M 127.107966 45.382863 
L 127.107966 45.382863 
L 127.107966 45.813335 
L 127.107966 46.243807 
L 127.107966 46.243807 
L 127.107966 47.104751 
L 127.538438 47.965695 
L 127.538438 48.396167 
L 128.399382 48.396167 
L 129.690798 48.396167 
L 130.12127 47.965695 
L 130.551742 47.104751 
L 129.690798 45.382863 
L 128.829854 44.952392 
L 127.538438 45.382863 
L 127.538438 45.382863 
L 127.107966 46.243807 
" style="fill:none;stroke:#8c8c8c;stroke-linecap:square;"/>
   </g>
   <g id="line2d_24">
    <path clip-path="url(#pb2f51e20fb)" d="M 133.134574 46.674279 
L 133.134574 47.104751 
L 133.134574 47.104751 
L 133.134574 47.104751 
L 133.134574 47.104751 
L 133.565046 47.104751 
L 133.565046 47.104751 
L 134.856462 47.104751 
L 134.856462 46.243807 
L 135.286934 45.813335 
L 134.856462 44.52192 
L 133.565046 42.800032 
L 132.704102 42.36956 
L 132.27363 42.36956 
L 131.843158 43.660976 
L 132.27363 45.813335 
L 133.134574 47.965695 
L 134.42599 51.409471 
L 135.717406 54.422775 
L 135.717406 55.714191 
L 135.717406 55.714191 
" style="fill:none;stroke:#8c8c8c;stroke-linecap:square;"/>
   </g>
   <g id="line2d_25">
    <path clip-path="url(#pb2f51e20fb)" d="M 136.57835 37.634368 
L 136.57835 37.634368 
L 136.57835 37.634368 
L 136.57835 37.634368 
L 137.008822 38.495312 
L 137.869766 40.647672 
L 138.73071 43.230504 
L 140.022125 45.813335 
L 140.883069 47.535223 
L 140.883069 47.965695 
" style="fill:none;stroke:#8c8c8c;stroke-linecap:square;"/>
   </g>
   <g id="line2d_26">
    <path clip-path="url(#pb2f51e20fb)" d="M 142.174485 45.813335 
L 142.174485 45.813335 
L 142.174485 45.382863 
L 142.604957 45.382863 
L 143.035429 44.952392 
L 143.896373 44.091448 
L 144.326845 43.230504 
L 144.757317 42.36956 
L 144.757317 41.508616 
L 144.757317 41.508616 
L 144.326845 41.508616 
L 143.896373 41.508616 
L 143.465901 42.800032 
L 143.035429 44.091448 
L 142.604957 47.104751 
L 143.035429 47.965695 
L 143.465901 48.826639 
L 143.896373 49.257111 
L 144.757317 49.257111 
L 145.618261 48.826639 
L 146.479205 47.965695 
L 146.909677 47.535223 
L 146.909677 47.535223 
" style="fill:none;stroke:#8c8c8c;stroke-linecap:square;"/>
   </g>
   <g id="line2d_27">
    <path clip-path="url(#pb2f51e20fb)" d="M 152.505812 39.786728 
L 152.505812 39.356256 
L 152.505812 39.356256 
L 152.505812 39.356256 
L 152.505812 40.647672 
L 152.936284 42.36956 
L 153.366756 44.52192 
L 153.797228 47.104751 
L 153.797228 47.535223 
L 153.797228 47.965695 
L 153.797228 47.965695 
" style="fill:none;stroke:#8c8c8c;stroke-linecap:square;"/>
   </g>
   <g id="line2d_28">
    <path clip-path="url(#pb2f51e20fb)" d="M 151.644869 43.660976 
L 151.644869 43.660976 
L 151.644869 43.660976 
L 151.214397 43.660976 
L 151.214397 43.660976 
L 151.644869 43.660976 
L 152.505812 43.660976 
L 152.936284 43.660976 
L 153.797228 43.230504 
L 155.088644 42.800032 
L 155.088644 42.36956 
" style="fill:none;stroke:#8c8c8c;stroke-linecap:square;"/>
   </g>
   <g id="line2d_29">
    <path clip-path="url(#pb2f51e20fb)" d="M 157.241004 41.078144 
L 157.241004 41.078144 
L 157.241004 41.078144 
L 156.810532 41.078144 
L 156.38006 41.508616 
L 155.949588 41.939088 
L 155.949588 42.36956 
L 155.949588 42.800032 
L 155.949588 42.800032 
L 156.38006 43.230504 
L 157.241004 43.230504 
L 158.101948 44.091448 
L 158.962892 45.382863 
L 159.393364 45.813335 
L 159.393364 46.243807 
L 159.393364 46.674279 
L 159.393364 46.674279 
" style="fill:none;stroke:#8c8c8c;stroke-linecap:square;"/>
   </g>
   <g id="line2d_30">
    <path clip-path="url(#pb2f51e20fb)" d="M 162.406668 35.482008 
L 162.406668 35.482008 
L 162.83714 35.482008 
L 162.83714 35.91248 
L 163.267612 35.91248 
L 163.698084 37.634368 
L 163.698084 38.495312 
L 163.698084 39.356256 
L 163.698084 39.356256 
" style="fill:none;stroke:#8c8c8c;stroke-linecap:square;"/>
   </g>
   <g id="line2d_31">
    <path clip-path="url(#pb2f51e20fb)" d="M 71.146611 69.919766 
L 71.146611 69.919766 
L 71.146611 69.489294 
L 70.716139 69.919766 
L 70.716139 69.919766 
L 70.716139 70.350238 
L 70.716139 71.641653 
L 70.716139 72.502597 
L 72.007555 75.085429 
L 73.298971 75.946373 
L 74.159914 75.085429 
L 74.590386 74.224485 
L 75.020858 72.933069 
L 74.159914 70.78071 
L 72.868499 69.489294 
L 71.577083 69.489294 
L 71.146611 69.489294 
L 70.285667 70.350238 
" style="fill:none;stroke:#8c8c8c;stroke-linecap:square;"/>
   </g>
   <g id="line2d_32">
    <path clip-path="url(#pb2f51e20fb)" d="M 79.75605 70.78071 
L 79.75605 71.211182 
L 79.75605 71.211182 
L 79.75605 71.211182 
L 79.75605 71.641653 
L 79.75605 71.641653 
L 79.75605 71.641653 
L 79.325578 70.350238 
L 78.895106 69.919766 
L 78.464634 69.058822 
L 77.173218 66.906462 
L 76.742746 66.045518 
L 76.312274 65.184574 
L 75.881802 63.893158 
L 76.312274 61.740798 
L 77.173218 60.879854 
L 77.60369 60.879854 
" style="fill:none;stroke:#8c8c8c;stroke-linecap:square;"/>
   </g>
   <g id="line2d_33">
    <path clip-path="url(#pb2f51e20fb)" d="M 75.881802 66.045518 
L 75.45133 66.47599 
L 75.45133 66.47599 
L 75.020858 66.47599 
L 75.45133 66.47599 
L 76.312274 66.47599 
L 77.60369 66.045518 
L 78.895106 65.615046 
L 78.895106 65.615046 
L 79.325578 65.184574 
" style="fill:none;stroke:#8c8c8c;stroke-linecap:square;"/>
   </g>
   <g id="line2d_34">
    <path clip-path="url(#pb2f51e20fb)" d="M 97.405401 69.919766 
L 97.835873 69.489294 
L 97.835873 69.919766 
L 98.266345 70.350238 
L 99.127289 71.211182 
L 99.557761 71.641653 
L 99.557761 72.072125 
L 99.988232 72.072125 
L 99.988232 72.072125 
L 99.988232 70.78071 
L 99.988232 70.350238 
L 99.557761 69.058822 
L 99.988232 67.336934 
L 100.418704 66.47599 
L 100.418704 66.045518 
L 100.849176 66.045518 
L 102.140592 66.906462 
L 102.571064 67.336934 
L 104.292952 69.058822 
L 105.584368 70.78071 
L 106.01484 71.641653 
L 106.01484 71.641653 
" style="fill:none;stroke:#8c8c8c;stroke-linecap:square;"/>
   </g>
   <g id="line2d_35">
    <path clip-path="url(#pb2f51e20fb)" d="M 106.01484 69.489294 
L 106.01484 69.489294 
L 106.445312 69.489294 
L 106.445312 69.489294 
L 106.445312 69.058822 
L 107.736728 68.197878 
L 108.597672 67.336934 
L 109.028144 66.47599 
L 109.028144 65.615046 
L 108.597672 65.184574 
L 108.1672 64.754102 
L 107.736728 65.184574 
L 106.875784 66.47599 
L 106.875784 68.197878 
L 108.597672 71.641653 
L 109.458616 71.641653 
L 111.180504 71.211182 
L 111.610976 70.78071 
L 112.041448 70.78071 
" style="fill:none;stroke:#8c8c8c;stroke-linecap:square;"/>
   </g>
   <g id="line2d_36">
    <path clip-path="url(#pb2f51e20fb)" d="M 112.041448 59.588438 
L 111.610976 59.157966 
L 111.610976 59.157966 
L 111.610976 59.588438 
L 111.610976 60.01891 
L 112.47192 61.740798 
L 112.902392 63.462686 
L 114.193807 67.336934 
L 115.054751 69.058822 
L 115.485223 69.919766 
L 115.485223 70.350238 
L 115.485223 70.78071 
L 115.485223 70.350238 
L 115.054751 69.058822 
L 115.054751 68.197878 
L 115.485223 66.47599 
L 115.915695 66.045518 
L 116.776639 65.615046 
L 117.637583 65.184574 
L 118.498527 65.615046 
L 118.928999 66.906462 
L 118.928999 67.336934 
L 118.928999 68.197878 
L 118.068055 69.489294 
L 117.207111 69.919766 
L 116.776639 69.919766 
L 116.346167 69.919766 
" style="fill:none;stroke:#8c8c8c;stroke-linecap:square;"/>
   </g>
   <g id="line2d_37">
    <path clip-path="url(#pb2f51e20fb)" d="M 120.220415 66.045518 
L 120.220415 66.045518 
L 120.650887 66.47599 
L 120.650887 66.906462 
L 121.081359 67.336934 
L 122.372775 68.62835 
L 123.664191 69.058822 
L 124.525135 69.489294 
L 125.386079 69.489294 
L 126.247022 68.62835 
L 126.247022 67.767406 
L 126.247022 66.906462 
L 125.816551 66.47599 
L 125.386079 65.615046 
L 125.386079 65.184574 
" style="fill:none;stroke:#8c8c8c;stroke-linecap:square;"/>
   </g>
   <g id="line2d_38">
    <path clip-path="url(#pb2f51e20fb)" d="M 129.260326 58.727494 
L 129.260326 58.727494 
L 129.260326 58.727494 
L 129.260326 58.727494 
L 129.260326 59.157966 
L 129.260326 59.588438 
L 130.12127 62.601742 
L 130.551742 64.32363 
L 131.843158 67.336934 
L 132.704102 69.058822 
L 132.704102 69.919766 
L 133.134574 69.919766 
" style="fill:none;stroke:#8c8c8c;stroke-linecap:square;"/>
   </g>
   <g id="line2d_39">
    <path clip-path="url(#pb2f51e20fb)" d="M 135.286934 66.045518 
L 135.286934 65.615046 
L 135.286934 65.184574 
L 135.286934 65.184574 
L 135.286934 65.184574 
L 135.286934 64.754102 
L 134.42599 65.184574 
L 133.995518 66.045518 
L 133.565046 67.767406 
L 133.995518 68.197878 
L 133.995518 68.197878 
L 134.42599 68.62835 
L 135.717406 67.767406 
L 136.57835 65.615046 
L 136.57835 63.893158 
L 136.57835 63.462686 
L 136.57835 63.032214 
L 136.57835 62.601742 
L 136.147878 62.601742 
L 136.57835 63.032214 
L 137.008822 65.184574 
L 137.869766 66.47599 
L 138.73071 67.767406 
L 139.161182 68.62835 
L 139.591653 68.62835 
L 139.591653 68.62835 
" style="fill:none;stroke:#8c8c8c;stroke-linecap:square;"/>
   </g>
   <g id="line2d_40">
    <path clip-path="url(#pb2f51e20fb)" d="M 139.591653 63.893158 
L 139.161182 63.462686 
L 139.161182 63.032214 
L 139.161182 62.601742 
L 139.591653 63.032214 
L 140.452597 63.462686 
L 141.313541 63.893158 
L 142.604957 65.184574 
L 143.465901 66.045518 
L 145.187789 67.767406 
L 145.187789 67.767406 
L 145.187789 67.336934 
L 144.757317 67.336934 
L 144.757317 65.184574 
L 145.618261 63.032214 
L 146.048733 62.17127 
L 146.048733 61.740798 
L 146.479205 60.879854 
" style="fill:none;stroke:#8c8c8c;stroke-linecap:square;"/>
   </g>
   <g id="line2d_41">
    <path clip-path="url(#pb2f51e20fb)" d="M 100.849176 89.721476 
L 100.849176 89.721476 
L 100.849176 89.721476 
L 100.849176 89.721476 
L 100.849176 89.721476 
L 100.418704 90.151948 
L 99.557761 91.012892 
L 99.127289 91.873836 
L 99.127289 92.73478 
L 99.127289 93.595724 
L 99.557761 94.88714 
L 100.849176 95.748084 
L 101.71012 95.748084 
L 103.432008 94.026196 
L 103.86248 91.443364 
L 103.432008 87.999588 
L 102.140592 84.555812 
L 101.279648 82.833925 
L 100.849176 81.972981 
L 100.849176 81.542509 
L 100.418704 81.542509 
L 100.849176 81.972981 
L 101.279648 83.264397 
L 103.001536 87.138644 
L 103.86248 89.291004 
L 104.723424 91.443364 
L 106.01484 93.595724 
L 106.01484 94.026196 
L 106.445312 94.026196 
" style="fill:none;stroke:#8c8c8c;stroke-linecap:square;"/>
   </g>
   <g id="line2d_42">
    <path clip-path="url(#pb2f51e20fb)" d="M 108.1672 88.43006 
L 108.1672 88.43006 
L 108.1672 88.43006 
L 108.597672 88.860532 
L 108.597672 89.291004 
L 109.458616 91.443364 
L 109.889088 92.304308 
L 110.750032 92.73478 
L 111.180504 92.73478 
L 111.610976 92.304308 
L 112.041448 90.58242 
L 111.610976 88.43006 
L 111.180504 87.569116 
L 111.180504 87.138644 
L 110.750032 87.138644 
L 110.750032 87.138644 
L 110.750032 87.138644 
" style="fill:none;stroke:#8c8c8c;stroke-linecap:square;"/>
   </g>
   <g id="line2d_43">
    <path clip-path="url(#pb2f51e20fb)" d="M 112.47192 86.708172 
L 112.47192 86.708172 
L 112.902392 86.708172 
L 113.332863 86.708172 
L 113.332863 86.708172 
L 113.332863 87.138644 
L 113.332863 87.569116 
L 113.332863 87.999588 
L 113.332863 88.43006 
L 113.332863 88.860532 
L 113.763335 88.860532 
L 113.763335 88.860532 
L 114.624279 89.291004 
L 115.915695 89.721476 
L 117.207111 90.58242 
L 118.068055 91.012892 
L 118.068055 91.443364 
L 118.498527 92.304308 
L 118.068055 93.595724 
L 117.637583 93.595724 
L 116.776639 93.595724 
L 116.776639 93.165252 
" style="fill:none;stroke:#8c8c8c;stroke-linecap:square;"/>
   </g>
   <g id="line2d_44">
    <path clip-path="url(#pb2f51e20fb)" d="M 118.928999 81.972981 
L 118.928999 81.972981 
L 118.928999 81.972981 
L 119.359471 82.403453 
L 119.789943 82.403453 
L 121.511831 84.555812 
L 122.803247 86.2777 
L 124.094663 88.43006 
L 124.955607 89.721476 
L 125.386079 90.58242 
L 125.816551 91.012892 
" style="fill:none;stroke:#8c8c8c;stroke-linecap:square;"/>
   </g>
   <g id="line2d_45">
    <path clip-path="url(#pb2f51e20fb)" d="M 121.081359 87.569116 
L 120.650887 87.569116 
L 120.650887 87.569116 
L 121.081359 86.708172 
L 121.942303 86.2777 
L 123.664191 85.847228 
" style="fill:none;stroke:#8c8c8c;stroke-linecap:square;"/>
   </g>
   <g id="line2d_46">
    <path clip-path="url(#pb2f51e20fb)" d="M 39.722157 121.14593 
L 39.722157 120.715458 
L 39.722157 120.715458 
L 39.722157 120.284986 
L 40.152629 119.854514 
L 40.152629 119.854514 
L 40.152629 119.424042 
L 40.583101 119.424042 
L 40.583101 118.99357 
L 40.583101 118.99357 
L 40.152629 118.563098 
L 40.152629 118.563098 
L 39.722157 118.99357 
L 38.430741 119.854514 
L 37.139325 121.576402 
L 35.847909 124.159233 
L 35.417437 126.742065 
L 36.278381 130.616313 
L 38.000269 132.338201 
L 38.861213 132.768673 
L 40.152629 132.768673 
L 42.304989 131.477257 
L 42.735461 131.046785 
" style="fill:none;stroke:#8c8c8c;stroke-linecap:square;"/>
   </g>
   <g id="line2d_47">
    <path clip-path="url(#pb2f51e20fb)" d="M 48.331596 128.033481 
L 48.331596 127.603009 
L 48.331596 127.603009 
L 47.901124 127.603009 
L 47.470653 127.603009 
L 47.040181 127.603009 
L 46.609709 127.603009 
L 45.748765 128.463953 
L 45.318293 129.755369 
L 45.318293 130.616313 
L 45.748765 131.046785 
L 46.609709 131.477257 
L 47.470653 130.616313 
L 47.901124 129.755369 
L 48.331596 128.033481 
L 48.762068 127.603009 
L 48.762068 127.172537 
L 48.762068 126.742065 
L 48.762068 126.742065 
L 49.19254 128.033481 
L 49.623012 129.324897 
L 49.623012 130.185841 
L 50.053484 130.616313 
L 50.483956 131.477257 
L 50.483956 131.907729 
L 50.483956 131.907729 
" style="fill:none;stroke:#8c8c8c;stroke-linecap:square;"/>
   </g>
   <g id="line2d_48">
    <path clip-path="url(#pb2f51e20fb)" d="M 51.3449 122.437346 
L 51.3449 122.006874 
L 51.3449 122.006874 
L 51.3449 122.006874 
L 51.775372 122.437346 
L 52.636316 124.589705 
L 53.49726 127.172537 
L 54.358204 129.755369 
L 54.788676 131.477257 
L 55.219148 132.338201 
L 55.219148 132.768673 
" style="fill:none;stroke:#8c8c8c;stroke-linecap:square;"/>
   </g>
   <g id="line2d_49">
    <path clip-path="url(#pb2f51e20fb)" d="M 59.523868 127.603009 
L 59.523868 127.172537 
L 59.523868 127.172537 
L 59.523868 126.742065 
L 59.523868 126.311593 
L 59.523868 126.311593 
L 59.523868 126.311593 
L 59.093396 126.311593 
L 58.662924 126.311593 
L 58.232452 126.742065 
L 57.80198 128.033481 
L 57.371508 128.894425 
L 57.80198 130.616313 
L 58.662924 131.046785 
L 59.523868 131.046785 
L 59.95434 130.616313 
L 60.815283 130.185841 
L 61.245755 129.755369 
" style="fill:none;stroke:#8c8c8c;stroke-linecap:square;"/>
   </g>
   <g id="line2d_50">
    <path clip-path="url(#pb2f51e20fb)" d="M 62.537171 127.603009 
L 62.537171 127.603009 
L 62.967643 127.603009 
L 62.967643 127.603009 
L 63.398115 128.463953 
L 63.828587 129.324897 
L 64.259059 130.185841 
L 64.259059 130.185841 
" style="fill:none;stroke:#8c8c8c;stroke-linecap:square;"/>
   </g>
   <g id="line2d_51">
    <path clip-path="url(#pb2f51e20fb)" d="M 63.398115 122.437346 
L 62.537171 121.14593 
L 62.537171 120.715458 
L 62.537171 120.715458 
L 62.537171 120.715458 
L 62.537171 120.715458 
" style="fill:none;stroke:#8c8c8c;stroke-linecap:square;"/>
   </g>
   <g id="line2d_52">
    <path clip-path="url(#pb2f51e20fb)" d="M 66.411419 124.589705 
L 66.411419 125.450649 
L 66.411419 125.881121 
L 66.841891 127.603009 
L 67.272363 128.894425 
L 68.133307 129.755369 
L 68.563779 129.755369 
L 68.994251 129.755369 
L 69.424723 129.324897 
L 69.855195 128.033481 
L 69.855195 127.603009 
L 69.424723 126.742065 
L 69.424723 125.881121 
L 69.424723 125.881121 
L 69.424723 125.881121 
L 69.424723 125.881121 
" style="fill:none;stroke:#8c8c8c;stroke-linecap:square;"/>
   </g>
   <g id="line2d_53">
    <path clip-path="url(#pb2f51e20fb)" d="M 71.577083 125.450649 
L 72.007555 125.450649 
L 72.438027 125.881121 
L 72.438027 126.311593 
L 73.298971 128.033481 
L 73.729443 128.463953 
L 73.729443 128.894425 
L 73.729443 128.894425 
L 73.729443 128.463953 
L 74.159914 127.603009 
L 74.159914 127.172537 
L 74.159914 126.311593 
L 74.590386 125.450649 
L 74.590386 125.020177 
L 75.45133 125.020177 
L 75.881802 125.881121 
L 76.312274 126.742065 
L 76.742746 126.742065 
L 76.742746 126.742065 
L 76.742746 125.881121 
L 77.173218 125.020177 
L 77.60369 123.728761 
L 77.60369 123.29829 
L 78.034162 123.29829 
L 78.895106 123.29829 
L 79.325578 124.589705 
L 79.75605 125.450649 
L 80.186522 126.311593 
L 80.186522 127.172537 
" style="fill:none;stroke:#8c8c8c;stroke-linecap:square;"/>
   </g>
   <g id="line2d_54">
    <path clip-path="url(#pb2f51e20fb)" d="M 87.935017 123.728761 
L 87.935017 124.159233 
L 87.935017 124.159233 
L 88.365489 124.159233 
L 89.226433 123.728761 
L 90.517849 123.29829 
L 91.378793 122.867818 
" style="fill:none;stroke:#8c8c8c;stroke-linecap:square;"/>
   </g>
   <g id="line2d_55">
    <path clip-path="url(#pb2f51e20fb)" d="M 96.544457 120.284986 
L 96.544457 120.284986 
L 96.544457 120.715458 
L 96.544457 120.715458 
L 96.544457 122.006874 
L 96.974929 122.867818 
L 96.974929 124.159233 
L 97.405401 126.311593 
L 97.405401 127.172537 
L 97.405401 127.172537 
L 97.405401 126.311593 
L 97.405401 125.020177 
L 96.974929 122.867818 
L 96.974929 118.99357 
L 96.974929 116.84121 
L 96.974929 116.84121 
L 97.405401 115.980266 
L 97.405401 115.549794 
L 98.696817 116.84121 
L 99.988232 119.424042 
L 100.849176 120.284986 
L 101.71012 122.006874 
L 103.432008 125.450649 
L 103.432008 125.450649 
" style="fill:none;stroke:#8c8c8c;stroke-linecap:square;"/>
   </g>
   <g id="line2d_56">
    <path clip-path="url(#pb2f51e20fb)" d="M 99.127289 124.159233 
L 99.127289 124.159233 
L 99.127289 124.159233 
L 99.988232 124.159233 
L 100.849176 123.728761 
L 102.571064 122.867818 
L 103.001536 122.867818 
L 103.432008 122.437346 
L 103.432008 122.437346 
" style="fill:none;stroke:#8c8c8c;stroke-linecap:square;"/>
   </g>
   <g id="line2d_57">
    <path clip-path="url(#pb2f51e20fb)" d="M 105.584368 116.410738 
L 105.584368 115.980266 
L 105.584368 115.980266 
L 105.153896 115.549794 
L 105.153896 115.549794 
L 105.153896 115.980266 
L 106.01484 117.702154 
L 106.875784 119.424042 
L 107.736728 121.14593 
L 108.1672 122.437346 
L 109.028144 123.728761 
L 109.028144 124.159233 
L 109.028144 124.159233 
" style="fill:none;stroke:#8c8c8c;stroke-linecap:square;"/>
   </g>
   <g id="line2d_58">
    <path clip-path="url(#pb2f51e20fb)" d="M 111.180504 122.006874 
L 111.180504 122.006874 
L 111.180504 122.006874 
L 111.180504 122.006874 
L 111.180504 122.437346 
L 111.180504 123.29829 
L 111.610976 123.29829 
L 112.47192 124.589705 
L 112.902392 124.589705 
L 113.763335 123.728761 
L 114.193807 122.867818 
L 114.193807 121.576402 
L 114.193807 121.14593 
L 113.763335 120.284986 
" style="fill:none;stroke:#8c8c8c;stroke-linecap:square;"/>
   </g>
   <g id="line2d_59">
    <path clip-path="url(#pb2f51e20fb)" d="M 116.346167 119.854514 
L 116.346167 119.854514 
L 116.346167 120.284986 
L 116.776639 121.576402 
L 117.207111 122.437346 
L 117.637583 123.29829 
L 118.068055 123.728761 
L 118.068055 123.728761 
L 118.068055 124.159233 
L 118.068055 123.29829 
L 118.068055 122.867818 
L 118.068055 122.006874 
L 118.498527 121.14593 
L 118.498527 120.715458 
L 118.928999 120.715458 
L 118.928999 120.715458 
L 119.359471 120.715458 
L 120.220415 122.867818 
L 120.650887 123.29829 
L 121.081359 123.29829 
L 121.081359 122.867818 
L 121.081359 122.437346 
L 121.081359 121.14593 
L 121.511831 119.854514 
L 121.511831 119.424042 
L 121.942303 118.99357 
L 122.372775 118.99357 
L 122.803247 118.99357 
L 123.233719 119.424042 
L 123.664191 120.284986 
L 124.525135 121.576402 
L 124.525135 122.006874 
L 124.525135 122.437346 
" style="fill:none;stroke:#8c8c8c;stroke-linecap:square;"/>
   </g>
   <g id="line2d_60">
    <path clip-path="url(#pb2f51e20fb)" d="M 126.247022 119.424042 
L 126.247022 119.424042 
L 126.677494 119.854514 
L 127.107966 120.284986 
L 127.96891 121.576402 
L 128.399382 122.006874 
L 128.399382 122.006874 
L 128.399382 122.006874 
" style="fill:none;stroke:#8c8c8c;stroke-linecap:square;"/>
   </g>
   <g id="line2d_61">
    <path clip-path="url(#pb2f51e20fb)" d="M 126.677494 115.980266 
L 125.816551 114.68885 
L 125.386079 113.827906 
L 125.386079 113.397434 
L 125.386079 112.966962 
L 125.386079 112.966962 
L 125.386079 112.966962 
" style="fill:none;stroke:#8c8c8c;stroke-linecap:square;"/>
   </g>
   <g id="line2d_62">
    <path clip-path="url(#pb2f51e20fb)" d="M 129.260326 115.980266 
L 129.260326 116.410738 
L 129.690798 116.84121 
L 130.12127 118.563098 
L 130.551742 119.854514 
L 130.982214 120.715458 
L 131.412686 121.14593 
L 131.412686 121.576402 
L 131.412686 121.14593 
L 131.412686 120.284986 
L 131.412686 119.854514 
L 131.843158 118.563098 
L 132.27363 118.132626 
L 132.704102 117.702154 
L 133.565046 117.702154 
L 133.995518 118.132626 
L 134.856462 118.99357 
L 134.856462 119.854514 
L 135.286934 120.284986 
L 135.286934 120.715458 
L 135.286934 120.715458 
" style="fill:none;stroke:#8c8c8c;stroke-linecap:square;"/>
   </g>
   <g id="line2d_63">
    <path clip-path="url(#pb2f51e20fb)" d="M 137.439294 117.271682 
L 137.869766 117.702154 
L 137.869766 117.702154 
L 138.300238 119.424042 
L 139.161182 120.284986 
L 139.591653 120.284986 
L 140.022125 120.715458 
L 141.313541 121.14593 
L 142.604957 120.284986 
L 142.604957 119.424042 
L 141.744013 118.132626 
L 141.744013 117.702154 
L 140.883069 116.84121 
L 140.883069 116.410738 
" style="fill:none;stroke:#8c8c8c;stroke-linecap:square;"/>
   </g>
   <g id="line2d_64">
    <path clip-path="url(#pb2f51e20fb)" d="M 146.048733 115.980266 
L 146.048733 115.980266 
L 146.048733 116.410738 
L 146.479205 116.410738 
L 146.909677 117.271682 
L 146.909677 118.132626 
L 147.340149 118.99357 
L 147.340149 118.99357 
L 147.770621 118.99357 
L 147.770621 118.99357 
L 147.770621 118.563098 
L 148.201093 117.702154 
L 148.631565 116.84121 
L 149.062037 115.980266 
L 149.492509 115.980266 
L 150.353453 116.84121 
L 151.214397 118.132626 
L 151.214397 118.563098 
L 151.644869 119.854514 
" style="fill:none;stroke:#8c8c8c;stroke-linecap:square;"/>
   </g>
   <g id="line2d_65">
    <path clip-path="url(#pb2f51e20fb)" d="M 90.948321 140.517168 
L 90.948321 140.517168 
L 90.948321 140.517168 
L 90.948321 140.517168 
L 91.378793 140.517168 
L 91.378793 140.94764 
L 91.809265 141.808584 
L 93.100681 144.391416 
L 93.961625 146.543776 
L 94.822569 149.126608 
L 95.253041 149.987551 
L 95.253041 150.418023 
" style="fill:none;stroke:#8c8c8c;stroke-linecap:square;"/>
   </g>
   <g id="line2d_66">
    <path clip-path="url(#pb2f51e20fb)" d="M 99.557761 146.974248 
L 99.557761 146.974248 
L 99.988232 146.974248 
L 99.988232 147.40472 
L 100.418704 147.835192 
L 100.849176 148.696136 
L 100.849176 149.126608 
L 100.849176 149.126608 
" style="fill:none;stroke:#8c8c8c;stroke-linecap:square;"/>
   </g>
   <g id="line2d_67">
    <path clip-path="url(#pb2f51e20fb)" d="M 99.127289 143.1 
L 99.127289 142.669528 
L 98.696817 142.239056 
L 98.696817 141.808584 
L 98.696817 141.378112 
L 98.696817 141.378112 
L 98.696817 141.378112 
" style="fill:none;stroke:#8c8c8c;stroke-linecap:square;"/>
   </g>
   <g id="line2d_68">
    <path clip-path="url(#pb2f51e20fb)" d="M 103.432008 144.821888 
L 103.432008 144.821888 
L 103.432008 145.25236 
L 103.86248 146.113304 
L 104.723424 147.835192 
L 105.153896 148.265664 
L 105.584368 149.126608 
L 105.584368 149.55708 
L 106.01484 149.55708 
L 106.01484 149.126608 
L 106.01484 147.40472 
L 106.445312 146.543776 
L 106.875784 145.25236 
L 107.306256 144.821888 
L 107.306256 144.391416 
L 107.736728 144.391416 
L 109.458616 145.25236 
L 110.31956 146.113304 
L 111.180504 146.974248 
L 111.180504 147.40472 
L 111.180504 147.40472 
" style="fill:none;stroke:#8c8c8c;stroke-linecap:square;"/>
   </g>
   <g id="line2d_69">
    <path clip-path="url(#pb2f51e20fb)" d="M 114.193807 142.239056 
L 114.193807 141.808584 
L 114.193807 141.808584 
L 113.763335 141.808584 
L 113.763335 141.808584 
L 113.332863 142.239056 
L 112.902392 143.1 
L 113.332863 144.821888 
L 113.332863 145.25236 
L 114.193807 146.113304 
L 115.485223 146.974248 
L 116.346167 146.974248 
L 116.776639 146.974248 
L 116.776639 146.974248 
L 117.207111 146.543776 
L 117.637583 145.25236 
L 117.637583 144.821888 
" style="fill:none;stroke:#8c8c8c;stroke-linecap:square;"/>
   </g>
   <g id="line2d_70">
    <path clip-path="url(#pb2f51e20fb)" d="M 116.776639 137.073392 
L 116.776639 137.073392 
L 116.776639 137.073392 
L 116.776639 137.073392 
L 117.207111 137.503864 
L 117.637583 138.364808 
L 118.068055 139.225752 
L 118.928999 141.808584 
L 119.789943 144.821888 
L 120.220415 145.682832 
L 120.650887 146.113304 
" style="fill:none;stroke:#8c8c8c;stroke-linecap:square;"/>
   </g>
   <g id="line2d_71">
    <path clip-path="url(#pb2f51e20fb)" d="M 121.511831 142.239056 
L 121.942303 142.239056 
L 121.942303 142.239056 
L 121.942303 142.239056 
L 121.942303 142.669528 
L 122.803247 143.960944 
L 123.233719 144.391416 
L 123.233719 144.821888 
L 124.525135 145.25236 
L 125.386079 145.25236 
L 125.816551 144.391416 
L 126.247022 143.1 
L 125.816551 141.378112 
L 124.955607 139.656224 
L 124.955607 139.225752 
L 124.955607 138.79528 
L 124.955607 138.79528 
" style="fill:none;stroke:#8c8c8c;stroke-linecap:square;"/>
   </g>
   <g id="line2d_72">
    <path clip-path="url(#pb2f51e20fb)" d="M 126.247022 139.225752 
L 126.677494 139.225752 
L 126.677494 139.225752 
L 126.677494 139.225752 
L 127.107966 139.225752 
L 127.107966 139.225752 
L 127.107966 139.225752 
L 127.107966 140.94764 
L 127.107966 141.378112 
L 127.538438 142.239056 
L 127.538438 142.239056 
L 128.399382 142.669528 
L 128.829854 142.669528 
L 129.690798 143.1 
L 130.982214 143.960944 
L 131.412686 144.391416 
L 131.843158 145.25236 
L 131.412686 146.543776 
L 130.982214 146.974248 
L 130.982214 146.974248 
L 130.982214 146.974248 
" style="fill:none;stroke:#8c8c8c;stroke-linecap:square;"/>
   </g>
   <g id="line2d_73">
    <path clip-path="url(#pb2f51e20fb)" d="M 135.286934 139.656224 
L 135.286934 140.086696 
L 135.286934 141.378112 
L 135.286934 143.1 
L 135.717406 143.960944 
L 135.717406 144.391416 
L 135.717406 144.391416 
L 135.717406 144.391416 
" style="fill:none;stroke:#8c8c8c;stroke-linecap:square;"/>
   </g>
   <g id="line2d_74">
    <path clip-path="url(#pb2f51e20fb)" d="M 134.856462 137.073392 
L 134.42599 136.212449 
L 134.42599 135.781977 
L 134.42599 135.351505 
L 134.42599 135.351505 
L 134.42599 135.351505 
" style="fill:none;stroke:#8c8c8c;stroke-linecap:square;"/>
   </g>
   <g id="line2d_75">
    <path clip-path="url(#pb2f51e20fb)" d="M 137.439294 137.934336 
L 137.439294 138.364808 
L 137.439294 139.225752 
L 137.439294 140.086696 
L 137.439294 141.378112 
L 138.300238 143.1 
L 138.73071 143.960944 
L 139.591653 144.391416 
L 140.452597 143.960944 
L 140.452597 143.530472 
L 140.883069 141.808584 
L 140.452597 140.94764 
L 140.022125 139.656224 
L 139.161182 139.656224 
L 139.161182 139.656224 
L 139.161182 139.656224 
L 138.73071 139.656224 
L 138.73071 139.656224 
" style="fill:none;stroke:#8c8c8c;stroke-linecap:square;"/>
   </g>
   <g id="line2d_76">
    <path clip-path="url(#pb2f51e20fb)" d="M 140.883069 140.086696 
L 141.744013 140.086696 
L 141.744013 140.086696 
L 142.604957 139.656224 
L 143.035429 139.656224 
L 143.465901 139.656224 
L 143.465901 139.656224 
L 144.326845 140.94764 
L 144.757317 142.239056 
L 144.757317 142.239056 
L 145.187789 143.1 
L 145.187789 142.669528 
L 145.618261 142.239056 
L 145.618261 141.808584 
L 146.048733 140.517168 
L 146.479205 140.086696 
L 146.479205 139.656224 
L 146.909677 139.656224 
L 147.340149 140.086696 
L 147.770621 140.94764 
L 148.201093 141.378112 
" style="fill:none;stroke:#8c8c8c;stroke-linecap:square;"/>
   </g>
   <g id="line2d_77">
    <path clip-path="url(#pb2f51e20fb)" d="M 152.936284 136.64292 
L 152.936284 136.212449 
L 152.936284 135.781977 
L 152.936284 135.781977 
L 152.936284 135.351505 
L 152.075341 135.781977 
L 151.644869 136.212449 
L 151.644869 136.64292 
L 151.644869 137.073392 
L 151.644869 137.503864 
L 151.644869 137.503864 
L 152.505812 138.364808 
L 153.366756 139.225752 
L 153.797228 140.086696 
L 154.2277 141.378112 
L 153.797228 141.808584 
L 153.797228 141.808584 
" style="fill:none;stroke:#8c8c8c;stroke-linecap:square;"/>
   </g>
   <g id="line2d_78">
    <path clip-path="url(#pb2f51e20fb)" d="M 91.378793 140.086696 
L 91.378793 140.086696 
L 91.378793 140.086696 
L 91.378793 140.086696 
L 90.948321 140.086696 
L 90.948321 140.517168 
L 90.948321 140.517168 
L 90.948321 140.517168 
L 90.948321 140.94764 
L 90.948321 141.378112 
L 90.517849 141.808584 
L 90.517849 142.239056 
L 91.378793 142.669528 
L 91.378793 142.669528 
L 91.378793 142.669528 
L 91.809265 143.1 
L 92.239737 143.1 
L 92.239737 143.1 
L 92.239737 143.530472 
L 92.239737 143.960944 
L 92.239737 143.960944 
L 92.239737 144.391416 
L 92.670209 144.391416 
L 93.100681 144.821888 
L 93.100681 144.821888 
L 93.531153 144.821888 
L 93.531153 145.25236 
L 93.531153 145.682832 
L 93.531153 146.113304 
L 93.531153 146.543776 
L 93.531153 146.543776 
L 93.531153 146.974248 
L 93.961625 146.974248 
L 93.961625 147.40472 
L 93.961625 147.40472 
L 93.961625 147.40472 
L 93.961625 147.835192 
L 93.961625 148.265664 
L 93.531153 148.696136 
L 93.961625 149.126608 
L 93.961625 149.126608 
L 94.392097 149.55708 
L 94.392097 149.55708 
L 94.822569 149.55708 
L 94.822569 149.55708 
L 94.822569 149.987551 
L 94.822569 150.418023 
L 94.822569 150.848495 
L 94.392097 150.848495 
L 94.392097 151.278967 
L 94.392097 151.278967 
L 94.392097 151.278967 
L 94.822569 151.278967 
L 94.822569 150.848495 
L 94.822569 150.848495 
L 94.822569 150.848495 
L 94.822569 150.848495 
L 94.392097 150.848495 
L 94.392097 150.848495 
L 93.961625 150.848495 
L 93.961625 150.848495 
L 93.531153 150.848495 
L 93.531153 150.848495 
L 93.531153 150.418023 
L 93.961625 149.987551 
L 94.392097 149.126608 
L 94.392097 149.126608 
L 94.392097 148.696136 
L 93.961625 148.696136 
L 93.961625 148.696136 
L 93.531153 148.696136 
L 93.531153 148.696136 
L 93.531153 148.696136 
L 93.531153 148.696136 
L 93.531153 148.265664 
L 93.961625 147.835192 
L 93.961625 147.40472 
L 93.961625 147.40472 
L 93.961625 146.974248 
L 93.531153 146.974248 
L 93.100681 146.974248 
L 92.670209 146.974248 
L 92.670209 146.974248 
L 92.670209 146.974248 
L 92.670209 146.543776 
L 93.100681 146.113304 
L 93.100681 145.682832 
L 93.100681 145.25236 
L 93.100681 145.25236 
L 93.100681 144.821888 
L 92.670209 144.821888 
L 92.239737 144.821888 
L 92.239737 144.391416 
L 92.239737 144.391416 
L 92.239737 144.391416 
L 92.670209 143.530472 
L 92.670209 143.1 
L 92.239737 142.669528 
L 92.239737 142.239056 
L 91.809265 142.239056 
L 91.809265 141.808584 
L 91.809265 141.808584 
L 91.809265 141.378112 
L 91.809265 140.94764 
L 91.378793 140.086696 
L 91.378793 139.656224 
L 91.378793 139.225752 
L 90.948321 138.79528 
L 90.517849 138.364808 
L 90.517849 138.364808 
L 90.087377 138.364808 
L 89.656905 138.364808 
L 89.226433 138.364808 
L 89.226433 138.364808 
" style="fill:none;stroke:#8c8c8c;stroke-linecap:square;"/>
   </g>
   <g id="line2d_79">
    <path clip-path="url(#pb2f51e20fb)" d="M 36.708853 136.64292 
L 36.278381 137.073392 
L 36.278381 137.073392 
L 35.847909 137.073392 
L 35.847909 137.073392 
L 35.847909 137.073392 
L 35.847909 137.073392 
L 35.847909 137.073392 
L 36.278381 137.073392 
L 36.278381 137.073392 
L 36.708853 137.073392 
L 37.139325 137.073392 
L 38.000269 137.073392 
L 39.291685 136.64292 
L 39.722157 136.64292 
L 40.583101 136.64292 
L 40.583101 136.64292 
L 41.444045 136.212449 
L 41.874517 136.212449 
L 42.304989 135.781977 
L 43.165933 135.781977 
L 43.165933 135.781977 
L 43.165933 135.781977 
L 43.165933 135.781977 
L 42.735461 136.212449 
L 41.013573 137.073392 
L 39.291685 137.503864 
L 38.000269 137.503864 
L 37.569797 137.503864 
L 37.139325 137.503864 
L 37.139325 137.934336 
L 37.139325 137.934336 
L 38.430741 137.503864 
L 40.583101 137.073392 
L 41.444045 137.073392 
L 42.304989 136.64292 
L 42.735461 136.64292 
L 42.735461 136.64292 
L 42.304989 136.64292 
L 41.013573 136.64292 
L 38.861213 137.073392 
L 38.430741 137.503864 
L 38.000269 137.503864 
L 37.569797 137.503864 
L 37.569797 137.503864 
L 37.569797 137.503864 
" style="fill:none;stroke:#8c8c8c;stroke-linecap:square;"/>
   </g>
   <g id="line2d_80">
    <path clip-path="url(#pb2f51e20fb)" d="M 97.405401 131.046785 
L 97.405401 131.046785 
L 97.405401 131.046785 
L 97.405401 131.046785 
L 97.405401 131.046785 
L 97.405401 131.046785 
L 97.405401 131.046785 
L 98.696817 131.046785 
L 99.988232 130.616313 
L 101.71012 130.616313 
L 101.71012 130.616313 
L 102.571064 130.616313 
L 103.001536 130.616313 
L 103.001536 130.616313 
L 102.571064 130.616313 
L 102.571064 130.616313 
L 100.849176 131.046785 
L 99.988232 131.477257 
L 99.127289 131.907729 
L 98.696817 131.907729 
L 98.696817 131.907729 
L 98.696817 131.907729 
L 99.127289 131.907729 
L 100.418704 131.477257 
L 102.140592 131.046785 
L 102.571064 130.616313 
L 103.001536 130.185841 
L 103.432008 130.185841 
L 103.001536 130.185841 
L 102.571064 130.185841 
L 102.571064 130.185841 
" style="fill:none;stroke:#8c8c8c;stroke-linecap:square;"/>
   </g>
   <g id="line2d_81">
    <path clip-path="url(#pb2f51e20fb)" d="M 99.127289 155.153215 
L 99.127289 155.153215 
L 99.127289 155.153215 
L 99.557761 155.153215 
L 99.988232 155.153215 
L 100.418704 155.153215 
L 100.849176 155.153215 
L 101.279648 155.153215 
L 101.71012 155.153215 
L 101.71012 155.153215 
L 101.71012 155.153215 
L 101.71012 155.153215 
L 101.71012 155.153215 
L 101.279648 155.153215 
L 100.418704 155.153215 
L 99.988232 155.583687 
L 99.557761 155.583687 
L 99.557761 155.583687 
L 99.127289 155.583687 
L 99.127289 155.583687 
L 99.127289 155.583687 
L 99.557761 155.583687 
L 99.988232 155.583687 
L 101.71012 154.722743 
L 103.001536 153.861799 
L 103.001536 153.861799 
L 103.432008 153.861799 
L 103.432008 153.431327 
L 103.001536 153.431327 
L 103.001536 153.861799 
L 100.849176 154.722743 
L 100.418704 154.722743 
L 99.988232 155.153215 
L 99.557761 155.153215 
L 99.557761 155.153215 
L 101.279648 155.153215 
L 102.571064 154.722743 
L 103.001536 154.722743 
L 103.432008 154.722743 
L 103.432008 154.722743 
L 103.001536 154.722743 
L 103.001536 154.722743 
" style="fill:none;stroke:#8c8c8c;stroke-linecap:square;"/>
   </g>
   <g id="line2d_82">
    <path clip-path="url(#pb2f51e20fb)" d="M 162.406668 134.060089 
L 162.406668 134.060089 
L 162.406668 134.060089 
L 162.406668 134.060089 
L 162.406668 134.060089 
L 162.406668 134.060089 
L 161.976196 134.060089 
L 161.976196 134.060089 
L 161.976196 134.060089 
L 161.976196 134.060089 
L 162.406668 134.060089 
L 162.406668 134.060089 
" style="fill:none;stroke:#8c8c8c;stroke-linecap:square;"/>
   </g>
   <g id="line2d_83">
    <path clip-path="url(#pb2f51e20fb)" d="M 164.559028 138.79528 
L 164.559028 139.225752 
L 164.559028 139.656224 
L 164.559028 139.656224 
L 164.559028 139.656224 
L 164.559028 139.656224 
L 164.559028 139.656224 
L 164.559028 139.656224 
" style="fill:none;stroke:#8c8c8c;stroke-linecap:square;"/>
   </g>
   <g id="line2d_84">
    <path clip-path="url(#pb2f51e20fb)" d="M 57.80198 178.829173 
L 57.80198 179.259645 
L 57.80198 179.259645 
L 57.80198 179.690117 
L 57.80198 179.690117 
L 57.80198 180.120589 
L 57.80198 180.551061 
L 57.80198 180.551061 
L 58.232452 181.412005 
L 58.232452 181.412005 
L 58.232452 181.842477 
L 58.232452 182.272949 
L 58.662924 182.272949 
L 58.232452 181.412005 
L 57.80198 179.690117 
L 57.371508 177.537757 
L 56.510564 174.093982 
L 56.080092 173.233038 
L 55.64962 171.941622 
L 55.64962 171.080678 
L 55.64962 170.650206 
L 55.64962 170.219734 
L 56.941036 168.928318 
L 58.232452 168.497846 
L 59.093396 168.067374 
L 59.523868 167.636902 
L 59.95434 167.636902 
" style="fill:none;stroke:#8c8c8c;stroke-linecap:square;"/>
   </g>
   <g id="line2d_85">
    <path clip-path="url(#pb2f51e20fb)" d="M 55.64962 176.246341 
L 55.64962 176.676813 
L 56.510564 177.107285 
L 57.371508 176.676813 
L 59.093396 176.246341 
L 60.384812 175.385398 
L 61.245755 174.093982 
" style="fill:none;stroke:#8c8c8c;stroke-linecap:square;"/>
   </g>
   <g id="line2d_86">
    <path clip-path="url(#pb2f51e20fb)" d="M 65.120003 174.524454 
L 65.120003 174.954926 
L 65.120003 176.246341 
L 65.550475 177.107285 
L 65.980947 177.968229 
" style="fill:none;stroke:#8c8c8c;stroke-linecap:square;"/>
   </g>
   <g id="line2d_87">
    <path clip-path="url(#pb2f51e20fb)" d="M 68.994251 174.954926 
L 68.994251 175.385398 
L 69.424723 175.815869 
L 69.424723 176.246341 
L 69.855195 176.676813 
L 70.285667 177.107285 
L 70.716139 177.537757 
L 70.716139 177.968229 
L 71.146611 177.968229 
L 71.146611 178.398701 
L 71.577083 178.829173 
L 71.577083 178.829173 
L 71.577083 178.398701 
L 71.146611 177.968229 
L 70.716139 176.246341 
L 70.716139 175.385398 
L 70.716139 174.954926 
L 70.716139 174.093982 
L 71.577083 172.802566 
L 71.577083 172.372094 
L 72.007555 172.372094 
" style="fill:none;stroke:#8c8c8c;stroke-linecap:square;"/>
   </g>
   <g id="line2d_88">
    <path clip-path="url(#pb2f51e20fb)" d="M 75.020858 170.650206 
L 75.020858 170.650206 
L 75.45133 170.650206 
L 75.45133 170.650206 
L 75.020858 171.080678 
L 75.020858 171.080678 
L 74.590386 171.941622 
L 74.590386 172.802566 
L 74.590386 172.802566 
L 75.020858 173.233038 
L 75.020858 173.66351 
L 76.312274 174.093982 
L 77.173218 174.524454 
L 77.60369 174.524454 
L 78.034162 174.954926 
L 78.034162 175.385398 
L 78.034162 176.676813 
L 78.034162 177.968229 
L 77.60369 178.398701 
" style="fill:none;stroke:#8c8c8c;stroke-linecap:square;"/>
   </g>
   <g id="line2d_89">
    <path clip-path="url(#pb2f51e20fb)" d="M 78.895106 170.219734 
L 78.895106 169.789262 
L 79.325578 169.789262 
L 79.325578 169.789262 
L 79.75605 169.789262 
L 80.186522 170.219734 
L 80.616994 171.080678 
L 82.338882 174.093982 
L 82.769354 174.954926 
L 82.769354 175.815869 
" style="fill:none;stroke:#8c8c8c;stroke-linecap:square;"/>
   </g>
   <g id="line2d_90">
    <path clip-path="url(#pb2f51e20fb)" d="M 80.186522 173.233038 
L 80.186522 173.233038 
L 80.186522 173.233038 
L 80.186522 173.233038 
L 81.047466 172.802566 
L 82.769354 172.372094 
L 84.491242 171.941622 
L 85.352186 171.941622 
" style="fill:none;stroke:#8c8c8c;stroke-linecap:square;"/>
   </g>
   <g id="line2d_91">
    <path clip-path="url(#pb2f51e20fb)" d="M 101.71012 171.080678 
L 101.71012 171.080678 
L 101.279648 170.650206 
L 101.279648 170.650206 
L 100.849176 170.650206 
L 100.418704 170.650206 
L 100.418704 170.650206 
L 99.988232 171.941622 
L 99.988232 173.66351 
L 100.418704 175.385398 
L 101.279648 175.815869 
L 102.571064 175.385398 
L 103.432008 174.524454 
" style="fill:none;stroke:#8c8c8c;stroke-linecap:square;"/>
   </g>
   <g id="line2d_92">
    <path clip-path="url(#pb2f51e20fb)" d="M 106.445312 171.080678 
L 106.01484 171.080678 
L 106.01484 171.080678 
L 106.01484 171.51115 
L 105.584368 172.372094 
L 106.01484 172.802566 
L 106.445312 172.802566 
L 106.875784 172.802566 
L 106.875784 172.802566 
L 107.306256 171.941622 
L 107.306256 171.51115 
L 106.445312 170.650206 
L 105.584368 170.219734 
L 105.153896 170.219734 
L 104.292952 170.650206 
L 103.86248 171.080678 
" style="fill:none;stroke:#8c8c8c;stroke-linecap:square;"/>
   </g>
   <g id="line2d_93">
    <path clip-path="url(#pb2f51e20fb)" d="M 107.306256 169.789262 
L 107.736728 169.789262 
L 108.1672 170.219734 
L 109.028144 170.650206 
L 109.458616 170.650206 
L 109.889088 171.080678 
L 110.31956 171.51115 
L 110.31956 171.51115 
L 110.750032 171.080678 
L 110.750032 170.219734 
L 110.750032 169.789262 
L 111.180504 169.35879 
L 111.180504 169.35879 
L 111.610976 168.928318 
L 112.041448 169.35879 
L 112.902392 170.650206 
L 112.902392 171.080678 
L 113.332863 171.51115 
L 113.332863 171.51115 
" style="fill:none;stroke:#8c8c8c;stroke-linecap:square;"/>
   </g>
   <g id="line2d_94">
    <path clip-path="url(#pb2f51e20fb)" d="M 116.776639 168.928318 
L 116.776639 168.497846 
L 116.776639 168.067374 
L 117.207111 168.067374 
L 117.207111 168.067374 
L 116.776639 167.636902 
L 116.776639 167.636902 
L 115.915695 168.067374 
L 115.915695 168.497846 
L 115.485223 168.928318 
L 115.915695 169.789262 
L 116.776639 170.219734 
L 117.207111 169.35879 
L 117.637583 168.497846 
L 118.068055 166.775958 
L 117.637583 165.05407 
L 117.207111 161.610295 
L 116.776639 160.749351 
L 116.776639 159.457935 
L 116.346167 159.027463 
L 116.776639 159.457935 
L 117.207111 161.179823 
L 117.637583 163.332182 
L 118.928999 166.345486 
L 119.789943 168.497846 
L 120.220415 169.35879 
L 120.650887 169.35879 
" style="fill:none;stroke:#8c8c8c;stroke-linecap:square;"/>
   </g>
   <g id="line2d_95">
    <path clip-path="url(#pb2f51e20fb)" d="M 122.372775 166.775958 
L 122.372775 166.775958 
L 122.372775 166.775958 
L 122.372775 166.775958 
L 122.372775 166.775958 
L 122.803247 166.775958 
L 123.233719 166.345486 
L 123.664191 165.915014 
L 124.525135 164.623598 
L 124.525135 163.762654 
L 124.525135 163.332182 
L 124.525135 162.90171 
L 124.094663 162.90171 
L 123.664191 162.90171 
L 122.803247 164.623598 
L 123.233719 165.915014 
L 123.233719 166.345486 
L 124.094663 167.636902 
L 124.955607 168.067374 
L 125.816551 167.636902 
L 126.247022 167.20643 
L 126.677494 166.345486 
L 127.107966 166.345486 
L 127.107966 165.915014 
L 127.538438 165.915014 
L 127.96891 165.915014 
L 128.399382 166.775958 
L 128.399382 167.20643 
L 128.829854 167.20643 
L 128.829854 167.20643 
L 128.829854 167.20643 
L 128.829854 165.484542 
L 128.829854 164.623598 
L 129.260326 163.332182 
L 129.690798 162.90171 
L 129.690798 162.90171 
L 130.12127 163.332182 
L 130.982214 164.623598 
L 131.412686 165.05407 
L 131.843158 165.484542 
L 131.843158 165.484542 
" style="fill:none;stroke:#8c8c8c;stroke-linecap:square;"/>
   </g>
   <g id="line2d_96">
    <path clip-path="url(#pb2f51e20fb)" d="M 134.856462 162.90171 
L 134.856462 162.471239 
L 135.286934 162.040767 
L 135.286934 162.040767 
L 135.286934 161.610295 
L 135.286934 162.040767 
L 134.856462 162.040767 
L 133.995518 162.471239 
L 133.995518 162.90171 
L 133.995518 162.90171 
L 133.995518 163.332182 
L 134.42599 163.332182 
L 134.856462 163.762654 
L 136.147878 165.05407 
L 136.57835 165.915014 
L 137.008822 166.775958 
L 137.008822 167.636902 
L 136.57835 168.497846 
L 136.147878 168.497846 
L 136.147878 168.497846 
" style="fill:none;stroke:#8c8c8c;stroke-linecap:square;"/>
   </g>
   <g id="line2d_97">
    <path clip-path="url(#pb2f51e20fb)" d="M 140.883069 164.193126 
L 140.883069 163.762654 
L 140.883069 163.332182 
L 140.883069 163.332182 
L 140.452597 163.332182 
L 140.022125 163.332182 
L 139.591653 163.332182 
L 139.161182 164.193126 
L 138.73071 165.05407 
L 138.73071 165.484542 
L 139.161182 165.915014 
L 140.022125 166.345486 
L 140.883069 165.484542 
L 141.744013 165.05407 
L 142.174485 163.762654 
L 142.174485 163.332182 
L 142.174485 162.471239 
L 142.174485 162.471239 
L 142.174485 162.040767 
L 142.604957 162.471239 
L 143.035429 163.332182 
L 143.035429 163.762654 
L 143.896373 165.484542 
L 144.326845 166.345486 
L 144.326845 166.345486 
L 144.326845 166.345486 
" style="fill:none;stroke:#8c8c8c;stroke-linecap:square;"/>
   </g>
   <g id="line2d_98">
    <path clip-path="url(#pb2f51e20fb)" d="M 146.048733 161.610295 
L 146.048733 160.749351 
L 146.048733 160.318879 
L 146.048733 159.888407 
L 146.048733 159.888407 
L 146.479205 160.318879 
L 146.909677 161.179823 
L 147.770621 162.90171 
L 148.201093 163.332182 
L 148.631565 164.623598 
L 148.631565 165.05407 
" style="fill:none;stroke:#8c8c8c;stroke-linecap:square;"/>
   </g>
   <g id="line2d_99">
    <path clip-path="url(#pb2f51e20fb)" d="M 146.909677 163.332182 
L 146.479205 163.332182 
L 146.479205 163.332182 
L 146.479205 162.90171 
L 146.479205 162.90171 
L 146.479205 162.90171 
L 146.909677 162.90171 
L 147.770621 162.471239 
L 148.201093 162.471239 
L 149.062037 162.040767 
L 149.062037 161.610295 
" style="fill:none;stroke:#8c8c8c;stroke-linecap:square;"/>
   </g>
   <g id="line2d_100">
    <path clip-path="url(#pb2f51e20fb)" d="M 151.214397 160.749351 
L 151.214397 160.318879 
L 151.644869 160.318879 
L 151.644869 160.318879 
L 152.075341 160.318879 
L 152.075341 160.749351 
L 152.505812 160.318879 
L 152.936284 160.318879 
L 153.797228 159.888407 
L 154.658172 159.027463 
L 154.658172 158.596991 
L 155.088644 158.166519 
L 154.658172 158.166519 
L 154.658172 158.166519 
L 154.658172 158.166519 
L 154.658172 158.166519 
L 154.658172 158.166519 
L 154.2277 159.027463 
L 153.797228 160.749351 
L 153.797228 161.179823 
L 154.2277 162.040767 
L 154.658172 162.471239 
L 155.519116 162.040767 
L 155.519116 162.040767 
L 155.949588 162.040767 
" style="fill:none;stroke:#8c8c8c;stroke-linecap:square;"/>
   </g>
   <g id="line2d_101">
    <path clip-path="url(#pb2f51e20fb)" d="M 159.393364 159.027463 
L 160.254308 157.736047 
L 160.254308 157.736047 
L 160.254308 157.305575 
L 160.254308 157.305575 
L 160.254308 156.875103 
L 159.823836 156.875103 
L 158.962892 156.875103 
L 158.53242 157.305575 
L 158.962892 158.166519 
L 159.823836 158.166519 
L 160.68478 158.596991 
L 162.406668 159.457935 
L 163.267612 160.318879 
L 163.698084 161.179823 
L 163.267612 162.040767 
L 162.83714 162.471239 
L 162.83714 162.90171 
" style="fill:none;stroke:#8c8c8c;stroke-linecap:square;"/>
   </g>
   <g id="line2d_102">
    <path clip-path="url(#pb2f51e20fb)" d="M 34.556494 214.127875 
L 34.556494 214.127875 
L 34.986965 214.127875 
L 34.986965 214.127875 
L 34.986965 214.127875 
L 34.986965 214.558347 
L 34.986965 214.558347 
L 34.986965 214.988818 
L 35.847909 216.280234 
L 35.847909 217.141178 
L 36.278381 217.57165 
L 36.708853 218.863066 
L 36.708853 220.154482 
L 37.139325 220.584954 
L 37.139325 221.015426 
L 36.708853 220.154482 
L 35.417437 214.988818 
L 34.986965 212.836459 
L 34.986965 211.114571 
L 34.986965 210.684099 
L 34.986965 210.253627 
L 35.417437 210.253627 
L 36.278381 210.684099 
L 37.569797 211.975515 
L 38.000269 212.405987 
L 38.430741 212.836459 
L 38.861213 213.266931 
L 38.861213 212.836459 
L 38.861213 211.545043 
L 38.861213 210.684099 
L 38.430741 207.670795 
L 38.430741 206.809851 
L 38.861213 206.379379 
L 39.722157 206.809851 
L 40.583101 207.670795 
L 42.304989 210.684099 
L 42.735461 212.836459 
L 43.596405 215.41929 
L 44.457349 217.57165 
L 44.887821 219.293538 
L 44.887821 219.72401 
L 44.887821 219.72401 
L 44.457349 219.72401 
L 44.457349 219.72401 
" style="fill:none;stroke:#8c8c8c;stroke-linecap:square;"/>
   </g>
   <g id="line2d_103">
    <path clip-path="url(#pb2f51e20fb)" d="M 25.516582 219.293538 
L 25.516582 219.293538 
L 25.516582 219.72401 
L 25.516582 220.154482 
L 25.516582 220.584954 
L 25.516582 221.015426 
L 25.516582 221.87637 
L 25.516582 221.87637 
L 25.516582 222.306842 
L 25.516582 222.306842 
L 25.516582 221.445898 
L 25.516582 221.445898 
L 25.08611 219.293538 
L 24.225166 216.710706 
L 22.503278 211.545043 
L 22.503278 210.253627 
L 22.072806 208.101267 
L 22.503278 207.670795 
L 23.794694 208.531739 
L 25.08611 209.392683 
L 27.23847 211.975515 
L 29.821302 214.988818 
L 30.682246 216.710706 
L 31.54319 218.002122 
L 32.404134 219.72401 
L 32.404134 220.154482 
L 32.404134 220.154482 
" style="fill:none;stroke:#8c8c8c;stroke-linecap:square;"/>
   </g>
   <g id="line2d_104">
    <path clip-path="url(#pb2f51e20fb)" d="M 25.947054 218.002122 
L 25.947054 218.002122 
L 25.947054 218.002122 
L 25.947054 218.002122 
L 27.668942 218.002122 
L 29.821302 217.141178 
L 31.973662 216.280234 
L 32.404134 215.849762 
" style="fill:none;stroke:#8c8c8c;stroke-linecap:square;"/>
   </g>
   <g id="line2d_105">
    <path clip-path="url(#pb2f51e20fb)" d="M 52.205844 214.127875 
L 52.205844 214.127875 
L 51.775372 214.127875 
L 51.775372 214.127875 
L 51.775372 214.127875 
L 51.775372 214.127875 
L 51.775372 214.127875 
L 51.3449 214.127875 
L 51.3449 214.127875 
L 51.775372 213.697403 
L 53.066788 212.405987 
L 54.358204 210.253627 
L 54.358204 210.253627 
L 54.358204 208.101267 
L 53.927732 207.240323 
L 53.49726 207.240323 
L 53.066788 207.240323 
L 52.205844 208.101267 
L 51.775372 209.823155 
L 52.205844 213.266931 
L 53.49726 215.41929 
L 55.219148 216.280234 
L 57.371508 215.849762 
L 58.662924 214.558347 
L 58.662924 214.127875 
L 59.093396 214.127875 
" style="fill:none;stroke:#8c8c8c;stroke-linecap:square;"/>
   </g>
   <g id="line2d_106">
    <path clip-path="url(#pb2f51e20fb)" d="M 56.080092 200.783244 
L 56.080092 200.783244 
L 56.080092 200.783244 
L 56.080092 200.783244 
L 56.080092 201.213716 
L 56.510564 201.644188 
L 57.371508 202.505131 
L 58.662924 204.657491 
L 60.384812 208.101267 
L 61.245755 208.962211 
L 62.537171 211.545043 
L 62.537171 211.975515 
L 62.967643 212.405987 
L 62.967643 211.545043 
L 62.537171 209.823155 
L 62.537171 208.531739 
L 63.398115 206.379379 
L 63.828587 205.087963 
L 65.120003 204.227019 
L 65.980947 204.227019 
L 66.411419 204.657491 
L 67.702835 205.518435 
L 68.563779 207.670795 
L 68.994251 208.531739 
L 68.563779 209.823155 
L 65.980947 212.405987 
L 63.398115 212.836459 
L 61.676227 211.545043 
L 61.676227 211.545043 
L 61.676227 211.114571 
" style="fill:none;stroke:#8c8c8c;stroke-linecap:square;"/>
   </g>
   <g id="line2d_107">
    <path clip-path="url(#pb2f51e20fb)" d="M 73.298971 204.227019 
L 73.298971 204.227019 
L 73.298971 204.227019 
L 73.298971 204.657491 
L 73.298971 204.657491 
L 72.868499 205.518435 
L 72.868499 207.240323 
L 72.868499 208.101267 
L 73.729443 209.823155 
L 75.45133 211.114571 
L 75.881802 211.114571 
L 76.742746 210.253627 
L 77.173218 208.531739 
L 77.173218 207.670795 
L 75.881802 205.087963 
L 75.45133 204.657491 
L 75.020858 204.227019 
L 74.159914 204.657491 
L 74.159914 204.657491 
L 74.159914 205.087963 
" style="fill:none;stroke:#8c8c8c;stroke-linecap:square;"/>
   </g>
   <g id="line2d_108">
    <path clip-path="url(#pb2f51e20fb)" d="M 79.325578 203.366075 
L 79.75605 203.366075 
L 80.186522 204.227019 
L 80.616994 204.657491 
L 81.047466 205.948907 
L 81.90841 207.670795 
L 82.338882 208.101267 
L 82.338882 208.531739 
L 82.338882 208.962211 
" style="fill:none;stroke:#8c8c8c;stroke-linecap:square;"/>
   </g>
   <g id="line2d_109">
    <path clip-path="url(#pb2f51e20fb)" d="M 80.186522 202.505131 
L 79.75605 200.783244 
L 79.325578 199.9223 
L 79.325578 199.491828 
L 79.325578 199.061356 
L 79.325578 199.061356 
L 79.325578 199.061356 
" style="fill:none;stroke:#8c8c8c;stroke-linecap:square;"/>
   </g>
   <g id="line2d_110">
    <path clip-path="url(#pb2f51e20fb)" d="M 90.948321 201.644188 
L 91.378793 202.074659 
L 91.378793 202.074659 
L 91.378793 202.074659 
L 90.948321 202.505131 
L 90.517849 203.796547 
L 90.087377 205.087963 
L 89.656905 208.101267 
L 89.656905 208.531739 
L 90.087377 209.392683 
L 90.517849 209.392683 
L 90.948321 208.531739 
L 91.378793 207.670795 
L 91.809265 205.948907 
L 91.378793 199.491828 
L 90.517849 196.478524 
L 90.517849 196.048052 
L 90.087377 195.187108 
L 90.087377 195.187108 
L 90.517849 196.048052 
L 90.948321 197.339468 
L 91.809265 200.352772 
L 93.100681 203.796547 
L 93.961625 205.518435 
L 95.683513 208.101267 
L 95.683513 208.101267 
L 95.683513 208.531739 
" style="fill:none;stroke:#8c8c8c;stroke-linecap:square;"/>
   </g>
   <g id="line2d_111">
    <path clip-path="url(#pb2f51e20fb)" d="M 101.71012 202.074659 
L 101.71012 202.074659 
L 102.140592 201.644188 
L 101.71012 201.644188 
L 101.71012 201.213716 
L 101.71012 201.213716 
L 101.279648 201.213716 
L 100.418704 201.213716 
L 99.557761 202.074659 
L 98.696817 203.366075 
L 98.266345 203.796547 
L 98.266345 205.518435 
L 98.696817 205.948907 
L 99.127289 205.948907 
L 100.418704 204.657491 
L 101.279648 203.366075 
L 101.71012 202.505131 
L 101.71012 201.213716 
L 102.140592 200.783244 
L 102.140592 200.352772 
L 102.140592 200.352772 
L 102.140592 200.352772 
L 102.571064 201.213716 
L 103.001536 202.074659 
L 103.86248 204.227019 
L 104.292952 205.518435 
L 104.723424 205.948907 
L 105.153896 206.809851 
L 105.153896 206.809851 
L 105.153896 206.809851 
" style="fill:none;stroke:#8c8c8c;stroke-linecap:square;"/>
   </g>
   <g id="line2d_112">
    <path clip-path="url(#pb2f51e20fb)" d="M 105.584368 195.61758 
L 105.153896 194.756636 
L 105.153896 193.895692 
L 105.153896 193.034748 
L 105.153896 193.034748 
L 105.153896 193.034748 
L 105.584368 193.034748 
L 105.584368 193.895692 
L 106.445312 195.187108 
L 108.1672 198.630884 
L 109.028144 200.783244 
L 110.31956 203.366075 
L 110.750032 204.657491 
L 111.180504 205.518435 
L 111.610976 206.379379 
L 111.610976 206.379379 
" style="fill:none;stroke:#8c8c8c;stroke-linecap:square;"/>
   </g>
   <g id="line2d_113">
    <path clip-path="url(#pb2f51e20fb)" d="M 128.829854 194.756636 
L 128.829854 194.756636 
L 128.829854 194.326164 
L 128.829854 194.326164 
L 128.399382 194.326164 
L 127.96891 194.326164 
L 127.538438 195.187108 
L 127.107966 196.478524 
L 127.107966 196.908996 
L 127.538438 198.630884 
L 128.829854 201.644188 
L 129.690798 202.935603 
L 131.412686 203.796547 
L 133.134574 202.935603 
L 134.42599 199.491828 
L 134.42599 196.478524 
L 134.42599 194.756636 
L 133.565046 193.46522 
L 131.843158 192.173804 
L 130.551742 192.173804 
L 129.260326 192.604276 
L 128.829854 193.46522 
L 128.399382 193.895692 
" style="fill:none;stroke:#8c8c8c;stroke-linecap:square;"/>
   </g>
   <g id="line2d_114">
    <path clip-path="url(#pb2f51e20fb)" d="M 137.439294 191.31286 
L 137.439294 191.31286 
L 137.439294 191.31286 
L 137.439294 191.31286 
L 137.439294 191.31286 
L 138.300238 192.604276 
L 139.161182 194.326164 
L 140.452597 196.908996 
L 141.744013 198.630884 
L 142.174485 199.491828 
L 142.604957 199.9223 
L 142.604957 200.352772 
L 142.604957 200.783244 
L 143.035429 200.783244 
" style="fill:none;stroke:#8c8c8c;stroke-linecap:square;"/>
   </g>
   <g id="line2d_115">
    <path clip-path="url(#pb2f51e20fb)" d="M 144.757317 196.478524 
L 145.187789 196.048052 
L 145.187789 196.478524 
L 146.048733 196.908996 
L 146.479205 197.339468 
L 146.479205 197.339468 
" style="fill:none;stroke:#8c8c8c;stroke-linecap:square;"/>
   </g>
   <g id="line2d_116">
    <path clip-path="url(#pb2f51e20fb)" d="M 144.757317 190.882388 
L 144.757317 190.451916 
L 144.326845 190.021444 
L 144.326845 189.590972 
L 144.757317 189.590972 
L 144.757317 189.590972 
" style="fill:none;stroke:#8c8c8c;stroke-linecap:square;"/>
   </g>
   <g id="line2d_117">
    <path clip-path="url(#pb2f51e20fb)" d="M 148.201093 190.882388 
L 148.201093 191.31286 
L 148.201093 191.31286 
L 148.201093 191.31286 
L 148.201093 191.743332 
L 148.631565 191.743332 
L 149.062037 193.034748 
L 149.922981 193.895692 
L 151.214397 195.61758 
L 152.936284 197.339468 
L 153.366756 197.339468 
L 154.2277 197.339468 
L 154.2277 196.478524 
L 154.2277 194.326164 
L 153.797228 192.604276 
L 153.366756 190.882388 
L 152.936284 189.590972 
L 152.936284 189.590972 
" style="fill:none;stroke:#8c8c8c;stroke-linecap:square;"/>
   </g>
   <g id="line2d_118">
    <path clip-path="url(#pb2f51e20fb)" d="M 155.949588 190.451916 
L 156.38006 190.882388 
L 157.241004 192.173804 
L 157.671476 193.034748 
L 158.101948 194.756636 
L 158.53242 195.187108 
L 158.53242 195.187108 
L 158.101948 195.187108 
" style="fill:none;stroke:#8c8c8c;stroke-linecap:square;"/>
   </g>
   <g id="line2d_119">
    <path clip-path="url(#pb2f51e20fb)" d="M 156.38006 187.869085 
L 156.38006 187.008141 
L 156.38006 186.577669 
L 156.38006 186.577669 
L 156.38006 186.577669 
" style="fill:none;stroke:#8c8c8c;stroke-linecap:square;"/>
   </g>
   <g id="line2d_120">
    <path clip-path="url(#pb2f51e20fb)" d="M 159.823836 188.730029 
L 160.254308 189.1605 
L 160.68478 190.021444 
L 161.115252 191.31286 
L 161.115252 192.173804 
L 161.976196 193.46522 
L 161.976196 193.895692 
L 162.406668 193.895692 
L 162.406668 194.326164 
L 162.83714 193.46522 
L 163.267612 193.034748 
L 163.698084 191.743332 
L 164.559028 191.31286 
L 164.559028 191.31286 
L 165.850443 192.173804 
L 166.711387 192.604276 
L 167.141859 193.034748 
L 167.141859 193.034748 
L 167.141859 193.46522 
" style="fill:none;stroke:#8c8c8c;stroke-linecap:square;"/>
   </g>
   <g id="line2d_121">
    <path clip-path="url(#pb2f51e20fb)" d="M 168.433275 193.46522 
L 168.433275 193.034748 
L 169.294219 192.604276 
L 169.724691 191.743332 
L 170.155163 190.882388 
L 170.585635 190.021444 
L 171.016107 188.299557 
L 170.585635 187.438613 
L 170.155163 186.577669 
L 169.724691 186.147197 
L 168.863747 186.577669 
L 168.002803 188.299557 
L 168.002803 188.730029 
L 168.002803 189.1605 
L 172.737995 194.326164 
L 174.890355 195.61758 
L 177.903659 195.61758 
L 178.334131 195.187108 
" style="fill:none;stroke:#8c8c8c;stroke-linecap:square;"/>
   </g>
   <g id="line2d_122">
    <path clip-path="url(#pb2f51e20fb)" d="M 39.291685 239.525721 
L 39.291685 239.525721 
L 39.291685 239.525721 
L 39.291685 239.525721 
L 39.291685 239.525721 
L 39.722157 240.386665 
L 39.722157 241.67808 
L 41.013573 244.691384 
L 41.013573 245.9828 
L 41.444045 246.413272 
L 41.444045 246.843744 
L 41.444045 246.843744 
L 41.013573 245.552328 
L 40.152629 243.399968 
L 38.430741 238.234305 
L 38.430741 236.942889 
L 38.430741 236.512417 
L 38.430741 236.081945 
L 38.861213 236.081945 
L 41.013573 236.942889 
L 42.304989 237.803833 
L 44.026877 239.956193 
L 45.748765 243.399968 
L 46.609709 244.260912 
L 47.040181 245.121856 
L 47.040181 245.121856 
" style="fill:none;stroke:#8c8c8c;stroke-linecap:square;"/>
   </g>
   <g id="line2d_123">
    <path clip-path="url(#pb2f51e20fb)" d="M 41.444045 243.399968 
L 41.013573 243.399968 
L 41.013573 243.399968 
L 41.444045 243.83044 
L 42.304989 243.83044 
L 42.735461 244.260912 
L 44.887821 243.83044 
L 45.318293 243.83044 
L 45.748765 243.83044 
" style="fill:none;stroke:#8c8c8c;stroke-linecap:square;"/>
   </g>
   <g id="line2d_124">
    <path clip-path="url(#pb2f51e20fb)" d="M 51.775372 240.817137 
L 51.775372 240.817137 
L 52.205844 240.386665 
L 52.205844 240.386665 
L 52.205844 240.386665 
L 52.205844 240.386665 
L 51.775372 239.956193 
L 51.3449 240.386665 
L 51.3449 241.247608 
L 50.914428 242.539024 
L 51.775372 244.691384 
L 51.775372 244.691384 
L 52.636316 244.691384 
L 53.066788 243.83044 
L 53.066788 242.539024 
L 52.636316 240.817137 
L 52.636316 240.817137 
L 52.636316 240.386665 
L 53.066788 240.386665 
L 53.49726 240.386665 
L 54.358204 241.247608 
L 56.080092 243.399968 
L 57.80198 245.9828 
L 57.80198 246.843744 
L 57.371508 249.426576 
L 57.371508 249.857048 
L 55.219148 250.717992 
L 54.788676 250.717992 
L 54.358204 250.28752 
" style="fill:none;stroke:#8c8c8c;stroke-linecap:square;"/>
   </g>
   <g id="line2d_125">
    <path clip-path="url(#pb2f51e20fb)" d="M 58.662924 239.095249 
L 58.662924 239.095249 
L 58.662924 238.664777 
L 58.662924 238.664777 
L 58.662924 238.664777 
L 58.662924 238.234305 
L 58.662924 238.234305 
L 58.662924 237.803833 
L 58.232452 237.803833 
L 57.80198 238.664777 
L 57.80198 239.095249 
L 57.80198 240.386665 
L 58.232452 241.247608 
L 58.232452 241.247608 
L 58.662924 241.67808 
L 59.093396 241.67808 
L 59.093396 241.67808 
L 59.95434 241.247608 
L 60.384812 240.817137 
L 60.815283 240.386665 
L 60.815283 239.525721 
L 60.815283 238.664777 
L 60.815283 238.234305 
L 61.245755 238.234305 
L 62.106699 239.095249 
L 62.537171 239.956193 
L 64.259059 242.108552 
L 65.120003 244.691384 
L 65.120003 245.9828 
L 64.689531 247.274216 
L 63.828587 248.13516 
L 61.245755 248.996104 
L 60.384812 248.565632 
L 59.95434 248.13516 
" style="fill:none;stroke:#8c8c8c;stroke-linecap:square;"/>
   </g>
   <g id="line2d_126">
    <path clip-path="url(#pb2f51e20fb)" d="M 62.537171 237.803833 
L 62.967643 237.803833 
L 62.967643 237.803833 
L 63.828587 237.803833 
L 65.550475 238.664777 
L 66.411419 239.095249 
L 67.702835 239.525721 
L 68.133307 239.956193 
L 68.133307 239.956193 
L 68.133307 239.525721 
L 67.702835 239.095249 
L 67.702835 238.234305 
L 67.702835 237.373361 
L 67.702835 236.942889 
L 67.702835 236.512417 
L 68.133307 236.512417 
L 68.133307 236.081945 
" style="fill:none;stroke:#8c8c8c;stroke-linecap:square;"/>
   </g>
   <g id="line2d_127">
    <path clip-path="url(#pb2f51e20fb)" d="M 70.285667 236.081945 
L 70.285667 236.081945 
L 70.716139 236.081945 
L 70.716139 236.512417 
L 71.146611 236.512417 
L 72.007555 236.081945 
L 72.438027 235.651473 
L 72.438027 235.221001 
L 72.438027 234.790529 
L 72.438027 234.790529 
L 71.577083 235.221001 
L 71.146611 235.651473 
L 70.716139 236.512417 
L 70.716139 237.803833 
L 70.716139 238.664777 
L 72.007555 239.956193 
L 73.298971 239.956193 
L 73.729443 239.525721 
L 74.159914 238.664777 
L 74.159914 238.664777 
" style="fill:none;stroke:#8c8c8c;stroke-linecap:square;"/>
   </g>
   <g id="line2d_128">
    <path clip-path="url(#pb2f51e20fb)" d="M 75.881802 234.790529 
L 75.881802 233.929585 
L 75.881802 233.499113 
L 75.881802 233.068641 
L 75.881802 232.638169 
L 75.881802 233.068641 
L 76.742746 233.929585 
L 77.60369 234.790529 
L 78.464634 236.081945 
L 78.895106 237.373361 
L 79.325578 237.803833 
L 79.325578 237.803833 
" style="fill:none;stroke:#8c8c8c;stroke-linecap:square;"/>
   </g>
   <g id="line2d_129">
    <path clip-path="url(#pb2f51e20fb)" d="M 76.742746 235.221001 
L 76.742746 235.221001 
L 76.742746 235.221001 
L 76.312274 235.221001 
L 76.312274 235.221001 
L 76.742746 235.221001 
L 77.173218 234.790529 
L 78.034162 234.360057 
L 78.895106 233.929585 
L 79.325578 233.929585 
" style="fill:none;stroke:#8c8c8c;stroke-linecap:square;"/>
   </g>
   <g id="line2d_130">
    <path clip-path="url(#pb2f51e20fb)" d="M 82.338882 232.638169 
L 82.338882 232.638169 
L 82.338882 233.068641 
L 82.769354 233.068641 
L 83.199826 233.068641 
L 83.630298 232.638169 
L 84.921714 232.207697 
L 85.352186 231.777225 
L 85.352186 231.346753 
L 85.352186 230.916281 
L 85.352186 230.916281 
L 84.921714 230.485809 
L 84.491242 230.485809 
L 82.769354 232.207697 
L 82.338882 233.499113 
L 82.338882 235.221001 
L 82.769354 235.651473 
L 84.491242 236.081945 
L 86.643602 234.790529 
L 87.504545 234.790529 
" style="fill:none;stroke:#8c8c8c;stroke-linecap:square;"/>
   </g>
   <g id="line2d_131">
    <path clip-path="url(#pb2f51e20fb)" d="M 77.60369 235.221001 
L 77.60369 234.790529 
L 77.60369 234.790529 
L 77.60369 234.790529 
L 77.60369 234.790529 
L 77.173218 234.790529 
L 77.173218 235.221001 
L 76.742746 235.221001 
L 76.312274 235.651473 
L 76.312274 236.081945 
L 76.742746 237.373361 
L 77.173218 237.803833 
L 78.034162 238.234305 
L 78.034162 238.234305 
L 78.464634 238.234305 
L 78.464634 238.234305 
L 78.895106 237.803833 
L 78.895106 237.803833 
L 79.325578 237.373361 
L 79.325578 236.942889 
L 79.325578 236.512417 
L 79.325578 236.512417 
L 79.325578 236.081945 
L 79.325578 235.651473 
L 78.895106 235.221001 
L 78.895106 235.221001 
L 78.895106 235.221001 
L 78.895106 234.790529 
L 78.895106 234.790529 
L 80.186522 235.221001 
L 81.047466 236.081945 
L 83.630298 237.373361 
L 84.06077 238.234305 
L 84.921714 239.095249 
L 84.491242 240.386665 
L 83.630298 241.67808 
L 81.047466 243.399968 
L 80.616994 243.399968 
L 79.75605 242.969496 
L 79.75605 242.539024 
L 79.325578 242.539024 
" style="fill:none;stroke:#8c8c8c;stroke-linecap:square;"/>
   </g>
   <g id="line2d_132">
    <path clip-path="url(#pb2f51e20fb)" d="M 88.365489 232.207697 
L 88.365489 232.207697 
L 88.365489 232.207697 
L 87.935017 231.777225 
L 87.935017 231.346753 
L 87.935017 231.346753 
L 87.504545 230.916281 
L 87.074073 230.916281 
L 87.074073 231.346753 
L 85.782658 232.207697 
L 85.352186 232.638169 
L 84.491242 233.499113 
L 84.491242 233.929585 
L 84.491242 234.360057 
L 84.491242 234.790529 
L 85.352186 234.790529 
L 85.782658 234.790529 
L 87.074073 233.929585 
L 87.504545 233.499113 
L 87.504545 233.068641 
L 87.504545 232.638169 
L 86.643602 231.346753 
L 86.643602 231.346753 
L 86.643602 230.916281 
L 86.643602 230.916281 
L 86.643602 231.346753 
L 87.074073 231.777225 
L 87.504545 232.638169 
L 87.935017 233.068641 
L 88.795961 233.499113 
L 89.226433 234.360057 
L 90.087377 234.790529 
L 90.517849 234.790529 
L 90.517849 234.360057 
L 90.517849 234.360057 
" style="fill:none;stroke:#8c8c8c;stroke-linecap:square;"/>
   </g>
   <g id="line2d_133">
    <path clip-path="url(#pb2f51e20fb)" d="M 90.517849 228.333449 
L 90.517849 228.333449 
L 90.517849 227.902978 
L 90.517849 227.472506 
L 90.517849 227.472506 
L 90.517849 227.042034 
L 90.517849 227.042034 
L 91.378793 228.763921 
L 92.670209 230.485809 
L 93.100681 231.777225 
L 93.961625 233.068641 
L 93.961625 233.068641 
L 93.961625 233.499113 
" style="fill:none;stroke:#8c8c8c;stroke-linecap:square;"/>
   </g>
   <g id="line2d_134">
    <path clip-path="url(#pb2f51e20fb)" d="M 91.378793 231.346753 
L 91.378793 231.346753 
L 90.948321 230.916281 
L 90.948321 230.916281 
L 90.948321 230.916281 
L 90.948321 230.916281 
L 92.239737 230.055337 
L 93.100681 230.055337 
L 93.531153 229.624865 
L 95.253041 229.194393 
L 95.253041 229.194393 
" style="fill:none;stroke:#8c8c8c;stroke-linecap:square;"/>
   </g>
   <g id="line2d_135">
    <path clip-path="url(#pb2f51e20fb)" d="M 97.405401 228.333449 
L 97.835873 228.333449 
L 97.835873 228.763921 
L 98.266345 228.763921 
L 98.696817 228.763921 
L 99.127289 228.333449 
L 99.988232 227.902978 
L 100.418704 227.042034 
L 100.849176 226.18109 
L 100.849176 225.750618 
L 100.418704 225.320146 
L 100.418704 225.320146 
L 99.557761 226.18109 
L 98.696817 228.763921 
L 98.696817 230.055337 
L 99.127289 230.485809 
L 99.557761 230.916281 
L 100.418704 231.346753 
L 100.849176 231.346753 
L 101.71012 230.916281 
L 103.432008 229.624865 
L 104.292952 228.333449 
L 104.723424 227.472506 
L 105.584368 226.611562 
L 105.584368 226.18109 
L 105.584368 225.750618 
L 105.584368 225.750618 
L 105.584368 225.750618 
L 105.584368 225.750618 
L 105.153896 225.750618 
L 105.153896 226.18109 
L 104.723424 226.18109 
L 105.153896 226.611562 
L 105.153896 227.042034 
L 106.01484 227.472506 
L 107.736728 228.333449 
L 109.028144 229.194393 
L 109.889088 230.055337 
L 109.889088 230.485809 
L 109.458616 231.346753 
L 107.306256 231.777225 
L 106.875784 231.777225 
" style="fill:none;stroke:#8c8c8c;stroke-linecap:square;"/>
   </g>
   <g id="line2d_136">
    <path clip-path="url(#pb2f51e20fb)" d="M 114.193807 220.584954 
L 114.193807 220.584954 
L 114.193807 220.584954 
L 114.193807 221.015426 
L 114.193807 221.015426 
L 114.193807 221.015426 
L 114.193807 221.445898 
L 114.193807 221.445898 
L 114.193807 221.445898 
" style="fill:none;stroke:#8c8c8c;stroke-linecap:square;"/>
   </g>
   <g id="line2d_137">
    <path clip-path="url(#pb2f51e20fb)" d="M 115.485223 228.333449 
L 115.485223 228.763921 
L 115.485223 229.194393 
L 115.915695 229.624865 
L 115.915695 229.624865 
L 115.915695 230.055337 
L 115.915695 230.055337 
L 115.915695 230.055337 
L 115.915695 230.055337 
" style="fill:none;stroke:#8c8c8c;stroke-linecap:square;"/>
   </g>
   <g id="line2d_138">
    <path clip-path="url(#pb2f51e20fb)" d="M 305.753833 108.662243 
L 305.753833 108.231771 
L 305.753833 108.231771 
L 305.323361 108.231771 
L 305.323361 108.662243 
L 305.323361 108.662243 
L 304.892889 108.662243 
L 304.892889 109.092715 
L 304.462417 109.092715 
L 304.462417 109.523187 
L 304.462417 109.523187 
L 304.031945 109.953659 
L 304.031945 110.384131 
L 303.601473 110.814602 
L 303.601473 111.245074 
L 303.171001 111.675546 
L 303.171001 111.675546 
L 303.171001 112.53649 
L 303.171001 112.53649 
L 304.031945 113.397434 
L 304.031945 113.827906 
L 304.031945 113.827906 
L 304.462417 114.258378 
L 304.462417 114.68885 
L 304.462417 114.68885 
L 305.323361 115.549794 
L 305.323361 116.410738 
L 305.753833 116.410738 
L 305.753833 116.84121 
L 306.184305 116.84121 
L 306.184305 117.271682 
L 306.614777 117.271682 
L 306.614777 117.271682 
L 307.045249 117.702154 
L 307.475721 117.702154 
L 307.475721 117.702154 
L 308.336665 118.132626 
L 308.767137 118.132626 
L 308.767137 118.132626 
L 309.197608 118.563098 
L 311.349968 118.563098 
L 311.78044 118.99357 
L 311.78044 118.99357 
L 312.210912 118.99357 
L 312.641384 119.424042 
L 313.071856 119.424042 
L 313.071856 119.424042 
L 313.502328 119.854514 
L 313.502328 119.854514 
L 313.9328 119.854514 
L 314.363272 120.284986 
L 314.363272 120.284986 
L 314.793744 120.284986 
L 314.793744 120.284986 
L 315.224216 120.715458 
L 315.224216 120.715458 
L 315.654688 120.715458 
L 315.654688 120.715458 
L 316.515632 121.576402 
L 316.946104 121.576402 
L 316.946104 121.576402 
L 317.807048 120.715458 
L 317.807048 120.715458 
L 317.807048 120.284986 
L 318.667992 119.424042 
L 318.667992 118.99357 
L 318.667992 118.99357 
L 319.098464 118.563098 
L 319.098464 118.132626 
L 319.098464 118.132626 
L 319.528936 117.271682 
L 319.528936 117.271682 
L 319.528936 113.397434 
L 319.098464 112.966962 
L 319.098464 112.966962 
L 319.098464 110.814602 
L 318.667992 110.814602 
L 318.667992 110.384131 
L 317.376576 110.384131 
L 316.515632 109.953659 
L 315.224216 109.953659 
L 314.363272 109.092715 
L 313.502328 109.092715 
L 313.502328 109.523187 
L 312.210912 109.523187 
L 311.78044 109.953659 
L 310.489024 109.953659 
L 310.058552 110.384131 
L 307.045249 110.384131 
L 307.045249 110.384131 
" style="fill:none;stroke:#8c8c8c;stroke-linecap:square;"/>
   </g>
   <g id="line2d_139">
    <path clip-path="url(#pb2f51e20fb)" d="M 78.895106 254.161768 
L 78.895106 254.161768 
L 78.895106 253.731296 
L 78.895106 253.731296 
L 78.895106 253.300824 
L 78.895106 252.870352 
L 78.895106 252.870352 
L 78.895106 252.870352 
L 79.325578 252.870352 
L 79.325578 253.300824 
L 79.75605 254.161768 
L 81.90841 258.466487 
L 82.338882 259.327431 
L 83.199826 261.479791 
L 83.630298 261.910263 
" style="fill:none;stroke:#8c8c8c;stroke-linecap:square;"/>
   </g>
   <g id="line2d_140">
    <path clip-path="url(#pb2f51e20fb)" d="M 85.352186 252.43988 
L 85.352186 252.43988 
L 85.352186 252.009408 
L 84.921714 252.009408 
L 84.921714 252.43988 
L 84.921714 252.870352 
L 85.352186 253.731296 
L 85.352186 255.022711 
L 86.643602 256.744599 
L 88.795961 258.466487 
L 89.226433 258.466487 
L 89.656905 258.036015 
L 90.517849 257.605543 
L 90.517849 256.744599 
L 90.087377 255.022711 
L 88.365489 252.870352 
L 86.643602 252.43988 
L 86.643602 252.43988 
L 86.21313 252.870352 
" style="fill:none;stroke:#8c8c8c;stroke-linecap:square;"/>
   </g>
   <g id="line2d_141">
    <path clip-path="url(#pb2f51e20fb)" d="M 93.531153 252.009408 
L 93.531153 252.009408 
L 93.961625 251.578936 
L 93.961625 251.578936 
L 93.961625 251.148464 
L 94.392097 251.148464 
L 94.392097 251.148464 
L 94.392097 251.578936 
L 94.822569 252.870352 
L 95.253041 254.161768 
L 95.683513 254.592239 
L 96.974929 255.453183 
L 97.835873 255.883655 
L 98.696817 255.022711 
L 98.696817 252.009408 
L 97.835873 251.148464 
L 96.974929 250.717992 
L 96.113985 250.717992 
L 95.683513 251.148464 
L 95.683513 251.578936 
" style="fill:none;stroke:#8c8c8c;stroke-linecap:square;"/>
   </g>
   <g id="line2d_142">
    <path clip-path="url(#pb2f51e20fb)" d="M 58.662924 266.645455 
L 58.662924 266.214983 
L 58.662924 266.214983 
L 58.662924 266.214983 
L 59.093396 266.214983 
L 59.093396 266.214983 
L 59.95434 265.354039 
L 60.384812 264.062623 
L 60.815283 263.201679 
L 60.815283 263.201679 
L 61.245755 262.771207 
L 62.106699 261.479791 
L 62.537171 261.049319 
L 63.828587 261.910263 
L 64.259059 261.910263 
L 65.980947 263.632151 
L 68.133307 263.632151 
L 68.994251 262.771207 
L 68.994251 262.340735 
L 69.424723 261.910263 
L 69.424723 261.479791 
" style="fill:none;stroke:#8c8c8c;stroke-linecap:square;"/>
   </g>
   <g id="line2d_143">
    <path clip-path="url(#pb2f51e20fb)" d="M 111.180504 244.260912 
L 111.180504 244.260912 
L 111.180504 244.260912 
L 111.180504 244.260912 
L 111.180504 244.260912 
L 111.180504 243.83044 
L 110.750032 243.83044 
L 110.750032 243.83044 
L 110.750032 244.260912 
L 110.31956 244.260912 
L 110.31956 244.691384 
L 110.31956 245.121856 
L 110.750032 245.552328 
L 111.610976 245.121856 
L 112.041448 244.691384 
L 112.47192 244.260912 
L 112.47192 243.399968 
L 112.041448 242.969496 
L 111.610976 242.969496 
L 111.610976 243.399968 
L 111.180504 243.399968 
" style="fill:none;stroke:#8c8c8c;stroke-linecap:square;"/>
   </g>
   <g id="line2d_144">
    <path clip-path="url(#pb2f51e20fb)" d="M 124.525135 251.578936 
L 124.094663 251.578936 
L 124.094663 251.578936 
L 123.664191 251.148464 
L 123.664191 251.148464 
L 123.664191 250.717992 
L 123.233719 250.717992 
L 123.233719 250.717992 
L 123.233719 251.148464 
L 123.233719 251.578936 
L 123.233719 251.578936 
L 123.664191 251.578936 
L 123.664191 251.148464 
L 123.664191 250.717992 
L 123.233719 250.717992 
L 122.803247 250.717992 
L 122.803247 250.717992 
L 122.372775 250.717992 
L 122.372775 250.717992 
L 122.372775 250.717992 
" style="fill:none;stroke:#8c8c8c;stroke-linecap:square;"/>
   </g>
   <g id="line2d_145">
    <path clip-path="url(#pb2f51e20fb)" d="M 112.47192 256.314127 
L 112.47192 256.744599 
L 112.47192 257.175071 
L 112.47192 257.175071 
L 112.47192 257.175071 
L 114.193807 254.161768 
L 115.915695 251.578936 
L 121.511831 243.83044 
L 124.094663 240.386665 
L 124.525135 239.525721 
L 125.816551 238.234305 
L 126.247022 237.373361 
L 126.677494 237.373361 
L 126.247022 238.234305 
L 125.816551 238.234305 
" style="fill:none;stroke:#8c8c8c;stroke-linecap:square;"/>
   </g>
   <g id="line2d_146">
    <path clip-path="url(#pb2f51e20fb)" d="M 140.452597 244.691384 
L 140.022125 244.691384 
L 140.022125 244.260912 
L 139.591653 244.260912 
L 139.591653 243.83044 
L 139.161182 243.83044 
L 138.300238 244.691384 
L 137.869766 244.691384 
L 137.869766 246.413272 
L 138.300238 248.13516 
L 138.73071 248.13516 
L 140.883069 248.565632 
L 141.744013 248.13516 
L 142.604957 247.274216 
L 143.035429 244.691384 
L 142.604957 243.83044 
L 142.604957 243.83044 
L 140.883069 243.83044 
L 140.452597 244.260912 
L 140.022125 245.121856 
L 140.022125 245.121856 
" style="fill:none;stroke:#8c8c8c;stroke-linecap:square;"/>
   </g>
   <g id="line2d_147">
    <path clip-path="url(#pb2f51e20fb)" d="M 144.326845 236.512417 
L 144.326845 236.512417 
L 144.326845 236.081945 
L 144.326845 236.081945 
L 144.326845 236.081945 
L 144.757317 236.081945 
L 144.757317 236.942889 
L 146.048733 239.525721 
L 146.479205 240.386665 
L 146.909677 242.539024 
L 148.631565 246.843744 
L 148.631565 246.843744 
L 148.631565 247.274216 
L 149.062037 247.704688 
L 149.062037 247.704688 
" style="fill:none;stroke:#8c8c8c;stroke-linecap:square;"/>
   </g>
   <g id="line2d_148">
    <path clip-path="url(#pb2f51e20fb)" d="M 152.075341 241.67808 
L 152.505812 241.67808 
L 152.936284 242.108552 
L 153.366756 243.399968 
L 153.797228 243.83044 
L 153.797228 243.83044 
L 153.797228 243.83044 
" style="fill:none;stroke:#8c8c8c;stroke-linecap:square;"/>
   </g>
   <g id="line2d_149">
    <path clip-path="url(#pb2f51e20fb)" d="M 151.644869 236.512417 
L 150.783925 235.651473 
L 150.783925 235.221001 
L 150.783925 235.221001 
L 150.783925 235.221001 
" style="fill:none;stroke:#8c8c8c;stroke-linecap:square;"/>
   </g>
   <g id="line2d_150">
    <path clip-path="url(#pb2f51e20fb)" d="M 155.949588 237.803833 
L 156.38006 237.803833 
L 156.38006 238.234305 
L 156.38006 238.664777 
L 157.241004 239.525721 
L 158.101948 240.817137 
L 158.962892 242.108552 
L 160.254308 242.969496 
L 160.254308 242.969496 
L 160.68478 242.969496 
L 161.115252 242.108552 
L 161.115252 240.817137 
L 160.68478 239.525721 
L 160.68478 237.803833 
L 160.254308 236.942889 
L 160.254308 236.512417 
L 160.254308 236.512417 
L 160.254308 236.512417 
" style="fill:none;stroke:#8c8c8c;stroke-linecap:square;"/>
   </g>
   <g id="line2d_151">
    <path clip-path="url(#pb2f51e20fb)" d="M 163.698084 236.512417 
L 163.698084 236.512417 
L 164.128556 236.942889 
L 164.559028 237.373361 
L 164.9895 237.803833 
L 165.419971 238.664777 
L 165.419971 239.095249 
L 165.419971 239.095249 
L 165.419971 239.095249 
L 165.850443 239.095249 
" style="fill:none;stroke:#8c8c8c;stroke-linecap:square;"/>
   </g>
   <g id="line2d_152">
    <path clip-path="url(#pb2f51e20fb)" d="M 164.128556 232.638169 
L 163.267612 230.916281 
L 163.267612 230.485809 
L 163.267612 230.485809 
L 163.267612 230.485809 
L 163.267612 230.485809 
L 163.267612 230.485809 
L 163.267612 230.485809 
" style="fill:none;stroke:#8c8c8c;stroke-linecap:square;"/>
   </g>
   <g id="line2d_153">
    <path clip-path="url(#pb2f51e20fb)" d="M 169.294219 236.512417 
L 169.294219 236.942889 
L 169.724691 237.803833 
L 170.155163 238.234305 
L 170.155163 238.664777 
L 170.585635 238.664777 
L 170.585635 239.095249 
L 171.016107 238.664777 
L 171.016107 238.234305 
L 171.446579 237.373361 
L 171.877051 236.081945 
L 172.307523 235.651473 
L 172.737995 235.651473 
L 173.598939 236.081945 
L 174.029411 236.942889 
L 174.890355 238.234305 
L 175.320827 238.664777 
" style="fill:none;stroke:#8c8c8c;stroke-linecap:square;"/>
   </g>
   <g id="line2d_154">
    <path clip-path="url(#pb2f51e20fb)" d="M 178.764602 235.221001 
L 178.764602 235.221001 
L 178.764602 235.221001 
L 178.764602 235.221001 
L 178.764602 235.221001 
L 179.195074 234.790529 
L 179.625546 234.790529 
L 180.48649 233.929585 
L 180.916962 233.499113 
L 181.347434 233.068641 
L 181.347434 232.207697 
L 180.916962 231.777225 
L 180.48649 231.777225 
L 179.195074 232.207697 
L 178.764602 233.929585 
L 178.764602 234.790529 
L 180.48649 237.373361 
L 181.777906 238.234305 
L 183.930266 238.234305 
L 184.79121 238.234305 
L 185.221682 238.234305 
" style="fill:none;stroke:#8c8c8c;stroke-linecap:square;"/>
   </g>
  </g>
 </g>
 <defs>
  <clipPath id="pb2f51e20fb">
   <rect height="271.8" width="327.201742" x="7.2" y="7.2"/>
  </clipPath>
 </defs>
</svg>
