<?xml version="1.0" encoding="utf-8" standalone="no"?>
<!DOCTYPE svg PUBLIC "-//W3C//DTD SVG 1.1//EN"
  "http://www.w3.org/Graphics/SVG/1.1/DTD/svg11.dtd">
<!-- Created with matplotlib (https://matplotlib.org/) -->
<svg height="286.2pt" version="1.1" viewBox="0 0 567.270123 286.2" width="567.270123pt" xmlns="http://www.w3.org/2000/svg" xmlns:xlink="http://www.w3.org/1999/xlink">
 <metadata>
  <rdf:RDF xmlns:cc="http://creativecommons.org/ns#" xmlns:dc="http://purl.org/dc/elements/1.1/" xmlns:rdf="http://www.w3.org/1999/02/22-rdf-syntax-ns#">
   <cc:Work>
    <dc:type rdf:resource="http://purl.org/dc/dcmitype/StillImage"/>
    <dc:date>2024-11-15T16:03:52.309273</dc:date>
    <dc:format>image/svg+xml</dc:format>
    <dc:creator>
     <cc:Agent>
      <dc:title>Matplotlib v3.3.4, https://matplotlib.org/</dc:title>
     </cc:Agent>
    </dc:creator>
   </cc:Work>
  </rdf:RDF>
 </metadata>
 <defs>
  <style type="text/css">*{stroke-linecap:butt;stroke-linejoin:round;}</style>
 </defs>
 <g id="figure_1">
  <g id="patch_1">
   <path d="M 0 286.2 
L 567.270123 286.2 
L 567.270123 0 
L 0 0 
z
" style="fill:#ffffff;"/>
  </g>
  <g id="axes_1">
   <g id="line2d_1">
    <path clip-path="url(#pfcd0ce34b8)" d="M 60.309376 45.847985 
L 60.309376 46.18508 
L 60.309376 46.522175 
L 60.309376 46.859271 
L 60.309376 47.870557 
L 60.646472 49.556034 
L 60.983567 50.904415 
L 61.320662 53.264083 
L 61.657758 55.286655 
L 61.657758 57.309227 
L 61.994853 58.320513 
L 62.331948 58.320513 
" style="fill:none;stroke:#8c8c8c;stroke-linecap:square;"/>
   </g>
   <g id="line2d_2">
    <path clip-path="url(#pfcd0ce34b8)" d="M 63.68033 45.847985 
L 63.343235 46.18508 
L 63.68033 46.522175 
L 64.017425 46.522175 
L 65.028711 46.522175 
L 66.377093 46.522175 
L 67.388379 46.18508 
L 68.736761 46.18508 
L 69.410951 46.18508 
L 69.748047 46.18508 
L 70.085142 46.18508 
L 70.422237 46.18508 
L 70.759333 46.522175 
L 70.759333 47.196366 
L 70.759333 48.544748 
L 70.759333 50.56732 
L 70.759333 52.926987 
L 70.759333 54.275369 
L 71.096428 55.62375 
L 71.096428 56.297941 
L 71.433524 56.635037 
" style="fill:none;stroke:#8c8c8c;stroke-linecap:square;"/>
   </g>
   <g id="line2d_3">
    <path clip-path="url(#pfcd0ce34b8)" d="M 74.804477 49.893129 
L 74.804477 49.556034 
L 74.467382 49.556034 
L 74.467382 49.893129 
L 74.130286 50.56732 
L 74.130286 51.915701 
L 74.467382 53.264083 
L 75.141573 54.275369 
L 76.489954 55.286655 
L 77.838336 55.286655 
L 79.186717 54.612464 
L 80.198003 53.601178 
L 80.535099 52.252797 
L 80.198003 50.56732 
L 79.186717 49.218938 
L 77.838336 48.881843 
L 76.827049 48.881843 
L 75.815763 48.881843 
L 75.815763 49.218938 
" style="fill:none;stroke:#8c8c8c;stroke-linecap:square;"/>
   </g>
   <g id="line2d_4">
    <path clip-path="url(#pfcd0ce34b8)" d="M 85.591529 49.218938 
L 85.254434 48.881843 
L 84.917338 48.544748 
L 84.580243 48.544748 
L 84.243148 48.544748 
L 83.906052 48.881843 
L 83.231862 50.230224 
L 83.231862 51.578606 
L 83.568957 52.926987 
L 84.917338 53.938274 
L 86.602815 54.275369 
L 88.625388 53.601178 
L 89.636674 52.589892 
L 89.973769 51.241511 
L 89.636674 50.230224 
L 88.288292 48.881843 
L 86.602815 48.881843 
L 84.580243 49.218938 
L 83.568957 49.893129 
" style="fill:none;stroke:#8c8c8c;stroke-linecap:square;"/>
   </g>
   <g id="line2d_5">
    <path clip-path="url(#pfcd0ce34b8)" d="M 54.578755 65.062421 
L 54.241659 65.062421 
L 54.91585 65.062421 
L 57.612613 64.725326 
L 64.354521 63.714039 
L 72.781905 62.702753 
L 80.535099 62.028563 
L 86.26572 62.028563 
L 91.659246 62.365658 
L 94.693104 62.702753 
L 96.041486 62.702753 
" style="fill:none;stroke:#8c8c8c;stroke-linecap:square;"/>
   </g>
   <g id="line2d_6">
    <path clip-path="url(#pfcd0ce34b8)" d="M 62.669044 73.826901 
L 62.331948 73.826901 
L 62.331948 74.163996 
L 61.657758 74.163996 
L 61.320662 74.163996 
L 61.320662 74.501091 
L 61.320662 74.163996 
L 61.657758 74.163996 
L 63.006139 73.826901 
L 64.017425 74.163996 
L 65.365807 74.501091 
L 65.702902 74.838187 
L 66.039998 75.849473 
L 65.702902 76.523664 
L 65.028711 77.53495 
L 64.017425 78.209141 
L 64.017425 78.546236 
L 63.68033 78.546236 
L 64.017425 78.883331 
L 65.028711 79.557522 
L 66.039998 80.231713 
L 66.714188 81.580094 
L 67.051284 83.265571 
L 66.714188 84.613953 
L 65.365807 85.625239 
L 63.68033 85.625239 
L 61.657758 84.951048 
L 60.983567 83.939762 
L 60.983567 83.602667 
" style="fill:none;stroke:#8c8c8c;stroke-linecap:square;"/>
   </g>
   <g id="line2d_7">
    <path clip-path="url(#pfcd0ce34b8)" d="M 72.44481 75.849473 
L 72.107714 75.849473 
L 71.770619 76.186568 
L 71.770619 77.53495 
L 72.107714 79.557522 
L 72.781905 81.91719 
L 73.119 83.602667 
L 73.793191 84.276857 
L 74.130286 84.276857 
" style="fill:none;stroke:#8c8c8c;stroke-linecap:square;"/>
   </g>
   <g id="line2d_8">
    <path clip-path="url(#pfcd0ce34b8)" d="M 75.815763 78.546236 
L 75.815763 78.209141 
L 75.815763 77.872045 
L 75.478668 77.872045 
L 75.478668 78.209141 
L 75.478668 78.546236 
L 75.478668 78.883331 
L 75.815763 79.894617 
L 76.827049 81.242999 
L 78.175431 81.91719 
L 79.523812 82.254285 
L 80.535099 81.91719 
L 81.209289 81.242999 
L 80.872194 79.894617 
L 80.198003 78.546236 
L 78.849622 77.53495 
L 77.50124 77.197854 
L 76.152859 76.860759 
L 75.478668 77.197854 
" style="fill:none;stroke:#8c8c8c;stroke-linecap:square;"/>
   </g>
   <g id="line2d_9">
    <path clip-path="url(#pfcd0ce34b8)" d="M 87.277006 77.53495 
L 86.939911 77.53495 
L 86.26572 77.197854 
L 85.591529 76.860759 
L 84.917338 76.523664 
L 84.580243 76.523664 
L 84.243148 77.197854 
L 83.906052 78.546236 
L 84.917338 80.231713 
L 86.26572 81.580094 
L 88.288292 82.254285 
L 89.636674 81.91719 
L 90.64796 80.905904 
L 89.973769 79.220427 
L 88.962483 77.53495 
L 86.939911 75.512378 
L 85.928625 75.175282 
L 85.254434 75.175282 
" style="fill:none;stroke:#8c8c8c;stroke-linecap:square;"/>
   </g>
   <g id="line2d_10">
    <path clip-path="url(#pfcd0ce34b8)" d="M 113.907541 61.354372 
L 114.244636 61.354372 
L 114.581731 61.354372 
L 114.918827 61.354372 
L 115.255922 61.354372 
L 117.278494 61.017276 
L 118.963971 60.680181 
L 120.312353 60.343086 
" style="fill:none;stroke:#8c8c8c;stroke-linecap:square;"/>
   </g>
   <g id="line2d_11">
    <path clip-path="url(#pfcd0ce34b8)" d="M 115.593017 66.410802 
L 115.255922 66.747898 
L 115.593017 66.747898 
L 115.930113 66.747898 
L 116.267208 66.747898 
L 117.61559 66.410802 
L 119.975257 66.073707 
L 122.334925 65.736612 
L 124.357497 65.736612 
L 125.368783 65.399516 
" style="fill:none;stroke:#8c8c8c;stroke-linecap:square;"/>
   </g>
   <g id="line2d_12">
    <path clip-path="url(#pfcd0ce34b8)" d="M 142.897743 52.252797 
L 142.897743 52.589892 
L 142.897743 52.926987 
L 142.897743 53.938274 
L 143.234838 55.960846 
L 143.571934 58.994704 
L 144.246124 62.365658 
L 144.246124 65.062421 
L 144.920315 68.77047 
L 145.25741 70.455947 
L 145.25741 72.141424 
" style="fill:none;stroke:#8c8c8c;stroke-linecap:square;"/>
   </g>
   <g id="line2d_13">
    <path clip-path="url(#pfcd0ce34b8)" d="M 142.897743 52.589892 
L 142.897743 52.926987 
L 143.234838 53.264083 
L 143.571934 53.264083 
L 144.246124 53.601178 
L 145.594506 52.926987 
L 147.279983 52.252797 
L 148.291269 51.915701 
L 149.63965 51.241511 
" style="fill:none;stroke:#8c8c8c;stroke-linecap:square;"/>
   </g>
   <g id="line2d_14">
    <path clip-path="url(#pfcd0ce34b8)" d="M 144.246124 61.017276 
L 144.246124 61.354372 
L 144.920315 61.691467 
L 145.931601 61.691467 
L 147.279983 61.017276 
L 148.96546 60.343086 
L 149.976746 60.343086 
" style="fill:none;stroke:#8c8c8c;stroke-linecap:square;"/>
   </g>
   <g id="line2d_15">
    <path clip-path="url(#pfcd0ce34b8)" d="M 157.392844 42.814126 
L 157.055748 42.814126 
L 157.055748 43.151222 
L 157.055748 43.825412 
L 157.729939 45.173794 
L 158.067035 46.859271 
L 158.40413 48.544748 
L 158.741225 49.218938 
L 159.078321 49.893129 
" style="fill:none;stroke:#8c8c8c;stroke-linecap:square;"/>
   </g>
   <g id="line2d_16">
    <path clip-path="url(#pfcd0ce34b8)" d="M 163.123465 42.139936 
L 163.123465 41.80284 
L 162.78637 41.80284 
L 162.78637 41.465745 
L 162.449274 41.465745 
L 162.112179 41.465745 
L 161.437988 42.139936 
L 161.100893 42.477031 
L 161.100893 42.814126 
L 161.100893 43.151222 
L 162.112179 43.488317 
L 163.797656 44.499603 
L 165.483133 45.173794 
L 166.494419 46.18508 
L 167.16861 47.196366 
L 167.16861 47.870557 
L 166.831514 48.544748 
L 165.820228 48.881843 
L 164.471847 48.881843 
L 162.78637 48.207652 
" style="fill:none;stroke:#8c8c8c;stroke-linecap:square;"/>
   </g>
   <g id="line2d_17">
    <path clip-path="url(#pfcd0ce34b8)" d="M 162.112179 40.791554 
L 162.112179 41.128649 
L 162.112179 41.465745 
L 162.449274 41.465745 
L 163.123465 41.128649 
L 164.134751 41.128649 
L 165.483133 40.791554 
L 166.831514 40.454459 
" style="fill:none;stroke:#8c8c8c;stroke-linecap:square;"/>
   </g>
   <g id="line2d_18">
    <path clip-path="url(#pfcd0ce34b8)" d="M 173.573422 44.499603 
L 173.573422 44.836698 
L 173.910517 44.836698 
L 174.247613 44.836698 
L 174.921803 44.836698 
L 175.933089 44.499603 
L 176.60728 44.499603 
" style="fill:none;stroke:#8c8c8c;stroke-linecap:square;"/>
   </g>
   <g id="line2d_19">
    <path clip-path="url(#pfcd0ce34b8)" d="M 183.012092 38.768982 
L 183.012092 39.106077 
L 183.012092 39.443173 
L 183.349188 39.780268 
L 183.686283 41.465745 
L 184.360474 44.499603 
L 185.37176 47.870557 
L 185.708855 50.230224 
" style="fill:none;stroke:#8c8c8c;stroke-linecap:square;"/>
   </g>
   <g id="line2d_20">
    <path clip-path="url(#pfcd0ce34b8)" d="M 32.33046 111.581583 
L 32.33046 111.244487 
L 32.33046 110.907392 
L 32.33046 110.570296 
L 32.33046 110.907392 
L 32.33046 111.244487 
L 32.667556 112.592869 
L 33.341746 115.963822 
L 33.678842 119.671872 
L 34.015937 122.031539 
L 34.015937 123.379921 
L 34.015937 124.054111 
L 34.015937 124.391207 
" style="fill:none;stroke:#8c8c8c;stroke-linecap:square;"/>
   </g>
   <g id="line2d_21">
    <path clip-path="url(#pfcd0ce34b8)" d="M 41.09494 116.975109 
L 40.757844 116.975109 
L 40.420749 116.975109 
L 40.420749 117.312204 
L 39.746558 117.649299 
L 39.409463 118.660585 
L 39.409463 120.008967 
L 40.083654 121.694444 
L 41.09494 122.368635 
L 42.443321 122.70573 
L 43.454607 122.031539 
L 44.128798 120.346062 
L 43.454607 119.334776 
L 42.443321 117.986395 
L 41.09494 117.312204 
L 40.083654 117.312204 
L 39.746558 117.312204 
" style="fill:none;stroke:#8c8c8c;stroke-linecap:square;"/>
   </g>
   <g id="line2d_22">
    <path clip-path="url(#pfcd0ce34b8)" d="M 48.848133 117.986395 
L 48.511038 117.986395 
L 48.173943 118.32349 
L 47.499752 119.334776 
L 47.162657 121.020253 
L 47.162657 122.70573 
L 47.499752 123.379921 
L 48.511038 123.717016 
L 49.185229 123.042825 
L 49.85942 121.694444 
L 49.85942 120.683158 
L 49.185229 119.671872 
L 48.848133 118.997681 
L 48.511038 118.660585 
L 48.848133 118.997681 
L 48.848133 119.334776 
L 49.522324 120.008967 
L 50.870706 121.694444 
L 52.556183 123.379921 
L 53.567469 125.402493 
L 54.241659 126.750874 
L 54.241659 128.436351 
L 53.230373 129.447637 
L 52.219087 130.796019 
L 50.870706 131.47021 
L 49.185229 131.47021 
L 48.848133 131.47021 
" style="fill:none;stroke:#8c8c8c;stroke-linecap:square;"/>
   </g>
   <g id="line2d_23">
    <path clip-path="url(#pfcd0ce34b8)" d="M 68.06257 104.165484 
L 67.725474 104.165484 
L 67.725474 103.828389 
L 67.725474 104.165484 
L 67.725474 104.50258 
L 68.399665 105.850961 
L 69.073856 107.873533 
L 69.748047 109.896106 
L 70.085142 111.581583 
L 70.759333 112.255773 
" style="fill:none;stroke:#8c8c8c;stroke-linecap:square;"/>
   </g>
   <g id="line2d_24">
    <path clip-path="url(#pfcd0ce34b8)" d="M 70.759333 102.817103 
L 70.759333 103.154198 
L 71.096428 103.491294 
L 72.107714 103.491294 
L 74.130286 103.154198 
L 75.478668 102.817103 
L 76.489954 102.480007 
L 76.827049 102.142912 
L 77.164145 102.142912 
L 77.50124 102.480007 
L 77.838336 103.154198 
L 78.175431 104.50258 
L 78.512526 105.850961 
L 78.849622 107.873533 
L 79.186717 109.221915 
L 79.523812 110.233201 
L 79.523812 110.570296 
" style="fill:none;stroke:#8c8c8c;stroke-linecap:square;"/>
   </g>
   <g id="line2d_25">
    <path clip-path="url(#pfcd0ce34b8)" d="M 82.220575 103.828389 
L 81.88348 103.828389 
L 81.546385 103.828389 
L 81.546385 104.165484 
L 81.546385 104.50258 
L 81.88348 104.839675 
L 82.220575 106.188057 
L 83.231862 107.199343 
L 84.243148 107.536438 
L 85.591529 107.199343 
L 85.928625 106.525152 
L 85.591529 105.513866 
L 84.580243 104.165484 
L 83.231862 103.491294 
L 81.546385 103.491294 
L 80.872194 103.828389 
L 80.872194 104.165484 
" style="fill:none;stroke:#8c8c8c;stroke-linecap:square;"/>
   </g>
   <g id="line2d_26">
    <path clip-path="url(#pfcd0ce34b8)" d="M 89.299578 103.491294 
L 89.299578 103.154198 
L 88.962483 103.154198 
L 88.625388 103.154198 
L 88.288292 103.828389 
L 88.625388 105.17677 
L 89.299578 105.850961 
L 90.64796 106.188057 
L 91.659246 106.188057 
L 91.996341 105.513866 
L 91.996341 104.50258 
L 91.322151 103.491294 
L 89.973769 102.817103 
L 88.625388 102.480007 
L 87.277006 103.154198 
" style="fill:none;stroke:#8c8c8c;stroke-linecap:square;"/>
   </g>
   <g id="line2d_27">
    <path clip-path="url(#pfcd0ce34b8)" d="M 72.107714 117.649299 
L 72.107714 117.986395 
L 72.781905 117.649299 
L 75.141573 116.975109 
L 81.209289 115.289632 
L 84.917338 113.94125 
L 88.625388 112.592869 
L 90.985055 111.918678 
L 91.996341 111.581583 
L 92.670532 111.581583 
" style="fill:none;stroke:#8c8c8c;stroke-linecap:square;"/>
   </g>
   <g id="line2d_28">
    <path clip-path="url(#pfcd0ce34b8)" d="M 77.50124 122.70573 
L 77.164145 122.70573 
L 77.164145 122.368635 
L 77.50124 122.368635 
L 78.175431 121.694444 
L 78.849622 121.020253 
L 80.198003 121.020253 
L 81.209289 121.020253 
L 81.546385 121.694444 
L 81.546385 122.70573 
L 81.209289 123.717016 
L 79.860908 125.065397 
L 79.186717 125.739588 
L 78.849622 126.076684 
L 79.186717 126.076684 
L 80.198003 126.076684 
L 81.88348 126.413779 
L 83.231862 127.08797 
L 83.906052 128.099256 
L 83.906052 129.110542 
L 83.231862 130.121828 
L 81.209289 130.796019 
L 79.186717 130.458923 
L 77.838336 130.121828 
L 77.164145 128.773447 
" style="fill:none;stroke:#8c8c8c;stroke-linecap:square;"/>
   </g>
   <g id="line2d_29">
    <path clip-path="url(#pfcd0ce34b8)" d="M 85.591529 121.020253 
L 85.591529 121.357348 
L 85.928625 122.031539 
L 85.928625 123.042825 
L 86.26572 124.391207 
L 87.277006 127.08797 
L 87.614101 128.436351 
L 87.951197 129.447637 
" style="fill:none;stroke:#8c8c8c;stroke-linecap:square;"/>
   </g>
   <g id="line2d_30">
    <path clip-path="url(#pfcd0ce34b8)" d="M 89.973769 123.042825 
L 89.973769 122.368635 
L 89.973769 122.031539 
L 89.636674 122.031539 
L 89.636674 123.042825 
L 89.973769 124.391207 
L 90.64796 125.739588 
L 91.996341 126.413779 
L 93.344723 126.076684 
L 94.018914 125.065397 
L 94.018914 124.391207 
L 93.007627 122.70573 
L 91.996341 121.694444 
L 90.64796 121.020253 
L 89.636674 121.357348 
" style="fill:none;stroke:#8c8c8c;stroke-linecap:square;"/>
   </g>
   <g id="line2d_31">
    <path clip-path="url(#pfcd0ce34b8)" d="M 99.075344 120.683158 
L 98.738249 120.683158 
L 98.738249 121.020253 
L 98.401153 121.020253 
L 97.726963 121.020253 
L 97.389867 121.357348 
L 97.052772 121.694444 
L 97.052772 122.70573 
L 97.726963 123.717016 
L 98.738249 124.391207 
L 100.08663 124.728302 
L 101.097916 124.391207 
L 101.435012 123.379921 
L 100.760821 122.031539 
L 99.749535 120.683158 
L 98.064058 119.671872 
L 96.715677 119.671872 
L 96.041486 119.671872 
" style="fill:none;stroke:#8c8c8c;stroke-linecap:square;"/>
   </g>
   <g id="line2d_32">
    <path clip-path="url(#pfcd0ce34b8)" d="M 127.05426 109.896106 
L 127.05426 110.233201 
L 126.717165 110.233201 
L 126.380069 110.570296 
L 126.380069 110.907392 
L 126.717165 110.907392 
L 127.728451 110.570296 
L 129.413928 110.233201 
L 131.4365 109.896106 
L 133.796168 108.88482 
L 134.133263 108.547724 
" style="fill:none;stroke:#8c8c8c;stroke-linecap:square;"/>
   </g>
   <g id="line2d_33">
    <path clip-path="url(#pfcd0ce34b8)" d="M 129.751023 116.300918 
L 129.751023 116.638013 
L 129.413928 117.312204 
L 129.751023 117.649299 
L 131.4365 117.312204 
L 133.459072 116.975109 
L 136.830026 116.300918 
L 139.526789 115.289632 
L 140.538075 114.952536 
" style="fill:none;stroke:#8c8c8c;stroke-linecap:square;"/>
   </g>
   <g id="line2d_34">
    <path clip-path="url(#pfcd0ce34b8)" d="M 155.033176 103.154198 
L 155.033176 102.817103 
L 155.033176 102.480007 
L 155.370272 102.480007 
L 155.370272 102.142912 
L 155.033176 101.805817 
L 154.696081 101.805817 
L 153.684795 102.480007 
L 152.336413 104.165484 
L 150.988032 107.873533 
L 150.988032 112.592869 
L 152.336413 115.963822 
L 154.02189 117.649299 
L 156.044462 118.32349 
" style="fill:none;stroke:#8c8c8c;stroke-linecap:square;"/>
   </g>
   <g id="line2d_35">
    <path clip-path="url(#pfcd0ce34b8)" d="M 162.449274 107.199343 
L 162.112179 106.862247 
L 162.112179 107.199343 
L 162.112179 107.536438 
L 162.449274 109.221915 
L 162.78637 112.592869 
L 163.460561 115.289632 
L 164.134751 116.638013 
L 164.471847 116.975109 
" style="fill:none;stroke:#8c8c8c;stroke-linecap:square;"/>
   </g>
   <g id="line2d_36">
    <path clip-path="url(#pfcd0ce34b8)" d="M 166.831514 106.862247 
L 166.494419 106.862247 
L 166.157324 107.536438 
L 165.820228 107.873533 
L 166.157324 108.547724 
L 166.831514 109.55901 
L 168.179896 110.233201 
L 170.202468 111.244487 
L 171.55085 112.255773 
L 172.22504 113.267059 
L 172.562136 114.278346 
L 172.562136 114.952536 
L 171.213754 116.300918 
L 170.202468 116.975109 
L 168.179896 117.312204 
L 166.494419 116.638013 
L 166.157324 116.300918 
" style="fill:none;stroke:#8c8c8c;stroke-linecap:square;"/>
   </g>
   <g id="line2d_37">
    <path clip-path="url(#pfcd0ce34b8)" d="M 166.831514 105.850961 
L 166.494419 105.850961 
L 166.157324 105.850961 
L 167.505705 105.850961 
L 169.191182 105.513866 
L 171.213754 105.17677 
L 171.887945 105.17677 
" style="fill:none;stroke:#8c8c8c;stroke-linecap:square;"/>
   </g>
   <g id="line2d_38">
    <path clip-path="url(#pfcd0ce34b8)" d="M 176.270185 109.896106 
L 176.60728 110.233201 
L 177.618566 110.570296 
L 178.966948 110.570296 
L 180.98952 109.896106 
L 181.326615 109.896106 
" style="fill:none;stroke:#8c8c8c;stroke-linecap:square;"/>
   </g>
   <g id="line2d_39">
    <path clip-path="url(#pfcd0ce34b8)" d="M 188.742714 103.828389 
L 188.405618 103.828389 
L 188.068523 103.828389 
L 188.068523 104.165484 
L 188.068523 104.839675 
L 188.742714 106.862247 
L 189.416904 108.547724 
L 190.091095 111.244487 
L 190.765286 112.929964 
L 191.439477 113.94125 
" style="fill:none;stroke:#8c8c8c;stroke-linecap:square;"/>
   </g>
   <g id="line2d_40">
    <path clip-path="url(#pfcd0ce34b8)" d="M 191.102381 100.457435 
L 190.765286 100.12034 
L 191.102381 100.457435 
L 191.439477 100.457435 
L 192.787858 101.468721 
L 195.821716 103.154198 
L 198.518479 105.513866 
L 199.866861 107.199343 
L 200.203956 109.221915 
L 199.529766 111.918678 
L 198.518479 114.278346 
L 197.507193 116.638013 
" style="fill:none;stroke:#8c8c8c;stroke-linecap:square;"/>
   </g>
   <g id="line2d_41">
    <path clip-path="url(#pfcd0ce34b8)" d="M 216.72163 100.794531 
L 216.72163 100.457435 
L 216.384534 100.457435 
L 216.047439 100.457435 
L 216.047439 100.794531 
L 216.72163 102.142912 
L 217.39582 104.50258 
L 218.407107 107.536438 
L 219.081297 109.896106 
L 219.755488 112.255773 
L 220.429679 113.604155 
L 220.429679 113.94125 
" style="fill:none;stroke:#8c8c8c;stroke-linecap:square;"/>
   </g>
   <g id="line2d_42">
    <path clip-path="url(#pfcd0ce34b8)" d="M 223.126442 107.536438 
L 223.126442 107.873533 
L 223.126442 108.88482 
L 223.463537 109.896106 
L 224.474823 111.581583 
L 226.1603 112.255773 
L 227.171586 111.918678 
L 228.182872 110.907392 
L 227.845777 109.55901 
L 226.497396 108.210629 
L 224.811919 107.199343 
L 223.800633 107.199343 
L 223.126442 107.199343 
" style="fill:none;stroke:#8c8c8c;stroke-linecap:square;"/>
   </g>
   <g id="line2d_43">
    <path clip-path="url(#pfcd0ce34b8)" d="M 233.239303 107.536438 
L 233.239303 107.199343 
L 232.902208 107.199343 
L 232.228017 107.199343 
L 231.216731 107.536438 
L 230.54254 108.547724 
L 230.54254 109.55901 
L 231.553826 109.896106 
L 232.902208 109.896106 
L 233.913494 109.55901 
L 234.587684 108.88482 
L 234.92478 108.210629 
L 234.92478 107.199343 
L 234.587684 106.862247 
L 234.92478 107.199343 
L 235.261875 107.536438 
L 235.936066 108.547724 
L 236.947352 110.233201 
L 237.958638 112.929964 
L 238.632829 115.289632 
L 238.295734 116.975109 
L 237.621543 117.986395 
L 235.598971 118.660585 
L 233.239303 118.32349 
" style="fill:none;stroke:#8c8c8c;stroke-linecap:square;"/>
   </g>
   <g id="line2d_44">
    <path clip-path="url(#pfcd0ce34b8)" d="M 252.790835 97.086481 
L 252.790835 96.749386 
L 252.790835 96.412291 
L 252.790835 96.749386 
L 252.790835 97.086481 
L 253.12793 98.771958 
L 254.139216 102.142912 
L 255.150502 104.839675 
L 255.824693 107.536438 
L 256.498884 109.55901 
L 257.173075 110.233201 
" style="fill:none;stroke:#8c8c8c;stroke-linecap:square;"/>
   </g>
   <g id="line2d_45">
    <path clip-path="url(#pfcd0ce34b8)" d="M 252.116644 95.7381 
L 251.779549 95.7381 
L 251.779549 95.401005 
L 252.116644 95.401005 
L 253.12793 95.063909 
L 254.476312 94.726814 
L 256.498884 94.389718 
L 257.51017 94.052623 
L 258.521456 94.052623 
" style="fill:none;stroke:#8c8c8c;stroke-linecap:square;"/>
   </g>
   <g id="line2d_46">
    <path clip-path="url(#pfcd0ce34b8)" d="M 254.813407 101.131626 
L 254.813407 101.468721 
L 254.476312 102.480007 
L 254.476312 102.817103 
L 254.813407 103.154198 
L 256.161788 102.817103 
L 258.521456 101.805817 
L 262.566601 99.446149 
L 264.252077 98.771958 
" style="fill:none;stroke:#8c8c8c;stroke-linecap:square;"/>
   </g>
   <g id="line2d_47">
    <path clip-path="url(#pfcd0ce34b8)" d="M 256.498884 94.726814 
L 256.835979 94.726814 
L 256.835979 94.389718 
L 257.173075 94.389718 
L 257.173075 94.052623 
L 257.173075 94.389718 
L 257.51017 94.389718 
L 257.847265 94.389718 
L 258.184361 94.389718 
L 258.184361 94.052623 
L 258.858551 94.052623 
L 259.869838 94.052623 
" style="fill:none;stroke:#8c8c8c;stroke-linecap:square;"/>
   </g>
   <g id="line2d_48">
    <path clip-path="url(#pfcd0ce34b8)" d="M 301.669664 36.072219 
L 301.669664 35.735123 
L 301.669664 35.398028 
L 301.332569 35.060933 
L 301.332569 34.386742 
L 301.332569 33.375456 
L 301.332569 33.03836 
L 300.995473 32.36417 
L 300.995473 32.027074 
L 301.332569 32.027074 
L 301.332569 32.701265 
L 302.343855 35.398028 
L 303.355141 39.443173 
L 304.029332 42.814126 
L 304.703522 44.162508 
L 305.040618 44.836698 
" style="fill:none;stroke:#8c8c8c;stroke-linecap:square;"/>
   </g>
   <g id="line2d_49">
    <path clip-path="url(#pfcd0ce34b8)" d="M 306.388999 37.757696 
L 306.051904 37.757696 
L 306.051904 38.431886 
L 306.388999 39.443173 
L 306.726095 40.454459 
L 307.737381 41.80284 
L 308.748667 41.80284 
L 309.759953 41.128649 
L 309.759953 40.454459 
L 309.759953 39.106077 
L 308.748667 38.094791 
L 307.400285 37.757696 
L 306.388999 37.757696 
L 306.051904 37.757696 
L 305.714808 38.094791 
" style="fill:none;stroke:#8c8c8c;stroke-linecap:square;"/>
   </g>
   <g id="line2d_50">
    <path clip-path="url(#pfcd0ce34b8)" d="M 314.479288 38.094791 
L 314.479288 37.757696 
L 314.142193 37.757696 
L 313.805097 37.757696 
L 313.130907 38.094791 
L 312.793811 38.431886 
L 312.456716 39.106077 
L 312.456716 39.780268 
L 312.793811 40.454459 
L 313.468002 40.791554 
L 314.142193 41.128649 
L 314.816383 40.791554 
L 315.153479 40.454459 
L 314.816383 39.443173 
L 314.816383 38.768982 
L 314.479288 38.094791 
L 314.479288 37.757696 
" style="fill:none;stroke:#8c8c8c;stroke-linecap:square;"/>
   </g>
   <g id="line2d_51">
    <path clip-path="url(#pfcd0ce34b8)" d="M 315.490574 37.083505 
L 315.153479 37.083505 
L 315.153479 37.4206 
L 315.153479 38.094791 
L 315.82767 39.106077 
L 316.838956 41.128649 
L 318.187337 43.151222 
L 318.861528 44.836698 
L 319.198623 46.522175 
L 318.861528 47.533461 
L 317.176051 48.881843 
L 316.50186 49.218938 
L 315.490574 48.881843 
L 314.142193 48.544748 
" style="fill:none;stroke:#8c8c8c;stroke-linecap:square;"/>
   </g>
   <g id="line2d_52">
    <path clip-path="url(#pfcd0ce34b8)" d="M 326.951817 33.03836 
L 326.951817 32.701265 
L 326.951817 32.36417 
L 326.614722 33.03836 
L 326.277626 34.386742 
L 325.603435 36.74641 
L 325.603435 38.768982 
L 325.603435 40.117363 
L 325.603435 40.791554 
" style="fill:none;stroke:#8c8c8c;stroke-linecap:square;"/>
   </g>
   <g id="line2d_53">
    <path clip-path="url(#pfcd0ce34b8)" d="M 322.906672 33.712551 
L 322.906672 33.375456 
L 322.906672 33.712551 
L 322.906672 34.049647 
L 323.580863 35.060933 
L 324.929245 36.74641 
L 326.277626 37.757696 
L 327.626008 38.768982 
L 328.300198 39.106077 
" style="fill:none;stroke:#8c8c8c;stroke-linecap:square;"/>
   </g>
   <g id="line2d_54">
    <path clip-path="url(#pfcd0ce34b8)" d="M 326.951817 21.577118 
L 326.614722 21.577118 
L 326.277626 21.577118 
L 326.277626 21.914213 
L 326.614722 22.251308 
L 327.288912 22.925499 
L 328.637294 24.610976 
L 329.64858 25.959358 
L 330.659866 26.970644 
L 330.996961 26.970644 
L 330.996961 26.633548 
" style="fill:none;stroke:#8c8c8c;stroke-linecap:square;"/>
   </g>
   <g id="line2d_55">
    <path clip-path="url(#pfcd0ce34b8)" d="M 330.996961 22.251308 
L 330.659866 22.251308 
L 330.659866 22.925499 
L 329.985675 23.936785 
L 329.64858 24.948071 
L 329.64858 25.959358 
L 329.311485 26.633548 
L 329.64858 26.633548 
" style="fill:none;stroke:#8c8c8c;stroke-linecap:square;"/>
   </g>
   <g id="line2d_56">
    <path clip-path="url(#pfcd0ce34b8)" d="M 329.985675 26.633548 
L 329.985675 26.970644 
L 329.985675 27.307739 
L 330.322771 27.307739 
L 330.322771 27.98193 
L 330.659866 28.656121 
L 331.671152 30.004502 
L 332.345343 31.015788 
L 333.019534 32.027074 
L 333.356629 32.701265 
" style="fill:none;stroke:#8c8c8c;stroke-linecap:square;"/>
   </g>
   <g id="line2d_57">
    <path clip-path="url(#pfcd0ce34b8)" d="M 342.458204 27.98193 
L 342.7953 27.98193 
L 343.132395 27.98193 
L 344.143681 27.98193 
L 345.829158 27.307739 
L 346.840444 26.970644 
" style="fill:none;stroke:#8c8c8c;stroke-linecap:square;"/>
   </g>
   <g id="line2d_58">
    <path clip-path="url(#pfcd0ce34b8)" d="M 343.132395 31.689979 
L 343.132395 32.027074 
L 343.132395 32.36417 
L 343.132395 32.701265 
L 343.806586 32.701265 
L 344.817872 32.36417 
L 346.503349 32.027074 
" style="fill:none;stroke:#8c8c8c;stroke-linecap:square;"/>
   </g>
   <g id="line2d_59">
    <path clip-path="url(#pfcd0ce34b8)" d="M 367.066166 29.330311 
L 367.066166 28.993216 
L 366.729071 28.993216 
L 366.729071 29.330311 
L 367.066166 29.667407 
L 367.740357 30.341597 
L 369.088739 32.027074 
L 369.762929 32.701265 
L 370.43712 32.701265 
L 371.111311 32.36417 
L 371.111311 31.689979 
L 371.111311 30.341597 
L 371.111311 29.330311 
L 371.111311 28.656121 
L 371.111311 28.319025 
L 371.111311 28.656121 
L 371.111311 29.330311 
L 371.448406 31.015788 
L 372.459692 33.712551 
L 373.133883 36.409314 
L 373.470979 38.094791 
L 373.808074 39.106077 
L 373.808074 39.443173 
" style="fill:none;stroke:#8c8c8c;stroke-linecap:square;"/>
   </g>
   <g id="line2d_60">
    <path clip-path="url(#pfcd0ce34b8)" d="M 382.572554 22.588404 
L 382.235458 22.251308 
L 381.898363 22.251308 
L 381.898363 22.925499 
L 382.235458 24.948071 
L 383.246744 27.98193 
L 384.595126 31.352884 
L 385.943507 33.712551 
L 386.280603 34.386742 
L 386.617698 35.060933 
" style="fill:none;stroke:#8c8c8c;stroke-linecap:square;"/>
   </g>
   <g id="line2d_61">
    <path clip-path="url(#pfcd0ce34b8)" d="M 388.303175 29.667407 
L 388.303175 29.330311 
L 388.303175 29.667407 
L 387.96608 29.667407 
L 387.96608 30.341597 
L 388.303175 31.015788 
L 388.977366 31.689979 
L 390.325747 32.36417 
L 392.011224 32.701265 
L 393.02251 32.36417 
L 393.359606 31.352884 
L 393.02251 30.341597 
L 390.999938 28.993216 
L 389.651556 28.656121 
L 388.303175 28.993216 
L 387.96608 28.993216 
" style="fill:none;stroke:#8c8c8c;stroke-linecap:square;"/>
   </g>
   <g id="line2d_62">
    <path clip-path="url(#pfcd0ce34b8)" d="M 398.078941 28.993216 
L 398.078941 28.656121 
L 397.741845 28.993216 
L 397.40475 28.993216 
L 397.067655 29.330311 
L 397.067655 30.004502 
L 397.40475 30.678693 
L 397.741845 31.015788 
L 398.753132 31.352884 
L 399.427322 31.015788 
L 399.764418 30.678693 
L 399.427322 29.667407 
L 399.090227 28.993216 
L 398.753132 28.656121 
L 398.753132 28.319025 
L 399.090227 28.319025 
L 399.427322 28.993216 
L 400.438608 30.678693 
L 401.78699 32.701265 
L 402.461181 34.386742 
L 403.135371 36.409314 
L 403.135371 37.757696 
L 402.461181 38.431886 
L 401.112799 38.431886 
L 400.775704 38.431886 
" style="fill:none;stroke:#8c8c8c;stroke-linecap:square;"/>
   </g>
   <g id="line2d_63">
    <path clip-path="url(#pfcd0ce34b8)" d="M 413.585328 23.59969 
L 413.585328 23.262595 
L 413.248233 22.925499 
L 412.911137 23.59969 
L 412.236947 25.285167 
L 411.899851 28.319025 
L 411.899851 30.678693 
L 412.236947 32.027074 
L 412.574042 32.36417 
" style="fill:none;stroke:#8c8c8c;stroke-linecap:square;"/>
   </g>
   <g id="line2d_64">
    <path clip-path="url(#pfcd0ce34b8)" d="M 408.865993 23.59969 
L 409.203088 23.936785 
L 410.214374 25.285167 
L 412.574042 27.98193 
L 414.93371 30.341597 
L 416.282091 32.027074 
L 416.619186 32.701265 
" style="fill:none;stroke:#8c8c8c;stroke-linecap:square;"/>
   </g>
   <g id="line2d_65">
    <path clip-path="url(#pfcd0ce34b8)" d="M 379.2016 30.341597 
L 378.864505 30.341597 
L 378.864505 30.678693 
L 378.527409 30.678693 
" style="fill:none;stroke:#8c8c8c;stroke-linecap:square;"/>
   </g>
   <g id="line2d_66">
    <path clip-path="url(#pfcd0ce34b8)" d="M 329.311485 25.959358 
L 329.311485 26.296453 
L 329.311485 26.633548 
L 329.311485 26.296453 
L 329.311485 25.959358 
L 329.311485 25.622262 
L 329.311485 24.948071 
L 329.64858 24.273881 
L 329.64858 23.262595 
L 329.985675 22.588404 
L 330.322771 21.577118 
L 330.659866 20.902927 
L 330.996961 20.565832 
L 330.996961 19.891641 
L 331.334057 19.554545 
" style="fill:none;stroke:#8c8c8c;stroke-linecap:square;"/>
   </g>
   <g id="line2d_67">
    <path clip-path="url(#pfcd0ce34b8)" d="M 325.26634 22.251308 
L 324.929245 22.251308 
L 324.929245 21.914213 
L 324.929245 21.577118 
L 325.26634 21.577118 
L 325.603435 22.251308 
L 326.277626 22.925499 
L 327.288912 24.273881 
L 328.300198 25.285167 
L 329.311485 26.296453 
L 329.64858 26.633548 
" style="fill:none;stroke:#8c8c8c;stroke-linecap:square;"/>
   </g>
   <g id="line2d_68">
    <path clip-path="url(#pfcd0ce34b8)" d="M 40.083654 164.168461 
L 40.083654 163.49427 
L 40.083654 162.482984 
L 39.746558 161.808793 
L 39.746558 161.471698 
L 39.746558 161.134603 
L 39.746558 160.460412 
L 39.746558 160.123316 
L 40.083654 160.460412 
L 40.083654 160.797507 
L 40.420749 162.820079 
L 40.757844 165.516842 
L 40.757844 167.539415 
L 41.09494 169.561987 
L 41.09494 170.236178 
" style="fill:none;stroke:#8c8c8c;stroke-linecap:square;"/>
   </g>
   <g id="line2d_69">
    <path clip-path="url(#pfcd0ce34b8)" d="M 46.825561 163.157175 
L 46.488466 163.157175 
L 46.15137 163.49427 
L 45.814275 163.831365 
L 45.47718 164.168461 
L 45.47718 165.179747 
L 45.47718 166.528128 
L 46.15137 168.213605 
L 46.825561 168.887796 
L 47.836847 169.224891 
L 48.511038 168.213605 
L 48.848133 166.528128 
L 48.511038 165.516842 
L 47.499752 164.505556 
L 46.15137 164.505556 
L 45.140084 164.842652 
L 44.465894 165.179747 
" style="fill:none;stroke:#8c8c8c;stroke-linecap:square;"/>
   </g>
   <g id="line2d_70">
    <path clip-path="url(#pfcd0ce34b8)" d="M 51.544896 164.505556 
L 51.881992 164.168461 
L 51.207801 164.505556 
L 50.870706 165.179747 
L 50.870706 166.191033 
L 50.870706 167.87651 
L 51.881992 168.550701 
L 52.893278 168.213605 
L 53.567469 167.202319 
L 53.904564 166.191033 
L 53.567469 164.842652 
L 53.230373 164.505556 
L 52.893278 164.168461 
L 52.893278 164.505556 
L 53.230373 164.505556 
L 53.904564 165.179747 
L 55.590041 166.865224 
L 57.275518 168.550701 
L 58.623899 170.236178 
L 59.29809 172.595845 
L 58.960995 174.281322 
L 57.275518 175.966799 
L 55.252946 176.978085 
L 52.556183 176.978085 
L 52.219087 176.978085 
" style="fill:none;stroke:#8c8c8c;stroke-linecap:square;"/>
   </g>
   <g id="line2d_71">
    <path clip-path="url(#pfcd0ce34b8)" d="M 66.377093 152.370123 
L 66.377093 152.033027 
L 66.714188 153.044314 
L 67.051284 154.0556 
L 67.388379 155.741077 
L 67.725474 157.089458 
L 68.06257 158.43784 
L 68.399665 158.774935 
" style="fill:none;stroke:#8c8c8c;stroke-linecap:square;"/>
   </g>
   <g id="line2d_72">
    <path clip-path="url(#pfcd0ce34b8)" d="M 68.06257 152.707218 
L 68.399665 152.370123 
L 68.736761 152.033027 
L 69.748047 151.695932 
L 71.096428 151.021741 
L 72.781905 150.347551 
L 73.456096 150.010455 
L 73.793191 150.010455 
L 74.130286 150.347551 
L 74.130286 151.021741 
L 74.130286 152.370123 
L 74.467382 154.0556 
L 74.467382 155.403981 
L 74.467382 156.415267 
L 74.467382 156.752363 
" style="fill:none;stroke:#8c8c8c;stroke-linecap:square;"/>
   </g>
   <g id="line2d_73">
    <path clip-path="url(#pfcd0ce34b8)" d="M 75.815763 153.044314 
L 75.815763 152.370123 
L 76.152859 152.370123 
L 76.827049 153.381409 
L 77.838336 154.72979 
L 78.849622 155.403981 
L 80.198003 155.741077 
L 81.209289 155.066886 
L 81.546385 153.718504 
L 81.546385 152.370123 
L 80.872194 151.021741 
L 79.860908 149.67336 
L 78.849622 149.336264 
L 77.838336 149.336264 
L 77.164145 149.67336 
L 76.827049 150.684646 
" style="fill:none;stroke:#8c8c8c;stroke-linecap:square;"/>
   </g>
   <g id="line2d_74">
    <path clip-path="url(#pfcd0ce34b8)" d="M 82.894766 150.347551 
L 82.894766 150.010455 
L 83.231862 149.67336 
L 83.231862 149.336264 
L 82.894766 149.336264 
L 82.894766 149.67336 
L 82.894766 150.347551 
L 83.568957 151.695932 
L 84.917338 152.370123 
L 85.928625 152.707218 
L 86.939911 152.370123 
L 87.614101 151.695932 
L 87.951197 150.347551 
L 86.939911 148.999169 
L 85.928625 147.987883 
L 84.917338 147.987883 
L 83.906052 148.324978 
L 83.231862 148.662074 
" style="fill:none;stroke:#8c8c8c;stroke-linecap:square;"/>
   </g>
   <g id="line2d_75">
    <path clip-path="url(#pfcd0ce34b8)" d="M 69.410951 162.145889 
L 69.073856 162.145889 
L 68.736761 162.482984 
L 69.073856 162.482984 
L 70.085142 162.145889 
L 73.456096 161.471698 
L 78.849622 160.460412 
L 83.231862 159.449126 
L 85.591529 159.11203 
L 86.939911 158.774935 
L 87.614101 158.43784 
" style="fill:none;stroke:#8c8c8c;stroke-linecap:square;"/>
   </g>
   <g id="line2d_76">
    <path clip-path="url(#pfcd0ce34b8)" d="M 73.793191 167.539415 
L 73.456096 167.539415 
L 73.119 167.539415 
L 72.781905 167.539415 
L 72.781905 167.202319 
L 72.44481 166.865224 
L 73.119 166.528128 
L 74.467382 165.853938 
L 76.152859 165.516842 
L 77.50124 165.853938 
L 78.175431 166.191033 
L 78.175431 167.539415 
L 77.838336 168.213605 
L 76.827049 169.224891 
L 75.478668 169.899082 
L 75.141573 169.561987 
L 75.478668 169.561987 
L 76.489954 169.224891 
L 77.838336 169.561987 
L 78.849622 169.899082 
L 79.860908 170.910368 
L 79.860908 171.921654 
L 78.849622 173.270036 
L 76.827049 174.281322 
L 75.141573 174.281322 
L 74.130286 173.944227 
L 73.793191 172.932941 
" style="fill:none;stroke:#8c8c8c;stroke-linecap:square;"/>
   </g>
   <g id="line2d_77">
    <path clip-path="url(#pfcd0ce34b8)" d="M 81.88348 165.179747 
L 82.220575 164.842652 
L 82.220575 165.179747 
L 82.557671 165.516842 
L 82.557671 166.191033 
L 83.231862 167.87651 
L 83.568957 169.899082 
L 84.243148 171.247464 
L 84.580243 171.921654 
L 84.917338 171.921654 
" style="fill:none;stroke:#8c8c8c;stroke-linecap:square;"/>
   </g>
   <g id="line2d_78">
    <path clip-path="url(#pfcd0ce34b8)" d="M 85.928625 166.865224 
L 85.928625 166.528128 
L 86.26572 166.191033 
L 86.26572 165.853938 
L 86.26572 165.516842 
L 85.928625 165.853938 
L 85.928625 166.865224 
L 86.26572 167.87651 
L 86.939911 168.887796 
L 88.288292 169.899082 
L 89.636674 169.899082 
L 90.64796 169.224891 
L 90.985055 168.213605 
L 90.64796 167.202319 
L 89.299578 165.853938 
L 87.951197 165.179747 
L 86.939911 165.179747 
L 86.602815 165.516842 
L 86.26572 165.516842 
" style="fill:none;stroke:#8c8c8c;stroke-linecap:square;"/>
   </g>
   <g id="line2d_79">
    <path clip-path="url(#pfcd0ce34b8)" d="M 90.64796 166.191033 
L 90.985055 166.191033 
L 91.322151 165.853938 
L 91.322151 165.516842 
L 91.322151 165.853938 
L 91.659246 166.191033 
L 91.996341 166.865224 
L 92.670532 167.87651 
L 94.018914 168.550701 
L 95.367295 168.550701 
L 96.378581 167.87651 
L 96.715677 166.865224 
L 96.715677 165.516842 
L 96.378581 164.505556 
L 95.367295 163.831365 
L 94.018914 163.831365 
L 92.670532 164.505556 
L 92.333437 164.842652 
" style="fill:none;stroke:#8c8c8c;stroke-linecap:square;"/>
   </g>
   <g id="line2d_80">
    <path clip-path="url(#pfcd0ce34b8)" d="M 44.802989 189.787709 
L 44.465894 189.787709 
L 44.465894 190.124805 
L 45.140084 190.124805 
L 48.173943 189.113519 
L 57.275518 186.416756 
L 67.725474 183.045802 
L 75.815763 180.349039 
L 84.917338 177.652276 
L 88.625388 176.978085 
L 90.985055 176.64099 
L 92.333437 175.966799 
L 93.007627 175.629704 
" style="fill:none;stroke:#8c8c8c;stroke-linecap:square;"/>
   </g>
   <g id="line2d_81">
    <path clip-path="url(#pfcd0ce34b8)" d="M 55.590041 196.192521 
L 55.252946 196.192521 
L 54.91585 196.192521 
L 54.578755 196.866712 
L 53.567469 198.215094 
L 52.893278 200.574761 
L 53.230373 203.945715 
L 54.578755 206.305383 
L 56.601327 207.990859 
L 58.623899 208.327955 
L 59.29809 207.990859 
" style="fill:none;stroke:#8c8c8c;stroke-linecap:square;"/>
   </g>
   <g id="line2d_82">
    <path clip-path="url(#pfcd0ce34b8)" d="M 61.657758 197.540903 
L 61.657758 197.877998 
L 61.994853 198.889284 
L 62.669044 200.911857 
L 63.68033 203.60862 
L 64.691616 205.631192 
L 65.365807 206.979573 
L 66.039998 207.316669 
" style="fill:none;stroke:#8c8c8c;stroke-linecap:square;"/>
   </g>
   <g id="line2d_83">
    <path clip-path="url(#pfcd0ce34b8)" d="M 66.714188 199.22638 
L 66.714188 198.889284 
L 66.377093 198.889284 
L 66.039998 199.22638 
L 66.039998 199.563475 
L 65.702902 199.900571 
L 65.365807 200.911857 
L 65.702902 201.586047 
L 66.377093 202.260238 
L 67.725474 202.260238 
L 70.085142 202.597333 
L 73.119 202.934429 
L 74.804477 203.271524 
L 76.152859 204.619906 
L 76.489954 205.294096 
L 75.815763 205.968287 
L 74.130286 206.642478 
L 70.422237 206.305383 
L 69.748047 205.968287 
" style="fill:none;stroke:#8c8c8c;stroke-linecap:square;"/>
   </g>
   <g id="line2d_84">
    <path clip-path="url(#pfcd0ce34b8)" d="M 65.028711 197.540903 
L 65.365807 197.540903 
L 65.702902 197.203808 
L 67.051284 196.529617 
L 68.399665 195.855426 
L 70.085142 195.181235 
L 70.422237 194.84414 
" style="fill:none;stroke:#8c8c8c;stroke-linecap:square;"/>
   </g>
   <g id="line2d_85">
    <path clip-path="url(#pfcd0ce34b8)" d="M 76.152859 200.237666 
L 76.152859 200.574761 
L 76.489954 200.574761 
L 77.50124 200.574761 
L 79.186717 199.22638 
L 81.209289 197.540903 
" style="fill:none;stroke:#8c8c8c;stroke-linecap:square;"/>
   </g>
   <g id="line2d_86">
    <path clip-path="url(#pfcd0ce34b8)" d="M 85.254434 191.473186 
L 85.254434 191.136091 
L 85.591529 191.473186 
L 85.591529 192.147377 
L 86.602815 194.169949 
L 88.288292 197.203808 
L 89.973769 199.22638 
L 91.322151 200.574761 
L 91.659246 200.911857 
" style="fill:none;stroke:#8c8c8c;stroke-linecap:square;"/>
   </g>
   <g id="line2d_87">
    <path clip-path="url(#pfcd0ce34b8)" d="M 89.299578 186.416756 
L 88.962483 186.07966 
L 88.625388 185.742565 
L 88.288292 185.742565 
L 88.962483 186.07966 
L 90.64796 186.753851 
L 92.670532 188.102232 
L 95.367295 190.124805 
L 96.715677 191.810282 
L 97.726963 194.169949 
L 98.064058 196.529617 
L 97.726963 199.22638 
L 97.726963 199.563475 
" style="fill:none;stroke:#8c8c8c;stroke-linecap:square;"/>
   </g>
   <g id="line2d_88">
    <path clip-path="url(#pfcd0ce34b8)" d="M 115.255922 164.842652 
L 114.918827 164.842652 
L 114.918827 165.179747 
L 114.918827 165.516842 
L 115.255922 165.516842 
L 116.267208 165.179747 
L 118.626876 164.505556 
L 120.649448 163.49427 
L 122.334925 162.820079 
" style="fill:none;stroke:#8c8c8c;stroke-linecap:square;"/>
   </g>
   <g id="line2d_89">
    <path clip-path="url(#pfcd0ce34b8)" d="M 118.626876 171.921654 
L 118.626876 172.25875 
L 119.301067 172.932941 
L 120.986543 172.595845 
L 124.020402 171.247464 
L 126.717165 168.887796 
L 127.391356 168.550701 
" style="fill:none;stroke:#8c8c8c;stroke-linecap:square;"/>
   </g>
   <g id="line2d_90">
    <path clip-path="url(#pfcd0ce34b8)" d="M 139.526789 153.044314 
L 139.189694 153.044314 
L 139.189694 152.707218 
L 139.526789 154.0556 
L 140.875171 157.426553 
L 142.560647 161.134603 
L 144.246124 165.179747 
L 145.25741 167.202319 
L 145.594506 167.539415 
" style="fill:none;stroke:#8c8c8c;stroke-linecap:square;"/>
   </g>
   <g id="line2d_91">
    <path clip-path="url(#pfcd0ce34b8)" d="M 147.954173 161.471698 
L 147.954173 161.808793 
L 147.954173 162.145889 
L 147.954173 162.820079 
L 148.628364 164.168461 
L 149.976746 165.179747 
L 151.662222 165.179747 
L 153.010604 164.505556 
L 153.684795 163.157175 
L 153.347699 162.145889 
L 151.662222 161.134603 
L 149.976746 161.134603 
L 148.628364 161.471698 
L 148.291269 162.145889 
" style="fill:none;stroke:#8c8c8c;stroke-linecap:square;"/>
   </g>
   <g id="line2d_92">
    <path clip-path="url(#pfcd0ce34b8)" d="M 158.40413 161.808793 
L 158.741225 161.471698 
L 158.40413 161.134603 
L 158.067035 161.134603 
L 157.392844 161.134603 
L 157.055748 161.808793 
L 156.718653 162.820079 
L 157.392844 163.831365 
L 158.40413 164.505556 
L 159.078321 164.168461 
L 159.752511 163.49427 
L 160.089607 162.820079 
L 159.752511 162.145889 
L 159.415416 161.134603 
L 159.078321 161.134603 
L 158.741225 161.134603 
L 159.078321 161.471698 
L 160.089607 162.145889 
L 161.437988 163.831365 
L 162.78637 165.516842 
L 163.460561 167.87651 
L 163.797656 169.899082 
L 163.460561 171.921654 
L 162.449274 172.595845 
L 160.426702 172.932941 
L 159.415416 172.595845 
" style="fill:none;stroke:#8c8c8c;stroke-linecap:square;"/>
   </g>
   <g id="line2d_93">
    <path clip-path="url(#pfcd0ce34b8)" d="M 176.944376 151.021741 
L 176.944376 150.684646 
L 176.60728 150.684646 
L 176.944376 150.684646 
L 176.944376 151.358837 
L 177.618566 153.381409 
L 178.629852 156.415267 
L 179.641139 158.774935 
L 180.315329 160.123316 
L 180.652425 160.797507 
L 180.98952 161.134603 
" style="fill:none;stroke:#8c8c8c;stroke-linecap:square;"/>
   </g>
   <g id="line2d_94">
    <path clip-path="url(#pfcd0ce34b8)" d="M 176.270185 150.684646 
L 176.60728 150.347551 
L 177.618566 150.010455 
L 179.304043 149.336264 
L 181.326615 148.662074 
L 183.012092 148.662074 
L 183.349188 148.662074 
" style="fill:none;stroke:#8c8c8c;stroke-linecap:square;"/>
   </g>
   <g id="line2d_95">
    <path clip-path="url(#pfcd0ce34b8)" d="M 177.955662 155.403981 
L 177.955662 156.078172 
L 178.292757 156.415267 
L 179.304043 156.415267 
L 181.326615 155.741077 
L 183.349188 154.72979 
" style="fill:none;stroke:#8c8c8c;stroke-linecap:square;"/>
   </g>
   <g id="line2d_96">
    <path clip-path="url(#pfcd0ce34b8)" d="M 63.68033 258.21807 
L 63.68033 258.555166 
L 63.343235 258.555166 
L 63.343235 258.892261 
L 63.68033 259.229356 
L 63.68033 259.566452 
L 64.017425 259.566452 
L 65.028711 259.566452 
L 66.039998 259.229356 
L 67.051284 258.555166 
L 67.388379 257.543879 
L 67.388379 256.532593 
L 66.377093 255.521307 
L 65.028711 254.847116 
L 63.68033 255.184212 
L 62.331948 257.543879 
L 61.657758 260.577738 
L 62.669044 263.611596 
L 64.354521 265.634168 
L 67.051284 266.645455 
L 68.736761 266.308359 
L 70.759333 265.297073 
L 71.096428 264.959978 
" style="fill:none;stroke:#8c8c8c;stroke-linecap:square;"/>
   </g>
   <g id="line2d_97">
    <path clip-path="url(#pfcd0ce34b8)" d="M 75.815763 224.845628 
L 75.815763 224.508533 
L 75.815763 224.171437 
L 75.815763 223.834342 
L 75.815763 223.497247 
L 75.815763 223.834342 
L 76.152859 224.508533 
L 76.827049 227.205296 
L 77.838336 230.57625 
L 78.512526 232.935917 
L 78.849622 233.947203 
L 78.849622 234.284299 
L 78.849622 233.947203 
" style="fill:none;stroke:#8c8c8c;stroke-linecap:square;"/>
   </g>
   <g id="line2d_98">
    <path clip-path="url(#pfcd0ce34b8)" d="M 82.557671 227.879487 
L 82.220575 227.879487 
L 81.88348 227.879487 
L 81.546385 227.879487 
L 81.546385 228.216582 
L 81.209289 228.890773 
L 80.872194 230.239154 
L 81.209289 231.25044 
L 81.546385 232.261726 
L 82.220575 232.598822 
L 83.231862 231.924631 
L 83.568957 230.913345 
L 83.231862 229.902059 
L 82.894766 228.890773 
L 82.220575 228.216582 
L 81.88348 228.216582 
L 81.546385 228.216582 
" style="fill:none;stroke:#8c8c8c;stroke-linecap:square;"/>
   </g>
   <g id="line2d_99">
    <path clip-path="url(#pfcd0ce34b8)" d="M 87.614101 227.205296 
L 87.614101 226.8682 
L 87.951197 226.8682 
L 87.951197 226.531105 
L 87.614101 226.531105 
L 87.614101 226.8682 
L 86.939911 227.205296 
L 86.602815 228.216582 
L 86.26572 229.227868 
L 86.26572 230.239154 
L 86.939911 230.57625 
L 87.277006 230.57625 
L 87.951197 229.902059 
L 87.951197 229.227868 
L 87.951197 228.553677 
L 87.951197 227.879487 
L 88.288292 227.879487 
L 88.625388 227.879487 
L 88.962483 228.216582 
L 90.310864 228.890773 
L 91.659246 230.239154 
L 92.670532 231.924631 
L 93.007627 232.935917 
L 93.344723 234.284299 
L 93.007627 235.63268 
L 91.659246 236.643966 
L 89.636674 237.318157 
L 88.625388 237.318157 
L 88.288292 236.981062 
" style="fill:none;stroke:#8c8c8c;stroke-linecap:square;"/>
   </g>
   <g id="line2d_100">
    <path clip-path="url(#pfcd0ce34b8)" d="M 93.681818 212.710195 
L 93.344723 212.710195 
L 93.344723 213.04729 
L 93.344723 213.384385 
L 93.681818 214.058576 
L 94.018914 215.406958 
L 94.356009 216.418244 
L 95.0302 217.766625 
L 95.367295 218.440816 
L 95.367295 218.777911 
" style="fill:none;stroke:#8c8c8c;stroke-linecap:square;"/>
   </g>
   <g id="line2d_101">
    <path clip-path="url(#pfcd0ce34b8)" d="M 95.70439 212.710195 
L 95.70439 212.373099 
L 96.041486 212.373099 
L 96.378581 212.373099 
L 97.726963 212.036004 
L 98.738249 211.698909 
L 99.41244 211.361813 
L 99.749535 211.361813 
L 100.08663 211.361813 
L 100.08663 211.698909 
L 100.423726 212.710195 
L 100.423726 213.721481 
L 100.760821 214.732767 
L 100.760821 216.081148 
L 101.097916 216.755339 
L 101.097916 217.092435 
" style="fill:none;stroke:#8c8c8c;stroke-linecap:square;"/>
   </g>
   <g id="line2d_102">
    <path clip-path="url(#pfcd0ce34b8)" d="M 102.783393 211.698909 
L 102.783393 211.361813 
L 102.783393 211.698909 
L 102.783393 212.036004 
L 102.783393 212.373099 
L 103.120489 212.710195 
L 103.457584 214.058576 
L 104.131775 215.069862 
L 104.805966 215.744053 
L 106.154347 215.744053 
L 106.828538 215.069862 
L 107.165633 213.721481 
L 106.828538 212.373099 
L 106.154347 211.361813 
L 105.143061 211.024718 
L 104.131775 211.024718 
L 103.457584 211.698909 
" style="fill:none;stroke:#8c8c8c;stroke-linecap:square;"/>
   </g>
   <g id="line2d_103">
    <path clip-path="url(#pfcd0ce34b8)" d="M 108.176919 211.024718 
L 108.514015 211.024718 
L 108.85111 211.024718 
L 108.85111 210.687622 
L 108.85111 211.024718 
L 108.85111 211.361813 
L 108.85111 212.036004 
L 109.525301 213.04729 
L 110.536587 213.721481 
L 111.547873 214.058576 
L 112.559159 213.384385 
L 113.23335 212.710195 
L 112.896254 211.698909 
L 112.559159 211.024718 
L 111.210778 210.687622 
L 109.862396 211.024718 
L 108.514015 211.698909 
" style="fill:none;stroke:#8c8c8c;stroke-linecap:square;"/>
   </g>
   <g id="line2d_104">
    <path clip-path="url(#pfcd0ce34b8)" d="M 97.726963 220.463388 
L 97.389867 220.800484 
L 97.052772 220.800484 
L 96.715677 221.137579 
L 96.715677 221.474674 
L 97.052772 221.474674 
L 97.726963 221.137579 
L 100.760821 220.126293 
L 104.46887 218.777911 
L 108.85111 217.42953 
L 110.536587 216.755339 
L 111.547873 216.418244 
L 111.884968 216.081148 
" style="fill:none;stroke:#8c8c8c;stroke-linecap:square;"/>
   </g>
   <g id="line2d_105">
    <path clip-path="url(#pfcd0ce34b8)" d="M 100.08663 224.171437 
L 99.749535 224.171437 
L 100.08663 223.834342 
L 100.423726 223.834342 
L 101.097916 223.160151 
L 102.109203 222.823056 
L 103.120489 222.823056 
L 103.457584 222.823056 
L 103.794679 223.497247 
L 103.457584 223.834342 
L 103.120489 224.845628 
L 102.783393 225.519819 
L 102.446298 225.519819 
L 102.783393 225.856914 
L 103.120489 225.856914 
L 103.794679 226.19401 
L 104.46887 226.531105 
L 105.143061 227.205296 
L 105.480156 227.879487 
L 104.805966 228.553677 
L 103.457584 229.227868 
L 102.109203 229.564963 
L 101.097916 229.564963 
L 101.097916 228.890773 
" style="fill:none;stroke:#8c8c8c;stroke-linecap:square;"/>
   </g>
   <g id="line2d_106">
    <path clip-path="url(#pfcd0ce34b8)" d="M 107.165633 223.497247 
L 107.165633 223.160151 
L 107.165633 223.497247 
L 107.165633 223.834342 
L 107.502729 224.508533 
L 107.839824 225.856914 
L 108.514015 227.205296 
L 109.188205 228.216582 
L 109.862396 228.553677 
" style="fill:none;stroke:#8c8c8c;stroke-linecap:square;"/>
   </g>
   <g id="line2d_107">
    <path clip-path="url(#pfcd0ce34b8)" d="M 110.873682 223.834342 
L 110.536587 223.834342 
L 110.199492 224.508533 
L 110.199492 225.182724 
L 110.536587 225.856914 
L 111.884968 226.19401 
L 112.559159 226.19401 
L 113.570445 225.519819 
L 113.570445 224.845628 
L 113.23335 223.834342 
L 112.559159 223.497247 
L 111.547873 223.160151 
L 110.536587 223.160151 
L 110.199492 223.497247 
" style="fill:none;stroke:#8c8c8c;stroke-linecap:square;"/>
   </g>
   <g id="line2d_108">
    <path clip-path="url(#pfcd0ce34b8)" d="M 114.244636 222.823056 
L 114.581731 222.823056 
L 114.581731 223.160151 
L 114.918827 223.497247 
L 115.593017 224.171437 
L 116.941399 224.508533 
L 117.61559 224.508533 
L 118.28978 223.834342 
L 118.28978 223.160151 
L 117.61559 222.485961 
L 116.941399 222.148865 
L 115.593017 222.485961 
L 114.918827 222.823056 
" style="fill:none;stroke:#8c8c8c;stroke-linecap:square;"/>
   </g>
   <g id="line2d_109">
    <path clip-path="url(#pfcd0ce34b8)" d="M 86.939911 240.01492 
L 86.602815 240.01492 
L 86.26572 240.01492 
L 85.928625 240.352015 
L 86.26572 240.352015 
L 86.939911 240.01492 
L 90.310864 239.003634 
L 95.367295 237.318157 
L 99.41244 235.969776 
L 104.46887 234.621394 
L 106.828538 234.284299 
L 108.85111 233.610108 
L 109.862396 233.273013 
L 110.536587 232.598822 
L 110.873682 232.598822 
" style="fill:none;stroke:#8c8c8c;stroke-linecap:square;"/>
   </g>
   <g id="line2d_110">
    <path clip-path="url(#pfcd0ce34b8)" d="M 96.715677 243.722969 
L 96.715677 243.385874 
L 96.378581 243.385874 
L 96.378581 243.048778 
L 96.041486 242.711683 
L 96.378581 243.048778 
L 96.378581 243.385874 
L 96.378581 244.060064 
L 97.052772 245.408446 
L 97.726963 246.419732 
L 97.726963 247.093923 
L 98.064058 246.756827 
" style="fill:none;stroke:#8c8c8c;stroke-linecap:square;"/>
   </g>
   <g id="line2d_111">
    <path clip-path="url(#pfcd0ce34b8)" d="M 100.08663 241.026206 
L 100.08663 240.689111 
L 100.423726 240.689111 
L 100.08663 240.689111 
L 100.08663 241.026206 
L 100.08663 241.700397 
L 99.749535 242.374588 
L 99.749535 242.711683 
L 100.08663 242.711683 
L 101.097916 242.711683 
L 102.783393 243.048778 
L 104.131775 243.385874 
L 105.143061 244.060064 
L 105.817252 245.071351 
L 105.480156 245.745541 
L 104.805966 246.082637 
L 103.457584 246.419732 
L 103.120489 246.082637 
" style="fill:none;stroke:#8c8c8c;stroke-linecap:square;"/>
   </g>
   <g id="line2d_112">
    <path clip-path="url(#pfcd0ce34b8)" d="M 101.097916 242.711683 
L 101.097916 242.374588 
L 101.435012 242.037492 
L 101.772107 241.700397 
L 102.109203 241.363302 
L 103.457584 240.352015 
L 104.805966 239.677825 
L 106.154347 239.340729 
L 106.491442 239.340729 
" style="fill:none;stroke:#8c8c8c;stroke-linecap:square;"/>
   </g>
   <g id="line2d_113">
    <path clip-path="url(#pfcd0ce34b8)" d="M 108.514015 240.352015 
L 108.514015 240.689111 
L 108.514015 241.026206 
L 108.514015 241.363302 
L 108.85111 241.363302 
L 109.862396 241.363302 
L 110.873682 241.026206 
L 111.210778 240.689111 
" style="fill:none;stroke:#8c8c8c;stroke-linecap:square;"/>
   </g>
   <g id="line2d_114">
    <path clip-path="url(#pfcd0ce34b8)" d="M 115.255922 236.643966 
L 115.255922 236.981062 
L 115.593017 236.981062 
L 115.930113 237.655252 
L 116.604304 238.666539 
L 117.278494 240.01492 
L 117.952685 240.689111 
L 117.952685 241.026206 
" style="fill:none;stroke:#8c8c8c;stroke-linecap:square;"/>
   </g>
   <g id="line2d_115">
    <path clip-path="url(#pfcd0ce34b8)" d="M 118.626876 233.610108 
L 118.28978 233.610108 
L 118.626876 233.610108 
L 118.963971 233.610108 
L 119.638162 233.947203 
L 121.323639 234.958489 
L 123.009116 236.643966 
L 124.020402 237.992348 
L 124.020402 240.01492 
L 124.020402 240.352015 
" style="fill:none;stroke:#8c8c8c;stroke-linecap:square;"/>
   </g>
   <g id="line2d_116">
    <path clip-path="url(#pfcd0ce34b8)" d="M 86.602815 243.722969 
L 86.939911 243.722969 
L 86.602815 243.722969 
L 86.602815 244.060064 
L 86.602815 244.734255 
L 86.602815 245.408446 
L 86.939911 246.756827 
L 87.614101 248.105209 
L 88.625388 249.45359 
L 90.310864 250.127781 
L 91.996341 250.464877 
" style="fill:none;stroke:#8c8c8c;stroke-linecap:square;"/>
   </g>
   <g id="line2d_117">
    <path clip-path="url(#pfcd0ce34b8)" d="M 107.165633 234.284299 
L 107.165633 233.947203 
" style="fill:none;stroke:#8c8c8c;stroke-linecap:square;"/>
   </g>
   <g id="line2d_118">
    <path clip-path="url(#pfcd0ce34b8)" d="M 107.502729 233.610108 
L 107.165633 233.610108 
L 107.165633 233.273013 
L 106.828538 233.273013 
L 107.165633 233.273013 
L 107.502729 233.273013 
L 107.502729 232.935917 
L 107.839824 232.935917 
L 108.176919 232.935917 
L 108.85111 232.598822 
L 109.525301 232.261726 
L 110.199492 231.924631 
L 110.536587 231.587536 
L 111.210778 231.25044 
L 112.222064 230.57625 
L 112.896254 230.57625 
L 113.570445 230.239154 
L 114.581731 229.564963 
L 115.930113 228.890773 
L 117.278494 228.216582 
L 118.28978 227.542391 
L 119.301067 227.205296 
L 119.975257 226.8682 
L 120.649448 226.531105 
" style="fill:none;stroke:#8c8c8c;stroke-linecap:square;"/>
   </g>
   <g id="line2d_119">
    <path clip-path="url(#pfcd0ce34b8)" d="M 94.356009 243.722969 
L 94.356009 243.385874 
L 94.356009 243.048778 
L 94.693104 243.048778 
L 94.693104 243.385874 
L 95.0302 244.39716 
L 96.041486 246.082637 
L 96.378581 247.093923 
L 96.715677 248.442304 
L 96.715677 249.116495 
L 97.052772 249.116495 
L 97.052772 249.45359 
" style="fill:none;stroke:#8c8c8c;stroke-linecap:square;"/>
   </g>
   <g id="line2d_120">
    <path clip-path="url(#pfcd0ce34b8)" d="M 98.064058 243.385874 
L 98.064058 243.048778 
L 98.401153 242.711683 
L 98.401153 242.374588 
L 98.401153 242.711683 
L 98.064058 243.385874 
L 97.726963 243.722969 
L 97.726963 244.060064 
L 98.064058 244.39716 
L 98.401153 244.734255 
L 99.41244 244.734255 
L 100.760821 244.734255 
L 101.772107 245.071351 
L 102.783393 245.071351 
L 103.457584 245.408446 
L 104.131775 246.082637 
L 104.46887 246.756827 
L 104.46887 247.431018 
L 104.131775 248.105209 
L 103.794679 248.442304 
L 103.120489 248.7794 
L 102.446298 248.7794 
L 102.109203 248.7794 
" style="fill:none;stroke:#8c8c8c;stroke-linecap:square;"/>
   </g>
   <g id="line2d_121">
    <path clip-path="url(#pfcd0ce34b8)" d="M 98.401153 242.374588 
L 98.064058 242.374588 
L 98.064058 242.711683 
L 98.401153 242.711683 
L 98.738249 242.711683 
L 99.075344 242.711683 
L 100.423726 242.037492 
L 101.772107 241.363302 
L 102.783393 240.689111 
L 103.457584 240.352015 
" style="fill:none;stroke:#8c8c8c;stroke-linecap:square;"/>
   </g>
   <g id="line2d_122">
    <path clip-path="url(#pfcd0ce34b8)" d="M 108.176919 242.711683 
L 108.176919 243.048778 
L 108.85111 243.048778 
L 109.188205 242.711683 
L 110.199492 242.037492 
L 110.873682 241.700397 
L 111.210778 241.363302 
" style="fill:none;stroke:#8c8c8c;stroke-linecap:square;"/>
   </g>
   <g id="line2d_123">
    <path clip-path="url(#pfcd0ce34b8)" d="M 115.255922 236.306871 
L 115.593017 237.318157 
L 116.267208 238.666539 
L 116.941399 240.01492 
L 117.61559 241.026206 
L 117.952685 241.700397 
" style="fill:none;stroke:#8c8c8c;stroke-linecap:square;"/>
   </g>
   <g id="line2d_124">
    <path clip-path="url(#pfcd0ce34b8)" d="M 118.626876 232.261726 
L 118.28978 231.924631 
L 118.28978 231.587536 
L 118.963971 231.587536 
L 119.975257 232.261726 
L 121.660734 233.273013 
L 123.346211 234.621394 
L 124.357497 235.969776 
L 125.031688 236.981062 
L 125.031688 238.666539 
" style="fill:none;stroke:#8c8c8c;stroke-linecap:square;"/>
   </g>
   <g id="line2d_125">
    <path clip-path="url(#pfcd0ce34b8)" d="M 87.951197 248.7794 
L 87.614101 248.7794 
L 87.951197 248.7794 
L 87.951197 249.116495 
L 88.288292 249.45359 
L 88.625388 250.127781 
L 88.962483 250.127781 
" style="fill:none;stroke:#8c8c8c;stroke-linecap:square;"/>
   </g>
   <g id="line2d_126">
    <path clip-path="url(#pfcd0ce34b8)" d="M 143.571934 238.329443 
L 143.234838 238.329443 
L 143.571934 238.329443 
L 144.246124 237.992348 
L 145.25741 237.655252 
L 146.605792 237.318157 
L 147.954173 236.981062 
" style="fill:none;stroke:#8c8c8c;stroke-linecap:square;"/>
   </g>
   <g id="line2d_127">
    <path clip-path="url(#pfcd0ce34b8)" d="M 144.246124 246.419732 
L 144.58322 246.419732 
L 144.920315 246.419732 
L 145.25741 246.082637 
L 146.605792 245.745541 
L 148.628364 245.071351 
L 150.650936 244.734255 
L 150.988032 244.39716 
" style="fill:none;stroke:#8c8c8c;stroke-linecap:square;"/>
   </g>
   <g id="line2d_128">
    <path clip-path="url(#pfcd0ce34b8)" d="M 167.16861 232.598822 
L 167.16861 231.924631 
L 166.831514 231.587536 
L 166.831514 231.25044 
L 166.831514 231.587536 
L 167.16861 231.924631 
L 167.505705 233.610108 
L 168.179896 237.655252 
L 169.528277 243.048778 
L 170.202468 246.419732 
L 171.213754 248.7794 
L 171.55085 249.45359 
L 171.55085 249.790686 
" style="fill:none;stroke:#8c8c8c;stroke-linecap:square;"/>
   </g>
   <g id="line2d_129">
    <path clip-path="url(#pfcd0ce34b8)" d="M 166.157324 232.935917 
L 165.820228 232.935917 
L 165.483133 232.935917 
L 165.820228 232.935917 
L 166.157324 232.598822 
L 167.16861 232.598822 
L 169.865373 231.924631 
L 171.887945 230.913345 
L 173.573422 230.57625 
L 174.247613 230.239154 
" style="fill:none;stroke:#8c8c8c;stroke-linecap:square;"/>
   </g>
   <g id="line2d_130">
    <path clip-path="url(#pfcd0ce34b8)" d="M 169.528277 240.01492 
L 169.528277 240.352015 
L 169.191182 240.689111 
L 169.865373 241.026206 
L 170.876659 240.689111 
L 172.562136 240.01492 
L 173.236326 239.677825 
" style="fill:none;stroke:#8c8c8c;stroke-linecap:square;"/>
   </g>
   <g id="line2d_131">
    <path clip-path="url(#pfcd0ce34b8)" d="M 259.869838 165.516842 
L 259.869838 165.179747 
L 259.532742 165.179747 
L 259.532742 164.842652 
L 259.195647 164.505556 
L 259.532742 164.842652 
L 259.869838 166.528128 
L 261.218219 169.224891 
L 263.240791 174.618417 
L 265.263364 179.337753 
L 265.937554 181.360325 
L 266.611745 182.034516 
L 266.611745 181.360325 
L 266.27465 181.360325 
" style="fill:none;stroke:#8c8c8c;stroke-linecap:square;"/>
   </g>
   <g id="line2d_132">
    <path clip-path="url(#pfcd0ce34b8)" d="M 257.847265 162.820079 
L 257.51017 162.820079 
L 257.51017 162.482984 
L 258.858551 161.808793 
L 261.218219 161.134603 
L 263.240791 160.460412 
L 264.926268 159.449126 
L 265.263364 159.449126 
" style="fill:none;stroke:#8c8c8c;stroke-linecap:square;"/>
   </g>
   <g id="line2d_133">
    <path clip-path="url(#pfcd0ce34b8)" d="M 263.240791 170.573273 
L 263.577887 171.247464 
L 264.252077 171.247464 
L 264.926268 171.247464 
L 266.611745 170.573273 
L 268.634317 169.224891 
L 269.982699 168.213605 
" style="fill:none;stroke:#8c8c8c;stroke-linecap:square;"/>
   </g>
   <g id="line2d_134">
    <path clip-path="url(#pfcd0ce34b8)" d="M 282.792323 163.831365 
L 283.129418 163.831365 
L 283.129418 163.49427 
L 283.803609 162.482984 
L 284.4778 161.808793 
L 285.489086 160.797507 
L 286.163277 160.460412 
L 286.837467 160.460412 
L 287.174563 160.797507 
L 287.848754 161.808793 
L 288.522944 162.482984 
L 289.871326 162.820079 
L 291.219707 162.145889 
L 292.230993 161.134603 
L 293.24228 160.123316 
L 293.91647 159.11203 
L 294.253566 158.774935 
" style="fill:none;stroke:#8c8c8c;stroke-linecap:square;"/>
   </g>
   <g id="line2d_135">
    <path clip-path="url(#pfcd0ce34b8)" d="M 286.837467 174.281322 
L 286.837467 173.944227 
L 286.500372 173.944227 
L 286.837467 173.607131 
L 287.511658 172.595845 
L 288.86004 171.247464 
L 290.208421 170.236178 
L 291.556803 170.236178 
L 292.230993 170.573273 
L 293.24228 171.247464 
L 293.579375 171.584559 
L 294.253566 171.921654 
L 295.264852 171.247464 
L 295.939043 170.236178 
L 296.950329 168.887796 
L 297.624519 167.87651 
L 297.961615 167.202319 
L 298.29871 167.202319 
" style="fill:none;stroke:#8c8c8c;stroke-linecap:square;"/>
   </g>
   <g id="line2d_136">
    <path clip-path="url(#pfcd0ce34b8)" d="M 316.50186 160.460412 
L 316.50186 160.123316 
L 316.164765 160.123316 
L 315.82767 160.123316 
L 315.490574 160.123316 
L 315.153479 160.123316 
L 314.479288 160.797507 
L 314.142193 162.482984 
L 314.479288 164.168461 
L 316.164765 167.202319 
L 318.187337 168.550701 
L 320.547005 168.550701 
L 322.569577 167.87651 
L 323.580863 166.191033 
L 323.580863 164.505556 
L 322.569577 162.482984 
L 320.547005 160.797507 
L 318.861528 160.123316 
L 316.838956 160.123316 
L 316.164765 160.460412 
L 315.82767 161.134603 
" style="fill:none;stroke:#8c8c8c;stroke-linecap:square;"/>
   </g>
   <g id="line2d_137">
    <path clip-path="url(#pfcd0ce34b8)" d="M 330.659866 164.168461 
L 330.996961 164.505556 
L 330.996961 164.842652 
L 331.334057 164.842652 
L 331.334057 165.179747 
L 331.671152 165.179747 
" style="fill:none;stroke:#8c8c8c;stroke-linecap:square;"/>
   </g>
   <g id="line2d_138">
    <path clip-path="url(#pfcd0ce34b8)" d="M 340.098537 155.403981 
L 340.098537 155.066886 
L 340.098537 154.72979 
L 339.761441 154.72979 
L 339.761441 154.392695 
L 339.424346 154.392695 
L 338.750155 154.392695 
L 337.401774 155.066886 
L 336.390487 156.078172 
L 336.053392 157.426553 
L 336.727583 158.43784 
L 337.738869 158.774935 
L 339.08725 158.43784 
L 340.098537 157.426553 
L 340.772727 155.741077 
L 341.109823 154.72979 
L 341.109823 154.0556 
L 341.446918 154.0556 
L 341.446918 154.72979 
L 342.121109 156.415267 
L 342.458204 158.43784 
L 343.46949 161.134603 
L 344.143681 162.820079 
L 345.154967 164.505556 
L 345.492063 165.179747 
L 345.829158 165.179747 
" style="fill:none;stroke:#8c8c8c;stroke-linecap:square;"/>
   </g>
   <g id="line2d_139">
    <path clip-path="url(#pfcd0ce34b8)" d="M 349.200112 153.718504 
L 349.200112 153.381409 
L 348.863016 153.044314 
L 348.863016 152.707218 
L 348.863016 153.044314 
L 348.525921 153.381409 
L 348.525921 155.403981 
L 348.863016 157.763649 
L 349.537207 160.123316 
L 351.222684 162.820079 
L 352.571065 163.49427 
L 353.919447 163.831365 
L 354.930733 163.49427 
L 355.267828 162.482984 
L 355.604924 161.471698 
L 355.267828 160.797507 
L 354.256542 160.460412 
L 352.571065 160.797507 
L 350.885588 161.134603 
L 349.200112 162.145889 
L 348.863016 162.482984 
" style="fill:none;stroke:#8c8c8c;stroke-linecap:square;"/>
   </g>
   <g id="line2d_140">
    <path clip-path="url(#pfcd0ce34b8)" d="M 404.483753 148.662074 
L 404.146658 148.662074 
L 404.146658 148.999169 
L 404.146658 149.336264 
L 403.809562 149.67336 
L 403.809562 151.021741 
L 404.483753 153.718504 
L 404.820848 155.066886 
L 406.16923 156.078172 
L 407.854707 156.078172 
L 409.203088 155.066886 
L 410.214374 154.0556 
" style="fill:none;stroke:#8c8c8c;stroke-linecap:square;"/>
   </g>
   <g id="line2d_141">
    <path clip-path="url(#pfcd0ce34b8)" d="M 409.877279 149.336264 
L 409.877279 148.999169 
L 409.540184 148.999169 
L 409.203088 149.336264 
L 409.203088 150.347551 
L 409.540184 152.033027 
L 410.55147 155.741077 
L 411.562756 159.449126 
L 412.574042 162.145889 
L 413.248233 163.49427 
L 413.922423 164.168461 
L 414.259519 164.168461 
" style="fill:none;stroke:#8c8c8c;stroke-linecap:square;"/>
   </g>
   <g id="line2d_142">
    <path clip-path="url(#pfcd0ce34b8)" d="M 420.664331 146.639501 
L 420.664331 146.976597 
L 420.664331 147.650788 
L 421.001426 147.987883 
L 421.675617 148.324978 
L 422.349808 148.324978 
L 423.023999 147.650788 
L 423.361094 146.639501 
L 422.686903 146.302406 
L 422.349808 145.965311 
L 421.338522 146.302406 
L 421.001426 146.976597 
L 420.664331 146.976597 
" style="fill:none;stroke:#8c8c8c;stroke-linecap:square;"/>
   </g>
   <g id="line2d_143">
    <path clip-path="url(#pfcd0ce34b8)" d="M 437.856195 154.392695 
L 437.856195 154.72979 
L 437.5191 154.72979 
L 437.182004 154.72979 
L 437.182004 155.066886 
L 436.844909 155.403981 
L 436.844909 156.078172 
L 437.182004 157.426553 
L 437.5191 158.100744 
L 438.530386 157.763649 
L 439.541672 157.089458 
L 439.541672 156.078172 
L 438.867481 155.403981 
L 438.19329 155.066886 
L 437.182004 155.403981 
L 436.844909 155.403981 
" style="fill:none;stroke:#8c8c8c;stroke-linecap:square;"/>
   </g>
   <g id="line2d_144">
    <path clip-path="url(#pfcd0ce34b8)" d="M 426.057857 164.168461 
L 425.720762 164.168461 
L 425.720762 163.831365 
L 427.406238 161.134603 
L 430.440097 157.089458 
L 434.822337 150.684646 
L 438.530386 144.616929 
L 439.878767 142.257262 
L 440.552958 140.90888 
L 440.890053 140.234689 
L 440.890053 140.571785 
" style="fill:none;stroke:#8c8c8c;stroke-linecap:square;"/>
   </g>
   <g id="line2d_145">
    <path clip-path="url(#pfcd0ce34b8)" d="M 461.789967 152.707218 
L 461.789967 152.370123 
L 461.789967 152.033027 
L 461.789967 151.358837 
L 461.115776 151.021741 
L 460.441585 151.021741 
L 459.093204 151.695932 
L 457.744822 153.718504 
L 457.407727 156.415267 
L 458.756108 158.43784 
L 460.10449 159.11203 
L 462.464157 158.774935 
L 464.149634 157.089458 
L 464.823825 155.741077 
" style="fill:none;stroke:#8c8c8c;stroke-linecap:square;"/>
   </g>
   <g id="line2d_146">
    <path clip-path="url(#pfcd0ce34b8)" d="M 465.498016 152.707218 
L 465.498016 153.044314 
L 465.498016 153.381409 
L 466.172206 154.392695 
L 467.183492 155.741077 
L 468.194779 156.752363 
L 468.868969 157.763649 
L 468.868969 158.100744 
L 468.868969 158.43784 
L 468.531874 157.763649 
L 467.857683 156.752363 
L 467.520588 155.741077 
L 467.857683 154.0556 
L 468.868969 152.707218 
L 468.868969 152.033027 
" style="fill:none;stroke:#8c8c8c;stroke-linecap:square;"/>
   </g>
   <g id="line2d_147">
    <path clip-path="url(#pfcd0ce34b8)" d="M 471.228637 152.033027 
L 470.891542 153.044314 
L 471.228637 154.0556 
L 471.565732 154.72979 
L 472.577018 155.066886 
L 473.588305 154.72979 
L 474.599591 154.0556 
L 475.273781 153.044314 
L 475.273781 151.695932 
L 475.273781 151.021741 
L 475.273781 150.684646 
L 475.273781 151.021741 
L 475.610877 152.033027 
L 476.285068 154.392695 
L 477.633449 157.426553 
L 478.30764 158.774935 
L 479.318926 159.786221 
L 479.656021 159.786221 
" style="fill:none;stroke:#8c8c8c;stroke-linecap:square;"/>
   </g>
   <g id="line2d_148">
    <path clip-path="url(#pfcd0ce34b8)" d="M 481.341498 152.033027 
L 481.341498 151.358837 
L 481.341498 151.021741 
L 481.004403 150.684646 
L 480.667307 150.347551 
L 479.993117 150.684646 
L 479.318926 151.695932 
L 479.318926 152.370123 
L 479.318926 152.707218 
L 479.993117 153.381409 
L 481.004403 153.718504 
L 482.015689 154.392695 
L 482.68988 155.066886 
L 483.36407 156.078172 
L 483.36407 157.426553 
L 483.026975 158.100744 
L 482.352784 158.774935 
L 482.352784 158.43784 
L 482.015689 158.43784 
" style="fill:none;stroke:#8c8c8c;stroke-linecap:square;"/>
   </g>
   <g id="line2d_149">
    <path clip-path="url(#pfcd0ce34b8)" d="M 483.36407 151.358837 
L 483.701166 150.347551 
L 483.701166 150.010455 
L 483.701166 149.67336 
L 484.038261 149.67336 
L 484.375357 150.010455 
L 485.049547 151.021741 
L 485.723738 153.044314 
L 487.07212 154.72979 
L 487.74631 156.078172 
L 488.083406 156.752363 
L 488.420501 156.752363 
" style="fill:none;stroke:#8c8c8c;stroke-linecap:square;"/>
   </g>
   <g id="line2d_150">
    <path clip-path="url(#pfcd0ce34b8)" d="M 485.049547 153.718504 
L 484.712452 153.718504 
L 484.375357 153.718504 
L 484.375357 153.381409 
L 485.049547 153.044314 
L 486.060833 152.370123 
L 488.083406 151.695932 
L 489.094692 151.695932 
L 489.768883 151.358837 
" style="fill:none;stroke:#8c8c8c;stroke-linecap:square;"/>
   </g>
   <g id="line2d_151">
    <path clip-path="url(#pfcd0ce34b8)" d="M 494.825313 150.684646 
L 494.488218 150.684646 
L 494.151122 150.684646 
L 493.814027 150.684646 
L 493.476932 150.684646 
L 492.802741 151.021741 
L 491.791455 152.033027 
L 491.117264 153.718504 
L 491.454359 155.403981 
L 492.465646 155.741077 
L 494.151122 155.741077 
L 495.162409 154.392695 
L 495.836599 153.044314 
L 496.173695 151.695932 
L 495.836599 150.010455 
L 495.836599 149.336264 
L 495.499504 148.999169 
L 495.499504 149.336264 
L 495.499504 150.010455 
L 496.173695 151.358837 
L 496.847885 153.381409 
L 497.522076 155.066886 
L 498.533362 156.752363 
L 498.870458 157.089458 
L 498.870458 157.426553 
" style="fill:none;stroke:#8c8c8c;stroke-linecap:square;"/>
   </g>
   <g id="line2d_152">
    <path clip-path="url(#pfcd0ce34b8)" d="M 499.881744 142.931452 
L 499.881744 142.594357 
L 499.544648 142.594357 
L 499.544648 142.931452 
L 499.881744 144.279834 
L 500.555935 146.302406 
L 501.230125 148.999169 
L 502.241411 152.033027 
L 503.252698 154.72979 
L 503.589793 155.741077 
L 503.926888 156.078172 
L 504.263984 156.078172 
" style="fill:none;stroke:#8c8c8c;stroke-linecap:square;"/>
   </g>
   <g id="line2d_153">
    <path clip-path="url(#pfcd0ce34b8)" d="M 504.601079 139.897594 
L 504.263984 139.897594 
L 504.601079 139.897594 
L 504.601079 140.234689 
L 504.938174 141.583071 
L 506.286556 144.279834 
L 507.297842 146.976597 
L 508.309128 149.67336 
L 508.983319 151.021741 
L 509.65751 151.695932 
L 509.65751 152.033027 
" style="fill:none;stroke:#8c8c8c;stroke-linecap:square;"/>
   </g>
   <g id="line2d_154">
    <path clip-path="url(#pfcd0ce34b8)" d="M 512.017177 147.987883 
L 512.354273 149.336264 
L 512.354273 150.347551 
L 512.691368 151.021741 
" style="fill:none;stroke:#8c8c8c;stroke-linecap:square;"/>
   </g>
   <g id="line2d_155">
    <path clip-path="url(#pfcd0ce34b8)" d="M 511.680082 142.594357 
L 511.680082 141.583071 
L 511.680082 141.245975 
" style="fill:none;stroke:#8c8c8c;stroke-linecap:square;"/>
   </g>
   <g id="line2d_156">
    <path clip-path="url(#pfcd0ce34b8)" d="M 514.71394 143.942738 
L 514.71394 144.279834 
L 515.051036 144.279834 
L 516.062322 144.279834 
L 517.410703 144.279834 
L 518.421989 144.279834 
L 519.09618 144.279834 
L 518.759085 144.954025 
L 518.421989 145.965311 
L 517.410703 147.987883 
L 517.410703 149.336264 
L 517.747799 150.010455 
L 518.759085 150.347551 
L 519.770371 150.347551 
L 521.118752 150.010455 
L 521.792943 149.67336 
" style="fill:none;stroke:#8c8c8c;stroke-linecap:square;"/>
   </g>
   <g id="line2d_157">
    <path clip-path="url(#pfcd0ce34b8)" d="M 525.500992 145.628215 
L 525.500992 145.965311 
L 525.838088 146.302406 
L 526.175183 146.302406 
L 526.512278 146.302406 
L 527.186469 146.302406 
L 527.86066 145.628215 
L 528.197755 144.954025 
L 527.86066 144.616929 
L 527.523564 144.616929 
L 526.849374 145.29112 
L 526.175183 146.639501 
L 525.838088 148.324978 
L 526.175183 149.336264 
L 526.849374 150.010455 
L 527.523564 150.347551 
" style="fill:none;stroke:#8c8c8c;stroke-linecap:square;"/>
   </g>
   <g id="line2d_158">
    <path clip-path="url(#pfcd0ce34b8)" d="M 531.568709 146.639501 
L 531.568709 145.965311 
L 532.2429 145.29112 
L 532.2429 144.954025 
L 532.2429 144.616929 
L 531.905804 144.616929 
L 531.568709 144.954025 
L 530.557423 145.628215 
L 529.883232 146.302406 
L 529.546137 147.650788 
L 529.883232 148.324978 
L 530.557423 148.999169 
L 531.231614 148.999169 
L 532.2429 148.324978 
L 532.91709 147.313692 
L 533.254186 144.954025 
L 532.91709 141.245975 
L 532.579995 137.875022 
L 531.905804 135.178259 
L 531.905804 134.504068 
L 531.568709 134.504068 
L 531.568709 135.515354 
L 532.2429 137.200831 
L 532.91709 140.90888 
L 533.591281 144.616929 
L 534.265472 147.313692 
L 534.602567 148.662074 
L 534.939663 149.336264 
" style="fill:none;stroke:#8c8c8c;stroke-linecap:square;"/>
   </g>
  </g>
 </g>
 <defs>
  <clipPath id="pfcd0ce34b8">
   <rect height="271.8" width="552.870123" x="7.2" y="7.2"/>
  </clipPath>
 </defs>
</svg>
