<?xml version="1.0" encoding="utf-8" standalone="no"?>
<!DOCTYPE svg PUBLIC "-//W3C//DTD SVG 1.1//EN"
  "http://www.w3.org/Graphics/SVG/1.1/DTD/svg11.dtd">
<!-- Created with matplotlib (https://matplotlib.org/) -->
<svg height="286.2pt" version="1.1" viewBox="0 0 507.590239 286.2" width="507.590239pt" xmlns="http://www.w3.org/2000/svg" xmlns:xlink="http://www.w3.org/1999/xlink">
 <metadata>
  <rdf:RDF xmlns:cc="http://creativecommons.org/ns#" xmlns:dc="http://purl.org/dc/elements/1.1/" xmlns:rdf="http://www.w3.org/1999/02/22-rdf-syntax-ns#">
   <cc:Work>
    <dc:type rdf:resource="http://purl.org/dc/dcmitype/StillImage"/>
    <dc:date>2024-11-21T14:44:22.859437</dc:date>
    <dc:format>image/svg+xml</dc:format>
    <dc:creator>
     <cc:Agent>
      <dc:title>Matplotlib v3.3.4, https://matplotlib.org/</dc:title>
     </cc:Agent>
    </dc:creator>
   </cc:Work>
  </rdf:RDF>
 </metadata>
 <defs>
  <style type="text/css">*{stroke-linecap:butt;stroke-linejoin:round;}</style>
 </defs>
 <g id="figure_1">
  <g id="patch_1">
   <path d="M -0 286.2 
L 507.590239 286.2 
L 507.590239 0 
L -0 0 
z
" style="fill:#ffffff;"/>
  </g>
  <g id="axes_1">
   <g id="line2d_1">
    <path clip-path="url(#p8b00651ff5)" d="M 92.328446 46.889982 
L 92.328446 48.497949 
L 92.596441 48.765944 
L 92.596441 53.589844 
L 92.864435 54.125833 
L 92.864435 62.433662 
L 93.13243 62.701656 
L 93.13243 66.453579 
L 93.400424 66.989568 
L 93.400424 68.597535 
L 93.13243 68.865529 
L 93.13243 72.617452 
L 92.864435 72.885447 
L 92.864435 75.029402 
L 92.596441 76.10138 
L 92.596441 76.905364 
L 92.328446 77.173358 
L 92.328446 79.04932 
L 92.060452 79.317314 
L 92.060452 81.193275 
L 91.792457 81.46127 
L 91.792457 82.801242 
L 92.060452 83.069237 
L 92.060452 84.677204 
L 92.328446 84.945198 
L 92.328446 86.82116 
L 92.596441 87.089154 
L 92.596441 88.697121 
L 92.864435 89.501104 
L 92.864435 90.573082 
L 93.13243 91.377066 
L 93.13243 92.181049 
L 93.400424 92.717038 
L 93.400424 94.860994 
L 93.668418 95.128988 
L 93.668418 103.436817 
L 93.400424 103.704812 
L 93.400424 106.652751 
L 93.400424 106.652751 
" style="fill:none;stroke:#8c8c8c;stroke-linecap:square;"/>
   </g>
   <g id="line2d_2">
    <path clip-path="url(#p8b00651ff5)" d="M 92.864435 45.818004 
L 93.13243 45.818004 
L 93.400424 45.818004 
L 93.668418 45.818004 
L 93.936413 45.818004 
L 94.204407 45.818004 
L 94.204407 46.085999 
L 94.472402 46.085999 
L 94.740396 46.085999 
L 95.008391 46.085999 
L 95.276385 46.085999 
L 95.54438 46.085999 
L 95.54438 45.818004 
L 96.080369 45.818004 
L 96.348363 45.818004 
L 96.616358 45.818004 
L 96.884352 45.818004 
L 97.152347 45.818004 
L 97.420341 45.818004 
L 97.688336 46.085999 
L 97.95633 46.085999 
L 98.224325 46.085999 
L 98.492319 46.085999 
L 98.760314 46.085999 
" style="fill:none;stroke:#8c8c8c;stroke-linecap:square;"/>
   </g>
   <g id="line2d_3">
    <path clip-path="url(#p8b00651ff5)" d="M 98.760314 45.55001 
L 99.028308 45.55001 
L 99.296303 45.55001 
L 99.564297 45.55001 
L 99.832291 45.818004 
L 100.100286 45.818004 
L 100.636275 45.55001 
L 100.904269 45.55001 
L 101.440258 45.55001 
L 101.708253 45.55001 
L 101.976247 45.55001 
L 102.244242 45.55001 
L 102.512236 45.55001 
L 102.780231 45.55001 
L 103.048225 45.55001 
L 103.31622 45.282015 
" style="fill:none;stroke:#8c8c8c;stroke-linecap:square;"/>
   </g>
   <g id="line2d_4">
    <path clip-path="url(#p8b00651ff5)" d="M 105.192181 45.55001 
L 105.192181 45.818004 
L 105.192181 46.085999 
L 105.192181 46.353993 
L 105.192181 46.621988 
L 105.192181 46.889982 
L 105.192181 47.157977 
L 105.192181 47.425971 
L 105.192181 47.693966 
L 105.460176 47.96196 
L 105.460176 48.229955 
L 105.460176 48.765944 
L 105.460176 49.033938 
L 105.460176 49.569927 
L 105.460176 50.105916 
L 105.460176 50.37391 
L 105.460176 50.909899 
L 105.72817 51.177894 
L 105.72817 51.445888 
L 105.72817 51.713883 
L 105.72817 51.981877 
" style="fill:none;stroke:#8c8c8c;stroke-linecap:square;"/>
   </g>
   <g id="line2d_5">
    <path clip-path="url(#p8b00651ff5)" d="M 106.264159 50.909899 
L 106.532153 50.909899 
L 106.800148 50.909899 
L 107.068142 50.909899 
L 107.604131 50.909899 
L 108.408115 50.909899 
L 108.944104 50.909899 
L 109.748087 50.641905 
L 110.552071 50.641905 
L 111.08806 50.37391 
L 111.624049 50.37391 
L 112.160037 50.37391 
L 112.696026 50.37391 
L 112.964021 50.37391 
L 113.768004 50.105916 
L 114.035999 50.105916 
L 114.303993 50.105916 
L 114.571988 50.105916 
L 114.839982 50.105916 
L 115.375971 50.105916 
L 115.643966 50.37391 
L 115.91196 50.37391 
L 116.179955 50.37391 
L 116.447949 50.37391 
L 116.715944 50.37391 
L 116.983938 50.37391 
L 117.251933 50.37391 
L 117.519927 50.37391 
L 117.787922 50.37391 
" style="fill:none;stroke:#8c8c8c;stroke-linecap:square;"/>
   </g>
   <g id="line2d_6">
    <path clip-path="url(#p8b00651ff5)" d="M 119.395888 52.517866 
L 119.395888 52.785861 
L 119.395888 53.32185 
L 119.663883 53.857839 
L 119.663883 54.125833 
L 119.931877 54.929817 
L 120.199872 55.465806 
L 120.199872 56.001795 
L 120.199872 56.537783 
L 120.467866 57.341767 
L 120.467866 57.877756 
L 120.735861 58.949734 
L 120.735861 59.217728 
L 120.735861 60.021712 
L 120.735861 60.825695 
L 120.735861 61.361684 
L 120.735861 61.629679 
L 121.003855 62.433662 
L 121.003855 62.701656 
L 121.003855 63.237645 
L 121.003855 63.773634 
L 121.003855 64.041629 
L 121.003855 64.309623 
L 121.003855 64.577618 
" style="fill:none;stroke:#8c8c8c;stroke-linecap:square;"/>
   </g>
   <g id="line2d_7">
    <path clip-path="url(#p8b00651ff5)" d="M 125.291767 64.845612 
L 126.631739 64.845612 
L 127.167728 64.845612 
L 128.507701 64.577618 
L 129.04369 64.577618 
L 130.383662 64.577618 
L 131.991629 64.577618 
L 132.795612 64.577618 
L 133.86759 64.577618 
L 135.475557 64.577618 
L 136.547535 64.577618 
L 137.619513 64.577618 
L 139.495474 64.577618 
L 141.371436 64.309623 
L 142.979402 64.309623 
L 144.319375 64.309623 
L 146.731325 64.041629 
L 147.535309 64.041629 
L 149.679264 64.041629 
L 151.82322 64.041629 
L 153.163193 64.041629 
L 154.503165 63.773634 
L 156.111132 63.773634 
L 157.18311 64.041629 
L 158.791077 64.041629 
L 159.59506 64.041629 
L 160.667038 64.041629 
L 161.471021 64.041629 
L 162.810994 64.041629 
L 163.882972 64.041629 
L 164.95495 64.041629 
L 166.026928 64.041629 
L 166.830911 64.041629 
L 168.170883 64.041629 
L 169.242861 64.041629 
L 170.850828 64.041629 
L 171.654812 64.041629 
L 172.72679 64.041629 
L 174.334756 64.041629 
L 175.406734 64.041629 
L 176.478712 64.041629 
L 178.086679 64.041629 
L 179.158657 63.773634 
L 181.034618 63.773634 
L 182.106596 63.773634 
L 183.178574 63.773634 
L 185.054536 63.773634 
L 186.126514 63.50564 
L 188.002475 63.50564 
L 188.806458 63.50564 
L 189.878436 63.50564 
L 191.218409 63.50564 
L 192.022392 63.50564 
L 192.826375 63.50564 
L 193.898353 63.50564 
L 194.434342 63.773634 
L 195.238326 63.773634 
L 195.774315 63.773634 
L 196.042309 63.773634 
L 196.310304 63.773634 
" style="fill:none;stroke:#8c8c8c;stroke-linecap:square;"/>
   </g>
   <g id="line2d_8">
    <path clip-path="url(#p8b00651ff5)" d="M 196.578298 62.165668 
L 196.578298 61.897673 
L 196.578298 61.629679 
L 196.578298 61.361684 
L 196.578298 61.09369 
L 196.578298 60.825695 
L 196.578298 60.557701 
L 196.578298 60.289706 
L 196.578298 60.021712 
L 196.578298 59.753717 
L 196.578298 59.485723 
L 196.578298 58.949734 
L 196.578298 58.681739 
L 196.578298 58.14575 
L 196.578298 57.877756 
L 196.578298 57.609761 
L 196.578298 57.073772 
L 196.578298 56.805778 
L 196.578298 56.537783 
L 196.578298 56.269789 
L 196.310304 56.001795 
L 196.310304 55.7338 
L 196.310304 55.465806 
L 196.310304 55.197811 
L 196.310304 54.929817 
L 196.310304 54.661822 
L 196.042309 54.393828 
L 196.042309 54.125833 
L 196.042309 53.857839 
L 196.042309 53.589844 
L 196.042309 53.32185 
L 195.774315 53.32185 
L 195.774315 53.053855 
L 195.774315 52.785861 
" style="fill:none;stroke:#8c8c8c;stroke-linecap:square;"/>
   </g>
   <g id="line2d_9">
    <path clip-path="url(#p8b00651ff5)" d="M 196.578298 51.713883 
L 196.846293 51.713883 
L 197.114287 51.713883 
L 197.382282 51.713883 
L 197.650276 51.713883 
L 197.918271 51.713883 
L 198.186265 51.713883 
L 198.722254 51.713883 
L 198.990248 51.713883 
L 199.794232 51.713883 
L 200.330221 51.981877 
L 201.134204 51.981877 
L 201.670193 51.981877 
L 202.206182 51.981877 
L 203.27816 52.249872 
L 203.814149 52.249872 
L 204.350138 52.249872 
L 205.422116 52.249872 
L 206.226099 52.249872 
L 207.030083 52.249872 
L 207.834066 52.517866 
L 208.63805 52.517866 
L 209.174039 52.517866 
L 209.978022 52.517866 
L 210.782006 52.517866 
L 211.317994 52.517866 
L 211.853983 52.517866 
L 212.657967 52.517866 
L 213.193956 52.785861 
L 214.265934 52.785861 
L 214.801923 52.785861 
L 215.337912 52.785861 
L 216.40989 52.785861 
L 216.945879 52.785861 
L 217.749862 52.785861 
L 218.82184 52.785861 
L 219.357829 52.785861 
L 220.161812 52.517866 
L 220.697801 52.517866 
L 221.501785 52.517866 
L 222.037774 52.517866 
L 222.305768 52.517866 
L 222.841757 52.517866 
L 223.377746 52.517866 
L 223.64574 52.517866 
" style="fill:none;stroke:#8c8c8c;stroke-linecap:square;"/>
   </g>
   <g id="line2d_10">
    <path clip-path="url(#p8b00651ff5)" d="M 223.913735 51.445888 
L 223.913735 51.177894 
L 223.913735 50.909899 
L 223.913735 50.37391 
L 223.913735 50.105916 
L 223.913735 49.837922 
L 223.913735 49.301933 
L 223.913735 48.765944 
L 223.913735 48.229955 
L 223.64574 47.693966 
L 223.913735 47.157977 
L 223.913735 46.889982 
L 223.913735 46.353993 
L 223.913735 46.085999 
L 223.913735 45.818004 
L 223.913735 45.55001 
L 223.913735 45.282015 
" style="fill:none;stroke:#8c8c8c;stroke-linecap:square;"/>
   </g>
   <g id="line2d_11">
    <path clip-path="url(#p8b00651ff5)" d="M 223.64574 44.478032 
L 223.377746 44.478032 
L 223.64574 44.478032 
L 223.913735 44.478032 
L 224.181729 44.478032 
L 224.449724 44.478032 
L 224.985713 44.210037 
L 225.521702 44.210037 
L 226.59368 44.210037 
L 227.129669 44.210037 
L 228.201647 43.942043 
L 229.00563 43.942043 
L 229.809613 43.942043 
L 230.345602 43.674049 
L 231.149586 43.674049 
L 231.41758 43.674049 
" style="fill:none;stroke:#8c8c8c;stroke-linecap:square;"/>
   </g>
   <g id="line2d_12">
    <path clip-path="url(#p8b00651ff5)" d="M 232.757553 45.55001 
L 232.757553 45.818004 
L 232.757553 46.085999 
L 232.757553 46.353993 
L 232.757553 46.621988 
L 232.757553 47.157977 
L 232.757553 47.693966 
L 233.025547 48.229955 
L 233.025547 48.497949 
L 233.025547 49.033938 
L 233.025547 49.569927 
L 233.025547 50.105916 
L 233.025547 50.641905 
L 233.025547 51.177894 
L 233.025547 51.713883 
L 233.025547 51.981877 
L 233.293542 52.785861 
L 233.293542 53.32185 
L 233.293542 54.125833 
L 233.293542 54.661822 
L 233.293542 55.465806 
L 233.293542 56.001795 
L 233.293542 56.805778 
L 233.293542 57.341767 
L 233.293542 58.14575 
L 233.293542 58.949734 
L 233.293542 59.217728 
L 233.293542 59.753717 
L 233.293542 60.289706 
L 233.293542 60.825695 
L 233.293542 61.361684 
L 233.293542 61.897673 
L 233.293542 62.165668 
L 233.561536 62.701656 
L 233.561536 63.50564 
L 233.561536 63.773634 
L 233.561536 64.309623 
L 233.561536 65.113607 
L 233.561536 65.649596 
L 233.829531 66.721574 
L 233.829531 67.525557 
L 233.829531 67.793552 
L 234.097525 68.865529 
L 234.097525 69.669513 
L 234.097525 70.205502 
L 234.097525 70.741491 
L 234.097525 71.545474 
L 234.36552 71.813469 
L 234.36552 72.349458 
L 234.36552 73.153441 
L 234.36552 73.421436 
L 234.36552 73.957425 
L 234.633514 74.761408 
L 234.633514 75.565391 
L 234.633514 76.10138 
L 234.633514 76.637369 
L 234.633514 77.173358 
L 234.901509 78.245336 
L 234.901509 78.781325 
L 234.901509 79.317314 
L 234.901509 80.389292 
L 234.901509 81.193275 
L 235.169503 81.729264 
L 235.169503 82.265253 
L 235.169503 82.801242 
L 235.169503 83.605226 
L 235.169503 84.141215 
L 235.169503 84.677204 
L 235.169503 85.213193 
L 235.437498 85.481187 
L 235.437498 86.285171 
L 235.437498 86.553165 
L 235.437498 87.357148 
L 235.437498 87.893137 
L 235.437498 88.697121 
L 235.437498 89.769099 
L 235.437498 90.573082 
L 235.437498 91.109071 
L 235.169503 92.181049 
L 235.169503 92.717038 
L 235.169503 93.789016 
L 234.901509 94.325005 
L 234.901509 94.860994 
L 234.901509 95.664977 
L 234.633514 96.468961 
L 234.633514 97.00495 
L 234.633514 97.540939 
L 234.633514 97.808933 
L 234.36552 98.076928 
L 234.36552 98.344922 
" style="fill:none;stroke:#8c8c8c;stroke-linecap:square;"/>
   </g>
   <g id="line2d_13">
    <path clip-path="url(#p8b00651ff5)" d="M 93.400424 107.724729 
L 101.976247 107.724729 
L 102.512236 107.456734 
L 103.584214 107.456734 
L 104.120203 107.18874 
L 105.460176 107.18874 
L 106.264159 106.920745 
L 107.336137 106.920745 
L 108.14012 106.652751 
L 111.356054 106.652751 
L 112.428032 106.384756 
L 113.768004 106.384756 
L 114.839982 106.116762 
L 118.32391 106.116762 
L 119.931877 105.848768 
L 131.187645 105.848768 
L 132.795612 105.580773 
L 138.691491 105.580773 
L 140.299458 105.312779 
L 164.686955 105.312779 
L 166.026928 105.580773 
L 177.818685 105.580773 
L 178.890663 105.312779 
L 182.106596 105.312779 
L 184.786541 105.044784 
L 190.414425 105.044784 
L 191.486403 104.77679 
L 197.382282 104.77679 
L 198.45426 104.508795 
L 200.86621 104.508795 
L 202.474177 104.240801 
L 204.350138 104.240801 
L 205.422116 103.972806 
L 208.63805 103.972806 
L 209.442033 103.704812 
L 213.193956 103.704812 
L 213.997939 103.436817 
L 220.429807 103.436817 
L 221.23379 103.168823 
L 224.181729 103.168823 
L 224.717718 102.900828 
L 226.59368 102.900828 
L 226.861674 102.632834 
L 228.469641 102.632834 
L 229.00563 102.364839 
L 231.685575 102.364839 
L 232.221564 102.096845 
L 234.633514 102.096845 
L 234.633514 101.82885 
L 235.705492 101.82885 
L 235.705492 101.560856 
L 235.973486 101.560856 
L 235.973486 101.292861 
L 236.241481 101.024867 
L 236.241481 98.880911 
L 235.973486 98.612917 
L 235.973486 98.076928 
L 235.705492 97.808933 
L 235.705492 97.540939 
L 235.705492 97.540939 
" style="fill:none;stroke:#8c8c8c;stroke-linecap:square;"/>
   </g>
   <g id="line2d_14">
    <path clip-path="url(#p8b00651ff5)" d="M 125.023772 98.880911 
L 125.291767 98.880911 
L 125.291767 99.148906 
L 125.559761 99.148906 
L 125.559761 99.4169 
L 125.827756 99.684894 
L 125.827756 99.952889 
L 126.09575 100.220883 
L 126.363745 100.488878 
L 126.363745 100.756872 
L 126.631739 101.024867 
L 126.899734 101.560856 
L 126.899734 101.82885 
L 127.167728 102.364839 
L 127.167728 102.900828 
L 127.435723 103.168823 
L 127.435723 103.704812 
L 127.703717 103.972806 
L 127.703717 104.240801 
L 127.703717 104.77679 
L 127.703717 105.044784 
L 127.703717 105.580773 
L 127.703717 105.848768 
L 127.703717 106.116762 
L 127.703717 106.384756 
L 127.703717 106.920745 
L 127.435723 107.18874 
L 127.435723 107.456734 
L 127.435723 107.724729 
L 127.435723 108.260718 
L 127.167728 108.796707 
L 127.167728 109.064701 
L 127.167728 109.332696 
L 126.899734 109.60069 
L 126.899734 110.136679 
L 126.631739 110.404674 
L 126.631739 110.672668 
L 126.363745 111.208657 
L 126.09575 111.476652 
L 125.827756 112.012641 
L 125.827756 112.280635 
L 125.559761 112.816624 
L 125.291767 113.084618 
L 125.023772 113.352613 
L 124.755778 113.888602 
L 124.755778 114.156596 
L 124.487783 114.424591 
L 123.951795 114.96058 
L 123.6838 115.228574 
L 123.415806 115.764563 
L 123.147811 116.032558 
L 122.879817 116.300552 
L 122.343828 116.836541 
L 121.807839 117.104536 
L 121.539844 117.640525 
L 121.27185 117.908519 
L 120.735861 118.176514 
L 120.467866 118.444508 
L 119.931877 118.980497 
L 119.663883 119.248491 
L 119.395888 119.516486 
L 119.127894 119.78448 
L 118.591905 120.320469 
L 118.32391 120.588464 
L 118.055916 121.124453 
L 117.787922 121.660442 
L 117.251933 122.196431 
L 116.983938 122.73242 
L 116.715944 123.268409 
L 116.447949 124.072392 
L 116.447949 124.608381 
L 116.179955 125.412364 
L 116.179955 126.216348 
L 116.447949 127.020331 
L 116.447949 127.288326 
L 116.983938 128.092309 
L 117.251933 128.896293 
L 117.519927 129.164287 
L 118.055916 129.968271 
L 118.32391 130.50426 
L 119.127894 131.040248 
L 119.395888 131.308243 
L 119.663883 131.576237 
L 120.199872 131.844232 
L 120.735861 131.844232 
L 121.807839 132.112226 
" style="fill:none;stroke:#8c8c8c;stroke-linecap:square;"/>
   </g>
   <g id="line2d_15">
    <path clip-path="url(#p8b00651ff5)" d="M 124.219789 129.432282 
L 123.951795 129.432282 
L 123.6838 129.432282 
L 123.6838 129.700276 
L 123.951795 129.700276 
L 124.219789 129.968271 
L 124.487783 129.968271 
L 124.755778 129.968271 
L 125.023772 130.236265 
L 125.291767 130.50426 
L 125.559761 130.772254 
L 125.827756 131.040248 
L 126.09575 131.308243 
L 126.09575 131.576237 
L 126.363745 131.576237 
L 126.09575 132.112226 
L 126.09575 132.380221 
L 126.09575 132.648215 
L 125.827756 133.184204 
L 125.559761 133.720193 
L 125.559761 133.988188 
L 125.291767 134.256182 
L 125.291767 134.524177 
L 125.023772 134.792171 
" style="fill:none;stroke:#8c8c8c;stroke-linecap:square;"/>
   </g>
   <g id="line2d_16">
    <path clip-path="url(#p8b00651ff5)" d="M 130.115668 122.464425 
L 130.115668 122.73242 
L 130.383662 123.268409 
L 130.383662 123.804398 
L 130.651656 124.340387 
L 130.919651 125.14437 
L 130.919651 125.948353 
L 131.187645 127.020331 
L 131.187645 128.628298 
L 131.45564 129.968271 
L 131.45564 131.844232 
L 131.45564 133.184204 
L 131.723634 135.32816 
L 131.723634 136.668133 
L 131.991629 138.276099 
L 131.991629 139.348077 
L 131.991629 140.152061 
L 132.259623 141.224039 
L 132.527618 141.760028 
L 132.527618 142.296017 
L 132.795612 142.832006 
L 132.795612 143.1 
L 132.795612 143.367994 
" style="fill:none;stroke:#8c8c8c;stroke-linecap:square;"/>
   </g>
   <g id="line2d_17">
    <path clip-path="url(#p8b00651ff5)" d="M 130.383662 121.928436 
L 130.651656 121.928436 
L 130.919651 121.928436 
L 131.187645 121.928436 
L 131.45564 121.928436 
L 131.991629 121.928436 
L 133.063607 121.660442 
L 133.86759 121.660442 
L 135.475557 121.660442 
L 136.279541 121.660442 
L 137.351518 121.660442 
L 138.423496 121.660442 
L 139.763469 121.660442 
L 140.567452 121.928436 
L 141.371436 121.928436 
L 142.711408 121.928436 
L 144.05138 121.928436 
L 145.391353 122.196431 
L 146.463331 121.928436 
L 148.607287 121.928436 
L 149.947259 121.928436 
L 152.359209 121.928436 
L 153.967176 121.928436 
L 155.575143 121.660442 
L 157.18311 121.660442 
L 159.863055 121.660442 
L 162.542999 121.660442 
L 164.418961 121.660442 
L 166.294922 121.660442 
L 168.170883 121.660442 
L 171.386817 121.392447 
L 173.530773 121.392447 
L 176.478712 121.392447 
L 178.622668 121.392447 
L 180.498629 121.392447 
L 183.178574 121.392447 
L 185.054536 121.392447 
L 186.930497 121.392447 
L 189.610442 121.660442 
L 192.022392 121.660442 
L 193.630359 121.928436 
L 194.970331 121.928436 
L 196.578298 121.928436 
L 198.990248 121.928436 
L 201.402199 121.928436 
L 203.010166 121.660442 
L 204.618133 121.660442 
L 205.958105 121.660442 
L 208.102061 121.392447 
L 209.978022 121.392447 
L 211.585989 121.124453 
L 212.925961 121.124453 
L 214.265934 120.856458 
L 216.40989 120.588464 
L 218.553845 120.320469 
L 219.893818 120.320469 
L 220.965796 120.052475 
L 222.305768 120.052475 
L 224.181729 119.78448 
L 225.253707 119.78448 
L 227.129669 119.78448 
L 228.469641 119.516486 
L 230.077608 119.516486 
L 231.41758 119.516486 
L 232.221564 119.516486 
L 233.025547 119.78448 
L 234.097525 119.78448 
L 234.633514 119.78448 
L 235.437498 119.78448 
L 235.705492 120.052475 
L 235.973486 120.052475 
" style="fill:none;stroke:#8c8c8c;stroke-linecap:square;"/>
   </g>
   <g id="line2d_18">
    <path clip-path="url(#p8b00651ff5)" d="M 134.939568 144.171978 
L 136.011546 144.171978 
L 136.547535 143.903983 
L 138.423496 143.903983 
L 139.22748 143.635989 
L 140.835447 143.635989 
L 142.175419 143.367994 
L 143.515391 143.367994 
L 144.587369 143.1 
L 146.463331 142.832006 
L 147.535309 142.832006 
L 148.875281 142.564011 
L 151.019237 142.564011 
L 152.627204 142.296017 
L 154.235171 142.296017 
L 156.647121 142.028022 
L 158.523082 142.028022 
L 165.490939 141.492033 
L 168.706872 141.224039 
L 170.850828 141.224039 
L 172.994784 140.956044 
L 179.426652 140.956044 
L 181.570607 140.68805 
L 196.578298 140.68805 
L 199.526237 140.420055 
L 205.422116 140.420055 
L 206.762088 140.152061 
L 230.613597 140.152061 
L 230.881591 139.884066 
L 232.489558 139.884066 
L 233.025547 139.616072 
L 234.36552 139.616072 
L 234.901509 139.348077 
L 235.973486 139.348077 
L 236.241481 139.080083 
L 237.045464 139.080083 
L 237.581453 138.812088 
L 239.18942 138.812088 
L 239.725409 138.544094 
L 241.601371 138.544094 
L 241.601371 138.276099 
L 244.281315 138.276099 
L 244.281315 136.936127 
L 244.013321 136.936127 
L 244.013321 135.596155 
L 243.745326 135.060166 
L 243.745326 134.256182 
L 244.013321 133.720193 
L 244.013321 130.236265 
L 244.281315 130.236265 
L 244.281315 127.824315 
L 244.54931 127.55632 
L 244.54931 125.680359 
L 244.817304 125.412364 
L 244.817304 123.536403 
L 245.085299 123.536403 
L 245.085299 119.516486 
L 244.54931 119.516486 
L 244.54931 119.248491 
L 241.869365 119.248491 
L 241.333376 119.516486 
L 231.149586 119.516486 
L 231.149586 119.516486 
" style="fill:none;stroke:#8c8c8c;stroke-linecap:square;"/>
   </g>
   <g id="line2d_19">
    <path clip-path="url(#p8b00651ff5)" d="M 127.971712 151.139834 
L 127.971712 150.87184 
L 127.971712 150.603845 
L 128.239706 150.335851 
L 128.239706 150.067856 
L 128.507701 150.067856 
L 128.507701 150.335851 
L 128.507701 150.603845 
L 128.507701 150.87184 
L 128.507701 151.139834 
L 128.507701 151.407829 
L 128.507701 151.943818 
L 128.507701 152.211812 
L 128.507701 153.015796 
L 128.507701 153.551785 
L 128.507701 154.087774 
L 128.507701 154.891757 
L 128.507701 155.427746 
L 128.507701 155.69574 
L 128.507701 156.231729 
L 128.775695 156.499724 
L 128.775695 156.767718 
L 129.04369 157.035713 
L 129.311684 157.035713 
L 129.847673 157.035713 
L 130.383662 157.035713 
L 131.187645 157.035713 
L 131.723634 156.767718 
L 132.259623 156.767718 
L 133.063607 156.499724 
L 133.599596 156.499724 
L 134.135585 156.499724 
L 134.403579 156.499724 
" style="fill:none;stroke:#8c8c8c;stroke-linecap:square;"/>
   </g>
   <g id="line2d_20">
    <path clip-path="url(#p8b00651ff5)" d="M 135.475557 153.819779 
L 135.475557 153.551785 
L 135.475557 153.28379 
L 135.207563 153.28379 
L 134.939568 153.28379 
L 134.671574 153.551785 
L 134.403579 153.819779 
L 134.135585 153.819779 
L 133.86759 154.355768 
L 133.599596 154.891757 
L 133.599596 155.159752 
L 133.599596 155.427746 
L 133.86759 155.963735 
L 134.135585 156.231729 
L 134.403579 156.231729 
L 134.671574 156.231729 
L 134.939568 156.231729 
L 135.207563 155.963735 
L 135.475557 155.963735 
L 135.475557 155.69574 
L 135.743552 155.427746 
L 135.743552 155.159752 
L 136.011546 154.891757 
L 136.011546 154.623763 
L 136.011546 154.355768 
L 136.011546 154.623763 
L 136.279541 154.891757 
L 136.279541 155.159752 
L 136.547535 155.427746 
L 136.547535 156.231729 
L 136.815529 156.499724 
L 137.083524 157.303707 
L 137.351518 158.107691 
L 137.351518 158.375685 
L 137.619513 158.911674 
L 137.619513 159.179669 
L 137.619513 159.447663 
" style="fill:none;stroke:#8c8c8c;stroke-linecap:square;"/>
   </g>
   <g id="line2d_21">
    <path clip-path="url(#p8b00651ff5)" d="M 241.065382 145.51195 
L 241.065382 145.243956 
L 241.065382 144.975961 
L 241.065382 145.243956 
L 241.065382 145.51195 
L 241.333376 145.779945 
L 241.333376 146.315934 
L 241.333376 147.119917 
L 241.601371 147.655906 
L 241.601371 148.45989 
L 241.601371 149.263873 
L 241.869365 150.067856 
L 241.869365 150.603845 
L 241.869365 151.139834 
L 241.869365 151.407829 
L 242.137359 151.943818 
L 242.137359 152.211812 
L 242.137359 152.479807 
L 242.137359 152.747801 
L 242.405354 152.747801 
L 242.673348 152.747801 
L 243.209337 152.479807 
L 243.745326 152.479807 
L 244.013321 152.479807 
L 244.54931 152.211812 
L 245.085299 152.211812 
L 245.353293 152.211812 
L 245.621288 152.211812 
L 245.621288 151.943818 
L 245.889282 151.943818 
" style="fill:none;stroke:#8c8c8c;stroke-linecap:square;"/>
   </g>
   <g id="line2d_22">
    <path clip-path="url(#p8b00651ff5)" d="M 246.693266 148.995879 
L 246.693266 148.727884 
L 246.96126 148.727884 
L 246.96126 148.995879 
L 247.229255 149.263873 
L 247.229255 149.799862 
L 247.497249 150.335851 
L 247.765244 150.87184 
L 248.033238 151.407829 
L 248.301232 151.675823 
L 248.569227 151.943818 
L 248.837221 152.211812 
L 249.37321 152.211812 
L 249.909199 152.211812 
L 250.177194 152.211812 
L 250.713183 151.675823 
L 250.981177 151.139834 
L 251.249172 150.603845 
L 251.517166 149.799862 
L 251.517166 149.263873 
L 251.249172 148.995879 
L 251.249172 148.191895 
L 251.249172 147.923901 
L 250.981177 147.387912 
L 250.981177 147.119917 
" style="fill:none;stroke:#8c8c8c;stroke-linecap:square;"/>
   </g>
   <g id="line2d_23">
    <path clip-path="url(#p8b00651ff5)" d="M 98.492319 54.393828 
L 98.492319 54.661822 
L 98.760314 54.661822 
L 98.760314 55.7338 
L 99.028308 56.001795 
L 99.028308 58.14575 
L 99.296303 58.413745 
L 99.296303 60.021712 
L 99.564297 60.289706 
L 99.564297 61.09369 
L 99.832291 61.361684 
L 99.832291 62.165668 
L 100.100286 62.433662 
L 100.100286 63.237645 
L 100.36828 63.237645 
L 100.36828 64.041629 
L 100.636275 64.041629 
L 100.636275 65.113607 
L 100.904269 65.113607 
L 100.904269 66.453579 
L 101.172264 66.989568 
L 101.172264 68.865529 
L 101.440258 69.133524 
L 101.440258 75.297397 
L 101.172264 75.565391 
L 101.172264 81.46127 
L 101.440258 81.729264 
L 101.440258 88.161132 
L 101.708253 88.697121 
L 101.708253 91.109071 
L 101.976247 91.64506 
L 101.976247 98.344922 
L 102.244242 98.612917 
L 102.244242 99.684894 
L 102.244242 99.684894 
" style="fill:none;stroke:#8c8c8c;stroke-linecap:square;"/>
   </g>
   <g id="line2d_24">
    <path clip-path="url(#p8b00651ff5)" d="M 99.832291 99.148906 
L 100.100286 99.148906 
L 100.100286 99.4169 
L 100.36828 99.4169 
L 100.36828 99.684894 
L 100.636275 99.952889 
L 100.904269 99.952889 
L 100.904269 100.220883 
L 101.172264 100.220883 
L 101.172264 100.488878 
L 101.440258 100.488878 
L 101.708253 100.488878 
L 101.976247 100.488878 
L 102.244242 100.488878 
L 102.244242 100.220883 
L 102.780231 100.220883 
L 103.048225 100.220883 
L 103.048225 99.952889 
L 103.584214 99.952889 
L 103.584214 99.684894 
L 103.852209 99.684894 
L 104.120203 99.4169 
" style="fill:none;stroke:#8c8c8c;stroke-linecap:square;"/>
   </g>
   <g id="line2d_25">
    <path clip-path="url(#p8b00651ff5)" d="M 286.892437 28.130369 
L 286.892437 27.862374 
L 287.160432 27.862374 
L 287.160432 28.130369 
L 287.160432 28.398363 
L 287.428426 28.398363 
L 287.428426 28.934352 
L 287.428426 29.202347 
L 287.428426 29.470341 
L 287.428426 30.00633 
L 287.428426 30.274325 
L 287.428426 30.542319 
L 287.696421 30.810314 
L 287.696421 31.078308 
L 287.696421 31.346303 
L 287.696421 31.078308 
L 287.696421 30.810314 
L 287.696421 30.542319 
L 287.696421 30.00633 
L 287.696421 28.934352 
L 287.696421 28.398363 
L 287.696421 27.862374 
L 287.696421 27.326385 
L 287.964415 26.790396 
L 287.964415 26.522402 
L 287.964415 26.254407 
L 288.23241 26.254407 
L 288.23241 25.986413 
L 288.500404 26.254407 
L 288.768399 26.254407 
L 288.768399 26.522402 
L 289.036393 27.058391 
L 289.304388 27.326385 
L 289.304388 28.130369 
L 289.572382 28.398363 
L 289.572382 28.934352 
L 289.572382 29.470341 
L 289.572382 29.738336 
L 289.572382 30.00633 
L 289.840377 30.274325 
L 289.840377 30.00633 
L 289.840377 29.738336 
L 290.108371 29.202347 
L 290.108371 28.934352 
L 290.376366 28.398363 
L 290.64436 27.862374 
L 290.912355 27.058391 
L 291.180349 26.790396 
L 291.448344 26.522402 
L 291.716338 26.254407 
L 291.984332 25.986413 
L 292.252327 25.986413 
L 292.520321 26.254407 
L 292.788316 26.254407 
L 292.788316 26.790396 
L 293.05631 27.326385 
L 293.05631 28.130369 
L 293.05631 28.666358 
L 293.05631 29.202347 
L 293.05631 29.738336 
L 293.05631 30.274325 
L 293.05631 30.542319 
" style="fill:none;stroke:#8c8c8c;stroke-linecap:square;"/>
   </g>
   <g id="line2d_26">
    <path clip-path="url(#p8b00651ff5)" d="M 294.932272 29.202347 
L 294.932272 28.934352 
L 294.932272 28.398363 
L 294.932272 28.398363 
L 294.932272 28.130369 
L 294.932272 27.862374 
L 294.664277 28.130369 
L 294.664277 28.398363 
L 294.664277 28.666358 
L 294.664277 28.934352 
L 294.664277 29.202347 
L 294.664277 29.738336 
L 294.932272 30.274325 
L 295.468261 30.542319 
L 295.736255 30.810314 
L 296.272244 31.078308 
L 296.808233 30.810314 
L 297.076228 30.542319 
L 297.344222 30.274325 
L 297.612217 30.00633 
L 297.344222 29.202347 
L 297.344222 28.666358 
L 296.808233 27.862374 
L 296.540239 27.326385 
L 296.272244 27.058391 
L 295.736255 26.790396 
L 295.468261 26.790396 
L 295.200266 26.790396 
L 295.200266 27.058391 
L 295.200266 27.326385 
" style="fill:none;stroke:#8c8c8c;stroke-linecap:square;"/>
   </g>
   <g id="line2d_27">
    <path clip-path="url(#p8b00651ff5)" d="M 298.684194 28.398363 
L 298.684194 28.130369 
L 298.952189 28.130369 
L 299.220183 28.130369 
L 299.488178 28.398363 
L 299.756172 28.398363 
L 299.756172 28.666358 
L 299.756172 28.934352 
L 300.024167 29.202347 
L 300.292161 29.470341 
L 300.292161 29.738336 
L 300.292161 30.00633 
L 300.560156 30.00633 
L 300.560156 30.274325 
L 300.292161 30.274325 
L 300.292161 30.00633 
L 300.292161 29.738336 
L 300.024167 29.738336 
L 300.024167 29.202347 
L 299.756172 28.666358 
L 299.756172 28.130369 
L 299.756172 27.862374 
L 300.024167 27.326385 
L 300.292161 27.058391 
L 300.560156 26.790396 
L 300.82815 26.790396 
L 301.364139 26.522402 
" style="fill:none;stroke:#8c8c8c;stroke-linecap:square;"/>
   </g>
   <g id="line2d_28">
    <path clip-path="url(#p8b00651ff5)" d="M 303.508095 26.790396 
L 303.77609 27.058391 
L 304.044084 27.326385 
L 304.312078 27.326385 
L 304.580073 27.326385 
L 304.848067 27.326385 
L 305.116062 27.326385 
L 305.384056 27.326385 
L 305.652051 27.058391 
L 305.920045 27.058391 
L 306.18804 26.790396 
L 306.456034 26.522402 
L 306.456034 26.254407 
L 306.18804 26.254407 
L 306.18804 25.986413 
L 305.920045 25.986413 
L 305.652051 25.986413 
L 305.384056 26.254407 
L 304.580073 26.522402 
L 304.312078 27.058391 
L 303.77609 27.326385 
L 303.508095 28.130369 
L 303.508095 28.666358 
L 303.77609 29.202347 
L 304.044084 29.738336 
L 304.580073 30.274325 
L 305.384056 30.542319 
L 306.18804 30.810314 
L 306.992023 30.810314 
L 307.796007 30.542319 
" style="fill:none;stroke:#8c8c8c;stroke-linecap:square;"/>
   </g>
   <g id="line2d_29">
    <path clip-path="url(#p8b00651ff5)" d="M 326.823615 23.842457 
L 326.823615 23.574463 
L 326.55562 23.574463 
L 326.287626 23.574463 
L 326.019631 23.574463 
L 326.019631 23.842457 
L 325.751637 23.842457 
L 325.483642 24.110452 
L 324.947653 24.378446 
L 324.411664 24.646441 
L 324.14367 24.914435 
L 323.875675 25.18243 
L 323.875675 25.450424 
L 323.607681 25.450424 
L 323.607681 25.718418 
L 323.607681 25.986413 
L 323.875675 25.986413 
L 324.411664 26.254407 
L 324.679659 26.522402 
L 324.947653 26.790396 
L 325.751637 27.058391 
L 326.019631 27.59438 
L 326.287626 27.862374 
L 326.55562 28.398363 
L 326.55562 28.666358 
L 326.823615 28.934352 
L 326.823615 29.202347 
L 326.55562 29.470341 
L 326.287626 29.738336 
L 326.019631 30.00633 
L 325.751637 30.00633 
L 325.483642 29.738336 
L 324.947653 29.738336 
L 324.679659 28.934352 
" style="fill:none;stroke:#8c8c8c;stroke-linecap:square;"/>
   </g>
   <g id="line2d_30">
    <path clip-path="url(#p8b00651ff5)" d="M 328.96757 20.626523 
L 328.96757 20.358529 
L 329.235565 20.626523 
L 329.235565 20.894518 
L 329.503559 21.162512 
L 329.503559 22.23449 
L 329.771554 23.038474 
L 330.039548 24.110452 
L 330.307543 25.18243 
L 330.307543 25.718418 
L 330.575537 26.790396 
L 330.843532 27.326385 
L 331.111526 27.862374 
L 331.111526 27.59438 
L 331.111526 27.326385 
L 331.111526 27.058391 
L 331.111526 26.522402 
L 331.111526 25.718418 
L 331.379521 25.18243 
L 331.647515 24.914435 
L 331.647515 24.646441 
L 331.91551 24.378446 
L 332.183504 24.646441 
L 332.451499 24.646441 
L 332.719493 24.914435 
L 332.987488 25.450424 
L 333.255482 25.718418 
L 333.523477 26.254407 
L 333.523477 26.522402 
L 333.791471 27.058391 
L 334.059466 27.326385 
" style="fill:none;stroke:#8c8c8c;stroke-linecap:square;"/>
   </g>
   <g id="line2d_31">
    <path clip-path="url(#p8b00651ff5)" d="M 334.595455 27.326385 
L 334.863449 27.058391 
L 335.131444 27.058391 
L 335.399438 27.058391 
L 335.667432 26.790396 
L 336.203421 26.522402 
L 336.471416 26.522402 
L 337.007405 26.254407 
L 337.543394 25.718418 
L 337.811388 25.718418 
L 337.811388 25.450424 
L 338.079383 24.914435 
L 338.079383 24.646441 
L 337.811388 24.646441 
L 337.543394 24.646441 
L 337.275399 24.646441 
L 337.007405 24.646441 
L 337.007405 24.914435 
L 336.471416 25.18243 
L 336.203421 25.450424 
L 335.935427 25.986413 
L 335.667432 26.522402 
L 335.667432 27.058391 
L 335.935427 27.59438 
L 336.203421 27.862374 
L 336.471416 28.130369 
L 337.007405 28.666358 
L 337.543394 28.666358 
L 338.079383 28.666358 
L 338.347377 28.398363 
L 338.615372 28.398363 
" style="fill:none;stroke:#8c8c8c;stroke-linecap:square;"/>
   </g>
   <g id="line2d_32">
    <path clip-path="url(#p8b00651ff5)" d="M 341.563311 21.162512 
L 341.563311 20.894518 
L 341.295317 20.894518 
L 341.295317 20.626523 
L 341.295317 20.894518 
L 341.295317 21.162512 
L 341.295317 21.430507 
L 341.295317 21.966496 
L 341.295317 23.038474 
L 341.295317 24.110452 
L 341.563311 24.914435 
L 341.563311 25.450424 
L 341.563311 26.254407 
L 341.563311 26.790396 
L 341.563311 27.058391 
L 341.831305 27.326385 
L 341.831305 27.59438 
" style="fill:none;stroke:#8c8c8c;stroke-linecap:square;"/>
   </g>
   <g id="line2d_33">
    <path clip-path="url(#p8b00651ff5)" d="M 343.171278 19.82254 
L 343.171278 19.554545 
L 343.439272 19.554545 
L 343.439272 19.82254 
L 343.439272 20.090534 
L 343.439272 20.358529 
L 343.439272 20.894518 
L 343.707267 21.698501 
L 343.707267 22.502485 
L 343.975261 23.842457 
L 343.975261 24.646441 
L 344.243256 25.718418 
L 344.243256 26.522402 
L 344.243256 27.058391 
L 344.51125 27.326385 
L 344.51125 27.59438 
" style="fill:none;stroke:#8c8c8c;stroke-linecap:square;"/>
   </g>
   <g id="line2d_34">
    <path clip-path="url(#p8b00651ff5)" d="M 347.191195 25.450424 
L 347.191195 25.18243 
L 347.45919 24.914435 
L 347.191195 24.914435 
L 347.191195 24.646441 
L 346.923201 24.646441 
L 346.655206 24.914435 
L 346.387212 24.914435 
L 346.387212 25.18243 
L 346.387212 25.450424 
L 346.387212 25.718418 
L 346.387212 25.986413 
L 346.655206 25.986413 
L 346.655206 26.254407 
L 346.923201 26.522402 
L 347.191195 26.522402 
L 347.45919 26.790396 
L 347.727184 27.058391 
L 347.995178 27.326385 
L 347.995178 27.59438 
L 348.263173 27.862374 
L 348.263173 28.398363 
L 347.995178 28.666358 
L 347.995178 29.202347 
" style="fill:none;stroke:#8c8c8c;stroke-linecap:square;"/>
   </g>
   <g id="line2d_35">
    <path clip-path="url(#p8b00651ff5)" d="M 353.355068 30.274325 
L 353.355068 30.00633 
L 353.623063 30.00633 
L 353.891057 30.274325 
L 353.891057 30.542319 
L 353.891057 30.810314 
L 353.891057 31.078308 
L 353.891057 31.882291 
L 353.623063 32.150286 
L 353.355068 32.954269 
L 353.355068 33.222264 
L 353.087074 33.490258 
L 353.087074 33.758253 
" style="fill:none;stroke:#8c8c8c;stroke-linecap:square;"/>
   </g>
   <g id="line2d_36">
    <path clip-path="url(#p8b00651ff5)" d="M 368.362759 27.058391 
L 368.630753 26.790396 
L 368.630753 26.522402 
L 368.898748 26.522402 
L 368.630753 26.522402 
L 368.630753 26.254407 
L 368.362759 26.254407 
L 368.094764 26.522402 
L 367.82677 26.522402 
L 367.290781 26.790396 
L 366.754792 27.058391 
L 366.486797 27.59438 
L 366.218803 28.130369 
L 366.218803 28.398363 
L 366.486797 28.934352 
L 366.486797 29.202347 
L 367.022786 29.470341 
L 367.558775 29.470341 
L 367.82677 29.470341 
L 368.094764 29.470341 
L 368.630753 29.202347 
L 368.630753 28.934352 
L 368.898748 28.398363 
L 368.898748 28.130369 
L 368.898748 27.59438 
L 368.898748 27.058391 
L 368.898748 26.522402 
L 368.898748 26.254407 
L 368.898748 25.986413 
L 368.898748 25.718418 
L 369.166742 25.718418 
L 369.434737 25.986413 
L 369.702731 26.254407 
L 369.970726 26.522402 
L 370.23872 26.790396 
L 370.774709 27.326385 
L 371.042704 28.130369 
L 371.310698 28.666358 
L 371.578693 29.202347 
L 371.846687 30.00633 
L 371.846687 30.810314 
L 371.578693 31.078308 
L 371.578693 31.882291 
L 371.310698 32.150286 
L 370.774709 32.686275 
L 370.506715 32.954269 
L 369.970726 33.222264 
L 369.702731 33.222264 
L 369.166742 33.222264 
L 368.898748 33.222264 
" style="fill:none;stroke:#8c8c8c;stroke-linecap:square;"/>
   </g>
   <g id="line2d_37">
    <path clip-path="url(#p8b00651ff5)" d="M 372.382676 27.326385 
L 372.65067 27.326385 
L 372.65067 27.058391 
L 372.65067 27.326385 
L 372.918665 27.326385 
L 373.186659 27.326385 
L 373.454654 27.326385 
L 373.990643 27.326385 
L 374.526632 27.326385 
L 375.062621 27.326385 
L 375.330615 27.326385 
L 375.59861 27.058391 
L 375.866604 27.058391 
L 376.134599 26.790396 
L 376.134599 26.522402 
L 376.134599 26.254407 
L 375.866604 25.986413 
L 375.59861 25.986413 
L 375.330615 25.986413 
L 375.062621 25.986413 
L 374.794626 26.254407 
L 374.526632 26.790396 
L 374.258637 27.326385 
L 373.990643 28.130369 
L 373.990643 28.666358 
L 374.258637 29.202347 
L 374.526632 29.738336 
L 374.794626 30.274325 
L 375.330615 30.542319 
L 375.59861 30.810314 
L 376.134599 30.810314 
L 376.402593 30.810314 
L 376.670588 30.810314 
L 376.938582 30.542319 
L 376.938582 30.274325 
" style="fill:none;stroke:#8c8c8c;stroke-linecap:square;"/>
   </g>
   <g id="line2d_38">
    <path clip-path="url(#p8b00651ff5)" d="M 377.474571 28.934352 
L 377.742566 28.130369 
L 377.742566 27.862374 
L 378.01056 27.59438 
L 378.278555 27.59438 
L 378.278555 27.862374 
L 378.546549 27.862374 
L 378.546549 28.130369 
L 378.546549 28.398363 
L 378.814543 28.666358 
L 378.814543 28.934352 
L 379.082538 29.202347 
L 379.082538 29.470341 
L 379.082538 29.738336 
L 379.350532 29.738336 
L 379.350532 29.470341 
L 379.350532 29.202347 
L 379.350532 28.934352 
L 379.618527 28.398363 
L 379.886521 28.130369 
L 380.154516 27.59438 
L 380.154516 27.326385 
L 380.42251 27.326385 
L 380.690505 27.058391 
L 380.958499 27.058391 
L 381.226494 27.058391 
L 381.494488 27.326385 
L 381.762483 27.59438 
L 382.030477 27.862374 
L 382.298472 28.398363 
L 382.566466 28.934352 
L 382.566466 29.202347 
L 382.566466 29.470341 
L 382.834461 29.470341 
L 383.102455 29.738336 
" style="fill:none;stroke:#8c8c8c;stroke-linecap:square;"/>
   </g>
   <g id="line2d_39">
    <path clip-path="url(#p8b00651ff5)" d="M 383.37045 29.470341 
L 383.638444 29.470341 
L 383.638444 29.202347 
L 383.906439 29.202347 
L 383.906439 28.934352 
L 384.174433 28.934352 
L 384.442428 28.934352 
L 384.710422 28.666358 
L 385.514405 28.398363 
L 385.7824 28.130369 
L 386.318389 28.130369 
L 386.586383 27.862374 
L 387.122372 27.326385 
L 387.390367 27.058391 
L 387.390367 26.790396 
L 387.658361 26.790396 
L 387.658361 26.522402 
L 387.390367 26.522402 
L 387.122372 26.522402 
L 386.854378 26.522402 
L 386.586383 26.790396 
L 386.318389 27.058391 
L 386.050394 27.59438 
L 385.7824 27.862374 
L 385.514405 28.398363 
L 385.514405 28.934352 
L 385.7824 29.202347 
L 386.050394 29.738336 
L 386.318389 30.00633 
L 386.586383 30.00633 
L 387.122372 30.274325 
" style="fill:none;stroke:#8c8c8c;stroke-linecap:square;"/>
   </g>
   <g id="line2d_40">
    <path clip-path="url(#p8b00651ff5)" d="M 391.142289 27.59438 
L 391.142289 27.326385 
L 390.874295 27.326385 
L 391.142289 27.326385 
L 391.142289 27.59438 
L 391.142289 27.862374 
L 391.410284 28.130369 
L 391.410284 28.666358 
L 391.678278 28.934352 
L 391.678278 29.202347 
L 391.678278 29.470341 
L 391.678278 29.738336 
L 391.946273 29.738336 
L 391.946273 29.470341 
L 391.946273 29.202347 
L 391.678278 28.666358 
L 391.946273 28.130369 
L 391.946273 27.862374 
L 391.946273 27.326385 
L 392.214267 27.058391 
L 392.482262 26.790396 
L 392.750256 26.522402 
L 393.018251 26.254407 
" style="fill:none;stroke:#8c8c8c;stroke-linecap:square;"/>
   </g>
   <g id="line2d_41">
    <path clip-path="url(#p8b00651ff5)" d="M 396.770174 26.790396 
L 396.770174 26.522402 
L 396.502179 26.522402 
L 396.502179 26.790396 
L 396.234185 26.790396 
L 395.96619 26.790396 
L 395.698196 27.058391 
L 395.430201 27.326385 
L 395.162207 27.326385 
L 394.894212 27.862374 
L 394.894212 28.130369 
L 395.162207 28.398363 
L 395.430201 28.666358 
L 395.430201 28.934352 
L 395.96619 28.934352 
L 396.234185 28.934352 
L 396.502179 28.934352 
L 396.770174 28.934352 
L 397.038168 28.666358 
L 397.306162 28.398363 
L 397.306162 28.130369 
L 397.574157 27.59438 
L 397.574157 27.326385 
L 397.574157 27.058391 
L 397.842151 27.058391 
L 397.842151 26.790396 
L 398.110146 27.058391 
L 398.110146 27.326385 
L 398.110146 27.59438 
L 398.37814 27.862374 
L 398.37814 28.130369 
L 398.37814 28.666358 
L 398.646135 29.202347 
L 398.646135 29.470341 
L 398.914129 29.738336 
" style="fill:none;stroke:#8c8c8c;stroke-linecap:square;"/>
   </g>
   <g id="line2d_42">
    <path clip-path="url(#p8b00651ff5)" d="M 401.058085 22.23449 
L 401.058085 22.502485 
L 401.058085 22.770479 
L 401.058085 23.306468 
L 401.32608 24.110452 
L 401.32608 24.914435 
L 401.32608 25.718418 
L 401.594074 26.522402 
L 401.594074 27.058391 
L 401.594074 27.862374 
L 401.594074 28.130369 
L 401.862069 28.666358 
" style="fill:none;stroke:#8c8c8c;stroke-linecap:square;"/>
   </g>
   <g id="line2d_43">
    <path clip-path="url(#p8b00651ff5)" d="M 404.006024 23.574463 
L 404.006024 23.306468 
L 403.73803 23.306468 
L 403.73803 23.842457 
L 403.73803 24.110452 
L 404.006024 24.378446 
L 404.006024 25.18243 
L 404.006024 25.986413 
L 404.274019 26.790396 
L 404.542013 27.326385 
L 404.810008 28.130369 
L 404.810008 28.666358 
L 405.078002 28.934352 
L 405.078002 29.202347 
L 405.078002 29.470341 
" style="fill:none;stroke:#8c8c8c;stroke-linecap:square;"/>
   </g>
   <g id="line2d_44">
    <path clip-path="url(#p8b00651ff5)" d="M 407.489953 28.130369 
L 407.757947 28.130369 
L 407.757947 28.398363 
L 408.025942 28.398363 
L 408.293936 28.666358 
L 408.561931 28.666358 
L 408.829925 28.934352 
L 409.09792 28.934352 
L 410.169897 28.398363 
L 410.169897 28.130369 
L 410.437892 28.130369 
L 410.437892 27.59438 
L 410.705886 27.59438 
L 410.973881 28.130369 
L 410.973881 28.666358 
L 411.241875 29.738336 
L 411.241875 30.542319 
L 411.241875 32.150286 
L 411.241875 32.954269 
L 411.50987 33.490258 
L 411.50987 34.294242 
L 411.241875 34.562236 
" style="fill:none;stroke:#8c8c8c;stroke-linecap:square;"/>
   </g>
   <g id="line2d_45">
    <path clip-path="url(#p8b00651ff5)" d="M 423.033632 20.358529 
L 423.033632 20.090534 
L 423.033632 20.358529 
L 423.301627 20.894518 
L 423.301627 21.162512 
L 423.569621 21.966496 
L 423.837616 23.306468 
L 424.10561 24.378446 
L 424.10561 25.450424 
L 424.373605 26.522402 
L 424.641599 27.326385 
L 424.909594 28.398363 
L 424.909594 28.934352 
L 424.909594 29.202347 
L 424.909594 29.470341 
L 424.909594 29.738336 
" style="fill:none;stroke:#8c8c8c;stroke-linecap:square;"/>
   </g>
   <g id="line2d_46">
    <path clip-path="url(#p8b00651ff5)" d="M 429.197505 25.450424 
L 429.4655 25.450424 
L 429.4655 25.718418 
L 429.4655 25.986413 
L 429.4655 26.522402 
L 429.733494 26.790396 
L 429.733494 27.326385 
L 430.001489 27.862374 
L 430.001489 28.130369 
L 430.001489 28.398363 
L 430.269483 28.666358 
L 430.269483 28.934352 
L 430.269483 28.666358 
L 430.269483 28.398363 
L 430.269483 28.130369 
L 430.001489 27.862374 
L 430.001489 27.326385 
L 429.733494 27.058391 
L 429.197505 26.254407 
L 428.929511 25.986413 
L 428.661516 25.450424 
L 428.393522 25.18243 
L 428.125528 25.18243 
L 427.857533 25.18243 
L 427.589539 25.450424 
L 427.589539 25.718418 
L 427.321544 25.986413 
L 427.589539 26.522402 
L 427.857533 27.058391 
L 428.125528 27.59438 
L 428.393522 27.862374 
L 428.929511 28.398363 
L 429.4655 28.398363 
L 429.733494 28.398363 
L 430.001489 28.398363 
" style="fill:none;stroke:#8c8c8c;stroke-linecap:square;"/>
   </g>
   <g id="line2d_47">
    <path clip-path="url(#p8b00651ff5)" d="M 432.681434 26.522402 
L 432.949428 26.522402 
L 433.217423 26.522402 
L 433.485417 27.058391 
L 433.485417 27.326385 
L 433.753412 27.59438 
L 433.753412 27.862374 
L 433.753412 28.398363 
L 434.021406 28.398363 
L 434.021406 28.666358 
L 433.753412 28.666358 
L 433.753412 28.398363 
L 433.753412 28.130369 
L 433.753412 27.862374 
L 433.753412 27.59438 
L 433.753412 26.790396 
L 434.021406 26.522402 
L 434.289401 25.986413 
L 434.557395 25.718418 
L 435.093384 25.450424 
L 435.629373 25.450424 
L 435.897367 25.18243 
L 436.165362 25.18243 
L 436.701351 25.18243 
L 436.969345 25.18243 
L 437.505334 25.18243 
L 437.773329 25.18243 
L 437.773329 25.450424 
L 438.041323 25.450424 
L 438.041323 25.718418 
L 437.773329 25.986413 
L 437.773329 26.254407 
L 437.773329 26.522402 
L 437.773329 27.058391 
L 437.773329 27.326385 
L 438.041323 27.59438 
L 438.309318 27.59438 
L 438.577312 27.59438 
L 438.845307 27.59438 
L 439.113301 27.59438 
L 439.113301 27.326385 
L 439.113301 27.058391 
L 439.113301 26.790396 
L 439.113301 26.254407 
L 439.113301 25.986413 
L 439.113301 25.718418 
L 439.113301 25.18243 
L 439.113301 24.914435 
L 438.845307 24.914435 
L 438.845307 25.18243 
L 439.113301 25.450424 
L 439.113301 25.718418 
L 439.381296 26.522402 
L 439.64929 26.790396 
L 440.185279 27.862374 
L 440.453274 28.398363 
L 440.721268 28.934352 
L 440.989262 29.202347 
L 441.257257 30.00633 
L 441.257257 30.274325 
L 441.257257 30.542319 
L 441.257257 30.810314 
L 440.989262 31.078308 
L 440.721268 31.346303 
L 440.453274 31.614297 
L 440.185279 31.614297 
L 439.917285 31.614297 
L 439.64929 31.346303 
" style="fill:none;stroke:#8c8c8c;stroke-linecap:square;"/>
   </g>
   <g id="line2d_48">
    <path clip-path="url(#p8b00651ff5)" d="M 444.205196 25.18243 
L 444.205196 25.450424 
L 444.473191 25.450424 
L 444.741185 25.450424 
L 445.277174 25.450424 
L 445.545169 25.450424 
L 445.813163 25.18243 
L 446.081158 24.914435 
L 446.349152 24.646441 
L 446.349152 24.378446 
L 446.349152 24.110452 
L 446.349152 23.842457 
L 446.081158 23.842457 
L 445.813163 23.842457 
L 445.277174 24.110452 
L 445.00918 24.378446 
L 444.741185 24.646441 
L 444.473191 25.450424 
L 444.205196 25.986413 
L 444.473191 26.790396 
L 444.473191 27.326385 
L 445.00918 27.862374 
L 445.277174 28.666358 
L 446.081158 29.202347 
L 446.617147 29.470341 
L 447.153135 29.738336 
" style="fill:none;stroke:#8c8c8c;stroke-linecap:square;"/>
   </g>
   <g id="line2d_49">
    <path clip-path="url(#p8b00651ff5)" d="M 460.01687 26.790396 
L 460.01687 27.058391 
L 460.01687 27.326385 
L 460.01687 27.59438 
L 460.284865 28.130369 
L 460.284865 28.666358 
L 460.284865 29.202347 
L 460.284865 29.470341 
L 460.552859 30.00633 
" style="fill:none;stroke:#8c8c8c;stroke-linecap:square;"/>
   </g>
   <g id="line2d_50">
    <path clip-path="url(#p8b00651ff5)" d="M 461.088848 24.378446 
L 461.088848 23.842457 
L 461.088848 23.574463 
L 461.356843 23.842457 
" style="fill:none;stroke:#8c8c8c;stroke-linecap:square;"/>
   </g>
   <g id="line2d_51">
    <path clip-path="url(#p8b00651ff5)" d="M 463.500799 27.058391 
L 463.768793 27.058391 
L 463.768793 27.326385 
L 463.500799 27.326385 
L 463.500799 27.59438 
L 463.768793 27.59438 
L 463.768793 28.130369 
L 464.036788 28.666358 
L 464.304782 28.934352 
L 464.572777 29.202347 
L 464.840771 29.202347 
L 465.644754 29.470341 
L 466.180743 29.470341 
L 466.448738 29.470341 
L 466.984727 29.202347 
L 467.252721 28.934352 
L 467.252721 28.398363 
L 467.252721 27.59438 
L 466.984727 27.326385 
L 466.716732 26.790396 
L 466.448738 26.254407 
L 466.180743 25.718418 
L 465.644754 25.718418 
L 465.37676 25.718418 
L 465.108766 25.718418 
L 464.840771 26.254407 
L 464.572777 26.522402 
L 464.572777 26.790396 
L 464.572777 27.058391 
L 464.572777 27.59438 
" style="fill:none;stroke:#8c8c8c;stroke-linecap:square;"/>
   </g>
   <g id="line2d_52">
    <path clip-path="url(#p8b00651ff5)" d="M 471.808627 27.59438 
L 472.344616 27.59438 
L 472.612611 27.59438 
L 472.612611 27.862374 
L 472.612611 28.398363 
L 472.880605 28.666358 
L 472.880605 28.934352 
L 473.1486 29.202347 
L 473.416594 29.202347 
L 473.684589 28.934352 
L 473.952583 28.934352 
L 474.220578 28.398363 
L 474.488572 28.130369 
L 475.024561 27.862374 
L 475.292556 27.326385 
L 475.828545 26.790396 
L 476.364534 26.522402 
L 476.632528 26.522402 
L 476.900523 26.522402 
L 477.168517 26.790396 
L 477.436512 27.058391 
L 477.704506 27.59438 
L 477.704506 27.862374 
L 477.9725 28.398363 
L 477.9725 28.666358 
L 477.704506 29.202347 
L 477.704506 29.470341 
L 477.436512 29.738336 
" style="fill:none;stroke:#8c8c8c;stroke-linecap:square;"/>
   </g>
   <g id="line2d_53">
    <path clip-path="url(#p8b00651ff5)" d="M 105.72817 75.833386 
L 105.72817 75.565391 
L 105.72817 75.297397 
L 105.72817 75.565391 
L 105.996164 75.833386 
L 105.996164 76.10138 
L 105.996164 76.369375 
L 105.996164 76.637369 
L 106.264159 77.709347 
L 106.532153 79.04932 
L 106.800148 79.317314 
L 107.068142 80.389292 
L 107.068142 80.925281 
L 107.336137 81.46127 
L 107.336137 81.729264 
L 107.604131 82.265253 
L 107.604131 82.533248 
L 107.604131 82.801242 
L 107.604131 83.069237 
" style="fill:none;stroke:#8c8c8c;stroke-linecap:square;"/>
   </g>
   <g id="line2d_54">
    <path clip-path="url(#p8b00651ff5)" d="M 109.748087 79.317314 
L 110.016082 79.04932 
L 110.284076 78.781325 
L 110.284076 78.513331 
L 110.284076 78.245336 
L 110.016082 78.245336 
L 110.016082 78.513331 
L 109.748087 78.513331 
L 109.480093 78.513331 
L 109.480093 78.781325 
L 109.212098 79.04932 
L 109.212098 79.317314 
L 108.944104 79.585309 
L 108.944104 80.121298 
L 108.944104 80.389292 
L 109.212098 80.657287 
L 109.212098 80.925281 
L 109.480093 80.925281 
L 109.748087 80.925281 
L 110.016082 80.925281 
L 110.284076 80.657287 
L 110.552071 80.389292 
L 110.552071 80.121298 
L 110.820065 79.853303 
L 110.820065 79.317314 
L 110.820065 79.04932 
L 110.820065 78.781325 
L 110.820065 78.513331 
L 110.820065 78.245336 
L 110.820065 77.977342 
L 110.820065 78.245336 
L 111.08806 78.245336 
L 111.08806 78.513331 
L 111.356054 79.04932 
L 111.356054 79.585309 
L 111.624049 79.853303 
L 111.892043 80.657287 
L 112.160037 81.193275 
L 112.428032 81.46127 
L 112.428032 81.729264 
L 112.696026 81.729264 
" style="fill:none;stroke:#8c8c8c;stroke-linecap:square;"/>
   </g>
   <g id="line2d_55">
    <path clip-path="url(#p8b00651ff5)" d="M 113.232015 79.04932 
L 113.232015 79.317314 
L 113.50001 79.317314 
L 113.50001 79.585309 
L 113.768004 79.853303 
L 113.768004 80.121298 
L 114.035999 80.389292 
L 114.303993 80.657287 
L 114.571988 80.657287 
L 114.571988 80.925281 
L 114.571988 80.657287 
L 114.571988 80.389292 
L 114.303993 80.121298 
L 114.303993 79.853303 
L 114.303993 79.585309 
L 114.303993 79.317314 
L 114.571988 78.781325 
L 114.571988 78.513331 
L 114.571988 77.977342 
L 114.839982 77.977342 
" style="fill:none;stroke:#8c8c8c;stroke-linecap:square;"/>
   </g>
   <g id="line2d_56">
    <path clip-path="url(#p8b00651ff5)" d="M 117.519927 76.905364 
L 117.251933 76.905364 
L 117.251933 77.173358 
L 116.983938 77.173358 
L 116.983938 77.441353 
L 116.983938 77.709347 
L 116.715944 78.245336 
L 116.715944 78.513331 
L 116.715944 79.04932 
L 116.983938 79.317314 
L 117.251933 79.585309 
L 117.251933 79.853303 
L 117.519927 79.853303 
L 117.787922 79.853303 
L 117.787922 79.585309 
L 117.787922 79.317314 
L 117.787922 79.04932 
L 117.787922 78.781325 
L 117.787922 78.513331 
L 117.519927 78.245336 
L 117.519927 77.977342 
L 117.519927 77.709347 
L 117.519927 77.977342 
L 117.787922 77.977342 
L 118.055916 78.245336 
L 118.32391 78.513331 
L 118.591905 78.781325 
L 119.127894 79.317314 
L 119.663883 79.853303 
L 119.663883 80.121298 
L 119.931877 80.925281 
L 120.199872 81.46127 
L 120.199872 81.997259 
L 120.199872 82.533248 
L 119.931877 82.801242 
L 119.931877 83.069237 
L 119.663883 83.069237 
L 119.127894 83.069237 
L 118.859899 83.069237 
" style="fill:none;stroke:#8c8c8c;stroke-linecap:square;"/>
   </g>
   <g id="line2d_57">
    <path clip-path="url(#p8b00651ff5)" d="M 119.931877 77.441353 
L 120.199872 77.441353 
L 120.467866 77.441353 
L 120.735861 77.441353 
L 121.003855 77.441353 
L 121.27185 77.173358 
L 121.539844 76.905364 
L 121.807839 76.905364 
L 121.807839 76.369375 
L 122.075833 76.369375 
L 122.075833 76.10138 
L 122.075833 75.833386 
L 122.075833 75.565391 
L 121.807839 75.565391 
L 121.807839 75.297397 
L 121.539844 75.297397 
L 121.27185 75.565391 
L 121.27185 75.833386 
L 121.003855 75.833386 
L 121.003855 76.369375 
L 121.003855 76.905364 
L 121.003855 77.441353 
L 121.27185 78.245336 
L 121.807839 78.781325 
L 121.807839 79.04932 
L 122.343828 79.585309 
L 122.611822 79.585309 
L 123.147811 79.853303 
L 123.415806 79.585309 
" style="fill:none;stroke:#8c8c8c;stroke-linecap:square;"/>
   </g>
   <g id="line2d_58">
    <path clip-path="url(#p8b00651ff5)" d="M 124.219789 76.637369 
L 124.219789 76.369375 
L 123.951795 76.10138 
L 124.219789 76.10138 
L 124.219789 76.369375 
L 124.487783 76.369375 
L 124.487783 76.637369 
L 124.755778 76.905364 
L 125.023772 77.173358 
L 125.291767 77.441353 
L 125.827756 77.977342 
L 126.09575 78.513331 
L 126.363745 78.513331 
L 126.363745 78.781325 
L 126.363745 78.513331 
L 126.363745 78.245336 
L 126.09575 77.977342 
L 126.09575 77.709347 
L 126.09575 77.441353 
L 126.09575 77.173358 
L 126.09575 76.905364 
L 126.09575 76.369375 
L 126.363745 76.10138 
L 126.899734 75.565391 
L 127.167728 75.565391 
" style="fill:none;stroke:#8c8c8c;stroke-linecap:square;"/>
   </g>
   <g id="line2d_59">
    <path clip-path="url(#p8b00651ff5)" d="M 95.276385 232.342161 
L 95.812374 232.074167 
L 96.080369 232.074167 
L 97.152347 231.806172 
L 97.420341 232.074167 
L 97.688336 232.074167 
L 97.95633 232.342161 
L 97.95633 232.610156 
L 98.224325 232.610156 
L 98.492319 232.87815 
L 98.492319 233.146145 
L 98.760314 234.218123 
L 98.760314 235.022106 
L 98.760314 235.82609 
L 98.492319 236.630073 
L 98.492319 237.166062 
L 98.224325 237.702051 
L 97.688336 238.506034 
L 97.152347 239.578012 
L 96.616358 240.381996 
L 95.812374 241.453974 
L 95.008391 242.525951 
L 93.936413 243.597929 
L 92.864435 244.669907 
L 92.060452 245.741885 
L 90.988474 246.813863 
L 90.452485 247.617847 
L 89.648501 248.42183 
L 89.112512 248.957819 
L 88.576523 249.225813 
L 88.040534 249.761802 
L 88.308529 249.761802 
L 88.308529 249.493808 
L 88.576523 249.493808 
" style="fill:none;stroke:#8c8c8c;stroke-linecap:square;"/>
   </g>
   <g id="line2d_60">
    <path clip-path="url(#p8b00651ff5)" d="M 29.617738 266.645455 
L 29.885733 266.645455 
" style="fill:none;stroke:#8c8c8c;stroke-linecap:square;"/>
   </g>
  </g>
 </g>
 <defs>
  <clipPath id="p8b00651ff5">
   <rect height="271.8" width="493.190239" x="7.2" y="7.2"/>
  </clipPath>
 </defs>
</svg>
