<?xml version="1.0" encoding="utf-8" standalone="no"?>
<!DOCTYPE svg PUBLIC "-//W3C//DTD SVG 1.1//EN"
  "http://www.w3.org/Graphics/SVG/1.1/DTD/svg11.dtd">
<!-- Created with matplotlib (https://matplotlib.org/) -->
<svg height="286.2pt" version="1.1" viewBox="0 0 365.582857 286.2" width="365.582857pt" xmlns="http://www.w3.org/2000/svg" xmlns:xlink="http://www.w3.org/1999/xlink">
 <metadata>
  <rdf:RDF xmlns:cc="http://creativecommons.org/ns#" xmlns:dc="http://purl.org/dc/elements/1.1/" xmlns:rdf="http://www.w3.org/1999/02/22-rdf-syntax-ns#">
   <cc:Work>
    <dc:type rdf:resource="http://purl.org/dc/dcmitype/StillImage"/>
    <dc:date>2024-11-21T14:44:22.781489</dc:date>
    <dc:format>image/svg+xml</dc:format>
    <dc:creator>
     <cc:Agent>
      <dc:title>Matplotlib v3.3.4, https://matplotlib.org/</dc:title>
     </cc:Agent>
    </dc:creator>
   </cc:Work>
  </rdf:RDF>
 </metadata>
 <defs>
  <style type="text/css">*{stroke-linecap:butt;stroke-linejoin:round;}</style>
 </defs>
 <g id="figure_1">
  <g id="patch_1">
   <path d="M -0 286.2 
L 365.582857 286.2 
L 365.582857 0 
L -0 0 
z
" style="fill:#ffffff;"/>
  </g>
  <g id="axes_1">
   <g id="line2d_1">
    <path clip-path="url(#p331cb634d0)" d="M 31.007013 44.655844 
L 31.007013 44.263636 
L 31.007013 43.871429 
L 30.614805 43.871429 
L 30.222597 43.479221 
L 29.83039 43.479221 
L 29.438182 43.479221 
L 29.438182 43.871429 
L 28.653766 43.871429 
L 27.869351 44.263636 
L 27.084935 44.655844 
L 26.300519 45.44026 
L 25.516104 46.224675 
L 24.339481 47.793506 
L 23.555065 48.97013 
L 23.162857 50.538961 
L 23.162857 51.715584 
L 23.162857 52.892208 
L 23.947273 54.068831 
L 24.731688 55.245455 
L 25.908312 56.02987 
L 26.692727 56.422078 
L 27.477143 56.814286 
L 29.045974 57.206494 
L 29.83039 57.206494 
L 31.007013 56.814286 
L 31.399221 56.814286 
" style="fill:none;stroke:#8c8c8c;stroke-linecap:square;"/>
   </g>
   <g id="line2d_2">
    <path clip-path="url(#p331cb634d0)" d="M 38.066753 52.107792 
L 38.066753 51.715584 
L 38.066753 51.323377 
L 37.674545 50.931169 
L 37.282338 50.931169 
L 36.89013 50.931169 
L 36.497922 50.931169 
L 36.105714 51.323377 
L 35.321299 51.715584 
L 34.144675 52.107792 
L 33.752468 52.892208 
L 33.36026 53.284416 
L 32.968052 54.068831 
L 33.36026 54.461039 
L 33.752468 55.245455 
L 34.536883 55.245455 
L 35.321299 55.245455 
L 36.89013 54.853247 
L 38.066753 54.461039 
L 38.851169 54.068831 
L 40.027792 52.892208 
L 40.42 52.5 
L 40.812208 51.715584 
L 40.812208 50.931169 
L 40.812208 50.538961 
L 40.812208 50.146753 
L 40.812208 50.538961 
L 40.812208 50.931169 
L 40.812208 51.323377 
L 40.812208 52.5 
L 41.204416 52.892208 
L 41.204416 53.676623 
L 41.596623 54.461039 
L 41.988831 55.245455 
L 41.988831 55.637662 
L 42.381039 55.637662 
L 42.381039 56.02987 
L 42.381039 56.422078 
" style="fill:none;stroke:#8c8c8c;stroke-linecap:square;"/>
   </g>
   <g id="line2d_3">
    <path clip-path="url(#p331cb634d0)" d="M 51.794026 50.931169 
L 51.794026 50.538961 
L 52.186234 50.931169 
L 52.186234 51.323377 
L 52.578442 52.107792 
L 52.970649 52.5 
L 53.362857 53.284416 
L 53.362857 53.676623 
L 53.755065 54.461039 
L 53.755065 54.853247 
L 54.147273 55.245455 
L 54.147273 55.637662 
L 53.755065 55.637662 
L 53.755065 55.245455 
L 53.362857 54.461039 
L 53.362857 53.676623 
L 52.970649 52.892208 
L 52.970649 51.323377 
L 52.970649 50.146753 
L 52.970649 48.97013 
L 52.970649 47.793506 
L 53.362857 46.616883 
L 53.362857 46.224675 
L 53.755065 46.224675 
L 53.755065 45.832468 
L 54.539481 45.832468 
L 54.931688 46.224675 
L 55.323896 46.616883 
L 55.716104 47.401299 
L 56.500519 48.97013 
L 56.500519 49.362338 
L 56.892727 50.538961 
L 57.284935 51.715584 
L 57.284935 52.107792 
L 57.677143 52.5 
L 57.677143 52.892208 
L 57.677143 52.5 
L 57.677143 52.107792 
L 57.677143 51.715584 
L 57.677143 50.146753 
L 58.069351 49.362338 
L 58.069351 48.185714 
L 58.853766 47.009091 
L 59.245974 46.224675 
L 60.03039 45.44026 
L 60.422597 45.048052 
L 60.814805 44.655844 
L 61.599221 44.655844 
L 62.383636 45.048052 
L 62.775844 45.44026 
L 63.168052 45.832468 
L 63.56026 46.616883 
L 63.56026 48.185714 
L 63.952468 49.362338 
L 63.952468 50.146753 
L 63.952468 51.323377 
L 63.952468 52.107792 
L 63.952468 53.284416 
L 64.344675 53.676623 
L 64.344675 54.461039 
L 64.344675 54.853247 
L 64.344675 55.245455 
" style="fill:none;stroke:#8c8c8c;stroke-linecap:square;"/>
   </g>
   <g id="line2d_4">
    <path clip-path="url(#p331cb634d0)" d="M 108.271948 265.861039 
L 108.664156 265.861039 
L 109.056364 265.861039 
L 109.448571 265.861039 
L 109.840779 265.861039 
L 109.840779 266.253247 
L 110.232987 266.253247 
L 110.625195 266.253247 
L 111.017403 266.253247 
L 111.017403 266.645455 
L 111.40961 266.645455 
L 111.017403 266.645455 
L 110.625195 266.645455 
L 110.232987 266.645455 
L 109.840779 266.645455 
L 109.448571 266.645455 
L 109.056364 266.645455 
L 108.664156 266.645455 
L 108.271948 266.645455 
L 107.87974 266.645455 
L 107.487532 266.645455 
L 107.87974 266.645455 
" style="fill:none;stroke:#8c8c8c;stroke-linecap:square;"/>
   </g>
   <g id="line2d_5">
    <path clip-path="url(#p331cb634d0)" d="M 71.404416 50.538961 
L 71.404416 50.146753 
L 71.796623 49.754545 
L 71.796623 49.362338 
L 71.796623 48.97013 
L 71.404416 48.97013 
L 71.012208 48.97013 
L 71.012208 49.362338 
L 70.62 49.754545 
L 70.227792 50.538961 
L 69.835584 51.323377 
L 69.835584 52.107792 
L 70.227792 52.5 
L 70.227792 52.892208 
L 70.62 53.284416 
L 71.404416 53.284416 
L 72.188831 53.284416 
L 72.581039 53.284416 
L 73.365455 52.892208 
L 73.757662 52.107792 
L 74.14987 51.715584 
L 74.542078 50.931169 
L 74.542078 50.538961 
L 74.542078 50.146753 
L 74.542078 49.754545 
L 74.14987 49.754545 
L 74.14987 50.146753 
L 74.14987 50.538961 
L 74.14987 50.931169 
L 74.14987 51.715584 
L 74.542078 52.5 
L 74.934286 53.284416 
L 75.718701 54.461039 
L 76.895325 56.02987 
L 76.895325 56.814286 
L 78.071948 58.383117 
L 78.071948 59.167532 
L 78.464156 60.344156 
L 78.464156 61.128571 
L 78.071948 61.912987 
L 76.895325 63.08961 
L 75.718701 63.874026 
L 74.14987 64.266234 
L 71.012208 64.266234 
L 69.051169 63.874026 
L 66.305714 62.697403 
L 65.129091 61.912987 
L 64.736883 61.128571 
L 64.344675 60.344156 
" style="fill:none;stroke:#8c8c8c;stroke-linecap:square;"/>
   </g>
   <g id="line2d_6">
    <path clip-path="url(#p331cb634d0)" d="M 87.877143 43.871429 
L 87.877143 43.479221 
L 88.269351 43.479221 
L 87.877143 43.479221 
L 87.484935 43.479221 
L 87.092727 43.479221 
L 86.308312 43.871429 
L 85.131688 44.263636 
L 83.955065 44.655844 
L 82.778442 45.44026 
L 82.386234 45.832468 
L 81.601818 46.616883 
L 81.601818 47.009091 
L 81.601818 47.401299 
L 81.994026 47.401299 
L 82.386234 47.401299 
L 82.778442 47.401299 
L 83.955065 47.793506 
L 84.739481 47.793506 
L 86.308312 48.185714 
L 87.484935 48.577922 
L 88.661558 48.97013 
L 89.838182 49.754545 
L 90.622597 50.538961 
L 91.014805 51.323377 
L 91.799221 52.107792 
L 91.799221 52.892208 
L 91.799221 54.068831 
L 91.799221 54.461039 
L 91.799221 55.245455 
L 91.014805 56.02987 
L 90.622597 56.02987 
L 89.838182 56.422078 
L 89.053766 56.02987 
L 87.877143 55.637662 
L 87.092727 54.853247 
L 86.308312 54.461039 
" style="fill:none;stroke:#8c8c8c;stroke-linecap:square;"/>
   </g>
   <g id="line2d_7">
    <path clip-path="url(#p331cb634d0)" d="M 95.329091 50.931169 
L 95.721299 50.931169 
L 96.113506 51.715584 
L 96.113506 52.107792 
L 96.505714 52.5 
L 96.505714 53.284416 
L 96.897922 53.676623 
L 96.897922 54.068831 
L 96.897922 54.461039 
L 96.897922 54.853247 
" style="fill:none;stroke:#8c8c8c;stroke-linecap:square;"/>
   </g>
   <g id="line2d_8">
    <path clip-path="url(#p331cb634d0)" d="M 96.113506 45.048052 
L 96.113506 44.655844 
L 96.113506 43.871429 
L 96.113506 43.479221 
" style="fill:none;stroke:#8c8c8c;stroke-linecap:square;"/>
   </g>
   <g id="line2d_9">
    <path clip-path="url(#p331cb634d0)" d="M 100.82 52.892208 
L 101.212208 52.892208 
L 101.604416 52.892208 
L 101.604416 52.5 
L 102.781039 52.5 
L 103.565455 52.107792 
L 104.742078 51.715584 
L 105.526494 51.715584 
L 105.918701 51.715584 
L 106.703117 51.715584 
L 107.095325 52.107792 
L 107.487532 52.5 
L 107.487532 52.892208 
L 107.487532 53.284416 
L 107.095325 53.284416 
L 107.095325 53.676623 
L 106.703117 54.461039 
L 106.703117 55.245455 
L 106.310909 55.637662 
L 106.310909 56.02987 
L 106.310909 56.422078 
L 106.703117 56.814286 
L 107.095325 57.206494 
L 107.487532 57.206494 
L 107.87974 57.206494 
L 108.271948 57.206494 
" style="fill:none;stroke:#8c8c8c;stroke-linecap:square;"/>
   </g>
   <g id="line2d_10">
    <path clip-path="url(#p331cb634d0)" d="M 114.939481 48.97013 
L 114.939481 48.185714 
L 114.939481 47.793506 
L 114.939481 47.401299 
L 114.939481 47.009091 
L 114.547273 47.009091 
L 114.155065 47.009091 
L 114.155065 47.401299 
L 113.762857 47.401299 
L 113.762857 47.793506 
L 113.370649 48.577922 
L 113.370649 48.97013 
L 113.370649 50.146753 
L 113.370649 50.931169 
L 113.762857 52.107792 
L 114.939481 53.676623 
L 116.116104 54.461039 
L 116.508312 54.853247 
L 118.077143 54.853247 
L 118.861558 54.853247 
L 120.43039 54.068831 
L 120.822597 53.676623 
L 121.607013 52.5 
L 121.999221 50.538961 
L 121.999221 48.97013 
L 121.999221 47.401299 
L 121.607013 46.616883 
L 121.214805 45.44026 
L 120.038182 44.263636 
L 119.253766 43.871429 
L 118.469351 43.871429 
L 117.684935 43.871429 
L 116.900519 43.871429 
L 115.723896 44.263636 
L 115.331688 44.655844 
L 115.331688 45.048052 
L 114.939481 45.832468 
L 114.547273 45.832468 
" style="fill:none;stroke:#8c8c8c;stroke-linecap:square;"/>
   </g>
   <g id="line2d_11">
    <path clip-path="url(#p331cb634d0)" d="M 136.118701 44.263636 
L 136.510909 43.871429 
L 136.118701 43.871429 
L 135.726494 43.871429 
L 135.334286 44.263636 
L 134.942078 44.655844 
L 134.54987 45.44026 
L 134.157662 46.224675 
L 133.765455 48.185714 
L 133.765455 49.754545 
L 133.765455 50.931169 
L 134.54987 53.284416 
L 134.942078 54.461039 
L 136.510909 55.637662 
L 137.295325 56.422078 
L 138.864156 56.814286 
L 139.648571 56.814286 
L 140.432987 56.422078 
L 140.825195 55.637662 
L 141.217403 55.245455 
L 141.217403 54.461039 
L 140.825195 53.284416 
L 140.040779 52.5 
L 139.256364 51.715584 
L 137.687532 50.931169 
L 136.903117 50.538961 
L 135.334286 50.538961 
L 134.157662 50.146753 
L 133.373247 50.146753 
L 132.981039 50.146753 
L 132.981039 50.538961 
" style="fill:none;stroke:#8c8c8c;stroke-linecap:square;"/>
   </g>
   <g id="line2d_12">
    <path clip-path="url(#p331cb634d0)" d="M 25.908312 61.128571 
L 26.692727 61.128571 
L 27.477143 61.128571 
L 28.261558 60.736364 
L 28.653766 60.736364 
L 29.438182 60.736364 
L 29.83039 60.736364 
L 30.614805 60.736364 
L 31.399221 60.736364 
L 32.183636 60.736364 
L 32.575844 60.736364 
L 33.752468 61.128571 
L 34.144675 61.128571 
L 35.321299 61.128571 
L 36.105714 61.128571 
L 36.89013 61.520779 
L 37.674545 61.520779 
L 38.458961 61.520779 
L 39.243377 61.520779 
L 40.42 61.912987 
L 40.812208 61.912987 
L 41.988831 61.520779 
L 43.165455 61.520779 
L 44.342078 61.128571 
L 45.126494 61.128571 
L 46.303117 60.736364 
L 47.087532 60.736364 
L 47.871948 60.736364 
L 48.264156 60.736364 
L 48.656364 60.344156 
" style="fill:none;stroke:#8c8c8c;stroke-linecap:square;"/>
   </g>
   <g id="line2d_13">
    <path clip-path="url(#p331cb634d0)" d="M 45.518701 67.011688 
L 45.910909 67.011688 
L 45.910909 67.403896 
L 46.303117 67.403896 
L 46.695325 67.796104 
L 47.087532 67.796104 
L 47.871948 68.580519 
L 48.264156 68.580519 
L 49.048571 68.972727 
L 49.440779 69.364935 
L 51.00961 70.149351 
L 51.794026 70.149351 
L 53.362857 70.933766 
L 54.147273 70.933766 
L 55.716104 71.718182 
L 56.892727 71.718182 
L 57.677143 72.11039 
L 58.069351 72.11039 
L 59.245974 72.502597 
L 60.03039 72.502597 
L 60.422597 72.894805 
L 61.207013 72.894805 
L 61.991429 73.287013 
L 62.775844 73.287013 
L 63.56026 73.679221 
L 65.129091 73.679221 
L 65.913506 74.071429 
L 71.404416 74.071429 
L 72.188831 74.463636 
L 76.503117 74.463636 
L 77.287532 74.071429 
L 80.425195 74.071429 
L 81.601818 73.679221 
L 84.347273 73.679221 
L 85.131688 73.287013 
L 88.269351 73.287013 
L 89.445974 72.894805 
L 91.407013 72.894805 
L 92.583636 72.502597 
L 97.682338 72.502597 
L 98.074545 72.894805 
L 100.035584 72.894805 
L 101.212208 73.287013 
L 101.996623 73.287013 
L 102.781039 73.679221 
L 103.957662 74.071429 
L 104.742078 74.071429 
L 106.310909 74.463636 
L 107.487532 74.463636 
L 109.840779 74.855844 
L 111.40961 74.855844 
L 112.978442 75.248052 
L 123.175844 76.816883 
L 124.352468 77.209091 
L 126.313506 77.601299 
L 127.097922 77.993506 
L 129.058961 79.17013 
L 129.843377 79.17013 
L 130.627792 79.954545 
L 131.412208 80.346753 
L 131.412208 80.738961 
L 131.804416 80.738961 
L 131.804416 81.131169 
L 132.196623 81.523377 
L 132.588831 81.523377 
L 132.588831 81.915584 
L 132.981039 81.915584 
L 132.981039 82.307792 
L 133.373247 82.307792 
L 133.765455 82.7 
L 134.157662 82.7 
L 134.942078 83.092208 
L 135.334286 83.092208 
L 136.118701 83.876623 
L 136.510909 83.876623 
L 137.295325 84.268831 
L 138.07974 85.053247 
L 138.864156 85.445455 
L 140.432987 87.014286 
L 141.217403 87.406494 
L 141.60961 87.406494 
L 142.394026 87.798701 
L 142.786234 88.190909 
L 143.570649 88.583117 
L 143.962857 88.583117 
L 144.747273 89.367532 
L 145.139481 89.367532 
L 145.139481 89.75974 
L 145.531688 89.75974 
L 145.531688 91.328571 
L 145.139481 91.720779 
L 145.139481 92.505195 
L 144.747273 92.897403 
L 144.747273 93.28961 
L 144.355065 93.681818 
L 144.355065 94.466234 
L 143.962857 94.858442 
L 143.962857 96.035065 
L 143.570649 96.427273 
L 143.570649 99.172727 
L 143.962857 99.564935 
L 143.962857 99.957143 
L 144.747273 100.741558 
L 144.747273 101.133766 
L 145.139481 101.133766 
L 145.139481 101.525974 
L 145.531688 101.525974 
L 145.923896 101.918182 
L 146.316104 101.918182 
L 146.316104 102.31039 
L 146.708312 102.31039 
L 146.708312 102.702597 
L 147.100519 102.702597 
L 147.100519 103.487013 
L 147.492727 103.487013 
L 147.492727 103.879221 
L 147.884935 104.271429 
L 147.884935 108.193506 
L 147.884935 108.193506 
" style="fill:none;stroke:#8c8c8c;stroke-linecap:square;"/>
   </g>
   <g id="line2d_14">
    <path clip-path="url(#p331cb634d0)" d="M 143.962857 107.016883 
L 143.962857 106.624675 
L 144.355065 106.624675 
L 144.747273 106.624675 
L 145.139481 106.624675 
L 145.139481 107.016883 
L 145.531688 107.016883 
L 145.531688 107.409091 
L 145.923896 107.409091 
L 145.923896 107.801299 
L 146.316104 107.801299 
L 146.316104 108.193506 
L 146.708312 108.193506 
L 146.708312 108.585714 
L 147.100519 108.585714 
L 147.492727 108.585714 
L 147.884935 108.585714 
L 148.277143 108.585714 
L 148.669351 108.585714 
L 148.669351 108.193506 
L 149.061558 107.801299 
L 149.453766 107.409091 
L 150.238182 107.016883 
L 150.238182 106.624675 
L 151.022597 105.84026 
L 151.022597 105.448052 
L 151.414805 105.055844 
" style="fill:none;stroke:#8c8c8c;stroke-linecap:square;"/>
   </g>
   <g id="line2d_15">
    <path clip-path="url(#p331cb634d0)" d="M 273.783636 33.281818 
L 273.783636 33.674026 
L 273.783636 34.066234 
L 273.783636 34.458442 
L 273.391429 35.242857 
L 273.391429 36.027273 
L 273.391429 36.811688 
L 273.391429 37.596104 
L 273.391429 38.772727 
L 273.391429 39.949351 
L 273.391429 41.125974 
L 272.999221 43.087013 
L 272.999221 44.263636 
L 272.999221 45.44026 
L 272.999221 47.009091 
L 272.607013 48.185714 
L 272.607013 49.754545 
L 272.607013 50.538961 
L 272.607013 51.323377 
L 272.607013 52.107792 
L 272.999221 52.5 
L 272.999221 52.892208 
" style="fill:none;stroke:#8c8c8c;stroke-linecap:square;"/>
   </g>
   <g id="line2d_16">
    <path clip-path="url(#p331cb634d0)" d="M 275.744675 30.536364 
L 275.352468 30.928571 
L 275.352468 31.320779 
L 275.744675 31.320779 
L 275.744675 31.712987 
L 276.136883 31.712987 
L 276.136883 32.105195 
L 276.921299 32.105195 
L 277.313506 32.497403 
L 278.097922 32.88961 
L 278.882338 33.674026 
L 280.451169 34.458442 
L 281.235584 34.850649 
L 282.412208 35.635065 
L 283.196623 36.419481 
L 283.588831 36.811688 
L 284.373247 37.596104 
L 284.765455 38.380519 
L 284.765455 38.772727 
L 285.157662 39.557143 
L 285.157662 40.733766 
L 285.54987 41.125974 
L 285.54987 41.91039 
L 285.157662 42.694805 
L 285.157662 43.871429 
L 284.373247 45.048052 
L 283.981039 45.832468 
L 282.804416 47.401299 
L 282.02 48.185714 
L 280.058961 49.754545 
L 278.882338 50.538961 
L 278.097922 51.323377 
L 276.529091 52.107792 
L 275.744675 52.5 
L 274.96026 52.892208 
L 274.568052 52.892208 
" style="fill:none;stroke:#8c8c8c;stroke-linecap:square;"/>
   </g>
   <g id="line2d_17">
    <path clip-path="url(#p331cb634d0)" d="M 295.355065 39.949351 
L 295.747273 39.949351 
L 296.531688 40.341558 
L 297.316104 40.341558 
L 298.100519 40.341558 
L 298.492727 40.341558 
L 300.061558 40.341558 
L 300.453766 40.341558 
" style="fill:none;stroke:#8c8c8c;stroke-linecap:square;"/>
   </g>
   <g id="line2d_18">
    <path clip-path="url(#p331cb634d0)" d="M 294.962857 43.871429 
L 294.962857 44.263636 
L 295.355065 44.263636 
L 295.355065 44.655844 
L 296.139481 44.655844 
L 297.316104 44.655844 
L 298.100519 44.655844 
L 299.277143 44.655844 
L 300.453766 44.655844 
L 302.022597 44.263636 
L 302.414805 44.263636 
" style="fill:none;stroke:#8c8c8c;stroke-linecap:square;"/>
   </g>
   <g id="line2d_19">
    <path clip-path="url(#p331cb634d0)" d="M 327.123896 27.790909 
L 327.516104 27.398701 
L 327.123896 27.006494 
L 327.123896 26.614286 
L 327.123896 26.222078 
L 326.731688 26.222078 
L 326.339481 25.82987 
L 325.555065 25.82987 
L 325.162857 25.82987 
L 324.378442 25.82987 
L 323.594026 26.222078 
L 323.201818 26.614286 
L 322.417403 27.006494 
L 322.025195 27.398701 
L 321.240779 28.575325 
L 320.848571 30.144156 
L 320.848571 31.320779 
L 320.848571 32.105195 
L 321.632987 33.281818 
L 323.201818 34.458442 
L 325.162857 35.635065 
L 326.731688 35.635065 
L 328.300519 36.027273 
L 330.653766 36.027273 
L 331.438182 35.635065 
L 332.614805 35.242857 
L 333.007013 34.850649 
" style="fill:none;stroke:#8c8c8c;stroke-linecap:square;"/>
   </g>
   <g id="line2d_20">
    <path clip-path="url(#p331cb634d0)" d="M 338.105714 20.338961 
L 338.105714 19.946753 
L 338.497922 19.946753 
L 338.105714 19.554545 
L 337.713506 19.554545 
L 336.929091 19.554545 
L 336.144675 19.554545 
L 335.36026 19.946753 
L 334.575844 20.338961 
L 333.791429 20.338961 
L 333.007013 20.731169 
L 332.614805 21.123377 
L 332.614805 21.515584 
L 332.222597 21.907792 
L 332.614805 21.907792 
L 332.614805 22.3 
L 333.399221 22.692208 
L 333.791429 22.692208 
L 334.575844 23.084416 
L 335.36026 23.476623 
L 336.144675 23.868831 
L 336.929091 24.261039 
L 337.713506 24.653247 
L 338.497922 25.045455 
L 338.89013 25.82987 
L 338.89013 26.222078 
L 339.282338 26.614286 
L 339.282338 27.006494 
L 339.282338 27.790909 
L 338.89013 28.183117 
L 338.89013 28.575325 
L 338.497922 28.575325 
L 338.105714 28.967532 
L 337.321299 28.967532 
L 336.536883 28.575325 
L 336.144675 28.183117 
" style="fill:none;stroke:#8c8c8c;stroke-linecap:square;"/>
   </g>
   <g id="line2d_21">
    <path clip-path="url(#p331cb634d0)" d="M 320.064156 41.91039 
L 319.671948 42.302597 
L 319.27974 42.302597 
L 319.671948 42.302597 
L 320.064156 42.694805 
L 320.456364 42.694805 
L 321.632987 42.694805 
L 323.594026 42.694805 
L 327.123896 42.694805 
L 328.300519 42.694805 
L 332.614805 42.694805 
L 334.968052 42.694805 
L 338.105714 42.694805 
L 340.066753 42.694805 
L 340.458961 42.694805 
L 341.635584 42.694805 
L 342.42 42.694805 
" style="fill:none;stroke:#8c8c8c;stroke-linecap:square;"/>
   </g>
   <g id="line2d_22">
    <path clip-path="url(#p331cb634d0)" d="M 327.123896 54.068831 
L 327.516104 53.676623 
L 327.908312 53.284416 
L 328.300519 53.284416 
L 328.300519 52.892208 
L 328.300519 52.5 
L 327.908312 51.715584 
L 327.516104 51.323377 
L 327.123896 51.323377 
L 326.339481 50.931169 
L 325.555065 50.931169 
L 324.378442 51.323377 
L 323.201818 51.715584 
L 321.632987 52.5 
L 320.848571 53.284416 
L 320.064156 54.461039 
L 319.671948 55.637662 
L 319.671948 56.814286 
L 320.064156 57.598701 
L 320.848571 59.167532 
L 322.025195 59.951948 
L 323.594026 60.736364 
L 325.162857 61.128571 
L 326.339481 61.128571 
L 328.300519 61.128571 
L 329.869351 60.736364 
L 330.653766 59.951948 
L 331.045974 59.951948 
" style="fill:none;stroke:#8c8c8c;stroke-linecap:square;"/>
   </g>
   <g id="line2d_23">
    <path clip-path="url(#p331cb634d0)" d="M 334.183636 47.401299 
L 334.183636 47.009091 
L 333.791429 47.009091 
L 333.791429 47.401299 
L 333.791429 47.793506 
L 333.791429 48.577922 
L 333.791429 48.97013 
L 333.791429 49.754545 
L 333.791429 50.146753 
L 333.791429 50.931169 
L 333.791429 51.715584 
L 333.791429 52.107792 
L 333.791429 52.892208 
L 333.791429 53.284416 
L 333.791429 53.676623 
L 333.791429 54.068831 
L 334.183636 54.068831 
L 334.183636 54.461039 
L 334.575844 54.461039 
L 334.575844 54.853247 
L 334.968052 54.853247 
L 335.36026 54.853247 
L 336.144675 54.853247 
L 337.321299 54.853247 
L 338.497922 54.461039 
L 339.674545 54.068831 
" style="fill:none;stroke:#8c8c8c;stroke-linecap:square;"/>
   </g>
   <g id="line2d_24">
    <path clip-path="url(#p331cb634d0)" d="M 109.448571 125.842857 
L 109.840779 125.842857 
L 109.840779 125.450649 
L 110.232987 125.450649 
L 110.232987 125.058442 
L 110.625195 125.058442 
L 110.625195 124.666234 
L 111.017403 124.666234 
L 111.017403 124.274026 
L 111.40961 124.274026 
L 111.801818 124.274026 
L 111.801818 123.881818 
L 112.194026 123.881818 
L 112.194026 123.48961 
L 112.586234 123.48961 
L 112.586234 123.097403 
L 112.978442 123.097403 
L 112.978442 122.705195 
L 113.370649 122.705195 
L 113.762857 122.312987 
L 114.155065 121.920779 
L 114.547273 121.920779 
L 114.547273 121.528571 
L 114.939481 121.528571 
L 114.939481 121.136364 
L 115.331688 121.136364 
L 115.331688 120.744156 
L 115.723896 120.744156 
L 115.723896 120.351948 
L 116.116104 120.351948 
L 116.508312 119.95974 
L 116.900519 119.567532 
L 117.292727 119.567532 
L 117.292727 119.175325 
L 117.684935 119.175325 
L 118.077143 118.783117 
L 118.469351 118.390909 
L 118.861558 118.390909 
L 118.861558 117.998701 
L 119.253766 117.998701 
L 119.645974 117.606494 
L 120.038182 117.606494 
L 120.43039 117.214286 
L 120.822597 117.214286 
L 120.822597 116.822078 
L 121.214805 116.822078 
L 121.607013 116.822078 
L 121.999221 116.42987 
L 122.391429 116.42987 
L 122.391429 116.037662 
L 122.783636 116.037662 
L 122.783636 115.645455 
L 123.175844 115.645455 
L 123.568052 115.645455 
L 123.568052 115.253247 
L 123.96026 115.253247 
L 124.352468 114.861039 
L 124.744675 114.861039 
L 125.136883 114.468831 
L 125.529091 114.468831 
L 125.529091 114.076623 
L 125.921299 114.076623 
L 126.313506 114.076623 
L 126.313506 113.684416 
L 126.705714 113.684416 
L 127.097922 113.684416 
L 127.097922 113.292208 
L 127.49013 113.292208 
L 127.882338 112.9 
L 128.274545 112.9 
L 128.666753 112.9 
L 128.666753 112.507792 
L 129.058961 112.507792 
L 129.451169 112.507792 
L 129.843377 112.507792 
L 129.843377 112.115584 
L 130.235584 112.115584 
L 130.627792 112.115584 
L 131.02 112.115584 
L 131.02 111.723377 
L 131.412208 111.723377 
L 131.804416 111.723377 
L 132.196623 111.723377 
L 132.588831 111.723377 
L 132.981039 111.331169 
L 133.373247 111.331169 
L 133.765455 111.331169 
L 134.157662 111.331169 
L 134.54987 111.331169 
L 134.942078 111.331169 
L 135.334286 111.331169 
L 135.726494 111.331169 
L 136.118701 111.331169 
L 136.510909 111.331169 
L 136.903117 111.331169 
L 137.295325 110.938961 
L 137.687532 110.938961 
L 138.07974 110.938961 
L 138.471948 110.938961 
L 138.864156 110.938961 
L 139.256364 110.938961 
L 139.648571 110.938961 
L 139.648571 111.331169 
L 140.040779 111.331169 
L 140.432987 111.331169 
L 140.825195 111.331169 
L 141.217403 111.331169 
L 141.60961 111.331169 
L 142.001818 111.331169 
L 142.394026 111.331169 
L 142.786234 111.723377 
L 143.178442 111.723377 
L 143.570649 111.723377 
L 143.962857 111.723377 
L 144.355065 111.723377 
L 144.355065 112.115584 
L 144.747273 112.115584 
L 144.747273 112.507792 
L 145.139481 112.507792 
L 145.531688 112.9 
L 145.923896 112.9 
L 146.316104 112.9 
L 146.316104 113.292208 
L 146.708312 113.292208 
L 147.100519 113.292208 
L 147.100519 113.684416 
L 147.492727 113.684416 
" style="fill:none;stroke:#8c8c8c;stroke-linecap:square;"/>
   </g>
   <g id="line2d_25">
    <path clip-path="url(#p331cb634d0)" d="M 154.552468 118.390909 
L 154.944675 118.390909 
L 154.944675 118.783117 
L 154.944675 119.175325 
L 155.336883 119.175325 
L 155.336883 119.567532 
L 155.729091 119.567532 
L 155.729091 119.95974 
L 156.121299 119.95974 
L 156.121299 120.351948 
L 156.513506 120.351948 
L 156.513506 120.744156 
L 156.905714 121.136364 
L 157.297922 121.528571 
L 157.69013 121.920779 
L 157.69013 122.312987 
L 158.082338 122.705195 
L 158.474545 123.097403 
L 158.474545 123.48961 
L 158.474545 123.881818 
L 158.866753 124.274026 
L 158.866753 124.666234 
L 159.258961 125.058442 
L 159.258961 125.450649 
L 159.258961 125.842857 
L 159.651169 125.842857 
L 159.651169 126.235065 
L 159.651169 126.627273 
L 160.043377 126.627273 
L 160.043377 127.019481 
L 160.043377 127.411688 
L 160.435584 127.411688 
L 160.435584 127.803896 
L 160.435584 128.196104 
L 160.827792 128.588312 
L 160.827792 128.980519 
L 160.827792 129.372727 
L 161.22 129.372727 
L 161.22 129.764935 
L 161.22 130.157143 
L 161.612208 130.549351 
L 161.612208 130.941558 
L 161.612208 131.333766 
L 162.004416 131.333766 
L 162.004416 131.725974 
L 162.004416 132.118182 
L 162.396623 132.118182 
L 162.396623 132.51039 
L 162.396623 132.902597 
L 162.788831 132.902597 
L 162.788831 133.294805 
L 162.788831 133.687013 
L 163.181039 133.687013 
L 163.181039 134.079221 
L 163.573247 134.079221 
L 163.573247 134.471429 
L 163.965455 134.863636 
L 163.965455 135.255844 
L 164.357662 135.255844 
L 164.74987 135.648052 
L 164.74987 136.04026 
L 165.142078 136.04026 
L 165.142078 136.432468 
L 165.534286 136.432468 
L 165.534286 136.824675 
L 165.926494 136.824675 
L 165.926494 137.216883 
L 166.318701 137.216883 
L 166.318701 137.609091 
L 166.710909 137.609091 
L 166.710909 138.001299 
L 167.103117 138.001299 
L 167.103117 138.393506 
L 167.495325 138.393506 
L 167.495325 138.785714 
L 167.887532 139.177922 
L 167.887532 139.57013 
L 168.27974 139.962338 
L 168.27974 140.354545 
L 168.671948 140.746753 
L 168.671948 141.138961 
L 169.064156 141.138961 
L 169.064156 141.531169 
L 169.064156 141.923377 
L 169.456364 141.923377 
L 169.456364 142.315584 
L 169.456364 142.707792 
L 169.848571 142.707792 
L 169.848571 143.1 
L 169.848571 143.492208 
" style="fill:none;stroke:#8c8c8c;stroke-linecap:square;"/>
   </g>
   <g id="line2d_26">
    <path clip-path="url(#p331cb634d0)" d="M 174.162857 151.336364 
L 174.162857 151.728571 
L 174.555065 151.728571 
L 174.555065 152.905195 
L 174.947273 152.905195 
L 174.947273 154.081818 
L 175.339481 154.474026 
L 175.339481 155.258442 
L 175.731688 155.258442 
L 175.731688 156.042857 
L 176.123896 156.435065 
L 176.123896 157.219481 
L 176.516104 157.219481 
L 176.516104 157.611688 
L 176.908312 158.003896 
L 176.908312 158.396104 
L 177.300519 158.788312 
L 177.300519 159.180519 
L 177.692727 159.572727 
L 177.692727 160.357143 
L 178.084935 160.357143 
L 178.084935 161.141558 
L 178.477143 161.533766 
L 178.477143 162.71039 
L 178.869351 162.71039 
L 178.869351 165.063636 
L 179.261558 165.455844 
L 179.261558 168.593506 
L 179.653766 168.593506 
L 179.653766 171.731169 
L 180.045974 172.123377 
L 180.045974 174.084416 
L 180.438182 174.476623 
L 180.438182 176.045455 
L 180.83039 176.437662 
L 180.83039 177.222078 
L 181.222597 177.222078 
L 181.222597 178.398701 
L 181.614805 178.398701 
L 181.614805 179.183117 
L 182.007013 179.575325 
L 182.007013 179.967532 
L 182.399221 180.35974 
L 182.399221 181.144156 
L 182.791429 181.144156 
L 182.791429 181.928571 
L 183.183636 182.320779 
L 183.183636 182.712987 
L 183.575844 182.712987 
L 183.575844 183.497403 
L 183.968052 183.88961 
L 183.968052 184.281818 
L 184.36026 184.674026 
L 184.36026 185.458442 
L 184.752468 185.458442 
L 184.752468 186.635065 
L 185.144675 187.027273 
L 185.144675 188.203896 
L 185.536883 188.596104 
L 185.536883 190.164935 
L 185.929091 190.557143 
L 185.929091 192.518182 
L 186.321299 192.518182 
L 186.321299 193.694805 
L 186.713506 194.087013 
L 186.713506 195.263636 
L 187.105714 195.263636 
L 187.105714 196.44026 
L 187.497922 196.832468 
L 187.497922 198.009091 
L 187.89013 198.401299 
L 187.89013 199.577922 
L 188.282338 199.577922 
L 188.282338 201.146753 
L 188.674545 201.538961 
L 188.674545 202.323377 
L 189.066753 202.323377 
L 189.066753 203.107792 
L 189.458961 203.5 
L 189.458961 204.676623 
L 189.851169 205.068831 
L 189.851169 206.245455 
L 190.243377 206.637662 
L 190.243377 208.206494 
L 190.635584 208.598701 
L 190.635584 210.167532 
L 191.027792 210.55974 
L 191.027792 211.736364 
L 191.42 212.128571 
L 191.42 213.305195 
L 191.812208 213.305195 
L 191.812208 215.266234 
L 192.204416 215.658442 
L 192.204416 216.442857 
L 192.596623 217.227273 
L 192.596623 217.619481 
L 192.988831 218.403896 
L 192.988831 219.580519 
L 193.381039 219.972727 
L 193.381039 221.149351 
L 193.773247 221.933766 
L 193.773247 222.718182 
L 193.773247 222.718182 
" style="fill:none;stroke:#8c8c8c;stroke-linecap:square;"/>
   </g>
   <g id="line2d_27">
    <path clip-path="url(#p331cb634d0)" d="M 169.456364 115.645455 
L 171.025195 114.468831 
L 171.80961 113.684416 
L 172.986234 112.9 
L 173.770649 112.115584 
L 174.947273 111.331169 
L 176.516104 110.546753 
L 177.300519 109.762338 
L 178.084935 109.37013 
L 178.869351 108.977922 
L 179.653766 108.193506 
L 180.438182 107.801299 
L 180.83039 107.801299 
L 181.222597 107.409091 
" style="fill:none;stroke:#8c8c8c;stroke-linecap:square;"/>
   </g>
   <g id="line2d_28">
    <path clip-path="url(#p331cb634d0)" d="M 185.929091 86.622078 
L 186.321299 86.22987 
L 186.713506 86.22987 
L 186.713506 85.837662 
L 187.497922 85.445455 
L 188.674545 85.053247 
L 189.458961 84.661039 
L 190.243377 84.268831 
L 190.635584 84.268831 
L 191.42 83.876623 
L 191.812208 83.876623 
L 192.204416 83.876623 
L 191.812208 83.876623 
L 191.812208 84.268831 
L 191.42 84.661039 
L 191.027792 85.053247 
L 190.243377 85.445455 
L 189.458961 86.622078 
L 188.674545 87.406494 
L 187.89013 88.583117 
L 187.89013 88.975325 
L 187.497922 89.75974 
L 187.497922 90.544156 
L 187.89013 90.936364 
L 188.282338 91.720779 
L 188.674545 92.112987 
L 189.066753 92.112987 
L 189.851169 92.505195 
L 190.243377 92.505195 
L 191.027792 92.505195 
L 191.027792 92.112987 
L 191.42 92.112987 
" style="fill:none;stroke:#8c8c8c;stroke-linecap:square;"/>
   </g>
   <g id="line2d_29">
    <path clip-path="url(#p331cb634d0)" d="M 196.910909 83.484416 
L 197.303117 83.092208 
L 197.303117 83.484416 
L 197.695325 83.484416 
L 197.695325 83.876623 
L 197.695325 84.268831 
L 198.087532 85.053247 
L 198.087532 85.445455 
L 198.47974 86.622078 
L 198.47974 87.014286 
L 198.871948 88.190909 
L 199.264156 88.583117 
L 199.264156 88.975325 
L 199.264156 89.367532 
" style="fill:none;stroke:#8c8c8c;stroke-linecap:square;"/>
   </g>
   <g id="line2d_30">
    <path clip-path="url(#p331cb634d0)" d="M 194.94987 85.837662 
L 194.94987 86.22987 
L 195.342078 86.22987 
L 195.734286 86.22987 
L 196.126494 86.622078 
L 197.695325 86.622078 
L 199.264156 87.014286 
L 200.048571 87.014286 
L 201.225195 87.014286 
L 202.00961 87.014286 
L 202.794026 87.014286 
" style="fill:none;stroke:#8c8c8c;stroke-linecap:square;"/>
   </g>
  </g>
 </g>
 <defs>
  <clipPath id="p331cb634d0">
   <rect height="271.8" width="351.182857" x="7.2" y="7.2"/>
  </clipPath>
 </defs>
</svg>
