<?xml version="1.0" encoding="utf-8" standalone="no"?>
<!DOCTYPE svg PUBLIC "-//W3C//DTD SVG 1.1//EN"
  "http://www.w3.org/Graphics/SVG/1.1/DTD/svg11.dtd">
<!-- Created with matplotlib (https://matplotlib.org/) -->
<svg height="180.534143pt" version="1.1" viewBox="0 0 586.096905 180.534143" width="586.096905pt" xmlns="http://www.w3.org/2000/svg" xmlns:xlink="http://www.w3.org/1999/xlink">
 <metadata>
  <rdf:RDF xmlns:cc="http://creativecommons.org/ns#" xmlns:dc="http://purl.org/dc/elements/1.1/" xmlns:rdf="http://www.w3.org/1999/02/22-rdf-syntax-ns#">
   <cc:Work>
    <dc:type rdf:resource="http://purl.org/dc/dcmitype/StillImage"/>
    <dc:date>2024-11-21T14:45:39.130658</dc:date>
    <dc:format>image/svg+xml</dc:format>
    <dc:creator>
     <cc:Agent>
      <dc:title>Matplotlib v3.3.4, https://matplotlib.org/</dc:title>
     </cc:Agent>
    </dc:creator>
   </cc:Work>
  </rdf:RDF>
 </metadata>
 <defs>
  <style type="text/css">*{stroke-linecap:butt;stroke-linejoin:round;}</style>
 </defs>
 <g id="figure_1">
  <g id="patch_1">
   <path d="M 0 180.534143 
L 586.096905 180.534143 
L 586.096905 0 
L 0 0 
z
" style="fill:#ffffff;"/>
  </g>
  <g id="axes_1">
   <g id="line2d_1">
    <path clip-path="url(#p47263827a1)" d="M 59.838759 85.824982 
L 64.280849 85.824982 
L 64.280849 81.382893 
L 68.722938 81.382893 
L 68.722938 76.940803 
L 68.722938 72.498714 
L 64.280849 72.498714 
L 64.280849 68.056625 
L 59.838759 68.056625 
L 55.39667 72.498714 
L 46.512491 72.498714 
L 46.512491 76.940803 
L 42.070402 81.382893 
L 37.628312 94.709161 
L 33.186223 99.15125 
L 33.186223 112.477519 
L 33.186223 121.361697 
L 37.628312 130.245876 
L 42.070402 143.572144 
L 50.954581 148.014234 
L 59.838759 156.898413 
L 64.280849 161.340502 
L 73.165028 161.340502 
L 82.049206 165.782591 
L 90.933385 161.340502 
L 95.375474 156.898413 
L 99.817564 152.456323 
L 104.259653 148.014234 
L 104.259653 139.130055 
L 104.259653 130.245876 
L 99.817564 125.803787 
L 95.375474 116.919608 
L 90.933385 108.035429 
L 86.491296 103.59334 
L 77.607117 99.15125 
L 73.165028 94.709161 
L 68.722938 90.267072 
L 64.280849 90.267072 
L 64.280849 85.824982 
" style="fill:none;stroke:#8c8c8c;stroke-linecap:square;"/>
   </g>
   <g id="line2d_2">
    <path clip-path="url(#p47263827a1)" d="M 130.91219 14.751552 
L 130.91219 19.193641 
L 130.91219 23.635731 
L 135.354279 28.07782 
L 135.354279 32.51991 
L 135.354279 41.404088 
L 139.796368 59.172446 
L 139.796368 68.056625 
L 144.238458 90.267072 
L 148.680547 99.15125 
L 148.680547 112.477519 
L 153.122637 125.803787 
L 153.122637 139.130055 
L 153.122637 143.572144 
L 157.564726 148.014234 
L 157.564726 152.456323 
L 162.006815 156.898413 
" style="fill:none;stroke:#8c8c8c;stroke-linecap:square;"/>
   </g>
   <g id="line2d_3">
    <path clip-path="url(#p47263827a1)" d="M 188.659352 99.15125 
L 188.659352 103.59334 
L 193.101441 108.035429 
L 193.101441 112.477519 
L 193.101441 116.919608 
L 193.101441 121.361697 
L 197.543531 125.803787 
" style="fill:none;stroke:#8c8c8c;stroke-linecap:square;"/>
   </g>
   <g id="line2d_4">
    <path clip-path="url(#p47263827a1)" d="M 215.311888 54.730357 
L 215.311888 59.172446 
L 219.753978 63.614535 
L 219.753978 68.056625 
L 224.196067 72.498714 
L 224.196067 76.940803 
L 228.638156 85.824982 
L 233.080246 94.709161 
L 237.522335 99.15125 
L 241.964424 108.035429 
L 246.406514 116.919608 
L 246.406514 121.361697 
L 250.848603 130.245876 
L 255.290693 134.687966 
L 259.732782 139.130055 
L 259.732782 143.572144 
L 264.174871 143.572144 
L 268.616961 143.572144 
L 268.616961 139.130055 
L 268.616961 134.687966 
L 268.616961 130.245876 
L 273.05905 125.803787 
L 273.05905 116.919608 
L 273.05905 108.035429 
L 268.616961 94.709161 
L 268.616961 85.824982 
L 268.616961 81.382893 
L 268.616961 72.498714 
L 268.616961 68.056625 
L 268.616961 63.614535 
" style="fill:none;stroke:#8c8c8c;stroke-linecap:square;"/>
   </g>
   <g id="line2d_5">
    <path clip-path="url(#p47263827a1)" d="M 299.711587 76.940803 
L 304.153676 81.382893 
L 304.153676 85.824982 
L 308.595765 90.267072 
L 308.595765 94.709161 
L 313.037855 103.59334 
L 317.479944 112.477519 
L 317.479944 121.361697 
L 317.479944 125.803787 
L 321.922034 130.245876 
" style="fill:none;stroke:#8c8c8c;stroke-linecap:square;"/>
   </g>
   <g id="line2d_6">
    <path clip-path="url(#p47263827a1)" d="M 317.479944 45.846178 
L 317.479944 36.961999 
L 317.479944 28.07782 
L 313.037855 28.07782 
L 313.037855 23.635731 
L 317.479944 23.635731 
" style="fill:none;stroke:#8c8c8c;stroke-linecap:square;"/>
   </g>
   <g id="line2d_7">
    <path clip-path="url(#p47263827a1)" d="M 357.458749 68.056625 
L 361.900838 68.056625 
L 361.900838 72.498714 
L 361.900838 76.940803 
L 361.900838 81.382893 
L 366.342928 90.267072 
L 366.342928 94.709161 
L 370.785017 103.59334 
L 370.785017 112.477519 
L 370.785017 116.919608 
L 375.227106 121.361697 
L 375.227106 125.803787 
L 375.227106 130.245876 
L 379.669196 130.245876 
L 379.669196 125.803787 
L 379.669196 121.361697 
L 379.669196 112.477519 
L 384.111285 103.59334 
L 388.553374 90.267072 
L 392.995464 81.382893 
L 392.995464 76.940803 
L 397.437553 68.056625 
L 401.879643 68.056625 
L 406.321732 68.056625 
L 406.321732 72.498714 
L 410.763821 72.498714 
L 410.763821 76.940803 
L 415.205911 81.382893 
L 415.205911 85.824982 
L 419.648 94.709161 
L 424.09009 99.15125 
L 424.09009 103.59334 
L 424.09009 108.035429 
L 428.532179 112.477519 
" style="fill:none;stroke:#8c8c8c;stroke-linecap:square;"/>
   </g>
   <g id="line2d_8">
    <path clip-path="url(#p47263827a1)" d="M 464.068894 121.361697 
L 468.510984 116.919608 
L 472.953073 116.919608 
L 472.953073 112.477519 
L 477.395162 112.477519 
L 481.837252 108.035429 
L 490.721431 103.59334 
L 499.605609 99.15125 
L 508.489788 90.267072 
L 512.931878 81.382893 
L 517.373967 76.940803 
L 521.816056 68.056625 
L 526.258146 63.614535 
L 526.258146 59.172446 
L 526.258146 54.730357 
L 521.816056 50.288267 
L 517.373967 50.288267 
L 512.931878 50.288267 
L 508.489788 50.288267 
L 504.047699 54.730357 
L 499.605609 63.614535 
L 495.16352 72.498714 
L 490.721431 85.824982 
L 490.721431 94.709161 
L 495.16352 108.035429 
L 495.16352 116.919608 
L 499.605609 125.803787 
L 508.489788 134.687966 
L 517.373967 139.130055 
L 526.258146 143.572144 
L 535.142324 148.014234 
L 548.468593 152.456323 
L 552.910682 152.456323 
" style="fill:none;stroke:#8c8c8c;stroke-linecap:square;"/>
   </g>
  </g>
 </g>
 <defs>
  <clipPath id="p47263827a1">
   <rect height="166.134143" width="571.696905" x="7.2" y="7.2"/>
  </clipPath>
 </defs>
</svg>
