<?xml version="1.0" encoding="utf-8" standalone="no"?>
<!DOCTYPE svg PUBLIC "-//W3C//DTD SVG 1.1//EN"
  "http://www.w3.org/Graphics/SVG/1.1/DTD/svg11.dtd">
<!-- Created with matplotlib (https://matplotlib.org/) -->
<svg height="106.529573pt" version="1.1" viewBox="0 0 586.096905 106.529573" width="586.096905pt" xmlns="http://www.w3.org/2000/svg" xmlns:xlink="http://www.w3.org/1999/xlink">
 <metadata>
  <rdf:RDF xmlns:cc="http://creativecommons.org/ns#" xmlns:dc="http://purl.org/dc/elements/1.1/" xmlns:rdf="http://www.w3.org/1999/02/22-rdf-syntax-ns#">
   <cc:Work>
    <dc:type rdf:resource="http://purl.org/dc/dcmitype/StillImage"/>
    <dc:date>2024-11-21T14:45:39.964005</dc:date>
    <dc:format>image/svg+xml</dc:format>
    <dc:creator>
     <cc:Agent>
      <dc:title>Matplotlib v3.3.4, https://matplotlib.org/</dc:title>
     </cc:Agent>
    </dc:creator>
   </cc:Work>
  </rdf:RDF>
 </metadata>
 <defs>
  <style type="text/css">*{stroke-linecap:butt;stroke-linejoin:round;}</style>
 </defs>
 <g id="figure_1">
  <g id="patch_1">
   <path d="M 0 106.529573 
L 586.096905 106.529573 
L 586.096905 0 
L 0 0 
z
" style="fill:#ffffff;"/>
  </g>
  <g id="axes_1">
   <g id="line2d_1">
    <path clip-path="url(#pe0a3a1d284)" d="M 33.186223 20.361368 
L 33.934028 19.613563 
L 39.168663 19.613563 
L 39.168663 18.865758 
L 56.368177 18.865758 
L 58.611592 19.613563 
L 67.585252 19.613563 
L 70.576472 18.865758 
L 73.567692 18.865758 
L 76.558912 18.117953 
L 85.532571 18.117953 
L 88.523791 17.370148 
L 142.36575 17.370148 
L 145.35697 16.622343 
L 181.251608 16.622343 
L 184.242828 15.874538 
L 188.729658 15.874538 
L 193.216488 15.126733 
L 196.955513 15.126733 
L 199.198928 14.378928 
L 224.624297 14.378928 
L 227.615517 15.126733 
L 253.040886 15.126733 
L 256.032106 15.874538 
L 290.431135 15.874538 
L 293.422355 15.126733 
L 322.586749 15.126733 
L 325.577969 14.378928 
L 348.759923 14.378928 
L 353.994558 13.631123 
L 379.419927 13.631123 
L 383.158952 12.883318 
L 413.818956 12.883318 
L 419.053591 12.135513 
L 428.775056 12.135513 
L 432.514081 11.387708 
L 484.112624 11.387708 
L 488.599454 12.135513 
L 523.746288 12.135513 
L 527.485313 12.883318 
L 533.467753 12.883318 
L 537.206778 13.631123 
L 552.162877 13.631123 
L 552.910682 12.883318 
L 552.910682 12.883318 
" style="fill:none;stroke:#8c8c8c;stroke-linecap:square;"/>
   </g>
   <g id="line2d_2">
    <path clip-path="url(#pe0a3a1d284)" d="M 276.222841 57.003811 
L 276.970645 57.003811 
L 276.970645 56.256006 
L 276.222841 57.003811 
L 275.475036 57.003811 
L 273.979426 57.751616 
L 273.231621 58.499421 
L 270.240401 59.995031 
L 268.744791 60.742836 
L 266.501376 62.238446 
L 265.005766 62.238446 
L 263.510156 62.986251 
L 262.762351 63.734056 
L 262.762351 64.481861 
L 263.510156 64.481861 
L 265.005766 65.229666 
L 265.753571 65.229666 
L 267.249181 65.229666 
L 268.744791 65.229666 
L 270.240401 65.977471 
L 271.736011 66.725276 
L 273.231621 67.473081 
L 273.231621 68.220886 
L 273.979426 69.716496 
L 273.979426 70.464301 
L 273.979426 72.707716 
L 273.231621 74.203326 
L 272.483816 75.698936 
L 270.988206 77.194546 
L 269.492596 77.942351 
L 268.744791 78.690156 
L 267.249181 78.690156 
L 266.501376 78.690156 
L 265.753571 78.690156 
L 265.753571 77.942351 
L 265.753571 77.194546 
" style="fill:none;stroke:#8c8c8c;stroke-linecap:square;"/>
   </g>
   <g id="line2d_3">
    <path clip-path="url(#pe0a3a1d284)" d="M 285.1965 58.499421 
L 285.944305 58.499421 
L 285.944305 59.247226 
L 285.944305 59.995031 
L 285.944305 60.742836 
L 285.944305 62.238446 
L 285.944305 64.481861 
L 286.69211 66.725276 
L 286.69211 69.716496 
L 286.69211 71.959911 
L 286.69211 74.951131 
L 286.69211 77.194546 
L 286.69211 78.690156 
L 286.69211 80.933571 
L 286.69211 81.681376 
L 286.69211 82.429181 
" style="fill:none;stroke:#8c8c8c;stroke-linecap:square;"/>
   </g>
   <g id="line2d_4">
    <path clip-path="url(#pe0a3a1d284)" d="M 285.944305 72.707716 
L 288.18772 71.212106 
L 290.431135 69.716496 
L 292.67455 68.220886 
L 294.917965 66.725276 
L 297.909185 65.229666 
L 300.1526 63.734056 
L 300.900405 62.986251 
L 301.64821 62.986251 
L 301.64821 62.238446 
L 301.64821 62.986251 
" style="fill:none;stroke:#8c8c8c;stroke-linecap:square;"/>
   </g>
   <g id="line2d_5">
    <path clip-path="url(#pe0a3a1d284)" d="M 288.935525 71.959911 
L 289.68333 71.959911 
L 290.431135 73.455521 
L 290.431135 74.203326 
L 291.926745 75.698936 
L 291.926745 76.446741 
L 293.422355 77.942351 
L 293.422355 78.690156 
L 294.17016 80.185766 
L 294.917965 81.681376 
L 294.917965 82.429181 
L 295.66577 82.429181 
L 295.66577 83.176986 
" style="fill:none;stroke:#8c8c8c;stroke-linecap:square;"/>
   </g>
   <g id="line2d_6">
    <path clip-path="url(#pe0a3a1d284)" d="M 303.891625 75.698936 
L 303.891625 76.446741 
L 303.891625 78.690156 
L 304.63943 78.690156 
L 304.63943 79.437961 
L 304.63943 80.185766 
" style="fill:none;stroke:#8c8c8c;stroke-linecap:square;"/>
   </g>
   <g id="line2d_7">
    <path clip-path="url(#pe0a3a1d284)" d="M 306.13504 71.212106 
L 306.13504 70.464301 
L 306.13504 68.968691 
L 306.13504 68.220886 
" style="fill:none;stroke:#8c8c8c;stroke-linecap:square;"/>
   </g>
   <g id="line2d_8">
    <path clip-path="url(#pe0a3a1d284)" d="M 316.604309 75.698936 
L 316.604309 76.446741 
L 316.604309 77.194546 
L 315.856504 77.942351 
L 315.856504 78.690156 
L 315.856504 79.437961 
L 316.604309 79.437961 
L 317.352114 79.437961 
L 318.099919 79.437961 
L 318.847724 79.437961 
L 318.847724 78.690156 
L 319.595529 78.690156 
L 320.343334 77.194546 
L 321.091139 76.446741 
L 321.091139 75.698936 
L 321.091139 74.203326 
L 321.091139 73.455521 
L 320.343334 71.959911 
L 320.343334 71.212106 
L 319.595529 70.464301 
L 318.847724 69.716496 
L 318.099919 69.716496 
L 317.352114 69.716496 
L 316.604309 69.716496 
L 315.856504 70.464301 
L 315.108699 71.959911 
L 315.108699 73.455521 
L 314.360894 75.698936 
L 314.360894 77.942351 
L 314.360894 80.185766 
L 314.360894 83.924791 
L 315.108699 85.420401 
L 315.108699 87.663816 
L 315.856504 89.90723 
L 315.856504 91.40284 
L 316.604309 92.89845 
L 316.604309 93.646255 
L 317.352114 94.39406 
L 317.352114 95.141865 
" style="fill:none;stroke:#8c8c8c;stroke-linecap:square;"/>
   </g>
   <g id="line2d_9">
    <path clip-path="url(#pe0a3a1d284)" d="M 327.073579 79.437961 
L 327.821384 79.437961 
L 328.569189 79.437961 
L 329.316994 79.437961 
L 330.812604 78.690156 
L 331.560409 77.942351 
L 333.056019 77.194546 
L 333.803824 76.446741 
L 334.551629 75.698936 
L 335.299434 74.203326 
L 336.047239 72.707716 
L 336.047239 71.959911 
L 336.047239 70.464301 
L 336.047239 69.716496 
L 335.299434 68.220886 
L 335.299434 67.473081 
L 334.551629 66.725276 
L 333.803824 65.977471 
L 333.056019 65.977471 
L 332.308214 65.977471 
L 331.560409 65.977471 
L 330.812604 66.725276 
L 330.064799 68.220886 
L 330.064799 69.716496 
L 329.316994 71.959911 
L 329.316994 74.203326 
L 330.064799 76.446741 
L 330.064799 80.185766 
L 330.064799 81.681376 
L 330.812604 83.176986 
L 330.812604 85.420401 
L 331.560409 86.168206 
L 331.560409 86.916011 
L 332.308214 87.663816 
" style="fill:none;stroke:#8c8c8c;stroke-linecap:square;"/>
   </g>
   <g id="line2d_10">
    <path clip-path="url(#pe0a3a1d284)" d="M 340.534069 77.942351 
L 340.534069 77.194546 
L 341.281874 77.194546 
L 342.029679 77.194546 
L 343.525288 76.446741 
L 344.273093 75.698936 
L 345.020898 74.951131 
L 346.516508 74.203326 
L 347.264313 72.707716 
L 348.012118 71.959911 
L 348.759923 71.212106 
L 348.759923 70.464301 
L 348.759923 69.716496 
L 348.759923 68.968691 
L 348.759923 68.220886 
L 348.012118 67.473081 
L 347.264313 67.473081 
L 346.516508 67.473081 
L 345.768703 68.220886 
L 345.020898 68.968691 
L 343.525288 70.464301 
L 342.777483 72.707716 
L 341.281874 75.698936 
L 341.281874 77.942351 
L 341.281874 79.437961 
L 342.029679 81.681376 
L 342.777483 82.429181 
L 343.525288 83.924791 
L 344.273093 83.924791 
" style="fill:none;stroke:#8c8c8c;stroke-linecap:square;"/>
   </g>
   <g id="line2d_11">
    <path clip-path="url(#pe0a3a1d284)" d="M 350.255533 82.429181 
L 353.994558 78.690156 
L 354.742363 77.942351 
L 355.490168 76.446741 
L 356.237973 75.698936 
L 356.237973 74.203326 
L 356.237973 73.455521 
L 356.237973 72.707716 
L 355.490168 71.959911 
L 354.742363 71.959911 
L 354.742363 71.212106 
L 353.994558 71.212106 
L 353.246753 71.959911 
L 352.498948 72.707716 
L 351.751143 73.455521 
L 351.751143 74.203326 
L 351.003338 76.446741 
L 351.003338 77.942351 
L 351.751143 79.437961 
L 351.751143 80.185766 
L 353.246753 80.933571 
L 353.994558 80.933571 
L 354.742363 80.933571 
L 356.237973 79.437961 
L 357.733583 78.690156 
L 358.481388 77.194546 
L 359.976998 74.203326 
L 360.724803 71.959911 
L 361.472608 68.220886 
L 362.220413 65.229666 
L 362.220413 62.986251 
L 362.968218 59.247226 
L 362.968218 57.751616 
L 362.968218 55.508202 
L 362.968218 54.760397 
L 362.968218 55.508202 
L 362.220413 57.003811 
L 362.220413 58.499421 
L 361.472608 60.742836 
L 360.724803 65.229666 
L 360.724803 68.220886 
L 360.724803 71.959911 
L 360.724803 76.446741 
L 360.724803 78.690156 
L 359.976998 82.429181 
L 359.976998 84.672596 
L 359.976998 86.168206 
L 359.229193 87.663816 
" style="fill:none;stroke:#8c8c8c;stroke-linecap:square;"/>
   </g>
  </g>
 </g>
 <defs>
  <clipPath id="pe0a3a1d284">
   <rect height="92.129573" width="571.696905" x="7.2" y="7.2"/>
  </clipPath>
 </defs>
</svg>
